<svg width="1570" height="943" viewBox="0 0 1570 943" fill="none" xmlns="http://www.w3.org/2000/svg">
<path d="M1441.19 74H49.8087C25.0615 74 5 90.4723 5 110.792V901.208C5 921.528 25.0615 938 49.8087 938H1441.19C1465.94 938 1486 921.528 1486 901.208V110.792C1486 90.4723 1465.94 74 1441.19 74Z" fill="white" stroke="#1C5E8A" stroke-width="10" stroke-miterlimit="10"/>
<path d="M1569.55 56.5757C1569.55 25.3298 1541.67 0 1507.27 0C1472.88 0 1445 25.3298 1445 56.5757C1445 87.8216 1472.88 113.151 1507.27 113.151C1541.67 113.151 1569.55 87.8216 1569.55 56.5757Z" fill="#1C5E8A"/>
<path d="M1533.44 82.6494C1532.69 82.65 1531.94 82.5322 1531.25 82.3028C1530.55 82.0735 1529.92 81.7371 1529.38 81.3132L1474.69 38.0479C1474.16 37.6273 1473.73 37.127 1473.44 36.5758C1473.15 36.0246 1473 35.4335 1473 34.8364C1473 34.2393 1473.15 33.6481 1473.44 33.0969C1473.73 32.5457 1474.16 32.0455 1474.69 31.6249L1476.33 30.3278C1477.41 29.4775 1478.87 29 1480.39 29C1481.91 29 1483.37 29.4775 1484.45 30.3278L1539.14 73.5931C1540.22 74.4469 1540.82 75.6032 1540.82 76.8085C1540.82 78.0138 1540.22 79.1701 1539.14 80.0239L1537.5 81.3132C1536.97 81.7371 1536.34 82.0735 1535.64 82.3028C1534.95 82.5322 1534.2 82.65 1533.44 82.6494Z" fill="white"/>
<path d="M1480.86 30.9612C1481.29 30.9626 1481.72 31.0325 1482.11 31.1667C1482.51 31.3009 1482.87 31.4966 1483.17 31.7424L1537.86 75.0022C1538.16 75.2425 1538.41 75.528 1538.57 75.8424C1538.74 76.1568 1538.82 76.4939 1538.82 76.8343C1538.82 77.1748 1538.74 77.5119 1538.57 77.8263C1538.41 78.1407 1538.16 78.4262 1537.86 78.6665L1536.22 79.9634C1535.92 80.2078 1535.56 80.4026 1535.16 80.5367C1534.77 80.6708 1534.34 80.7415 1533.91 80.7447C1533.04 80.7369 1532.2 80.456 1531.59 79.9634L1476.9 36.6489C1476.29 36.1616 1475.94 35.5031 1475.94 34.8168C1475.94 34.1305 1476.29 33.472 1476.9 32.9847L1478.54 31.6878C1478.84 31.4424 1479.2 31.247 1479.6 31.1129C1480 30.9788 1480.43 30.9086 1480.86 30.9065M1480.86 27C1479.78 26.9971 1478.71 27.1634 1477.71 27.4892C1476.72 27.8151 1475.81 28.2941 1475.05 28.8986L1473.41 30.1955C1472.65 30.798 1472.04 31.5139 1471.63 32.3023C1471.21 33.0906 1471 33.9358 1471 34.7895C1471 35.6431 1471.21 36.4883 1471.63 37.2767C1472.04 38.065 1472.65 38.7809 1473.41 39.3834L1528.1 82.6432C1528.86 83.2479 1529.77 83.7278 1530.76 84.0552C1531.76 84.3826 1532.83 84.5511 1533.91 84.5511C1534.99 84.5511 1536.06 84.3826 1537.05 84.0552C1538.05 83.7278 1538.96 83.2479 1539.72 82.6432L1541.36 81.3463C1542.89 80.1264 1543.76 78.4745 1543.76 76.7523C1543.76 75.0301 1542.89 73.3782 1541.36 72.1583L1486.72 28.9533C1485.96 28.3488 1485.05 27.8698 1484.05 27.5439C1483.06 27.2181 1481.99 27.0518 1480.91 27.0547L1480.86 27Z" fill="white"/>
<path d="M1480.39 82.6494C1479.64 82.65 1478.89 82.5322 1478.19 82.3028C1477.49 82.0735 1476.86 81.7371 1476.33 81.3132L1474.69 80.0161C1474.16 79.5955 1473.73 79.0952 1473.44 78.544C1473.15 77.9929 1473 77.4017 1473 76.8046C1473 76.2075 1473.15 75.6163 1473.44 75.0651C1473.73 74.514 1474.16 74.0137 1474.69 73.5931L1529.39 30.3278C1530.46 29.4775 1531.92 29 1533.45 29C1534.97 29 1536.43 29.4775 1537.51 30.3278L1539.14 31.6249C1540.22 32.4774 1540.82 33.6323 1540.82 34.8364C1540.82 36.0405 1540.22 37.1954 1539.14 38.0479L1484.45 81.3132C1483.92 81.7371 1483.29 82.0735 1482.59 82.3028C1481.89 82.5322 1481.15 82.65 1480.39 82.6494Z" fill="white"/>
<path d="M1533.91 30.9065C1534.34 30.9079 1534.77 30.9778 1535.16 31.112C1535.56 31.2462 1535.92 31.442 1536.22 31.6878L1537.86 32.9847C1538.16 33.2249 1538.41 33.5105 1538.57 33.8249C1538.74 34.1393 1538.82 34.4764 1538.82 34.8168C1538.82 35.1572 1538.74 35.4943 1538.57 35.8087C1538.41 36.1231 1538.16 36.4086 1537.86 36.6489L1483.17 79.9087C1482.87 80.1531 1482.51 80.348 1482.11 80.482C1481.72 80.6161 1481.29 80.6868 1480.86 80.69C1479.99 80.6822 1479.15 80.4013 1478.54 79.9087L1476.9 78.6118C1476.29 78.1245 1475.94 77.466 1475.94 76.7796C1475.94 76.0933 1476.29 75.4348 1476.9 74.9475L1531.59 31.6878C1531.89 31.4424 1532.25 31.247 1532.65 31.1129C1533.05 30.9788 1533.48 30.9086 1533.91 30.9065ZM1533.91 27C1532.83 26.9971 1531.76 27.1634 1530.76 27.4892C1529.77 27.8151 1528.86 28.2941 1528.1 28.8986L1473.41 72.1583C1472.65 72.7608 1472.04 73.4768 1471.63 74.2651C1471.21 75.0534 1471 75.8987 1471 76.7523C1471 77.6059 1471.21 78.4511 1471.63 79.2395C1472.04 80.0278 1472.65 80.7438 1473.41 81.3463L1475.05 82.6432C1475.81 83.2479 1476.72 83.7278 1477.71 84.0552C1478.71 84.3826 1479.78 84.5511 1480.86 84.5511C1481.94 84.5511 1483.01 84.3826 1484 84.0552C1485 83.7278 1485.91 83.2479 1486.67 82.6432L1541.36 39.3834C1542.89 38.1636 1543.76 36.5116 1543.76 34.7895C1543.76 33.0673 1542.89 31.4153 1541.36 30.1955L1539.72 28.8986C1538.96 28.2941 1538.05 27.8151 1537.05 27.4892C1536.06 27.1634 1534.99 26.9971 1533.91 27Z" fill="white"/>
<path d="M523 77H1014V123.655C1014 127.99 1012.27 132.147 1009.18 135.213C1006.1 138.278 1001.91 140 997.551 140H539.449C535.087 140 530.903 138.278 527.818 135.213C524.733 132.147 523 127.99 523 123.655V77Z" fill="#1C5E8A"/>
<path d="M579.825 93.4097C581.361 93.4097 582.765 93.6377 584.037 94.0937C585.333 94.5257 586.449 95.0897 587.385 95.7857C588.321 96.4817 589.053 97.2497 589.581 98.0897C590.109 98.9297 590.385 99.7337 590.409 100.502C590.409 100.718 590.325 100.91 590.157 101.078C590.013 101.222 589.845 101.294 589.653 101.294H584.937C584.601 101.294 584.325 101.246 584.109 101.15C583.917 101.054 583.713 100.91 583.497 100.718C583.425 100.646 583.305 100.526 583.137 100.358C582.993 100.19 582.777 100.022 582.489 99.8537C582.201 99.6617 581.841 99.5057 581.409 99.3857C580.977 99.2417 580.449 99.1697 579.825 99.1697C579.369 99.1697 578.925 99.2057 578.493 99.2777C578.085 99.3257 577.713 99.4217 577.377 99.5657C577.065 99.6857 576.801 99.8657 576.585 100.106C576.393 100.346 576.297 100.646 576.297 101.006C576.297 101.366 576.405 101.666 576.621 101.906C576.861 102.146 577.245 102.374 577.773 102.59C578.325 102.782 579.045 102.974 579.933 103.166C580.821 103.358 581.925 103.586 583.245 103.85C584.565 104.114 585.717 104.45 586.701 104.858C587.685 105.266 588.501 105.782 589.149 106.406C589.821 107.006 590.313 107.726 590.625 108.566C590.961 109.382 591.129 110.354 591.129 111.482C591.129 112.706 590.853 113.798 590.301 114.758C589.749 115.718 588.969 116.546 587.961 117.242C586.977 117.914 585.801 118.43 584.433 118.79C583.089 119.15 581.613 119.33 580.005 119.33C578.373 119.33 576.885 119.114 575.541 118.682C574.197 118.25 573.033 117.686 572.049 116.99C571.089 116.27 570.333 115.466 569.781 114.578C569.229 113.69 568.941 112.79 568.917 111.878C568.917 111.662 568.989 111.482 569.133 111.338C569.301 111.17 569.481 111.086 569.673 111.086H574.389C574.725 111.086 574.989 111.134 575.181 111.23C575.373 111.302 575.565 111.422 575.757 111.59C575.853 111.686 575.997 111.842 576.189 112.058C576.381 112.274 576.633 112.502 576.945 112.742C577.281 112.958 577.689 113.15 578.169 113.318C578.673 113.486 579.285 113.57 580.005 113.57C581.277 113.57 582.333 113.438 583.173 113.174C584.037 112.886 584.469 112.382 584.469 111.662C584.469 111.302 584.313 111.002 584.001 110.762C583.689 110.522 583.221 110.306 582.597 110.114C581.973 109.898 581.169 109.694 580.185 109.502C579.225 109.31 578.085 109.07 576.765 108.782C574.293 108.254 572.481 107.378 571.329 106.154C570.201 104.906 569.637 103.25 569.637 101.186C569.637 100.154 569.865 99.1697 570.321 98.2337C570.801 97.2977 571.485 96.4697 572.373 95.7497C573.261 95.0297 574.329 94.4657 575.577 94.0577C576.849 93.6257 578.265 93.4097 579.825 93.4097ZM612.981 93.7697C613.245 93.7697 613.473 93.8657 613.665 94.0577C613.857 94.2497 613.953 94.4777 613.953 94.7417V98.5577C613.953 98.8217 613.857 99.0497 613.665 99.2417C613.473 99.4337 613.245 99.5297 612.981 99.5297H606.645V117.998C606.645 118.262 606.549 118.49 606.357 118.682C606.165 118.874 605.937 118.97 605.673 118.97H600.957C600.693 118.97 600.465 118.874 600.273 118.682C600.081 118.49 599.985 118.262 599.985 117.998V99.5297H593.649C593.385 99.5297 593.157 99.4337 592.965 99.2417C592.773 99.0497 592.677 98.8217 592.677 98.5577V94.7417C592.677 94.4777 592.773 94.2497 592.965 94.0577C593.157 93.8657 593.385 93.7697 593.649 93.7697H612.981ZM627.915 93.7697C629.499 93.7697 630.915 93.9377 632.163 94.2737C633.411 94.6097 634.467 95.1137 635.331 95.7857C636.219 96.4577 636.891 97.3217 637.347 98.3777C637.827 99.4097 638.067 100.622 638.067 102.014C638.067 103.814 637.695 105.314 636.951 106.514C636.207 107.69 635.151 108.59 633.783 109.214L638.247 117.782C638.319 117.926 638.355 118.058 638.355 118.178C638.355 118.394 638.271 118.586 638.103 118.754C637.959 118.898 637.779 118.97 637.563 118.97H632.667C632.187 118.97 631.839 118.862 631.623 118.646C631.431 118.43 631.275 118.214 631.155 117.998L627.159 110.294H623.847V117.998C623.847 118.262 623.751 118.49 623.559 118.682C623.367 118.874 623.139 118.97 622.875 118.97H618.159C617.895 118.97 617.667 118.874 617.475 118.682C617.283 118.49 617.187 118.262 617.187 117.998V94.7417C617.187 94.4777 617.283 94.2497 617.475 94.0577C617.667 93.8657 617.895 93.7697 618.159 93.7697H627.915ZM623.847 104.678H627.915C628.923 104.678 629.751 104.486 630.399 104.102C631.071 103.718 631.407 103.022 631.407 102.014C631.407 101.006 631.071 100.31 630.399 99.9257C629.751 99.5417 628.923 99.3497 627.915 99.3497H623.847V104.678ZM655.363 93.7697C655.843 93.7697 656.203 93.9017 656.443 94.1657C656.707 94.4297 656.887 94.6937 656.983 94.9577L664.831 117.638C664.927 117.878 664.975 118.058 664.975 118.178C664.975 118.394 664.891 118.586 664.723 118.754C664.579 118.898 664.399 118.97 664.183 118.97H659.647C659.167 118.97 658.819 118.874 658.603 118.682C658.411 118.466 658.291 118.262 658.243 118.07L657.235 115.082H647.659L646.651 118.07C646.603 118.262 646.471 118.466 646.255 118.682C646.063 118.874 645.727 118.97 645.247 118.97H640.711C640.495 118.97 640.303 118.898 640.135 118.754C639.991 118.586 639.919 118.394 639.919 118.178C639.919 118.058 639.967 117.878 640.063 117.638L647.911 94.9577C648.007 94.6937 648.175 94.4297 648.415 94.1657C648.679 93.9017 649.051 93.7697 649.531 93.7697H655.363ZM649.531 109.502H655.363L652.447 100.862L649.531 109.502ZM683.856 93.7697C684.12 93.7697 684.348 93.8657 684.54 94.0577C684.732 94.2497 684.828 94.4777 684.828 94.7417V98.5577C684.828 98.8217 684.732 99.0497 684.54 99.2417C684.348 99.4337 684.12 99.5297 683.856 99.5297H677.52V117.998C677.52 118.262 677.424 118.49 677.232 118.682C677.04 118.874 676.812 118.97 676.548 118.97H671.832C671.568 118.97 671.34 118.874 671.148 118.682C670.956 118.49 670.86 118.262 670.86 117.998V99.5297H664.524C664.26 99.5297 664.032 99.4337 663.84 99.2417C663.648 99.0497 663.552 98.8217 663.552 98.5577V94.7417C663.552 94.4777 663.648 94.2497 663.84 94.0577C664.032 93.8657 664.26 93.7697 664.524 93.7697H683.856ZM706.098 113.21C706.362 113.21 706.59 113.306 706.782 113.498C706.974 113.69 707.07 113.918 707.07 114.182V117.998C707.07 118.262 706.974 118.49 706.782 118.682C706.59 118.874 706.362 118.97 706.098 118.97H689.034C688.77 118.97 688.542 118.874 688.35 118.682C688.158 118.49 688.062 118.262 688.062 117.998V94.7417C688.062 94.4777 688.158 94.2497 688.35 94.0577C688.542 93.8657 688.77 93.7697 689.034 93.7697H705.81C706.074 93.7697 706.302 93.8657 706.494 94.0577C706.686 94.2497 706.782 94.4777 706.782 94.7417V98.5577C706.782 98.8217 706.686 99.0497 706.494 99.2417C706.302 99.4337 706.074 99.5297 705.81 99.5297H694.722V103.418H705.018C705.282 103.418 705.51 103.514 705.702 103.706C705.894 103.898 705.99 104.126 705.99 104.39V108.206C705.99 108.47 705.894 108.698 705.702 108.89C705.51 109.082 705.282 109.178 705.018 109.178H694.722V113.21H706.098ZM721.281 99.1697C720.465 99.1697 719.781 99.2897 719.229 99.5297C718.677 99.7457 718.221 100.046 717.861 100.43C717.525 100.814 717.273 101.258 717.105 101.762C716.937 102.266 716.817 102.794 716.745 103.346C716.697 103.658 716.661 104.09 716.637 104.642C716.637 105.194 716.637 105.77 716.637 106.37C716.637 106.946 716.649 107.522 716.673 108.098C716.697 108.65 716.721 109.082 716.745 109.394C716.793 109.946 716.901 110.474 717.069 110.978C717.261 111.482 717.525 111.926 717.861 112.31C718.221 112.694 718.677 113.006 719.229 113.246C719.805 113.462 720.489 113.57 721.281 113.57C721.905 113.57 722.493 113.498 723.045 113.354C723.597 113.21 724.077 112.982 724.485 112.67C724.893 112.358 725.217 111.95 725.457 111.446C725.697 110.942 725.817 110.33 725.817 109.61H722.793C722.529 109.61 722.301 109.514 722.109 109.322C721.917 109.13 721.821 108.902 721.821 108.638V104.822C721.821 104.558 721.917 104.33 722.109 104.138C722.301 103.946 722.529 103.85 722.793 103.85H731.505C731.769 103.85 731.997 103.946 732.189 104.138C732.381 104.33 732.477 104.558 732.477 104.822V109.43C732.477 110.966 732.189 112.346 731.613 113.57C731.037 114.794 730.245 115.838 729.237 116.702C728.229 117.542 727.041 118.19 725.673 118.646C724.329 119.102 722.865 119.33 721.281 119.33C719.553 119.33 718.005 119.078 716.637 118.574C715.293 118.046 714.141 117.338 713.181 116.45C712.221 115.562 711.477 114.53 710.949 113.354C710.445 112.154 710.157 110.894 710.085 109.574C710.037 108.59 710.013 107.534 710.013 106.406C710.013 105.278 710.037 104.198 710.085 103.166C710.133 101.846 710.421 100.598 710.949 99.4217C711.477 98.2217 712.209 97.1777 713.145 96.2897C714.105 95.4017 715.269 94.7057 716.637 94.2017C718.005 93.6737 719.553 93.4097 721.281 93.4097C722.961 93.4097 724.473 93.6617 725.817 94.1657C727.161 94.6457 728.301 95.2697 729.237 96.0377C730.173 96.7817 730.905 97.6097 731.433 98.5217C731.961 99.4097 732.249 100.262 732.297 101.078C732.321 101.294 732.249 101.486 732.081 101.654C731.913 101.798 731.721 101.87 731.505 101.87H726.717C726.357 101.87 726.069 101.762 725.853 101.546C725.661 101.33 725.469 101.114 725.277 100.898C724.941 100.466 724.485 100.07 723.909 99.7097C723.333 99.3497 722.457 99.1697 721.281 99.1697ZM748.664 117.998C748.664 118.262 748.568 118.49 748.376 118.682C748.184 118.874 747.956 118.97 747.692 118.97H742.976C742.712 118.97 742.484 118.874 742.292 118.682C742.1 118.49 742.004 118.262 742.004 117.998V110.33L733.688 95.0297C733.592 94.8617 733.544 94.7057 733.544 94.5617C733.544 94.3457 733.616 94.1657 733.76 94.0217C733.928 93.8537 734.12 93.7697 734.336 93.7697H739.268C739.748 93.7697 740.108 93.8897 740.348 94.1297C740.588 94.3697 740.732 94.5497 740.78 94.6697L745.316 103.526L749.888 94.6697C749.936 94.5497 750.08 94.3697 750.32 94.1297C750.56 93.8897 750.92 93.7697 751.4 93.7697H756.332C756.548 93.7697 756.728 93.8537 756.872 94.0217C757.04 94.1657 757.124 94.3457 757.124 94.5617C757.124 94.7057 757.076 94.8617 756.98 95.0297L748.664 110.33V117.998ZM776.172 93.4097C777.708 93.4097 779.112 93.6377 780.384 94.0937C781.68 94.5257 782.796 95.0897 783.732 95.7857C784.668 96.4817 785.4 97.2497 785.928 98.0897C786.456 98.9297 786.732 99.7337 786.756 100.502C786.756 100.718 786.672 100.91 786.504 101.078C786.36 101.222 786.192 101.294 786 101.294H781.284C780.948 101.294 780.672 101.246 780.456 101.15C780.264 101.054 780.06 100.91 779.844 100.718C779.772 100.646 779.652 100.526 779.484 100.358C779.34 100.19 779.124 100.022 778.836 99.8537C778.548 99.6617 778.188 99.5057 777.756 99.3857C777.324 99.2417 776.796 99.1697 776.172 99.1697C775.716 99.1697 775.272 99.2057 774.84 99.2777C774.432 99.3257 774.06 99.4217 773.724 99.5657C773.412 99.6857 773.148 99.8657 772.932 100.106C772.74 100.346 772.644 100.646 772.644 101.006C772.644 101.366 772.752 101.666 772.968 101.906C773.208 102.146 773.592 102.374 774.12 102.59C774.672 102.782 775.392 102.974 776.28 103.166C777.168 103.358 778.272 103.586 779.592 103.85C780.912 104.114 782.064 104.45 783.048 104.858C784.032 105.266 784.848 105.782 785.496 106.406C786.168 107.006 786.66 107.726 786.972 108.566C787.308 109.382 787.476 110.354 787.476 111.482C787.476 112.706 787.2 113.798 786.648 114.758C786.096 115.718 785.316 116.546 784.308 117.242C783.324 117.914 782.148 118.43 780.78 118.79C779.436 119.15 777.96 119.33 776.352 119.33C774.72 119.33 773.232 119.114 771.888 118.682C770.544 118.25 769.38 117.686 768.396 116.99C767.436 116.27 766.68 115.466 766.128 114.578C765.576 113.69 765.288 112.79 765.264 111.878C765.264 111.662 765.336 111.482 765.48 111.338C765.648 111.17 765.828 111.086 766.02 111.086H770.736C771.072 111.086 771.336 111.134 771.528 111.23C771.72 111.302 771.912 111.422 772.104 111.59C772.2 111.686 772.344 111.842 772.536 112.058C772.728 112.274 772.98 112.502 773.292 112.742C773.628 112.958 774.036 113.15 774.516 113.318C775.02 113.486 775.632 113.57 776.352 113.57C777.624 113.57 778.68 113.438 779.52 113.174C780.384 112.886 780.816 112.382 780.816 111.662C780.816 111.302 780.66 111.002 780.348 110.762C780.036 110.522 779.568 110.306 778.944 110.114C778.32 109.898 777.516 109.694 776.532 109.502C775.572 109.31 774.432 109.07 773.112 108.782C770.64 108.254 768.828 107.378 767.676 106.154C766.548 104.906 765.984 103.25 765.984 101.186C765.984 100.154 766.212 99.1697 766.668 98.2337C767.148 97.2977 767.832 96.4697 768.72 95.7497C769.608 95.0297 770.676 94.4657 771.924 94.0577C773.196 93.6257 774.612 93.4097 776.172 93.4097ZM809.106 113.21C809.37 113.21 809.598 113.306 809.79 113.498C809.982 113.69 810.078 113.918 810.078 114.182V117.998C810.078 118.262 809.982 118.49 809.79 118.682C809.598 118.874 809.37 118.97 809.106 118.97H792.042C791.778 118.97 791.55 118.874 791.358 118.682C791.166 118.49 791.07 118.262 791.07 117.998V94.7417C791.07 94.4777 791.166 94.2497 791.358 94.0577C791.55 93.8657 791.778 93.7697 792.042 93.7697H808.818C809.082 93.7697 809.31 93.8657 809.502 94.0577C809.694 94.2497 809.79 94.4777 809.79 94.7417V98.5577C809.79 98.8217 809.694 99.0497 809.502 99.2417C809.31 99.4337 809.082 99.5297 808.818 99.5297H797.73V103.418H808.026C808.29 103.418 808.518 103.514 808.71 103.706C808.902 103.898 808.998 104.126 808.998 104.39V108.206C808.998 108.47 808.902 108.698 808.71 108.89C808.518 109.082 808.29 109.178 808.026 109.178H797.73V113.21H809.106ZM831.843 113.21C832.107 113.21 832.335 113.306 832.527 113.498C832.719 113.69 832.815 113.918 832.815 114.182V117.998C832.815 118.262 832.719 118.49 832.527 118.682C832.335 118.874 832.107 118.97 831.843 118.97H815.175C814.911 118.97 814.683 118.874 814.491 118.682C814.299 118.49 814.203 118.262 814.203 117.998V94.7417C814.203 94.4777 814.299 94.2497 814.491 94.0577C814.683 93.8657 814.911 93.7697 815.175 93.7697H819.891C820.155 93.7697 820.383 93.8657 820.575 94.0577C820.767 94.2497 820.863 94.4777 820.863 94.7417V113.21H831.843ZM853.931 113.21C854.195 113.21 854.423 113.306 854.615 113.498C854.807 113.69 854.903 113.918 854.903 114.182V117.998C854.903 118.262 854.807 118.49 854.615 118.682C854.423 118.874 854.195 118.97 853.931 118.97H836.867C836.603 118.97 836.375 118.874 836.183 118.682C835.991 118.49 835.895 118.262 835.895 117.998V94.7417C835.895 94.4777 835.991 94.2497 836.183 94.0577C836.375 93.8657 836.603 93.7697 836.867 93.7697H853.643C853.907 93.7697 854.135 93.8657 854.327 94.0577C854.519 94.2497 854.615 94.4777 854.615 94.7417V98.5577C854.615 98.8217 854.519 99.0497 854.327 99.2417C854.135 99.4337 853.907 99.5297 853.643 99.5297H842.555V103.418H852.851C853.115 103.418 853.343 103.514 853.535 103.706C853.727 103.898 853.823 104.126 853.823 104.39V108.206C853.823 108.47 853.727 108.698 853.535 108.89C853.343 109.082 853.115 109.178 852.851 109.178H842.555V113.21H853.931ZM864.577 103.346C864.553 103.658 864.529 104.09 864.505 104.642C864.505 105.194 864.505 105.77 864.505 106.37C864.505 106.946 864.505 107.522 864.505 108.098C864.529 108.65 864.553 109.082 864.577 109.394C864.625 109.946 864.733 110.474 864.901 110.978C865.069 111.482 865.333 111.926 865.693 112.31C866.053 112.694 866.509 113.006 867.061 113.246C867.613 113.462 868.297 113.57 869.113 113.57C869.929 113.57 870.601 113.474 871.129 113.282C871.657 113.09 872.089 112.862 872.425 112.598C872.761 112.31 873.013 111.998 873.181 111.662C873.373 111.326 873.517 111.014 873.613 110.726C873.733 110.342 873.865 110.078 874.009 109.934C874.153 109.766 874.429 109.682 874.837 109.682H879.553C879.769 109.682 879.949 109.766 880.093 109.934C880.261 110.078 880.345 110.258 880.345 110.474C880.321 111.698 880.021 112.85 879.445 113.93C878.869 115.01 878.077 115.946 877.069 116.738C876.061 117.53 874.873 118.166 873.505 118.646C872.161 119.102 870.697 119.33 869.113 119.33C867.385 119.33 865.837 119.078 864.469 118.574C863.125 118.046 861.973 117.338 861.013 116.45C860.053 115.562 859.309 114.53 858.781 113.354C858.277 112.154 857.989 110.894 857.917 109.574C857.869 108.59 857.845 107.534 857.845 106.406C857.845 105.278 857.869 104.198 857.917 103.166C857.965 101.846 858.253 100.598 858.781 99.4217C859.309 98.2217 860.041 97.1777 860.977 96.2897C861.937 95.4017 863.101 94.7057 864.469 94.2017C865.837 93.6737 867.385 93.4097 869.113 93.4097C870.697 93.4097 872.161 93.6497 873.505 94.1297C874.873 94.5857 876.061 95.2097 877.069 96.0017C878.077 96.7937 878.869 97.7297 879.445 98.8097C880.021 99.8897 880.321 101.042 880.345 102.266C880.345 102.482 880.261 102.674 880.093 102.842C879.949 102.986 879.769 103.058 879.553 103.058H874.837C874.429 103.058 874.153 102.986 874.009 102.842C873.865 102.674 873.733 102.398 873.613 102.014C873.517 101.726 873.373 101.414 873.181 101.078C873.013 100.742 872.761 100.442 872.425 100.178C872.089 99.8897 871.657 99.6497 871.129 99.4577C870.601 99.2657 869.929 99.1697 869.113 99.1697C868.297 99.1697 867.613 99.2897 867.061 99.5297C866.509 99.7457 866.053 100.046 865.693 100.43C865.333 100.814 865.069 101.258 864.901 101.762C864.733 102.266 864.625 102.794 864.577 103.346ZM902.563 93.7697C902.827 93.7697 903.055 93.8657 903.247 94.0577C903.439 94.2497 903.535 94.4777 903.535 94.7417V98.5577C903.535 98.8217 903.439 99.0497 903.247 99.2417C903.055 99.4337 902.827 99.5297 902.563 99.5297H896.227V117.998C896.227 118.262 896.131 118.49 895.939 118.682C895.747 118.874 895.519 118.97 895.255 118.97H890.539C890.275 118.97 890.047 118.874 889.855 118.682C889.663 118.49 889.567 118.262 889.567 117.998V99.5297H883.231C882.967 99.5297 882.739 99.4337 882.547 99.2417C882.355 99.0497 882.259 98.8217 882.259 98.5577V94.7417C882.259 94.4777 882.355 94.2497 882.547 94.0577C882.739 93.8657 882.967 93.7697 883.231 93.7697H902.563ZM907.742 118.97C907.478 118.97 907.25 118.874 907.058 118.682C906.866 118.49 906.77 118.262 906.77 117.998V94.7417C906.77 94.4777 906.866 94.2497 907.058 94.0577C907.25 93.8657 907.478 93.7697 907.742 93.7697H912.458C912.722 93.7697 912.95 93.8657 913.142 94.0577C913.334 94.2497 913.43 94.4777 913.43 94.7417V117.998C913.43 118.262 913.334 118.49 913.142 118.682C912.95 118.874 912.722 118.97 912.458 118.97H907.742ZM917.649 103.166C917.721 101.822 918.009 100.562 918.513 99.3857C919.041 98.1857 919.773 97.1537 920.709 96.2897C921.669 95.4017 922.821 94.7057 924.165 94.2017C925.533 93.6737 927.105 93.4097 928.881 93.4097C930.633 93.4097 932.193 93.6737 933.561 94.2017C934.929 94.7057 936.081 95.4017 937.017 96.2897C937.977 97.1537 938.709 98.1857 939.213 99.3857C939.741 100.562 940.041 101.822 940.113 103.166C940.161 104.198 940.185 105.278 940.185 106.406C940.185 107.534 940.161 108.59 940.113 109.574C940.041 110.918 939.741 112.19 939.213 113.39C938.709 114.566 937.977 115.598 937.017 116.486C936.081 117.374 934.929 118.07 933.561 118.574C932.193 119.078 930.633 119.33 928.881 119.33C927.105 119.33 925.533 119.078 924.165 118.574C922.821 118.07 921.669 117.374 920.709 116.486C919.773 115.598 919.041 114.566 918.513 113.39C918.009 112.19 917.721 110.918 917.649 109.574C917.601 108.59 917.577 107.534 917.577 106.406C917.577 105.278 917.601 104.198 917.649 103.166ZM933.453 109.394C933.477 108.962 933.501 108.482 933.525 107.954C933.549 107.426 933.561 106.886 933.561 106.334C933.561 105.782 933.549 105.254 933.525 104.75C933.501 104.222 933.477 103.754 933.453 103.346C933.405 102.746 933.273 102.194 933.057 101.69C932.865 101.186 932.577 100.754 932.193 100.394C931.833 100.01 931.377 99.7097 930.825 99.4937C930.273 99.2777 929.625 99.1697 928.881 99.1697C928.137 99.1697 927.489 99.2777 926.937 99.4937C926.385 99.7097 925.917 100.01 925.533 100.394C925.173 100.754 924.885 101.186 924.669 101.69C924.477 102.194 924.357 102.746 924.309 103.346C924.261 103.754 924.225 104.222 924.201 104.75C924.201 105.254 924.201 105.782 924.201 106.334C924.201 106.886 924.201 107.426 924.201 107.954C924.225 108.482 924.261 108.962 924.309 109.394C924.405 110.594 924.813 111.59 925.533 112.382C926.277 113.174 927.393 113.57 928.881 113.57C930.369 113.57 931.473 113.174 932.193 112.382C932.913 111.59 933.333 110.594 933.453 109.394ZM960.696 118.97C960.288 118.97 959.952 118.862 959.688 118.646C959.448 118.43 959.292 118.262 959.22 118.142L950.976 105.83V117.998C950.976 118.262 950.88 118.49 950.688 118.682C950.496 118.874 950.268 118.97 950.004 118.97H945.288C945.024 118.97 944.796 118.874 944.604 118.682C944.412 118.49 944.316 118.262 944.316 117.998V94.7417C944.316 94.4777 944.412 94.2497 944.604 94.0577C944.796 93.8657 945.024 93.7697 945.288 93.7697H949.032C949.44 93.7697 949.764 93.8777 950.004 94.0937C950.268 94.3097 950.436 94.4777 950.508 94.5977L958.752 106.91V94.7417C958.752 94.4777 958.848 94.2497 959.04 94.0577C959.232 93.8657 959.46 93.7697 959.724 93.7697H964.44C964.704 93.7697 964.932 93.8657 965.124 94.0577C965.316 94.2497 965.412 94.4777 965.412 94.7417V117.998C965.412 118.262 965.316 118.49 965.124 118.682C964.932 118.874 964.704 118.97 964.44 118.97H960.696Z" fill="white"/>
</svg>
