<svg width="130" height="120" viewBox="0 0 130 120" fill="none" xmlns="http://www.w3.org/2000/svg">
<path d="M129.209 59.8644C129.209 26.8022 100.459 0 64.9941 0C29.5293 0 0.779297 26.8022 0.779297 59.8644C0.779297 92.9266 29.5293 119.729 64.9941 119.729C100.459 119.729 129.209 92.9266 129.209 59.8644Z" fill="#1C5E8A"/>
<path d="M90.3245 90.0558C89.6046 90.0562 88.8916 89.9243 88.2264 89.6678C87.5611 89.4113 86.9566 89.0351 86.4473 88.5607L34.2133 39.8654C33.1861 38.9044 32.6094 37.603 32.6094 36.2464C32.6094 34.8898 33.1861 33.5885 34.2133 32.6275L35.7793 31.1676C36.8101 30.21 38.206 29.6724 39.6612 29.6724C41.1164 29.6724 42.5123 30.21 43.5432 31.1676L95.7677 79.8629C96.2786 80.3376 96.6839 80.9016 96.9604 81.5226C97.237 82.1436 97.3794 82.8094 97.3794 83.4819C97.3794 84.1543 97.237 84.8201 96.9604 85.4411C96.6839 86.0621 96.2786 86.6261 95.7677 87.1008L94.2112 88.5607C93.7005 89.0357 93.0943 89.4123 92.4274 89.6688C91.7605 89.9254 91.046 90.0568 90.3245 90.0558V90.0558Z" fill="white"/>
<path d="M39.6561 31.8714C40.0697 31.8738 40.4786 31.9528 40.8591 32.1038C41.2397 32.2548 41.5844 32.4747 41.873 32.7509L94.107 81.4462C94.6906 81.9947 95.018 82.736 95.018 83.5085C95.018 84.2811 94.6906 85.0223 94.107 85.5709L92.541 87.0307C91.9538 87.5769 91.1583 87.8837 90.3288 87.8837C89.4994 87.8837 88.7038 87.5769 88.1167 87.0307L35.8827 38.3354C35.5914 38.065 35.3603 37.7436 35.2027 37.3897C35.045 37.0358 34.9638 36.6563 34.9638 36.2731C34.9638 35.8899 35.045 35.5104 35.2027 35.1565C35.3603 34.8026 35.5914 34.4812 35.8827 34.2108L37.4486 32.7509C37.7351 32.4746 38.078 32.2545 38.4571 32.1034C38.8362 31.9524 39.2439 31.8735 39.6561 31.8714M39.6561 27.4742C38.6259 27.4708 37.6052 27.658 36.6531 28.0248C35.7009 28.3917 34.8363 28.9309 34.1091 29.6112L32.5431 31.0799C31.0759 32.4516 30.252 34.3096 30.252 36.2467C30.252 38.1838 31.0759 40.0419 32.5431 41.4135L84.7771 90.1088C85.5046 90.7896 86.3691 91.3297 87.321 91.6982C88.2728 92.0668 89.2934 92.2565 90.3241 92.2565C91.3548 92.2565 92.3754 92.0668 93.3273 91.6982C94.2792 91.3297 95.1437 90.7896 95.8711 90.1088L97.4371 88.6489C98.1673 87.9708 98.7467 87.1649 99.142 86.2775C99.5373 85.3901 99.7408 84.4386 99.7408 83.4778C99.7408 82.5169 99.5373 81.5654 99.142 80.678C98.7467 79.7906 98.1673 78.9847 97.4371 78.3066L45.2031 29.6112C44.4759 28.9309 43.6113 28.3917 42.6592 28.0248C41.707 27.658 40.6863 27.4708 39.6561 27.4742V27.4742Z" fill="white"/>
<path d="M39.6565 90.0558C38.9366 90.0562 38.2236 89.9243 37.5583 89.6678C36.8931 89.4113 36.2886 89.0351 35.7793 88.5607L34.2133 87.1008C33.1861 86.1398 32.6094 84.8385 32.6094 83.4819C32.6094 82.1252 33.1861 80.8239 34.2133 79.8629L86.4284 31.1676C87.4593 30.21 88.8552 29.6724 90.3104 29.6724C91.7656 29.6724 93.1615 30.21 94.1923 31.1676L95.7489 32.6275C96.2597 33.1021 96.6651 33.6662 96.9417 34.2872C97.2182 34.9082 97.3605 35.574 97.3605 36.2464C97.3605 36.9188 97.2182 37.5846 96.9417 38.2056C96.6651 38.8267 96.2597 39.3907 95.7489 39.8654L43.5148 88.5607C43.0087 89.0342 42.4074 89.4099 41.7453 89.6664C41.0833 89.923 40.3735 90.0553 39.6565 90.0558V90.0558Z" fill="white"/>
<path d="M90.3241 31.8715C90.7377 31.8739 91.1466 31.9529 91.5272 32.1038C91.9077 32.2548 92.2524 32.4748 92.541 32.7509L94.107 34.2108C94.6906 34.7593 95.018 35.5006 95.018 36.2731C95.018 37.0457 94.6906 37.7869 94.107 38.3355L41.873 86.978C41.2858 87.5242 40.4903 87.8309 39.6608 87.8309C38.8314 87.8309 38.0357 87.5242 37.4486 86.978L35.8827 85.5181C35.5914 85.2477 35.3603 84.9263 35.2027 84.5724C35.045 84.2185 34.9638 83.839 34.9638 83.4558C34.9638 83.0726 35.045 82.6931 35.2027 82.3392C35.3603 81.9853 35.5914 81.6639 35.8827 81.3935L88.1167 32.6982C88.4039 32.4227 88.7469 32.203 89.1258 32.0521C89.5047 31.9011 89.9121 31.8218 90.3241 31.8187M90.3241 27.4214C89.2939 27.4181 88.2732 27.6053 87.3211 27.9721C86.3689 28.3389 85.5043 28.8781 84.7771 29.5585L32.5431 78.2626C31.0759 79.6343 30.252 81.4923 30.252 83.4294C30.252 85.3665 31.0759 87.2246 32.5431 88.5962L34.1091 90.0561C34.8366 90.7368 35.7011 91.277 36.6529 91.6455C37.6048 92.0141 38.6254 92.2038 39.6561 92.2038C40.6868 92.2038 41.7074 92.0141 42.6593 91.6455C43.6112 91.277 44.4756 90.7368 45.2031 90.0561L97.4371 41.3608C98.1673 40.6826 98.7467 39.8767 99.142 38.9893C99.5373 38.1019 99.7408 37.1505 99.7408 36.1896C99.7408 35.2287 99.5373 34.2773 99.142 33.3899C98.7467 32.5025 98.1673 31.6966 97.4371 31.0184L95.8617 29.6201C95.1362 28.9369 94.2721 28.3953 93.3197 28.0269C92.3673 27.6584 91.3458 27.4706 90.3147 27.4742L90.3241 27.4214Z" fill="white"/>
</svg>
