<svg width="557" height="29" viewBox="0 0 557 29" fill="none" xmlns="http://www.w3.org/2000/svg">
<path d="M13.32 0.528318C15.0267 0.528318 16.56 0.728318 17.92 1.12832C19.28 1.50165 20.44 2.08832 21.4 2.88832C22.36 3.66165 23.0933 4.63499 23.6 5.80832C24.1333 6.98165 24.4 8.34165 24.4 9.88832C24.4 11.4617 24.1333 12.835 23.6 14.0083C23.0933 15.1817 22.36 16.155 21.4 16.9283C20.44 17.7017 19.28 18.2883 17.92 18.6883C16.56 19.0883 15.0267 19.2883 13.32 19.2883H8.2V27.4483C8.2 27.7417 8.09333 27.995 7.88 28.2083C7.66667 28.4217 7.41333 28.5283 7.12 28.5283H1.88C1.58667 28.5283 1.33333 28.4217 1.12 28.2083C0.906667 27.995 0.8 27.7417 0.8 27.4483V1.60832C0.8 1.31499 0.906667 1.06165 1.12 0.848319C1.33333 0.634985 1.58667 0.528318 1.88 0.528318H13.32ZM8.2 13.0483H13.12C14.24 13.0483 15.16 12.8083 15.88 12.3283C16.6267 11.8217 17 11.0083 17 9.88832C17 8.76832 16.6267 7.96832 15.88 7.48832C15.16 6.98165 14.24 6.72832 13.12 6.72832H8.2V13.0483ZM40.1419 0.528318C41.9019 0.528318 43.4752 0.714985 44.8619 1.08832C46.2485 1.46165 47.4219 2.02165 48.3819 2.76832C49.3685 3.51498 50.1152 4.47499 50.6219 5.64832C51.1552 6.79499 51.4219 8.14165 51.4219 9.68832C51.4219 11.6883 51.0085 13.355 50.1819 14.6883C49.3552 15.995 48.1819 16.995 46.6619 17.6883L51.6219 27.2083C51.7019 27.3683 51.7419 27.515 51.7419 27.6483C51.7419 27.8883 51.6485 28.1017 51.4619 28.2883C51.3019 28.4483 51.1019 28.5283 50.8619 28.5283H45.4219C44.8885 28.5283 44.5019 28.4083 44.2619 28.1683C44.0485 27.9283 43.8752 27.6883 43.7419 27.4483L39.3019 18.8883H35.6219V27.4483C35.6219 27.7417 35.5152 27.995 35.3019 28.2083C35.0885 28.4217 34.8352 28.5283 34.5419 28.5283H29.3019C29.0085 28.5283 28.7552 28.4217 28.5419 28.2083C28.3285 27.995 28.2219 27.7417 28.2219 27.4483V1.60832C28.2219 1.31499 28.3285 1.06165 28.5419 0.848319C28.7552 0.634985 29.0085 0.528318 29.3019 0.528318H40.1419ZM35.6219 12.6483H40.1419C41.2619 12.6483 42.1819 12.435 42.9019 12.0083C43.6485 11.5817 44.0219 10.8083 44.0219 9.68832C44.0219 8.56832 43.6485 7.79499 42.9019 7.36832C42.1819 6.94165 41.2619 6.72832 40.1419 6.72832H35.6219V12.6483ZM55.1144 10.9683C55.1944 9.47499 55.5144 8.07499 56.0744 6.76832C56.661 5.43499 57.4744 4.28832 58.5144 3.32832C59.581 2.34165 60.861 1.56832 62.3544 1.00832C63.8744 0.421652 65.621 0.128319 67.5944 0.128319C69.541 0.128319 71.2744 0.421652 72.7944 1.00832C74.3144 1.56832 75.5944 2.34165 76.6344 3.32832C77.701 4.28832 78.5144 5.43499 79.0744 6.76832C79.661 8.07499 79.9944 9.47499 80.0744 10.9683C80.1277 12.115 80.1544 13.315 80.1544 14.5683C80.1544 15.8217 80.1277 16.995 80.0744 18.0883C79.9944 19.5817 79.661 20.995 79.0744 22.3283C78.5144 23.635 77.701 24.7817 76.6344 25.7683C75.5944 26.755 74.3144 27.5283 72.7944 28.0883C71.2744 28.6483 69.541 28.9283 67.5944 28.9283C65.621 28.9283 63.8744 28.6483 62.3544 28.0883C60.861 27.5283 59.581 26.755 58.5144 25.7683C57.4744 24.7817 56.661 23.635 56.0744 22.3283C55.5144 20.995 55.1944 19.5817 55.1144 18.0883C55.061 16.995 55.0344 15.8217 55.0344 14.5683C55.0344 13.315 55.061 12.115 55.1144 10.9683ZM72.6744 17.8883C72.701 17.4083 72.7277 16.875 72.7544 16.2883C72.781 15.7017 72.7944 15.1017 72.7944 14.4883C72.7944 13.875 72.781 13.2883 72.7544 12.7283C72.7277 12.1417 72.701 11.6217 72.6744 11.1683C72.621 10.5017 72.4744 9.88832 72.2344 9.32832C72.021 8.76832 71.701 8.28832 71.2744 7.88832C70.8744 7.46165 70.3677 7.12832 69.7544 6.88832C69.141 6.64832 68.421 6.52832 67.5944 6.52832C66.7677 6.52832 66.0477 6.64832 65.4344 6.88832C64.821 7.12832 64.301 7.46165 63.8744 7.88832C63.4744 8.28832 63.1544 8.76832 62.9144 9.32832C62.701 9.88832 62.5677 10.5017 62.5144 11.1683C62.461 11.6217 62.421 12.1417 62.3944 12.7283C62.3944 13.2883 62.3944 13.875 62.3944 14.4883C62.3944 15.1017 62.3944 15.7017 62.3944 16.2883C62.421 16.875 62.461 17.4083 62.5144 17.8883C62.621 19.2217 63.0744 20.3283 63.8744 21.2083C64.701 22.0883 65.941 22.5283 67.5944 22.5283C69.2477 22.5283 70.4744 22.0883 71.2744 21.2083C72.0744 20.3283 72.541 19.2217 72.6744 17.8883ZM96.4253 0.528318C98.2653 0.528318 99.9453 0.808319 101.465 1.36832C102.985 1.90165 104.292 2.66165 105.385 3.64832C106.505 4.63499 107.372 5.82165 107.985 7.20832C108.625 8.56832 108.985 10.0617 109.065 11.6883C109.092 12.2483 109.105 12.7683 109.105 13.2483C109.105 13.7017 109.105 14.1417 109.105 14.5683C109.105 14.995 109.105 15.435 109.105 15.8883C109.105 16.3417 109.092 16.835 109.065 17.3683C108.985 19.0217 108.639 20.5283 108.025 21.8883C107.412 23.2483 106.559 24.4217 105.465 25.4083C104.399 26.395 103.119 27.1683 101.625 27.7283C100.132 28.2617 98.4653 28.5283 96.6253 28.5283H85.8253C85.532 28.5283 85.2786 28.4217 85.0653 28.2083C84.852 27.995 84.7453 27.7417 84.7453 27.4483V1.60832C84.7453 1.31499 84.852 1.06165 85.0653 0.848319C85.2786 0.634985 85.532 0.528318 85.8253 0.528318H96.4253ZM101.665 11.5283C101.505 8.46165 99.692 6.92832 96.2253 6.92832H92.1453V22.1283H96.4253C99.7853 22.1283 101.532 20.595 101.665 17.5283C101.692 16.9683 101.705 16.4483 101.705 15.9683C101.705 15.4617 101.705 14.9817 101.705 14.5283C101.705 14.0483 101.705 13.5683 101.705 13.0883C101.705 12.6083 101.692 12.0883 101.665 11.5283ZM136.612 0.528318C136.905 0.528318 137.158 0.634985 137.372 0.848319C137.585 1.06165 137.692 1.31499 137.692 1.60832V17.5683C137.692 19.4083 137.398 21.035 136.812 22.4483C136.225 23.8617 135.385 25.0483 134.292 26.0083C133.225 26.9683 131.945 27.7017 130.452 28.2083C128.958 28.6883 127.318 28.9283 125.532 28.9283C123.718 28.9283 122.065 28.6883 120.572 28.2083C119.078 27.7017 117.798 26.9683 116.732 26.0083C115.665 25.0483 114.838 23.8617 114.252 22.4483C113.665 21.035 113.372 19.4083 113.372 17.5683V1.60832C113.372 1.31499 113.478 1.06165 113.692 0.848319C113.905 0.634985 114.158 0.528318 114.452 0.528318H119.692C119.985 0.528318 120.238 0.634985 120.452 0.848319C120.665 1.06165 120.772 1.31499 120.772 1.60832V17.4083C120.772 19.0083 121.158 20.2617 121.932 21.1683C122.732 22.075 123.932 22.5283 125.532 22.5283C127.132 22.5283 128.318 22.075 129.092 21.1683C129.892 20.2617 130.292 19.0083 130.292 17.4083V1.60832C130.292 1.31499 130.398 1.06165 130.612 0.848319C130.825 0.634985 131.078 0.528318 131.372 0.528318H136.612ZM149.467 11.1683C149.44 11.515 149.413 11.995 149.387 12.6083C149.387 13.2217 149.387 13.8617 149.387 14.5283C149.387 15.1683 149.387 15.8083 149.387 16.4483C149.413 17.0617 149.44 17.5417 149.467 17.8883C149.52 18.5017 149.64 19.0883 149.827 19.6483C150.013 20.2083 150.307 20.7017 150.707 21.1283C151.107 21.555 151.613 21.9017 152.227 22.1683C152.84 22.4083 153.6 22.5283 154.507 22.5283C155.413 22.5283 156.16 22.4217 156.747 22.2083C157.333 21.995 157.813 21.7417 158.187 21.4483C158.56 21.1283 158.84 20.7817 159.027 20.4083C159.24 20.035 159.4 19.6883 159.507 19.3683C159.64 18.9417 159.787 18.6483 159.947 18.4883C160.107 18.3017 160.413 18.2083 160.867 18.2083H166.107C166.347 18.2083 166.547 18.3017 166.707 18.4883C166.893 18.6483 166.987 18.8483 166.987 19.0883C166.96 20.4483 166.627 21.7283 165.987 22.9283C165.347 24.1283 164.467 25.1683 163.347 26.0483C162.227 26.9283 160.907 27.635 159.387 28.1683C157.893 28.675 156.267 28.9283 154.507 28.9283C152.587 28.9283 150.867 28.6483 149.347 28.0883C147.853 27.5017 146.573 26.715 145.507 25.7283C144.44 24.7417 143.613 23.595 143.027 22.2883C142.467 20.955 142.147 19.555 142.067 18.0883C142.013 16.995 141.987 15.8217 141.987 14.5683C141.987 13.315 142.013 12.115 142.067 10.9683C142.12 9.50165 142.44 8.11499 143.027 6.80832C143.613 5.47498 144.427 4.31498 145.467 3.32832C146.533 2.34165 147.827 1.56832 149.347 1.00832C150.867 0.421652 152.587 0.128319 154.507 0.128319C156.267 0.128319 157.893 0.394985 159.387 0.928318C160.907 1.43499 162.227 2.12832 163.347 3.00832C164.467 3.88832 165.347 4.92832 165.987 6.12832C166.627 7.32832 166.96 8.60832 166.987 9.96832C166.987 10.2083 166.893 10.4217 166.707 10.6083C166.547 10.7683 166.347 10.8483 166.107 10.8483H160.867C160.413 10.8483 160.107 10.7683 159.947 10.6083C159.787 10.4217 159.64 10.115 159.507 9.68832C159.4 9.36832 159.24 9.02165 159.027 8.64832C158.84 8.27499 158.56 7.94165 158.187 7.64832C157.813 7.32832 157.333 7.06165 156.747 6.84832C156.16 6.63499 155.413 6.52832 154.507 6.52832C153.6 6.52832 152.84 6.66165 152.227 6.92832C151.613 7.16832 151.107 7.50165 150.707 7.92832C150.307 8.35499 150.013 8.84832 149.827 9.40832C149.64 9.96832 149.52 10.555 149.467 11.1683ZM191.673 0.528318C191.966 0.528318 192.219 0.634985 192.433 0.848319C192.646 1.06165 192.753 1.31499 192.753 1.60832V5.84832C192.753 6.14165 192.646 6.39499 192.433 6.60832C192.219 6.82165 191.966 6.92832 191.673 6.92832H184.633V27.4483C184.633 27.7417 184.526 27.995 184.313 28.2083C184.099 28.4217 183.846 28.5283 183.553 28.5283H178.312C178.019 28.5283 177.766 28.4217 177.553 28.2083C177.339 27.995 177.233 27.7417 177.233 27.4483V6.92832H170.193C169.899 6.92832 169.646 6.82165 169.433 6.60832C169.219 6.39499 169.113 6.14165 169.113 5.84832V1.60832C169.113 1.31499 169.219 1.06165 169.433 0.848319C169.646 0.634985 169.899 0.528318 170.193 0.528318H191.673ZM231.923 22.1283C232.217 22.1283 232.47 22.235 232.683 22.4483C232.897 22.6617 233.003 22.915 233.003 23.2083V27.4483C233.003 27.7417 232.897 27.995 232.683 28.2083C232.47 28.4217 232.217 28.5283 231.923 28.5283H213.403C213.11 28.5283 212.857 28.4217 212.643 28.2083C212.43 27.995 212.323 27.7417 212.323 27.4483V1.60832C212.323 1.31499 212.43 1.06165 212.643 0.848319C212.857 0.634985 213.11 0.528318 213.403 0.528318H218.643C218.937 0.528318 219.19 0.634985 219.403 0.848319C219.617 1.06165 219.723 1.31499 219.723 1.60832V22.1283H231.923ZM251.225 0.528318C251.758 0.528318 252.158 0.674986 252.425 0.96832C252.718 1.26165 252.918 1.55499 253.025 1.84832L261.745 27.0483C261.852 27.315 261.905 27.515 261.905 27.6483C261.905 27.8883 261.812 28.1017 261.625 28.2883C261.465 28.4483 261.265 28.5283 261.025 28.5283H255.985C255.452 28.5283 255.065 28.4217 254.825 28.2083C254.612 27.9683 254.478 27.7417 254.425 27.5283L253.305 24.2083H242.665L241.545 27.5283C241.492 27.7417 241.345 27.9683 241.105 28.2083C240.892 28.4217 240.518 28.5283 239.985 28.5283H234.945C234.705 28.5283 234.492 28.4483 234.305 28.2883C234.145 28.1017 234.065 27.8883 234.065 27.6483C234.065 27.515 234.118 27.315 234.225 27.0483L242.945 1.84832C243.052 1.55499 243.238 1.26165 243.505 0.96832C243.798 0.674986 244.212 0.528318 244.745 0.528318H251.225ZM244.745 18.0083H251.225L247.985 8.40832L244.745 18.0083ZM287.354 0.528318C287.647 0.528318 287.9 0.634985 288.114 0.848319C288.327 1.06165 288.434 1.31499 288.434 1.60832V17.5683C288.434 19.4083 288.14 21.035 287.554 22.4483C286.967 23.8617 286.127 25.0483 285.034 26.0083C283.967 26.9683 282.687 27.7017 281.194 28.2083C279.7 28.6883 278.06 28.9283 276.274 28.9283C274.46 28.9283 272.807 28.6883 271.314 28.2083C269.82 27.7017 268.54 26.9683 267.474 26.0083C266.407 25.0483 265.58 23.8617 264.994 22.4483C264.407 21.035 264.114 19.4083 264.114 17.5683V1.60832C264.114 1.31499 264.22 1.06165 264.434 0.848319C264.647 0.634985 264.9 0.528318 265.194 0.528318H270.434C270.727 0.528318 270.98 0.634985 271.194 0.848319C271.407 1.06165 271.514 1.31499 271.514 1.60832V17.4083C271.514 19.0083 271.9 20.2617 272.674 21.1683C273.474 22.075 274.674 22.5283 276.274 22.5283C277.874 22.5283 279.06 22.075 279.834 21.1683C280.634 20.2617 281.034 19.0083 281.034 17.4083V1.60832C281.034 1.31499 281.14 1.06165 281.354 0.848319C281.567 0.634985 281.82 0.528318 282.114 0.528318H287.354ZM311.969 28.5283C311.515 28.5283 311.142 28.4083 310.849 28.1683C310.582 27.9283 310.409 27.7417 310.329 27.6083L301.169 13.9283V27.4483C301.169 27.7417 301.062 27.995 300.849 28.2083C300.635 28.4217 300.382 28.5283 300.089 28.5283H294.849C294.555 28.5283 294.302 28.4217 294.089 28.2083C293.875 27.995 293.769 27.7417 293.769 27.4483V1.60832C293.769 1.31499 293.875 1.06165 294.089 0.848319C294.302 0.634985 294.555 0.528318 294.849 0.528318H299.009C299.462 0.528318 299.822 0.648318 300.089 0.888319C300.382 1.12832 300.569 1.31499 300.649 1.44832L309.809 15.1283V1.60832C309.809 1.31499 309.915 1.06165 310.129 0.848319C310.342 0.634985 310.595 0.528318 310.889 0.528318H316.129C316.422 0.528318 316.675 0.634985 316.889 0.848319C317.102 1.06165 317.209 1.31499 317.209 1.60832V27.4483C317.209 27.7417 317.102 27.995 316.889 28.2083C316.675 28.4217 316.422 28.5283 316.129 28.5283H311.969ZM329.232 11.1683C329.206 11.515 329.179 11.995 329.152 12.6083C329.152 13.2217 329.152 13.8617 329.152 14.5283C329.152 15.1683 329.152 15.8083 329.152 16.4483C329.179 17.0617 329.206 17.5417 329.232 17.8883C329.286 18.5017 329.406 19.0883 329.592 19.6483C329.779 20.2083 330.072 20.7017 330.472 21.1283C330.872 21.555 331.379 21.9017 331.992 22.1683C332.606 22.4083 333.366 22.5283 334.272 22.5283C335.179 22.5283 335.926 22.4217 336.512 22.2083C337.099 21.995 337.579 21.7417 337.952 21.4483C338.326 21.1283 338.606 20.7817 338.792 20.4083C339.006 20.035 339.166 19.6883 339.272 19.3683C339.406 18.9417 339.552 18.6483 339.712 18.4883C339.872 18.3017 340.179 18.2083 340.632 18.2083H345.872C346.112 18.2083 346.312 18.3017 346.472 18.4883C346.659 18.6483 346.752 18.8483 346.752 19.0883C346.726 20.4483 346.392 21.7283 345.752 22.9283C345.112 24.1283 344.232 25.1683 343.112 26.0483C341.992 26.9283 340.672 27.635 339.152 28.1683C337.659 28.675 336.032 28.9283 334.272 28.9283C332.352 28.9283 330.632 28.6483 329.112 28.0883C327.619 27.5017 326.339 26.715 325.272 25.7283C324.206 24.7417 323.379 23.595 322.792 22.2883C322.232 20.955 321.912 19.555 321.832 18.0883C321.779 16.995 321.752 15.8217 321.752 14.5683C321.752 13.315 321.779 12.115 321.832 10.9683C321.886 9.50165 322.206 8.11499 322.792 6.80832C323.379 5.47498 324.192 4.31498 325.232 3.32832C326.299 2.34165 327.592 1.56832 329.112 1.00832C330.632 0.421652 332.352 0.128319 334.272 0.128319C336.032 0.128319 337.659 0.394985 339.152 0.928318C340.672 1.43499 341.992 2.12832 343.112 3.00832C344.232 3.88832 345.112 4.92832 345.752 6.12832C346.392 7.32832 346.726 8.60832 346.752 9.96832C346.752 10.2083 346.659 10.4217 346.472 10.6083C346.312 10.7683 346.112 10.8483 345.872 10.8483H340.632C340.179 10.8483 339.872 10.7683 339.712 10.6083C339.552 10.4217 339.406 10.115 339.272 9.68832C339.166 9.36832 339.006 9.02165 338.792 8.64832C338.606 8.27499 338.326 7.94165 337.952 7.64832C337.579 7.32832 337.099 7.06165 336.512 6.84832C335.926 6.63499 335.179 6.52832 334.272 6.52832C333.366 6.52832 332.606 6.66165 331.992 6.92832C331.379 7.16832 330.872 7.50165 330.472 7.92832C330.072 8.35499 329.779 8.84832 329.592 9.40832C329.406 9.96832 329.286 10.555 329.232 11.1683ZM373.478 0.528318C373.771 0.528318 374.025 0.634985 374.238 0.848319C374.451 1.06165 374.558 1.31499 374.558 1.60832V27.4483C374.558 27.7417 374.451 27.995 374.238 28.2083C374.025 28.4217 373.771 28.5283 373.478 28.5283H368.238C367.945 28.5283 367.691 28.4217 367.478 28.2083C367.265 27.995 367.158 27.7417 367.158 27.4483V17.6483H358.278V27.4483C358.278 27.7417 358.171 27.995 357.958 28.2083C357.745 28.4217 357.491 28.5283 357.198 28.5283H351.958C351.665 28.5283 351.411 28.435 351.198 28.2483C350.985 28.035 350.878 27.7683 350.878 27.4483V1.60832C350.878 1.31499 350.985 1.06165 351.198 0.848319C351.411 0.634985 351.665 0.528318 351.958 0.528318H357.198C357.491 0.528318 357.745 0.634985 357.958 0.848319C358.171 1.06165 358.278 1.31499 358.278 1.60832V11.2483H367.158V1.60832C367.158 1.31499 367.265 1.06165 367.478 0.848319C367.691 0.634985 367.945 0.528318 368.238 0.528318H373.478ZM389.132 19.6083C388.838 19.6083 388.585 19.5017 388.372 19.2883C388.158 19.075 388.052 18.8217 388.052 18.5283V14.4883C388.052 14.195 388.158 13.9417 388.372 13.7283C388.585 13.515 388.838 13.4083 389.132 13.4083H401.732C402.025 13.4083 402.278 13.515 402.492 13.7283C402.705 13.9417 402.812 14.195 402.812 14.4883V18.5283C402.812 18.8217 402.705 19.075 402.492 19.2883C402.278 19.5017 402.025 19.6083 401.732 19.6083H389.132ZM429.776 27.4483C429.776 27.7417 429.669 27.995 429.456 28.2083C429.243 28.4217 428.989 28.5283 428.696 28.5283H423.456C423.163 28.5283 422.909 28.4217 422.696 28.2083C422.483 27.995 422.376 27.7417 422.376 27.4483V18.9283L413.136 1.92832C413.029 1.74165 412.976 1.56832 412.976 1.40832C412.976 1.16832 413.056 0.968319 413.216 0.80832C413.403 0.621652 413.616 0.528318 413.856 0.528318H419.336C419.869 0.528318 420.269 0.661652 420.536 0.928318C420.803 1.19499 420.963 1.39499 421.016 1.52832L426.056 11.3683L431.136 1.52832C431.189 1.39499 431.349 1.19499 431.616 0.928318C431.883 0.661652 432.283 0.528318 432.816 0.528318H438.296C438.536 0.528318 438.736 0.621652 438.896 0.80832C439.083 0.968319 439.176 1.16832 439.176 1.40832C439.176 1.56832 439.123 1.74165 439.016 1.92832L429.776 18.9283V27.4483ZM462.637 22.1283C462.93 22.1283 463.184 22.235 463.397 22.4483C463.61 22.6617 463.717 22.915 463.717 23.2083V27.4483C463.717 27.7417 463.61 27.995 463.397 28.2083C463.184 28.4217 462.93 28.5283 462.637 28.5283H443.677C443.384 28.5283 443.13 28.4217 442.917 28.2083C442.704 27.995 442.597 27.7417 442.597 27.4483V1.60832C442.597 1.31499 442.704 1.06165 442.917 0.848319C443.13 0.634985 443.384 0.528318 443.677 0.528318H462.317C462.61 0.528318 462.864 0.634985 463.077 0.848319C463.29 1.06165 463.397 1.31499 463.397 1.60832V5.84832C463.397 6.14165 463.29 6.39499 463.077 6.60832C462.864 6.82165 462.61 6.92832 462.317 6.92832H449.997V11.2483H461.437C461.73 11.2483 461.984 11.355 462.197 11.5683C462.41 11.7817 462.517 12.035 462.517 12.3283V16.5683C462.517 16.8617 462.41 17.115 462.197 17.3283C461.984 17.5417 461.73 17.6483 461.437 17.6483H449.997V22.1283H462.637ZM483.1 0.528318C483.633 0.528318 484.033 0.674986 484.3 0.96832C484.593 1.26165 484.793 1.55499 484.9 1.84832L493.62 27.0483C493.727 27.315 493.78 27.515 493.78 27.6483C493.78 27.8883 493.687 28.1017 493.5 28.2883C493.34 28.4483 493.14 28.5283 492.9 28.5283H487.86C487.327 28.5283 486.94 28.4217 486.7 28.2083C486.487 27.9683 486.353 27.7417 486.3 27.5283L485.18 24.2083H474.54L473.42 27.5283C473.367 27.7417 473.22 27.9683 472.98 28.2083C472.767 28.4217 472.393 28.5283 471.86 28.5283H466.82C466.58 28.5283 466.367 28.4483 466.18 28.2883C466.02 28.1017 465.94 27.8883 465.94 27.6483C465.94 27.515 465.993 27.315 466.1 27.0483L474.82 1.84832C474.927 1.55499 475.113 1.26165 475.38 0.96832C475.673 0.674986 476.087 0.528318 476.62 0.528318H483.1ZM476.62 18.0083H483.1L479.86 8.40832L476.62 18.0083ZM508.931 0.528318C510.691 0.528318 512.264 0.714985 513.651 1.08832C515.038 1.46165 516.211 2.02165 517.171 2.76832C518.158 3.51498 518.904 4.47499 519.411 5.64832C519.944 6.79499 520.211 8.14165 520.211 9.68832C520.211 11.6883 519.798 13.355 518.971 14.6883C518.144 15.995 516.971 16.995 515.451 17.6883L520.411 27.2083C520.491 27.3683 520.531 27.515 520.531 27.6483C520.531 27.8883 520.438 28.1017 520.251 28.2883C520.091 28.4483 519.891 28.5283 519.651 28.5283H514.211C513.678 28.5283 513.291 28.4083 513.051 28.1683C512.838 27.9283 512.664 27.6883 512.531 27.4483L508.091 18.8883H504.411V27.4483C504.411 27.7417 504.304 27.995 504.091 28.2083C503.878 28.4217 503.624 28.5283 503.331 28.5283H498.091C497.798 28.5283 497.544 28.4217 497.331 28.2083C497.118 27.995 497.011 27.7417 497.011 27.4483V1.60832C497.011 1.31499 497.118 1.06165 497.331 0.848319C497.544 0.634985 497.798 0.528318 498.091 0.528318H508.931ZM504.411 12.6483H508.931C510.051 12.6483 510.971 12.435 511.691 12.0083C512.438 11.5817 512.811 10.8083 512.811 9.68832C512.811 8.56832 512.438 7.79499 511.691 7.36832C510.971 6.94165 510.051 6.72832 508.931 6.72832H504.411V12.6483ZM539.817 9.52832C539.63 9.28832 539.563 9.02165 539.617 8.72832C539.67 8.43499 539.817 8.19499 540.057 8.00832L548.657 1.40832C548.87 1.24832 549.123 1.06165 549.417 0.848319C549.737 0.634985 550.097 0.528318 550.497 0.528318H555.377C555.67 0.528318 555.923 0.634985 556.137 0.848319C556.35 1.06165 556.457 1.31499 556.457 1.60832V27.4483C556.457 27.7417 556.35 27.995 556.137 28.2083C555.923 28.4217 555.67 28.5283 555.377 28.5283H550.137C549.843 28.5283 549.59 28.4217 549.377 28.2083C549.163 27.995 549.057 27.7417 549.057 27.4483V9.96832L544.297 13.5683C544.057 13.755 543.79 13.835 543.497 13.8083C543.203 13.755 542.963 13.6083 542.777 13.3683L539.817 9.52832Z" fill="white"/>
</svg>
