<svg width="491" height="63" viewBox="0 0 491 63" fill="none" xmlns="http://www.w3.org/2000/svg">
<path d="M0 0H491V46.6545C491 50.9896 489.267 55.1472 486.182 58.2125C483.097 61.2779 478.913 63 474.55 63H16.4494C12.0868 63 7.90281 61.2779 4.81793 58.2125C1.73306 55.1472 0 50.9896 0 46.6545V0Z" fill="#1C5E8A"/>
<path d="M59.788 17.8C61.324 17.8 62.704 17.98 63.928 18.34C65.152 18.676 66.196 19.204 67.06 19.924C67.924 20.62 68.584 21.496 69.04 22.552C69.52 23.608 69.76 24.832 69.76 26.224C69.76 27.64 69.52 28.876 69.04 29.932C68.584 30.988 67.924 31.864 67.06 32.56C66.196 33.256 65.152 33.784 63.928 34.144C62.704 34.504 61.324 34.684 59.788 34.684H55.18V42.028C55.18 42.292 55.084 42.52 54.892 42.712C54.7 42.904 54.472 43 54.208 43H49.492C49.228 43 49 42.904 48.808 42.712C48.616 42.52 48.52 42.292 48.52 42.028V18.772C48.52 18.508 48.616 18.28 48.808 18.088C49 17.896 49.228 17.8 49.492 17.8H59.788ZM55.18 29.068H59.608C60.616 29.068 61.444 28.852 62.092 28.42C62.764 27.964 63.1 27.232 63.1 26.224C63.1 25.216 62.764 24.496 62.092 24.064C61.444 23.608 60.616 23.38 59.608 23.38H55.18V29.068ZM83.9277 17.8C85.5117 17.8 86.9277 17.968 88.1757 18.304C89.4237 18.64 90.4797 19.144 91.3437 19.816C92.2317 20.488 92.9037 21.352 93.3597 22.408C93.8397 23.44 94.0797 24.652 94.0797 26.044C94.0797 27.844 93.7077 29.344 92.9637 30.544C92.2197 31.72 91.1637 32.62 89.7957 33.244L94.2597 41.812C94.3317 41.956 94.3677 42.088 94.3677 42.208C94.3677 42.424 94.2837 42.616 94.1157 42.784C93.9717 42.928 93.7917 43 93.5757 43H88.6797C88.1997 43 87.8517 42.892 87.6357 42.676C87.4437 42.46 87.2877 42.244 87.1677 42.028L83.1717 34.324H79.8597V42.028C79.8597 42.292 79.7637 42.52 79.5717 42.712C79.3797 42.904 79.1517 43 78.8877 43H74.1717C73.9077 43 73.6797 42.904 73.4877 42.712C73.2957 42.52 73.1997 42.292 73.1997 42.028V18.772C73.1997 18.508 73.2957 18.28 73.4877 18.088C73.6797 17.896 73.9077 17.8 74.1717 17.8H83.9277ZM79.8597 28.708H83.9277C84.9357 28.708 85.7637 28.516 86.4117 28.132C87.0837 27.748 87.4197 27.052 87.4197 26.044C87.4197 25.036 87.0837 24.34 86.4117 23.956C85.7637 23.572 84.9357 23.38 83.9277 23.38H79.8597V28.708ZM97.4029 27.196C97.4749 25.852 97.7629 24.592 98.2669 23.416C98.7949 22.216 99.5269 21.184 100.463 20.32C101.423 19.432 102.575 18.736 103.919 18.232C105.287 17.704 106.859 17.44 108.635 17.44C110.387 17.44 111.947 17.704 113.315 18.232C114.683 18.736 115.835 19.432 116.771 20.32C117.731 21.184 118.463 22.216 118.967 23.416C119.495 24.592 119.795 25.852 119.867 27.196C119.915 28.228 119.939 29.308 119.939 30.436C119.939 31.564 119.915 32.62 119.867 33.604C119.795 34.948 119.495 36.22 118.967 37.42C118.463 38.596 117.731 39.628 116.771 40.516C115.835 41.404 114.683 42.1 113.315 42.604C111.947 43.108 110.387 43.36 108.635 43.36C106.859 43.36 105.287 43.108 103.919 42.604C102.575 42.1 101.423 41.404 100.463 40.516C99.5269 39.628 98.7949 38.596 98.2669 37.42C97.7629 36.22 97.4749 34.948 97.4029 33.604C97.3549 32.62 97.3309 31.564 97.3309 30.436C97.3309 29.308 97.3549 28.228 97.4029 27.196ZM113.207 33.424C113.231 32.992 113.255 32.512 113.279 31.984C113.303 31.456 113.315 30.916 113.315 30.364C113.315 29.812 113.303 29.284 113.279 28.78C113.255 28.252 113.231 27.784 113.207 27.376C113.159 26.776 113.027 26.224 112.811 25.72C112.619 25.216 112.331 24.784 111.947 24.424C111.587 24.04 111.131 23.74 110.579 23.524C110.027 23.308 109.379 23.2 108.635 23.2C107.891 23.2 107.243 23.308 106.691 23.524C106.139 23.74 105.671 24.04 105.287 24.424C104.927 24.784 104.639 25.216 104.423 25.72C104.231 26.224 104.111 26.776 104.063 27.376C104.015 27.784 103.979 28.252 103.955 28.78C103.955 29.284 103.955 29.812 103.955 30.364C103.955 30.916 103.955 31.456 103.955 31.984C103.979 32.512 104.015 32.992 104.063 33.424C104.159 34.624 104.567 35.62 105.287 36.412C106.031 37.204 107.147 37.6 108.635 37.6C110.123 37.6 111.227 37.204 111.947 36.412C112.667 35.62 113.087 34.624 113.207 33.424ZM134.583 17.8C136.239 17.8 137.751 18.052 139.119 18.556C140.487 19.036 141.663 19.72 142.647 20.608C143.655 21.496 144.435 22.564 144.987 23.812C145.563 25.036 145.887 26.38 145.959 27.844C145.983 28.348 145.995 28.816 145.995 29.248C145.995 29.656 145.995 30.052 145.995 30.436C145.995 30.82 145.995 31.216 145.995 31.624C145.995 32.032 145.983 32.476 145.959 32.956C145.887 34.444 145.575 35.8 145.023 37.024C144.471 38.248 143.703 39.304 142.719 40.192C141.759 41.08 140.607 41.776 139.263 42.28C137.919 42.76 136.419 43 134.763 43H125.043C124.779 43 124.551 42.904 124.359 42.712C124.167 42.52 124.071 42.292 124.071 42.028V18.772C124.071 18.508 124.167 18.28 124.359 18.088C124.551 17.896 124.779 17.8 125.043 17.8H134.583ZM139.299 27.7C139.155 24.94 137.523 23.56 134.403 23.56H130.731V37.24H134.583C137.607 37.24 139.179 35.86 139.299 33.1C139.323 32.596 139.335 32.128 139.335 31.696C139.335 31.24 139.335 30.808 139.335 30.4C139.335 29.968 139.335 29.536 139.335 29.104C139.335 28.672 139.323 28.204 139.299 27.7ZM170.75 17.8C171.014 17.8 171.242 17.896 171.434 18.088C171.626 18.28 171.722 18.508 171.722 18.772V33.136C171.722 34.792 171.458 36.256 170.93 37.528C170.402 38.8 169.646 39.868 168.662 40.732C167.702 41.596 166.55 42.256 165.206 42.712C163.862 43.144 162.386 43.36 160.778 43.36C159.146 43.36 157.658 43.144 156.314 42.712C154.97 42.256 153.818 41.596 152.858 40.732C151.898 39.868 151.154 38.8 150.626 37.528C150.098 36.256 149.834 34.792 149.834 33.136V18.772C149.834 18.508 149.93 18.28 150.122 18.088C150.314 17.896 150.542 17.8 150.806 17.8H155.522C155.786 17.8 156.014 17.896 156.206 18.088C156.398 18.28 156.494 18.508 156.494 18.772V32.992C156.494 34.432 156.842 35.56 157.538 36.376C158.258 37.192 159.338 37.6 160.778 37.6C162.218 37.6 163.286 37.192 163.982 36.376C164.702 35.56 165.062 34.432 165.062 32.992V18.772C165.062 18.508 165.158 18.28 165.35 18.088C165.542 17.896 165.77 17.8 166.034 17.8H170.75ZM182.32 27.376C182.296 27.688 182.272 28.12 182.248 28.672C182.248 29.224 182.248 29.8 182.248 30.4C182.248 30.976 182.248 31.552 182.248 32.128C182.272 32.68 182.296 33.112 182.32 33.424C182.368 33.976 182.476 34.504 182.644 35.008C182.812 35.512 183.076 35.956 183.436 36.34C183.796 36.724 184.252 37.036 184.804 37.276C185.356 37.492 186.04 37.6 186.856 37.6C187.672 37.6 188.344 37.504 188.872 37.312C189.4 37.12 189.832 36.892 190.168 36.628C190.504 36.34 190.756 36.028 190.924 35.692C191.116 35.356 191.26 35.044 191.356 34.756C191.476 34.372 191.608 34.108 191.752 33.964C191.896 33.796 192.172 33.712 192.58 33.712H197.296C197.512 33.712 197.692 33.796 197.836 33.964C198.004 34.108 198.088 34.288 198.088 34.504C198.064 35.728 197.764 36.88 197.188 37.96C196.612 39.04 195.82 39.976 194.812 40.768C193.804 41.56 192.616 42.196 191.248 42.676C189.904 43.132 188.44 43.36 186.856 43.36C185.128 43.36 183.58 43.108 182.212 42.604C180.868 42.076 179.716 41.368 178.756 40.48C177.796 39.592 177.052 38.56 176.524 37.384C176.02 36.184 175.732 34.924 175.66 33.604C175.612 32.62 175.588 31.564 175.588 30.436C175.588 29.308 175.612 28.228 175.66 27.196C175.708 25.876 175.996 24.628 176.524 23.452C177.052 22.252 177.784 21.208 178.72 20.32C179.68 19.432 180.844 18.736 182.212 18.232C183.58 17.704 185.128 17.44 186.856 17.44C188.44 17.44 189.904 17.68 191.248 18.16C192.616 18.616 193.804 19.24 194.812 20.032C195.82 20.824 196.612 21.76 197.188 22.84C197.764 23.92 198.064 25.072 198.088 26.296C198.088 26.512 198.004 26.704 197.836 26.872C197.692 27.016 197.512 27.088 197.296 27.088H192.58C192.172 27.088 191.896 27.016 191.752 26.872C191.608 26.704 191.476 26.428 191.356 26.044C191.26 25.756 191.116 25.444 190.924 25.108C190.756 24.772 190.504 24.472 190.168 24.208C189.832 23.92 189.4 23.68 188.872 23.488C188.344 23.296 187.672 23.2 186.856 23.2C186.04 23.2 185.356 23.32 184.804 23.56C184.252 23.776 183.796 24.076 183.436 24.46C183.076 24.844 182.812 25.288 182.644 25.792C182.476 26.296 182.368 26.824 182.32 27.376ZM220.305 17.8C220.569 17.8 220.797 17.896 220.989 18.088C221.181 18.28 221.277 18.508 221.277 18.772V22.588C221.277 22.852 221.181 23.08 220.989 23.272C220.797 23.464 220.569 23.56 220.305 23.56H213.969V42.028C213.969 42.292 213.873 42.52 213.681 42.712C213.489 42.904 213.261 43 212.997 43H208.281C208.017 43 207.789 42.904 207.597 42.712C207.405 42.52 207.309 42.292 207.309 42.028V23.56H200.973C200.709 23.56 200.481 23.464 200.289 23.272C200.097 23.08 200.001 22.852 200.001 22.588V18.772C200.001 18.508 200.097 18.28 200.289 18.088C200.481 17.896 200.709 17.8 200.973 17.8H220.305ZM240.622 17.44C242.158 17.44 243.562 17.668 244.834 18.124C246.13 18.556 247.246 19.12 248.182 19.816C249.118 20.512 249.85 21.28 250.378 22.12C250.906 22.96 251.182 23.764 251.206 24.532C251.206 24.748 251.122 24.94 250.954 25.108C250.81 25.252 250.642 25.324 250.45 25.324H245.734C245.398 25.324 245.122 25.276 244.906 25.18C244.714 25.084 244.51 24.94 244.294 24.748C244.222 24.676 244.102 24.556 243.934 24.388C243.79 24.22 243.574 24.052 243.286 23.884C242.998 23.692 242.638 23.536 242.206 23.416C241.774 23.272 241.246 23.2 240.622 23.2C240.166 23.2 239.722 23.236 239.29 23.308C238.882 23.356 238.51 23.452 238.174 23.596C237.862 23.716 237.598 23.896 237.382 24.136C237.19 24.376 237.094 24.676 237.094 25.036C237.094 25.396 237.202 25.696 237.418 25.936C237.658 26.176 238.042 26.404 238.57 26.62C239.122 26.812 239.842 27.004 240.73 27.196C241.618 27.388 242.722 27.616 244.042 27.88C245.362 28.144 246.514 28.48 247.498 28.888C248.482 29.296 249.298 29.812 249.946 30.436C250.618 31.036 251.11 31.756 251.422 32.596C251.758 33.412 251.926 34.384 251.926 35.512C251.926 36.736 251.65 37.828 251.098 38.788C250.546 39.748 249.766 40.576 248.758 41.272C247.774 41.944 246.598 42.46 245.23 42.82C243.886 43.18 242.41 43.36 240.802 43.36C239.17 43.36 237.682 43.144 236.338 42.712C234.994 42.28 233.83 41.716 232.846 41.02C231.886 40.3 231.13 39.496 230.578 38.608C230.026 37.72 229.738 36.82 229.714 35.908C229.714 35.692 229.786 35.512 229.93 35.368C230.098 35.2 230.278 35.116 230.47 35.116H235.186C235.522 35.116 235.786 35.164 235.978 35.26C236.17 35.332 236.362 35.452 236.554 35.62C236.65 35.716 236.794 35.872 236.986 36.088C237.178 36.304 237.43 36.532 237.742 36.772C238.078 36.988 238.486 37.18 238.966 37.348C239.47 37.516 240.082 37.6 240.802 37.6C242.074 37.6 243.13 37.468 243.97 37.204C244.834 36.916 245.266 36.412 245.266 35.692C245.266 35.332 245.11 35.032 244.798 34.792C244.486 34.552 244.018 34.336 243.394 34.144C242.77 33.928 241.966 33.724 240.982 33.532C240.022 33.34 238.882 33.1 237.562 32.812C235.09 32.284 233.278 31.408 232.126 30.184C230.998 28.936 230.434 27.28 230.434 25.216C230.434 24.184 230.662 23.2 231.118 22.264C231.598 21.328 232.282 20.5 233.17 19.78C234.058 19.06 235.126 18.496 236.374 18.088C237.646 17.656 239.062 17.44 240.622 17.44ZM273.556 37.24C273.82 37.24 274.048 37.336 274.24 37.528C274.432 37.72 274.528 37.948 274.528 38.212V42.028C274.528 42.292 274.432 42.52 274.24 42.712C274.048 42.904 273.82 43 273.556 43H256.492C256.228 43 256 42.904 255.808 42.712C255.616 42.52 255.52 42.292 255.52 42.028V18.772C255.52 18.508 255.616 18.28 255.808 18.088C256 17.896 256.228 17.8 256.492 17.8H273.268C273.532 17.8 273.76 17.896 273.952 18.088C274.144 18.28 274.24 18.508 274.24 18.772V22.588C274.24 22.852 274.144 23.08 273.952 23.272C273.76 23.464 273.532 23.56 273.268 23.56H262.18V27.448H272.476C272.74 27.448 272.968 27.544 273.16 27.736C273.352 27.928 273.448 28.156 273.448 28.42V32.236C273.448 32.5 273.352 32.728 273.16 32.92C272.968 33.112 272.74 33.208 272.476 33.208H262.18V37.24H273.556ZM296.293 37.24C296.557 37.24 296.785 37.336 296.977 37.528C297.169 37.72 297.265 37.948 297.265 38.212V42.028C297.265 42.292 297.169 42.52 296.977 42.712C296.785 42.904 296.557 43 296.293 43H279.625C279.361 43 279.133 42.904 278.941 42.712C278.749 42.52 278.653 42.292 278.653 42.028V18.772C278.653 18.508 278.749 18.28 278.941 18.088C279.133 17.896 279.361 17.8 279.625 17.8H284.341C284.605 17.8 284.833 17.896 285.025 18.088C285.217 18.28 285.313 18.508 285.313 18.772V37.24H296.293ZM318.38 37.24C318.644 37.24 318.872 37.336 319.064 37.528C319.256 37.72 319.352 37.948 319.352 38.212V42.028C319.352 42.292 319.256 42.52 319.064 42.712C318.872 42.904 318.644 43 318.38 43H301.316C301.052 43 300.824 42.904 300.632 42.712C300.44 42.52 300.344 42.292 300.344 42.028V18.772C300.344 18.508 300.44 18.28 300.632 18.088C300.824 17.896 301.052 17.8 301.316 17.8H318.092C318.356 17.8 318.584 17.896 318.776 18.088C318.968 18.28 319.064 18.508 319.064 18.772V22.588C319.064 22.852 318.968 23.08 318.776 23.272C318.584 23.464 318.356 23.56 318.092 23.56H307.004V27.448H317.3C317.564 27.448 317.792 27.544 317.984 27.736C318.176 27.928 318.272 28.156 318.272 28.42V32.236C318.272 32.5 318.176 32.728 317.984 32.92C317.792 33.112 317.564 33.208 317.3 33.208H307.004V37.24H318.38ZM329.027 27.376C329.003 27.688 328.979 28.12 328.955 28.672C328.955 29.224 328.955 29.8 328.955 30.4C328.955 30.976 328.955 31.552 328.955 32.128C328.979 32.68 329.003 33.112 329.027 33.424C329.075 33.976 329.183 34.504 329.351 35.008C329.519 35.512 329.783 35.956 330.143 36.34C330.503 36.724 330.959 37.036 331.511 37.276C332.063 37.492 332.747 37.6 333.563 37.6C334.379 37.6 335.051 37.504 335.579 37.312C336.107 37.12 336.539 36.892 336.875 36.628C337.211 36.34 337.463 36.028 337.631 35.692C337.823 35.356 337.967 35.044 338.063 34.756C338.183 34.372 338.315 34.108 338.459 33.964C338.603 33.796 338.879 33.712 339.287 33.712H344.003C344.219 33.712 344.399 33.796 344.543 33.964C344.711 34.108 344.795 34.288 344.795 34.504C344.771 35.728 344.471 36.88 343.895 37.96C343.319 39.04 342.527 39.976 341.519 40.768C340.511 41.56 339.323 42.196 337.955 42.676C336.611 43.132 335.147 43.36 333.563 43.36C331.835 43.36 330.287 43.108 328.919 42.604C327.575 42.076 326.423 41.368 325.463 40.48C324.503 39.592 323.759 38.56 323.231 37.384C322.727 36.184 322.439 34.924 322.367 33.604C322.319 32.62 322.295 31.564 322.295 30.436C322.295 29.308 322.319 28.228 322.367 27.196C322.415 25.876 322.703 24.628 323.231 23.452C323.759 22.252 324.491 21.208 325.427 20.32C326.387 19.432 327.551 18.736 328.919 18.232C330.287 17.704 331.835 17.44 333.563 17.44C335.147 17.44 336.611 17.68 337.955 18.16C339.323 18.616 340.511 19.24 341.519 20.032C342.527 20.824 343.319 21.76 343.895 22.84C344.471 23.92 344.771 25.072 344.795 26.296C344.795 26.512 344.711 26.704 344.543 26.872C344.399 27.016 344.219 27.088 344.003 27.088H339.287C338.879 27.088 338.603 27.016 338.459 26.872C338.315 26.704 338.183 26.428 338.063 26.044C337.967 25.756 337.823 25.444 337.631 25.108C337.463 24.772 337.211 24.472 336.875 24.208C336.539 23.92 336.107 23.68 335.579 23.488C335.051 23.296 334.379 23.2 333.563 23.2C332.747 23.2 332.063 23.32 331.511 23.56C330.959 23.776 330.503 24.076 330.143 24.46C329.783 24.844 329.519 25.288 329.351 25.792C329.183 26.296 329.075 26.824 329.027 27.376ZM367.012 17.8C367.276 17.8 367.504 17.896 367.696 18.088C367.888 18.28 367.984 18.508 367.984 18.772V22.588C367.984 22.852 367.888 23.08 367.696 23.272C367.504 23.464 367.276 23.56 367.012 23.56H360.676V42.028C360.676 42.292 360.58 42.52 360.388 42.712C360.196 42.904 359.968 43 359.704 43H354.988C354.724 43 354.496 42.904 354.304 42.712C354.112 42.52 354.016 42.292 354.016 42.028V23.56H347.68C347.416 23.56 347.188 23.464 346.996 23.272C346.804 23.08 346.708 22.852 346.708 22.588V18.772C346.708 18.508 346.804 18.28 346.996 18.088C347.188 17.896 347.416 17.8 347.68 17.8H367.012ZM372.191 43C371.927 43 371.699 42.904 371.507 42.712C371.315 42.52 371.219 42.292 371.219 42.028V18.772C371.219 18.508 371.315 18.28 371.507 18.088C371.699 17.896 371.927 17.8 372.191 17.8H376.907C377.171 17.8 377.399 17.896 377.591 18.088C377.783 18.28 377.879 18.508 377.879 18.772V42.028C377.879 42.292 377.783 42.52 377.591 42.712C377.399 42.904 377.171 43 376.907 43H372.191ZM382.098 27.196C382.17 25.852 382.458 24.592 382.962 23.416C383.49 22.216 384.222 21.184 385.158 20.32C386.118 19.432 387.27 18.736 388.614 18.232C389.982 17.704 391.554 17.44 393.33 17.44C395.082 17.44 396.642 17.704 398.01 18.232C399.378 18.736 400.53 19.432 401.466 20.32C402.426 21.184 403.158 22.216 403.662 23.416C404.19 24.592 404.49 25.852 404.562 27.196C404.61 28.228 404.634 29.308 404.634 30.436C404.634 31.564 404.61 32.62 404.562 33.604C404.49 34.948 404.19 36.22 403.662 37.42C403.158 38.596 402.426 39.628 401.466 40.516C400.53 41.404 399.378 42.1 398.01 42.604C396.642 43.108 395.082 43.36 393.33 43.36C391.554 43.36 389.982 43.108 388.614 42.604C387.27 42.1 386.118 41.404 385.158 40.516C384.222 39.628 383.49 38.596 382.962 37.42C382.458 36.22 382.17 34.948 382.098 33.604C382.05 32.62 382.026 31.564 382.026 30.436C382.026 29.308 382.05 28.228 382.098 27.196ZM397.902 33.424C397.926 32.992 397.95 32.512 397.974 31.984C397.998 31.456 398.01 30.916 398.01 30.364C398.01 29.812 397.998 29.284 397.974 28.78C397.95 28.252 397.926 27.784 397.902 27.376C397.854 26.776 397.722 26.224 397.506 25.72C397.314 25.216 397.026 24.784 396.642 24.424C396.282 24.04 395.826 23.74 395.274 23.524C394.722 23.308 394.074 23.2 393.33 23.2C392.586 23.2 391.938 23.308 391.386 23.524C390.834 23.74 390.366 24.04 389.982 24.424C389.622 24.784 389.334 25.216 389.118 25.72C388.926 26.224 388.806 26.776 388.758 27.376C388.71 27.784 388.674 28.252 388.65 28.78C388.65 29.284 388.65 29.812 388.65 30.364C388.65 30.916 388.65 31.456 388.65 31.984C388.674 32.512 388.71 32.992 388.758 33.424C388.854 34.624 389.262 35.62 389.982 36.412C390.726 37.204 391.842 37.6 393.33 37.6C394.818 37.6 395.922 37.204 396.642 36.412C397.362 35.62 397.782 34.624 397.902 33.424ZM425.146 43C424.738 43 424.402 42.892 424.138 42.676C423.898 42.46 423.742 42.292 423.67 42.172L415.426 29.86V42.028C415.426 42.292 415.33 42.52 415.138 42.712C414.946 42.904 414.718 43 414.454 43H409.738C409.474 43 409.246 42.904 409.054 42.712C408.862 42.52 408.766 42.292 408.766 42.028V18.772C408.766 18.508 408.862 18.28 409.054 18.088C409.246 17.896 409.474 17.8 409.738 17.8H413.482C413.89 17.8 414.214 17.908 414.454 18.124C414.718 18.34 414.886 18.508 414.958 18.628L423.202 30.94V18.772C423.202 18.508 423.298 18.28 423.49 18.088C423.682 17.896 423.91 17.8 424.174 17.8H428.89C429.154 17.8 429.382 17.896 429.574 18.088C429.766 18.28 429.862 18.508 429.862 18.772V42.028C429.862 42.292 429.766 42.52 429.574 42.712C429.382 42.904 429.154 43 428.89 43H425.146Z" fill="white"/>
</svg>
