<svg width="92" height="35" viewBox="0 0 92 35" fill="none" xmlns="http://www.w3.org/2000/svg">
<rect x="0.5" y="0.5" width="91" height="33.597" rx="12.5" fill="#FFA553" stroke="#994900"/>
<rect x="3.59619" y="8.29852" width="84.8077" height="24" rx="12" fill="#FF800C"/>
<rect x="3.59619" y="8.29852" width="84.8077" height="24" rx="12" fill="#FF800C"/>
<rect x="3.59619" y="8.29852" width="84.8077" height="24" rx="12" fill="#A55710"/>
<rect x="3.01465" y="3.32837" width="85.9702" height="26.3881" rx="12" fill="#FF800C"/>
<rect x="3.01465" y="3.32837" width="85.9702" height="26.3881" rx="12" fill="#FF800C"/>
<rect x="3.01465" y="3.32837" width="85.9702" height="26.3881" rx="12" fill="#FF800C"/>
<path d="M34.3304 15.3965C34.3664 14.7245 34.5104 14.0945 34.7624 13.5065C35.0264 12.9065 35.3924 12.3905 35.8604 11.9585C36.3404 11.5145 36.9164 11.1665 37.5884 10.9145C38.2724 10.6505 39.0584 10.5185 39.9464 10.5185C40.8224 10.5185 41.6024 10.6505 42.2864 10.9145C42.9704 11.1665 43.5464 11.5145 44.0144 11.9585C44.4944 12.3905 44.8604 12.9065 45.1124 13.5065C45.3764 14.0945 45.5264 14.7245 45.5624 15.3965C45.5864 15.9125 45.5984 16.4525 45.5984 17.0165C45.5984 17.5805 45.5864 18.1085 45.5624 18.6005C45.5264 19.2725 45.3764 19.9085 45.1124 20.5085C44.8604 21.0965 44.4944 21.6125 44.0144 22.0565C43.5464 22.5005 42.9704 22.8485 42.2864 23.1005C41.6024 23.3525 40.8224 23.4785 39.9464 23.4785C39.0584 23.4785 38.2724 23.3525 37.5884 23.1005C36.9164 22.8485 36.3404 22.5005 35.8604 22.0565C35.3924 21.6125 35.0264 21.0965 34.7624 20.5085C34.5104 19.9085 34.3664 19.2725 34.3304 18.6005C34.3064 18.1085 34.2944 17.5805 34.2944 17.0165C34.2944 16.4525 34.3064 15.9125 34.3304 15.3965ZM42.2324 18.5105C42.2444 18.2945 42.2564 18.0545 42.2684 17.7905C42.2804 17.5265 42.2864 17.2565 42.2864 16.9805C42.2864 16.7045 42.2804 16.4405 42.2684 16.1885C42.2564 15.9245 42.2444 15.6905 42.2324 15.4865C42.2084 15.1865 42.1424 14.9105 42.0344 14.6585C41.9384 14.4065 41.7944 14.1905 41.6024 14.0105C41.4224 13.8185 41.1944 13.6685 40.9184 13.5605C40.6424 13.4525 40.3184 13.3985 39.9464 13.3985C39.5744 13.3985 39.2504 13.4525 38.9744 13.5605C38.6984 13.6685 38.4644 13.8185 38.2724 14.0105C38.0924 14.1905 37.9484 14.4065 37.8404 14.6585C37.7444 14.9105 37.6844 15.1865 37.6604 15.4865C37.6364 15.6905 37.6184 15.9245 37.6064 16.1885C37.6064 16.4405 37.6064 16.7045 37.6064 16.9805C37.6064 17.2565 37.6064 17.5265 37.6064 17.7905C37.6184 18.0545 37.6364 18.2945 37.6604 18.5105C37.7084 19.1105 37.9124 19.6085 38.2724 20.0045C38.6444 20.4005 39.2024 20.5985 39.9464 20.5985C40.6904 20.5985 41.2424 20.4005 41.6024 20.0045C41.9624 19.6085 42.1724 19.1105 42.2324 18.5105ZM58.3383 22.7045C58.3743 22.7525 58.3923 22.8185 58.3923 22.9025C58.3923 23.0105 58.3503 23.1065 58.2663 23.1905C58.1943 23.2625 58.1043 23.2985 57.9963 23.2985H55.1343C54.9663 23.2985 54.8283 23.2625 54.7203 23.1905C54.6123 23.1185 54.5043 23.0165 54.3963 22.8845L50.9943 18.6005V22.8125C50.9943 22.9445 50.9463 23.0585 50.8503 23.1545C50.7543 23.2505 50.6403 23.2985 50.5083 23.2985H48.1503C48.0183 23.2985 47.9043 23.2505 47.8083 23.1545C47.7123 23.0585 47.6643 22.9445 47.6643 22.8125V11.1845C47.6643 11.0525 47.7123 10.9385 47.8083 10.8425C47.9043 10.7465 48.0183 10.6985 48.1503 10.6985H50.5083C50.6403 10.6985 50.7543 10.7465 50.8503 10.8425C50.9463 10.9385 50.9943 11.0525 50.9943 11.1845V14.9825L54.1623 11.0945C54.2223 11.0225 54.3003 10.9385 54.3963 10.8425C54.4923 10.7465 54.6543 10.6985 54.8823 10.6985H57.6903C57.7983 10.6985 57.8883 10.7405 57.9603 10.8245C58.0443 10.8965 58.0863 10.9865 58.0863 11.0945C58.0863 11.1785 58.0683 11.2445 58.0323 11.2925L53.5863 16.7285L58.3383 22.7045Z" fill="white"/>
<path d="M4.29584 15.1249C4.1819 15.5336 4.08331 15.9268 4 16.2985C4.04119 15.9094 4.14249 15.5175 4.29584 15.1249C5.79813 9.737 9.96958 1.6745 17 5.13373C13.224 6.8324 5.9026 11.0121 4.29584 15.1249Z" fill="white"/>
<path d="M88 21.2985C86 24.8985 81.1667 27.7985 79.5 28.2985C81.1 27.4985 86 18.7985 86.5 20.2985L87 20.2985L88 21.2985Z" fill="white"/>
</svg>
