<svg width="92" height="35" viewBox="0 0 92 35" fill="none" xmlns="http://www.w3.org/2000/svg">
<rect x="0.5" y="0.5" width="91" height="33.597" rx="12.5" fill="#FFA553" stroke="#994900"/>
<rect x="3.59619" y="8.29852" width="84.8077" height="24" rx="12" fill="#FF800C"/>
<rect x="3.59619" y="8.29852" width="84.8077" height="24" rx="12" fill="#FF800C"/>
<rect x="3.59619" y="8.29852" width="84.8077" height="24" rx="12" fill="#A55710"/>
<rect x="3.01465" y="3.32837" width="85.9702" height="26.3881" rx="12" fill="#FF800C"/>
<rect x="3.01465" y="3.32837" width="85.9702" height="26.3881" rx="12" fill="#FF800C"/>
<rect x="3.01465" y="3.32837" width="85.9702" height="26.3881" rx="12" fill="#FF800C"/>
<path d="M35.2016 10.6985C35.9696 10.6985 36.6596 10.7885 37.2716 10.9685C37.8836 11.1365 38.4056 11.4005 38.8376 11.7605C39.2696 12.1085 39.5996 12.5465 39.8276 13.0745C40.0676 13.6025 40.1876 14.2145 40.1876 14.9105C40.1876 15.6185 40.0676 16.2365 39.8276 16.7645C39.5996 17.2925 39.2696 17.7305 38.8376 18.0785C38.4056 18.4265 37.8836 18.6905 37.2716 18.8705C36.6596 19.0505 35.9696 19.1405 35.2016 19.1405H32.8976V22.8125C32.8976 22.9445 32.8496 23.0585 32.7536 23.1545C32.6576 23.2505 32.5436 23.2985 32.4116 23.2985H30.0536C29.9216 23.2985 29.8076 23.2505 29.7116 23.1545C29.6156 23.0585 29.5676 22.9445 29.5676 22.8125V11.1845C29.5676 11.0525 29.6156 10.9385 29.7116 10.8425C29.8076 10.7465 29.9216 10.6985 30.0536 10.6985H35.2016ZM32.8976 16.3325H35.1116C35.6156 16.3325 36.0296 16.2245 36.3536 16.0085C36.6896 15.7805 36.8576 15.4145 36.8576 14.9105C36.8576 14.4065 36.6896 14.0465 36.3536 13.8305C36.0296 13.6025 35.6156 13.4885 35.1116 13.4885H32.8976V16.3325ZM47.6886 10.6985C47.9286 10.6985 48.1086 10.7645 48.2286 10.8965C48.3606 11.0285 48.4506 11.1605 48.4986 11.2925L52.4226 22.6325C52.4706 22.7525 52.4946 22.8425 52.4946 22.9025C52.4946 23.0105 52.4526 23.1065 52.3686 23.1905C52.2966 23.2625 52.2066 23.2985 52.0986 23.2985H49.8306C49.5906 23.2985 49.4166 23.2505 49.3086 23.1545C49.2126 23.0465 49.1526 22.9445 49.1286 22.8485L48.6246 21.3545H43.8366L43.3326 22.8485C43.3086 22.9445 43.2426 23.0465 43.1346 23.1545C43.0386 23.2505 42.8706 23.2985 42.6306 23.2985H40.3626C40.2546 23.2985 40.1586 23.2625 40.0746 23.1905C40.0026 23.1065 39.9666 23.0105 39.9666 22.9025C39.9666 22.8425 39.9906 22.7525 40.0386 22.6325L43.9626 11.2925C44.0106 11.1605 44.0946 11.0285 44.2146 10.8965C44.3466 10.7645 44.5326 10.6985 44.7726 10.6985H47.6886ZM44.7726 18.5645H47.6886L46.2306 14.2445L44.7726 18.5645ZM59.183 22.8125C59.183 22.9445 59.135 23.0585 59.039 23.1545C58.943 23.2505 58.829 23.2985 58.697 23.2985H56.339C56.207 23.2985 56.093 23.2505 55.997 23.1545C55.901 23.0585 55.853 22.9445 55.853 22.8125V18.9785L51.695 11.3285C51.647 11.2445 51.623 11.1665 51.623 11.0945C51.623 10.9865 51.659 10.8965 51.731 10.8245C51.815 10.7405 51.911 10.6985 52.019 10.6985H54.485C54.725 10.6985 54.905 10.7585 55.025 10.8785C55.145 10.9985 55.217 11.0885 55.241 11.1485L57.509 15.5765L59.795 11.1485C59.819 11.0885 59.891 10.9985 60.011 10.8785C60.131 10.7585 60.311 10.6985 60.551 10.6985H63.017C63.125 10.6985 63.215 10.7405 63.287 10.8245C63.371 10.8965 63.413 10.9865 63.413 11.0945C63.413 11.1665 63.389 11.2445 63.341 11.3285L59.183 18.9785V22.8125Z" fill="white"/>
<path d="M4.29584 15.1249C4.1819 15.5336 4.08331 15.9268 4 16.2985C4.04119 15.9094 4.14249 15.5175 4.29584 15.1249C5.79813 9.737 9.96958 1.6745 17 5.13373C13.224 6.8324 5.9026 11.0121 4.29584 15.1249Z" fill="white"/>
<path d="M88 21.2985C86 24.8985 81.1667 27.7985 79.5 28.2985C81.1 27.4985 86 18.7985 86.5 20.2985L87 20.2985L88 21.2985Z" fill="white"/>
</svg>
