<svg width="63" height="63" viewBox="0 0 63 63" fill="none" xmlns="http://www.w3.org/2000/svg">
<circle cx="31.5" cy="31.5" r="30" fill="#D9D9D9" stroke="#039B12" stroke-width="3"/>
<path d="M5.2931 42.3973C1.23809 32.0489 2.53703 22.3476 9.38166 13.6719C21.6569 -1.87705 45.848 -0.122768 55.9999 16.8977C56.3348 17.3337 56.5615 17.843 56.6613 18.3836C55.7842 19.3758 55.7986 20.4782 56.3594 21.6142C55.6452 21.8347 55.3241 20.9815 54.5955 21.2978C53.6944 21.6909 52.8268 22.0072 52.6782 23.1193C52.5105 24.3463 52.7262 25.4104 54.0107 25.9951C54.4847 26.2257 55.0203 26.2974 55.5383 26.1999C56.0562 26.1024 56.529 25.8406 56.8866 25.4535C57.4091 24.9742 57.8021 24.2888 57.2797 23.7663C56.6614 23.1528 56.4217 24.0012 56.1006 24.3846C55.8992 24.6291 55.6212 24.7969 55.3241 24.6291C55.2763 24.5814 55.2406 24.5231 55.2198 24.459C55.1989 24.3948 55.1936 24.3266 55.2042 24.26C55.3912 23.2247 57.1934 22.3859 58.0801 22.9179C58.2936 23.1912 58.4738 23.4889 58.617 23.8047C59.7002 27.4331 59.7673 31.1334 59.4653 34.8721C59.2736 37.1584 58.4061 39.2962 58.1185 41.5537C56.8914 43.03 56.5128 45.0096 55.2186 46.4523C55.07 46.6201 55.1755 47.0179 55.1659 47.3055L55.0748 47.2432L55.1707 47.3007C53.9964 47.8471 53.4308 48.8537 53.0952 50.0328C52.9573 50.0396 52.8221 50.0735 52.6973 50.1326C52.5725 50.1916 52.4606 50.2748 52.368 50.3772C52.2754 50.4796 52.2039 50.5993 52.1576 50.7293C52.1113 50.8594 52.0912 50.9974 52.0983 51.1352C51.7825 51.1422 51.4811 51.2688 51.2551 51.4895C51.0291 51.7102 50.8953 52.0084 50.8808 52.3239C50.6047 52.3217 50.338 52.4235 50.1337 52.6092C49.9293 52.7949 49.8025 53.0507 49.7784 53.3257C49.7375 53.3156 49.6949 53.3148 49.6537 53.3235C49.6125 53.3322 49.5738 53.3502 49.5406 53.3761C49.5074 53.4019 49.4804 53.435 49.4618 53.4728C49.4432 53.5105 49.4335 53.552 49.4333 53.5941C48.954 53.5414 48.5993 53.6852 48.5849 54.2508C47.5496 54.2508 46.9744 54.9458 46.4376 55.6887C45.793 55.7259 45.1696 55.9326 44.6305 56.2879C37.0526 60.2614 29.2924 60.6688 21.2687 57.6539C19.6917 57.0596 18.3209 55.9859 16.6193 55.7031L16.6912 55.6408L16.6241 55.7127C16.619 55.6061 16.5887 55.5022 16.5357 55.4096C16.4827 55.3169 16.4085 55.2381 16.3192 55.1797C16.2298 55.1212 16.128 55.0848 16.0218 55.0733C15.9157 55.0618 15.8084 55.0756 15.7086 55.1136L15.7757 55.0273L15.7134 55.1184C15.4792 54.6531 15.1414 54.2478 14.7259 53.9337C14.3104 53.6195 13.8283 53.405 13.3168 53.3066L13.3696 53.2346L13.3264 53.3161C13.2852 53.043 13.1474 52.7937 12.9381 52.6135C12.7288 52.4332 12.4619 52.3339 12.1857 52.3335C12.1857 52.0603 12.1281 51.8111 11.7495 51.9165L11.692 51.859C11.8118 51.3797 11.6105 51.2311 11.1647 51.2838L11.1168 51.2359C11.1695 51.025 11.0928 50.9483 10.8819 51.001L10.8148 50.9339C10.8771 50.723 10.8148 50.6416 10.5847 50.6751L10.5512 50.6415C10.6039 50.2245 10.3978 50.0328 9.99518 50.0089L10.0719 49.9178L10.0048 50.0136C10.0105 49.9729 10.0066 49.9313 9.99339 49.8923C9.98017 49.8533 9.95799 49.8179 9.92863 49.789C9.89927 49.7601 9.86355 49.7385 9.82433 49.7259C9.78511 49.7133 9.74349 49.7101 9.7028 49.7165L9.76511 49.6206L9.69801 49.7117C9.73416 49.5718 9.73824 49.4256 9.70994 49.284C9.68164 49.1423 9.62169 49.0089 9.53458 48.8937C9.44747 48.7784 9.33544 48.6844 9.20687 48.6185C9.0783 48.5527 8.93651 48.5167 8.7921 48.5134C8.91193 47.8088 8.52368 47.4685 7.91016 47.2911L7.65133 46.9268C7.68967 46.6393 7.65133 46.4092 7.30143 46.3469C7.34089 46.0308 7.27428 45.7106 7.11206 45.4364C6.94983 45.1623 6.70117 44.9498 6.40511 44.8322C6.46263 44.5447 6.40511 44.3194 6.09355 44.2235C6.15724 43.874 6.11507 43.5135 5.97245 43.1881C5.82983 42.8627 5.59327 42.5873 5.2931 42.3973ZM48.7095 24.3463C48.7521 24.3451 48.794 24.3354 48.8328 24.3178C48.8717 24.3002 48.9066 24.275 48.9356 24.2438C48.9646 24.2126 48.9871 24.1759 49.0017 24.1359C49.0164 24.0959 49.023 24.0533 49.0211 24.0108C49.2991 23.6561 49.6058 23.3254 49.8455 22.9515C50.3245 22.2416 50.5466 21.3894 50.4751 20.536C50.4036 19.6827 50.0428 18.8793 49.4524 18.259C48.7959 17.6363 47.9469 17.2557 47.0452 17.18C46.1435 17.1042 45.2428 17.3376 44.4915 17.842C43.974 18.236 43.4928 18.6755 43.0536 19.1553C37.6373 24.677 32.2067 30.1796 26.8383 35.7492C25.8797 36.751 25.2662 36.751 24.3123 35.7492C22.6443 34.0333 20.8661 32.4228 19.0974 30.8123C18.1052 29.9064 16.9405 29.3743 15.5409 29.6667C14.8401 29.7887 14.1896 30.1105 13.6675 30.5935C13.1454 31.0765 12.7739 31.7001 12.5979 32.3892C12.1665 33.9086 12.7177 35.2411 13.8489 36.3196C16.6736 39.0006 19.5 41.6768 22.328 44.3481C24.945 46.8262 26.6993 46.7974 29.2397 44.2235C31.7801 41.6496 34.2006 39.1763 36.6835 36.6551C38.0256 37.307 39.5594 37.0961 40.9494 37.8342C41.8313 38.3135 42.8666 38.975 44.1129 38.2225C45.6659 37.2639 47.0367 35.8595 46.5094 34.225C46.0829 32.9692 45.9343 30.7547 43.5281 30.8314C44.1944 29.9687 44.966 29.3216 44.8462 28.2527C45.051 27.8809 45.359 27.5763 45.733 27.3756C46.4807 27.5146 47.0798 27.7734 46.984 28.7129C46.984 28.9477 46.984 29.3887 47.2332 29.3264C48.7095 28.9285 49.1505 30.2467 50.0132 30.8938C50.2912 31.1142 50.5501 31.4018 50.9096 31.0663C50.9885 31.003 51.0523 30.9227 51.0961 30.8315C51.1399 30.7402 51.1626 30.6403 51.1626 30.5391C51.1626 30.4378 51.1399 30.3379 51.0961 30.2466C51.0523 30.1554 50.9885 30.0751 50.9096 30.0118C50.5281 29.5515 50.1045 29.1278 49.6442 28.7464C48.6424 28.0179 49.4429 27.3085 49.7784 26.8291C50.2577 26.1677 50.5645 27.0305 50.8808 27.2845C51.3601 27.6536 51.7148 28.1425 52.1702 28.5307C52.4578 28.78 52.7022 29.427 53.2295 28.8854C53.68 28.4349 53.4499 28.037 53.0665 27.6056C52.3187 26.7764 51.3649 25.9903 52.0168 24.6291C52.0541 24.5625 52.077 24.4889 52.0839 24.4129C52.0908 24.3369 52.0816 24.2603 52.0568 24.1881C52.032 24.1159 51.9923 24.0498 51.9402 23.994C51.888 23.9383 51.8247 23.8942 51.7544 23.8646C51.684 23.835 51.6082 23.8207 51.5319 23.8224C51.4556 23.8242 51.3806 23.8421 51.3117 23.8749C51.2428 23.9077 51.1816 23.9547 51.1321 24.0128C51.0826 24.0709 51.046 24.1388 51.0246 24.2121C50.8616 25.1324 49.9941 25.3768 49.4668 25.9328C49.1121 26.3019 48.7191 27.0305 48.1631 26.6662C47.6071 26.3019 48.5465 25.8897 48.4603 25.396C48.4316 25.1494 48.4172 24.9013 48.4171 24.6531C48.4568 24.6531 48.496 24.6451 48.5324 24.6295C48.5689 24.6139 48.6018 24.5911 48.6291 24.5624C48.6565 24.5337 48.6777 24.4998 48.6915 24.4626C48.7053 24.4255 48.7115 24.3859 48.7095 24.3463Z" fill="#40B44B"/>
<path d="M58.0704 22.8987C57.1981 22.3667 55.3958 23.2055 55.1945 24.2408C55.1839 24.3074 55.1892 24.3756 55.2101 24.4397C55.2309 24.5039 55.2666 24.5622 55.3144 24.6099C55.6307 24.7776 55.8895 24.6099 56.0909 24.3654C56.412 23.982 56.6517 23.1336 57.27 23.7471C57.7924 24.2696 57.3994 24.9454 56.8769 25.4343C56.5193 25.8214 56.0465 26.0831 55.5286 26.1807C55.0106 26.2782 54.475 26.2064 54.001 25.9759C52.7165 25.4103 52.5008 24.3462 52.6685 23.1C52.8171 21.988 53.6847 21.6621 54.5858 21.2786C55.3144 20.9623 55.6355 21.8155 56.3497 21.595C55.7889 20.459 55.7745 19.3566 56.6517 18.3644C56.9057 18.4171 56.968 18.5849 56.9201 18.8149C56.9009 20.3008 58.0608 21.4416 58.0704 22.8987Z" fill="#40B44B"/>
<path d="M16.6289 55.6648C18.3305 55.9476 19.7013 57.0212 21.2783 57.6156C29.2828 60.6305 37.0621 60.2231 44.6401 56.2495C45.1792 55.8942 45.8025 55.6875 46.4471 55.6504C43.2693 57.9703 39.6169 59.111 35.7967 59.6623C28.9425 60.6544 22.4909 59.5185 16.6289 55.6648Z" fill="#60AF68"/>
<path d="M58.0705 22.8987C58.0705 21.4608 56.901 20.3008 56.9297 18.8341C58.8901 22.0455 59.7289 25.6116 59.983 29.3072C60.2705 33.506 59.935 37.6424 58.1088 41.5345C58.3964 39.2769 59.264 37.1392 59.4557 34.8528C59.7577 31.1142 59.6906 27.4138 58.6073 23.7854C58.4641 23.4696 58.2839 23.172 58.0705 22.8987Z" fill="#60AF68"/>
<path d="M55.1613 47.2719C55.1613 46.9843 55.0654 46.5865 55.214 46.4187C56.5082 44.9808 56.8868 42.9964 58.1139 41.5201C57.553 43.6268 56.5461 45.5883 55.1613 47.2719Z" fill="#60AF68"/>
<path d="M53.0903 49.9986C53.4258 48.8198 53.9912 47.8135 55.1652 47.2672C54.6887 48.3227 53.9794 49.2565 53.0903 49.9986Z" fill="#60AF68"/>
<path d="M13.3215 53.2682C13.8329 53.3666 14.3148 53.5811 14.7302 53.8951C15.1456 54.2092 15.4834 54.6144 15.7175 55.0795C14.7807 54.6842 13.9573 54.0616 13.3215 53.2682Z" fill="#60AF68"/>
<path d="M46.4329 55.6644C46.9696 54.9168 47.5446 54.2268 48.5796 54.2268C48.0092 54.8935 47.2666 55.3908 46.4329 55.6644Z" fill="#60AF68"/>
<path d="M50.8757 52.2804C50.8902 51.965 51.024 51.6668 51.2499 51.4462C51.4759 51.2256 51.7772 51.099 52.0929 51.092C51.8547 51.6297 51.419 52.0552 50.8757 52.2804Z" fill="#60AF68"/>
<path d="M5.29297 42.3973C5.60704 42.5826 5.85675 42.8597 6.00841 43.1913C6.16007 43.5229 6.2064 43.893 6.14113 44.2518C5.68758 43.727 5.39332 43.0836 5.29297 42.3973Z" fill="#60AF68"/>
<path d="M6.44336 44.837C6.73934 44.9545 6.98794 45.167 7.15012 45.4411C7.3123 45.7151 7.37889 46.0353 7.33944 46.3513C6.8841 45.9573 6.56953 45.4258 6.44336 44.837Z" fill="#60AF68"/>
<path d="M7.91943 47.2576C8.53279 47.4349 8.92094 47.7751 8.80114 48.4795C8.58013 48.3449 8.38827 48.1674 8.23685 47.9576C8.08544 47.7478 7.97751 47.5097 7.91943 47.2576Z" fill="#60AF68"/>
<path d="M8.80151 48.4799C8.94589 48.4832 9.08763 48.5191 9.21617 48.585C9.34471 48.6508 9.45671 48.7448 9.54379 48.86C9.63088 48.9752 9.69081 49.1086 9.7191 49.2502C9.74739 49.3918 9.74332 49.538 9.70718 49.6778C9.27179 49.3996 8.95049 48.9746 8.80151 48.4799Z" fill="#60AF68"/>
<path d="M49.7739 53.2919C49.798 53.017 49.9248 52.7612 50.1291 52.5756C50.3334 52.39 50.6001 52.2882 50.8761 52.2904C50.7685 52.5225 50.6155 52.7306 50.4262 52.9026C50.2369 53.0746 50.0152 53.207 49.7739 53.2919Z" fill="#60AF68"/>
<path d="M12.1904 52.2808C12.4666 52.2811 12.7335 52.3804 12.9427 52.5606C13.1519 52.7408 13.2896 52.99 13.3309 53.2631C12.8455 53.0825 12.4409 52.734 12.1904 52.2808Z" fill="#60AF68"/>
<path d="M52.0885 51.1062C52.0814 50.9683 52.1016 50.8304 52.1479 50.7004C52.1942 50.5703 52.2656 50.4507 52.3582 50.3483C52.4508 50.2459 52.5627 50.1628 52.6874 50.1037C52.8122 50.0447 52.9474 50.0108 53.0853 50.004C52.9075 50.4861 52.5504 50.881 52.0885 51.1062Z" fill="#60AF68"/>
<path d="M15.7183 55.0752C15.818 55.0372 15.9253 55.0234 16.0314 55.0349C16.1375 55.0464 16.2393 55.0829 16.3286 55.1413C16.4179 55.1998 16.4921 55.2785 16.5451 55.3711C16.5981 55.4638 16.6284 55.5676 16.6335 55.6742C16.4455 55.6502 16.2655 55.5838 16.1069 55.4801C15.9484 55.3763 15.8155 55.2379 15.7183 55.0752Z" fill="#60AF68"/>
<path d="M48.5945 54.198C48.5945 53.6325 48.9491 53.4888 49.4426 53.5415C49.3738 53.7174 49.2586 53.8713 49.1092 53.9869C48.9599 54.1025 48.782 54.1754 48.5945 54.198Z" fill="#60AF68"/>
<path d="M10.0046 49.9753C10.4072 49.9993 10.6132 50.191 10.5605 50.6079C10.42 50.5613 10.2945 50.4781 10.1969 50.3669C10.0992 50.2558 10.0328 50.1206 10.0046 49.9753Z" fill="#60AF68"/>
<path d="M11.1599 51.2503C11.6056 51.1976 11.8068 51.3653 11.687 51.8253C11.5569 51.7832 11.44 51.7081 11.3476 51.6073C11.2552 51.5066 11.1906 51.3835 11.1599 51.2503Z" fill="#60AF68"/>
<path d="M6.13682 44.2379C6.44829 44.3338 6.5058 44.559 6.44829 44.8465C6.33908 44.7906 6.25023 44.7017 6.19433 44.5925C6.13843 44.4833 6.11831 44.3592 6.13682 44.2379Z" fill="#60AF68"/>
<path d="M7.32529 46.342C7.65593 46.4043 7.71343 46.6344 7.6751 46.9219C7.5682 46.8679 7.47869 46.7848 7.41682 46.6823C7.35495 46.5797 7.32323 46.4618 7.32529 46.342Z" fill="#60AF68"/>
<path d="M11.759 51.883C12.1376 51.7776 12.1759 52.0268 12.1951 52.2999L11.759 51.883Z" fill="#60AF68"/>
<path d="M49.4287 53.5605C49.4282 53.5187 49.4373 53.4772 49.4553 53.4394C49.4733 53.4016 49.4998 53.3684 49.5327 53.3425C49.5656 53.3166 49.604 53.2985 49.645 53.2898C49.6859 53.2811 49.7284 53.2819 49.769 53.2922L49.4287 53.5605Z" fill="#60AF68"/>
<path d="M7.67527 46.9076L7.93403 47.2718C7.85147 47.2577 7.77786 47.2115 7.72935 47.1432C7.68084 47.0749 7.66139 46.9902 7.67527 46.9076Z" fill="#60AF68"/>
<path d="M9.72217 49.6829C9.76285 49.6765 9.80446 49.6797 9.84367 49.6923C9.88288 49.7049 9.91859 49.7265 9.94794 49.7554C9.97729 49.7843 9.99946 49.8196 10.0127 49.8586C10.0259 49.8976 10.0298 49.9392 10.0241 49.98L9.72217 49.6829Z" fill="#60AF68"/>
<path d="M10.5945 50.6416C10.8053 50.608 10.8868 50.6895 10.8245 50.9003L10.5945 50.6416Z" fill="#60AF68"/>
<path d="M10.8916 50.9675C11.1024 50.9148 11.1791 50.9914 11.1264 51.2023L10.8916 50.9675Z" fill="#60AF68"/>
<path d="M36.7029 36.6552C34.2201 39.1764 31.7388 41.6992 29.2592 44.2236C26.7188 46.7975 24.9453 46.8263 22.3474 44.3482C19.5195 41.6736 16.6931 38.9974 13.8683 36.3197C12.7371 35.2412 12.1859 33.9231 12.6173 32.3893C12.7955 31.7056 13.1662 31.0875 13.6853 30.6083C14.2045 30.1291 14.8502 29.809 15.5459 29.6859C16.9455 29.3792 18.1103 29.9256 19.1025 30.8315C20.8711 32.442 22.6494 34.0525 24.3174 35.7684C25.276 36.751 25.88 36.751 26.8434 35.7684C32.2117 30.2036 37.6424 24.6962 43.0587 19.1745C43.4978 18.6947 43.9791 18.2552 44.4966 17.8612C45.2479 17.3569 46.1485 17.1234 47.0502 17.1992C47.9519 17.275 48.801 17.6555 49.4575 18.2782C50.0479 18.8985 50.4087 19.7019 50.4802 20.5553C50.5517 21.4086 50.3295 22.2608 49.8506 22.9707C49.6109 23.3446 49.3041 23.6753 49.0261 24.03L48.7098 24.3655L48.4318 24.6819L45.7284 27.3565C45.3544 27.5572 45.0465 27.8618 44.8417 28.2336L36.7029 36.6552Z" fill="#F7FBF6"/>
<path d="M36.7026 36.6551L44.851 28.2527C44.966 29.3216 44.1991 29.9686 43.5329 30.8314C45.9295 30.7547 46.0876 32.9691 46.5142 34.225C47.0654 35.8594 45.6946 37.2686 44.1176 38.2225C42.8858 38.975 41.8361 38.3087 40.9542 37.8342C39.5977 37.0961 38.0447 37.307 36.7026 36.6551ZM42.4544 35.1309C42.349 34.503 42.0087 34.0284 41.3999 34.0668C41.0987 34.0804 40.8126 34.2024 40.5942 34.4103C40.3758 34.6181 40.2398 34.8978 40.2112 35.198C40.2169 35.4752 40.3273 35.7401 40.5203 35.9392C40.7132 36.1384 40.9744 36.2572 41.2513 36.2716C41.884 36.2812 42.2196 35.6821 42.4592 35.1309H42.4544Z" fill="#40B44B"/>
<path d="M45.7278 27.3564L48.4167 24.653C48.4168 24.9013 48.4312 25.1494 48.4599 25.396C48.5462 25.8753 47.5779 26.2827 48.1627 26.6662C48.7475 27.0496 49.1213 26.3019 49.4664 25.9328C49.9937 25.3768 50.8613 25.1323 51.0242 24.2121C51.0456 24.1388 51.0823 24.0709 51.1317 24.0128C51.1812 23.9547 51.2424 23.9077 51.3113 23.8749C51.3802 23.8421 51.4552 23.8242 51.5315 23.8224C51.6078 23.8206 51.6836 23.835 51.754 23.8646C51.8243 23.8941 51.8877 23.9382 51.9398 23.994C51.9919 24.0497 52.0316 24.1159 52.0564 24.188C52.0812 24.2602 52.0904 24.3368 52.0835 24.4128C52.0766 24.4888 52.0538 24.5625 52.0164 24.6291C51.3645 25.9903 52.3184 26.7764 53.0661 27.6056C53.4496 28.037 53.6796 28.4348 53.2291 28.8854C52.7018 29.427 52.4574 28.7799 52.1698 28.5307C51.7144 28.1425 51.3502 27.6535 50.8804 27.2845C50.5641 27.0304 50.2621 26.1677 49.778 26.8291C49.4425 27.3084 48.642 27.9987 49.6438 28.7464C50.1041 29.1278 50.5278 29.5515 50.9092 30.0118C50.9882 30.0751 51.0519 30.1554 51.0957 30.2466C51.1395 30.3379 51.1622 30.4378 51.1622 30.539C51.1622 30.6403 51.1395 30.7402 51.0957 30.8314C51.0519 30.9227 50.9882 31.0029 50.9092 31.0663C50.5497 31.4018 50.2909 31.1142 50.0129 30.8937C49.1645 30.2466 48.7091 28.9285 47.2328 29.3264C46.998 29.3887 46.9596 28.9477 46.9836 28.7128C47.0747 27.7734 46.4755 27.5145 45.7278 27.3564Z" fill="#40B44B"/>
<path d="M48.7097 24.3462L49.0212 24.0107C49.0231 24.0533 49.0165 24.0958 49.0019 24.1358C48.9872 24.1758 48.9647 24.2125 48.9357 24.2437C48.9067 24.2749 48.8718 24.3001 48.833 24.3177C48.7942 24.3353 48.7523 24.345 48.7097 24.3462Z" fill="#5CBA64"/>
<path d="M48.4268 24.6626L48.7047 24.3463C48.7087 24.3856 48.7045 24.4253 48.6924 24.4629C48.6804 24.5006 48.6607 24.5353 48.6346 24.565C48.6085 24.5946 48.5766 24.6186 48.5408 24.6354C48.5051 24.6522 48.4662 24.6615 48.4268 24.6626Z" fill="#5CBA64"/>
<path d="M42.4587 35.1307C42.2191 35.6817 41.8836 36.2807 41.2559 36.2711C40.979 36.2567 40.7179 36.1379 40.525 35.9388C40.3321 35.7397 40.2217 35.4749 40.2161 35.1977C40.2446 34.8977 40.3806 34.618 40.5989 34.4102C40.8173 34.2025 41.1033 34.0805 41.4045 34.0669C42.013 34.0285 42.3532 34.5029 42.4587 35.1307Z" fill="#46B24F"/>
<ellipse cx="55" cy="25.5" rx="4" ry="3.5" fill="#40B44B"/>
<ellipse cx="50" cy="29.5" rx="4" ry="3.5" fill="#40B44B"/>
</svg>
