<svg width="207" height="164" viewBox="0 0 207 164" fill="none" xmlns="http://www.w3.org/2000/svg">
<path d="M189.72 0.0317383H16.413C7.3629 0.0317383 0.0263672 5.83508 0.0263672 12.9939V150.072C0.0263672 157.23 7.3629 163.034 16.413 163.034H189.72C198.77 163.034 206.106 157.23 206.106 150.072V12.9939C206.106 5.83508 198.77 0.0317383 189.72 0.0317383Z" fill="white"/>
<path d="M141.346 86.1996L74.3593 55.6137C74.2526 55.6137 74.2526 42.0398 74.3593 41.9871L102.546 42.5038L169.786 73.2163L141.346 86.1996Z" fill="#A9C55E"/>
<path d="M141.346 72.7103L74.4928 42.1244C74.454 42.1069 74.4216 42.0816 74.3992 42.051C74.3767 42.0204 74.365 41.9857 74.365 41.9503C74.365 41.915 74.3767 41.8803 74.3992 41.8498C74.4216 41.8192 74.454 41.7939 74.4928 41.7764L102.493 28.9619L169.733 59.6744L141.346 72.7103Z" fill="#C1D97A"/>
<path d="M141.679 71.2864L77.2661 41.8711L102.226 30.47L166.626 59.8852L141.679 71.2864Z" fill="#4E7735"/>
<path d="M149.853 57.8393C147.626 56.7847 146.586 55.4557 146.733 54.1057L113.613 38.9604C110.609 39.1372 107.603 38.6478 104.933 37.5472L97.7993 34.2881L85.5459 39.8885L92.6794 43.1475C94.986 44.2022 96.0126 45.6155 95.786 46.9971L129.119 62.2163C131.868 62.14 134.594 62.6346 137.026 63.6507L145.639 67.5846L158.439 61.7416L149.853 57.8393Z" fill="#C1D97A"/>
<path d="M130.599 54.7807C124.853 57.4069 116.319 57.7655 111.546 55.5823C106.773 53.3991 107.546 49.5073 113.293 46.8811C119.039 44.2549 127.56 43.8963 132.346 46.0795C137.133 48.2627 136.346 52.2073 130.599 54.7807Z" fill="#4E7735"/>
<path d="M106.653 44.6239C105.411 45.1165 104.042 45.373 102.653 45.373C101.264 45.373 99.8943 45.1165 98.6529 44.6239C96.4262 43.5692 96.4262 41.9661 98.6529 40.943C99.8943 40.4504 101.264 40.1938 102.653 40.1938C104.042 40.1938 105.411 40.4504 106.653 40.943C108.866 41.9661 108.866 43.6114 106.653 44.6239Z" fill="#4E7735"/>
<path d="M143.013 61.2352C141.771 61.7279 140.402 61.9844 139.013 61.9844C137.624 61.9844 136.254 61.7279 135.013 61.2352C132.786 60.1805 132.786 58.5668 135.013 57.5543C136.254 57.0617 137.624 56.8052 139.013 56.8052C140.402 56.8052 141.771 57.0617 143.013 57.5543C145.239 58.5668 145.239 60.2122 143.013 61.2352Z" fill="#4E7735"/>
<path d="M141.346 72.7313L169.786 59.7375V73.2165L141.346 86.2102V72.7313Z" fill="#7F9850"/>
<path d="M94.146 51.1735L108.639 57.7864L137.133 44.7926L122.639 38.1692L94.146 51.1735Z" fill="#F2FFE3"/>
<path d="M94.146 51.1736L96.1593 52.1017L124.666 39.0869L122.666 38.1482L94.146 51.1736Z" fill="#D14845"/>
<path d="M106.626 56.8898L108.679 57.8074L137.133 44.782L135.146 43.8855L106.626 56.8898Z" fill="#D14845"/>
<path d="M94.146 51.1736V64.6841L108.693 71.3814L108.639 57.7865L94.146 51.1736Z" fill="#CFCAC1"/>
<path d="M94.146 51.1736V64.6841L96.1993 65.6966L96.1727 52.0806L94.146 51.1736Z" fill="#B83F3D"/>
<path d="M106.653 56.8689L106.639 70.4005L108.693 71.4236L108.679 57.8076L106.653 56.8689Z" fill="#B83F3D"/>
<path d="M115.173 66.3821L141.293 77.9836H141.133L142.919 77.2032L144.719 76.4227L148.306 74.8829L151.906 73.3535L155.519 71.8454L151.973 73.4484L148.426 75.041L144.853 76.6125L143.066 77.393L141.279 78.1735H141.199H141.119L115.159 66.3821H115.173Z" fill="#6B853D"/>
<path d="M74.2526 53.4622L84.146 57.8918L74.106 53.6836L74.2526 53.4622Z" fill="#6B853D"/>
<path d="M67.4927 86.2524L122.346 43.1262C122.439 43.0524 118.066 29.9743 117.933 29.9426L90.8527 36.1548L35.7993 79.4603L67.4927 86.2524Z" fill="#7F9850"/>
<path d="M63.1328 73.2271L117.879 30.1748C117.912 30.1503 117.935 30.1195 117.948 30.0855C117.96 30.0516 117.961 30.0158 117.95 29.9815C117.939 29.9473 117.917 29.9158 117.886 29.8905C117.855 29.8652 117.816 29.8468 117.773 29.8372L86.4928 23.1294L31.4395 66.3716L63.1328 73.2271Z" fill="#C1D97A"/>
<path d="M62.3592 71.8981L115.093 30.4172L87.2792 24.4583L34.5459 65.9391L62.3592 71.8981Z" fill="#4E7735"/>
<path d="M50.0926 60.5601C51.9193 59.1152 52.4793 57.5859 51.8927 56.3414L78.9993 35.0262C81.9904 34.5906 84.7642 33.4935 86.9993 31.8621L92.8527 27.2637L106.506 30.1956L100.666 34.7836C98.786 36.2707 98.2526 37.8422 98.9059 39.1395L71.5993 60.6129C68.9134 61.0902 66.4343 62.1197 64.4126 63.5976L57.3593 69.1453L43.106 66.0867L50.0926 60.5601Z" fill="#C1D97A"/>
<path d="M67.7327 53.726C74.1327 55.0971 82.4927 53.726 86.3993 50.6357C90.306 47.5455 88.306 43.9491 81.906 42.578C75.506 41.2069 67.146 42.578 63.2393 45.6682C59.3327 48.7584 61.3327 52.376 67.7327 53.726Z" fill="#4E7735"/>
<path d="M87.586 39.0339C88.953 39.2636 90.3691 39.2354 91.7196 38.9513C93.0702 38.6673 94.3173 38.1356 95.3594 37.3992C97.1861 35.9753 96.6928 34.3828 94.1728 33.8449C92.8037 33.6151 91.3855 33.6433 90.0328 33.9273C88.6801 34.2113 87.4308 34.743 86.386 35.4796C84.5726 36.9139 85.106 38.5065 87.586 39.0339Z" fill="#4E7735"/>
<path d="M57.7992 62.4482C59.1671 62.6829 60.5856 62.658 61.939 62.3757C63.2924 62.0934 64.5421 61.5616 65.5858 60.824C67.3992 59.3896 66.9191 57.797 64.3991 57.2697C63.0312 57.0376 61.6133 57.0637 60.2605 57.3459C58.9076 57.6281 57.6579 58.1585 56.6125 58.8939C54.7858 60.3283 55.3192 61.9209 57.7992 62.4482Z" fill="#4E7735"/>
<path d="M63.1461 73.2271L31.4395 66.4243L35.7995 79.4603L67.5061 86.2524L63.1461 73.2271Z" fill="#A9C55E"/>
<path d="M101.786 42.8311L89.9328 52.165L58.1729 45.3623L70.0395 36.0283L101.786 42.8311Z" fill="#F2FFE3"/>
<path d="M101.799 42.8309L100.159 44.1387L68.3726 37.3254L70.0126 36.0176L101.799 42.8309Z" fill="#D14845"/>
<path d="M91.5729 50.8889L89.8929 52.1862L58.1729 45.3624L59.7995 44.0862L91.5729 50.8889Z" fill="#D14845"/>
<path d="M101.799 42.8308L106.159 55.8878L94.2794 65.3062L89.9194 52.1648L101.799 42.8308Z" fill="#CFCAC1"/>
<path d="M101.786 42.9263L106.146 55.9833L104.493 57.386L100.106 44.2235L101.786 42.9263Z" fill="#B83F3D"/>
<path d="M91.5459 50.8782L95.9459 63.9458L94.2792 65.3485L89.8926 52.186L91.5459 50.8782Z" fill="#B83F3D"/>
<path d="M86.3993 61.8364L65.066 78.5005H64.9994H64.906L62.9327 78.1103L60.946 77.7201L56.946 76.9185L52.946 76.0958C51.6127 75.8321 50.2794 75.5369 48.946 75.2627L52.946 75.9798L56.946 76.7287L60.946 77.4881L62.9327 77.8783L64.906 78.2685H64.7594L86.2527 61.7732L86.3993 61.8364Z" fill="#6B853D"/>
<path d="M121.986 41.1961L113.639 47.3028L121.759 41.0168L121.986 41.1961Z" fill="#6B853D"/>
<path d="M80.6929 141.926C80.3743 141.926 80.0877 141.815 79.8328 141.592C79.6099 141.369 79.4984 141.082 79.4984 140.732V135.333H64.6388C64.3203 135.333 64.0336 135.221 63.7787 134.998C63.5558 134.775 63.4443 134.489 63.4443 134.138V129.599C63.4443 129.312 63.4921 129.058 63.5876 128.835C63.715 128.58 63.8425 128.341 63.9699 128.118L77.8738 109.293C78.2879 108.751 78.8772 108.48 79.6417 108.48H86.5698C86.9202 108.48 87.2069 108.592 87.4298 108.815C87.6847 109.038 87.8121 109.324 87.8121 109.675V128.213H92.0167C92.399 128.213 92.7016 128.341 92.9245 128.596C93.1475 128.819 93.259 129.089 93.259 129.408V134.138C93.259 134.489 93.1316 134.775 92.8768 134.998C92.6538 135.221 92.383 135.333 92.0645 135.333H87.8121V140.732C87.8121 141.082 87.6847 141.369 87.4298 141.592C87.2069 141.815 86.9202 141.926 86.5698 141.926H80.6929ZM71.6624 128.548H79.6895V117.272L71.6624 128.548ZM109.386 141.926C109.068 141.926 108.781 141.815 108.526 141.592C108.303 141.369 108.192 141.082 108.192 140.732V109.675C108.192 109.324 108.303 109.038 108.526 108.815C108.781 108.592 109.068 108.48 109.386 108.48H114.546C115.056 108.48 115.438 108.624 115.693 108.91C115.98 109.165 116.155 109.372 116.219 109.531L124.628 124.63L133.037 109.531C133.133 109.372 133.292 109.165 133.515 108.91C133.77 108.624 134.168 108.48 134.71 108.48H139.822C140.172 108.48 140.459 108.592 140.682 108.815C140.937 109.038 141.064 109.324 141.064 109.675V140.732C141.064 141.082 140.937 141.369 140.682 141.592C140.459 141.815 140.172 141.926 139.822 141.926H134.136C133.786 141.926 133.483 141.815 133.228 141.592C133.005 141.369 132.894 141.082 132.894 140.732V122.814L127.495 132.8C127.367 133.087 127.176 133.342 126.922 133.565C126.667 133.788 126.316 133.899 125.87 133.899H123.386C122.94 133.899 122.589 133.788 122.335 133.565C122.08 133.342 121.873 133.087 121.713 132.8L116.314 122.814V140.732C116.314 141.082 116.203 141.369 115.98 141.592C115.757 141.815 115.47 141.926 115.12 141.926H109.386Z" fill="#1C5E8A"/>
</svg>
