<svg width="207" height="164" viewBox="0 0 207 164" fill="none" xmlns="http://www.w3.org/2000/svg">
<path d="M189.72 0.0317383H16.413C7.3629 0.0317383 0.0263672 5.83508 0.0263672 12.9939V150.072C0.0263672 157.23 7.3629 163.034 16.413 163.034H189.72C198.77 163.034 206.106 157.23 206.106 150.072V12.9939C206.106 5.83508 198.77 0.0317383 189.72 0.0317383Z" fill="white"/>
<path d="M141.346 86.1996L74.3593 55.6137C74.2526 55.6137 74.2526 42.0398 74.3593 41.9871L102.546 42.5038L169.786 73.2163L141.346 86.1996Z" fill="#A9C55E"/>
<path d="M141.346 72.7103L74.4928 42.1244C74.454 42.1069 74.4216 42.0816 74.3992 42.051C74.3767 42.0204 74.365 41.9857 74.365 41.9503C74.365 41.915 74.3767 41.8803 74.3992 41.8498C74.4216 41.8192 74.454 41.7939 74.4928 41.7764L102.493 28.9619L169.733 59.6744L141.346 72.7103Z" fill="#C1D97A"/>
<path d="M141.679 71.2864L77.2661 41.8711L102.226 30.47L166.626 59.8852L141.679 71.2864Z" fill="#4E7735"/>
<path d="M149.853 57.8393C147.626 56.7847 146.586 55.4557 146.733 54.1057L113.613 38.9604C110.609 39.1372 107.603 38.6478 104.933 37.5472L97.7993 34.2881L85.5459 39.8885L92.6794 43.1475C94.986 44.2022 96.0126 45.6155 95.786 46.9971L129.119 62.2163C131.868 62.14 134.594 62.6346 137.026 63.6507L145.639 67.5846L158.439 61.7416L149.853 57.8393Z" fill="#C1D97A"/>
<path d="M130.599 54.7807C124.853 57.4069 116.319 57.7655 111.546 55.5823C106.773 53.3991 107.546 49.5073 113.293 46.8811C119.039 44.2549 127.56 43.8963 132.346 46.0795C137.133 48.2627 136.346 52.2073 130.599 54.7807Z" fill="#4E7735"/>
<path d="M106.653 44.6239C105.411 45.1165 104.042 45.373 102.653 45.373C101.264 45.373 99.8943 45.1165 98.6529 44.6239C96.4262 43.5692 96.4262 41.9661 98.6529 40.943C99.8943 40.4504 101.264 40.1938 102.653 40.1938C104.042 40.1938 105.411 40.4504 106.653 40.943C108.866 41.9661 108.866 43.6114 106.653 44.6239Z" fill="#4E7735"/>
<path d="M143.013 61.2352C141.771 61.7279 140.402 61.9844 139.013 61.9844C137.624 61.9844 136.254 61.7279 135.013 61.2352C132.786 60.1805 132.786 58.5668 135.013 57.5543C136.254 57.0617 137.624 56.8052 139.013 56.8052C140.402 56.8052 141.771 57.0617 143.013 57.5543C145.239 58.5668 145.239 60.2122 143.013 61.2352Z" fill="#4E7735"/>
<path d="M141.346 72.7313L169.786 59.7375V73.2165L141.346 86.2102V72.7313Z" fill="#7F9850"/>
<path d="M94.146 51.1735L108.639 57.7864L137.133 44.7926L122.639 38.1692L94.146 51.1735Z" fill="#F2FFE3"/>
<path d="M94.146 51.1736L96.1593 52.1017L124.666 39.0869L122.666 38.1482L94.146 51.1736Z" fill="#D14845"/>
<path d="M106.626 56.8898L108.679 57.8074L137.133 44.782L135.146 43.8855L106.626 56.8898Z" fill="#D14845"/>
<path d="M94.146 51.1736V64.6841L108.693 71.3814L108.639 57.7865L94.146 51.1736Z" fill="#CFCAC1"/>
<path d="M94.146 51.1736V64.6841L96.1993 65.6966L96.1727 52.0806L94.146 51.1736Z" fill="#B83F3D"/>
<path d="M106.653 56.8689L106.639 70.4005L108.693 71.4236L108.679 57.8076L106.653 56.8689Z" fill="#B83F3D"/>
<path d="M115.173 66.3821L141.293 77.9836H141.133L142.919 77.2032L144.719 76.4227L148.306 74.8829L151.906 73.3535L155.519 71.8454L151.973 73.4484L148.426 75.041L144.853 76.6125L143.066 77.393L141.279 78.1735H141.199H141.119L115.159 66.3821H115.173Z" fill="#6B853D"/>
<path d="M74.2526 53.4622L84.146 57.8918L74.106 53.6836L74.2526 53.4622Z" fill="#6B853D"/>
<path d="M67.4927 86.2524L122.346 43.1262C122.439 43.0524 118.066 29.9743 117.933 29.9426L90.8527 36.1548L35.7993 79.4603L67.4927 86.2524Z" fill="#7F9850"/>
<path d="M63.1328 73.2271L117.879 30.1748C117.912 30.1503 117.935 30.1195 117.948 30.0855C117.96 30.0516 117.961 30.0158 117.95 29.9815C117.939 29.9473 117.917 29.9158 117.886 29.8905C117.855 29.8652 117.816 29.8468 117.773 29.8372L86.4928 23.1294L31.4395 66.3716L63.1328 73.2271Z" fill="#C1D97A"/>
<path d="M62.3592 71.8981L115.093 30.4172L87.2792 24.4583L34.5459 65.9391L62.3592 71.8981Z" fill="#4E7735"/>
<path d="M50.0926 60.5601C51.9193 59.1152 52.4793 57.5859 51.8927 56.3414L78.9993 35.0262C81.9904 34.5906 84.7642 33.4935 86.9993 31.8621L92.8527 27.2637L106.506 30.1956L100.666 34.7836C98.786 36.2707 98.2526 37.8422 98.9059 39.1395L71.5993 60.6129C68.9134 61.0902 66.4343 62.1197 64.4126 63.5976L57.3593 69.1453L43.106 66.0867L50.0926 60.5601Z" fill="#C1D97A"/>
<path d="M67.7327 53.726C74.1327 55.0971 82.4927 53.726 86.3993 50.6357C90.306 47.5455 88.306 43.9491 81.906 42.578C75.506 41.2069 67.146 42.578 63.2393 45.6682C59.3327 48.7584 61.3327 52.376 67.7327 53.726Z" fill="#4E7735"/>
<path d="M87.586 39.0339C88.953 39.2636 90.3691 39.2354 91.7196 38.9513C93.0702 38.6673 94.3173 38.1356 95.3594 37.3992C97.1861 35.9753 96.6928 34.3828 94.1728 33.8449C92.8037 33.6151 91.3855 33.6433 90.0328 33.9273C88.6801 34.2113 87.4308 34.743 86.386 35.4796C84.5726 36.9139 85.106 38.5065 87.586 39.0339Z" fill="#4E7735"/>
<path d="M57.7992 62.4482C59.1671 62.6829 60.5856 62.658 61.939 62.3757C63.2924 62.0934 64.5421 61.5616 65.5858 60.824C67.3992 59.3896 66.9191 57.797 64.3991 57.2697C63.0312 57.0376 61.6133 57.0637 60.2605 57.3459C58.9076 57.6281 57.6579 58.1585 56.6125 58.8939C54.7858 60.3283 55.3192 61.9209 57.7992 62.4482Z" fill="#4E7735"/>
<path d="M63.1461 73.2271L31.4395 66.4243L35.7995 79.4603L67.5061 86.2524L63.1461 73.2271Z" fill="#A9C55E"/>
<path d="M101.786 42.8311L89.9328 52.165L58.1729 45.3623L70.0395 36.0283L101.786 42.8311Z" fill="#F2FFE3"/>
<path d="M101.799 42.8309L100.159 44.1387L68.3726 37.3254L70.0126 36.0176L101.799 42.8309Z" fill="#D14845"/>
<path d="M91.5729 50.8889L89.8929 52.1862L58.1729 45.3624L59.7995 44.0862L91.5729 50.8889Z" fill="#D14845"/>
<path d="M101.799 42.8308L106.159 55.8878L94.2794 65.3062L89.9194 52.1648L101.799 42.8308Z" fill="#CFCAC1"/>
<path d="M101.786 42.9263L106.146 55.9833L104.493 57.386L100.106 44.2235L101.786 42.9263Z" fill="#B83F3D"/>
<path d="M91.5459 50.8782L95.9459 63.9458L94.2792 65.3485L89.8926 52.186L91.5459 50.8782Z" fill="#B83F3D"/>
<path d="M86.3993 61.8364L65.066 78.5005H64.9994H64.906L62.9327 78.1103L60.946 77.7201L56.946 76.9185L52.946 76.0958C51.6127 75.8321 50.2794 75.5369 48.946 75.2627L52.946 75.9798L56.946 76.7287L60.946 77.4881L62.9327 77.8783L64.906 78.2685H64.7594L86.2527 61.7732L86.3993 61.8364Z" fill="#6B853D"/>
<path d="M121.986 41.1961L113.639 47.3028L121.759 41.0168L121.986 41.1961Z" fill="#6B853D"/>
<path d="M77.8738 142.404C75.0708 142.404 72.6021 141.894 70.4679 140.875C68.3338 139.856 66.6615 138.454 65.451 136.67C64.2725 134.855 63.6832 132.784 63.6832 130.459C63.6832 129.472 63.8265 128.5 64.1132 127.544C64.4317 126.557 64.814 125.633 65.2599 124.773C65.7059 123.881 66.1518 123.101 66.5978 122.432C67.0437 121.731 67.41 121.174 67.6967 120.76L76.106 109.436C76.2653 109.277 76.4723 109.085 76.7271 108.863C76.982 108.608 77.3483 108.48 77.8261 108.48H84.1808C84.4675 108.48 84.7064 108.592 84.8975 108.815C85.0886 109.006 85.1842 109.245 85.1842 109.531C85.1842 109.659 85.1683 109.786 85.1364 109.914C85.1046 110.009 85.0568 110.089 84.9931 110.153L78.5428 118.944C78.7339 118.88 78.9569 118.849 79.2117 118.849C79.4984 118.817 79.7532 118.801 79.9762 118.801C81.4096 118.864 82.827 119.183 84.2286 119.756C85.6301 120.33 86.9043 121.11 88.051 122.098C89.1977 123.085 90.1055 124.28 90.7744 125.681C91.4752 127.051 91.8256 128.596 91.8256 130.316C91.8256 132.514 91.2522 134.536 90.1055 136.384C88.9588 138.199 87.3343 139.665 85.232 140.78C83.1615 141.863 80.7088 142.404 77.8738 142.404ZM77.8261 135.524C78.7498 135.524 79.6099 135.333 80.4062 134.95C81.2025 134.536 81.8396 133.963 82.3174 133.23C82.827 132.466 83.0819 131.526 83.0819 130.411C83.0819 129.296 82.843 128.373 82.3652 127.64C81.8874 126.876 81.2503 126.302 80.454 125.92C79.6576 125.538 78.7817 125.347 77.8261 125.347C76.8705 125.347 75.9786 125.538 75.1504 125.92C74.3541 126.302 73.717 126.876 73.2392 127.64C72.7614 128.373 72.5225 129.296 72.5225 130.411C72.5225 131.526 72.7614 132.466 73.2392 133.23C73.7488 133.963 74.4018 134.536 75.1982 134.95C75.9945 135.333 76.8705 135.524 77.8261 135.524ZM107.94 141.926C107.621 141.926 107.335 141.815 107.08 141.592C106.857 141.369 106.745 141.082 106.745 140.732V109.675C106.745 109.324 106.857 109.038 107.08 108.815C107.335 108.592 107.621 108.48 107.94 108.48H113.1C113.61 108.48 113.992 108.624 114.247 108.91C114.533 109.165 114.709 109.372 114.772 109.531L123.182 124.63L131.591 109.531C131.686 109.372 131.846 109.165 132.069 108.91C132.324 108.624 132.722 108.48 133.263 108.48H138.376C138.726 108.48 139.013 108.592 139.236 108.815C139.491 109.038 139.618 109.324 139.618 109.675V140.732C139.618 141.082 139.491 141.369 139.236 141.592C139.013 141.815 138.726 141.926 138.376 141.926H132.69C132.339 141.926 132.037 141.815 131.782 141.592C131.559 141.369 131.448 141.082 131.448 140.732V122.814L126.048 132.8C125.921 133.087 125.73 133.342 125.475 133.565C125.22 133.788 124.87 133.899 124.424 133.899H121.939C121.493 133.899 121.143 133.788 120.888 133.565C120.633 133.342 120.426 133.087 120.267 132.8L114.868 122.814V140.732C114.868 141.082 114.756 141.369 114.533 141.592C114.31 141.815 114.024 141.926 113.673 141.926H107.94Z" fill="#1C5E8A"/>
</svg>
