<svg width="206" height="48" viewBox="0 0 206 48" fill="none" xmlns="http://www.w3.org/2000/svg">
<path d="M175.64 0.263672H30.3597C13.7764 0.263672 0.333008 10.8952 0.333008 24.0099C0.333008 37.1247 13.7764 47.7562 30.3597 47.7562H175.64C192.223 47.7562 205.666 37.1247 205.666 24.0099C205.666 10.8952 192.223 0.263672 175.64 0.263672Z" fill="#1C5E8A"/>
<path d="M83.383 12.4902C83.603 12.4902 83.793 12.5702 83.953 12.7302C84.113 12.8902 84.193 13.0802 84.193 13.3002V32.6802C84.193 32.9002 84.113 33.0902 83.953 33.2502C83.793 33.4102 83.603 33.4902 83.383 33.4902H79.453C79.233 33.4902 79.043 33.4102 78.883 33.2502C78.723 33.0902 78.643 32.9002 78.643 32.6802V25.3302H71.983V32.6802C71.983 32.9002 71.903 33.0902 71.743 33.2502C71.583 33.4102 71.393 33.4902 71.173 33.4902H67.243C67.023 33.4902 66.833 33.4202 66.673 33.2802C66.513 33.1202 66.433 32.9202 66.433 32.6802V13.3002C66.433 13.0802 66.513 12.8902 66.673 12.7302C66.833 12.5702 67.023 12.4902 67.243 12.4902H71.173C71.393 12.4902 71.583 12.5702 71.743 12.7302C71.903 12.8902 71.983 13.0802 71.983 13.3002V20.5302H78.643V13.3002C78.643 13.0802 78.723 12.8902 78.883 12.7302C79.043 12.5702 79.233 12.4902 79.453 12.4902H83.383ZM89.2157 33.4902C88.9957 33.4902 88.8057 33.4102 88.6457 33.2502C88.4857 33.0902 88.4057 32.9002 88.4057 32.6802V13.3002C88.4057 13.0802 88.4857 12.8902 88.6457 12.7302C88.8057 12.5702 88.9957 12.4902 89.2157 12.4902H93.1457C93.3657 12.4902 93.5557 12.5702 93.7157 12.7302C93.8757 12.8902 93.9557 13.0802 93.9557 13.3002V32.6802C93.9557 32.9002 93.8757 33.0902 93.7157 33.2502C93.5557 33.4102 93.3657 33.4902 93.1457 33.4902H89.2157ZM106.772 16.9902C106.092 16.9902 105.522 17.0902 105.062 17.2902C104.602 17.4702 104.222 17.7202 103.922 18.0402C103.642 18.3602 103.432 18.7302 103.292 19.1502C103.152 19.5702 103.052 20.0102 102.992 20.4702C102.952 20.7302 102.922 21.0902 102.902 21.5502C102.902 22.0102 102.902 22.4902 102.902 22.9902C102.902 23.4702 102.912 23.9502 102.932 24.4302C102.952 24.8902 102.972 25.2502 102.992 25.5102C103.032 25.9702 103.122 26.4102 103.262 26.8302C103.422 27.2502 103.642 27.6202 103.922 27.9402C104.222 28.2602 104.602 28.5202 105.062 28.7202C105.542 28.9002 106.112 28.9902 106.772 28.9902C107.292 28.9902 107.782 28.9302 108.242 28.8102C108.702 28.6902 109.102 28.5002 109.442 28.2402C109.782 27.9802 110.052 27.6402 110.252 27.2202C110.452 26.8002 110.552 26.2902 110.552 25.6902H108.032C107.812 25.6902 107.622 25.6102 107.462 25.4502C107.302 25.2902 107.222 25.1002 107.222 24.8802V21.7002C107.222 21.4802 107.302 21.2902 107.462 21.1302C107.622 20.9702 107.812 20.8902 108.032 20.8902H115.292C115.512 20.8902 115.702 20.9702 115.862 21.1302C116.022 21.2902 116.102 21.4802 116.102 21.7002V25.5402C116.102 26.8202 115.862 27.9702 115.382 28.9902C114.902 30.0102 114.242 30.8802 113.402 31.6002C112.562 32.3002 111.572 32.8402 110.432 33.2202C109.312 33.6002 108.092 33.7902 106.772 33.7902C105.332 33.7902 104.042 33.5802 102.902 33.1602C101.782 32.7202 100.822 32.1302 100.022 31.3902C99.2215 30.6502 98.6015 29.7902 98.1615 28.8102C97.7415 27.8102 97.5015 26.7602 97.4415 25.6602C97.4015 24.8402 97.3815 23.9602 97.3815 23.0202C97.3815 22.0802 97.4015 21.1802 97.4415 20.3202C97.4815 19.2202 97.7215 18.1802 98.1615 17.2002C98.6015 16.2002 99.2115 15.3302 99.9915 14.5902C100.792 13.8502 101.762 13.2702 102.902 12.8502C104.042 12.4102 105.332 12.1902 106.772 12.1902C108.172 12.1902 109.432 12.4002 110.552 12.8202C111.672 13.2202 112.622 13.7402 113.402 14.3802C114.182 15.0002 114.792 15.6902 115.232 16.4502C115.672 17.1902 115.912 17.9002 115.952 18.5802C115.972 18.7602 115.912 18.9202 115.772 19.0602C115.632 19.1802 115.472 19.2402 115.292 19.2402H111.302C111.002 19.2402 110.762 19.1502 110.582 18.9702C110.422 18.7902 110.262 18.6102 110.102 18.4302C109.822 18.0702 109.442 17.7402 108.962 17.4402C108.482 17.1402 107.752 16.9902 106.772 16.9902ZM136.44 12.4902C136.66 12.4902 136.85 12.5702 137.01 12.7302C137.17 12.8902 137.25 13.0802 137.25 13.3002V32.6802C137.25 32.9002 137.17 33.0902 137.01 33.2502C136.85 33.4102 136.66 33.4902 136.44 33.4902H132.51C132.29 33.4902 132.1 33.4102 131.94 33.2502C131.78 33.0902 131.7 32.9002 131.7 32.6802V25.3302H125.04V32.6802C125.04 32.9002 124.96 33.0902 124.8 33.2502C124.64 33.4102 124.45 33.4902 124.23 33.4902H120.3C120.08 33.4902 119.89 33.4202 119.73 33.2802C119.57 33.1202 119.49 32.9202 119.49 32.6802V13.3002C119.49 13.0802 119.57 12.8902 119.73 12.7302C119.89 12.5702 120.08 12.4902 120.3 12.4902H124.23C124.45 12.4902 124.64 12.5702 124.8 12.7302C124.96 12.8902 125.04 13.0802 125.04 13.3002V20.5302H131.7V13.3002C131.7 13.0802 131.78 12.8902 131.94 12.7302C132.1 12.5702 132.29 12.4902 132.51 12.4902H136.44Z" fill="white"/>
</svg>
