<svg width="303" height="88" viewBox="0 0 303 88" fill="none" xmlns="http://www.w3.org/2000/svg">
<path d="M14.9333 0.958984H287.733C295.82 0.958984 302.167 6.12663 302.167 12.2714V76.1855C302.167 82.3303 295.82 87.498 287.733 87.498H14.9333C6.8464 87.498 0.5 82.3303 0.5 76.1855V12.2714C0.5 6.12663 6.84639 0.958984 14.9333 0.958984Z" fill="#1C5E8A" stroke="white"/>
<path d="M138.902 33.7324C138.682 33.7324 138.492 33.6524 138.332 33.4924C138.172 33.3324 138.092 33.1424 138.092 32.9224V13.5424C138.092 13.3224 138.172 13.1324 138.332 12.9724C138.492 12.8124 138.682 12.7324 138.902 12.7324H142.832C143.052 12.7324 143.242 12.8124 143.402 12.9724C143.562 13.1324 143.642 13.3224 143.642 13.5424V32.9224C143.642 33.1424 143.562 33.3324 143.402 33.4924C143.242 33.6524 143.052 33.7324 142.832 33.7324H138.902ZM163.268 12.7324C163.488 12.7324 163.678 12.8124 163.838 12.9724C163.998 13.1324 164.078 13.3224 164.078 13.5424V16.7224C164.078 16.9424 163.998 17.1324 163.838 17.2924C163.678 17.4524 163.488 17.5324 163.268 17.5324H157.988V32.9224C157.988 33.1424 157.908 33.3324 157.748 33.4924C157.588 33.6524 157.398 33.7324 157.178 33.7324H153.248C153.028 33.7324 152.838 33.6524 152.678 33.4924C152.518 33.3324 152.438 33.1424 152.438 32.9224V17.5324H147.158C146.938 17.5324 146.748 17.4524 146.588 17.2924C146.428 17.1324 146.348 16.9424 146.348 16.7224V13.5424C146.348 13.3224 146.428 13.1324 146.588 12.9724C146.748 12.8124 146.938 12.7324 147.158 12.7324H163.268ZM96.6082 64.9324C96.8282 64.9324 97.0182 65.0124 97.1782 65.1724C97.3382 65.3324 97.4182 65.5224 97.4182 65.7424V68.9224C97.4182 69.1424 97.3382 69.3324 97.1782 69.4924C97.0182 69.6524 96.8282 69.7324 96.6082 69.7324H82.3882C82.1682 69.7324 81.9782 69.6524 81.8182 69.4924C81.6582 69.3324 81.5782 69.1424 81.5782 68.9224V49.5424C81.5782 49.3224 81.6582 49.1324 81.8182 48.9724C81.9782 48.8124 82.1682 48.7324 82.3882 48.7324H96.3682C96.5882 48.7324 96.7782 48.8124 96.9382 48.9724C97.0982 49.1324 97.1782 49.3224 97.1782 49.5424V52.7224C97.1782 52.9424 97.0982 53.1324 96.9382 53.2924C96.7782 53.4524 96.5882 53.5324 96.3682 53.5324H87.1282V56.7724H95.7082C95.9282 56.7724 96.1182 56.8524 96.2782 57.0124C96.4382 57.1724 96.5182 57.3624 96.5182 57.5824V60.7624C96.5182 60.9824 96.4382 61.1724 96.2782 61.3324C96.1182 61.4924 95.9282 61.5724 95.7082 61.5724H87.1282V64.9324H96.6082ZM109.376 63.6424L105.536 69.0424C105.416 69.2224 105.276 69.3824 105.116 69.5224C104.976 69.6624 104.706 69.7324 104.306 69.7324H99.7455C99.5655 69.7324 99.4055 69.6724 99.2655 69.5524C99.1455 69.4124 99.0855 69.2524 99.0855 69.0724C99.0855 69.0324 99.0855 68.9924 99.0855 68.9524C99.1055 68.8924 99.1355 68.8224 99.1755 68.7424L106.106 59.0524L99.4755 49.7224C99.4155 49.6024 99.3855 49.4924 99.3855 49.3924C99.3855 49.2124 99.4455 49.0624 99.5655 48.9424C99.7055 48.8024 99.8655 48.7324 100.046 48.7324H104.576C104.976 48.7324 105.266 48.8324 105.446 49.0324C105.626 49.2324 105.756 49.3824 105.836 49.4824L109.466 54.5524L112.976 49.4824C113.056 49.3824 113.186 49.2324 113.366 49.0324C113.546 48.8324 113.836 48.7324 114.236 48.7324H118.826C119.006 48.7324 119.156 48.8024 119.276 48.9424C119.416 49.0624 119.486 49.2124 119.486 49.3924C119.486 49.4924 119.456 49.6024 119.396 49.7224L112.736 59.1724L119.606 68.7424C119.646 68.8224 119.666 68.8924 119.666 68.9524C119.686 68.9924 119.696 69.0324 119.696 69.0724C119.696 69.2524 119.626 69.4124 119.486 69.5524C119.366 69.6724 119.216 69.7324 119.036 69.7324H114.476C114.076 69.7324 113.796 69.6624 113.636 69.5224C113.496 69.3824 113.366 69.2224 113.246 69.0424L109.376 63.6424ZM131.574 48.7324C132.854 48.7324 134.004 48.8824 135.024 49.1824C136.044 49.4624 136.914 49.9024 137.634 50.5024C138.354 51.0824 138.904 51.8124 139.284 52.6924C139.684 53.5724 139.884 54.5924 139.884 55.7524C139.884 56.9324 139.684 57.9624 139.284 58.8424C138.904 59.7224 138.354 60.4524 137.634 61.0324C136.914 61.6124 136.044 62.0524 135.024 62.3524C134.004 62.6524 132.854 62.8024 131.574 62.8024H127.734V68.9224C127.734 69.1424 127.654 69.3324 127.494 69.4924C127.334 69.6524 127.144 69.7324 126.924 69.7324H122.994C122.774 69.7324 122.584 69.6524 122.424 69.4924C122.264 69.3324 122.184 69.1424 122.184 68.9224V49.5424C122.184 49.3224 122.264 49.1324 122.424 48.9724C122.584 48.8124 122.774 48.7324 122.994 48.7324H131.574ZM127.734 58.1224H131.424C132.264 58.1224 132.954 57.9424 133.494 57.5824C134.054 57.2024 134.334 56.5924 134.334 55.7524C134.334 54.9124 134.054 54.3124 133.494 53.9524C132.954 53.5724 132.264 53.3824 131.424 53.3824H127.734V58.1224ZM157.78 64.9324C158 64.9324 158.19 65.0124 158.35 65.1724C158.51 65.3324 158.59 65.5224 158.59 65.7424V68.9224C158.59 69.1424 158.51 69.3324 158.35 69.4924C158.19 69.6524 158 69.7324 157.78 69.7324H143.56C143.34 69.7324 143.15 69.6524 142.99 69.4924C142.83 69.3324 142.75 69.1424 142.75 68.9224V49.5424C142.75 49.3224 142.83 49.1324 142.99 48.9724C143.15 48.8124 143.34 48.7324 143.56 48.7324H157.54C157.76 48.7324 157.95 48.8124 158.11 48.9724C158.27 49.1324 158.35 49.3224 158.35 49.5424V52.7224C158.35 52.9424 158.27 53.1324 158.11 53.2924C157.95 53.4524 157.76 53.5324 157.54 53.5324H148.3V56.7724H156.88C157.1 56.7724 157.29 56.8524 157.45 57.0124C157.61 57.1724 157.69 57.3624 157.69 57.5824V60.7624C157.69 60.9824 157.61 61.1724 157.45 61.3324C157.29 61.4924 157.1 61.5724 156.88 61.5724H148.3V64.9324H157.78ZM175.677 69.7324C175.337 69.7324 175.057 69.6424 174.837 69.4624C174.637 69.2824 174.507 69.1424 174.447 69.0424L167.577 58.7824V68.9224C167.577 69.1424 167.497 69.3324 167.337 69.4924C167.177 69.6524 166.987 69.7324 166.767 69.7324H162.837C162.617 69.7324 162.427 69.6524 162.267 69.4924C162.107 69.3324 162.027 69.1424 162.027 68.9224V49.5424C162.027 49.3224 162.107 49.1324 162.267 48.9724C162.427 48.8124 162.617 48.7324 162.837 48.7324H165.957C166.297 48.7324 166.567 48.8224 166.767 49.0024C166.987 49.1824 167.127 49.3224 167.187 49.4224L174.057 59.6824V49.5424C174.057 49.3224 174.137 49.1324 174.297 48.9724C174.457 48.8124 174.647 48.7324 174.867 48.7324H178.797C179.017 48.7324 179.207 48.8124 179.367 48.9724C179.527 49.1324 179.607 49.3224 179.607 49.5424V68.9224C179.607 69.1424 179.527 69.3324 179.367 69.4924C179.207 69.6524 179.017 69.7324 178.797 69.7324H175.677ZM191.595 48.4324C192.875 48.4324 194.045 48.6224 195.105 49.0024C196.185 49.3624 197.115 49.8324 197.895 50.4124C198.675 50.9924 199.285 51.6324 199.725 52.3324C200.165 53.0324 200.395 53.7024 200.415 54.3424C200.415 54.5224 200.345 54.6824 200.205 54.8224C200.085 54.9424 199.945 55.0024 199.785 55.0024H195.855C195.575 55.0024 195.345 54.9624 195.165 54.8824C195.005 54.8024 194.835 54.6824 194.655 54.5224C194.595 54.4624 194.495 54.3624 194.355 54.2224C194.235 54.0824 194.055 53.9424 193.815 53.8024C193.575 53.6424 193.275 53.5124 192.915 53.4124C192.555 53.2924 192.115 53.2324 191.595 53.2324C191.215 53.2324 190.845 53.2624 190.485 53.3224C190.145 53.3624 189.835 53.4424 189.555 53.5624C189.295 53.6624 189.075 53.8124 188.895 54.0124C188.735 54.2124 188.655 54.4624 188.655 54.7624C188.655 55.0624 188.745 55.3124 188.925 55.5124C189.125 55.7124 189.445 55.9024 189.885 56.0824C190.345 56.2424 190.945 56.4024 191.685 56.5624C192.425 56.7224 193.345 56.9124 194.445 57.1324C195.545 57.3524 196.505 57.6324 197.325 57.9724C198.145 58.3124 198.825 58.7424 199.365 59.2624C199.925 59.7624 200.335 60.3624 200.595 61.0624C200.875 61.7424 201.015 62.5524 201.015 63.4924C201.015 64.5124 200.785 65.4224 200.325 66.2224C199.865 67.0224 199.215 67.7124 198.375 68.2924C197.555 68.8524 196.575 69.2824 195.435 69.5824C194.315 69.8824 193.085 70.0324 191.745 70.0324C190.385 70.0324 189.145 69.8524 188.025 69.4924C186.905 69.1324 185.935 68.6624 185.115 68.0824C184.315 67.4824 183.685 66.8124 183.225 66.0724C182.765 65.3324 182.525 64.5824 182.505 63.8224C182.505 63.6424 182.565 63.4924 182.685 63.3724C182.825 63.2324 182.975 63.1624 183.135 63.1624H187.065C187.345 63.1624 187.565 63.2024 187.725 63.2824C187.885 63.3424 188.045 63.4424 188.205 63.5824C188.285 63.6624 188.405 63.7924 188.565 63.9724C188.725 64.1524 188.935 64.3424 189.195 64.5424C189.475 64.7224 189.815 64.8824 190.215 65.0224C190.635 65.1624 191.145 65.2324 191.745 65.2324C192.805 65.2324 193.685 65.1224 194.385 64.9024C195.105 64.6624 195.465 64.2424 195.465 63.6424C195.465 63.3424 195.335 63.0924 195.075 62.8924C194.815 62.6924 194.425 62.5124 193.905 62.3524C193.385 62.1724 192.715 62.0024 191.895 61.8424C191.095 61.6824 190.145 61.4824 189.045 61.2424C186.985 60.8024 185.475 60.0724 184.515 59.0524C183.575 58.0124 183.105 56.6324 183.105 54.9124C183.105 54.0524 183.295 53.2324 183.675 52.4524C184.075 51.6724 184.645 50.9824 185.385 50.3824C186.125 49.7824 187.015 49.3124 188.055 48.9724C189.115 48.6124 190.295 48.4324 191.595 48.4324ZM219.04 64.9324C219.26 64.9324 219.45 65.0124 219.61 65.1724C219.77 65.3324 219.85 65.5224 219.85 65.7424V68.9224C219.85 69.1424 219.77 69.3324 219.61 69.4924C219.45 69.6524 219.26 69.7324 219.04 69.7324H204.82C204.6 69.7324 204.41 69.6524 204.25 69.4924C204.09 69.3324 204.01 69.1424 204.01 68.9224V49.5424C204.01 49.3224 204.09 49.1324 204.25 48.9724C204.41 48.8124 204.6 48.7324 204.82 48.7324H218.8C219.02 48.7324 219.21 48.8124 219.37 48.9724C219.53 49.1324 219.61 49.3224 219.61 49.5424V52.7224C219.61 52.9424 219.53 53.1324 219.37 53.2924C219.21 53.4524 219.02 53.5324 218.8 53.5324H209.56V56.7724H218.14C218.36 56.7724 218.55 56.8524 218.71 57.0124C218.87 57.1724 218.95 57.3624 218.95 57.5824V60.7624C218.95 60.9824 218.87 61.1724 218.71 61.3324C218.55 61.4924 218.36 61.5724 218.14 61.5724H209.56V64.9324H219.04Z" fill="white"/>
</svg>
