<svg width="206" height="48" viewBox="0 0 206 48" fill="none" xmlns="http://www.w3.org/2000/svg">
<path d="M175.64 0H30.3597C13.7764 0 0.333008 10.6316 0.333008 23.7463C0.333008 36.861 13.7764 47.4926 30.3597 47.4926H175.64C192.223 47.4926 205.666 36.861 205.666 23.7463C205.666 10.6316 192.223 0 175.64 0Z" fill="#1C5E8A"/>
<path d="M87.133 28.6902C87.353 28.6902 87.543 28.7702 87.703 28.9302C87.863 29.0902 87.943 29.2802 87.943 29.5002V32.6802C87.943 32.9002 87.863 33.0902 87.703 33.2502C87.543 33.4102 87.353 33.4902 87.133 33.4902H73.243C73.023 33.4902 72.833 33.4102 72.673 33.2502C72.513 33.0902 72.433 32.9002 72.433 32.6802V13.3002C72.433 13.0802 72.513 12.8902 72.673 12.7302C72.833 12.5702 73.023 12.4902 73.243 12.4902H77.173C77.393 12.4902 77.583 12.5702 77.743 12.7302C77.903 12.8902 77.983 13.0802 77.983 13.3002V28.6902H87.133ZM89.5262 20.3202C89.5862 19.2002 89.8262 18.1502 90.2462 17.1702C90.6862 16.1702 91.2962 15.3102 92.0762 14.5902C92.8762 13.8502 93.8362 13.2702 94.9562 12.8502C96.0962 12.4102 97.4062 12.1902 98.8862 12.1902C100.346 12.1902 101.646 12.4102 102.786 12.8502C103.926 13.2702 104.886 13.8502 105.666 14.5902C106.466 15.3102 107.076 16.1702 107.496 17.1702C107.936 18.1502 108.186 19.2002 108.246 20.3202C108.286 21.1802 108.306 22.0802 108.306 23.0202C108.306 23.9602 108.286 24.8402 108.246 25.6602C108.186 26.7802 107.936 27.8402 107.496 28.8402C107.076 29.8202 106.466 30.6802 105.666 31.4202C104.886 32.1602 103.926 32.7402 102.786 33.1602C101.646 33.5802 100.346 33.7902 98.8862 33.7902C97.4062 33.7902 96.0962 33.5802 94.9562 33.1602C93.8362 32.7402 92.8762 32.1602 92.0762 31.4202C91.2962 30.6802 90.6862 29.8202 90.2462 28.8402C89.8262 27.8402 89.5862 26.7802 89.5262 25.6602C89.4862 24.8402 89.4662 23.9602 89.4662 23.0202C89.4662 22.0802 89.4862 21.1802 89.5262 20.3202ZM102.696 25.5102C102.716 25.1502 102.736 24.7502 102.756 24.3102C102.776 23.8702 102.786 23.4202 102.786 22.9602C102.786 22.5002 102.776 22.0602 102.756 21.6402C102.736 21.2002 102.716 20.8102 102.696 20.4702C102.656 19.9702 102.546 19.5102 102.366 19.0902C102.206 18.6702 101.966 18.3102 101.646 18.0102C101.346 17.6902 100.966 17.4402 100.506 17.2602C100.046 17.0802 99.5062 16.9902 98.8862 16.9902C98.2662 16.9902 97.7262 17.0802 97.2662 17.2602C96.8062 17.4402 96.4162 17.6902 96.0962 18.0102C95.7962 18.3102 95.5562 18.6702 95.3762 19.0902C95.2162 19.5102 95.1162 19.9702 95.0762 20.4702C95.0362 20.8102 95.0062 21.2002 94.9862 21.6402C94.9862 22.0602 94.9862 22.5002 94.9862 22.9602C94.9862 23.4202 94.9862 23.8702 94.9862 24.3102C95.0062 24.7502 95.0362 25.1502 95.0762 25.5102C95.1562 26.5102 95.4962 27.3402 96.0962 28.0002C96.7162 28.6602 97.6462 28.9902 98.8862 28.9902C100.126 28.9902 101.046 28.6602 101.646 28.0002C102.246 27.3402 102.596 26.5102 102.696 25.5102ZM126.036 23.4402L127.956 13.3002C128.016 13.0002 128.136 12.7902 128.316 12.6702C128.496 12.5502 128.686 12.4902 128.886 12.4902H132.816C132.996 12.4902 133.146 12.5602 133.266 12.7002C133.406 12.8202 133.476 12.9702 133.476 13.1502C133.476 13.2102 133.466 13.2902 133.446 13.3902L129.576 32.3502C129.536 32.6302 129.376 32.8902 129.096 33.1302C128.816 33.3702 128.476 33.4902 128.076 33.4902H125.586C125.186 33.4902 124.856 33.3702 124.596 33.1302C124.356 32.8902 124.186 32.6302 124.086 32.3502L121.836 25.5702L119.586 32.3502C119.486 32.6302 119.306 32.8902 119.046 33.1302C118.806 33.3702 118.486 33.4902 118.086 33.4902H115.596C115.196 33.4902 114.856 33.3702 114.576 33.1302C114.296 32.8902 114.136 32.6302 114.096 32.3502L110.226 13.3902C110.206 13.2902 110.196 13.2102 110.196 13.1502C110.196 12.9702 110.256 12.8202 110.376 12.7002C110.516 12.5602 110.676 12.4902 110.856 12.4902H114.786C114.986 12.4902 115.176 12.5502 115.356 12.6702C115.536 12.7902 115.656 13.0002 115.716 13.3002L117.636 23.4402L119.406 18.0102C119.446 17.8702 119.536 17.6902 119.676 17.4702C119.816 17.2502 120.066 17.1402 120.426 17.1402H123.246C123.606 17.1402 123.856 17.2502 123.996 17.4702C124.136 17.6902 124.226 17.8702 124.266 18.0102L126.036 23.4402Z" fill="white"/>
</svg>
