<svg width="222" height="70" viewBox="0 0 222 70" fill="none" xmlns="http://www.w3.org/2000/svg">
<g clip-path="url(#clip0_549_13204)">
<path d="M185.339 5.62939H36.661C19.6702 5.62939 5.89648 18.7789 5.89648 34.9997C5.89648 51.2205 19.6702 64.3701 36.661 64.3701H185.339C202.33 64.3701 216.104 51.2205 216.104 34.9997C216.104 18.7789 202.33 5.62939 185.339 5.62939Z" fill="white"/>
<path d="M185.344 60.0166H36.661C28.8985 60.0127 21.4248 57.2055 15.7403 52.1584C10.0559 47.1114 6.58137 40.1982 6.01441 32.8066C5.95544 33.5291 5.89648 34.2516 5.89648 34.9881C5.89648 38.8452 6.69228 42.6645 8.2384 46.2279C9.78452 49.7913 12.0507 53.029 14.9075 55.7561C17.7643 58.4832 21.1558 60.6464 24.8883 62.122C28.6208 63.5976 32.6212 64.3567 36.661 64.3561H185.344C189.384 64.3567 193.384 63.5976 197.117 62.122C200.849 60.6464 204.241 58.4832 207.098 55.7561C209.954 53.029 212.221 49.7913 213.767 46.2279C215.313 42.6645 216.109 38.8452 216.109 34.9881C216.109 34.2516 216.045 33.5291 215.991 32.8066C215.424 40.1982 211.949 47.1114 206.265 52.1584C200.58 57.2055 193.107 60.0127 185.344 60.0166Z" fill="#999999"/>
<path d="M185.344 5.62955C193.503 5.62955 201.328 8.72417 207.097 14.2326C212.867 19.7411 216.108 27.2121 216.108 35.0022C216.108 38.8593 215.312 42.6786 213.766 46.242C212.22 49.8054 209.954 53.0431 207.097 55.7702C204.24 58.4973 200.849 60.6605 197.116 62.1361C193.384 63.6117 189.383 64.3709 185.344 64.3703H36.6606C32.6208 64.3709 28.6204 63.6117 24.8879 62.1361C21.1554 60.6605 17.7639 58.4973 14.907 55.7702C12.0502 53.0431 9.78408 49.8054 8.23795 46.242C6.69183 42.6786 5.89604 38.8593 5.89604 35.0022C5.89604 27.2121 9.13728 19.7411 14.9067 14.2326C20.6762 8.72417 28.5013 5.62955 36.6606 5.62955H185.344ZM185.344 -9.55462e-05H36.6606C31.8108 -0.0537046 26.9981 0.812005 22.5012 2.54687C18.0044 4.28174 13.9128 6.85127 10.4634 10.1066C7.01411 13.362 4.27563 17.2385 2.40662 21.5115C0.537604 25.7846 -0.424805 30.3692 -0.424805 34.9999C-0.424805 39.6306 0.537604 44.2152 2.40662 48.4882C4.27563 52.7613 7.01411 56.6378 10.4634 59.8932C13.9128 63.1485 18.0044 65.7181 22.5012 67.4529C26.9981 69.1878 31.8108 70.0535 36.6606 69.9999H185.344C190.193 70.0535 195.006 69.1878 199.503 67.4529C204 65.7181 208.091 63.1485 211.541 59.8932C214.99 56.6378 217.729 52.7613 219.598 48.4882C221.467 44.2152 222.429 39.6306 222.429 34.9999C222.429 30.3692 221.467 25.7846 219.598 21.5115C217.729 17.2385 214.99 13.362 211.541 10.1066C208.091 6.85127 204 4.28174 199.503 2.54687C195.006 0.812005 190.193 -0.0537046 185.344 -9.55462e-05Z" fill="#6890FF"/>
<path d="M60.676 42C60.52 42 60.3813 41.948 60.26 41.844C60.156 41.7227 60.104 41.584 60.104 41.428C60.104 41.3587 60.1213 41.298 60.156 41.246L66.084 24.606C66.136 24.4153 66.2487 24.2333 66.422 24.06C66.6127 23.8867 66.864 23.8 67.176 23.8H71.934C72.2633 23.8 72.5147 23.8867 72.688 24.06C72.8613 24.2333 72.974 24.4153 73.026 24.606L78.98 41.246C78.9973 41.298 79.006 41.3587 79.006 41.428C79.006 41.584 78.9453 41.7227 78.824 41.844C78.72 41.948 78.59 42 78.434 42H74.43C74.1353 42 73.9187 41.9307 73.78 41.792C73.6413 41.6533 73.546 41.5233 73.494 41.402L72.688 39.218H66.422L65.616 41.402C65.564 41.5233 65.4687 41.6533 65.33 41.792C65.2087 41.9307 64.992 42 64.68 42H60.676ZM67.618 34.824H71.492L69.542 28.974L67.618 34.824ZM82.5771 42C82.4038 42 82.2478 41.9393 82.1091 41.818C81.9705 41.6793 81.9011 41.5147 81.9011 41.324V24.476C81.9011 24.2853 81.9705 24.1293 82.1091 24.008C82.2478 23.8693 82.4038 23.8 82.5771 23.8H89.7011C91.3825 23.8 92.8385 24.0773 94.0691 24.632C95.2998 25.1693 96.2705 25.9667 96.9811 27.024C97.6918 28.0813 98.0731 29.3813 98.1251 30.924C98.1598 31.6693 98.1771 32.328 98.1771 32.9C98.1771 33.472 98.1598 34.122 98.1251 34.85C98.0558 36.4793 97.6831 37.8227 97.0071 38.88C96.3485 39.9373 95.4125 40.726 94.1991 41.246C92.9858 41.7487 91.5298 42 89.8311 42H82.5771ZM87.4911 37.58H89.7011C90.2731 37.58 90.7585 37.4847 91.1571 37.294C91.5558 37.1033 91.8678 36.8087 92.0931 36.41C92.3185 35.994 92.4398 35.4653 92.4571 34.824C92.4745 34.3213 92.4831 33.8707 92.4831 33.472C92.5005 33.0733 92.5005 32.6747 92.4831 32.276C92.4831 31.8773 92.4745 31.4353 92.4571 30.95C92.4225 29.9967 92.1451 29.3033 91.6251 28.87C91.1225 28.4367 90.4378 28.22 89.5711 28.22H87.4911V37.58ZM102.663 42C102.49 42 102.334 41.9393 102.195 41.818C102.056 41.6793 101.987 41.5147 101.987 41.324V24.476C101.987 24.2853 102.056 24.1293 102.195 24.008C102.334 23.8693 102.49 23.8 102.663 23.8H109.787C111.468 23.8 112.924 24.0773 114.155 24.632C115.386 25.1693 116.356 25.9667 117.067 27.024C117.778 28.0813 118.159 29.3813 118.211 30.924C118.246 31.6693 118.263 32.328 118.263 32.9C118.263 33.472 118.246 34.122 118.211 34.85C118.142 36.4793 117.769 37.8227 117.093 38.88C116.434 39.9373 115.498 40.726 114.285 41.246C113.072 41.7487 111.616 42 109.917 42H102.663ZM107.577 37.58H109.787C110.359 37.58 110.844 37.4847 111.243 37.294C111.642 37.1033 111.954 36.8087 112.179 36.41C112.404 35.994 112.526 35.4653 112.543 34.824C112.56 34.3213 112.569 33.8707 112.569 33.472C112.586 33.0733 112.586 32.6747 112.569 32.276C112.569 31.8773 112.56 31.4353 112.543 30.95C112.508 29.9967 112.231 29.3033 111.711 28.87C111.208 28.4367 110.524 28.22 109.657 28.22H107.577V37.58ZM136.405 42.26C134.793 42.26 133.372 42.0087 132.141 41.506C130.928 41.0033 129.974 40.2233 129.281 39.166C128.605 38.0913 128.267 36.7393 128.267 35.11V24.476C128.267 24.2853 128.336 24.1293 128.475 24.008C128.614 23.8693 128.77 23.8 128.943 23.8H133.181C133.372 23.8 133.528 23.8693 133.649 24.008C133.788 24.1293 133.857 24.2853 133.857 24.476V35.032C133.857 35.916 134.074 36.5833 134.507 37.034C134.94 37.4847 135.564 37.71 136.379 37.71C137.194 37.71 137.809 37.4847 138.225 37.034C138.658 36.5833 138.875 35.916 138.875 35.032V24.476C138.875 24.2853 138.944 24.1293 139.083 24.008C139.222 23.8693 139.386 23.8 139.577 23.8H143.789C143.98 23.8 144.136 23.8693 144.257 24.008C144.396 24.1293 144.465 24.2853 144.465 24.476V35.11C144.465 36.7393 144.127 38.0913 143.451 39.166C142.775 40.2233 141.83 41.0033 140.617 41.506C139.404 42.0087 138 42.26 136.405 42.26ZM155.939 42.26C154.119 42.26 152.603 42.0087 151.389 41.506C150.193 40.986 149.292 40.3187 148.685 39.504C148.096 38.672 147.784 37.7967 147.749 36.878C147.749 36.722 147.801 36.592 147.905 36.488C148.009 36.384 148.139 36.332 148.295 36.332H152.429C152.672 36.332 152.863 36.3753 153.001 36.462C153.14 36.5313 153.287 36.6353 153.443 36.774C153.599 36.9647 153.781 37.1467 153.989 37.32C154.197 37.476 154.466 37.606 154.795 37.71C155.125 37.7967 155.506 37.84 155.939 37.84C156.737 37.84 157.352 37.736 157.785 37.528C158.219 37.3027 158.435 36.9993 158.435 36.618C158.435 36.3233 158.314 36.0807 158.071 35.89C157.846 35.6993 157.456 35.526 156.901 35.37C156.347 35.214 155.593 35.0493 154.639 34.876C153.305 34.6507 152.152 34.3213 151.181 33.888C150.211 33.4373 149.465 32.8393 148.945 32.094C148.443 31.3313 148.191 30.3953 148.191 29.286C148.191 28.1593 148.503 27.1627 149.127 26.296C149.769 25.4293 150.653 24.7533 151.779 24.268C152.923 23.7827 154.249 23.54 155.757 23.54C157.005 23.54 158.106 23.7047 159.059 24.034C160.03 24.3633 160.845 24.7967 161.503 25.334C162.162 25.854 162.665 26.4173 163.011 27.024C163.358 27.6307 163.54 28.2113 163.557 28.766C163.557 28.922 163.497 29.0607 163.375 29.182C163.271 29.286 163.15 29.338 163.011 29.338H158.669C158.461 29.338 158.279 29.3033 158.123 29.234C157.985 29.1647 157.855 29.052 157.733 28.896C157.647 28.6533 157.43 28.4367 157.083 28.246C156.737 28.0553 156.295 27.96 155.757 27.96C155.168 27.96 154.717 28.064 154.405 28.272C154.093 28.4627 153.937 28.7487 153.937 29.13C153.937 29.39 154.033 29.6153 154.223 29.806C154.414 29.9967 154.752 30.17 155.237 30.326C155.723 30.4647 156.399 30.6207 157.265 30.794C158.912 31.0367 160.238 31.3833 161.243 31.834C162.266 32.2847 163.011 32.874 163.479 33.602C163.947 34.33 164.181 35.24 164.181 36.332C164.181 37.5627 163.826 38.62 163.115 39.504C162.405 40.388 161.425 41.0727 160.177 41.558C158.947 42.026 157.534 42.26 155.939 42.26ZM168.255 42C168.082 42 167.926 41.9393 167.787 41.818C167.649 41.6793 167.579 41.5147 167.579 41.324V24.476C167.579 24.2853 167.649 24.1293 167.787 24.008C167.926 23.8693 168.082 23.8 168.255 23.8H180.995C181.186 23.8 181.351 23.8693 181.489 24.008C181.628 24.1293 181.697 24.2853 181.697 24.476V27.544C181.697 27.7173 181.628 27.8733 181.489 28.012C181.351 28.1507 181.186 28.22 180.995 28.22H172.961V30.794H180.423C180.614 30.794 180.779 30.8633 180.917 31.002C181.056 31.1233 181.125 31.2793 181.125 31.47V34.278C181.125 34.4687 181.056 34.6333 180.917 34.772C180.779 34.8933 180.614 34.954 180.423 34.954H172.961V37.58H181.203C181.394 37.58 181.559 37.6493 181.697 37.788C181.836 37.9267 181.905 38.0913 181.905 38.282V41.324C181.905 41.5147 181.836 41.6793 181.697 41.818C181.559 41.9393 181.394 42 181.203 42H168.255ZM186.412 42C186.238 42 186.082 41.9393 185.944 41.818C185.805 41.6793 185.736 41.5147 185.736 41.324V24.476C185.736 24.2853 185.805 24.1293 185.944 24.008C186.082 23.8693 186.238 23.8 186.412 23.8H193.822C196.179 23.8 198.025 24.3373 199.36 25.412C200.712 26.4867 201.388 27.986 201.388 29.91C201.388 31.1233 201.11 32.1547 200.556 33.004C200.001 33.8533 199.273 34.5207 198.372 35.006L201.752 41.142C201.804 41.246 201.83 41.3413 201.83 41.428C201.83 41.584 201.778 41.7227 201.674 41.844C201.57 41.948 201.44 42 201.284 42H196.89C196.56 42 196.309 41.922 196.136 41.766C195.962 41.5927 195.85 41.4367 195.798 41.298L193.198 35.942H191.326V41.324C191.326 41.5147 191.256 41.6793 191.118 41.818C190.996 41.9393 190.84 42 190.65 42H186.412ZM191.326 31.652H193.796C194.402 31.652 194.853 31.4873 195.148 31.158C195.442 30.8113 195.59 30.3867 195.59 29.884C195.59 29.364 195.442 28.922 195.148 28.558C194.87 28.194 194.42 28.012 193.796 28.012H191.326V31.652Z" fill="#032064"/>
<path d="M42.3466 36.997L42.1257 36.9126C42.1257 36.9126 38.4122 35.0941 40.27 33.2733C41.0211 32.5373 41.4585 31.2037 41.7258 29.7596C42.1676 29.7488 42.7332 28.833 43.0513 27.5947C43.3826 26.2957 43.2943 25.1526 42.8524 25.0444H42.7199C42.499 27.2245 41.7302 29.6406 41.6463 27.7398C41.5204 24.9253 40.4423 22.8405 39.572 22.5655C38.7016 22.2906 37.9704 23.1501 36.6604 23.1501C35.3504 23.1501 34.6237 22.2841 33.7511 22.5655C32.8785 22.847 31.8027 24.9232 31.6812 27.7398C31.5928 29.6406 30.7092 27.2267 30.4331 25.0466H30.2718C29.83 25.1548 29.7394 26.2957 30.0708 27.5969C30.3845 28.8244 30.9544 29.7402 31.3962 29.7618C31.6635 31.2058 32.1031 32.5394 32.8542 33.2755C34.712 35.0962 30.9964 36.9148 30.9964 36.9148L30.7755 36.9992C32.4023 38.3172 34.447 39.0383 36.5577 39.0383C38.6684 39.0383 40.7131 38.3172 42.3399 36.9992" fill="#032063"/>
<path d="M40.6108 17C40.6108 17 33.8801 17.1663 32.446 19.2964C31.6047 20.5416 31.1983 20.9532 30.1586 22.2645C29.824 22.6909 29.8168 23.6739 29.9578 24.7101C29.9578 24.7101 29.9578 24.7229 29.9578 24.7272C29.9565 24.7335 29.9565 24.74 29.9578 24.7464C29.9578 24.772 29.9578 24.7976 29.9578 24.821V24.8359V24.885V24.902C30.1443 26.0854 30.5124 27.2965 30.8159 27.7955L30.8326 27.8211C30.8728 27.8972 30.9357 27.9621 31.0143 28.0087H31.0549C31.1649 28.0087 31.2438 27.8104 31.2677 27.3477C31.3991 24.5758 32.5679 22.5225 33.5072 22.2517C33.6414 22.2209 33.7804 22.2108 33.9183 22.2218C34.2621 22.2351 34.5997 22.3075 34.9127 22.435C35.4678 22.675 36.0722 22.8107 36.6885 22.8338C37.2989 22.8123 37.8978 22.6787 38.4477 22.4415C38.7623 22.306 39.1031 22.2257 39.4516 22.2048C39.5822 22.204 39.7122 22.222 39.8364 22.2581C40.7781 22.5289 41.9445 24.5801 42.0808 27.3541V27.3797C42.1071 27.8317 42.1764 28.0194 42.272 28.0194H42.2839C42.3262 28.0048 42.3617 27.9777 42.3843 27.9426V27.9298C42.6663 27.546 43.0416 26.1707 43.197 24.8445C43.197 24.8445 43.197 24.8317 43.197 24.8253V24.8146C43.197 24.8146 43.197 24.8146 43.197 24.8018V24.7592C43.197 24.7592 43.197 24.7442 43.197 24.7357C43.197 24.7272 43.197 24.7187 43.197 24.7123C43.3045 23.6781 43.2711 22.6973 42.9388 22.2709C41.8991 20.9595 41.8107 19.8039 40.2356 19.3028C38.6604 18.8017 40.6108 17 40.6108 17Z" fill="#032063"/>
<path d="M43.2887 37.4644L42.8557 37.8119C41.0834 39.2859 38.8586 40.0919 36.5624 40.0919C34.2661 40.0919 32.0413 39.2859 30.2691 37.8119L29.836 37.4644C28.0714 38.2228 24.9404 39.6502 23.821 40.6098C22.2274 41.9868 22 46.1224 22 46.1224H51.1226C51.1226 46.1224 50.9061 41.9868 49.3038 40.6098C48.1822 39.6392 45.0534 38.2228 43.2865 37.4644" fill="#032063"/>
</g>
<defs>
<clipPath id="clip0_549_13204">
<rect width="222" height="70" fill="white"/>
</clipPath>
</defs>
</svg>
