<svg width="326" height="799" viewBox="0 0 326 799" fill="none" xmlns="http://www.w3.org/2000/svg">
<path d="M324 770.612L324 28.388C324 13.8143 313.17 2 299.81 2L26.1898 2C12.8301 2 2 13.8143 2 28.388L2 770.612C2 785.186 12.8301 797 26.1898 797H299.81C313.17 797 324 785.186 324 770.612Z" fill="#E4E4E4" stroke="#1C5E8A" stroke-width="2.5" stroke-linecap="round" stroke-linejoin="round"/>
<path d="M242.687 19H79.1392C66.9121 19 57 27.7848 57 38.6215C57 49.4581 66.9121 58.243 79.1392 58.243H242.687C254.914 58.243 264.826 49.4581 264.826 38.6215C264.826 27.7848 254.914 19 242.687 19Z" fill="#1C5E8A"/>
<path d="M119.006 35.716C118.989 35.9413 118.971 36.2533 118.954 36.652C118.954 37.0507 118.954 37.4667 118.954 37.9C118.954 38.316 118.954 38.732 118.954 39.148C118.971 39.5467 118.989 39.8587 119.006 40.084C119.041 40.4827 119.119 40.864 119.24 41.228C119.361 41.592 119.552 41.9127 119.812 42.19C120.072 42.4673 120.401 42.6927 120.8 42.866C121.199 43.022 121.693 43.1 122.282 43.1C122.871 43.1 123.357 43.0307 123.738 42.892C124.119 42.7533 124.431 42.5887 124.674 42.398C124.917 42.19 125.099 41.9647 125.22 41.722C125.359 41.4793 125.463 41.254 125.532 41.046C125.619 40.7687 125.714 40.578 125.818 40.474C125.922 40.3527 126.121 40.292 126.416 40.292H129.822C129.978 40.292 130.108 40.3527 130.212 40.474C130.333 40.578 130.394 40.708 130.394 40.864C130.377 41.748 130.16 42.58 129.744 43.36C129.328 44.14 128.756 44.816 128.028 45.388C127.3 45.96 126.442 46.4193 125.454 46.766C124.483 47.0953 123.426 47.26 122.282 47.26C121.034 47.26 119.916 47.078 118.928 46.714C117.957 46.3327 117.125 45.8213 116.432 45.18C115.739 44.5387 115.201 43.7933 114.82 42.944C114.456 42.0773 114.248 41.1673 114.196 40.214C114.161 39.5033 114.144 38.7407 114.144 37.926C114.144 37.1113 114.161 36.3313 114.196 35.586C114.231 34.6327 114.439 33.7313 114.82 32.882C115.201 32.0153 115.73 31.2613 116.406 30.62C117.099 29.9787 117.94 29.476 118.928 29.112C119.916 28.7307 121.034 28.54 122.282 28.54C123.426 28.54 124.483 28.7133 125.454 29.06C126.442 29.3893 127.3 29.84 128.028 30.412C128.756 30.984 129.328 31.66 129.744 32.44C130.16 33.22 130.377 34.052 130.394 34.936C130.394 35.092 130.333 35.2307 130.212 35.352C130.108 35.456 129.978 35.508 129.822 35.508H126.416C126.121 35.508 125.922 35.456 125.818 35.352C125.714 35.2307 125.619 35.0313 125.532 34.754C125.463 34.546 125.359 34.3207 125.22 34.078C125.099 33.8353 124.917 33.6187 124.674 33.428C124.431 33.22 124.119 33.0467 123.738 32.908C123.357 32.7693 122.871 32.7 122.282 32.7C121.693 32.7 121.199 32.7867 120.8 32.96C120.401 33.116 120.072 33.3327 119.812 33.61C119.552 33.8873 119.361 34.208 119.24 34.572C119.119 34.936 119.041 35.3173 119.006 35.716ZM142.391 28.8C142.738 28.8 142.998 28.8953 143.171 29.086C143.362 29.2767 143.492 29.4673 143.561 29.658L149.229 46.038C149.299 46.2113 149.333 46.3413 149.333 46.428C149.333 46.584 149.273 46.7227 149.151 46.844C149.047 46.948 148.917 47 148.761 47H145.485C145.139 47 144.887 46.9307 144.731 46.792C144.593 46.636 144.506 46.4887 144.471 46.35L143.743 44.192H136.827L136.099 46.35C136.065 46.4887 135.969 46.636 135.813 46.792C135.675 46.9307 135.432 47 135.085 47H131.809C131.653 47 131.515 46.948 131.393 46.844C131.289 46.7227 131.237 46.584 131.237 46.428C131.237 46.3413 131.272 46.2113 131.341 46.038L137.009 29.658C137.079 29.4673 137.2 29.2767 137.373 29.086C137.564 28.8953 137.833 28.8 138.179 28.8H142.391ZM138.179 40.162H142.391L140.285 33.922L138.179 40.162ZM159.181 28.8C160.325 28.8 161.348 28.9213 162.249 29.164C163.151 29.4067 163.913 29.7707 164.537 30.256C165.179 30.7413 165.664 31.3653 165.993 32.128C166.34 32.8733 166.513 33.7487 166.513 34.754C166.513 36.054 166.245 37.1373 165.707 38.004C165.17 38.8533 164.407 39.5033 163.419 39.954L166.643 46.142C166.695 46.246 166.721 46.3413 166.721 46.428C166.721 46.584 166.661 46.7227 166.539 46.844C166.435 46.948 166.305 47 166.149 47H162.613C162.267 47 162.015 46.922 161.859 46.766C161.721 46.61 161.608 46.454 161.521 46.298L158.635 40.734H156.243V46.298C156.243 46.4887 156.174 46.6533 156.035 46.792C155.897 46.9307 155.732 47 155.541 47H152.135C151.945 47 151.78 46.9307 151.641 46.792C151.503 46.6533 151.433 46.4887 151.433 46.298V29.502C151.433 29.3113 151.503 29.1467 151.641 29.008C151.78 28.8693 151.945 28.8 152.135 28.8H159.181ZM156.243 36.678H159.181C159.909 36.678 160.507 36.5393 160.975 36.262C161.461 35.9847 161.703 35.482 161.703 34.754C161.703 34.026 161.461 33.5233 160.975 33.246C160.507 32.9687 159.909 32.83 159.181 32.83H156.243V36.678ZM177.103 28.8C178.299 28.8 179.391 28.982 180.379 29.346C181.367 29.6927 182.217 30.1867 182.927 30.828C183.655 31.4693 184.219 32.2407 184.617 33.142C185.033 34.026 185.267 34.9967 185.319 36.054C185.337 36.418 185.345 36.756 185.345 37.068C185.345 37.3627 185.345 37.6487 185.345 37.926C185.345 38.2033 185.345 38.4893 185.345 38.784C185.345 39.0787 185.337 39.3993 185.319 39.746C185.267 40.8207 185.042 41.8 184.643 42.684C184.245 43.568 183.69 44.3307 182.979 44.972C182.286 45.6133 181.454 46.116 180.483 46.48C179.513 46.8267 178.429 47 177.233 47H170.213C170.023 47 169.858 46.9307 169.719 46.792C169.581 46.6533 169.511 46.4887 169.511 46.298V29.502C169.511 29.3113 169.581 29.1467 169.719 29.008C169.858 28.8693 170.023 28.8 170.213 28.8H177.103ZM180.509 35.95C180.405 33.9567 179.227 32.96 176.973 32.96H174.321V42.84H177.103C179.287 42.84 180.423 41.8433 180.509 39.85C180.527 39.486 180.535 39.148 180.535 38.836C180.535 38.5067 180.535 38.1947 180.535 37.9C180.535 37.588 180.535 37.276 180.535 36.964C180.535 36.652 180.527 36.314 180.509 35.95ZM195.06 28.54C196.17 28.54 197.184 28.7047 198.102 29.034C199.038 29.346 199.844 29.7533 200.52 30.256C201.196 30.7587 201.725 31.3133 202.106 31.92C202.488 32.5267 202.687 33.1073 202.704 33.662C202.704 33.818 202.644 33.9567 202.522 34.078C202.418 34.182 202.297 34.234 202.158 34.234H198.752C198.51 34.234 198.31 34.1993 198.154 34.13C198.016 34.0607 197.868 33.9567 197.712 33.818C197.66 33.766 197.574 33.6793 197.452 33.558C197.348 33.4367 197.192 33.3153 196.984 33.194C196.776 33.0553 196.516 32.9427 196.204 32.856C195.892 32.752 195.511 32.7 195.06 32.7C194.731 32.7 194.41 32.726 194.098 32.778C193.804 32.8127 193.535 32.882 193.292 32.986C193.067 33.0727 192.876 33.2027 192.72 33.376C192.582 33.5493 192.512 33.766 192.512 34.026C192.512 34.286 192.59 34.5027 192.746 34.676C192.92 34.8493 193.197 35.014 193.578 35.17C193.977 35.3087 194.497 35.4473 195.138 35.586C195.78 35.7247 196.577 35.8893 197.53 36.08C198.484 36.2707 199.316 36.5133 200.026 36.808C200.737 37.1027 201.326 37.4753 201.794 37.926C202.28 38.3593 202.635 38.8793 202.86 39.486C203.103 40.0753 203.224 40.7773 203.224 41.592C203.224 42.476 203.025 43.2647 202.626 43.958C202.228 44.6513 201.664 45.2493 200.936 45.752C200.226 46.2373 199.376 46.61 198.388 46.87C197.418 47.13 196.352 47.26 195.19 47.26C194.012 47.26 192.937 47.104 191.966 46.792C190.996 46.48 190.155 46.0727 189.444 45.57C188.751 45.05 188.205 44.4693 187.806 43.828C187.408 43.1867 187.2 42.5367 187.182 41.878C187.182 41.722 187.234 41.592 187.338 41.488C187.46 41.3667 187.59 41.306 187.728 41.306H191.134C191.377 41.306 191.568 41.3407 191.706 41.41C191.845 41.462 191.984 41.5487 192.122 41.67C192.192 41.7393 192.296 41.852 192.434 42.008C192.573 42.164 192.755 42.3287 192.98 42.502C193.223 42.658 193.518 42.7967 193.864 42.918C194.228 43.0393 194.67 43.1 195.19 43.1C196.109 43.1 196.872 43.0047 197.478 42.814C198.102 42.606 198.414 42.242 198.414 41.722C198.414 41.462 198.302 41.2453 198.076 41.072C197.851 40.8987 197.513 40.7427 197.062 40.604C196.612 40.448 196.031 40.3007 195.32 40.162C194.627 40.0233 193.804 39.85 192.85 39.642C191.065 39.2607 189.756 38.628 188.924 37.744C188.11 36.8427 187.702 35.6467 187.702 34.156C187.702 33.4107 187.867 32.7 188.196 32.024C188.543 31.348 189.037 30.75 189.678 30.23C190.32 29.71 191.091 29.3027 191.992 29.008C192.911 28.696 193.934 28.54 195.06 28.54Z" fill="white"/>
</svg>
