<svg width="303" height="89" viewBox="0 0 303 89" fill="none" xmlns="http://www.w3.org/2000/svg">
<path d="M287.733 0.487305H14.9333C6.68588 0.487305 0 5.77589 0 12.2998V76.2139C0 82.7377 6.68588 88.0264 14.9333 88.0264H287.733C295.981 88.0264 302.667 82.7377 302.667 76.2139V12.2998C302.667 5.77589 295.981 0.487305 287.733 0.487305Z" fill="#1C5E8A"/>
<path d="M81.7158 23.1734C81.6958 23.4334 81.6758 23.7934 81.6558 24.2534C81.6558 24.7134 81.6558 25.1934 81.6558 25.6934C81.6558 26.1734 81.6558 26.6534 81.6558 27.1334C81.6758 27.5934 81.6958 27.9534 81.7158 28.2134C81.7558 28.6734 81.8458 29.1134 81.9858 29.5334C82.1258 29.9534 82.3458 30.3234 82.6458 30.6434C82.9458 30.9634 83.3258 31.2234 83.7858 31.4234C84.2458 31.6034 84.8158 31.6934 85.4958 31.6934C86.1758 31.6934 86.7358 31.6134 87.1758 31.4534C87.6158 31.2934 87.9758 31.1034 88.2558 30.8834C88.5358 30.6434 88.7458 30.3834 88.8858 30.1034C89.0458 29.8234 89.1658 29.5634 89.2458 29.3234C89.3458 29.0034 89.4558 28.7834 89.5758 28.6634C89.6958 28.5234 89.9258 28.4534 90.2658 28.4534H94.1958C94.3758 28.4534 94.5258 28.5234 94.6458 28.6634C94.7858 28.7834 94.8558 28.9334 94.8558 29.1134C94.8358 30.1334 94.5858 31.0934 94.1058 31.9934C93.6258 32.8934 92.9658 33.6734 92.1258 34.3334C91.2858 34.9934 90.2958 35.5234 89.1558 35.9234C88.0358 36.3034 86.8158 36.4934 85.4958 36.4934C84.0558 36.4934 82.7658 36.2834 81.6258 35.8634C80.5058 35.4234 79.5458 34.8334 78.7458 34.0934C77.9458 33.3534 77.3258 32.4934 76.8858 31.5134C76.4658 30.5134 76.2258 29.4634 76.1658 28.3634C76.1258 27.5434 76.1058 26.6634 76.1058 25.7234C76.1058 24.7834 76.1258 23.8834 76.1658 23.0234C76.2058 21.9234 76.4458 20.8834 76.8858 19.9034C77.3258 18.9034 77.9358 18.0334 78.7158 17.2934C79.5158 16.5534 80.4858 15.9734 81.6258 15.5534C82.7658 15.1134 84.0558 14.8934 85.4958 14.8934C86.8158 14.8934 88.0358 15.0934 89.1558 15.4934C90.2958 15.8734 91.2858 16.3934 92.1258 17.0534C92.9658 17.7134 93.6258 18.4934 94.1058 19.3934C94.5858 20.2934 94.8358 21.2534 94.8558 22.2734C94.8558 22.4534 94.7858 22.6134 94.6458 22.7534C94.5258 22.8734 94.3758 22.9334 94.1958 22.9334H90.2658C89.9258 22.9334 89.6958 22.8734 89.5758 22.7534C89.4558 22.6134 89.3458 22.3834 89.2458 22.0634C89.1658 21.8234 89.0458 21.5634 88.8858 21.2834C88.7458 21.0034 88.5358 20.7534 88.2558 20.5334C87.9758 20.2934 87.6158 20.0934 87.1758 19.9334C86.7358 19.7734 86.1758 19.6934 85.4958 19.6934C84.8158 19.6934 84.2458 19.7934 83.7858 19.9934C83.3258 20.1734 82.9458 20.4234 82.6458 20.7434C82.3458 21.0634 82.1258 21.4334 81.9858 21.8534C81.8458 22.2734 81.7558 22.7134 81.7158 23.1734ZM115.17 15.1934C115.39 15.1934 115.58 15.2734 115.74 15.4334C115.9 15.5934 115.98 15.7834 115.98 16.0034V27.9734C115.98 29.3534 115.76 30.5734 115.32 31.6334C114.88 32.6934 114.25 33.5834 113.43 34.3034C112.63 35.0234 111.67 35.5734 110.55 35.9534C109.43 36.3134 108.2 36.4934 106.86 36.4934C105.5 36.4934 104.26 36.3134 103.14 35.9534C102.02 35.5734 101.06 35.0234 100.26 34.3034C99.4603 33.5834 98.8403 32.6934 98.4003 31.6334C97.9603 30.5734 97.7403 29.3534 97.7403 27.9734V16.0034C97.7403 15.7834 97.8203 15.5934 97.9803 15.4334C98.1403 15.2734 98.3303 15.1934 98.5503 15.1934H102.48C102.7 15.1934 102.89 15.2734 103.05 15.4334C103.21 15.5934 103.29 15.7834 103.29 16.0034V27.8534C103.29 29.0534 103.58 29.9934 104.16 30.6734C104.76 31.3534 105.66 31.6934 106.86 31.6934C108.06 31.6934 108.95 31.3534 109.53 30.6734C110.13 29.9934 110.43 29.0534 110.43 27.8534V16.0034C110.43 15.7834 110.51 15.5934 110.67 15.4334C110.83 15.2734 111.02 15.1934 111.24 15.1934H115.17ZM127.782 14.8934C129.062 14.8934 130.232 15.0834 131.292 15.4634C132.372 15.8234 133.302 16.2934 134.082 16.8734C134.862 17.4534 135.472 18.0934 135.912 18.7934C136.352 19.4934 136.582 20.1634 136.602 20.8034C136.602 20.9834 136.532 21.1434 136.392 21.2834C136.272 21.4034 136.132 21.4634 135.972 21.4634H132.042C131.762 21.4634 131.532 21.4234 131.352 21.3434C131.192 21.2634 131.022 21.1434 130.842 20.9834C130.782 20.9234 130.682 20.8234 130.542 20.6834C130.422 20.5434 130.242 20.4034 130.002 20.2634C129.762 20.1034 129.462 19.9734 129.102 19.8734C128.742 19.7534 128.302 19.6934 127.782 19.6934C127.402 19.6934 127.032 19.7234 126.672 19.7834C126.332 19.8234 126.022 19.9034 125.742 20.0234C125.482 20.1234 125.262 20.2734 125.082 20.4734C124.922 20.6734 124.842 20.9234 124.842 21.2234C124.842 21.5234 124.932 21.7734 125.112 21.9734C125.312 22.1734 125.632 22.3634 126.072 22.5434C126.532 22.7034 127.132 22.8634 127.872 23.0234C128.612 23.1834 129.532 23.3734 130.632 23.5934C131.732 23.8134 132.692 24.0934 133.512 24.4334C134.332 24.7734 135.012 25.2034 135.552 25.7234C136.112 26.2234 136.522 26.8234 136.782 27.5234C137.062 28.2034 137.202 29.0134 137.202 29.9534C137.202 30.9734 136.972 31.8834 136.512 32.6834C136.052 33.4834 135.402 34.1734 134.562 34.7534C133.742 35.3134 132.762 35.7434 131.622 36.0434C130.502 36.3434 129.272 36.4934 127.932 36.4934C126.572 36.4934 125.332 36.3134 124.212 35.9534C123.092 35.5934 122.122 35.1234 121.302 34.5434C120.502 33.9434 119.872 33.2734 119.412 32.5334C118.952 31.7934 118.712 31.0434 118.692 30.2834C118.692 30.1034 118.752 29.9534 118.872 29.8334C119.012 29.6934 119.162 29.6234 119.322 29.6234H123.252C123.532 29.6234 123.752 29.6634 123.912 29.7434C124.072 29.8034 124.232 29.9034 124.392 30.0434C124.472 30.1234 124.592 30.2534 124.752 30.4334C124.912 30.6134 125.122 30.8034 125.382 31.0034C125.662 31.1834 126.002 31.3434 126.402 31.4834C126.822 31.6234 127.332 31.6934 127.932 31.6934C128.992 31.6934 129.872 31.5834 130.572 31.3634C131.292 31.1234 131.652 30.7034 131.652 30.1034C131.652 29.8034 131.522 29.5534 131.262 29.3534C131.002 29.1534 130.612 28.9734 130.092 28.8134C129.572 28.6334 128.902 28.4634 128.082 28.3034C127.282 28.1434 126.332 27.9434 125.232 27.7034C123.172 27.2634 121.662 26.5334 120.702 25.5134C119.762 24.4734 119.292 23.0934 119.292 21.3734C119.292 20.5134 119.482 19.6934 119.862 18.9134C120.262 18.1334 120.832 17.4434 121.572 16.8434C122.312 16.2434 123.202 15.7734 124.242 15.4334C125.302 15.0734 126.482 14.8934 127.782 14.8934ZM155.411 15.1934C155.631 15.1934 155.821 15.2734 155.981 15.4334C156.141 15.5934 156.221 15.7834 156.221 16.0034V19.1834C156.221 19.4034 156.141 19.5934 155.981 19.7534C155.821 19.9134 155.631 19.9934 155.411 19.9934H150.131V35.3834C150.131 35.6034 150.051 35.7934 149.891 35.9534C149.731 36.1134 149.541 36.1934 149.321 36.1934H145.391C145.171 36.1934 144.981 36.1134 144.821 35.9534C144.661 35.7934 144.581 35.6034 144.581 35.3834V19.9934H139.301C139.081 19.9934 138.891 19.9134 138.731 19.7534C138.571 19.5934 138.491 19.4034 138.491 19.1834V16.0034C138.491 15.7834 138.571 15.5934 138.731 15.4334C138.891 15.2734 139.081 15.1934 139.301 15.1934H155.411ZM157.875 23.0234C157.935 21.9034 158.175 20.8534 158.595 19.8734C159.035 18.8734 159.645 18.0134 160.425 17.2934C161.225 16.5534 162.186 15.9734 163.306 15.5534C164.446 15.1134 165.756 14.8934 167.236 14.8934C168.696 14.8934 169.996 15.1134 171.136 15.5534C172.276 15.9734 173.236 16.5534 174.016 17.2934C174.816 18.0134 175.426 18.8734 175.846 19.8734C176.286 20.8534 176.536 21.9034 176.595 23.0234C176.636 23.8834 176.656 24.7834 176.656 25.7234C176.656 26.6634 176.636 27.5434 176.595 28.3634C176.536 29.4834 176.286 30.5434 175.846 31.5434C175.426 32.5234 174.816 33.3834 174.016 34.1234C173.236 34.8634 172.276 35.4434 171.136 35.8634C169.996 36.2834 168.696 36.4934 167.236 36.4934C165.756 36.4934 164.446 36.2834 163.306 35.8634C162.186 35.4434 161.225 34.8634 160.425 34.1234C159.645 33.3834 159.035 32.5234 158.595 31.5434C158.175 30.5434 157.935 29.4834 157.875 28.3634C157.835 27.5434 157.815 26.6634 157.815 25.7234C157.815 24.7834 157.835 23.8834 157.875 23.0234ZM171.046 28.2134C171.066 27.8534 171.086 27.4534 171.106 27.0134C171.126 26.5734 171.136 26.1234 171.136 25.6634C171.136 25.2034 171.126 24.7634 171.106 24.3434C171.086 23.9034 171.066 23.5134 171.046 23.1734C171.006 22.6734 170.896 22.2134 170.716 21.7934C170.556 21.3734 170.316 21.0134 169.996 20.7134C169.696 20.3934 169.316 20.1434 168.856 19.9634C168.396 19.7834 167.856 19.6934 167.236 19.6934C166.616 19.6934 166.076 19.7834 165.616 19.9634C165.156 20.1434 164.766 20.3934 164.445 20.7134C164.146 21.0134 163.906 21.3734 163.726 21.7934C163.566 22.2134 163.466 22.6734 163.426 23.1734C163.386 23.5134 163.356 23.9034 163.336 24.3434C163.336 24.7634 163.336 25.2034 163.336 25.6634C163.336 26.1234 163.336 26.5734 163.336 27.0134C163.356 27.4534 163.386 27.8534 163.426 28.2134C163.506 29.2134 163.846 30.0434 164.445 30.7034C165.066 31.3634 165.996 31.6934 167.236 31.6934C168.476 31.6934 169.396 31.3634 169.996 30.7034C170.596 30.0434 170.946 29.2134 171.046 28.2134ZM189.579 31.1534C189.279 31.1534 189.039 31.0734 188.859 30.9134C188.699 30.7334 188.569 30.5634 188.469 30.4034L185.649 25.4534V35.3834C185.649 35.6034 185.569 35.7934 185.409 35.9534C185.249 36.1134 185.059 36.1934 184.839 36.1934H180.909C180.689 36.1934 180.499 36.1134 180.339 35.9534C180.179 35.7934 180.099 35.6034 180.099 35.3834V16.0034C180.099 15.7834 180.179 15.5934 180.339 15.4334C180.499 15.2734 180.689 15.1934 180.909 15.1934H184.389C184.789 15.1934 185.089 15.3034 185.289 15.5234C185.489 15.7434 185.619 15.9034 185.679 16.0034L190.539 24.3134L195.399 16.0034C195.459 15.9034 195.589 15.7434 195.789 15.5234C195.989 15.3034 196.289 15.1934 196.689 15.1934H200.169C200.389 15.1934 200.579 15.2734 200.739 15.4334C200.899 15.5934 200.979 15.7834 200.979 16.0034V35.3834C200.979 35.6034 200.899 35.7934 200.739 35.9534C200.579 36.1134 200.389 36.1934 200.169 36.1934H196.239C196.019 36.1934 195.829 36.1134 195.669 35.9534C195.509 35.7934 195.429 35.6034 195.429 35.3834V25.4534L192.609 30.4034C192.509 30.5634 192.369 30.7334 192.189 30.9134C192.029 31.0734 191.799 31.1534 191.499 31.1534H189.579ZM220.207 31.3934C220.427 31.3934 220.617 31.4734 220.777 31.6334C220.937 31.7934 221.017 31.9834 221.017 32.2034V35.3834C221.017 35.6034 220.937 35.7934 220.777 35.9534C220.617 36.1134 220.427 36.1934 220.207 36.1934H205.987C205.767 36.1934 205.577 36.1134 205.417 35.9534C205.257 35.7934 205.177 35.6034 205.177 35.3834V16.0034C205.177 15.7834 205.257 15.5934 205.417 15.4334C205.577 15.2734 205.767 15.1934 205.987 15.1934H219.967C220.187 15.1934 220.377 15.2734 220.537 15.4334C220.697 15.5934 220.777 15.7834 220.777 16.0034V19.1834C220.777 19.4034 220.697 19.5934 220.537 19.7534C220.377 19.9134 220.187 19.9934 219.967 19.9934H210.727V23.2334H219.307C219.527 23.2334 219.717 23.3134 219.877 23.4734C220.037 23.6334 220.117 23.8234 220.117 24.0434V27.2234C220.117 27.4434 220.037 27.6334 219.877 27.7934C219.717 27.9534 219.527 28.0334 219.307 28.0334H210.727V31.3934H220.207ZM233.394 15.1934C234.714 15.1934 235.894 15.3334 236.934 15.6134C237.974 15.8934 238.854 16.3134 239.574 16.8734C240.314 17.4334 240.874 18.1534 241.254 19.0334C241.654 19.8934 241.854 20.9034 241.854 22.0634C241.854 23.5634 241.544 24.8134 240.924 25.8134C240.304 26.7934 239.424 27.5434 238.284 28.0634L242.004 35.2034C242.064 35.3234 242.094 35.4334 242.094 35.5334C242.094 35.7134 242.024 35.8734 241.884 36.0134C241.764 36.1334 241.614 36.1934 241.434 36.1934H237.354C236.954 36.1934 236.664 36.1034 236.484 35.9234C236.324 35.7434 236.194 35.5634 236.094 35.3834L232.764 28.9634H230.004V35.3834C230.004 35.6034 229.924 35.7934 229.764 35.9534C229.604 36.1134 229.414 36.1934 229.194 36.1934H225.264C225.044 36.1934 224.854 36.1134 224.694 35.9534C224.534 35.7934 224.454 35.6034 224.454 35.3834V16.0034C224.454 15.7834 224.534 15.5934 224.694 15.4334C224.854 15.2734 225.044 15.1934 225.264 15.1934H233.394ZM230.004 24.2834H233.394C234.234 24.2834 234.924 24.1234 235.464 23.8034C236.024 23.4834 236.304 22.9034 236.304 22.0634C236.304 21.2234 236.024 20.6434 235.464 20.3234C234.924 20.0034 234.234 19.8434 233.394 19.8434H230.004V24.2834ZM103.582 50.8934C104.862 50.8934 106.032 51.0834 107.092 51.4634C108.172 51.8234 109.102 52.2934 109.882 52.8734C110.662 53.4534 111.272 54.0934 111.712 54.7934C112.152 55.4934 112.382 56.1634 112.402 56.8034C112.402 56.9834 112.332 57.1434 112.192 57.2834C112.072 57.4034 111.932 57.4634 111.772 57.4634H107.842C107.562 57.4634 107.332 57.4234 107.152 57.3434C106.992 57.2634 106.822 57.1434 106.642 56.9834C106.582 56.9234 106.482 56.8234 106.342 56.6834C106.222 56.5434 106.042 56.4034 105.802 56.2634C105.562 56.1034 105.262 55.9734 104.902 55.8734C104.542 55.7534 104.102 55.6934 103.582 55.6934C103.202 55.6934 102.832 55.7234 102.472 55.7834C102.132 55.8234 101.822 55.9034 101.542 56.0234C101.282 56.1234 101.062 56.2734 100.882 56.4734C100.722 56.6734 100.642 56.9234 100.642 57.2234C100.642 57.5234 100.732 57.7734 100.912 57.9734C101.112 58.1734 101.432 58.3634 101.872 58.5434C102.332 58.7034 102.932 58.8634 103.672 59.0234C104.412 59.1834 105.332 59.3734 106.432 59.5934C107.532 59.8134 108.492 60.0934 109.312 60.4334C110.132 60.7734 110.812 61.2034 111.352 61.7234C111.912 62.2234 112.322 62.8234 112.582 63.5234C112.862 64.2034 113.002 65.0134 113.002 65.9534C113.002 66.9734 112.772 67.8834 112.312 68.6834C111.852 69.4834 111.202 70.1734 110.362 70.7534C109.542 71.3134 108.562 71.7434 107.422 72.0434C106.302 72.3434 105.072 72.4934 103.732 72.4934C102.372 72.4934 101.132 72.3134 100.012 71.9534C98.8923 71.5934 97.9223 71.1234 97.1023 70.5434C96.3023 69.9434 95.6723 69.2734 95.2123 68.5334C94.7523 67.7934 94.5123 67.0434 94.4923 66.2834C94.4923 66.1034 94.5523 65.9534 94.6723 65.8334C94.8123 65.6934 94.9623 65.6234 95.1223 65.6234H99.0523C99.3323 65.6234 99.5523 65.6634 99.7123 65.7434C99.8723 65.8034 100.032 65.9034 100.192 66.0434C100.272 66.1234 100.392 66.2534 100.552 66.4334C100.712 66.6134 100.922 66.8034 101.182 67.0034C101.462 67.1834 101.802 67.3434 102.202 67.4834C102.622 67.6234 103.132 67.6934 103.732 67.6934C104.792 67.6934 105.672 67.5834 106.372 67.3634C107.092 67.1234 107.452 66.7034 107.452 66.1034C107.452 65.8034 107.322 65.5534 107.062 65.3534C106.802 65.1534 106.412 64.9734 105.892 64.8134C105.372 64.6334 104.702 64.4634 103.882 64.3034C103.082 64.1434 102.132 63.9434 101.032 63.7034C98.9723 63.2634 97.4623 62.5334 96.5023 61.5134C95.5623 60.4734 95.0923 59.0934 95.0923 57.3734C95.0923 56.5134 95.2823 55.6934 95.6623 54.9134C96.0623 54.1334 96.6323 53.4434 97.3723 52.8434C98.1123 52.2434 99.0023 51.7734 100.042 51.4334C101.102 51.0734 102.282 50.8934 103.582 50.8934ZM131.027 67.3934C131.247 67.3934 131.437 67.4734 131.597 67.6334C131.757 67.7934 131.837 67.9834 131.837 68.2034V71.3834C131.837 71.6034 131.757 71.7934 131.597 71.9534C131.437 72.1134 131.247 72.1934 131.027 72.1934H116.807C116.587 72.1934 116.397 72.1134 116.237 71.9534C116.077 71.7934 115.997 71.6034 115.997 71.3834V52.0034C115.997 51.7834 116.077 51.5934 116.237 51.4334C116.397 51.2734 116.587 51.1934 116.807 51.1934H130.787C131.007 51.1934 131.197 51.2734 131.357 51.4334C131.517 51.5934 131.597 51.7834 131.597 52.0034V55.1834C131.597 55.4034 131.517 55.5934 131.357 55.7534C131.197 55.9134 131.007 55.9934 130.787 55.9934H121.547V59.2334H130.127C130.347 59.2334 130.537 59.3134 130.697 59.4734C130.857 59.6334 130.937 59.8234 130.937 60.0434V63.2234C130.937 63.4434 130.857 63.6334 130.697 63.7934C130.537 63.9534 130.347 64.0334 130.127 64.0334H121.547V67.3934H131.027ZM144.214 51.1934C145.534 51.1934 146.714 51.3334 147.754 51.6134C148.794 51.8934 149.674 52.3134 150.394 52.8734C151.134 53.4334 151.694 54.1534 152.074 55.0334C152.474 55.8934 152.674 56.9034 152.674 58.0634C152.674 59.5634 152.364 60.8134 151.744 61.8134C151.124 62.7934 150.244 63.5434 149.104 64.0634L152.824 71.2034C152.884 71.3234 152.914 71.4334 152.914 71.5334C152.914 71.7134 152.844 71.8734 152.704 72.0134C152.584 72.1334 152.434 72.1934 152.254 72.1934H148.174C147.774 72.1934 147.484 72.1034 147.304 71.9234C147.144 71.7434 147.014 71.5634 146.914 71.3834L143.584 64.9634H140.824V71.3834C140.824 71.6034 140.744 71.7934 140.584 71.9534C140.424 72.1134 140.234 72.1934 140.014 72.1934H136.084C135.864 72.1934 135.674 72.1134 135.514 71.9534C135.354 71.7934 135.274 71.6034 135.274 71.3834V52.0034C135.274 51.7834 135.354 51.5934 135.514 51.4334C135.674 51.2734 135.864 51.1934 136.084 51.1934H144.214ZM140.824 60.2834H144.214C145.054 60.2834 145.744 60.1234 146.284 59.8034C146.844 59.4834 147.124 58.9034 147.124 58.0634C147.124 57.2234 146.844 56.6434 146.284 56.3234C145.744 56.0034 145.054 55.8434 144.214 55.8434H140.824V60.2834ZM161.791 72.1934C161.011 72.1934 160.481 71.7934 160.201 70.9934L154.081 52.2434C154.041 52.1034 154.011 52.0134 153.991 51.9734C153.991 51.9334 153.991 51.8934 153.991 51.8534C153.991 51.6734 154.051 51.5234 154.171 51.4034C154.311 51.2634 154.471 51.1934 154.651 51.1934H158.431C158.831 51.1934 159.111 51.2834 159.271 51.4634C159.451 51.6234 159.561 51.7834 159.601 51.9434L163.771 65.1434L167.941 51.9434C167.981 51.7834 168.081 51.6234 168.241 51.4634C168.421 51.2834 168.711 51.1934 169.111 51.1934H172.891C173.071 51.1934 173.221 51.2634 173.341 51.4034C173.481 51.5234 173.551 51.6734 173.551 51.8534C173.551 51.8934 173.541 51.9334 173.521 51.9734C173.521 52.0134 173.501 52.1034 173.461 52.2434L167.341 70.9934C167.061 71.7934 166.531 72.1934 165.751 72.1934H161.791ZM177.129 72.1934C176.909 72.1934 176.719 72.1134 176.559 71.9534C176.399 71.7934 176.319 71.6034 176.319 71.3834V52.0034C176.319 51.7834 176.399 51.5934 176.559 51.4334C176.719 51.2734 176.909 51.1934 177.129 51.1934H181.059C181.279 51.1934 181.469 51.2734 181.629 51.4334C181.789 51.5934 181.869 51.7834 181.869 52.0034V71.3834C181.869 71.6034 181.789 71.7934 181.629 71.9534C181.469 72.1134 181.279 72.1934 181.059 72.1934H177.129ZM190.905 59.1734C190.885 59.4334 190.865 59.7934 190.845 60.2534C190.845 60.7134 190.845 61.1934 190.845 61.6934C190.845 62.1734 190.845 62.6534 190.845 63.1334C190.865 63.5934 190.885 63.9534 190.905 64.2134C190.945 64.6734 191.035 65.1134 191.175 65.5334C191.315 65.9534 191.535 66.3234 191.835 66.6434C192.135 66.9634 192.515 67.2234 192.975 67.4234C193.435 67.6034 194.005 67.6934 194.685 67.6934C195.365 67.6934 195.925 67.6134 196.365 67.4534C196.805 67.2934 197.165 67.1034 197.445 66.8834C197.725 66.6434 197.935 66.3834 198.075 66.1034C198.235 65.8234 198.355 65.5634 198.435 65.3234C198.535 65.0034 198.645 64.7834 198.765 64.6634C198.885 64.5234 199.115 64.4534 199.455 64.4534H203.385C203.565 64.4534 203.715 64.5234 203.835 64.6634C203.975 64.7834 204.045 64.9334 204.045 65.1134C204.025 66.1334 203.775 67.0934 203.295 67.9934C202.815 68.8934 202.155 69.6734 201.315 70.3334C200.475 70.9934 199.485 71.5234 198.345 71.9234C197.225 72.3034 196.005 72.4934 194.685 72.4934C193.245 72.4934 191.955 72.2834 190.815 71.8634C189.695 71.4234 188.735 70.8334 187.935 70.0934C187.135 69.3534 186.515 68.4934 186.075 67.5134C185.655 66.5134 185.415 65.4634 185.355 64.3634C185.315 63.5434 185.295 62.6634 185.295 61.7234C185.295 60.7834 185.315 59.8834 185.355 59.0234C185.395 57.9234 185.635 56.8834 186.075 55.9034C186.515 54.9034 187.125 54.0334 187.905 53.2934C188.705 52.5534 189.675 51.9734 190.815 51.5534C191.955 51.1134 193.245 50.8934 194.685 50.8934C196.005 50.8934 197.225 51.0934 198.345 51.4934C199.485 51.8734 200.475 52.3934 201.315 53.0534C202.155 53.7134 202.815 54.4934 203.295 55.3934C203.775 56.2934 204.025 57.2534 204.045 58.2734C204.045 58.4534 203.975 58.6134 203.835 58.7534C203.715 58.8734 203.565 58.9334 203.385 58.9334H199.455C199.115 58.9334 198.885 58.8734 198.765 58.7534C198.645 58.6134 198.535 58.3834 198.435 58.0634C198.355 57.8234 198.235 57.5634 198.075 57.2834C197.935 57.0034 197.725 56.7534 197.445 56.5334C197.165 56.2934 196.805 56.0934 196.365 55.9334C195.925 55.7734 195.365 55.6934 194.685 55.6934C194.005 55.6934 193.435 55.7934 192.975 55.9934C192.515 56.1734 192.135 56.4234 191.835 56.7434C191.535 57.0634 191.315 57.4334 191.175 57.8534C191.035 58.2734 190.945 58.7134 190.905 59.1734ZM222.17 67.3934C222.39 67.3934 222.58 67.4734 222.74 67.6334C222.9 67.7934 222.98 67.9834 222.98 68.2034V71.3834C222.98 71.6034 222.9 71.7934 222.74 71.9534C222.58 72.1134 222.39 72.1934 222.17 72.1934H207.95C207.73 72.1934 207.54 72.1134 207.38 71.9534C207.22 71.7934 207.14 71.6034 207.14 71.3834V52.0034C207.14 51.7834 207.22 51.5934 207.38 51.4334C207.54 51.2734 207.73 51.1934 207.95 51.1934H221.93C222.15 51.1934 222.34 51.2734 222.5 51.4334C222.66 51.5934 222.74 51.7834 222.74 52.0034V55.1834C222.74 55.4034 222.66 55.5934 222.5 55.7534C222.34 55.9134 222.15 55.9934 221.93 55.9934H212.69V59.2334H221.27C221.49 59.2334 221.68 59.3134 221.84 59.4734C222 59.6334 222.08 59.8234 222.08 60.0434V63.2234C222.08 63.4434 222 63.6334 221.84 63.7934C221.68 63.9534 221.49 64.0334 221.27 64.0334H212.69V67.3934H222.17Z" fill="white"/>
</svg>
