<svg width="295" height="70" viewBox="0 0 295 70" fill="none" xmlns="http://www.w3.org/2000/svg">
<g clip-path="url(#clip0_549_13217)">
<path d="M246.284 5.62939H48.7158C26.1379 5.62939 7.83496 18.7789 7.83496 34.9997C7.83496 51.2205 26.1379 64.3701 48.7158 64.3701H246.284C268.861 64.3701 287.164 51.2205 287.164 34.9997C287.164 18.7789 268.861 5.62939 246.284 5.62939Z" fill="white"/>
<path d="M246.29 60.0166H48.7158C38.4007 60.0127 28.4695 57.2055 20.9158 52.1584C13.3621 47.1114 8.74506 40.1982 7.99166 32.8066C7.91331 33.5291 7.83496 34.2516 7.83496 34.9881C7.83496 38.8452 8.89243 42.6645 10.947 46.2279C13.0015 49.7913 16.0128 53.029 19.809 55.7561C23.6053 58.4832 28.112 60.6464 33.0719 62.122C38.0317 63.5976 43.3475 64.3567 48.7158 64.3561H246.29C251.658 64.3567 256.974 63.5976 261.934 62.122C266.894 60.6464 271.4 58.4832 275.197 55.7561C278.993 53.029 282.004 49.7913 284.059 46.2279C286.113 42.6645 287.171 38.8452 287.171 34.9881C287.171 34.2516 287.086 33.5291 287.014 32.8066C286.261 40.1982 281.644 47.1114 274.09 52.1584C266.536 57.2055 256.605 60.0127 246.29 60.0166Z" fill="#999999"/>
<path d="M246.29 5.62955C257.132 5.62955 267.53 8.72417 275.197 14.2326C282.864 19.7411 287.171 27.2121 287.171 35.0022C287.171 38.8593 286.113 42.6786 284.059 46.242C282.004 49.8054 278.993 53.0431 275.197 55.7702C271.4 58.4973 266.894 60.6605 261.934 62.1361C256.974 63.6117 251.658 64.3709 246.29 64.3703H48.7157C43.3474 64.3709 38.0316 63.6117 33.0718 62.1361C28.1119 60.6605 23.6052 58.4973 19.809 55.7702C16.0127 53.0431 13.0014 49.8054 10.9469 46.242C8.89234 42.6786 7.83487 38.8593 7.83487 35.0022C7.83487 27.2121 12.1419 19.7411 19.8086 14.2326C27.4752 8.72417 37.8734 5.62955 48.7157 5.62955H246.29ZM246.29 -9.55462e-05H48.7157C42.2711 -0.0537046 35.8759 0.812005 29.9003 2.54687C23.9248 4.28174 18.4877 6.85127 13.9042 10.1066C9.32059 13.362 5.68162 17.2385 3.19802 21.5115C0.714424 25.7846 -0.564453 30.3692 -0.564453 34.9999C-0.564453 39.6306 0.714424 44.2152 3.19802 48.4882C5.68162 52.7613 9.32059 56.6378 13.9042 59.8932C18.4877 63.1485 23.9248 65.7181 29.9003 67.4529C35.8759 69.1878 42.2711 70.0535 48.7157 69.9999H246.29C252.734 70.0535 259.13 69.1878 265.105 67.4529C271.081 65.7181 276.518 63.1485 281.101 59.8932C285.685 56.6378 289.324 52.7613 291.808 48.4882C294.291 44.2152 295.57 39.6306 295.57 34.9999C295.57 30.3692 294.291 25.7846 291.808 21.5115C289.324 17.2385 285.685 13.362 281.101 10.1066C276.518 6.85127 271.081 4.28174 265.105 2.54687C259.13 0.812005 252.734 -0.0537046 246.29 -9.55462e-05Z" fill="#6890FF"/>
<path d="M82.288 42C82.1147 42 81.9587 41.9393 81.82 41.818C81.6813 41.6793 81.612 41.5147 81.612 41.324V24.476C81.612 24.2853 81.6813 24.1293 81.82 24.008C81.9587 23.8693 82.1147 23.8 82.288 23.8H86.708C86.8987 23.8 87.0547 23.8693 87.176 24.008C87.3147 24.1293 87.384 24.2853 87.384 24.476V41.324C87.384 41.5147 87.3147 41.6793 87.176 41.818C87.0547 41.9393 86.8987 42 86.708 42H82.288ZM92.4723 42C92.2816 42 92.1169 41.9393 91.9783 41.818C91.8396 41.6793 91.7703 41.5147 91.7703 41.324V24.476C91.7703 24.2853 91.8396 24.1293 91.9783 24.008C92.1169 23.8693 92.2816 23.8 92.4723 23.8H95.9303C96.2423 23.8 96.4763 23.8867 96.6323 24.06C96.7883 24.2333 96.8923 24.3547 96.9443 24.424L101.104 31.652L105.264 24.424C105.316 24.3547 105.42 24.2333 105.576 24.06C105.732 23.8867 105.966 23.8 106.278 23.8H109.736C109.927 23.8 110.083 23.8693 110.204 24.008C110.343 24.1293 110.412 24.2853 110.412 24.476V41.324C110.412 41.5147 110.343 41.6793 110.204 41.818C110.083 41.9393 109.927 42 109.736 42H105.836C105.646 42 105.481 41.9393 105.342 41.818C105.221 41.6793 105.16 41.5147 105.16 41.324V32.9L102.82 37.008C102.734 37.1467 102.621 37.2853 102.482 37.424C102.344 37.5627 102.144 37.632 101.884 37.632H100.298C100.056 37.632 99.8649 37.5627 99.7263 37.424C99.5876 37.2853 99.4749 37.1467 99.3883 37.008L97.0483 32.9V41.324C97.0483 41.5147 96.9789 41.6793 96.8403 41.818C96.7189 41.9393 96.5629 42 96.3723 42H92.4723ZM115.503 42C115.33 42 115.174 41.9393 115.035 41.818C114.896 41.6793 114.827 41.5147 114.827 41.324V24.476C114.827 24.2853 114.896 24.1293 115.035 24.008C115.174 23.8693 115.33 23.8 115.503 23.8H123.095C124.603 23.8 125.912 24.0253 127.021 24.476C128.148 24.9267 129.023 25.6113 129.647 26.53C130.271 27.4487 130.583 28.6013 130.583 29.988C130.583 31.3747 130.271 32.5187 129.647 33.42C129.023 34.304 128.148 34.954 127.021 35.37C125.912 35.786 124.603 35.994 123.095 35.994H120.625V41.324C120.625 41.5147 120.556 41.6793 120.417 41.818C120.296 41.9393 120.14 42 119.949 42H115.503ZM120.521 31.808H122.965C123.468 31.808 123.892 31.6607 124.239 31.366C124.603 31.054 124.785 30.5773 124.785 29.936C124.785 29.4507 124.646 29.0087 124.369 28.61C124.092 28.2113 123.624 28.012 122.965 28.012H120.521V31.808ZM141.826 42.26C140.162 42.26 138.714 42 137.484 41.48C136.27 40.96 135.308 40.18 134.598 39.14C133.904 38.0827 133.532 36.774 133.48 35.214C133.462 34.486 133.454 33.7407 133.454 32.978C133.454 32.198 133.462 31.4267 133.48 30.664C133.532 29.1213 133.904 27.8213 134.598 26.764C135.308 25.7067 136.279 24.9093 137.51 24.372C138.74 23.8173 140.179 23.54 141.826 23.54C143.455 23.54 144.885 23.8173 146.116 24.372C147.346 24.9093 148.317 25.7067 149.028 26.764C149.738 27.8213 150.111 29.1213 150.146 30.664C150.18 31.4267 150.198 32.198 150.198 32.978C150.198 33.7407 150.18 34.486 150.146 35.214C150.094 36.774 149.712 38.0827 149.002 39.14C148.308 40.18 147.346 40.96 146.116 41.48C144.902 42 143.472 42.26 141.826 42.26ZM141.826 37.84C142.554 37.84 143.152 37.6233 143.62 37.19C144.088 36.7393 144.33 36.0287 144.348 35.058C144.382 34.3127 144.4 33.5933 144.4 32.9C144.4 32.1893 144.382 31.47 144.348 30.742C144.33 30.1007 144.209 29.572 143.984 29.156C143.776 28.74 143.481 28.4367 143.1 28.246C142.736 28.0553 142.311 27.96 141.826 27.96C141.34 27.96 140.907 28.0553 140.526 28.246C140.144 28.4367 139.841 28.74 139.616 29.156C139.408 29.572 139.295 30.1007 139.278 30.742C139.26 31.47 139.252 32.1893 139.252 32.9C139.252 33.5933 139.26 34.3127 139.278 35.058C139.312 36.0287 139.555 36.7393 140.006 37.19C140.474 37.6233 141.08 37.84 141.826 37.84ZM154.71 42C154.537 42 154.381 41.9393 154.242 41.818C154.104 41.6793 154.034 41.5147 154.034 41.324V24.476C154.034 24.2853 154.104 24.1293 154.242 24.008C154.381 23.8693 154.537 23.8 154.71 23.8H162.12C164.478 23.8 166.324 24.3373 167.658 25.412C169.01 26.4867 169.686 27.986 169.686 29.91C169.686 31.1233 169.409 32.1547 168.854 33.004C168.3 33.8533 167.572 34.5207 166.67 35.006L170.05 41.142C170.102 41.246 170.128 41.3413 170.128 41.428C170.128 41.584 170.076 41.7227 169.972 41.844C169.868 41.948 169.738 42 169.582 42H165.188C164.859 42 164.608 41.922 164.434 41.766C164.261 41.5927 164.148 41.4367 164.096 41.298L161.496 35.942H159.624V41.324C159.624 41.5147 159.555 41.6793 159.416 41.818C159.295 41.9393 159.139 42 158.948 42H154.71ZM159.624 31.652H162.094C162.701 31.652 163.152 31.4873 163.446 31.158C163.741 30.8113 163.888 30.3867 163.888 29.884C163.888 29.364 163.741 28.922 163.446 28.558C163.169 28.194 162.718 28.012 162.094 28.012H159.624V31.652ZM178.115 42C177.925 42 177.76 41.9393 177.621 41.818C177.5 41.6793 177.439 41.5147 177.439 41.324V28.636H172.967C172.777 28.636 172.612 28.5753 172.473 28.454C172.352 28.3153 172.291 28.1507 172.291 27.96V24.476C172.291 24.2853 172.352 24.1293 172.473 24.008C172.612 23.8693 172.777 23.8 172.967 23.8H187.579C187.77 23.8 187.926 23.8693 188.047 24.008C188.186 24.1293 188.255 24.2853 188.255 24.476V27.96C188.255 28.1507 188.186 28.3153 188.047 28.454C187.926 28.5753 187.77 28.636 187.579 28.636H183.107V41.324C183.107 41.5147 183.038 41.6793 182.899 41.818C182.778 41.9393 182.622 42 182.431 42H178.115ZM205.288 42.26C203.676 42.26 202.255 42.0087 201.024 41.506C199.811 41.0033 198.857 40.2233 198.164 39.166C197.488 38.0913 197.15 36.7393 197.15 35.11V24.476C197.15 24.2853 197.219 24.1293 197.358 24.008C197.497 23.8693 197.653 23.8 197.826 23.8H202.064C202.255 23.8 202.411 23.8693 202.532 24.008C202.671 24.1293 202.74 24.2853 202.74 24.476V35.032C202.74 35.916 202.957 36.5833 203.39 37.034C203.823 37.4847 204.447 37.71 205.262 37.71C206.077 37.71 206.692 37.4847 207.108 37.034C207.541 36.5833 207.758 35.916 207.758 35.032V24.476C207.758 24.2853 207.827 24.1293 207.966 24.008C208.105 23.8693 208.269 23.8 208.46 23.8H212.672C212.863 23.8 213.019 23.8693 213.14 24.008C213.279 24.1293 213.348 24.2853 213.348 24.476V35.11C213.348 36.7393 213.01 38.0913 212.334 39.166C211.658 40.2233 210.713 41.0033 209.5 41.506C208.287 42.0087 206.883 42.26 205.288 42.26ZM224.822 42.26C223.002 42.26 221.486 42.0087 220.272 41.506C219.076 40.986 218.175 40.3187 217.568 39.504C216.979 38.672 216.667 37.7967 216.632 36.878C216.632 36.722 216.684 36.592 216.788 36.488C216.892 36.384 217.022 36.332 217.178 36.332H221.312C221.555 36.332 221.746 36.3753 221.884 36.462C222.023 36.5313 222.17 36.6353 222.326 36.774C222.482 36.9647 222.664 37.1467 222.872 37.32C223.08 37.476 223.349 37.606 223.678 37.71C224.008 37.7967 224.389 37.84 224.822 37.84C225.62 37.84 226.235 37.736 226.668 37.528C227.102 37.3027 227.318 36.9993 227.318 36.618C227.318 36.3233 227.197 36.0807 226.954 35.89C226.729 35.6993 226.339 35.526 225.784 35.37C225.23 35.214 224.476 35.0493 223.522 34.876C222.188 34.6507 221.035 34.3213 220.064 33.888C219.094 33.4373 218.348 32.8393 217.828 32.094C217.326 31.3313 217.074 30.3953 217.074 29.286C217.074 28.1593 217.386 27.1627 218.01 26.296C218.652 25.4293 219.536 24.7533 220.662 24.268C221.806 23.7827 223.132 23.54 224.64 23.54C225.888 23.54 226.989 23.7047 227.942 24.034C228.913 24.3633 229.728 24.7967 230.386 25.334C231.045 25.854 231.548 26.4173 231.894 27.024C232.241 27.6307 232.423 28.2113 232.44 28.766C232.44 28.922 232.38 29.0607 232.258 29.182C232.154 29.286 232.033 29.338 231.894 29.338H227.552C227.344 29.338 227.162 29.3033 227.006 29.234C226.868 29.1647 226.738 29.052 226.616 28.896C226.53 28.6533 226.313 28.4367 225.966 28.246C225.62 28.0553 225.178 27.96 224.64 27.96C224.051 27.96 223.6 28.064 223.288 28.272C222.976 28.4627 222.82 28.7487 222.82 29.13C222.82 29.39 222.916 29.6153 223.106 29.806C223.297 29.9967 223.635 30.17 224.12 30.326C224.606 30.4647 225.282 30.6207 226.148 30.794C227.795 31.0367 229.121 31.3833 230.126 31.834C231.149 32.2847 231.894 32.874 232.362 33.602C232.83 34.33 233.064 35.24 233.064 36.332C233.064 37.5627 232.709 38.62 231.998 39.504C231.288 40.388 230.308 41.0727 229.06 41.558C227.83 42.026 226.417 42.26 224.822 42.26ZM237.138 42C236.965 42 236.809 41.9393 236.67 41.818C236.532 41.6793 236.462 41.5147 236.462 41.324V24.476C236.462 24.2853 236.532 24.1293 236.67 24.008C236.809 23.8693 236.965 23.8 237.138 23.8H249.878C250.069 23.8 250.234 23.8693 250.372 24.008C250.511 24.1293 250.58 24.2853 250.58 24.476V27.544C250.58 27.7173 250.511 27.8733 250.372 28.012C250.234 28.1507 250.069 28.22 249.878 28.22H241.844V30.794H249.306C249.497 30.794 249.662 30.8633 249.8 31.002C249.939 31.1233 250.008 31.2793 250.008 31.47V34.278C250.008 34.4687 249.939 34.6333 249.8 34.772C249.662 34.8933 249.497 34.954 249.306 34.954H241.844V37.58H250.086C250.277 37.58 250.442 37.6493 250.58 37.788C250.719 37.9267 250.788 38.0913 250.788 38.282V41.324C250.788 41.5147 250.719 41.6793 250.58 41.818C250.442 41.9393 250.277 42 250.086 42H237.138ZM255.295 42C255.121 42 254.965 41.9393 254.827 41.818C254.688 41.6793 254.619 41.5147 254.619 41.324V24.476C254.619 24.2853 254.688 24.1293 254.827 24.008C254.965 23.8693 255.121 23.8 255.295 23.8H262.705C265.062 23.8 266.908 24.3373 268.243 25.412C269.595 26.4867 270.271 27.986 270.271 29.91C270.271 31.1233 269.993 32.1547 269.439 33.004C268.884 33.8533 268.156 34.5207 267.255 35.006L270.635 41.142C270.687 41.246 270.713 41.3413 270.713 41.428C270.713 41.584 270.661 41.7227 270.557 41.844C270.453 41.948 270.323 42 270.167 42H265.773C265.443 42 265.192 41.922 265.019 41.766C264.845 41.5927 264.733 41.4367 264.681 41.298L262.081 35.942H260.209V41.324C260.209 41.5147 260.139 41.6793 260.001 41.818C259.879 41.9393 259.723 42 259.533 42H255.295ZM260.209 31.652H262.679C263.285 31.652 263.736 31.4873 264.031 31.158C264.325 30.8113 264.473 30.3867 264.473 29.884C264.473 29.364 264.325 28.922 264.031 28.558C263.753 28.194 263.303 28.012 262.679 28.012H260.209V31.652Z" fill="#032064"/>
<path d="M66.3191 20H55.2198C54.8438 20 54.5388 20.2322 54.5388 20.5196V35.3417C54.5388 35.6289 54.8438 35.8613 55.2198 35.8613H60.1611L52.5 42.5L44.13 35.8613H49.3777C49.7538 35.8613 50.0587 35.6289 50.0587 35.3417V20.5196C50.0587 20.2322 49.7538 20 49.3777 20H38.2776C37.9015 20 38.0165 20.2322 38.0165 20.5196L38.0166 45.5C38.0166 45.7872 37.9015 46 38.2776 46H66.3189C66.6965 46 66.9999 45.7676 66.9999 45.4804V20.5196C66.9999 20.2322 66.6967 20 66.3191 20Z" fill="#032063"/>
</g>
<defs>
<clipPath id="clip0_549_13217">
<rect width="295" height="70" fill="white"/>
</clipPath>
</defs>
</svg>
