<svg width="318" height="70" viewBox="0 0 318 70" fill="none" xmlns="http://www.w3.org/2000/svg">
<g clip-path="url(#clip0_563_13133)">
<path d="M265.485 5.62939H52.5134C28.1753 5.62939 8.44531 18.7789 8.44531 34.9997C8.44531 51.2205 28.1753 64.3701 52.5134 64.3701H265.485C289.823 64.3701 309.553 51.2205 309.553 34.9997C309.553 18.7789 289.823 5.62939 265.485 5.62939Z" fill="white"/>
<path d="M265.492 60.0166H52.5134C41.3941 60.0127 30.6886 57.2055 22.546 52.1584C14.4033 47.1114 9.42636 40.1982 8.61423 32.8066C8.52977 33.5291 8.44531 34.2516 8.44531 34.9881C8.44531 38.8452 9.58523 42.6645 11.7999 46.2279C14.0147 49.7913 17.2608 53.029 21.353 55.7561C25.4452 58.4832 30.3033 60.6464 35.6499 62.122C40.9964 63.5976 46.7267 64.3567 52.5134 64.3561H265.492C271.279 64.3567 277.009 63.5976 282.355 62.122C287.702 60.6464 292.56 58.4832 296.652 55.7561C300.744 53.029 303.991 49.7913 306.205 46.2279C308.42 42.6645 309.56 38.8452 309.56 34.9881C309.56 34.2516 309.468 33.5291 309.391 32.8066C308.579 40.1982 303.602 47.1114 295.459 52.1584C287.317 57.2055 276.611 60.0127 265.492 60.0166Z" fill="#999999"/>
<path d="M265.492 5.62955C277.18 5.62955 288.389 8.72417 296.653 14.2326C304.918 19.7411 309.56 27.2121 309.56 35.0022C309.56 38.8593 308.421 42.6786 306.206 46.242C303.991 49.8054 300.745 53.0431 296.653 55.7702C292.56 58.4973 287.702 60.6605 282.356 62.1361C277.009 63.6117 271.279 64.3709 265.492 64.3703H52.5139C46.7271 64.3709 40.9969 63.6117 35.6503 62.1361C30.3038 60.6605 25.4456 58.4973 21.3534 55.7702C17.2612 53.0431 14.0151 49.8054 11.8004 46.242C9.5857 42.6786 8.44578 38.8593 8.44578 35.0022C8.44578 27.2121 13.0886 19.7411 21.353 14.2326C29.6174 8.72417 40.8263 5.62955 52.5139 5.62955H265.492ZM265.492 -9.55462e-05H52.5139C45.5669 -0.0537046 38.673 0.812005 32.2316 2.54687C25.7902 4.28174 19.9292 6.85127 14.9883 10.1066C10.0473 13.362 6.12466 17.2385 3.44742 21.5115C0.770187 25.7846 -0.608398 30.3692 -0.608398 34.9999C-0.608398 39.6306 0.770187 44.2152 3.44742 48.4882C6.12466 52.7613 10.0473 56.6378 14.9883 59.8932C19.9292 63.1485 25.7902 65.7181 32.2316 67.4529C38.673 69.1878 45.5669 70.0535 52.5139 69.9999H265.492C272.439 70.0535 279.333 69.1878 285.775 67.4529C292.216 65.7181 298.077 63.1485 303.018 59.8932C307.959 56.6378 311.882 52.7613 314.559 48.4882C317.236 44.2152 318.615 39.6306 318.615 34.9999C318.615 30.3692 317.236 25.7846 314.559 21.5115C311.882 17.2385 307.959 13.362 303.018 10.1066C298.077 6.85127 292.216 4.28174 285.775 2.54687C279.333 0.812005 272.439 -0.0537046 265.492 -9.55462e-05Z" fill="#6890FF"/>
<path d="M82.5253 42C82.352 42 82.196 41.9393 82.0573 41.818C81.9186 41.6793 81.8493 41.5147 81.8493 41.324V24.476C81.8493 24.2853 81.9186 24.1293 82.0573 24.008C82.196 23.8693 82.352 23.8 82.5253 23.8H86.8413C87.032 23.8 87.1966 23.8693 87.3353 24.008C87.474 24.1293 87.5433 24.2853 87.5433 24.476V37.372H95.0573C95.248 37.372 95.4126 37.4413 95.5513 37.58C95.69 37.7013 95.7593 37.8573 95.7593 38.048V41.324C95.7593 41.5147 95.69 41.6793 95.5513 41.818C95.4126 41.9393 95.248 42 95.0573 42H82.5253ZM99.5898 42C99.4165 42 99.2605 41.9393 99.1218 41.818C98.9832 41.6793 98.9138 41.5147 98.9138 41.324V24.476C98.9138 24.2853 98.9832 24.1293 99.1218 24.008C99.2605 23.8693 99.4165 23.8 99.5898 23.8H112.33C112.521 23.8 112.685 23.8693 112.824 24.008C112.963 24.1293 113.032 24.2853 113.032 24.476V27.544C113.032 27.7173 112.963 27.8733 112.824 28.012C112.685 28.1507 112.521 28.22 112.33 28.22H104.296V30.794H111.758C111.949 30.794 112.113 30.8633 112.252 31.002C112.391 31.1233 112.46 31.2793 112.46 31.47V34.278C112.46 34.4687 112.391 34.6333 112.252 34.772C112.113 34.8933 111.949 34.954 111.758 34.954H104.296V37.58H112.538C112.729 37.58 112.893 37.6493 113.032 37.788C113.171 37.9267 113.24 38.0913 113.24 38.282V41.324C113.24 41.5147 113.171 41.6793 113.032 41.818C112.893 41.9393 112.729 42 112.538 42H99.5898ZM116.134 42C115.978 42 115.839 41.948 115.718 41.844C115.614 41.7227 115.562 41.584 115.562 41.428C115.562 41.3587 115.579 41.298 115.614 41.246L121.542 24.606C121.594 24.4153 121.707 24.2333 121.88 24.06C122.071 23.8867 122.322 23.8 122.634 23.8H127.392C127.721 23.8 127.973 23.8867 128.146 24.06C128.319 24.2333 128.432 24.4153 128.484 24.606L134.438 41.246C134.455 41.298 134.464 41.3587 134.464 41.428C134.464 41.584 134.403 41.7227 134.282 41.844C134.178 41.948 134.048 42 133.892 42H129.888C129.593 42 129.377 41.9307 129.238 41.792C129.099 41.6533 129.004 41.5233 128.952 41.402L128.146 39.218H121.88L121.074 41.402C121.022 41.5233 120.927 41.6533 120.788 41.792C120.667 41.9307 120.45 42 120.138 42H116.134ZM123.076 34.824H126.95L125 28.974L123.076 34.824ZM138.035 42C137.862 42 137.706 41.9393 137.567 41.818C137.429 41.6793 137.359 41.5147 137.359 41.324V24.476C137.359 24.2853 137.429 24.1293 137.567 24.008C137.706 23.8693 137.862 23.8 138.035 23.8H145.159C146.841 23.8 148.297 24.0773 149.527 24.632C150.758 25.1693 151.729 25.9667 152.439 27.024C153.15 28.0813 153.531 29.3813 153.583 30.924C153.618 31.6693 153.635 32.328 153.635 32.9C153.635 33.472 153.618 34.122 153.583 34.85C153.514 36.4793 153.141 37.8227 152.465 38.88C151.807 39.9373 150.871 40.726 149.657 41.246C148.444 41.7487 146.988 42 145.289 42H138.035ZM142.949 37.58H145.159C145.731 37.58 146.217 37.4847 146.615 37.294C147.014 37.1033 147.326 36.8087 147.551 36.41C147.777 35.994 147.898 35.4653 147.915 34.824C147.933 34.3213 147.941 33.8707 147.941 33.472C147.959 33.0733 147.959 32.6747 147.941 32.276C147.941 31.8773 147.933 31.4353 147.915 30.95C147.881 29.9967 147.603 29.3033 147.083 28.87C146.581 28.4367 145.896 28.22 145.029 28.22H142.949V37.58ZM158.121 42C157.948 42 157.792 41.9393 157.653 41.818C157.515 41.6793 157.445 41.5147 157.445 41.324V24.476C157.445 24.2853 157.515 24.1293 157.653 24.008C157.792 23.8693 157.948 23.8 158.121 23.8H170.861C171.052 23.8 171.217 23.8693 171.355 24.008C171.494 24.1293 171.563 24.2853 171.563 24.476V27.544C171.563 27.7173 171.494 27.8733 171.355 28.012C171.217 28.1507 171.052 28.22 170.861 28.22H162.827V30.794H170.289C170.48 30.794 170.645 30.8633 170.783 31.002C170.922 31.1233 170.991 31.2793 170.991 31.47V34.278C170.991 34.4687 170.922 34.6333 170.783 34.772C170.645 34.8933 170.48 34.954 170.289 34.954H162.827V37.58H171.069C171.26 37.58 171.425 37.6493 171.563 37.788C171.702 37.9267 171.771 38.0913 171.771 38.282V41.324C171.771 41.5147 171.702 41.6793 171.563 41.818C171.425 41.9393 171.26 42 171.069 42H158.121ZM176.278 42C176.104 42 175.948 41.9393 175.81 41.818C175.671 41.6793 175.602 41.5147 175.602 41.324V24.476C175.602 24.2853 175.671 24.1293 175.81 24.008C175.948 23.8693 176.104 23.8 176.278 23.8H183.688C186.045 23.8 187.891 24.3373 189.226 25.412C190.578 26.4867 191.254 27.986 191.254 29.91C191.254 31.1233 190.976 32.1547 190.422 33.004C189.867 33.8533 189.139 34.5207 188.238 35.006L191.618 41.142C191.67 41.246 191.696 41.3413 191.696 41.428C191.696 41.584 191.644 41.7227 191.54 41.844C191.436 41.948 191.306 42 191.15 42H186.756C186.426 42 186.175 41.922 186.002 41.766C185.828 41.5927 185.716 41.4367 185.664 41.298L183.064 35.942H181.192V41.324C181.192 41.5147 181.122 41.6793 180.984 41.818C180.862 41.9393 180.706 42 180.516 42H176.278ZM181.192 31.652H183.662C184.268 31.652 184.719 31.4873 185.014 31.158C185.308 30.8113 185.456 30.3867 185.456 29.884C185.456 29.364 185.308 28.922 185.014 28.558C184.736 28.194 184.286 28.012 183.662 28.012H181.192V31.652ZM195.83 42C195.657 42 195.501 41.9393 195.362 41.818C195.224 41.6793 195.154 41.5147 195.154 41.324V24.476C195.154 24.2853 195.224 24.1293 195.362 24.008C195.501 23.8693 195.657 23.8 195.83 23.8H204.124C205.702 23.8 206.993 24.008 207.998 24.424C209.004 24.84 209.749 25.438 210.234 26.218C210.72 26.998 210.962 27.96 210.962 29.104C210.962 29.6933 210.841 30.222 210.598 30.69C210.373 31.1407 210.096 31.522 209.766 31.834C209.437 32.1287 209.125 32.3453 208.83 32.484C209.506 32.7787 210.096 33.2813 210.598 33.992C211.101 34.6853 211.352 35.4827 211.352 36.384C211.352 37.5973 211.075 38.62 210.52 39.452C209.983 40.284 209.194 40.9167 208.154 41.35C207.132 41.7833 205.875 42 204.384 42H195.83ZM200.744 38.074H203.786C204.376 38.074 204.809 37.9007 205.086 37.554C205.364 37.19 205.502 36.7913 205.502 36.358C205.502 35.9073 205.355 35.5173 205.06 35.188C204.766 34.8413 204.341 34.668 203.786 34.668H200.744V38.074ZM200.744 30.846H203.526C204.081 30.846 204.488 30.69 204.748 30.378C205.008 30.066 205.138 29.702 205.138 29.286C205.138 28.87 205.008 28.506 204.748 28.194C204.488 27.882 204.081 27.726 203.526 27.726H200.744V30.846ZM222.864 42.26C221.2 42.26 219.753 42 218.522 41.48C217.309 40.96 216.347 40.18 215.636 39.14C214.943 38.0827 214.57 36.774 214.518 35.214C214.501 34.486 214.492 33.7407 214.492 32.978C214.492 32.198 214.501 31.4267 214.518 30.664C214.57 29.1213 214.943 27.8213 215.636 26.764C216.347 25.7067 217.317 24.9093 218.548 24.372C219.779 23.8173 221.217 23.54 222.864 23.54C224.493 23.54 225.923 23.8173 227.154 24.372C228.385 24.9093 229.355 25.7067 230.066 26.764C230.777 27.8213 231.149 29.1213 231.184 30.664C231.219 31.4267 231.236 32.198 231.236 32.978C231.236 33.7407 231.219 34.486 231.184 35.214C231.132 36.774 230.751 38.0827 230.04 39.14C229.347 40.18 228.385 40.96 227.154 41.48C225.941 42 224.511 42.26 222.864 42.26ZM222.864 37.84C223.592 37.84 224.19 37.6233 224.658 37.19C225.126 36.7393 225.369 36.0287 225.386 35.058C225.421 34.3127 225.438 33.5933 225.438 32.9C225.438 32.1893 225.421 31.47 225.386 30.742C225.369 30.1007 225.247 29.572 225.022 29.156C224.814 28.74 224.519 28.4367 224.138 28.246C223.774 28.0553 223.349 27.96 222.864 27.96C222.379 27.96 221.945 28.0553 221.564 28.246C221.183 28.4367 220.879 28.74 220.654 29.156C220.446 29.572 220.333 30.1007 220.316 30.742C220.299 31.47 220.29 32.1893 220.29 32.9C220.29 33.5933 220.299 34.3127 220.316 35.058C220.351 36.0287 220.593 36.7393 221.044 37.19C221.512 37.6233 222.119 37.84 222.864 37.84ZM233.73 42C233.574 42 233.436 41.948 233.314 41.844C233.21 41.7227 233.158 41.584 233.158 41.428C233.158 41.3587 233.176 41.298 233.21 41.246L239.138 24.606C239.19 24.4153 239.303 24.2333 239.476 24.06C239.667 23.8867 239.918 23.8 240.23 23.8H244.988C245.318 23.8 245.569 23.8867 245.742 24.06C245.916 24.2333 246.028 24.4153 246.08 24.606L252.034 41.246C252.052 41.298 252.06 41.3587 252.06 41.428C252.06 41.584 252 41.7227 251.878 41.844C251.774 41.948 251.644 42 251.488 42H247.484C247.19 42 246.973 41.9307 246.834 41.792C246.696 41.6533 246.6 41.5233 246.548 41.402L245.742 39.218H239.476L238.67 41.402C238.618 41.5233 238.523 41.6533 238.384 41.792C238.263 41.9307 238.046 42 237.734 42H233.73ZM240.672 34.824H244.546L242.596 28.974L240.672 34.824ZM255.631 42C255.458 42 255.302 41.9393 255.163 41.818C255.025 41.6793 254.955 41.5147 254.955 41.324V24.476C254.955 24.2853 255.025 24.1293 255.163 24.008C255.302 23.8693 255.458 23.8 255.631 23.8H263.041C265.399 23.8 267.245 24.3373 268.579 25.412C269.931 26.4867 270.607 27.986 270.607 29.91C270.607 31.1233 270.33 32.1547 269.775 33.004C269.221 33.8533 268.493 34.5207 267.591 35.006L270.971 41.142C271.023 41.246 271.049 41.3413 271.049 41.428C271.049 41.584 270.997 41.7227 270.893 41.844C270.789 41.948 270.659 42 270.503 42H266.109C265.78 42 265.529 41.922 265.355 41.766C265.182 41.5927 265.069 41.4367 265.017 41.298L262.417 35.942H260.545V41.324C260.545 41.5147 260.476 41.6793 260.337 41.818C260.216 41.9393 260.06 42 259.869 42H255.631ZM260.545 31.652H263.015C263.622 31.652 264.073 31.4873 264.367 31.158C264.662 30.8113 264.809 30.3867 264.809 29.884C264.809 29.364 264.662 28.922 264.367 28.558C264.09 28.194 263.639 28.012 263.015 28.012H260.545V31.652ZM275.184 42C275.011 42 274.855 41.9393 274.716 41.818C274.578 41.6793 274.508 41.5147 274.508 41.324V24.476C274.508 24.2853 274.578 24.1293 274.716 24.008C274.855 23.8693 275.011 23.8 275.184 23.8H282.308C283.99 23.8 285.446 24.0773 286.676 24.632C287.907 25.1693 288.878 25.9667 289.588 27.024C290.299 28.0813 290.68 29.3813 290.732 30.924C290.767 31.6693 290.784 32.328 290.784 32.9C290.784 33.472 290.767 34.122 290.732 34.85C290.663 36.4793 290.29 37.8227 289.614 38.88C288.956 39.9373 288.02 40.726 286.806 41.246C285.593 41.7487 284.137 42 282.438 42H275.184ZM280.098 37.58H282.308C282.88 37.58 283.366 37.4847 283.764 37.294C284.163 37.1033 284.475 36.8087 284.7 36.41C284.926 35.994 285.047 35.4653 285.064 34.824C285.082 34.3213 285.09 33.8707 285.09 33.472C285.108 33.0733 285.108 32.6747 285.09 32.276C285.09 31.8773 285.082 31.4353 285.064 30.95C285.03 29.9967 284.752 29.3033 284.232 28.87C283.73 28.4367 283.045 28.22 282.178 28.22H280.098V37.58Z" fill="#032064"/>
<rect x="32.5" y="32.5" width="10" height="15" fill="#032064" stroke="#6890FF"/>
<rect x="43.5" y="15.5" width="10" height="32" fill="#032064" stroke="#6890FF"/>
<rect x="54.5" y="25.5" width="10" height="22" fill="#032064" stroke="#6890FF"/>
</g>
<defs>
<clipPath id="clip0_563_13133">
<rect width="318" height="70" fill="white"/>
</clipPath>
</defs>
</svg>
