<svg width="198" height="70" viewBox="0 0 198 70" fill="none" xmlns="http://www.w3.org/2000/svg">
<g clip-path="url(#clip0_594_12392)">
<path d="M165.405 5.62939H33.0216C17.8931 5.62939 5.62891 18.7789 5.62891 34.9997C5.62891 51.2205 17.8931 64.3701 33.0216 64.3701H165.405C180.533 64.3701 192.797 51.2205 192.797 34.9997C192.797 18.7789 180.533 5.62939 165.405 5.62939Z" fill="white"/>
<path d="M165.409 60.0166H33.0216C26.1099 60.0127 19.4553 57.2055 14.3939 52.1584C9.33241 47.1114 6.23873 40.1982 5.73391 32.8066C5.6814 33.5291 5.62891 34.2516 5.62891 34.9881C5.62891 38.8452 6.33748 42.6645 7.71415 46.2279C9.09081 49.7913 11.1086 53.029 13.6523 55.7561C16.196 58.4832 19.2158 60.6464 22.5393 62.122C25.8627 63.5976 29.4246 64.3567 33.0216 64.3561H165.409C169.006 64.3567 172.568 63.5976 175.891 62.122C179.215 60.6464 182.235 58.4832 184.778 55.7561C187.322 53.029 189.34 49.7913 190.717 46.2279C192.093 42.6645 192.802 38.8452 192.802 34.9881C192.802 34.2516 192.745 33.5291 192.697 32.8066C192.192 40.1982 189.098 47.1114 184.037 52.1584C178.975 57.2055 172.321 60.0127 165.409 60.0166Z" fill="#999999"/>
<path d="M165.408 5.62955C172.673 5.62955 179.641 8.72417 184.778 14.2326C189.915 19.7411 192.801 27.2121 192.801 35.0022C192.801 38.8593 192.092 42.6786 190.716 46.242C189.339 49.8054 187.321 53.0431 184.777 55.7702C182.234 58.4973 179.214 60.6605 175.891 62.1361C172.567 63.6117 169.005 64.3709 165.408 64.3703H33.0208C29.4238 64.3709 25.8618 63.6117 22.5384 62.1361C19.215 60.6605 16.1952 58.4973 13.6515 55.7702C11.1078 53.0431 9.08999 49.8054 7.71332 46.242C6.33665 42.6786 5.62808 38.8593 5.62808 35.0022C5.62808 27.2121 8.51408 19.7411 13.6512 14.2326C18.7883 8.72417 25.7558 5.62955 33.0208 5.62955H165.408ZM165.408 -9.55463e-05H33.0208C28.7026 -0.0537046 24.4173 0.812005 20.4133 2.54687C16.4093 4.28174 12.7662 6.85128 9.6949 10.1066C6.62361 13.362 4.18527 17.2385 2.5211 21.5115C0.856929 25.7846 0 30.3692 0 34.9999C0 39.6306 0.856929 44.2152 2.5211 48.4882C4.18527 52.7613 6.62361 56.6378 9.6949 59.8931C12.7662 63.1485 16.4093 65.7181 20.4133 67.4529C24.4173 69.1878 28.7026 70.0535 33.0208 69.9999H165.408C169.726 70.0535 174.012 69.1878 178.016 67.4529C182.02 65.7181 185.663 63.1485 188.734 59.8931C191.805 56.6378 194.244 52.7613 195.908 48.4882C197.572 44.2152 198.429 39.6306 198.429 34.9999C198.429 30.3692 197.572 25.7846 195.908 21.5115C194.244 17.2385 191.805 13.362 188.734 10.1066C185.663 6.85128 182.02 4.28174 178.016 2.54687C174.012 0.812005 169.726 -0.0537046 165.408 -9.55463e-05Z" fill="#6890FF"/>
<path d="M68.288 43C68.1147 43 67.9587 42.9393 67.82 42.818C67.6813 42.6793 67.612 42.5147 67.612 42.324V25.476C67.612 25.2853 67.6813 25.1293 67.82 25.008C67.9587 24.8693 68.1147 24.8 68.288 24.8H72.604C72.7947 24.8 72.9593 24.8693 73.098 25.008C73.2367 25.1293 73.306 25.2853 73.306 25.476V38.372H80.82C81.0107 38.372 81.1753 38.4413 81.314 38.58C81.4527 38.7013 81.522 38.8573 81.522 39.048V42.324C81.522 42.5147 81.4527 42.6793 81.314 42.818C81.1753 42.9393 81.0107 43 80.82 43H68.288ZM92.3254 43.26C90.6614 43.26 89.2141 43 87.9834 42.48C86.7701 41.96 85.8081 41.18 85.0974 40.14C84.4041 39.0827 84.0314 37.774 83.9794 36.214C83.9621 35.486 83.9534 34.7407 83.9534 33.978C83.9534 33.198 83.9621 32.4267 83.9794 31.664C84.0314 30.1213 84.4041 28.8213 85.0974 27.764C85.8081 26.7067 86.7787 25.9093 88.0094 25.372C89.2401 24.8173 90.6787 24.54 92.3254 24.54C93.9547 24.54 95.3847 24.8173 96.6154 25.372C97.8461 25.9093 98.8167 26.7067 99.5274 27.764C100.238 28.8213 100.611 30.1213 100.645 31.664C100.68 32.4267 100.697 33.198 100.697 33.978C100.697 34.7407 100.68 35.486 100.645 36.214C100.593 37.774 100.212 39.0827 99.5014 40.14C98.8081 41.18 97.8461 41.96 96.6154 42.48C95.4021 43 93.9721 43.26 92.3254 43.26ZM92.3254 38.84C93.0534 38.84 93.6514 38.6233 94.1194 38.19C94.5874 37.7393 94.8301 37.0287 94.8474 36.058C94.8821 35.3127 94.8994 34.5933 94.8994 33.9C94.8994 33.1893 94.8821 32.47 94.8474 31.742C94.8301 31.1007 94.7087 30.572 94.4834 30.156C94.2754 29.74 93.9807 29.4367 93.5994 29.246C93.2354 29.0553 92.8107 28.96 92.3254 28.96C91.8401 28.96 91.4067 29.0553 91.0254 29.246C90.6441 29.4367 90.3407 29.74 90.1154 30.156C89.9074 30.572 89.7947 31.1007 89.7774 31.742C89.7601 32.47 89.7514 33.1893 89.7514 33.9C89.7514 34.5933 89.7601 35.3127 89.7774 36.058C89.8121 37.0287 90.0547 37.7393 90.5054 38.19C90.9734 38.6233 91.5801 38.84 92.3254 38.84ZM112.464 43.26C110.748 43.26 109.275 43 108.044 42.48C106.813 41.9427 105.851 41.1453 105.158 40.088C104.465 39.0307 104.092 37.722 104.04 36.162C104.023 35.434 104.014 34.654 104.014 33.822C104.014 32.9727 104.023 32.1753 104.04 31.43C104.092 29.922 104.465 28.6567 105.158 27.634C105.869 26.6113 106.848 25.84 108.096 25.32C109.344 24.8 110.8 24.54 112.464 24.54C113.799 24.54 114.986 24.696 116.026 25.008C117.066 25.32 117.95 25.7447 118.678 26.282C119.423 26.8193 119.987 27.426 120.368 28.102C120.767 28.7607 120.975 29.4453 120.992 30.156C120.992 30.312 120.931 30.4507 120.81 30.572C120.706 30.676 120.576 30.728 120.42 30.728H115.636C115.463 30.728 115.324 30.702 115.22 30.65C115.116 30.5807 115.021 30.494 114.934 30.39C114.847 30.2167 114.709 30.0173 114.518 29.792C114.345 29.5667 114.093 29.376 113.764 29.22C113.435 29.0467 113.001 28.96 112.464 28.96C111.649 28.96 111.017 29.168 110.566 29.584C110.115 30 109.873 30.6587 109.838 31.56C109.786 33.016 109.786 34.5067 109.838 36.032C109.873 37.02 110.124 37.7393 110.592 38.19C111.077 38.6233 111.727 38.84 112.542 38.84C113.079 38.84 113.556 38.7533 113.972 38.58C114.405 38.4067 114.743 38.138 114.986 37.774C115.229 37.3927 115.35 36.9073 115.35 36.318V36.058H113.504C113.313 36.058 113.149 35.9887 113.01 35.85C112.889 35.7113 112.828 35.5553 112.828 35.382V32.964C112.828 32.7733 112.889 32.6173 113.01 32.496C113.149 32.3573 113.313 32.288 113.504 32.288H120.342C120.533 32.288 120.697 32.3573 120.836 32.496C120.975 32.6173 121.044 32.7733 121.044 32.964V36.136C121.044 37.6613 120.68 38.9527 119.952 40.01C119.224 41.0673 118.219 41.8733 116.936 42.428C115.653 42.9827 114.163 43.26 112.464 43.26ZM132.701 43.26C131.037 43.26 129.589 43 128.359 42.48C127.145 41.96 126.183 41.18 125.473 40.14C124.779 39.0827 124.407 37.774 124.355 36.214C124.337 35.486 124.329 34.7407 124.329 33.978C124.329 33.198 124.337 32.4267 124.355 31.664C124.407 30.1213 124.779 28.8213 125.473 27.764C126.183 26.7067 127.154 25.9093 128.385 25.372C129.615 24.8173 131.054 24.54 132.701 24.54C134.33 24.54 135.76 24.8173 136.991 25.372C138.221 25.9093 139.192 26.7067 139.903 27.764C140.613 28.8213 140.986 30.1213 141.021 31.664C141.055 32.4267 141.073 33.198 141.073 33.978C141.073 34.7407 141.055 35.486 141.021 36.214C140.969 37.774 140.587 39.0827 139.877 40.14C139.183 41.18 138.221 41.96 136.991 42.48C135.777 43 134.347 43.26 132.701 43.26ZM132.701 38.84C133.429 38.84 134.027 38.6233 134.495 38.19C134.963 37.7393 135.205 37.0287 135.223 36.058C135.257 35.3127 135.275 34.5933 135.275 33.9C135.275 33.1893 135.257 32.47 135.223 31.742C135.205 31.1007 135.084 30.572 134.859 30.156C134.651 29.74 134.356 29.4367 133.975 29.246C133.611 29.0553 133.186 28.96 132.701 28.96C132.215 28.96 131.782 29.0553 131.401 29.246C131.019 29.4367 130.716 29.74 130.491 30.156C130.283 30.572 130.17 31.1007 130.153 31.742C130.135 32.47 130.127 33.1893 130.127 33.9C130.127 34.5933 130.135 35.3127 130.153 36.058C130.187 37.0287 130.43 37.7393 130.881 38.19C131.349 38.6233 131.955 38.84 132.701 38.84ZM152.891 43.26C151.279 43.26 149.858 43.0087 148.627 42.506C147.414 42.0033 146.461 41.2233 145.767 40.166C145.091 39.0913 144.753 37.7393 144.753 36.11V25.476C144.753 25.2853 144.823 25.1293 144.961 25.008C145.1 24.8693 145.256 24.8 145.429 24.8H149.667C149.858 24.8 150.014 24.8693 150.135 25.008C150.274 25.1293 150.343 25.2853 150.343 25.476V36.032C150.343 36.916 150.56 37.5833 150.993 38.034C151.427 38.4847 152.051 38.71 152.865 38.71C153.68 38.71 154.295 38.4847 154.711 38.034C155.145 37.5833 155.361 36.916 155.361 36.032V25.476C155.361 25.2853 155.431 25.1293 155.569 25.008C155.708 24.8693 155.873 24.8 156.063 24.8H160.275C160.466 24.8 160.622 24.8693 160.743 25.008C160.882 25.1293 160.951 25.2853 160.951 25.476V36.11C160.951 37.7393 160.613 39.0913 159.937 40.166C159.261 41.2233 158.317 42.0033 157.103 42.506C155.89 43.0087 154.486 43.26 152.891 43.26ZM169.93 43C169.739 43 169.574 42.9393 169.436 42.818C169.314 42.6793 169.254 42.5147 169.254 42.324V29.636H164.782C164.591 29.636 164.426 29.5753 164.288 29.454C164.166 29.3153 164.106 29.1507 164.106 28.96V25.476C164.106 25.2853 164.166 25.1293 164.288 25.008C164.426 24.8693 164.591 24.8 164.782 24.8H179.394C179.584 24.8 179.74 24.8693 179.862 25.008C180 25.1293 180.07 25.2853 180.07 25.476V28.96C180.07 29.1507 180 29.3153 179.862 29.454C179.74 29.5753 179.584 29.636 179.394 29.636H174.922V42.324C174.922 42.5147 174.852 42.6793 174.714 42.818C174.592 42.9393 174.436 43 174.246 43H169.93Z" fill="#032064"/>
<path d="M36.4997 53.9168C25.2235 53.9168 16.083 44.7763 16.083 33.5002C16.083 22.224 25.2235 13.0835 36.4997 13.0835C47.7758 13.0835 56.9163 22.224 56.9163 33.5002C56.9163 44.7763 47.7758 53.9168 36.4997 53.9168ZM26.2913 31.4585V25.3335L16.083 33.5002L26.2913 41.6668V35.5418H42.6247V31.4585H26.2913Z" fill="#032064"/>
</g>
<defs>
<clipPath id="clip0_594_12392">
<rect width="198" height="70" fill="white"/>
</clipPath>
</defs>
</svg>
