<svg width="90" height="70" viewBox="0 0 90 70" fill="none" xmlns="http://www.w3.org/2000/svg">
<g clip-path="url(#clip0_594_12405)">
<path d="M75.2179 5.62939H15.0165C8.13672 5.62939 2.55957 18.7789 2.55957 34.9997C2.55957 51.2205 8.13672 64.3701 15.0165 64.3701H75.2179C82.0977 64.3701 87.6748 51.2205 87.6748 34.9997C87.6748 18.7789 82.0977 5.62939 75.2179 5.62939Z" fill="white"/>
<path d="M75.2199 60.0166H15.0165C11.8733 60.0127 8.84717 57.2055 6.54546 52.1584C4.24375 47.1114 2.83689 40.1982 2.60732 32.8066C2.58344 33.5291 2.55957 34.2516 2.55957 34.9881C2.55957 38.8452 2.8818 42.6645 3.50784 46.2279C4.13388 49.7913 5.05147 53.029 6.20823 55.7561C7.36499 58.4832 8.73826 60.6464 10.2496 62.122C11.7609 63.5976 13.3807 64.3567 15.0165 64.3561H75.2199C76.8557 64.3567 78.4755 63.5976 79.9868 62.122C81.4981 60.6464 82.8714 58.4832 84.0281 55.7561C85.1849 53.029 86.1025 49.7913 86.7286 46.2279C87.3546 42.6645 87.6768 38.8452 87.6768 34.9881C87.6768 34.2516 87.651 33.5291 87.6291 32.8066C87.3995 40.1982 85.9926 47.1114 83.6909 52.1584C81.3892 57.2055 78.363 60.0127 75.2199 60.0166Z" fill="#999999"/>
<path d="M75.2197 5.62955C78.5235 5.62955 81.6919 8.72417 84.0281 14.2326C86.3642 19.7411 87.6766 27.2121 87.6766 35.0022C87.6766 38.8593 87.3544 42.6786 86.7284 46.242C86.1023 49.8054 85.1847 53.0431 84.0279 55.7702C82.8712 58.4973 81.4979 60.6605 79.9866 62.1361C78.4753 63.6117 76.8555 64.3709 75.2197 64.3703H15.0163C13.3805 64.3709 11.7607 63.6117 10.2494 62.1361C8.73807 60.6605 7.3648 58.4973 6.20804 55.7702C5.05128 53.0431 4.13369 49.8054 3.50765 46.242C2.88161 42.6786 2.55938 38.8593 2.55938 35.0022C2.55938 27.2121 3.87179 19.7411 6.20792 14.2326C8.54404 8.72417 11.7125 5.62955 15.0163 5.62955H75.2197ZM75.2197 -9.55463e-05H15.0163C13.0526 -0.0537046 11.1038 0.812005 9.28301 2.54687C7.46219 4.28174 5.80545 6.85128 4.40877 10.1066C3.0121 13.362 1.90326 17.2385 1.14648 21.5115C0.38969 25.7846 0 30.3692 0 34.9999C0 39.6306 0.38969 44.2152 1.14648 48.4882C1.90326 52.7613 3.0121 56.6378 4.40877 59.8931C5.80545 63.1485 7.46219 65.7181 9.28301 67.4529C11.1038 69.1878 13.0526 70.0535 15.0163 69.9999H75.2197C77.1834 70.0535 79.1322 69.1878 80.953 67.4529C82.7738 65.7181 84.4306 63.1485 85.8272 59.8931C87.2239 56.6378 88.3328 52.7613 89.0895 48.4882C89.8463 44.2152 90.236 39.6306 90.236 34.9999C90.236 30.3692 89.8463 25.7846 89.0895 21.5115C88.3328 17.2385 87.2239 13.362 85.8272 10.1066C84.4306 6.85128 82.7738 4.28174 80.953 2.54687C79.1322 0.812005 77.1834 -0.0537046 75.2197 -9.55463e-05Z" fill="#6890FF"/>
<path fill-rule="evenodd" clip-rule="evenodd" d="M37.5714 36.7683L44.5049 41.5091L51.1885 36.8982L66.1702 51.679C65.7758 51.8064 65.3544 51.875 64.9159 51.875H24.0842C23.5452 51.875 23.0307 51.7696 22.5578 51.581L37.5714 36.7683ZM69 24.6212V47.7909C69 48.396 68.8677 48.9693 68.6325 49.4862L53.9472 34.997L69 24.6212ZM20 24.751L34.8029 34.8745L20.2597 49.2266C20.0875 48.7675 19.9995 48.2811 20 47.7909V24.751ZM64.9159 15.125C67.1699 15.125 69 16.9527 69 19.2091V20.6448L44.4951 37.5376L20 20.7845V19.2091C20 16.9551 21.8277 15.125 24.0842 15.125H64.9159Z" fill="#032064"/>
</g>
<defs>
<clipPath id="clip0_594_12405">
<rect width="90" height="70" fill="white"/>
</clipPath>
</defs>
</svg>
