<svg width="206" height="48" viewBox="0 0 206 48" fill="none" xmlns="http://www.w3.org/2000/svg">
<path d="M175.64 0.490234H30.3597C13.7764 0.490234 0.333008 11.1218 0.333008 24.2365C0.333008 37.3512 13.7764 47.9828 30.3597 47.9828H175.64C192.223 47.9828 205.666 37.3512 205.666 24.2365C205.666 11.1218 192.223 0.490234 175.64 0.490234Z" fill="#1C5E8A"/>
<path d="M51.913 28.4502C51.613 28.4502 51.373 28.3702 51.193 28.2102C51.033 28.0302 50.903 27.8602 50.803 27.7002L47.983 22.7502V32.6802C47.983 32.9002 47.903 33.0902 47.743 33.2502C47.583 33.4102 47.393 33.4902 47.173 33.4902H43.243C43.023 33.4902 42.833 33.4102 42.673 33.2502C42.513 33.0902 42.433 32.9002 42.433 32.6802V13.3002C42.433 13.0802 42.513 12.8902 42.673 12.7302C42.833 12.5702 43.023 12.4902 43.243 12.4902H46.723C47.123 12.4902 47.423 12.6002 47.623 12.8202C47.823 13.0402 47.953 13.2002 48.013 13.3002L52.873 21.6102L57.733 13.3002C57.793 13.2002 57.923 13.0402 58.123 12.8202C58.323 12.6002 58.623 12.4902 59.023 12.4902H62.503C62.723 12.4902 62.913 12.5702 63.073 12.7302C63.233 12.8902 63.313 13.0802 63.313 13.3002V32.6802C63.313 32.9002 63.233 33.0902 63.073 33.2502C62.913 33.4102 62.723 33.4902 62.503 33.4902H58.573C58.353 33.4902 58.163 33.4102 58.003 33.2502C57.843 33.0902 57.763 32.9002 57.763 32.6802V22.7502L54.943 27.7002C54.843 27.8602 54.703 28.0302 54.523 28.2102C54.363 28.3702 54.133 28.4502 53.833 28.4502H51.913ZM82.5411 28.6902C82.7611 28.6902 82.9511 28.7702 83.1111 28.9302C83.2711 29.0902 83.3511 29.2802 83.3511 29.5002V32.6802C83.3511 32.9002 83.2711 33.0902 83.1111 33.2502C82.9511 33.4102 82.7611 33.4902 82.5411 33.4902H68.3211C68.1011 33.4902 67.9111 33.4102 67.7511 33.2502C67.5911 33.0902 67.5111 32.9002 67.5111 32.6802V13.3002C67.5111 13.0802 67.5911 12.8902 67.7511 12.7302C67.9111 12.5702 68.1011 12.4902 68.3211 12.4902H82.3011C82.5211 12.4902 82.7111 12.5702 82.8711 12.7302C83.0311 12.8902 83.1111 13.0802 83.1111 13.3002V16.4802C83.1111 16.7002 83.0311 16.8902 82.8711 17.0502C82.7111 17.2102 82.5211 17.2902 82.3011 17.2902H73.0611V20.5302H81.6411C81.8611 20.5302 82.0511 20.6102 82.2111 20.7702C82.3711 20.9302 82.4511 21.1202 82.4511 21.3402V24.5202C82.4511 24.7402 82.3711 24.9302 82.2111 25.0902C82.0511 25.2502 81.8611 25.3302 81.6411 25.3302H73.0611V28.6902H82.5411ZM95.5485 12.4902C96.9285 12.4902 98.1885 12.7002 99.3285 13.1202C100.468 13.5202 101.448 14.0902 102.268 14.8302C103.108 15.5702 103.758 16.4602 104.218 17.5002C104.698 18.5202 104.968 19.6402 105.028 20.8602C105.048 21.2802 105.058 21.6702 105.058 22.0302C105.058 22.3702 105.058 22.7002 105.058 23.0202C105.058 23.3402 105.058 23.6702 105.058 24.0102C105.058 24.3502 105.048 24.7202 105.028 25.1202C104.968 26.3602 104.708 27.4902 104.248 28.5102C103.788 29.5302 103.148 30.4102 102.328 31.1502C101.528 31.8902 100.568 32.4702 99.4485 32.8902C98.3285 33.2902 97.0785 33.4902 95.6985 33.4902H87.5985C87.3785 33.4902 87.1885 33.4102 87.0285 33.2502C86.8685 33.0902 86.7885 32.9002 86.7885 32.6802V13.3002C86.7885 13.0802 86.8685 12.8902 87.0285 12.7302C87.1885 12.5702 87.3785 12.4902 87.5985 12.4902H95.5485ZM99.4785 20.7402C99.3585 18.4402 97.9985 17.2902 95.3985 17.2902H92.3385V28.6902H95.5485C98.0685 28.6902 99.3785 27.5402 99.4785 25.2402C99.4985 24.8202 99.5085 24.4302 99.5085 24.0702C99.5085 23.6902 99.5085 23.3302 99.5085 22.9902C99.5085 22.6302 99.5085 22.2702 99.5085 21.9102C99.5085 21.5502 99.4985 21.1602 99.4785 20.7402ZM109.278 33.4902C109.058 33.4902 108.868 33.4102 108.708 33.2502C108.548 33.0902 108.468 32.9002 108.468 32.6802V13.3002C108.468 13.0802 108.548 12.8902 108.708 12.7302C108.868 12.5702 109.058 12.4902 109.278 12.4902H113.208C113.428 12.4902 113.618 12.5702 113.778 12.7302C113.938 12.8902 114.018 13.0802 114.018 13.3002V32.6802C114.018 32.9002 113.938 33.0902 113.778 33.2502C113.618 33.4102 113.428 33.4902 113.208 33.4902H109.278ZM135.444 12.4902C135.664 12.4902 135.854 12.5702 136.014 12.7302C136.174 12.8902 136.254 13.0802 136.254 13.3002V25.2702C136.254 26.6502 136.034 27.8702 135.594 28.9302C135.154 29.9902 134.524 30.8802 133.704 31.6002C132.904 32.3202 131.944 32.8702 130.824 33.2502C129.704 33.6102 128.474 33.7902 127.134 33.7902C125.774 33.7902 124.534 33.6102 123.414 33.2502C122.294 32.8702 121.334 32.3202 120.534 31.6002C119.734 30.8802 119.114 29.9902 118.674 28.9302C118.234 27.8702 118.014 26.6502 118.014 25.2702V13.3002C118.014 13.0802 118.094 12.8902 118.254 12.7302C118.414 12.5702 118.604 12.4902 118.824 12.4902H122.754C122.974 12.4902 123.164 12.5702 123.324 12.7302C123.484 12.8902 123.564 13.0802 123.564 13.3002V25.1502C123.564 26.3502 123.854 27.2902 124.434 27.9702C125.034 28.6502 125.934 28.9902 127.134 28.9902C128.334 28.9902 129.224 28.6502 129.804 27.9702C130.404 27.2902 130.704 26.3502 130.704 25.1502V13.3002C130.704 13.0802 130.784 12.8902 130.944 12.7302C131.104 12.5702 131.294 12.4902 131.514 12.4902H135.444ZM149.735 28.4502C149.435 28.4502 149.195 28.3702 149.015 28.2102C148.855 28.0302 148.725 27.8602 148.625 27.7002L145.805 22.7502V32.6802C145.805 32.9002 145.725 33.0902 145.565 33.2502C145.405 33.4102 145.215 33.4902 144.995 33.4902H141.065C140.845 33.4902 140.655 33.4102 140.495 33.2502C140.335 33.0902 140.255 32.9002 140.255 32.6802V13.3002C140.255 13.0802 140.335 12.8902 140.495 12.7302C140.655 12.5702 140.845 12.4902 141.065 12.4902H144.545C144.945 12.4902 145.245 12.6002 145.445 12.8202C145.645 13.0402 145.775 13.2002 145.835 13.3002L150.695 21.6102L155.555 13.3002C155.615 13.2002 155.745 13.0402 155.945 12.8202C156.145 12.6002 156.445 12.4902 156.845 12.4902H160.325C160.545 12.4902 160.735 12.5702 160.895 12.7302C161.055 12.8902 161.135 13.0802 161.135 13.3002V32.6802C161.135 32.9002 161.055 33.0902 160.895 33.2502C160.735 33.4102 160.545 33.4902 160.325 33.4902H156.395C156.175 33.4902 155.985 33.4102 155.825 33.2502C155.665 33.0902 155.585 32.9002 155.585 32.6802V22.7502L152.765 27.7002C152.665 27.8602 152.525 28.0302 152.345 28.2102C152.185 28.3702 151.955 28.4502 151.655 28.4502H149.735Z" fill="white"/>
</svg>
