<svg width="244" height="60" viewBox="0 0 244 60" fill="none" xmlns="http://www.w3.org/2000/svg">
<path d="M203.39 4.74707H40.6041C22.0011 4.74707 6.92041 15.8303 6.92041 29.5021C6.92041 43.1739 22.0011 54.2571 40.6041 54.2571H203.39C221.993 54.2571 237.074 43.1739 237.074 29.5021C237.074 15.8303 221.993 4.74707 203.39 4.74707Z" fill="white"/>
<path d="M203.395 50.5874H40.6041C32.105 50.5842 23.9222 48.2181 17.6983 43.9641C11.4745 39.7102 7.67028 33.8833 7.04952 27.6533C6.98496 28.2623 6.92041 28.8712 6.92041 29.492C6.92041 32.7429 7.79171 35.9621 9.48455 38.9655C11.1774 41.9689 13.6586 44.6979 16.7865 46.9964C19.9144 49.295 23.6277 51.1182 27.7144 52.362C31.801 53.6057 36.181 54.2456 40.6041 54.245H203.395C207.819 54.2456 212.199 53.6057 216.285 52.362C220.372 51.1182 224.085 49.295 227.213 46.9964C230.341 44.6979 232.822 41.9689 234.515 38.9655C236.208 35.9621 237.079 32.7429 237.079 29.492C237.079 28.8712 237.009 28.2623 236.95 27.6533C236.329 33.8833 232.525 39.7102 226.301 43.9641C220.077 48.2181 211.895 50.5842 203.395 50.5874Z" fill="#999999"/>
<path d="M203.396 4.74697C212.329 4.74697 220.897 7.35528 227.214 11.9981C233.531 16.641 237.079 22.938 237.079 29.5039C237.079 32.7549 236.208 35.974 234.515 38.9774C232.822 41.9809 230.341 44.7098 227.213 47.0084C224.085 49.307 220.372 51.1302 216.285 52.3739C212.199 53.6176 207.819 54.2575 203.396 54.257H40.6044C36.1812 54.2575 31.8013 53.6176 27.7146 52.3739C23.6279 51.1302 19.9146 49.307 16.7867 47.0084C13.6588 44.7098 11.1776 41.9809 9.48475 38.9774C7.79192 35.974 6.92062 32.7549 6.92062 29.5039C6.92062 22.938 10.4694 16.641 16.7863 11.9981C23.1033 7.35528 31.6709 4.74697 40.6044 4.74697H203.396ZM203.396 0.00197722H40.6044C35.2944 -0.0432076 30.025 0.686462 25.1015 2.14871C20.1779 3.61095 15.6981 5.7767 11.9214 8.52052C8.14478 11.2643 5.14646 14.5317 3.10009 18.1332C1.05373 21.7348 0 25.599 0 29.502C0 33.405 1.05373 37.2692 3.10009 40.8707C5.14646 44.4723 8.14478 47.7396 11.9214 50.4834C15.6981 53.2272 20.1779 55.393 25.1015 56.8552C30.025 58.3175 35.2944 59.0472 40.6044 59.002H203.396C208.706 59.0472 213.975 58.3175 218.899 56.8552C223.822 55.393 228.302 53.2272 232.079 50.4834C235.855 47.7396 238.854 44.4723 240.9 40.8707C242.946 37.2692 244 33.405 244 29.502C244 25.599 242.946 21.7348 240.9 18.1332C238.854 14.5317 235.855 11.2643 232.079 8.52052C228.302 5.7767 223.822 3.61095 218.899 2.14871C213.975 0.686462 208.706 -0.0432076 203.396 0.00197722Z" fill="#6890FF"/>
<path d="M58.936 36C58.7893 36 58.6573 35.9487 58.54 35.846C58.4227 35.7287 58.364 35.5893 58.364 35.428V21.172C58.364 21.0107 58.4227 20.8787 58.54 20.776C58.6573 20.6587 58.7893 20.6 58.936 20.6H61.862C62.126 20.6 62.3167 20.666 62.434 20.798C62.5513 20.9153 62.632 21.0033 62.676 21.062L67.208 28.344V21.172C67.208 21.0107 67.2667 20.8787 67.384 20.776C67.5013 20.6587 67.6333 20.6 67.78 20.6H71.102C71.2633 20.6 71.3953 20.6587 71.498 20.776C71.6153 20.8787 71.674 21.0107 71.674 21.172V35.428C71.674 35.5893 71.6153 35.7287 71.498 35.846C71.3953 35.9487 71.2633 36 71.102 36H68.198C67.9193 36 67.7213 35.9413 67.604 35.824C67.4867 35.692 67.406 35.5967 67.362 35.538L62.83 28.674V35.428C62.83 35.5893 62.7713 35.7287 62.654 35.846C62.5513 35.9487 62.4193 36 62.258 36H58.936ZM82.0683 36.22C80.6603 36.22 79.4356 36 78.3943 35.56C77.3676 35.12 76.5536 34.46 75.9523 33.58C75.3656 32.6853 75.0503 31.578 75.0063 30.258C74.9916 29.642 74.9843 29.0113 74.9843 28.366C74.9843 27.706 74.9916 27.0533 75.0063 26.408C75.0503 25.1027 75.3656 24.0027 75.9523 23.108C76.5536 22.2133 77.375 21.5387 78.4163 21.084C79.4576 20.6147 80.675 20.38 82.0683 20.38C83.447 20.38 84.657 20.6147 85.6983 21.084C86.7396 21.5387 87.561 22.2133 88.1623 23.108C88.7636 24.0027 89.079 25.1027 89.1083 26.408C89.1376 27.0533 89.1523 27.706 89.1523 28.366C89.1523 29.0113 89.1376 29.642 89.1083 30.258C89.0643 31.578 88.7416 32.6853 88.1403 33.58C87.5536 34.46 86.7396 35.12 85.6983 35.56C84.6716 36 83.4616 36.22 82.0683 36.22ZM82.0683 32.48C82.6843 32.48 83.1903 32.2967 83.5863 31.93C83.9823 31.5487 84.1876 30.9473 84.2023 30.126C84.2316 29.4953 84.2463 28.8867 84.2463 28.3C84.2463 27.6987 84.2316 27.09 84.2023 26.474C84.1876 25.9313 84.085 25.484 83.8943 25.132C83.7183 24.78 83.469 24.5233 83.1463 24.362C82.8383 24.2007 82.479 24.12 82.0683 24.12C81.6576 24.12 81.291 24.2007 80.9683 24.362C80.6456 24.5233 80.389 24.78 80.1983 25.132C80.0223 25.484 79.927 25.9313 79.9123 26.474C79.8976 27.09 79.8903 27.6987 79.8903 28.3C79.8903 28.8867 79.8976 29.4953 79.9123 30.126C79.9416 30.9473 80.147 31.5487 80.5283 31.93C80.9243 32.2967 81.4376 32.48 82.0683 32.48ZM96.1873 36C96.026 36 95.8867 35.9487 95.7693 35.846C95.6667 35.7287 95.6153 35.5893 95.6153 35.428V24.692H91.8313C91.67 24.692 91.5307 24.6407 91.4133 24.538C91.3107 24.4207 91.2593 24.2813 91.2593 24.12V21.172C91.2593 21.0107 91.3107 20.8787 91.4133 20.776C91.5307 20.6587 91.67 20.6 91.8313 20.6H104.195C104.357 20.6 104.489 20.6587 104.591 20.776C104.709 20.8787 104.767 21.0107 104.767 21.172V24.12C104.767 24.2813 104.709 24.4207 104.591 24.538C104.489 24.6407 104.357 24.692 104.195 24.692H100.411V35.428C100.411 35.5893 100.353 35.7287 100.235 35.846C100.133 35.9487 100.001 36 99.8393 36H96.1873ZM108.119 36C107.972 36 107.84 35.9487 107.723 35.846C107.606 35.7287 107.547 35.5893 107.547 35.428V21.172C107.547 21.0107 107.606 20.8787 107.723 20.776C107.84 20.6587 107.972 20.6 108.119 20.6H111.859C112.02 20.6 112.152 20.6587 112.255 20.776C112.372 20.8787 112.431 21.0107 112.431 21.172V35.428C112.431 35.5893 112.372 35.7287 112.255 35.846C112.152 35.9487 112.02 36 111.859 36H108.119ZM116.714 36C116.568 36 116.436 35.9487 116.318 35.846C116.201 35.7287 116.142 35.5893 116.142 35.428V21.172C116.142 21.0107 116.201 20.8787 116.318 20.776C116.436 20.6587 116.568 20.6 116.714 20.6H127.318C127.48 20.6 127.619 20.6587 127.736 20.776C127.854 20.8787 127.912 21.0107 127.912 21.172V23.966C127.912 24.1127 127.854 24.2447 127.736 24.362C127.619 24.4793 127.48 24.538 127.318 24.538H120.784V26.958H126.878C127.04 26.958 127.179 27.0167 127.296 27.134C127.414 27.2367 127.472 27.3687 127.472 27.53V30.302C127.472 30.4633 127.414 30.6027 127.296 30.72C127.179 30.8227 127.04 30.874 126.878 30.874H120.784V35.428C120.784 35.5893 120.726 35.7287 120.608 35.846C120.506 35.9487 120.374 36 120.212 36H116.714ZM131.605 36C131.458 36 131.326 35.9487 131.209 35.846C131.091 35.7287 131.033 35.5893 131.033 35.428V21.172C131.033 21.0107 131.091 20.8787 131.209 20.776C131.326 20.6587 131.458 20.6 131.605 20.6H135.345C135.506 20.6 135.638 20.6587 135.741 20.776C135.858 20.8787 135.917 21.0107 135.917 21.172V35.428C135.917 35.5893 135.858 35.7287 135.741 35.846C135.638 35.9487 135.506 36 135.345 36H131.605ZM146.272 36.22C144.879 36.22 143.662 36.0073 142.62 35.582C141.579 35.142 140.758 34.482 140.156 33.602C139.57 32.722 139.247 31.6073 139.188 30.258C139.174 29.6567 139.166 29.0113 139.166 28.322C139.166 27.6327 139.174 26.9727 139.188 26.342C139.247 25.022 139.577 23.922 140.178 23.042C140.794 22.1473 141.623 21.48 142.664 21.04C143.72 20.6 144.923 20.38 146.272 20.38C147.24 20.38 148.142 20.4973 148.978 20.732C149.829 20.952 150.584 21.2967 151.244 21.766C151.904 22.2207 152.425 22.7927 152.806 23.482C153.188 24.1567 153.386 24.9487 153.4 25.858C153.4 25.99 153.349 26.1 153.246 26.188C153.158 26.276 153.048 26.32 152.916 26.32H149.198C148.978 26.32 148.817 26.276 148.714 26.188C148.612 26.1 148.524 25.946 148.45 25.726C148.26 25.0953 147.981 24.67 147.614 24.45C147.248 24.23 146.8 24.12 146.272 24.12C145.627 24.12 145.114 24.296 144.732 24.648C144.351 24.9853 144.146 25.5867 144.116 26.452C144.072 27.6547 144.072 28.8867 144.116 30.148C144.146 31.0133 144.351 31.622 144.732 31.974C145.114 32.3113 145.627 32.48 146.272 32.48C146.8 32.48 147.248 32.3627 147.614 32.128C147.996 31.8933 148.274 31.4753 148.45 30.874C148.509 30.6393 148.59 30.4853 148.692 30.412C148.81 30.324 148.978 30.28 149.198 30.28H152.916C153.048 30.28 153.158 30.324 153.246 30.412C153.349 30.5 153.4 30.61 153.4 30.742C153.386 31.6513 153.188 32.4507 152.806 33.14C152.425 33.8147 151.904 34.3867 151.244 34.856C150.584 35.3107 149.829 35.6553 148.978 35.89C148.142 36.11 147.24 36.22 146.272 36.22ZM155.402 36C155.27 36 155.153 35.956 155.05 35.868C154.962 35.7653 154.918 35.648 154.918 35.516C154.918 35.4573 154.933 35.406 154.962 35.362L159.978 21.282C160.022 21.1207 160.118 20.9667 160.264 20.82C160.426 20.6733 160.638 20.6 160.902 20.6H164.928C165.207 20.6 165.42 20.6733 165.566 20.82C165.713 20.9667 165.808 21.1207 165.852 21.282L170.89 35.362C170.905 35.406 170.912 35.4573 170.912 35.516C170.912 35.648 170.861 35.7653 170.758 35.868C170.67 35.956 170.56 36 170.428 36H167.04C166.791 36 166.608 35.9413 166.49 35.824C166.373 35.7067 166.292 35.5967 166.248 35.494L165.566 33.646H160.264L159.582 35.494C159.538 35.5967 159.458 35.7067 159.34 35.824C159.238 35.9413 159.054 36 158.79 36H155.402ZM161.276 29.928H164.554L162.904 24.978L161.276 29.928ZM175.797 36C175.636 36 175.497 35.9487 175.379 35.846C175.277 35.7287 175.225 35.5893 175.225 35.428V24.692H171.441C171.28 24.692 171.141 24.6407 171.023 24.538C170.921 24.4207 170.869 24.2813 170.869 24.12V21.172C170.869 21.0107 170.921 20.8787 171.023 20.776C171.141 20.6587 171.28 20.6 171.441 20.6H183.805C183.967 20.6 184.099 20.6587 184.201 20.776C184.319 20.8787 184.377 21.0107 184.377 21.172V24.12C184.377 24.2813 184.319 24.4207 184.201 24.538C184.099 24.6407 183.967 24.692 183.805 24.692H180.021V35.428C180.021 35.5893 179.963 35.7287 179.845 35.846C179.743 35.9487 179.611 36 179.449 36H175.797ZM187.729 36C187.582 36 187.45 35.9487 187.333 35.846C187.215 35.7287 187.157 35.5893 187.157 35.428V21.172C187.157 21.0107 187.215 20.8787 187.333 20.776C187.45 20.6587 187.582 20.6 187.729 20.6H191.469C191.63 20.6 191.762 20.6587 191.865 20.776C191.982 20.8787 192.041 21.0107 192.041 21.172V35.428C192.041 35.5893 191.982 35.7287 191.865 35.846C191.762 35.9487 191.63 36 191.469 36H187.729ZM202.396 36.22C200.988 36.22 199.764 36 198.722 35.56C197.696 35.12 196.882 34.46 196.28 33.58C195.694 32.6853 195.378 31.578 195.334 30.258C195.32 29.642 195.312 29.0113 195.312 28.366C195.312 27.706 195.32 27.0533 195.334 26.408C195.378 25.1027 195.694 24.0027 196.28 23.108C196.882 22.2133 197.703 21.5387 198.744 21.084C199.786 20.6147 201.003 20.38 202.396 20.38C203.775 20.38 204.985 20.6147 206.026 21.084C207.068 21.5387 207.889 22.2133 208.49 23.108C209.092 24.0027 209.407 25.1027 209.436 26.408C209.466 27.0533 209.48 27.706 209.48 28.366C209.48 29.0113 209.466 29.642 209.436 30.258C209.392 31.578 209.07 32.6853 208.468 33.58C207.882 34.46 207.068 35.12 206.026 35.56C205 36 203.79 36.22 202.396 36.22ZM202.396 32.48C203.012 32.48 203.518 32.2967 203.914 31.93C204.31 31.5487 204.516 30.9473 204.53 30.126C204.56 29.4953 204.574 28.8867 204.574 28.3C204.574 27.6987 204.56 27.09 204.53 26.474C204.516 25.9313 204.413 25.484 204.222 25.132C204.046 24.78 203.797 24.5233 203.474 24.362C203.166 24.2007 202.807 24.12 202.396 24.12C201.986 24.12 201.619 24.2007 201.296 24.362C200.974 24.5233 200.717 24.78 200.526 25.132C200.35 25.484 200.255 25.9313 200.24 26.474C200.226 27.09 200.218 27.6987 200.218 28.3C200.218 28.8867 200.226 29.4953 200.24 30.126C200.27 30.9473 200.475 31.5487 200.856 31.93C201.252 32.2967 201.766 32.48 202.396 32.48ZM213.299 36C213.152 36 213.02 35.9487 212.903 35.846C212.785 35.7287 212.727 35.5893 212.727 35.428V21.172C212.727 21.0107 212.785 20.8787 212.903 20.776C213.02 20.6587 213.152 20.6 213.299 20.6H216.225C216.489 20.6 216.679 20.666 216.797 20.798C216.914 20.9153 216.995 21.0033 217.039 21.062L221.571 28.344V21.172C221.571 21.0107 221.629 20.8787 221.747 20.776C221.864 20.6587 221.996 20.6 222.143 20.6H225.465C225.626 20.6 225.758 20.6587 225.861 20.776C225.978 20.8787 226.037 21.0107 226.037 21.172V35.428C226.037 35.5893 225.978 35.7287 225.861 35.846C225.758 35.9487 225.626 36 225.465 36H222.561C222.282 36 222.084 35.9413 221.967 35.824C221.849 35.692 221.769 35.5967 221.725 35.538L217.193 28.674V35.428C217.193 35.5893 217.134 35.7287 217.017 35.846C216.914 35.9487 216.782 36 216.621 36H213.299Z" fill="#032064"/>
<mask id="path-5-outside-1_1_2710" maskUnits="userSpaceOnUse" x="21" y="13" width="29" height="29" fill="black">
<rect fill="white" x="21" y="13" width="29" height="29"/>
<path d="M49 35.8571V37.1429H22V35.8571L25 33.2857V25.5714C25 21.5857 28.045 18.0757 32.5 16.9443V16.5714C32.5 15.8894 32.8161 15.2354 33.3787 14.7532C33.9413 14.2709 34.7044 14 35.5 14C36.2956 14 37.0587 14.2709 37.6213 14.7532C38.1839 15.2354 38.5 15.8894 38.5 16.5714V16.9443C42.955 18.0757 46 21.5857 46 25.5714V33.2857L49 35.8571ZM38.5 38.4286C38.5 39.1106 38.1839 39.7646 37.6213 40.2468C37.0587 40.7291 36.2956 41 35.5 41C34.7044 41 33.9413 40.7291 33.3787 40.2468C32.8161 39.7646 32.5 39.1106 32.5 38.4286"/>
</mask>
<path d="M49 35.8571V37.1429H22V35.8571L25 33.2857V25.5714C25 21.5857 28.045 18.0757 32.5 16.9443V16.5714C32.5 15.8894 32.8161 15.2354 33.3787 14.7532C33.9413 14.2709 34.7044 14 35.5 14C36.2956 14 37.0587 14.2709 37.6213 14.7532C38.1839 15.2354 38.5 15.8894 38.5 16.5714V16.9443C42.955 18.0757 46 21.5857 46 25.5714V33.2857L49 35.8571ZM38.5 38.4286C38.5 39.1106 38.1839 39.7646 37.6213 40.2468C37.0587 40.7291 36.2956 41 35.5 41C34.7044 41 33.9413 40.7291 33.3787 40.2468C32.8161 39.7646 32.5 39.1106 32.5 38.4286" fill="#032064"/>
<path d="M49 35.8571H50V35.3972L49.6508 35.0979L49 35.8571ZM49 37.1429V38.1429H50V37.1429H49ZM22 37.1429H21V38.1429H22V37.1429ZM22 35.8571L21.3492 35.0979L21 35.3972V35.8571H22ZM25 33.2857L25.6508 34.045L26 33.7456V33.2857H25ZM32.5 16.9443L32.7462 17.9135L33.5 17.7221V16.9443H32.5ZM35.5 14V13V14ZM38.5 16.9443H37.5V17.7221L38.2538 17.9135L38.5 16.9443ZM46 33.2857H45V33.7456L45.3492 34.045L46 33.2857ZM48 35.8571V37.1429H50V35.8571H48ZM49 36.1429H22V38.1429H49V36.1429ZM23 37.1429V35.8571H21V37.1429H23ZM22.6508 36.6164L25.6508 34.045L24.3492 32.5265L21.3492 35.0979L22.6508 36.6164ZM26 33.2857V25.5714H24V33.2857H26ZM26 25.5714C26 22.1316 28.6426 18.9557 32.7462 17.9135L32.2538 15.9751C27.4474 17.1957 24 21.0398 24 25.5714H26ZM33.5 16.9443V16.5714H31.5V16.9443H33.5ZM33.5 16.5714C33.5 16.2088 33.6668 15.8233 34.0295 15.5124L32.7279 13.9939C31.9653 14.6475 31.5 15.5701 31.5 16.5714H33.5ZM34.0295 15.5124C34.3969 15.1975 34.924 15 35.5 15V13C34.4847 13 33.4857 13.3444 32.7279 13.9939L34.0295 15.5124ZM35.5 15C36.076 15 36.6031 15.1975 36.9705 15.5124L38.2721 13.9939C37.5143 13.3444 36.5153 13 35.5 13V15ZM36.9705 15.5124C37.3332 15.8233 37.5 16.2088 37.5 16.5714H39.5C39.5 15.5701 39.0347 14.6475 38.2721 13.9939L36.9705 15.5124ZM37.5 16.5714V16.9443H39.5V16.5714H37.5ZM38.2538 17.9135C42.3574 18.9557 45 22.1316 45 25.5714H47C47 21.0398 43.5526 17.1957 38.7462 15.9751L38.2538 17.9135ZM45 25.5714V33.2857H47V25.5714H45ZM45.3492 34.045L48.3492 36.6164L49.6508 35.0979L46.6508 32.5265L45.3492 34.045ZM37.5 38.4286C37.5 38.7912 37.3332 39.1767 36.9705 39.4876L38.2721 41.0061C39.0347 40.3525 39.5 39.4299 39.5 38.4286H37.5ZM36.9705 39.4876C36.6031 39.8025 36.076 40 35.5 40V42C36.5153 42 37.5143 41.6556 38.2721 41.0061L36.9705 39.4876ZM35.5 40C34.924 40 34.3969 39.8025 34.0295 39.4876L32.7279 41.0061C33.4857 41.6556 34.4847 42 35.5 42V40ZM34.0295 39.4876C33.6668 39.1767 33.5 38.7912 33.5 38.4286H31.5C31.5 39.4299 31.9653 40.3525 32.7279 41.0061L34.0295 39.4876Z" fill="#6890FF" mask="url(#path-5-outside-1_1_2710)"/>
</svg>
