<svg width="183" height="60" viewBox="0 0 183 60" fill="none" xmlns="http://www.w3.org/2000/svg">
<path d="M152.543 4.75098H30.4537C16.5015 4.75098 5.19092 15.8442 5.19092 29.5284C5.19092 43.2126 16.5015 54.3059 30.4537 54.3059H152.543C166.495 54.3059 177.806 43.2126 177.806 29.5284C177.806 15.8442 166.495 4.75098 152.543 4.75098Z" fill="white"/>
<path d="M152.547 50.6331H30.4537C24.0794 50.6298 17.9423 48.2616 13.2744 44.0038C8.60646 39.746 5.75332 33.9139 5.28775 27.6782C5.23933 28.2877 5.19092 28.8972 5.19092 29.5186C5.19092 32.7725 5.8444 35.9945 7.11402 39.0007C8.38364 42.0068 10.2445 44.7382 12.5905 47.0389C14.9364 49.3395 17.7214 51.1644 20.7864 52.4093C23.8514 53.6541 27.1364 54.2946 30.4537 54.294H152.547C155.865 54.2946 159.15 53.6541 162.215 52.4093C165.28 51.1644 168.065 49.3395 170.41 47.0389C172.756 44.7382 174.617 42.0068 175.887 39.0007C177.157 35.9945 177.81 32.7725 177.81 29.5186C177.81 28.8972 177.758 28.2877 177.713 27.6782C177.248 33.9139 174.394 39.746 169.727 44.0038C165.059 48.2616 158.922 50.6298 152.547 50.6331Z" fill="#999999"/>
<path d="M152.547 4.75127C159.247 4.75127 165.673 7.36195 170.41 12.009C175.148 16.656 177.81 22.9588 177.81 29.5307C177.81 32.7846 177.156 36.0066 175.886 39.0128C174.617 42.0189 172.756 44.7503 170.41 47.051C168.064 49.3517 165.279 51.1765 162.214 52.4214C159.149 53.6662 155.864 54.3067 152.547 54.3062H30.4533C27.1359 54.3067 23.8509 53.6662 20.7859 52.4214C17.7209 51.1765 14.9359 49.3517 12.59 47.051C10.2441 44.7503 8.38319 42.0189 7.11357 39.0128C5.84394 36.0066 5.19046 32.7846 5.19046 29.5307C5.19046 22.9588 7.85206 16.656 12.5898 12.009C17.3275 7.36195 23.7532 4.75127 30.4533 4.75127H152.547ZM152.547 0.00197902H30.4533C26.4708 -0.0432467 22.5188 0.687084 18.8261 2.15066C15.1334 3.61423 11.7735 5.78194 8.94106 8.52824C6.10859 11.2745 3.85984 14.5448 2.32507 18.1497C0.790298 21.7545 0 25.6222 0 29.5287C0 33.4353 0.790298 37.3029 2.32507 40.9078C3.85984 44.5126 6.10859 47.7829 8.94106 50.5292C11.7735 53.2755 15.1334 55.4432 18.8261 56.9068C22.5188 58.3703 26.4708 59.1007 30.4533 59.0555H152.547C156.529 59.1007 160.481 58.3703 164.174 56.9068C167.867 55.4432 171.227 53.2755 174.059 50.5292C176.891 47.7829 179.14 44.5126 180.675 40.9078C182.21 37.3029 183 33.4353 183 29.5287C183 25.6222 182.21 21.7545 180.675 18.1497C179.14 14.5448 176.891 11.2745 174.059 8.52824C171.227 5.78194 167.867 3.61423 164.174 2.15066C160.481 0.687084 156.529 -0.0432467 152.547 0.00197902Z" fill="#6890FF"/>
<path d="M58.346 36C58.1847 36 58.0453 35.9487 57.928 35.846C57.8253 35.7287 57.774 35.5893 57.774 35.428V24.692H53.99C53.8287 24.692 53.6893 24.6407 53.572 24.538C53.4693 24.4207 53.418 24.2813 53.418 24.12V21.172C53.418 21.0107 53.4693 20.8787 53.572 20.776C53.6893 20.6587 53.8287 20.6 53.99 20.6H66.354C66.5153 20.6 66.6473 20.6587 66.75 20.776C66.8673 20.8787 66.926 21.0107 66.926 21.172V24.12C66.926 24.2813 66.8673 24.4207 66.75 24.538C66.6473 24.6407 66.5153 24.692 66.354 24.692H62.57V35.428C62.57 35.5893 62.5113 35.7287 62.394 35.846C62.2913 35.9487 62.1593 36 61.998 36H58.346ZM70.2776 36C70.1309 36 69.9989 35.9487 69.8816 35.846C69.7642 35.7287 69.7056 35.5893 69.7056 35.428V21.172C69.7056 21.0107 69.7642 20.8787 69.8816 20.776C69.9989 20.6587 70.1309 20.6 70.2776 20.6H76.5476C78.5422 20.6 80.1042 21.0547 81.2336 21.964C82.3776 22.8733 82.9496 24.142 82.9496 25.77C82.9496 26.7967 82.7149 27.6693 82.2456 28.388C81.7762 29.1067 81.1602 29.6713 80.3976 30.082L83.2576 35.274C83.3016 35.362 83.3236 35.4427 83.3236 35.516C83.3236 35.648 83.2796 35.7653 83.1916 35.868C83.1036 35.956 82.9936 36 82.8616 36H79.1436C78.8649 36 78.6522 35.934 78.5056 35.802C78.3589 35.6553 78.2636 35.5233 78.2196 35.406L76.0196 30.874H74.4356V35.428C74.4356 35.5893 74.3769 35.7287 74.2596 35.846C74.1569 35.9487 74.0249 36 73.8636 36H70.2776ZM74.4356 27.244H76.5256C77.0389 27.244 77.4202 27.1047 77.6696 26.826C77.9189 26.5327 78.0436 26.1733 78.0436 25.748C78.0436 25.308 77.9189 24.934 77.6696 24.626C77.4349 24.318 77.0536 24.164 76.5256 24.164H74.4356V27.244ZM85.4582 36C85.3262 36 85.2089 35.956 85.1062 35.868C85.0182 35.7653 84.9742 35.648 84.9742 35.516C84.9742 35.4573 84.9889 35.406 85.0182 35.362L90.0342 21.282C90.0782 21.1207 90.1736 20.9667 90.3202 20.82C90.4816 20.6733 90.6942 20.6 90.9583 20.6H94.9843C95.2629 20.6 95.4756 20.6733 95.6223 20.82C95.7689 20.9667 95.8643 21.1207 95.9083 21.282L100.946 35.362C100.961 35.406 100.968 35.4573 100.968 35.516C100.968 35.648 100.917 35.7653 100.814 35.868C100.726 35.956 100.616 36 100.484 36H97.0962C96.8469 36 96.6636 35.9413 96.5463 35.824C96.4289 35.7067 96.3483 35.5967 96.3043 35.494L95.6223 33.646H90.3202L89.6382 35.494C89.5942 35.5967 89.5136 35.7067 89.3962 35.824C89.2936 35.9413 89.1102 36 88.8462 36H85.4582ZM91.3322 29.928H94.6103L92.9602 24.978L91.3322 29.928ZM109.718 36.22C108.325 36.22 107.108 36.0073 106.066 35.582C105.025 35.142 104.204 34.482 103.602 33.602C103.016 32.722 102.693 31.6073 102.634 30.258C102.62 29.6567 102.612 29.0113 102.612 28.322C102.612 27.6327 102.62 26.9727 102.634 26.342C102.693 25.022 103.023 23.922 103.624 23.042C104.24 22.1473 105.069 21.48 106.11 21.04C107.166 20.6 108.369 20.38 109.718 20.38C110.686 20.38 111.588 20.4973 112.424 20.732C113.275 20.952 114.03 21.2967 114.69 21.766C115.35 22.2207 115.871 22.7927 116.252 23.482C116.634 24.1567 116.832 24.9487 116.846 25.858C116.846 25.99 116.795 26.1 116.692 26.188C116.604 26.276 116.494 26.32 116.362 26.32H112.644C112.424 26.32 112.263 26.276 112.16 26.188C112.058 26.1 111.97 25.946 111.896 25.726C111.706 25.0953 111.427 24.67 111.06 24.45C110.694 24.23 110.246 24.12 109.718 24.12C109.073 24.12 108.56 24.296 108.178 24.648C107.797 24.9853 107.592 25.5867 107.562 26.452C107.518 27.6547 107.518 28.8867 107.562 30.148C107.592 31.0133 107.797 31.622 108.178 31.974C108.56 32.3113 109.073 32.48 109.718 32.48C110.246 32.48 110.694 32.3627 111.06 32.128C111.442 31.8933 111.72 31.4753 111.896 30.874C111.955 30.6393 112.036 30.4853 112.138 30.412C112.256 30.324 112.424 30.28 112.644 30.28H116.362C116.494 30.28 116.604 30.324 116.692 30.412C116.795 30.5 116.846 30.61 116.846 30.742C116.832 31.6513 116.634 32.4507 116.252 33.14C115.871 33.8147 115.35 34.3867 114.69 34.856C114.03 35.3107 113.275 35.6553 112.424 35.89C111.588 36.11 110.686 36.22 109.718 36.22ZM120.427 36C120.281 36 120.149 35.9487 120.031 35.846C119.914 35.7287 119.855 35.5893 119.855 35.428V21.172C119.855 21.0107 119.914 20.8787 120.031 20.776C120.149 20.6587 120.281 20.6 120.427 20.6H123.925C124.087 20.6 124.219 20.6587 124.321 20.776C124.439 20.8787 124.497 21.0107 124.497 21.172V25.792L127.775 21.062C127.849 20.9593 127.951 20.8567 128.083 20.754C128.215 20.6513 128.399 20.6 128.633 20.6H132.659C132.791 20.6 132.901 20.6513 132.989 20.754C133.092 20.842 133.143 20.952 133.143 21.084C133.143 21.172 133.114 21.2527 133.055 21.326L128.435 27.97L133.451 35.274C133.51 35.3327 133.539 35.4133 133.539 35.516C133.539 35.648 133.488 35.7653 133.385 35.868C133.297 35.956 133.187 36 133.055 36H128.897C128.619 36 128.406 35.934 128.259 35.802C128.127 35.67 128.047 35.5747 128.017 35.516L124.497 30.412V35.428C124.497 35.5893 124.439 35.7287 124.321 35.846C124.219 35.9487 124.087 36 123.925 36H120.427ZM136.585 36C136.439 36 136.307 35.9487 136.189 35.846C136.072 35.7287 136.013 35.5893 136.013 35.428V21.172C136.013 21.0107 136.072 20.8787 136.189 20.776C136.307 20.6587 136.439 20.6 136.585 20.6H147.365C147.527 20.6 147.666 20.6587 147.783 20.776C147.901 20.8787 147.959 21.0107 147.959 21.172V23.768C147.959 23.9147 147.901 24.0467 147.783 24.164C147.666 24.2813 147.527 24.34 147.365 24.34H140.567V26.518H146.881C147.043 26.518 147.182 26.5767 147.299 26.694C147.417 26.7967 147.475 26.9287 147.475 27.09V29.466C147.475 29.6273 147.417 29.7667 147.299 29.884C147.182 29.9867 147.043 30.038 146.881 30.038H140.567V32.26H147.541C147.703 32.26 147.842 32.3187 147.959 32.436C148.077 32.5533 148.135 32.6927 148.135 32.854V35.428C148.135 35.5893 148.077 35.7287 147.959 35.846C147.842 35.9487 147.703 36 147.541 36H136.585ZM151.948 36C151.802 36 151.67 35.9487 151.552 35.846C151.435 35.7287 151.376 35.5893 151.376 35.428V21.172C151.376 21.0107 151.435 20.8787 151.552 20.776C151.67 20.6587 151.802 20.6 151.948 20.6H158.218C160.213 20.6 161.775 21.0547 162.904 21.964C164.048 22.8733 164.62 24.142 164.62 25.77C164.62 26.7967 164.386 27.6693 163.916 28.388C163.447 29.1067 162.831 29.6713 162.068 30.082L164.928 35.274C164.972 35.362 164.994 35.4427 164.994 35.516C164.994 35.648 164.95 35.7653 164.862 35.868C164.774 35.956 164.664 36 164.532 36H160.814C160.536 36 160.323 35.934 160.176 35.802C160.03 35.6553 159.934 35.5233 159.89 35.406L157.69 30.874H156.106V35.428C156.106 35.5893 156.048 35.7287 155.93 35.846C155.828 35.9487 155.696 36 155.534 36H151.948ZM156.106 27.244H158.196C158.71 27.244 159.091 27.1047 159.34 26.826C159.59 26.5327 159.714 26.1733 159.714 25.748C159.714 25.308 159.59 24.934 159.34 24.626C159.106 24.318 158.724 24.164 158.196 24.164H156.106V27.244Z" fill="#032064"/>
<g clip-path="url(#clip0_1_2679)">
<path d="M25.6285 40.1125L25.1717 39.858C23.1485 38.731 21.4632 37.0838 20.2902 35.0868C19.1172 33.0899 18.4992 30.8159 18.5 28.5L25.6285 40.1125ZM25.6285 40.1125L25.8623 39.6447M25.6285 40.1125L25.8623 39.6447M25.8623 39.6447L27.541 36.2847L27.7506 35.8653L27.3455 35.6293C25.779 34.7162 24.5569 33.3125 23.8683 31.6352C23.1796 29.9579 23.0626 28.1004 23.5355 26.35C24.0084 24.5995 25.0448 23.0536 26.4845 21.9513C27.9241 20.849 29.6868 20.2517 31.5 20.2517C33.3132 20.2517 35.0759 20.849 36.5155 21.9513C37.9552 23.0536 38.9916 24.5995 39.4645 26.35C39.9374 28.1004 39.8204 29.9579 39.1317 31.6352C38.4431 33.3125 37.221 34.7162 35.6545 35.6293L35.2494 35.8653L35.459 36.2847L37.1377 39.6447L37.3715 40.1125M25.8623 39.6447L37.3715 40.1125M37.3715 40.1125L37.8283 39.858M37.3715 40.1125L37.8283 39.858M37.8283 39.858C39.8515 38.731 41.5368 37.0838 42.7098 35.0868C43.8828 33.0899 44.5008 30.8159 44.5 28.5L37.8283 39.858ZM31.9472 33.2764L31.5 32.382L31.0528 33.2764L27.3028 40.7764L26.941 41.5H27.75H35.25H36.059L35.6972 40.7764L31.9472 33.2764ZM27.9535 34.2441L28.4189 34.5316L28.6635 34.0423L30.3572 30.6535L30.5353 30.2974L30.228 30.0442C29.9101 29.7822 29.6809 29.4284 29.5716 29.0312C29.4624 28.634 29.4784 28.2128 29.6176 27.825C29.7568 27.4373 30.0123 27.102 30.3492 26.865C30.6862 26.628 31.0881 26.5008 31.5 26.5008C31.9119 26.5008 32.3138 26.628 32.6508 26.865C32.9877 27.102 33.2432 27.4373 33.3824 27.825C33.5216 28.2128 33.5376 28.634 33.4284 29.0312C33.3191 29.4284 33.0899 29.7822 32.772 30.0442L32.4646 30.2975L32.6428 30.6537L34.3378 34.0424L34.5825 34.5315L35.0477 34.2441C36.2973 33.4723 37.2611 32.314 37.7928 30.9448C38.3245 29.5757 38.3951 28.0705 37.994 26.6576C37.5928 25.2447 36.7417 24.0012 35.5699 23.1158C34.398 22.2303 32.9694 21.7513 31.5006 21.7513C30.0319 21.7513 28.6032 22.2303 27.4314 23.1158C26.2595 24.0012 25.4085 25.2447 25.0073 26.6576C24.6061 28.0705 24.6767 29.5757 25.2084 30.9448C25.7401 32.314 26.7039 33.4723 27.9535 34.2441ZM31.5 15.5C24.3202 15.5 18.5001 21.32 18.5 28.4998H44.5C44.4999 21.32 38.6798 15.5 31.5 15.5Z" fill="#032064" stroke="#6890FF"/>
</g>
<defs>
<clipPath id="clip0_1_2679">
<rect width="27" height="27" fill="white" transform="translate(18 15)"/>
</clipPath>
</defs>
</svg>
