<svg width="92" height="92" viewBox="0 0 92 92" fill="none" xmlns="http://www.w3.org/2000/svg">
<path d="M46 92C71.4051 92 92 71.4051 92 46C92 20.595 71.4051 0 46 0C20.5949 0 0 20.595 0 46C0 71.4051 20.5949 92 46 92Z" fill="#22A6B3"/>
<path d="M46.5239 18.6851L52.826 33.8078C52.9143 34.0263 53.0472 34.2153 53.2126 34.3578C53.3781 34.5002 53.5709 34.5916 53.7737 34.6236L67.8797 37.0422C68.1153 37.0673 68.3397 37.1723 68.5262 37.3445C68.7128 37.5167 68.8534 37.7489 68.9313 38.0133C69.0093 38.2777 69.0211 38.563 68.9656 38.8352C68.91 39.1074 68.7895 39.3549 68.6182 39.548L58.4018 51.3198C58.2606 51.4908 58.155 51.6981 58.093 51.9257C58.0311 52.1532 58.0147 52.3946 58.045 52.631L60.5067 69.2543C60.5534 69.5278 60.5328 69.8113 60.4474 70.0713C60.3619 70.3313 60.2151 70.5568 60.0246 70.7209C59.834 70.8851 59.6076 70.9811 59.3723 70.9975C59.137 71.0139 58.9027 70.9499 58.6972 70.8133L46.0807 62.9605C45.9026 62.8483 45.704 62.7895 45.5022 62.7895C45.3004 62.7895 45.1018 62.8483 44.9237 62.9605L32.3072 70.8133C32.1017 70.9499 31.8674 71.0139 31.6321 70.9975C31.3968 70.9811 31.1704 70.8851 30.9798 70.7209C30.7893 70.5568 30.6426 70.3313 30.5572 70.0713C30.4717 69.8113 30.4511 69.5278 30.4978 69.2543L32.9596 52.631C32.9961 52.3945 32.9825 52.1511 32.9202 51.9223C32.8579 51.6935 32.7488 51.4866 32.6026 51.3198L22.3985 39.548C22.2248 39.3593 22.1007 39.1156 22.0406 38.8458C21.9805 38.576 21.9872 38.2914 22.0598 38.0259C22.1324 37.7604 22.2678 37.5252 22.45 37.3482C22.6323 37.1712 22.8537 37.06 23.0879 37.0276L37.1937 34.6091C37.3944 34.5748 37.5848 34.4824 37.748 34.3401C37.9112 34.1977 38.0421 34.0099 38.1292 33.7932L44.4437 18.6705C44.5557 18.4636 44.7102 18.2937 44.8926 18.1764C45.0751 18.0592 45.2796 17.9986 45.4872 18C45.6948 18.0015 45.8987 18.065 46.0799 18.1848C46.2612 18.3046 46.414 18.4767 46.5239 18.6851Z" fill="white"/>
</svg>
