<svg width="66" height="62" viewBox="0 0 66 62" fill="none" xmlns="http://www.w3.org/2000/svg">
<path d="M61.9484 29.3324C61.9484 29.1287 61.914 28.9325 61.8882 28.6647V28.544C61.8538 28.295 61.8108 28.0611 61.7591 27.8234C61.7204 27.6574 61.6817 27.5027 61.6344 27.3594C61.5495 27.1019 61.4446 26.8498 61.3204 26.6049L60.8086 26.7445L61.2817 26.5143C61.2482 26.451 61.2109 26.3893 61.1699 26.3295C61.1011 26.2125 61.0322 26.0956 60.9548 25.9824C60.8774 25.8693 60.8344 25.824 60.7785 25.7448C60.7226 25.6655 60.6107 25.541 60.5161 25.4354L60.4387 25.3486C60.357 25.2619 60.271 25.1826 60.1806 25.0997L56.486 21.8251C54.5505 20.1011 51.4666 19.969 48.9805 19.8596C48.7311 19.8596 47.7762 19.8031 46.5977 19.7578L46.9332 18.4638C47.0665 17.947 47.187 17.4339 47.3031 16.8303C47.4063 16.2833 47.4752 15.7853 47.5139 15.3213V15.2081C47.5397 14.8309 47.544 14.431 47.5139 14.0462V13.9179C47.4913 13.5304 47.4381 13.1447 47.3547 12.7635L47.3246 12.6202C47.2633 12.3573 47.1843 12.0978 47.0881 11.8431L47.0321 11.6997C46.9504 11.4922 46.8558 11.2847 46.7397 11.0546L46.6235 10.8396C46.5289 10.6698 46.4257 10.5038 46.2708 10.2737L46.1676 10.1228C45.9953 9.87958 45.8072 9.64529 45.6042 9.4211L45.5095 9.31924C45.4493 9.25511 45.3848 9.19474 45.316 9.13438L41.6299 5.84853C40.3396 4.71677 37.8923 4 35.1783 4C32.0643 4 28.318 5.02612 27.1266 7.91209C26.0083 10.6358 25.8363 13.4011 25.6599 16.0758V16.1663C25.5954 17.2755 25.5223 18.4299 25.3846 19.6144C22.1975 19.7578 13.9437 20.5726 12.748 20.9273C10.348 21.6818 8.24902 23.8736 7.3974 26.5596C6.50707 29.3928 7.12643 32.1128 9.11785 34.0216C9.20387 34.1084 9.29849 34.1876 9.38882 34.2631L13.0749 37.5489C15.3502 39.5748 18.1373 39.8351 20.3136 39.8351C20.8986 39.8351 21.4964 39.8087 22.0556 39.7747C21.1954 44.1999 20.7308 48.6439 23.7459 51.3186L27.4277 54.6007C27.8895 55.0085 28.4118 55.36 28.9804 55.6457C30.6148 56.4832 33.2815 57 35.974 57C36.2062 57 36.4557 57 36.7224 57H36.9675C37.1654 57 37.3589 56.9774 37.5654 56.9585L37.888 56.9283C38.0858 56.9283 38.288 56.8831 38.5417 56.8453L38.8256 56.8038C39.0536 56.7661 39.2557 56.7171 39.5783 56.6529L39.7805 56.6077C40.1234 56.5211 40.4596 56.4153 40.7869 56.2908C41.0643 56.1833 41.3318 56.0572 41.5869 55.9135L41.845 55.7626L41.9396 55.706C42.0377 55.6513 42.1324 55.5921 42.2235 55.5287C42.2889 55.4807 42.3507 55.4291 42.4084 55.3741L42.6321 55.1854C42.6758 55.1522 42.7174 55.1169 42.7568 55.0798C42.8817 54.9604 42.998 54.8345 43.1052 54.7026L43.2084 54.5667C43.3504 54.363 43.4794 54.1593 43.5998 53.9556C43.6386 53.8839 43.673 53.816 43.7031 53.7443L43.759 53.6349C43.8321 53.4953 43.9009 53.3595 43.9999 53.1445C44.0307 53.0919 44.058 53.0377 44.0816 52.9823C44.116 52.8955 44.1418 52.8087 44.1676 52.7257L44.2149 52.5786C44.2794 52.4013 44.3439 52.224 44.4128 51.9901C44.4128 51.9411 44.4472 51.8958 44.4601 51.8468C44.516 51.628 44.5547 51.4054 44.5934 51.1866L44.6192 51.0621C44.6665 50.7791 44.6966 50.4962 44.7181 50.2133V50.0586C44.7181 49.8247 44.7181 49.587 44.7181 49.3531V49.1985C44.7181 49.0853 44.7181 48.9683 44.7181 48.8514C44.7181 48.6062 44.688 48.361 44.6708 48.0969V47.9347C44.6708 47.8328 44.6708 47.7347 44.6708 47.6329C44.645 47.3876 44.6106 47.1387 44.5719 46.8406L44.5203 46.4634C44.4644 46.0861 44.4042 45.7089 44.3439 45.3316C44.0918 44.0215 43.9623 42.6954 43.9568 41.3667C43.9568 41.1705 43.9783 40.948 43.9912 40.7141L44.0558 39.7596C44.0558 39.6012 44.0816 39.4427 44.0902 39.2805C44.7999 39.356 45.5741 39.4578 46.3827 39.5672L46.6794 39.605C48.7226 39.9243 50.7899 40.1109 52.8644 40.1633C55.3032 40.1633 57.1656 39.737 58.5505 38.8618C58.6365 38.8052 58.7226 38.7486 58.8043 38.6882C58.8751 38.6376 58.9413 38.5821 59.0021 38.5223C59.114 38.4355 59.2215 38.3449 59.3462 38.2318L59.4408 38.1488C59.4839 38.1073 59.5226 38.0582 59.6215 37.945C59.7204 37.8319 59.7978 37.7527 59.8968 37.6319L59.9742 37.5376C60.0215 37.4771 60.0646 37.4141 60.1032 37.349C60.2064 37.2057 60.3011 37.0623 60.4215 36.8774L60.4946 36.7605C60.5217 36.7143 60.5447 36.6664 60.5634 36.6171C60.7097 36.3568 60.843 36.089 60.972 35.7947L61.0236 35.6778C61.2241 35.1839 61.3907 34.68 61.5226 34.1688L61.5527 34.0594C61.6473 33.6821 61.7247 33.286 61.7892 32.8974L61.828 32.6258C61.8882 32.2486 61.9312 31.8713 61.9613 31.4941V31.3771C61.9828 31.0942 61.9914 30.815 62 30.5434V30.2567C62 30.0492 62 29.8455 62 29.6493L61.9484 29.3324Z" fill="#7C7C7C"/>
<path d="M61.4939 31.414C61.5579 30.9918 61.6072 30.5695 61.6416 30.1472C61.6416 30.1134 61.6416 30.0839 61.6416 30.0501C61.6416 29.7418 61.6761 29.4377 61.681 29.1421V28.8297C61.681 28.6016 61.681 28.382 61.681 28.1667C61.681 28.0653 61.681 27.964 61.681 27.8626C61.681 27.6388 61.6466 27.4403 61.6219 27.225C61.6219 27.1532 61.6219 27.0772 61.6219 27.0096C61.5826 26.7422 61.5382 26.4972 61.489 26.2748C61.4866 26.2651 61.4866 26.255 61.489 26.2453C61.4496 26.0721 61.4053 25.9159 61.356 25.7681C61.2653 25.4995 61.1517 25.237 61.0162 24.9826L60.9867 24.9024C60.9473 24.8348 60.9079 24.7799 60.8685 24.7166C60.8291 24.6533 60.7257 24.4801 60.6469 24.3661C60.5681 24.2521 60.5238 24.2056 60.4597 24.1254C60.3795 24.0212 60.2924 23.9212 60.1987 23.8256C60.1692 23.7918 60.1446 23.7538 60.115 23.7242C60.0855 23.6947 59.9377 23.5553 59.8442 23.4751L55.6287 19.8012C55.7518 19.911 55.87 20.0292 55.9832 20.1517C56.0965 20.2742 56.1556 20.346 56.2393 20.4515C56.323 20.5571 56.3674 20.6077 56.4265 20.6922C56.4855 20.7767 56.5791 20.9245 56.6481 21.0469C56.717 21.1694 56.7515 21.2158 56.7958 21.3045C56.9313 21.5618 57.0449 21.8271 57.1356 22.0984C57.1924 22.265 57.2384 22.4342 57.2735 22.6052C57.2735 22.6558 57.2735 22.715 57.303 22.7656L54.7373 20.5275C53.0875 19.096 50.3051 18.9313 47.3503 18.8046C47.0105 18.8046 45.479 18.7244 43.7357 18.661L43.8982 17.9854C43.8982 17.9347 43.8982 17.884 43.9376 17.8376C44.0311 17.4702 44.1296 17.1028 44.2281 16.7396C44.3266 16.3765 44.4054 16.0935 44.4941 15.7684L44.5384 15.5952C44.5384 15.5952 44.5384 15.5699 44.5384 15.5572C44.6861 14.9914 44.824 14.4213 44.9373 13.8681V13.7709C45.0456 13.2135 45.1293 12.6603 45.1737 12.1072C45.1737 12.086 45.1737 12.0607 45.1737 12.0354V11.9931C45.1991 11.5711 45.1991 11.1483 45.1737 10.7263C45.1737 10.6798 45.1737 10.6376 45.1737 10.5911C45.144 10.176 45.0848 9.76279 44.9964 9.35384C44.994 9.32573 44.994 9.29751 44.9964 9.26939V9.21449C44.9057 8.94393 44.7988 8.67753 44.6763 8.41637L44.6122 8.26012C44.5236 8.04054 44.4251 7.83784 44.3118 7.60559C44.3118 7.56758 44.2774 7.52535 44.2527 7.48312C44.2281 7.44089 44.1838 7.40288 44.1838 7.36065C44.0804 7.18329 43.972 7.00594 43.8489 6.82858L43.6963 6.60476C43.5116 6.34969 43.3094 6.10432 43.0905 5.86999L42.992 5.76864C42.932 5.70511 42.8679 5.64449 42.8 5.58706L38.5746 1.91317C38.683 2.00607 38.7766 2.09898 38.8701 2.19611C39.083 2.43084 39.2819 2.67466 39.466 2.92665C39.5251 3.00689 39.5743 3.0829 39.6285 3.16313C39.7467 3.33627 39.86 3.50941 39.9585 3.68255C40.0077 3.76701 40.052 3.85147 40.0964 3.93592C40.2092 4.14624 40.3079 4.36196 40.3918 4.58202C40.3918 4.63692 40.446 4.68759 40.4657 4.74249C40.5149 4.88184 40.5494 5.02542 40.5937 5.16478L37.703 2.63106C36.5506 1.62602 34.1178 1.02637 31.6161 1.02637C31.2616 1.02637 30.907 1.02637 30.5573 1.06437L30.2766 1.08971C29.9713 1.11504 29.6709 1.15305 29.3705 1.19951H29.2178C28.8853 1.25628 28.5565 1.32817 28.2329 1.41488C28.1541 1.41488 28.0753 1.4571 27.9965 1.47822C27.7338 1.55272 27.4758 1.63869 27.2234 1.7358L27.0264 1.8076C26.7345 1.93137 26.4531 2.07247 26.1843 2.22988L26.0217 2.33123C25.9035 2.40302 25.7755 2.47481 25.6672 2.55083C25.5588 2.62684 25.5243 2.67328 25.4505 2.72818C25.3766 2.78308 25.2978 2.85065 25.2239 2.91821C25.1723 2.95686 25.123 2.99774 25.0762 3.04068C24.9374 3.17399 24.8091 3.31507 24.6921 3.46296L24.6625 3.50518C24.6625 3.5263 24.6625 3.54742 24.6231 3.56431C24.545 3.66455 24.4742 3.76892 24.4114 3.8768C24.3238 4.01258 24.2481 4.15373 24.1848 4.29908C24.187 4.30743 24.187 4.31607 24.1848 4.32442C23.9731 4.83538 23.7958 5.35058 23.6431 5.86154C23.6087 5.97978 23.5693 6.09802 23.5397 6.21626C23.5102 6.3345 23.4757 6.41052 23.4511 6.50764C23.3427 6.92993 23.2541 7.3522 23.1753 7.75338C23.1753 7.79983 23.1753 7.85051 23.1753 7.89697C23.0867 8.37415 23.0177 8.85133 22.9537 9.33273C22.9537 9.48476 22.9192 9.63677 22.8995 9.7888C22.8503 10.2406 22.806 10.6925 22.7715 11.1486C22.7715 11.2161 22.7715 11.2795 22.7715 11.347V11.3935C22.737 11.8158 22.7075 12.2845 22.6828 12.7237C22.6582 13.1629 22.6188 13.6063 22.5893 14.0539C22.5893 14.3284 22.5548 14.6029 22.5351 14.8985C22.5006 15.3207 22.4612 15.7641 22.4169 16.1949C22.4169 16.3722 22.3874 16.5496 22.3677 16.7269C22.2987 17.335 22.215 17.9431 22.1066 18.5597C21.884 18.493 21.6467 18.4699 21.4123 18.4921C18.5264 18.4921 7.70209 19.59 6.60882 19.9068C6.30342 20.0009 6.00841 20.1182 5.72731 20.2573L5.46137 20.4051C5.26532 20.5099 5.07624 20.6241 4.89504 20.7471C4.86057 20.7724 4.82117 20.7893 4.7867 20.8105C4.75223 20.8316 4.67836 20.9034 4.62419 20.9456C4.42089 21.0988 4.22693 21.2609 4.04308 21.4312C3.99383 21.4734 3.93966 21.5115 3.89041 21.5579C3.84117 21.6044 3.82639 21.6339 3.79192 21.6677C3.61956 21.8408 3.45705 22.0224 3.29946 22.2125C3.25021 22.2758 3.19112 22.3265 3.14187 22.3898C3.09262 22.4531 3.14187 22.432 3.10247 22.4489C2.88704 22.7207 2.68973 23.0026 2.51152 23.2935C2.51152 23.3357 2.47212 23.378 2.4475 23.4202C2.25815 23.7033 2.08717 23.9951 1.93533 24.2943C1.91269 24.3311 1.89295 24.3692 1.87624 24.4083C1.84669 24.4717 1.83192 24.5392 1.80729 24.6068C1.7088 24.8644 1.61523 25.1262 1.54136 25.3922C1.54136 25.4598 1.48719 25.5232 1.47242 25.5907C1.45764 25.6583 1.47242 25.6667 1.47242 25.709C1.37308 26.1057 1.30562 26.5078 1.27051 26.9125C1.27051 26.9125 1.27051 26.9463 1.27051 26.9674C1.27051 27.0561 1.27051 27.1447 1.27051 27.2292C1.27051 27.453 1.27051 27.6726 1.27051 27.8922C1.27051 28.0231 1.29513 28.1498 1.3099 28.2765C1.33453 28.4749 1.36408 28.6987 1.4084 28.8761C1.4084 28.931 1.4084 28.9901 1.4084 29.0493C1.4084 29.1084 1.48227 29.2815 1.51674 29.404C1.55121 29.5264 1.56599 29.5644 1.59553 29.6447C1.68729 29.911 1.79915 30.172 1.93041 30.4259L2.02398 30.5695C2.14563 30.79 2.2821 31.0044 2.43272 31.2114C2.50659 31.3043 2.59524 31.3972 2.67403 31.4901C2.75282 31.583 2.88086 31.7519 3.0089 31.8786L3.15172 32.0221L3.40288 32.246L6.57927 35.0119C5.04331 34.6624 3.64517 33.9652 2.53122 32.9934L6.75655 36.6715C9.21887 38.7829 12.218 39.0701 14.6015 39.0701C15.8918 39.0701 17.2116 38.9688 18.5954 38.8674C18.5609 39.0279 18.5264 39.1883 18.4969 39.3488L18.3344 40.1385C18.2999 40.3158 18.2654 40.4932 18.2359 40.6706C18.1866 40.9197 18.1423 41.1688 18.098 41.4138C18.0537 41.6587 18.0389 41.777 18.0143 41.9543C17.9897 42.1317 17.9355 42.4357 17.901 42.6722C17.8665 42.9087 17.8567 43.0311 17.837 43.2085C17.8173 43.3858 17.7877 43.6772 17.7631 43.9053C17.7631 44.0024 17.7385 44.1037 17.7336 44.2009C17.7286 44.298 17.7336 44.3867 17.7336 44.4796C17.7336 44.64 17.7336 44.7963 17.7336 44.9525C17.7336 45.1088 17.7336 45.3748 17.7336 45.5775C17.7336 45.7802 17.7336 45.8731 17.7336 45.9998C17.7336 46.2152 17.7582 46.4221 17.7779 46.6374C17.7779 46.7641 17.7779 46.8951 17.8124 47.0217C17.8124 47.2582 17.8813 47.482 17.9256 47.7058C17.9256 47.803 17.9552 47.9001 17.9749 47.9972C17.9749 47.9972 17.9749 48.031 17.9749 48.0521C18.0438 48.3308 18.1275 48.5969 18.2211 48.8629V48.922C18.3258 49.2029 18.4508 49.4779 18.5954 49.7455C18.5954 49.7455 18.5954 49.7666 18.5954 49.7793L18.7037 49.9524C18.8207 50.1536 18.9522 50.3482 19.0977 50.5352C19.1568 50.6154 19.2307 50.6914 19.2996 50.7716C19.3686 50.8519 19.4523 50.9617 19.5409 51.0503C19.6394 51.1539 19.7446 51.2526 19.8561 51.3459L22.6533 53.7783L22.8552 53.9557C22.0736 53.7657 21.3201 53.4994 20.6096 53.1618C20.0059 52.8628 19.4511 52.4964 18.9598 52.0723L23.1802 55.7462C23.6685 56.1715 24.2218 56.538 24.8251 56.8357C26.6078 57.7267 29.5626 58.2799 32.5272 58.2799C32.7783 58.2799 33.059 58.2799 33.3545 58.2799H33.6303C33.847 58.2799 34.0637 58.2588 34.2902 58.2376L34.6448 58.2039C34.8615 58.2039 35.0831 58.1532 35.3096 58.1236L35.674 58.0687C35.9203 58.0307 36.1665 57.9801 36.4078 57.9252C36.5063 57.904 36.6097 57.8871 36.7082 57.8618C37.0433 57.779 37.3722 57.6789 37.6931 57.562L37.7719 57.5282C38.0614 57.4196 38.3427 57.2955 38.614 57.1566C38.7027 57.1101 38.7913 57.051 38.88 57.0004C38.9686 56.9497 39.1459 56.8526 39.269 56.7681C39.3921 56.6836 39.3921 56.6625 39.4562 56.6119L39.6433 56.4598C39.6975 56.4134 39.7566 56.3712 39.8107 56.3205C39.9354 56.198 40.0521 56.0697 40.1604 55.9362L40.2638 55.8011C40.4165 55.5857 40.5543 55.3788 40.6824 55.1507C40.7513 55.0409 40.7957 54.9269 40.8597 54.8129C40.9237 54.6989 41.0074 54.5258 41.0764 54.3906C41.1453 54.2555 41.1699 54.2217 41.2093 54.133C41.2487 54.0443 41.298 53.8628 41.3472 53.7107C41.3965 53.5587 41.49 53.3223 41.5442 53.128C41.5442 53.0562 41.5984 52.9844 41.6181 52.9126C41.6772 52.6804 41.7215 52.4439 41.7658 52.2074C41.7658 52.1652 41.7658 52.1229 41.7658 52.0765C41.8151 51.7724 41.8544 51.4684 41.8741 51.1644C41.8741 51.1095 41.8741 51.0546 41.8741 50.9997C41.8741 50.7463 41.8741 50.4887 41.8741 50.2353C41.8741 50.0537 41.8741 49.8722 41.8741 49.6948C41.8741 49.4246 41.8446 49.1585 41.82 48.8925C41.82 48.7235 41.82 48.5504 41.7806 48.3815C41.751 48.0901 41.7116 47.7987 41.6722 47.5116C41.6722 47.3638 41.6378 47.216 41.6181 47.0893C41.554 46.667 41.4851 46.2447 41.4162 45.8224C41.1227 44.3265 40.9712 42.8125 40.9631 41.2955C40.9631 41.076 40.9631 40.8226 41.0025 40.5565C41.0025 40.4848 41.0025 40.4045 41.0025 40.3285C41.0025 40.13 41.032 39.9316 41.0468 39.7204V39.4839C41.0764 39.1208 41.1059 38.7534 41.1404 38.3987C42.2287 38.4831 43.4697 38.652 44.7649 38.821C47.0715 39.1756 49.4056 39.3831 51.748 39.4417C54.4074 39.4417 56.4117 39.0194 57.8989 38.082L58.1599 37.9088C58.2338 37.8581 58.2929 37.7948 58.3618 37.7399C58.4308 37.685 58.5933 37.5583 58.7016 37.4612L58.8198 37.3598C58.8838 37.3007 58.938 37.2247 58.9971 37.1614C59.0562 37.098 59.1892 36.9587 59.2778 36.8531L59.3812 36.7349C59.4305 36.6715 59.4699 36.5997 59.5191 36.5364C59.6275 36.39 59.7309 36.238 59.8294 36.0803L59.9377 35.9199C59.9653 35.8703 59.99 35.8195 60.0116 35.7678C60.1731 35.493 60.3178 35.2111 60.445 34.9232C60.445 34.8852 60.4844 34.8514 60.4991 34.8134C60.502 34.8037 60.502 34.7936 60.4991 34.7839C60.7222 34.2477 60.908 33.7005 61.0556 33.1454C61.0556 33.1201 61.0556 33.099 61.0556 33.0736C61.0556 33.0483 61.0556 33.0441 61.0556 33.0314C61.164 32.6091 61.2477 32.1868 61.3166 31.7646C61.4644 31.6125 61.4791 31.5154 61.4939 31.414Z" fill="url(#paint0_linear_1_92266)"/>
<path d="M57.0814 22.1024C57.9432 24.6868 57.5739 32.0093 53.7721 34.3487C52.2947 35.2651 50.2756 35.7043 47.6212 35.7043C45.2773 35.6471 42.9415 35.441 40.6331 35.0877C39.3379 34.9188 38.0969 34.7499 37.0086 34.6654C36.915 35.6789 36.8313 36.7769 36.8067 37.5623C36.8106 39.0807 36.9605 40.5962 37.2548 42.0935C37.7916 45.438 38.3481 48.8965 36.0581 52.0974C34.4921 54.2891 30.5228 54.6311 28.3018 54.6311C25.3471 54.6311 22.3923 54.0779 20.6046 53.1869C14.8871 50.3365 16.3547 43.5377 17.6498 37.537C17.8468 36.646 18.029 35.793 18.1916 34.9695C17.0096 35.0075 15.8474 35.092 14.6951 35.1764C13.193 35.2862 11.7797 35.4002 10.3909 35.4002C7.92861 35.4002 4.73744 35.1004 2.2505 32.7356C0.137831 30.7297 -0.517146 27.8709 0.443159 24.8811C1.33944 22.0349 3.60478 19.6996 6.16559 18.9311C7.46077 18.5552 17.7089 17.5544 20.9937 17.47C21.1857 16.0046 21.2793 14.5435 21.3679 13.1289C21.56 10.1349 21.7471 7.04372 23.0128 4.03282C24.2784 1.02193 28.2969 0 31.6506 0C34.8122 0 37.6439 0.844577 38.8701 2.19589C41.9726 5.57418 40.9385 9.37475 39.9338 13.0697C39.5026 14.5153 39.1737 15.9819 38.9489 17.4615C41.4112 17.5333 46.6658 17.7233 47.3553 17.7698C51.0783 17.926 55.7468 18.1161 57.0814 22.1024ZM53.0875 33.5295C56.2196 31.587 56.7219 24.8388 55.9143 22.4191C54.8456 19.214 51.2556 18.9775 47.2715 18.8086C46.4442 18.7622 38.6042 18.4708 37.7177 18.4708C37.9935 12.5377 41.9973 7.28865 37.9147 2.8462C36.8707 1.72292 34.2803 1.03882 31.6161 1.03882C28.4447 1.03882 25.1402 2.00586 24.1602 4.35799C22.2495 8.9229 22.9094 13.6103 22.0328 18.589C22.0328 18.5257 21.7865 18.4961 21.3285 18.4961C18.4427 18.4961 7.61836 19.5941 6.52509 19.9108C2.12738 21.2241 -0.960363 28.1158 3.15171 32.0177C5.12156 33.88 7.61836 34.353 10.4156 34.353C13.2127 34.353 16.2512 33.9011 19.3981 33.9011H19.5951C18.4821 40.6239 15.1334 49.2301 21.235 52.279C22.8453 53.0813 25.6672 53.5796 28.3412 53.5796C31.2369 53.5796 34.0144 52.9969 35.024 51.5822C38.0871 47.296 35.4376 42.2539 35.5903 37.575C35.6297 36.4517 35.7824 34.7077 35.9006 33.5802C38.9686 33.6182 43.6421 34.6781 47.6557 34.6781C49.7585 34.6781 51.6692 34.3867 53.0728 33.5253L53.0875 33.5295Z" fill="url(#paint1_linear_1_92266)"/>
<path d="M31.616 1.04297C34.2803 1.04297 36.8706 1.72707 37.9146 2.85035C41.9972 7.28858 37.9934 12.5376 37.6389 18.4749C38.6238 18.4749 46.4441 18.7663 47.2715 18.8128C51.2555 18.9817 54.8456 19.235 55.9142 22.4233C56.7218 24.843 56.2195 31.5911 53.0875 33.5336C51.6692 34.3782 49.7584 34.6865 47.6704 34.6865C43.6568 34.6865 38.9833 33.6265 35.9152 33.5885C35.7971 34.716 35.6444 36.4601 35.605 37.5833C35.4523 42.2623 38.1018 47.2959 35.0387 51.5906C34.0291 53.0052 31.2516 53.588 28.3559 53.588C25.6671 53.588 22.86 53.0897 21.2497 52.2873C15.148 49.2384 18.4968 40.6323 19.6098 33.9095H19.4128C16.2659 33.9095 13.1979 34.3613 10.4302 34.3613C7.66259 34.3613 5.12148 33.8841 3.15163 32.0218C-0.960446 28.1199 2.1273 21.2282 6.525 19.9149C7.61827 19.5982 18.4426 18.5003 21.3285 18.5003C21.7865 18.5003 22.0475 18.5298 22.0327 18.5932C22.9093 13.6144 22.2494 8.92704 24.1601 4.36213C25.1401 2.01 28.4249 1.04297 31.616 1.04297Z" fill="#2656FF"/>
<defs>
<linearGradient id="paint0_linear_1_92266" x1="23.6234" y1="56.9708" x2="35.5879" y2="-1.51334" gradientUnits="userSpaceOnUse">
<stop offset="0.0208333" stop-opacity="0.5"/>
<stop offset="0.65625" stop-color="#0066FF"/>
<stop offset="0.88" stop-color="#000573"/>
</linearGradient>
<linearGradient id="paint1_linear_1_92266" x1="0.2117" y1="4.87318" x2="40.2957" y2="47.1255" gradientUnits="userSpaceOnUse">
<stop offset="0.03" stop-color="#000AFF"/>
<stop offset="1" stop-color="#1A0064"/>
</linearGradient>
</defs>
</svg>
