<svg width="207" height="80" viewBox="0 0 207 80" fill="none" xmlns="http://www.w3.org/2000/svg">
<path d="M187.624 3.70031H36.9664C33.3936 3.46383 29.8046 3.46383 26.2318 3.70031H22.4312C17.2818 3.71304 12.3475 5.46401 8.70636 8.57073C5.06517 11.6774 3.01297 15.8874 2.99805 20.2809V62.7459C3.01297 67.1394 5.06517 71.3494 8.70636 74.4561C12.3475 77.5628 17.2818 79.3138 22.4312 79.3265H187.579C192.726 79.3112 197.657 77.5591 201.296 74.4527C204.935 71.3462 206.986 67.1377 207 62.7459V20.2809C206.986 15.8957 204.941 11.693 201.312 8.58766C197.683 5.48232 192.763 3.72574 187.624 3.70031Z" fill="#231F20"/>
<path d="M184.626 0.611816H19.4331C8.7005 0.611816 0 8.03522 0 17.1924V59.6477C0 68.805 8.7005 76.2284 19.4331 76.2284H184.626C195.358 76.2284 204.059 68.805 204.059 59.6477V17.1924C204.059 8.03522 195.358 0.611816 184.626 0.611816Z" fill="#38816F"/>
<path d="M201.943 59.7735V17.0576C201.943 8.96643 194.255 2.40723 184.772 2.40723L19.2739 2.40723C9.79073 2.40723 2.10307 8.96643 2.10307 17.0576V59.7735C2.10307 67.8647 9.79073 74.4239 19.2739 74.4239L184.772 74.4239C194.255 74.4239 201.943 67.8647 201.943 59.7735Z" fill="url(#paint0_radial_1_1474)"/>
<path style="mix-blend-mode:color-dodge" d="M90.5823 74.4141C81.8612 74.6071 73.1626 74.9256 64.4302 74.9546C55.6977 74.9835 46.7843 74.5782 37.9953 73.9895C33.5951 73.671 29.2063 73.2753 24.8174 72.8892C21.4918 72.6093 18.3472 73.1691 15.1348 72.2716C11.6395 71.3064 8.09905 70.0325 5.63315 67.7066C2.69217 64.9463 0.542992 58.8275 3.13332 55.4014C5.96119 51.6568 13.7322 53.1334 17.9174 53.973C23.5732 55.0829 29.1271 56.3182 34.7376 57.486C39.4884 58.4511 44.0469 60.4682 48.8317 60.9218L75.6512 63.3925C81.3069 63.9233 86.9627 64.4445 92.494 63.3925C84.904 64.7437 77.133 64.541 69.4299 64.4155C62.134 64.2901 55.0077 64.6086 47.7684 63.7882C43.3795 63.296 28.652 57.9975 25.383 61.9931C18.0305 70.9879 55.6977 69.9842 58.0279 70.0035L104.473 70.4378C126.496 70.6405 155.374 72.783 175.543 63.682C183.088 60.2559 189.467 54.5617 191.899 47.5743C193.551 42.8163 193.336 37.7302 194.569 32.8757C194.851 31.7368 196.062 30.3085 197.182 30.9455C197.603 31.2637 197.859 31.7114 197.894 32.1905C199.139 37.7481 199.771 43.3928 199.783 49.051C199.783 53.7897 199.353 58.6152 197.306 63.0161C195.259 67.417 191.413 71.3836 186.221 73.0629C183.661 73.7901 180.997 74.2155 178.303 74.3272C149.391 76.4794 119.721 73.7771 90.5823 74.4141Z" fill="url(#paint1_linear_1_1474)"/>
<path style="mix-blend-mode:color-dodge" d="M200.123 20.9277C200.27 20.1653 200.405 16.1022 195.406 17.0673C192.895 17.5691 194.987 20.1846 195.406 20.9277C195.685 21.3248 196.093 21.6439 196.581 21.8461C197.07 22.0484 197.616 22.125 198.154 22.0665C199.557 22.0569 200.021 21.4392 200.123 20.9277Z" fill="url(#paint2_radial_1_1474)"/>
<path style="mix-blend-mode:color-dodge" d="M3.75597 10.8421C9.09499 -1.30864 28.5507 -0.0250318 40.6766 1.14275C60.7545 3.07298 81.4545 2.03066 101.668 2.10787C92.3587 4.34693 83.4114 8.39074 77.1901 14.7122C64.6569 27.4421 69.9168 42.8067 81.6468 54.4459C92.2682 64.9849 108.41 69.9842 123.906 74.3079C112.493 76.5759 100.65 73.8061 89.0332 72.5321C72.0659 70.6694 55.4155 73.5551 38.4369 72.4163C31.322 71.9434 24.0601 71.2775 17.6238 68.7296C3.86909 63.267 2.62482 51.454 1.98007 40.2877C1.43145 33.4563 1.43145 26.6008 1.98007 19.7694C2.11692 16.7406 2.71387 13.7398 3.75597 10.8421Z" fill="url(#paint3_radial_1_1474)"/>
<path style="mix-blend-mode:color-dodge" d="M11.2217 6.22879C7.96398 8.26518 5.64513 11.6045 4.68366 17.096C3.41677 24.3536 2.73808 31.3989 2.29693 38.7241C1.69193 46.9123 2.33451 55.1329 4.20858 63.1801C4.31208 61.0849 4.92452 59.0308 6.0071 57.1481C9.27611 52.3226 20.8477 55.3916 26.2886 55.4881C23.9006 54.7307 21.746 53.5195 19.9881 51.9462C19.3633 51.4554 18.9159 50.8225 18.6986 50.1221C18.6057 49.3129 18.8241 48.4998 19.3207 47.8058C22.8273 42.0152 32.5664 39.9305 39.1497 37.6335C60.8791 30.0381 80.5158 25.5696 103.987 23.485C126.904 21.439 149.98 20.7441 172.84 18.1962C177.195 17.7136 183.111 17.4434 187.16 16.1212C189.932 15.2236 192.352 13.0039 192.228 10.4656C191.594 -2.23523 158.158 2.74475 150.477 2.74475C137.367 2.63859 124.246 2.86055 111.125 2.87985C94.3158 2.87985 77.5182 2.39731 60.7094 2.34905C52.271 2.34905 43.8214 2.40695 35.3943 2.73509C25.9153 3.07288 17.0584 2.59032 11.2217 6.22879Z" fill="url(#paint4_linear_1_1474)"/>
<path style="mix-blend-mode:color-dodge" d="M22.4534 12.5698C28.1091 11.3923 34.5227 11.6047 40.0427 10.6395C48.4698 9.24978 57.01 9.18224 65.6293 9.02782C76.1377 8.84445 86.5668 9.66477 97.0865 9.81919C117.142 10.1087 137.355 10.0412 157.377 10.1763C166.686 10.2342 175.69 12.9751 184.943 13.9209C187.62 14.3462 190.382 14.1495 192.94 13.3515C195.406 12.3864 197.363 10.1184 196.797 7.86001C196.051 4.83921 191.718 3.71003 188.099 3.4591C170.996 2.26237 153.305 4.42423 136.156 4.67516C118.307 4.95504 100.469 4.26981 82.6304 3.71004C61.5345 3.03446 40.597 3.10202 19.5237 3.64248C16.7185 3.71969 13.7662 3.82586 11.3908 5.09981C2.828 9.70339 3.75554 19.5089 3.28046 26.892C2.54987 38.145 2.62164 49.4254 3.49537 60.671C3.91767 53.8058 4.33997 46.947 4.76226 40.0948C5.06767 35.1727 5.3844 30.1734 7.1603 25.483C8.9362 20.7925 12.3862 16.3434 17.5216 14.0753C19.0898 13.4085 20.7453 12.9031 22.4534 12.5698Z" fill="url(#paint5_linear_1_1474)"/>
<path opacity="0.59" d="M195.654 67.5908C197.916 65.8825 199.047 63.0741 199.952 60.5069C200.28 59.5417 200.642 57.129 198.595 57.3413C197.113 57.4861 198.222 58.8951 198.052 59.6479C197.283 63.1126 196.921 65.7957 193.833 68.5945C194.495 68.3393 195.109 68.001 195.654 67.5908Z" fill="white"/>
<path opacity="0.59" d="M11.9903 16.5074C13.8598 15.5612 15.9555 14.9871 18.1211 14.8281C22.4987 14.4613 26.6274 15.8897 30.9257 15.7353C35.2241 15.5809 39.5677 15.4747 43.8547 15.0404C48.8997 14.5289 53.7636 13.2453 53.8202 11.1799C53.8202 10.0604 52.5759 8.9795 50.7095 8.1109C42.7915 4.42417 29.2856 5.61126 19.7274 7.65729C17.3728 8.16391 15.0952 8.90235 12.9405 9.85775C11.6397 10.4368 8.73263 12.0389 8.89099 9.31729C9.02878 8.49528 9.46835 7.73167 10.1466 7.13613C10.8665 6.3964 11.6532 5.70587 12.4993 5.0708C12.1147 5.26382 11.7415 5.45685 11.3682 5.67883C9.45485 6.88785 7.96471 8.51965 7.05852 10.3982C6.15674 12.2703 5.45631 14.2085 4.9659 16.1889C2.8959 23.4562 2.85066 31.4087 2.53394 38.869C3.12305 32.8769 4.07068 26.9144 5.37312 21.0048C5.75695 21.1388 6.17974 21.169 6.58434 21.0913C6.98895 21.0136 7.35584 20.8319 7.63541 20.5705C9.24164 19.1711 9.86377 17.6269 11.9903 16.5074Z" fill="white"/>
<path opacity="0.59" d="M60.4257 7.70555C58.2313 8.67067 58.4801 11.0835 63.2422 10.9676C64.0933 10.9835 64.9372 10.8316 65.7081 10.5237C67.2352 9.81916 66.5904 8.36185 64.8711 7.78278C64.1765 7.50878 63.4229 7.36046 62.6579 7.34717C61.8928 7.33388 61.1328 7.4559 60.4257 7.70555Z" fill="white"/>
<defs>
<radialGradient id="paint0_radial_1_1474" cx="0" cy="0" r="1" gradientUnits="userSpaceOnUse" gradientTransform="translate(101.761 38.4252) scale(98.446 36.5198)">
<stop stop-color="#2D985E"/>
<stop offset="1" stop-color="#1E8451"/>
</radialGradient>
<linearGradient id="paint1_linear_1_1474" x1="100.876" y1="138.913" x2="100.876" y2="35.2306" gradientUnits="userSpaceOnUse">
<stop stop-color="white"/>
<stop offset="0.08" stop-color="#E5E5E5"/>
<stop offset="0.26" stop-color="#ABA9AA"/>
<stop offset="0.44" stop-color="#7A7878"/>
<stop offset="0.61" stop-color="#545152"/>
<stop offset="0.76" stop-color="#393637"/>
<stop offset="0.9" stop-color="#292526"/>
<stop offset="1" stop-color="#231F20"/>
</linearGradient>
<radialGradient id="paint2_radial_1_1474" cx="0" cy="0" r="1" gradientUnits="userSpaceOnUse" gradientTransform="translate(215.042 16.1794) scale(27.5123 10.4328)">
<stop stop-color="white"/>
<stop offset="0.08" stop-color="#E5E5E5"/>
<stop offset="0.26" stop-color="#ABA9AA"/>
<stop offset="0.44" stop-color="#7A7878"/>
<stop offset="0.61" stop-color="#545152"/>
<stop offset="0.76" stop-color="#393637"/>
<stop offset="0.9" stop-color="#292526"/>
<stop offset="1" stop-color="#231F20"/>
</radialGradient>
<radialGradient id="paint3_radial_1_1474" cx="0" cy="0" r="1" gradientUnits="userSpaceOnUse" gradientTransform="translate(120.411 42.8699) scale(36.6858 28.7715)">
<stop stop-color="white"/>
<stop offset="0.08" stop-color="#E5E5E5"/>
<stop offset="0.26" stop-color="#ABA9AA"/>
<stop offset="0.44" stop-color="#7A7878"/>
<stop offset="0.61" stop-color="#545152"/>
<stop offset="0.76" stop-color="#393637"/>
<stop offset="0.9" stop-color="#292526"/>
<stop offset="1" stop-color="#231F20"/>
</radialGradient>
<linearGradient id="paint4_linear_1_1474" x1="-143.485" y1="32.4799" x2="46.6379" y2="32.4799" gradientUnits="userSpaceOnUse">
<stop stop-color="white"/>
<stop offset="0.09" stop-color="#F5F5F5"/>
<stop offset="0.25" stop-color="#DBDBDB"/>
<stop offset="0.46" stop-color="#B1B0B0"/>
<stop offset="0.7" stop-color="#777475"/>
<stop offset="0.97" stop-color="#2D292A"/>
<stop offset="1" stop-color="#231F20"/>
</linearGradient>
<linearGradient id="paint5_linear_1_1474" x1="125.591" y1="31.8913" x2="405.46" y2="31.8913" gradientUnits="userSpaceOnUse">
<stop stop-color="#231F20"/>
<stop offset="0.03" stop-color="#2D292A"/>
<stop offset="0.3" stop-color="#777475"/>
<stop offset="0.54" stop-color="#B1B0B0"/>
<stop offset="0.75" stop-color="#DBDBDB"/>
<stop offset="0.91" stop-color="#F5F5F5"/>
<stop offset="1" stop-color="white"/>
</linearGradient>
</defs>
</svg>
