<svg width="102" height="102" viewBox="0 0 102 102" fill="none" xmlns="http://www.w3.org/2000/svg">
<path d="M101.81 50.8101C101.81 22.7484 79.0611 0 50.9995 0C22.9378 0 0.189453 22.7484 0.189453 50.8101C0.189453 78.8717 22.9378 101.62 50.9995 101.62C79.0611 101.62 101.81 78.8717 101.81 50.8101Z" fill="#22A6B3"/>
<path d="M71.4471 76.9409C70.8657 76.9442 70.2894 76.8314 69.7521 76.6092C69.2148 76.387 68.7273 76.0599 68.318 75.6469L26.1626 33.5007C25.3336 32.6689 24.8682 31.5426 24.8682 30.3684C24.8682 29.1943 25.3336 28.068 26.1626 27.2362L27.4341 25.9726C28.2647 25.1443 29.39 24.6792 30.5632 24.6792C31.7363 24.6792 32.8616 25.1443 33.6923 25.9726L75.8324 68.1189C76.6633 68.9497 77.1299 70.0763 77.1299 71.2511C77.1299 72.4259 76.6633 73.5526 75.8324 74.3834L74.5686 75.6469C74.1595 76.0579 73.673 76.3839 73.1373 76.606C72.6015 76.8281 72.0271 76.9419 71.4471 76.9409Z" fill="white"/>
<path d="M30.8921 26.993C31.2194 26.9948 31.5429 27.0619 31.8439 27.1905C32.1448 27.319 32.417 27.5064 32.6445 27.7416L74.1121 69.191C74.3433 69.4212 74.5268 69.6948 74.6519 69.9961C74.7771 70.2973 74.8415 70.6203 74.8415 70.9465C74.8415 71.2727 74.7771 71.5957 74.6519 71.8969C74.5268 72.1981 74.3433 72.4717 74.1121 72.7019L72.8689 73.9446C72.4027 74.4095 71.7712 74.6706 71.1127 74.6706C70.4542 74.6706 69.8226 74.4095 69.3565 73.9446L27.8889 32.4951C27.4256 32.0282 27.1657 31.3973 27.1657 30.7397C27.1657 30.0821 27.4256 29.4511 27.8889 28.9842L29.1322 27.7416C29.3613 27.5065 29.6348 27.3193 29.9369 27.1908C30.2391 27.0622 30.5638 26.995 30.8921 26.993ZM30.8921 23.25C30.0738 23.2486 29.2632 23.4093 28.5074 23.7228C27.7515 24.0363 27.0653 24.4964 26.4885 25.0766L25.2452 26.3192C24.6658 26.8959 24.2059 27.5812 23.8922 28.3359C23.5785 29.0907 23.417 29.8999 23.417 30.7172C23.417 31.5345 23.5785 32.3437 23.8922 33.0985C24.2059 33.8532 24.6658 34.5386 25.2452 35.1152L66.7128 76.5647C67.2903 77.1441 67.9766 77.6038 68.7323 77.9175C69.488 78.2313 70.2982 78.3927 71.1164 78.3927C71.9347 78.3927 72.7449 78.2313 73.5006 77.9175C74.2563 77.6038 74.9426 77.1441 75.5201 76.5647L76.7633 75.322C77.9281 74.1545 78.5822 72.5729 78.5822 70.924C78.5822 69.2752 77.9281 67.6936 76.7633 66.526L35.2957 25.0541C34.7188 24.474 34.0326 24.0138 33.2768 23.7003C32.5209 23.3868 31.7104 23.2261 30.8921 23.2275V23.25Z" fill="white"/>
<path d="M30.5539 76.941C29.9729 76.9426 29.3972 76.829 28.8603 76.6069C28.3234 76.3848 27.8358 76.0585 27.4257 75.6469L26.1622 74.3834C25.3335 73.5517 24.8682 72.4253 24.8682 71.2512C24.8682 70.077 25.3335 68.9507 26.1622 68.1189L68.313 25.9726C69.1434 25.1443 70.2683 24.6792 71.4412 24.6792C72.614 24.6792 73.7389 25.1443 74.5693 25.9726L75.8328 27.2362C76.6634 28.067 77.1299 29.1937 77.1299 30.3684C77.1299 31.5432 76.6634 32.6699 75.8328 33.5007L33.6897 75.6469C33.2779 76.0584 32.7889 76.3846 32.2508 76.6066C31.7127 76.8287 31.136 76.9423 30.5539 76.941Z" fill="white"/>
<path d="M71.109 26.972C71.4363 26.9738 71.7599 27.041 72.0609 27.1696C72.3618 27.2982 72.6339 27.4857 72.8614 27.7209L74.1047 28.9641C74.3358 29.1944 74.5193 29.4681 74.6445 29.7695C74.7697 30.0708 74.8341 30.3939 74.8341 30.7203C74.8341 31.0466 74.7697 31.3697 74.6445 31.6711C74.5193 31.9724 74.3358 32.2461 74.1047 32.4764L32.6376 73.9428C32.1714 74.4079 31.5399 74.6691 30.8814 74.6691C30.2229 74.6691 29.5914 74.4079 29.1252 73.9428L27.882 72.6996C27.4187 72.2325 27.1588 71.6013 27.1588 70.9434C27.1588 70.2856 27.4187 69.6544 27.882 69.1873L69.3491 27.7209C69.5782 27.4858 69.8518 27.2985 70.154 27.1699C70.4561 27.0413 70.7807 26.9741 71.109 26.972ZM71.109 23.2275C70.2907 23.2261 69.4802 23.3869 68.7243 23.7005C67.9685 24.0142 67.2823 24.4745 66.7054 25.0549L25.2458 66.5212C24.6662 67.0987 24.2062 67.785 23.8924 68.5406C23.5785 69.2963 23.417 70.1065 23.417 70.9247C23.417 71.743 23.5785 72.5532 23.8924 73.3088C24.2062 74.0645 24.6662 74.7507 25.2458 75.3282L26.4891 76.5639C27.0666 77.1436 27.7528 77.6035 28.5085 77.9174C29.2642 78.2312 30.0744 78.3927 30.8926 78.3927C31.7109 78.3927 32.5211 78.2312 33.2768 77.9174C34.0324 77.6035 34.7187 77.1436 35.2962 76.5639L76.7633 35.0976C77.9281 33.9295 78.5822 32.3473 78.5822 30.6978C78.5822 29.0483 77.9281 27.466 76.7633 26.298L75.5201 25.0549C74.9432 24.4745 74.257 24.0142 73.5012 23.7005C72.7454 23.3869 71.9348 23.2261 71.1165 23.2275H71.109Z" fill="white"/>
</svg>
