<svg width="87" height="87" viewBox="0 0 87 87" fill="none" xmlns="http://www.w3.org/2000/svg">
<path d="M86.2539 43.0757C86.2539 19.2856 66.9454 0 43.127 0C19.3086 0 0 19.2856 0 43.0757C0 66.8657 19.3086 86.1514 43.127 86.1514C66.9454 86.1514 86.2539 66.8657 86.2539 43.0757Z" fill="#FF7A00"/>
<path d="M61.2507 62.9277C60.728 62.9282 60.2104 62.8385 59.7278 62.6639C59.2452 62.4893 58.8072 62.2332 58.4392 61.9104L20.5619 28.969C20.1908 28.6488 19.8963 28.2678 19.6953 27.8482C19.4944 27.4285 19.3909 26.9784 19.3909 26.5238C19.3909 26.0692 19.4944 25.6191 19.6953 25.1994C19.8963 24.7797 20.1908 24.3988 20.5619 24.0786L21.6974 23.091C22.4437 22.4436 23.4548 22.0801 24.5089 22.0801C25.563 22.0801 26.5742 22.4436 27.3205 23.091L65.1978 56.0324C65.9427 56.6825 66.3608 57.5629 66.3608 58.4806C66.3608 59.3983 65.9427 60.2786 65.1978 60.9287L64.0623 61.9104C63.6942 62.2332 63.2562 62.4893 62.7736 62.6639C62.291 62.8385 61.7734 62.9282 61.2507 62.9277Z" fill="white"/>
<path d="M24.8337 23.5733C25.1327 23.5744 25.4284 23.6276 25.7033 23.7297C25.9782 23.8319 26.2268 23.981 26.4344 24.1681L64.3085 57.1053C64.5196 57.2883 64.6871 57.5056 64.8015 57.745C64.9158 57.9844 64.9746 58.2411 64.9746 58.5003C64.9746 58.7595 64.9158 59.0161 64.8015 59.2555C64.6871 59.4949 64.5196 59.7123 64.3085 59.8952L63.173 60.8827C62.9645 61.0687 62.7157 61.2171 62.441 61.3192C62.1663 61.4213 61.8711 61.4751 61.5724 61.4775C60.9673 61.4716 60.3895 61.2578 59.965 60.8827L22.0909 27.9038C21.6677 27.5328 21.4302 27.0314 21.4302 26.5089C21.4302 25.9863 21.6677 25.4849 22.0909 25.1139L23.2263 24.1265C23.4355 23.9397 23.6854 23.7909 23.9614 23.6888C24.2373 23.5867 24.5338 23.5333 24.8337 23.5316M24.8337 20.5573C24.0867 20.5551 23.3466 20.6817 22.6562 20.9298C21.9658 21.1779 21.3389 21.5426 20.8117 22.0028L19.6762 22.9903C19.1468 23.449 18.7267 23.9941 18.4401 24.5943C18.1534 25.1946 18.0059 25.8381 18.0059 26.4881C18.0059 27.138 18.1534 27.7815 18.4401 28.3818C18.7267 28.982 19.1468 29.5271 19.6762 29.9858L57.5504 62.923C58.0778 63.3835 58.7047 63.7488 59.3949 63.9981C60.085 64.2474 60.8251 64.3757 61.5724 64.3757C62.3198 64.3757 63.0598 64.2474 63.75 63.9981C64.4402 63.7488 65.067 63.3835 65.5944 62.923L66.7299 61.9356C67.7942 61.0068 68.3918 59.749 68.3918 58.4378C68.3918 57.1266 67.7942 55.8688 66.7299 54.94L28.89 22.0445C28.3627 21.5843 27.7358 21.2196 27.0454 20.9714C26.355 20.7233 25.6149 20.5967 24.8679 20.599L24.8337 20.5573Z" fill="white"/>
<path d="M24.509 62.9277C23.9863 62.9282 23.4687 62.8385 22.9861 62.6639C22.5035 62.4893 22.0655 62.2332 21.6974 61.9104L20.5619 60.9228C20.1908 60.6026 19.8963 60.2217 19.6953 59.802C19.4944 59.3823 19.3909 58.9322 19.3909 58.4776C19.3909 58.023 19.4944 57.5729 19.6953 57.1532C19.8963 56.7336 20.1908 56.3526 20.5619 56.0324L58.4397 23.091C59.186 22.4436 60.1971 22.0801 61.2512 22.0801C62.3054 22.0801 63.3165 22.4436 64.0628 23.091L65.1984 24.0786C65.9428 24.7277 66.3608 25.607 66.3608 26.5238C66.3608 27.4405 65.9428 28.3199 65.1984 28.969L27.3206 61.9104C26.9526 62.2332 26.5146 62.4893 26.032 62.6639C25.5494 62.8385 25.0317 62.9282 24.509 62.9277Z" fill="white"/>
<path d="M61.5724 23.5316C61.8714 23.5327 62.167 23.5859 62.442 23.6881C62.7169 23.7903 62.9654 23.9393 63.173 24.1265L64.3085 25.1139C64.5196 25.2969 64.6871 25.5143 64.8015 25.7536C64.9158 25.993 64.9746 26.2497 64.9746 26.5089C64.9746 26.7681 64.9158 27.0247 64.8015 27.2641C64.6871 27.5035 64.5196 27.7209 64.3085 27.9038L26.4344 60.841C26.2259 61.0271 25.9771 61.1755 25.7024 61.2776C25.4277 61.3797 25.1324 61.4335 24.8337 61.4359C24.2286 61.43 23.6507 61.2161 23.2263 60.841L22.0909 59.8536C21.6677 59.4825 21.4302 58.9812 21.4302 58.4586C21.4302 57.9361 21.6677 57.4347 22.0909 57.0637L59.965 24.1265C60.1743 23.9397 60.4241 23.7909 60.7 23.6888C60.976 23.5867 61.2725 23.5333 61.5724 23.5316ZM61.5724 20.5573C60.8254 20.5551 60.0853 20.6817 59.3949 20.9298C58.7046 21.1779 58.0776 21.5426 57.5504 22.0028L19.6762 54.94C19.1468 55.3988 18.7267 55.9439 18.4401 56.5441C18.1534 57.1443 18.0059 57.7879 18.0059 58.4378C18.0059 59.0877 18.1534 59.7313 18.4401 60.3315C18.7267 60.9317 19.1468 61.4768 19.6762 61.9356L20.8117 62.923C21.3391 63.3835 21.9659 63.7488 22.6561 63.9981C23.3463 64.2474 24.0863 64.3757 24.8337 64.3757C25.581 64.3757 26.321 64.2474 27.0112 63.9981C27.7014 63.7488 28.3283 63.3835 28.8557 62.923L66.7299 29.9858C67.7942 29.057 68.3918 27.7993 68.3918 26.4881C68.3918 25.1768 67.7942 23.9191 66.7299 22.9903L65.5944 22.0028C65.0672 21.5426 64.4403 21.1779 63.7499 20.9298C63.0595 20.6817 62.3194 20.5551 61.5724 20.5573Z" fill="white"/>
</svg>
