<svg width="125" height="114" viewBox="0 0 125 114" fill="none" xmlns="http://www.w3.org/2000/svg">
<path d="M124.548 56.5757C124.548 25.3298 96.6673 0 62.2743 0C27.8812 0 0 25.3298 0 56.5757C0 87.8216 27.8812 113.151 62.2743 113.151C96.6673 113.151 124.548 87.8216 124.548 56.5757Z" fill="#FFB71B"/>
<path d="M88.4445 82.6494C87.6898 82.65 86.9424 82.5322 86.2455 82.3028C85.5487 82.0735 84.9162 81.7371 84.3847 81.3132L29.6909 38.0479C29.1551 37.6273 28.7298 37.127 28.4396 36.5758C28.1494 36.0246 28 35.4335 28 34.8364C28 34.2393 28.1494 33.6481 28.4396 33.0969C28.7298 32.5457 29.1551 32.0455 29.6909 31.6249L31.3305 30.3278C32.4082 29.4775 33.8682 29 35.3903 29C36.9124 29 38.3725 29.4775 39.4502 30.3278L94.1441 73.5931C95.2196 74.4469 95.8234 75.6032 95.8234 76.8085C95.8234 78.0138 95.2196 79.1701 94.1441 80.0239L92.5043 81.3132C91.9728 81.7371 91.3404 82.0735 90.6435 82.3028C89.9467 82.5322 89.1993 82.65 88.4445 82.6494Z" fill="white"/>
<path d="M35.8592 30.9612C36.2909 30.9626 36.718 31.0325 37.1149 31.1667C37.5119 31.3009 37.8708 31.4966 38.1705 31.7424L92.8598 75.0022C93.1647 75.2425 93.4065 75.528 93.5716 75.8424C93.7367 76.1568 93.8217 76.4939 93.8217 76.8343C93.8217 77.1748 93.7367 77.5119 93.5716 77.8263C93.4065 78.1407 93.1647 78.4262 92.8598 78.6665L91.2202 79.9634C90.9191 80.2078 90.5599 80.4026 90.1632 80.5367C89.7666 80.6708 89.3403 80.7415 88.909 80.7447C88.0352 80.7369 87.2008 80.456 86.5879 79.9634L31.8986 36.6489C31.2876 36.1616 30.9447 35.5031 30.9447 34.8168C30.9447 34.1305 31.2876 33.472 31.8986 32.9847L33.5381 31.6878C33.8403 31.4424 34.2012 31.247 34.5996 31.1129C34.9981 30.9788 35.4262 30.9086 35.8592 30.9065M35.8592 27C34.7806 26.9971 33.7119 27.1634 32.715 27.4892C31.7181 27.8151 30.8128 28.2941 30.0515 28.8986L28.412 30.1955C27.6475 30.798 27.0409 31.5139 26.627 32.3023C26.213 33.0906 26 33.9358 26 34.7895C26 35.6431 26.213 36.4883 26.627 37.2767C27.0409 38.065 27.6475 38.7809 28.412 39.3834L83.1012 82.6432C83.8629 83.2479 84.768 83.7278 85.7646 84.0552C86.7613 84.3826 87.8298 84.5511 88.909 84.5511C89.9881 84.5511 91.0567 84.3826 92.0533 84.0552C93.0499 83.7278 93.955 83.2479 94.7167 82.6432L96.3562 81.3463C97.893 80.1264 98.756 78.4745 98.756 76.7523C98.756 75.0301 97.893 73.3782 96.3562 72.1583L41.7164 28.9533C40.955 28.3488 40.0497 27.8698 39.0529 27.5439C38.056 27.2181 36.9873 27.0518 35.9086 27.0547L35.8592 27Z" fill="white"/>
<path d="M35.3904 82.6494C34.6356 82.65 33.8882 82.5322 33.1914 82.3028C32.4945 82.0735 31.862 81.7371 31.3306 81.3132L29.6909 80.0161C29.1551 79.5955 28.7298 79.0952 28.4396 78.544C28.1494 77.9929 28 77.4017 28 76.8046C28 76.2075 28.1494 75.6163 28.4396 75.0651C28.7298 74.514 29.1551 74.0137 29.6909 73.5931L84.3854 30.3278C85.4631 29.4775 86.9231 29 88.4453 29C89.9674 29 91.4274 29.4775 92.5051 30.3278L94.1449 31.6249C95.2198 32.4774 95.8234 33.6323 95.8234 34.8364C95.8234 36.0405 95.2198 37.1954 94.1449 38.0479L39.4504 81.3132C38.9189 81.7371 38.2864 82.0735 37.5896 82.3028C36.8927 82.5322 36.1452 82.65 35.3904 82.6494Z" fill="white"/>
<path d="M88.909 30.9065C89.3407 30.9079 89.7676 30.9778 90.1646 31.112C90.5615 31.2462 90.9205 31.442 91.2202 31.6878L92.8598 32.9847C93.1647 33.2249 93.4065 33.5105 93.5716 33.8249C93.7367 34.1393 93.8217 34.4764 93.8217 34.8168C93.8217 35.1572 93.7367 35.4943 93.5716 35.8087C93.4065 36.1231 93.1647 36.4086 92.8598 36.6489L38.1705 79.9087C37.8695 80.1531 37.5103 80.348 37.1136 80.482C36.7169 80.6161 36.2906 80.6868 35.8592 80.69C34.9854 80.6822 34.1511 80.4013 33.5381 79.9087L31.8986 78.6118C31.2876 78.1245 30.9447 77.466 30.9447 76.7796C30.9447 76.0933 31.2876 75.4348 31.8986 74.9475L86.5879 31.6878C86.8901 31.4424 87.2508 31.247 87.6493 31.1129C88.0477 30.9788 88.4759 30.9086 88.909 30.9065ZM88.909 27C87.8303 26.9971 86.7616 27.1634 85.7647 27.4892C84.7679 27.8151 83.8626 28.2941 83.1012 28.8986L28.412 72.1583C27.6475 72.7608 27.0409 73.4768 26.627 74.2651C26.213 75.0534 26 75.8987 26 76.7523C26 77.6059 26.213 78.4511 26.627 79.2395C27.0409 80.0278 27.6475 80.7438 28.412 81.3463L30.0515 82.6432C30.8131 83.2479 31.7183 83.7278 32.7149 84.0552C33.7115 84.3826 34.78 84.5511 35.8592 84.5511C36.9384 84.5511 38.0069 84.3826 39.0035 84.0552C40.0002 83.7278 40.9053 83.2479 41.6669 82.6432L96.3562 39.3834C97.893 38.1636 98.756 36.5116 98.756 34.7895C98.756 33.0673 97.893 31.4153 96.3562 30.1955L94.7167 28.8986C93.9554 28.2941 93.0501 27.8151 92.0532 27.4892C91.0563 27.1634 89.9876 26.9971 88.909 27Z" fill="white"/>
</svg>
