<svg width="193" height="47" viewBox="0 0 193 47" fill="none" xmlns="http://www.w3.org/2000/svg">
<g clip-path="url(#clip0_1_787)">
<path fill-rule="evenodd" clip-rule="evenodd" d="M6.81616 0H186.146C187.963 0.00283338 189.704 0.584313 190.989 1.61712C192.274 2.64992 192.997 4.04989 193.001 5.51049V41.5002C192.997 42.9598 192.274 44.3587 190.988 45.3898C189.703 46.4209 187.962 47 186.146 47H6.81616C5.00035 47 3.25872 46.4209 1.9735 45.3898C0.688275 44.3587 -0.0355298 42.9598 -0.0390625 41.5002V5.51049C-0.0389318 4.78715 0.139048 4.07096 0.484662 3.40309C0.830276 2.73522 1.3367 2.12886 1.97482 1.61884C2.60929 1.1059 3.36364 0.698815 4.19449 0.420998C5.02533 0.14318 5.9163 0.00010508 6.81616 0Z" fill="url(#paint0_linear_1_787)"/>
<path fill-rule="evenodd" clip-rule="evenodd" d="M6.81582 3.54834C6.1696 3.55062 5.55089 3.75881 5.09536 4.12726C4.63699 4.49344 4.37798 4.99079 4.37515 5.51025V41.5C4.37163 41.7599 4.43205 42.0179 4.55297 42.259C4.67388 42.5001 4.85289 42.7196 5.07971 42.9049C5.30652 43.0902 5.57668 43.2377 5.87462 43.3388C6.17257 43.4399 6.49242 43.4927 6.81582 43.4941H186.145C186.789 43.4913 187.406 43.2851 187.863 42.9201C188.319 42.5551 188.579 42.0605 188.586 41.5429V5.51025C188.583 4.99079 188.324 4.49341 187.867 4.12609C187.41 3.75877 186.792 3.55116 186.145 3.54834H6.81582Z" fill="url(#paint1_linear_1_787)"/>
<path style="mix-blend-mode:screen" fill-rule="evenodd" clip-rule="evenodd" d="M6.81595 3.54858H186.145C186.792 3.55086 187.41 3.75905 187.866 4.12751L190.987 1.61884C190.352 1.1059 189.598 0.698815 188.767 0.420998C187.936 0.14318 187.045 0.00010508 186.145 0H6.81595C5.91609 0.00010508 5.02512 0.14318 4.19428 0.420998C3.36343 0.698815 2.60908 1.1059 1.97461 1.61884L5.09549 4.12751C5.55102 3.75905 6.16973 3.55086 6.81595 3.54858Z" fill="url(#paint2_radial_1_787)"/>
<path style="mix-blend-mode:multiply" fill-rule="evenodd" clip-rule="evenodd" d="M186.145 43.4945H6.81595C6.16973 43.4922 5.55102 43.284 5.09549 42.9155L1.97461 45.4349C2.60974 45.9464 3.3645 46.3518 4.1954 46.6278C5.02629 46.9038 5.91691 47.0449 6.81595 47.043H186.145C187.045 47.0449 187.935 46.9038 188.766 46.6278C189.597 46.3518 190.352 45.9464 190.987 45.4349L187.866 42.9155C187.41 43.284 186.792 43.4922 186.145 43.4945Z" fill="url(#paint3_radial_1_787)"/>
<path style="mix-blend-mode:screen" fill-rule="evenodd" clip-rule="evenodd" d="M4.41455 41.5V5.5103C4.41738 4.99084 4.67639 4.49349 5.13476 4.12732L2.01388 1.61865C1.37576 2.12867 0.869338 2.73503 0.523725 3.4029C0.178111 4.07076 0.000130723 4.78696 0 5.5103V41.5C0.000859872 42.2233 0.17919 42.9393 0.524763 43.6071C0.870335 44.2749 1.37635 44.8813 2.01388 45.3917L5.13476 42.8723C4.9082 42.693 4.72793 42.4794 4.60434 42.2439C4.48075 42.0084 4.41625 41.7556 4.41455 41.5Z" fill="url(#paint4_radial_1_787)"/>
<path style="mix-blend-mode:multiply" fill-rule="evenodd" clip-rule="evenodd" d="M188.585 5.5103V41.5C188.584 41.7556 188.519 42.0084 188.396 42.2439C188.272 42.4794 188.092 42.693 187.865 42.8723L190.986 45.3917C191.624 44.8813 192.13 44.2749 192.475 43.6071C192.821 42.9393 192.999 42.2233 193 41.5V5.5103C193 4.78696 192.822 4.07076 192.476 3.4029C192.131 2.73503 191.624 2.12867 190.986 1.61865L187.865 4.12732C188.324 4.49349 188.583 4.99084 188.585 5.5103Z" fill="url(#paint5_linear_1_787)"/>
<path style="mix-blend-mode:screen" fill-rule="evenodd" clip-rule="evenodd" d="M4.41455 28.4099V5.5103C4.41738 4.99084 4.67639 4.49349 5.13476 4.12732L2.01388 1.61865C1.37576 2.12867 0.869338 2.73503 0.523725 3.4029C0.178111 4.07076 0.000130723 4.78696 0 5.5103V29.9001C1.30712 29.1339 2.81877 28.6236 4.41455 28.4099Z" fill="url(#paint6_linear_1_787)"/>
<path style="mix-blend-mode:screen" fill-rule="evenodd" clip-rule="evenodd" d="M186.145 0.536137H6.81533C6.00258 0.53524 5.19762 0.663609 4.44684 0.913842C3.69606 1.16408 3.0143 1.53123 2.44079 1.99417C1.86489 2.45517 1.40813 3.00321 1.09684 3.60671C0.785537 4.21022 0.625843 4.85726 0.626959 5.51059V28.4853C0.626959 28.8151 0.789951 29.1314 1.08009 29.3646C1.37022 29.5979 1.76374 29.7289 2.17406 29.7289C2.58437 29.7289 2.97787 29.5979 3.26801 29.3646C3.55815 29.1314 3.72114 28.8151 3.72114 28.4853V5.51059C3.71835 5.18366 3.79719 4.85961 3.95297 4.55761C4.10875 4.25561 4.3383 3.9818 4.62806 3.75238C4.91347 3.51946 5.25411 3.33492 5.62981 3.2097C6.00551 3.08448 6.40863 3.02112 6.81533 3.02336H186.145C186.965 3.02336 187.753 3.28541 188.333 3.75185C188.913 4.2183 189.239 4.85094 189.239 5.51059V10.871C189.239 11.2008 189.402 11.5171 189.692 11.7504C189.982 11.9836 190.376 12.1146 190.786 12.1146C191.196 12.1146 191.59 11.9836 191.88 11.7504C192.17 11.5171 192.333 11.2008 192.333 10.871V5.51059C192.333 4.19128 191.681 2.92601 190.521 1.99312C189.36 1.06023 187.786 0.536137 186.145 0.536137Z" fill="url(#paint7_radial_1_787)"/>
<g style="mix-blend-mode:screen">
<path fill-rule="evenodd" clip-rule="evenodd" d="M68.1668 2.53027C34.8242 2.53027 7.83008 2.8519 7.83008 3.02343C7.83008 3.19496 57.5905 3.17352 68.1668 3.17352C78.743 3.17352 128.517 3.17352 128.517 3.02343C128.517 2.87334 101.509 2.53027 68.1668 2.53027Z" fill="#EEFFC5"/>
</g>
<g style="mix-blend-mode:multiply">
<path fill-rule="evenodd" clip-rule="evenodd" d="M3.04213 44.9739C3.503 44.432 4.07058 43.9541 4.72258 43.5588C5.06104 43.3833 5.45353 43.2868 5.85624 43.2801C5.52478 43.1523 5.23301 42.9667 5.00226 42.7367C4.77151 42.5067 4.60762 42.2381 4.52254 41.9507C4.59585 42.374 4.50258 42.8051 4.2558 43.1836C3.7826 43.7151 3.20621 44.1821 2.54866 44.5666C2.19929 44.7427 1.78237 44.8113 1.375 44.7595C1.80228 45.2102 2.31014 45.6076 2.88209 45.9388C2.76736 45.5991 2.82491 45.2367 3.04213 44.9311V44.9739Z" fill="#8FE561"/>
</g>
<g style="mix-blend-mode:multiply">
<path fill-rule="evenodd" clip-rule="evenodd" d="M189.961 44.9739C189.503 44.4297 188.935 43.9512 188.28 43.5588C187.943 43.3817 187.55 43.285 187.146 43.2801C187.477 43.1517 187.769 42.9659 187.999 42.736C188.23 42.506 188.394 42.2378 188.48 41.9507C188.396 42.3729 188.485 42.8055 188.734 43.1836C189.211 43.716 189.792 44.1829 190.454 44.5666C190.803 44.7427 191.22 44.8113 191.628 44.7595C191.205 45.2099 190.702 45.6074 190.134 45.9388C190.243 45.5976 190.181 45.2356 189.961 44.9311V44.9739Z" fill="#8FE561"/>
</g>
<g style="mix-blend-mode:screen">
<path fill-rule="evenodd" clip-rule="evenodd" d="M3.04084 2.02633C3.5015 2.57147 4.069 3.053 4.7213 3.4522C5.06085 3.62448 5.45343 3.71729 5.85495 3.72022C5.52349 3.84796 5.23172 4.0336 5.00097 4.26361C4.77023 4.49361 4.60633 4.76215 4.52125 5.0496C4.59277 4.62635 4.4996 4.19569 4.25451 3.8167C3.7899 3.27723 3.22285 2.79971 2.57405 2.40156C2.22709 2.2206 1.80788 2.15168 1.40039 2.20858C1.82767 1.75791 2.33553 1.36051 2.90748 1.0293C2.85103 1.19576 2.8361 1.36955 2.86356 1.54067C2.89103 1.71178 2.96035 1.87684 3.06752 2.02633H3.04084Z" fill="#8FE561"/>
</g>
<g style="mix-blend-mode:screen">
<path fill-rule="evenodd" clip-rule="evenodd" d="M189.961 2.02633C189.504 2.57393 188.936 3.05593 188.28 3.4522C187.941 3.62608 187.548 3.71903 187.146 3.72022C187.477 3.84858 187.769 4.03442 187.999 4.26433C188.23 4.49423 188.394 4.76245 188.48 5.0496C188.397 4.62742 188.486 4.19498 188.734 3.8167C189.198 3.27723 189.765 2.79971 190.414 2.40156C190.761 2.2206 191.18 2.15168 191.588 2.20858C191.165 1.75817 190.662 1.36073 190.094 1.0293C190.148 1.19645 190.161 1.37063 190.131 1.54176C190.102 1.7129 190.03 1.87759 189.921 2.02633H189.961Z" fill="#8FE561"/>
</g>
<path style="mix-blend-mode:screen" opacity="0.3" fill-rule="evenodd" clip-rule="evenodd" d="M96.6014 45.2312C46.9344 45.2312 6.66992 44.5451 6.66992 44.1591C6.66992 43.7732 80.8238 43.8375 96.6014 43.8375C112.379 43.8375 186.52 43.8375 186.52 44.1591C186.52 44.4808 146.255 45.2312 96.6014 45.2312Z" fill="url(#paint8_radial_1_787)"/>
<g style="mix-blend-mode:screen">
<path fill-rule="evenodd" clip-rule="evenodd" d="M175.529 42.9581C171.855 42.8622 168.177 43.0272 164.539 43.4512C168.193 43.703 171.862 43.7925 175.529 43.7193C179.195 43.7922 182.864 43.7027 186.518 43.4512C182.88 43.0272 179.203 42.8622 175.529 42.9581Z" fill="#D2FF83"/>
</g>
<g style="mix-blend-mode:screen">
<path fill-rule="evenodd" clip-rule="evenodd" d="M156.858 43.0761C154.528 42.9992 152.194 43.125 149.896 43.4513C152.208 43.6525 154.534 43.7241 156.858 43.6658C159.178 43.7239 161.5 43.6523 163.807 43.4513C161.514 43.1253 159.185 42.9995 156.858 43.0761Z" fill="#D2FF83"/>
</g>
<path style="mix-blend-mode:screen" opacity="0.5" fill-rule="evenodd" clip-rule="evenodd" d="M4.41501 28.4099C29.2485 25.719 163.312 14.4728 188.773 11.6425V5.51025C188.769 4.99263 188.513 4.49684 188.059 4.12982C187.605 3.7628 186.989 3.55396 186.345 3.54834H6.81568C6.16946 3.55062 5.55074 3.75881 5.09521 4.12726C4.63684 4.49344 4.37783 4.99079 4.375 5.51025V28.4099H4.41501Z" fill="url(#paint9_linear_1_787)"/>
<path d="M23.5249 21.584C23.5089 21.792 23.4929 22.08 23.4769 22.448C23.4769 22.816 23.4769 23.2 23.4769 23.6C23.4769 23.984 23.4769 24.368 23.4769 24.752C23.4929 25.12 23.5089 25.408 23.5249 25.616C23.5569 25.984 23.6289 26.336 23.7409 26.672C23.8529 27.008 24.0289 27.304 24.2689 27.56C24.5089 27.816 24.8129 28.024 25.1809 28.184C25.5489 28.328 26.0049 28.4 26.5489 28.4C27.0929 28.4 27.5409 28.336 27.8929 28.208C28.2449 28.08 28.5329 27.928 28.7569 27.752C28.9809 27.56 29.1489 27.352 29.2609 27.128C29.3889 26.904 29.4849 26.696 29.5489 26.504C29.6289 26.248 29.7169 26.072 29.8129 25.976C29.9089 25.864 30.0929 25.808 30.3649 25.808H33.5089C33.6529 25.808 33.7729 25.864 33.8689 25.976C33.9809 26.072 34.0369 26.192 34.0369 26.336C34.0209 27.152 33.8209 27.92 33.4369 28.64C33.0529 29.36 32.5249 29.984 31.8529 30.512C31.1809 31.04 30.3889 31.464 29.4769 31.784C28.5809 32.088 27.6049 32.24 26.5489 32.24C25.3969 32.24 24.3649 32.072 23.4529 31.736C22.5569 31.384 21.7889 30.912 21.1489 30.32C20.5089 29.728 20.0129 29.04 19.6609 28.256C19.3249 27.456 19.1329 26.616 19.0849 25.736C19.0529 25.08 19.0369 24.376 19.0369 23.624C19.0369 22.872 19.0529 22.152 19.0849 21.464C19.1169 20.584 19.3089 19.752 19.6609 18.968C20.0129 18.168 20.5009 17.472 21.1249 16.88C21.7649 16.288 22.5409 15.824 23.4529 15.488C24.3649 15.136 25.3969 14.96 26.5489 14.96C27.6049 14.96 28.5809 15.12 29.4769 15.44C30.3889 15.744 31.1809 16.16 31.8529 16.688C32.5249 17.216 33.0529 17.84 33.4369 18.56C33.8209 19.28 34.0209 20.048 34.0369 20.864C34.0369 21.008 33.9809 21.136 33.8689 21.248C33.7729 21.344 33.6529 21.392 33.5089 21.392H30.3649C30.0929 21.392 29.9089 21.344 29.8129 21.248C29.7169 21.136 29.6289 20.952 29.5489 20.696C29.4849 20.504 29.3889 20.296 29.2609 20.072C29.1489 19.848 28.9809 19.648 28.7569 19.472C28.5329 19.28 28.2449 19.12 27.8929 18.992C27.5409 18.864 27.0929 18.8 26.5489 18.8C26.0049 18.8 25.5489 18.88 25.1809 19.04C24.8129 19.184 24.5089 19.384 24.2689 19.64C24.0289 19.896 23.8529 20.192 23.7409 20.528C23.6289 20.864 23.5569 21.216 23.5249 21.584ZM49.7125 28.16C49.8885 28.16 50.0405 28.224 50.1685 28.352C50.2965 28.48 50.3605 28.632 50.3605 28.808V31.352C50.3605 31.528 50.2965 31.68 50.1685 31.808C50.0405 31.936 49.8885 32 49.7125 32H38.6005C38.4245 32 38.2725 31.936 38.1445 31.808C38.0165 31.68 37.9525 31.528 37.9525 31.352V15.848C37.9525 15.672 38.0165 15.52 38.1445 15.392C38.2725 15.264 38.4245 15.2 38.6005 15.2H41.7445C41.9205 15.2 42.0725 15.264 42.2005 15.392C42.3285 15.52 42.3925 15.672 42.3925 15.848V28.16H49.7125ZM54.5014 32C54.3254 32 54.1734 31.936 54.0454 31.808C53.9174 31.68 53.8534 31.528 53.8534 31.352V15.848C53.8534 15.672 53.9174 15.52 54.0454 15.392C54.1734 15.264 54.3254 15.2 54.5014 15.2H57.6454C57.8214 15.2 57.9734 15.264 58.1014 15.392C58.2294 15.52 58.2934 15.672 58.2934 15.848V31.352C58.2934 31.528 58.2294 31.68 58.1014 31.808C57.9734 31.936 57.8214 32 57.6454 32H54.5014ZM66.9621 21.584C66.9461 21.792 66.9301 22.08 66.9141 22.448C66.9141 22.816 66.9141 23.2 66.9141 23.6C66.9141 23.984 66.9141 24.368 66.9141 24.752C66.9301 25.12 66.9461 25.408 66.9621 25.616C66.9941 25.984 67.0661 26.336 67.1781 26.672C67.2901 27.008 67.4661 27.304 67.7061 27.56C67.9461 27.816 68.2501 28.024 68.6181 28.184C68.9861 28.328 69.4421 28.4 69.9861 28.4C70.5301 28.4 70.9781 28.336 71.3301 28.208C71.6821 28.08 71.9701 27.928 72.1941 27.752C72.4181 27.56 72.5861 27.352 72.6981 27.128C72.8261 26.904 72.9221 26.696 72.9861 26.504C73.0661 26.248 73.1541 26.072 73.2501 25.976C73.3461 25.864 73.5301 25.808 73.8021 25.808H76.9461C77.0901 25.808 77.2101 25.864 77.3061 25.976C77.4181 26.072 77.4741 26.192 77.4741 26.336C77.4581 27.152 77.2581 27.92 76.8741 28.64C76.4901 29.36 75.9621 29.984 75.2901 30.512C74.6181 31.04 73.8261 31.464 72.9141 31.784C72.0181 32.088 71.0421 32.24 69.9861 32.24C68.8341 32.24 67.8021 32.072 66.8901 31.736C65.9941 31.384 65.2261 30.912 64.5861 30.32C63.9461 29.728 63.4501 29.04 63.0981 28.256C62.7621 27.456 62.5701 26.616 62.5221 25.736C62.4901 25.08 62.4741 24.376 62.4741 23.624C62.4741 22.872 62.4901 22.152 62.5221 21.464C62.5541 20.584 62.7461 19.752 63.0981 18.968C63.4501 18.168 63.9381 17.472 64.5621 16.88C65.2021 16.288 65.9781 15.824 66.8901 15.488C67.8021 15.136 68.8341 14.96 69.9861 14.96C71.0421 14.96 72.0181 15.12 72.9141 15.44C73.8261 15.744 74.6181 16.16 75.2901 16.688C75.9621 17.216 76.4901 17.84 76.8741 18.56C77.2581 19.28 77.4581 20.048 77.4741 20.864C77.4741 21.008 77.4181 21.136 77.3061 21.248C77.2101 21.344 77.0901 21.392 76.9461 21.392H73.8021C73.5301 21.392 73.3461 21.344 73.2501 21.248C73.1541 21.136 73.0661 20.952 72.9861 20.696C72.9221 20.504 72.8261 20.296 72.6981 20.072C72.5861 19.848 72.4181 19.648 72.1941 19.472C71.9701 19.28 71.6821 19.12 71.3301 18.992C70.9781 18.864 70.5301 18.8 69.9861 18.8C69.4421 18.8 68.9861 18.88 68.6181 19.04C68.2501 19.184 67.9461 19.384 67.7061 19.64C67.4661 19.896 67.2901 20.192 67.1781 20.528C67.0661 20.864 66.9941 21.216 66.9621 21.584ZM95.6217 31.208C95.6697 31.272 95.6937 31.36 95.6937 31.472C95.6937 31.616 95.6377 31.744 95.5257 31.856C95.4297 31.952 95.3097 32 95.1657 32H91.3497C91.1257 32 90.9417 31.952 90.7977 31.856C90.6537 31.76 90.5097 31.624 90.3657 31.448L85.8297 25.736V31.352C85.8297 31.528 85.7657 31.68 85.6377 31.808C85.5097 31.936 85.3577 32 85.1817 32H82.0377C81.8617 32 81.7097 31.936 81.5817 31.808C81.4537 31.68 81.3897 31.528 81.3897 31.352V15.848C81.3897 15.672 81.4537 15.52 81.5817 15.392C81.7097 15.264 81.8617 15.2 82.0377 15.2H85.1817C85.3577 15.2 85.5097 15.264 85.6377 15.392C85.7657 15.52 85.8297 15.672 85.8297 15.848V20.912L90.0537 15.728C90.1337 15.632 90.2377 15.52 90.3657 15.392C90.4937 15.264 90.7097 15.2 91.0137 15.2H94.7577C94.9017 15.2 95.0217 15.256 95.1177 15.368C95.2297 15.464 95.2857 15.584 95.2857 15.728C95.2857 15.84 95.2617 15.928 95.2137 15.992L89.2857 23.24L95.6217 31.208ZM118.83 15.2C119.006 15.2 119.158 15.264 119.286 15.392C119.414 15.52 119.478 15.672 119.478 15.848V31.352C119.478 31.528 119.414 31.68 119.286 31.808C119.158 31.936 119.006 32 118.83 32H115.686C115.51 32 115.358 31.936 115.23 31.808C115.102 31.68 115.038 31.528 115.038 31.352V25.472H109.71V31.352C109.71 31.528 109.646 31.68 109.518 31.808C109.39 31.936 109.238 32 109.062 32H105.918C105.742 32 105.59 31.944 105.462 31.832C105.334 31.704 105.27 31.544 105.27 31.352V15.848C105.27 15.672 105.334 15.52 105.462 15.392C105.59 15.264 105.742 15.2 105.918 15.2H109.062C109.238 15.2 109.39 15.264 109.518 15.392C109.646 15.52 109.71 15.672 109.71 15.848V21.632H115.038V15.848C115.038 15.672 115.102 15.52 115.23 15.392C115.358 15.264 115.51 15.2 115.686 15.2H118.83ZM136.312 28.16C136.488 28.16 136.64 28.224 136.768 28.352C136.896 28.48 136.96 28.632 136.96 28.808V31.352C136.96 31.528 136.896 31.68 136.768 31.808C136.64 31.936 136.488 32 136.312 32H124.936C124.76 32 124.608 31.936 124.48 31.808C124.352 31.68 124.288 31.528 124.288 31.352V15.848C124.288 15.672 124.352 15.52 124.48 15.392C124.608 15.264 124.76 15.2 124.936 15.2H136.12C136.296 15.2 136.448 15.264 136.576 15.392C136.704 15.52 136.768 15.672 136.768 15.848V18.392C136.768 18.568 136.704 18.72 136.576 18.848C136.448 18.976 136.296 19.04 136.12 19.04H128.728V21.632H135.592C135.768 21.632 135.92 21.696 136.048 21.824C136.176 21.952 136.24 22.104 136.24 22.28V24.824C136.24 25 136.176 25.152 136.048 25.28C135.92 25.408 135.768 25.472 135.592 25.472H128.728V28.16H136.312ZM148.302 15.2C149.358 15.2 150.302 15.312 151.134 15.536C151.966 15.76 152.67 16.096 153.246 16.544C153.838 16.992 154.286 17.568 154.59 18.272C154.91 18.96 155.07 19.768 155.07 20.696C155.07 21.896 154.822 22.896 154.326 23.696C153.83 24.48 153.126 25.08 152.214 25.496L155.19 31.208C155.238 31.304 155.262 31.392 155.262 31.472C155.262 31.616 155.206 31.744 155.094 31.856C154.998 31.952 154.878 32 154.734 32H151.47C151.15 32 150.918 31.928 150.774 31.784C150.646 31.64 150.542 31.496 150.462 31.352L147.798 26.216H145.59V31.352C145.59 31.528 145.526 31.68 145.398 31.808C145.27 31.936 145.118 32 144.942 32H141.798C141.622 32 141.47 31.936 141.342 31.808C141.214 31.68 141.15 31.528 141.15 31.352V15.848C141.15 15.672 141.214 15.52 141.342 15.392C141.47 15.264 141.622 15.2 141.798 15.2H148.302ZM145.59 22.472H148.302C148.974 22.472 149.526 22.344 149.958 22.088C150.406 21.832 150.63 21.368 150.63 20.696C150.63 20.024 150.406 19.56 149.958 19.304C149.526 19.048 148.974 18.92 148.302 18.92H145.59V22.472ZM171.301 28.16C171.477 28.16 171.629 28.224 171.757 28.352C171.885 28.48 171.949 28.632 171.949 28.808V31.352C171.949 31.528 171.885 31.68 171.757 31.808C171.629 31.936 171.477 32 171.301 32H159.925C159.749 32 159.597 31.936 159.469 31.808C159.341 31.68 159.277 31.528 159.277 31.352V15.848C159.277 15.672 159.341 15.52 159.469 15.392C159.597 15.264 159.749 15.2 159.925 15.2H171.109C171.285 15.2 171.437 15.264 171.565 15.392C171.693 15.52 171.757 15.672 171.757 15.848V18.392C171.757 18.568 171.693 18.72 171.565 18.848C171.437 18.976 171.285 19.04 171.109 19.04H163.717V21.632H170.581C170.757 21.632 170.909 21.696 171.037 21.824C171.165 21.952 171.229 22.104 171.229 22.28V24.824C171.229 25 171.165 25.152 171.037 25.28C170.909 25.408 170.757 25.472 170.581 25.472H163.717V28.16H171.301Z" fill="black"/>
</g>
<defs>
<linearGradient id="paint0_linear_1_787" x1="157.364" y1="72.419" x2="61.8007" y2="-46.4523" gradientUnits="userSpaceOnUse">
<stop stop-color="#438A00"/>
<stop offset="1" stop-color="#7CD400"/>
</linearGradient>
<linearGradient id="paint1_linear_1_787" x1="154.23" y1="69.9101" x2="63.5916" y2="-42.8598" gradientUnits="userSpaceOnUse">
<stop stop-color="#65BA09"/>
<stop offset="1" stop-color="#8CE30B"/>
</linearGradient>
<radialGradient id="paint2_radial_1_787" cx="0" cy="0" r="1" gradientUnits="userSpaceOnUse" gradientTransform="translate(13.8446 -1.92974) scale(177.876 142.983)">
<stop stop-color="#47B009"/>
<stop offset="1" stop-color="#010D01"/>
</radialGradient>
<radialGradient id="paint3_radial_1_787" cx="0" cy="0" r="1" gradientUnits="userSpaceOnUse" gradientTransform="translate(14.3114 41.6183) scale(183.251 147.304)">
<stop stop-color="white"/>
<stop offset="1" stop-color="#91D600"/>
</radialGradient>
<radialGradient id="paint4_radial_1_787" cx="0" cy="0" r="1" gradientUnits="userSpaceOnUse" gradientTransform="translate(-6.76188 2.76578) scale(67.4321 54.2044)">
<stop stop-color="#47B009"/>
<stop offset="1" stop-color="#010D01"/>
</radialGradient>
<linearGradient id="paint5_linear_1_787" x1="187.865" y1="23.4998" x2="193" y2="23.4998" gradientUnits="userSpaceOnUse">
<stop stop-color="white"/>
<stop offset="1" stop-color="#91D600"/>
</linearGradient>
<linearGradient id="paint6_linear_1_787" x1="2.57405" y1="29.9001" x2="2.57405" y2="1.61865" gradientUnits="userSpaceOnUse">
<stop stop-color="#010D01"/>
<stop offset="1" stop-color="#47B009"/>
</linearGradient>
<radialGradient id="paint7_radial_1_787" cx="0" cy="0" r="1" gradientUnits="userSpaceOnUse" gradientTransform="translate(17.5116 -1.14702) scale(149.975 120.555)">
<stop stop-color="#47B009"/>
<stop offset="1" stop-color="#010D01"/>
</radialGradient>
<radialGradient id="paint8_radial_1_787" cx="0" cy="0" r="1" gradientUnits="userSpaceOnUse" gradientTransform="translate(97.7076 38.595) scale(114.656 21.8919)">
<stop stop-color="#47B009"/>
<stop offset="1" stop-color="#010D01"/>
</radialGradient>
<linearGradient id="paint9_linear_1_787" x1="4.41501" y1="15.9845" x2="188.773" y2="15.9845" gradientUnits="userSpaceOnUse">
<stop stop-color="#47B009"/>
<stop offset="1" stop-color="#010D01"/>
</linearGradient>
<clipPath id="clip0_1_787">
<rect width="193" height="47" fill="white"/>
</clipPath>
</defs>
</svg>
