<svg width="426" height="72" viewBox="0 0 426 72" fill="none" xmlns="http://www.w3.org/2000/svg">
<path fill-rule="evenodd" clip-rule="evenodd" d="M15.1313 0.00820716C15.1313 0.0127399 15.1349 0.0164143 15.1395 0.0164143H410.898C414.898 0.0164101 418.735 0.901811 421.566 2.47829C424.398 4.05477 425.992 6.19353 426 8.42518V63.5584C426 65.7944 424.41 67.9391 421.579 69.5217C418.747 71.1043 414.906 71.9957 410.898 72H15.1313C11.1206 71.9957 7.2764 71.1049 4.44043 69.5227C1.60446 67.9405 0.00778016 65.7959 0 63.5584V8.42518C0.00779758 6.18917 1.60542 4.04623 4.44223 2.46667C7.2771 0.888196 11.1181 0.00120876 15.1231 1.23455e-06C15.1276 -1.32085e-07 15.1313 0.00367447 15.1313 0.00820716Z" fill="url(#paint0_linear_7_111942)"/>
<path fill-rule="evenodd" clip-rule="evenodd" d="M15.3514 5.01666C13.9267 5.02019 12.5627 5.34359 11.5584 5.91593C11.0629 6.19533 10.6701 6.52755 10.4026 6.89342C10.1352 7.25929 9.9983 7.65155 10 8.04754V63.9525C10.0076 64.7565 10.573 65.5266 11.5741 66.0967C12.5752 66.6669 13.9318 66.9913 15.3514 67H410.649C412.068 66.9913 413.425 66.6669 414.426 66.0967C415.427 65.5266 415.992 64.7565 416 63.9525V8.03089C415.992 7.2284 415.426 6.46001 414.424 5.89256C413.422 5.3251 412.065 5.00437 410.649 5L15.3514 5.01666Z" fill="url(#paint1_linear_7_111942)"/>
<path style="mix-blend-mode:screen" fill-rule="evenodd" clip-rule="evenodd" d="M14.7066 5.15845H411.234C411.938 5.16043 412.633 5.2358 413.281 5.38022C413.364 5.39861 413.445 5.41808 413.526 5.43859C414.49 5.68433 415.538 5.72349 416.419 5.26179L416.942 4.9878C419.083 3.86612 418.982 0.977461 416.611 0.508454C414.926 0.175182 413.127 -0.00015195 411.293 2.71969e-05H14.7066C12.7184 -0.00271823 10.7488 0.202418 8.91127 0.603618C6.74083 1.0775 6.65233 3.74509 8.61472 4.78641L9.49421 5.2531C10.3744 5.72014 11.424 5.68602 12.3897 5.4405C13.106 5.25837 13.8966 5.16032 14.7066 5.15845Z" fill="url(#paint2_radial_7_111942)"/>
<path style="mix-blend-mode:multiply" fill-rule="evenodd" clip-rule="evenodd" d="M411.292 66.8416H14.7081C13.8966 66.8397 13.1046 66.7413 12.3872 66.5586C11.4236 66.3131 10.3762 66.2781 9.49701 66.7427L8.6198 67.2061C6.65559 68.2438 6.73973 70.9112 8.90944 71.388C10.7471 71.7919 12.7178 71.9998 14.7081 72H411.292C413.136 71.9975 414.944 71.818 416.636 71.4793C419.001 71.0057 419.101 68.1218 416.966 66.9985L416.478 66.742C415.596 66.278 414.546 66.3163 413.581 66.5621C413.501 66.5824 413.42 66.6016 413.339 66.6198C412.691 66.7642 411.995 66.8396 411.292 66.8416Z" fill="url(#paint3_radial_7_111942)"/>
<path style="mix-blend-mode:screen" fill-rule="evenodd" clip-rule="evenodd" d="M10.3481 63.9711V8.04555C10.3462 7.64953 10.4913 7.25724 10.7749 6.89135C11.1879 6.35837 11.203 5.48608 10.6088 5.16726L6.12138 2.75924C5.23746 2.28491 4.15899 2.26206 3.33476 2.83384C1.19279 4.31975 0.00910582 6.14958 0 8.04555V63.9544C0.0003055 65.0781 0.416295 66.1907 1.224 67.2282C1.7665 67.9251 2.47854 68.5788 3.3395 69.1731C4.16177 69.7406 5.23508 69.7176 6.11629 69.2467L10.6018 66.85C11.1997 66.5305 11.1869 65.654 10.7736 65.1166C10.4902 64.7479 10.3455 64.353 10.3481 63.9544V63.9711Z" fill="url(#paint4_radial_7_111942)"/>
<path style="mix-blend-mode:multiply" fill-rule="evenodd" clip-rule="evenodd" d="M415.683 8.04555V63.9544C415.673 65.1739 415.451 66.875 416.528 67.4478L419.914 69.2494C420.796 69.7186 421.869 69.7399 422.69 69.1706C423.547 68.5764 424.254 67.923 424.793 67.2268C425.595 66.1893 426.005 65.0771 426 63.9544V8.04555C426.001 6.15202 424.827 4.32295 422.695 2.83633C421.872 2.26277 420.793 2.28391 419.909 2.75659L415.402 5.16488C414.805 5.48343 414.821 6.35944 415.24 6.88995C415.528 7.25578 415.679 7.6485 415.683 8.04555Z" fill="url(#paint5_linear_7_111942)"/>
<path style="mix-blend-mode:screen" fill-rule="evenodd" clip-rule="evenodd" d="M10.3481 43.6991V8.05229C10.3462 7.65583 10.4913 7.2631 10.7749 6.8968C11.188 6.36305 11.2032 5.49007 10.6086 5.17065L6.12261 2.76074C5.23804 2.28554 4.15837 2.26266 3.33368 2.83552C1.19239 4.32295 0.0091043 6.15452 0 8.05229V41.59C0 43.7067 2.14662 45.1784 4.20258 44.675C6.14537 44.1992 8.20653 43.8648 10.3314 43.6839C10.3404 43.6831 10.3481 43.6902 10.3481 43.6991Z" fill="url(#paint6_linear_7_111942)"/>
<path style="mix-blend-mode:screen" fill-rule="evenodd" clip-rule="evenodd" d="M411.297 1.00828C411.288 1.01368 411.277 1.01652 411.266 1.01652H14.6879C11.0675 1.02517 7.59938 1.83297 5.03659 3.26451C2.47381 4.69604 1.02327 6.63574 1 8.66238V44.0844C1 44.5924 1.36052 45.0797 2.00226 45.4389C2.644 45.7982 3.51442 46 4.42198 46C5.32955 46 6.19996 45.7982 6.8417 45.4389C7.48345 45.0797 7.84396 44.5924 7.84396 44.0844V8.66238C7.85937 7.64896 8.58543 6.67949 9.86559 5.96286C11.1458 5.24623 12.8776 4.83982 14.6879 4.83119H411.283C413.095 4.83554 414.832 5.24057 416.113 5.95812C417.395 6.67567 418.119 7.64763 418.127 8.66238V16.9193C418.127 17.4295 418.489 17.9188 419.133 18.2796C419.778 18.6404 420.652 18.8431 421.563 18.8431C422.475 18.8431 423.349 18.6404 423.993 18.2796C424.638 17.9188 425 17.4295 425 16.9193V8.66238C424.984 6.63287 423.537 4.68896 420.974 3.25386C418.414 1.821 414.948 1.01122 411.329 1.00005C411.318 1.00001 411.307 1.00285 411.297 1.00828Z" fill="url(#paint7_radial_7_111942)"/>
<g style="mix-blend-mode:screen">
<path fill-rule="evenodd" clip-rule="evenodd" d="M150.985 4C77.4965 4 18 4.50836 18 4.76254C18 5.01671 127.675 4.99977 150.985 4.99977C174.296 4.99977 284 4.99977 284 4.76254C284 4.5253 224.445 4 150.985 4Z" fill="#EEFFC5"/>
</g>
<g style="mix-blend-mode:multiply">
<path fill-rule="evenodd" clip-rule="evenodd" d="M7.3429 68.512C7.33299 68.512 7.32834 68.4998 7.33582 68.4933C8.26268 67.6874 9.4018 66.9752 10.7096 66.384C10.839 66.336 10.9722 66.2922 11.1085 66.2526C11.4143 66.1637 11.5312 65.3619 11.2747 65.173C10.8085 64.8298 10.4773 64.429 10.3054 64C10.4668 64.6318 10.2776 65.2777 9.76643 65.84C8.84264 66.6523 7.69487 67.3663 6.37127 67.952C6.25633 67.9979 6.13712 68.0391 6.01446 68.0754C5.4546 68.241 5.18694 69.0741 5.69953 69.3536C5.90473 69.4655 6.11568 69.5738 6.3321 69.6782C6.58183 69.7987 6.89732 69.5078 6.9562 69.2368C7.01018 68.9884 7.14416 68.7486 7.35071 68.5303C7.35723 68.5234 7.35238 68.512 7.3429 68.512Z" fill="#FFFBD9"/>
</g>
<g style="mix-blend-mode:multiply">
<path fill-rule="evenodd" clip-rule="evenodd" d="M418.66 68.512C418.675 68.512 418.682 68.4938 418.671 68.4839C417.758 67.6748 416.617 66.9645 415.297 66.384C415.167 66.3347 415.032 66.2897 414.895 66.2492C414.594 66.1607 414.475 65.3577 414.728 65.1719C415.196 64.8288 415.528 64.4286 415.703 64C415.541 64.6318 415.731 65.2777 416.243 65.84C417.162 66.6559 418.315 67.3706 419.649 67.952C419.989 68.0899 420.372 68.1864 420.775 68.2359C421.129 68.2792 421.303 68.7623 421.002 68.9531C420.605 69.2045 420.18 69.4402 419.73 69.6586C419.46 69.7899 419.115 69.4776 419.034 69.1878C418.972 68.962 418.842 68.7426 418.649 68.5399C418.639 68.5295 418.646 68.512 418.66 68.512Z" fill="#FFFBD9"/>
</g>
<g style="mix-blend-mode:screen">
<path fill-rule="evenodd" clip-rule="evenodd" d="M7.34298 3.49999C7.33306 3.49999 7.32841 3.51226 7.33591 3.51876C8.26276 4.32246 9.40184 5.03273 10.7096 5.62234C10.8393 5.67028 10.9727 5.71408 11.1093 5.75364C11.4144 5.84205 11.5307 6.64208 11.2747 6.8301C10.8085 7.17244 10.4773 7.57214 10.3054 8C10.4668 7.36987 10.2776 6.72575 9.76643 6.1649C8.84342 5.34983 7.69576 4.63239 6.37127 4.04255C6.25406 3.99836 6.13286 3.95884 6.00845 3.92408C5.44444 3.76648 5.17611 2.93888 5.68924 2.65666C5.8766 2.55361 6.06878 2.4536 6.26559 2.35674C6.53764 2.22285 6.89123 2.54374 6.97153 2.83612C7.03321 3.06069 7.16035 3.27927 7.35075 3.48161C7.35724 3.48851 7.35246 3.49999 7.34298 3.49999Z" fill="#FFFBD9"/>
</g>
<g style="mix-blend-mode:screen">
<path fill-rule="evenodd" clip-rule="evenodd" d="M418.66 3.49999C418.675 3.49999 418.682 3.51828 418.671 3.52812C417.758 4.33505 416.617 5.04345 415.297 5.62234C415.167 5.67163 415.032 5.71655 414.894 5.75699C414.593 5.84497 414.476 6.64627 414.728 6.83117C415.196 7.17337 415.528 7.57259 415.703 8C415.541 7.36987 415.731 6.72575 416.243 6.1649C417.162 5.3463 418.314 4.62817 419.649 4.04255C419.758 4.00071 419.871 3.96305 419.987 3.92964C420.558 3.76529 420.832 2.93217 420.312 2.64583C420.125 2.54333 419.934 2.44397 419.738 2.34788C419.465 2.21439 419.116 2.5292 419.035 2.82147C418.971 3.04802 418.842 3.26836 418.649 3.47214C418.639 3.48255 418.646 3.49999 418.66 3.49999Z" fill="#FFFBD9"/>
</g>
<path style="mix-blend-mode:screen" opacity="0.3" fill-rule="evenodd" clip-rule="evenodd" d="M213.015 69C103.104 69 14 68.012 14 67.4562C14 66.9004 178.099 67.0085 213.015 67.0085C247.93 67.0085 412 67.0085 412 67.4562C412 67.9039 322.926 69 213.015 69Z" fill="url(#paint8_radial_7_111942)"/>
<g style="mix-blend-mode:screen">
<path fill-rule="evenodd" clip-rule="evenodd" d="M387.5 66.0372C379.309 65.9077 371.109 66.1165 363 66.661C379.318 67.113 395.682 67.113 412 66.661C403.891 66.1165 395.691 65.9077 387.5 66.0372Z" fill="#D2FF83"/>
</g>
<g style="mix-blend-mode:screen">
<path fill-rule="evenodd" clip-rule="evenodd" d="M346 66.0351C344.571 65.9994 344.552 66.9999 345.982 67C347.412 67.0001 347.43 65.9999 346 66.0351Z" fill="#D2FF83"/>
</g>
<path style="mix-blend-mode:screen" opacity="0.5" fill-rule="evenodd" clip-rule="evenodd" d="M10 43.9832C10 43.9923 10.0058 43.9996 10.0148 43.9989C64.0568 39.8221 352.263 22.6541 414.406 17.8938C415.966 17.7742 417 16.4851 417 14.9202V8.05948C416.992 7.24942 416.425 6.47379 415.422 5.90098C414.418 5.32817 413.06 5.00441 411.641 5H15.3592C13.9324 5.00357 12.5664 5.33002 11.5606 5.90776C11.0644 6.18979 10.6711 6.52515 10.4032 6.89447C10.1354 7.26379 9.9983 7.65975 10 8.05948V43.9832Z" fill="url(#paint9_linear_7_111942)"/>
<path d="M53.0886 34.244C53.0659 34.5387 53.0432 34.9467 53.0206 35.468C53.0206 35.9893 53.0206 36.5333 53.0206 37.1C53.0206 37.644 53.0206 38.188 53.0206 38.732C53.0432 39.2533 53.0659 39.6613 53.0886 39.956C53.1339 40.4773 53.2359 40.976 53.3946 41.452C53.5532 41.928 53.8026 42.3473 54.1426 42.71C54.4826 43.0727 54.9132 43.3673 55.4346 43.594C55.9559 43.798 56.6019 43.9 57.3726 43.9C58.1432 43.9 58.7779 43.8093 59.2766 43.628C59.7752 43.4467 60.1832 43.2313 60.5006 42.982C60.8179 42.71 61.0559 42.4153 61.2146 42.098C61.3959 41.7807 61.5319 41.486 61.6226 41.214C61.7359 40.8513 61.8606 40.602 61.9966 40.466C62.1326 40.3073 62.3932 40.228 62.7786 40.228H67.2326C67.4366 40.228 67.6066 40.3073 67.7426 40.466C67.9012 40.602 67.9806 40.772 67.9806 40.976C67.9579 42.132 67.6746 43.22 67.1306 44.24C66.5866 45.26 65.8386 46.144 64.8866 46.892C63.9346 47.64 62.8126 48.2407 61.5206 48.694C60.2512 49.1247 58.8686 49.34 57.3726 49.34C55.7406 49.34 54.2786 49.102 52.9866 48.626C51.7172 48.1273 50.6292 47.4587 49.7226 46.62C48.8159 45.7813 48.1132 44.8067 47.6146 43.696C47.1386 42.5627 46.8666 41.3727 46.7986 40.126C46.7532 39.1967 46.7306 38.1993 46.7306 37.134C46.7306 36.0687 46.7532 35.0487 46.7986 34.074C46.8439 32.8273 47.1159 31.6487 47.6146 30.538C48.1132 29.4047 48.8046 28.4187 49.6886 27.58C50.5952 26.7413 51.6946 26.084 52.9866 25.608C54.2786 25.1093 55.7406 24.86 57.3726 24.86C58.8686 24.86 60.2512 25.0867 61.5206 25.54C62.8126 25.9707 63.9346 26.56 64.8866 27.308C65.8386 28.056 66.5866 28.94 67.1306 29.96C67.6746 30.98 67.9579 32.068 67.9806 33.224C67.9806 33.428 67.9012 33.6093 67.7426 33.768C67.6066 33.904 67.4366 33.972 67.2326 33.972H62.7786C62.3932 33.972 62.1326 33.904 61.9966 33.768C61.8606 33.6093 61.7359 33.3487 61.6226 32.986C61.5319 32.714 61.3959 32.4193 61.2146 32.102C61.0559 31.7847 60.8179 31.5013 60.5006 31.252C60.1832 30.98 59.7752 30.7533 59.2766 30.572C58.7779 30.3907 58.1432 30.3 57.3726 30.3C56.6019 30.3 55.9559 30.4133 55.4346 30.64C54.9132 30.844 54.4826 31.1273 54.1426 31.49C53.8026 31.8527 53.5532 32.272 53.3946 32.748C53.2359 33.224 53.1339 33.7227 53.0886 34.244ZM69.5156 34.074C69.5836 32.8047 69.8556 31.6147 70.3316 30.504C70.8303 29.3707 71.5216 28.396 72.4056 27.58C73.3123 26.7413 74.4003 26.084 75.6696 25.608C76.9616 25.1093 78.4463 24.86 80.1236 24.86C81.7783 24.86 83.2516 25.1093 84.5436 25.608C85.8356 26.084 86.9236 26.7413 87.8076 27.58C88.7143 28.396 89.4056 29.3707 89.8816 30.504C90.3803 31.6147 90.6636 32.8047 90.7316 34.074C90.777 35.0487 90.7996 36.0687 90.7996 37.134C90.7996 38.1993 90.777 39.1967 90.7316 40.126C90.6636 41.3953 90.3803 42.5967 89.8816 43.73C89.4056 44.8407 88.7143 45.8153 87.8076 46.654C86.9236 47.4927 85.8356 48.15 84.5436 48.626C83.2516 49.102 81.7783 49.34 80.1236 49.34C78.4463 49.34 76.9616 49.102 75.6696 48.626C74.4003 48.15 73.3123 47.4927 72.4056 46.654C71.5216 45.8153 70.8303 44.8407 70.3316 43.73C69.8556 42.5967 69.5836 41.3953 69.5156 40.126C69.4703 39.1967 69.4476 38.1993 69.4476 37.134C69.4476 36.0687 69.4703 35.0487 69.5156 34.074ZM84.4416 39.956C84.4643 39.548 84.487 39.0947 84.5096 38.596C84.5323 38.0973 84.5436 37.5873 84.5436 37.066C84.5436 36.5447 84.5323 36.046 84.5096 35.57C84.487 35.0713 84.4643 34.6293 84.4416 34.244C84.3963 33.6773 84.2716 33.156 84.0676 32.68C83.8863 32.204 83.6143 31.796 83.2516 31.456C82.9116 31.0933 82.481 30.81 81.9596 30.606C81.4383 30.402 80.8263 30.3 80.1236 30.3C79.421 30.3 78.809 30.402 78.2876 30.606C77.7663 30.81 77.3243 31.0933 76.9616 31.456C76.6216 31.796 76.3496 32.204 76.1456 32.68C75.9643 33.156 75.851 33.6773 75.8056 34.244C75.7603 34.6293 75.7263 35.0713 75.7036 35.57C75.7036 36.046 75.7036 36.5447 75.7036 37.066C75.7036 37.5873 75.7036 38.0973 75.7036 38.596C75.7263 39.0947 75.7603 39.548 75.8056 39.956C75.8963 41.0893 76.2816 42.03 76.9616 42.778C77.6643 43.526 78.7183 43.9 80.1236 43.9C81.529 43.9 82.5716 43.526 83.2516 42.778C83.9316 42.03 84.3283 41.0893 84.4416 39.956ZM104.256 43.288C103.916 43.288 103.644 43.1973 103.44 43.016C103.259 42.812 103.111 42.6193 102.998 42.438L99.8019 36.828V48.082C99.8019 48.3313 99.7113 48.5467 99.5299 48.728C99.3486 48.9093 99.1332 49 98.8839 49H94.4299C94.1806 49 93.9652 48.9093 93.7839 48.728C93.6026 48.5467 93.5119 48.3313 93.5119 48.082V26.118C93.5119 25.8687 93.6026 25.6533 93.7839 25.472C93.9652 25.2907 94.1806 25.2 94.4299 25.2H98.3739C98.8272 25.2 99.1672 25.3247 99.3939 25.574C99.6206 25.8233 99.7679 26.0047 99.8359 26.118L105.344 35.536L110.852 26.118C110.92 26.0047 111.067 25.8233 111.294 25.574C111.521 25.3247 111.861 25.2 112.314 25.2H116.258C116.507 25.2 116.723 25.2907 116.904 25.472C117.085 25.6533 117.176 25.8687 117.176 26.118V48.082C117.176 48.3313 117.085 48.5467 116.904 48.728C116.723 48.9093 116.507 49 116.258 49H111.804C111.555 49 111.339 48.9093 111.158 48.728C110.977 48.5467 110.886 48.3313 110.886 48.082V36.828L107.69 42.438C107.577 42.6193 107.418 42.812 107.214 43.016C107.033 43.1973 106.772 43.288 106.432 43.288H104.256ZM131.386 25.2C132.836 25.2 134.14 25.37 135.296 25.71C136.452 26.0273 137.438 26.526 138.254 27.206C139.07 27.8633 139.693 28.6907 140.124 29.688C140.577 30.6853 140.804 31.8413 140.804 33.156C140.804 34.4933 140.577 35.6607 140.124 36.658C139.693 37.6553 139.07 38.4827 138.254 39.14C137.438 39.7973 136.452 40.296 135.296 40.636C134.14 40.976 132.836 41.146 131.386 41.146H127.034V48.082C127.034 48.3313 126.943 48.5467 126.762 48.728C126.58 48.9093 126.365 49 126.116 49H121.662C121.412 49 121.197 48.9093 121.016 48.728C120.834 48.5467 120.744 48.3313 120.744 48.082V26.118C120.744 25.8687 120.834 25.6533 121.016 25.472C121.197 25.2907 121.412 25.2 121.662 25.2H131.386ZM127.034 35.842H131.216C132.168 35.842 132.95 35.638 133.562 35.23C134.196 34.7993 134.514 34.108 134.514 33.156C134.514 32.204 134.196 31.524 133.562 31.116C132.95 30.6853 132.168 30.47 131.216 30.47H127.034V35.842ZM162.378 25.2C162.628 25.2 162.843 25.2907 163.024 25.472C163.206 25.6533 163.296 25.8687 163.296 26.118V39.684C163.296 41.248 163.047 42.6307 162.548 43.832C162.05 45.0333 161.336 46.042 160.406 46.858C159.5 47.674 158.412 48.2973 157.142 48.728C155.873 49.136 154.479 49.34 152.96 49.34C151.419 49.34 150.014 49.136 148.744 48.728C147.475 48.2973 146.387 47.674 145.48 46.858C144.574 46.042 143.871 45.0333 143.372 43.832C142.874 42.6307 142.624 41.248 142.624 39.684V26.118C142.624 25.8687 142.715 25.6533 142.896 25.472C143.078 25.2907 143.293 25.2 143.542 25.2H147.996C148.246 25.2 148.461 25.2907 148.642 25.472C148.824 25.6533 148.914 25.8687 148.914 26.118V39.548C148.914 40.908 149.243 41.9733 149.9 42.744C150.58 43.5147 151.6 43.9 152.96 43.9C154.32 43.9 155.329 43.5147 155.986 42.744C156.666 41.9733 157.006 40.908 157.006 39.548V26.118C157.006 25.8687 157.097 25.6533 157.278 25.472C157.46 25.2907 157.675 25.2 157.924 25.2H162.378ZM184.117 25.2C184.366 25.2 184.582 25.2907 184.763 25.472C184.944 25.6533 185.035 25.8687 185.035 26.118V29.722C185.035 29.9713 184.944 30.1867 184.763 30.368C184.582 30.5493 184.366 30.64 184.117 30.64H178.133V48.082C178.133 48.3313 178.042 48.5467 177.861 48.728C177.68 48.9093 177.464 49 177.215 49H172.761C172.512 49 172.296 48.9093 172.115 48.728C171.934 48.5467 171.843 48.3313 171.843 48.082V30.64H165.859C165.61 30.64 165.394 30.5493 165.213 30.368C165.032 30.1867 164.941 29.9713 164.941 29.722V26.118C164.941 25.8687 165.032 25.6533 165.213 25.472C165.394 25.2907 165.61 25.2 165.859 25.2H184.117ZM203.934 43.56C204.184 43.56 204.399 43.6507 204.58 43.832C204.762 44.0133 204.852 44.2287 204.852 44.478V48.082C204.852 48.3313 204.762 48.5467 204.58 48.728C204.399 48.9093 204.184 49 203.934 49H187.818C187.569 49 187.354 48.9093 187.172 48.728C186.991 48.5467 186.9 48.3313 186.9 48.082V26.118C186.9 25.8687 186.991 25.6533 187.172 25.472C187.354 25.2907 187.569 25.2 187.818 25.2H203.662C203.912 25.2 204.127 25.2907 204.308 25.472C204.49 25.6533 204.58 25.8687 204.58 26.118V29.722C204.58 29.9713 204.49 30.1867 204.308 30.368C204.127 30.5493 203.912 30.64 203.662 30.64H193.19V34.312H202.914C203.164 34.312 203.379 34.4027 203.56 34.584C203.742 34.7653 203.832 34.9807 203.832 35.23V38.834C203.832 39.0833 203.742 39.2987 203.56 39.48C203.379 39.6613 203.164 39.752 202.914 39.752H193.19V43.56H203.934ZM223.501 25.2C225.065 25.2 226.493 25.438 227.785 25.914C229.077 26.3673 230.188 27.0133 231.117 27.852C232.069 28.6907 232.806 29.6993 233.327 30.878C233.871 32.034 234.177 33.3033 234.245 34.686C234.268 35.162 234.279 35.604 234.279 36.012C234.279 36.3973 234.279 36.7713 234.279 37.134C234.279 37.4967 234.279 37.8707 234.279 38.256C234.279 38.6413 234.268 39.0607 234.245 39.514C234.177 40.9193 233.882 42.2 233.361 43.356C232.84 44.512 232.114 45.5093 231.185 46.348C230.278 47.1867 229.19 47.844 227.921 48.32C226.652 48.7733 225.235 49 223.671 49H214.491C214.242 49 214.026 48.9093 213.845 48.728C213.664 48.5467 213.573 48.3313 213.573 48.082V26.118C213.573 25.8687 213.664 25.6533 213.845 25.472C214.026 25.2907 214.242 25.2 214.491 25.2H223.501ZM227.955 34.55C227.819 31.9433 226.278 30.64 223.331 30.64H219.863V43.56H223.501C226.357 43.56 227.842 42.2567 227.955 39.65C227.978 39.174 227.989 38.732 227.989 38.324C227.989 37.8933 227.989 37.4853 227.989 37.1C227.989 36.692 227.989 36.284 227.989 35.876C227.989 35.468 227.978 35.026 227.955 34.55ZM237.871 49C237.622 49 237.407 48.9093 237.225 48.728C237.044 48.5467 236.953 48.3313 236.953 48.082V26.118C236.953 25.8687 237.044 25.6533 237.225 25.472C237.407 25.2907 237.622 25.2 237.871 25.2H242.325C242.575 25.2 242.79 25.2907 242.971 25.472C243.153 25.6533 243.243 25.8687 243.243 26.118V48.082C243.243 48.3313 243.153 48.5467 242.971 48.728C242.79 48.9093 242.575 49 242.325 49H237.871ZM255.66 24.86C257.111 24.86 258.437 25.0753 259.638 25.506C260.862 25.914 261.916 26.4467 262.8 27.104C263.684 27.7613 264.375 28.4867 264.874 29.28C265.373 30.0733 265.633 30.8327 265.656 31.558C265.656 31.762 265.577 31.9433 265.418 32.102C265.282 32.238 265.123 32.306 264.942 32.306H260.488C260.171 32.306 259.91 32.2607 259.706 32.17C259.525 32.0793 259.332 31.9433 259.128 31.762C259.06 31.694 258.947 31.5807 258.788 31.422C258.652 31.2633 258.448 31.1047 258.176 30.946C257.904 30.7647 257.564 30.6173 257.156 30.504C256.748 30.368 256.249 30.3 255.66 30.3C255.229 30.3 254.81 30.334 254.402 30.402C254.017 30.4473 253.665 30.538 253.348 30.674C253.053 30.7873 252.804 30.9573 252.6 31.184C252.419 31.4107 252.328 31.694 252.328 32.034C252.328 32.374 252.43 32.6573 252.634 32.884C252.861 33.1107 253.223 33.326 253.722 33.53C254.243 33.7113 254.923 33.8927 255.762 34.074C256.601 34.2553 257.643 34.4707 258.89 34.72C260.137 34.9693 261.225 35.2867 262.154 35.672C263.083 36.0573 263.854 36.5447 264.466 37.134C265.101 37.7007 265.565 38.3807 265.86 39.174C266.177 39.9447 266.336 40.8627 266.336 41.928C266.336 43.084 266.075 44.1153 265.554 45.022C265.033 45.9287 264.296 46.7107 263.344 47.368C262.415 48.0027 261.304 48.49 260.012 48.83C258.743 49.17 257.349 49.34 255.83 49.34C254.289 49.34 252.883 49.136 251.614 48.728C250.345 48.32 249.245 47.7873 248.316 47.13C247.409 46.45 246.695 45.6907 246.174 44.852C245.653 44.0133 245.381 43.1633 245.358 42.302C245.358 42.098 245.426 41.928 245.562 41.792C245.721 41.6333 245.891 41.554 246.072 41.554H250.526C250.843 41.554 251.093 41.5993 251.274 41.69C251.455 41.758 251.637 41.8713 251.818 42.03C251.909 42.1207 252.045 42.268 252.226 42.472C252.407 42.676 252.645 42.8913 252.94 43.118C253.257 43.322 253.643 43.5033 254.096 43.662C254.572 43.8207 255.15 43.9 255.83 43.9C257.031 43.9 258.029 43.7753 258.822 43.526C259.638 43.254 260.046 42.778 260.046 42.098C260.046 41.758 259.899 41.4747 259.604 41.248C259.309 41.0213 258.867 40.8173 258.278 40.636C257.689 40.432 256.929 40.2393 256 40.058C255.093 39.8767 254.017 39.65 252.77 39.378C250.435 38.8793 248.724 38.052 247.636 36.896C246.571 35.7173 246.038 34.1533 246.038 32.204C246.038 31.2293 246.253 30.3 246.684 29.416C247.137 28.532 247.783 27.75 248.622 27.07C249.461 26.39 250.469 25.8573 251.648 25.472C252.849 25.064 254.187 24.86 255.66 24.86ZM274.014 34.244C273.992 34.5387 273.969 34.9467 273.946 35.468C273.946 35.9893 273.946 36.5333 273.946 37.1C273.946 37.644 273.946 38.188 273.946 38.732C273.969 39.2533 273.992 39.6613 274.014 39.956C274.06 40.4773 274.162 40.976 274.32 41.452C274.479 41.928 274.728 42.3473 275.068 42.71C275.408 43.0727 275.839 43.3673 276.36 43.594C276.882 43.798 277.528 43.9 278.298 43.9C279.069 43.9 279.704 43.8093 280.202 43.628C280.701 43.4467 281.109 43.2313 281.426 42.982C281.744 42.71 281.982 42.4153 282.14 42.098C282.322 41.7807 282.458 41.486 282.548 41.214C282.662 40.8513 282.786 40.602 282.922 40.466C283.058 40.3073 283.319 40.228 283.704 40.228H288.158C288.362 40.228 288.532 40.3073 288.668 40.466C288.827 40.602 288.906 40.772 288.906 40.976C288.884 42.132 288.6 43.22 288.056 44.24C287.512 45.26 286.764 46.144 285.812 46.892C284.86 47.64 283.738 48.2407 282.446 48.694C281.177 49.1247 279.794 49.34 278.298 49.34C276.666 49.34 275.204 49.102 273.912 48.626C272.643 48.1273 271.555 47.4587 270.648 46.62C269.742 45.7813 269.039 44.8067 268.54 43.696C268.064 42.5627 267.792 41.3727 267.724 40.126C267.679 39.1967 267.656 38.1993 267.656 37.134C267.656 36.0687 267.679 35.0487 267.724 34.074C267.77 32.8273 268.042 31.6487 268.54 30.538C269.039 29.4047 269.73 28.4187 270.614 27.58C271.521 26.7413 272.62 26.084 273.912 25.608C275.204 25.1093 276.666 24.86 278.298 24.86C279.794 24.86 281.177 25.0867 282.446 25.54C283.738 25.9707 284.86 26.56 285.812 27.308C286.764 28.056 287.512 28.94 288.056 29.96C288.6 30.98 288.884 32.068 288.906 33.224C288.906 33.428 288.827 33.6093 288.668 33.768C288.532 33.904 288.362 33.972 288.158 33.972H283.704C283.319 33.972 283.058 33.904 282.922 33.768C282.786 33.6093 282.662 33.3487 282.548 32.986C282.458 32.714 282.322 32.4193 282.14 32.102C281.982 31.7847 281.744 31.5013 281.426 31.252C281.109 30.98 280.701 30.7533 280.202 30.572C279.704 30.3907 279.069 30.3 278.298 30.3C277.528 30.3 276.882 30.4133 276.36 30.64C275.839 30.844 275.408 31.1273 275.068 31.49C274.728 31.8527 274.479 32.272 274.32 32.748C274.162 33.224 274.06 33.7227 274.014 34.244ZM290.441 34.074C290.509 32.8047 290.781 31.6147 291.257 30.504C291.756 29.3707 292.447 28.396 293.331 27.58C294.238 26.7413 295.326 26.084 296.595 25.608C297.887 25.1093 299.372 24.86 301.049 24.86C302.704 24.86 304.177 25.1093 305.469 25.608C306.761 26.084 307.849 26.7413 308.733 27.58C309.64 28.396 310.331 29.3707 310.807 30.504C311.306 31.6147 311.589 32.8047 311.657 34.074C311.703 35.0487 311.725 36.0687 311.725 37.134C311.725 38.1993 311.703 39.1967 311.657 40.126C311.589 41.3953 311.306 42.5967 310.807 43.73C310.331 44.8407 309.64 45.8153 308.733 46.654C307.849 47.4927 306.761 48.15 305.469 48.626C304.177 49.102 302.704 49.34 301.049 49.34C299.372 49.34 297.887 49.102 296.595 48.626C295.326 48.15 294.238 47.4927 293.331 46.654C292.447 45.8153 291.756 44.8407 291.257 43.73C290.781 42.5967 290.509 41.3953 290.441 40.126C290.396 39.1967 290.373 38.1993 290.373 37.134C290.373 36.0687 290.396 35.0487 290.441 34.074ZM305.367 39.956C305.39 39.548 305.413 39.0947 305.435 38.596C305.458 38.0973 305.469 37.5873 305.469 37.066C305.469 36.5447 305.458 36.046 305.435 35.57C305.413 35.0713 305.39 34.6293 305.367 34.244C305.322 33.6773 305.197 33.156 304.993 32.68C304.812 32.204 304.54 31.796 304.177 31.456C303.837 31.0933 303.407 30.81 302.885 30.606C302.364 30.402 301.752 30.3 301.049 30.3C300.347 30.3 299.735 30.402 299.213 30.606C298.692 30.81 298.25 31.0933 297.887 31.456C297.547 31.796 297.275 32.204 297.071 32.68C296.89 33.156 296.777 33.6773 296.731 34.244C296.686 34.6293 296.652 35.0713 296.629 35.57C296.629 36.046 296.629 36.5447 296.629 37.066C296.629 37.5873 296.629 38.0973 296.629 38.596C296.652 39.0947 296.686 39.548 296.731 39.956C296.822 41.0893 297.207 42.03 297.887 42.778C298.59 43.526 299.644 43.9 301.049 43.9C302.455 43.9 303.497 43.526 304.177 42.778C304.857 42.03 305.254 41.0893 305.367 39.956ZM333.954 25.2C334.203 25.2 334.418 25.2907 334.6 25.472C334.781 25.6533 334.872 25.8687 334.872 26.118V39.684C334.872 41.248 334.622 42.6307 334.124 43.832C333.625 45.0333 332.911 46.042 331.982 46.858C331.075 47.674 329.987 48.2973 328.718 48.728C327.448 49.136 326.054 49.34 324.536 49.34C322.994 49.34 321.589 49.136 320.32 48.728C319.05 48.2973 317.962 47.674 317.056 46.858C316.149 46.042 315.446 45.0333 314.948 43.832C314.449 42.6307 314.2 41.248 314.2 39.684V26.118C314.2 25.8687 314.29 25.6533 314.472 25.472C314.653 25.2907 314.868 25.2 315.118 25.2H319.572C319.821 25.2 320.036 25.2907 320.218 25.472C320.399 25.6533 320.49 25.8687 320.49 26.118V39.548C320.49 40.908 320.818 41.9733 321.476 42.744C322.156 43.5147 323.176 43.9 324.536 43.9C325.896 43.9 326.904 43.5147 327.562 42.744C328.242 41.9733 328.582 40.908 328.582 39.548V26.118C328.582 25.8687 328.672 25.6533 328.854 25.472C329.035 25.2907 329.25 25.2 329.5 25.2H333.954ZM353.686 49C353.301 49 352.984 48.898 352.734 48.694C352.508 48.49 352.36 48.3313 352.292 48.218L344.506 36.59V48.082C344.506 48.3313 344.416 48.5467 344.234 48.728C344.053 48.9093 343.838 49 343.588 49H339.134C338.885 49 338.67 48.9093 338.488 48.728C338.307 48.5467 338.216 48.3313 338.216 48.082V26.118C338.216 25.8687 338.307 25.6533 338.488 25.472C338.67 25.2907 338.885 25.2 339.134 25.2H342.67C343.056 25.2 343.362 25.302 343.588 25.506C343.838 25.71 343.996 25.8687 344.064 25.982L351.85 37.61V26.118C351.85 25.8687 351.941 25.6533 352.122 25.472C352.304 25.2907 352.519 25.2 352.768 25.2H357.222C357.472 25.2 357.687 25.2907 357.868 25.472C358.05 25.6533 358.14 25.8687 358.14 26.118V48.082C358.14 48.3313 358.05 48.5467 357.868 48.728C357.687 48.9093 357.472 49 357.222 49H353.686ZM379.172 25.2C379.422 25.2 379.637 25.2907 379.818 25.472C380 25.6533 380.09 25.8687 380.09 26.118V29.722C380.09 29.9713 380 30.1867 379.818 30.368C379.637 30.5493 379.422 30.64 379.172 30.64H373.188V48.082C373.188 48.3313 373.098 48.5467 372.916 48.728C372.735 48.9093 372.52 49 372.27 49H367.816C367.567 49 367.352 48.9093 367.17 48.728C366.989 48.5467 366.898 48.3313 366.898 48.082V30.64H360.914C360.665 30.64 360.45 30.5493 360.268 30.368C360.087 30.1867 359.996 29.9713 359.996 29.722V26.118C359.996 25.8687 360.087 25.6533 360.268 25.472C360.45 25.2907 360.665 25.2 360.914 25.2H379.172Z" fill="black"/>
<defs>
<linearGradient id="paint0_linear_7_111942" x1="347.341" y1="110.956" x2="219.803" y2="-117.65" gradientUnits="userSpaceOnUse">
<stop stop-color="#FFD000"/>
<stop offset="1" stop-color="#FFF200"/>
</linearGradient>
<linearGradient id="paint1_linear_7_111942" x1="340.287" y1="108.1" x2="216.629" y2="-110.231" gradientUnits="userSpaceOnUse">
<stop stop-color="#FFB20C"/>
<stop offset="1" stop-color="#FFEF0C"/>
</linearGradient>
<radialGradient id="paint2_radial_7_111942" cx="0" cy="0" r="1" gradientUnits="userSpaceOnUse" gradientTransform="translate(30.1619 -2.80516) scale(393.372 207.848)">
<stop stop-color="#FF960D"/>
<stop offset="1" stop-color="#010D01"/>
</radialGradient>
<radialGradient id="paint3_radial_7_111942" cx="0" cy="0" r="1" gradientUnits="userSpaceOnUse" gradientTransform="translate(31.2275 64.161) scale(405.315 214.13)">
<stop stop-color="white"/>
<stop offset="1" stop-color="#FF9D00"/>
</radialGradient>
<radialGradient id="paint4_radial_7_111942" cx="0" cy="0" r="1" gradientUnits="userSpaceOnUse" gradientTransform="translate(-15.8026 3.79868) scale(157.59 84.2048)">
<stop stop-color="#FF960D"/>
<stop offset="1" stop-color="#010D01"/>
</radialGradient>
<linearGradient id="paint5_linear_7_111942" x1="414" y1="36.025" x2="426" y2="36.025" gradientUnits="userSpaceOnUse">
<stop stop-color="white"/>
<stop offset="1" stop-color="#FF9D00"/>
</linearGradient>
<linearGradient id="paint6_linear_7_111942" x1="6.01558" y1="46.0167" x2="6.01558" y2="2.01667" gradientUnits="userSpaceOnUse">
<stop stop-color="#010D01"/>
<stop offset="1" stop-color="#47B009"/>
</linearGradient>
<radialGradient id="paint7_radial_7_111942" cx="0" cy="0" r="1" gradientUnits="userSpaceOnUse" gradientTransform="translate(38.2582 -1.55964) scale(331.725 185.697)">
<stop stop-color="#FF960D"/>
<stop offset="1" stop-color="#010D01"/>
</radialGradient>
<radialGradient id="paint8_radial_7_111942" cx="0" cy="0" r="1" gradientUnits="userSpaceOnUse" gradientTransform="translate(215.821 59.4438) scale(253.729 31.5248)">
<stop stop-color="#FF960D"/>
<stop offset="1" stop-color="#010D01"/>
</radialGradient>
<linearGradient id="paint9_linear_7_111942" x1="10" y1="24.5" x2="417" y2="24.5" gradientUnits="userSpaceOnUse">
<stop stop-color="#FFE240"/>
<stop offset="1" stop-color="#010D01"/>
</linearGradient>
</defs>
</svg>
