<svg width="426" height="72" viewBox="0 0 426 72" fill="none" xmlns="http://www.w3.org/2000/svg">
<path fill-rule="evenodd" clip-rule="evenodd" d="M15.1313 0.00820716C15.1313 0.0127399 15.1349 0.0164143 15.1395 0.0164143H410.898C414.898 0.0164101 418.735 0.901811 421.566 2.47829C424.398 4.05477 425.992 6.19353 426 8.42518V63.5584C426 65.7944 424.41 67.9391 421.579 69.5217C418.747 71.1043 414.906 71.9957 410.898 72H15.1313C11.1206 71.9957 7.2764 71.1049 4.44043 69.5227C1.60446 67.9405 0.00778016 65.7959 0 63.5584V8.42518C0.00779758 6.18917 1.60542 4.04623 4.44223 2.46667C7.2771 0.888196 11.1181 0.00120876 15.1231 1.23455e-06C15.1276 -1.32085e-07 15.1313 0.00367447 15.1313 0.00820716Z" fill="url(#paint0_linear_7_94886)"/>
<path fill-rule="evenodd" clip-rule="evenodd" d="M15.3514 5.01666C13.9267 5.02019 12.5627 5.34359 11.5584 5.91593C11.0629 6.19533 10.6701 6.52755 10.4026 6.89342C10.1352 7.25929 9.9983 7.65155 10 8.04754V63.9525C10.0076 64.7565 10.573 65.5266 11.5741 66.0967C12.5752 66.6669 13.9318 66.9913 15.3514 67H410.649C412.068 66.9913 413.425 66.6669 414.426 66.0967C415.427 65.5266 415.992 64.7565 416 63.9525V8.03089C415.992 7.2284 415.426 6.46001 414.424 5.89256C413.422 5.3251 412.065 5.00437 410.649 5L15.3514 5.01666Z" fill="url(#paint1_linear_7_94886)"/>
<path style="mix-blend-mode:screen" fill-rule="evenodd" clip-rule="evenodd" d="M14.7066 5.15845H411.234C411.938 5.16043 412.633 5.2358 413.281 5.38022C413.364 5.39861 413.445 5.41808 413.526 5.43859C414.49 5.68433 415.538 5.72349 416.419 5.26179L416.942 4.9878C419.083 3.86612 418.982 0.977461 416.611 0.508454C414.926 0.175182 413.127 -0.00015195 411.293 2.71969e-05H14.7066C12.7184 -0.00271823 10.7488 0.202418 8.91127 0.603618C6.74083 1.0775 6.65233 3.74509 8.61472 4.78641L9.49421 5.2531C10.3744 5.72014 11.424 5.68602 12.3897 5.4405C13.106 5.25837 13.8966 5.16032 14.7066 5.15845Z" fill="url(#paint2_radial_7_94886)"/>
<path style="mix-blend-mode:multiply" fill-rule="evenodd" clip-rule="evenodd" d="M411.292 66.8416H14.7081C13.8966 66.8397 13.1046 66.7413 12.3872 66.5586C11.4236 66.3131 10.3762 66.2781 9.49701 66.7427L8.6198 67.2061C6.65559 68.2438 6.73973 70.9112 8.90944 71.388C10.7471 71.7919 12.7178 71.9998 14.7081 72H411.292C413.136 71.9975 414.944 71.818 416.636 71.4793C419.001 71.0057 419.101 68.1218 416.966 66.9985L416.478 66.742C415.596 66.278 414.546 66.3163 413.581 66.5621C413.501 66.5824 413.42 66.6016 413.339 66.6198C412.691 66.7642 411.995 66.8396 411.292 66.8416Z" fill="url(#paint3_radial_7_94886)"/>
<path style="mix-blend-mode:screen" fill-rule="evenodd" clip-rule="evenodd" d="M10.3481 63.9711V8.04555C10.3462 7.64953 10.4913 7.25724 10.7749 6.89135C11.1879 6.35837 11.203 5.48608 10.6088 5.16726L6.12138 2.75924C5.23746 2.28491 4.15899 2.26206 3.33476 2.83384C1.19279 4.31975 0.00910582 6.14958 0 8.04555V63.9544C0.0003055 65.0781 0.416295 66.1907 1.224 67.2282C1.7665 67.9251 2.47854 68.5788 3.3395 69.1731C4.16177 69.7406 5.23508 69.7176 6.11629 69.2467L10.6018 66.85C11.1997 66.5305 11.1869 65.654 10.7736 65.1166C10.4902 64.7479 10.3455 64.353 10.3481 63.9544V63.9711Z" fill="url(#paint4_radial_7_94886)"/>
<path style="mix-blend-mode:multiply" fill-rule="evenodd" clip-rule="evenodd" d="M415.683 8.04555V63.9544C415.673 65.1739 415.451 66.875 416.528 67.4478L419.914 69.2494C420.796 69.7186 421.869 69.7399 422.69 69.1706C423.547 68.5764 424.254 67.923 424.793 67.2268C425.595 66.1893 426.005 65.0771 426 63.9544V8.04555C426.001 6.15202 424.827 4.32295 422.695 2.83633C421.872 2.26277 420.793 2.28391 419.909 2.75659L415.402 5.16488C414.805 5.48343 414.821 6.35944 415.24 6.88995C415.528 7.25578 415.679 7.6485 415.683 8.04555Z" fill="url(#paint5_linear_7_94886)"/>
<path style="mix-blend-mode:screen" fill-rule="evenodd" clip-rule="evenodd" d="M10.3481 43.6991V8.05229C10.3462 7.65583 10.4913 7.2631 10.7749 6.8968C11.188 6.36305 11.2032 5.49007 10.6086 5.17065L6.12261 2.76074C5.23804 2.28554 4.15837 2.26266 3.33368 2.83552C1.19239 4.32295 0.0091043 6.15452 0 8.05229V41.59C0 43.7067 2.14662 45.1784 4.20258 44.675C6.14537 44.1992 8.20653 43.8648 10.3314 43.6839C10.3404 43.6831 10.3481 43.6902 10.3481 43.6991Z" fill="url(#paint6_linear_7_94886)"/>
<path style="mix-blend-mode:screen" fill-rule="evenodd" clip-rule="evenodd" d="M411.297 1.00828C411.288 1.01368 411.277 1.01652 411.266 1.01652H14.6879C11.0675 1.02517 7.59938 1.83297 5.03659 3.26451C2.47381 4.69604 1.02327 6.63574 1 8.66238V44.0844C1 44.5924 1.36052 45.0797 2.00226 45.4389C2.644 45.7982 3.51442 46 4.42198 46C5.32955 46 6.19996 45.7982 6.8417 45.4389C7.48345 45.0797 7.84396 44.5924 7.84396 44.0844V8.66238C7.85937 7.64896 8.58543 6.67949 9.86559 5.96286C11.1458 5.24623 12.8776 4.83982 14.6879 4.83119H411.283C413.095 4.83554 414.832 5.24057 416.113 5.95812C417.395 6.67567 418.119 7.64763 418.127 8.66238V16.9193C418.127 17.4295 418.489 17.9188 419.133 18.2796C419.778 18.6404 420.652 18.8431 421.563 18.8431C422.475 18.8431 423.349 18.6404 423.993 18.2796C424.638 17.9188 425 17.4295 425 16.9193V8.66238C424.984 6.63287 423.537 4.68896 420.974 3.25386C418.414 1.821 414.948 1.01122 411.329 1.00005C411.318 1.00001 411.307 1.00285 411.297 1.00828Z" fill="url(#paint7_radial_7_94886)"/>
<g style="mix-blend-mode:screen">
<path fill-rule="evenodd" clip-rule="evenodd" d="M150.985 4C77.4965 4 18 4.50836 18 4.76254C18 5.01671 127.675 4.99977 150.985 4.99977C174.296 4.99977 284 4.99977 284 4.76254C284 4.5253 224.445 4 150.985 4Z" fill="#EEFFC5"/>
</g>
<g style="mix-blend-mode:multiply">
<path fill-rule="evenodd" clip-rule="evenodd" d="M7.3429 68.512C7.33299 68.512 7.32834 68.4998 7.33582 68.4933C8.26268 67.6874 9.4018 66.9752 10.7096 66.384C10.839 66.336 10.9722 66.2922 11.1085 66.2526C11.4143 66.1637 11.5312 65.3619 11.2747 65.173C10.8085 64.8298 10.4773 64.429 10.3054 64C10.4668 64.6318 10.2776 65.2777 9.76643 65.84C8.84264 66.6523 7.69487 67.3663 6.37127 67.952C6.25633 67.9979 6.13712 68.0391 6.01446 68.0754C5.4546 68.241 5.18694 69.0741 5.69953 69.3536C5.90473 69.4655 6.11568 69.5738 6.3321 69.6782C6.58183 69.7987 6.89732 69.5078 6.9562 69.2368C7.01018 68.9884 7.14416 68.7486 7.35071 68.5303C7.35723 68.5234 7.35238 68.512 7.3429 68.512Z" fill="#FFFBD9"/>
</g>
<g style="mix-blend-mode:multiply">
<path fill-rule="evenodd" clip-rule="evenodd" d="M418.66 68.512C418.675 68.512 418.682 68.4938 418.671 68.4839C417.758 67.6748 416.617 66.9645 415.297 66.384C415.167 66.3347 415.032 66.2897 414.895 66.2492C414.594 66.1607 414.475 65.3577 414.728 65.1719C415.196 64.8288 415.528 64.4286 415.703 64C415.541 64.6318 415.731 65.2777 416.243 65.84C417.162 66.6559 418.315 67.3706 419.649 67.952C419.989 68.0899 420.372 68.1864 420.775 68.2359C421.129 68.2792 421.303 68.7623 421.002 68.9531C420.605 69.2045 420.18 69.4402 419.73 69.6586C419.46 69.7899 419.115 69.4776 419.034 69.1878C418.972 68.962 418.842 68.7426 418.649 68.5399C418.639 68.5295 418.646 68.512 418.66 68.512Z" fill="#FFFBD9"/>
</g>
<g style="mix-blend-mode:screen">
<path fill-rule="evenodd" clip-rule="evenodd" d="M7.34298 3.49999C7.33306 3.49999 7.32841 3.51226 7.33591 3.51876C8.26276 4.32246 9.40184 5.03273 10.7096 5.62234C10.8393 5.67028 10.9727 5.71408 11.1093 5.75364C11.4144 5.84205 11.5307 6.64208 11.2747 6.8301C10.8085 7.17244 10.4773 7.57214 10.3054 8C10.4668 7.36987 10.2776 6.72575 9.76643 6.1649C8.84342 5.34983 7.69576 4.63239 6.37127 4.04255C6.25406 3.99836 6.13286 3.95884 6.00845 3.92408C5.44444 3.76648 5.17611 2.93888 5.68924 2.65666C5.8766 2.55361 6.06878 2.4536 6.26559 2.35674C6.53764 2.22285 6.89123 2.54374 6.97153 2.83612C7.03321 3.06069 7.16035 3.27927 7.35075 3.48161C7.35724 3.48851 7.35246 3.49999 7.34298 3.49999Z" fill="#FFFBD9"/>
</g>
<g style="mix-blend-mode:screen">
<path fill-rule="evenodd" clip-rule="evenodd" d="M418.66 3.49999C418.675 3.49999 418.682 3.51828 418.671 3.52812C417.758 4.33505 416.617 5.04345 415.297 5.62234C415.167 5.67163 415.032 5.71655 414.894 5.75699C414.593 5.84497 414.476 6.64627 414.728 6.83117C415.196 7.17337 415.528 7.57259 415.703 8C415.541 7.36987 415.731 6.72575 416.243 6.1649C417.162 5.3463 418.314 4.62817 419.649 4.04255C419.758 4.00071 419.871 3.96305 419.987 3.92964C420.558 3.76529 420.832 2.93217 420.312 2.64583C420.125 2.54333 419.934 2.44397 419.738 2.34788C419.465 2.21439 419.116 2.5292 419.035 2.82147C418.971 3.04802 418.842 3.26836 418.649 3.47214C418.639 3.48255 418.646 3.49999 418.66 3.49999Z" fill="#FFFBD9"/>
</g>
<path style="mix-blend-mode:screen" opacity="0.3" fill-rule="evenodd" clip-rule="evenodd" d="M213.015 69C103.104 69 14 68.012 14 67.4562C14 66.9004 178.099 67.0085 213.015 67.0085C247.93 67.0085 412 67.0085 412 67.4562C412 67.9039 322.926 69 213.015 69Z" fill="url(#paint8_radial_7_94886)"/>
<g style="mix-blend-mode:screen">
<path fill-rule="evenodd" clip-rule="evenodd" d="M387.5 66.0372C379.309 65.9077 371.109 66.1165 363 66.661C379.318 67.113 395.682 67.113 412 66.661C403.891 66.1165 395.691 65.9077 387.5 66.0372Z" fill="#D2FF83"/>
</g>
<g style="mix-blend-mode:screen">
<path fill-rule="evenodd" clip-rule="evenodd" d="M346 66.0351C344.571 65.9994 344.552 66.9999 345.982 67C347.412 67.0001 347.43 65.9999 346 66.0351Z" fill="#D2FF83"/>
</g>
<path style="mix-blend-mode:screen" opacity="0.5" fill-rule="evenodd" clip-rule="evenodd" d="M10 43.9832C10 43.9923 10.0058 43.9996 10.0148 43.9989C64.0568 39.8221 352.263 22.6541 414.406 17.8938C415.966 17.7742 417 16.4851 417 14.9202V8.05948C416.992 7.24942 416.425 6.47379 415.422 5.90098C414.418 5.32817 413.06 5.00441 411.641 5H15.3592C13.9324 5.00357 12.5664 5.33002 11.5606 5.90776C11.0644 6.18979 10.6711 6.52515 10.4032 6.89447C10.1354 7.26379 9.9983 7.65975 10 8.05948V43.9832Z" fill="url(#paint9_linear_7_94886)"/>
<path d="M23.854 34.244C23.8313 34.5387 23.8087 34.9467 23.786 35.468C23.786 35.9893 23.786 36.5333 23.786 37.1C23.786 37.644 23.786 38.188 23.786 38.732C23.8087 39.2533 23.8313 39.6613 23.854 39.956C23.8993 40.4773 24.0013 40.976 24.16 41.452C24.3187 41.928 24.568 42.3473 24.908 42.71C25.248 43.0727 25.6787 43.3673 26.2 43.594C26.7213 43.798 27.3673 43.9 28.138 43.9C28.9087 43.9 29.5433 43.8093 30.042 43.628C30.5407 43.4467 30.9487 43.2313 31.266 42.982C31.5833 42.71 31.8213 42.4153 31.98 42.098C32.1613 41.7807 32.2973 41.486 32.388 41.214C32.5013 40.8513 32.626 40.602 32.762 40.466C32.898 40.3073 33.1587 40.228 33.544 40.228H37.998C38.202 40.228 38.372 40.3073 38.508 40.466C38.6667 40.602 38.746 40.772 38.746 40.976C38.7233 42.132 38.44 43.22 37.896 44.24C37.352 45.26 36.604 46.144 35.652 46.892C34.7 47.64 33.578 48.2407 32.286 48.694C31.0167 49.1247 29.634 49.34 28.138 49.34C26.506 49.34 25.044 49.102 23.752 48.626C22.4827 48.1273 21.3947 47.4587 20.488 46.62C19.5813 45.7813 18.8787 44.8067 18.38 43.696C17.904 42.5627 17.632 41.3727 17.564 40.126C17.5187 39.1967 17.496 38.1993 17.496 37.134C17.496 36.0687 17.5187 35.0487 17.564 34.074C17.6093 32.8273 17.8813 31.6487 18.38 30.538C18.8787 29.4047 19.57 28.4187 20.454 27.58C21.3607 26.7413 22.46 26.084 23.752 25.608C25.044 25.1093 26.506 24.86 28.138 24.86C29.634 24.86 31.0167 25.0867 32.286 25.54C33.578 25.9707 34.7 26.56 35.652 27.308C36.604 28.056 37.352 28.94 37.896 29.96C38.44 30.98 38.7233 32.068 38.746 33.224C38.746 33.428 38.6667 33.6093 38.508 33.768C38.372 33.904 38.202 33.972 37.998 33.972H33.544C33.1587 33.972 32.898 33.904 32.762 33.768C32.626 33.6093 32.5013 33.3487 32.388 32.986C32.2973 32.714 32.1613 32.4193 31.98 32.102C31.8213 31.7847 31.5833 31.5013 31.266 31.252C30.9487 30.98 30.5407 30.7533 30.042 30.572C29.5433 30.3907 28.9087 30.3 28.138 30.3C27.3673 30.3 26.7213 30.4133 26.2 30.64C25.6787 30.844 25.248 31.1273 24.908 31.49C24.568 31.8527 24.3187 32.272 24.16 32.748C24.0013 33.224 23.8993 33.7227 23.854 34.244ZM40.281 34.074C40.349 32.8047 40.621 31.6147 41.097 30.504C41.5957 29.3707 42.287 28.396 43.171 27.58C44.0777 26.7413 45.1657 26.084 46.435 25.608C47.727 25.1093 49.2117 24.86 50.889 24.86C52.5437 24.86 54.017 25.1093 55.309 25.608C56.601 26.084 57.689 26.7413 58.573 27.58C59.4797 28.396 60.171 29.3707 60.647 30.504C61.1457 31.6147 61.429 32.8047 61.497 34.074C61.5424 35.0487 61.565 36.0687 61.565 37.134C61.565 38.1993 61.5424 39.1967 61.497 40.126C61.429 41.3953 61.1457 42.5967 60.647 43.73C60.171 44.8407 59.4797 45.8153 58.573 46.654C57.689 47.4927 56.601 48.15 55.309 48.626C54.017 49.102 52.5437 49.34 50.889 49.34C49.2117 49.34 47.727 49.102 46.435 48.626C45.1657 48.15 44.0777 47.4927 43.171 46.654C42.287 45.8153 41.5957 44.8407 41.097 43.73C40.621 42.5967 40.349 41.3953 40.281 40.126C40.2357 39.1967 40.213 38.1993 40.213 37.134C40.213 36.0687 40.2357 35.0487 40.281 34.074ZM55.207 39.956C55.2297 39.548 55.2524 39.0947 55.275 38.596C55.2977 38.0973 55.309 37.5873 55.309 37.066C55.309 36.5447 55.2977 36.046 55.275 35.57C55.2524 35.0713 55.2297 34.6293 55.207 34.244C55.1617 33.6773 55.037 33.156 54.833 32.68C54.6517 32.204 54.3797 31.796 54.017 31.456C53.677 31.0933 53.2464 30.81 52.725 30.606C52.2037 30.402 51.5917 30.3 50.889 30.3C50.1864 30.3 49.5744 30.402 49.053 30.606C48.5317 30.81 48.0897 31.0933 47.727 31.456C47.387 31.796 47.115 32.204 46.911 32.68C46.7297 33.156 46.6164 33.6773 46.571 34.244C46.5257 34.6293 46.4917 35.0713 46.469 35.57C46.469 36.046 46.469 36.5447 46.469 37.066C46.469 37.5873 46.469 38.0973 46.469 38.596C46.4917 39.0947 46.5257 39.548 46.571 39.956C46.6617 41.0893 47.047 42.03 47.727 42.778C48.4297 43.526 49.4837 43.9 50.889 43.9C52.2944 43.9 53.337 43.526 54.017 42.778C54.697 42.03 55.0937 41.0893 55.207 39.956ZM75.0213 43.288C74.6813 43.288 74.4093 43.1973 74.2053 43.016C74.024 42.812 73.8767 42.6193 73.7633 42.438L70.5673 36.828V48.082C70.5673 48.3313 70.4767 48.5467 70.2953 48.728C70.114 48.9093 69.8987 49 69.6493 49H65.1953C64.946 49 64.7307 48.9093 64.5493 48.728C64.368 48.5467 64.2773 48.3313 64.2773 48.082V26.118C64.2773 25.8687 64.368 25.6533 64.5493 25.472C64.7307 25.2907 64.946 25.2 65.1953 25.2H69.1393C69.5927 25.2 69.9327 25.3247 70.1593 25.574C70.386 25.8233 70.5333 26.0047 70.6013 26.118L76.1093 35.536L81.6173 26.118C81.6853 26.0047 81.8327 25.8233 82.0593 25.574C82.286 25.3247 82.626 25.2 83.0793 25.2H87.0233C87.2727 25.2 87.488 25.2907 87.6693 25.472C87.8507 25.6533 87.9413 25.8687 87.9413 26.118V48.082C87.9413 48.3313 87.8507 48.5467 87.6693 48.728C87.488 48.9093 87.2727 49 87.0233 49H82.5693C82.32 49 82.1047 48.9093 81.9233 48.728C81.742 48.5467 81.6513 48.3313 81.6513 48.082V36.828L78.4553 42.438C78.342 42.6193 78.1833 42.812 77.9793 43.016C77.798 43.1973 77.5373 43.288 77.1973 43.288H75.0213ZM102.151 25.2C103.602 25.2 104.905 25.37 106.061 25.71C107.217 26.0273 108.203 26.526 109.019 27.206C109.835 27.8633 110.459 28.6907 110.889 29.688C111.343 30.6853 111.569 31.8413 111.569 33.156C111.569 34.4933 111.343 35.6607 110.889 36.658C110.459 37.6553 109.835 38.4827 109.019 39.14C108.203 39.7973 107.217 40.296 106.061 40.636C104.905 40.976 103.602 41.146 102.151 41.146H97.7992V48.082C97.7992 48.3313 97.7086 48.5467 97.5272 48.728C97.3459 48.9093 97.1306 49 96.8812 49H92.4272C92.1779 49 91.9626 48.9093 91.7812 48.728C91.5999 48.5467 91.5092 48.3313 91.5092 48.082V26.118C91.5092 25.8687 91.5999 25.6533 91.7812 25.472C91.9626 25.2907 92.1779 25.2 92.4272 25.2H102.151ZM97.7992 35.842H101.981C102.933 35.842 103.715 35.638 104.327 35.23C104.962 34.7993 105.279 34.108 105.279 33.156C105.279 32.204 104.962 31.524 104.327 31.116C103.715 30.6853 102.933 30.47 101.981 30.47H97.7992V35.842ZM133.144 25.2C133.393 25.2 133.608 25.2907 133.79 25.472C133.971 25.6533 134.062 25.8687 134.062 26.118V39.684C134.062 41.248 133.812 42.6307 133.314 43.832C132.815 45.0333 132.101 46.042 131.172 46.858C130.265 47.674 129.177 48.2973 127.908 48.728C126.638 49.136 125.244 49.34 123.726 49.34C122.184 49.34 120.779 49.136 119.51 48.728C118.24 48.2973 117.152 47.674 116.246 46.858C115.339 46.042 114.636 45.0333 114.138 43.832C113.639 42.6307 113.39 41.248 113.39 39.684V26.118C113.39 25.8687 113.48 25.6533 113.662 25.472C113.843 25.2907 114.058 25.2 114.308 25.2H118.762C119.011 25.2 119.226 25.2907 119.408 25.472C119.589 25.6533 119.68 25.8687 119.68 26.118V39.548C119.68 40.908 120.008 41.9733 120.666 42.744C121.346 43.5147 122.366 43.9 123.726 43.9C125.086 43.9 126.094 43.5147 126.752 42.744C127.432 41.9733 127.772 40.908 127.772 39.548V26.118C127.772 25.8687 127.862 25.6533 128.044 25.472C128.225 25.2907 128.44 25.2 128.69 25.2H133.144ZM154.883 25.2C155.132 25.2 155.347 25.2907 155.529 25.472C155.71 25.6533 155.801 25.8687 155.801 26.118V29.722C155.801 29.9713 155.71 30.1867 155.529 30.368C155.347 30.5493 155.132 30.64 154.883 30.64H148.899V48.082C148.899 48.3313 148.808 48.5467 148.627 48.728C148.445 48.9093 148.23 49 147.981 49H143.527C143.277 49 143.062 48.9093 142.881 48.728C142.699 48.5467 142.609 48.3313 142.609 48.082V30.64H136.625C136.375 30.64 136.16 30.5493 135.979 30.368C135.797 30.1867 135.707 29.9713 135.707 29.722V26.118C135.707 25.8687 135.797 25.6533 135.979 25.472C136.16 25.2907 136.375 25.2 136.625 25.2H154.883ZM174.7 43.56C174.949 43.56 175.164 43.6507 175.346 43.832C175.527 44.0133 175.618 44.2287 175.618 44.478V48.082C175.618 48.3313 175.527 48.5467 175.346 48.728C175.164 48.9093 174.949 49 174.7 49H158.584C158.334 49 158.119 48.9093 157.938 48.728C157.756 48.5467 157.666 48.3313 157.666 48.082V26.118C157.666 25.8687 157.756 25.6533 157.938 25.472C158.119 25.2907 158.334 25.2 158.584 25.2H174.428C174.677 25.2 174.892 25.2907 175.074 25.472C175.255 25.6533 175.346 25.8687 175.346 26.118V29.722C175.346 29.9713 175.255 30.1867 175.074 30.368C174.892 30.5493 174.677 30.64 174.428 30.64H163.956V34.312H173.68C173.929 34.312 174.144 34.4027 174.326 34.584C174.507 34.7653 174.598 34.9807 174.598 35.23V38.834C174.598 39.0833 174.507 39.2987 174.326 39.48C174.144 39.6613 173.929 39.752 173.68 39.752H163.956V43.56H174.7ZM200.984 25.2C201.234 25.2 201.449 25.2907 201.63 25.472C201.812 25.6533 201.902 25.8687 201.902 26.118V29.722C201.902 29.9713 201.812 30.1867 201.63 30.368C201.449 30.5493 201.234 30.64 200.984 30.64H195V48.082C195 48.3313 194.91 48.5467 194.728 48.728C194.547 48.9093 194.332 49 194.082 49H189.628C189.379 49 189.164 48.9093 188.982 48.728C188.801 48.5467 188.71 48.3313 188.71 48.082V30.64H182.726C182.477 30.64 182.262 30.5493 182.08 30.368C181.899 30.1867 181.808 29.9713 181.808 29.722V26.118C181.808 25.8687 181.899 25.6533 182.08 25.472C182.262 25.2907 182.477 25.2 182.726 25.2H200.984ZM213.9 25.2C215.396 25.2 216.733 25.3587 217.912 25.676C219.09 25.9933 220.088 26.4693 220.904 27.104C221.742 27.7387 222.377 28.5547 222.808 29.552C223.261 30.5267 223.488 31.6713 223.488 32.986C223.488 34.686 223.136 36.1027 222.434 37.236C221.731 38.3467 220.734 39.1967 219.442 39.786L223.658 47.878C223.726 48.014 223.76 48.1387 223.76 48.252C223.76 48.456 223.68 48.6373 223.522 48.796C223.386 48.932 223.216 49 223.012 49H218.388C217.934 49 217.606 48.898 217.402 48.694C217.22 48.49 217.073 48.286 216.96 48.082L213.186 40.806H210.058V48.082C210.058 48.3313 209.967 48.5467 209.786 48.728C209.604 48.9093 209.389 49 209.14 49H204.686C204.436 49 204.221 48.9093 204.04 48.728C203.858 48.5467 203.768 48.3313 203.768 48.082V26.118C203.768 25.8687 203.858 25.6533 204.04 25.472C204.221 25.2907 204.436 25.2 204.686 25.2H213.9ZM210.058 35.502H213.9C214.852 35.502 215.634 35.3207 216.246 34.958C216.88 34.5953 217.198 33.938 217.198 32.986C217.198 32.034 216.88 31.3767 216.246 31.014C215.634 30.6513 214.852 30.47 213.9 30.47H210.058V35.502ZM238.632 25.2C239.086 25.2 239.426 25.3247 239.652 25.574C239.902 25.8233 240.072 26.0727 240.162 26.322L247.574 47.742C247.665 47.9687 247.71 48.1387 247.71 48.252C247.71 48.456 247.631 48.6373 247.472 48.796C247.336 48.932 247.166 49 246.962 49H242.678C242.225 49 241.896 48.9093 241.692 48.728C241.511 48.524 241.398 48.3313 241.352 48.15L240.4 45.328H231.356L230.404 48.15C230.359 48.3313 230.234 48.524 230.03 48.728C229.849 48.9093 229.532 49 229.078 49H224.794C224.59 49 224.409 48.932 224.25 48.796C224.114 48.6373 224.046 48.456 224.046 48.252C224.046 48.1387 224.092 47.9687 224.182 47.742L231.594 26.322C231.685 26.0727 231.844 25.8233 232.07 25.574C232.32 25.3247 232.671 25.2 233.124 25.2H238.632ZM233.124 40.058H238.632L235.878 31.898L233.124 40.058ZM259.195 25.2C260.759 25.2 262.187 25.438 263.479 25.914C264.771 26.3673 265.881 27.0133 266.811 27.852C267.763 28.6907 268.499 29.6993 269.021 30.878C269.565 32.034 269.871 33.3033 269.939 34.686C269.961 35.162 269.973 35.604 269.973 36.012C269.973 36.3973 269.973 36.7713 269.973 37.134C269.973 37.4967 269.973 37.8707 269.973 38.256C269.973 38.6413 269.961 39.0607 269.939 39.514C269.871 40.9193 269.576 42.2 269.055 43.356C268.533 44.512 267.808 45.5093 266.879 46.348C265.972 47.1867 264.884 47.844 263.615 48.32C262.345 48.7733 260.929 49 259.365 49H250.185C249.935 49 249.72 48.9093 249.539 48.728C249.357 48.5467 249.267 48.3313 249.267 48.082V26.118C249.267 25.8687 249.357 25.6533 249.539 25.472C249.72 25.2907 249.935 25.2 250.185 25.2H259.195ZM263.649 34.55C263.513 31.9433 261.971 30.64 259.025 30.64H255.557V43.56H259.195C262.051 43.56 263.535 42.2567 263.649 39.65C263.671 39.174 263.683 38.732 263.683 38.324C263.683 37.8933 263.683 37.4853 263.683 37.1C263.683 36.692 263.683 36.284 263.683 35.876C263.683 35.468 263.671 35.026 263.649 34.55ZM289.681 43.56C289.93 43.56 290.146 43.6507 290.327 43.832C290.508 44.0133 290.599 44.2287 290.599 44.478V48.082C290.599 48.3313 290.508 48.5467 290.327 48.728C290.146 48.9093 289.93 49 289.681 49H273.565C273.316 49 273.1 48.9093 272.919 48.728C272.738 48.5467 272.647 48.3313 272.647 48.082V26.118C272.647 25.8687 272.738 25.6533 272.919 25.472C273.1 25.2907 273.316 25.2 273.565 25.2H289.409C289.658 25.2 289.874 25.2907 290.055 25.472C290.236 25.6533 290.327 25.8687 290.327 26.118V29.722C290.327 29.9713 290.236 30.1867 290.055 30.368C289.874 30.5493 289.658 30.64 289.409 30.64H278.937V34.312H288.661C288.91 34.312 289.126 34.4027 289.307 34.584C289.488 34.7653 289.579 34.9807 289.579 35.23V38.834C289.579 39.0833 289.488 39.2987 289.307 39.48C289.126 39.6613 288.91 39.752 288.661 39.752H278.937V43.56H289.681ZM308.16 24.86C309.61 24.86 310.936 25.0753 312.138 25.506C313.362 25.914 314.416 26.4467 315.3 27.104C316.184 27.7613 316.875 28.4867 317.374 29.28C317.872 30.0733 318.133 30.8327 318.156 31.558C318.156 31.762 318.076 31.9433 317.918 32.102C317.782 32.238 317.623 32.306 317.442 32.306H312.988C312.67 32.306 312.41 32.2607 312.206 32.17C312.024 32.0793 311.832 31.9433 311.628 31.762C311.56 31.694 311.446 31.5807 311.288 31.422C311.152 31.2633 310.948 31.1047 310.676 30.946C310.404 30.7647 310.064 30.6173 309.656 30.504C309.248 30.368 308.749 30.3 308.16 30.3C307.729 30.3 307.31 30.334 306.902 30.402C306.516 30.4473 306.165 30.538 305.848 30.674C305.553 30.7873 305.304 30.9573 305.1 31.184C304.918 31.4107 304.828 31.694 304.828 32.034C304.828 32.374 304.93 32.6573 305.134 32.884C305.36 33.1107 305.723 33.326 306.222 33.53C306.743 33.7113 307.423 33.8927 308.262 34.074C309.1 34.2553 310.143 34.4707 311.39 34.72C312.636 34.9693 313.724 35.2867 314.654 35.672C315.583 36.0573 316.354 36.5447 316.966 37.134C317.6 37.7007 318.065 38.3807 318.36 39.174C318.677 39.9447 318.836 40.8627 318.836 41.928C318.836 43.084 318.575 44.1153 318.054 45.022C317.532 45.9287 316.796 46.7107 315.844 47.368C314.914 48.0027 313.804 48.49 312.512 48.83C311.242 49.17 309.848 49.34 308.33 49.34C306.788 49.34 305.383 49.136 304.114 48.728C302.844 48.32 301.745 47.7873 300.816 47.13C299.909 46.45 299.195 45.6907 298.674 44.852C298.152 44.0133 297.88 43.1633 297.858 42.302C297.858 42.098 297.926 41.928 298.062 41.792C298.22 41.6333 298.39 41.554 298.572 41.554H303.026C303.343 41.554 303.592 41.5993 303.774 41.69C303.955 41.758 304.136 41.8713 304.318 42.03C304.408 42.1207 304.544 42.268 304.726 42.472C304.907 42.676 305.145 42.8913 305.44 43.118C305.757 43.322 306.142 43.5033 306.596 43.662C307.072 43.8207 307.65 43.9 308.33 43.9C309.531 43.9 310.528 43.7753 311.322 43.526C312.138 43.254 312.546 42.778 312.546 42.098C312.546 41.758 312.398 41.4747 312.104 41.248C311.809 41.0213 311.367 40.8173 310.778 40.636C310.188 40.432 309.429 40.2393 308.5 40.058C307.593 39.8767 306.516 39.65 305.27 39.378C302.935 38.8793 301.224 38.052 300.136 36.896C299.07 35.7173 298.538 34.1533 298.538 32.204C298.538 31.2293 298.753 30.3 299.184 29.416C299.637 28.532 300.283 27.75 301.122 27.07C301.96 26.39 302.969 25.8573 304.148 25.472C305.349 25.064 306.686 24.86 308.16 24.86ZM331.682 25.2C333.132 25.2 334.436 25.37 335.592 25.71C336.748 26.0273 337.734 26.526 338.55 27.206C339.366 27.8633 339.989 28.6907 340.42 29.688C340.873 30.6853 341.1 31.8413 341.1 33.156C341.1 34.4933 340.873 35.6607 340.42 36.658C339.989 37.6553 339.366 38.4827 338.55 39.14C337.734 39.7973 336.748 40.296 335.592 40.636C334.436 40.976 333.132 41.146 331.682 41.146H327.33V48.082C327.33 48.3313 327.239 48.5467 327.058 48.728C326.876 48.9093 326.661 49 326.412 49H321.958C321.708 49 321.493 48.9093 321.312 48.728C321.13 48.5467 321.04 48.3313 321.04 48.082V26.118C321.04 25.8687 321.13 25.6533 321.312 25.472C321.493 25.2907 321.708 25.2 321.958 25.2H331.682ZM327.33 35.842H331.512C332.464 35.842 333.246 35.638 333.858 35.23C334.492 34.7993 334.81 34.108 334.81 33.156C334.81 32.204 334.492 31.524 333.858 31.116C333.246 30.6853 332.464 30.47 331.512 30.47H327.33V35.842ZM360.192 43.56C360.442 43.56 360.657 43.6507 360.838 43.832C361.02 44.0133 361.11 44.2287 361.11 44.478V48.082C361.11 48.3313 361.02 48.5467 360.838 48.728C360.657 48.9093 360.442 49 360.192 49H344.076C343.827 49 343.612 48.9093 343.43 48.728C343.249 48.5467 343.158 48.3313 343.158 48.082V26.118C343.158 25.8687 343.249 25.6533 343.43 25.472C343.612 25.2907 343.827 25.2 344.076 25.2H359.92C360.17 25.2 360.385 25.2907 360.566 25.472C360.748 25.6533 360.838 25.8687 360.838 26.118V29.722C360.838 29.9713 360.748 30.1867 360.566 30.368C360.385 30.5493 360.17 30.64 359.92 30.64H349.448V34.312H359.172C359.422 34.312 359.637 34.4027 359.818 34.584C360 34.7653 360.09 34.9807 360.09 35.23V38.834C360.09 39.0833 360 39.2987 359.818 39.48C359.637 39.6613 359.422 39.752 359.172 39.752H349.448V43.56H360.192ZM379.286 49C378.901 49 378.583 48.898 378.334 48.694C378.107 48.49 377.96 48.3313 377.892 48.218L370.106 36.59V48.082C370.106 48.3313 370.015 48.5467 369.834 48.728C369.653 48.9093 369.437 49 369.188 49H364.734C364.485 49 364.269 48.9093 364.088 48.728C363.907 48.5467 363.816 48.3313 363.816 48.082V26.118C363.816 25.8687 363.907 25.6533 364.088 25.472C364.269 25.2907 364.485 25.2 364.734 25.2H368.27C368.655 25.2 368.961 25.302 369.188 25.506C369.437 25.71 369.596 25.8687 369.664 25.982L377.45 37.61V26.118C377.45 25.8687 377.541 25.6533 377.722 25.472C377.903 25.2907 378.119 25.2 378.368 25.2H382.822C383.071 25.2 383.287 25.2907 383.468 25.472C383.649 25.6533 383.74 25.8687 383.74 26.118V48.082C383.74 48.3313 383.649 48.5467 383.468 48.728C383.287 48.9093 383.071 49 382.822 49H379.286ZM397.224 25.2C398.788 25.2 400.216 25.438 401.508 25.914C402.8 26.3673 403.911 27.0133 404.84 27.852C405.792 28.6907 406.529 29.6993 407.05 30.878C407.594 32.034 407.9 33.3033 407.968 34.686C407.991 35.162 408.002 35.604 408.002 36.012C408.002 36.3973 408.002 36.7713 408.002 37.134C408.002 37.4967 408.002 37.8707 408.002 38.256C408.002 38.6413 407.991 39.0607 407.968 39.514C407.9 40.9193 407.605 42.2 407.084 43.356C406.563 44.512 405.837 45.5093 404.908 46.348C404.001 47.1867 402.913 47.844 401.644 48.32C400.375 48.7733 398.958 49 397.394 49H388.214C387.965 49 387.749 48.9093 387.568 48.728C387.387 48.5467 387.296 48.3313 387.296 48.082V26.118C387.296 25.8687 387.387 25.6533 387.568 25.472C387.749 25.2907 387.965 25.2 388.214 25.2H397.224ZM401.678 34.55C401.542 31.9433 400.001 30.64 397.054 30.64H393.586V43.56H397.224C400.08 43.56 401.565 42.2567 401.678 39.65C401.701 39.174 401.712 38.732 401.712 38.324C401.712 37.8933 401.712 37.4853 401.712 37.1C401.712 36.692 401.712 36.284 401.712 35.876C401.712 35.468 401.701 35.026 401.678 34.55Z" fill="black"/>
<defs>
<linearGradient id="paint0_linear_7_94886" x1="347.341" y1="110.956" x2="219.803" y2="-117.65" gradientUnits="userSpaceOnUse">
<stop stop-color="#FFD000"/>
<stop offset="1" stop-color="#FFF200"/>
</linearGradient>
<linearGradient id="paint1_linear_7_94886" x1="340.287" y1="108.1" x2="216.629" y2="-110.231" gradientUnits="userSpaceOnUse">
<stop stop-color="#FFB20C"/>
<stop offset="1" stop-color="#FFEF0C"/>
</linearGradient>
<radialGradient id="paint2_radial_7_94886" cx="0" cy="0" r="1" gradientUnits="userSpaceOnUse" gradientTransform="translate(30.1619 -2.80516) scale(393.372 207.848)">
<stop stop-color="#FF960D"/>
<stop offset="1" stop-color="#010D01"/>
</radialGradient>
<radialGradient id="paint3_radial_7_94886" cx="0" cy="0" r="1" gradientUnits="userSpaceOnUse" gradientTransform="translate(31.2275 64.161) scale(405.315 214.13)">
<stop stop-color="white"/>
<stop offset="1" stop-color="#FF9D00"/>
</radialGradient>
<radialGradient id="paint4_radial_7_94886" cx="0" cy="0" r="1" gradientUnits="userSpaceOnUse" gradientTransform="translate(-15.8026 3.79868) scale(157.59 84.2048)">
<stop stop-color="#FF960D"/>
<stop offset="1" stop-color="#010D01"/>
</radialGradient>
<linearGradient id="paint5_linear_7_94886" x1="414" y1="36.025" x2="426" y2="36.025" gradientUnits="userSpaceOnUse">
<stop stop-color="white"/>
<stop offset="1" stop-color="#FF9D00"/>
</linearGradient>
<linearGradient id="paint6_linear_7_94886" x1="6.01558" y1="46.0167" x2="6.01558" y2="2.01667" gradientUnits="userSpaceOnUse">
<stop stop-color="#010D01"/>
<stop offset="1" stop-color="#47B009"/>
</linearGradient>
<radialGradient id="paint7_radial_7_94886" cx="0" cy="0" r="1" gradientUnits="userSpaceOnUse" gradientTransform="translate(38.2582 -1.55964) scale(331.725 185.697)">
<stop stop-color="#FF960D"/>
<stop offset="1" stop-color="#010D01"/>
</radialGradient>
<radialGradient id="paint8_radial_7_94886" cx="0" cy="0" r="1" gradientUnits="userSpaceOnUse" gradientTransform="translate(215.821 59.4438) scale(253.729 31.5248)">
<stop stop-color="#FF960D"/>
<stop offset="1" stop-color="#010D01"/>
</radialGradient>
<linearGradient id="paint9_linear_7_94886" x1="10" y1="24.5" x2="417" y2="24.5" gradientUnits="userSpaceOnUse">
<stop stop-color="#FFE240"/>
<stop offset="1" stop-color="#010D01"/>
</linearGradient>
</defs>
</svg>
