<svg width="333" height="72" viewBox="0 0 333 72" fill="none" xmlns="http://www.w3.org/2000/svg">
<path fill-rule="evenodd" clip-rule="evenodd" d="M11.828 0.00820716C11.828 0.0127399 11.8316 0.0164143 11.8362 0.0164143H321.195C324.322 0.0164101 327.321 0.901811 329.534 2.47829C331.747 4.05477 332.994 6.19353 333 8.42518V63.5584C333 65.7944 331.757 67.9391 329.544 69.5217C327.331 71.1043 324.328 71.9957 321.195 72H11.828C8.69287 71.9957 5.68789 71.1049 3.47104 69.5227C1.25419 67.9405 0.00608167 65.7959 0 63.5584V8.42518C0.00609529 6.18917 1.25494 4.04623 3.47245 2.46667C5.68801 0.888497 8.68973 0.00154759 11.8197 2.02333e-06C11.8243 -2.14861e-07 11.828 0.00367447 11.828 0.00820716Z" fill="url(#paint0_linear_1_2952)"/>
<path fill-rule="evenodd" clip-rule="evenodd" d="M12.1783 5.01666C11.066 5.02019 10.0009 5.34359 9.21677 5.91593C8.82991 6.19533 8.52322 6.52755 8.31438 6.89342C8.10553 7.25929 7.99867 7.65155 8.00001 8.04754V63.9525C8.00597 64.7565 8.44738 65.5266 9.22903 66.0967C10.0107 66.6669 11.0699 66.9913 12.1783 67H320.822C321.93 66.9913 322.989 66.6669 323.771 66.0967C324.553 65.5266 324.994 64.7565 325 63.9525V8.03089C324.994 7.2284 324.552 6.46001 323.77 5.89256C322.987 5.3251 321.928 5.00437 320.822 5L12.1783 5.01666Z" fill="url(#paint1_linear_1_2952)"/>
<path style="mix-blend-mode:screen" fill-rule="evenodd" clip-rule="evenodd" d="M11.3758 5.15845H321.578C322.128 5.16043 322.672 5.2358 323.179 5.38022C324.047 5.62745 325.023 5.67064 325.773 5.16861L326.288 4.82351C328.06 3.63712 327.992 1.08846 325.93 0.546091C324.57 0.188395 323.112 -0.000158577 321.624 2.71969e-05H11.3758C9.82037 -0.00271823 8.27956 0.202418 6.84207 0.603618C4.88843 1.14887 4.8249 3.57551 6.50347 4.7141L6.71355 4.85659C7.73114 5.54683 9.0721 5.48244 10.2813 5.25926C10.635 5.19398 11.0027 5.15955 11.3758 5.15845Z" fill="url(#paint2_radial_1_2952)"/>
<path style="mix-blend-mode:multiply" fill-rule="evenodd" clip-rule="evenodd" d="M321.623 66.8416H11.3769C11.0022 66.8405 10.6328 66.8057 10.2775 66.7399C9.0708 66.5161 7.73289 66.4505 6.71579 67.1374L6.50972 67.2766C4.82839 68.412 4.88743 70.8393 6.84064 71.388C8.27824 71.7919 9.81991 71.9998 11.3769 72H321.623C323.119 71.9974 324.585 71.8044 325.95 71.441C328.006 70.8938 328.073 68.3508 326.307 67.1637L325.817 66.8338C325.068 66.3305 324.092 66.3726 323.224 66.6198C322.717 66.7642 322.173 66.8396 321.623 66.8416Z" fill="url(#paint3_radial_1_2952)"/>
<path style="mix-blend-mode:screen" fill-rule="evenodd" clip-rule="evenodd" d="M7.76104 63.9711V8.04555C7.75968 7.64953 7.86849 7.25724 8.08115 6.89135C8.4137 6.31915 8.43883 5.51228 7.9006 5.12718L5.27105 3.24578C4.22931 2.50043 2.78715 2.46428 1.92671 3.41318C0.684253 4.78336 0.0059662 6.38921 0 8.04555V63.9544C0.000229125 65.0781 0.312221 66.1907 0.917999 67.2282C1.19734 67.7066 1.53661 68.1648 1.93081 68.5972C2.7905 69.5404 4.22626 69.5039 5.26564 68.7634L7.89328 66.8913C8.43565 66.5049 8.4129 65.6934 8.08022 65.1166C7.86762 64.7479 7.75916 64.353 7.76104 63.9544V63.9711Z" fill="url(#paint4_radial_1_2952)"/>
<path style="mix-blend-mode:multiply" fill-rule="evenodd" clip-rule="evenodd" d="M325.262 8.04555V63.9544C325.255 65.2192 325.08 66.8691 326.112 67.6009L327.756 68.7671C328.796 69.5054 330.232 69.5393 331.089 68.5939C331.481 68.1619 331.818 67.7044 332.095 67.2268C332.696 66.1893 333.004 65.0771 333 63.9544V8.04555C333 6.39161 332.329 4.78683 331.093 3.41651C330.235 2.46542 328.793 2.4989 327.75 3.24204L325.106 5.12572C324.566 5.5103 324.592 6.31965 324.93 6.88995C325.146 7.25578 325.259 7.6485 325.262 8.04555Z" fill="url(#paint5_linear_1_2952)"/>
<path style="mix-blend-mode:screen" fill-rule="evenodd" clip-rule="evenodd" d="M7.76104 43.6991V8.05229C7.75968 7.65583 7.86849 7.2631 8.08115 6.8968C8.41377 6.32384 8.43896 5.51629 7.90036 5.1305L5.27233 3.24808C4.23004 2.50151 2.78637 2.46538 1.92581 3.41574C0.683926 4.78723 0.00596476 6.3945 0 8.05229V41.1387C0 43.3471 2.39336 44.8221 4.53248 44.2733C5.57151 44.0068 6.64664 43.8091 7.74447 43.6843C7.7533 43.6833 7.76104 43.6902 7.76104 43.6991Z" fill="url(#paint6_linear_1_2952)"/>
<path style="mix-blend-mode:screen" fill-rule="evenodd" clip-rule="evenodd" d="M321.303 1.00828C321.295 1.01364 321.286 1.01652 321.277 1.01652H11.6856C8.85933 1.02517 6.15187 1.83297 4.15121 3.26451C2.15054 4.69604 1.01817 6.63574 1 8.66238V44.0844C1 44.5924 1.28144 45.0797 1.78243 45.4389C2.28341 45.7982 2.96291 46 3.67141 46C4.3799 46 5.0594 45.7982 5.56039 45.4389C6.06137 45.0797 6.34281 44.5924 6.34281 44.0844V8.66238C6.35484 7.64896 6.92164 6.67949 7.92102 5.96286C8.92039 5.24623 10.2723 4.83982 11.6856 4.83119H321.291C322.707 4.83554 324.062 5.24057 325.063 5.95812C326.063 6.67567 326.628 7.64763 326.634 8.66238V16.9193C326.634 17.4295 326.917 17.9188 327.42 18.2796C327.923 18.6404 328.606 18.8431 329.317 18.8431C330.029 18.8431 330.711 18.6404 331.214 18.2796C331.717 17.9188 332 17.4295 332 16.9193V8.66238C331.988 6.63287 330.858 4.68896 328.857 3.25386C326.859 1.82117 324.154 1.0114 321.329 1.00005C321.319 1.00001 321.31 1.0029 321.303 1.00828Z" fill="url(#paint7_radial_1_2952)"/>
<g style="mix-blend-mode:screen">
<path fill-rule="evenodd" clip-rule="evenodd" d="M117.989 4C60.5236 4 14 4.50836 14 4.76254C14 5.01671 99.7606 4.99977 117.989 4.99977C136.216 4.99977 222 4.99977 222 4.76254C222 4.5253 175.43 4 117.989 4Z" fill="#EEFFC5"/>
</g>
<g style="mix-blend-mode:multiply">
<path fill-rule="evenodd" clip-rule="evenodd" d="M5.59988 68.512C5.59133 68.512 5.58679 68.5019 5.59248 68.4955C6.31374 67.6887 7.20044 66.9758 8.21855 66.384C8.29673 66.3468 8.37664 66.312 8.45807 66.2798C8.75648 66.1617 8.89112 65.3937 8.65807 65.173C8.29547 64.8298 8.03788 64.429 7.90419 64C8.02975 64.6318 7.8826 65.2777 7.485 65.84C6.7665 66.6523 5.87379 67.3663 4.84432 67.952C4.7504 68.0002 4.65281 68.0432 4.5523 68.0808C4.07662 68.2588 3.7849 68.9663 4.19631 69.2642C4.35965 69.3824 4.52787 69.4968 4.70073 69.6071C4.93003 69.7533 5.25394 69.505 5.29926 69.2368C5.3414 68.9875 5.44622 68.7468 5.60786 68.5279C5.61272 68.5214 5.60805 68.512 5.59988 68.512Z" fill="#FFFBD9"/>
</g>
<g style="mix-blend-mode:multiply">
<path fill-rule="evenodd" clip-rule="evenodd" d="M327.403 68.512C327.415 68.512 327.422 68.497 327.414 68.4874C326.703 67.6768 325.815 66.9653 324.787 66.384C324.708 66.3456 324.627 66.3098 324.544 66.2767C324.251 66.1591 324.114 65.389 324.344 65.1719C324.708 64.8288 324.967 64.4286 325.102 64C324.976 64.6318 325.124 65.2777 325.523 65.84C326.237 66.6559 327.134 67.3706 328.171 67.952C328.436 68.0899 328.734 68.1864 329.048 68.2359C329.355 68.2842 329.539 68.6914 329.3 68.8903C329.018 69.1252 328.717 69.3468 328.399 69.5538C328.137 69.7248 327.758 69.4406 327.681 69.1368C327.629 68.9277 327.531 68.7246 327.391 68.5362C327.383 68.5263 327.39 68.512 327.403 68.512Z" fill="#FFFBD9"/>
</g>
<g style="mix-blend-mode:screen">
<path fill-rule="evenodd" clip-rule="evenodd" d="M5.59993 3.49999C5.59137 3.49999 5.58683 3.5101 5.59254 3.51647C6.31379 4.32111 7.20047 5.03217 8.21855 5.62234C8.29701 5.65962 8.37721 5.69439 8.45895 5.72663C8.75667 5.84401 8.89077 6.6104 8.65807 6.8301C8.29547 7.17244 8.03788 7.57214 7.90419 8C8.02975 7.36987 7.8826 6.72575 7.485 6.1649C6.7671 5.34983 5.87448 4.63239 4.84432 4.04255C4.74874 3.99622 4.64973 3.95501 4.54802 3.91905C4.0681 3.74935 3.77654 3.04754 4.18765 2.74735C4.32074 2.65016 4.45709 2.55556 4.59659 2.46363C4.8598 2.29018 5.24677 2.58038 5.32279 2.8863C5.37442 3.09412 5.46992 3.2961 5.60791 3.48403C5.61275 3.49061 5.6081 3.49999 5.59993 3.49999Z" fill="#FFFBD9"/>
</g>
<g style="mix-blend-mode:screen">
<path fill-rule="evenodd" clip-rule="evenodd" d="M327.403 3.49999C327.415 3.49999 327.422 3.51505 327.414 3.52467C326.703 4.33303 325.815 5.04262 324.787 5.62234C324.707 5.66079 324.626 5.69658 324.543 5.72966C324.251 5.84659 324.115 6.61501 324.344 6.83117C324.708 7.17337 324.967 7.57259 325.102 8C324.976 7.36987 325.124 6.72575 325.523 6.1649C326.237 5.3463 327.133 4.62817 328.171 4.04255C328.26 3.99867 328.353 3.95939 328.448 3.92479C328.932 3.74814 329.23 3.04172 328.814 2.73723C328.681 2.64021 328.545 2.54588 328.406 2.45433C328.142 2.28082 327.759 2.56677 327.681 2.87307C327.628 3.08281 327.531 3.28649 327.391 3.4758C327.383 3.48574 327.39 3.49999 327.403 3.49999Z" fill="#FFFBD9"/>
</g>
<path style="mix-blend-mode:screen" opacity="0.3" fill-rule="evenodd" clip-rule="evenodd" d="M166.512 69C80.6262 69 11 68.012 11 67.4562C11 66.9004 139.228 67.0085 166.512 67.0085C193.795 67.0085 322 67.0085 322 67.4562C322 67.9039 252.397 69 166.512 69Z" fill="url(#paint8_radial_1_2952)"/>
<g style="mix-blend-mode:screen">
<path fill-rule="evenodd" clip-rule="evenodd" d="M303 66.0372C296.648 65.9077 290.288 66.1165 284 66.661C296.655 67.113 309.345 67.113 322 66.661C315.712 66.1165 309.352 65.9077 303 66.0372Z" fill="#D2FF83"/>
</g>
<g style="mix-blend-mode:screen">
<path fill-rule="evenodd" clip-rule="evenodd" d="M270.5 66.0351C269.105 65.9896 269.09 66.9999 270.486 67C271.883 67.0001 271.896 65.9902 270.5 66.0351Z" fill="#D2FF83"/>
</g>
<path style="mix-blend-mode:screen" opacity="0.5" fill-rule="evenodd" clip-rule="evenodd" d="M8.00001 43.9832C8.00001 43.9922 8.0058 43.9994 8.01476 43.9985C50.0924 39.8365 273.769 22.7798 323.431 17.9467C324.964 17.7976 326 16.5203 326 14.9807V8.05948C325.994 7.24942 325.551 6.47379 324.767 5.90098C323.983 5.32817 322.921 5.00441 321.813 5H12.1873C11.0725 5.00357 10.0052 5.33002 9.21937 5.90776C8.83168 6.18979 8.52434 6.52515 8.31505 6.89447C8.10576 7.26379 7.99867 7.65975 8.00001 8.05948V43.9832Z" fill="url(#paint9_linear_1_2952)"/>
<path d="M36.854 34.244C36.8313 34.5387 36.8087 34.9467 36.786 35.468C36.786 35.9893 36.786 36.5333 36.786 37.1C36.786 37.644 36.786 38.188 36.786 38.732C36.8087 39.2533 36.8313 39.6613 36.854 39.956C36.8993 40.4773 37.0013 40.976 37.16 41.452C37.3187 41.928 37.568 42.3473 37.908 42.71C38.248 43.0727 38.6787 43.3673 39.2 43.594C39.7213 43.798 40.3673 43.9 41.138 43.9C41.9087 43.9 42.5433 43.8093 43.042 43.628C43.5407 43.4467 43.9487 43.2313 44.266 42.982C44.5833 42.71 44.8213 42.4153 44.98 42.098C45.1613 41.7807 45.2973 41.486 45.388 41.214C45.5013 40.8513 45.626 40.602 45.762 40.466C45.898 40.3073 46.1587 40.228 46.544 40.228H50.998C51.202 40.228 51.372 40.3073 51.508 40.466C51.6667 40.602 51.746 40.772 51.746 40.976C51.7233 42.132 51.44 43.22 50.896 44.24C50.352 45.26 49.604 46.144 48.652 46.892C47.7 47.64 46.578 48.2407 45.286 48.694C44.0167 49.1247 42.634 49.34 41.138 49.34C39.506 49.34 38.044 49.102 36.752 48.626C35.4827 48.1273 34.3947 47.4587 33.488 46.62C32.5813 45.7813 31.8787 44.8067 31.38 43.696C30.904 42.5627 30.632 41.3727 30.564 40.126C30.5187 39.1967 30.496 38.1993 30.496 37.134C30.496 36.0687 30.5187 35.0487 30.564 34.074C30.6093 32.8273 30.8813 31.6487 31.38 30.538C31.8787 29.4047 32.57 28.4187 33.454 27.58C34.3607 26.7413 35.46 26.084 36.752 25.608C38.044 25.1093 39.506 24.86 41.138 24.86C42.634 24.86 44.0167 25.0867 45.286 25.54C46.578 25.9707 47.7 26.56 48.652 27.308C49.604 28.056 50.352 28.94 50.896 29.96C51.44 30.98 51.7233 32.068 51.746 33.224C51.746 33.428 51.6667 33.6093 51.508 33.768C51.372 33.904 51.202 33.972 50.998 33.972H46.544C46.1587 33.972 45.898 33.904 45.762 33.768C45.626 33.6093 45.5013 33.3487 45.388 32.986C45.2973 32.714 45.1613 32.4193 44.98 32.102C44.8213 31.7847 44.5833 31.5013 44.266 31.252C43.9487 30.98 43.5407 30.7533 43.042 30.572C42.5433 30.3907 41.9087 30.3 41.138 30.3C40.3673 30.3 39.7213 30.4133 39.2 30.64C38.6787 30.844 38.248 31.1273 37.908 31.49C37.568 31.8527 37.3187 32.272 37.16 32.748C37.0013 33.224 36.8993 33.7227 36.854 34.244ZM53.281 34.074C53.349 32.8047 53.621 31.6147 54.097 30.504C54.5957 29.3707 55.287 28.396 56.171 27.58C57.0777 26.7413 58.1657 26.084 59.435 25.608C60.727 25.1093 62.2117 24.86 63.889 24.86C65.5437 24.86 67.017 25.1093 68.309 25.608C69.601 26.084 70.689 26.7413 71.573 27.58C72.4797 28.396 73.171 29.3707 73.647 30.504C74.1457 31.6147 74.429 32.8047 74.497 34.074C74.5424 35.0487 74.565 36.0687 74.565 37.134C74.565 38.1993 74.5424 39.1967 74.497 40.126C74.429 41.3953 74.1457 42.5967 73.647 43.73C73.171 44.8407 72.4797 45.8153 71.573 46.654C70.689 47.4927 69.601 48.15 68.309 48.626C67.017 49.102 65.5437 49.34 63.889 49.34C62.2117 49.34 60.727 49.102 59.435 48.626C58.1657 48.15 57.0777 47.4927 56.171 46.654C55.287 45.8153 54.5957 44.8407 54.097 43.73C53.621 42.5967 53.349 41.3953 53.281 40.126C53.2357 39.1967 53.213 38.1993 53.213 37.134C53.213 36.0687 53.2357 35.0487 53.281 34.074ZM68.207 39.956C68.2297 39.548 68.2524 39.0947 68.275 38.596C68.2977 38.0973 68.309 37.5873 68.309 37.066C68.309 36.5447 68.2977 36.046 68.275 35.57C68.2524 35.0713 68.2297 34.6293 68.207 34.244C68.1617 33.6773 68.037 33.156 67.833 32.68C67.6517 32.204 67.3797 31.796 67.017 31.456C66.677 31.0933 66.2464 30.81 65.725 30.606C65.2037 30.402 64.5917 30.3 63.889 30.3C63.1864 30.3 62.5744 30.402 62.053 30.606C61.5317 30.81 61.0897 31.0933 60.727 31.456C60.387 31.796 60.115 32.204 59.911 32.68C59.7297 33.156 59.6164 33.6773 59.571 34.244C59.5257 34.6293 59.4917 35.0713 59.469 35.57C59.469 36.046 59.469 36.5447 59.469 37.066C59.469 37.5873 59.469 38.0973 59.469 38.596C59.4917 39.0947 59.5257 39.548 59.571 39.956C59.6617 41.0893 60.047 42.03 60.727 42.778C61.4297 43.526 62.4837 43.9 63.889 43.9C65.2944 43.9 66.337 43.526 67.017 42.778C67.697 42.03 68.0937 41.0893 68.207 39.956ZM88.0213 43.288C87.6813 43.288 87.4093 43.1973 87.2053 43.016C87.024 42.812 86.8767 42.6193 86.7633 42.438L83.5673 36.828V48.082C83.5673 48.3313 83.4767 48.5467 83.2953 48.728C83.114 48.9093 82.8987 49 82.6493 49H78.1953C77.946 49 77.7307 48.9093 77.5493 48.728C77.368 48.5467 77.2773 48.3313 77.2773 48.082V26.118C77.2773 25.8687 77.368 25.6533 77.5493 25.472C77.7307 25.2907 77.946 25.2 78.1953 25.2H82.1393C82.5927 25.2 82.9327 25.3247 83.1593 25.574C83.386 25.8233 83.5333 26.0047 83.6013 26.118L89.1093 35.536L94.6173 26.118C94.6853 26.0047 94.8327 25.8233 95.0593 25.574C95.286 25.3247 95.626 25.2 96.0793 25.2H100.023C100.273 25.2 100.488 25.2907 100.669 25.472C100.851 25.6533 100.941 25.8687 100.941 26.118V48.082C100.941 48.3313 100.851 48.5467 100.669 48.728C100.488 48.9093 100.273 49 100.023 49H95.5693C95.32 49 95.1047 48.9093 94.9233 48.728C94.742 48.5467 94.6513 48.3313 94.6513 48.082V36.828L91.4553 42.438C91.342 42.6193 91.1833 42.812 90.9793 43.016C90.798 43.1973 90.5373 43.288 90.1973 43.288H88.0213ZM115.151 25.2C116.602 25.2 117.905 25.37 119.061 25.71C120.217 26.0273 121.203 26.526 122.019 27.206C122.835 27.8633 123.459 28.6907 123.889 29.688C124.343 30.6853 124.569 31.8413 124.569 33.156C124.569 34.4933 124.343 35.6607 123.889 36.658C123.459 37.6553 122.835 38.4827 122.019 39.14C121.203 39.7973 120.217 40.296 119.061 40.636C117.905 40.976 116.602 41.146 115.151 41.146H110.799V48.082C110.799 48.3313 110.709 48.5467 110.527 48.728C110.346 48.9093 110.131 49 109.881 49H105.427C105.178 49 104.963 48.9093 104.781 48.728C104.6 48.5467 104.509 48.3313 104.509 48.082V26.118C104.509 25.8687 104.6 25.6533 104.781 25.472C104.963 25.2907 105.178 25.2 105.427 25.2H115.151ZM110.799 35.842H114.981C115.933 35.842 116.715 35.638 117.327 35.23C117.962 34.7993 118.279 34.108 118.279 33.156C118.279 32.204 117.962 31.524 117.327 31.116C116.715 30.6853 115.933 30.47 114.981 30.47H110.799V35.842ZM146.144 25.2C146.393 25.2 146.608 25.2907 146.79 25.472C146.971 25.6533 147.062 25.8687 147.062 26.118V39.684C147.062 41.248 146.812 42.6307 146.314 43.832C145.815 45.0333 145.101 46.042 144.172 46.858C143.265 47.674 142.177 48.2973 140.908 48.728C139.638 49.136 138.244 49.34 136.726 49.34C135.184 49.34 133.779 49.136 132.51 48.728C131.24 48.2973 130.152 47.674 129.246 46.858C128.339 46.042 127.636 45.0333 127.138 43.832C126.639 42.6307 126.39 41.248 126.39 39.684V26.118C126.39 25.8687 126.48 25.6533 126.662 25.472C126.843 25.2907 127.058 25.2 127.308 25.2H131.762C132.011 25.2 132.226 25.2907 132.408 25.472C132.589 25.6533 132.68 25.8687 132.68 26.118V39.548C132.68 40.908 133.008 41.9733 133.666 42.744C134.346 43.5147 135.366 43.9 136.726 43.9C138.086 43.9 139.094 43.5147 139.752 42.744C140.432 41.9733 140.772 40.908 140.772 39.548V26.118C140.772 25.8687 140.862 25.6533 141.044 25.472C141.225 25.2907 141.44 25.2 141.69 25.2H146.144ZM167.883 25.2C168.132 25.2 168.347 25.2907 168.529 25.472C168.71 25.6533 168.801 25.8687 168.801 26.118V29.722C168.801 29.9713 168.71 30.1867 168.529 30.368C168.347 30.5493 168.132 30.64 167.883 30.64H161.899V48.082C161.899 48.3313 161.808 48.5467 161.627 48.728C161.445 48.9093 161.23 49 160.981 49H156.527C156.277 49 156.062 48.9093 155.881 48.728C155.699 48.5467 155.609 48.3313 155.609 48.082V30.64H149.625C149.375 30.64 149.16 30.5493 148.979 30.368C148.797 30.1867 148.707 29.9713 148.707 29.722V26.118C148.707 25.8687 148.797 25.6533 148.979 25.472C149.16 25.2907 149.375 25.2 149.625 25.2H167.883ZM187.7 43.56C187.949 43.56 188.164 43.6507 188.346 43.832C188.527 44.0133 188.618 44.2287 188.618 44.478V48.082C188.618 48.3313 188.527 48.5467 188.346 48.728C188.164 48.9093 187.949 49 187.7 49H171.584C171.334 49 171.119 48.9093 170.938 48.728C170.756 48.5467 170.666 48.3313 170.666 48.082V26.118C170.666 25.8687 170.756 25.6533 170.938 25.472C171.119 25.2907 171.334 25.2 171.584 25.2H187.428C187.677 25.2 187.892 25.2907 188.074 25.472C188.255 25.6533 188.346 25.8687 188.346 26.118V29.722C188.346 29.9713 188.255 30.1867 188.074 30.368C187.892 30.5493 187.677 30.64 187.428 30.64H176.956V34.312H186.68C186.929 34.312 187.144 34.4027 187.326 34.584C187.507 34.7653 187.598 34.9807 187.598 35.23V38.834C187.598 39.0833 187.507 39.2987 187.326 39.48C187.144 39.6613 186.929 39.752 186.68 39.752H176.956V43.56H187.7ZM206.179 24.86C207.629 24.86 208.955 25.0753 210.157 25.506C211.381 25.914 212.435 26.4467 213.319 27.104C214.203 27.7613 214.894 28.4867 215.393 29.28C215.891 30.0733 216.152 30.8327 216.175 31.558C216.175 31.762 216.095 31.9433 215.937 32.102C215.801 32.238 215.642 32.306 215.461 32.306H211.007C210.689 32.306 210.429 32.2607 210.225 32.17C210.043 32.0793 209.851 31.9433 209.647 31.762C209.579 31.694 209.465 31.5807 209.307 31.422C209.171 31.2633 208.967 31.1047 208.695 30.946C208.423 30.7647 208.083 30.6173 207.675 30.504C207.267 30.368 206.768 30.3 206.179 30.3C205.748 30.3 205.329 30.334 204.921 30.402C204.535 30.4473 204.184 30.538 203.867 30.674C203.572 30.7873 203.323 30.9573 203.119 31.184C202.937 31.4107 202.847 31.694 202.847 32.034C202.847 32.374 202.949 32.6573 203.153 32.884C203.379 33.1107 203.742 33.326 204.241 33.53C204.762 33.7113 205.442 33.8927 206.281 34.074C207.119 34.2553 208.162 34.4707 209.409 34.72C210.655 34.9693 211.743 35.2867 212.673 35.672C213.602 36.0573 214.373 36.5447 214.985 37.134C215.619 37.7007 216.084 38.3807 216.379 39.174C216.696 39.9447 216.855 40.8627 216.855 41.928C216.855 43.084 216.594 44.1153 216.073 45.022C215.551 45.9287 214.815 46.7107 213.863 47.368C212.933 48.0027 211.823 48.49 210.531 48.83C209.261 49.17 207.867 49.34 206.349 49.34C204.807 49.34 203.402 49.136 202.133 48.728C200.863 48.32 199.764 47.7873 198.835 47.13C197.928 46.45 197.214 45.6907 196.693 44.852C196.171 44.0133 195.899 43.1633 195.877 42.302C195.877 42.098 195.945 41.928 196.081 41.792C196.239 41.6333 196.409 41.554 196.591 41.554H201.045C201.362 41.554 201.611 41.5993 201.793 41.69C201.974 41.758 202.155 41.8713 202.337 42.03C202.427 42.1207 202.563 42.268 202.745 42.472C202.926 42.676 203.164 42.8913 203.459 43.118C203.776 43.322 204.161 43.5033 204.615 43.662C205.091 43.8207 205.669 43.9 206.349 43.9C207.55 43.9 208.547 43.7753 209.341 43.526C210.157 43.254 210.565 42.778 210.565 42.098C210.565 41.758 210.417 41.4747 210.123 41.248C209.828 41.0213 209.386 40.8173 208.797 40.636C208.207 40.432 207.448 40.2393 206.519 40.058C205.612 39.8767 204.535 39.65 203.289 39.378C200.954 38.8793 199.243 38.052 198.155 36.896C197.089 35.7173 196.557 34.1533 196.557 32.204C196.557 31.2293 196.772 30.3 197.203 29.416C197.656 28.532 198.302 27.75 199.141 27.07C199.979 26.39 200.988 25.8573 202.167 25.472C203.368 25.064 204.705 24.86 206.179 24.86ZM231.24 25.2C231.694 25.2 232.034 25.3247 232.26 25.574C232.51 25.8233 232.68 26.0727 232.77 26.322L240.182 47.742C240.273 47.9687 240.318 48.1387 240.318 48.252C240.318 48.456 240.239 48.6373 240.08 48.796C239.944 48.932 239.774 49 239.57 49H235.286C234.833 49 234.504 48.9093 234.3 48.728C234.119 48.524 234.006 48.3313 233.96 48.15L233.008 45.328H223.964L223.012 48.15C222.967 48.3313 222.842 48.524 222.638 48.728C222.457 48.9093 222.14 49 221.686 49H217.402C217.198 49 217.017 48.932 216.858 48.796C216.722 48.6373 216.654 48.456 216.654 48.252C216.654 48.1387 216.7 47.9687 216.79 47.742L224.202 26.322C224.293 26.0727 224.452 25.8233 224.678 25.574C224.928 25.3247 225.279 25.2 225.732 25.2H231.24ZM225.732 40.058H231.24L228.486 31.898L225.732 40.058ZM258.535 43.56C258.784 43.56 258.999 43.6507 259.181 43.832C259.362 44.0133 259.453 44.2287 259.453 44.478V48.082C259.453 48.3313 259.362 48.5467 259.181 48.728C258.999 48.9093 258.784 49 258.535 49H242.793C242.543 49 242.328 48.9093 242.147 48.728C241.965 48.5467 241.875 48.3313 241.875 48.082V26.118C241.875 25.8687 241.965 25.6533 242.147 25.472C242.328 25.2907 242.543 25.2 242.793 25.2H247.247C247.496 25.2 247.711 25.2907 247.893 25.472C248.074 25.6533 248.165 25.8687 248.165 26.118V43.56H258.535ZM278.205 43.56C278.454 43.56 278.67 43.6507 278.851 43.832C279.032 44.0133 279.123 44.2287 279.123 44.478V48.082C279.123 48.3313 279.032 48.5467 278.851 48.728C278.67 48.9093 278.454 49 278.205 49H262.089C261.84 49 261.624 48.9093 261.443 48.728C261.262 48.5467 261.171 48.3313 261.171 48.082V26.118C261.171 25.8687 261.262 25.6533 261.443 25.472C261.624 25.2907 261.84 25.2 262.089 25.2H277.933C278.182 25.2 278.398 25.2907 278.579 25.472C278.76 25.6533 278.851 25.8687 278.851 26.118V29.722C278.851 29.9713 278.76 30.1867 278.579 30.368C278.398 30.5493 278.182 30.64 277.933 30.64H267.461V34.312H277.185C277.434 34.312 277.65 34.4027 277.831 34.584C278.012 34.7653 278.103 34.9807 278.103 35.23V38.834C278.103 39.0833 278.012 39.2987 277.831 39.48C277.65 39.6613 277.434 39.752 277.185 39.752H267.461V43.56H278.205ZM290.669 24.86C292.119 24.86 293.445 25.0753 294.647 25.506C295.871 25.914 296.925 26.4467 297.809 27.104C298.693 27.7613 299.384 28.4867 299.883 29.28C300.381 30.0733 300.642 30.8327 300.665 31.558C300.665 31.762 300.585 31.9433 300.427 32.102C300.291 32.238 300.132 32.306 299.951 32.306H295.497C295.179 32.306 294.919 32.2607 294.715 32.17C294.533 32.0793 294.341 31.9433 294.137 31.762C294.069 31.694 293.955 31.5807 293.797 31.422C293.661 31.2633 293.457 31.1047 293.185 30.946C292.913 30.7647 292.573 30.6173 292.165 30.504C291.757 30.368 291.258 30.3 290.669 30.3C290.238 30.3 289.819 30.334 289.411 30.402C289.025 30.4473 288.674 30.538 288.357 30.674C288.062 30.7873 287.813 30.9573 287.609 31.184C287.427 31.4107 287.337 31.694 287.337 32.034C287.337 32.374 287.439 32.6573 287.643 32.884C287.869 33.1107 288.232 33.326 288.731 33.53C289.252 33.7113 289.932 33.8927 290.771 34.074C291.609 34.2553 292.652 34.4707 293.899 34.72C295.145 34.9693 296.233 35.2867 297.163 35.672C298.092 36.0573 298.863 36.5447 299.475 37.134C300.109 37.7007 300.574 38.3807 300.869 39.174C301.186 39.9447 301.345 40.8627 301.345 41.928C301.345 43.084 301.084 44.1153 300.563 45.022C300.041 45.9287 299.305 46.7107 298.353 47.368C297.423 48.0027 296.313 48.49 295.021 48.83C293.751 49.17 292.357 49.34 290.839 49.34C289.297 49.34 287.892 49.136 286.623 48.728C285.353 48.32 284.254 47.7873 283.325 47.13C282.418 46.45 281.704 45.6907 281.183 44.852C280.661 44.0133 280.389 43.1633 280.367 42.302C280.367 42.098 280.435 41.928 280.571 41.792C280.729 41.6333 280.899 41.554 281.081 41.554H285.535C285.852 41.554 286.101 41.5993 286.283 41.69C286.464 41.758 286.645 41.8713 286.827 42.03C286.917 42.1207 287.053 42.268 287.235 42.472C287.416 42.676 287.654 42.8913 287.949 43.118C288.266 43.322 288.651 43.5033 289.105 43.662C289.581 43.8207 290.159 43.9 290.839 43.9C292.04 43.9 293.037 43.7753 293.831 43.526C294.647 43.254 295.055 42.778 295.055 42.098C295.055 41.758 294.907 41.4747 294.613 41.248C294.318 41.0213 293.876 40.8173 293.287 40.636C292.697 40.432 291.938 40.2393 291.009 40.058C290.102 39.8767 289.025 39.65 287.779 39.378C285.444 38.8793 283.733 38.052 282.645 36.896C281.579 35.7173 281.047 34.1533 281.047 32.204C281.047 31.2293 281.262 30.3 281.693 29.416C282.146 28.532 282.792 27.75 283.631 27.07C284.469 26.39 285.478 25.8573 286.657 25.472C287.858 25.064 289.195 24.86 290.669 24.86Z" fill="black"/>
<defs>
<linearGradient id="paint0_linear_1_2952" x1="271.513" y1="110.956" x2="129.773" y2="-87.6428" gradientUnits="userSpaceOnUse">
<stop stop-color="#FFD000"/>
<stop offset="1" stop-color="#FFF200"/>
</linearGradient>
<linearGradient id="paint1_linear_1_2952" x1="265.884" y1="108.1" x2="128.825" y2="-80.8461" gradientUnits="userSpaceOnUse">
<stop stop-color="#FFB20C"/>
<stop offset="1" stop-color="#FFEF0C"/>
</linearGradient>
<radialGradient id="paint2_radial_1_2952" cx="0" cy="0" r="1" gradientUnits="userSpaceOnUse" gradientTransform="translate(23.4663 -2.80516) scale(307.733 207.848)">
<stop stop-color="#FF960D"/>
<stop offset="1" stop-color="#010D01"/>
</radialGradient>
<radialGradient id="paint3_radial_1_2952" cx="0" cy="0" r="1" gradientUnits="userSpaceOnUse" gradientTransform="translate(24.3 64.161) scale(317.077 214.13)">
<stop stop-color="white"/>
<stop offset="1" stop-color="#FF9D00"/>
</radialGradient>
<radialGradient id="paint4_radial_1_2952" cx="0" cy="0" r="1" gradientUnits="userSpaceOnUse" gradientTransform="translate(-11.852 3.79868) scale(118.192 84.2048)">
<stop stop-color="#FF960D"/>
<stop offset="1" stop-color="#010D01"/>
</radialGradient>
<linearGradient id="paint5_linear_1_2952" x1="324" y1="36.025" x2="333" y2="36.025" gradientUnits="userSpaceOnUse">
<stop stop-color="white"/>
<stop offset="1" stop-color="#FF9D00"/>
</linearGradient>
<linearGradient id="paint6_linear_1_2952" x1="4.51169" y1="46.0167" x2="4.51169" y2="2.01667" gradientUnits="userSpaceOnUse">
<stop stop-color="#010D01"/>
<stop offset="1" stop-color="#47B009"/>
</linearGradient>
<radialGradient id="paint7_radial_1_2952" cx="0" cy="0" r="1" gradientUnits="userSpaceOnUse" gradientTransform="translate(30.086 -1.55964) scale(258.964 185.697)">
<stop stop-color="#FF960D"/>
<stop offset="1" stop-color="#010D01"/>
</radialGradient>
<radialGradient id="paint8_radial_1_2952" cx="0" cy="0" r="1" gradientUnits="userSpaceOnUse" gradientTransform="translate(168.704 59.4438) scale(198.266 31.5248)">
<stop stop-color="#FF960D"/>
<stop offset="1" stop-color="#010D01"/>
</radialGradient>
<linearGradient id="paint9_linear_1_2952" x1="8.00001" y1="24.5" x2="326" y2="24.5" gradientUnits="userSpaceOnUse">
<stop stop-color="#FFE240"/>
<stop offset="1" stop-color="#010D01"/>
</linearGradient>
</defs>
</svg>
