<svg width="333" height="72" viewBox="0 0 333 72" fill="none" xmlns="http://www.w3.org/2000/svg">
<path fill-rule="evenodd" clip-rule="evenodd" d="M11.828 0.00820716C11.828 0.0127399 11.8316 0.0164143 11.8362 0.0164143H321.195C324.322 0.0164101 327.321 0.901811 329.534 2.47829C331.747 4.05477 332.994 6.19353 333 8.42518V63.5584C333 65.7944 331.757 67.9391 329.544 69.5217C327.331 71.1043 324.328 71.9957 321.195 72H11.828C8.69287 71.9957 5.68789 71.1049 3.47104 69.5227C1.25419 67.9405 0.00608167 65.7959 0 63.5584V8.42518C0.00609529 6.18917 1.25494 4.04623 3.47245 2.46667C5.68801 0.888497 8.68973 0.00154759 11.8197 2.02333e-06C11.8243 -2.14861e-07 11.828 0.00367447 11.828 0.00820716Z" fill="url(#paint0_linear_1_4359)"/>
<path fill-rule="evenodd" clip-rule="evenodd" d="M12.1783 5.01666C11.066 5.02019 10.0009 5.34359 9.21677 5.91593C8.82991 6.19533 8.52322 6.52755 8.31438 6.89342C8.10553 7.25929 7.99867 7.65155 8.00001 8.04754V63.9525C8.00597 64.7565 8.44738 65.5266 9.22903 66.0967C10.0107 66.6669 11.0699 66.9913 12.1783 67H320.822C321.93 66.9913 322.989 66.6669 323.771 66.0967C324.553 65.5266 324.994 64.7565 325 63.9525V8.03089C324.994 7.2284 324.552 6.46001 323.77 5.89256C322.987 5.3251 321.928 5.00437 320.822 5L12.1783 5.01666Z" fill="url(#paint1_linear_1_4359)"/>
<path style="mix-blend-mode:screen" fill-rule="evenodd" clip-rule="evenodd" d="M11.3758 5.15845H321.578C322.128 5.16043 322.672 5.2358 323.179 5.38022C324.047 5.62745 325.023 5.67064 325.773 5.16861L326.288 4.82351C328.06 3.63712 327.992 1.08846 325.93 0.546091C324.57 0.188395 323.112 -0.000158577 321.624 2.71969e-05H11.3758C9.82037 -0.00271823 8.27956 0.202418 6.84207 0.603618C4.88843 1.14887 4.8249 3.57551 6.50347 4.7141L6.71355 4.85659C7.73114 5.54683 9.0721 5.48244 10.2813 5.25926C10.635 5.19398 11.0027 5.15955 11.3758 5.15845Z" fill="url(#paint2_radial_1_4359)"/>
<path style="mix-blend-mode:multiply" fill-rule="evenodd" clip-rule="evenodd" d="M321.623 66.8416H11.3769C11.0022 66.8405 10.6328 66.8057 10.2775 66.7399C9.0708 66.5161 7.73289 66.4505 6.71579 67.1374L6.50972 67.2766C4.82839 68.412 4.88743 70.8393 6.84064 71.388C8.27824 71.7919 9.81991 71.9998 11.3769 72H321.623C323.119 71.9974 324.585 71.8044 325.95 71.441C328.006 70.8938 328.073 68.3508 326.307 67.1637L325.817 66.8338C325.068 66.3305 324.092 66.3726 323.224 66.6198C322.717 66.7642 322.173 66.8396 321.623 66.8416Z" fill="url(#paint3_radial_1_4359)"/>
<path style="mix-blend-mode:screen" fill-rule="evenodd" clip-rule="evenodd" d="M7.76104 63.9711V8.04555C7.75968 7.64953 7.86849 7.25724 8.08115 6.89135C8.4137 6.31915 8.43883 5.51228 7.9006 5.12718L5.27105 3.24578C4.22931 2.50043 2.78715 2.46428 1.92671 3.41318C0.684253 4.78336 0.0059662 6.38921 0 8.04555V63.9544C0.000229125 65.0781 0.312221 66.1907 0.917999 67.2282C1.19734 67.7066 1.53661 68.1648 1.93081 68.5972C2.7905 69.5404 4.22626 69.5039 5.26564 68.7634L7.89328 66.8913C8.43565 66.5049 8.4129 65.6934 8.08022 65.1166C7.86762 64.7479 7.75916 64.353 7.76104 63.9544V63.9711Z" fill="url(#paint4_radial_1_4359)"/>
<path style="mix-blend-mode:multiply" fill-rule="evenodd" clip-rule="evenodd" d="M325.262 8.04555V63.9544C325.255 65.2192 325.08 66.8691 326.112 67.6009L327.756 68.7671C328.796 69.5054 330.232 69.5393 331.089 68.5939C331.481 68.1619 331.818 67.7044 332.095 67.2268C332.696 66.1893 333.004 65.0771 333 63.9544V8.04555C333 6.39161 332.329 4.78683 331.093 3.41651C330.235 2.46542 328.793 2.4989 327.75 3.24204L325.106 5.12572C324.566 5.5103 324.592 6.31965 324.93 6.88995C325.146 7.25578 325.259 7.6485 325.262 8.04555Z" fill="url(#paint5_linear_1_4359)"/>
<path style="mix-blend-mode:screen" fill-rule="evenodd" clip-rule="evenodd" d="M7.76104 43.6991V8.05229C7.75968 7.65583 7.86849 7.2631 8.08115 6.8968C8.41377 6.32384 8.43896 5.51629 7.90036 5.1305L5.27233 3.24808C4.23004 2.50151 2.78637 2.46538 1.92581 3.41574C0.683926 4.78723 0.00596476 6.3945 0 8.05229V41.1387C0 43.3471 2.39336 44.8221 4.53248 44.2733C5.57151 44.0068 6.64664 43.8091 7.74447 43.6843C7.7533 43.6833 7.76104 43.6902 7.76104 43.6991Z" fill="url(#paint6_linear_1_4359)"/>
<path style="mix-blend-mode:screen" fill-rule="evenodd" clip-rule="evenodd" d="M321.303 1.00828C321.295 1.01364 321.286 1.01652 321.277 1.01652H11.6856C8.85933 1.02517 6.15187 1.83297 4.15121 3.26451C2.15054 4.69604 1.01817 6.63574 1 8.66238V44.0844C1 44.5924 1.28144 45.0797 1.78243 45.4389C2.28341 45.7982 2.96291 46 3.67141 46C4.3799 46 5.0594 45.7982 5.56039 45.4389C6.06137 45.0797 6.34281 44.5924 6.34281 44.0844V8.66238C6.35484 7.64896 6.92164 6.67949 7.92102 5.96286C8.92039 5.24623 10.2723 4.83982 11.6856 4.83119H321.291C322.707 4.83554 324.062 5.24057 325.063 5.95812C326.063 6.67567 326.628 7.64763 326.634 8.66238V16.9193C326.634 17.4295 326.917 17.9188 327.42 18.2796C327.923 18.6404 328.606 18.8431 329.317 18.8431C330.029 18.8431 330.711 18.6404 331.214 18.2796C331.717 17.9188 332 17.4295 332 16.9193V8.66238C331.988 6.63287 330.858 4.68896 328.857 3.25386C326.859 1.82117 324.154 1.0114 321.329 1.00005C321.319 1.00001 321.31 1.0029 321.303 1.00828Z" fill="url(#paint7_radial_1_4359)"/>
<g style="mix-blend-mode:screen">
<path fill-rule="evenodd" clip-rule="evenodd" d="M117.989 4C60.5236 4 14 4.50836 14 4.76254C14 5.01671 99.7606 4.99977 117.989 4.99977C136.216 4.99977 222 4.99977 222 4.76254C222 4.5253 175.43 4 117.989 4Z" fill="#EEFFC5"/>
</g>
<g style="mix-blend-mode:multiply">
<path fill-rule="evenodd" clip-rule="evenodd" d="M5.59988 68.512C5.59133 68.512 5.58679 68.5019 5.59248 68.4955C6.31374 67.6887 7.20044 66.9758 8.21855 66.384C8.29673 66.3468 8.37664 66.312 8.45807 66.2798C8.75648 66.1617 8.89112 65.3937 8.65807 65.173C8.29547 64.8298 8.03788 64.429 7.90419 64C8.02975 64.6318 7.8826 65.2777 7.485 65.84C6.7665 66.6523 5.87379 67.3663 4.84432 67.952C4.7504 68.0002 4.65281 68.0432 4.5523 68.0808C4.07662 68.2588 3.7849 68.9663 4.19631 69.2642C4.35965 69.3824 4.52787 69.4968 4.70073 69.6071C4.93003 69.7533 5.25394 69.505 5.29926 69.2368C5.3414 68.9875 5.44622 68.7468 5.60786 68.5279C5.61272 68.5214 5.60805 68.512 5.59988 68.512Z" fill="#FFFBD9"/>
</g>
<g style="mix-blend-mode:multiply">
<path fill-rule="evenodd" clip-rule="evenodd" d="M327.403 68.512C327.415 68.512 327.422 68.497 327.414 68.4874C326.703 67.6768 325.815 66.9653 324.787 66.384C324.708 66.3456 324.627 66.3098 324.544 66.2767C324.251 66.1591 324.114 65.389 324.344 65.1719C324.708 64.8288 324.967 64.4286 325.102 64C324.976 64.6318 325.124 65.2777 325.523 65.84C326.237 66.6559 327.134 67.3706 328.171 67.952C328.436 68.0899 328.734 68.1864 329.048 68.2359C329.355 68.2842 329.539 68.6914 329.3 68.8903C329.018 69.1252 328.717 69.3468 328.399 69.5538C328.137 69.7248 327.758 69.4406 327.681 69.1368C327.629 68.9277 327.531 68.7246 327.391 68.5362C327.383 68.5263 327.39 68.512 327.403 68.512Z" fill="#FFFBD9"/>
</g>
<g style="mix-blend-mode:screen">
<path fill-rule="evenodd" clip-rule="evenodd" d="M5.59993 3.49999C5.59137 3.49999 5.58683 3.5101 5.59254 3.51647C6.31379 4.32111 7.20047 5.03217 8.21855 5.62234C8.29701 5.65962 8.37721 5.69439 8.45895 5.72663C8.75667 5.84401 8.89077 6.6104 8.65807 6.8301C8.29547 7.17244 8.03788 7.57214 7.90419 8C8.02975 7.36987 7.8826 6.72575 7.485 6.1649C6.7671 5.34983 5.87448 4.63239 4.84432 4.04255C4.74874 3.99622 4.64973 3.95501 4.54802 3.91905C4.0681 3.74935 3.77654 3.04754 4.18765 2.74735C4.32074 2.65016 4.45709 2.55556 4.59659 2.46363C4.8598 2.29018 5.24677 2.58038 5.32279 2.8863C5.37442 3.09412 5.46992 3.2961 5.60791 3.48403C5.61275 3.49061 5.6081 3.49999 5.59993 3.49999Z" fill="#FFFBD9"/>
</g>
<g style="mix-blend-mode:screen">
<path fill-rule="evenodd" clip-rule="evenodd" d="M327.403 3.49999C327.415 3.49999 327.422 3.51505 327.414 3.52467C326.703 4.33303 325.815 5.04262 324.787 5.62234C324.707 5.66079 324.626 5.69658 324.543 5.72966C324.251 5.84659 324.115 6.61501 324.344 6.83117C324.708 7.17337 324.967 7.57259 325.102 8C324.976 7.36987 325.124 6.72575 325.523 6.1649C326.237 5.3463 327.133 4.62817 328.171 4.04255C328.26 3.99867 328.353 3.95939 328.448 3.92479C328.932 3.74814 329.23 3.04172 328.814 2.73723C328.681 2.64021 328.545 2.54588 328.406 2.45433C328.142 2.28082 327.759 2.56677 327.681 2.87307C327.628 3.08281 327.531 3.28649 327.391 3.4758C327.383 3.48574 327.39 3.49999 327.403 3.49999Z" fill="#FFFBD9"/>
</g>
<path style="mix-blend-mode:screen" opacity="0.3" fill-rule="evenodd" clip-rule="evenodd" d="M166.512 69C80.6262 69 11 68.012 11 67.4562C11 66.9004 139.228 67.0085 166.512 67.0085C193.795 67.0085 322 67.0085 322 67.4562C322 67.9039 252.397 69 166.512 69Z" fill="url(#paint8_radial_1_4359)"/>
<g style="mix-blend-mode:screen">
<path fill-rule="evenodd" clip-rule="evenodd" d="M303 66.0372C296.648 65.9077 290.288 66.1165 284 66.661C296.655 67.113 309.345 67.113 322 66.661C315.712 66.1165 309.352 65.9077 303 66.0372Z" fill="#D2FF83"/>
</g>
<g style="mix-blend-mode:screen">
<path fill-rule="evenodd" clip-rule="evenodd" d="M270.5 66.0351C269.105 65.9896 269.09 66.9999 270.486 67C271.883 67.0001 271.896 65.9902 270.5 66.0351Z" fill="#D2FF83"/>
</g>
<path style="mix-blend-mode:screen" opacity="0.5" fill-rule="evenodd" clip-rule="evenodd" d="M8.00001 43.9832C8.00001 43.9922 8.0058 43.9994 8.01476 43.9985C50.0924 39.8365 273.769 22.7798 323.431 17.9467C324.964 17.7976 326 16.5203 326 14.9807V8.05948C325.994 7.24942 325.551 6.47379 324.767 5.90098C323.983 5.32817 322.921 5.00441 321.813 5H12.1873C11.0725 5.00357 10.0052 5.33002 9.21937 5.90776C8.83168 6.18979 8.52434 6.52515 8.31505 6.89447C8.10576 7.26379 7.99867 7.65975 8.00001 8.05948V43.9832Z" fill="url(#paint9_linear_1_4359)"/>
<path d="M51.021 34.244C50.9983 34.5387 50.9757 34.9467 50.953 35.468C50.953 35.9893 50.953 36.5333 50.953 37.1C50.953 37.644 50.953 38.188 50.953 38.732C50.9757 39.2533 50.9983 39.6613 51.021 39.956C51.0663 40.4773 51.1683 40.976 51.327 41.452C51.4857 41.928 51.735 42.3473 52.075 42.71C52.415 43.0727 52.8457 43.3673 53.367 43.594C53.8883 43.798 54.5343 43.9 55.305 43.9C56.0757 43.9 56.7103 43.8093 57.209 43.628C57.7077 43.4467 58.1157 43.2313 58.433 42.982C58.7503 42.71 58.9883 42.4153 59.147 42.098C59.3283 41.7807 59.4643 41.486 59.555 41.214C59.6683 40.8513 59.793 40.602 59.929 40.466C60.065 40.3073 60.3257 40.228 60.711 40.228H65.165C65.369 40.228 65.539 40.3073 65.675 40.466C65.8337 40.602 65.913 40.772 65.913 40.976C65.8903 42.132 65.607 43.22 65.063 44.24C64.519 45.26 63.771 46.144 62.819 46.892C61.867 47.64 60.745 48.2407 59.453 48.694C58.1837 49.1247 56.801 49.34 55.305 49.34C53.673 49.34 52.211 49.102 50.919 48.626C49.6497 48.1273 48.5617 47.4587 47.655 46.62C46.7483 45.7813 46.0457 44.8067 45.547 43.696C45.071 42.5627 44.799 41.3727 44.731 40.126C44.6857 39.1967 44.663 38.1993 44.663 37.134C44.663 36.0687 44.6857 35.0487 44.731 34.074C44.7763 32.8273 45.0483 31.6487 45.547 30.538C46.0457 29.4047 46.737 28.4187 47.621 27.58C48.5277 26.7413 49.627 26.084 50.919 25.608C52.211 25.1093 53.673 24.86 55.305 24.86C56.801 24.86 58.1837 25.0867 59.453 25.54C60.745 25.9707 61.867 26.56 62.819 27.308C63.771 28.056 64.519 28.94 65.063 29.96C65.607 30.98 65.8903 32.068 65.913 33.224C65.913 33.428 65.8337 33.6093 65.675 33.768C65.539 33.904 65.369 33.972 65.165 33.972H60.711C60.3257 33.972 60.065 33.904 59.929 33.768C59.793 33.6093 59.6683 33.3487 59.555 32.986C59.4643 32.714 59.3283 32.4193 59.147 32.102C58.9883 31.7847 58.7503 31.5013 58.433 31.252C58.1157 30.98 57.7077 30.7533 57.209 30.572C56.7103 30.3907 56.0757 30.3 55.305 30.3C54.5343 30.3 53.8883 30.4133 53.367 30.64C52.8457 30.844 52.415 31.1273 52.075 31.49C51.735 31.8527 51.4857 32.272 51.327 32.748C51.1683 33.224 51.0663 33.7227 51.021 34.244ZM68.638 34.074C68.706 32.8047 68.978 31.6147 69.454 30.504C69.9527 29.3707 70.644 28.396 71.528 27.58C72.4347 26.7413 73.5227 26.084 74.792 25.608C76.084 25.1093 77.5687 24.86 79.246 24.86C80.9007 24.86 82.374 25.1093 83.666 25.608C84.958 26.084 86.046 26.7413 86.93 27.58C87.8367 28.396 88.528 29.3707 89.004 30.504C89.5027 31.6147 89.786 32.8047 89.854 34.074C89.8994 35.0487 89.922 36.0687 89.922 37.134C89.922 38.1993 89.8994 39.1967 89.854 40.126C89.786 41.3953 89.5027 42.5967 89.004 43.73C88.528 44.8407 87.8367 45.8153 86.93 46.654C86.046 47.4927 84.958 48.15 83.666 48.626C82.374 49.102 80.9007 49.34 79.246 49.34C77.5687 49.34 76.084 49.102 74.792 48.626C73.5227 48.15 72.4347 47.4927 71.528 46.654C70.644 45.8153 69.9527 44.8407 69.454 43.73C68.978 42.5967 68.706 41.3953 68.638 40.126C68.5927 39.1967 68.57 38.1993 68.57 37.134C68.57 36.0687 68.5927 35.0487 68.638 34.074ZM83.564 39.956C83.5867 39.548 83.6094 39.0947 83.632 38.596C83.6547 38.0973 83.666 37.5873 83.666 37.066C83.666 36.5447 83.6547 36.046 83.632 35.57C83.6094 35.0713 83.5867 34.6293 83.564 34.244C83.5187 33.6773 83.394 33.156 83.19 32.68C83.0087 32.204 82.7367 31.796 82.374 31.456C82.034 31.0933 81.6034 30.81 81.082 30.606C80.5607 30.402 79.9487 30.3 79.246 30.3C78.5434 30.3 77.9314 30.402 77.41 30.606C76.8887 30.81 76.4467 31.0933 76.084 31.456C75.744 31.796 75.472 32.204 75.268 32.68C75.0867 33.156 74.9734 33.6773 74.928 34.244C74.8827 34.6293 74.8487 35.0713 74.826 35.57C74.826 36.046 74.826 36.5447 74.826 37.066C74.826 37.5873 74.826 38.0973 74.826 38.596C74.8487 39.0947 74.8827 39.548 74.928 39.956C75.0187 41.0893 75.404 42.03 76.084 42.778C76.7867 43.526 77.8407 43.9 79.246 43.9C80.6514 43.9 81.694 43.526 82.374 42.778C83.054 42.03 83.4507 41.0893 83.564 39.956ZM104.568 43.288C104.228 43.288 103.956 43.1973 103.752 43.016C103.571 42.812 103.424 42.6193 103.31 42.438L100.114 36.828V48.082C100.114 48.3313 100.024 48.5467 99.8423 48.728C99.661 48.9093 99.4457 49 99.1963 49H94.7423C94.493 49 94.2777 48.9093 94.0963 48.728C93.915 48.5467 93.8243 48.3313 93.8243 48.082V26.118C93.8243 25.8687 93.915 25.6533 94.0963 25.472C94.2777 25.2907 94.493 25.2 94.7423 25.2H98.6863C99.1397 25.2 99.4797 25.3247 99.7063 25.574C99.933 25.8233 100.08 26.0047 100.148 26.118L105.656 35.536L111.164 26.118C111.232 26.0047 111.38 25.8233 111.606 25.574C111.833 25.3247 112.173 25.2 112.626 25.2H116.57C116.82 25.2 117.035 25.2907 117.216 25.472C117.398 25.6533 117.488 25.8687 117.488 26.118V48.082C117.488 48.3313 117.398 48.5467 117.216 48.728C117.035 48.9093 116.82 49 116.57 49H112.116C111.867 49 111.652 48.9093 111.47 48.728C111.289 48.5467 111.198 48.3313 111.198 48.082V36.828L108.002 42.438C107.889 42.6193 107.73 42.812 107.526 43.016C107.345 43.1973 107.084 43.288 106.744 43.288H104.568ZM132.888 25.2C134.339 25.2 135.642 25.37 136.798 25.71C137.954 26.0273 138.94 26.526 139.756 27.206C140.572 27.8633 141.196 28.6907 141.626 29.688C142.08 30.6853 142.306 31.8413 142.306 33.156C142.306 34.4933 142.08 35.6607 141.626 36.658C141.196 37.6553 140.572 38.4827 139.756 39.14C138.94 39.7973 137.954 40.296 136.798 40.636C135.642 40.976 134.339 41.146 132.888 41.146H128.536V48.082C128.536 48.3313 128.446 48.5467 128.264 48.728C128.083 48.9093 127.868 49 127.618 49H123.164C122.915 49 122.7 48.9093 122.518 48.728C122.337 48.5467 122.246 48.3313 122.246 48.082V26.118C122.246 25.8687 122.337 25.6533 122.518 25.472C122.7 25.2907 122.915 25.2 123.164 25.2H132.888ZM128.536 35.842H132.718C133.67 35.842 134.452 35.638 135.064 35.23C135.699 34.7993 136.016 34.108 136.016 33.156C136.016 32.204 135.699 31.524 135.064 31.116C134.452 30.6853 133.67 30.47 132.718 30.47H128.536V35.842ZM165.071 25.2C165.32 25.2 165.535 25.2907 165.717 25.472C165.898 25.6533 165.989 25.8687 165.989 26.118V39.684C165.989 41.248 165.739 42.6307 165.241 43.832C164.742 45.0333 164.028 46.042 163.099 46.858C162.192 47.674 161.104 48.2973 159.835 48.728C158.565 49.136 157.171 49.34 155.653 49.34C154.111 49.34 152.706 49.136 151.437 48.728C150.167 48.2973 149.079 47.674 148.173 46.858C147.266 46.042 146.563 45.0333 146.065 43.832C145.566 42.6307 145.317 41.248 145.317 39.684V26.118C145.317 25.8687 145.407 25.6533 145.589 25.472C145.77 25.2907 145.985 25.2 146.235 25.2H150.689C150.938 25.2 151.153 25.2907 151.335 25.472C151.516 25.6533 151.607 25.8687 151.607 26.118V39.548C151.607 40.908 151.935 41.9733 152.593 42.744C153.273 43.5147 154.293 43.9 155.653 43.9C157.013 43.9 158.021 43.5147 158.679 42.744C159.359 41.9733 159.699 40.908 159.699 39.548V26.118C159.699 25.8687 159.789 25.6533 159.971 25.472C160.152 25.2907 160.367 25.2 160.617 25.2H165.071ZM188 25.2C188.249 25.2 188.464 25.2907 188.646 25.472C188.827 25.6533 188.918 25.8687 188.918 26.118V29.722C188.918 29.9713 188.827 30.1867 188.646 30.368C188.464 30.5493 188.249 30.64 188 30.64H182.016V48.082C182.016 48.3313 181.925 48.5467 181.744 48.728C181.562 48.9093 181.347 49 181.098 49H176.644C176.394 49 176.179 48.9093 175.998 48.728C175.816 48.5467 175.726 48.3313 175.726 48.082V30.64H169.742C169.492 30.64 169.277 30.5493 169.096 30.368C168.914 30.1867 168.824 29.9713 168.824 29.722V26.118C168.824 25.8687 168.914 25.6533 169.096 25.472C169.277 25.2907 169.492 25.2 169.742 25.2H188ZM209.007 43.56C209.256 43.56 209.471 43.6507 209.653 43.832C209.834 44.0133 209.925 44.2287 209.925 44.478V48.082C209.925 48.3313 209.834 48.5467 209.653 48.728C209.471 48.9093 209.256 49 209.007 49H192.891C192.641 49 192.426 48.9093 192.245 48.728C192.063 48.5467 191.973 48.3313 191.973 48.082V26.118C191.973 25.8687 192.063 25.6533 192.245 25.472C192.426 25.2907 192.641 25.2 192.891 25.2H208.735C208.984 25.2 209.199 25.2907 209.381 25.472C209.562 25.6533 209.653 25.8687 209.653 26.118V29.722C209.653 29.9713 209.562 30.1867 209.381 30.368C209.199 30.5493 208.984 30.64 208.735 30.64H198.263V34.312H207.987C208.236 34.312 208.451 34.4027 208.633 34.584C208.814 34.7653 208.905 34.9807 208.905 35.23V38.834C208.905 39.0833 208.814 39.2987 208.633 39.48C208.451 39.6613 208.236 39.752 207.987 39.752H198.263V43.56H209.007ZM226.5 34.244C226.477 34.5387 226.454 34.9467 226.432 35.468C226.432 35.9893 226.432 36.5333 226.432 37.1C226.432 37.644 226.432 38.188 226.432 38.732C226.454 39.2533 226.477 39.6613 226.5 39.956C226.545 40.4773 226.647 40.976 226.806 41.452C226.964 41.928 227.214 42.3473 227.554 42.71C227.894 43.0727 228.324 43.3673 228.846 43.594C229.367 43.798 230.013 43.9 230.784 43.9C231.554 43.9 232.189 43.8093 232.688 43.628C233.186 43.4467 233.594 43.2313 233.912 42.982C234.229 42.71 234.467 42.4153 234.626 42.098C234.807 41.7807 234.943 41.486 235.034 41.214C235.147 40.8513 235.272 40.602 235.408 40.466C235.544 40.3073 235.804 40.228 236.19 40.228H240.644C240.848 40.228 241.018 40.3073 241.154 40.466C241.312 40.602 241.392 40.772 241.392 40.976C241.369 42.132 241.086 43.22 240.542 44.24C239.998 45.26 239.25 46.144 238.298 46.892C237.346 47.64 236.224 48.2407 234.932 48.694C233.662 49.1247 232.28 49.34 230.784 49.34C229.152 49.34 227.69 49.102 226.398 48.626C225.128 48.1273 224.04 47.4587 223.134 46.62C222.227 45.7813 221.524 44.8067 221.026 43.696C220.55 42.5627 220.278 41.3727 220.21 40.126C220.164 39.1967 220.142 38.1993 220.142 37.134C220.142 36.0687 220.164 35.0487 220.21 34.074C220.255 32.8273 220.527 31.6487 221.026 30.538C221.524 29.4047 222.216 28.4187 223.1 27.58C224.006 26.7413 225.106 26.084 226.398 25.608C227.69 25.1093 229.152 24.86 230.784 24.86C232.28 24.86 233.662 25.0867 234.932 25.54C236.224 25.9707 237.346 26.56 238.298 27.308C239.25 28.056 239.998 28.94 240.542 29.96C241.086 30.98 241.369 32.068 241.392 33.224C241.392 33.428 241.312 33.6093 241.154 33.768C241.018 33.904 240.848 33.972 240.644 33.972H236.19C235.804 33.972 235.544 33.904 235.408 33.768C235.272 33.6093 235.147 33.3487 235.034 32.986C234.943 32.714 234.807 32.4193 234.626 32.102C234.467 31.7847 234.229 31.5013 233.912 31.252C233.594 30.98 233.186 30.7533 232.688 30.572C232.189 30.3907 231.554 30.3 230.784 30.3C230.013 30.3 229.367 30.4133 228.846 30.64C228.324 30.844 227.894 31.1273 227.554 31.49C227.214 31.8527 226.964 32.272 226.806 32.748C226.647 33.224 226.545 33.7227 226.5 34.244ZM244.117 34.074C244.185 32.8047 244.457 31.6147 244.933 30.504C245.431 29.3707 246.123 28.396 247.007 27.58C247.913 26.7413 249.001 26.084 250.271 25.608C251.563 25.1093 253.047 24.86 254.725 24.86C256.379 24.86 257.853 25.1093 259.145 25.608C260.437 26.084 261.525 26.7413 262.409 27.58C263.315 28.396 264.007 29.3707 264.483 30.504C264.981 31.6147 265.265 32.8047 265.333 34.074C265.378 35.0487 265.401 36.0687 265.401 37.134C265.401 38.1993 265.378 39.1967 265.333 40.126C265.265 41.3953 264.981 42.5967 264.483 43.73C264.007 44.8407 263.315 45.8153 262.409 46.654C261.525 47.4927 260.437 48.15 259.145 48.626C257.853 49.102 256.379 49.34 254.725 49.34C253.047 49.34 251.563 49.102 250.271 48.626C249.001 48.15 247.913 47.4927 247.007 46.654C246.123 45.8153 245.431 44.8407 244.933 43.73C244.457 42.5967 244.185 41.3953 244.117 40.126C244.071 39.1967 244.049 38.1993 244.049 37.134C244.049 36.0687 244.071 35.0487 244.117 34.074ZM259.043 39.956C259.065 39.548 259.088 39.0947 259.111 38.596C259.133 38.0973 259.145 37.5873 259.145 37.066C259.145 36.5447 259.133 36.046 259.111 35.57C259.088 35.0713 259.065 34.6293 259.043 34.244C258.997 33.6773 258.873 33.156 258.669 32.68C258.487 32.204 258.215 31.796 257.853 31.456C257.513 31.0933 257.082 30.81 256.561 30.606C256.039 30.402 255.427 30.3 254.725 30.3C254.022 30.3 253.41 30.402 252.889 30.606C252.367 30.81 251.925 31.0933 251.563 31.456C251.223 31.796 250.951 32.204 250.747 32.68C250.565 33.156 250.452 33.6773 250.407 34.244C250.361 34.6293 250.327 35.0713 250.305 35.57C250.305 36.046 250.305 36.5447 250.305 37.066C250.305 37.5873 250.305 38.0973 250.305 38.596C250.327 39.0947 250.361 39.548 250.407 39.956C250.497 41.0893 250.883 42.03 251.563 42.778C252.265 43.526 253.319 43.9 254.725 43.9C256.13 43.9 257.173 43.526 257.853 42.778C258.533 42.03 258.929 41.0893 259.043 39.956ZM278.143 24.86C279.594 24.86 280.92 25.0753 282.121 25.506C283.345 25.914 284.399 26.4467 285.283 27.104C286.167 27.7613 286.858 28.4867 287.357 29.28C287.856 30.0733 288.116 30.8327 288.139 31.558C288.139 31.762 288.06 31.9433 287.901 32.102C287.765 32.238 287.606 32.306 287.425 32.306H282.971C282.654 32.306 282.393 32.2607 282.189 32.17C282.008 32.0793 281.815 31.9433 281.611 31.762C281.543 31.694 281.43 31.5807 281.271 31.422C281.135 31.2633 280.931 31.1047 280.659 30.946C280.387 30.7647 280.047 30.6173 279.639 30.504C279.231 30.368 278.732 30.3 278.143 30.3C277.712 30.3 277.293 30.334 276.885 30.402C276.5 30.4473 276.148 30.538 275.831 30.674C275.536 30.7873 275.287 30.9573 275.083 31.184C274.902 31.4107 274.811 31.694 274.811 32.034C274.811 32.374 274.913 32.6573 275.117 32.884C275.344 33.1107 275.706 33.326 276.205 33.53C276.726 33.7113 277.406 33.8927 278.245 34.074C279.084 34.2553 280.126 34.4707 281.373 34.72C282.62 34.9693 283.708 35.2867 284.637 35.672C285.566 36.0573 286.337 36.5447 286.949 37.134C287.584 37.7007 288.048 38.3807 288.343 39.174C288.66 39.9447 288.819 40.8627 288.819 41.928C288.819 43.084 288.558 44.1153 288.037 45.022C287.516 45.9287 286.779 46.7107 285.827 47.368C284.898 48.0027 283.787 48.49 282.495 48.83C281.226 49.17 279.832 49.34 278.313 49.34C276.772 49.34 275.366 49.136 274.097 48.728C272.828 48.32 271.728 47.7873 270.799 47.13C269.892 46.45 269.178 45.6907 268.657 44.852C268.136 44.0133 267.864 43.1633 267.841 42.302C267.841 42.098 267.909 41.928 268.045 41.792C268.204 41.6333 268.374 41.554 268.555 41.554H273.009C273.326 41.554 273.576 41.5993 273.757 41.69C273.938 41.758 274.12 41.8713 274.301 42.03C274.392 42.1207 274.528 42.268 274.709 42.472C274.89 42.676 275.128 42.8913 275.423 43.118C275.74 43.322 276.126 43.5033 276.579 43.662C277.055 43.8207 277.633 43.9 278.313 43.9C279.514 43.9 280.512 43.7753 281.305 43.526C282.121 43.254 282.529 42.778 282.529 42.098C282.529 41.758 282.382 41.4747 282.087 41.248C281.792 41.0213 281.35 40.8173 280.761 40.636C280.172 40.432 279.412 40.2393 278.483 40.058C277.576 39.8767 276.5 39.65 275.253 39.378C272.918 38.8793 271.207 38.052 270.119 36.896C269.054 35.7173 268.521 34.1533 268.521 32.204C268.521 31.2293 268.736 30.3 269.167 29.416C269.62 28.532 270.266 27.75 271.105 27.07C271.944 26.39 272.952 25.8573 274.131 25.472C275.332 25.064 276.67 24.86 278.143 24.86Z" fill="black"/>
<defs>
<linearGradient id="paint0_linear_1_4359" x1="271.513" y1="110.956" x2="129.773" y2="-87.6428" gradientUnits="userSpaceOnUse">
<stop stop-color="#FFD000"/>
<stop offset="1" stop-color="#FFF200"/>
</linearGradient>
<linearGradient id="paint1_linear_1_4359" x1="265.884" y1="108.1" x2="128.825" y2="-80.8461" gradientUnits="userSpaceOnUse">
<stop stop-color="#FFB20C"/>
<stop offset="1" stop-color="#FFEF0C"/>
</linearGradient>
<radialGradient id="paint2_radial_1_4359" cx="0" cy="0" r="1" gradientUnits="userSpaceOnUse" gradientTransform="translate(23.4663 -2.80516) scale(307.733 207.848)">
<stop stop-color="#FF960D"/>
<stop offset="1" stop-color="#010D01"/>
</radialGradient>
<radialGradient id="paint3_radial_1_4359" cx="0" cy="0" r="1" gradientUnits="userSpaceOnUse" gradientTransform="translate(24.3 64.161) scale(317.077 214.13)">
<stop stop-color="white"/>
<stop offset="1" stop-color="#FF9D00"/>
</radialGradient>
<radialGradient id="paint4_radial_1_4359" cx="0" cy="0" r="1" gradientUnits="userSpaceOnUse" gradientTransform="translate(-11.852 3.79868) scale(118.192 84.2048)">
<stop stop-color="#FF960D"/>
<stop offset="1" stop-color="#010D01"/>
</radialGradient>
<linearGradient id="paint5_linear_1_4359" x1="324" y1="36.025" x2="333" y2="36.025" gradientUnits="userSpaceOnUse">
<stop stop-color="white"/>
<stop offset="1" stop-color="#FF9D00"/>
</linearGradient>
<linearGradient id="paint6_linear_1_4359" x1="4.51169" y1="46.0167" x2="4.51169" y2="2.01667" gradientUnits="userSpaceOnUse">
<stop stop-color="#010D01"/>
<stop offset="1" stop-color="#47B009"/>
</linearGradient>
<radialGradient id="paint7_radial_1_4359" cx="0" cy="0" r="1" gradientUnits="userSpaceOnUse" gradientTransform="translate(30.086 -1.55964) scale(258.964 185.697)">
<stop stop-color="#FF960D"/>
<stop offset="1" stop-color="#010D01"/>
</radialGradient>
<radialGradient id="paint8_radial_1_4359" cx="0" cy="0" r="1" gradientUnits="userSpaceOnUse" gradientTransform="translate(168.704 59.4438) scale(198.266 31.5248)">
<stop stop-color="#FF960D"/>
<stop offset="1" stop-color="#010D01"/>
</radialGradient>
<linearGradient id="paint9_linear_1_4359" x1="8.00001" y1="24.5" x2="326" y2="24.5" gradientUnits="userSpaceOnUse">
<stop stop-color="#FFE240"/>
<stop offset="1" stop-color="#010D01"/>
</linearGradient>
</defs>
</svg>
