<svg width="48" height="38" viewBox="0 0 48 38" fill="none" xmlns="http://www.w3.org/2000/svg">
<path d="M46.5593 9.62688C46.5593 9.58245 46.5593 9.53803 46.5593 9.49361C46.5593 9.38254 46.5593 9.26778 46.5593 9.15671C46.5593 9.04564 46.5593 9.02713 46.5593 8.96419C46.5593 8.90125 46.5371 8.75686 46.5186 8.6569V8.55324C46.5186 8.51622 46.4964 8.48289 46.489 8.44586C46.4668 8.34961 46.4408 8.25336 46.4112 8.16081C46.3816 8.06825 46.3705 8.02383 46.3483 7.95719C46.3261 7.89055 46.2705 7.76095 46.2298 7.66099C46.2113 7.62027 46.1965 7.57215 46.178 7.53142C46.1703 7.51412 46.1604 7.49793 46.1484 7.48329C46.0674 7.30931 45.9746 7.14108 45.8707 6.97979C45.7436 6.78214 45.6039 6.59291 45.4523 6.41333C45.4523 6.41333 45.4264 6.37633 45.4116 6.36152C45.3191 6.25045 45.2191 6.14677 45.1191 6.04311L41.9463 2.82215C42.0641 2.93936 42.1753 3.06296 42.2795 3.19238C42.4319 3.37089 42.5729 3.55885 42.7016 3.75512C42.8029 3.91604 42.8944 4.08296 42.9755 4.25494C43.0089 4.31788 43.0348 4.3845 43.0607 4.44744C43.0866 4.51038 43.1421 4.63626 43.1754 4.72882C43.2088 4.82137 43.2199 4.8658 43.2384 4.93614C43.2569 5.00648 43.2939 5.12867 43.3161 5.22493C43.3383 5.32119 43.3458 5.3582 43.3569 5.42484C43.368 5.49148 43.3569 5.53962 43.3791 5.59515L41.2651 3.48116C40.1544 2.34827 38.344 1.50046 36.1375 1.25981C33.4697 1.00721 30.7907 0.889821 28.111 0.908096C25.3825 0.908096 22.6576 0.98954 19.9365 1.06358C19.2182 1.06358 18.5037 1.06358 17.7706 1.06358H14.4682C11.2954 1.06358 8.09296 1.16355 5.13487 1.92621C4.95026 1.97664 4.76859 2.0372 4.59065 2.10762L4.38332 2.20388C4.27596 2.25571 4.16489 2.30013 4.05753 2.35937C3.95016 2.41861 3.91313 2.44454 3.84279 2.48896C3.77245 2.53339 3.64287 2.60373 3.54661 2.67037L3.32819 2.83327C3.24674 2.8925 3.16529 2.95174 3.08754 3.01468C2.85565 3.21132 2.63676 3.4228 2.43223 3.64777C2.41002 3.67368 2.3804 3.6959 2.35818 3.72182L2.29155 3.80696C2.14775 3.97359 2.01306 4.14784 1.88801 4.32897L1.83618 4.39561C1.7115 4.58133 1.59778 4.7742 1.49558 4.97318L1.46966 5.0139C1.44004 5.07313 1.42152 5.13236 1.3919 5.1916C1.33637 5.31007 1.28454 5.42854 1.23642 5.56182C1.23642 5.56182 1.23641 5.59886 1.2105 5.62107C1.18458 5.64328 1.17717 5.73583 1.15866 5.79507C1.14015 5.8543 1.08831 6.01721 1.0624 6.12828C1.0624 6.15419 1.04391 6.18009 1.0365 6.20601C1.0291 6.23193 1.0365 6.30969 1.01429 6.36152C0.992076 6.47629 0.977266 6.59474 0.966159 6.70951C0.964366 6.74404 0.964366 6.77865 0.966159 6.81318C0.962452 6.87854 0.962452 6.94406 0.966159 7.00941C0.966159 7.07235 0.966159 7.13159 0.966159 7.19453C0.972351 7.31863 0.985945 7.44226 1.00688 7.56475C1.00688 7.60548 1.00687 7.64618 1.02538 7.68691C1.02712 7.69421 1.02712 7.70182 1.02538 7.70912C1.02538 7.74614 1.05129 7.77948 1.0624 7.8165C1.09879 7.96454 1.14708 8.10939 1.20679 8.24966C1.20679 8.24966 1.20679 8.28668 1.20679 8.30149C1.26265 8.42973 1.32826 8.5535 1.40302 8.67172L1.45115 8.73836C1.50669 8.8124 1.5585 8.89014 1.61774 8.96419L1.78063 9.14189L3.97977 11.3632C3.38596 11.1626 2.80906 10.915 2.25453 10.6228C1.84495 10.4019 1.47061 10.1211 1.14386 9.78978L4.31669 13.0107C4.64394 13.3415 5.01819 13.6222 5.42736 13.8437C7.67092 15.0433 10.6586 15.6245 14.5719 15.6245C16.0343 15.6245 17.6152 15.5505 19.47 15.3728C22.802 15.0507 25.9748 14.7545 29.2217 14.7545C30.051 14.7545 30.8581 14.773 31.6281 14.8137C32.3982 14.8545 33.2201 14.9359 34.0642 15.0174C35.2932 15.1634 36.529 15.2462 37.7665 15.2654C39.8842 15.2654 41.565 14.8952 43.0533 14.0955C43.3124 13.9585 43.5531 13.8104 43.7937 13.6586L43.9974 13.5217C44.1677 13.4069 44.3269 13.2847 44.4824 13.1514C44.5157 13.1218 44.5601 13.0959 44.5934 13.0663C44.6104 13.0525 44.6264 13.0377 44.6415 13.0219C44.8787 12.8245 45.1014 12.6105 45.3079 12.3814C45.3079 12.3814 45.3487 12.348 45.3672 12.3258C45.3857 12.3036 45.419 12.2555 45.4486 12.2185C45.5486 12.1 45.6412 11.9815 45.73 11.8482C45.7522 11.8112 45.7893 11.7779 45.8115 11.7409C45.8337 11.7038 45.8411 11.6853 45.8596 11.6594C45.9188 11.5669 45.9706 11.4743 46.0225 11.3818L46.115 11.23L46.1447 11.1559C46.1854 11.0745 46.2224 10.9856 46.2557 10.9005C46.289 10.8153 46.3076 10.7931 46.3298 10.7376C46.352 10.682 46.3668 10.6339 46.3816 10.5821C46.4242 10.4545 46.4601 10.3247 46.489 10.1933C46.4874 10.1848 46.4874 10.176 46.489 10.1674C46.529 9.98194 46.5563 9.7939 46.5704 9.60467C46.5704 9.60467 46.5593 9.63799 46.5593 9.62688Z" fill="url(#paint0_linear_4_92281)"/>
<path d="M42.6718 3.759C43.0287 4.29005 43.2607 4.895 43.3504 5.52848C43.4402 6.16195 43.3854 6.80753 43.1901 7.41682C42.757 8.77184 41.6019 9.98247 39.8581 10.9117C38.3772 11.7077 36.6927 12.0779 34.5713 12.0779C33.3338 12.0586 32.0981 11.9758 30.8691 11.8299C30.0249 11.7484 29.229 11.667 28.433 11.6263C27.637 11.5855 26.8595 11.567 26.0265 11.567C22.7834 11.567 19.6253 11.8632 16.2748 12.1853C14.4237 12.363 12.8428 12.4371 11.3767 12.4371C7.46718 12.4371 4.47576 11.8558 2.2359 10.6563C1.46473 10.2865 0.834851 9.67572 0.441454 8.91631C0.0480562 8.1569 -0.0874891 7.29009 0.0552758 6.44683C0.4255 4.04777 2.55059 1.68944 4.93854 1.07116C8.12617 0.241858 11.5471 0.175224 14.4977 0.175224C15.0568 0.175224 15.6084 0.175224 16.1675 0.175224H17.8038C18.5443 0.175224 19.244 0.175225 19.94 0.153012L21.3654 0.115976C23.5868 0.0604421 25.8821 0.00120705 28.1405 0.00120705C30.8514 -0.0137223 33.5613 0.109847 36.2595 0.371432C39.0992 0.652802 41.4945 1.92638 42.6718 3.759ZM42.3275 7.15395C43.1975 4.49203 40.4135 1.71165 36.1374 1.27478C33.4695 1.02218 30.7906 0.90481 28.1109 0.923085C25.3823 0.923085 22.6575 1.00453 19.9363 1.07857C19.2181 1.07857 18.5036 1.07857 17.7705 1.07857H14.4681C11.2953 1.07857 8.09284 1.17854 5.13475 1.9412C1.82864 2.79642 -1.07762 7.82036 2.68386 9.84178C5.10143 11.1413 8.30389 11.5189 11.4027 11.5189C13.0613 11.5189 14.7014 11.4115 16.16 11.2708C19.4921 10.9599 22.7463 10.6489 26.0524 10.6489C26.8669 10.6489 27.6888 10.6489 28.507 10.7044C30.4951 10.8118 32.5795 11.1561 34.6083 11.1561C36.2883 11.2166 37.9564 10.8524 39.4583 10.0972C41.0725 9.23462 41.9832 8.19799 42.3275 7.13544V7.15395Z" fill="url(#paint1_linear_4_92281)"/>
<path d="M28.1112 0.922745C30.791 0.90447 33.4699 1.02184 36.1377 1.27444C40.4138 1.71131 43.1979 4.49169 42.3279 7.15361C41.9836 8.20505 41.0728 9.24168 39.4586 10.1154C37.9535 10.8679 36.2828 11.2283 34.6013 11.1631C32.5725 11.1631 30.4881 10.8189 28.5 10.7115C27.6818 10.6708 26.8599 10.6559 26.0454 10.6559C22.7393 10.6559 19.4776 10.9669 16.153 11.2779C14.6943 11.4186 13.0542 11.526 11.3956 11.526C8.29684 11.526 5.10181 11.1557 2.67683 9.84886C-1.08465 7.82743 1.82161 2.81458 5.12772 1.94825C8.08952 1.18559 11.2882 1.08564 14.4611 1.08564H17.7635C18.5039 1.08564 19.2111 1.08564 19.9293 1.08564C22.6578 1.0042 25.3827 0.922745 28.1112 0.922745Z" fill="url(#paint2_linear_4_92281)"/>
<path d="M47.0182 31.0168C47.0182 30.9724 47.0182 30.928 47.0182 30.8835C47.0182 30.7725 47.0182 30.6577 47.0182 30.5466C47.0182 30.4356 47.0182 30.4171 47.0182 30.3541C47.0104 30.251 46.9968 30.1484 46.9775 30.0468V29.9432C46.9775 29.9061 46.9553 29.8691 46.9479 29.8358C46.9257 29.7395 46.8998 29.6433 46.8702 29.5507C46.8405 29.4582 46.8294 29.4137 46.8072 29.3471C46.785 29.2805 46.7295 29.1509 46.6888 29.0509C46.6702 29.0102 46.6554 28.9621 46.6369 28.9214C46.6293 28.9041 46.6193 28.8879 46.6073 28.8732C46.5264 28.6992 46.4336 28.531 46.3296 28.3697C46.2026 28.172 46.0628 27.9828 45.9113 27.8033C45.9113 27.8033 45.8854 27.7662 45.8706 27.7514C45.778 27.6404 45.6781 27.5367 45.5781 27.433L42.4053 24.2121C42.523 24.3293 42.6342 24.4529 42.7384 24.5823C42.8908 24.7608 43.0318 24.9488 43.1605 25.1451C43.2618 25.306 43.3533 25.4729 43.4345 25.6448C43.4678 25.7078 43.4937 25.7744 43.5196 25.8374C43.5456 25.9003 43.6011 26.0262 43.6344 26.1187C43.6677 26.2113 43.6788 26.2557 43.6973 26.3261C43.7159 26.3964 43.7529 26.5186 43.7751 26.6185C43.7973 26.7185 43.8047 26.7481 43.8158 26.8148C43.8269 26.8814 43.8158 26.9295 43.838 26.9851L41.724 24.8637C40.6134 23.7308 38.803 22.883 36.5964 22.6608C33.929 22.4002 31.25 22.2766 28.57 22.2906C25.8414 22.2906 23.1166 22.3721 20.3954 22.4461C19.6772 22.4646 18.9626 22.4646 18.2296 22.4646C17.1448 22.4646 16.0378 22.4646 14.9272 22.4646C11.7543 22.4646 8.55192 22.5646 5.59383 23.3272C5.40922 23.3777 5.22752 23.4382 5.04958 23.5087L4.84226 23.6049C4.73489 23.6567 4.62382 23.7012 4.51646 23.7604C4.40909 23.8197 4.37207 23.8456 4.30172 23.89C4.23138 23.9344 4.10181 24.0048 4.00555 24.0714L3.78713 24.2343C3.70568 24.2935 3.62422 24.3528 3.54647 24.4157C3.31345 24.6124 3.09335 24.8238 2.88748 25.0488L2.81344 25.1228L2.7468 25.208C2.603 25.3746 2.46828 25.5489 2.34324 25.73C2.32478 25.7526 2.30747 25.776 2.29141 25.8004C2.16673 25.9861 2.05301 26.1789 1.95081 26.3779L1.92489 26.4186C1.89527 26.4779 1.87677 26.5371 1.84715 26.5963C1.79162 26.7148 1.73977 26.8333 1.69164 26.9666L1.66573 27.0258C1.64351 27.085 1.63242 27.1406 1.61391 27.1998C1.5954 27.259 1.54356 27.4219 1.51765 27.533C1.50855 27.5584 1.50113 27.5844 1.49544 27.6107C1.49544 27.6626 1.49543 27.7144 1.46952 27.7663C1.45101 27.881 1.43249 27.9995 1.42139 28.1143C1.42139 28.1513 1.42139 28.1846 1.42139 28.2179C1.42139 28.2512 1.42139 28.3475 1.42139 28.4141C1.42139 28.4808 1.42139 28.5363 1.42139 28.5993C1.42701 28.7236 1.44186 28.8473 1.46581 28.9695C1.46581 29.0102 1.46581 29.0509 1.46581 29.0916C1.46754 29.0989 1.46754 29.1065 1.46581 29.1139C1.46581 29.1509 1.49172 29.1842 1.50283 29.2212C1.53865 29.3694 1.58696 29.5143 1.64722 29.6544C1.64722 29.6544 1.64721 29.6914 1.66573 29.7099C1.72322 29.8302 1.78879 29.9465 1.86195 30.0579L1.91009 30.1246C1.96562 30.1986 2.01744 30.2764 2.08037 30.3504C2.14331 30.4245 2.18406 30.4689 2.23959 30.5281L4.43873 32.7495C3.84491 32.5488 3.268 32.3012 2.71347 32.009C2.30309 31.7894 1.92857 31.5085 1.60279 31.176L4.77562 34.397C5.10287 34.7277 5.47713 35.0084 5.8863 35.23C8.12986 36.4295 11.1176 37.0108 15.0308 37.0108C16.4932 37.0108 18.0741 36.9367 19.9289 36.759C23.2609 36.4369 26.4338 36.1407 29.6806 36.1407C30.5099 36.1407 31.317 36.1592 32.0871 36.2C32.8572 36.2407 33.6791 36.3221 34.5232 36.4036C35.7522 36.5495 36.9879 36.6323 38.2254 36.6516C40.3468 36.6516 42.0239 36.2814 43.5122 35.4817C43.7714 35.3447 44.012 35.1967 44.2527 35.0449L44.4563 34.9079C44.6266 34.7931 44.7858 34.6709 44.9413 34.5377C44.9746 34.508 45.019 34.4821 45.0524 34.4562C45.0675 34.4404 45.0835 34.4256 45.1005 34.4118C45.3368 34.2122 45.5594 33.997 45.7669 33.7676C45.7669 33.7676 45.8076 33.7343 45.8261 33.7121C45.8446 33.6898 45.878 33.6417 45.9076 33.6047C46.0075 33.4862 46.1001 33.3677 46.1889 33.2345C46.2112 33.1974 46.2482 33.1641 46.2704 33.1271C46.2926 33.0901 46.3 33.0716 46.3185 33.0456C46.3778 32.9531 46.4296 32.8605 46.4814 32.768C46.5333 32.6754 46.5481 32.668 46.574 32.6162L46.6036 32.5421C46.6443 32.4607 46.6813 32.3718 46.7184 32.2867C46.7554 32.2015 46.7665 32.1793 46.7887 32.1238C46.8109 32.0682 46.8257 32.0201 46.8405 31.9683C46.8832 31.8407 46.919 31.7109 46.9479 31.5796C46.9464 31.571 46.9464 31.5622 46.9479 31.5536C46.988 31.3682 47.0152 31.1801 47.0294 30.9909C47.0294 30.9909 47.0182 31.0279 47.0182 31.0168Z" fill="url(#paint3_linear_4_92281)"/>
<path d="M43.116 25.1487C43.4725 25.6799 43.7044 26.2848 43.7941 26.9182C43.8839 27.5517 43.8293 28.1972 43.6343 28.8065C43.2011 30.1615 42.046 31.3722 40.3023 32.3014C38.8214 33.0974 37.1368 33.4676 35.0155 33.4676C33.7779 33.4483 32.5422 33.3655 31.3132 33.2196C30.4691 33.1381 29.6731 33.0567 28.8771 33.016C28.0811 32.9753 27.3037 32.9567 26.4707 32.9567C23.2275 32.9567 20.0695 33.2529 16.719 33.575C14.8678 33.7564 13.287 33.8305 11.8246 33.8305C7.9113 33.8305 4.91991 33.2455 2.68005 32.046C1.90884 31.6739 1.27987 31.0606 0.888399 30.2991C0.496932 29.5375 0.364275 28.6691 0.510514 27.8254C0.880739 25.4264 3.00583 23.068 5.39378 22.4498C8.58141 21.6204 12.006 21.5538 14.953 21.5538C15.512 21.5538 16.0637 21.5538 16.6227 21.5538H18.2591C18.981 21.5538 19.6993 21.5538 20.399 21.5316L21.8206 21.4983C24.042 21.439 26.3374 21.3835 28.5958 21.3835C31.3066 21.3688 34.0165 21.4923 36.7148 21.7537C39.5581 22.0425 41.9535 23.3161 43.116 25.1487ZM42.7717 28.5437C43.6454 25.8817 40.8576 23.1014 36.5815 22.6682C33.9141 22.4076 31.2351 22.284 28.555 22.298C25.8265 22.298 23.1016 22.3794 20.3805 22.4535C19.6622 22.472 18.9477 22.472 18.2147 22.472C17.1299 22.472 16.0229 22.472 14.9123 22.472C11.7394 22.472 8.53698 22.5719 5.57889 23.3346C2.27278 24.1898 -0.633477 29.2138 3.12801 31.2352C5.54557 32.5347 8.74801 32.9123 11.8468 32.9123C13.5054 32.9123 15.1455 32.8049 16.6042 32.6643C19.9362 32.3533 23.1905 32.0423 26.4966 32.0423C27.3111 32.0423 28.133 32.0423 28.9512 32.0978C30.9393 32.2052 33.0236 32.5495 35.0525 32.5495C36.7324 32.61 38.4005 32.2458 39.9024 31.4907C41.5166 30.628 42.4274 29.5914 42.7717 28.5289V28.5437Z" fill="url(#paint4_linear_4_92281)"/>
<path d="M28.5702 22.3131C31.2502 22.2991 33.9292 22.4227 36.5966 22.6833C40.8727 23.1165 43.6605 25.8968 42.7868 28.5588C42.4425 29.6102 41.5317 30.6468 39.9175 31.5206C38.4156 32.2757 36.7476 32.6399 35.0676 32.5794C33.0388 32.5794 30.9544 32.2351 28.9663 32.1277C28.1481 32.087 27.3262 32.0722 26.5117 32.0722C23.2056 32.0722 19.9439 32.3832 16.6193 32.6942C15.1606 32.8349 13.5205 32.9422 11.8619 32.9422C8.76315 32.9422 5.56811 32.572 3.14314 31.2651C-0.61834 29.2437 2.28792 24.2308 5.59403 23.3645C8.55582 22.6019 11.7545 22.5019 14.9274 22.5019C16.038 22.5019 17.1487 22.5019 18.2298 22.5019C18.9702 22.5019 19.6774 22.5019 20.3956 22.4834C23.1242 22.3945 25.8416 22.3131 28.5702 22.3131Z" fill="url(#paint5_linear_4_92281)"/>
<defs>
<linearGradient id="paint0_linear_4_92281" x1="24.2792" y1="5.28415" x2="22.7317" y2="13.7882" gradientUnits="userSpaceOnUse">
<stop stop-color="#022B3B"/>
<stop offset="0.38" stop-color="#011D28"/>
<stop offset="1"/>
</linearGradient>
<linearGradient id="paint1_linear_4_92281" x1="49.3211" y1="10.1565" x2="-15.2905" y2="1.03785" gradientUnits="userSpaceOnUse">
<stop offset="0.22" stop-color="#19618E"/>
<stop offset="0.39" stop-color="#3886AC"/>
<stop offset="0.75" stop-color="#85E3F9"/>
<stop offset="0.78" stop-color="#8BEAFF"/>
</linearGradient>
<linearGradient id="paint2_linear_4_92281" x1="-21.3989" y1="3.51061" x2="48.3107" y2="7.99404" gradientUnits="userSpaceOnUse">
<stop offset="0.31" stop-color="#0075AD"/>
<stop offset="0.49" stop-color="#1386BE"/>
<stop offset="0.85" stop-color="#45B2EB"/>
<stop offset="1" stop-color="#5CC6FF"/>
</linearGradient>
<linearGradient id="paint3_linear_4_92281" x1="24.2161" y1="29.5544" x2="22.2058" y2="39.4468" gradientUnits="userSpaceOnUse">
<stop stop-color="#022B3B"/>
<stop offset="0.38" stop-color="#011D28"/>
<stop offset="1"/>
</linearGradient>
<linearGradient id="paint4_linear_4_92281" x1="47.4661" y1="31.2204" x2="-17.1455" y2="22.1017" gradientUnits="userSpaceOnUse">
<stop offset="0.22" stop-color="#19618E"/>
<stop offset="0.39" stop-color="#3886AC"/>
<stop offset="0.75" stop-color="#85E3F9"/>
<stop offset="0.78" stop-color="#8BEAFF"/>
</linearGradient>
<linearGradient id="paint5_linear_4_92281" x1="-22.258" y1="24.8158" x2="47.4516" y2="29.2992" gradientUnits="userSpaceOnUse">
<stop offset="0.31" stop-color="#0075AD"/>
<stop offset="0.49" stop-color="#1386BE"/>
<stop offset="0.85" stop-color="#45B2EB"/>
<stop offset="1" stop-color="#5CC6FF"/>
</linearGradient>
</defs>
</svg>
