<svg width="476" height="172" viewBox="0 0 476 172" fill="none" xmlns="http://www.w3.org/2000/svg">
<path d="M461.412 2H14.5876C7.63565 2 2 13.8213 2 28.4036V95.5964C2 110.179 7.63565 122 14.5876 122H461.412C468.364 122 474 110.179 474 95.5964V28.4036C474 13.8213 468.364 2 461.412 2Z" stroke="#BE2200" stroke-width="4" stroke-miterlimit="10"/>
<path d="M24.7235 44C24.5768 44 24.4522 43.9487 24.3495 43.846C24.2468 43.7433 24.1955 43.6187 24.1955 43.472V29.15C24.1955 28.9887 24.2468 28.8567 24.3495 28.754C24.4522 28.6513 24.5768 28.6 24.7235 28.6H30.0915C31.5728 28.6 32.7902 28.8273 33.7435 29.282C34.7115 29.7367 35.4375 30.4113 35.9215 31.306C36.4202 32.2007 36.6768 33.2933 36.6915 34.584C36.7208 35.2293 36.7355 35.8013 36.7355 36.3C36.7355 36.7987 36.7208 37.3633 36.6915 37.994C36.6622 39.358 36.4128 40.4873 35.9435 41.382C35.4742 42.262 34.7628 42.922 33.8095 43.362C32.8708 43.7873 31.6682 44 30.2015 44H24.7235ZM27.2535 41.47H30.0915C30.9128 41.47 31.5802 41.3527 32.0935 41.118C32.6068 40.8833 32.9808 40.5093 33.2155 39.996C33.4648 39.468 33.5968 38.7787 33.6115 37.928C33.6262 37.488 33.6335 37.1067 33.6335 36.784C33.6482 36.4467 33.6482 36.1167 33.6335 35.794C33.6335 35.4567 33.6262 35.0753 33.6115 34.65C33.5822 33.4473 33.2815 32.56 32.7095 31.988C32.1375 31.416 31.2282 31.13 29.9815 31.13H27.2535V41.47ZM45.5822 44.22C44.2769 44.22 43.1549 44.0073 42.2162 43.582C41.2776 43.142 40.5442 42.4747 40.0162 41.58C39.4882 40.6707 39.2022 39.5413 39.1582 38.192C39.1436 37.5613 39.1362 36.938 39.1362 36.322C39.1362 35.706 39.1436 35.0753 39.1582 34.43C39.2022 33.0953 39.4956 31.9807 40.0382 31.086C40.5809 30.1913 41.3216 29.5167 42.2602 29.062C43.2136 28.6073 44.3209 28.38 45.5822 28.38C46.8436 28.38 47.9509 28.6073 48.9042 29.062C49.8576 29.5167 50.6056 30.1913 51.1482 31.086C51.6909 31.9807 51.9842 33.0953 52.0282 34.43C52.0576 35.0753 52.0722 35.706 52.0722 36.322C52.0722 36.938 52.0576 37.5613 52.0282 38.192C51.9842 39.5413 51.6982 40.6707 51.1702 41.58C50.6422 42.4747 49.9016 43.142 48.9482 43.582C48.0096 44.0073 46.8876 44.22 45.5822 44.22ZM45.5822 41.69C46.5356 41.69 47.3129 41.4113 47.9142 40.854C48.5156 40.282 48.8382 39.358 48.8822 38.082C48.9116 37.4367 48.9262 36.8427 48.9262 36.3C48.9262 35.7427 48.9116 35.1487 48.8822 34.518C48.8529 33.6673 48.6916 32.978 48.3982 32.45C48.1196 31.9073 47.7382 31.5187 47.2542 31.284C46.7702 31.0347 46.2129 30.91 45.5822 30.91C44.9662 30.91 44.4162 31.0347 43.9322 31.284C43.4482 31.5187 43.0596 31.9073 42.7662 32.45C42.4876 32.978 42.3336 33.6673 42.3042 34.518C42.2896 35.1487 42.2822 35.7427 42.2822 36.3C42.2822 36.8427 42.2896 37.4367 42.3042 38.082C42.3482 39.358 42.6709 40.282 43.2722 40.854C43.8736 41.4113 44.6436 41.69 45.5822 41.69ZM60.5165 44C60.3698 44 60.2451 43.9487 60.1425 43.846C60.0398 43.7433 59.9885 43.6187 59.9885 43.472V29.15C59.9885 28.9887 60.0398 28.8567 60.1425 28.754C60.2451 28.6513 60.3698 28.6 60.5165 28.6H62.2105C62.4158 28.6 62.5625 28.6513 62.6505 28.754C62.7531 28.842 62.8191 28.908 62.8485 28.952L69.1845 38.808V29.15C69.1845 28.9887 69.2285 28.8567 69.3165 28.754C69.4191 28.6513 69.5511 28.6 69.7125 28.6H71.5605C71.7218 28.6 71.8538 28.6513 71.9565 28.754C72.0591 28.8567 72.1105 28.9887 72.1105 29.15V43.45C72.1105 43.6113 72.0591 43.7433 71.9565 43.846C71.8538 43.9487 71.7291 44 71.5825 44H69.8665C69.6611 44 69.5145 43.9487 69.4265 43.846C69.3385 43.7433 69.2725 43.6773 69.2285 43.648L62.9145 34.012V43.472C62.9145 43.6187 62.8631 43.7433 62.7605 43.846C62.6578 43.9487 62.5258 44 62.3645 44H60.5165ZM81.4611 44.22C80.1558 44.22 79.0338 44.0073 78.0951 43.582C77.1565 43.142 76.4231 42.4747 75.8951 41.58C75.3671 40.6707 75.0811 39.5413 75.0371 38.192C75.0225 37.5613 75.0151 36.938 75.0151 36.322C75.0151 35.706 75.0225 35.0753 75.0371 34.43C75.0811 33.0953 75.3745 31.9807 75.9171 31.086C76.4598 30.1913 77.2005 29.5167 78.1391 29.062C79.0925 28.6073 80.1998 28.38 81.4611 28.38C82.7225 28.38 83.8298 28.6073 84.7831 29.062C85.7365 29.5167 86.4845 30.1913 87.0271 31.086C87.5698 31.9807 87.8631 33.0953 87.9071 34.43C87.9365 35.0753 87.9511 35.706 87.9511 36.322C87.9511 36.938 87.9365 37.5613 87.9071 38.192C87.8631 39.5413 87.5771 40.6707 87.0491 41.58C86.5211 42.4747 85.7805 43.142 84.8271 43.582C83.8885 44.0073 82.7665 44.22 81.4611 44.22ZM81.4611 41.69C82.4145 41.69 83.1918 41.4113 83.7931 40.854C84.3945 40.282 84.7171 39.358 84.7611 38.082C84.7905 37.4367 84.8051 36.8427 84.8051 36.3C84.8051 35.7427 84.7905 35.1487 84.7611 34.518C84.7318 33.6673 84.5705 32.978 84.2771 32.45C83.9985 31.9073 83.6171 31.5187 83.1331 31.284C82.6491 31.0347 82.0918 30.91 81.4611 30.91C80.8451 30.91 80.2951 31.0347 79.8111 31.284C79.3271 31.5187 78.9385 31.9073 78.6451 32.45C78.3665 32.978 78.2125 33.6673 78.1831 34.518C78.1685 35.1487 78.1611 35.7427 78.1611 36.3C78.1611 36.8427 78.1685 37.4367 78.1831 38.082C78.2271 39.358 78.5498 40.282 79.1511 40.854C79.7525 41.4113 80.5225 41.69 81.4611 41.69ZM94.4767 44C94.3301 44 94.2054 43.9487 94.1027 43.846C94.0001 43.7433 93.9487 43.6187 93.9487 43.472V31.306H89.8787C89.7321 31.306 89.6074 31.2547 89.5047 31.152C89.4021 31.0493 89.3507 30.9247 89.3507 30.778V29.15C89.3507 28.9887 89.4021 28.8567 89.5047 28.754C89.6074 28.6513 89.7321 28.6 89.8787 28.6H101.099C101.26 28.6 101.392 28.6513 101.495 28.754C101.597 28.8567 101.649 28.9887 101.649 29.15V30.778C101.649 30.9247 101.597 31.0493 101.495 31.152C101.392 31.2547 101.26 31.306 101.099 31.306H97.0507V43.472C97.0507 43.6187 96.9994 43.7433 96.8967 43.846C96.7941 43.9487 96.6621 44 96.5007 44H94.4767ZM114.311 44.22C112.947 44.22 111.789 43.9853 110.835 43.516C109.897 43.032 109.178 42.35 108.679 41.47C108.181 40.5753 107.902 39.5047 107.843 38.258C107.829 37.6567 107.821 37.0113 107.821 36.322C107.821 35.6327 107.829 34.9727 107.843 34.342C107.902 33.11 108.181 32.0467 108.679 31.152C109.193 30.2573 109.919 29.5753 110.857 29.106C111.811 28.622 112.962 28.38 114.311 28.38C115.309 28.38 116.203 28.512 116.995 28.776C117.787 29.04 118.462 29.4067 119.019 29.876C119.577 30.3307 120.009 30.866 120.317 31.482C120.625 32.098 120.787 32.7653 120.801 33.484C120.816 33.616 120.772 33.726 120.669 33.814C120.581 33.902 120.471 33.946 120.339 33.946H118.249C118.088 33.946 117.956 33.9093 117.853 33.836C117.751 33.748 117.677 33.6087 117.633 33.418C117.399 32.45 116.995 31.79 116.423 31.438C115.851 31.086 115.14 30.91 114.289 30.91C113.307 30.91 112.522 31.1887 111.935 31.746C111.349 32.2887 111.033 33.1907 110.989 34.452C110.945 35.6547 110.945 36.8867 110.989 38.148C111.033 39.4093 111.349 40.3187 111.935 40.876C112.522 41.4187 113.307 41.69 114.289 41.69C115.14 41.69 115.851 41.514 116.423 41.162C116.995 40.7953 117.399 40.1353 117.633 39.182C117.677 38.9767 117.751 38.8373 117.853 38.764C117.956 38.6907 118.088 38.654 118.249 38.654H120.339C120.471 38.654 120.581 38.698 120.669 38.786C120.772 38.874 120.816 38.984 120.801 39.116C120.787 39.8347 120.625 40.502 120.317 41.118C120.009 41.734 119.577 42.2767 119.019 42.746C118.462 43.2007 117.787 43.56 116.995 43.824C116.203 44.088 115.309 44.22 114.311 44.22ZM122.292 44C122.175 44 122.065 43.956 121.962 43.868C121.874 43.78 121.83 43.67 121.83 43.538C121.83 43.4793 121.845 43.4133 121.874 43.34L127.176 29.15C127.22 29.0033 127.301 28.8787 127.418 28.776C127.55 28.6587 127.726 28.6 127.946 28.6H130.344C130.564 28.6 130.733 28.6587 130.85 28.776C130.968 28.8787 131.056 29.0033 131.114 29.15L136.416 43.34C136.431 43.4133 136.438 43.4793 136.438 43.538C136.438 43.67 136.394 43.78 136.306 43.868C136.218 43.956 136.116 44 135.998 44H134.084C133.879 44 133.725 43.956 133.622 43.868C133.534 43.7653 133.476 43.67 133.446 43.582L132.412 40.898H125.878L124.844 43.582C124.815 43.67 124.749 43.7653 124.646 43.868C124.558 43.956 124.412 44 124.206 44H122.292ZM126.648 38.368H131.642L129.134 31.57L126.648 38.368ZM139.02 44C138.874 44 138.749 43.9487 138.646 43.846C138.544 43.7433 138.492 43.6187 138.492 43.472V29.15C138.492 28.9887 138.544 28.8567 138.646 28.754C138.749 28.6513 138.874 28.6 139.02 28.6H140.714C140.92 28.6 141.066 28.6513 141.154 28.754C141.257 28.842 141.323 28.908 141.352 28.952L147.688 38.808V29.15C147.688 28.9887 147.732 28.8567 147.82 28.754C147.923 28.6513 148.055 28.6 148.216 28.6H150.064C150.226 28.6 150.358 28.6513 150.46 28.754C150.563 28.8567 150.614 28.9887 150.614 29.15V43.45C150.614 43.6113 150.563 43.7433 150.46 43.846C150.358 43.9487 150.233 44 150.086 44H148.37C148.165 44 148.018 43.9487 147.93 43.846C147.842 43.7433 147.776 43.6773 147.732 43.648L141.418 34.012V43.472C141.418 43.6187 141.367 43.7433 141.264 43.846C141.162 43.9487 141.03 44 140.868 44H139.02ZM159.987 44.22C158.623 44.22 157.464 43.9853 156.511 43.516C155.572 43.032 154.854 42.35 154.355 41.47C153.856 40.5753 153.578 39.5047 153.519 38.258C153.504 37.6567 153.497 37.0113 153.497 36.322C153.497 35.6327 153.504 34.9727 153.519 34.342C153.578 33.11 153.856 32.0467 154.355 31.152C154.868 30.2573 155.594 29.5753 156.533 29.106C157.486 28.622 158.638 28.38 159.987 28.38C160.984 28.38 161.879 28.512 162.671 28.776C163.463 29.04 164.138 29.4067 164.695 29.876C165.252 30.3307 165.685 30.866 165.993 31.482C166.301 32.098 166.462 32.7653 166.477 33.484C166.492 33.616 166.448 33.726 166.345 33.814C166.257 33.902 166.147 33.946 166.015 33.946H163.925C163.764 33.946 163.632 33.9093 163.529 33.836C163.426 33.748 163.353 33.6087 163.309 33.418C163.074 32.45 162.671 31.79 162.099 31.438C161.527 31.086 160.816 30.91 159.965 30.91C158.982 30.91 158.198 31.1887 157.611 31.746C157.024 32.2887 156.709 33.1907 156.665 34.452C156.621 35.6547 156.621 36.8867 156.665 38.148C156.709 39.4093 157.024 40.3187 157.611 40.876C158.198 41.4187 158.982 41.69 159.965 41.69C160.816 41.69 161.527 41.514 162.099 41.162C162.671 40.7953 163.074 40.1353 163.309 39.182C163.353 38.9767 163.426 38.8373 163.529 38.764C163.632 38.6907 163.764 38.654 163.925 38.654H166.015C166.147 38.654 166.257 38.698 166.345 38.786C166.448 38.874 166.492 38.984 166.477 39.116C166.462 39.8347 166.301 40.502 165.993 41.118C165.685 41.734 165.252 42.2767 164.695 42.746C164.138 43.2007 163.463 43.56 162.671 43.824C161.879 44.088 160.984 44.22 159.987 44.22ZM169.614 44C169.467 44 169.343 43.9487 169.24 43.846C169.137 43.7433 169.086 43.6187 169.086 43.472V29.15C169.086 28.9887 169.137 28.8567 169.24 28.754C169.343 28.6513 169.467 28.6 169.614 28.6H179.294C179.455 28.6 179.587 28.6513 179.69 28.754C179.793 28.8567 179.844 28.9887 179.844 29.15V30.602C179.844 30.7487 179.793 30.8733 179.69 30.976C179.587 31.0787 179.455 31.13 179.294 31.13H172.056V35.024H178.81C178.971 35.024 179.103 35.0753 179.206 35.178C179.309 35.266 179.36 35.3907 179.36 35.552V36.916C179.36 37.0773 179.309 37.2093 179.206 37.312C179.103 37.4 178.971 37.444 178.81 37.444H172.056V41.47H179.47C179.631 41.47 179.763 41.5213 179.866 41.624C179.969 41.7267 180.02 41.8587 180.02 42.02V43.472C180.02 43.6187 179.969 43.7433 179.866 43.846C179.763 43.9487 179.631 44 179.47 44H169.614ZM183.3 44C183.153 44 183.028 43.9487 182.926 43.846C182.823 43.7433 182.772 43.6187 182.772 43.472V29.128C182.772 28.9813 182.823 28.8567 182.926 28.754C183.028 28.6513 183.153 28.6 183.3 28.6H185.346C185.492 28.6 185.617 28.6513 185.72 28.754C185.822 28.8567 185.874 28.9813 185.874 29.128V41.382H192.848C193.009 41.382 193.141 41.4333 193.244 41.536C193.346 41.6387 193.398 41.7707 193.398 41.932V43.472C193.398 43.6187 193.346 43.7433 193.244 43.846C193.141 43.9487 193.009 44 192.848 44H183.3ZM203.381 44C203.234 44 203.11 43.9487 203.007 43.846C202.904 43.7433 202.853 43.6187 202.853 43.472V31.306H198.783C198.636 31.306 198.512 31.2547 198.409 31.152C198.306 31.0493 198.255 30.9247 198.255 30.778V29.15C198.255 28.9887 198.306 28.8567 198.409 28.754C198.512 28.6513 198.636 28.6 198.783 28.6H210.003C210.164 28.6 210.296 28.6513 210.399 28.754C210.502 28.8567 210.553 28.9887 210.553 29.15V30.778C210.553 30.9247 210.502 31.0493 210.399 31.152C210.296 31.2547 210.164 31.306 210.003 31.306H205.955V43.472C205.955 43.6187 205.904 43.7433 205.801 43.846C205.698 43.9487 205.566 44 205.405 44H203.381ZM213.313 44C213.167 44 213.042 43.956 212.939 43.868C212.837 43.7653 212.785 43.6333 212.785 43.472V29.15C212.785 28.9887 212.837 28.8567 212.939 28.754C213.042 28.6513 213.167 28.6 213.313 28.6H215.315C215.477 28.6 215.601 28.6513 215.689 28.754C215.792 28.8567 215.843 28.9887 215.843 29.15V34.826H222.333V29.15C222.333 28.9887 222.385 28.8567 222.487 28.754C222.59 28.6513 222.715 28.6 222.861 28.6H224.841C225.003 28.6 225.135 28.6513 225.237 28.754C225.34 28.8567 225.391 28.9887 225.391 29.15V43.472C225.391 43.6187 225.34 43.7433 225.237 43.846C225.135 43.9487 225.003 44 224.841 44H222.861C222.715 44 222.59 43.9487 222.487 43.846C222.385 43.7433 222.333 43.6187 222.333 43.472V37.576H215.843V43.472C215.843 43.6187 215.792 43.7433 215.689 43.846C215.601 43.9487 215.477 44 215.315 44H213.313ZM229.341 44C229.194 44 229.069 43.9487 228.967 43.846C228.864 43.7433 228.813 43.6187 228.813 43.472V29.15C228.813 28.9887 228.864 28.8567 228.967 28.754C229.069 28.6513 229.194 28.6 229.341 28.6H239.021C239.182 28.6 239.314 28.6513 239.417 28.754C239.519 28.8567 239.571 28.9887 239.571 29.15V30.602C239.571 30.7487 239.519 30.8733 239.417 30.976C239.314 31.0787 239.182 31.13 239.021 31.13H231.783V35.024H238.537C238.698 35.024 238.83 35.0753 238.933 35.178C239.035 35.266 239.087 35.3907 239.087 35.552V36.916C239.087 37.0773 239.035 37.2093 238.933 37.312C238.83 37.4 238.698 37.444 238.537 37.444H231.783V41.47H239.197C239.358 41.47 239.49 41.5213 239.593 41.624C239.695 41.7267 239.747 41.8587 239.747 42.02V43.472C239.747 43.6187 239.695 43.7433 239.593 43.846C239.49 43.9487 239.358 44 239.197 44H229.341ZM248.054 44C247.907 44 247.782 43.9487 247.68 43.846C247.577 43.7433 247.526 43.6187 247.526 43.472V29.15C247.526 28.9887 247.577 28.8567 247.68 28.754C247.782 28.6513 247.907 28.6 248.054 28.6H254.434C255.622 28.6 256.59 28.7833 257.338 29.15C258.086 29.502 258.636 29.9933 258.988 30.624C259.354 31.2547 259.538 31.988 259.538 32.824C259.538 33.3813 259.435 33.8727 259.23 34.298C259.039 34.7087 258.797 35.046 258.504 35.31C258.225 35.574 257.946 35.7793 257.668 35.926C258.24 36.19 258.746 36.63 259.186 37.246C259.626 37.862 259.846 38.5953 259.846 39.446C259.846 40.326 259.648 41.1107 259.252 41.8C258.856 42.4893 258.269 43.032 257.492 43.428C256.714 43.8093 255.754 44 254.61 44H248.054ZM250.584 41.668H254.258C255.05 41.668 255.651 41.4553 256.062 41.03C256.472 40.59 256.678 40.062 256.678 39.446C256.678 38.8007 256.465 38.2653 256.04 37.84C255.629 37.4147 255.035 37.202 254.258 37.202H250.584V41.668ZM250.584 34.914H254.038C254.815 34.914 255.394 34.7307 255.776 34.364C256.172 33.9827 256.37 33.4913 256.37 32.89C256.37 32.274 256.172 31.7973 255.776 31.46C255.394 31.108 254.815 30.932 254.038 30.932H250.584V34.914ZM268.526 44.22C267.22 44.22 266.098 44.0073 265.16 43.582C264.221 43.142 263.488 42.4747 262.96 41.58C262.432 40.6707 262.146 39.5413 262.102 38.192C262.087 37.5613 262.08 36.938 262.08 36.322C262.08 35.706 262.087 35.0753 262.102 34.43C262.146 33.0953 262.439 31.9807 262.982 31.086C263.524 30.1913 264.265 29.5167 265.204 29.062C266.157 28.6073 267.264 28.38 268.526 28.38C269.787 28.38 270.894 28.6073 271.848 29.062C272.801 29.5167 273.549 30.1913 274.092 31.086C274.634 31.9807 274.928 33.0953 274.972 34.43C275.001 35.0753 275.016 35.706 275.016 36.322C275.016 36.938 275.001 37.5613 274.972 38.192C274.928 39.5413 274.642 40.6707 274.114 41.58C273.586 42.4747 272.845 43.142 271.892 43.582C270.953 44.0073 269.831 44.22 268.526 44.22ZM268.526 41.69C269.479 41.69 270.256 41.4113 270.858 40.854C271.459 40.282 271.782 39.358 271.826 38.082C271.855 37.4367 271.87 36.8427 271.87 36.3C271.87 35.7427 271.855 35.1487 271.826 34.518C271.796 33.6673 271.635 32.978 271.342 32.45C271.063 31.9073 270.682 31.5187 270.198 31.284C269.714 31.0347 269.156 30.91 268.526 30.91C267.91 30.91 267.36 31.0347 266.876 31.284C266.392 31.5187 266.003 31.9073 265.71 32.45C265.431 32.978 265.277 33.6673 265.248 34.518C265.233 35.1487 265.226 35.7427 265.226 36.3C265.226 36.8427 265.233 37.4367 265.248 38.082C265.292 39.358 265.614 40.282 266.216 40.854C266.817 41.4113 267.587 41.69 268.526 41.69ZM283.822 44.22C282.517 44.22 281.395 44.0073 280.456 43.582C279.518 43.142 278.784 42.4747 278.256 41.58C277.728 40.6707 277.442 39.5413 277.398 38.192C277.384 37.5613 277.376 36.938 277.376 36.322C277.376 35.706 277.384 35.0753 277.398 34.43C277.442 33.0953 277.736 31.9807 278.278 31.086C278.821 30.1913 279.562 29.5167 280.5 29.062C281.454 28.6073 282.561 28.38 283.822 28.38C285.084 28.38 286.191 28.6073 287.144 29.062C288.098 29.5167 288.846 30.1913 289.388 31.086C289.931 31.9807 290.224 33.0953 290.268 34.43C290.298 35.0753 290.312 35.706 290.312 36.322C290.312 36.938 290.298 37.5613 290.268 38.192C290.224 39.5413 289.938 40.6707 289.41 41.58C288.882 42.4747 288.142 43.142 287.188 43.582C286.25 44.0073 285.128 44.22 283.822 44.22ZM283.822 41.69C284.776 41.69 285.553 41.4113 286.154 40.854C286.756 40.282 287.078 39.358 287.122 38.082C287.152 37.4367 287.166 36.8427 287.166 36.3C287.166 35.7427 287.152 35.1487 287.122 34.518C287.093 33.6673 286.932 32.978 286.638 32.45C286.36 31.9073 285.978 31.5187 285.494 31.284C285.01 31.0347 284.453 30.91 283.822 30.91C283.206 30.91 282.656 31.0347 282.172 31.284C281.688 31.5187 281.3 31.9073 281.006 32.45C280.728 32.978 280.574 33.6673 280.544 34.518C280.53 35.1487 280.522 35.7427 280.522 36.3C280.522 36.8427 280.53 37.4367 280.544 38.082C280.588 39.358 280.911 40.282 281.512 40.854C282.114 41.4113 282.884 41.69 283.822 41.69ZM293.729 44C293.583 44 293.458 43.9487 293.355 43.846C293.253 43.7433 293.201 43.6187 293.201 43.472V29.15C293.201 28.9887 293.253 28.8567 293.355 28.754C293.458 28.6513 293.583 28.6 293.729 28.6H295.665C295.827 28.6 295.959 28.6513 296.061 28.754C296.164 28.8567 296.215 28.9887 296.215 29.15V34.298L301.187 28.996C301.246 28.9227 301.341 28.842 301.473 28.754C301.62 28.6513 301.811 28.6 302.045 28.6H304.223C304.341 28.6 304.443 28.644 304.531 28.732C304.634 28.82 304.685 28.93 304.685 29.062C304.685 29.1647 304.656 29.2527 304.597 29.326L298.547 35.97L305.015 43.252C305.089 43.34 305.125 43.4353 305.125 43.538C305.125 43.67 305.074 43.78 304.971 43.868C304.883 43.956 304.781 44 304.663 44H302.397C302.148 44 301.95 43.9487 301.803 43.846C301.671 43.7287 301.583 43.648 301.539 43.604L296.215 37.774V43.472C296.215 43.6187 296.164 43.7433 296.061 43.846C295.959 43.9487 295.827 44 295.665 44H293.729ZM307.63 44C307.483 44 307.358 43.9487 307.256 43.846C307.153 43.7433 307.102 43.6187 307.102 43.472V29.128C307.102 28.9813 307.153 28.8567 307.256 28.754C307.358 28.6513 307.483 28.6 307.63 28.6H309.698C309.859 28.6 309.984 28.6513 310.072 28.754C310.174 28.8567 310.226 28.9813 310.226 29.128V43.472C310.226 43.6187 310.174 43.7433 310.072 43.846C309.984 43.9487 309.859 44 309.698 44H307.63ZM314.204 44C314.057 44 313.933 43.9487 313.83 43.846C313.727 43.7433 313.676 43.6187 313.676 43.472V29.15C313.676 28.9887 313.727 28.8567 313.83 28.754C313.933 28.6513 314.057 28.6 314.204 28.6H315.898C316.103 28.6 316.25 28.6513 316.338 28.754C316.441 28.842 316.507 28.908 316.536 28.952L322.872 38.808V29.15C322.872 28.9887 322.916 28.8567 323.004 28.754C323.107 28.6513 323.239 28.6 323.4 28.6H325.248C325.409 28.6 325.541 28.6513 325.644 28.754C325.747 28.8567 325.798 28.9887 325.798 29.15V43.45C325.798 43.6113 325.747 43.7433 325.644 43.846C325.541 43.9487 325.417 44 325.27 44H323.554C323.349 44 323.202 43.9487 323.114 43.846C323.026 43.7433 322.96 43.6773 322.916 43.648L316.602 34.012V43.472C316.602 43.6187 316.551 43.7433 316.448 43.846C316.345 43.9487 316.213 44 316.052 44H314.204ZM335.215 44.22C333.865 44.22 332.714 43.9853 331.761 43.516C330.822 43.0467 330.089 42.372 329.561 41.492C329.047 40.5973 328.769 39.534 328.725 38.302C328.71 37.6713 328.703 36.9967 328.703 36.278C328.703 35.5447 328.71 34.8553 328.725 34.21C328.769 32.9927 329.047 31.9513 329.561 31.086C330.089 30.2207 330.829 29.5533 331.783 29.084C332.751 28.6147 333.895 28.38 335.215 28.38C336.285 28.38 337.224 28.5267 338.031 28.82C338.837 29.0987 339.505 29.4653 340.033 29.92C340.575 30.36 340.979 30.8367 341.243 31.35C341.521 31.8633 341.668 32.34 341.683 32.78C341.697 32.912 341.661 33.022 341.573 33.11C341.485 33.198 341.367 33.242 341.221 33.242H338.955C338.808 33.242 338.698 33.2127 338.625 33.154C338.551 33.0953 338.485 33.0073 338.427 32.89C338.309 32.582 338.126 32.2813 337.877 31.988C337.627 31.68 337.29 31.4233 336.865 31.218C336.439 31.0127 335.889 30.91 335.215 30.91C334.217 30.91 333.418 31.174 332.817 31.702C332.23 32.23 331.915 33.1027 331.871 34.32C331.827 35.596 331.827 36.8867 331.871 38.192C331.915 39.4387 332.237 40.3333 332.839 40.876C333.455 41.4187 334.261 41.69 335.259 41.69C335.919 41.69 336.505 41.5727 337.019 41.338C337.547 41.1033 337.957 40.7367 338.251 40.238C338.559 39.7393 338.713 39.1013 338.713 38.324V37.642H336.029C335.882 37.642 335.757 37.5907 335.655 37.488C335.552 37.3853 335.501 37.2533 335.501 37.092V35.926C335.501 35.7647 335.552 35.6327 335.655 35.53C335.757 35.4273 335.882 35.376 336.029 35.376H341.287C341.448 35.376 341.573 35.4273 341.661 35.53C341.763 35.6327 341.815 35.7647 341.815 35.926V38.236C341.815 39.468 341.543 40.5313 341.001 41.426C340.473 42.3207 339.71 43.01 338.713 43.494C337.73 43.978 336.564 44.22 335.215 44.22ZM344.531 44C344.384 44 344.259 43.9487 344.157 43.846C344.054 43.7433 344.003 43.6187 344.003 43.472V41.294C344.003 41.1327 344.054 41.0007 344.157 40.898C344.259 40.7953 344.384 40.744 344.531 40.744H346.731C346.877 40.744 347.002 40.7953 347.105 40.898C347.207 41.0007 347.259 41.1327 347.259 41.294V43.472C347.259 43.6187 347.207 43.7433 347.105 43.846C347.002 43.9487 346.877 44 346.731 44H344.531ZM357.585 44C357.365 44 357.189 43.9413 357.057 43.824C356.94 43.692 356.859 43.5307 356.815 43.34L354.197 29.238C354.197 29.194 354.19 29.1573 354.175 29.128C354.175 29.0987 354.175 29.0767 354.175 29.062C354.175 28.93 354.219 28.82 354.307 28.732C354.41 28.644 354.52 28.6 354.637 28.6H356.573C356.94 28.6 357.145 28.7467 357.189 29.04L359.015 39.006L360.995 32.56C361.039 32.4427 361.112 32.3253 361.215 32.208C361.332 32.076 361.501 32.01 361.721 32.01H362.909C363.144 32.01 363.312 32.076 363.415 32.208C363.518 32.3253 363.584 32.4427 363.613 32.56L365.615 38.984L367.441 29.04C367.485 28.7467 367.69 28.6 368.057 28.6H369.993C370.11 28.6 370.213 28.644 370.301 28.732C370.389 28.82 370.433 28.93 370.433 29.062C370.433 29.0767 370.433 29.0987 370.433 29.128C370.433 29.1573 370.426 29.194 370.411 29.238L367.793 43.34C367.764 43.5307 367.683 43.692 367.551 43.824C367.419 43.9413 367.243 44 367.023 44H365.549C365.329 44 365.153 43.9413 365.021 43.824C364.904 43.7067 364.823 43.582 364.779 43.45L362.315 36.102L359.851 43.45C359.792 43.582 359.704 43.7067 359.587 43.824C359.47 43.9413 359.294 44 359.059 44H357.585ZM371.447 44C371.329 44 371.219 43.956 371.117 43.868C371.029 43.78 370.985 43.67 370.985 43.538C370.985 43.4793 370.999 43.4133 371.029 43.34L376.331 29.15C376.375 29.0033 376.455 28.8787 376.573 28.776C376.705 28.6587 376.881 28.6 377.101 28.6H379.499C379.719 28.6 379.887 28.6587 380.005 28.776C380.122 28.8787 380.21 29.0033 380.269 29.15L385.571 43.34C385.585 43.4133 385.593 43.4793 385.593 43.538C385.593 43.67 385.549 43.78 385.461 43.868C385.373 43.956 385.27 44 385.153 44H383.239C383.033 44 382.879 43.956 382.777 43.868C382.689 43.7653 382.63 43.67 382.601 43.582L381.567 40.898H375.033L373.999 43.582C373.969 43.67 373.903 43.7653 373.801 43.868C373.713 43.956 373.566 44 373.361 44H371.447ZM375.803 38.368H380.797L378.289 31.57L375.803 38.368ZM388.175 44C388.028 44 387.903 43.9487 387.801 43.846C387.698 43.7433 387.647 43.6187 387.647 43.472V29.128C387.647 28.9813 387.698 28.8567 387.801 28.754C387.903 28.6513 388.028 28.6 388.175 28.6H390.243C390.404 28.6 390.529 28.6513 390.617 28.754C390.719 28.8567 390.771 28.9813 390.771 29.128V43.472C390.771 43.6187 390.719 43.7433 390.617 43.846C390.529 43.9487 390.404 44 390.243 44H388.175ZM398.137 44C397.99 44 397.866 43.9487 397.763 43.846C397.66 43.7433 397.609 43.6187 397.609 43.472V31.306H393.539C393.392 31.306 393.268 31.2547 393.165 31.152C393.062 31.0493 393.011 30.9247 393.011 30.778V29.15C393.011 28.9887 393.062 28.8567 393.165 28.754C393.268 28.6513 393.392 28.6 393.539 28.6H404.759C404.92 28.6 405.052 28.6513 405.155 28.754C405.258 28.8567 405.309 28.9887 405.309 29.15V30.778C405.309 30.9247 405.258 31.0493 405.155 31.152C405.052 31.2547 404.92 31.306 404.759 31.306H400.711V43.472C400.711 43.6187 400.66 43.7433 400.557 43.846C400.454 43.9487 400.322 44 400.161 44H398.137ZM412.559 44C412.413 44 412.288 43.9487 412.185 43.846C412.083 43.7433 412.031 43.6187 412.031 43.472V29.15C412.031 28.9887 412.083 28.8567 412.185 28.754C412.288 28.6513 412.413 28.6 412.559 28.6H422.107C422.269 28.6 422.401 28.6513 422.503 28.754C422.606 28.8567 422.657 28.9887 422.657 29.15V30.69C422.657 30.8513 422.606 30.9833 422.503 31.086C422.401 31.174 422.269 31.218 422.107 31.218H415.045V35.398H421.667C421.829 35.398 421.961 35.4493 422.063 35.552C422.166 35.6547 422.217 35.7867 422.217 35.948V37.488C422.217 37.6347 422.166 37.7593 422.063 37.862C421.961 37.9647 421.829 38.016 421.667 38.016H415.045V43.472C415.045 43.6187 414.994 43.7433 414.891 43.846C414.789 43.9487 414.657 44 414.495 44H412.559ZM431.055 44.22C429.75 44.22 428.628 44.0073 427.689 43.582C426.75 43.142 426.017 42.4747 425.489 41.58C424.961 40.6707 424.675 39.5413 424.631 38.192C424.616 37.5613 424.609 36.938 424.609 36.322C424.609 35.706 424.616 35.0753 424.631 34.43C424.675 33.0953 424.968 31.9807 425.511 31.086C426.054 30.1913 426.794 29.5167 427.733 29.062C428.686 28.6073 429.794 28.38 431.055 28.38C432.316 28.38 433.424 28.6073 434.377 29.062C435.33 29.5167 436.078 30.1913 436.621 31.086C437.164 31.9807 437.457 33.0953 437.501 34.43C437.53 35.0753 437.545 35.706 437.545 36.322C437.545 36.938 437.53 37.5613 437.501 38.192C437.457 39.5413 437.171 40.6707 436.643 41.58C436.115 42.4747 435.374 43.142 434.421 43.582C433.482 44.0073 432.36 44.22 431.055 44.22ZM431.055 41.69C432.008 41.69 432.786 41.4113 433.387 40.854C433.988 40.282 434.311 39.358 434.355 38.082C434.384 37.4367 434.399 36.8427 434.399 36.3C434.399 35.7427 434.384 35.1487 434.355 34.518C434.326 33.6673 434.164 32.978 433.871 32.45C433.592 31.9073 433.211 31.5187 432.727 31.284C432.243 31.0347 431.686 30.91 431.055 30.91C430.439 30.91 429.889 31.0347 429.405 31.284C428.921 31.5187 428.532 31.9073 428.239 32.45C427.96 32.978 427.806 33.6673 427.777 34.518C427.762 35.1487 427.755 35.7427 427.755 36.3C427.755 36.8427 427.762 37.4367 427.777 38.082C427.821 39.358 428.144 40.282 428.745 40.854C429.346 41.4113 430.116 41.69 431.055 41.69ZM440.962 44C440.815 44 440.69 43.9487 440.588 43.846C440.485 43.7433 440.434 43.6187 440.434 43.472V29.15C440.434 28.9887 440.485 28.8567 440.588 28.754C440.69 28.6513 440.815 28.6 440.962 28.6H446.66C448.434 28.6 449.835 29.0107 450.862 29.832C451.888 30.6533 452.402 31.8487 452.402 33.418C452.402 34.5033 452.13 35.4053 451.588 36.124C451.06 36.8427 450.348 37.3633 449.454 37.686L452.666 43.296C452.71 43.384 452.732 43.4647 452.732 43.538C452.732 43.67 452.68 43.78 452.578 43.868C452.49 43.956 452.387 44 452.27 44H450.268C450.018 44 449.828 43.934 449.696 43.802C449.564 43.67 449.461 43.538 449.388 43.406L446.55 38.192H443.492V43.472C443.492 43.6187 443.44 43.7433 443.338 43.846C443.25 43.9487 443.125 44 442.964 44H440.962ZM443.492 35.706H446.594C447.488 35.706 448.156 35.508 448.596 35.112C449.036 34.7013 449.256 34.1293 449.256 33.396C449.256 32.6627 449.036 32.0907 448.596 31.68C448.17 31.2547 447.503 31.042 446.594 31.042H443.492V35.706ZM54.8273 70C54.6806 70 54.556 69.9487 54.4533 69.846C54.3506 69.7433 54.2993 69.6187 54.2993 69.472V57.306H50.2293C50.0826 57.306 49.958 57.2547 49.8553 57.152C49.7526 57.0493 49.7013 56.9247 49.7013 56.778V55.15C49.7013 54.9887 49.7526 54.8567 49.8553 54.754C49.958 54.6513 50.0826 54.6 50.2293 54.6H61.4493C61.6106 54.6 61.7426 54.6513 61.8453 54.754C61.948 54.8567 61.9993 54.9887 61.9993 55.15V56.778C61.9993 56.9247 61.948 57.0493 61.8453 57.152C61.7426 57.2547 61.6106 57.306 61.4493 57.306H57.4013V69.472C57.4013 69.6187 57.35 69.7433 57.2473 69.846C57.1446 69.9487 57.0126 70 56.8513 70H54.8273ZM64.7596 70C64.613 70 64.4883 69.956 64.3856 69.868C64.283 69.7653 64.2316 69.6333 64.2316 69.472V55.15C64.2316 54.9887 64.283 54.8567 64.3856 54.754C64.4883 54.6513 64.613 54.6 64.7596 54.6H66.7616C66.923 54.6 67.0476 54.6513 67.1356 54.754C67.2383 54.8567 67.2896 54.9887 67.2896 55.15V60.826H73.7796V55.15C73.7796 54.9887 73.831 54.8567 73.9336 54.754C74.0363 54.6513 74.161 54.6 74.3076 54.6H76.2876C76.449 54.6 76.581 54.6513 76.6836 54.754C76.7863 54.8567 76.8376 54.9887 76.8376 55.15V69.472C76.8376 69.6187 76.7863 69.7433 76.6836 69.846C76.581 69.9487 76.449 70 76.2876 70H74.3076C74.161 70 74.0363 69.9487 73.9336 69.846C73.831 69.7433 73.7796 69.6187 73.7796 69.472V63.576H67.2896V69.472C67.2896 69.6187 67.2383 69.7433 67.1356 69.846C67.0476 69.9487 66.923 70 66.7616 70H64.7596ZM80.787 70C80.6403 70 80.5156 69.9487 80.413 69.846C80.3103 69.7433 80.259 69.6187 80.259 69.472V55.15C80.259 54.9887 80.3103 54.8567 80.413 54.754C80.5156 54.6513 80.6403 54.6 80.787 54.6H90.467C90.6283 54.6 90.7603 54.6513 90.863 54.754C90.9656 54.8567 91.017 54.9887 91.017 55.15V56.602C91.017 56.7487 90.9656 56.8733 90.863 56.976C90.7603 57.0787 90.6283 57.13 90.467 57.13H83.229V61.024H89.983C90.1443 61.024 90.2763 61.0753 90.379 61.178C90.4816 61.266 90.533 61.3907 90.533 61.552V62.916C90.533 63.0773 90.4816 63.2093 90.379 63.312C90.2763 63.4 90.1443 63.444 89.983 63.444H83.229V67.47H90.643C90.8043 67.47 90.9363 67.5213 91.039 67.624C91.1416 67.7267 91.193 67.8587 91.193 68.02V69.472C91.193 69.6187 91.1416 69.7433 91.039 69.846C90.9363 69.9487 90.8043 70 90.643 70H80.787ZM99.4999 70C99.3532 70 99.2285 69.9487 99.1259 69.846C99.0232 69.7433 98.9719 69.6187 98.9719 69.472V55.15C98.9719 54.9887 99.0232 54.8567 99.1259 54.754C99.2285 54.6513 99.3532 54.6 99.4999 54.6H104.868C106.349 54.6 107.567 54.8273 108.52 55.282C109.488 55.7367 110.214 56.4113 110.698 57.306C111.197 58.2007 111.453 59.2933 111.468 60.584C111.497 61.2293 111.512 61.8013 111.512 62.3C111.512 62.7987 111.497 63.3633 111.468 63.994C111.439 65.358 111.189 66.4873 110.72 67.382C110.251 68.262 109.539 68.922 108.586 69.362C107.647 69.7873 106.445 70 104.978 70H99.4999ZM102.03 67.47H104.868C105.689 67.47 106.357 67.3527 106.87 67.118C107.383 66.8833 107.757 66.5093 107.992 65.996C108.241 65.468 108.373 64.7787 108.388 63.928C108.403 63.488 108.41 63.1067 108.41 62.784C108.425 62.4467 108.425 62.1167 108.41 61.794C108.41 61.4567 108.403 61.0753 108.388 60.65C108.359 59.4473 108.058 58.56 107.486 57.988C106.914 57.416 106.005 57.13 104.758 57.13H102.03V67.47ZM114.969 70C114.822 70 114.697 69.9487 114.595 69.846C114.492 69.7433 114.441 69.6187 114.441 69.472V55.128C114.441 54.9813 114.492 54.8567 114.595 54.754C114.697 54.6513 114.822 54.6 114.969 54.6H117.037C117.198 54.6 117.323 54.6513 117.411 54.754C117.513 54.8567 117.565 54.9813 117.565 55.128V69.472C117.565 69.6187 117.513 69.7433 117.411 69.846C117.323 69.9487 117.198 70 117.037 70H114.969ZM121.543 70C121.396 70 121.271 69.9487 121.169 69.846C121.066 69.7433 121.015 69.6187 121.015 69.472V55.15C121.015 54.9887 121.066 54.8567 121.169 54.754C121.271 54.6513 121.396 54.6 121.543 54.6H127.241C129.015 54.6 130.416 55.0107 131.443 55.832C132.469 56.6533 132.983 57.8487 132.983 59.418C132.983 60.5033 132.711 61.4053 132.169 62.124C131.641 62.8427 130.929 63.3633 130.035 63.686L133.247 69.296C133.291 69.384 133.313 69.4647 133.313 69.538C133.313 69.67 133.261 69.78 133.159 69.868C133.071 69.956 132.968 70 132.851 70H130.849C130.599 70 130.409 69.934 130.277 69.802C130.145 69.67 130.042 69.538 129.969 69.406L127.131 64.192H124.073V69.472C124.073 69.6187 124.021 69.7433 123.919 69.846C123.831 69.9487 123.706 70 123.545 70H121.543ZM124.073 61.706H127.175C128.069 61.706 128.737 61.508 129.177 61.112C129.617 60.7013 129.837 60.1293 129.837 59.396C129.837 58.6627 129.617 58.0907 129.177 57.68C128.751 57.2547 128.084 57.042 127.175 57.042H124.073V61.706ZM136.346 70C136.199 70 136.074 69.9487 135.972 69.846C135.869 69.7433 135.818 69.6187 135.818 69.472V55.15C135.818 54.9887 135.869 54.8567 135.972 54.754C136.074 54.6513 136.199 54.6 136.346 54.6H146.026C146.187 54.6 146.319 54.6513 146.422 54.754C146.524 54.8567 146.576 54.9887 146.576 55.15V56.602C146.576 56.7487 146.524 56.8733 146.422 56.976C146.319 57.0787 146.187 57.13 146.026 57.13H138.788V61.024H145.542C145.703 61.024 145.835 61.0753 145.938 61.178C146.04 61.266 146.092 61.3907 146.092 61.552V62.916C146.092 63.0773 146.04 63.2093 145.938 63.312C145.835 63.4 145.703 63.444 145.542 63.444H138.788V67.47H146.202C146.363 67.47 146.495 67.5213 146.598 67.624C146.7 67.7267 146.752 67.8587 146.752 68.02V69.472C146.752 69.6187 146.7 69.7433 146.598 69.846C146.495 69.9487 146.363 70 146.202 70H136.346ZM155.314 70.22C153.95 70.22 152.792 69.9853 151.838 69.516C150.9 69.032 150.181 68.35 149.682 67.47C149.184 66.5753 148.905 65.5047 148.846 64.258C148.832 63.6567 148.824 63.0113 148.824 62.322C148.824 61.6327 148.832 60.9727 148.846 60.342C148.905 59.11 149.184 58.0467 149.682 57.152C150.196 56.2573 150.922 55.5753 151.86 55.106C152.814 54.622 153.965 54.38 155.314 54.38C156.312 54.38 157.206 54.512 157.998 54.776C158.79 55.04 159.465 55.4067 160.022 55.876C160.58 56.3307 161.012 56.866 161.32 57.482C161.628 58.098 161.79 58.7653 161.804 59.484C161.819 59.616 161.775 59.726 161.672 59.814C161.584 59.902 161.474 59.946 161.342 59.946H159.252C159.091 59.946 158.959 59.9093 158.856 59.836C158.754 59.748 158.68 59.6087 158.636 59.418C158.402 58.45 157.998 57.79 157.426 57.438C156.854 57.086 156.143 56.91 155.292 56.91C154.31 56.91 153.525 57.1887 152.938 57.746C152.352 58.2887 152.036 59.1907 151.992 60.452C151.948 61.6547 151.948 62.8867 151.992 64.148C152.036 65.4093 152.352 66.3187 152.938 66.876C153.525 67.4187 154.31 67.69 155.292 67.69C156.143 67.69 156.854 67.514 157.426 67.162C157.998 66.7953 158.402 66.1353 158.636 65.182C158.68 64.9767 158.754 64.8373 158.856 64.764C158.959 64.6907 159.091 64.654 159.252 64.654H161.342C161.474 64.654 161.584 64.698 161.672 64.786C161.775 64.874 161.819 64.984 161.804 65.116C161.79 65.8347 161.628 66.502 161.32 67.118C161.012 67.734 160.58 68.2767 160.022 68.746C159.465 69.2007 158.79 69.56 157.998 69.824C157.206 70.088 156.312 70.22 155.314 70.22ZM168.329 70C168.183 70 168.058 69.9487 167.955 69.846C167.853 69.7433 167.801 69.6187 167.801 69.472V57.306H163.731C163.585 57.306 163.46 57.2547 163.357 57.152C163.255 57.0493 163.203 56.9247 163.203 56.778V55.15C163.203 54.9887 163.255 54.8567 163.357 54.754C163.46 54.6513 163.585 54.6 163.731 54.6H174.951C175.113 54.6 175.245 54.6513 175.347 54.754C175.45 54.8567 175.501 54.9887 175.501 55.15V56.778C175.501 56.9247 175.45 57.0493 175.347 57.152C175.245 57.2547 175.113 57.306 174.951 57.306H170.903V69.472C170.903 69.6187 170.852 69.7433 170.749 69.846C170.647 69.9487 170.515 70 170.353 70H168.329ZM178.262 70C178.115 70 177.99 69.9487 177.888 69.846C177.785 69.7433 177.734 69.6187 177.734 69.472V55.128C177.734 54.9813 177.785 54.8567 177.888 54.754C177.99 54.6513 178.115 54.6 178.262 54.6H180.33C180.491 54.6 180.616 54.6513 180.704 54.754C180.806 54.8567 180.858 54.9813 180.858 55.128V69.472C180.858 69.6187 180.806 69.7433 180.704 69.846C180.616 69.9487 180.491 70 180.33 70H178.262ZM190.226 70.22C188.92 70.22 187.798 70.0073 186.86 69.582C185.921 69.142 185.188 68.4747 184.66 67.58C184.132 66.6707 183.846 65.5413 183.802 64.192C183.787 63.5613 183.78 62.938 183.78 62.322C183.78 61.706 183.787 61.0753 183.802 60.43C183.846 59.0953 184.139 57.9807 184.682 57.086C185.224 56.1913 185.965 55.5167 186.904 55.062C187.857 54.6073 188.964 54.38 190.226 54.38C191.487 54.38 192.594 54.6073 193.548 55.062C194.501 55.5167 195.249 56.1913 195.792 57.086C196.334 57.9807 196.628 59.0953 196.672 60.43C196.701 61.0753 196.716 61.706 196.716 62.322C196.716 62.938 196.701 63.5613 196.672 64.192C196.628 65.5413 196.342 66.6707 195.814 67.58C195.286 68.4747 194.545 69.142 193.592 69.582C192.653 70.0073 191.531 70.22 190.226 70.22ZM190.226 67.69C191.179 67.69 191.956 67.4113 192.558 66.854C193.159 66.282 193.482 65.358 193.526 64.082C193.555 63.4367 193.57 62.8427 193.57 62.3C193.57 61.7427 193.555 61.1487 193.526 60.518C193.496 59.6673 193.335 58.978 193.042 58.45C192.763 57.9073 192.382 57.5187 191.898 57.284C191.414 57.0347 190.856 56.91 190.226 56.91C189.61 56.91 189.06 57.0347 188.576 57.284C188.092 57.5187 187.703 57.9073 187.41 58.45C187.131 58.978 186.977 59.6673 186.948 60.518C186.933 61.1487 186.926 61.7427 186.926 62.3C186.926 62.8427 186.933 63.4367 186.948 64.082C186.992 65.358 187.314 66.282 187.916 66.854C188.517 67.4113 189.287 67.69 190.226 67.69ZM200.133 70C199.986 70 199.861 69.9487 199.759 69.846C199.656 69.7433 199.605 69.6187 199.605 69.472V55.15C199.605 54.9887 199.656 54.8567 199.759 54.754C199.861 54.6513 199.986 54.6 200.133 54.6H201.827C202.032 54.6 202.179 54.6513 202.267 54.754C202.369 54.842 202.435 54.908 202.465 54.952L208.801 64.808V55.15C208.801 54.9887 208.845 54.8567 208.933 54.754C209.035 54.6513 209.167 54.6 209.329 54.6H211.177C211.338 54.6 211.47 54.6513 211.573 54.754C211.675 54.8567 211.727 54.9887 211.727 55.15V69.45C211.727 69.6113 211.675 69.7433 211.573 69.846C211.47 69.9487 211.345 70 211.199 70H209.483C209.277 70 209.131 69.9487 209.043 69.846C208.955 69.7433 208.889 69.6773 208.845 69.648L202.531 60.012V69.472C202.531 69.6187 202.479 69.7433 202.377 69.846C202.274 69.9487 202.142 70 201.981 70H200.133ZM223.566 70C223.419 70 223.294 69.9487 223.192 69.846C223.089 69.7433 223.038 69.6187 223.038 69.472V57.306H218.968C218.821 57.306 218.696 57.2547 218.594 57.152C218.491 57.0493 218.44 56.9247 218.44 56.778V55.15C218.44 54.9887 218.491 54.8567 218.594 54.754C218.696 54.6513 218.821 54.6 218.968 54.6H230.188C230.349 54.6 230.481 54.6513 230.584 54.754C230.686 54.8567 230.738 54.9887 230.738 55.15V56.778C230.738 56.9247 230.686 57.0493 230.584 57.152C230.481 57.2547 230.349 57.306 230.188 57.306H226.14V69.472C226.14 69.6187 226.088 69.7433 225.986 69.846C225.883 69.9487 225.751 70 225.59 70H223.566ZM238.609 70.22C237.303 70.22 236.181 70.0073 235.243 69.582C234.304 69.142 233.571 68.4747 233.043 67.58C232.515 66.6707 232.229 65.5413 232.185 64.192C232.17 63.5613 232.163 62.938 232.163 62.322C232.163 61.706 232.17 61.0753 232.185 60.43C232.229 59.0953 232.522 57.9807 233.065 57.086C233.607 56.1913 234.348 55.5167 235.287 55.062C236.24 54.6073 237.347 54.38 238.609 54.38C239.87 54.38 240.977 54.6073 241.931 55.062C242.884 55.5167 243.632 56.1913 244.175 57.086C244.717 57.9807 245.011 59.0953 245.055 60.43C245.084 61.0753 245.099 61.706 245.099 62.322C245.099 62.938 245.084 63.5613 245.055 64.192C245.011 65.5413 244.725 66.6707 244.197 67.58C243.669 68.4747 242.928 69.142 241.975 69.582C241.036 70.0073 239.914 70.22 238.609 70.22ZM238.609 67.69C239.562 67.69 240.339 67.4113 240.941 66.854C241.542 66.282 241.865 65.358 241.909 64.082C241.938 63.4367 241.953 62.8427 241.953 62.3C241.953 61.7427 241.938 61.1487 241.909 60.518C241.879 59.6673 241.718 58.978 241.425 58.45C241.146 57.9073 240.765 57.5187 240.281 57.284C239.797 57.0347 239.239 56.91 238.609 56.91C237.993 56.91 237.443 57.0347 236.959 57.284C236.475 57.5187 236.086 57.9073 235.793 58.45C235.514 58.978 235.36 59.6673 235.331 60.518C235.316 61.1487 235.309 61.7427 235.309 62.3C235.309 62.8427 235.316 63.4367 235.331 64.082C235.375 65.358 235.697 66.282 236.299 66.854C236.9 67.4113 237.67 67.69 238.609 67.69ZM258.955 70.22C257.591 70.22 256.432 69.9853 255.479 69.516C254.54 69.032 253.821 68.35 253.323 67.47C252.824 66.5753 252.545 65.5047 252.487 64.258C252.472 63.6567 252.465 63.0113 252.465 62.322C252.465 61.6327 252.472 60.9727 252.487 60.342C252.545 59.11 252.824 58.0467 253.323 57.152C253.836 56.2573 254.562 55.5753 255.501 55.106C256.454 54.622 257.605 54.38 258.955 54.38C259.952 54.38 260.847 54.512 261.639 54.776C262.431 55.04 263.105 55.4067 263.663 55.876C264.22 56.3307 264.653 56.866 264.961 57.482C265.269 58.098 265.43 58.7653 265.445 59.484C265.459 59.616 265.415 59.726 265.313 59.814C265.225 59.902 265.115 59.946 264.983 59.946H262.893C262.731 59.946 262.599 59.9093 262.497 59.836C262.394 59.748 262.321 59.6087 262.277 59.418C262.042 58.45 261.639 57.79 261.067 57.438C260.495 57.086 259.783 56.91 258.933 56.91C257.95 56.91 257.165 57.1887 256.579 57.746C255.992 58.2887 255.677 59.1907 255.633 60.452C255.589 61.6547 255.589 62.8867 255.633 64.148C255.677 65.4093 255.992 66.3187 256.579 66.876C257.165 67.4187 257.95 67.69 258.933 67.69C259.783 67.69 260.495 67.514 261.067 67.162C261.639 66.7953 262.042 66.1353 262.277 65.182C262.321 64.9767 262.394 64.8373 262.497 64.764C262.599 64.6907 262.731 64.654 262.893 64.654H264.983C265.115 64.654 265.225 64.698 265.313 64.786C265.415 64.874 265.459 64.984 265.445 65.116C265.43 65.8347 265.269 66.502 264.961 67.118C264.653 67.734 264.22 68.2767 263.663 68.746C263.105 69.2007 262.431 69.56 261.639 69.824C260.847 70.088 259.952 70.22 258.955 70.22ZM273.972 70.22C272.667 70.22 271.545 70.0073 270.606 69.582C269.667 69.142 268.934 68.4747 268.406 67.58C267.878 66.6707 267.592 65.5413 267.548 64.192C267.533 63.5613 267.526 62.938 267.526 62.322C267.526 61.706 267.533 61.0753 267.548 60.43C267.592 59.0953 267.885 57.9807 268.428 57.086C268.971 56.1913 269.711 55.5167 270.65 55.062C271.603 54.6073 272.711 54.38 273.972 54.38C275.233 54.38 276.341 54.6073 277.294 55.062C278.247 55.5167 278.995 56.1913 279.538 57.086C280.081 57.9807 280.374 59.0953 280.418 60.43C280.447 61.0753 280.462 61.706 280.462 62.322C280.462 62.938 280.447 63.5613 280.418 64.192C280.374 65.5413 280.088 66.6707 279.56 67.58C279.032 68.4747 278.291 69.142 277.338 69.582C276.399 70.0073 275.277 70.22 273.972 70.22ZM273.972 67.69C274.925 67.69 275.703 67.4113 276.304 66.854C276.905 66.282 277.228 65.358 277.272 64.082C277.301 63.4367 277.316 62.8427 277.316 62.3C277.316 61.7427 277.301 61.1487 277.272 60.518C277.243 59.6673 277.081 58.978 276.788 58.45C276.509 57.9073 276.128 57.5187 275.644 57.284C275.16 57.0347 274.603 56.91 273.972 56.91C273.356 56.91 272.806 57.0347 272.322 57.284C271.838 57.5187 271.449 57.9073 271.156 58.45C270.877 58.978 270.723 59.6673 270.694 60.518C270.679 61.1487 270.672 61.7427 270.672 62.3C270.672 62.8427 270.679 63.4367 270.694 64.082C270.738 65.358 271.061 66.282 271.662 66.854C272.263 67.4113 273.033 67.69 273.972 67.69ZM283.901 70C283.739 70 283.607 69.9487 283.505 69.846C283.402 69.7433 283.351 69.6187 283.351 69.472V55.15C283.351 54.9887 283.402 54.8567 283.505 54.754C283.607 54.6513 283.739 54.6 283.901 54.6H285.639C285.844 54.6 285.998 54.6587 286.101 54.776C286.203 54.8787 286.269 54.9593 286.299 55.018L290.545 62.938L294.835 55.018C294.864 54.9593 294.93 54.8787 295.033 54.776C295.135 54.6587 295.289 54.6 295.495 54.6H297.211C297.372 54.6 297.504 54.6513 297.607 54.754C297.709 54.8567 297.761 54.9887 297.761 55.15V69.472C297.761 69.6187 297.709 69.7433 297.607 69.846C297.504 69.9487 297.372 70 297.211 70H295.363C295.201 70 295.069 69.9487 294.967 69.846C294.879 69.7433 294.835 69.6187 294.835 69.472V59.946L291.755 65.82C291.681 65.952 291.586 66.0693 291.469 66.172C291.351 66.26 291.197 66.304 291.007 66.304H290.105C289.899 66.304 289.738 66.26 289.621 66.172C289.518 66.0693 289.43 65.952 289.357 65.82L286.277 59.946V69.472C286.277 69.6187 286.225 69.7433 286.123 69.846C286.02 69.9487 285.895 70 285.749 70H283.901ZM301.711 70C301.564 70 301.439 69.9487 301.337 69.846C301.234 69.7433 301.183 69.6187 301.183 69.472V55.15C301.183 54.9887 301.234 54.8567 301.337 54.754C301.439 54.6513 301.564 54.6 301.711 54.6H311.391C311.552 54.6 311.684 54.6513 311.787 54.754C311.889 54.8567 311.941 54.9887 311.941 55.15V56.602C311.941 56.7487 311.889 56.8733 311.787 56.976C311.684 57.0787 311.552 57.13 311.391 57.13H304.153V61.024H310.907C311.068 61.024 311.2 61.0753 311.303 61.178C311.405 61.266 311.457 61.3907 311.457 61.552V62.916C311.457 63.0773 311.405 63.2093 311.303 63.312C311.2 63.4 311.068 63.444 310.907 63.444H304.153V67.47H311.567C311.728 67.47 311.86 67.5213 311.963 67.624C312.065 67.7267 312.117 67.8587 312.117 68.02V69.472C312.117 69.6187 312.065 69.7433 311.963 69.846C311.86 69.9487 311.728 70 311.567 70H301.711ZM320.424 70C320.277 70 320.152 69.9487 320.05 69.846C319.947 69.7433 319.896 69.6187 319.896 69.472V55.15C319.896 54.9887 319.947 54.8567 320.05 54.754C320.152 54.6513 320.277 54.6 320.424 54.6H329.972C330.133 54.6 330.265 54.6513 330.368 54.754C330.47 54.8567 330.522 54.9887 330.522 55.15V56.69C330.522 56.8513 330.47 56.9833 330.368 57.086C330.265 57.174 330.133 57.218 329.972 57.218H322.91V61.398H329.532C329.693 61.398 329.825 61.4493 329.928 61.552C330.03 61.6547 330.082 61.7867 330.082 61.948V63.488C330.082 63.6347 330.03 63.7593 329.928 63.862C329.825 63.9647 329.693 64.016 329.532 64.016H322.91V69.472C322.91 69.6187 322.858 69.7433 322.756 69.846C322.653 69.9487 322.521 70 322.36 70H320.424ZM333.637 70C333.49 70 333.365 69.9487 333.263 69.846C333.16 69.7433 333.109 69.6187 333.109 69.472V55.15C333.109 54.9887 333.16 54.8567 333.263 54.754C333.365 54.6513 333.49 54.6 333.637 54.6H339.335C341.109 54.6 342.51 55.0107 343.537 55.832C344.563 56.6533 345.077 57.8487 345.077 59.418C345.077 60.5033 344.805 61.4053 344.263 62.124C343.735 62.8427 343.023 63.3633 342.129 63.686L345.341 69.296C345.385 69.384 345.407 69.4647 345.407 69.538C345.407 69.67 345.355 69.78 345.253 69.868C345.165 69.956 345.062 70 344.945 70H342.943C342.693 70 342.503 69.934 342.371 69.802C342.239 69.67 342.136 69.538 342.063 69.406L339.225 64.192H336.167V69.472C336.167 69.6187 336.115 69.7433 336.013 69.846C335.925 69.9487 335.8 70 335.639 70H333.637ZM336.167 61.706H339.269C340.163 61.706 340.831 61.508 341.271 61.112C341.711 60.7013 341.931 60.1293 341.931 59.396C341.931 58.6627 341.711 58.0907 341.271 57.68C340.845 57.2547 340.178 57.042 339.269 57.042H336.167V61.706ZM353.786 70.22C352.481 70.22 351.359 70.0073 350.42 69.582C349.482 69.142 348.748 68.4747 348.22 67.58C347.692 66.6707 347.406 65.5413 347.362 64.192C347.348 63.5613 347.34 62.938 347.34 62.322C347.34 61.706 347.348 61.0753 347.362 60.43C347.406 59.0953 347.7 57.9807 348.242 57.086C348.785 56.1913 349.526 55.5167 350.464 55.062C351.418 54.6073 352.525 54.38 353.786 54.38C355.048 54.38 356.155 54.6073 357.108 55.062C358.062 55.5167 358.81 56.1913 359.352 57.086C359.895 57.9807 360.188 59.0953 360.232 60.43C360.262 61.0753 360.276 61.706 360.276 62.322C360.276 62.938 360.262 63.5613 360.232 64.192C360.188 65.5413 359.902 66.6707 359.374 67.58C358.846 68.4747 358.106 69.142 357.152 69.582C356.214 70.0073 355.092 70.22 353.786 70.22ZM353.786 67.69C354.74 67.69 355.517 67.4113 356.118 66.854C356.72 66.282 357.042 65.358 357.086 64.082C357.116 63.4367 357.13 62.8427 357.13 62.3C357.13 61.7427 357.116 61.1487 357.086 60.518C357.057 59.6673 356.896 58.978 356.602 58.45C356.324 57.9073 355.942 57.5187 355.458 57.284C354.974 57.0347 354.417 56.91 353.786 56.91C353.17 56.91 352.62 57.0347 352.136 57.284C351.652 57.5187 351.264 57.9073 350.97 58.45C350.692 58.978 350.538 59.6673 350.508 60.518C350.494 61.1487 350.486 61.7427 350.486 62.3C350.486 62.8427 350.494 63.4367 350.508 64.082C350.552 65.358 350.875 66.282 351.476 66.854C352.078 67.4113 352.848 67.69 353.786 67.69ZM363.715 70C363.554 70 363.422 69.9487 363.319 69.846C363.217 69.7433 363.165 69.6187 363.165 69.472V55.15C363.165 54.9887 363.217 54.8567 363.319 54.754C363.422 54.6513 363.554 54.6 363.715 54.6H365.453C365.659 54.6 365.813 54.6587 365.915 54.776C366.018 54.8787 366.084 54.9593 366.113 55.018L370.359 62.938L374.649 55.018C374.679 54.9593 374.745 54.8787 374.847 54.776C374.95 54.6587 375.104 54.6 375.309 54.6H377.025C377.187 54.6 377.319 54.6513 377.421 54.754C377.524 54.8567 377.575 54.9887 377.575 55.15V69.472C377.575 69.6187 377.524 69.7433 377.421 69.846C377.319 69.9487 377.187 70 377.025 70H375.177C375.016 70 374.884 69.9487 374.781 69.846C374.693 69.7433 374.649 69.6187 374.649 69.472V59.946L371.569 65.82C371.496 65.952 371.401 66.0693 371.283 66.172C371.166 66.26 371.012 66.304 370.821 66.304H369.919C369.714 66.304 369.553 66.26 369.435 66.172C369.333 66.0693 369.245 65.952 369.171 65.82L366.091 59.946V69.472C366.091 69.6187 366.04 69.7433 365.937 69.846C365.835 69.9487 365.71 70 365.563 70H363.715ZM389.403 70C389.257 70 389.132 69.9487 389.029 69.846C388.927 69.7433 388.875 69.6187 388.875 69.472V57.306H384.805C384.659 57.306 384.534 57.2547 384.431 57.152C384.329 57.0493 384.277 56.9247 384.277 56.778V55.15C384.277 54.9887 384.329 54.8567 384.431 54.754C384.534 54.6513 384.659 54.6 384.805 54.6H396.025C396.187 54.6 396.319 54.6513 396.421 54.754C396.524 54.8567 396.575 54.9887 396.575 55.15V56.778C396.575 56.9247 396.524 57.0493 396.421 57.152C396.319 57.2547 396.187 57.306 396.025 57.306H391.977V69.472C391.977 69.6187 391.926 69.7433 391.823 69.846C391.721 69.9487 391.589 70 391.427 70H389.403ZM399.336 70C399.189 70 399.064 69.956 398.962 69.868C398.859 69.7653 398.808 69.6333 398.808 69.472V55.15C398.808 54.9887 398.859 54.8567 398.962 54.754C399.064 54.6513 399.189 54.6 399.336 54.6H401.338C401.499 54.6 401.624 54.6513 401.712 54.754C401.814 54.8567 401.866 54.9887 401.866 55.15V60.826H408.356V55.15C408.356 54.9887 408.407 54.8567 408.51 54.754C408.612 54.6513 408.737 54.6 408.884 54.6H410.864C411.025 54.6 411.157 54.6513 411.26 54.754C411.362 54.8567 411.414 54.9887 411.414 55.15V69.472C411.414 69.6187 411.362 69.7433 411.26 69.846C411.157 69.9487 411.025 70 410.864 70H408.884C408.737 70 408.612 69.9487 408.51 69.846C408.407 69.7433 408.356 69.6187 408.356 69.472V63.576H401.866V69.472C401.866 69.6187 401.814 69.7433 401.712 69.846C401.624 69.9487 401.499 70 401.338 70H399.336ZM415.363 70C415.216 70 415.092 69.9487 414.989 69.846C414.886 69.7433 414.835 69.6187 414.835 69.472V55.15C414.835 54.9887 414.886 54.8567 414.989 54.754C415.092 54.6513 415.216 54.6 415.363 54.6H425.043C425.204 54.6 425.336 54.6513 425.439 54.754C425.542 54.8567 425.593 54.9887 425.593 55.15V56.602C425.593 56.7487 425.542 56.8733 425.439 56.976C425.336 57.0787 425.204 57.13 425.043 57.13H417.805V61.024H424.559C424.72 61.024 424.852 61.0753 424.955 61.178C425.058 61.266 425.109 61.3907 425.109 61.552V62.916C425.109 63.0773 425.058 63.2093 424.955 63.312C424.852 63.4 424.72 63.444 424.559 63.444H417.805V67.47H425.219C425.38 67.47 425.512 67.5213 425.615 67.624C425.718 67.7267 425.769 67.8587 425.769 68.02V69.472C425.769 69.6187 425.718 69.7433 425.615 69.846C425.512 69.9487 425.38 70 425.219 70H415.363ZM41.4792 96.22C40.1152 96.22 38.9566 95.9853 38.0032 95.516C37.0646 95.032 36.3459 94.35 35.8472 93.47C35.3486 92.5753 35.0699 91.5047 35.0112 90.258C34.9966 89.6567 34.9892 89.0113 34.9892 88.322C34.9892 87.6327 34.9966 86.9727 35.0112 86.342C35.0699 85.11 35.3486 84.0467 35.8472 83.152C36.3606 82.2573 37.0866 81.5753 38.0252 81.106C38.9786 80.622 40.1299 80.38 41.4792 80.38C42.4766 80.38 43.3712 80.512 44.1632 80.776C44.9552 81.04 45.6299 81.4067 46.1872 81.876C46.7446 82.3307 47.1772 82.866 47.4852 83.482C47.7932 84.098 47.9546 84.7653 47.9692 85.484C47.9839 85.616 47.9399 85.726 47.8372 85.814C47.7492 85.902 47.6392 85.946 47.5072 85.946H45.4172C45.2559 85.946 45.1239 85.9093 45.0212 85.836C44.9186 85.748 44.8452 85.6087 44.8012 85.418C44.5666 84.45 44.1632 83.79 43.5912 83.438C43.0192 83.086 42.3079 82.91 41.4572 82.91C40.4746 82.91 39.6899 83.1887 39.1032 83.746C38.5166 84.2887 38.2012 85.1907 38.1572 86.452C38.1132 87.6547 38.1132 88.8867 38.1572 90.148C38.2012 91.4093 38.5166 92.3187 39.1032 92.876C39.6899 93.4187 40.4746 93.69 41.4572 93.69C42.3079 93.69 43.0192 93.514 43.5912 93.162C44.1632 92.7953 44.5666 92.1353 44.8012 91.182C44.8452 90.9767 44.9186 90.8373 45.0212 90.764C45.1239 90.6907 45.2559 90.654 45.4172 90.654H47.5072C47.6392 90.654 47.7492 90.698 47.8372 90.786C47.9399 90.874 47.9839 90.984 47.9692 91.116C47.9546 91.8347 47.7932 92.502 47.4852 93.118C47.1772 93.734 46.7446 94.2767 46.1872 94.746C45.6299 95.2007 44.9552 95.56 44.1632 95.824C43.3712 96.088 42.4766 96.22 41.4792 96.22ZM56.4963 96.22C55.191 96.22 54.069 96.0073 53.1303 95.582C52.1916 95.142 51.4583 94.4747 50.9303 93.58C50.4023 92.6707 50.1163 91.5413 50.0723 90.192C50.0576 89.5613 50.0503 88.938 50.0503 88.322C50.0503 87.706 50.0576 87.0753 50.0723 86.43C50.1163 85.0953 50.4096 83.9807 50.9523 83.086C51.495 82.1913 52.2356 81.5167 53.1743 81.062C54.1276 80.6073 55.235 80.38 56.4963 80.38C57.7576 80.38 58.865 80.6073 59.8183 81.062C60.7716 81.5167 61.5196 82.1913 62.0623 83.086C62.605 83.9807 62.8983 85.0953 62.9423 86.43C62.9716 87.0753 62.9863 87.706 62.9863 88.322C62.9863 88.938 62.9716 89.5613 62.9423 90.192C62.8983 91.5413 62.6123 92.6707 62.0843 93.58C61.5563 94.4747 60.8156 95.142 59.8623 95.582C58.9236 96.0073 57.8016 96.22 56.4963 96.22ZM56.4963 93.69C57.4496 93.69 58.227 93.4113 58.8283 92.854C59.4296 92.282 59.7523 91.358 59.7963 90.082C59.8256 89.4367 59.8403 88.8427 59.8403 88.3C59.8403 87.7427 59.8256 87.1487 59.7963 86.518C59.767 85.6673 59.6056 84.978 59.3123 84.45C59.0336 83.9073 58.6523 83.5187 58.1683 83.284C57.6843 83.0347 57.127 82.91 56.4963 82.91C55.8803 82.91 55.3303 83.0347 54.8463 83.284C54.3623 83.5187 53.9736 83.9073 53.6803 84.45C53.4016 84.978 53.2476 85.6673 53.2183 86.518C53.2036 87.1487 53.1963 87.7427 53.1963 88.3C53.1963 88.8427 53.2036 89.4367 53.2183 90.082C53.2623 91.358 53.585 92.282 54.1863 92.854C54.7876 93.4113 55.5576 93.69 56.4963 93.69ZM66.4032 96C66.2565 96 66.1318 95.9487 66.0292 95.846C65.9265 95.7433 65.8752 95.6187 65.8752 95.472V81.15C65.8752 80.9887 65.9265 80.8567 66.0292 80.754C66.1318 80.6513 66.2565 80.6 66.4032 80.6H68.0972C68.3025 80.6 68.4492 80.6513 68.5372 80.754C68.6398 80.842 68.7058 80.908 68.7352 80.952L75.0712 90.808V81.15C75.0712 80.9887 75.1152 80.8567 75.2032 80.754C75.3058 80.6513 75.4378 80.6 75.5992 80.6H77.4472C77.6085 80.6 77.7405 80.6513 77.8432 80.754C77.9458 80.8567 77.9972 80.9887 77.9972 81.15V95.45C77.9972 95.6113 77.9458 95.7433 77.8432 95.846C77.7405 95.9487 77.6158 96 77.4692 96H75.7532C75.5478 96 75.4012 95.9487 75.3132 95.846C75.2252 95.7433 75.1592 95.6773 75.1152 95.648L68.8012 86.012V95.472C68.8012 95.6187 68.7498 95.7433 68.6472 95.846C68.5445 95.9487 68.4125 96 68.2512 96H66.4032ZM87.3699 96.22C86.0059 96.22 84.8472 95.9853 83.8939 95.516C82.9552 95.032 82.2365 94.35 81.7379 93.47C81.2392 92.5753 80.9605 91.5047 80.9019 90.258C80.8872 89.6567 80.8799 89.0113 80.8799 88.322C80.8799 87.6327 80.8872 86.9727 80.9019 86.342C80.9605 85.11 81.2392 84.0467 81.7379 83.152C82.2512 82.2573 82.9772 81.5753 83.9159 81.106C84.8692 80.622 86.0205 80.38 87.3699 80.38C88.3672 80.38 89.2619 80.512 90.0539 80.776C90.8459 81.04 91.5205 81.4067 92.0779 81.876C92.6352 82.3307 93.0679 82.866 93.3759 83.482C93.6839 84.098 93.8452 84.7653 93.8599 85.484C93.8745 85.616 93.8305 85.726 93.7279 85.814C93.6399 85.902 93.5299 85.946 93.3979 85.946H91.3079C91.1465 85.946 91.0145 85.9093 90.9119 85.836C90.8092 85.748 90.7359 85.6087 90.6919 85.418C90.4572 84.45 90.0539 83.79 89.4819 83.438C88.9099 83.086 88.1985 82.91 87.3479 82.91C86.3652 82.91 85.5805 83.1887 84.9939 83.746C84.4072 84.2887 84.0919 85.1907 84.0479 86.452C84.0039 87.6547 84.0039 88.8867 84.0479 90.148C84.0919 91.4093 84.4072 92.3187 84.9939 92.876C85.5805 93.4187 86.3652 93.69 87.3479 93.69C88.1985 93.69 88.9099 93.514 89.4819 93.162C90.0539 92.7953 90.4572 92.1353 90.6919 91.182C90.7359 90.9767 90.8092 90.8373 90.9119 90.764C91.0145 90.6907 91.1465 90.654 91.3079 90.654H93.3979C93.5299 90.654 93.6399 90.698 93.7279 90.786C93.8305 90.874 93.8745 90.984 93.8599 91.116C93.8452 91.8347 93.6839 92.502 93.3759 93.118C93.0679 93.734 92.6352 94.2767 92.0779 94.746C91.5205 95.2007 90.8459 95.56 90.0539 95.824C89.2619 96.088 88.3672 96.22 87.3699 96.22ZM96.9969 96C96.8503 96 96.7256 95.9487 96.6229 95.846C96.5203 95.7433 96.4689 95.6187 96.4689 95.472V81.15C96.4689 80.9887 96.5203 80.8567 96.6229 80.754C96.7256 80.6513 96.8503 80.6 96.9969 80.6H106.677C106.838 80.6 106.97 80.6513 107.073 80.754C107.176 80.8567 107.227 80.9887 107.227 81.15V82.602C107.227 82.7487 107.176 82.8733 107.073 82.976C106.97 83.0787 106.838 83.13 106.677 83.13H99.4389V87.024H106.193C106.354 87.024 106.486 87.0753 106.589 87.178C106.692 87.266 106.743 87.3907 106.743 87.552V88.916C106.743 89.0773 106.692 89.2093 106.589 89.312C106.486 89.4 106.354 89.444 106.193 89.444H99.4389V93.47H106.853C107.014 93.47 107.146 93.5213 107.249 93.624C107.352 93.7267 107.403 93.8587 107.403 94.02V95.472C107.403 95.6187 107.352 95.7433 107.249 95.846C107.146 95.9487 107.014 96 106.853 96H96.9969ZM110.682 96C110.536 96 110.411 95.9487 110.308 95.846C110.206 95.7433 110.154 95.6187 110.154 95.472V81.15C110.154 80.9887 110.206 80.8567 110.308 80.754C110.411 80.6513 110.536 80.6 110.682 80.6H116.38C118.155 80.6 119.556 81.0107 120.582 81.832C121.609 82.6533 122.122 83.8487 122.122 85.418C122.122 86.5033 121.851 87.4053 121.308 88.124C120.78 88.8427 120.069 89.3633 119.174 89.686L122.386 95.296C122.43 95.384 122.452 95.4647 122.452 95.538C122.452 95.67 122.401 95.78 122.298 95.868C122.21 95.956 122.108 96 121.99 96H119.988C119.739 96 119.548 95.934 119.416 95.802C119.284 95.67 119.182 95.538 119.108 95.406L116.27 90.192H113.212V95.472C113.212 95.6187 113.161 95.7433 113.058 95.846C112.97 95.9487 112.846 96 112.684 96H110.682ZM113.212 87.706H116.314C117.209 87.706 117.876 87.508 118.316 87.112C118.756 86.7013 118.976 86.1293 118.976 85.396C118.976 84.6627 118.756 84.0907 118.316 83.68C117.891 83.2547 117.224 83.042 116.314 83.042H113.212V87.706ZM125.485 96C125.339 96 125.214 95.9487 125.111 95.846C125.009 95.7433 124.957 95.6187 124.957 95.472V81.15C124.957 80.9887 125.009 80.8567 125.111 80.754C125.214 80.6513 125.339 80.6 125.485 80.6H127.179C127.385 80.6 127.531 80.6513 127.619 80.754C127.722 80.842 127.788 80.908 127.817 80.952L134.153 90.808V81.15C134.153 80.9887 134.197 80.8567 134.285 80.754C134.388 80.6513 134.52 80.6 134.681 80.6H136.529C136.691 80.6 136.823 80.6513 136.925 80.754C137.028 80.8567 137.079 80.9887 137.079 81.15V95.45C137.079 95.6113 137.028 95.7433 136.925 95.846C136.823 95.9487 136.698 96 136.551 96H134.835C134.63 96 134.483 95.9487 134.395 95.846C134.307 95.7433 134.241 95.6773 134.197 95.648L127.883 86.012V95.472C127.883 95.6187 127.832 95.7433 127.729 95.846C127.627 95.9487 127.495 96 127.333 96H125.485ZM141.04 96C140.893 96 140.769 95.9487 140.666 95.846C140.563 95.7433 140.512 95.6187 140.512 95.472V81.15C140.512 80.9887 140.563 80.8567 140.666 80.754C140.769 80.6513 140.893 80.6 141.04 80.6H150.72C150.881 80.6 151.013 80.6513 151.116 80.754C151.219 80.8567 151.27 80.9887 151.27 81.15V82.602C151.27 82.7487 151.219 82.8733 151.116 82.976C151.013 83.0787 150.881 83.13 150.72 83.13H143.482V87.024H150.236C150.397 87.024 150.529 87.0753 150.632 87.178C150.735 87.266 150.786 87.3907 150.786 87.552V88.916C150.786 89.0773 150.735 89.2093 150.632 89.312C150.529 89.4 150.397 89.444 150.236 89.444H143.482V93.47H150.896C151.057 93.47 151.189 93.5213 151.292 93.624C151.395 93.7267 151.446 93.8587 151.446 94.02V95.472C151.446 95.6187 151.395 95.7433 151.292 95.846C151.189 95.9487 151.057 96 150.896 96H141.04ZM154.725 96C154.579 96 154.454 95.9487 154.351 95.846C154.249 95.7433 154.197 95.6187 154.197 95.472V81.15C154.197 80.9887 154.249 80.8567 154.351 80.754C154.454 80.6513 154.579 80.6 154.725 80.6H160.093C161.575 80.6 162.792 80.8273 163.745 81.282C164.713 81.7367 165.439 82.4113 165.923 83.306C166.422 84.2007 166.679 85.2933 166.693 86.584C166.723 87.2293 166.737 87.8013 166.737 88.3C166.737 88.7987 166.723 89.3633 166.693 89.994C166.664 91.358 166.415 92.4873 165.945 93.382C165.476 94.262 164.765 94.922 163.811 95.362C162.873 95.7873 161.67 96 160.203 96H154.725ZM157.255 93.47H160.093C160.915 93.47 161.582 93.3527 162.095 93.118C162.609 92.8833 162.983 92.5093 163.217 91.996C163.467 91.468 163.599 90.7787 163.613 89.928C163.628 89.488 163.635 89.1067 163.635 88.784C163.65 88.4467 163.65 88.1167 163.635 87.794C163.635 87.4567 163.628 87.0753 163.613 86.65C163.584 85.4473 163.283 84.56 162.711 83.988C162.139 83.416 161.23 83.13 159.983 83.13H157.255V93.47ZM180.04 96.22C178.676 96.22 177.532 96.022 176.608 95.626C175.698 95.2153 175.002 94.6873 174.518 94.042C174.048 93.382 173.799 92.6927 173.77 91.974C173.77 91.842 173.814 91.732 173.902 91.644C173.99 91.556 174.1 91.512 174.232 91.512H176.19C176.38 91.512 176.52 91.556 176.608 91.644C176.71 91.7173 176.798 91.8127 176.872 91.93C176.96 92.2087 177.128 92.4873 177.378 92.766C177.627 93.03 177.964 93.25 178.39 93.426C178.83 93.602 179.38 93.69 180.04 93.69C181.096 93.69 181.88 93.514 182.394 93.162C182.922 92.81 183.186 92.3333 183.186 91.732C183.186 91.3067 183.046 90.9693 182.768 90.72C182.489 90.456 182.056 90.2213 181.47 90.016C180.898 89.796 180.135 89.5687 179.182 89.334C178.082 89.07 177.158 88.7547 176.41 88.388C175.676 88.0067 175.119 87.53 174.738 86.958C174.371 86.386 174.188 85.66 174.188 84.78C174.188 83.9293 174.415 83.174 174.87 82.514C175.339 81.854 175.999 81.3333 176.85 80.952C177.715 80.5707 178.742 80.38 179.93 80.38C180.883 80.38 181.726 80.512 182.46 80.776C183.193 81.0253 183.802 81.3627 184.286 81.788C184.77 82.1987 185.136 82.646 185.386 83.13C185.65 83.5993 185.789 84.0613 185.804 84.516C185.804 84.6333 185.76 84.7433 185.672 84.846C185.598 84.934 185.488 84.978 185.342 84.978H183.296C183.178 84.978 183.061 84.9487 182.944 84.89C182.826 84.8313 182.731 84.7213 182.658 84.56C182.57 84.1053 182.284 83.7167 181.8 83.394C181.316 83.0713 180.692 82.91 179.93 82.91C179.138 82.91 178.5 83.0567 178.016 83.35C177.532 83.6433 177.29 84.098 177.29 84.714C177.29 85.1247 177.407 85.4693 177.642 85.748C177.891 86.012 178.28 86.2467 178.808 86.452C179.35 86.6573 180.062 86.8773 180.942 87.112C182.188 87.3907 183.208 87.7133 184 88.08C184.792 88.4467 185.371 88.916 185.738 89.488C186.104 90.0453 186.288 90.7567 186.288 91.622C186.288 92.59 186.024 93.4187 185.496 94.108C184.982 94.7827 184.256 95.3033 183.318 95.67C182.379 96.0367 181.286 96.22 180.04 96.22ZM187.626 96C187.509 96 187.399 95.956 187.296 95.868C187.208 95.78 187.164 95.67 187.164 95.538C187.164 95.4793 187.179 95.4133 187.208 95.34L192.51 81.15C192.554 81.0033 192.635 80.8787 192.752 80.776C192.884 80.6587 193.06 80.6 193.28 80.6H195.678C195.898 80.6 196.067 80.6587 196.184 80.776C196.302 80.8787 196.39 81.0033 196.448 81.15L201.75 95.34C201.765 95.4133 201.772 95.4793 201.772 95.538C201.772 95.67 201.728 95.78 201.64 95.868C201.552 95.956 201.45 96 201.332 96H199.418C199.213 96 199.059 95.956 198.956 95.868C198.868 95.7653 198.81 95.67 198.78 95.582L197.746 92.898H191.212L190.178 95.582C190.149 95.67 190.083 95.7653 189.98 95.868C189.892 95.956 189.746 96 189.54 96H187.626ZM191.982 90.368H196.976L194.468 83.57L191.982 90.368ZM204.354 96C204.208 96 204.083 95.9487 203.98 95.846C203.878 95.7433 203.826 95.6187 203.826 95.472V81.128C203.826 80.9813 203.878 80.8567 203.98 80.754C204.083 80.6513 204.208 80.6 204.354 80.6H206.4C206.547 80.6 206.672 80.6513 206.774 80.754C206.877 80.8567 206.928 80.9813 206.928 81.128V93.382H213.902C214.064 93.382 214.196 93.4333 214.298 93.536C214.401 93.6387 214.452 93.7707 214.452 93.932V95.472C214.452 95.6187 214.401 95.7433 214.298 95.846C214.196 95.9487 214.064 96 213.902 96H204.354ZM217.116 96C216.969 96 216.845 95.9487 216.742 95.846C216.639 95.7433 216.588 95.6187 216.588 95.472V81.15C216.588 80.9887 216.639 80.8567 216.742 80.754C216.845 80.6513 216.969 80.6 217.116 80.6H226.796C226.957 80.6 227.089 80.6513 227.192 80.754C227.295 80.8567 227.346 80.9887 227.346 81.15V82.602C227.346 82.7487 227.295 82.8733 227.192 82.976C227.089 83.0787 226.957 83.13 226.796 83.13H219.558V87.024H226.312C226.473 87.024 226.605 87.0753 226.708 87.178C226.811 87.266 226.862 87.3907 226.862 87.552V88.916C226.862 89.0773 226.811 89.2093 226.708 89.312C226.605 89.4 226.473 89.444 226.312 89.444H219.558V93.47H226.972C227.133 93.47 227.265 93.5213 227.368 93.624C227.471 93.7267 227.522 93.8587 227.522 94.02V95.472C227.522 95.6187 227.471 95.7433 227.368 95.846C227.265 95.9487 227.133 96 226.972 96H217.116ZM235.62 96.22C234.256 96.22 233.112 96.022 232.188 95.626C231.278 95.2153 230.582 94.6873 230.098 94.042C229.628 93.382 229.379 92.6927 229.35 91.974C229.35 91.842 229.394 91.732 229.482 91.644C229.57 91.556 229.68 91.512 229.812 91.512H231.77C231.96 91.512 232.1 91.556 232.188 91.644C232.29 91.7173 232.378 91.8127 232.452 91.93C232.54 92.2087 232.708 92.4873 232.958 92.766C233.207 93.03 233.544 93.25 233.97 93.426C234.41 93.602 234.96 93.69 235.62 93.69C236.676 93.69 237.46 93.514 237.974 93.162C238.502 92.81 238.766 92.3333 238.766 91.732C238.766 91.3067 238.626 90.9693 238.348 90.72C238.069 90.456 237.636 90.2213 237.05 90.016C236.478 89.796 235.715 89.5687 234.762 89.334C233.662 89.07 232.738 88.7547 231.99 88.388C231.256 88.0067 230.699 87.53 230.318 86.958C229.951 86.386 229.768 85.66 229.768 84.78C229.768 83.9293 229.995 83.174 230.45 82.514C230.919 81.854 231.579 81.3333 232.43 80.952C233.295 80.5707 234.322 80.38 235.51 80.38C236.463 80.38 237.306 80.512 238.04 80.776C238.773 81.0253 239.382 81.3627 239.866 81.788C240.35 82.1987 240.716 82.646 240.966 83.13C241.23 83.5993 241.369 84.0613 241.384 84.516C241.384 84.6333 241.34 84.7433 241.252 84.846C241.178 84.934 241.068 84.978 240.922 84.978H238.876C238.758 84.978 238.641 84.9487 238.524 84.89C238.406 84.8313 238.311 84.7213 238.238 84.56C238.15 84.1053 237.864 83.7167 237.38 83.394C236.896 83.0713 236.272 82.91 235.51 82.91C234.718 82.91 234.08 83.0567 233.596 83.35C233.112 83.6433 232.87 84.098 232.87 84.714C232.87 85.1247 232.987 85.4693 233.222 85.748C233.471 86.012 233.86 86.2467 234.388 86.452C234.93 86.6573 235.642 86.8773 236.522 87.112C237.768 87.3907 238.788 87.7133 239.58 88.08C240.372 88.4467 240.951 88.916 241.318 89.488C241.684 90.0453 241.868 90.7567 241.868 91.622C241.868 92.59 241.604 93.4187 241.076 94.108C240.562 94.7827 239.836 95.3033 238.898 95.67C237.959 96.0367 236.866 96.22 235.62 96.22ZM249.944 96C249.798 96 249.673 95.9487 249.57 95.846C249.468 95.7433 249.416 95.6187 249.416 95.472V81.15C249.416 80.9887 249.468 80.8567 249.57 80.754C249.673 80.6513 249.798 80.6 249.944 80.6H255.642C257.417 80.6 258.818 81.0107 259.844 81.832C260.871 82.6533 261.384 83.8487 261.384 85.418C261.384 86.5033 261.113 87.4053 260.57 88.124C260.042 88.8427 259.331 89.3633 258.436 89.686L261.648 95.296C261.692 95.384 261.714 95.4647 261.714 95.538C261.714 95.67 261.663 95.78 261.56 95.868C261.472 95.956 261.37 96 261.252 96H259.25C259.001 96 258.81 95.934 258.678 95.802C258.546 95.67 258.444 95.538 258.37 95.406L255.532 90.192H252.474V95.472C252.474 95.6187 252.423 95.7433 252.32 95.846C252.232 95.9487 252.108 96 251.946 96H249.944ZM252.474 87.706H255.576C256.471 87.706 257.138 87.508 257.578 87.112C258.018 86.7013 258.238 86.1293 258.238 85.396C258.238 84.6627 258.018 84.0907 257.578 83.68C257.153 83.2547 256.486 83.042 255.576 83.042H252.474V87.706ZM264.747 96C264.6 96 264.476 95.9487 264.373 95.846C264.27 95.7433 264.219 95.6187 264.219 95.472V81.15C264.219 80.9887 264.27 80.8567 264.373 80.754C264.476 80.6513 264.6 80.6 264.747 80.6H274.427C274.588 80.6 274.72 80.6513 274.823 80.754C274.926 80.8567 274.977 80.9887 274.977 81.15V82.602C274.977 82.7487 274.926 82.8733 274.823 82.976C274.72 83.0787 274.588 83.13 274.427 83.13H267.189V87.024H273.943C274.104 87.024 274.236 87.0753 274.339 87.178C274.442 87.266 274.493 87.3907 274.493 87.552V88.916C274.493 89.0773 274.442 89.2093 274.339 89.312C274.236 89.4 274.104 89.444 273.943 89.444H267.189V93.47H274.603C274.764 93.47 274.896 93.5213 274.999 93.624C275.102 93.7267 275.153 93.8587 275.153 94.02V95.472C275.153 95.6187 275.102 95.7433 274.999 95.846C274.896 95.9487 274.764 96 274.603 96H264.747ZM278.432 96C278.286 96 278.161 95.9487 278.058 95.846C277.956 95.7433 277.904 95.6187 277.904 95.472V81.15C277.904 80.9887 277.956 80.8567 278.058 80.754C278.161 80.6513 278.286 80.6 278.432 80.6H284.328C285.472 80.6 286.47 80.7833 287.32 81.15C288.171 81.502 288.831 82.0447 289.3 82.778C289.77 83.4967 290.004 84.3987 290.004 85.484C290.004 86.584 289.77 87.4933 289.3 88.212C288.831 88.916 288.171 89.444 287.32 89.796C286.47 90.148 285.472 90.324 284.328 90.324H281.05V95.472C281.05 95.6187 280.999 95.7433 280.896 95.846C280.808 95.9487 280.684 96 280.522 96H278.432ZM281.006 87.882H284.218C285.069 87.882 285.722 87.684 286.176 87.288C286.631 86.8773 286.858 86.276 286.858 85.484C286.858 84.7507 286.646 84.164 286.22 83.724C285.795 83.2693 285.128 83.042 284.218 83.042H281.006V87.882ZM292.934 96C292.788 96 292.663 95.9487 292.56 95.846C292.458 95.7433 292.406 95.6187 292.406 95.472V81.15C292.406 80.9887 292.458 80.8567 292.56 80.754C292.663 80.6513 292.788 80.6 292.934 80.6H298.632C300.407 80.6 301.808 81.0107 302.834 81.832C303.861 82.6533 304.374 83.8487 304.374 85.418C304.374 86.5033 304.103 87.4053 303.56 88.124C303.032 88.8427 302.321 89.3633 301.426 89.686L304.638 95.296C304.682 95.384 304.704 95.4647 304.704 95.538C304.704 95.67 304.653 95.78 304.55 95.868C304.462 95.956 304.36 96 304.242 96H302.24C301.991 96 301.8 95.934 301.668 95.802C301.536 95.67 301.434 95.538 301.36 95.406L298.522 90.192H295.464V95.472C295.464 95.6187 295.413 95.7433 295.31 95.846C295.222 95.9487 295.098 96 294.936 96H292.934ZM295.464 87.706H298.566C299.461 87.706 300.128 87.508 300.568 87.112C301.008 86.7013 301.228 86.1293 301.228 85.396C301.228 84.6627 301.008 84.0907 300.568 83.68C300.143 83.2547 299.476 83.042 298.566 83.042H295.464V87.706ZM307.737 96C307.59 96 307.466 95.9487 307.363 95.846C307.26 95.7433 307.209 95.6187 307.209 95.472V81.15C307.209 80.9887 307.26 80.8567 307.363 80.754C307.466 80.6513 307.59 80.6 307.737 80.6H317.417C317.578 80.6 317.71 80.6513 317.813 80.754C317.916 80.8567 317.967 80.9887 317.967 81.15V82.602C317.967 82.7487 317.916 82.8733 317.813 82.976C317.71 83.0787 317.578 83.13 317.417 83.13H310.179V87.024H316.933C317.094 87.024 317.226 87.0753 317.329 87.178C317.432 87.266 317.483 87.3907 317.483 87.552V88.916C317.483 89.0773 317.432 89.2093 317.329 89.312C317.226 89.4 317.094 89.444 316.933 89.444H310.179V93.47H317.593C317.754 93.47 317.886 93.5213 317.989 93.624C318.092 93.7267 318.143 93.8587 318.143 94.02V95.472C318.143 95.6187 318.092 95.7433 317.989 95.846C317.886 95.9487 317.754 96 317.593 96H307.737ZM326.241 96.22C324.877 96.22 323.733 96.022 322.809 95.626C321.899 95.2153 321.203 94.6873 320.719 94.042C320.249 93.382 320 92.6927 319.971 91.974C319.971 91.842 320.015 91.732 320.103 91.644C320.191 91.556 320.301 91.512 320.433 91.512H322.391C322.581 91.512 322.721 91.556 322.809 91.644C322.911 91.7173 322.999 91.8127 323.073 91.93C323.161 92.2087 323.329 92.4873 323.579 92.766C323.828 93.03 324.165 93.25 324.591 93.426C325.031 93.602 325.581 93.69 326.241 93.69C327.297 93.69 328.081 93.514 328.595 93.162C329.123 92.81 329.387 92.3333 329.387 91.732C329.387 91.3067 329.247 90.9693 328.969 90.72C328.69 90.456 328.257 90.2213 327.671 90.016C327.099 89.796 326.336 89.5687 325.383 89.334C324.283 89.07 323.359 88.7547 322.611 88.388C321.877 88.0067 321.32 87.53 320.939 86.958C320.572 86.386 320.389 85.66 320.389 84.78C320.389 83.9293 320.616 83.174 321.071 82.514C321.54 81.854 322.2 81.3333 323.051 80.952C323.916 80.5707 324.943 80.38 326.131 80.38C327.084 80.38 327.927 80.512 328.661 80.776C329.394 81.0253 330.003 81.3627 330.487 81.788C330.971 82.1987 331.337 82.646 331.587 83.13C331.851 83.5993 331.99 84.0613 332.005 84.516C332.005 84.6333 331.961 84.7433 331.873 84.846C331.799 84.934 331.689 84.978 331.543 84.978H329.497C329.379 84.978 329.262 84.9487 329.145 84.89C329.027 84.8313 328.932 84.7213 328.859 84.56C328.771 84.1053 328.485 83.7167 328.001 83.394C327.517 83.0713 326.893 82.91 326.131 82.91C325.339 82.91 324.701 83.0567 324.217 83.35C323.733 83.6433 323.491 84.098 323.491 84.714C323.491 85.1247 323.608 85.4693 323.843 85.748C324.092 86.012 324.481 86.2467 325.009 86.452C325.551 86.6573 326.263 86.8773 327.143 87.112C328.389 87.3907 329.409 87.7133 330.201 88.08C330.993 88.4467 331.572 88.916 331.939 89.488C332.305 90.0453 332.489 90.7567 332.489 91.622C332.489 92.59 332.225 93.4187 331.697 94.108C331.183 94.7827 330.457 95.3033 329.519 95.67C328.58 96.0367 327.487 96.22 326.241 96.22ZM335.538 96C335.391 96 335.267 95.9487 335.164 95.846C335.061 95.7433 335.01 95.6187 335.01 95.472V81.15C335.01 80.9887 335.061 80.8567 335.164 80.754C335.267 80.6513 335.391 80.6 335.538 80.6H345.218C345.379 80.6 345.511 80.6513 345.614 80.754C345.717 80.8567 345.768 80.9887 345.768 81.15V82.602C345.768 82.7487 345.717 82.8733 345.614 82.976C345.511 83.0787 345.379 83.13 345.218 83.13H337.98V87.024H344.734C344.895 87.024 345.027 87.0753 345.13 87.178C345.233 87.266 345.284 87.3907 345.284 87.552V88.916C345.284 89.0773 345.233 89.2093 345.13 89.312C345.027 89.4 344.895 89.444 344.734 89.444H337.98V93.47H345.394C345.555 93.47 345.687 93.5213 345.79 93.624C345.893 93.7267 345.944 93.8587 345.944 94.02V95.472C345.944 95.6187 345.893 95.7433 345.79 95.846C345.687 95.9487 345.555 96 345.394 96H335.538ZM349.223 96C349.077 96 348.952 95.9487 348.849 95.846C348.747 95.7433 348.695 95.6187 348.695 95.472V81.15C348.695 80.9887 348.747 80.8567 348.849 80.754C348.952 80.6513 349.077 80.6 349.223 80.6H350.917C351.123 80.6 351.269 80.6513 351.357 80.754C351.46 80.842 351.526 80.908 351.555 80.952L357.891 90.808V81.15C357.891 80.9887 357.935 80.8567 358.023 80.754C358.126 80.6513 358.258 80.6 358.419 80.6H360.267C360.429 80.6 360.561 80.6513 360.663 80.754C360.766 80.8567 360.817 80.9887 360.817 81.15V95.45C360.817 95.6113 360.766 95.7433 360.663 95.846C360.561 95.9487 360.436 96 360.289 96H358.573C358.368 96 358.221 95.9487 358.133 95.846C358.045 95.7433 357.979 95.6773 357.935 95.648L351.621 86.012V95.472C351.621 95.6187 351.57 95.7433 351.467 95.846C351.365 95.9487 351.233 96 351.071 96H349.223ZM368.166 96C368.02 96 367.895 95.9487 367.792 95.846C367.69 95.7433 367.638 95.6187 367.638 95.472V83.306H363.568C363.422 83.306 363.297 83.2547 363.194 83.152C363.092 83.0493 363.04 82.9247 363.04 82.778V81.15C363.04 80.9887 363.092 80.8567 363.194 80.754C363.297 80.6513 363.422 80.6 363.568 80.6H374.788C374.95 80.6 375.082 80.6513 375.184 80.754C375.287 80.8567 375.338 80.9887 375.338 81.15V82.778C375.338 82.9247 375.287 83.0493 375.184 83.152C375.082 83.2547 374.95 83.306 374.788 83.306H370.74V95.472C370.74 95.6187 370.689 95.7433 370.586 95.846C370.484 95.9487 370.352 96 370.19 96H368.166ZM375.013 96C374.896 96 374.786 95.956 374.683 95.868C374.595 95.78 374.551 95.67 374.551 95.538C374.551 95.4793 374.566 95.4133 374.595 95.34L379.897 81.15C379.941 81.0033 380.022 80.8787 380.139 80.776C380.271 80.6587 380.447 80.6 380.667 80.6H383.065C383.285 80.6 383.454 80.6587 383.571 80.776C383.688 80.8787 383.776 81.0033 383.835 81.15L389.137 95.34C389.152 95.4133 389.159 95.4793 389.159 95.538C389.159 95.67 389.115 95.78 389.027 95.868C388.939 95.956 388.836 96 388.719 96H386.805C386.6 96 386.446 95.956 386.343 95.868C386.255 95.7653 386.196 95.67 386.167 95.582L385.133 92.898H378.599L377.565 95.582C377.536 95.67 377.47 95.7653 377.367 95.868C377.279 95.956 377.132 96 376.927 96H375.013ZM379.369 90.368H384.363L381.855 83.57L379.369 90.368ZM393.518 96C393.371 96 393.246 95.9487 393.144 95.846C393.041 95.7433 392.99 95.6187 392.99 95.472V83.306H388.92C388.773 83.306 388.648 83.2547 388.546 83.152C388.443 83.0493 388.392 82.9247 388.392 82.778V81.15C388.392 80.9887 388.443 80.8567 388.546 80.754C388.648 80.6513 388.773 80.6 388.92 80.6H400.14C400.301 80.6 400.433 80.6513 400.536 80.754C400.638 80.8567 400.69 80.9887 400.69 81.15V82.778C400.69 82.9247 400.638 83.0493 400.536 83.152C400.433 83.2547 400.301 83.306 400.14 83.306H396.092V95.472C396.092 95.6187 396.04 95.7433 395.938 95.846C395.835 95.9487 395.703 96 395.542 96H393.518ZM403.45 96C403.303 96 403.179 95.9487 403.076 95.846C402.973 95.7433 402.922 95.6187 402.922 95.472V81.128C402.922 80.9813 402.973 80.8567 403.076 80.754C403.179 80.6513 403.303 80.6 403.45 80.6H405.518C405.679 80.6 405.804 80.6513 405.892 80.754C405.995 80.8567 406.046 80.9813 406.046 81.128V95.472C406.046 95.6187 405.995 95.7433 405.892 95.846C405.804 95.9487 405.679 96 405.518 96H403.45ZM413.984 96C413.75 96 413.566 95.9413 413.434 95.824C413.302 95.7067 413.207 95.56 413.148 95.384L408.44 81.26C408.411 81.1867 408.396 81.1207 408.396 81.062C408.396 80.93 408.44 80.82 408.528 80.732C408.616 80.644 408.726 80.6 408.858 80.6H410.794C411 80.6 411.154 80.6587 411.256 80.776C411.374 80.8787 411.447 80.9813 411.476 81.084L415.194 92.414L418.89 81.084C418.934 80.9813 419.008 80.8787 419.11 80.776C419.228 80.6587 419.389 80.6 419.594 80.6H421.53C421.648 80.6 421.75 80.644 421.838 80.732C421.941 80.82 421.992 80.93 421.992 81.062C421.992 81.1207 421.978 81.1867 421.948 81.26L417.24 95.384C417.182 95.56 417.086 95.7067 416.954 95.824C416.822 95.9413 416.639 96 416.404 96H413.984ZM424.848 96C424.702 96 424.577 95.9487 424.474 95.846C424.372 95.7433 424.32 95.6187 424.32 95.472V81.15C424.32 80.9887 424.372 80.8567 424.474 80.754C424.577 80.6513 424.702 80.6 424.848 80.6H434.528C434.69 80.6 434.822 80.6513 434.924 80.754C435.027 80.8567 435.078 80.9887 435.078 81.15V82.602C435.078 82.7487 435.027 82.8733 434.924 82.976C434.822 83.0787 434.69 83.13 434.528 83.13H427.29V87.024H434.044C434.206 87.024 434.338 87.0753 434.44 87.178C434.543 87.266 434.594 87.3907 434.594 87.552V88.916C434.594 89.0773 434.543 89.2093 434.44 89.312C434.338 89.4 434.206 89.444 434.044 89.444H427.29V93.47H434.704C434.866 93.47 434.998 93.5213 435.1 93.624C435.203 93.7267 435.254 93.8587 435.254 94.02V95.472C435.254 95.6187 435.203 95.7433 435.1 95.846C434.998 95.9487 434.866 96 434.704 96H424.848ZM438.138 96C437.991 96 437.867 95.9487 437.764 95.846C437.661 95.7433 437.61 95.6187 437.61 95.472V93.294C437.61 93.1327 437.661 93.0007 437.764 92.898C437.867 92.7953 437.991 92.744 438.138 92.744H440.338C440.485 92.744 440.609 92.7953 440.712 92.898C440.815 93.0007 440.866 93.1327 440.866 93.294V95.472C440.866 95.6187 440.815 95.7433 440.712 95.846C440.609 95.9487 440.485 96 440.338 96H438.138Z" fill="white"/>
<path d="M293.094 126H183.906C179.54 126 176 129.393 176 133.579V154.421C176 158.607 179.54 162 183.906 162H293.094C297.46 162 301 158.607 301 154.421V133.579C301 129.393 297.46 126 293.094 126Z" fill="#BE2200"/>
<path d="M191.94 142.22C191.98 141.473 192.14 140.773 192.42 140.12C192.713 139.453 193.12 138.88 193.64 138.4C194.173 137.907 194.813 137.52 195.56 137.24C196.32 136.947 197.193 136.8 198.18 136.8C199.153 136.8 200.02 136.947 200.78 137.24C201.54 137.52 202.18 137.907 202.7 138.4C203.233 138.88 203.64 139.453 203.92 140.12C204.213 140.773 204.38 141.473 204.42 142.22C204.447 142.793 204.46 143.393 204.46 144.02C204.46 144.647 204.447 145.233 204.42 145.78C204.38 146.527 204.213 147.233 203.92 147.9C203.64 148.553 203.233 149.127 202.7 149.62C202.18 150.113 201.54 150.5 200.78 150.78C200.02 151.06 199.153 151.2 198.18 151.2C197.193 151.2 196.32 151.06 195.56 150.78C194.813 150.5 194.173 150.113 193.64 149.62C193.12 149.127 192.713 148.553 192.42 147.9C192.14 147.233 191.98 146.527 191.94 145.78C191.913 145.233 191.9 144.647 191.9 144.02C191.9 143.393 191.913 142.793 191.94 142.22ZM200.72 145.68C200.733 145.44 200.747 145.173 200.76 144.88C200.773 144.587 200.78 144.287 200.78 143.98C200.78 143.673 200.773 143.38 200.76 143.1C200.747 142.807 200.733 142.547 200.72 142.32C200.693 141.987 200.62 141.68 200.5 141.4C200.393 141.12 200.233 140.88 200.02 140.68C199.82 140.467 199.567 140.3 199.26 140.18C198.953 140.06 198.593 140 198.18 140C197.767 140 197.407 140.06 197.1 140.18C196.793 140.3 196.533 140.467 196.32 140.68C196.12 140.88 195.96 141.12 195.84 141.4C195.733 141.68 195.667 141.987 195.64 142.32C195.613 142.547 195.593 142.807 195.58 143.1C195.58 143.38 195.58 143.673 195.58 143.98C195.58 144.287 195.58 144.587 195.58 144.88C195.593 145.173 195.613 145.44 195.64 145.68C195.693 146.347 195.92 146.9 196.32 147.34C196.733 147.78 197.353 148 198.18 148C199.007 148 199.62 147.78 200.02 147.34C200.42 146.9 200.653 146.347 200.72 145.68ZM213.015 137C213.869 137 214.635 137.1 215.315 137.3C215.995 137.487 216.575 137.78 217.055 138.18C217.535 138.567 217.902 139.053 218.155 139.64C218.422 140.227 218.555 140.907 218.555 141.68C218.555 142.467 218.422 143.153 218.155 143.74C217.902 144.327 217.535 144.813 217.055 145.2C216.575 145.587 215.995 145.88 215.315 146.08C214.635 146.28 213.869 146.38 213.015 146.38H210.455V150.46C210.455 150.607 210.402 150.733 210.295 150.84C210.189 150.947 210.062 151 209.915 151H207.295C207.149 151 207.022 150.947 206.915 150.84C206.809 150.733 206.755 150.607 206.755 150.46V137.54C206.755 137.393 206.809 137.267 206.915 137.16C207.022 137.053 207.149 137 207.295 137H213.015ZM210.455 143.26H212.915C213.475 143.26 213.935 143.14 214.295 142.9C214.669 142.647 214.855 142.24 214.855 141.68C214.855 141.12 214.669 140.72 214.295 140.48C213.935 140.227 213.475 140.1 212.915 140.1H210.455V143.26ZM230.746 137C230.893 137 231.02 137.053 231.126 137.16C231.233 137.267 231.286 137.393 231.286 137.54V139.66C231.286 139.807 231.233 139.933 231.126 140.04C231.02 140.147 230.893 140.2 230.746 140.2H227.226V150.46C227.226 150.607 227.173 150.733 227.066 150.84C226.96 150.947 226.833 151 226.686 151H224.066C223.92 151 223.793 150.947 223.686 150.84C223.58 150.733 223.526 150.607 223.526 150.46V140.2H220.006C219.86 140.2 219.733 140.147 219.626 140.04C219.52 139.933 219.466 139.807 219.466 139.66V137.54C219.466 137.393 219.52 137.267 219.626 137.16C219.733 137.053 219.86 137 220.006 137H230.746ZM233.624 151C233.477 151 233.35 150.947 233.244 150.84C233.137 150.733 233.084 150.607 233.084 150.46V137.54C233.084 137.393 233.137 137.267 233.244 137.16C233.35 137.053 233.477 137 233.624 137H236.244C236.39 137 236.517 137.053 236.624 137.16C236.73 137.267 236.784 137.393 236.784 137.54V150.46C236.784 150.607 236.73 150.733 236.624 150.84C236.517 150.947 236.39 151 236.244 151H233.624ZM239.128 142.22C239.168 141.473 239.328 140.773 239.608 140.12C239.901 139.453 240.308 138.88 240.827 138.4C241.361 137.907 242.001 137.52 242.748 137.24C243.508 136.947 244.381 136.8 245.368 136.8C246.341 136.8 247.208 136.947 247.968 137.24C248.728 137.52 249.368 137.907 249.888 138.4C250.421 138.88 250.828 139.453 251.108 140.12C251.401 140.773 251.568 141.473 251.608 142.22C251.634 142.793 251.648 143.393 251.648 144.02C251.648 144.647 251.634 145.233 251.608 145.78C251.568 146.527 251.401 147.233 251.108 147.9C250.828 148.553 250.421 149.127 249.888 149.62C249.368 150.113 248.728 150.5 247.968 150.78C247.208 151.06 246.341 151.2 245.368 151.2C244.381 151.2 243.508 151.06 242.748 150.78C242.001 150.5 241.361 150.113 240.827 149.62C240.308 149.127 239.901 148.553 239.608 147.9C239.328 147.233 239.168 146.527 239.128 145.78C239.101 145.233 239.088 144.647 239.088 144.02C239.088 143.393 239.101 142.793 239.128 142.22ZM247.908 145.68C247.921 145.44 247.934 145.173 247.948 144.88C247.961 144.587 247.968 144.287 247.968 143.98C247.968 143.673 247.961 143.38 247.948 143.1C247.934 142.807 247.921 142.547 247.908 142.32C247.881 141.987 247.808 141.68 247.688 141.4C247.581 141.12 247.421 140.88 247.208 140.68C247.008 140.467 246.754 140.3 246.448 140.18C246.141 140.06 245.781 140 245.368 140C244.954 140 244.594 140.06 244.288 140.18C243.981 140.3 243.721 140.467 243.508 140.68C243.308 140.88 243.148 141.12 243.028 141.4C242.921 141.68 242.854 141.987 242.828 142.32C242.801 142.547 242.781 142.807 242.768 143.1C242.768 143.38 242.768 143.673 242.768 143.98C242.768 144.287 242.768 144.587 242.768 144.88C242.781 145.173 242.801 145.44 242.828 145.68C242.881 146.347 243.108 146.9 243.508 147.34C243.921 147.78 244.541 148 245.368 148C246.194 148 246.808 147.78 247.208 147.34C247.608 146.9 247.841 146.347 247.908 145.68ZM263.043 151C262.816 151 262.63 150.94 262.483 150.82C262.35 150.7 262.263 150.607 262.223 150.54L257.643 143.7V150.46C257.643 150.607 257.59 150.733 257.483 150.84C257.376 150.947 257.25 151 257.103 151H254.483C254.336 151 254.21 150.947 254.103 150.84C253.996 150.733 253.943 150.607 253.943 150.46V137.54C253.943 137.393 253.996 137.267 254.103 137.16C254.21 137.053 254.336 137 254.483 137H256.563C256.79 137 256.97 137.06 257.103 137.18C257.25 137.3 257.343 137.393 257.383 137.46L261.963 144.3V137.54C261.963 137.393 262.016 137.267 262.123 137.16C262.23 137.053 262.356 137 262.503 137H265.123C265.27 137 265.396 137.053 265.503 137.16C265.61 137.267 265.663 137.393 265.663 137.54V150.46C265.663 150.607 265.61 150.733 265.503 150.84C265.396 150.947 265.27 151 265.123 151H263.043ZM279.585 137C279.852 137 280.052 137.073 280.185 137.22C280.332 137.367 280.432 137.513 280.485 137.66L284.845 150.26C284.898 150.393 284.925 150.493 284.925 150.56C284.925 150.68 284.878 150.787 284.785 150.88C284.705 150.96 284.605 151 284.485 151H281.965C281.698 151 281.505 150.947 281.385 150.84C281.278 150.72 281.212 150.607 281.185 150.5L280.625 148.84H275.305L274.745 150.5C274.718 150.607 274.645 150.72 274.525 150.84C274.418 150.947 274.232 151 273.965 151H271.445C271.325 151 271.218 150.96 271.125 150.88C271.045 150.787 271.005 150.68 271.005 150.56C271.005 150.493 271.032 150.393 271.085 150.26L275.445 137.66C275.498 137.513 275.592 137.367 275.725 137.22C275.872 137.073 276.078 137 276.345 137H279.585ZM276.345 145.74H279.585L277.965 140.94L276.345 145.74Z" fill="white"/>
</svg>
