<svg width="476" height="186" viewBox="0 0 476 186" fill="none" xmlns="http://www.w3.org/2000/svg">
<path d="M461.412 2H14.5876C7.63565 2 2 16.1855 2 33.6843V114.316C2 131.814 7.63565 146 14.5876 146H461.412C468.364 146 474 131.814 474 114.316V33.6843C474 16.1855 468.364 2 461.412 2Z" stroke="#BE2200" stroke-width="4" stroke-miterlimit="10"/>
<path d="M293.094 150H183.906C179.54 150 176 153.393 176 157.579V178.421C176 182.607 179.54 186 183.906 186H293.094C297.46 186 301 182.607 301 178.421V157.579C301 153.393 297.46 150 293.094 150Z" fill="#BE2200"/>
<path d="M191.94 166.22C191.98 165.473 192.14 164.773 192.42 164.12C192.713 163.453 193.12 162.88 193.64 162.4C194.173 161.907 194.813 161.52 195.56 161.24C196.32 160.947 197.193 160.8 198.18 160.8C199.153 160.8 200.02 160.947 200.78 161.24C201.54 161.52 202.18 161.907 202.7 162.4C203.233 162.88 203.64 163.453 203.92 164.12C204.213 164.773 204.38 165.473 204.42 166.22C204.447 166.793 204.46 167.393 204.46 168.02C204.46 168.647 204.447 169.233 204.42 169.78C204.38 170.527 204.213 171.233 203.92 171.9C203.64 172.553 203.233 173.127 202.7 173.62C202.18 174.113 201.54 174.5 200.78 174.78C200.02 175.06 199.153 175.2 198.18 175.2C197.193 175.2 196.32 175.06 195.56 174.78C194.813 174.5 194.173 174.113 193.64 173.62C193.12 173.127 192.713 172.553 192.42 171.9C192.14 171.233 191.98 170.527 191.94 169.78C191.913 169.233 191.9 168.647 191.9 168.02C191.9 167.393 191.913 166.793 191.94 166.22ZM200.72 169.68C200.733 169.44 200.747 169.173 200.76 168.88C200.773 168.587 200.78 168.287 200.78 167.98C200.78 167.673 200.773 167.38 200.76 167.1C200.747 166.807 200.733 166.547 200.72 166.32C200.693 165.987 200.62 165.68 200.5 165.4C200.393 165.12 200.233 164.88 200.02 164.68C199.82 164.467 199.567 164.3 199.26 164.18C198.953 164.06 198.593 164 198.18 164C197.767 164 197.407 164.06 197.1 164.18C196.793 164.3 196.533 164.467 196.32 164.68C196.12 164.88 195.96 165.12 195.84 165.4C195.733 165.68 195.667 165.987 195.64 166.32C195.613 166.547 195.593 166.807 195.58 167.1C195.58 167.38 195.58 167.673 195.58 167.98C195.58 168.287 195.58 168.587 195.58 168.88C195.593 169.173 195.613 169.44 195.64 169.68C195.693 170.347 195.92 170.9 196.32 171.34C196.733 171.78 197.353 172 198.18 172C199.007 172 199.62 171.78 200.02 171.34C200.42 170.9 200.653 170.347 200.72 169.68ZM213.015 161C213.869 161 214.635 161.1 215.315 161.3C215.995 161.487 216.575 161.78 217.055 162.18C217.535 162.567 217.902 163.053 218.155 163.64C218.422 164.227 218.555 164.907 218.555 165.68C218.555 166.467 218.422 167.153 218.155 167.74C217.902 168.327 217.535 168.813 217.055 169.2C216.575 169.587 215.995 169.88 215.315 170.08C214.635 170.28 213.869 170.38 213.015 170.38H210.455V174.46C210.455 174.607 210.402 174.733 210.295 174.84C210.189 174.947 210.062 175 209.915 175H207.295C207.149 175 207.022 174.947 206.915 174.84C206.809 174.733 206.755 174.607 206.755 174.46V161.54C206.755 161.393 206.809 161.267 206.915 161.16C207.022 161.053 207.149 161 207.295 161H213.015ZM210.455 167.26H212.915C213.475 167.26 213.935 167.14 214.295 166.9C214.669 166.647 214.855 166.24 214.855 165.68C214.855 165.12 214.669 164.72 214.295 164.48C213.935 164.227 213.475 164.1 212.915 164.1H210.455V167.26ZM230.746 161C230.893 161 231.02 161.053 231.126 161.16C231.233 161.267 231.286 161.393 231.286 161.54V163.66C231.286 163.807 231.233 163.933 231.126 164.04C231.02 164.147 230.893 164.2 230.746 164.2H227.226V174.46C227.226 174.607 227.173 174.733 227.066 174.84C226.96 174.947 226.833 175 226.686 175H224.066C223.92 175 223.793 174.947 223.686 174.84C223.58 174.733 223.526 174.607 223.526 174.46V164.2H220.006C219.86 164.2 219.733 164.147 219.626 164.04C219.52 163.933 219.466 163.807 219.466 163.66V161.54C219.466 161.393 219.52 161.267 219.626 161.16C219.733 161.053 219.86 161 220.006 161H230.746ZM233.624 175C233.477 175 233.35 174.947 233.244 174.84C233.137 174.733 233.084 174.607 233.084 174.46V161.54C233.084 161.393 233.137 161.267 233.244 161.16C233.35 161.053 233.477 161 233.624 161H236.244C236.39 161 236.517 161.053 236.624 161.16C236.73 161.267 236.784 161.393 236.784 161.54V174.46C236.784 174.607 236.73 174.733 236.624 174.84C236.517 174.947 236.39 175 236.244 175H233.624ZM239.128 166.22C239.168 165.473 239.328 164.773 239.608 164.12C239.901 163.453 240.308 162.88 240.827 162.4C241.361 161.907 242.001 161.52 242.748 161.24C243.508 160.947 244.381 160.8 245.368 160.8C246.341 160.8 247.208 160.947 247.968 161.24C248.728 161.52 249.368 161.907 249.888 162.4C250.421 162.88 250.828 163.453 251.108 164.12C251.401 164.773 251.568 165.473 251.608 166.22C251.634 166.793 251.648 167.393 251.648 168.02C251.648 168.647 251.634 169.233 251.608 169.78C251.568 170.527 251.401 171.233 251.108 171.9C250.828 172.553 250.421 173.127 249.888 173.62C249.368 174.113 248.728 174.5 247.968 174.78C247.208 175.06 246.341 175.2 245.368 175.2C244.381 175.2 243.508 175.06 242.748 174.78C242.001 174.5 241.361 174.113 240.827 173.62C240.308 173.127 239.901 172.553 239.608 171.9C239.328 171.233 239.168 170.527 239.128 169.78C239.101 169.233 239.088 168.647 239.088 168.02C239.088 167.393 239.101 166.793 239.128 166.22ZM247.908 169.68C247.921 169.44 247.934 169.173 247.948 168.88C247.961 168.587 247.968 168.287 247.968 167.98C247.968 167.673 247.961 167.38 247.948 167.1C247.934 166.807 247.921 166.547 247.908 166.32C247.881 165.987 247.808 165.68 247.688 165.4C247.581 165.12 247.421 164.88 247.208 164.68C247.008 164.467 246.754 164.3 246.448 164.18C246.141 164.06 245.781 164 245.368 164C244.954 164 244.594 164.06 244.288 164.18C243.981 164.3 243.721 164.467 243.508 164.68C243.308 164.88 243.148 165.12 243.028 165.4C242.921 165.68 242.854 165.987 242.828 166.32C242.801 166.547 242.781 166.807 242.768 167.1C242.768 167.38 242.768 167.673 242.768 167.98C242.768 168.287 242.768 168.587 242.768 168.88C242.781 169.173 242.801 169.44 242.828 169.68C242.881 170.347 243.108 170.9 243.508 171.34C243.921 171.78 244.541 172 245.368 172C246.194 172 246.808 171.78 247.208 171.34C247.608 170.9 247.841 170.347 247.908 169.68ZM263.043 175C262.816 175 262.63 174.94 262.483 174.82C262.35 174.7 262.263 174.607 262.223 174.54L257.643 167.7V174.46C257.643 174.607 257.59 174.733 257.483 174.84C257.376 174.947 257.25 175 257.103 175H254.483C254.336 175 254.21 174.947 254.103 174.84C253.996 174.733 253.943 174.607 253.943 174.46V161.54C253.943 161.393 253.996 161.267 254.103 161.16C254.21 161.053 254.336 161 254.483 161H256.563C256.79 161 256.97 161.06 257.103 161.18C257.25 161.3 257.343 161.393 257.383 161.46L261.963 168.3V161.54C261.963 161.393 262.016 161.267 262.123 161.16C262.23 161.053 262.356 161 262.503 161H265.123C265.27 161 265.396 161.053 265.503 161.16C265.61 161.267 265.663 161.393 265.663 161.54V174.46C265.663 174.607 265.61 174.733 265.503 174.84C265.396 174.947 265.27 175 265.123 175H263.043ZM273.233 175C273.086 175 272.96 174.947 272.853 174.84C272.746 174.733 272.693 174.607 272.693 174.46V161.54C272.693 161.393 272.746 161.267 272.853 161.16C272.96 161.053 273.086 161 273.233 161H279.673C280.566 161 281.32 161.127 281.933 161.38C282.546 161.62 283.033 161.94 283.393 162.34C283.766 162.727 284.033 163.173 284.193 163.68C284.353 164.173 284.433 164.667 284.433 165.16C284.433 165.547 284.386 165.887 284.293 166.18C284.213 166.46 284.113 166.707 283.993 166.92C283.873 167.12 283.746 167.287 283.613 167.42C283.493 167.54 283.393 167.633 283.313 167.7C283.833 168.06 284.193 168.48 284.393 168.96C284.606 169.427 284.713 169.993 284.713 170.66C284.713 171.207 284.633 171.74 284.473 172.26C284.313 172.78 284.046 173.247 283.673 173.66C283.313 174.06 282.84 174.387 282.253 174.64C281.666 174.88 280.946 175 280.093 175H273.233ZM280.713 165.24C280.713 164.893 280.606 164.62 280.393 164.42C280.193 164.207 279.893 164.1 279.493 164.1H276.393V166.38H279.493C279.893 166.38 280.193 166.28 280.393 166.08C280.606 165.867 280.713 165.587 280.713 165.24ZM276.393 171.9H279.693C280.093 171.9 280.413 171.787 280.653 171.56C280.893 171.32 281.013 171.027 281.013 170.68C281.013 170.333 280.893 170.047 280.653 169.82C280.413 169.58 280.093 169.46 279.693 169.46H276.393V171.9Z" fill="white"/>
<path d="M33.1776 43C33.0309 43 32.9063 42.9487 32.8036 42.846C32.7009 42.7433 32.6496 42.6187 32.6496 42.472V28.15C32.6496 27.9887 32.7009 27.8567 32.8036 27.754C32.9063 27.6513 33.0309 27.6 33.1776 27.6H38.5456C40.0269 27.6 41.2443 27.8273 42.1976 28.282C43.1656 28.7367 43.8916 29.4113 44.3756 30.306C44.8743 31.2007 45.1309 32.2933 45.1456 33.584C45.1749 34.2293 45.1896 34.8013 45.1896 35.3C45.1896 35.7987 45.1749 36.3633 45.1456 36.994C45.1163 38.358 44.8669 39.4873 44.3976 40.382C43.9283 41.262 43.2169 41.922 42.2636 42.362C41.3249 42.7873 40.1223 43 38.6556 43H33.1776ZM35.7076 40.47H38.5456C39.3669 40.47 40.0343 40.3527 40.5476 40.118C41.0609 39.8833 41.4349 39.5093 41.6696 38.996C41.9189 38.468 42.0509 37.7787 42.0656 36.928C42.0803 36.488 42.0876 36.1067 42.0876 35.784C42.1023 35.4467 42.1023 35.1167 42.0876 34.794C42.0876 34.4567 42.0803 34.0753 42.0656 33.65C42.0363 32.4473 41.7356 31.56 41.1636 30.988C40.5916 30.416 39.6823 30.13 38.4356 30.13H35.7076V40.47ZM54.0363 43.22C52.731 43.22 51.609 43.0073 50.6703 42.582C49.7317 42.142 48.9983 41.4747 48.4703 40.58C47.9423 39.6707 47.6563 38.5413 47.6123 37.192C47.5977 36.5613 47.5903 35.938 47.5903 35.322C47.5903 34.706 47.5977 34.0753 47.6123 33.43C47.6563 32.0953 47.9497 30.9807 48.4923 30.086C49.035 29.1913 49.7757 28.5167 50.7143 28.062C51.6677 27.6073 52.775 27.38 54.0363 27.38C55.2977 27.38 56.405 27.6073 57.3583 28.062C58.3117 28.5167 59.0597 29.1913 59.6023 30.086C60.145 30.9807 60.4383 32.0953 60.4823 33.43C60.5117 34.0753 60.5263 34.706 60.5263 35.322C60.5263 35.938 60.5117 36.5613 60.4823 37.192C60.4383 38.5413 60.1523 39.6707 59.6243 40.58C59.0963 41.4747 58.3557 42.142 57.4023 42.582C56.4637 43.0073 55.3417 43.22 54.0363 43.22ZM54.0363 40.69C54.9897 40.69 55.767 40.4113 56.3683 39.854C56.9697 39.282 57.2923 38.358 57.3363 37.082C57.3657 36.4367 57.3803 35.8427 57.3803 35.3C57.3803 34.7427 57.3657 34.1487 57.3363 33.518C57.307 32.6673 57.1457 31.978 56.8523 31.45C56.5737 30.9073 56.1923 30.5187 55.7083 30.284C55.2243 30.0347 54.667 29.91 54.0363 29.91C53.4203 29.91 52.8703 30.0347 52.3863 30.284C51.9023 30.5187 51.5137 30.9073 51.2203 31.45C50.9417 31.978 50.7877 32.6673 50.7583 33.518C50.7437 34.1487 50.7363 34.7427 50.7363 35.3C50.7363 35.8427 50.7437 36.4367 50.7583 37.082C50.8023 38.358 51.125 39.282 51.7263 39.854C52.3277 40.4113 53.0977 40.69 54.0363 40.69ZM68.9706 43C68.8239 43 68.6992 42.9487 68.5966 42.846C68.4939 42.7433 68.4426 42.6187 68.4426 42.472V28.15C68.4426 27.9887 68.4939 27.8567 68.5966 27.754C68.6992 27.6513 68.8239 27.6 68.9706 27.6H70.6646C70.8699 27.6 71.0166 27.6513 71.1046 27.754C71.2072 27.842 71.2732 27.908 71.3026 27.952L77.6386 37.808V28.15C77.6386 27.9887 77.6826 27.8567 77.7706 27.754C77.8732 27.6513 78.0052 27.6 78.1666 27.6H80.0146C80.1759 27.6 80.3079 27.6513 80.4106 27.754C80.5132 27.8567 80.5646 27.9887 80.5646 28.15V42.45C80.5646 42.6113 80.5132 42.7433 80.4106 42.846C80.3079 42.9487 80.1832 43 80.0366 43H78.3206C78.1152 43 77.9686 42.9487 77.8806 42.846C77.7926 42.7433 77.7266 42.6773 77.6826 42.648L71.3686 33.012V42.472C71.3686 42.6187 71.3172 42.7433 71.2146 42.846C71.1119 42.9487 70.9799 43 70.8186 43H68.9706ZM89.9153 43.22C88.6099 43.22 87.4879 43.0073 86.5493 42.582C85.6106 42.142 84.8773 41.4747 84.3493 40.58C83.8213 39.6707 83.5353 38.5413 83.4913 37.192C83.4766 36.5613 83.4693 35.938 83.4693 35.322C83.4693 34.706 83.4766 34.0753 83.4913 33.43C83.5353 32.0953 83.8286 30.9807 84.3713 30.086C84.9139 29.1913 85.6546 28.5167 86.5933 28.062C87.5466 27.6073 88.6539 27.38 89.9153 27.38C91.1766 27.38 92.2839 27.6073 93.2373 28.062C94.1906 28.5167 94.9386 29.1913 95.4813 30.086C96.0239 30.9807 96.3173 32.0953 96.3613 33.43C96.3906 34.0753 96.4053 34.706 96.4053 35.322C96.4053 35.938 96.3906 36.5613 96.3613 37.192C96.3173 38.5413 96.0313 39.6707 95.5033 40.58C94.9753 41.4747 94.2346 42.142 93.2812 42.582C92.3426 43.0073 91.2206 43.22 89.9153 43.22ZM89.9153 40.69C90.8686 40.69 91.6459 40.4113 92.2473 39.854C92.8486 39.282 93.1713 38.358 93.2153 37.082C93.2446 36.4367 93.2593 35.8427 93.2593 35.3C93.2593 34.7427 93.2446 34.1487 93.2153 33.518C93.1859 32.6673 93.0246 31.978 92.7313 31.45C92.4526 30.9073 92.0713 30.5187 91.5873 30.284C91.1033 30.0347 90.5459 29.91 89.9153 29.91C89.2993 29.91 88.7493 30.0347 88.2653 30.284C87.7813 30.5187 87.3926 30.9073 87.0993 31.45C86.8206 31.978 86.6666 32.6673 86.6373 33.518C86.6226 34.1487 86.6153 34.7427 86.6153 35.3C86.6153 35.8427 86.6226 36.4367 86.6373 37.082C86.6813 38.358 87.0039 39.282 87.6053 39.854C88.2066 40.4113 88.9766 40.69 89.9153 40.69ZM102.931 43C102.784 43 102.659 42.9487 102.557 42.846C102.454 42.7433 102.403 42.6187 102.403 42.472V30.306H98.3328C98.1862 30.306 98.0615 30.2547 97.9588 30.152C97.8562 30.0493 97.8048 29.9247 97.8048 29.778V28.15C97.8048 27.9887 97.8562 27.8567 97.9588 27.754C98.0615 27.6513 98.1862 27.6 98.3328 27.6H109.553C109.714 27.6 109.846 27.6513 109.949 27.754C110.051 27.8567 110.103 27.9887 110.103 28.15V29.778C110.103 29.9247 110.051 30.0493 109.949 30.152C109.846 30.2547 109.714 30.306 109.553 30.306H105.505V42.472C105.505 42.6187 105.453 42.7433 105.351 42.846C105.248 42.9487 105.116 43 104.955 43H102.931ZM117.353 43C117.207 43 117.082 42.9487 116.979 42.846C116.877 42.7433 116.825 42.6187 116.825 42.472V28.15C116.825 27.9887 116.877 27.8567 116.979 27.754C117.082 27.6513 117.207 27.6 117.353 27.6H123.051C124.826 27.6 126.227 28.0107 127.253 28.832C128.28 29.6533 128.793 30.8487 128.793 32.418C128.793 33.5033 128.522 34.4053 127.979 35.124C127.451 35.8427 126.74 36.3633 125.845 36.686L129.057 42.296C129.101 42.384 129.123 42.4647 129.123 42.538C129.123 42.67 129.072 42.78 128.969 42.868C128.881 42.956 128.779 43 128.661 43H126.659C126.41 43 126.219 42.934 126.087 42.802C125.955 42.67 125.853 42.538 125.779 42.406L122.941 37.192H119.883V42.472C119.883 42.6187 119.832 42.7433 119.729 42.846C119.641 42.9487 119.517 43 119.355 43H117.353ZM119.883 34.706H122.985C123.88 34.706 124.547 34.508 124.987 34.112C125.427 33.7013 125.647 33.1293 125.647 32.396C125.647 31.6627 125.427 31.0907 124.987 30.68C124.562 30.2547 123.895 30.042 122.985 30.042H119.883V34.706ZM132.156 43C132.009 43 131.885 42.9487 131.782 42.846C131.679 42.7433 131.628 42.6187 131.628 42.472V28.15C131.628 27.9887 131.679 27.8567 131.782 27.754C131.885 27.6513 132.009 27.6 132.156 27.6H141.836C141.997 27.6 142.129 27.6513 142.232 27.754C142.335 27.8567 142.386 27.9887 142.386 28.15V29.602C142.386 29.7487 142.335 29.8733 142.232 29.976C142.129 30.0787 141.997 30.13 141.836 30.13H134.598V34.024H141.352C141.513 34.024 141.645 34.0753 141.748 34.178C141.851 34.266 141.902 34.3907 141.902 34.552V35.916C141.902 36.0773 141.851 36.2093 141.748 36.312C141.645 36.4 141.513 36.444 141.352 36.444H134.598V40.47H142.012C142.173 40.47 142.305 40.5213 142.408 40.624C142.511 40.7267 142.562 40.8587 142.562 41.02V42.472C142.562 42.6187 142.511 42.7433 142.408 42.846C142.305 42.9487 142.173 43 142.012 43H132.156ZM145.842 43C145.695 43 145.57 42.9487 145.468 42.846C145.365 42.7433 145.314 42.6187 145.314 42.472V28.15C145.314 27.9887 145.365 27.8567 145.468 27.754C145.57 27.6513 145.695 27.6 145.842 27.6H155.39C155.551 27.6 155.683 27.6513 155.786 27.754C155.888 27.8567 155.94 27.9887 155.94 28.15V29.69C155.94 29.8513 155.888 29.9833 155.786 30.086C155.683 30.174 155.551 30.218 155.39 30.218H148.328V34.398H154.95C155.111 34.398 155.243 34.4493 155.346 34.552C155.448 34.6547 155.5 34.7867 155.5 34.948V36.488C155.5 36.6347 155.448 36.7593 155.346 36.862C155.243 36.9647 155.111 37.016 154.95 37.016H148.328V42.472C148.328 42.6187 148.276 42.7433 148.174 42.846C148.071 42.9487 147.939 43 147.778 43H145.842ZM164.665 43.22C163.389 43.22 162.281 43.0073 161.343 42.582C160.404 42.142 159.678 41.4747 159.165 40.58C158.651 39.6707 158.395 38.512 158.395 37.104V28.15C158.395 27.9887 158.446 27.8567 158.549 27.754C158.651 27.6513 158.776 27.6 158.923 27.6H160.925C161.086 27.6 161.211 27.6513 161.299 27.754C161.401 27.8567 161.453 27.9887 161.453 28.15V37.104C161.453 38.3067 161.739 39.2013 162.311 39.788C162.883 40.36 163.667 40.646 164.665 40.646C165.662 40.646 166.439 40.36 166.997 39.788C167.569 39.2013 167.855 38.3067 167.855 37.104V28.15C167.855 27.9887 167.906 27.8567 168.009 27.754C168.111 27.6513 168.243 27.6 168.405 27.6H170.385C170.546 27.6 170.671 27.6513 170.759 27.754C170.861 27.8567 170.913 27.9887 170.913 28.15V37.104C170.913 38.512 170.656 39.6707 170.143 40.58C169.644 41.4747 168.925 42.142 167.987 42.582C167.063 43.0073 165.955 43.22 164.665 43.22ZM179.556 43.22C178.192 43.22 177.048 43.022 176.124 42.626C175.215 42.2153 174.518 41.6873 174.034 41.042C173.565 40.382 173.315 39.6927 173.286 38.974C173.286 38.842 173.33 38.732 173.418 38.644C173.506 38.556 173.616 38.512 173.748 38.512H175.706C175.897 38.512 176.036 38.556 176.124 38.644C176.227 38.7173 176.315 38.8127 176.388 38.93C176.476 39.2087 176.645 39.4873 176.894 39.766C177.143 40.03 177.481 40.25 177.906 40.426C178.346 40.602 178.896 40.69 179.556 40.69C180.612 40.69 181.397 40.514 181.91 40.162C182.438 39.81 182.702 39.3333 182.702 38.732C182.702 38.3067 182.563 37.9693 182.284 37.72C182.005 37.456 181.573 37.2213 180.986 37.016C180.414 36.796 179.651 36.5687 178.698 36.334C177.598 36.07 176.674 35.7547 175.926 35.388C175.193 35.0067 174.635 34.53 174.254 33.958C173.887 33.386 173.704 32.66 173.704 31.78C173.704 30.9293 173.931 30.174 174.386 29.514C174.855 28.854 175.515 28.3333 176.366 27.952C177.231 27.5707 178.258 27.38 179.446 27.38C180.399 27.38 181.243 27.512 181.976 27.776C182.709 28.0253 183.318 28.3627 183.802 28.788C184.286 29.1987 184.653 29.646 184.902 30.13C185.166 30.5993 185.305 31.0613 185.32 31.516C185.32 31.6333 185.276 31.7433 185.188 31.846C185.115 31.934 185.005 31.978 184.858 31.978H182.812C182.695 31.978 182.577 31.9487 182.46 31.89C182.343 31.8313 182.247 31.7213 182.174 31.56C182.086 31.1053 181.8 30.7167 181.316 30.394C180.832 30.0713 180.209 29.91 179.446 29.91C178.654 29.91 178.016 30.0567 177.532 30.35C177.048 30.6433 176.806 31.098 176.806 31.714C176.806 32.1247 176.923 32.4693 177.158 32.748C177.407 33.012 177.796 33.2467 178.324 33.452C178.867 33.6573 179.578 33.8773 180.458 34.112C181.705 34.3907 182.724 34.7133 183.516 35.08C184.308 35.4467 184.887 35.916 185.254 36.488C185.621 37.0453 185.804 37.7567 185.804 38.622C185.804 39.59 185.54 40.4187 185.012 41.108C184.499 41.7827 183.773 42.3033 182.834 42.67C181.895 43.0367 180.803 43.22 179.556 43.22ZM188.853 43C188.707 43 188.582 42.9487 188.479 42.846C188.377 42.7433 188.325 42.6187 188.325 42.472V28.15C188.325 27.9887 188.377 27.8567 188.479 27.754C188.582 27.6513 188.707 27.6 188.853 27.6H198.533C198.695 27.6 198.827 27.6513 198.929 27.754C199.032 27.8567 199.083 27.9887 199.083 28.15V29.602C199.083 29.7487 199.032 29.8733 198.929 29.976C198.827 30.0787 198.695 30.13 198.533 30.13H191.295V34.024H198.049C198.211 34.024 198.343 34.0753 198.445 34.178C198.548 34.266 198.599 34.3907 198.599 34.552V35.916C198.599 36.0773 198.548 36.2093 198.445 36.312C198.343 36.4 198.211 36.444 198.049 36.444H191.295V40.47H198.709C198.871 40.47 199.003 40.5213 199.105 40.624C199.208 40.7267 199.259 40.8587 199.259 41.02V42.472C199.259 42.6187 199.208 42.7433 199.105 42.846C199.003 42.9487 198.871 43 198.709 43H188.853ZM201.615 44.65C201.483 44.65 201.38 44.606 201.307 44.518C201.234 44.43 201.204 44.32 201.219 44.188L201.813 40.448C201.842 40.2573 201.908 40.096 202.011 39.964C202.128 39.8173 202.297 39.744 202.517 39.744H204.541C204.658 39.744 204.754 39.788 204.827 39.876C204.9 39.9493 204.937 40.0447 204.937 40.162C204.937 40.2647 204.915 40.36 204.871 40.448L203.463 44.1C203.404 44.2467 203.316 44.3713 203.199 44.474C203.096 44.5913 202.942 44.65 202.737 44.65H201.615ZM213.367 43C213.22 43 213.096 42.9487 212.993 42.846C212.89 42.7433 212.839 42.6187 212.839 42.472V28.15C212.839 27.9887 212.89 27.8567 212.993 27.754C213.096 27.6513 213.22 27.6 213.367 27.6H219.747C220.935 27.6 221.903 27.7833 222.651 28.15C223.399 28.502 223.949 28.9933 224.301 29.624C224.668 30.2547 224.851 30.988 224.851 31.824C224.851 32.3813 224.748 32.8727 224.543 33.298C224.352 33.7087 224.11 34.046 223.817 34.31C223.538 34.574 223.26 34.7793 222.981 34.926C223.553 35.19 224.059 35.63 224.499 36.246C224.939 36.862 225.159 37.5953 225.159 38.446C225.159 39.326 224.961 40.1107 224.565 40.8C224.169 41.4893 223.582 42.032 222.805 42.428C222.028 42.8093 221.067 43 219.923 43H213.367ZM215.897 40.668H219.571C220.363 40.668 220.964 40.4553 221.375 40.03C221.786 39.59 221.991 39.062 221.991 38.446C221.991 37.8007 221.778 37.2653 221.353 36.84C220.942 36.4147 220.348 36.202 219.571 36.202H215.897V40.668ZM215.897 33.914H219.351C220.128 33.914 220.708 33.7307 221.089 33.364C221.485 32.9827 221.683 32.4913 221.683 31.89C221.683 31.274 221.485 30.7973 221.089 30.46C220.708 30.108 220.128 29.932 219.351 29.932H215.897V33.914ZM234.059 43.22C232.783 43.22 231.676 43.0073 230.737 42.582C229.798 42.142 229.072 41.4747 228.559 40.58C228.046 39.6707 227.789 38.512 227.789 37.104V28.15C227.789 27.9887 227.84 27.8567 227.943 27.754C228.046 27.6513 228.17 27.6 228.317 27.6H230.319C230.48 27.6 230.605 27.6513 230.693 27.754C230.796 27.8567 230.847 27.9887 230.847 28.15V37.104C230.847 38.3067 231.133 39.2013 231.705 39.788C232.277 40.36 233.062 40.646 234.059 40.646C235.056 40.646 235.834 40.36 236.391 39.788C236.963 39.2013 237.249 38.3067 237.249 37.104V28.15C237.249 27.9887 237.3 27.8567 237.403 27.754C237.506 27.6513 237.638 27.6 237.799 27.6H239.779C239.94 27.6 240.065 27.6513 240.153 27.754C240.256 27.8567 240.307 27.9887 240.307 28.15V37.104C240.307 38.512 240.05 39.6707 239.537 40.58C239.038 41.4747 238.32 42.142 237.381 42.582C236.457 43.0073 235.35 43.22 234.059 43.22ZM247.521 43C247.374 43 247.249 42.9487 247.147 42.846C247.044 42.7433 246.993 42.6187 246.993 42.472V30.306H242.923C242.776 30.306 242.651 30.2547 242.549 30.152C242.446 30.0493 242.395 29.9247 242.395 29.778V28.15C242.395 27.9887 242.446 27.8567 242.549 27.754C242.651 27.6513 242.776 27.6 242.923 27.6H254.143C254.304 27.6 254.436 27.6513 254.539 27.754C254.641 27.8567 254.693 27.9887 254.693 28.15V29.778C254.693 29.9247 254.641 30.0493 254.539 30.152C254.436 30.2547 254.304 30.306 254.143 30.306H250.095V42.472C250.095 42.6187 250.043 42.7433 249.941 42.846C249.838 42.9487 249.706 43 249.545 43H247.521ZM261.943 43C261.797 43 261.672 42.9487 261.569 42.846C261.467 42.7433 261.415 42.6187 261.415 42.472V28.15C261.415 27.9887 261.467 27.8567 261.569 27.754C261.672 27.6513 261.797 27.6 261.943 27.6H267.839C268.983 27.6 269.981 27.7833 270.831 28.15C271.682 28.502 272.342 29.0447 272.811 29.778C273.281 30.4967 273.515 31.3987 273.515 32.484C273.515 33.584 273.281 34.4933 272.811 35.212C272.342 35.916 271.682 36.444 270.831 36.796C269.981 37.148 268.983 37.324 267.839 37.324H264.561V42.472C264.561 42.6187 264.51 42.7433 264.407 42.846C264.319 42.9487 264.195 43 264.033 43H261.943ZM264.517 34.882H267.729C268.58 34.882 269.233 34.684 269.687 34.288C270.142 33.8773 270.369 33.276 270.369 32.484C270.369 31.7507 270.157 31.164 269.731 30.724C269.306 30.2693 268.639 30.042 267.729 30.042H264.517V34.882ZM276.445 43C276.299 43 276.174 42.9487 276.071 42.846C275.969 42.7433 275.917 42.6187 275.917 42.472V28.15C275.917 27.9887 275.969 27.8567 276.071 27.754C276.174 27.6513 276.299 27.6 276.445 27.6H282.143C283.918 27.6 285.319 28.0107 286.345 28.832C287.372 29.6533 287.885 30.8487 287.885 32.418C287.885 33.5033 287.614 34.4053 287.071 35.124C286.543 35.8427 285.832 36.3633 284.937 36.686L288.149 42.296C288.193 42.384 288.215 42.4647 288.215 42.538C288.215 42.67 288.164 42.78 288.061 42.868C287.973 42.956 287.871 43 287.753 43H285.751C285.502 43 285.311 42.934 285.179 42.802C285.047 42.67 284.945 42.538 284.871 42.406L282.033 37.192H278.975V42.472C278.975 42.6187 278.924 42.7433 278.821 42.846C278.733 42.9487 278.609 43 278.447 43H276.445ZM278.975 34.706H282.077C282.972 34.706 283.639 34.508 284.079 34.112C284.519 33.7013 284.739 33.1293 284.739 32.396C284.739 31.6627 284.519 31.0907 284.079 30.68C283.654 30.2547 282.987 30.042 282.077 30.042H278.975V34.706ZM296.595 43.22C295.29 43.22 294.168 43.0073 293.229 42.582C292.29 42.142 291.557 41.4747 291.029 40.58C290.501 39.6707 290.215 38.5413 290.171 37.192C290.156 36.5613 290.149 35.938 290.149 35.322C290.149 34.706 290.156 34.0753 290.171 33.43C290.215 32.0953 290.508 30.9807 291.051 30.086C291.594 29.1913 292.334 28.5167 293.273 28.062C294.226 27.6073 295.334 27.38 296.595 27.38C297.856 27.38 298.964 27.6073 299.917 28.062C300.87 28.5167 301.618 29.1913 302.161 30.086C302.704 30.9807 302.997 32.0953 303.041 33.43C303.07 34.0753 303.085 34.706 303.085 35.322C303.085 35.938 303.07 36.5613 303.041 37.192C302.997 38.5413 302.711 39.6707 302.183 40.58C301.655 41.4747 300.914 42.142 299.961 42.582C299.022 43.0073 297.9 43.22 296.595 43.22ZM296.595 40.69C297.548 40.69 298.326 40.4113 298.927 39.854C299.528 39.282 299.851 38.358 299.895 37.082C299.924 36.4367 299.939 35.8427 299.939 35.3C299.939 34.7427 299.924 34.1487 299.895 33.518C299.866 32.6673 299.704 31.978 299.411 31.45C299.132 30.9073 298.751 30.5187 298.267 30.284C297.783 30.0347 297.226 29.91 296.595 29.91C295.979 29.91 295.429 30.0347 294.945 30.284C294.461 30.5187 294.072 30.9073 293.779 31.45C293.5 31.978 293.346 32.6673 293.317 33.518C293.302 34.1487 293.295 34.7427 293.295 35.3C293.295 35.8427 293.302 36.4367 293.317 37.082C293.361 38.358 293.684 39.282 294.285 39.854C294.886 40.4113 295.656 40.69 296.595 40.69ZM311.914 43.22C310.55 43.22 309.391 42.9853 308.438 42.516C307.499 42.032 306.78 41.35 306.282 40.47C305.783 39.5753 305.504 38.5047 305.446 37.258C305.431 36.6567 305.424 36.0113 305.424 35.322C305.424 34.6327 305.431 33.9727 305.446 33.342C305.504 32.11 305.783 31.0467 306.282 30.152C306.795 29.2573 307.521 28.5753 308.46 28.106C309.413 27.622 310.564 27.38 311.914 27.38C312.911 27.38 313.806 27.512 314.598 27.776C315.39 28.04 316.064 28.4067 316.622 28.876C317.179 29.3307 317.612 29.866 317.92 30.482C318.228 31.098 318.389 31.7653 318.404 32.484C318.418 32.616 318.374 32.726 318.272 32.814C318.184 32.902 318.074 32.946 317.942 32.946H315.852C315.69 32.946 315.558 32.9093 315.456 32.836C315.353 32.748 315.28 32.6087 315.236 32.418C315.001 31.45 314.598 30.79 314.026 30.438C313.454 30.086 312.742 29.91 311.892 29.91C310.909 29.91 310.124 30.1887 309.538 30.746C308.951 31.2887 308.636 32.1907 308.592 33.452C308.548 34.6547 308.548 35.8867 308.592 37.148C308.636 38.4093 308.951 39.3187 309.538 39.876C310.124 40.4187 310.909 40.69 311.892 40.69C312.742 40.69 313.454 40.514 314.026 40.162C314.598 39.7953 315.001 39.1353 315.236 38.182C315.28 37.9767 315.353 37.8373 315.456 37.764C315.558 37.6907 315.69 37.654 315.852 37.654H317.942C318.074 37.654 318.184 37.698 318.272 37.786C318.374 37.874 318.418 37.984 318.404 38.116C318.389 38.8347 318.228 39.502 317.92 40.118C317.612 40.734 317.179 41.2767 316.622 41.746C316.064 42.2007 315.39 42.56 314.598 42.824C313.806 43.088 312.911 43.22 311.914 43.22ZM321.541 43C321.394 43 321.27 42.9487 321.167 42.846C321.064 42.7433 321.013 42.6187 321.013 42.472V28.15C321.013 27.9887 321.064 27.8567 321.167 27.754C321.27 27.6513 321.394 27.6 321.541 27.6H327.239C329.014 27.6 330.414 28.0107 331.441 28.832C332.468 29.6533 332.981 30.8487 332.981 32.418C332.981 33.5033 332.71 34.4053 332.167 35.124C331.639 35.8427 330.928 36.3633 330.033 36.686L333.245 42.296C333.289 42.384 333.311 42.4647 333.311 42.538C333.311 42.67 333.26 42.78 333.157 42.868C333.069 42.956 332.966 43 332.849 43H330.847C330.598 43 330.407 42.934 330.275 42.802C330.143 42.67 330.04 42.538 329.967 42.406L327.129 37.192H324.071V42.472C324.071 42.6187 324.02 42.7433 323.917 42.846C323.829 42.9487 323.704 43 323.543 43H321.541ZM324.071 34.706H327.173C328.068 34.706 328.735 34.508 329.175 34.112C329.615 33.7013 329.835 33.1293 329.835 32.396C329.835 31.6627 329.615 31.0907 329.175 30.68C328.75 30.2547 328.082 30.042 327.173 30.042H324.071V34.706ZM334.87 43C334.752 43 334.642 42.956 334.54 42.868C334.452 42.78 334.408 42.67 334.408 42.538C334.408 42.4793 334.422 42.4133 334.452 42.34L339.754 28.15C339.798 28.0033 339.878 27.8787 339.996 27.776C340.128 27.6587 340.304 27.6 340.524 27.6H342.922C343.142 27.6 343.31 27.6587 343.428 27.776C343.545 27.8787 343.633 28.0033 343.692 28.15L348.994 42.34C349.008 42.4133 349.016 42.4793 349.016 42.538C349.016 42.67 348.972 42.78 348.884 42.868C348.796 42.956 348.693 43 348.576 43H346.662C346.456 43 346.302 42.956 346.2 42.868C346.112 42.7653 346.053 42.67 346.024 42.582L344.99 39.898H338.456L337.422 42.582C337.392 42.67 337.326 42.7653 337.224 42.868C337.136 42.956 336.989 43 336.784 43H334.87ZM339.226 37.368H344.22L341.712 30.57L339.226 37.368ZM356.201 43.22C354.837 43.22 353.693 43.022 352.769 42.626C351.859 42.2153 351.163 41.6873 350.679 41.042C350.209 40.382 349.96 39.6927 349.931 38.974C349.931 38.842 349.975 38.732 350.063 38.644C350.151 38.556 350.261 38.512 350.393 38.512H352.351C352.541 38.512 352.681 38.556 352.769 38.644C352.871 38.7173 352.959 38.8127 353.033 38.93C353.121 39.2087 353.289 39.4873 353.539 39.766C353.788 40.03 354.125 40.25 354.551 40.426C354.991 40.602 355.541 40.69 356.201 40.69C357.257 40.69 358.041 40.514 358.555 40.162C359.083 39.81 359.347 39.3333 359.347 38.732C359.347 38.3067 359.207 37.9693 358.929 37.72C358.65 37.456 358.217 37.2213 357.631 37.016C357.059 36.796 356.296 36.5687 355.343 36.334C354.243 36.07 353.319 35.7547 352.571 35.388C351.837 35.0067 351.28 34.53 350.899 33.958C350.532 33.386 350.349 32.66 350.349 31.78C350.349 30.9293 350.576 30.174 351.031 29.514C351.5 28.854 352.16 28.3333 353.011 27.952C353.876 27.5707 354.903 27.38 356.091 27.38C357.044 27.38 357.887 27.512 358.621 27.776C359.354 28.0253 359.963 28.3627 360.447 28.788C360.931 29.1987 361.297 29.646 361.547 30.13C361.811 30.5993 361.95 31.0613 361.965 31.516C361.965 31.6333 361.921 31.7433 361.833 31.846C361.759 31.934 361.649 31.978 361.503 31.978H359.457C359.339 31.978 359.222 31.9487 359.105 31.89C358.987 31.8313 358.892 31.7213 358.819 31.56C358.731 31.1053 358.445 30.7167 357.961 30.394C357.477 30.0713 356.853 29.91 356.091 29.91C355.299 29.91 354.661 30.0567 354.177 30.35C353.693 30.6433 353.451 31.098 353.451 31.714C353.451 32.1247 353.568 32.4693 353.803 32.748C354.052 33.012 354.441 33.2467 354.969 33.452C355.511 33.6573 356.223 33.8773 357.103 34.112C358.349 34.3907 359.369 34.7133 360.161 35.08C360.953 35.4467 361.532 35.916 361.899 36.488C362.265 37.0453 362.449 37.7567 362.449 38.622C362.449 39.59 362.185 40.4187 361.657 41.108C361.143 41.7827 360.417 42.3033 359.479 42.67C358.54 43.0367 357.447 43.22 356.201 43.22ZM368.714 43C368.567 43 368.443 42.9487 368.34 42.846C368.237 42.7433 368.186 42.6187 368.186 42.472V30.306H364.116C363.969 30.306 363.845 30.2547 363.742 30.152C363.639 30.0493 363.588 29.9247 363.588 29.778V28.15C363.588 27.9887 363.639 27.8567 363.742 27.754C363.845 27.6513 363.969 27.6 364.116 27.6H375.336C375.497 27.6 375.629 27.6513 375.732 27.754C375.835 27.8567 375.886 27.9887 375.886 28.15V29.778C375.886 29.9247 375.835 30.0493 375.732 30.152C375.629 30.2547 375.497 30.306 375.336 30.306H371.288V42.472C371.288 42.6187 371.237 42.7433 371.134 42.846C371.031 42.9487 370.899 43 370.738 43H368.714ZM378.646 43C378.5 43 378.375 42.9487 378.272 42.846C378.17 42.7433 378.118 42.6187 378.118 42.472V28.128C378.118 27.9813 378.17 27.8567 378.272 27.754C378.375 27.6513 378.5 27.6 378.646 27.6H380.714C380.876 27.6 381 27.6513 381.088 27.754C381.191 27.8567 381.242 27.9813 381.242 28.128V42.472C381.242 42.6187 381.191 42.7433 381.088 42.846C381 42.9487 380.876 43 380.714 43H378.646ZM385.221 43C385.074 43 384.949 42.9487 384.847 42.846C384.744 42.7433 384.693 42.6187 384.693 42.472V28.15C384.693 27.9887 384.744 27.8567 384.847 27.754C384.949 27.6513 385.074 27.6 385.221 27.6H386.915C387.12 27.6 387.267 27.6513 387.355 27.754C387.457 27.842 387.523 27.908 387.553 27.952L393.889 37.808V28.15C393.889 27.9887 393.933 27.8567 394.021 27.754C394.123 27.6513 394.255 27.6 394.417 27.6H396.265C396.426 27.6 396.558 27.6513 396.661 27.754C396.763 27.8567 396.815 27.9887 396.815 28.15V42.45C396.815 42.6113 396.763 42.7433 396.661 42.846C396.558 42.9487 396.433 43 396.287 43H394.571C394.365 43 394.219 42.9487 394.131 42.846C394.043 42.7433 393.977 42.6773 393.933 42.648L387.619 33.012V42.472C387.619 42.6187 387.567 42.7433 387.465 42.846C387.362 42.9487 387.23 43 387.069 43H385.221ZM399.301 43C399.184 43 399.074 42.956 398.971 42.868C398.883 42.78 398.839 42.67 398.839 42.538C398.839 42.4793 398.854 42.4133 398.883 42.34L404.185 28.15C404.229 28.0033 404.31 27.8787 404.427 27.776C404.559 27.6587 404.735 27.6 404.955 27.6H407.353C407.573 27.6 407.742 27.6587 407.859 27.776C407.977 27.8787 408.065 28.0033 408.123 28.15L413.425 42.34C413.44 42.4133 413.447 42.4793 413.447 42.538C413.447 42.67 413.403 42.78 413.315 42.868C413.227 42.956 413.125 43 413.007 43H411.093C410.888 43 410.734 42.956 410.631 42.868C410.543 42.7653 410.485 42.67 410.455 42.582L409.421 39.898H402.887L401.853 42.582C401.824 42.67 401.758 42.7653 401.655 42.868C401.567 42.956 401.421 43 401.215 43H399.301ZM403.657 37.368H408.651L406.143 30.57L403.657 37.368ZM417.806 43C417.659 43 417.534 42.9487 417.432 42.846C417.329 42.7433 417.278 42.6187 417.278 42.472V30.306H413.208C413.061 30.306 412.936 30.2547 412.834 30.152C412.731 30.0493 412.68 29.9247 412.68 29.778V28.15C412.68 27.9887 412.731 27.8567 412.834 27.754C412.936 27.6513 413.061 27.6 413.208 27.6H424.428C424.589 27.6 424.721 27.6513 424.824 27.754C424.926 27.8567 424.978 27.9887 424.978 28.15V29.778C424.978 29.9247 424.926 30.0493 424.824 30.152C424.721 30.2547 424.589 30.306 424.428 30.306H420.38V42.472C420.38 42.6187 420.328 42.7433 420.226 42.846C420.123 42.9487 419.991 43 419.83 43H417.806ZM427.738 43C427.591 43 427.467 42.9487 427.364 42.846C427.261 42.7433 427.21 42.6187 427.21 42.472V28.15C427.21 27.9887 427.261 27.8567 427.364 27.754C427.467 27.6513 427.591 27.6 427.738 27.6H437.418C437.579 27.6 437.711 27.6513 437.814 27.754C437.917 27.8567 437.968 27.9887 437.968 28.15V29.602C437.968 29.7487 437.917 29.8733 437.814 29.976C437.711 30.0787 437.579 30.13 437.418 30.13H430.18V34.024H436.934C437.095 34.024 437.227 34.0753 437.33 34.178C437.433 34.266 437.484 34.3907 437.484 34.552V35.916C437.484 36.0773 437.433 36.2093 437.33 36.312C437.227 36.4 437.095 36.444 436.934 36.444H430.18V40.47H437.594C437.755 40.47 437.887 40.5213 437.99 40.624C438.093 40.7267 438.144 40.8587 438.144 41.02V42.472C438.144 42.6187 438.093 42.7433 437.99 42.846C437.887 42.9487 437.755 43 437.594 43H427.738ZM441.028 43C440.881 43 440.756 42.9487 440.654 42.846C440.551 42.7433 440.5 42.6187 440.5 42.472V40.294C440.5 40.1327 440.551 40.0007 440.654 39.898C440.756 39.7953 440.881 39.744 441.028 39.744H443.228C443.374 39.744 443.499 39.7953 443.602 39.898C443.704 40.0007 443.756 40.1327 443.756 40.294V42.472C443.756 42.6187 443.704 42.7433 443.602 42.846C443.499 42.9487 443.374 43 443.228 43H441.028ZM60.8107 69C60.664 69 60.5394 68.9487 60.4367 68.846C60.334 68.7433 60.2827 68.6187 60.2827 68.472V56.306H56.2127C56.066 56.306 55.9414 56.2547 55.8387 56.152C55.736 56.0493 55.6847 55.9247 55.6847 55.778V54.15C55.6847 53.9887 55.736 53.8567 55.8387 53.754C55.9414 53.6513 56.066 53.6 56.2127 53.6H67.4327C67.594 53.6 67.726 53.6513 67.8287 53.754C67.9314 53.8567 67.9827 53.9887 67.9827 54.15V55.778C67.9827 55.9247 67.9314 56.0493 67.8287 56.152C67.726 56.2547 67.594 56.306 67.4327 56.306H63.3847V68.472C63.3847 68.6187 63.3334 68.7433 63.2307 68.846C63.128 68.9487 62.996 69 62.8347 69H60.8107ZM70.743 69C70.5964 69 70.4717 68.956 70.369 68.868C70.2664 68.7653 70.215 68.6333 70.215 68.472V54.15C70.215 53.9887 70.2664 53.8567 70.369 53.754C70.4717 53.6513 70.5964 53.6 70.743 53.6H72.745C72.9064 53.6 73.031 53.6513 73.119 53.754C73.2217 53.8567 73.273 53.9887 73.273 54.15V59.826H79.763V54.15C79.763 53.9887 79.8144 53.8567 79.917 53.754C80.0197 53.6513 80.1444 53.6 80.291 53.6H82.271C82.4324 53.6 82.5644 53.6513 82.667 53.754C82.7697 53.8567 82.821 53.9887 82.821 54.15V68.472C82.821 68.6187 82.7697 68.7433 82.667 68.846C82.5644 68.9487 82.4324 69 82.271 69H80.291C80.1444 69 80.0197 68.9487 79.917 68.846C79.8144 68.7433 79.763 68.6187 79.763 68.472V62.576H73.273V68.472C73.273 68.6187 73.2217 68.7433 73.119 68.846C73.031 68.9487 72.9064 69 72.745 69H70.743ZM86.7704 69C86.6237 69 86.499 68.9487 86.3964 68.846C86.2937 68.7433 86.2424 68.6187 86.2424 68.472V54.15C86.2424 53.9887 86.2937 53.8567 86.3964 53.754C86.499 53.6513 86.6237 53.6 86.7704 53.6H96.4504C96.6117 53.6 96.7437 53.6513 96.8464 53.754C96.949 53.8567 97.0004 53.9887 97.0004 54.15V55.602C97.0004 55.7487 96.949 55.8733 96.8464 55.976C96.7437 56.0787 96.6117 56.13 96.4504 56.13H89.2124V60.024H95.9664C96.1277 60.024 96.2597 60.0753 96.3624 60.178C96.465 60.266 96.5164 60.3907 96.5164 60.552V61.916C96.5164 62.0773 96.465 62.2093 96.3624 62.312C96.2597 62.4 96.1277 62.444 95.9664 62.444H89.2124V66.47H96.6264C96.7877 66.47 96.9197 66.5213 97.0224 66.624C97.125 66.7267 97.1764 66.8587 97.1764 67.02V68.472C97.1764 68.6187 97.125 68.7433 97.0224 68.846C96.9197 68.9487 96.7877 69 96.6264 69H86.7704ZM110.301 69.22C108.937 69.22 107.793 69.022 106.869 68.626C105.96 68.2153 105.263 67.6873 104.779 67.042C104.31 66.382 104.061 65.6927 104.031 64.974C104.031 64.842 104.075 64.732 104.163 64.644C104.251 64.556 104.361 64.512 104.493 64.512H106.451C106.642 64.512 106.781 64.556 106.869 64.644C106.972 64.7173 107.06 64.8127 107.133 64.93C107.221 65.2087 107.39 65.4873 107.639 65.766C107.889 66.03 108.226 66.25 108.651 66.426C109.091 66.602 109.641 66.69 110.301 66.69C111.357 66.69 112.142 66.514 112.655 66.162C113.183 65.81 113.447 65.3333 113.447 64.732C113.447 64.3067 113.308 63.9693 113.029 63.72C112.751 63.456 112.318 63.2213 111.731 63.016C111.159 62.796 110.397 62.5687 109.443 62.334C108.343 62.07 107.419 61.7547 106.671 61.388C105.938 61.0067 105.381 60.53 104.999 59.958C104.633 59.386 104.449 58.66 104.449 57.78C104.449 56.9293 104.677 56.174 105.131 55.514C105.601 54.854 106.261 54.3333 107.111 53.952C107.977 53.5707 109.003 53.38 110.191 53.38C111.145 53.38 111.988 53.512 112.721 53.776C113.455 54.0253 114.063 54.3627 114.547 54.788C115.031 55.1987 115.398 55.646 115.647 56.13C115.911 56.5993 116.051 57.0613 116.065 57.516C116.065 57.6333 116.021 57.7433 115.933 57.846C115.86 57.934 115.75 57.978 115.603 57.978H113.557C113.44 57.978 113.323 57.9487 113.205 57.89C113.088 57.8313 112.993 57.7213 112.919 57.56C112.831 57.1053 112.545 56.7167 112.061 56.394C111.577 56.0713 110.954 55.91 110.191 55.91C109.399 55.91 108.761 56.0567 108.277 56.35C107.793 56.6433 107.551 57.098 107.551 57.714C107.551 58.1247 107.669 58.4693 107.903 58.748C108.153 59.012 108.541 59.2467 109.069 59.452C109.612 59.6573 110.323 59.8773 111.203 60.112C112.45 60.3907 113.469 60.7133 114.261 61.08C115.053 61.4467 115.633 61.916 115.999 62.488C116.366 63.0453 116.549 63.7567 116.549 64.622C116.549 65.59 116.285 66.4187 115.757 67.108C115.244 67.7827 114.518 68.3033 113.579 68.67C112.641 69.0367 111.548 69.22 110.301 69.22ZM117.888 69C117.771 69 117.661 68.956 117.558 68.868C117.47 68.78 117.426 68.67 117.426 68.538C117.426 68.4793 117.441 68.4133 117.47 68.34L122.772 54.15C122.816 54.0033 122.897 53.8787 123.014 53.776C123.146 53.6587 123.322 53.6 123.542 53.6H125.94C126.16 53.6 126.329 53.6587 126.446 53.776C126.563 53.8787 126.651 54.0033 126.71 54.15L132.012 68.34C132.027 68.4133 132.034 68.4793 132.034 68.538C132.034 68.67 131.99 68.78 131.902 68.868C131.814 68.956 131.711 69 131.594 69H129.68C129.475 69 129.321 68.956 129.218 68.868C129.13 68.7653 129.071 68.67 129.042 68.582L128.008 65.898H121.474L120.44 68.582C120.411 68.67 120.345 68.7653 120.242 68.868C120.154 68.956 120.007 69 119.802 69H117.888ZM122.244 63.368H127.238L124.73 56.57L122.244 63.368ZM134.616 69C134.469 69 134.345 68.9487 134.242 68.846C134.139 68.7433 134.088 68.6187 134.088 68.472V54.128C134.088 53.9813 134.139 53.8567 134.242 53.754C134.345 53.6513 134.469 53.6 134.616 53.6H136.662C136.809 53.6 136.933 53.6513 137.036 53.754C137.139 53.8567 137.19 53.9813 137.19 54.128V66.382H144.164C144.325 66.382 144.457 66.4333 144.56 66.536C144.663 66.6387 144.714 66.7707 144.714 66.932V68.472C144.714 68.6187 144.663 68.7433 144.56 68.846C144.457 68.9487 144.325 69 144.164 69H134.616ZM147.378 69C147.231 69 147.106 68.9487 147.004 68.846C146.901 68.7433 146.85 68.6187 146.85 68.472V54.15C146.85 53.9887 146.901 53.8567 147.004 53.754C147.106 53.6513 147.231 53.6 147.378 53.6H157.058C157.219 53.6 157.351 53.6513 157.454 53.754C157.556 53.8567 157.608 53.9887 157.608 54.15V55.602C157.608 55.7487 157.556 55.8733 157.454 55.976C157.351 56.0787 157.219 56.13 157.058 56.13H149.82V60.024H156.574C156.735 60.024 156.867 60.0753 156.97 60.178C157.072 60.266 157.124 60.3907 157.124 60.552V61.916C157.124 62.0773 157.072 62.2093 156.97 62.312C156.867 62.4 156.735 62.444 156.574 62.444H149.82V66.47H157.234C157.395 66.47 157.527 66.5213 157.63 66.624C157.732 66.7267 157.784 66.8587 157.784 67.02V68.472C157.784 68.6187 157.732 68.7433 157.63 68.846C157.527 68.9487 157.395 69 157.234 69H147.378ZM165.881 69.22C164.517 69.22 163.373 69.022 162.449 68.626C161.54 68.2153 160.843 67.6873 160.359 67.042C159.89 66.382 159.641 65.6927 159.611 64.974C159.611 64.842 159.655 64.732 159.743 64.644C159.831 64.556 159.941 64.512 160.073 64.512H162.031C162.222 64.512 162.361 64.556 162.449 64.644C162.552 64.7173 162.64 64.8127 162.713 64.93C162.801 65.2087 162.97 65.4873 163.219 65.766C163.469 66.03 163.806 66.25 164.231 66.426C164.671 66.602 165.221 66.69 165.881 66.69C166.937 66.69 167.722 66.514 168.235 66.162C168.763 65.81 169.027 65.3333 169.027 64.732C169.027 64.3067 168.888 63.9693 168.609 63.72C168.331 63.456 167.898 63.2213 167.311 63.016C166.739 62.796 165.977 62.5687 165.023 62.334C163.923 62.07 162.999 61.7547 162.251 61.388C161.518 61.0067 160.961 60.53 160.579 59.958C160.213 59.386 160.029 58.66 160.029 57.78C160.029 56.9293 160.257 56.174 160.711 55.514C161.181 54.854 161.841 54.3333 162.691 53.952C163.557 53.5707 164.583 53.38 165.771 53.38C166.725 53.38 167.568 53.512 168.301 53.776C169.035 54.0253 169.643 54.3627 170.127 54.788C170.611 55.1987 170.978 55.646 171.227 56.13C171.491 56.5993 171.631 57.0613 171.645 57.516C171.645 57.6333 171.601 57.7433 171.513 57.846C171.44 57.934 171.33 57.978 171.183 57.978H169.137C169.02 57.978 168.903 57.9487 168.785 57.89C168.668 57.8313 168.573 57.7213 168.499 57.56C168.411 57.1053 168.125 56.7167 167.641 56.394C167.157 56.0713 166.534 55.91 165.771 55.91C164.979 55.91 164.341 56.0567 163.857 56.35C163.373 56.6433 163.131 57.098 163.131 57.714C163.131 58.1247 163.249 58.4693 163.483 58.748C163.733 59.012 164.121 59.2467 164.649 59.452C165.192 59.6573 165.903 59.8773 166.783 60.112C168.03 60.3907 169.049 60.7133 169.841 61.08C170.633 61.4467 171.213 61.916 171.579 62.488C171.946 63.0453 172.129 63.7567 172.129 64.622C172.129 65.59 171.865 66.4187 171.337 67.108C170.824 67.7827 170.098 68.3033 169.159 68.67C168.221 69.0367 167.128 69.22 165.881 69.22ZM180.206 69C180.059 69 179.935 68.9487 179.832 68.846C179.729 68.7433 179.678 68.6187 179.678 68.472V54.15C179.678 53.9887 179.729 53.8567 179.832 53.754C179.935 53.6513 180.059 53.6 180.206 53.6H185.904C187.679 53.6 189.079 54.0107 190.106 54.832C191.133 55.6533 191.646 56.8487 191.646 58.418C191.646 59.5033 191.375 60.4053 190.832 61.124C190.304 61.8427 189.593 62.3633 188.698 62.686L191.91 68.296C191.954 68.384 191.976 68.4647 191.976 68.538C191.976 68.67 191.925 68.78 191.822 68.868C191.734 68.956 191.631 69 191.514 69H189.512C189.263 69 189.072 68.934 188.94 68.802C188.808 68.67 188.705 68.538 188.632 68.406L185.794 63.192H182.736V68.472C182.736 68.6187 182.685 68.7433 182.582 68.846C182.494 68.9487 182.369 69 182.208 69H180.206ZM182.736 60.706H185.838C186.733 60.706 187.4 60.508 187.84 60.112C188.28 59.7013 188.5 59.1293 188.5 58.396C188.5 57.6627 188.28 57.0907 187.84 56.68C187.415 56.2547 186.747 56.042 185.838 56.042H182.736V60.706ZM195.009 69C194.862 69 194.737 68.9487 194.635 68.846C194.532 68.7433 194.481 68.6187 194.481 68.472V54.15C194.481 53.9887 194.532 53.8567 194.635 53.754C194.737 53.6513 194.862 53.6 195.009 53.6H204.689C204.85 53.6 204.982 53.6513 205.085 53.754C205.187 53.8567 205.239 53.9887 205.239 54.15V55.602C205.239 55.7487 205.187 55.8733 205.085 55.976C204.982 56.0787 204.85 56.13 204.689 56.13H197.451V60.024H204.205C204.366 60.024 204.498 60.0753 204.601 60.178C204.703 60.266 204.755 60.3907 204.755 60.552V61.916C204.755 62.0773 204.703 62.2093 204.601 62.312C204.498 62.4 204.366 62.444 204.205 62.444H197.451V66.47H204.865C205.026 66.47 205.158 66.5213 205.261 66.624C205.363 66.7267 205.415 66.8587 205.415 67.02V68.472C205.415 68.6187 205.363 68.7433 205.261 68.846C205.158 68.9487 205.026 69 204.865 69H195.009ZM208.694 69C208.548 69 208.423 68.9487 208.32 68.846C208.218 68.7433 208.166 68.6187 208.166 68.472V54.15C208.166 53.9887 208.218 53.8567 208.32 53.754C208.423 53.6513 208.548 53.6 208.694 53.6H214.59C215.734 53.6 216.732 53.7833 217.582 54.15C218.433 54.502 219.093 55.0447 219.562 55.778C220.032 56.4967 220.266 57.3987 220.266 58.484C220.266 59.584 220.032 60.4933 219.562 61.212C219.093 61.916 218.433 62.444 217.582 62.796C216.732 63.148 215.734 63.324 214.59 63.324H211.312V68.472C211.312 68.6187 211.261 68.7433 211.158 68.846C211.07 68.9487 210.946 69 210.784 69H208.694ZM211.268 60.882H214.48C215.331 60.882 215.984 60.684 216.438 60.288C216.893 59.8773 217.12 59.276 217.12 58.484C217.12 57.7507 216.908 57.164 216.482 56.724C216.057 56.2693 215.39 56.042 214.48 56.042H211.268V60.882ZM223.196 69C223.049 69 222.925 68.9487 222.822 68.846C222.719 68.7433 222.668 68.6187 222.668 68.472V54.15C222.668 53.9887 222.719 53.8567 222.822 53.754C222.925 53.6513 223.049 53.6 223.196 53.6H228.894C230.669 53.6 232.069 54.0107 233.096 54.832C234.123 55.6533 234.636 56.8487 234.636 58.418C234.636 59.5033 234.365 60.4053 233.822 61.124C233.294 61.8427 232.583 62.3633 231.688 62.686L234.9 68.296C234.944 68.384 234.966 68.4647 234.966 68.538C234.966 68.67 234.915 68.78 234.812 68.868C234.724 68.956 234.621 69 234.504 69H232.502C232.253 69 232.062 68.934 231.93 68.802C231.798 68.67 231.695 68.538 231.622 68.406L228.784 63.192H225.726V68.472C225.726 68.6187 225.675 68.7433 225.572 68.846C225.484 68.9487 225.359 69 225.198 69H223.196ZM225.726 60.706H228.828C229.723 60.706 230.39 60.508 230.83 60.112C231.27 59.7013 231.49 59.1293 231.49 58.396C231.49 57.6627 231.27 57.0907 230.83 56.68C230.405 56.2547 229.737 56.042 228.828 56.042H225.726V60.706ZM237.999 69C237.852 69 237.728 68.9487 237.625 68.846C237.522 68.7433 237.471 68.6187 237.471 68.472V54.15C237.471 53.9887 237.522 53.8567 237.625 53.754C237.728 53.6513 237.852 53.6 237.999 53.6H247.679C247.84 53.6 247.972 53.6513 248.075 53.754C248.178 53.8567 248.229 53.9887 248.229 54.15V55.602C248.229 55.7487 248.178 55.8733 248.075 55.976C247.972 56.0787 247.84 56.13 247.679 56.13H240.441V60.024H247.195C247.356 60.024 247.488 60.0753 247.591 60.178C247.694 60.266 247.745 60.3907 247.745 60.552V61.916C247.745 62.0773 247.694 62.2093 247.591 62.312C247.488 62.4 247.356 62.444 247.195 62.444H240.441V66.47H247.855C248.016 66.47 248.148 66.5213 248.251 66.624C248.354 66.7267 248.405 66.8587 248.405 67.02V68.472C248.405 68.6187 248.354 68.7433 248.251 68.846C248.148 68.9487 248.016 69 247.855 69H237.999ZM256.502 69.22C255.138 69.22 253.994 69.022 253.07 68.626C252.161 68.2153 251.464 67.6873 250.98 67.042C250.511 66.382 250.262 65.6927 250.232 64.974C250.232 64.842 250.276 64.732 250.364 64.644C250.452 64.556 250.562 64.512 250.694 64.512H252.652C252.843 64.512 252.982 64.556 253.07 64.644C253.173 64.7173 253.261 64.8127 253.334 64.93C253.422 65.2087 253.591 65.4873 253.84 65.766C254.09 66.03 254.427 66.25 254.852 66.426C255.292 66.602 255.842 66.69 256.502 66.69C257.558 66.69 258.343 66.514 258.856 66.162C259.384 65.81 259.648 65.3333 259.648 64.732C259.648 64.3067 259.509 63.9693 259.23 63.72C258.952 63.456 258.519 63.2213 257.932 63.016C257.36 62.796 256.598 62.5687 255.644 62.334C254.544 62.07 253.62 61.7547 252.872 61.388C252.139 61.0067 251.582 60.53 251.2 59.958C250.834 59.386 250.65 58.66 250.65 57.78C250.65 56.9293 250.878 56.174 251.332 55.514C251.802 54.854 252.462 54.3333 253.312 53.952C254.178 53.5707 255.204 53.38 256.392 53.38C257.346 53.38 258.189 53.512 258.922 53.776C259.656 54.0253 260.264 54.3627 260.748 54.788C261.232 55.1987 261.599 55.646 261.848 56.13C262.112 56.5993 262.252 57.0613 262.266 57.516C262.266 57.6333 262.222 57.7433 262.134 57.846C262.061 57.934 261.951 57.978 261.804 57.978H259.758C259.641 57.978 259.524 57.9487 259.406 57.89C259.289 57.8313 259.194 57.7213 259.12 57.56C259.032 57.1053 258.746 56.7167 258.262 56.394C257.778 56.0713 257.155 55.91 256.392 55.91C255.6 55.91 254.962 56.0567 254.478 56.35C253.994 56.6433 253.752 57.098 253.752 57.714C253.752 58.1247 253.87 58.4693 254.104 58.748C254.354 59.012 254.742 59.2467 255.27 59.452C255.813 59.6573 256.524 59.8773 257.404 60.112C258.651 60.3907 259.67 60.7133 260.462 61.08C261.254 61.4467 261.834 61.916 262.2 62.488C262.567 63.0453 262.75 63.7567 262.75 64.622C262.75 65.59 262.486 66.4187 261.958 67.108C261.445 67.7827 260.719 68.3033 259.78 68.67C258.842 69.0367 257.749 69.22 256.502 69.22ZM265.8 69C265.653 69 265.528 68.9487 265.426 68.846C265.323 68.7433 265.272 68.6187 265.272 68.472V54.15C265.272 53.9887 265.323 53.8567 265.426 53.754C265.528 53.6513 265.653 53.6 265.8 53.6H275.48C275.641 53.6 275.773 53.6513 275.876 53.754C275.978 53.8567 276.03 53.9887 276.03 54.15V55.602C276.03 55.7487 275.978 55.8733 275.876 55.976C275.773 56.0787 275.641 56.13 275.48 56.13H268.242V60.024H274.996C275.157 60.024 275.289 60.0753 275.392 60.178C275.494 60.266 275.546 60.3907 275.546 60.552V61.916C275.546 62.0773 275.494 62.2093 275.392 62.312C275.289 62.4 275.157 62.444 274.996 62.444H268.242V66.47H275.656C275.817 66.47 275.949 66.5213 276.052 66.624C276.154 66.7267 276.206 66.8587 276.206 67.02V68.472C276.206 68.6187 276.154 68.7433 276.052 68.846C275.949 68.9487 275.817 69 275.656 69H265.8ZM279.485 69C279.339 69 279.214 68.9487 279.111 68.846C279.009 68.7433 278.957 68.6187 278.957 68.472V54.15C278.957 53.9887 279.009 53.8567 279.111 53.754C279.214 53.6513 279.339 53.6 279.485 53.6H281.179C281.385 53.6 281.531 53.6513 281.619 53.754C281.722 53.842 281.788 53.908 281.817 53.952L288.153 63.808V54.15C288.153 53.9887 288.197 53.8567 288.285 53.754C288.388 53.6513 288.52 53.6 288.681 53.6H290.529C290.691 53.6 290.823 53.6513 290.925 53.754C291.028 53.8567 291.079 53.9887 291.079 54.15V68.45C291.079 68.6113 291.028 68.7433 290.925 68.846C290.823 68.9487 290.698 69 290.551 69H288.835C288.63 69 288.483 68.9487 288.395 68.846C288.307 68.7433 288.241 68.6773 288.197 68.648L281.883 59.012V68.472C281.883 68.6187 281.832 68.7433 281.729 68.846C281.627 68.9487 281.495 69 281.333 69H279.485ZM298.428 69C298.281 69 298.157 68.9487 298.054 68.846C297.951 68.7433 297.9 68.6187 297.9 68.472V56.306H293.83C293.683 56.306 293.559 56.2547 293.456 56.152C293.353 56.0493 293.302 55.9247 293.302 55.778V54.15C293.302 53.9887 293.353 53.8567 293.456 53.754C293.559 53.6513 293.683 53.6 293.83 53.6H305.05C305.211 53.6 305.343 53.6513 305.446 53.754C305.549 53.8567 305.6 53.9887 305.6 54.15V55.778C305.6 55.9247 305.549 56.0493 305.446 56.152C305.343 56.2547 305.211 56.306 305.05 56.306H301.002V68.472C301.002 68.6187 300.951 68.7433 300.848 68.846C300.745 68.9487 300.613 69 300.452 69H298.428ZM305.275 69C305.158 69 305.048 68.956 304.945 68.868C304.857 68.78 304.813 68.67 304.813 68.538C304.813 68.4793 304.828 68.4133 304.857 68.34L310.159 54.15C310.203 54.0033 310.284 53.8787 310.401 53.776C310.533 53.6587 310.709 53.6 310.929 53.6H313.327C313.547 53.6 313.716 53.6587 313.833 53.776C313.95 53.8787 314.038 54.0033 314.097 54.15L319.399 68.34C319.414 68.4133 319.421 68.4793 319.421 68.538C319.421 68.67 319.377 68.78 319.289 68.868C319.201 68.956 319.098 69 318.981 69H317.067C316.862 69 316.708 68.956 316.605 68.868C316.517 68.7653 316.458 68.67 316.429 68.582L315.395 65.898H308.861L307.827 68.582C307.798 68.67 307.732 68.7653 307.629 68.868C307.541 68.956 307.394 69 307.189 69H305.275ZM309.631 63.368H314.625L312.117 56.57L309.631 63.368ZM323.779 69C323.633 69 323.508 68.9487 323.405 68.846C323.303 68.7433 323.251 68.6187 323.251 68.472V56.306H319.181C319.035 56.306 318.91 56.2547 318.807 56.152C318.705 56.0493 318.653 55.9247 318.653 55.778V54.15C318.653 53.9887 318.705 53.8567 318.807 53.754C318.91 53.6513 319.035 53.6 319.181 53.6H330.401C330.563 53.6 330.695 53.6513 330.797 53.754C330.9 53.8567 330.951 53.9887 330.951 54.15V55.778C330.951 55.9247 330.9 56.0493 330.797 56.152C330.695 56.2547 330.563 56.306 330.401 56.306H326.353V68.472C326.353 68.6187 326.302 68.7433 326.199 68.846C326.097 68.9487 325.965 69 325.803 69H323.779ZM333.712 69C333.565 69 333.44 68.9487 333.338 68.846C333.235 68.7433 333.184 68.6187 333.184 68.472V54.128C333.184 53.9813 333.235 53.8567 333.338 53.754C333.44 53.6513 333.565 53.6 333.712 53.6H335.78C335.941 53.6 336.066 53.6513 336.154 53.754C336.256 53.8567 336.308 53.9813 336.308 54.128V68.472C336.308 68.6187 336.256 68.7433 336.154 68.846C336.066 68.9487 335.941 69 335.78 69H333.712ZM344.246 69C344.011 69 343.828 68.9413 343.696 68.824C343.564 68.7067 343.469 68.56 343.41 68.384L338.702 54.26C338.673 54.1867 338.658 54.1207 338.658 54.062C338.658 53.93 338.702 53.82 338.79 53.732C338.878 53.644 338.988 53.6 339.12 53.6H341.056C341.261 53.6 341.415 53.6587 341.518 53.776C341.635 53.8787 341.709 53.9813 341.738 54.084L345.456 65.414L349.152 54.084C349.196 53.9813 349.269 53.8787 349.372 53.776C349.489 53.6587 349.651 53.6 349.856 53.6H351.792C351.909 53.6 352.012 53.644 352.1 53.732C352.203 53.82 352.254 53.93 352.254 54.062C352.254 54.1207 352.239 54.1867 352.21 54.26L347.502 68.384C347.443 68.56 347.348 68.7067 347.216 68.824C347.084 68.9413 346.901 69 346.666 69H344.246ZM355.11 69C354.964 69 354.839 68.9487 354.736 68.846C354.634 68.7433 354.582 68.6187 354.582 68.472V54.15C354.582 53.9887 354.634 53.8567 354.736 53.754C354.839 53.6513 354.964 53.6 355.11 53.6H364.79C364.952 53.6 365.084 53.6513 365.186 53.754C365.289 53.8567 365.34 53.9887 365.34 54.15V55.602C365.34 55.7487 365.289 55.8733 365.186 55.976C365.084 56.0787 364.952 56.13 364.79 56.13H357.552V60.024H364.306C364.468 60.024 364.6 60.0753 364.702 60.178C364.805 60.266 364.856 60.3907 364.856 60.552V61.916C364.856 62.0773 364.805 62.2093 364.702 62.312C364.6 62.4 364.468 62.444 364.306 62.444H357.552V66.47H364.966C365.128 66.47 365.26 66.5213 365.362 66.624C365.465 66.7267 365.516 66.8587 365.516 67.02V68.472C365.516 68.6187 365.465 68.7433 365.362 68.846C365.26 68.9487 365.128 69 364.966 69H355.11ZM375.567 69C375.347 69 375.171 68.9413 375.039 68.824C374.922 68.692 374.841 68.5307 374.797 68.34L372.179 54.238C372.179 54.194 372.172 54.1573 372.157 54.128C372.157 54.0987 372.157 54.0767 372.157 54.062C372.157 53.93 372.201 53.82 372.289 53.732C372.392 53.644 372.502 53.6 372.619 53.6H374.555C374.922 53.6 375.127 53.7467 375.171 54.04L376.997 64.006L378.977 57.56C379.021 57.4427 379.095 57.3253 379.197 57.208C379.315 57.076 379.483 57.01 379.703 57.01H380.891C381.126 57.01 381.295 57.076 381.397 57.208C381.5 57.3253 381.566 57.4427 381.595 57.56L383.597 63.984L385.423 54.04C385.467 53.7467 385.673 53.6 386.039 53.6H387.975C388.093 53.6 388.195 53.644 388.283 53.732C388.371 53.82 388.415 53.93 388.415 54.062C388.415 54.0767 388.415 54.0987 388.415 54.128C388.415 54.1573 388.408 54.194 388.393 54.238L385.775 68.34C385.746 68.5307 385.665 68.692 385.533 68.824C385.401 68.9413 385.225 69 385.005 69H383.531C383.311 69 383.135 68.9413 383.003 68.824C382.886 68.7067 382.805 68.582 382.761 68.45L380.297 61.102L377.833 68.45C377.775 68.582 377.687 68.7067 377.569 68.824C377.452 68.9413 377.276 69 377.041 69H375.567ZM391.526 69C391.38 69 391.255 68.9487 391.152 68.846C391.05 68.7433 390.998 68.6187 390.998 68.472V54.128C390.998 53.9813 391.05 53.8567 391.152 53.754C391.255 53.6513 391.38 53.6 391.526 53.6H393.594C393.756 53.6 393.88 53.6513 393.968 53.754C394.071 53.8567 394.122 53.9813 394.122 54.128V68.472C394.122 68.6187 394.071 68.7433 393.968 68.846C393.88 68.9487 393.756 69 393.594 69H391.526ZM398.1 69C397.954 69 397.829 68.9487 397.726 68.846C397.624 68.7433 397.572 68.6187 397.572 68.472V54.128C397.572 53.9813 397.624 53.8567 397.726 53.754C397.829 53.6513 397.954 53.6 398.1 53.6H400.146C400.293 53.6 400.418 53.6513 400.52 53.754C400.623 53.8567 400.674 53.9813 400.674 54.128V66.382H407.648C407.81 66.382 407.942 66.4333 408.044 66.536C408.147 66.6387 408.198 66.7707 408.198 66.932V68.472C408.198 68.6187 408.147 68.7433 408.044 68.846C407.942 68.9487 407.81 69 407.648 69H398.1ZM410.862 69C410.715 69 410.591 68.9487 410.488 68.846C410.385 68.7433 410.334 68.6187 410.334 68.472V54.128C410.334 53.9813 410.385 53.8567 410.488 53.754C410.591 53.6513 410.715 53.6 410.862 53.6H412.908C413.055 53.6 413.179 53.6513 413.282 53.754C413.385 53.8567 413.436 53.9813 413.436 54.128V66.382H420.41C420.571 66.382 420.703 66.4333 420.806 66.536C420.909 66.6387 420.96 66.7707 420.96 66.932V68.472C420.96 68.6187 420.909 68.7433 420.806 68.846C420.703 68.9487 420.571 69 420.41 69H410.862ZM33.4354 95C33.2887 95 33.1641 94.9487 33.0614 94.846C32.9587 94.7433 32.9074 94.6187 32.9074 94.472V80.15C32.9074 79.9887 32.9587 79.8567 33.0614 79.754C33.1641 79.6513 33.2887 79.6 33.4354 79.6H43.1154C43.2767 79.6 43.4087 79.6513 43.5114 79.754C43.6141 79.8567 43.6654 79.9887 43.6654 80.15V81.602C43.6654 81.7487 43.6141 81.8733 43.5114 81.976C43.4087 82.0787 43.2767 82.13 43.1154 82.13H35.8774V86.024H42.6314C42.7927 86.024 42.9247 86.0753 43.0274 86.178C43.1301 86.266 43.1814 86.3907 43.1814 86.552V87.916C43.1814 88.0773 43.1301 88.2093 43.0274 88.312C42.9247 88.4 42.7927 88.444 42.6314 88.444H35.8774V92.47H43.2914C43.4527 92.47 43.5847 92.5213 43.6874 92.624C43.7901 92.7267 43.8414 92.8587 43.8414 93.02V94.472C43.8414 94.6187 43.7901 94.7433 43.6874 94.846C43.5847 94.9487 43.4527 95 43.2914 95H33.4354ZM50.952 95C50.7174 95 50.534 94.9413 50.402 94.824C50.27 94.7067 50.1747 94.56 50.116 94.384L45.408 80.26C45.3787 80.1867 45.364 80.1207 45.364 80.062C45.364 79.93 45.408 79.82 45.496 79.732C45.584 79.644 45.694 79.6 45.826 79.6H47.762C47.9674 79.6 48.1214 79.6587 48.224 79.776C48.3414 79.8787 48.4147 79.9813 48.444 80.084L52.162 91.414L55.858 80.084C55.902 79.9813 55.9754 79.8787 56.078 79.776C56.1954 79.6587 56.3567 79.6 56.562 79.6H58.498C58.6154 79.6 58.718 79.644 58.806 79.732C58.9087 79.82 58.96 79.93 58.96 80.062C58.96 80.1207 58.9454 80.1867 58.916 80.26L54.208 94.384C54.1494 94.56 54.054 94.7067 53.922 94.824C53.79 94.9413 53.6067 95 53.372 95H50.952ZM61.8163 95C61.6696 95 61.5449 94.9487 61.4423 94.846C61.3396 94.7433 61.2883 94.6187 61.2883 94.472V80.15C61.2883 79.9887 61.3396 79.8567 61.4423 79.754C61.5449 79.6513 61.6696 79.6 61.8163 79.6H71.4963C71.6576 79.6 71.7896 79.6513 71.8923 79.754C71.9949 79.8567 72.0463 79.9887 72.0463 80.15V81.602C72.0463 81.7487 71.9949 81.8733 71.8923 81.976C71.7896 82.0787 71.6576 82.13 71.4963 82.13H64.2583V86.024H71.0123C71.1736 86.024 71.3056 86.0753 71.4083 86.178C71.5109 86.266 71.5623 86.3907 71.5623 86.552V87.916C71.5623 88.0773 71.5109 88.2093 71.4083 88.312C71.3056 88.4 71.1736 88.444 71.0123 88.444H64.2583V92.47H71.6723C71.8336 92.47 71.9656 92.5213 72.0683 92.624C72.1709 92.7267 72.2223 92.8587 72.2223 93.02V94.472C72.2223 94.6187 72.1709 94.7433 72.0683 94.846C71.9656 94.9487 71.8336 95 71.6723 95H61.8163ZM75.5018 95C75.3551 95 75.2305 94.9487 75.1278 94.846C75.0251 94.7433 74.9738 94.6187 74.9738 94.472V80.15C74.9738 79.9887 75.0251 79.8567 75.1278 79.754C75.2305 79.6513 75.3551 79.6 75.5018 79.6H77.1958C77.4011 79.6 77.5478 79.6513 77.6358 79.754C77.7385 79.842 77.8045 79.908 77.8338 79.952L84.1698 89.808V80.15C84.1698 79.9887 84.2138 79.8567 84.3018 79.754C84.4045 79.6513 84.5365 79.6 84.6978 79.6H86.5458C86.7071 79.6 86.8391 79.6513 86.9418 79.754C87.0445 79.8567 87.0958 79.9887 87.0958 80.15V94.45C87.0958 94.6113 87.0445 94.7433 86.9418 94.846C86.8391 94.9487 86.7145 95 86.5678 95H84.8518C84.6465 95 84.4998 94.9487 84.4118 94.846C84.3238 94.7433 84.2578 94.6773 84.2138 94.648L77.8998 85.012V94.472C77.8998 94.6187 77.8485 94.7433 77.7458 94.846C77.6431 94.9487 77.5111 95 77.3498 95H75.5018ZM94.4445 95C94.2978 95 94.1732 94.9487 94.0705 94.846C93.9678 94.7433 93.9165 94.6187 93.9165 94.472V82.306H89.8465C89.6998 82.306 89.5752 82.2547 89.4725 82.152C89.3698 82.0493 89.3185 81.9247 89.3185 81.778V80.15C89.3185 79.9887 89.3698 79.8567 89.4725 79.754C89.5752 79.6513 89.6998 79.6 89.8465 79.6H101.067C101.228 79.6 101.36 79.6513 101.463 79.754C101.565 79.8567 101.617 79.9887 101.617 80.15V81.778C101.617 81.9247 101.565 82.0493 101.463 82.152C101.36 82.2547 101.228 82.306 101.067 82.306H97.0185V94.472C97.0185 94.6187 96.9672 94.7433 96.8645 94.846C96.7618 94.9487 96.6298 95 96.4685 95H94.4445ZM109.987 95.22C108.711 95.22 107.603 95.0073 106.665 94.582C105.726 94.142 105 93.4747 104.487 92.58C103.973 91.6707 103.717 90.512 103.717 89.104V80.15C103.717 79.9887 103.768 79.8567 103.871 79.754C103.973 79.6513 104.098 79.6 104.245 79.6H106.247C106.408 79.6 106.533 79.6513 106.621 79.754C106.723 79.8567 106.775 79.9887 106.775 80.15V89.104C106.775 90.3067 107.061 91.2013 107.633 91.788C108.205 92.36 108.989 92.646 109.987 92.646C110.984 92.646 111.761 92.36 112.319 91.788C112.891 91.2013 113.177 90.3067 113.177 89.104V80.15C113.177 79.9887 113.228 79.8567 113.331 79.754C113.433 79.6513 113.565 79.6 113.727 79.6H115.707C115.868 79.6 115.993 79.6513 116.081 79.754C116.183 79.8567 116.235 79.9887 116.235 80.15V89.104C116.235 90.512 115.978 91.6707 115.465 92.58C114.966 93.4747 114.247 94.142 113.309 94.582C112.385 95.0073 111.277 95.22 109.987 95.22ZM118.264 95C118.147 95 118.037 94.956 117.934 94.868C117.846 94.78 117.802 94.67 117.802 94.538C117.802 94.4793 117.817 94.4133 117.846 94.34L123.148 80.15C123.192 80.0033 123.273 79.8787 123.39 79.776C123.522 79.6587 123.698 79.6 123.918 79.6H126.316C126.536 79.6 126.705 79.6587 126.822 79.776C126.939 79.8787 127.027 80.0033 127.086 80.15L132.388 94.34C132.403 94.4133 132.41 94.4793 132.41 94.538C132.41 94.67 132.366 94.78 132.278 94.868C132.19 94.956 132.087 95 131.97 95H130.056C129.851 95 129.697 94.956 129.594 94.868C129.506 94.7653 129.447 94.67 129.418 94.582L128.384 91.898H121.85L120.816 94.582C120.787 94.67 120.721 94.7653 120.618 94.868C120.53 94.956 120.383 95 120.178 95H118.264ZM122.62 89.368H127.614L125.106 82.57L122.62 89.368ZM134.992 95C134.845 95 134.721 94.9487 134.618 94.846C134.515 94.7433 134.464 94.6187 134.464 94.472V80.128C134.464 79.9813 134.515 79.8567 134.618 79.754C134.721 79.6513 134.845 79.6 134.992 79.6H137.038C137.185 79.6 137.309 79.6513 137.412 79.754C137.515 79.8567 137.566 79.9813 137.566 80.128V92.382H144.54C144.701 92.382 144.833 92.4333 144.936 92.536C145.039 92.6387 145.09 92.7707 145.09 92.932V94.472C145.09 94.6187 145.039 94.7433 144.936 94.846C144.833 94.9487 144.701 95 144.54 95H134.992ZM147.754 95C147.607 95 147.482 94.9487 147.38 94.846C147.277 94.7433 147.226 94.6187 147.226 94.472V80.128C147.226 79.9813 147.277 79.8567 147.38 79.754C147.482 79.6513 147.607 79.6 147.754 79.6H149.8C149.946 79.6 150.071 79.6513 150.174 79.754C150.276 79.8567 150.328 79.9813 150.328 80.128V92.382H157.302C157.463 92.382 157.595 92.4333 157.698 92.536C157.8 92.6387 157.852 92.7707 157.852 92.932V94.472C157.852 94.6187 157.8 94.7433 157.698 94.846C157.595 94.9487 157.463 95 157.302 95H147.754ZM162.286 95C162.139 95 162.015 94.9487 161.912 94.846C161.809 94.7433 161.758 94.6187 161.758 94.472V89.5L156.566 80.304C156.551 80.2747 156.537 80.238 156.522 80.194C156.507 80.15 156.5 80.106 156.5 80.062C156.5 79.93 156.544 79.82 156.632 79.732C156.72 79.644 156.823 79.6 156.94 79.6H158.898C159.074 79.6 159.213 79.644 159.316 79.732C159.433 79.82 159.514 79.9153 159.558 80.018L163.298 86.42L167.016 80.018C167.075 79.9153 167.155 79.82 167.258 79.732C167.375 79.644 167.522 79.6 167.698 79.6H169.634C169.766 79.6 169.876 79.644 169.964 79.732C170.052 79.82 170.096 79.93 170.096 80.062C170.096 80.106 170.089 80.15 170.074 80.194C170.074 80.238 170.059 80.2747 170.03 80.304L164.838 89.5V94.472C164.838 94.6187 164.787 94.7433 164.684 94.846C164.581 94.9487 164.449 95 164.288 95H162.286ZM177.23 95C177.084 95 176.959 94.9487 176.856 94.846C176.754 94.7433 176.702 94.6187 176.702 94.472V80.15C176.702 79.9887 176.754 79.8567 176.856 79.754C176.959 79.6513 177.084 79.6 177.23 79.6H182.928C184.703 79.6 186.104 80.0107 187.13 80.832C188.157 81.6533 188.67 82.8487 188.67 84.418C188.67 85.5033 188.399 86.4053 187.856 87.124C187.328 87.8427 186.617 88.3633 185.722 88.686L188.934 94.296C188.978 94.384 189 94.4647 189 94.538C189 94.67 188.949 94.78 188.846 94.868C188.758 94.956 188.656 95 188.538 95H186.536C186.287 95 186.096 94.934 185.964 94.802C185.832 94.67 185.73 94.538 185.656 94.406L182.818 89.192H179.76V94.472C179.76 94.6187 179.709 94.7433 179.606 94.846C179.518 94.9487 179.394 95 179.232 95H177.23ZM179.76 86.706H182.862C183.757 86.706 184.424 86.508 184.864 86.112C185.304 85.7013 185.524 85.1293 185.524 84.396C185.524 83.6627 185.304 83.0907 184.864 82.68C184.439 82.2547 183.772 82.042 182.862 82.042H179.76V86.706ZM192.033 95C191.886 95 191.762 94.9487 191.659 94.846C191.556 94.7433 191.505 94.6187 191.505 94.472V80.15C191.505 79.9887 191.556 79.8567 191.659 79.754C191.762 79.6513 191.886 79.6 192.033 79.6H201.713C201.874 79.6 202.006 79.6513 202.109 79.754C202.212 79.8567 202.263 79.9887 202.263 80.15V81.602C202.263 81.7487 202.212 81.8733 202.109 81.976C202.006 82.0787 201.874 82.13 201.713 82.13H194.475V86.024H201.229C201.39 86.024 201.522 86.0753 201.625 86.178C201.728 86.266 201.779 86.3907 201.779 86.552V87.916C201.779 88.0773 201.728 88.2093 201.625 88.312C201.522 88.4 201.39 88.444 201.229 88.444H194.475V92.47H201.889C202.05 92.47 202.182 92.5213 202.285 92.624C202.388 92.7267 202.439 92.8587 202.439 93.02V94.472C202.439 94.6187 202.388 94.7433 202.285 94.846C202.182 94.9487 202.05 95 201.889 95H192.033ZM209.107 95C208.96 95 208.835 94.9487 208.733 94.846C208.63 94.7433 208.579 94.6187 208.579 94.472V82.306H204.509C204.362 82.306 204.237 82.2547 204.135 82.152C204.032 82.0493 203.981 81.9247 203.981 81.778V80.15C203.981 79.9887 204.032 79.8567 204.135 79.754C204.237 79.6513 204.362 79.6 204.509 79.6H215.729C215.89 79.6 216.022 79.6513 216.125 79.754C216.227 79.8567 216.279 79.9887 216.279 80.15V81.778C216.279 81.9247 216.227 82.0493 216.125 82.152C216.022 82.2547 215.89 82.306 215.729 82.306H211.681V94.472C211.681 94.6187 211.629 94.7433 211.527 94.846C211.424 94.9487 211.292 95 211.131 95H209.107ZM224.649 95.22C223.373 95.22 222.266 95.0073 221.327 94.582C220.388 94.142 219.662 93.4747 219.149 92.58C218.636 91.6707 218.379 90.512 218.379 89.104V80.15C218.379 79.9887 218.43 79.8567 218.533 79.754C218.636 79.6513 218.76 79.6 218.907 79.6H220.909C221.07 79.6 221.195 79.6513 221.283 79.754C221.386 79.8567 221.437 79.9887 221.437 80.15V89.104C221.437 90.3067 221.723 91.2013 222.295 91.788C222.867 92.36 223.652 92.646 224.649 92.646C225.646 92.646 226.424 92.36 226.981 91.788C227.553 91.2013 227.839 90.3067 227.839 89.104V80.15C227.839 79.9887 227.89 79.8567 227.993 79.754C228.096 79.6513 228.228 79.6 228.389 79.6H230.369C230.53 79.6 230.655 79.6513 230.743 79.754C230.846 79.8567 230.897 79.9887 230.897 80.15V89.104C230.897 90.512 230.64 91.6707 230.127 92.58C229.628 93.4747 228.91 94.142 227.971 94.582C227.047 95.0073 225.94 95.22 224.649 95.22ZM234.723 95C234.576 95 234.451 94.9487 234.349 94.846C234.246 94.7433 234.195 94.6187 234.195 94.472V80.15C234.195 79.9887 234.246 79.8567 234.349 79.754C234.451 79.6513 234.576 79.6 234.723 79.6H240.421C242.195 79.6 243.596 80.0107 244.623 80.832C245.649 81.6533 246.163 82.8487 246.163 84.418C246.163 85.5033 245.891 86.4053 245.349 87.124C244.821 87.8427 244.109 88.3633 243.215 88.686L246.427 94.296C246.471 94.384 246.493 94.4647 246.493 94.538C246.493 94.67 246.441 94.78 246.339 94.868C246.251 94.956 246.148 95 246.031 95H244.029C243.779 95 243.589 94.934 243.457 94.802C243.325 94.67 243.222 94.538 243.149 94.406L240.311 89.192H237.253V94.472C237.253 94.6187 237.201 94.7433 237.099 94.846C237.011 94.9487 236.886 95 236.725 95H234.723ZM237.253 86.706H240.355C241.249 86.706 241.917 86.508 242.357 86.112C242.797 85.7013 243.017 85.1293 243.017 84.396C243.017 83.6627 242.797 83.0907 242.357 82.68C241.931 82.2547 241.264 82.042 240.355 82.042H237.253V86.706ZM249.525 95C249.379 95 249.254 94.9487 249.151 94.846C249.049 94.7433 248.997 94.6187 248.997 94.472V80.15C248.997 79.9887 249.049 79.8567 249.151 79.754C249.254 79.6513 249.379 79.6 249.525 79.6H251.219C251.425 79.6 251.571 79.6513 251.659 79.754C251.762 79.842 251.828 79.908 251.857 79.952L258.193 89.808V80.15C258.193 79.9887 258.237 79.8567 258.325 79.754C258.428 79.6513 258.56 79.6 258.721 79.6H260.569C260.731 79.6 260.863 79.6513 260.965 79.754C261.068 79.8567 261.119 79.9887 261.119 80.15V94.45C261.119 94.6113 261.068 94.7433 260.965 94.846C260.863 94.9487 260.738 95 260.591 95H258.875C258.67 95 258.523 94.9487 258.435 94.846C258.347 94.7433 258.281 94.6773 258.237 94.648L251.923 85.012V94.472C251.923 94.6187 251.872 94.7433 251.769 94.846C251.667 94.9487 251.535 95 251.373 95H249.525ZM270.107 95C269.961 95 269.836 94.9487 269.733 94.846C269.631 94.7433 269.579 94.6187 269.579 94.472V80.15C269.579 79.9887 269.631 79.8567 269.733 79.754C269.836 79.6513 269.961 79.6 270.107 79.6H279.655C279.817 79.6 279.949 79.6513 280.051 79.754C280.154 79.8567 280.205 79.9887 280.205 80.15V81.69C280.205 81.8513 280.154 81.9833 280.051 82.086C279.949 82.174 279.817 82.218 279.655 82.218H272.593V86.398H279.215C279.377 86.398 279.509 86.4493 279.611 86.552C279.714 86.6547 279.765 86.7867 279.765 86.948V88.488C279.765 88.6347 279.714 88.7593 279.611 88.862C279.509 88.9647 279.377 89.016 279.215 89.016H272.593V94.472C272.593 94.6187 272.542 94.7433 272.439 94.846C272.337 94.9487 272.205 95 272.043 95H270.107ZM283.32 95C283.174 95 283.049 94.9487 282.946 94.846C282.844 94.7433 282.792 94.6187 282.792 94.472V80.15C282.792 79.9887 282.844 79.8567 282.946 79.754C283.049 79.6513 283.174 79.6 283.32 79.6H289.018C290.793 79.6 292.194 80.0107 293.22 80.832C294.247 81.6533 294.76 82.8487 294.76 84.418C294.76 85.5033 294.489 86.4053 293.946 87.124C293.418 87.8427 292.707 88.3633 291.812 88.686L295.024 94.296C295.068 94.384 295.09 94.4647 295.09 94.538C295.09 94.67 295.039 94.78 294.936 94.868C294.848 94.956 294.746 95 294.628 95H292.626C292.377 95 292.186 94.934 292.054 94.802C291.922 94.67 291.82 94.538 291.746 94.406L288.908 89.192H285.85V94.472C285.85 94.6187 285.799 94.7433 285.696 94.846C285.608 94.9487 285.484 95 285.322 95H283.32ZM285.85 86.706H288.952C289.847 86.706 290.514 86.508 290.954 86.112C291.394 85.7013 291.614 85.1293 291.614 84.396C291.614 83.6627 291.394 83.0907 290.954 82.68C290.529 82.2547 289.862 82.042 288.952 82.042H285.85V86.706ZM303.47 95.22C302.165 95.22 301.043 95.0073 300.104 94.582C299.165 94.142 298.432 93.4747 297.904 92.58C297.376 91.6707 297.09 90.5413 297.046 89.192C297.031 88.5613 297.024 87.938 297.024 87.322C297.024 86.706 297.031 86.0753 297.046 85.43C297.09 84.0953 297.383 82.9807 297.926 82.086C298.469 81.1913 299.209 80.5167 300.148 80.062C301.101 79.6073 302.209 79.38 303.47 79.38C304.731 79.38 305.839 79.6073 306.792 80.062C307.745 80.5167 308.493 81.1913 309.036 82.086C309.579 82.9807 309.872 84.0953 309.916 85.43C309.945 86.0753 309.96 86.706 309.96 87.322C309.96 87.938 309.945 88.5613 309.916 89.192C309.872 90.5413 309.586 91.6707 309.058 92.58C308.53 93.4747 307.789 94.142 306.836 94.582C305.897 95.0073 304.775 95.22 303.47 95.22ZM303.47 92.69C304.423 92.69 305.201 92.4113 305.802 91.854C306.403 91.282 306.726 90.358 306.77 89.082C306.799 88.4367 306.814 87.8427 306.814 87.3C306.814 86.7427 306.799 86.1487 306.77 85.518C306.741 84.6673 306.579 83.978 306.286 83.45C306.007 82.9073 305.626 82.5187 305.142 82.284C304.658 82.0347 304.101 81.91 303.47 81.91C302.854 81.91 302.304 82.0347 301.82 82.284C301.336 82.5187 300.947 82.9073 300.654 83.45C300.375 83.978 300.221 84.6673 300.192 85.518C300.177 86.1487 300.17 86.7427 300.17 87.3C300.17 87.8427 300.177 88.4367 300.192 89.082C300.236 90.358 300.559 91.282 301.16 91.854C301.761 92.4113 302.531 92.69 303.47 92.69ZM313.399 95C313.237 95 313.105 94.9487 313.003 94.846C312.9 94.7433 312.849 94.6187 312.849 94.472V80.15C312.849 79.9887 312.9 79.8567 313.003 79.754C313.105 79.6513 313.237 79.6 313.399 79.6H315.137C315.342 79.6 315.496 79.6587 315.599 79.776C315.701 79.8787 315.767 79.9593 315.797 80.018L320.043 87.938L324.333 80.018C324.362 79.9593 324.428 79.8787 324.531 79.776C324.633 79.6587 324.787 79.6 324.993 79.6H326.709C326.87 79.6 327.002 79.6513 327.105 79.754C327.207 79.8567 327.259 79.9887 327.259 80.15V94.472C327.259 94.6187 327.207 94.7433 327.105 94.846C327.002 94.9487 326.87 95 326.709 95H324.861C324.699 95 324.567 94.9487 324.465 94.846C324.377 94.7433 324.333 94.6187 324.333 94.472V84.946L321.253 90.82C321.179 90.952 321.084 91.0693 320.967 91.172C320.849 91.26 320.695 91.304 320.505 91.304H319.603C319.397 91.304 319.236 91.26 319.119 91.172C319.016 91.0693 318.928 90.952 318.855 90.82L315.775 84.946V94.472C315.775 94.6187 315.723 94.7433 315.621 94.846C315.518 94.9487 315.393 95 315.247 95H313.399ZM336.236 95C336.09 95 335.965 94.956 335.862 94.868C335.76 94.7653 335.708 94.6333 335.708 94.472V80.15C335.708 79.9887 335.76 79.8567 335.862 79.754C335.965 79.6513 336.09 79.6 336.236 79.6H338.238C338.4 79.6 338.524 79.6513 338.612 79.754C338.715 79.8567 338.766 79.9887 338.766 80.15V85.826H345.256V80.15C345.256 79.9887 345.308 79.8567 345.41 79.754C345.513 79.6513 345.638 79.6 345.784 79.6H347.764C347.926 79.6 348.058 79.6513 348.16 79.754C348.263 79.8567 348.314 79.9887 348.314 80.15V94.472C348.314 94.6187 348.263 94.7433 348.16 94.846C348.058 94.9487 347.926 95 347.764 95H345.784C345.638 95 345.513 94.9487 345.41 94.846C345.308 94.7433 345.256 94.6187 345.256 94.472V88.576H338.766V94.472C338.766 94.6187 338.715 94.7433 338.612 94.846C338.524 94.9487 338.4 95 338.238 95H336.236ZM352.264 95C352.117 95 351.992 94.9487 351.89 94.846C351.787 94.7433 351.736 94.6187 351.736 94.472V80.128C351.736 79.9813 351.787 79.8567 351.89 79.754C351.992 79.6513 352.117 79.6 352.264 79.6H354.332C354.493 79.6 354.618 79.6513 354.706 79.754C354.808 79.8567 354.86 79.9813 354.86 80.128V94.472C354.86 94.6187 354.808 94.7433 354.706 94.846C354.618 94.9487 354.493 95 354.332 95H352.264ZM363.656 95.22C362.292 95.22 361.148 95.022 360.224 94.626C359.314 94.2153 358.618 93.6873 358.134 93.042C357.664 92.382 357.415 91.6927 357.386 90.974C357.386 90.842 357.43 90.732 357.518 90.644C357.606 90.556 357.716 90.512 357.848 90.512H359.806C359.996 90.512 360.136 90.556 360.224 90.644C360.326 90.7173 360.414 90.8127 360.488 90.93C360.576 91.2087 360.744 91.4873 360.994 91.766C361.243 92.03 361.58 92.25 362.006 92.426C362.446 92.602 362.996 92.69 363.656 92.69C364.712 92.69 365.496 92.514 366.01 92.162C366.538 91.81 366.802 91.3333 366.802 90.732C366.802 90.3067 366.662 89.9693 366.384 89.72C366.105 89.456 365.672 89.2213 365.086 89.016C364.514 88.796 363.751 88.5687 362.798 88.334C361.698 88.07 360.774 87.7547 360.026 87.388C359.292 87.0067 358.735 86.53 358.354 85.958C357.987 85.386 357.804 84.66 357.804 83.78C357.804 82.9293 358.031 82.174 358.486 81.514C358.955 80.854 359.615 80.3333 360.466 79.952C361.331 79.5707 362.358 79.38 363.546 79.38C364.499 79.38 365.342 79.512 366.076 79.776C366.809 80.0253 367.418 80.3627 367.902 80.788C368.386 81.1987 368.752 81.646 369.002 82.13C369.266 82.5993 369.405 83.0613 369.42 83.516C369.42 83.6333 369.376 83.7433 369.288 83.846C369.214 83.934 369.104 83.978 368.958 83.978H366.912C366.794 83.978 366.677 83.9487 366.56 83.89C366.442 83.8313 366.347 83.7213 366.274 83.56C366.186 83.1053 365.9 82.7167 365.416 82.394C364.932 82.0713 364.308 81.91 363.546 81.91C362.754 81.91 362.116 82.0567 361.632 82.35C361.148 82.6433 360.906 83.098 360.906 83.714C360.906 84.1247 361.023 84.4693 361.258 84.748C361.507 85.012 361.896 85.2467 362.424 85.452C362.966 85.6573 363.678 85.8773 364.558 86.112C365.804 86.3907 366.824 86.7133 367.616 87.08C368.408 87.4467 368.987 87.916 369.354 88.488C369.72 89.0453 369.904 89.7567 369.904 90.622C369.904 91.59 369.64 92.4187 369.112 93.108C368.598 93.7827 367.872 94.3033 366.934 94.67C365.995 95.0367 364.902 95.22 363.656 95.22ZM377.98 95C377.834 95 377.709 94.9487 377.606 94.846C377.504 94.7433 377.452 94.6187 377.452 94.472V80.128C377.452 79.9813 377.504 79.8567 377.606 79.754C377.709 79.6513 377.834 79.6 377.98 79.6H380.026C380.173 79.6 380.298 79.6513 380.4 79.754C380.503 79.8567 380.554 79.9813 380.554 80.128V92.382H387.528C387.69 92.382 387.822 92.4333 387.924 92.536C388.027 92.6387 388.078 92.7707 388.078 92.932V94.472C388.078 94.6187 388.027 94.7433 387.924 94.846C387.822 94.9487 387.69 95 387.528 95H377.98ZM390.742 95C390.595 95 390.471 94.9487 390.368 94.846C390.265 94.7433 390.214 94.6187 390.214 94.472V80.15C390.214 79.9887 390.265 79.8567 390.368 79.754C390.471 79.6513 390.595 79.6 390.742 79.6H400.422C400.583 79.6 400.715 79.6513 400.818 79.754C400.921 79.8567 400.972 79.9887 400.972 80.15V81.602C400.972 81.7487 400.921 81.8733 400.818 81.976C400.715 82.0787 400.583 82.13 400.422 82.13H393.184V86.024H399.938C400.099 86.024 400.231 86.0753 400.334 86.178C400.437 86.266 400.488 86.3907 400.488 86.552V87.916C400.488 88.0773 400.437 88.2093 400.334 88.312C400.231 88.4 400.099 88.444 399.938 88.444H393.184V92.47H400.598C400.759 92.47 400.891 92.5213 400.994 92.624C401.097 92.7267 401.148 92.8587 401.148 93.02V94.472C401.148 94.6187 401.097 94.7433 400.994 94.846C400.891 94.9487 400.759 95 400.598 95H390.742ZM402.954 95C402.836 95 402.726 94.956 402.624 94.868C402.536 94.78 402.492 94.67 402.492 94.538C402.492 94.4793 402.506 94.4133 402.536 94.34L407.838 80.15C407.882 80.0033 407.962 79.8787 408.08 79.776C408.212 79.6587 408.388 79.6 408.608 79.6H411.006C411.226 79.6 411.394 79.6587 411.512 79.776C411.629 79.8787 411.717 80.0033 411.776 80.15L417.078 94.34C417.092 94.4133 417.1 94.4793 417.1 94.538C417.1 94.67 417.056 94.78 416.968 94.868C416.88 94.956 416.777 95 416.66 95H414.746C414.54 95 414.386 94.956 414.284 94.868C414.196 94.7653 414.137 94.67 414.108 94.582L413.074 91.898H406.54L405.506 94.582C405.476 94.67 405.41 94.7653 405.308 94.868C405.22 94.956 405.073 95 404.868 95H402.954ZM407.31 89.368H412.304L409.796 82.57L407.31 89.368ZM422.503 95C422.268 95 422.085 94.9413 421.953 94.824C421.821 94.7067 421.725 94.56 421.667 94.384L416.959 80.26C416.929 80.1867 416.915 80.1207 416.915 80.062C416.915 79.93 416.959 79.82 417.047 79.732C417.135 79.644 417.245 79.6 417.377 79.6H419.313C419.518 79.6 419.672 79.6587 419.775 79.776C419.892 79.8787 419.965 79.9813 419.995 80.084L423.713 91.414L427.409 80.084C427.453 79.9813 427.526 79.8787 427.629 79.776C427.746 79.6587 427.907 79.6 428.113 79.6H430.049C430.166 79.6 430.269 79.644 430.357 79.732C430.459 79.82 430.511 79.93 430.511 80.062C430.511 80.1207 430.496 80.1867 430.467 80.26L425.759 94.384C425.7 94.56 425.605 94.7067 425.473 94.824C425.341 94.9413 425.157 95 424.923 95H422.503ZM433.367 95C433.22 95 433.096 94.9487 432.993 94.846C432.89 94.7433 432.839 94.6187 432.839 94.472V80.15C432.839 79.9887 432.89 79.8567 432.993 79.754C433.096 79.6513 433.22 79.6 433.367 79.6H443.047C443.208 79.6 443.34 79.6513 443.443 79.754C443.546 79.8567 443.597 79.9887 443.597 80.15V81.602C443.597 81.7487 443.546 81.8733 443.443 81.976C443.34 82.0787 443.208 82.13 443.047 82.13H435.809V86.024H442.563C442.724 86.024 442.856 86.0753 442.959 86.178C443.062 86.266 443.113 86.3907 443.113 86.552V87.916C443.113 88.0773 443.062 88.2093 442.959 88.312C442.856 88.4 442.724 88.444 442.563 88.444H435.809V92.47H443.223C443.384 92.47 443.516 92.5213 443.619 92.624C443.722 92.7267 443.773 92.8587 443.773 93.02V94.472C443.773 94.6187 443.722 94.7433 443.619 94.846C443.516 94.9487 443.384 95 443.223 95H433.367ZM136.139 121C136.022 121 135.912 120.956 135.809 120.868C135.721 120.78 135.677 120.67 135.677 120.538C135.677 120.479 135.692 120.413 135.721 120.34L141.023 106.15C141.067 106.003 141.148 105.879 141.265 105.776C141.397 105.659 141.573 105.6 141.793 105.6H144.191C144.411 105.6 144.58 105.659 144.697 105.776C144.814 105.879 144.902 106.003 144.961 106.15L150.263 120.34C150.278 120.413 150.285 120.479 150.285 120.538C150.285 120.67 150.241 120.78 150.153 120.868C150.065 120.956 149.962 121 149.845 121H147.931C147.726 121 147.572 120.956 147.469 120.868C147.381 120.765 147.322 120.67 147.293 120.582L146.259 117.898H139.725L138.691 120.582C138.662 120.67 138.596 120.765 138.493 120.868C138.405 120.956 138.258 121 138.053 121H136.139ZM140.495 115.368H145.489L142.981 108.57L140.495 115.368ZM152.867 121C152.72 121 152.596 120.949 152.493 120.846C152.39 120.743 152.339 120.619 152.339 120.472V106.15C152.339 105.989 152.39 105.857 152.493 105.754C152.596 105.651 152.72 105.6 152.867 105.6H154.561C154.766 105.6 154.913 105.651 155.001 105.754C155.104 105.842 155.17 105.908 155.199 105.952L161.535 115.808V106.15C161.535 105.989 161.579 105.857 161.667 105.754C161.77 105.651 161.902 105.6 162.063 105.6H163.911C164.072 105.6 164.204 105.651 164.307 105.754C164.41 105.857 164.461 105.989 164.461 106.15V120.45C164.461 120.611 164.41 120.743 164.307 120.846C164.204 120.949 164.08 121 163.933 121H162.217C162.012 121 161.865 120.949 161.777 120.846C161.689 120.743 161.623 120.677 161.579 120.648L155.265 111.012V120.472C155.265 120.619 155.214 120.743 155.111 120.846C155.008 120.949 154.876 121 154.715 121H152.867ZM168.422 121C168.275 121 168.15 120.949 168.048 120.846C167.945 120.743 167.894 120.619 167.894 120.472V106.15C167.894 105.989 167.945 105.857 168.048 105.754C168.15 105.651 168.275 105.6 168.422 105.6H173.79C175.271 105.6 176.488 105.827 177.442 106.282C178.41 106.737 179.136 107.411 179.62 108.306C180.118 109.201 180.375 110.293 180.39 111.584C180.419 112.229 180.434 112.801 180.434 113.3C180.434 113.799 180.419 114.363 180.39 114.994C180.36 116.358 180.111 117.487 179.642 118.382C179.172 119.262 178.461 119.922 177.508 120.362C176.569 120.787 175.366 121 173.9 121H168.422ZM170.952 118.47H173.79C174.611 118.47 175.278 118.353 175.792 118.118C176.305 117.883 176.679 117.509 176.914 116.996C177.163 116.468 177.295 115.779 177.31 114.928C177.324 114.488 177.332 114.107 177.332 113.784C177.346 113.447 177.346 113.117 177.332 112.794C177.332 112.457 177.324 112.075 177.31 111.65C177.28 110.447 176.98 109.56 176.408 108.988C175.836 108.416 174.926 108.13 173.68 108.13H170.952V118.47ZM188.918 121C188.771 121 188.646 120.956 188.544 120.868C188.441 120.765 188.39 120.633 188.39 120.472V106.15C188.39 105.989 188.441 105.857 188.544 105.754C188.646 105.651 188.771 105.6 188.918 105.6H190.92C191.081 105.6 191.206 105.651 191.294 105.754C191.396 105.857 191.448 105.989 191.448 106.15V111.826H197.938V106.15C197.938 105.989 197.989 105.857 198.092 105.754C198.194 105.651 198.319 105.6 198.466 105.6H200.446C200.607 105.6 200.739 105.651 200.842 105.754C200.944 105.857 200.996 105.989 200.996 106.15V120.472C200.996 120.619 200.944 120.743 200.842 120.846C200.739 120.949 200.607 121 200.446 121H198.466C198.319 121 198.194 120.949 198.092 120.846C197.989 120.743 197.938 120.619 197.938 120.472V114.576H191.448V120.472C191.448 120.619 191.396 120.743 191.294 120.846C191.206 120.949 191.081 121 190.92 121H188.918ZM203.471 121C203.354 121 203.244 120.956 203.141 120.868C203.053 120.78 203.009 120.67 203.009 120.538C203.009 120.479 203.024 120.413 203.053 120.34L208.355 106.15C208.399 106.003 208.48 105.879 208.597 105.776C208.729 105.659 208.905 105.6 209.125 105.6H211.523C211.743 105.6 211.912 105.659 212.029 105.776C212.147 105.879 212.235 106.003 212.293 106.15L217.595 120.34C217.61 120.413 217.617 120.479 217.617 120.538C217.617 120.67 217.573 120.78 217.485 120.868C217.397 120.956 217.295 121 217.177 121H215.263C215.058 121 214.904 120.956 214.801 120.868C214.713 120.765 214.655 120.67 214.625 120.582L213.591 117.898H207.057L206.023 120.582C205.994 120.67 205.928 120.765 205.825 120.868C205.737 120.956 205.591 121 205.385 121H203.471ZM207.827 115.368H212.821L210.313 108.57L207.827 115.368ZM223.02 121C222.786 121 222.602 120.941 222.47 120.824C222.338 120.707 222.243 120.56 222.184 120.384L217.476 106.26C217.447 106.187 217.432 106.121 217.432 106.062C217.432 105.93 217.476 105.82 217.564 105.732C217.652 105.644 217.762 105.6 217.894 105.6H219.83C220.036 105.6 220.19 105.659 220.292 105.776C220.41 105.879 220.483 105.981 220.512 106.084L224.23 117.414L227.926 106.084C227.97 105.981 228.044 105.879 228.146 105.776C228.264 105.659 228.425 105.6 228.63 105.6H230.566C230.684 105.6 230.786 105.644 230.874 105.732C230.977 105.82 231.028 105.93 231.028 106.062C231.028 106.121 231.014 106.187 230.984 106.26L226.276 120.384C226.218 120.56 226.122 120.707 225.99 120.824C225.858 120.941 225.675 121 225.44 121H223.02ZM233.885 121C233.738 121 233.613 120.949 233.511 120.846C233.408 120.743 233.357 120.619 233.357 120.472V106.15C233.357 105.989 233.408 105.857 233.511 105.754C233.613 105.651 233.738 105.6 233.885 105.6H243.565C243.726 105.6 243.858 105.651 243.961 105.754C244.063 105.857 244.115 105.989 244.115 106.15V107.602C244.115 107.749 244.063 107.873 243.961 107.976C243.858 108.079 243.726 108.13 243.565 108.13H236.327V112.024H243.081C243.242 112.024 243.374 112.075 243.477 112.178C243.579 112.266 243.631 112.391 243.631 112.552V113.916C243.631 114.077 243.579 114.209 243.477 114.312C243.374 114.4 243.242 114.444 243.081 114.444H236.327V118.47H243.741C243.902 118.47 244.034 118.521 244.137 118.624C244.239 118.727 244.291 118.859 244.291 119.02V120.472C244.291 120.619 244.239 120.743 244.137 120.846C244.034 120.949 243.902 121 243.741 121H233.885ZM252.598 121C252.451 121 252.326 120.949 252.224 120.846C252.121 120.743 252.07 120.619 252.07 120.472V106.128C252.07 105.981 252.121 105.857 252.224 105.754C252.326 105.651 252.451 105.6 252.598 105.6H254.666C254.827 105.6 254.952 105.651 255.04 105.754C255.142 105.857 255.194 105.981 255.194 106.128V120.472C255.194 120.619 255.142 120.743 255.04 120.846C254.952 120.949 254.827 121 254.666 121H252.598ZM262.56 121C262.413 121 262.288 120.949 262.186 120.846C262.083 120.743 262.032 120.619 262.032 120.472V108.306H257.962C257.815 108.306 257.69 108.255 257.588 108.152C257.485 108.049 257.434 107.925 257.434 107.778V106.15C257.434 105.989 257.485 105.857 257.588 105.754C257.69 105.651 257.815 105.6 257.962 105.6H269.182C269.343 105.6 269.475 105.651 269.578 105.754C269.68 105.857 269.732 105.989 269.732 106.15V107.778C269.732 107.925 269.68 108.049 269.578 108.152C269.475 108.255 269.343 108.306 269.182 108.306H265.134V120.472C265.134 120.619 265.082 120.743 264.98 120.846C264.877 120.949 264.745 121 264.584 121H262.56ZM276.982 121C276.836 121 276.711 120.949 276.608 120.846C276.506 120.743 276.454 120.619 276.454 120.472V106.15C276.454 105.989 276.506 105.857 276.608 105.754C276.711 105.651 276.836 105.6 276.982 105.6H282.35C283.832 105.6 285.049 105.827 286.002 106.282C286.97 106.737 287.696 107.411 288.18 108.306C288.679 109.201 288.936 110.293 288.95 111.584C288.98 112.229 288.994 112.801 288.994 113.3C288.994 113.799 288.98 114.363 288.95 114.994C288.921 116.358 288.672 117.487 288.202 118.382C287.733 119.262 287.022 119.922 286.068 120.362C285.13 120.787 283.927 121 282.46 121H276.982ZM279.512 118.47H282.35C283.172 118.47 283.839 118.353 284.352 118.118C284.866 117.883 285.24 117.509 285.474 116.996C285.724 116.468 285.856 115.779 285.87 114.928C285.885 114.488 285.892 114.107 285.892 113.784C285.907 113.447 285.907 113.117 285.892 112.794C285.892 112.457 285.885 112.075 285.87 111.65C285.841 110.447 285.54 109.56 284.968 108.988C284.396 108.416 283.487 108.13 282.24 108.13H279.512V118.47ZM297.841 121.22C296.536 121.22 295.414 121.007 294.475 120.582C293.536 120.142 292.803 119.475 292.275 118.58C291.747 117.671 291.461 116.541 291.417 115.192C291.402 114.561 291.395 113.938 291.395 113.322C291.395 112.706 291.402 112.075 291.417 111.43C291.461 110.095 291.754 108.981 292.297 108.086C292.84 107.191 293.58 106.517 294.519 106.062C295.472 105.607 296.58 105.38 297.841 105.38C299.102 105.38 300.21 105.607 301.163 106.062C302.116 106.517 302.864 107.191 303.407 108.086C303.95 108.981 304.243 110.095 304.287 111.43C304.316 112.075 304.331 112.706 304.331 113.322C304.331 113.938 304.316 114.561 304.287 115.192C304.243 116.541 303.957 117.671 303.429 118.58C302.901 119.475 302.16 120.142 301.207 120.582C300.268 121.007 299.146 121.22 297.841 121.22ZM297.841 118.69C298.794 118.69 299.572 118.411 300.173 117.854C300.774 117.282 301.097 116.358 301.141 115.082C301.17 114.437 301.185 113.843 301.185 113.3C301.185 112.743 301.17 112.149 301.141 111.518C301.112 110.667 300.95 109.978 300.657 109.45C300.378 108.907 299.997 108.519 299.513 108.284C299.029 108.035 298.472 107.91 297.841 107.91C297.225 107.91 296.675 108.035 296.191 108.284C295.707 108.519 295.318 108.907 295.025 109.45C294.746 109.978 294.592 110.667 294.563 111.518C294.548 112.149 294.541 112.743 294.541 113.3C294.541 113.843 294.548 114.437 294.563 115.082C294.607 116.358 294.93 117.282 295.531 117.854C296.132 118.411 296.902 118.69 297.841 118.69ZM307.748 121C307.601 121 307.477 120.949 307.374 120.846C307.271 120.743 307.22 120.619 307.22 120.472V106.15C307.22 105.989 307.271 105.857 307.374 105.754C307.477 105.651 307.601 105.6 307.748 105.6H309.442C309.647 105.6 309.794 105.651 309.882 105.754C309.985 105.842 310.051 105.908 310.08 105.952L316.416 115.808V106.15C316.416 105.989 316.46 105.857 316.548 105.754C316.651 105.651 316.783 105.6 316.944 105.6H318.792C318.953 105.6 319.085 105.651 319.188 105.754C319.291 105.857 319.342 105.989 319.342 106.15V120.45C319.342 120.611 319.291 120.743 319.188 120.846C319.085 120.949 318.961 121 318.814 121H317.098C316.893 121 316.746 120.949 316.658 120.846C316.57 120.743 316.504 120.677 316.46 120.648L310.146 111.012V120.472C310.146 120.619 310.095 120.743 309.992 120.846C309.889 120.949 309.757 121 309.596 121H307.748ZM323.303 121C323.156 121 323.031 120.949 322.929 120.846C322.826 120.743 322.775 120.619 322.775 120.472V106.15C322.775 105.989 322.826 105.857 322.929 105.754C323.031 105.651 323.156 105.6 323.303 105.6H332.983C333.144 105.6 333.276 105.651 333.379 105.754C333.481 105.857 333.533 105.989 333.533 106.15V107.602C333.533 107.749 333.481 107.873 333.379 107.976C333.276 108.079 333.144 108.13 332.983 108.13H325.745V112.024H332.499C332.66 112.024 332.792 112.075 332.895 112.178C332.997 112.266 333.049 112.391 333.049 112.552V113.916C333.049 114.077 332.997 114.209 332.895 114.312C332.792 114.4 332.66 114.444 332.499 114.444H325.745V118.47H333.159C333.32 118.47 333.452 118.521 333.555 118.624C333.657 118.727 333.709 118.859 333.709 119.02V120.472C333.709 120.619 333.657 120.743 333.555 120.846C333.452 120.949 333.32 121 333.159 121H323.303ZM336.592 121C336.445 121 336.321 120.949 336.218 120.846C336.115 120.743 336.064 120.619 336.064 120.472V118.294C336.064 118.133 336.115 118.001 336.218 117.898C336.321 117.795 336.445 117.744 336.592 117.744H338.792C338.939 117.744 339.063 117.795 339.166 117.898C339.269 118.001 339.32 118.133 339.32 118.294V120.472C339.32 120.619 339.269 120.743 339.166 120.846C339.063 120.949 338.939 121 338.792 121H336.592Z" fill="white"/>
</svg>
