<svg width="265" height="228" viewBox="0 0 265 228" fill="none" xmlns="http://www.w3.org/2000/svg">
<path d="M101.561 227.538C95.2771 228.542 88.2774 226.543 83.8873 222.101L24.809 162.368C23.5942 161.178 22.6446 159.744 22.0221 158.162C21.3995 156.579 21.1181 154.883 21.1964 153.184C21.2747 151.485 21.7107 149.822 22.4762 148.303C23.2416 146.785 24.319 145.445 25.6381 144.371C31.3984 139.405 43.3818 138.489 48.9065 143.848L112.881 205.815C119.235 211.924 118.179 220.547 110.664 224.789C108.831 225.775 103.656 227.207 101.561 227.538Z" fill="url(#paint0_linear_355_11368)"/>
<path style="mix-blend-mode:multiply" opacity="0.3" d="M25.6381 144.371C31.3984 139.405 43.3818 138.489 48.9065 143.848L107.156 200.238C100.985 200.438 94.4044 202.219 86.3311 199.155C73.1696 194.163 74.2346 183 62.9321 176.585C57.8525 173.696 49.8403 171.541 36.5915 174.281L24.809 162.368C23.5942 161.178 22.6446 159.744 22.0221 158.162C21.3995 156.579 21.1181 154.883 21.1964 153.184C21.2747 151.485 21.7107 149.822 22.4762 148.303C23.2416 146.785 24.319 145.445 25.6381 144.371Z" fill="url(#paint1_linear_355_11368)"/>
<path d="M31.1172 175.668C40.9581 172.123 45.9587 160.985 42.2864 150.791C38.6141 140.596 27.6596 135.205 17.8187 138.75C7.97778 142.295 2.97698 153.433 6.64928 163.628C10.3216 173.823 21.2763 179.213 31.1172 175.668Z" fill="url(#paint2_linear_355_11368)"/>
<path d="M17.0039 139.483C17.1155 152.754 21.7316 165.593 30.0956 175.896L149.151 184.301L104.247 55.4785L17.0039 139.483Z" fill="url(#paint3_linear_355_11368)"/>
<path style="mix-blend-mode:multiply" opacity="0.3" d="M102.591 156.992C90.372 156.032 81.2952 140.688 69.661 144.31C60.9332 147.033 61.8059 157.454 53.401 159.2C44.9962 160.946 40.1173 151.223 30.4294 150.874C26.1441 150.717 22.4437 152.48 19.293 155.238C21.49 162.788 25.1723 169.823 30.1241 175.931L149.18 184.336L125.912 143.315C116.363 154.461 108.7 157.481 102.591 156.992Z" fill="url(#paint4_linear_355_11368)"/>
<path d="M150.431 183.853C177.115 174.241 188.404 137.737 175.645 102.319C162.887 66.9011 130.913 45.981 104.229 55.593C77.5454 65.205 66.2567 101.709 79.015 137.127C91.7733 172.545 123.747 193.465 150.431 183.853Z" fill="#D8DEE8"/>
<path d="M149.694 181.56C155.494 179.423 160.637 175.814 164.619 171.087C169.14 165.73 172.49 159.487 174.455 152.758C179.107 137.729 178.33 120.195 172.273 103.385C166.216 86.5756 155.629 72.5675 142.459 63.9532C136.67 60.0458 130.131 57.3855 123.258 56.1417C117.181 55.0065 110.911 55.513 105.095 57.6087C99.2791 59.7044 94.1272 63.3135 90.1709 68.064C85.6507 73.4212 82.3003 79.6641 80.3347 86.3923C78.3704 92.8558 77.3591 99.5711 77.3324 106.326C77.2539 115.927 89.5513 121.574 93.0424 131.349C96.7866 141.753 91.7158 155.499 98.4711 163.144C102.523 167.762 107.175 171.816 112.305 175.198C118.09 179.12 124.63 181.795 131.506 183.053C137.595 184.142 143.864 183.627 149.694 181.56Z" fill="url(#paint5_linear_355_11368)"/>
<mask id="mask0_355_11368" style="mask-type:luminance" maskUnits="userSpaceOnUse" x="77" y="55" width="101" height="129">
<path d="M149.697 181.56C155.496 179.423 160.64 175.813 164.622 171.086C169.143 165.73 172.493 159.487 174.458 152.758C179.11 137.729 178.333 120.195 172.276 103.385C166.219 86.5751 155.632 72.567 142.462 63.9527C136.672 60.0453 130.134 57.385 123.261 56.1412C117.184 55.006 110.914 55.5125 105.098 57.6082C99.2818 59.7039 94.1299 63.313 90.1737 68.0635C85.6534 73.4207 82.303 79.6636 80.3374 86.3918C75.6855 101.43 76.4623 118.964 82.5194 135.774C88.5765 152.583 99.1632 166.583 112.333 175.197C118.119 179.119 124.658 181.795 131.535 183.052C137.616 184.136 143.874 183.622 149.697 181.56Z" fill="white"/>
</mask>
<g mask="url(#mask0_355_11368)">
<path d="M131.655 119.016C137.512 135.267 128.295 153.16 111.311 158.902C94.5883 164.567 76.609 156.284 70.9185 140.487C65.228 124.689 73.8511 107.007 90.4077 100.906C107.226 94.7006 125.808 102.774 131.655 119.016Z" fill="url(#paint6_linear_355_11368)"/>
<path style="mix-blend-mode:multiply" opacity="0.3" d="M128.896 119.741C133.26 131.802 129.935 143.812 121.635 146.535C113.335 149.258 103.49 141.839 99.2656 130.109C95.0413 118.379 98.0612 106.466 106.117 103.463C114.173 100.461 124.55 107.644 128.896 119.741Z" fill="url(#paint7_linear_355_11368)"/>
</g>
<path d="M143.621 104.52C143.621 104.52 151.677 98.1137 155.744 89.0717C147.016 81.2167 141.238 70.9527 139.894 59.4669C136.656 31.922 159.916 5.75614 193.247 0.816215C227.338 -4.22845 259.107 14.6149 263.995 43.4079C264.056 43.7657 264.108 44.1235 264.161 44.4814V44.6384C264.204 44.9963 264.257 45.3453 264.3 45.7032C264.488 47.3317 264.59 48.9691 264.606 50.6083C264.606 51.3065 264.606 51.9959 264.606 52.6854C264.553 54.0644 264.44 55.4348 264.265 56.7876C264.178 57.4684 264.073 58.1403 263.951 58.8123C263.873 59.2575 263.785 59.6851 263.698 60.1477C261.525 70.5687 255.721 80.0732 247.394 87.6228L246.862 88.1028C243.932 90.691 240.771 93.0047 237.419 95.0152L236.782 95.3994C235.272 96.2721 233.727 97.1448 232.13 97.8867C231.449 98.2183 230.759 98.5413 230.061 98.8468L228.647 99.4577C227.937 99.7544 227.222 100.045 226.5 100.33L225.051 100.863C218.739 103.111 212.15 104.491 205.466 104.965C204.96 105.009 204.445 105.035 203.939 105.061H203.502L202.411 105.105H201.931H200.884H198.981C198.589 105.105 198.205 105.105 197.821 105.105H197.524C197.096 105.105 196.651 105.105 196.258 105.052H196.084L194.661 104.965C190.749 104.683 186.866 104.078 183.053 103.158C180.875 102.63 178.726 101.993 176.612 101.247C172.266 105.585 160.859 113.902 143.621 104.52Z" fill="url(#paint8_linear_355_11368)"/>
<path d="M135.409 59.7988C138.647 87.3437 167.361 107.802 200.989 105.332C236.293 102.757 263.384 76.1722 259.849 46.07C256.315 15.9679 223.769 -4.0362 188.762 1.14811C155.43 6.08803 132.179 32.2539 135.409 59.7988Z" fill="url(#paint9_linear_355_11368)"/>
<path d="M200.971 105.082L200.971 105.082C167.438 107.545 138.875 87.1467 135.657 59.7697C132.448 32.3948 155.562 6.32127 188.798 1.39541C223.712 -3.7751 256.088 16.1796 259.601 46.0992C263.114 76.0163 236.181 102.514 200.971 105.082Z" fill="white" stroke="black" stroke-width="0.5"/>
<path d="M174.071 99.3966C174.071 99.3966 161.512 117.027 139.16 104.86C139.16 104.86 154.486 92.6413 153.535 78.1968L174.071 99.3966Z" fill="white"/>
<path d="M190.016 80.335C189.946 79.251 190.11 78.1643 190.497 77.1493C190.884 76.1342 191.485 75.2146 192.26 74.4525C193.907 72.9288 196.048 72.0481 198.291 71.9712C200.534 71.8943 202.73 72.6261 204.478 74.0334C205.278 74.7615 205.924 75.6423 206.378 76.6238C206.832 77.6053 207.086 78.6676 207.123 79.7484C207.161 80.8293 206.981 81.9068 206.596 82.9174C206.211 83.9279 205.627 84.851 204.88 85.6327C203.232 87.1564 201.091 88.0371 198.848 88.114C196.605 88.1909 194.409 87.4589 192.661 86.0516C191.835 85.3453 191.17 84.4689 190.714 83.4822C190.258 82.4956 190.02 81.4221 190.016 80.335ZM204.409 65.0265L191.928 65.4541L188.332 18.036L204.74 17.4688L204.409 65.0265Z" fill="url(#paint10_linear_355_11368)"/>
<g style="mix-blend-mode:multiply" opacity="0.3">
<path d="M184.468 93.2963C190.071 77.3855 180.977 63.8574 189.757 52.9128C198.86 41.6365 213.567 49.5439 227.514 39.4546C232.986 35.5009 238.816 28.4315 242.202 14.8423C251.882 22.8369 258.393 33.642 259.85 46.0703C263.385 76.1725 236.285 102.757 200.99 105.332C193.462 105.892 185.893 105.286 178.551 103.534C181.134 100.513 183.14 97.0428 184.468 93.2963Z" fill="url(#paint11_linear_355_11368)"/>
</g>
<path d="M180.512 149.564C180.652 147.513 201.764 145.288 203.554 150.55C204.426 153.09 199.905 154.845 199.635 158.877C198.937 169.071 226.429 176.42 225.618 179.474C224.684 182.965 187.023 178.863 185.906 169.175C185.347 164.358 194.136 160.683 192.775 155.935C191.326 150.943 180.416 151.048 180.512 149.564Z" fill="white"/>
<path d="M185.887 130.442C186.463 127.588 197.399 125.205 200.105 129.464C200.732 130.675 200.928 132.063 200.662 133.4C200.395 134.737 199.682 135.944 198.638 136.822C194.519 139.702 185.337 133.304 185.887 130.442Z" fill="white"/>
<defs>
<linearGradient id="paint0_linear_355_11368" x1="80.1378" y1="154.587" x2="57.865" y2="214.208" gradientUnits="userSpaceOnUse">
<stop stop-color="#311944"/>
<stop offset="1" stop-color="#893976"/>
</linearGradient>
<linearGradient id="paint1_linear_355_11368" x1="73.1148" y1="151.959" x2="51.039" y2="211.045" gradientUnits="userSpaceOnUse">
<stop stop-color="#311944"/>
<stop offset="1" stop-color="#893976"/>
</linearGradient>
<linearGradient id="paint2_linear_355_11368" x1="31.3239" y1="139.08" x2="17.7798" y2="175.315" gradientUnits="userSpaceOnUse">
<stop stop-color="#311944"/>
<stop offset="1" stop-color="#893976"/>
</linearGradient>
<linearGradient id="paint3_linear_355_11368" x1="17.5857" y1="149.405" x2="131.348" y2="118.731" gradientUnits="userSpaceOnUse">
<stop stop-color="#E38DDD"/>
<stop offset="1" stop-color="#9571F6"/>
</linearGradient>
<linearGradient id="paint4_linear_355_11368" x1="34.2907" y1="84.8191" x2="133.195" y2="255.73" gradientUnits="userSpaceOnUse">
<stop stop-color="#AA80F9"/>
<stop offset="1" stop-color="#6165D7"/>
</linearGradient>
<linearGradient id="paint5_linear_355_11368" x1="69.1163" y1="139.218" x2="172.986" y2="104.617" gradientUnits="userSpaceOnUse">
<stop stop-color="#311944"/>
<stop offset="1" stop-color="#893976"/>
</linearGradient>
<linearGradient id="paint6_linear_355_11368" x1="70.0586" y1="138.258" x2="132.282" y2="121.481" gradientUnits="userSpaceOnUse">
<stop stop-color="#FF9085"/>
<stop offset="1" stop-color="#FB6FBB"/>
</linearGradient>
<linearGradient id="paint7_linear_355_11368" x1="89.3503" y1="82.2487" x2="138.945" y2="167.959" gradientUnits="userSpaceOnUse">
<stop stop-color="#FF9085"/>
<stop offset="1" stop-color="#FB6FBB"/>
</linearGradient>
<linearGradient id="paint8_linear_355_11368" x1="80.8192" y1="-168.885" x2="321.285" y2="270.098" gradientUnits="userSpaceOnUse">
<stop stop-color="#311944"/>
<stop offset="1" stop-color="#893976"/>
</linearGradient>
<linearGradient id="paint9_linear_355_11368" x1="216.47" y1="-6.13741" x2="150.764" y2="161.36" gradientUnits="userSpaceOnUse">
<stop stop-color="#FF9085"/>
<stop offset="1" stop-color="#FB6FBB"/>
</linearGradient>
<linearGradient id="paint10_linear_355_11368" x1="181.668" y1="-0.292653" x2="215.139" y2="106.032" gradientUnits="userSpaceOnUse">
<stop stop-color="#FF9085"/>
<stop offset="1" stop-color="#FB6FBB"/>
</linearGradient>
<linearGradient id="paint11_linear_355_11368" x1="240.462" y1="-0.172559" x2="177.107" y2="177.964" gradientUnits="userSpaceOnUse">
<stop stop-color="#FF9085"/>
<stop offset="1" stop-color="#FB6FBB"/>
</linearGradient>
</defs>
</svg>
