<svg width="34" height="24" viewBox="0 0 34 24" fill="none" xmlns="http://www.w3.org/2000/svg">
<path d="M9.80648 22.4106C9.63802 22.6062 9.40016 22.7679 9.11604 22.8799C8.83193 22.992 8.51124 23.0507 8.18519 23.0502C7.84149 23.0516 7.50386 22.9867 7.20926 22.8627C6.92593 22.7414 0 19.742 0 12.0231C0 4.3041 6.92593 1.30472 7.20926 1.18342C7.42129 1.08119 7.66092 1.01039 7.91342 0.975379C8.16593 0.940366 8.42598 0.941877 8.67762 0.979818C8.92927 1.01776 9.16718 1.09133 9.37677 1.19602C9.58635 1.3007 9.76318 1.43429 9.8964 1.58858C10.0296 1.74288 10.1164 1.91461 10.1515 2.09326C10.1865 2.2719 10.1691 2.45368 10.1002 2.62743C10.0314 2.80118 9.91255 2.96324 9.75106 3.10365C9.58956 3.24407 9.38881 3.35988 9.16111 3.44398C8.925 3.55425 2.975 5.88097 2.975 12.0231C2.975 18.1652 8.95648 20.5029 9.17685 20.6022C9.60062 20.7848 9.90444 21.0771 10.0223 21.4157C10.1402 21.7543 10.0626 22.1118 9.80648 22.4106ZM26.7907 1.18342C26.3628 1.00064 25.8488 0.944422 25.3617 1.02714C24.8747 1.10986 24.4544 1.32474 24.1935 1.62451C23.9326 1.92428 23.8524 2.28438 23.9704 2.6256C24.0885 2.96681 24.3952 3.2612 24.8231 3.44398C25.0435 3.54323 31.025 5.86994 31.025 12.0231C31.025 18.1762 25.0435 20.5029 24.8389 20.5911C24.4836 20.7399 24.2079 20.9663 24.0542 21.2356C23.9005 21.5048 23.8773 21.802 23.9882 22.0814C24.0991 22.3608 24.3379 22.6069 24.6679 22.7819C24.9979 22.957 25.4009 23.0512 25.8148 23.0502C26.1575 23.0464 26.4932 22.9819 26.7907 22.8627C27.0741 22.7414 34 19.742 34 12.0231C34 4.3041 27.0741 1.30472 26.7907 1.18342Z" fill="#6955A0"/>
<path d="M29.0619 12.3805C29.0619 12.3713 29.0619 12.361 29.0619 12.3519C29.0619 12.2855 29.0619 12.2203 29.0619 12.1551C29.0619 12.138 29.0619 12.1219 29.0619 12.1048C29.0518 12.0234 29.0339 11.9424 29.0086 11.8623C29.0086 11.8623 29.0086 11.8531 29.0086 11.8474C29.0086 11.8417 28.9895 11.8096 28.9819 11.7902C28.9628 11.7364 28.94 11.6838 28.9133 11.6312C28.8981 11.6026 28.8809 11.574 28.8638 11.5465C28.8333 11.4985 28.8028 11.4516 28.7685 11.4035C28.7571 11.3898 28.7514 11.3749 28.74 11.3612C28.7285 11.3475 28.7171 11.3383 28.7076 11.328C28.6335 11.2354 28.5489 11.1459 28.4542 11.0603C28.3739 10.9887 28.2874 10.9195 28.1952 10.8533C28.1856 10.8475 28.178 10.8407 28.1685 10.8338C28.1075 10.7915 28.0447 10.7503 27.978 10.7091C27.4332 10.3774 26.8884 10.0467 26.3455 9.71384C26.4217 9.7596 26.4922 9.80879 26.5607 9.85798C26.6536 9.92426 26.7407 9.99337 26.8217 10.065C26.9157 10.1507 26.9998 10.2401 27.0732 10.3327C27.0941 10.3579 27.1151 10.3831 27.1341 10.4094C27.1684 10.4551 27.1989 10.5032 27.2294 10.5501C27.2446 10.5787 27.2637 10.6073 27.2789 10.6359C27.2941 10.6645 27.2999 10.6862 27.3113 10.7114L26.0102 9.91747C25.3934 9.54769 24.5891 9.31182 23.7243 9.24708C22.3544 9.14061 20.9738 9.09131 19.5926 9.09951C18.1924 9.09951 16.7904 9.13497 15.3884 9.16357C15.0246 9.17044 14.6569 9.17272 14.2836 9.17272C13.7121 9.17272 13.1406 9.17272 12.5691 9.17272C10.9366 9.17272 9.29076 9.21391 7.76492 9.5308C7.64991 9.55594 7.53897 9.58734 7.43347 9.6246C7.39537 9.63719 7.35917 9.65206 7.32298 9.66693C7.24873 9.69485 7.17688 9.72501 7.10772 9.75731C7.09249 9.76532 7.07534 9.77104 7.0582 9.77904C7.04105 9.78705 7.02391 9.80078 7.00486 9.80993C6.90385 9.86274 6.80782 9.91888 6.71722 9.9781L6.66959 10.0067L6.65245 10.0193C6.54636 10.0925 6.44654 10.1688 6.35338 10.2481C6.34699 10.2537 6.33999 10.259 6.33242 10.2641C6.31719 10.279 6.30575 10.2938 6.28861 10.3087C6.21813 10.3751 6.14955 10.4437 6.08669 10.5158C6.07335 10.5306 6.05621 10.5432 6.04478 10.5592C6.03538 10.5704 6.02711 10.5818 6.02002 10.5936C5.948 10.6805 5.88439 10.7699 5.82952 10.8613L5.81809 10.8738C5.76036 10.9692 5.71264 11.0666 5.67523 11.1656L5.65808 11.1976C5.65808 11.2136 5.65808 11.2296 5.64665 11.2445C5.61951 11.3273 5.5998 11.411 5.5876 11.495C5.58191 11.5109 5.57809 11.5269 5.57617 11.5431C5.57617 11.5522 5.57617 11.5614 5.57617 11.5705C5.57617 11.6094 5.57617 11.6483 5.57617 11.6849C5.57617 11.7215 5.57617 11.765 5.57617 11.7993C5.57617 11.8337 5.59141 11.8748 5.60093 11.9137C5.61046 11.9526 5.61046 11.9744 5.61998 12.0041C5.62292 12.0115 5.62674 12.0188 5.63141 12.0258C5.66263 12.1133 5.70793 12.1988 5.76666 12.281V12.2901C5.8116 12.3492 5.86382 12.4062 5.92287 12.4606L5.9762 12.504C6.00642 12.5323 6.0395 12.5594 6.07526 12.5853C6.10764 12.6093 6.14384 12.6333 6.18003 12.6562L7.46966 13.4421C7.00775 13.3379 6.56989 13.1988 6.16669 13.028C6.05238 12.9782 5.94532 12.9228 5.84667 12.8621L7.47918 13.8574C7.57783 13.918 7.68489 13.9735 7.79921 14.0233C8.94216 14.5209 10.5442 14.7749 12.5482 14.7749C13.3991 14.7694 14.2485 14.7312 15.0912 14.6605C16.8057 14.5289 18.4286 14.4042 20.0916 14.4042C20.5145 14.4042 20.9279 14.4145 21.3203 14.4294C21.7127 14.4443 22.1337 14.4809 22.5642 14.5163C23.2024 14.5759 23.8464 14.6099 24.492 14.6181C25.6045 14.6181 26.4865 14.4626 27.2751 14.1251C27.3741 14.0816 27.4656 14.037 27.5646 13.9901L27.5761 13.9844C27.6218 13.9615 27.6637 13.9375 27.7075 13.9134C27.7513 13.8894 27.8123 13.8597 27.8599 13.8311C27.9075 13.8025 27.938 13.7819 27.9761 13.7579C28.0142 13.7338 28.0618 13.7064 28.0999 13.6801C28.1048 13.6775 28.1087 13.6744 28.1113 13.6709C28.2175 13.5984 28.3161 13.522 28.4066 13.4421L28.4371 13.4192C28.4523 13.4055 28.4619 13.3918 28.4752 13.3792C28.5323 13.3254 28.5857 13.2717 28.6352 13.2167C28.6485 13.203 28.6638 13.1904 28.6752 13.1756L28.6924 13.1527C28.7476 13.084 28.799 13.0154 28.8428 12.9456C28.8448 12.9411 28.8481 12.9369 28.8524 12.933C28.8924 12.8667 28.9286 12.7992 28.9571 12.7317C28.9571 12.7145 28.9705 12.6962 28.9762 12.6791C28.9819 12.6619 28.9762 12.6493 28.9876 12.6356C29.0127 12.56 29.0298 12.4836 29.039 12.4068C29.0543 12.4148 29.06 12.3999 29.0619 12.3805Z" fill="url(#paint0_linear_173_6546)"/>
<path d="M26.818 10.0693C27.0975 10.3121 27.2882 10.5877 27.3775 10.878C27.4668 11.1682 27.4527 11.4665 27.3362 11.7533C27.0685 12.3232 26.4724 12.8174 25.6541 13.1478C24.8674 13.491 23.9835 13.6409 22.871 13.6409C22.2254 13.6326 21.5814 13.5986 20.9433 13.5391C20.5128 13.5036 20.1051 13.4704 19.6994 13.4533C19.2936 13.4361 18.8936 13.4269 18.4707 13.4269C16.8096 13.4269 15.1866 13.5516 13.4722 13.6832C12.6288 13.754 11.7787 13.7922 10.9272 13.7976C8.92324 13.7976 7.32501 13.5436 6.17825 13.046C5.31913 12.6696 4.94386 12.029 5.15912 11.2877C5.41819 10.3725 6.48113 9.50991 7.63551 9.26852C9.2966 8.92533 11.0644 8.89215 12.5978 8.89215H13.4607C13.7446 8.89215 14.0322 8.89215 14.3065 8.89215C14.7294 8.89215 15.0685 8.89215 15.3942 8.88186L16.1257 8.86698C17.2687 8.84182 18.4516 8.81665 19.6136 8.81665C21.0146 8.80916 22.4148 8.85923 23.8045 8.96651C24.408 9.01197 24.9887 9.13377 25.5081 9.32386C26.0276 9.51395 26.474 9.76803 26.818 10.0693ZM26.879 11.6927C27.34 10.5853 25.9265 9.43212 23.7244 9.25137C22.3545 9.1449 20.974 9.09559 19.5927 9.10379C18.1926 9.10379 16.7905 9.13926 15.3885 9.16786C15.0247 9.17472 14.657 9.17701 14.2837 9.17701C13.7122 9.17701 13.1407 9.17701 12.5692 9.17701C10.9367 9.17701 9.29088 9.21819 7.76505 9.53508C6.06205 9.89086 4.52669 11.9764 6.46018 12.8149C7.69647 13.3549 9.34613 13.515 10.9367 13.515C11.7562 13.5123 12.5745 13.4775 13.3865 13.4109C15.1009 13.2794 16.7753 13.1501 18.4783 13.1501C18.8974 13.1501 19.3203 13.157 19.7432 13.1753C20.7642 13.2187 21.8386 13.3629 22.8806 13.3629C23.7708 13.3826 24.6477 13.2284 25.3798 12.9236C26.2142 12.5655 26.6904 12.1331 26.8733 11.6972L26.879 11.6927Z" fill="url(#paint1_linear_173_6546)"/>
<path d="M19.5925 9.10439C20.9738 9.09619 22.3544 9.1455 23.7243 9.25197C25.9245 9.43272 27.3436 10.5859 26.8788 11.6933C26.6884 12.1291 26.2197 12.5615 25.3854 12.9196C24.6549 13.2237 23.7802 13.3778 22.8919 13.3589C21.8461 13.3589 20.7755 13.2148 19.7545 13.1713C19.3316 13.153 18.9087 13.1461 18.4896 13.1461C16.7866 13.1461 15.1084 13.2754 13.3977 13.407C12.5858 13.4735 11.7675 13.5083 10.948 13.5111C9.35741 13.5111 7.70966 13.3509 6.47146 12.8109C4.54749 11.9724 6.07333 9.88689 7.77633 9.5311C9.30026 9.21422 10.948 9.17303 12.5805 9.17303C13.152 9.17303 13.7235 9.17303 14.295 9.17303C14.6759 9.17303 15.036 9.17304 15.3998 9.16388C16.7961 9.13986 18.1924 9.10439 19.5925 9.10439Z" fill="url(#paint2_linear_173_6546)"/>
<defs>
<linearGradient id="paint0_linear_173_6546" x1="19.6592" y1="8.12368" x2="18.3091" y2="14.2491" gradientUnits="userSpaceOnUse">
<stop stop-color="#7C5AAB"/>
<stop offset="0.71" stop-color="#1F1A3D"/>
<stop offset="0.97"/>
</linearGradient>
<linearGradient id="paint1_linear_173_6546" x1="26.9171" y1="15.3557" x2="15.6234" y2="3.56868" gradientUnits="userSpaceOnUse">
<stop stop-color="#C28BFF"/>
<stop offset="0.95" stop-color="#56498B"/>
</linearGradient>
<linearGradient id="paint2_linear_173_6546" x1="5.57043" y1="11.3077" x2="26.9665" y2="11.3077" gradientUnits="userSpaceOnUse">
<stop stop-color="#C28BFF"/>
<stop offset="0.95" stop-color="#56498B"/>
</linearGradient>
</defs>
</svg>
