<svg width="148" height="68" viewBox="0 0 148 68" fill="none" xmlns="http://www.w3.org/2000/svg">
<g filter="url(#filter0_d_1_65043)">
<path fill-rule="evenodd" clip-rule="evenodd" d="M14.5249 6H132.999C134.198 6.00288 135.348 6.59477 136.196 7.64605C137.044 8.69733 137.521 10.1223 137.523 11.6091V48.2318C137.521 49.7176 137.043 51.1414 136.195 52.191C135.347 53.2405 134.197 53.83 132.999 53.83H14.5249C13.3263 53.83 12.1767 53.2405 11.3284 52.191C10.4801 51.1414 10.0023 49.7176 10 48.2318V11.5982C10.007 10.1142 10.4862 8.69365 11.3335 7.64533C12.1808 6.59702 13.3277 6.00573 14.5249 6Z" fill="#AB0000"/>
<path fill-rule="evenodd" clip-rule="evenodd" d="M14.5237 9.61208H132.997C133.208 9.6112 133.417 9.66183 133.612 9.76107C133.807 9.86032 133.984 10.0062 134.133 10.1904L136.193 7.6369C135.773 7.11723 135.275 6.70519 134.727 6.42433C134.178 6.14346 133.591 5.99927 132.997 6H14.5237C13.9298 6.00071 13.3419 6.14661 12.7935 6.42937C12.2452 6.71212 11.7472 7.12617 11.3281 7.64781L13.3881 10.2014C13.5374 10.0171 13.7146 9.87123 13.9094 9.77199C14.1043 9.67274 14.313 9.62211 14.5237 9.62299V9.61208Z" fill="url(#paint0_linear_1_65043)"/>
<path fill-rule="evenodd" clip-rule="evenodd" d="M132.997 50.2177H14.5237C14.0971 50.2154 13.6888 50.0035 13.3881 49.6284L11.3281 52.1929C11.7479 52.7126 12.2462 53.1246 12.7945 53.4055C13.3428 53.6863 13.9304 53.8305 14.5237 53.8298H132.997C133.591 53.8305 134.178 53.6863 134.727 53.4055C135.275 53.1246 135.773 52.7126 136.193 52.1929L134.133 49.6502C133.832 50.0253 133.424 50.2372 132.997 50.2395V50.2177Z" fill="url(#paint1_radial_1_65043)"/>
<path fill-rule="evenodd" clip-rule="evenodd" d="M12.9227 48.2317V11.598C12.922 11.3368 12.9628 11.0781 13.0429 10.8365C13.1229 10.595 13.2406 10.3754 13.3892 10.1903L11.3293 7.63672C10.9081 8.15586 10.5738 8.77307 10.3457 9.45289C10.1176 10.1327 10.0001 10.8617 10 11.598V48.2317C10.0006 48.9678 10.1183 49.6967 10.3464 50.3764C10.5745 51.0561 10.9085 51.6734 11.3293 52.1929L13.3892 49.6503C13.2409 49.4672 13.1233 49.2495 13.0432 49.0098C12.9631 48.77 12.9222 48.513 12.9227 48.2535V48.2317Z" fill="url(#paint2_linear_1_65043)"/>
<path fill-rule="evenodd" clip-rule="evenodd" d="M134.6 11.598V48.2317C134.601 48.4911 134.56 48.7482 134.48 48.9879C134.4 49.2277 134.282 49.4454 134.134 49.6285L136.194 52.1929C136.615 51.6734 136.949 51.0561 137.177 50.3764C137.405 49.6967 137.522 48.9678 137.523 48.2317V11.598C137.523 10.8617 137.405 10.1327 137.177 9.45289C136.949 8.77307 136.615 8.15586 136.194 7.63672L134.134 10.1903C134.282 10.3754 134.4 10.595 134.48 10.8365C134.56 11.0781 134.601 11.3368 134.6 11.598Z" fill="url(#paint3_linear_1_65043)"/>
<path style="mix-blend-mode:screen" opacity="0.3" fill-rule="evenodd" clip-rule="evenodd" d="M73.7625 52.0292C40.9793 52.0292 14.4111 51.3308 14.4111 50.9379C14.4111 50.5451 63.3482 50.6105 73.7625 50.6105C84.1767 50.6105 133.114 50.6105 133.114 50.9379C133.114 51.2653 106.546 52.0292 73.7625 52.0292Z" fill="url(#paint4_radial_1_65043)"/>
<path opacity="0.5" fill-rule="evenodd" clip-rule="evenodd" d="M12.9227 34.9073V11.598C12.922 11.3368 12.9628 11.0781 13.0429 10.8365C13.1229 10.595 13.2406 10.3754 13.3892 10.1903L11.3293 7.63672C10.9081 8.15586 10.5738 8.77307 10.3457 9.45289C10.1176 10.1327 10.0001 10.8617 10 11.598V36.4242C10.866 35.6441 11.8666 35.1248 12.9227 34.9073Z" fill="url(#paint5_radial_1_65043)"/>
<path style="mix-blend-mode:screen" opacity="0.5" fill-rule="evenodd" clip-rule="evenodd" d="M132.998 6.53467H14.5241C13.4408 6.53467 12.4019 7.06814 11.6358 8.01772C10.8698 8.9673 10.4395 10.2552 10.4395 11.5981V35.0057C10.4395 35.3414 10.547 35.6634 10.7385 35.9008C10.9301 36.1382 11.1898 36.2716 11.4606 36.2716C11.7315 36.2716 11.9912 36.1382 12.1827 35.9008C12.3742 35.6634 12.4818 35.3414 12.4818 35.0057V11.5981C12.4839 10.9272 12.699 10.2844 13.0804 9.80845C13.2694 9.57236 13.4943 9.38518 13.7422 9.25779C13.99 9.1304 14.2558 9.06534 14.5241 9.06639H132.998C133.539 9.06927 134.057 9.33692 134.44 9.81109C134.822 10.2853 135.038 10.9276 135.04 11.5981V17.0544C135.04 17.3902 135.148 17.7121 135.339 17.9495C135.531 18.1869 135.791 18.3203 136.061 18.3203C136.332 18.3203 136.592 18.1869 136.784 17.9495C136.975 17.7121 137.083 17.3902 137.083 17.0544V11.5981C137.08 10.2561 136.649 8.96987 135.884 8.02091C135.118 7.07195 134.081 6.53755 132.998 6.53467Z" fill="url(#paint6_radial_1_65043)"/>
<path fill-rule="evenodd" clip-rule="evenodd" d="M55.0543 8.56445C33.0463 8.56445 15.1934 8.89183 15.1934 9.06643C15.1934 9.24103 48.0646 9.21921 55.0543 9.21921C62.0441 9.21921 94.9153 9.21921 94.9153 9.06643C94.9153 8.91366 77.0712 8.56445 55.0543 8.56445Z" fill="white"/>
<g style="mix-blend-mode:multiply">
<path fill-rule="evenodd" clip-rule="evenodd" d="M12.0076 51.7673C12.3118 51.2157 12.6864 50.7292 13.1168 50.3268C13.3451 50.1527 13.606 50.0549 13.8739 50.0431C13.6547 49.9137 13.4618 49.725 13.3095 49.4907C13.1571 49.2565 13.0491 48.9828 12.9935 48.6899C13.0463 49.1209 12.9845 49.5614 12.8175 49.9449C12.5159 50.5023 12.141 50.9929 11.7083 51.3963C11.4793 51.5805 11.2026 51.6506 10.9336 51.5927C11.2156 52.0514 11.5508 52.456 11.9284 52.7931C11.8573 52.4469 11.8951 52.0802 12.034 51.7673H12.0076Z" fill="#D6AC8A"/>
</g>
<g style="mix-blend-mode:multiply">
<path fill-rule="evenodd" clip-rule="evenodd" d="M135.518 51.7673C135.213 51.2157 134.839 50.7292 134.408 50.3268C134.18 50.1527 133.919 50.0549 133.651 50.0431C133.871 49.9137 134.063 49.725 134.216 49.4907C134.368 49.2565 134.476 48.9828 134.532 48.6899C134.479 49.1209 134.541 49.5614 134.708 49.9449C135.009 50.5023 135.384 50.9929 135.817 51.3963C136.046 51.5805 136.323 51.6506 136.592 51.5927C136.31 52.0514 135.974 52.456 135.597 52.7931C135.668 52.4469 135.63 52.0802 135.491 51.7673H135.518Z" fill="#D6AC8A"/>
</g>
<path style="mix-blend-mode:screen" fill-rule="evenodd" clip-rule="evenodd" d="M12.0076 8.05162C12.3117 8.6065 12.6862 9.09665 13.1168 9.503C13.3451 9.67717 13.606 9.77493 13.8739 9.78673C13.655 9.91367 13.4621 10.1004 13.3096 10.3328C13.1572 10.5652 13.0491 10.8374 12.9935 11.129C13.0456 10.6981 12.9839 10.2578 12.8175 9.87403C12.5133 9.32242 12.1386 8.8359 11.7083 8.43356C11.4793 8.24937 11.2026 8.17921 10.9336 8.23714C11.2108 7.80009 11.5369 7.41426 11.9019 7.09131C11.8305 7.43385 11.8684 7.79734 12.0076 8.10618V8.05162Z" fill="url(#paint7_radial_1_65043)"/>
<path style="mix-blend-mode:screen" fill-rule="evenodd" clip-rule="evenodd" d="M135.518 8.05162C135.214 8.6065 134.839 9.09665 134.408 9.503C134.18 9.67717 133.919 9.77493 133.651 9.78673C133.87 9.91367 134.063 10.1004 134.216 10.3328C134.368 10.5652 134.476 10.8374 134.532 11.129C134.48 10.6981 134.541 10.2578 134.708 9.87403C135.012 9.32242 135.387 8.8359 135.817 8.43356C136.046 8.24937 136.323 8.17921 136.592 8.23714C136.306 7.79774 135.971 7.4118 135.597 7.09131C135.668 7.43385 135.63 7.79734 135.491 8.10618L135.518 8.05162Z" fill="url(#paint8_radial_1_65043)"/>
<path fill-rule="evenodd" clip-rule="evenodd" d="M14.5251 9.61185C14.3143 9.6104 14.1055 9.66079 13.9106 9.76009C13.7156 9.85938 13.5386 10.0056 13.3895 10.1903C13.2405 10.3751 13.1226 10.5946 13.0425 10.8362C12.9624 11.0778 12.9217 11.3367 12.9229 11.5979V48.2316C12.9252 48.7575 13.0947 49.261 13.3947 49.6328C13.6947 50.0047 14.1008 50.2148 14.5251 50.2177H132.999C133.423 50.2148 133.829 50.0047 134.129 49.6328C134.429 49.261 134.599 48.7575 134.601 48.2316V11.5979C134.599 11.0721 134.429 10.5686 134.129 10.1967C133.829 9.82489 133.423 9.61471 132.999 9.61185H14.5251Z" fill="url(#paint9_linear_1_65043)"/>
<g style="mix-blend-mode:screen">
<path fill-rule="evenodd" clip-rule="evenodd" d="M125.859 49.7159C123.434 49.6183 121.007 49.7863 118.605 50.2179C121.017 50.4803 123.439 50.575 125.859 50.5016C128.28 50.5753 130.701 50.4806 133.113 50.2179C130.712 49.7863 128.284 49.6183 125.859 49.7159Z" fill="#F27272"/>
</g>
<g style="mix-blend-mode:screen">
<path fill-rule="evenodd" clip-rule="evenodd" d="M113.535 49.8359C111.996 49.7584 110.456 49.8864 108.939 50.2179C110.465 50.4226 112.001 50.4955 113.535 50.4361C115.069 50.4955 116.604 50.4226 118.13 50.2179C116.614 49.8864 115.073 49.7584 113.535 49.8359Z" fill="#F27272"/>
</g>
<path style="mix-blend-mode:screen" opacity="0.5" fill-rule="evenodd" clip-rule="evenodd" d="M12.9229 34.9073C29.3057 32.1682 117.804 20.7209 134.601 17.84V11.5979C134.599 11.0721 134.429 10.5686 134.129 10.1967C133.829 9.82489 133.423 9.61471 132.999 9.61185H14.5251C14.3143 9.6104 14.1055 9.66079 13.9106 9.76009C13.7156 9.85938 13.5386 10.0056 13.3895 10.1903C13.2405 10.3751 13.1226 10.5946 13.0425 10.8362C12.9624 11.0778 12.9217 11.3367 12.9229 11.5979V34.9073Z" fill="url(#paint10_radial_1_65043)" fill-opacity="0.5"/>
<path d="M50.7138 43L46.9398 39.77V21.172L50.7138 17.942H67.4758L71.2498 21.172V39.77L67.4758 43H50.7138ZM56.6298 37.798H61.5598V23.144H56.6298V37.798ZM76.3147 43V17.942H86.0047V26.816L91.7507 17.942H102.767L94.2667 29.502L102.529 43H91.6487L86.0047 32.29V43H76.3147Z" fill="white"/>
<path d="M50.7138 43L50.0636 43.7597L50.3443 44H50.7138V43ZM46.9398 39.77H45.9398V40.2304L46.2896 40.5297L46.9398 39.77ZM46.9398 21.172L46.2896 20.4123L45.9398 20.7116V21.172H46.9398ZM50.7138 17.942V16.942H50.3443L50.0636 17.1823L50.7138 17.942ZM67.4758 17.942L68.126 17.1823L67.8453 16.942H67.4758V17.942ZM71.2498 21.172H72.2498V20.7116L71.9 20.4123L71.2498 21.172ZM71.2498 39.77L71.9 40.5297L72.2498 40.2304V39.77H71.2498ZM67.4758 43V44H67.8453L68.126 43.7597L67.4758 43ZM56.6298 37.798H55.6298V38.798H56.6298V37.798ZM61.5598 37.798V38.798H62.5598V37.798H61.5598ZM61.5598 23.144H62.5598V22.144H61.5598V23.144ZM56.6298 23.144V22.144H55.6298V23.144H56.6298ZM51.364 42.2403L47.59 39.0103L46.2896 40.5297L50.0636 43.7597L51.364 42.2403ZM47.9398 39.77V21.172H45.9398V39.77H47.9398ZM47.59 21.9317L51.364 18.7017L50.0636 17.1823L46.2896 20.4123L47.59 21.9317ZM50.7138 18.942H67.4758V16.942H50.7138V18.942ZM66.8256 18.7017L70.5996 21.9317L71.9 20.4123L68.126 17.1823L66.8256 18.7017ZM70.2498 21.172V39.77H72.2498V21.172H70.2498ZM70.5996 39.0103L66.8256 42.2403L68.126 43.7597L71.9 40.5297L70.5996 39.0103ZM67.4758 42H50.7138V44H67.4758V42ZM56.6298 38.798H61.5598V36.798H56.6298V38.798ZM62.5598 37.798V23.144H60.5598V37.798H62.5598ZM61.5598 22.144H56.6298V24.144H61.5598V22.144ZM55.6298 23.144V37.798H57.6298V23.144H55.6298ZM76.3147 43H75.3147V44H76.3147V43ZM76.3147 17.942V16.942H75.3147V17.942H76.3147ZM86.0047 17.942H87.0047V16.942H86.0047V17.942ZM86.0047 26.816H85.0047V30.2002L86.8441 27.3595L86.0047 26.816ZM91.7507 17.942V16.942H91.2069L90.9113 17.3985L91.7507 17.942ZM102.767 17.942L103.572 18.5344L104.743 16.942H102.767V17.942ZM94.2667 29.502L93.4611 28.9096L93.063 29.451L93.4138 30.0241L94.2667 29.502ZM102.529 43V44H104.313L103.382 42.4779L102.529 43ZM91.6487 43L90.7641 43.4662L91.0454 44H91.6487V43ZM86.0047 32.29L86.8894 31.8238L85.0047 32.29H86.0047ZM86.0047 43V44H87.0047V43H86.0047ZM77.3147 43V17.942H75.3147V43H77.3147ZM76.3147 18.942H86.0047V16.942H76.3147V18.942ZM85.0047 17.942V26.816H87.0047V17.942H85.0047ZM86.8441 27.3595L92.5901 18.4855L90.9113 17.3985L85.1653 26.2725L86.8441 27.3595ZM91.7507 18.942H102.767V16.942H91.7507V18.942ZM101.961 17.3496L93.4611 28.9096L95.0724 30.0944L103.572 18.5344L101.961 17.3496ZM93.4138 30.0241L101.676 43.5221L103.382 42.4779L95.1196 28.9799L93.4138 30.0241ZM102.529 42H91.6487V44H102.529V42ZM92.5334 42.5338L86.8894 31.8238L85.1201 32.7562L90.7641 43.4662L92.5334 42.5338ZM85.0047 32.29V43H87.0047V32.29H85.0047ZM86.0047 42H76.3147V44H86.0047V42Z" fill="black"/>
</g>
<defs>
<filter id="filter0_d_1_65043" x="0" y="0" width="147.523" height="67.8301" filterUnits="userSpaceOnUse" color-interpolation-filters="sRGB">
<feFlood flood-opacity="0" result="BackgroundImageFix"/>
<feColorMatrix in="SourceAlpha" type="matrix" values="0 0 0 0 0 0 0 0 0 0 0 0 0 0 0 0 0 0 127 0" result="hardAlpha"/>
<feOffset dy="4"/>
<feGaussianBlur stdDeviation="5"/>
<feComposite in2="hardAlpha" operator="out"/>
<feColorMatrix type="matrix" values="0 0 0 0 0 0 0 0 0 0 0 0 0 0 0 0 0 0 0.4 0"/>
<feBlend mode="normal" in2="BackgroundImageFix" result="effect1_dropShadow_1_65043"/>
<feBlend mode="normal" in="SourceGraphic" in2="effect1_dropShadow_1_65043" result="shape"/>
</filter>
<linearGradient id="paint0_linear_1_65043" x1="73.7606" y1="10.1904" x2="73.7606" y2="5.98909" gradientUnits="userSpaceOnUse">
<stop stop-color="#FF5C5C"/>
<stop offset="1" stop-color="#FF2929"/>
</linearGradient>
<radialGradient id="paint1_radial_1_65043" cx="0" cy="0" r="1" gradientUnits="userSpaceOnUse" gradientTransform="translate(24.0048 50.2177) scale(111.317 137.99)">
<stop stop-color="#FA5006"/>
<stop offset="1" stop-color="#780000"/>
</radialGradient>
<linearGradient id="paint2_linear_1_65043" x1="10" y1="29.9094" x2="13.3892" y2="29.9094" gradientUnits="userSpaceOnUse">
<stop stop-color="#FA5006"/>
<stop offset="1" stop-color="#FF6040"/>
</linearGradient>
<linearGradient id="paint3_linear_1_65043" x1="134.134" y1="29.9094" x2="137.523" y2="29.9094" gradientUnits="userSpaceOnUse">
<stop stop-color="#FA5006"/>
<stop offset="1" stop-color="#7D0100"/>
</linearGradient>
<radialGradient id="paint4_radial_1_65043" cx="0" cy="0" r="1" gradientUnits="userSpaceOnUse" gradientTransform="translate(74.3932 45.2743) scale(75.6797 22.2834)">
<stop stop-color="#FFC2C2"/>
<stop offset="1" stop-color="#FFA3A3"/>
</radialGradient>
<radialGradient id="paint5_radial_1_65043" cx="0" cy="0" r="1" gradientUnits="userSpaceOnUse" gradientTransform="translate(11.699 22.0305) scale(8.30144 10.2906)">
<stop stop-color="#FFE9C2"/>
<stop offset="1" stop-color="#FFDDA3"/>
</radialGradient>
<radialGradient id="paint6_radial_1_65043" cx="0" cy="0" r="1" gradientUnits="userSpaceOnUse" gradientTransform="translate(33.5831 5.07238) scale(98.288 121.839)">
<stop stop-color="#FA5006"/>
<stop offset="1"/>
</radialGradient>
<radialGradient id="paint7_radial_1_65043" cx="0" cy="0" r="1" gradientUnits="userSpaceOnUse" gradientTransform="translate(13.6626 10.7798) scale(5.14108 6.37296)">
<stop stop-color="#FF8C8C"/>
<stop offset="1" stop-color="#870E0E"/>
</radialGradient>
<radialGradient id="paint8_radial_1_65043" cx="0" cy="0" r="1" gradientUnits="userSpaceOnUse" gradientTransform="translate(134.048 10.5943) scale(5.64289 6.99498)">
<stop stop-color="#FF8C8C"/>
<stop offset="1" stop-color="#870E0E"/>
</radialGradient>
<linearGradient id="paint9_linear_1_65043" x1="49.8942" y1="24.5403" x2="26.6754" y2="-11.6161" gradientUnits="userSpaceOnUse">
<stop stop-color="#FF4D00"/>
<stop offset="1" stop-color="#FFA796"/>
</linearGradient>
<radialGradient id="paint10_radial_1_65043" cx="0" cy="0" r="1" gradientUnits="userSpaceOnUse" gradientTransform="translate(23.4779 7.3202) scale(105.093 130.275)">
<stop stop-color="#FFC2C2"/>
<stop offset="1"/>
</radialGradient>
</defs>
</svg>
