<svg width="38" height="33" viewBox="0 0 38 33" fill="none" xmlns="http://www.w3.org/2000/svg">
<path d="M36.917 7.71202C36.9208 7.68105 36.9208 7.64974 36.917 7.61877C36.8552 7.31359 36.765 7.01492 36.6476 6.72668C36.6197 6.65829 36.5918 6.59302 36.5609 6.52774C36.4601 6.31192 36.3431 6.1041 36.2109 5.90607C36.1876 5.87004 36.1617 5.83576 36.1335 5.8035C36.0376 5.66425 35.9342 5.53039 35.8237 5.40252C35.7463 5.31238 35.6689 5.22535 35.5853 5.13831L32.9465 2.45272H32.931C32.3458 1.88223 31.6527 1.43513 30.8926 1.13777C30.1325 0.840417 29.3208 0.698834 28.5053 0.721369C26.9289 0.741208 25.3863 1.18218 24.0361 1.9989C21.8363 3.31973 19.7181 4.77294 17.6932 6.35057C15.5066 4.24623 13.0475 1.91497 10.0681 0.494457C9.34676 0.162933 8.56011 -0.000697076 7.76692 0.0157802C5.58345 0.0157802 3.27919 1.06951 2.03105 2.63922C1.56878 3.2028 1.24405 3.86694 1.08274 4.57874C0.921431 5.29054 0.927994 6.03031 1.10191 6.73911C1.62532 8.93049 2.93232 11.0721 5.1065 13.2915L7.3008 15.8062C5.71507 17.0713 4.2121 18.503 2.71619 20.5607C1.44946 22.3138 0.321441 24.6804 1.41782 26.8936C1.68023 27.4356 2.02737 27.9319 2.44607 28.3638L5.10029 31.0681C5.57454 31.5589 6.15516 31.9335 6.79704 32.1626C7.43892 32.3917 8.12478 32.4692 8.80136 32.3891C9.20142 32.3499 9.59863 32.2856 9.99065 32.1964L10.2601 32.1311L10.3809 32.1C10.6565 32.0285 10.9353 31.9508 11.2171 31.8576L11.6724 31.696C11.9418 31.5965 12.2113 31.4846 12.4838 31.3634C12.6387 31.295 12.7935 31.2266 12.9484 31.152C13.2426 31.0121 13.54 30.8411 13.8435 30.6888L13.9859 30.6111C14.0696 30.5645 14.1532 30.521 14.2368 30.4713C14.6983 30.204 15.1257 29.9366 15.55 29.6507L15.7296 29.5201C16.1137 29.2549 16.5039 28.972 16.9003 28.6715L17.21 28.4198L17.56 28.1431L17.9657 27.8323L18.7029 27.2106C19.0126 26.9495 19.3037 26.6791 19.6103 26.3962C19.9355 26.7723 20.2297 27.0956 20.5395 27.394L23.1937 30.0983C24.1662 31.0898 25.724 32.4544 28.0252 32.8398C28.4902 32.9148 28.9603 32.9532 29.4313 32.9548C30.6349 32.9806 31.8196 32.6509 32.8381 32.0068C32.9904 31.9115 33.1372 31.8077 33.2779 31.696L33.3553 31.6338C33.5383 31.4783 33.7111 31.3111 33.8726 31.1333L33.9345 31.0712L34.0057 30.981C34.1018 30.866 34.1947 30.7448 34.3155 30.5925C34.3523 30.5447 34.3865 30.4949 34.4177 30.4433C34.5013 30.3127 34.5787 30.176 34.6747 30.005C34.6987 29.9659 34.7204 29.9254 34.7398 29.8838C34.8436 29.6821 34.9356 29.4745 35.0154 29.2621L35.0464 29.1564C35.1114 28.9699 35.1672 28.7772 35.2198 28.5659L35.2415 28.4819C35.2663 28.37 35.2879 28.2581 35.3065 28.1462C35.3518 27.8903 35.3807 27.6318 35.3932 27.3722C35.4119 27.0752 35.4119 26.7772 35.3932 26.4802L35.3747 26.3278C35.3553 26.0829 35.3232 25.8391 35.2787 25.5974V25.5197C35.2685 25.465 35.2551 25.4111 35.2384 25.3581L35.2167 25.2772C35.1734 25.0845 35.1238 24.8949 35.065 24.7022C35.0371 24.6089 35.003 24.5157 34.9442 24.3572C34.8853 24.1986 34.811 24.0059 34.7119 23.7759C34.6996 23.7353 34.6841 23.6958 34.6654 23.6578C34.6468 23.6205 34.6283 23.5832 34.5818 23.5024C34.4796 23.2941 34.365 23.0921 34.2473 22.8807L34.2009 22.8061C34.1637 22.7408 34.1265 22.6756 34.0832 22.6134C33.8995 22.3257 33.7 22.0487 33.4854 21.7835C33.3151 21.5752 33.1416 21.3669 32.962 21.1618L32.9094 21.1027C32.5749 20.7152 32.227 20.3225 31.8656 19.9247L31.6364 19.676C31.2586 19.2657 30.8684 18.8554 30.4533 18.4327L29.8835 17.8763L30.4007 17.5654L31.2741 17.0464L31.5435 16.8785C31.7479 16.7511 31.9492 16.6267 32.163 16.4962L32.5315 16.2475C32.6957 16.1356 32.8629 16.0268 33.024 15.9087L33.2408 15.7409L33.4792 15.5606C33.5783 15.486 33.6774 15.4114 33.7735 15.3306L34.0615 15.0757C34.2411 14.9182 34.4146 14.7534 34.5818 14.5814L34.8079 14.3483L34.8667 14.2893C34.9008 14.2551 34.9349 14.2209 34.9659 14.1836C34.9968 14.1463 35.0557 14.0717 35.099 14.0126L35.1703 13.9194C35.2941 13.7702 35.4149 13.6085 35.5667 13.4065C35.5977 13.3692 35.6255 13.335 35.6534 13.2946C35.6813 13.2542 35.7556 13.1299 35.8052 13.0428L35.9198 12.847C35.9724 12.7569 36.0282 12.6667 36.0963 12.5362L36.1489 12.446C36.2852 12.1725 36.4091 11.8896 36.5237 11.5881L36.5609 11.4669C36.6756 11.1485 36.7717 10.8236 36.8489 10.494C36.8641 10.4484 36.8755 10.4016 36.883 10.3541L36.9263 10.121C36.948 9.99664 36.9728 9.87232 36.9883 9.74798C36.9883 9.68271 37.0037 9.61432 37.0099 9.54904L36.6073 9.48377L37.0007 9.44647C37.0007 9.39674 37.0007 9.347 37.0161 9.29727V9.20712C37.0161 8.99576 37.0161 8.7875 37.0161 8.55748V8.47667C36.9984 8.22003 36.9653 7.96467 36.917 7.71202Z" fill="#B4B4B4"/>
<path d="M36.962 9.20613C36.962 9.12886 36.9805 9.05159 36.9866 8.97432C36.9928 8.89705 37.0051 8.83215 37.0082 8.76415C37.0098 8.73532 37.0098 8.70644 37.0082 8.67761C37.019 8.48304 37.019 8.28801 37.0082 8.09344C37.0082 8.06253 37.0082 8.02854 37.0082 7.99763C36.9947 7.7807 36.9669 7.5649 36.925 7.35165C36.925 7.33311 36.925 7.31456 36.925 7.29602C36.9187 7.2697 36.9104 7.24388 36.9004 7.21875C36.844 6.93758 36.7615 6.66233 36.6539 6.3966C36.6293 6.33478 36.6015 6.27605 36.5738 6.21424C36.4844 6.01671 36.3815 5.82565 36.2657 5.64244C36.2442 5.60844 36.2164 5.58063 36.1949 5.54972C36.1107 5.4226 36.0203 5.29984 35.9238 5.18191C35.8519 5.09949 35.7779 5.01913 35.7019 4.94083L33.0616 2.25183C33.2422 2.44425 33.4071 2.65097 33.5546 2.86999C33.5761 2.90089 33.6039 2.9318 33.6254 2.9658C33.7824 3.20393 33.9165 3.45644 34.0259 3.71996C34.1345 3.98666 34.218 4.26294 34.2755 4.54521C34.2821 4.56856 34.2872 4.59229 34.2909 4.61629L33.8288 4.1434L32.5071 2.7989C32.0261 2.33769 31.4581 1.97759 30.8365 1.7398C30.2148 1.502 29.7553 1.93838 29.0904 1.96129C27.7298 1.97881 26.1539 2.70585 24.9887 3.41088C22.563 4.87246 21.1205 5.99065 18.9051 7.75655C16.4404 5.38281 12.9425 2.82053 9.91403 1.37095C9.34634 1.12124 8.86816 0.682618 8.24841 0.694067C8.07045 0.69322 7.89255 0.701468 7.71542 0.71879L7.56754 0.737334C7.43814 0.752788 7.30875 0.768246 7.17627 0.789882L6.99142 0.830054C6.87126 0.854781 6.75419 0.876419 6.63712 0.910418L6.45535 0.962966C6.3352 1.00006 6.21813 1.03096 6.10105 1.07423C6.03944 1.09277 5.98398 1.12059 5.92544 1.14223C5.80837 1.1855 5.6913 1.22877 5.5773 1.28132C5.51569 1.30604 5.45715 1.34004 5.39553 1.37094C5.33392 1.40185 5.18296 1.47294 5.08745 1.52858C4.99194 1.58421 4.96421 1.60585 4.9026 1.64294C4.84098 1.68003 4.70542 1.75421 4.61299 1.81911C4.52057 1.88402 4.48668 1.91184 4.42198 1.96129C4.33656 2.01861 4.25429 2.08052 4.17552 2.14674L4.14471 2.17456C3.98307 2.31152 3.83073 2.45918 3.68874 2.61655C3.67025 2.63818 3.64561 2.65672 3.62404 2.67836C3.59769 2.71 3.57301 2.74302 3.5501 2.77727C3.48541 2.85454 3.42379 2.9318 3.36525 3.01525C3.33687 3.04789 3.31013 3.08193 3.28515 3.11726C3.2605 3.15435 3.24201 3.19452 3.21737 3.23161L3.10953 3.41088C3.09105 3.44797 3.06641 3.48197 3.04792 3.51906C3.02944 3.55615 2.99862 3.63033 2.97398 3.68596C2.94933 3.7416 2.92469 3.79414 2.90312 3.84668L2.87231 3.92086C2.8415 4.00122 2.82302 4.08777 2.79837 4.17122C2.77373 4.25467 2.76756 4.26394 2.75832 4.3134C2.75692 4.32572 2.75692 4.33816 2.75832 4.35048C2.73984 4.43394 2.73368 4.51739 2.72135 4.60393C2.70903 4.69047 2.69362 4.75847 2.68746 4.83883C2.68746 4.83883 2.68746 4.86047 2.68746 4.87283C2.67669 5.0344 2.67669 5.19652 2.68746 5.35809V5.4199C2.69937 5.56218 2.71995 5.70358 2.74908 5.84334C2.74908 5.87734 2.74908 5.90825 2.77065 5.94534C2.84186 6.24016 2.92824 6.53109 3.02944 6.81695C3.06333 6.91894 3.10954 7.01476 3.14651 7.12603C3.22045 7.31148 3.29131 7.49693 3.37449 7.67619C3.37449 7.70401 3.39605 7.73182 3.40838 7.75655C3.45459 7.85545 3.51005 7.95127 3.55935 8.05018C3.60864 8.14908 3.70414 8.33762 3.78424 8.47979C3.86435 8.62197 3.92597 8.72397 3.99991 8.84451C4.07385 8.96506 4.16935 9.12269 4.2587 9.26178C4.34804 9.40086 4.4189 9.49667 4.499 9.61103C4.57911 9.72539 4.69002 9.88302 4.80709 10.019C4.92416 10.155 4.97654 10.2416 5.06588 10.3528C5.15523 10.4641 5.27847 10.6217 5.38938 10.7546C5.42635 10.7948 5.45715 10.8381 5.49104 10.8783C5.52493 10.9184 5.56498 10.9555 5.59887 10.9926C5.88231 11.3202 6.17191 11.6417 6.47692 11.9508L8.97549 14.4976L8.47331 14.887L7.94648 14.3523C7.20092 13.7342 6.52519 13.116 5.91928 12.4978L8.3624 14.9859C8.02043 15.2548 7.68461 15.5268 7.3488 15.805L7.26869 15.8668L7.02223 16.0801L6.60015 16.4386L6.23661 16.7632C6.09489 16.8899 5.95625 17.0135 5.82069 17.1402C5.68514 17.267 5.58963 17.3597 5.47564 17.4709C5.36165 17.5822 5.2076 17.7306 5.07512 17.8666C4.94265 18.0026 4.85638 18.0922 4.74547 18.2066C4.63456 18.3209 4.48976 18.4785 4.36653 18.6176C4.32648 18.6609 4.28335 18.7042 4.2433 18.7505C4.20325 18.7969 4.1786 18.834 4.14471 18.8711C3.81506 19.2513 3.49772 19.6407 3.20504 20.0456L3.13727 20.1445C3.05292 20.2703 2.97676 20.4014 2.90928 20.537C2.88048 20.5943 2.85477 20.6531 2.83226 20.7132C2.80756 20.7623 2.78595 20.8129 2.76756 20.8646C2.746 20.9172 2.71827 20.9666 2.6967 21.0223C2.63317 21.2067 2.57969 21.3945 2.5365 21.5848L2.51802 21.6466C2.48105 21.8166 2.46872 21.999 2.44408 22.1751C2.42867 22.3019 2.40094 22.4286 2.3917 22.5584C2.37171 22.861 2.37171 23.1645 2.3917 23.4671C2.3917 23.5567 2.41634 23.6464 2.42867 23.736C2.45023 23.9245 2.46564 24.1131 2.50261 24.2985C2.50261 24.3294 2.5211 24.3603 2.52726 24.3913C2.53342 24.4222 2.56114 24.5272 2.57963 24.5952C2.63416 24.8108 2.69998 25.0233 2.77681 25.232C2.80453 25.3092 2.83226 25.3865 2.86615 25.4607C2.90004 25.5348 2.90312 25.5689 2.92777 25.6214C3.01817 25.8204 3.12108 26.0134 3.23585 26.1994L3.25126 26.221C3.35805 26.3918 3.47643 26.5549 3.60556 26.7094C3.66717 26.7805 3.73187 26.8515 3.79657 26.9164L3.81814 26.9412L3.84586 26.9659L4.24021 27.3677C4.5483 27.6768 5.04124 28.1837 5.47256 28.6226C4.62906 28.4868 3.85139 28.0827 3.25434 27.4697L5.89463 30.1587C6.27234 30.5537 6.72651 30.8671 7.22927 31.0797C7.73203 31.2923 8.27278 31.3996 8.81836 31.395C8.96316 31.395 9.12645 31.395 9.26509 31.3734C9.64825 31.3332 10.0288 31.2713 10.405 31.1879C10.5282 31.1632 10.6515 31.1261 10.7747 31.0952C11.0427 31.0272 11.3108 30.953 11.5819 30.8634L12.0225 30.7058C12.2813 30.6069 12.5462 30.5018 12.8081 30.3967C12.959 30.3318 13.1162 30.2638 13.2579 30.1927C13.5444 30.0536 13.8371 29.9022 14.1298 29.7383C14.2592 29.6673 14.3855 29.6054 14.5149 29.5282C14.937 29.284 15.3621 29.0213 15.7965 28.7276C15.855 28.6875 15.9136 28.638 15.9752 28.5978C16.3511 28.3382 16.7341 28.06 17.1244 27.7633C17.2753 27.649 17.4324 27.5191 17.5865 27.3955C17.7405 27.2719 17.9808 27.0864 18.1811 26.9257C18.3043 26.8237 18.4276 26.7093 18.5539 26.6166C18.6802 26.5239 18.788 26.4188 18.9051 26.3075C19.3549 25.915 19.8078 25.5101 20.2699 25.0712L20.3777 25.1825L20.4424 25.2443L20.2699 25.0712L19.7431 24.5334L19.8355 24.4469C19.9464 24.3387 20.0604 24.2336 20.1744 24.1378L20.3377 24.3325C20.4856 24.5087 20.6458 24.6911 20.7844 24.8672L20.8337 24.9229C21.1418 25.2814 21.4499 25.6338 21.7795 25.9676L24.4198 28.6566L24.5677 28.7987C23.3032 28.3009 22.1669 27.5234 21.2435 26.5239L23.8838 29.2129C25.1161 30.4709 26.5425 31.5032 28.4773 31.8277C28.9195 31.8994 29.3666 31.9355 29.8144 31.9359C30.937 31.9616 32.0424 31.6564 32.9939 31.0581C33.1485 30.9559 33.2976 30.8455 33.4406 30.7274L33.4652 30.7058C33.6328 30.5634 33.7903 30.4095 33.9366 30.2452L34.0013 30.1834L34.066 30.1C34.1553 29.9949 34.2385 29.8836 34.3217 29.7692C34.3463 29.7322 34.3772 29.6982 34.4049 29.6611L34.4388 29.6024C34.5158 29.4818 34.5897 29.3582 34.6575 29.2284C34.6791 29.1882 34.7068 29.1511 34.7253 29.1109C34.727 29.1027 34.727 29.0944 34.7253 29.0862C34.8164 28.9042 34.8976 28.7175 34.9687 28.5267V28.4989L34.9964 28.4C35.058 28.2238 35.1073 28.0446 35.1535 27.8622C35.1535 27.8313 35.172 27.8004 35.1813 27.7695C35.2028 27.6644 35.2244 27.5593 35.2398 27.4604C35.2798 27.2344 35.3076 27.0064 35.323 26.7774C35.3214 26.763 35.3214 26.7485 35.323 26.7341C35.3399 26.4562 35.3399 26.1775 35.323 25.8996C35.323 25.8501 35.3076 25.8038 35.3045 25.7543C35.2858 25.52 35.255 25.2868 35.2121 25.0558C35.2134 25.0331 35.2134 25.0104 35.2121 24.9878C35.1967 24.9136 35.1689 24.8394 35.1535 24.7622C35.1104 24.5798 35.0642 24.4005 35.0087 24.2182C34.9748 24.11 34.9348 24.0018 34.8947 23.8936C34.8331 23.7236 34.7684 23.5567 34.6945 23.3929C34.6698 23.3373 34.6544 23.2817 34.6298 23.226C34.6051 23.1704 34.5743 23.1302 34.5497 23.0808C34.4511 22.8829 34.3464 22.6913 34.2416 22.4997C34.1892 22.4131 34.143 22.3297 34.0876 22.2462C33.9125 21.972 33.7222 21.7078 33.5176 21.455L33 20.8368L32.9476 20.7781C32.6211 20.3948 32.276 20.0085 31.9186 19.616L31.6907 19.3687C31.3179 18.9669 30.9358 18.562 30.523 18.1324L29.6789 17.2731C29.9869 17.0877 30.295 16.9053 30.6185 16.7168L31.4812 16.2006L31.7492 16.0337C31.9494 15.9132 32.1497 15.7895 32.3469 15.6628L32.655 15.4434C32.8306 15.3259 33.0031 15.2085 33.1725 15.0879C33.2835 15.0076 33.3913 14.921 33.4991 14.8376C33.6069 14.7541 33.7702 14.6367 33.8996 14.5285L33.9828 14.4543C34.0506 14.3987 34.1122 14.34 34.1769 14.2812C34.3464 14.1298 34.5158 13.9722 34.676 13.8083L34.8886 13.5889C34.9379 13.5333 34.9933 13.4838 35.0395 13.4313C35.0858 13.3787 35.1689 13.2613 35.2336 13.1778C35.3538 13.0356 35.4678 12.8904 35.5787 12.7358C35.6157 12.6833 35.6588 12.64 35.6958 12.5844C35.7697 12.4731 35.8313 12.3495 35.9022 12.232C35.973 12.1146 36.0347 12.0157 36.0963 11.9013C36.1178 11.8642 36.1425 11.8271 36.1641 11.787C36.2942 11.5286 36.4104 11.2634 36.5122 10.9926C36.5122 10.971 36.5122 10.9463 36.5368 10.9246C36.5448 10.9046 36.551 10.8839 36.5553 10.8628C36.663 10.5591 36.7535 10.2495 36.8264 9.93557C36.8264 9.91084 36.8449 9.87993 36.8511 9.8552V9.79648C36.8665 9.7223 36.8788 9.65121 36.8911 9.57703C36.9035 9.50285 36.9466 9.32358 36.962 9.20613ZM30.2858 18.0397C30.483 18.2715 30.6801 18.5002 30.8681 18.7289C31.0726 18.9807 31.2629 19.2438 31.438 19.5171C31.4935 19.6036 31.5428 19.6901 31.5921 19.7767C31.7061 19.9683 31.8139 20.1599 31.9002 20.3547C31.9525 20.4567 31.9987 20.5618 32.045 20.6637C32.1127 20.8121 32.1713 20.9728 32.2267 21.115C32.0758 20.9419 31.9186 20.7688 31.7677 20.5988C31.6167 20.4288 31.4904 20.2898 31.3487 20.1259C30.8989 19.6376 30.446 19.1523 29.9808 18.6794L28.4403 17.134C28.6529 16.995 28.8717 16.8651 29.0904 16.7291L29.2537 16.9084C29.6193 17.2937 29.9633 17.6708 30.2858 18.0397Z" fill="url(#paint0_linear_1_1090)"/>
<path d="M35.5833 9.17732C34.4082 12.322 31.6982 13.9318 29.0731 15.4668L28.0271 16.0849C29.5209 17.5312 30.9367 19.0559 32.2687 20.6525C33.8751 22.6053 34.578 25.013 34.1943 27.251C34.0767 28.0514 33.7922 28.818 33.3592 29.5014C32.9263 30.1847 32.3546 30.7694 31.6812 31.2176C30.635 31.8825 29.4159 32.2239 28.1765 32.1991C27.6828 32.1987 27.19 32.1589 26.7026 32.0802C23.4458 31.5368 21.4965 29.1766 19.6151 26.8979C19.0921 26.2662 18.5963 25.6685 18.0801 25.1047C17.9476 24.9621 17.8016 24.8195 17.6556 24.6667C13.0675 28.9966 9.09757 31.272 5.52154 31.6116C5.3579 31.6278 5.19354 31.6357 5.02911 31.6353C3.17487 31.6353 1.66023 30.6165 0.760283 28.7895C-0.36041 26.5073 -0.231363 23.4305 1.07611 21.6272C2.68923 19.4096 4.81176 17.552 6.97504 15.8539C3.30732 12.7771 1.18139 9.82257 0.464829 6.83745C0.290585 6.12426 0.285834 5.38017 0.450962 4.66481C0.61609 3.94945 0.946501 3.28271 1.41572 2.71805C2.70961 1.09814 5.10042 0.00122149 7.37237 0.00122149C8.17757 -0.0159884 8.97626 0.148852 9.70885 0.483453C12.9487 2.02865 15.6383 4.57909 18.2227 7.06159C20.5198 5.26786 22.9253 3.61763 25.4257 2.12035C26.8423 1.26872 28.4595 0.80818 30.1122 0.785706C32.7204 0.785706 34.8667 2.0762 35.7293 4.14099C36.327 5.5945 36.2727 7.32987 35.5833 9.17732ZM31.6133 21.2027C30.072 19.3603 28.4231 17.6106 26.6755 15.9626C29.6674 13.9861 33.437 12.5326 34.8022 8.90564C35.4576 7.14988 35.4372 5.65563 34.9516 4.49079C34.2011 2.66711 32.2993 1.6415 30.0851 1.6415C28.5853 1.66076 27.1177 2.07924 25.8332 2.85389C23.1595 4.45981 20.5934 6.23859 18.1514 8.17888C15.4346 5.57072 12.66 2.8403 9.3217 1.24756C8.69593 0.973199 8.01817 0.837651 7.33502 0.850231C4.25821 0.850231 0.454646 3.15614 1.27649 6.6235C2.15946 10.3252 5.35173 13.4971 8.30628 15.8505C5.86793 17.715 3.4873 19.6813 1.73834 22.0925C-0.197398 24.7617 0.950459 30.7795 5.04608 30.7795C5.18192 30.7795 5.31777 30.7727 5.45361 30.7592C9.8413 30.3414 14.1407 26.8367 17.1665 23.9671C17.3397 23.8007 17.5062 23.6444 17.6895 23.478C18.0291 23.8176 18.3687 24.1572 18.688 24.5172C21.0924 27.088 23.0417 30.6029 26.8385 31.2346C27.2808 31.308 27.7282 31.3466 28.1765 31.3501C29.2547 31.3768 30.3171 31.0875 31.2329 30.518C33.9735 28.7317 34.2554 24.4255 31.6031 21.1993L31.6133 21.2027Z" fill="#AD1400"/>
<path d="M7.34421 0.853829C8.02736 0.841249 8.70512 0.976797 9.33088 1.25116C12.659 2.8439 15.4268 5.57432 18.1606 8.18248C20.5993 6.24256 23.162 4.46379 25.8322 2.85749C27.1157 2.07926 28.5833 1.65725 30.0841 1.63491C32.2983 1.63491 34.2001 2.65373 34.9506 4.4842C35.4362 5.64564 35.4566 7.1399 34.8012 8.89905C33.4428 12.526 29.6664 13.9931 26.6745 15.956C28.4221 17.604 30.071 19.3537 31.6123 21.1961C34.2646 24.4223 33.9895 28.7285 31.2421 30.5148C30.3263 31.0843 29.2639 31.3736 28.1857 31.3469C27.7374 31.3434 27.29 31.3048 26.8477 31.2314C23.0373 30.5997 21.0744 27.0848 18.6972 24.514C18.3576 24.1507 18.0349 23.811 17.6987 23.4748C17.5187 23.6412 17.3591 23.7975 17.1757 23.9639C14.1499 26.8369 9.85048 30.3416 5.4628 30.7559C5.32696 30.7695 5.19111 30.7763 5.05527 30.7763C0.959647 30.7763 -0.188211 24.7585 1.74753 22.0893C3.49649 19.6781 5.87711 17.7118 8.31547 15.8473C5.35752 13.4939 2.16864 10.322 1.28567 6.6203C0.463833 3.15973 4.2674 0.853829 7.34421 0.853829Z" fill="url(#paint1_linear_1_1090)"/>
<defs>
<linearGradient id="paint0_linear_1_1090" x1="25.0021" y1="4.93156" x2="11.3321" y2="30.1559" gradientUnits="userSpaceOnUse">
<stop stop-color="#FF4F4F"/>
<stop offset="0.25" stop-color="#FF9F9F"/>
<stop offset="0.36" stop-color="#B01E00"/>
<stop offset="0.557292" stop-color="#B22400"/>
<stop offset="0.807292" stop-color="#FE9999"/>
</linearGradient>
<linearGradient id="paint1_linear_1_1090" x1="3.61875" y1="10.6582" x2="36.798" y2="23.6345" gradientUnits="userSpaceOnUse">
<stop stop-color="#B93800"/>
<stop offset="0.54" stop-color="#A70000"/>
</linearGradient>
</defs>
</svg>
