<svg width="319" height="102" viewBox="0 0 319 102" fill="none" xmlns="http://www.w3.org/2000/svg">
<path d="M265.666 0.105469H53.3337C23.9272 0.105469 0 16.8693 0 37.472V64.5282C0 85.1308 23.9272 101.895 53.3337 101.895H265.666C295.073 101.895 319 85.1308 319 64.5282V37.472C319 16.8693 295.073 0.105469 265.666 0.105469Z" fill="#912D00"/>
<path d="M265.788 100.419H53.2117C25.1477 100.419 2.19043 84.3343 2.19043 64.6722V47.8499C2.19043 28.1878 25.1477 12.1035 53.2117 12.1035H265.788C293.852 12.1035 316.81 28.1878 316.81 47.8499V64.6722C316.81 84.3298 293.846 100.419 265.788 100.419Z" fill="#CC6D35"/>
<path d="M265.788 89.9054H53.2117C25.1477 89.9054 2.19043 73.8211 2.19043 54.1591V37.3367C2.19043 17.6746 25.1477 1.59033 53.2117 1.59033H265.788C293.852 1.59033 316.81 17.6746 316.81 37.3367V54.1591C316.81 73.8166 293.846 89.9054 265.788 89.9054Z" fill="#FB7621"/>
<path opacity="0.7" d="M265.986 87.6287H53.0151C24.8991 87.6287 1.89929 71.5563 1.89929 51.9087V54.3596C1.89929 74.0072 24.8991 90.0796 53.0151 90.0796H265.986C294.102 90.0796 317.102 74.0072 317.102 54.3596V51.9087C317.102 71.5563 294.095 87.6287 265.986 87.6287Z" fill="#A54008"/>
<path d="M265.788 97.9656H53.2117C25.1477 97.9656 2.19043 81.8813 2.19043 62.2192V64.6719C2.19043 84.334 25.1477 100.418 53.2117 100.418H265.788C293.852 100.418 316.81 84.334 316.81 64.6719V62.2192C316.81 81.8768 293.846 97.9656 265.788 97.9656Z" fill="#6D5A36"/>
<path opacity="0.7" d="M265.788 1.59033H159.5H53.2117C25.1477 1.59033 2.19043 17.6746 2.19043 37.3367V42.8902C16.5018 51.8549 39.4013 57.6648 65.2171 57.6648C75.1091 57.6648 243.891 57.6648 253.783 57.6648C279.592 57.6648 302.492 51.8594 316.81 42.8902V37.3367C316.81 17.6746 293.846 1.59033 265.788 1.59033Z" fill="#FC7022"/>
<path d="M26.0627 16.1117C26.1559 11.8658 22.3819 10.7473 17.6317 13.6126C12.8832 16.4785 8.95643 22.2443 8.86637 26.4875C8.77322 30.7333 11.8863 27.0944 16.6348 24.2285C21.3819 21.3659 25.9696 20.3576 26.0627 16.1117Z" fill="white"/>
<path d="M10.4691 37.2697C12.3603 38.0794 14.702 37.0452 15.6957 34.9586C16.6895 32.8719 15.9605 30.5239 14.0693 29.7106C12.178 28.901 10.0289 29.4603 9.03514 31.547C8.04138 33.6337 8.57782 36.4564 10.4691 37.2697Z" fill="white"/>
<path d="M286.431 74.7463C289.209 78.4345 295.937 78.1291 301.453 74.0679C306.968 70.0023 309.187 63.722 306.409 60.0292C303.631 56.341 301.227 60.5189 295.711 64.5845C290.191 68.6501 283.653 71.058 286.431 74.7463Z" fill="white"/>
</svg>
