<svg width="852" height="535" viewBox="0 0 852 535" fill="none" xmlns="http://www.w3.org/2000/svg">
<path d="M121.675 128H813.325C831.587 128 848 139.958 848 156.483V502.517C848 519.042 831.587 531 813.325 531H121.675C103.413 531 87 519.042 87 502.517V156.483C87 139.958 103.413 128 121.675 128Z" fill="white" stroke="url(#paint0_linear_576_1225)" stroke-width="8"/>
<rect x="402.977" y="451.5" width="128.006" height="47.0003" rx="14.5" fill="#EABBFF" stroke="#9F69E4"/>
<rect x="407.145" y="462.298" width="119.679" height="33.8684" rx="12" fill="#FF800C"/>
<rect x="407.145" y="462.298" width="119.679" height="33.8684" rx="12" fill="#FF800C"/>
<rect x="407.145" y="462.298" width="119.679" height="33.8684" rx="12" fill="#561B74"/>
<rect x="406.32" y="455.285" width="121.32" height="37.2384" rx="12" fill="#FF800C"/>
<rect x="406.32" y="455.285" width="121.32" height="37.2384" rx="12" fill="#FF800C"/>
<rect x="406.32" y="455.285" width="121.32" height="37.2384" rx="12" fill="#B044E8"/>
<path d="M451.402 464.8C452.512 464.8 453.508 464.93 454.392 465.19C455.276 465.433 456.03 465.814 456.654 466.334C457.278 466.837 457.755 467.469 458.084 468.232C458.431 468.995 458.604 469.879 458.604 470.884C458.604 471.907 458.431 472.799 458.084 473.562C457.755 474.325 457.278 474.957 456.654 475.46C456.03 475.963 455.276 476.344 454.392 476.604C453.508 476.864 452.512 476.994 451.402 476.994H448.074V482.298C448.074 482.489 448.005 482.653 447.866 482.792C447.728 482.931 447.563 483 447.372 483H443.966C443.776 483 443.611 482.931 443.472 482.792C443.334 482.653 443.264 482.489 443.264 482.298V465.502C443.264 465.311 443.334 465.147 443.472 465.008C443.611 464.869 443.776 464.8 443.966 464.8H451.402ZM448.074 472.938H451.272C452 472.938 452.598 472.782 453.066 472.47C453.552 472.141 453.794 471.612 453.794 470.884C453.794 470.156 453.552 469.636 453.066 469.324C452.598 468.995 452 468.83 451.272 468.83H448.074V472.938ZM469.439 464.8C469.786 464.8 470.046 464.895 470.219 465.086C470.41 465.277 470.54 465.467 470.609 465.658L476.277 482.038C476.346 482.211 476.381 482.341 476.381 482.428C476.381 482.584 476.32 482.723 476.199 482.844C476.095 482.948 475.965 483 475.809 483H472.533C472.186 483 471.935 482.931 471.779 482.792C471.64 482.636 471.554 482.489 471.519 482.35L470.791 480.192H463.875L463.147 482.35C463.112 482.489 463.017 482.636 462.861 482.792C462.722 482.931 462.48 483 462.133 483H458.857C458.701 483 458.562 482.948 458.441 482.844C458.337 482.723 458.285 482.584 458.285 482.428C458.285 482.341 458.32 482.211 458.389 482.038L464.057 465.658C464.126 465.467 464.248 465.277 464.421 465.086C464.612 464.895 464.88 464.8 465.227 464.8H469.439ZM465.227 476.162H469.439L467.333 469.922L465.227 476.162ZM486.042 482.298C486.042 482.489 485.973 482.653 485.834 482.792C485.695 482.931 485.531 483 485.34 483H481.934C481.743 483 481.579 482.931 481.44 482.792C481.301 482.653 481.232 482.489 481.232 482.298V476.76L475.226 465.71C475.157 465.589 475.122 465.476 475.122 465.372C475.122 465.216 475.174 465.086 475.278 464.982C475.399 464.861 475.538 464.8 475.694 464.8H479.256C479.603 464.8 479.863 464.887 480.036 465.06C480.209 465.233 480.313 465.363 480.348 465.45L483.624 471.846L486.926 465.45C486.961 465.363 487.065 465.233 487.238 465.06C487.411 464.887 487.671 464.8 488.018 464.8H491.58C491.736 464.8 491.866 464.861 491.97 464.982C492.091 465.086 492.152 465.216 492.152 465.372C492.152 465.476 492.117 465.589 492.048 465.71L486.042 476.76V482.298Z" fill="white"/>
<path d="M407.086 472.298C406.961 472.857 406.853 473.396 406.762 473.904C406.807 473.372 406.918 472.835 407.086 472.298C408.731 464.921 413.3 453.883 421 458.619C416.864 460.945 408.846 466.667 407.086 472.298Z" fill="white"/>
<path d="M526.093 482.132C523.27 487.212 516.45 491.305 514.098 492.01C516.356 490.881 523.27 478.604 523.976 480.721L524.682 480.721L526.093 482.132Z" fill="white"/>
<path d="M101.561 227.538C95.2771 228.542 88.2774 226.543 83.8873 222.101L24.809 162.368C23.5942 161.178 22.6446 159.744 22.0221 158.162C21.3995 156.579 21.1181 154.883 21.1964 153.184C21.2747 151.485 21.7107 149.822 22.4762 148.303C23.2416 146.785 24.319 145.445 25.6381 144.371C31.3984 139.405 43.3818 138.489 48.9065 143.848L112.881 205.815C119.235 211.924 118.179 220.547 110.664 224.789C108.831 225.775 103.656 227.207 101.561 227.538Z" fill="url(#paint1_linear_576_1225)"/>
<path style="mix-blend-mode:multiply" opacity="0.3" d="M25.6381 144.371C31.3984 139.405 43.3818 138.489 48.9065 143.848L107.156 200.238C100.985 200.438 94.4044 202.219 86.3311 199.155C73.1696 194.163 74.2346 183 62.9321 176.585C57.8525 173.696 49.8403 171.541 36.5915 174.281L24.809 162.368C23.5942 161.178 22.6446 159.744 22.0221 158.162C21.3995 156.579 21.1181 154.883 21.1964 153.184C21.2747 151.485 21.7107 149.822 22.4762 148.303C23.2416 146.785 24.319 145.445 25.6381 144.371Z" fill="url(#paint2_linear_576_1225)"/>
<path d="M31.1172 175.668C40.9581 172.123 45.9587 160.985 42.2864 150.791C38.6141 140.596 27.6596 135.205 17.8187 138.75C7.97778 142.295 2.97698 153.433 6.64928 163.628C10.3216 173.823 21.2763 179.213 31.1172 175.668Z" fill="url(#paint3_linear_576_1225)"/>
<path d="M17.0039 139.483C17.1155 152.754 21.7316 165.593 30.0956 175.896L149.151 184.301L104.247 55.4785L17.0039 139.483Z" fill="url(#paint4_linear_576_1225)"/>
<path style="mix-blend-mode:multiply" opacity="0.3" d="M102.591 156.992C90.372 156.032 81.2952 140.688 69.661 144.31C60.9332 147.033 61.8059 157.454 53.401 159.2C44.9962 160.946 40.1173 151.223 30.4294 150.874C26.1441 150.717 22.4437 152.48 19.293 155.238C21.49 162.788 25.1723 169.823 30.1241 175.931L149.18 184.336L125.912 143.315C116.363 154.461 108.7 157.481 102.591 156.992Z" fill="url(#paint5_linear_576_1225)"/>
<path d="M150.431 183.853C177.115 174.241 188.404 137.737 175.645 102.319C162.887 66.9011 130.913 45.981 104.229 55.593C77.5454 65.205 66.2567 101.709 79.015 137.127C91.7733 172.545 123.747 193.465 150.431 183.853Z" fill="#D8DEE8"/>
<path d="M149.694 181.56C155.494 179.423 160.637 175.814 164.619 171.087C169.14 165.73 172.49 159.487 174.455 152.758C179.107 137.729 178.33 120.195 172.273 103.385C166.216 86.5756 155.629 72.5675 142.459 63.9532C136.67 60.0458 130.131 57.3855 123.258 56.1417C117.181 55.0065 110.911 55.513 105.095 57.6087C99.2791 59.7044 94.1272 63.3135 90.1709 68.064C85.6507 73.4212 82.3003 79.6641 80.3347 86.3923C78.3704 92.8558 77.3591 99.5711 77.3324 106.326C77.2539 115.927 89.5513 121.574 93.0424 131.349C96.7866 141.753 91.7158 155.499 98.4711 163.144C102.523 167.762 107.175 171.816 112.305 175.198C118.09 179.12 124.63 181.795 131.506 183.053C137.595 184.142 143.864 183.627 149.694 181.56Z" fill="url(#paint6_linear_576_1225)"/>
<mask id="mask0_576_1225" style="mask-type:luminance" maskUnits="userSpaceOnUse" x="77" y="55" width="101" height="129">
<path d="M149.697 181.56C155.496 179.423 160.64 175.813 164.622 171.086C169.143 165.73 172.493 159.487 174.458 152.758C179.11 137.729 178.333 120.195 172.276 103.385C166.219 86.5751 155.632 72.567 142.462 63.9527C136.672 60.0453 130.134 57.385 123.261 56.1412C117.184 55.006 110.914 55.5125 105.098 57.6082C99.2818 59.7039 94.1299 63.313 90.1737 68.0635C85.6534 73.4207 82.303 79.6636 80.3374 86.3918C75.6855 101.43 76.4623 118.964 82.5194 135.774C88.5765 152.583 99.1632 166.583 112.333 175.197C118.119 179.119 124.658 181.795 131.535 183.052C137.616 184.136 143.874 183.622 149.697 181.56Z" fill="white"/>
</mask>
<g mask="url(#mask0_576_1225)">
<path d="M131.655 119.016C137.512 135.267 128.295 153.16 111.311 158.902C94.5883 164.567 76.609 156.284 70.9185 140.487C65.228 124.689 73.8511 107.007 90.4077 100.906C107.226 94.7006 125.808 102.774 131.655 119.016Z" fill="url(#paint7_linear_576_1225)"/>
<path style="mix-blend-mode:multiply" opacity="0.3" d="M128.896 119.741C133.26 131.802 129.935 143.812 121.635 146.535C113.335 149.258 103.49 141.839 99.2656 130.109C95.0413 118.379 98.0612 106.466 106.117 103.463C114.173 100.461 124.55 107.644 128.896 119.741Z" fill="url(#paint8_linear_576_1225)"/>
</g>
<path d="M143.621 104.52C143.621 104.52 151.677 98.1137 155.744 89.0717C147.016 81.2167 141.238 70.9527 139.894 59.4669C136.656 31.922 159.916 5.75614 193.247 0.816215C227.338 -4.22845 259.107 14.6149 263.995 43.4079C264.056 43.7657 264.108 44.1235 264.161 44.4814V44.6384C264.204 44.9963 264.257 45.3453 264.3 45.7032C264.488 47.3317 264.59 48.9691 264.606 50.6083C264.606 51.3065 264.606 51.9959 264.606 52.6854C264.553 54.0644 264.44 55.4348 264.265 56.7876C264.178 57.4684 264.073 58.1403 263.951 58.8123C263.873 59.2575 263.785 59.6851 263.698 60.1477C261.525 70.5687 255.721 80.0732 247.394 87.6228L246.862 88.1028C243.932 90.691 240.771 93.0047 237.419 95.0152L236.782 95.3994C235.272 96.2721 233.727 97.1448 232.13 97.8867C231.449 98.2183 230.759 98.5413 230.061 98.8468L228.647 99.4577C227.937 99.7544 227.222 100.045 226.5 100.33L225.051 100.863C218.739 103.111 212.15 104.491 205.466 104.965C204.96 105.009 204.445 105.035 203.939 105.061H203.502L202.411 105.105H201.931H200.884H198.981C198.589 105.105 198.205 105.105 197.821 105.105H197.524C197.096 105.105 196.651 105.105 196.258 105.052H196.084L194.661 104.965C190.749 104.683 186.866 104.078 183.053 103.158C180.875 102.63 178.726 101.993 176.612 101.247C172.266 105.585 160.859 113.902 143.621 104.52Z" fill="url(#paint9_linear_576_1225)"/>
<path d="M135.409 59.7988C138.647 87.3437 167.361 107.802 200.989 105.332C236.293 102.757 263.384 76.1722 259.849 46.07C256.315 15.9679 223.769 -4.0362 188.762 1.14811C155.43 6.08803 132.179 32.2539 135.409 59.7988Z" fill="url(#paint10_linear_576_1225)"/>
<path d="M200.971 105.082L200.971 105.082C167.438 107.545 138.875 87.1467 135.657 59.7697C132.448 32.3948 155.562 6.32127 188.798 1.39541C223.712 -3.7751 256.088 16.1796 259.601 46.0992C263.114 76.0163 236.181 102.514 200.971 105.082Z" fill="white" stroke="black" stroke-width="0.5"/>
<path d="M174.071 99.3966C174.071 99.3966 161.512 117.027 139.16 104.86C139.16 104.86 154.486 92.6413 153.535 78.1968L174.071 99.3966Z" fill="white"/>
<path d="M190.016 80.335C189.946 79.251 190.11 78.1643 190.497 77.1493C190.884 76.1342 191.485 75.2146 192.26 74.4525C193.907 72.9288 196.048 72.0481 198.291 71.9712C200.534 71.8943 202.73 72.6261 204.478 74.0334C205.278 74.7615 205.924 75.6423 206.378 76.6238C206.832 77.6053 207.086 78.6676 207.123 79.7484C207.161 80.8293 206.981 81.9068 206.596 82.9174C206.211 83.9279 205.627 84.851 204.88 85.6327C203.232 87.1564 201.091 88.0371 198.848 88.114C196.605 88.1909 194.409 87.4589 192.661 86.0516C191.835 85.3453 191.17 84.4689 190.714 83.4822C190.258 82.4956 190.02 81.4221 190.016 80.335ZM204.409 65.0265L191.928 65.4541L188.332 18.036L204.74 17.4688L204.409 65.0265Z" fill="url(#paint11_linear_576_1225)"/>
<g style="mix-blend-mode:multiply" opacity="0.3">
<path d="M184.468 93.2963C190.071 77.3855 180.977 63.8574 189.757 52.9128C198.86 41.6365 213.567 49.5439 227.514 39.4546C232.986 35.5009 238.816 28.4315 242.202 14.8423C251.882 22.8369 258.393 33.642 259.85 46.0703C263.385 76.1725 236.285 102.757 200.99 105.332C193.462 105.892 185.893 105.286 178.551 103.534C181.134 100.513 183.14 97.0428 184.468 93.2963Z" fill="url(#paint12_linear_576_1225)"/>
</g>
<path d="M180.512 149.564C180.652 147.513 201.764 145.288 203.554 150.55C204.426 153.09 199.905 154.845 199.635 158.877C198.937 169.071 226.429 176.42 225.618 179.474C224.684 182.965 187.023 178.863 185.906 169.175C185.347 164.358 194.136 160.683 192.775 155.935C191.326 150.943 180.416 151.048 180.512 149.564Z" fill="white"/>
<path d="M185.887 130.442C186.463 127.588 197.399 125.205 200.105 129.464C200.732 130.675 200.928 132.063 200.662 133.4C200.395 134.737 199.682 135.944 198.638 136.822C194.519 139.702 185.337 133.304 185.887 130.442Z" fill="white"/>
<path d="M146.145 343C145.866 343 145.626 342.899 145.423 342.696C145.22 342.493 145.119 342.253 145.119 341.974V317.426C145.119 317.147 145.22 316.907 145.423 316.704C145.626 316.501 145.866 316.4 146.145 316.4H151.123C151.402 316.4 151.642 316.501 151.845 316.704C152.048 316.907 152.149 317.147 152.149 317.426V341.974C152.149 342.253 152.048 342.493 151.845 342.696C151.642 342.899 151.402 343 151.123 343H146.145ZM177.008 316.4C177.287 316.4 177.528 316.501 177.73 316.704C177.933 316.907 178.034 317.147 178.034 317.426V321.454C178.034 321.733 177.933 321.973 177.73 322.176C177.528 322.379 177.287 322.48 177.008 322.48H170.32V341.974C170.32 342.253 170.219 342.493 170.016 342.696C169.814 342.899 169.573 343 169.294 343H164.316C164.038 343 163.797 342.899 163.594 342.696C163.392 342.493 163.29 342.253 163.29 341.974V322.48H156.602C156.324 322.48 156.083 322.379 155.88 322.176C155.678 321.973 155.576 321.733 155.576 321.454V317.426C155.576 317.147 155.678 316.907 155.88 316.704C156.083 316.501 156.324 316.4 156.602 316.4H177.008ZM181.487 317.502C181.538 317.147 181.69 316.818 181.943 316.514C182.222 316.185 182.614 316.02 183.121 316.02H187.795C188.023 316.02 188.213 316.109 188.365 316.286C188.542 316.438 188.631 316.628 188.631 316.856C188.631 316.957 188.618 317.046 188.593 317.122L185.629 324.684C185.528 324.937 185.35 325.203 185.097 325.482C184.869 325.761 184.502 325.9 183.995 325.9H181.145C180.917 325.9 180.714 325.824 180.537 325.672C180.385 325.495 180.309 325.292 180.309 325.064V324.988L181.487 317.502ZM201.571 316.02C203.193 316.02 204.675 316.261 206.017 316.742C207.385 317.198 208.563 317.793 209.551 318.528C210.539 319.263 211.312 320.073 211.869 320.96C212.427 321.847 212.718 322.695 212.743 323.506C212.743 323.734 212.655 323.937 212.477 324.114C212.325 324.266 212.148 324.342 211.945 324.342H206.967C206.613 324.342 206.321 324.291 206.093 324.19C205.891 324.089 205.675 323.937 205.447 323.734C205.371 323.658 205.245 323.531 205.067 323.354C204.915 323.177 204.687 322.999 204.383 322.822C204.079 322.619 203.699 322.455 203.243 322.328C202.787 322.176 202.23 322.1 201.571 322.1C201.09 322.1 200.621 322.138 200.165 322.214C199.735 322.265 199.342 322.366 198.987 322.518C198.658 322.645 198.379 322.835 198.151 323.088C197.949 323.341 197.847 323.658 197.847 324.038C197.847 324.418 197.961 324.735 198.189 324.988C198.443 325.241 198.848 325.482 199.405 325.71C199.988 325.913 200.748 326.115 201.685 326.318C202.623 326.521 203.788 326.761 205.181 327.04C206.575 327.319 207.791 327.673 208.829 328.104C209.868 328.535 210.729 329.079 211.413 329.738C212.123 330.371 212.642 331.131 212.971 332.018C213.326 332.879 213.503 333.905 213.503 335.096C213.503 336.388 213.212 337.541 212.629 338.554C212.047 339.567 211.223 340.441 210.159 341.176C209.121 341.885 207.879 342.43 206.435 342.81C205.017 343.19 203.459 343.38 201.761 343.38C200.039 343.38 198.468 343.152 197.049 342.696C195.631 342.24 194.402 341.645 193.363 340.91C192.35 340.15 191.552 339.301 190.969 338.364C190.387 337.427 190.083 336.477 190.057 335.514C190.057 335.286 190.133 335.096 190.285 334.944C190.463 334.767 190.653 334.678 190.855 334.678H195.833C196.188 334.678 196.467 334.729 196.669 334.83C196.872 334.906 197.075 335.033 197.277 335.21C197.379 335.311 197.531 335.476 197.733 335.704C197.936 335.932 198.202 336.173 198.531 336.426C198.886 336.654 199.317 336.857 199.823 337.034C200.355 337.211 201.001 337.3 201.761 337.3C203.104 337.3 204.219 337.161 205.105 336.882C206.017 336.578 206.473 336.046 206.473 335.286C206.473 334.906 206.309 334.589 205.979 334.336C205.65 334.083 205.156 333.855 204.497 333.652C203.839 333.424 202.99 333.209 201.951 333.006C200.938 332.803 199.735 332.55 198.341 332.246C195.732 331.689 193.819 330.764 192.603 329.472C191.413 328.155 190.817 326.407 190.817 324.228C190.817 323.139 191.058 322.1 191.539 321.112C192.046 320.124 192.768 319.25 193.705 318.49C194.643 317.73 195.77 317.135 197.087 316.704C198.43 316.248 199.925 316.02 201.571 316.02ZM243.954 316.4C244.232 316.4 244.473 316.501 244.676 316.704C244.878 316.907 244.98 317.147 244.98 317.426V321.454C244.98 321.733 244.878 321.973 244.676 322.176C244.473 322.379 244.232 322.48 243.954 322.48H237.266V341.974C237.266 342.253 237.164 342.493 236.962 342.696C236.759 342.899 236.518 343 236.24 343H231.262C230.983 343 230.742 342.899 230.54 342.696C230.337 342.493 230.236 342.253 230.236 341.974V322.48H223.548C223.269 322.48 223.028 322.379 222.826 322.176C222.623 321.973 222.522 321.733 222.522 321.454V317.426C222.522 317.147 222.623 316.907 222.826 316.704C223.028 316.501 223.269 316.4 223.548 316.4H243.954ZM249.42 343C249.142 343 248.901 342.899 248.698 342.696C248.496 342.493 248.394 342.253 248.394 341.974V317.426C248.394 317.147 248.496 316.907 248.698 316.704C248.901 316.501 249.142 316.4 249.42 316.4H254.398C254.677 316.4 254.918 316.501 255.12 316.704C255.323 316.907 255.424 317.147 255.424 317.426V341.974C255.424 342.253 255.323 342.493 255.12 342.696C254.918 342.899 254.677 343 254.398 343H249.42ZM272.76 336.616C272.38 336.616 272.076 336.515 271.848 336.312C271.645 336.084 271.48 335.869 271.354 335.666L267.782 329.396V341.974C267.782 342.253 267.68 342.493 267.478 342.696C267.275 342.899 267.034 343 266.756 343H261.778C261.499 343 261.258 342.899 261.056 342.696C260.853 342.493 260.752 342.253 260.752 341.974V317.426C260.752 317.147 260.853 316.907 261.056 316.704C261.258 316.501 261.499 316.4 261.778 316.4H266.186C266.692 316.4 267.072 316.539 267.326 316.818C267.579 317.097 267.744 317.299 267.82 317.426L273.976 327.952L280.132 317.426C280.208 317.299 280.372 317.097 280.626 316.818C280.879 316.539 281.259 316.4 281.766 316.4H286.174C286.452 316.4 286.693 316.501 286.896 316.704C287.098 316.907 287.2 317.147 287.2 317.426V341.974C287.2 342.253 287.098 342.493 286.896 342.696C286.693 342.899 286.452 343 286.174 343H281.196C280.917 343 280.676 342.899 280.474 342.696C280.271 342.493 280.17 342.253 280.17 341.974V329.396L276.598 335.666C276.471 335.869 276.294 336.084 276.066 336.312C275.863 336.515 275.572 336.616 275.192 336.616H272.76ZM311.555 336.92C311.834 336.92 312.075 337.021 312.277 337.224C312.48 337.427 312.581 337.667 312.581 337.946V341.974C312.581 342.253 312.48 342.493 312.277 342.696C312.075 342.899 311.834 343 311.555 343H293.543C293.265 343 293.024 342.899 292.821 342.696C292.619 342.493 292.517 342.253 292.517 341.974V317.426C292.517 317.147 292.619 316.907 292.821 316.704C293.024 316.501 293.265 316.4 293.543 316.4H311.251C311.53 316.4 311.771 316.501 311.973 316.704C312.176 316.907 312.277 317.147 312.277 317.426V321.454C312.277 321.733 312.176 321.973 311.973 322.176C311.771 322.379 311.53 322.48 311.251 322.48H299.547V326.584H310.415C310.694 326.584 310.935 326.685 311.137 326.888C311.34 327.091 311.441 327.331 311.441 327.61V331.638C311.441 331.917 311.34 332.157 311.137 332.36C310.935 332.563 310.694 332.664 310.415 332.664H299.547V336.92H311.555ZM343.592 316.4C343.871 316.4 344.112 316.501 344.314 316.704C344.517 316.907 344.618 317.147 344.618 317.426V321.454C344.618 321.733 344.517 321.973 344.314 322.176C344.112 322.379 343.871 322.48 343.592 322.48H336.904V341.974C336.904 342.253 336.803 342.493 336.6 342.696C336.398 342.899 336.157 343 335.878 343H330.9C330.622 343 330.381 342.899 330.178 342.696C329.976 342.493 329.874 342.253 329.874 341.974V322.48H323.186C322.908 322.48 322.667 322.379 322.464 322.176C322.262 321.973 322.16 321.733 322.16 321.454V317.426C322.16 317.147 322.262 316.907 322.464 316.704C322.667 316.501 322.908 316.4 323.186 316.4H343.592ZM346.714 326.318C346.79 324.899 347.094 323.569 347.626 322.328C348.183 321.061 348.956 319.972 349.944 319.06C350.957 318.123 352.173 317.388 353.592 316.856C355.036 316.299 356.695 316.02 358.57 316.02C360.419 316.02 362.066 316.299 363.51 316.856C364.954 317.388 366.17 318.123 367.158 319.06C368.171 319.972 368.944 321.061 369.476 322.328C370.033 323.569 370.35 324.899 370.426 326.318C370.476 327.407 370.502 328.547 370.502 329.738C370.502 330.929 370.476 332.043 370.426 333.082C370.35 334.501 370.033 335.843 369.476 337.11C368.944 338.351 368.171 339.441 367.158 340.378C366.17 341.315 364.954 342.05 363.51 342.582C362.066 343.114 360.419 343.38 358.57 343.38C356.695 343.38 355.036 343.114 353.592 342.582C352.173 342.05 350.957 341.315 349.944 340.378C348.956 339.441 348.183 338.351 347.626 337.11C347.094 335.843 346.79 334.501 346.714 333.082C346.663 332.043 346.638 330.929 346.638 329.738C346.638 328.547 346.663 327.407 346.714 326.318ZM363.396 332.892C363.421 332.436 363.446 331.929 363.472 331.372C363.497 330.815 363.51 330.245 363.51 329.662C363.51 329.079 363.497 328.522 363.472 327.99C363.446 327.433 363.421 326.939 363.396 326.508C363.345 325.875 363.206 325.292 362.978 324.76C362.775 324.228 362.471 323.772 362.066 323.392C361.686 322.987 361.204 322.67 360.622 322.442C360.039 322.214 359.355 322.1 358.57 322.1C357.784 322.1 357.1 322.214 356.518 322.442C355.935 322.67 355.441 322.987 355.036 323.392C354.656 323.772 354.352 324.228 354.124 324.76C353.921 325.292 353.794 325.875 353.744 326.508C353.693 326.939 353.655 327.433 353.63 327.99C353.63 328.522 353.63 329.079 353.63 329.662C353.63 330.245 353.63 330.815 353.63 331.372C353.655 331.929 353.693 332.436 353.744 332.892C353.845 334.159 354.276 335.21 355.036 336.046C355.821 336.882 356.999 337.3 358.57 337.3C360.14 337.3 361.306 336.882 362.066 336.046C362.826 335.21 363.269 334.159 363.396 332.892ZM394.81 316.4C396.431 316.4 397.888 316.59 399.18 316.97C400.472 317.325 401.574 317.882 402.486 318.642C403.398 319.377 404.095 320.301 404.576 321.416C405.083 322.531 405.336 323.823 405.336 325.292C405.336 326.787 405.083 328.091 404.576 329.206C404.095 330.321 403.398 331.245 402.486 331.98C401.574 332.715 400.472 333.272 399.18 333.652C397.888 334.032 396.431 334.222 394.81 334.222H389.946V341.974C389.946 342.253 389.845 342.493 389.642 342.696C389.439 342.899 389.199 343 388.92 343H383.942C383.663 343 383.423 342.899 383.22 342.696C383.017 342.493 382.916 342.253 382.916 341.974V317.426C382.916 317.147 383.017 316.907 383.22 316.704C383.423 316.501 383.663 316.4 383.942 316.4H394.81ZM389.946 328.294H394.62C395.684 328.294 396.558 328.066 397.242 327.61C397.951 327.129 398.306 326.356 398.306 325.292C398.306 324.228 397.951 323.468 397.242 323.012C396.558 322.531 395.684 322.29 394.62 322.29H389.946V328.294ZM421.171 316.4C421.678 316.4 422.058 316.539 422.311 316.818C422.59 317.097 422.78 317.375 422.881 317.654L431.165 341.594C431.267 341.847 431.317 342.037 431.317 342.164C431.317 342.392 431.229 342.595 431.051 342.772C430.899 342.924 430.709 343 430.481 343H425.693C425.187 343 424.819 342.899 424.591 342.696C424.389 342.468 424.262 342.253 424.211 342.05L423.147 338.896H413.039L411.975 342.05C411.925 342.253 411.785 342.468 411.557 342.696C411.355 342.899 411 343 410.493 343H405.705C405.477 343 405.275 342.924 405.097 342.772C404.945 342.595 404.869 342.392 404.869 342.164C404.869 342.037 404.92 341.847 405.021 341.594L413.305 317.654C413.407 317.375 413.584 317.097 413.837 316.818C414.116 316.539 414.509 316.4 415.015 316.4H421.171ZM415.015 333.006H421.171L418.093 323.886L415.015 333.006ZM445.437 341.974C445.437 342.253 445.336 342.493 445.133 342.696C444.93 342.899 444.69 343 444.411 343H439.433C439.154 343 438.914 342.899 438.711 342.696C438.508 342.493 438.407 342.253 438.407 341.974V333.88L429.629 317.73C429.528 317.553 429.477 317.388 429.477 317.236C429.477 317.008 429.553 316.818 429.705 316.666C429.882 316.489 430.085 316.4 430.313 316.4H435.519C436.026 316.4 436.406 316.527 436.659 316.78C436.912 317.033 437.064 317.223 437.115 317.35L441.903 326.698L446.729 317.35C446.78 317.223 446.932 317.033 447.185 316.78C447.438 316.527 447.818 316.4 448.325 316.4H453.531C453.759 316.4 453.949 316.489 454.101 316.666C454.278 316.818 454.367 317.008 454.367 317.236C454.367 317.388 454.316 317.553 454.215 317.73L445.437 333.88V341.974ZM477.425 341.974C477.425 342.253 477.324 342.493 477.121 342.696C476.919 342.899 476.678 343 476.399 343H471.421C471.143 343 470.902 342.899 470.699 342.696C470.497 342.493 470.395 342.253 470.395 341.974V333.88L461.617 317.73C461.516 317.553 461.465 317.388 461.465 317.236C461.465 317.008 461.541 316.818 461.693 316.666C461.871 316.489 462.073 316.4 462.301 316.4H467.507C468.014 316.4 468.394 316.527 468.647 316.78C468.901 317.033 469.053 317.223 469.103 317.35L473.891 326.698L478.717 317.35C478.768 317.223 478.92 317.033 479.173 316.78C479.427 316.527 479.807 316.4 480.313 316.4H485.519C485.747 316.4 485.937 316.489 486.089 316.666C486.267 316.818 486.355 317.008 486.355 317.236C486.355 317.388 486.305 317.553 486.203 317.73L477.425 333.88V341.974ZM487.358 326.318C487.434 324.899 487.738 323.569 488.27 322.328C488.828 321.061 489.6 319.972 490.588 319.06C491.602 318.123 492.818 317.388 494.236 316.856C495.68 316.299 497.34 316.02 499.214 316.02C501.064 316.02 502.71 316.299 504.154 316.856C505.598 317.388 506.814 318.123 507.802 319.06C508.816 319.972 509.588 321.061 510.12 322.328C510.678 323.569 510.994 324.899 511.07 326.318C511.121 327.407 511.146 328.547 511.146 329.738C511.146 330.929 511.121 332.043 511.07 333.082C510.994 334.501 510.678 335.843 510.12 337.11C509.588 338.351 508.816 339.441 507.802 340.378C506.814 341.315 505.598 342.05 504.154 342.582C502.71 343.114 501.064 343.38 499.214 343.38C497.34 343.38 495.68 343.114 494.236 342.582C492.818 342.05 491.602 341.315 490.588 340.378C489.6 339.441 488.828 338.351 488.27 337.11C487.738 335.843 487.434 334.501 487.358 333.082C487.308 332.043 487.282 330.929 487.282 329.738C487.282 328.547 487.308 327.407 487.358 326.318ZM504.04 332.892C504.066 332.436 504.091 331.929 504.116 331.372C504.142 330.815 504.154 330.245 504.154 329.662C504.154 329.079 504.142 328.522 504.116 327.99C504.091 327.433 504.066 326.939 504.04 326.508C503.99 325.875 503.85 325.292 503.622 324.76C503.42 324.228 503.116 323.772 502.71 323.392C502.33 322.987 501.849 322.67 501.266 322.442C500.684 322.214 500 322.1 499.214 322.1C498.429 322.1 497.745 322.214 497.162 322.442C496.58 322.67 496.086 322.987 495.68 323.392C495.3 323.772 494.996 324.228 494.768 324.76C494.566 325.292 494.439 325.875 494.388 326.508C494.338 326.939 494.3 327.433 494.274 327.99C494.274 328.522 494.274 329.079 494.274 329.662C494.274 330.245 494.274 330.815 494.274 331.372C494.3 331.929 494.338 332.436 494.388 332.892C494.49 334.159 494.92 335.21 495.68 336.046C496.466 336.882 497.644 337.3 499.214 337.3C500.785 337.3 501.95 336.882 502.71 336.046C503.47 335.21 503.914 334.159 504.04 332.892ZM537.32 316.4C537.598 316.4 537.839 316.501 538.042 316.704C538.244 316.907 538.346 317.147 538.346 317.426V332.588C538.346 334.336 538.067 335.881 537.51 337.224C536.952 338.567 536.154 339.694 535.116 340.606C534.102 341.518 532.886 342.215 531.468 342.696C530.049 343.152 528.491 343.38 526.794 343.38C525.071 343.38 523.5 343.152 522.082 342.696C520.663 342.215 519.447 341.518 518.434 340.606C517.42 339.694 516.635 338.567 516.078 337.224C515.52 335.881 515.242 334.336 515.242 332.588V317.426C515.242 317.147 515.343 316.907 515.546 316.704C515.748 316.501 515.989 316.4 516.268 316.4H521.246C521.524 316.4 521.765 316.501 521.968 316.704C522.17 316.907 522.272 317.147 522.272 317.426V332.436C522.272 333.956 522.639 335.147 523.374 336.008C524.134 336.869 525.274 337.3 526.794 337.3C528.314 337.3 529.441 336.869 530.176 336.008C530.936 335.147 531.316 333.956 531.316 332.436V317.426C531.316 317.147 531.417 316.907 531.62 316.704C531.822 316.501 532.063 316.4 532.342 316.4H537.32ZM554.738 316.4C556.41 316.4 557.905 316.577 559.222 316.932C560.539 317.287 561.654 317.819 562.566 318.528C563.503 319.237 564.213 320.149 564.694 321.264C565.201 322.353 565.454 323.633 565.454 325.102C565.454 327.002 565.061 328.585 564.276 329.852C563.491 331.093 562.376 332.043 560.932 332.702L565.644 341.746C565.72 341.898 565.758 342.037 565.758 342.164C565.758 342.392 565.669 342.595 565.492 342.772C565.34 342.924 565.15 343 564.922 343H559.754C559.247 343 558.88 342.886 558.652 342.658C558.449 342.43 558.285 342.202 558.158 341.974L553.94 333.842H550.444V341.974C550.444 342.253 550.343 342.493 550.14 342.696C549.937 342.899 549.697 343 549.418 343H544.44C544.161 343 543.921 342.899 543.718 342.696C543.515 342.493 543.414 342.253 543.414 341.974V317.426C543.414 317.147 543.515 316.907 543.718 316.704C543.921 316.501 544.161 316.4 544.44 316.4H554.738ZM550.444 327.914H554.738C555.802 327.914 556.676 327.711 557.36 327.306C558.069 326.901 558.424 326.166 558.424 325.102C558.424 324.038 558.069 323.303 557.36 322.898C556.676 322.493 555.802 322.29 554.738 322.29H550.444V327.914ZM587.769 316.02C589.39 316.02 590.872 316.261 592.215 316.742C593.583 317.198 594.761 317.793 595.749 318.528C596.737 319.263 597.509 320.073 598.067 320.96C598.624 321.847 598.915 322.695 598.941 323.506C598.941 323.734 598.852 323.937 598.675 324.114C598.523 324.266 598.345 324.342 598.143 324.342H593.165C592.81 324.342 592.519 324.291 592.291 324.19C592.088 324.089 591.873 323.937 591.645 323.734C591.569 323.658 591.442 323.531 591.265 323.354C591.113 323.177 590.885 322.999 590.581 322.822C590.277 322.619 589.897 322.455 589.441 322.328C588.985 322.176 588.427 322.1 587.769 322.1C587.287 322.1 586.819 322.138 586.363 322.214C585.932 322.265 585.539 322.366 585.185 322.518C584.855 322.645 584.577 322.835 584.349 323.088C584.146 323.341 584.045 323.658 584.045 324.038C584.045 324.418 584.159 324.735 584.387 324.988C584.64 325.241 585.045 325.482 585.603 325.71C586.185 325.913 586.945 326.115 587.883 326.318C588.82 326.521 589.985 326.761 591.379 327.04C592.772 327.319 593.988 327.673 595.027 328.104C596.065 328.535 596.927 329.079 597.611 329.738C598.32 330.371 598.839 331.131 599.169 332.018C599.523 332.879 599.701 333.905 599.701 335.096C599.701 336.388 599.409 337.541 598.827 338.554C598.244 339.567 597.421 340.441 596.357 341.176C595.318 341.885 594.077 342.43 592.633 342.81C591.214 343.19 589.656 343.38 587.959 343.38C586.236 343.38 584.665 343.152 583.247 342.696C581.828 342.24 580.599 341.645 579.561 340.91C578.547 340.15 577.749 339.301 577.167 338.364C576.584 337.427 576.28 336.477 576.255 335.514C576.255 335.286 576.331 335.096 576.483 334.944C576.66 334.767 576.85 334.678 577.053 334.678H582.031C582.385 334.678 582.664 334.729 582.867 334.83C583.069 334.906 583.272 335.033 583.475 335.21C583.576 335.311 583.728 335.476 583.931 335.704C584.133 335.932 584.399 336.173 584.729 336.426C585.083 336.654 585.514 336.857 586.021 337.034C586.553 337.211 587.199 337.3 587.959 337.3C589.301 337.3 590.416 337.161 591.303 336.882C592.215 336.578 592.671 336.046 592.671 335.286C592.671 334.906 592.506 334.589 592.177 334.336C591.847 334.083 591.353 333.855 590.695 333.652C590.036 333.424 589.187 333.209 588.149 333.006C587.135 332.803 585.932 332.55 584.539 332.246C581.929 331.689 580.017 330.764 578.801 329.472C577.61 328.155 577.015 326.407 577.015 324.228C577.015 323.139 577.255 322.1 577.737 321.112C578.243 320.124 578.965 319.25 579.903 318.49C580.84 317.73 581.967 317.135 583.285 316.704C584.627 316.248 586.122 316.02 587.769 316.02ZM625.306 316.4C625.585 316.4 625.825 316.501 626.028 316.704C626.231 316.907 626.332 317.147 626.332 317.426V332.588C626.332 334.336 626.053 335.881 625.496 337.224C624.939 338.567 624.141 339.694 623.102 340.606C622.089 341.518 620.873 342.215 619.454 342.696C618.035 343.152 616.477 343.38 614.78 343.38C613.057 343.38 611.487 343.152 610.068 342.696C608.649 342.215 607.433 341.518 606.42 340.606C605.407 339.694 604.621 338.567 604.064 337.224C603.507 335.881 603.228 334.336 603.228 332.588V317.426C603.228 317.147 603.329 316.907 603.532 316.704C603.735 316.501 603.975 316.4 604.254 316.4H609.232C609.511 316.4 609.751 316.501 609.954 316.704C610.157 316.907 610.258 317.147 610.258 317.426V332.436C610.258 333.956 610.625 335.147 611.36 336.008C612.12 336.869 613.26 337.3 614.78 337.3C616.3 337.3 617.427 336.869 618.162 336.008C618.922 335.147 619.302 333.956 619.302 332.436V317.426C619.302 317.147 619.403 316.907 619.606 316.704C619.809 316.501 620.049 316.4 620.328 316.4H625.306ZM643.294 316.4C644.916 316.4 646.372 316.59 647.664 316.97C648.956 317.325 650.058 317.882 650.97 318.642C651.882 319.377 652.579 320.301 653.06 321.416C653.567 322.531 653.82 323.823 653.82 325.292C653.82 326.787 653.567 328.091 653.06 329.206C652.579 330.321 651.882 331.245 650.97 331.98C650.058 332.715 648.956 333.272 647.664 333.652C646.372 334.032 644.916 334.222 643.294 334.222H638.43V341.974C638.43 342.253 638.329 342.493 638.126 342.696C637.924 342.899 637.683 343 637.404 343H632.426C632.148 343 631.907 342.899 631.704 342.696C631.502 342.493 631.4 342.253 631.4 341.974V317.426C631.4 317.147 631.502 316.907 631.704 316.704C631.907 316.501 632.148 316.4 632.426 316.4H643.294ZM638.43 328.294H643.104C644.168 328.294 645.042 328.066 645.726 327.61C646.436 327.129 646.79 326.356 646.79 325.292C646.79 324.228 646.436 323.468 645.726 323.012C645.042 322.531 644.168 322.29 643.104 322.29H638.43V328.294ZM669.345 316.4C670.966 316.4 672.423 316.59 673.715 316.97C675.007 317.325 676.109 317.882 677.021 318.642C677.933 319.377 678.63 320.301 679.111 321.416C679.618 322.531 679.871 323.823 679.871 325.292C679.871 326.787 679.618 328.091 679.111 329.206C678.63 330.321 677.933 331.245 677.021 331.98C676.109 332.715 675.007 333.272 673.715 333.652C672.423 334.032 670.966 334.222 669.345 334.222H664.481V341.974C664.481 342.253 664.38 342.493 664.177 342.696C663.974 342.899 663.734 343 663.455 343H658.477C658.198 343 657.958 342.899 657.755 342.696C657.552 342.493 657.451 342.253 657.451 341.974V317.426C657.451 317.147 657.552 316.907 657.755 316.704C657.958 316.501 658.198 316.4 658.477 316.4H669.345ZM664.481 328.294H669.155C670.219 328.294 671.093 328.066 671.777 327.61C672.486 327.129 672.841 326.356 672.841 325.292C672.841 324.228 672.486 323.468 671.777 323.012C671.093 322.531 670.219 322.29 669.155 322.29H664.481V328.294ZM702.122 336.92C702.4 336.92 702.641 337.021 702.844 337.224C703.046 337.427 703.148 337.667 703.148 337.946V341.974C703.148 342.253 703.046 342.493 702.844 342.696C702.641 342.899 702.4 343 702.122 343H684.528C684.249 343 684.008 342.899 683.806 342.696C683.603 342.493 683.502 342.253 683.502 341.974V317.426C683.502 317.147 683.603 316.907 683.806 316.704C684.008 316.501 684.249 316.4 684.528 316.4H689.506C689.784 316.4 690.025 316.501 690.228 316.704C690.43 316.907 690.532 317.147 690.532 317.426V336.92H702.122ZM707.424 343C707.146 343 706.905 342.899 706.702 342.696C706.5 342.493 706.398 342.253 706.398 341.974V317.426C706.398 317.147 706.5 316.907 706.702 316.704C706.905 316.501 707.146 316.4 707.424 316.4H712.402C712.681 316.4 712.922 316.501 713.124 316.704C713.327 316.907 713.428 317.147 713.428 317.426V341.974C713.428 342.253 713.327 342.493 713.124 342.696C712.922 342.899 712.681 343 712.402 343H707.424ZM737.794 336.92C738.072 336.92 738.313 337.021 738.516 337.224C738.718 337.427 738.82 337.667 738.82 337.946V341.974C738.82 342.253 738.718 342.493 738.516 342.696C738.313 342.899 738.072 343 737.794 343H719.782C719.503 343 719.262 342.899 719.06 342.696C718.857 342.493 718.756 342.253 718.756 341.974V317.426C718.756 317.147 718.857 316.907 719.06 316.704C719.262 316.501 719.503 316.4 719.782 316.4H737.49C737.768 316.4 738.009 316.501 738.212 316.704C738.414 316.907 738.516 317.147 738.516 317.426V321.454C738.516 321.733 738.414 321.973 738.212 322.176C738.009 322.379 737.768 322.48 737.49 322.48H725.786V326.584H736.654C736.932 326.584 737.173 326.685 737.376 326.888C737.578 327.091 737.68 327.331 737.68 327.61V331.638C737.68 331.917 737.578 332.157 737.376 332.36C737.173 332.563 736.932 332.664 736.654 332.664H725.786V336.92H737.794ZM754.498 316.4C756.17 316.4 757.664 316.577 758.982 316.932C760.299 317.287 761.414 317.819 762.326 318.528C763.263 319.237 763.972 320.149 764.454 321.264C764.96 322.353 765.214 323.633 765.214 325.102C765.214 327.002 764.821 328.585 764.036 329.852C763.25 331.093 762.136 332.043 760.692 332.702L765.404 341.746C765.48 341.898 765.518 342.037 765.518 342.164C765.518 342.392 765.429 342.595 765.252 342.772C765.1 342.924 764.91 343 764.682 343H759.514C759.007 343 758.64 342.886 758.412 342.658C758.209 342.43 758.044 342.202 757.918 341.974L753.7 333.842H750.204V341.974C750.204 342.253 750.102 342.493 749.9 342.696C749.697 342.899 749.456 343 749.178 343H744.2C743.921 343 743.68 342.899 743.478 342.696C743.275 342.493 743.174 342.253 743.174 341.974V317.426C743.174 317.147 743.275 316.907 743.478 316.704C743.68 316.501 743.921 316.4 744.2 316.4H754.498ZM750.204 327.914H754.498C755.562 327.914 756.436 327.711 757.12 327.306C757.829 326.901 758.184 326.166 758.184 325.102C758.184 324.038 757.829 323.303 757.12 322.898C756.436 322.493 755.562 322.29 754.498 322.29H750.204V327.914ZM779.476 316.02C781.097 316.02 782.579 316.261 783.922 316.742C785.29 317.198 786.468 317.793 787.456 318.528C788.444 319.263 789.216 320.073 789.774 320.96C790.331 321.847 790.622 322.695 790.648 323.506C790.648 323.734 790.559 323.937 790.382 324.114C790.23 324.266 790.052 324.342 789.85 324.342H784.872C784.517 324.342 784.226 324.291 783.998 324.19C783.795 324.089 783.58 323.937 783.352 323.734C783.276 323.658 783.149 323.531 782.972 323.354C782.82 323.177 782.592 322.999 782.288 322.822C781.984 322.619 781.604 322.455 781.148 322.328C780.692 322.176 780.134 322.1 779.476 322.1C778.994 322.1 778.526 322.138 778.07 322.214C777.639 322.265 777.246 322.366 776.892 322.518C776.562 322.645 776.284 322.835 776.056 323.088C775.853 323.341 775.752 323.658 775.752 324.038C775.752 324.418 775.866 324.735 776.094 324.988C776.347 325.241 776.752 325.482 777.31 325.71C777.892 325.913 778.652 326.115 779.59 326.318C780.527 326.521 781.692 326.761 783.086 327.04C784.479 327.319 785.695 327.673 786.734 328.104C787.772 328.535 788.634 329.079 789.318 329.738C790.027 330.371 790.546 331.131 790.876 332.018C791.23 332.879 791.408 333.905 791.408 335.096C791.408 336.388 791.116 337.541 790.534 338.554C789.951 339.567 789.128 340.441 788.064 341.176C787.025 341.885 785.784 342.43 784.34 342.81C782.921 343.19 781.363 343.38 779.666 343.38C777.943 343.38 776.372 343.152 774.954 342.696C773.535 342.24 772.306 341.645 771.268 340.91C770.254 340.15 769.456 339.301 768.874 338.364C768.291 337.427 767.987 336.477 767.962 335.514C767.962 335.286 768.038 335.096 768.19 334.944C768.367 334.767 768.557 334.678 768.76 334.678H773.738C774.092 334.678 774.371 334.729 774.574 334.83C774.776 334.906 774.979 335.033 775.182 335.21C775.283 335.311 775.435 335.476 775.638 335.704C775.84 335.932 776.106 336.173 776.436 336.426C776.79 336.654 777.221 336.857 777.728 337.034C778.26 337.211 778.906 337.3 779.666 337.3C781.008 337.3 782.123 337.161 783.01 336.882C783.922 336.578 784.378 336.046 784.378 335.286C784.378 334.906 784.213 334.589 783.884 334.336C783.554 334.083 783.06 333.855 782.402 333.652C781.743 333.424 780.894 333.209 779.856 333.006C778.842 332.803 777.639 332.55 776.246 332.246C773.636 331.689 771.724 330.764 770.508 329.472C769.317 328.155 768.722 326.407 768.722 324.228C768.722 323.139 768.962 322.1 769.444 321.112C769.95 320.124 770.672 319.25 771.61 318.49C772.547 317.73 773.674 317.135 774.992 316.704C776.334 316.248 777.829 316.02 779.476 316.02Z" fill="black"/>
<defs>
<linearGradient id="paint0_linear_576_1225" x1="773" y1="440" x2="-126.5" y2="57.5" gradientUnits="userSpaceOnUse">
<stop stop-color="#E38DDD" stop-opacity="0.6"/>
<stop offset="1" stop-color="#4500FF"/>
</linearGradient>
<linearGradient id="paint1_linear_576_1225" x1="80.1378" y1="154.587" x2="57.865" y2="214.208" gradientUnits="userSpaceOnUse">
<stop stop-color="#311944"/>
<stop offset="1" stop-color="#893976"/>
</linearGradient>
<linearGradient id="paint2_linear_576_1225" x1="73.1148" y1="151.959" x2="51.039" y2="211.045" gradientUnits="userSpaceOnUse">
<stop stop-color="#311944"/>
<stop offset="1" stop-color="#893976"/>
</linearGradient>
<linearGradient id="paint3_linear_576_1225" x1="31.3239" y1="139.08" x2="17.7798" y2="175.315" gradientUnits="userSpaceOnUse">
<stop stop-color="#311944"/>
<stop offset="1" stop-color="#893976"/>
</linearGradient>
<linearGradient id="paint4_linear_576_1225" x1="17.5857" y1="149.405" x2="131.348" y2="118.731" gradientUnits="userSpaceOnUse">
<stop stop-color="#E38DDD"/>
<stop offset="1" stop-color="#9571F6"/>
</linearGradient>
<linearGradient id="paint5_linear_576_1225" x1="34.2907" y1="84.8191" x2="133.195" y2="255.73" gradientUnits="userSpaceOnUse">
<stop stop-color="#AA80F9"/>
<stop offset="1" stop-color="#6165D7"/>
</linearGradient>
<linearGradient id="paint6_linear_576_1225" x1="69.1163" y1="139.218" x2="172.986" y2="104.617" gradientUnits="userSpaceOnUse">
<stop stop-color="#311944"/>
<stop offset="1" stop-color="#893976"/>
</linearGradient>
<linearGradient id="paint7_linear_576_1225" x1="70.0586" y1="138.258" x2="132.282" y2="121.481" gradientUnits="userSpaceOnUse">
<stop stop-color="#FF9085"/>
<stop offset="1" stop-color="#FB6FBB"/>
</linearGradient>
<linearGradient id="paint8_linear_576_1225" x1="89.3503" y1="82.2487" x2="138.945" y2="167.959" gradientUnits="userSpaceOnUse">
<stop stop-color="#FF9085"/>
<stop offset="1" stop-color="#FB6FBB"/>
</linearGradient>
<linearGradient id="paint9_linear_576_1225" x1="80.8192" y1="-168.885" x2="321.285" y2="270.098" gradientUnits="userSpaceOnUse">
<stop stop-color="#311944"/>
<stop offset="1" stop-color="#893976"/>
</linearGradient>
<linearGradient id="paint10_linear_576_1225" x1="216.47" y1="-6.13741" x2="150.764" y2="161.36" gradientUnits="userSpaceOnUse">
<stop stop-color="#FF9085"/>
<stop offset="1" stop-color="#FB6FBB"/>
</linearGradient>
<linearGradient id="paint11_linear_576_1225" x1="181.668" y1="-0.292653" x2="215.139" y2="106.032" gradientUnits="userSpaceOnUse">
<stop stop-color="#FF9085"/>
<stop offset="1" stop-color="#FB6FBB"/>
</linearGradient>
<linearGradient id="paint12_linear_576_1225" x1="240.462" y1="-0.172559" x2="177.107" y2="177.964" gradientUnits="userSpaceOnUse">
<stop stop-color="#FF9085"/>
<stop offset="1" stop-color="#FB6FBB"/>
</linearGradient>
</defs>
</svg>
