<svg width="149" height="151" viewBox="0 0 149 151" fill="none" xmlns="http://www.w3.org/2000/svg">
<path d="M141.105 11.1704H7.89508C3.53475 11.1704 0 14.7767 0 19.2253V142.945C0 147.394 3.53475 151 7.89508 151H141.105C145.465 151 149 147.394 149 142.945V19.2253C149 14.7767 145.465 11.1704 141.105 11.1704Z" fill="#368BCC"/>
<mask id="mask0_281_3493" style="mask-type:alpha" maskUnits="userSpaceOnUse" x="0" y="11" width="149" height="140">
<path d="M141.105 11.1704H7.89508C3.53475 11.1704 0 14.7767 0 19.2253V142.945C0 147.394 3.53475 151 7.89508 151H141.105C145.465 151 149 147.394 149 142.945V19.2253C149 14.7767 145.465 11.1704 141.105 11.1704Z" fill="#368BCC"/>
</mask>
<g mask="url(#mask0_281_3493)">
<g opacity="0.25">
<path opacity="0.3" d="M200.829 120.424L74.5078 81.0869L200.829 128.756V120.424Z" fill="white"/>
<path opacity="0.3" d="M74.5078 81.0869L89.6321 230.631H107.053L74.5078 81.0869Z" fill="white"/>
<path opacity="0.3" d="M123.252 230.631H138.434L74.5078 81.0869L123.252 230.631Z" fill="white"/>
<path opacity="0.3" d="M74.5074 81.0869L61.1895 230.631H74.5074V81.0869Z" fill="white"/>
<path opacity="0.3" d="M27.3438 230.631H41.4462L74.5076 81.0908L27.3438 230.631Z" fill="white"/>
<path opacity="0.3" d="M74.5078 81.0869L200.829 167.781V157.758L74.5078 81.0869Z" fill="white"/>
<path opacity="0.3" d="M157.148 230.631H175.529L74.5078 81.0869L157.148 230.631Z" fill="white"/>
<path opacity="0.3" d="M200.829 196.572V180.326L74.5117 81.0869L200.829 196.572Z" fill="white"/>
<path opacity="0.3" d="M74.5078 81.0869L199.214 230.631H200.829V213.756L74.5116 81.0869H74.5078Z" fill="white"/>
<path opacity="0.3" d="M74.5078 81.0869L200.829 147.208V138.384L74.5078 81.0869Z" fill="white"/>
<path opacity="0.3" d="M-51.8135 120.479V131.38L74.504 81.0869L-51.8135 120.479Z" fill="white"/>
<path opacity="0.3" d="M-7.53125 230.631H8.48852L74.5079 81.0869L-7.53125 230.631Z" fill="white"/>
<path opacity="0.3" d="M74.504 81.0869L-51.8135 191.293V206.591L74.5078 81.0869H74.504Z" fill="white"/>
<path opacity="0.3" d="M74.5079 81.0869L-51.8096 230.631H-25.8434L74.5079 81.0869Z" fill="white"/>
<path opacity="0.3" d="M74.504 81.0869L-51.8135 141.832V151.332L74.504 81.0869Z" fill="white"/>
<path opacity="0.3" d="M-51.8135 165.485V176.988L74.5001 81.0908L-51.8135 165.485Z" fill="white"/>
<path opacity="0.3" d="M74.5076 81.1106L59.3834 10.2451H41.9629L74.5076 81.1106Z" fill="white"/>
<path opacity="0.3" d="M25.7637 10.2451H10.582L74.5042 81.1106L25.7637 10.2451Z" fill="white"/>
<path opacity="0.3" d="M74.5078 81.1106L87.8219 10.2451H74.5078V81.1106Z" fill="white"/>
<path opacity="0.3" d="M121.672 10.2451H107.569L74.5078 81.1067L121.672 10.2451Z" fill="white"/>
<path opacity="0.3" d="M74.5078 81.1105L-51.8135 73.0947V86.2371L74.5078 81.1105Z" fill="white"/>
<path opacity="0.3" d="M-8.13265 10.2451H-26.5137L74.5035 81.1106L-8.13265 10.2451Z" fill="white"/>
<path opacity="0.3" d="M-51.8135 44.3037V60.55L74.504 81.1108L-51.8135 44.3037Z" fill="white"/>
<path opacity="0.3" d="M74.504 81.1106L-50.2023 10.2451H-51.8135V27.1201L74.504 81.1106Z" fill="white"/>
<path opacity="0.3" d="M74.5078 81.1104L-51.8135 99.5471V110.878L74.5078 81.1104Z" fill="white"/>
<path opacity="0.3" d="M156.543 10.2451H140.527L74.5078 81.1106L156.543 10.2451Z" fill="white"/>
<path opacity="0.3" d="M74.5078 81.1105L200.829 49.5822V34.2847L74.5078 81.1105Z" fill="white"/>
<path opacity="0.3" d="M74.5078 81.0871L200.829 10.2217H174.859L74.5078 81.0871Z" fill="white"/>
<path opacity="0.3" d="M74.5078 81.1104L200.829 107.426V95.424L74.5116 81.1104H74.5078Z" fill="white"/>
<path opacity="0.3" d="M200.829 78.5103V63.8882L74.5117 81.1067L200.829 78.5103Z" fill="white"/>
</g>
</g>
<path d="M134.706 17.1328H14.2476C9.88726 17.1328 6.35254 20.7391 6.35254 25.1877V136.983C6.35254 141.432 9.88726 145.038 14.2476 145.038H134.706C139.066 145.038 142.601 141.432 142.601 136.983V25.1877C142.601 20.7391 139.066 17.1328 134.706 17.1328Z" stroke="white" stroke-width="3" stroke-linejoin="round"/>
<path d="M128.609 142.117C134.441 142.117 139.168 137.294 139.168 131.345C139.168 125.396 134.441 120.573 128.609 120.573C122.778 120.573 118.051 125.396 118.051 131.345C118.051 137.294 122.778 142.117 128.609 142.117Z" fill="#1F6587"/>
<path d="M132.843 128.284V127.948C132.843 127.711 132.654 127.519 132.422 127.519H124.806C124.574 127.519 124.385 127.711 124.385 127.948V128.284C124.385 128.521 124.574 128.713 124.806 128.713H132.422C132.654 128.713 132.843 128.521 132.843 128.284Z" fill="white"/>
<path d="M132.843 131.599V131.263C132.843 131.026 132.654 130.833 132.422 130.833H124.806C124.574 130.833 124.385 131.026 124.385 131.263V131.599C124.385 131.836 124.574 132.028 124.806 132.028H132.422C132.654 132.028 132.843 131.836 132.843 131.599Z" fill="white"/>
<path d="M132.839 134.914V134.578C132.839 134.341 132.65 134.148 132.418 134.148H124.802C124.57 134.148 124.381 134.341 124.381 134.578V134.914C124.381 135.151 124.57 135.343 124.802 135.343H132.418C132.65 135.343 132.839 135.151 132.839 134.914Z" fill="white"/>
<path d="M126.593 17.4686L134.725 27.1047C134.774 27.1571 134.807 27.2222 134.822 27.2928C134.836 27.3634 134.831 27.4367 134.808 27.5046C134.784 27.5726 134.742 27.6325 134.687 27.6777C134.632 27.7229 134.566 27.7516 134.495 27.7607H108.973C108.879 27.7527 108.793 27.7072 108.732 27.634C108.671 27.5608 108.64 27.466 108.648 27.3702V6.98908C108.644 6.94157 108.649 6.89368 108.663 6.84821C108.677 6.80275 108.7 6.76061 108.73 6.72427C108.761 6.68792 108.798 6.65809 108.839 6.63652C108.881 6.61495 108.927 6.60207 108.973 6.59863H134.495C134.566 6.60771 134.632 6.63644 134.687 6.68164C134.742 6.72683 134.784 6.78673 134.808 6.85467C134.831 6.92261 134.836 6.99596 134.822 7.06655C134.807 7.13714 134.774 7.20221 134.725 7.25457L126.593 16.9024C126.525 16.9808 126.488 17.0814 126.488 17.1855C126.488 17.2896 126.525 17.3903 126.593 17.4686V17.4686Z" fill="#1F6587"/>
<path d="M22.3575 17.4686L14.2405 27.1047C14.1918 27.1571 14.1583 27.2222 14.1437 27.2928C14.1291 27.3634 14.134 27.4367 14.1578 27.5046C14.1816 27.5726 14.2234 27.6325 14.2785 27.6777C14.3336 27.7229 14.3999 27.7516 14.4701 27.7607H39.9923C40.0386 27.7567 40.0836 27.7435 40.1249 27.7217C40.1662 27.6999 40.2028 27.67 40.2327 27.6337C40.2626 27.5974 40.2851 27.5555 40.299 27.5102C40.3129 27.465 40.3179 27.4174 40.3137 27.3702V6.98908C40.3185 6.94177 40.3138 6.89399 40.3001 6.84855C40.2864 6.8031 40.2639 6.76092 40.2339 6.72451C40.204 6.6881 40.1671 6.65819 40.1256 6.63657C40.0841 6.61495 40.0387 6.60205 39.9923 6.59863H14.4586C14.3884 6.60771 14.3221 6.63644 14.267 6.68164C14.2119 6.72683 14.1701 6.78673 14.1463 6.85467C14.1225 6.92261 14.1177 6.99596 14.1323 7.06655C14.1468 7.13714 14.1803 7.20221 14.229 7.25457L22.3575 16.9024C22.4248 16.9808 22.4619 17.0814 22.4619 17.1855C22.4619 17.2896 22.4248 17.3903 22.3575 17.4686V17.4686Z" fill="#1F6587"/>
<path d="M117.308 0H31.3732C30.6989 0 30.1523 0.557636 30.1523 1.24551V24.7619C30.1523 25.4498 30.6989 26.0074 31.3732 26.0074H117.308C117.982 26.0074 118.529 25.4498 118.529 24.7619V1.24551C118.529 0.557636 117.982 0 117.308 0Z" fill="#247096"/>
<path d="M52.1299 11L54.2899 3.63H57.3299L59.4899 11H57.5099L57.1399 9.53H54.4799L54.1099 11H52.1299ZM54.8499 8.09H56.7699L55.9899 5.04H55.6299L54.8499 8.09ZM59.8932 11V9.59H60.7132L60.6932 5.04H59.8932V3.63H63.2932V5.04H62.4832L62.4632 9.59H63.2932V11H59.8932ZM64.3924 11V3.63H69.4124L70.5324 4.74V7.38L69.6924 8.22L70.8124 11H68.9324L67.9624 8.49H66.2624V11H64.3924ZM66.2624 7.07H68.3624L68.7124 6.72V5.4L68.3624 5.05H66.2624V7.07ZM71.8143 11V3.63H73.6843V9.48H77.0643V11H71.8143ZM77.6178 11V9.59H78.4378L78.4178 5.04H77.6178V3.63H81.0178V5.04H80.2078L80.1878 9.59H81.0178V11H77.6178ZM82.117 11V3.63H84.157L86.637 8.05V3.63H88.377V11H86.637L84.217 6.68H83.857V11H82.117ZM89.7732 11V3.63H95.3732V5.15H91.6432V6.51H95.0032V7.92H91.6432V9.48H95.3732V11H89.7732ZM37.7029 23V15.63H42.7229L43.8429 16.74V19.38L43.0029 20.22L44.1229 23H42.2429L41.2729 20.49H39.5729V23H37.7029ZM39.5729 19.07H41.6729L42.0229 18.72V17.4L41.6729 17.05H39.5729V19.07ZM45.1248 23V15.63H50.7248V17.15H46.9948V18.51H50.3548V19.92H46.9948V21.48H50.7248V23H45.1248ZM51.7957 23V21.5H55.6357L55.9857 21.15V20.33L55.6357 19.98H52.6157L51.5057 18.86V16.74L52.6157 15.63H57.4357V17.13H53.6957L53.3457 17.48V18.13L53.6957 18.48H56.7157L57.8257 19.59V21.89L56.7157 23H51.7957ZM58.9725 23V15.63H64.5725V17.15H60.8425V18.51H64.2025V19.92H60.8425V21.48H64.5725V23H58.9725ZM65.7693 23V15.63H70.7893L71.9093 16.74V19.38L71.0693 20.22L72.1893 23H70.3093L69.3393 20.49H67.6393V23H65.7693ZM67.6393 19.07H69.7393L70.0893 18.72V17.4L69.7393 17.05H67.6393V19.07ZM74.2738 23L72.3838 15.63H74.5238L75.7438 21.59H76.1038L77.3238 15.63H79.4638L77.5738 23H74.2738ZM78.917 23L81.077 15.63H84.117L86.277 23H84.297L83.927 21.53H81.267L80.897 23H78.917ZM81.637 20.09H83.557L82.777 17.04H82.417L81.637 20.09ZM87.6188 23V17.15H85.5588V15.63H91.5488V17.15H89.4888V23H87.6188ZM92.0025 23V21.59H92.8225L92.8025 17.04H92.0025V15.63H95.4025V17.04H94.5925L94.5725 21.59H95.4025V23H92.0025ZM97.4118 23L96.3018 21.89V16.74L97.4118 15.63H101.732L102.842 16.74V21.89L101.732 23H97.4118ZM98.5318 21.58H100.632L100.982 21.23V17.4L100.612 17.05H98.5318L98.1718 17.4V21.23L98.5318 21.58ZM104.041 23V15.63H106.081L108.561 20.05V15.63H110.301V23H108.561L106.141 18.68H105.781V23H104.041Z" fill="white"/>
<path d="M52.1299 11L52.0339 10.9719L51.9964 11.1H52.1299V11ZM54.2899 3.63V3.53H54.215L54.1939 3.60187L54.2899 3.63ZM57.3299 3.63L57.4258 3.60187L57.4048 3.53H57.3299V3.63ZM59.4899 11V11.1H59.6234L59.5858 10.9719L59.4899 11ZM57.5099 11L57.4129 11.0244L57.4319 11.1H57.5099V11ZM57.1399 9.53L57.2369 9.50559L57.2178 9.43H57.1399V9.53ZM54.4799 9.53V9.43H54.4019L54.3829 9.50559L54.4799 9.53ZM54.1099 11V11.1H54.1878L54.2069 11.0244L54.1099 11ZM54.8499 8.09L54.753 8.06522L54.7211 8.19H54.8499V8.09ZM56.7699 8.09V8.19H56.8987L56.8668 8.06522L56.7699 8.09ZM55.9899 5.04L56.0868 5.01522L56.0675 4.94H55.9899V5.04ZM55.6299 5.04V4.94H55.5522L55.533 5.01522L55.6299 5.04ZM52.2258 11.0281L54.3858 3.65812L54.1939 3.60187L52.0339 10.9719L52.2258 11.0281ZM54.2899 3.73H57.3299V3.53H54.2899V3.73ZM57.2339 3.65812L59.3939 11.0281L59.5858 10.9719L57.4258 3.60187L57.2339 3.65812ZM59.4899 10.9H57.5099V11.1H59.4899V10.9ZM57.6069 10.9756L57.2369 9.50559L57.0429 9.55441L57.4129 11.0244L57.6069 10.9756ZM57.1399 9.43H54.4799V9.63H57.1399V9.43ZM54.3829 9.50559L54.0129 10.9756L54.2069 11.0244L54.5769 9.55441L54.3829 9.50559ZM54.1099 10.9H52.1299V11.1H54.1099V10.9ZM54.8499 8.19H56.7699V7.99H54.8499V8.19ZM56.8668 8.06522L56.0868 5.01522L55.893 5.06478L56.673 8.11478L56.8668 8.06522ZM55.9899 4.94H55.6299V5.14H55.9899V4.94ZM55.533 5.01522L54.753 8.06522L54.9468 8.11478L55.7268 5.06478L55.533 5.01522ZM59.8932 11H59.7932V11.1H59.8932V11ZM59.8932 9.59V9.49H59.7932V9.59H59.8932ZM60.7132 9.59V9.69H60.8136L60.8132 9.58956L60.7132 9.59ZM60.6932 5.04L60.7932 5.03956L60.7927 4.94H60.6932V5.04ZM59.8932 5.04H59.7932V5.14H59.8932V5.04ZM59.8932 3.63V3.53H59.7932V3.63H59.8932ZM63.2932 3.63H63.3932V3.53H63.2932V3.63ZM63.2932 5.04V5.14H63.3932V5.04H63.2932ZM62.4832 5.04V4.94H62.3836L62.3832 5.03956L62.4832 5.04ZM62.4632 9.59L62.3632 9.58956L62.3627 9.69H62.4632V9.59ZM63.2932 9.59H63.3932V9.49H63.2932V9.59ZM63.2932 11V11.1H63.3932V11H63.2932ZM59.9932 11V9.59H59.7932V11H59.9932ZM59.8932 9.69H60.7132V9.49H59.8932V9.69ZM60.8132 9.58956L60.7932 5.03956L60.5932 5.04044L60.6132 9.59044L60.8132 9.58956ZM60.6932 4.94H59.8932V5.14H60.6932V4.94ZM59.9932 5.04V3.63H59.7932V5.04H59.9932ZM59.8932 3.73H63.2932V3.53H59.8932V3.73ZM63.1932 3.63V5.04H63.3932V3.63H63.1932ZM63.2932 4.94H62.4832V5.14H63.2932V4.94ZM62.3832 5.03956L62.3632 9.58956L62.5632 9.59044L62.5832 5.04044L62.3832 5.03956ZM62.4632 9.69H63.2932V9.49H62.4632V9.69ZM63.1932 9.59V11H63.3932V9.59H63.1932ZM63.2932 10.9H59.8932V11.1H63.2932V10.9ZM64.3924 11H64.2924V11.1H64.3924V11ZM64.3924 3.63V3.53H64.2924V3.63H64.3924ZM69.4124 3.63L69.4828 3.55897L69.4535 3.53H69.4124V3.63ZM70.5324 4.74H70.6324V4.69832L70.6028 4.66897L70.5324 4.74ZM70.5324 7.38L70.6031 7.45071L70.6324 7.42142V7.38H70.5324ZM69.6924 8.22L69.6217 8.14929L69.5749 8.19604L69.5996 8.25737L69.6924 8.22ZM70.8124 11V11.1H70.9605L70.9051 10.9626L70.8124 11ZM68.9324 11L68.8391 11.036L68.8638 11.1H68.9324V11ZM67.9624 8.49L68.0557 8.45395L68.0309 8.39H67.9624V8.49ZM66.2624 8.49V8.39H66.1624V8.49H66.2624ZM66.2624 11V11.1H66.3624V11H66.2624ZM66.2624 7.07H66.1624V7.17H66.2624V7.07ZM68.3624 7.07V7.17H68.4038L68.4331 7.14071L68.3624 7.07ZM68.7124 6.72L68.7831 6.79071L68.8124 6.76142V6.72H68.7124ZM68.7124 5.4H68.8124V5.35858L68.7831 5.32929L68.7124 5.4ZM68.3624 5.05L68.4331 4.97929L68.4038 4.95H68.3624V5.05ZM66.2624 5.05V4.95H66.1624V5.05H66.2624ZM64.4924 11V3.63H64.2924V11H64.4924ZM64.3924 3.73H69.4124V3.53H64.3924V3.73ZM69.342 3.70103L70.462 4.81103L70.6028 4.66897L69.4828 3.55897L69.342 3.70103ZM70.4324 4.74V7.38H70.6324V4.74H70.4324ZM70.4617 7.30929L69.6217 8.14929L69.7631 8.29071L70.6031 7.45071L70.4617 7.30929ZM69.5996 8.25737L70.7196 11.0374L70.9051 10.9626L69.7851 8.18263L69.5996 8.25737ZM70.8124 10.9H68.9324V11.1H70.8124V10.9ZM69.0257 10.964L68.0557 8.45395L67.8691 8.52605L68.8391 11.036L69.0257 10.964ZM67.9624 8.39H66.2624V8.59H67.9624V8.39ZM66.1624 8.49V11H66.3624V8.49H66.1624ZM66.2624 10.9H64.3924V11.1H66.2624V10.9ZM66.2624 7.17H68.3624V6.97H66.2624V7.17ZM68.4331 7.14071L68.7831 6.79071L68.6417 6.64929L68.2917 6.99929L68.4331 7.14071ZM68.8124 6.72V5.4H68.6124V6.72H68.8124ZM68.7831 5.32929L68.4331 4.97929L68.2917 5.12071L68.6417 5.47071L68.7831 5.32929ZM68.3624 4.95H66.2624V5.15H68.3624V4.95ZM66.1624 5.05V7.07H66.3624V5.05H66.1624ZM71.8143 11H71.7143V11.1H71.8143V11ZM71.8143 3.63V3.53H71.7143V3.63H71.8143ZM73.6843 3.63H73.7843V3.53H73.6843V3.63ZM73.6843 9.48H73.5843V9.58H73.6843V9.48ZM77.0643 9.48H77.1643V9.38H77.0643V9.48ZM77.0643 11V11.1H77.1643V11H77.0643ZM71.9143 11V3.63H71.7143V11H71.9143ZM71.8143 3.73H73.6843V3.53H71.8143V3.73ZM73.5843 3.63V9.48H73.7843V3.63H73.5843ZM73.6843 9.58H77.0643V9.38H73.6843V9.58ZM76.9643 9.48V11H77.1643V9.48H76.9643ZM77.0643 10.9H71.8143V11.1H77.0643V10.9ZM77.6178 11H77.5178V11.1H77.6178V11ZM77.6178 9.59V9.49H77.5178V9.59H77.6178ZM78.4378 9.59V9.69H78.5382L78.5378 9.58956L78.4378 9.59ZM78.4178 5.04L78.5178 5.03956L78.5173 4.94H78.4178V5.04ZM77.6178 5.04H77.5178V5.14H77.6178V5.04ZM77.6178 3.63V3.53H77.5178V3.63H77.6178ZM81.0178 3.63H81.1178V3.53H81.0178V3.63ZM81.0178 5.04V5.14H81.1178V5.04H81.0178ZM80.2078 5.04V4.94H80.1082L80.1078 5.03956L80.2078 5.04ZM80.1878 9.59L80.0878 9.58956L80.0873 9.69H80.1878V9.59ZM81.0178 9.59H81.1178V9.49H81.0178V9.59ZM81.0178 11V11.1H81.1178V11H81.0178ZM77.7178 11V9.59H77.5178V11H77.7178ZM77.6178 9.69H78.4378V9.49H77.6178V9.69ZM78.5378 9.58956L78.5178 5.03956L78.3178 5.04044L78.3378 9.59044L78.5378 9.58956ZM78.4178 4.94H77.6178V5.14H78.4178V4.94ZM77.7178 5.04V3.63H77.5178V5.04H77.7178ZM77.6178 3.73H81.0178V3.53H77.6178V3.73ZM80.9178 3.63V5.04H81.1178V3.63H80.9178ZM81.0178 4.94H80.2078V5.14H81.0178V4.94ZM80.1078 5.03956L80.0878 9.58956L80.2878 9.59044L80.3078 5.04044L80.1078 5.03956ZM80.1878 9.69H81.0178V9.49H80.1878V9.69ZM80.9178 9.59V11H81.1178V9.59H80.9178ZM81.0178 10.9H77.6178V11.1H81.0178V10.9ZM82.117 11H82.017V11.1H82.117V11ZM82.117 3.63V3.53H82.017V3.63H82.117ZM84.157 3.63L84.2442 3.58107L84.2155 3.53H84.157V3.63ZM86.637 8.05L86.5498 8.09893L86.737 8.43259V8.05H86.637ZM86.637 3.63V3.53H86.537V3.63H86.637ZM88.377 3.63H88.477V3.53H88.377V3.63ZM88.377 11V11.1H88.477V11H88.377ZM86.637 11L86.5497 11.0489L86.5784 11.1H86.637V11ZM84.217 6.68L84.3042 6.63113L84.2756 6.58H84.217V6.68ZM83.857 6.68V6.58H83.757V6.68H83.857ZM83.857 11V11.1H83.957V11H83.857ZM82.217 11V3.63H82.017V11H82.217ZM82.117 3.73H84.157V3.53H82.117V3.73ZM84.0698 3.67893L86.5498 8.09893L86.7242 8.00107L84.2442 3.58107L84.0698 3.67893ZM86.737 8.05V3.63H86.537V8.05H86.737ZM86.637 3.73H88.377V3.53H86.637V3.73ZM88.277 3.63V11H88.477V3.63H88.277ZM88.377 10.9H86.637V11.1H88.377V10.9ZM86.7242 10.9511L84.3042 6.63113L84.1297 6.72887L86.5497 11.0489L86.7242 10.9511ZM84.217 6.58H83.857V6.78H84.217V6.58ZM83.757 6.68V11H83.957V6.68H83.757ZM83.857 10.9H82.117V11.1H83.857V10.9ZM89.7732 11H89.6732V11.1H89.7732V11ZM89.7732 3.63V3.53H89.6732V3.63H89.7732ZM95.3732 3.63H95.4732V3.53H95.3732V3.63ZM95.3732 5.15V5.25H95.4732V5.15H95.3732ZM91.6432 5.15V5.05H91.5432V5.15H91.6432ZM91.6432 6.51H91.5432V6.61H91.6432V6.51ZM95.0032 6.51H95.1032V6.41H95.0032V6.51ZM95.0032 7.92V8.02H95.1032V7.92H95.0032ZM91.6432 7.92V7.82H91.5432V7.92H91.6432ZM91.6432 9.48H91.5432V9.58H91.6432V9.48ZM95.3732 9.48H95.4732V9.38H95.3732V9.48ZM95.3732 11V11.1H95.4732V11H95.3732ZM89.8732 11V3.63H89.6732V11H89.8732ZM89.7732 3.73H95.3732V3.53H89.7732V3.73ZM95.2732 3.63V5.15H95.4732V3.63H95.2732ZM95.3732 5.05H91.6432V5.25H95.3732V5.05ZM91.5432 5.15V6.51H91.7432V5.15H91.5432ZM91.6432 6.61H95.0032V6.41H91.6432V6.61ZM94.9032 6.51V7.92H95.1032V6.51H94.9032ZM95.0032 7.82H91.6432V8.02H95.0032V7.82ZM91.5432 7.92V9.48H91.7432V7.92H91.5432ZM91.6432 9.58H95.3732V9.38H91.6432V9.58ZM95.2732 9.48V11H95.4732V9.48H95.2732ZM95.3732 10.9H89.7732V11.1H95.3732V10.9ZM37.7029 23H37.6029V23.1H37.7029V23ZM37.7029 15.63V15.53H37.6029V15.63H37.7029ZM42.7229 15.63L42.7933 15.559L42.7641 15.53H42.7229V15.63ZM43.8429 16.74H43.9429V16.6983L43.9133 16.669L43.8429 16.74ZM43.8429 19.38L43.9136 19.4507L43.9429 19.4214V19.38H43.8429ZM43.0029 20.22L42.9322 20.1493L42.8855 20.196L42.9102 20.2574L43.0029 20.22ZM44.1229 23V23.1H44.271L44.2157 22.9626L44.1229 23ZM42.2429 23L42.1497 23.036L42.1744 23.1H42.2429V23ZM41.2729 20.49L41.3662 20.454L41.3415 20.39H41.2729V20.49ZM39.5729 20.49V20.39H39.4729V20.49H39.5729ZM39.5729 23V23.1H39.6729V23H39.5729ZM39.5729 19.07H39.4729V19.17H39.5729V19.07ZM41.6729 19.07V19.17H41.7144L41.7436 19.1407L41.6729 19.07ZM42.0229 18.72L42.0936 18.7907L42.1229 18.7614V18.72H42.0229ZM42.0229 17.4H42.1229V17.3586L42.0936 17.3293L42.0229 17.4ZM41.6729 17.05L41.7436 16.9793L41.7144 16.95H41.6729V17.05ZM39.5729 17.05V16.95H39.4729V17.05H39.5729ZM37.8029 23V15.63H37.6029V23H37.8029ZM37.7029 15.73H42.7229V15.53H37.7029V15.73ZM42.6525 15.701L43.7725 16.811L43.9133 16.669L42.7933 15.559L42.6525 15.701ZM43.7429 16.74V19.38H43.9429V16.74H43.7429ZM43.7722 19.3093L42.9322 20.1493L43.0736 20.2907L43.9136 19.4507L43.7722 19.3093ZM42.9102 20.2574L44.0302 23.0374L44.2157 22.9626L43.0957 20.1826L42.9102 20.2574ZM44.1229 22.9H42.2429V23.1H44.1229V22.9ZM42.3362 22.964L41.3662 20.454L41.1797 20.526L42.1497 23.036L42.3362 22.964ZM41.2729 20.39H39.5729V20.59H41.2729V20.39ZM39.4729 20.49V23H39.6729V20.49H39.4729ZM39.5729 22.9H37.7029V23.1H39.5729V22.9ZM39.5729 19.17H41.6729V18.97H39.5729V19.17ZM41.7436 19.1407L42.0936 18.7907L41.9522 18.6493L41.6022 18.9993L41.7436 19.1407ZM42.1229 18.72V17.4H41.9229V18.72H42.1229ZM42.0936 17.3293L41.7436 16.9793L41.6022 17.1207L41.9522 17.4707L42.0936 17.3293ZM41.6729 16.95H39.5729V17.15H41.6729V16.95ZM39.4729 17.05V19.07H39.6729V17.05H39.4729ZM45.1248 23H45.0248V23.1H45.1248V23ZM45.1248 15.63V15.53H45.0248V15.63H45.1248ZM50.7248 15.63H50.8248V15.53H50.7248V15.63ZM50.7248 17.15V17.25H50.8248V17.15H50.7248ZM46.9948 17.15V17.05H46.8948V17.15H46.9948ZM46.9948 18.51H46.8948V18.61H46.9948V18.51ZM50.3548 18.51H50.4548V18.41H50.3548V18.51ZM50.3548 19.92V20.02H50.4548V19.92H50.3548ZM46.9948 19.92V19.82H46.8948V19.92H46.9948ZM46.9948 21.48H46.8948V21.58H46.9948V21.48ZM50.7248 21.48H50.8248V21.38H50.7248V21.48ZM50.7248 23V23.1H50.8248V23H50.7248ZM45.2248 23V15.63H45.0248V23H45.2248ZM45.1248 15.73H50.7248V15.53H45.1248V15.73ZM50.6248 15.63V17.15H50.8248V15.63H50.6248ZM50.7248 17.05H46.9948V17.25H50.7248V17.05ZM46.8948 17.15V18.51H47.0948V17.15H46.8948ZM46.9948 18.61H50.3548V18.41H46.9948V18.61ZM50.2548 18.51V19.92H50.4548V18.51H50.2548ZM50.3548 19.82H46.9948V20.02H50.3548V19.82ZM46.8948 19.92V21.48H47.0948V19.92H46.8948ZM46.9948 21.58H50.7248V21.38H46.9948V21.58ZM50.6248 21.48V23H50.8248V21.48H50.6248ZM50.7248 22.9H45.1248V23.1H50.7248V22.9ZM51.7957 23H51.6957V23.1H51.7957V23ZM51.7957 21.5V21.4H51.6957V21.5H51.7957ZM55.6357 21.5V21.6H55.6771L55.7064 21.5707L55.6357 21.5ZM55.9857 21.15L56.0564 21.2207L56.0857 21.1914V21.15H55.9857ZM55.9857 20.33H56.0857V20.2886L56.0564 20.2593L55.9857 20.33ZM55.6357 19.98L55.7064 19.9093L55.6771 19.88H55.6357V19.98ZM52.6157 19.98L52.5446 20.0504L52.574 20.08H52.6157V19.98ZM51.5057 18.86H51.4057V18.9012L51.4346 18.9304L51.5057 18.86ZM51.5057 16.74L51.435 16.6693L51.4057 16.6986V16.74H51.5057ZM52.6157 15.63V15.53H52.5742L52.545 15.5593L52.6157 15.63ZM57.4357 15.63H57.5357V15.53H57.4357V15.63ZM57.4357 17.13V17.23H57.5357V17.13H57.4357ZM53.6957 17.13V17.03H53.6542L53.625 17.0593L53.6957 17.13ZM53.3457 17.48L53.275 17.4093L53.2457 17.4386V17.48H53.3457ZM53.3457 18.13H53.2457V18.1714L53.275 18.2007L53.3457 18.13ZM53.6957 18.48L53.625 18.5507L53.6542 18.58H53.6957V18.48ZM56.7157 18.48L56.7864 18.4093L56.7571 18.38H56.7157V18.48ZM57.8257 19.59H57.9257V19.5486L57.8964 19.5193L57.8257 19.59ZM57.8257 21.89L57.8964 21.9607L57.9257 21.9314V21.89H57.8257ZM56.7157 23V23.1H56.7571L56.7864 23.0707L56.7157 23ZM51.8957 23V21.5H51.6957V23H51.8957ZM51.7957 21.6H55.6357V21.4H51.7957V21.6ZM55.7064 21.5707L56.0564 21.2207L55.915 21.0793L55.565 21.4293L55.7064 21.5707ZM56.0857 21.15V20.33H55.8857V21.15H56.0857ZM56.0564 20.2593L55.7064 19.9093L55.565 20.0507L55.915 20.4007L56.0564 20.2593ZM55.6357 19.88H52.6157V20.08H55.6357V19.88ZM52.6867 19.9096L51.5767 18.7896L51.4346 18.9304L52.5446 20.0504L52.6867 19.9096ZM51.6057 18.86V16.74H51.4057V18.86H51.6057ZM51.5764 16.8107L52.6864 15.7007L52.545 15.5593L51.435 16.6693L51.5764 16.8107ZM52.6157 15.73H57.4357V15.53H52.6157V15.73ZM57.3357 15.63V17.13H57.5357V15.63H57.3357ZM57.4357 17.03H53.6957V17.23H57.4357V17.03ZM53.625 17.0593L53.275 17.4093L53.4164 17.5507L53.7664 17.2007L53.625 17.0593ZM53.2457 17.48V18.13H53.4457V17.48H53.2457ZM53.275 18.2007L53.625 18.5507L53.7664 18.4093L53.4164 18.0593L53.275 18.2007ZM53.6957 18.58H56.7157V18.38H53.6957V18.58ZM56.645 18.5507L57.755 19.6607L57.8964 19.5193L56.7864 18.4093L56.645 18.5507ZM57.7257 19.59V21.89H57.9257V19.59H57.7257ZM57.755 21.8193L56.645 22.9293L56.7864 23.0707L57.8964 21.9607L57.755 21.8193ZM56.7157 22.9H51.7957V23.1H56.7157V22.9ZM58.9725 23H58.8725V23.1H58.9725V23ZM58.9725 15.63V15.53H58.8725V15.63H58.9725ZM64.5725 15.63H64.6725V15.53H64.5725V15.63ZM64.5725 17.15V17.25H64.6725V17.15H64.5725ZM60.8425 17.15V17.05H60.7425V17.15H60.8425ZM60.8425 18.51H60.7425V18.61H60.8425V18.51ZM64.2025 18.51H64.3025V18.41H64.2025V18.51ZM64.2025 19.92V20.02H64.3025V19.92H64.2025ZM60.8425 19.92V19.82H60.7425V19.92H60.8425ZM60.8425 21.48H60.7425V21.58H60.8425V21.48ZM64.5725 21.48H64.6725V21.38H64.5725V21.48ZM64.5725 23V23.1H64.6725V23H64.5725ZM59.0725 23V15.63H58.8725V23H59.0725ZM58.9725 15.73H64.5725V15.53H58.9725V15.73ZM64.4725 15.63V17.15H64.6725V15.63H64.4725ZM64.5725 17.05H60.8425V17.25H64.5725V17.05ZM60.7425 17.15V18.51H60.9425V17.15H60.7425ZM60.8425 18.61H64.2025V18.41H60.8425V18.61ZM64.1025 18.51V19.92H64.3025V18.51H64.1025ZM64.2025 19.82H60.8425V20.02H64.2025V19.82ZM60.7425 19.92V21.48H60.9425V19.92H60.7425ZM60.8425 21.58H64.5725V21.38H60.8425V21.58ZM64.4725 21.48V23H64.6725V21.48H64.4725ZM64.5725 22.9H58.9725V23.1H64.5725V22.9ZM65.7693 23H65.6693V23.1H65.7693V23ZM65.7693 15.63V15.53H65.6693V15.63H65.7693ZM70.7893 15.63L70.8597 15.559L70.8305 15.53H70.7893V15.63ZM71.9093 16.74H72.0093V16.6983L71.9797 16.669L71.9093 16.74ZM71.9093 19.38L71.98 19.4507L72.0093 19.4214V19.38H71.9093ZM71.0693 20.22L70.9986 20.1493L70.9519 20.196L70.9766 20.2574L71.0693 20.22ZM72.1893 23V23.1H72.3374L72.2821 22.9626L72.1893 23ZM70.3093 23L70.2161 23.036L70.2408 23.1H70.3093V23ZM69.3393 20.49L69.4326 20.454L69.4079 20.39H69.3393V20.49ZM67.6393 20.49V20.39H67.5393V20.49H67.6393ZM67.6393 23V23.1H67.7393V23H67.6393ZM67.6393 19.07H67.5393V19.17H67.6393V19.07ZM69.7393 19.07V19.17H69.7808L69.81 19.1407L69.7393 19.07ZM70.0893 18.72L70.16 18.7907L70.1893 18.7614V18.72H70.0893ZM70.0893 17.4H70.1893V17.3586L70.16 17.3293L70.0893 17.4ZM69.7393 17.05L69.81 16.9793L69.7808 16.95H69.7393V17.05ZM67.6393 17.05V16.95H67.5393V17.05H67.6393ZM65.8693 23V15.63H65.6693V23H65.8693ZM65.7693 15.73H70.7893V15.53H65.7693V15.73ZM70.7189 15.701L71.8389 16.811L71.9797 16.669L70.8597 15.559L70.7189 15.701ZM71.8093 16.74V19.38H72.0093V16.74H71.8093ZM71.8386 19.3093L70.9986 20.1493L71.14 20.2907L71.98 19.4507L71.8386 19.3093ZM70.9766 20.2574L72.0966 23.0374L72.2821 22.9626L71.1621 20.1826L70.9766 20.2574ZM72.1893 22.9H70.3093V23.1H72.1893V22.9ZM70.4026 22.964L69.4326 20.454L69.2461 20.526L70.2161 23.036L70.4026 22.964ZM69.3393 20.39H67.6393V20.59H69.3393V20.39ZM67.5393 20.49V23H67.7393V20.49H67.5393ZM67.6393 22.9H65.7693V23.1H67.6393V22.9ZM67.6393 19.17H69.7393V18.97H67.6393V19.17ZM69.81 19.1407L70.16 18.7907L70.0186 18.6493L69.6686 18.9993L69.81 19.1407ZM70.1893 18.72V17.4H69.9893V18.72H70.1893ZM70.16 17.3293L69.81 16.9793L69.6686 17.1207L70.0186 17.4707L70.16 17.3293ZM69.7393 16.95H67.6393V17.15H69.7393V16.95ZM67.5393 17.05V19.07H67.7393V17.05H67.5393ZM74.2738 23L74.1769 23.0248L74.1962 23.1H74.2738V23ZM72.3838 15.63V15.53H72.2549L72.2869 15.6548L72.3838 15.63ZM74.5238 15.63L74.6218 15.6099L74.6054 15.53H74.5238V15.63ZM75.7438 21.59L75.6458 21.6101L75.6622 21.69H75.7438V21.59ZM76.1038 21.59V21.69H76.1854L76.2018 21.6101L76.1038 21.59ZM77.3238 15.63V15.53H77.2422L77.2258 15.6099L77.3238 15.63ZM79.4638 15.63L79.5607 15.6548L79.5927 15.53H79.4638V15.63ZM77.5738 23V23.1H77.6514L77.6707 23.0248L77.5738 23ZM74.3707 22.9752L72.4807 15.6052L72.2869 15.6548L74.1769 23.0248L74.3707 22.9752ZM72.3838 15.73H74.5238V15.53H72.3838V15.73ZM74.4258 15.6501L75.6458 21.6101L75.8418 21.5699L74.6218 15.6099L74.4258 15.6501ZM75.7438 21.69H76.1038V21.49H75.7438V21.69ZM76.2018 21.6101L77.4218 15.6501L77.2258 15.6099L76.0058 21.5699L76.2018 21.6101ZM77.3238 15.73H79.4638V15.53H77.3238V15.73ZM79.3669 15.6052L77.4769 22.9752L77.6707 23.0248L79.5607 15.6548L79.3669 15.6052ZM77.5738 22.9H74.2738V23.1H77.5738V22.9ZM78.917 23L78.821 22.9719L78.7835 23.1H78.917V23ZM81.077 15.63V15.53H81.0021L80.981 15.6019L81.077 15.63ZM84.117 15.63L84.213 15.6019L84.1919 15.53H84.117V15.63ZM86.277 23V23.1H86.4105L86.373 22.9719L86.277 23ZM84.297 23L84.2 23.0244L84.219 23.1H84.297V23ZM83.927 21.53L84.024 21.5056L84.0049 21.43H83.927V21.53ZM81.267 21.53V21.43H81.189L81.17 21.5056L81.267 21.53ZM80.897 23V23.1H80.9749L80.994 23.0244L80.897 23ZM81.637 20.09L81.5401 20.0652L81.5082 20.19H81.637V20.09ZM83.557 20.09V20.19H83.6858L83.6539 20.0652L83.557 20.09ZM82.777 17.04L82.8739 17.0152L82.8546 16.94H82.777V17.04ZM82.417 17.04V16.94H82.3393L82.3201 17.0152L82.417 17.04ZM79.013 23.0281L81.173 15.6581L80.981 15.6019L78.821 22.9719L79.013 23.0281ZM81.077 15.73H84.117V15.53H81.077V15.73ZM84.021 15.6581L86.181 23.0281L86.373 22.9719L84.213 15.6019L84.021 15.6581ZM86.277 22.9H84.297V23.1H86.277V22.9ZM84.394 22.9756L84.024 21.5056L83.83 21.5544L84.2 23.0244L84.394 22.9756ZM83.927 21.43H81.267V21.63H83.927V21.43ZM81.17 21.5056L80.8 22.9756L80.994 23.0244L81.364 21.5544L81.17 21.5056ZM80.897 22.9H78.917V23.1H80.897V22.9ZM81.637 20.19H83.557V19.99H81.637V20.19ZM83.6539 20.0652L82.8739 17.0152L82.6801 17.0648L83.4601 20.1148L83.6539 20.0652ZM82.777 16.94H82.417V17.14H82.777V16.94ZM82.3201 17.0152L81.5401 20.0652L81.7339 20.1148L82.5139 17.0648L82.3201 17.0152ZM87.6188 23H87.5188V23.1H87.6188V23ZM87.6188 17.15H87.7188V17.05H87.6188V17.15ZM85.5588 17.15H85.4588V17.25H85.5588V17.15ZM85.5588 15.63V15.53H85.4588V15.63H85.5588ZM91.5488 15.63H91.6488V15.53H91.5488V15.63ZM91.5488 17.15V17.25H91.6488V17.15H91.5488ZM89.4888 17.15V17.05H89.3888V17.15H89.4888ZM89.4888 23V23.1H89.5888V23H89.4888ZM87.7188 23V17.15H87.5188V23H87.7188ZM87.6188 17.05H85.5588V17.25H87.6188V17.05ZM85.6588 17.15V15.63H85.4588V17.15H85.6588ZM85.5588 15.73H91.5488V15.53H85.5588V15.73ZM91.4488 15.63V17.15H91.6488V15.63H91.4488ZM91.5488 17.05H89.4888V17.25H91.5488V17.05ZM89.3888 17.15V23H89.5888V17.15H89.3888ZM89.4888 22.9H87.6188V23.1H89.4888V22.9ZM92.0025 23H91.9025V23.1H92.0025V23ZM92.0025 21.59V21.49H91.9025V21.59H92.0025ZM92.8225 21.59V21.69H92.923L92.9225 21.5896L92.8225 21.59ZM92.8025 17.04L92.9025 17.0396L92.9021 16.94H92.8025V17.04ZM92.0025 17.04H91.9025V17.14H92.0025V17.04ZM92.0025 15.63V15.53H91.9025V15.63H92.0025ZM95.4025 15.63H95.5025V15.53H95.4025V15.63ZM95.4025 17.04V17.14H95.5025V17.04H95.4025ZM94.5925 17.04V16.94H94.493L94.4925 17.0396L94.5925 17.04ZM94.5725 21.59L94.4725 21.5896L94.4721 21.69H94.5725V21.59ZM95.4025 21.59H95.5025V21.49H95.4025V21.59ZM95.4025 23V23.1H95.5025V23H95.4025ZM92.1025 23V21.59H91.9025V23H92.1025ZM92.0025 21.69H92.8225V21.49H92.0025V21.69ZM92.9225 21.5896L92.9025 17.0396L92.7025 17.0404L92.7225 21.5904L92.9225 21.5896ZM92.8025 16.94H92.0025V17.14H92.8025V16.94ZM92.1025 17.04V15.63H91.9025V17.04H92.1025ZM92.0025 15.73H95.4025V15.53H92.0025V15.73ZM95.3025 15.63V17.04H95.5025V15.63H95.3025ZM95.4025 16.94H94.5925V17.14H95.4025V16.94ZM94.4925 17.0396L94.4725 21.5896L94.6725 21.5904L94.6925 17.0404L94.4925 17.0396ZM94.5725 21.69H95.4025V21.49H94.5725V21.69ZM95.3025 21.59V23H95.5025V21.59H95.3025ZM95.4025 22.9H92.0025V23.1H95.4025V22.9ZM97.4118 23L97.341 23.0707L97.3703 23.1H97.4118V23ZM96.3018 21.89H96.2018V21.9314L96.231 21.9607L96.3018 21.89ZM96.3018 16.74L96.231 16.6693L96.2018 16.6986V16.74H96.3018ZM97.4118 15.63V15.53H97.3703L97.341 15.5593L97.4118 15.63ZM101.732 15.63L101.802 15.5593L101.773 15.53H101.732V15.63ZM102.842 16.74H102.942V16.6986L102.912 16.6693L102.842 16.74ZM102.842 21.89L102.912 21.9607L102.942 21.9314V21.89H102.842ZM101.732 23V23.1H101.773L101.802 23.0707L101.732 23ZM98.5318 21.58L98.462 21.6517L98.4912 21.68H98.5318V21.58ZM100.632 21.58V21.68H100.673L100.702 21.6507L100.632 21.58ZM100.982 21.23L101.052 21.3007L101.082 21.2714V21.23H100.982ZM100.982 17.4H101.082V17.3569L101.05 17.3274L100.982 17.4ZM100.612 17.05L100.68 16.9774L100.652 16.95H100.612V17.05ZM98.5318 17.05V16.95H98.4912L98.462 16.9783L98.5318 17.05ZM98.1718 17.4L98.1021 17.3283L98.0718 17.3578V17.4H98.1718ZM98.1718 21.23H98.0718V21.2722L98.1021 21.3017L98.1718 21.23ZM97.4825 22.9293L96.3725 21.8193L96.231 21.9607L97.341 23.0707L97.4825 22.9293ZM96.4018 21.89V16.74H96.2018V21.89H96.4018ZM96.3725 16.8107L97.4825 15.7007L97.341 15.5593L96.231 16.6693L96.3725 16.8107ZM97.4118 15.73H101.732V15.53H97.4118V15.73ZM101.661 15.7007L102.771 16.8107L102.912 16.6693L101.802 15.5593L101.661 15.7007ZM102.742 16.74V21.89H102.942V16.74H102.742ZM102.771 21.8193L101.661 22.9293L101.802 23.0707L102.912 21.9607L102.771 21.8193ZM101.732 22.9H97.4118V23.1H101.732V22.9ZM98.5318 21.68H100.632V21.48H98.5318V21.68ZM100.702 21.6507L101.052 21.3007L100.911 21.1593L100.561 21.5093L100.702 21.6507ZM101.082 21.23V17.4H100.882V21.23H101.082ZM101.05 17.3274L100.68 16.9774L100.543 17.1226L100.913 17.4726L101.05 17.3274ZM100.612 16.95H98.5318V17.15H100.612V16.95ZM98.462 16.9783L98.1021 17.3283L98.2415 17.4717L98.6015 17.1217L98.462 16.9783ZM98.0718 17.4V21.23H98.2718V17.4H98.0718ZM98.1021 21.3017L98.462 21.6517L98.6015 21.5083L98.2415 21.1583L98.1021 21.3017ZM104.041 23H103.941V23.1H104.041V23ZM104.041 15.63V15.53H103.941V15.63H104.041ZM106.081 15.63L106.168 15.5811L106.139 15.53H106.081V15.63ZM108.561 20.05L108.474 20.0989L108.661 20.4326V20.05H108.561ZM108.561 15.63V15.53H108.461V15.63H108.561ZM110.301 15.63H110.401V15.53H110.301V15.63ZM110.301 23V23.1H110.401V23H110.301ZM108.561 23L108.474 23.0489L108.502 23.1H108.561V23ZM106.141 18.68L106.228 18.6311L106.199 18.58H106.141V18.68ZM105.781 18.68V18.58H105.681V18.68H105.781ZM105.781 23V23.1H105.881V23H105.781ZM104.141 23V15.63H103.941V23H104.141ZM104.041 15.73H106.081V15.53H104.041V15.73ZM105.994 15.6789L108.474 20.0989L108.648 20.0011L106.168 15.5811L105.994 15.6789ZM108.661 20.05V15.63H108.461V20.05H108.661ZM108.561 15.73H110.301V15.53H108.561V15.73ZM110.201 15.63V23H110.401V15.63H110.201ZM110.301 22.9H108.561V23.1H110.301V22.9ZM108.648 22.9511L106.228 18.6311L106.054 18.7289L108.474 23.0489L108.648 22.9511ZM106.141 18.58H105.781V18.78H106.141V18.58ZM105.681 18.68V23H105.881V18.68H105.681ZM105.781 22.9H104.041V23.1H105.781V22.9Z" fill="black"/>
</svg>
