<svg width="149" height="151" viewBox="0 0 149 151" fill="none" xmlns="http://www.w3.org/2000/svg">
<path d="M7.89752 11.167H141.102C145.464 11.167 149 14.7734 149 19.222V142.945C149 147.394 145.464 151 141.102 151H7.89752C3.53584 151 0 147.394 0 142.945V19.222C0 14.7734 3.53584 11.167 7.89752 11.167Z" fill="#8F61D8"/>
<mask id="mask0_281_1409" style="mask-type:alpha" maskUnits="userSpaceOnUse" x="0" y="11" width="149" height="140">
<path d="M7.89752 11.167H141.102C145.464 11.167 149 14.7734 149 19.222V142.945C149 147.394 145.464 151 141.102 151H7.89752C3.53584 151 0 147.394 0 142.945V19.222C0 14.7734 3.53584 11.167 7.89752 11.167Z" fill="#8F61D8"/>
</mask>
<g mask="url(#mask0_281_1409)">
<g opacity="0.25">
<path opacity="0.3" d="M-51.8259 120.428L74.4922 81.0854L-51.8259 128.76V120.428Z" fill="white"/>
<path opacity="0.3" d="M74.4961 81.0854L59.371 230.633H41.9528L74.4923 81.0854H74.4961Z" fill="white"/>
<path opacity="0.3" d="M25.7481 230.633H10.5694L74.4922 81.0894L25.7481 230.633Z" fill="white"/>
<path opacity="0.3" d="M74.4962 81.0854L87.8105 230.633H74.4962V81.0854Z" fill="white"/>
<path opacity="0.3" d="M121.66 230.633H107.557L74.4971 81.0894L121.66 230.633Z" fill="white"/>
<path opacity="0.3" d="M74.4922 81.0854L-51.8259 167.782V157.759L74.4922 81.0854Z" fill="white"/>
<path opacity="0.3" d="M-8.14647 230.633H-26.5255L74.4922 81.0894L-8.14647 230.633Z" fill="white"/>
<path opacity="0.3" d="M-51.8259 196.578V180.327L74.4922 81.0894L-51.8259 196.578Z" fill="white"/>
<path opacity="0.3" d="M74.4922 81.0854L-50.2142 230.633H-51.8259V213.758L74.4922 81.0894V81.0854Z" fill="white"/>
<path opacity="0.3" d="M74.4922 81.0854L-51.8259 147.209V138.384L74.4922 81.0854Z" fill="white"/>
<path opacity="0.3" d="M200.814 120.478V131.38L74.5002 81.0854L200.814 120.478Z" fill="white"/>
<path opacity="0.3" d="M156.533 230.633H140.516L74.4956 81.0854L156.533 230.633Z" fill="white"/>
<path opacity="0.3" d="M74.4964 81.0854L200.814 191.295V206.593L74.4964 81.0854Z" fill="white"/>
<path opacity="0.3" d="M74.4926 81.0854L200.814 230.633H174.844L74.4926 81.0854Z" fill="white"/>
<path opacity="0.3" d="M74.4964 81.0854L200.814 141.832V151.332L74.4964 81.0854Z" fill="white"/>
<path opacity="0.3" d="M200.814 165.486V176.989L74.5002 81.0894L200.814 165.486Z" fill="white"/>
<path opacity="0.3" d="M74.492 81.109L89.6171 10.2417H107.039L74.4958 81.109H74.492Z" fill="white"/>
<path opacity="0.3" d="M123.241 10.2417H138.424L74.4972 81.109L123.241 10.2417Z" fill="white"/>
<path opacity="0.3" d="M74.4922 81.109L61.1778 10.2417H74.4922V81.109Z" fill="white"/>
<path opacity="0.3" d="M27.333 10.2417H41.4359L74.4922 81.1051L27.333 10.2417Z" fill="white"/>
<path opacity="0.3" d="M74.4964 81.1088L200.814 73.0928V86.2354L74.4964 81.1088Z" fill="white"/>
<path opacity="0.3" d="M157.135 10.2417H175.518L74.496 81.109L157.135 10.2417Z" fill="white"/>
<path opacity="0.3" d="M200.814 44.3008V60.5475L74.5002 81.1088L200.814 44.3008Z" fill="white"/>
<path opacity="0.3" d="M74.4964 81.109L199.203 10.2417H200.814V27.1171L74.4964 81.109Z" fill="white"/>
<path opacity="0.3" d="M74.4964 81.1089L200.814 99.5461V110.877L74.4964 81.1089Z" fill="white"/>
<path opacity="0.3" d="M-7.54164 10.2417H8.47542L74.4922 81.109L-7.54164 10.2417Z" fill="white"/>
<path opacity="0.3" d="M74.4922 81.1088L-51.8259 49.5797V34.2817L74.4922 81.1088Z" fill="white"/>
<path opacity="0.3" d="M74.4922 81.0855L-51.8259 10.2183H-25.8594L74.4922 81.0855Z" fill="white"/>
<path opacity="0.3" d="M74.4922 81.1089L-51.8259 107.429V95.4229L74.4922 81.1089Z" fill="white"/>
<path opacity="0.3" d="M-51.826 78.5087V63.8862L74.4883 81.1091L-51.826 78.5087Z" fill="white"/>
</g>
</g>
<path d="M14.2516 17.1333H134.747C139.109 17.1333 142.645 20.7397 142.645 25.1884V136.987C142.645 141.436 139.109 145.042 134.747 145.042H14.2516C9.88989 145.042 6.35408 141.436 6.35408 136.987V25.1884C6.35408 20.7397 9.88989 17.1333 14.2516 17.1333Z" stroke="white" stroke-width="3" stroke-linejoin="round"/>
<path d="M22.3686 17.4571L14.2337 27.113C14.1851 27.1654 14.1516 27.2305 14.137 27.3011C14.1224 27.3717 14.1272 27.445 14.151 27.513C14.1748 27.5809 14.2166 27.6408 14.2718 27.686C14.3269 27.7312 14.3932 27.7599 14.4634 27.769H39.9973C40.0436 27.7651 40.0887 27.7518 40.13 27.7301C40.1713 27.7083 40.2079 27.6784 40.2378 27.6421C40.2677 27.6058 40.2902 27.5638 40.3042 27.5186C40.3181 27.4734 40.3231 27.4258 40.3189 27.3786V7.0008C40.3231 6.9536 40.3181 6.90601 40.3042 6.86078C40.2902 6.81556 40.2677 6.77359 40.2378 6.73729C40.2079 6.70099 40.1713 6.67109 40.13 6.6493C40.0887 6.62752 40.0436 6.61428 39.9973 6.61035H14.4672C14.3971 6.61943 14.3307 6.64816 14.2756 6.69335C14.2205 6.73854 14.1787 6.79843 14.1549 6.86638C14.1311 6.93432 14.1262 7.00767 14.1408 7.07826C14.1554 7.14886 14.1889 7.21395 14.2376 7.26631L22.3686 16.9144C22.4298 16.9911 22.4633 17.0869 22.4633 17.1858C22.4633 17.2847 22.4298 17.3805 22.3686 17.4571Z" fill="#6148AF"/>
<path d="M126.637 17.4571L134.768 27.1052C134.816 27.1574 134.85 27.2221 134.865 27.2924C134.879 27.3627 134.875 27.4358 134.851 27.5037C134.828 27.5715 134.787 27.6315 134.732 27.6769C134.678 27.7224 134.612 27.7515 134.542 27.7612H109.012C108.965 27.7578 108.92 27.7449 108.878 27.7233C108.836 27.7017 108.799 27.6719 108.769 27.6356C108.738 27.5992 108.716 27.5571 108.701 27.5116C108.687 27.4662 108.682 27.4183 108.686 27.3708V7.0008C108.682 6.95329 108.687 6.9054 108.701 6.85994C108.716 6.81447 108.738 6.77234 108.769 6.73599C108.799 6.69964 108.836 6.66981 108.878 6.64824C108.92 6.62667 108.965 6.61379 109.012 6.61035H134.542C134.829 6.61035 134.971 7.02423 134.768 7.26631L126.637 16.9144C126.575 16.9911 126.542 17.0869 126.542 17.1858C126.542 17.2847 126.575 17.3805 126.637 17.4571V17.4571Z" fill="#6148AF"/>
<path d="M31.5204 0H117.482C118.156 0 118.703 0.557651 118.703 1.24555V24.7626C118.703 25.4505 118.156 26.0081 117.482 26.0081H31.5204C30.846 26.0081 30.2992 25.4505 30.2992 24.7626V1.24555C30.2992 0.557651 30.846 0 31.5204 0Z" fill="#6752C1"/>
<path d="M38.9756 9.59434C39.049 9.59434 39.1123 9.621 39.1656 9.67434C39.219 9.72767 39.2456 9.791 39.2456 9.86434V10.9243C39.2456 10.9977 39.219 11.061 39.1656 11.1143C39.1123 11.1677 39.049 11.1943 38.9756 11.1943H34.2356C34.1623 11.1943 34.099 11.1677 34.0456 11.1143C33.9923 11.061 33.9656 10.9977 33.9656 10.9243V4.46434C33.9656 4.391 33.9923 4.32767 34.0456 4.27434C34.099 4.221 34.1623 4.19434 34.2356 4.19434H38.8956C38.969 4.19434 39.0323 4.221 39.0856 4.27434C39.139 4.32767 39.1656 4.391 39.1656 4.46434V5.52434C39.1656 5.59767 39.139 5.661 39.0856 5.71434C39.0323 5.76767 38.969 5.79434 38.8956 5.79434H35.8156V6.87434H38.6756C38.749 6.87434 38.8123 6.901 38.8656 6.95434C38.919 7.00767 38.9456 7.071 38.9456 7.14434V8.20434C38.9456 8.27767 38.919 8.341 38.8656 8.39434C38.8123 8.44767 38.749 8.47434 38.6756 8.47434H35.8156V9.59434H38.9756ZM43.2314 9.16434L41.9514 10.9643C41.9114 11.0243 41.8647 11.0777 41.8114 11.1243C41.7647 11.171 41.6747 11.1943 41.5414 11.1943H40.0214C39.9614 11.1943 39.9081 11.1743 39.8614 11.1343C39.8214 11.0877 39.8014 11.0343 39.8014 10.9743C39.8014 10.961 39.8014 10.9477 39.8014 10.9343C39.8081 10.9143 39.8181 10.891 39.8314 10.8643L42.1414 7.63434L39.9314 4.52434C39.9114 4.48434 39.9014 4.44767 39.9014 4.41434C39.9014 4.35434 39.9214 4.30434 39.9614 4.26434C40.0081 4.21767 40.0614 4.19434 40.1214 4.19434H41.6314C41.7647 4.19434 41.8614 4.22767 41.9214 4.29434C41.9814 4.361 42.0247 4.411 42.0514 4.44434L43.2614 6.13434L44.4314 4.44434C44.4581 4.411 44.5014 4.361 44.5614 4.29434C44.6214 4.22767 44.7181 4.19434 44.8514 4.19434H46.3814C46.4414 4.19434 46.4914 4.21767 46.5314 4.26434C46.5781 4.30434 46.6014 4.35434 46.6014 4.41434C46.6014 4.44767 46.5914 4.48434 46.5714 4.52434L44.3514 7.67434L46.6414 10.8643C46.6547 10.891 46.6614 10.9143 46.6614 10.9343C46.6681 10.9477 46.6714 10.961 46.6714 10.9743C46.6714 11.0343 46.6481 11.0877 46.6014 11.1343C46.5614 11.1743 46.5114 11.1943 46.4514 11.1943H44.9314C44.7981 11.1943 44.7047 11.171 44.6514 11.1243C44.6047 11.0777 44.5614 11.0243 44.5214 10.9643L43.2314 9.16434ZM46.9095 6.80434C46.9295 6.431 47.0095 6.081 47.1495 5.75434C47.2961 5.421 47.4995 5.13434 47.7595 4.89434C48.0261 4.64767 48.3461 4.45434 48.7195 4.31434C49.0995 4.16767 49.5361 4.09434 50.0295 4.09434C50.5161 4.09434 50.9495 4.16767 51.3295 4.31434C51.7095 4.45434 52.0295 4.64767 52.2895 4.89434C52.5561 5.13434 52.7595 5.421 52.8995 5.75434C53.0461 6.081 53.1295 6.431 53.1495 6.80434C53.1628 7.091 53.1695 7.391 53.1695 7.70434C53.1695 8.01767 53.1628 8.311 53.1495 8.58434C53.1295 8.95767 53.0461 9.311 52.8995 9.64434C52.7595 9.971 52.5561 10.2577 52.2895 10.5043C52.0295 10.751 51.7095 10.9443 51.3295 11.0843C50.9495 11.2243 50.5161 11.2943 50.0295 11.2943C49.5361 11.2943 49.0995 11.2243 48.7195 11.0843C48.3461 10.9443 48.0261 10.751 47.7595 10.5043C47.4995 10.2577 47.2961 9.971 47.1495 9.64434C47.0095 9.311 46.9295 8.95767 46.9095 8.58434C46.8961 8.311 46.8895 8.01767 46.8895 7.70434C46.8895 7.391 46.8961 7.091 46.9095 6.80434ZM51.2995 8.53434C51.3061 8.41434 51.3128 8.281 51.3195 8.13434C51.3261 7.98767 51.3295 7.83767 51.3295 7.68434C51.3295 7.531 51.3261 7.38434 51.3195 7.24434C51.3128 7.09767 51.3061 6.96767 51.2995 6.85434C51.2861 6.68767 51.2495 6.53434 51.1895 6.39434C51.1361 6.25434 51.0561 6.13434 50.9495 6.03434C50.8495 5.92767 50.7228 5.84434 50.5695 5.78434C50.4161 5.72434 50.2361 5.69434 50.0295 5.69434C49.8228 5.69434 49.6428 5.72434 49.4895 5.78434C49.3361 5.84434 49.2061 5.92767 49.0995 6.03434C48.9995 6.13434 48.9195 6.25434 48.8595 6.39434C48.8061 6.53434 48.7728 6.68767 48.7595 6.85434C48.7461 6.96767 48.7361 7.09767 48.7295 7.24434C48.7295 7.38434 48.7295 7.531 48.7295 7.68434C48.7295 7.83767 48.7295 7.98767 48.7295 8.13434C48.7361 8.281 48.7461 8.41434 48.7595 8.53434C48.7861 8.86767 48.8995 9.14434 49.0995 9.36434C49.3061 9.58434 49.6161 9.69434 50.0295 9.69434C50.4428 9.69434 50.7495 9.58434 50.9495 9.36434C51.1495 9.14434 51.2661 8.86767 51.2995 8.53434ZM59.34 4.19434C59.4133 4.19434 59.4767 4.221 59.53 4.27434C59.5833 4.32767 59.61 4.391 59.61 4.46434V5.52434C59.61 5.59767 59.5833 5.661 59.53 5.71434C59.4767 5.76767 59.4133 5.79434 59.34 5.79434H57.58V10.9243C57.58 10.9977 57.5533 11.061 57.5 11.1143C57.4467 11.1677 57.3833 11.1943 57.31 11.1943H56C55.9267 11.1943 55.8633 11.1677 55.81 11.1143C55.7567 11.061 55.73 10.9977 55.73 10.9243V5.79434H53.97C53.8967 5.79434 53.8333 5.76767 53.78 5.71434C53.7267 5.661 53.7 5.59767 53.7 5.52434V4.46434C53.7 4.391 53.7267 4.32767 53.78 4.27434C53.8333 4.221 53.8967 4.19434 53.97 4.19434H59.34ZM60.7786 11.1943C60.7053 11.1943 60.6419 11.1677 60.5886 11.1143C60.5353 11.061 60.5086 10.9977 60.5086 10.9243V4.46434C60.5086 4.391 60.5353 4.32767 60.5886 4.27434C60.6419 4.221 60.7053 4.19434 60.7786 4.19434H62.0886C62.1619 4.19434 62.2253 4.221 62.2786 4.27434C62.3319 4.32767 62.3586 4.391 62.3586 4.46434V10.9243C62.3586 10.9977 62.3319 11.061 62.2786 11.1143C62.2253 11.1677 62.1619 11.1943 62.0886 11.1943H60.7786ZM65.3705 6.85434C65.3639 6.941 65.3572 7.061 65.3505 7.21434C65.3505 7.36767 65.3505 7.52767 65.3505 7.69434C65.3505 7.85434 65.3505 8.01434 65.3505 8.17434C65.3572 8.32767 65.3639 8.44767 65.3705 8.53434C65.3839 8.68767 65.4139 8.83434 65.4605 8.97434C65.5072 9.11434 65.5805 9.23767 65.6805 9.34434C65.7805 9.451 65.9072 9.53767 66.0605 9.60434C66.2139 9.66434 66.4039 9.69434 66.6305 9.69434C66.8572 9.69434 67.0439 9.66767 67.1905 9.61434C67.3372 9.561 67.4572 9.49767 67.5505 9.42434C67.6439 9.34434 67.7139 9.25767 67.7605 9.16434C67.8139 9.071 67.8539 8.98434 67.8805 8.90434C67.9139 8.79767 67.9505 8.72434 67.9905 8.68434C68.0305 8.63767 68.1072 8.61434 68.2205 8.61434H69.5305C69.5905 8.61434 69.6405 8.63767 69.6805 8.68434C69.7272 8.72434 69.7505 8.77434 69.7505 8.83434C69.7439 9.17434 69.6605 9.49434 69.5005 9.79434C69.3405 10.0943 69.1205 10.3543 68.8405 10.5743C68.5605 10.7943 68.2305 10.971 67.8505 11.1043C67.4772 11.231 67.0705 11.2943 66.6305 11.2943C66.1505 11.2943 65.7205 11.2243 65.3405 11.0843C64.9672 10.9377 64.6472 10.741 64.3805 10.4943C64.1139 10.2477 63.9072 9.961 63.7605 9.63434C63.6205 9.301 63.5405 8.951 63.5205 8.58434C63.5072 8.311 63.5005 8.01767 63.5005 7.70434C63.5005 7.391 63.5072 7.091 63.5205 6.80434C63.5339 6.43767 63.6139 6.091 63.7605 5.76434C63.9072 5.431 64.1105 5.141 64.3705 4.89434C64.6372 4.64767 64.9605 4.45434 65.3405 4.31434C65.7205 4.16767 66.1505 4.09434 66.6305 4.09434C67.0705 4.09434 67.4772 4.161 67.8505 4.29434C68.2305 4.421 68.5605 4.59434 68.8405 4.81434C69.1205 5.03434 69.3405 5.29434 69.5005 5.59434C69.6605 5.89434 69.7439 6.21434 69.7505 6.55434C69.7505 6.61434 69.7272 6.66767 69.6805 6.71434C69.6405 6.75434 69.5905 6.77434 69.5305 6.77434H68.2205C68.1072 6.77434 68.0305 6.75434 67.9905 6.71434C67.9505 6.66767 67.9139 6.591 67.8805 6.48434C67.8539 6.40434 67.8139 6.31767 67.7605 6.22434C67.7139 6.131 67.6439 6.04767 67.5505 5.97434C67.4572 5.89434 67.3372 5.82767 67.1905 5.77434C67.0439 5.721 66.8572 5.69434 66.6305 5.69434C66.4039 5.69434 66.2139 5.72767 66.0605 5.79434C65.9072 5.85434 65.7805 5.93767 65.6805 6.04434C65.5805 6.151 65.5072 6.27434 65.4605 6.41434C65.4139 6.55434 65.3839 6.701 65.3705 6.85434ZM73.1712 11.1943C73.0978 11.1943 73.0345 11.1677 72.9812 11.1143C72.9278 11.061 72.9012 10.9977 72.9012 10.9243V4.46434C72.9012 4.391 72.9278 4.32767 72.9812 4.27434C73.0345 4.221 73.0978 4.19434 73.1712 4.19434H76.3912C76.8378 4.19434 77.2145 4.25767 77.5212 4.38434C77.8278 4.50434 78.0712 4.66434 78.2512 4.86434C78.4378 5.05767 78.5712 5.281 78.6512 5.53434C78.7312 5.781 78.7712 6.02767 78.7712 6.27434C78.7712 6.46767 78.7478 6.63767 78.7012 6.78434C78.6612 6.92434 78.6112 7.04767 78.5512 7.15434C78.4912 7.25434 78.4278 7.33767 78.3612 7.40434C78.3012 7.46434 78.2512 7.511 78.2112 7.54434C78.4712 7.72434 78.6512 7.93434 78.7512 8.17434C78.8578 8.40767 78.9112 8.691 78.9112 9.02434C78.9112 9.29767 78.8712 9.56434 78.7912 9.82434C78.7112 10.0843 78.5778 10.3177 78.3912 10.5243C78.2112 10.7243 77.9745 10.8877 77.6812 11.0143C77.3878 11.1343 77.0278 11.1943 76.6012 11.1943H73.1712ZM76.9112 6.31434C76.9112 6.141 76.8578 6.00434 76.7512 5.90434C76.6512 5.79767 76.5012 5.74434 76.3012 5.74434H74.7512V6.88434H76.3012C76.5012 6.88434 76.6512 6.83434 76.7512 6.73434C76.8578 6.62767 76.9112 6.48767 76.9112 6.31434ZM74.7512 9.64434H76.4012C76.6012 9.64434 76.7612 9.58767 76.8812 9.47434C77.0012 9.35434 77.0612 9.20767 77.0612 9.03434C77.0612 8.861 77.0012 8.71767 76.8812 8.60434C76.7612 8.48434 76.6012 8.42434 76.4012 8.42434H74.7512V9.64434ZM85.7603 4.19434C85.8336 4.19434 85.897 4.221 85.9503 4.27434C86.0036 4.32767 86.0303 4.391 86.0303 4.46434V8.45434C86.0303 8.91434 85.957 9.321 85.8103 9.67434C85.6636 10.0277 85.4536 10.3243 85.1803 10.5643C84.9136 10.8043 84.5936 10.9877 84.2203 11.1143C83.847 11.2343 83.437 11.2943 82.9903 11.2943C82.537 11.2943 82.1236 11.2343 81.7503 11.1143C81.377 10.9877 81.057 10.8043 80.7903 10.5643C80.5236 10.3243 80.317 10.0277 80.1703 9.67434C80.0236 9.321 79.9503 8.91434 79.9503 8.45434V4.46434C79.9503 4.391 79.977 4.32767 80.0303 4.27434C80.0836 4.221 80.147 4.19434 80.2203 4.19434H81.5303C81.6036 4.19434 81.667 4.221 81.7203 4.27434C81.7736 4.32767 81.8003 4.391 81.8003 4.46434V8.41434C81.8003 8.81434 81.897 9.12767 82.0903 9.35434C82.2903 9.581 82.5903 9.69434 82.9903 9.69434C83.3903 9.69434 83.687 9.581 83.8803 9.35434C84.0803 9.12767 84.1803 8.81434 84.1803 8.41434V4.46434C84.1803 4.391 84.207 4.32767 84.2603 4.27434C84.3136 4.221 84.377 4.19434 84.4503 4.19434H85.7603ZM90.2841 4.19434C90.7441 4.19434 91.1641 4.26434 91.5441 4.40434C91.9241 4.53767 92.2507 4.72767 92.5241 4.97434C92.8041 5.221 93.0207 5.51767 93.1741 5.86434C93.3341 6.20434 93.4241 6.57767 93.4441 6.98434C93.4507 7.12434 93.4541 7.25434 93.4541 7.37434C93.4541 7.48767 93.4541 7.59767 93.4541 7.70434C93.4541 7.811 93.4541 7.921 93.4541 8.03434C93.4541 8.14767 93.4507 8.271 93.4441 8.40434C93.4241 8.81767 93.3374 9.19434 93.1841 9.53434C93.0307 9.87434 92.8174 10.1677 92.5441 10.4143C92.2774 10.661 91.9574 10.8543 91.5841 10.9943C91.2107 11.1277 90.7941 11.1943 90.3341 11.1943H87.6341C87.5607 11.1943 87.4974 11.1677 87.4441 11.1143C87.3907 11.061 87.3641 10.9977 87.3641 10.9243V4.46434C87.3641 4.391 87.3907 4.32767 87.4441 4.27434C87.4974 4.221 87.5607 4.19434 87.6341 4.19434H90.2841ZM91.5941 6.94434C91.5541 6.17767 91.1007 5.79434 90.2341 5.79434H89.2141V9.59434H90.2841C91.1241 9.59434 91.5607 9.211 91.5941 8.44434C91.6007 8.30434 91.6041 8.17434 91.6041 8.05434C91.6041 7.92767 91.6041 7.80767 91.6041 7.69434C91.6041 7.57434 91.6041 7.45434 91.6041 7.33434C91.6041 7.21434 91.6007 7.08434 91.5941 6.94434ZM97.4606 5.69434C97.234 5.69434 97.044 5.72767 96.8906 5.79434C96.7373 5.85434 96.6106 5.93767 96.5106 6.04434C96.4173 6.151 96.3473 6.27434 96.3006 6.41434C96.254 6.55434 96.2206 6.701 96.2006 6.85434C96.1873 6.941 96.1773 7.061 96.1706 7.21434C96.1706 7.36767 96.1706 7.52767 96.1706 7.69434C96.1706 7.85434 96.174 8.01434 96.1806 8.17434C96.1873 8.32767 96.194 8.44767 96.2006 8.53434C96.214 8.68767 96.244 8.83434 96.2906 8.97434C96.344 9.11434 96.4173 9.23767 96.5106 9.34434C96.6106 9.451 96.7373 9.53767 96.8906 9.60434C97.0506 9.66434 97.2406 9.69434 97.4606 9.69434C97.634 9.69434 97.7973 9.67434 97.9506 9.63434C98.104 9.59434 98.2373 9.531 98.3506 9.44434C98.464 9.35767 98.554 9.24434 98.6206 9.10434C98.6873 8.96434 98.7206 8.79434 98.7206 8.59434H97.8806C97.8073 8.59434 97.744 8.56767 97.6906 8.51434C97.6373 8.461 97.6106 8.39767 97.6106 8.32434V7.26434C97.6106 7.191 97.6373 7.12767 97.6906 7.07434C97.744 7.021 97.8073 6.99434 97.8806 6.99434H100.301C100.374 6.99434 100.437 7.021 100.491 7.07434C100.544 7.12767 100.571 7.191 100.571 7.26434V8.54434C100.571 8.971 100.491 9.35434 100.331 9.69434C100.171 10.0343 99.9506 10.3243 99.6706 10.5643C99.3906 10.7977 99.0606 10.9777 98.6806 11.1043C98.3073 11.231 97.9006 11.2943 97.4606 11.2943C96.9806 11.2943 96.5506 11.2243 96.1706 11.0843C95.7973 10.9377 95.4773 10.741 95.2106 10.4943C94.944 10.2477 94.7373 9.961 94.5906 9.63434C94.4506 9.301 94.3706 8.951 94.3506 8.58434C94.3373 8.311 94.3306 8.01767 94.3306 7.70434C94.3306 7.391 94.3373 7.091 94.3506 6.80434C94.364 6.43767 94.444 6.091 94.5906 5.76434C94.7373 5.431 94.9406 5.141 95.2006 4.89434C95.4673 4.64767 95.7906 4.45434 96.1706 4.31434C96.5506 4.16767 96.9806 4.09434 97.4606 4.09434C97.9273 4.09434 98.3473 4.16434 98.7206 4.30434C99.094 4.43767 99.4106 4.611 99.6706 4.82434C99.9306 5.031 100.134 5.261 100.281 5.51434C100.427 5.761 100.507 5.99767 100.521 6.22434C100.527 6.28434 100.507 6.33767 100.461 6.38434C100.414 6.42434 100.361 6.44434 100.301 6.44434H98.9706C98.8706 6.44434 98.7906 6.41434 98.7306 6.35434C98.6773 6.29434 98.624 6.23434 98.5706 6.17434C98.4773 6.05434 98.3506 5.94434 98.1906 5.84434C98.0306 5.74434 97.7873 5.69434 97.4606 5.69434ZM106.71 9.59434C106.783 9.59434 106.847 9.621 106.9 9.67434C106.953 9.72767 106.98 9.791 106.98 9.86434V10.9243C106.98 10.9977 106.953 11.061 106.9 11.1143C106.847 11.1677 106.783 11.1943 106.71 11.1943H101.97C101.897 11.1943 101.833 11.1677 101.78 11.1143C101.727 11.061 101.7 10.9977 101.7 10.9243V4.46434C101.7 4.391 101.727 4.32767 101.78 4.27434C101.833 4.221 101.897 4.19434 101.97 4.19434H106.63C106.703 4.19434 106.767 4.221 106.82 4.27434C106.873 4.32767 106.9 4.391 106.9 4.46434V5.52434C106.9 5.59767 106.873 5.661 106.82 5.71434C106.767 5.76767 106.703 5.79434 106.63 5.79434H103.55V6.87434H106.41C106.483 6.87434 106.547 6.901 106.6 6.95434C106.653 7.00767 106.68 7.071 106.68 7.14434V8.20434C106.68 8.27767 106.653 8.341 106.6 8.39434C106.547 8.44767 106.483 8.47434 106.41 8.47434H103.55V9.59434H106.71ZM113.266 4.19434C113.339 4.19434 113.402 4.221 113.456 4.27434C113.509 4.32767 113.536 4.391 113.536 4.46434V5.52434C113.536 5.59767 113.509 5.661 113.456 5.71434C113.402 5.76767 113.339 5.79434 113.266 5.79434H111.506V10.9243C111.506 10.9977 111.479 11.061 111.426 11.1143C111.372 11.1677 111.309 11.1943 111.236 11.1943H109.926C109.852 11.1943 109.789 11.1677 109.736 11.1143C109.682 11.061 109.656 10.9977 109.656 10.9243V5.79434H107.896C107.822 5.79434 107.759 5.76767 107.706 5.71434C107.652 5.661 107.626 5.59767 107.626 5.52434V4.46434C107.626 4.391 107.652 4.32767 107.706 4.27434C107.759 4.221 107.822 4.19434 107.896 4.19434H113.266ZM43.3163 14.1943C43.7763 14.1943 44.1963 14.2643 44.5763 14.4043C44.9563 14.5377 45.283 14.7277 45.5563 14.9743C45.8363 15.221 46.053 15.5177 46.2063 15.8643C46.3663 16.2043 46.4563 16.5777 46.4763 16.9843C46.483 17.1243 46.4863 17.2543 46.4863 17.3743C46.4863 17.4877 46.4863 17.5977 46.4863 17.7043C46.4863 17.811 46.4863 17.921 46.4863 18.0343C46.4863 18.1477 46.483 18.271 46.4763 18.4043C46.4563 18.8177 46.3696 19.1943 46.2163 19.5343C46.063 19.8743 45.8496 20.1677 45.5763 20.4143C45.3096 20.661 44.9896 20.8543 44.6163 20.9943C44.243 21.1277 43.8263 21.1943 43.3663 21.1943H40.6663C40.593 21.1943 40.5296 21.1677 40.4763 21.1143C40.423 21.061 40.3963 20.9977 40.3963 20.9243V14.4643C40.3963 14.391 40.423 14.3277 40.4763 14.2743C40.5296 14.221 40.593 14.1943 40.6663 14.1943H43.3163ZM44.6263 16.9443C44.5863 16.1777 44.133 15.7943 43.2663 15.7943H42.2463V19.5943H43.3163C44.1563 19.5943 44.593 19.211 44.6263 18.4443C44.633 18.3043 44.6363 18.1743 44.6363 18.0543C44.6363 17.9277 44.6363 17.8077 44.6363 17.6943C44.6363 17.5743 44.6363 17.4543 44.6363 17.3343C44.6363 17.2143 44.633 17.0843 44.6263 16.9443ZM52.6329 19.5943C52.7062 19.5943 52.7695 19.621 52.8229 19.6743C52.8762 19.7277 52.9029 19.791 52.9029 19.8643V20.9243C52.9029 20.9977 52.8762 21.061 52.8229 21.1143C52.7695 21.1677 52.7062 21.1943 52.6329 21.1943H47.8929C47.8195 21.1943 47.7562 21.1677 47.7029 21.1143C47.6495 21.061 47.6229 20.9977 47.6229 20.9243V14.4643C47.6229 14.391 47.6495 14.3277 47.7029 14.2743C47.7562 14.221 47.8195 14.1943 47.8929 14.1943H52.5529C52.6262 14.1943 52.6895 14.221 52.7429 14.2743C52.7962 14.3277 52.8229 14.391 52.8229 14.4643V15.5243C52.8229 15.5977 52.7962 15.661 52.7429 15.7143C52.6895 15.7677 52.6262 15.7943 52.5529 15.7943H49.4729V16.8743H52.3329C52.4062 16.8743 52.4695 16.901 52.5229 16.9543C52.5762 17.0077 52.6029 17.071 52.6029 17.1443V18.2043C52.6029 18.2777 52.5762 18.341 52.5229 18.3943C52.4695 18.4477 52.4062 18.4743 52.3329 18.4743H49.4729V19.5943H52.6329ZM56.6486 14.0943C57.0753 14.0943 57.4653 14.1577 57.8186 14.2843C58.1786 14.4043 58.4886 14.561 58.7486 14.7543C59.0086 14.9477 59.212 15.161 59.3586 15.3943C59.5053 15.6277 59.582 15.851 59.5886 16.0643C59.5886 16.1243 59.5653 16.1777 59.5186 16.2243C59.4786 16.2643 59.432 16.2843 59.3786 16.2843H58.0686C57.9753 16.2843 57.8986 16.271 57.8386 16.2443C57.7853 16.2177 57.7286 16.1777 57.6686 16.1243C57.6486 16.1043 57.6153 16.071 57.5686 16.0243C57.5286 15.9777 57.4686 15.931 57.3886 15.8843C57.3086 15.831 57.2086 15.7877 57.0886 15.7543C56.9686 15.7143 56.822 15.6943 56.6486 15.6943C56.522 15.6943 56.3986 15.7043 56.2786 15.7243C56.1653 15.7377 56.062 15.7643 55.9686 15.8043C55.882 15.8377 55.8086 15.8877 55.7486 15.9543C55.6953 16.021 55.6686 16.1043 55.6686 16.2043C55.6686 16.3043 55.6986 16.3877 55.7586 16.4543C55.8253 16.521 55.932 16.5843 56.0786 16.6443C56.232 16.6977 56.432 16.751 56.6786 16.8043C56.9253 16.8577 57.232 16.921 57.5986 16.9943C57.9653 17.0677 58.2853 17.161 58.5586 17.2743C58.832 17.3877 59.0586 17.531 59.2386 17.7043C59.4253 17.871 59.562 18.071 59.6486 18.3043C59.742 18.531 59.7886 18.801 59.7886 19.1143C59.7886 19.4543 59.712 19.7577 59.5586 20.0243C59.4053 20.291 59.1886 20.521 58.9086 20.7143C58.6353 20.901 58.3086 21.0443 57.9286 21.1443C57.5553 21.2443 57.1453 21.2943 56.6986 21.2943C56.2453 21.2943 55.832 21.2343 55.4586 21.1143C55.0853 20.9943 54.762 20.8377 54.4886 20.6443C54.222 20.4443 54.012 20.221 53.8586 19.9743C53.7053 19.7277 53.6253 19.4777 53.6186 19.2243C53.6186 19.1643 53.6386 19.1143 53.6786 19.0743C53.7253 19.0277 53.7753 19.0043 53.8286 19.0043H55.1386C55.232 19.0043 55.3053 19.0177 55.3586 19.0443C55.412 19.0643 55.4653 19.0977 55.5186 19.1443C55.5453 19.171 55.5853 19.2143 55.6386 19.2743C55.692 19.3343 55.762 19.3977 55.8486 19.4643C55.942 19.5243 56.0553 19.5777 56.1886 19.6243C56.3286 19.671 56.4986 19.6943 56.6986 19.6943C57.052 19.6943 57.3453 19.6577 57.5786 19.5843C57.8186 19.5043 57.9386 19.3643 57.9386 19.1643C57.9386 19.0643 57.8953 18.981 57.8086 18.9143C57.722 18.8477 57.592 18.7877 57.4186 18.7343C57.2453 18.6743 57.022 18.6177 56.7486 18.5643C56.482 18.511 56.1653 18.4443 55.7986 18.3643C55.112 18.2177 54.6086 17.9743 54.2886 17.6343C53.9753 17.2877 53.8186 16.8277 53.8186 16.2543C53.8186 15.9677 53.882 15.6943 54.0086 15.4343C54.142 15.1743 54.332 14.9443 54.5786 14.7443C54.8253 14.5443 55.122 14.3877 55.4686 14.2743C55.822 14.1543 56.2153 14.0943 56.6486 14.0943ZM65.8586 14.1943C65.9319 14.1943 65.9952 14.221 66.0486 14.2743C66.1019 14.3277 66.1286 14.391 66.1286 14.4643V15.5243C66.1286 15.5977 66.1019 15.661 66.0486 15.7143C65.9952 15.7677 65.9319 15.7943 65.8586 15.7943H64.0986V20.9243C64.0986 20.9977 64.0719 21.061 64.0186 21.1143C63.9652 21.1677 63.9019 21.1943 63.8286 21.1943H62.5186C62.4452 21.1943 62.3819 21.1677 62.3286 21.1143C62.2752 21.061 62.2486 20.9977 62.2486 20.9243V15.7943H60.4886C60.4152 15.7943 60.3519 15.7677 60.2986 15.7143C60.2452 15.661 60.2186 15.5977 60.2186 15.5243V14.4643C60.2186 14.391 60.2452 14.3277 60.2986 14.2743C60.3519 14.221 60.4152 14.1943 60.4886 14.1943H65.8586ZM67.2971 21.1943C67.2238 21.1943 67.1605 21.1677 67.1071 21.1143C67.0538 21.061 67.0271 20.9977 67.0271 20.9243V14.4643C67.0271 14.391 67.0538 14.3277 67.1071 14.2743C67.1605 14.221 67.2238 14.1943 67.2971 14.1943H68.6071C68.6805 14.1943 68.7438 14.221 68.7971 14.2743C68.8505 14.3277 68.8771 14.391 68.8771 14.4643V20.9243C68.8771 20.9977 68.8505 21.061 68.7971 21.1143C68.7438 21.1677 68.6805 21.1943 68.6071 21.1943H67.2971ZM74.8291 21.1943C74.7158 21.1943 74.6224 21.1643 74.5491 21.1043C74.4824 21.0443 74.4391 20.9977 74.4191 20.9643L72.1291 17.5443V20.9243C72.1291 20.9977 72.1024 21.061 72.0491 21.1143C71.9958 21.1677 71.9324 21.1943 71.8591 21.1943H70.5491C70.4758 21.1943 70.4124 21.1677 70.3591 21.1143C70.3058 21.061 70.2791 20.9977 70.2791 20.9243V14.4643C70.2791 14.391 70.3058 14.3277 70.3591 14.2743C70.4124 14.221 70.4758 14.1943 70.5491 14.1943H71.5891C71.7024 14.1943 71.7924 14.2243 71.8591 14.2843C71.9324 14.3443 71.9791 14.391 71.9991 14.4243L74.2891 17.8443V14.4643C74.2891 14.391 74.3158 14.3277 74.3691 14.2743C74.4224 14.221 74.4858 14.1943 74.5591 14.1943H75.8691C75.9424 14.1943 76.0058 14.221 76.0591 14.2743C76.1124 14.3277 76.1391 14.391 76.1391 14.4643V20.9243C76.1391 20.9977 76.1124 21.061 76.0591 21.1143C76.0058 21.1677 75.9424 21.1943 75.8691 21.1943H74.8291ZM81.235 14.1943C81.3683 14.1943 81.4683 14.231 81.535 14.3043C81.6083 14.3777 81.6583 14.451 81.685 14.5243L83.865 20.8243C83.8916 20.891 83.905 20.941 83.905 20.9743C83.905 21.0343 83.8816 21.0877 83.835 21.1343C83.795 21.1743 83.745 21.1943 83.685 21.1943H82.425C82.2916 21.1943 82.195 21.1677 82.135 21.1143C82.0816 21.0543 82.0483 20.9977 82.035 20.9443L81.755 20.1143H79.095L78.815 20.9443C78.8016 20.9977 78.765 21.0543 78.705 21.1143C78.6516 21.1677 78.5583 21.1943 78.425 21.1943H77.165C77.105 21.1943 77.0516 21.1743 77.005 21.1343C76.965 21.0877 76.945 21.0343 76.945 20.9743C76.945 20.941 76.9583 20.891 76.985 20.8243L79.165 14.5243C79.1916 14.451 79.2383 14.3777 79.305 14.3043C79.3783 14.231 79.4816 14.1943 79.615 14.1943H81.235ZM79.615 18.5643H81.235L80.425 16.1643L79.615 18.5643ZM89.1496 14.1943C89.2229 14.1943 89.2862 14.221 89.3396 14.2743C89.3929 14.3277 89.4196 14.391 89.4196 14.4643V15.5243C89.4196 15.5977 89.3929 15.661 89.3396 15.7143C89.2862 15.7677 89.2229 15.7943 89.1496 15.7943H87.3896V20.9243C87.3896 20.9977 87.3629 21.061 87.3096 21.1143C87.2562 21.1677 87.1929 21.1943 87.1196 21.1943H85.8096C85.7362 21.1943 85.6729 21.1677 85.6196 21.1143C85.5662 21.061 85.5396 20.9977 85.5396 20.9243V15.7943H83.7796C83.7062 15.7943 83.6429 15.7677 83.5896 15.7143C83.5362 15.661 83.5096 15.5977 83.5096 15.5243V14.4643C83.5096 14.391 83.5362 14.3277 83.5896 14.2743C83.6429 14.221 83.7062 14.1943 83.7796 14.1943H89.1496ZM90.5882 21.1943C90.5148 21.1943 90.4515 21.1677 90.3982 21.1143C90.3448 21.061 90.3182 20.9977 90.3182 20.9243V14.4643C90.3182 14.391 90.3448 14.3277 90.3982 14.2743C90.4515 14.221 90.5148 14.1943 90.5882 14.1943H91.8982C91.9715 14.1943 92.0348 14.221 92.0882 14.2743C92.1415 14.3277 92.1682 14.391 92.1682 14.4643V20.9243C92.1682 20.9977 92.1415 21.061 92.0882 21.1143C92.0348 21.1677 91.9715 21.1943 91.8982 21.1943H90.5882ZM93.3401 16.8043C93.3601 16.431 93.4401 16.081 93.5801 15.7543C93.7268 15.421 93.9301 15.1343 94.1901 14.8943C94.4568 14.6477 94.7768 14.4543 95.1501 14.3143C95.5301 14.1677 95.9668 14.0943 96.4601 14.0943C96.9468 14.0943 97.3801 14.1677 97.7601 14.3143C98.1401 14.4543 98.4601 14.6477 98.7201 14.8943C98.9868 15.1343 99.1901 15.421 99.3301 15.7543C99.4768 16.081 99.5601 16.431 99.5801 16.8043C99.5935 17.091 99.6001 17.391 99.6001 17.7043C99.6001 18.0177 99.5935 18.311 99.5801 18.5843C99.5601 18.9577 99.4768 19.311 99.3301 19.6443C99.1901 19.971 98.9868 20.2577 98.7201 20.5043C98.4601 20.751 98.1401 20.9443 97.7601 21.0843C97.3801 21.2243 96.9468 21.2943 96.4601 21.2943C95.9668 21.2943 95.5301 21.2243 95.1501 21.0843C94.7768 20.9443 94.4568 20.751 94.1901 20.5043C93.9301 20.2577 93.7268 19.971 93.5801 19.6443C93.4401 19.311 93.3601 18.9577 93.3401 18.5843C93.3268 18.311 93.3201 18.0177 93.3201 17.7043C93.3201 17.391 93.3268 17.091 93.3401 16.8043ZM97.7301 18.5343C97.7368 18.4143 97.7435 18.281 97.7501 18.1343C97.7568 17.9877 97.7601 17.8377 97.7601 17.6843C97.7601 17.531 97.7568 17.3843 97.7501 17.2443C97.7435 17.0977 97.7368 16.9677 97.7301 16.8543C97.7168 16.6877 97.6801 16.5343 97.6201 16.3943C97.5668 16.2543 97.4868 16.1343 97.3801 16.0343C97.2801 15.9277 97.1535 15.8443 97.0001 15.7843C96.8468 15.7243 96.6668 15.6943 96.4601 15.6943C96.2535 15.6943 96.0735 15.7243 95.9201 15.7843C95.7668 15.8443 95.6368 15.9277 95.5301 16.0343C95.4301 16.1343 95.3501 16.2543 95.2901 16.3943C95.2368 16.5343 95.2035 16.6877 95.1901 16.8543C95.1768 16.9677 95.1668 17.0977 95.1601 17.2443C95.1601 17.3843 95.1601 17.531 95.1601 17.6843C95.1601 17.8377 95.1601 17.9877 95.1601 18.1343C95.1668 18.281 95.1768 18.4143 95.1901 18.5343C95.2168 18.8677 95.3301 19.1443 95.5301 19.3643C95.7368 19.5843 96.0468 19.6943 96.4601 19.6943C96.8735 19.6943 97.1801 19.5843 97.3801 19.3643C97.5801 19.1443 97.6968 18.8677 97.7301 18.5343ZM105.298 21.1943C105.185 21.1943 105.091 21.1643 105.018 21.1043C104.951 21.0443 104.908 20.9977 104.888 20.9643L102.598 17.5443V20.9243C102.598 20.9977 102.571 21.061 102.518 21.1143C102.465 21.1677 102.401 21.1943 102.328 21.1943H101.018C100.945 21.1943 100.881 21.1677 100.828 21.1143C100.775 21.061 100.748 20.9977 100.748 20.9243V14.4643C100.748 14.391 100.775 14.3277 100.828 14.2743C100.881 14.221 100.945 14.1943 101.018 14.1943H102.058C102.171 14.1943 102.261 14.2243 102.328 14.2843C102.401 14.3443 102.448 14.391 102.468 14.4243L104.758 17.8443V14.4643C104.758 14.391 104.785 14.3277 104.838 14.2743C104.891 14.221 104.955 14.1943 105.028 14.1943H106.338C106.411 14.1943 106.475 14.221 106.528 14.2743C106.581 14.3277 106.608 14.391 106.608 14.4643V20.9243C106.608 20.9977 106.581 21.061 106.528 21.1143C106.475 21.1677 106.411 21.1943 106.338 21.1943H105.298Z" fill="white"/>
</svg>
