<svg width="149" height="151" viewBox="0 0 149 151" fill="none" xmlns="http://www.w3.org/2000/svg">
<path d="M141.105 11.0225H7.89508C3.53475 11.0225 0 14.6326 0 19.0858V142.937C0 147.39 3.53475 151 7.89508 151H141.105C145.465 151 149 147.39 149 142.937V19.0858C149 14.6326 145.465 11.0225 141.105 11.0225Z" fill="#FCA129"/>
<mask id="mask0_281_3333" style="mask-type:alpha" maskUnits="userSpaceOnUse" x="0" y="11" width="149" height="140">
<path d="M141.105 11.0225H7.89508C3.53475 11.0225 0 14.6326 0 19.0858V142.937C0 147.39 3.53475 151 7.89508 151H141.105C145.465 151 149 147.39 149 142.937V19.0858C149 14.6326 145.465 11.0225 141.105 11.0225Z" fill="#FCA129"/>
</mask>
<g mask="url(#mask0_281_3333)">
<g opacity="0.25">
<path opacity="0.3" d="M200.827 120.396L74.5059 81.0132L200.827 128.737V120.396Z" fill="white"/>
<path opacity="0.3" d="M74.5059 81.0132L89.6301 230.715H107.051L74.5059 81.0132Z" fill="white"/>
<path opacity="0.3" d="M123.25 230.715H138.432L74.5059 81.0171L123.25 230.715Z" fill="white"/>
<path opacity="0.3" d="M74.5074 81.0132L61.1895 230.715H74.5074V81.0132Z" fill="white"/>
<path opacity="0.3" d="M27.3438 230.715H41.4462L74.5037 81.0171L27.3438 230.715Z" fill="white"/>
<path opacity="0.3" d="M74.5059 81.0132L200.827 167.799V157.766L74.5059 81.0132Z" fill="white"/>
<path opacity="0.3" d="M157.146 230.715H175.527L74.5059 81.0171L157.146 230.715Z" fill="white"/>
<path opacity="0.3" d="M200.827 196.625V180.357L74.5098 81.0171L200.827 196.625Z" fill="white"/>
<path opacity="0.3" d="M74.5059 81.0132L199.212 230.715H200.827V213.823L74.5059 81.0171V81.0132Z" fill="white"/>
<path opacity="0.3" d="M74.5059 81.0132L200.827 147.205V138.371L74.5059 81.0132Z" fill="white"/>
<path opacity="0.3" d="M-51.8145 120.447V131.359L74.503 81.0132L-51.8145 120.447Z" fill="white"/>
<path opacity="0.3" d="M-7.5332 230.715H8.48658L74.5022 81.0132L-7.5332 230.715Z" fill="white"/>
<path opacity="0.3" d="M74.503 81.0132L-51.8145 191.337V206.65L74.503 81.0132Z" fill="white"/>
<path opacity="0.3" d="M74.5069 81.0132L-51.8105 230.715H-25.8444L74.5069 81.0132Z" fill="white"/>
<path opacity="0.3" d="M74.503 81.0132L-51.8145 141.823V151.332L74.503 81.0132Z" fill="white"/>
<path opacity="0.3" d="M-51.8145 165.501V177.015L74.4992 81.0171L-51.8145 165.501Z" fill="white"/>
<path opacity="0.3" d="M74.5076 81.0367L59.3834 10.0962H41.9629L74.5076 81.0367Z" fill="white"/>
<path opacity="0.3" d="M25.7618 10.0962H10.5801L74.5023 81.0367L25.7618 10.0962Z" fill="white"/>
<path opacity="0.3" d="M74.5059 81.0367L87.82 10.0962H74.5059V81.0367Z" fill="white"/>
<path opacity="0.3" d="M121.666 10.0962H107.563L74.5059 81.0328L121.666 10.0962Z" fill="white"/>
<path opacity="0.3" d="M74.503 81.037L-51.8145 73.0127V86.1689L74.503 81.037Z" fill="white"/>
<path opacity="0.3" d="M-8.13264 10.0962H-26.5137L74.5036 81.0367L-8.13264 10.0962Z" fill="white"/>
<path opacity="0.3" d="M-51.8145 44.1904V60.454L74.503 81.0365L-51.8145 44.1904Z" fill="white"/>
<path opacity="0.3" d="M74.503 81.0367L-50.2033 10.0962H-51.8145V26.989L74.503 81.0367Z" fill="white"/>
<path opacity="0.3" d="M74.503 81.0366L-51.8145 99.4929V110.836L74.503 81.0366Z" fill="white"/>
<path opacity="0.3" d="M156.541 10.0962H140.525L74.5059 81.0367L156.541 10.0962Z" fill="white"/>
<path opacity="0.3" d="M74.5059 81.0366L200.827 49.4749V34.1611L74.5059 81.0366Z" fill="white"/>
<path opacity="0.3" d="M74.5059 81.0133L200.827 10.0728H174.857L74.5059 81.0133Z" fill="white"/>
<path opacity="0.3" d="M74.5059 81.0366L200.827 107.384V95.3654L74.5059 81.0366Z" fill="white"/>
<path opacity="0.3" d="M200.827 78.4335V63.7959L74.5098 81.0366L200.827 78.4335Z" fill="white"/>
</g>
</g>
<path d="M134.707 16.9946H14.2486C9.88826 16.9946 6.35352 20.6047 6.35352 25.058V136.972C6.35352 141.425 9.88826 145.036 14.2486 145.036H134.707C139.067 145.036 142.602 141.425 142.602 136.972V25.058C142.602 20.6047 139.067 16.9946 134.707 16.9946Z" stroke="white" stroke-width="3" stroke-linejoin="round"/>
<path d="M128.609 142.108C134.441 142.108 139.168 137.28 139.168 131.324C139.168 125.369 134.441 120.541 128.609 120.541C122.778 120.541 118.051 125.369 118.051 131.324C118.051 137.28 122.778 142.108 128.609 142.108Z" fill="#BC7622"/>
<path d="M132.838 128.264V127.928C132.838 127.691 132.649 127.498 132.417 127.498H124.801C124.569 127.498 124.38 127.691 124.38 127.928V128.264C124.38 128.502 124.569 128.694 124.801 128.694H132.417C132.649 128.694 132.838 128.502 132.838 128.264Z" fill="white"/>
<path d="M132.842 131.578V131.242C132.842 131.005 132.653 130.812 132.421 130.812H124.805C124.573 130.812 124.384 131.005 124.384 131.242V131.578C124.384 131.816 124.573 132.008 124.805 132.008H132.421C132.653 132.008 132.842 131.816 132.842 131.578Z" fill="white"/>
<path d="M132.842 134.896V134.56C132.842 134.323 132.653 134.13 132.421 134.13H124.805C124.573 134.13 124.384 134.323 124.384 134.56V134.896C124.384 135.134 124.573 135.326 124.805 135.326H132.421C132.653 135.326 132.842 135.134 132.842 134.896Z" fill="white"/>
<path d="M126.593 17.3189L134.71 26.9848C134.758 27.0373 134.792 27.1024 134.806 27.1731C134.821 27.2438 134.816 27.3172 134.792 27.3852C134.769 27.4532 134.727 27.5132 134.672 27.5584C134.617 27.6036 134.55 27.6324 134.48 27.6415H108.973C108.927 27.638 108.881 27.6251 108.839 27.6036C108.798 27.582 108.761 27.5521 108.73 27.5157C108.7 27.4793 108.677 27.4371 108.663 27.3916C108.649 27.3461 108.644 27.2982 108.648 27.2506V6.85179C108.644 6.80423 108.649 6.7563 108.663 6.71078C108.677 6.66527 108.7 6.62309 108.73 6.58671C108.761 6.55032 108.798 6.52046 108.839 6.49886C108.881 6.47727 108.927 6.46438 108.973 6.46094H134.495C134.566 6.47002 134.632 6.49878 134.687 6.54402C134.742 6.58926 134.784 6.64921 134.808 6.71723C134.831 6.78524 134.836 6.85866 134.822 6.92933C134.807 7 134.774 7.06516 134.725 7.11757L126.593 16.7757C126.531 16.8524 126.498 16.9483 126.498 17.0473C126.498 17.1463 126.531 17.2422 126.593 17.3189Z" fill="#BC7622"/>
<path d="M22.3565 17.3189L14.228 26.9848C14.1793 27.0373 14.1459 27.1024 14.1313 27.1731C14.1167 27.2438 14.1216 27.3172 14.1453 27.3852C14.1691 27.4532 14.2109 27.5132 14.266 27.5584C14.3211 27.6036 14.3875 27.6324 14.4576 27.6415H39.9798C40.0263 27.6381 40.0716 27.6252 40.1132 27.6035C40.1547 27.5819 40.1915 27.5519 40.2215 27.5155C40.2515 27.479 40.274 27.4368 40.2877 27.3913C40.3014 27.3458 40.306 27.298 40.3013 27.2506V6.85179C40.306 6.80444 40.3014 6.75659 40.2877 6.7111C40.274 6.6656 40.2515 6.62338 40.2215 6.58693C40.1915 6.55048 40.1547 6.52055 40.1132 6.4989C40.0716 6.47726 40.0263 6.46435 39.9798 6.46094H14.4576C14.3875 6.47002 14.3211 6.49878 14.266 6.54402C14.2109 6.58926 14.1691 6.64921 14.1453 6.71723C14.1216 6.78524 14.1167 6.85866 14.1313 6.92933C14.1459 7 14.1793 7.06516 14.228 7.11757L22.3565 16.7757C22.4178 16.8524 22.4512 16.9483 22.4512 17.0473C22.4512 17.1463 22.4178 17.2422 22.3565 17.3189Z" fill="#BC7622"/>
<path d="M117.334 0H31.3985C30.7243 0 30.1777 0.558228 30.1777 1.24684V24.7882C30.1777 25.4768 30.7243 26.035 31.3985 26.035H117.334C118.008 26.035 118.554 25.4768 118.554 24.7882V1.24684C118.554 0.558228 118.008 0 117.334 0Z" fill="#DD8628"/>
<path d="M45.7127 11V3.63H51.2527V5.15H47.5827V6.71H50.7927V8.12H47.5827V11H45.7127ZM53.0094 11L51.8994 9.89V4.74L53.0094 3.63H57.3294L58.4394 4.74V9.89L57.3294 11H53.0094ZM54.1294 9.58H56.2294L56.5794 9.23V5.4L56.2094 5.05H54.1294L53.7694 5.4V9.23L54.1294 9.58ZM59.6385 11V3.63H64.6585L65.7785 4.74V7.38L64.9385 8.22L66.0585 11H64.1785L63.2085 8.49H61.5085V11H59.6385ZM61.5085 7.07H63.6085L63.9585 6.72V5.4L63.6085 5.05H61.5085V7.07ZM67.0604 11V3.63H72.6604V5.15H68.9304V6.51H72.2904V7.92H68.9304V9.48H72.6604V11H67.0604ZM73.1572 11L74.9272 7.14L73.1672 3.63H75.3172L76.4872 6.39H76.8472L78.0172 3.63H80.1672L78.4072 7.14L80.1772 11H78.0172L76.8472 8.07H76.4872L75.3172 11H73.1572ZM83.3396 11V3.63H88.8796V5.15H85.2096V6.71H88.4196V8.12H85.2096V11H83.3396ZM90.6364 11L89.5264 9.89V4.74L90.6364 3.63H94.9564L96.0664 4.74V9.89L94.9564 11H90.6364ZM91.7564 9.58H93.8564L94.2064 9.23V5.4L93.8364 5.05H91.7564L91.3964 5.4V9.23L91.7564 9.58ZM97.2654 11V3.63H102.285L103.405 4.74V7.38L102.565 8.22L103.685 11H101.805L100.835 8.49H99.1354V11H97.2654ZM99.1354 7.07H101.235L101.585 6.72V5.4L101.235 5.05H99.1354V7.07ZM35.825 23V15.63H37.695V21.48H41.075V23H35.825ZM42.1569 23V17.15H40.0969V15.63H46.0869V17.15H44.0269V23H42.1569ZM50.2116 23L49.1016 21.89V16.74L50.2116 15.63H54.0016L55.1216 16.74V18.23H53.3016V17.4L52.9416 17.05H51.3316L50.9716 17.4V21.23L51.3316 21.58H53.0016L53.3716 21.23V20.39H55.1816V21.89L54.0716 23H50.2116ZM57.0408 23L55.9508 21.89V15.63H57.8208V21.23L58.1708 21.58H60.2008L60.5508 21.23V15.63H62.4208V21.89L61.3108 23H57.0408ZM63.8142 23V21.5H67.6542L68.0042 21.15V20.33L67.6542 19.98H64.6342L63.5242 18.86V16.74L64.6342 15.63H69.4542V17.13H65.7142L65.3642 17.48V18.13L65.7142 18.48H68.7342L69.8442 19.59V21.89L68.7342 23H63.8142ZM72.1764 23V17.15H70.1164V15.63H76.1064V17.15H74.0464V23H72.1764ZM77.7702 23L76.6602 21.89V16.74L77.7702 15.63H82.0902L83.2002 16.74V21.89L82.0902 23H77.7702ZM78.8902 21.58H80.9902L81.3402 21.23V17.4L80.9702 17.05H78.8902L78.5302 17.4V21.23L78.8902 21.58ZM84.3992 23V15.63H86.2292L88.1292 20.11L90.0292 15.63H91.8492V23H90.1092V18.95L88.5692 22.68H87.6892L86.1392 18.95V23H84.3992ZM93.2469 23V15.63H98.8469V17.15H95.1169V18.51H98.4769V19.92H95.1169V21.48H98.8469V23H93.2469ZM100.044 23V15.63H105.064L106.184 16.74V19.38L105.344 20.22L106.464 23H104.584L103.614 20.49H101.914V23H100.044ZM101.914 19.07H104.014L104.364 18.72V17.4L104.014 17.05H101.914V19.07ZM107.398 23V21.5H111.238L111.588 21.15V20.33L111.238 19.98H108.218L107.108 18.86V16.74L108.218 15.63H113.038V17.13H109.298L108.948 17.48V18.13L109.298 18.48H112.318L113.428 19.59V21.89L112.318 23H107.398Z" fill="white"/>
<path d="M45.7127 11H45.6127V11.1H45.7127V11ZM45.7127 3.63V3.53H45.6127V3.63H45.7127ZM51.2527 3.63H51.3527V3.53H51.2527V3.63ZM51.2527 5.15V5.25H51.3527V5.15H51.2527ZM47.5827 5.15V5.05H47.4827V5.15H47.5827ZM47.5827 6.71H47.4827V6.81H47.5827V6.71ZM50.7927 6.71H50.8927V6.61H50.7927V6.71ZM50.7927 8.12V8.22H50.8927V8.12H50.7927ZM47.5827 8.12V8.02H47.4827V8.12H47.5827ZM47.5827 11V11.1H47.6827V11H47.5827ZM45.8127 11V3.63H45.6127V11H45.8127ZM45.7127 3.73H51.2527V3.53H45.7127V3.73ZM51.1527 3.63V5.15H51.3527V3.63H51.1527ZM51.2527 5.05H47.5827V5.25H51.2527V5.05ZM47.4827 5.15V6.71H47.6827V5.15H47.4827ZM47.5827 6.81H50.7927V6.61H47.5827V6.81ZM50.6927 6.71V8.12H50.8927V6.71H50.6927ZM50.7927 8.02H47.5827V8.22H50.7927V8.02ZM47.4827 8.12V11H47.6827V8.12H47.4827ZM47.5827 10.9H45.7127V11.1H47.5827V10.9ZM53.0094 11L52.9387 11.0707L52.968 11.1H53.0094V11ZM51.8994 9.89H51.7994V9.93142L51.8287 9.96071L51.8994 9.89ZM51.8994 4.74L51.8287 4.66929L51.7994 4.69858V4.74H51.8994ZM53.0094 3.63V3.53H52.968L52.9387 3.55929L53.0094 3.63ZM57.3294 3.63L57.4001 3.55929L57.3708 3.53H57.3294V3.63ZM58.4394 4.74H58.5394V4.69858L58.5101 4.66929L58.4394 4.74ZM58.4394 9.89L58.5101 9.96071L58.5394 9.93142V9.89H58.4394ZM57.3294 11V11.1H57.3708L57.4001 11.0707L57.3294 11ZM54.1294 9.58L54.0597 9.6517L54.0888 9.68H54.1294V9.58ZM56.2294 9.58V9.68H56.2708L56.3001 9.65071L56.2294 9.58ZM56.5794 9.23L56.6501 9.30071L56.6794 9.27142V9.23H56.5794ZM56.5794 5.4H56.6794V5.35694L56.6481 5.32735L56.5794 5.4ZM56.2094 5.05L56.2781 4.97735L56.2492 4.95H56.2094V5.05ZM54.1294 5.05V4.95H54.0888L54.0597 4.9783L54.1294 5.05ZM53.7694 5.4L53.6997 5.3283L53.6694 5.35775V5.4H53.7694ZM53.7694 9.23H53.6694V9.27225L53.6997 9.3017L53.7694 9.23ZM53.0801 10.9293L51.9701 9.81929L51.8287 9.96071L52.9387 11.0707L53.0801 10.9293ZM51.9994 9.89V4.74H51.7994V9.89H51.9994ZM51.9701 4.81071L53.0801 3.70071L52.9387 3.55929L51.8287 4.66929L51.9701 4.81071ZM53.0094 3.73H57.3294V3.53H53.0094V3.73ZM57.2587 3.70071L58.3687 4.81071L58.5101 4.66929L57.4001 3.55929L57.2587 3.70071ZM58.3394 4.74V9.89H58.5394V4.74H58.3394ZM58.3687 9.81929L57.2587 10.9293L57.4001 11.0707L58.5101 9.96071L58.3687 9.81929ZM57.3294 10.9H53.0094V11.1H57.3294V10.9ZM54.1294 9.68H56.2294V9.48H54.1294V9.68ZM56.3001 9.65071L56.6501 9.30071L56.5087 9.15929L56.1587 9.50929L56.3001 9.65071ZM56.6794 9.23V5.4H56.4794V9.23H56.6794ZM56.6481 5.32735L56.2781 4.97735L56.1407 5.12265L56.5107 5.47265L56.6481 5.32735ZM56.2094 4.95H54.1294V5.15H56.2094V4.95ZM54.0597 4.9783L53.6997 5.3283L53.8391 5.4717L54.1991 5.1217L54.0597 4.9783ZM53.6694 5.4V9.23H53.8694V5.4H53.6694ZM53.6997 9.3017L54.0597 9.6517L54.1991 9.5083L53.8391 9.1583L53.6997 9.3017ZM59.6385 11H59.5385V11.1H59.6385V11ZM59.6385 3.63V3.53H59.5385V3.63H59.6385ZM64.6585 3.63L64.7289 3.55897L64.6996 3.53H64.6585V3.63ZM65.7785 4.74H65.8785V4.69832L65.8489 4.66897L65.7785 4.74ZM65.7785 7.38L65.8492 7.45071L65.8785 7.42142V7.38H65.7785ZM64.9385 8.22L64.8678 8.14929L64.821 8.19604L64.8457 8.25737L64.9385 8.22ZM66.0585 11V11.1H66.2066L66.1512 10.9626L66.0585 11ZM64.1785 11L64.0852 11.036L64.1099 11.1H64.1785V11ZM63.2085 8.49L63.3018 8.45395L63.277 8.39H63.2085V8.49ZM61.5085 8.49V8.39H61.4085V8.49H61.5085ZM61.5085 11V11.1H61.6085V11H61.5085ZM61.5085 7.07H61.4085V7.17H61.5085V7.07ZM63.6085 7.07V7.17H63.6499L63.6792 7.14071L63.6085 7.07ZM63.9585 6.72L64.0292 6.79071L64.0585 6.76142V6.72H63.9585ZM63.9585 5.4H64.0585V5.35858L64.0292 5.32929L63.9585 5.4ZM63.6085 5.05L63.6792 4.97929L63.6499 4.95H63.6085V5.05ZM61.5085 5.05V4.95H61.4085V5.05H61.5085ZM59.7385 11V3.63H59.5385V11H59.7385ZM59.6385 3.73H64.6585V3.53H59.6385V3.73ZM64.5881 3.70103L65.7081 4.81103L65.8489 4.66897L64.7289 3.55897L64.5881 3.70103ZM65.6785 4.74V7.38H65.8785V4.74H65.6785ZM65.7078 7.30929L64.8678 8.14929L65.0092 8.29071L65.8492 7.45071L65.7078 7.30929ZM64.8457 8.25737L65.9657 11.0374L66.1512 10.9626L65.0312 8.18263L64.8457 8.25737ZM66.0585 10.9H64.1785V11.1H66.0585V10.9ZM64.2718 10.964L63.3018 8.45395L63.1152 8.52605L64.0852 11.036L64.2718 10.964ZM63.2085 8.39H61.5085V8.59H63.2085V8.39ZM61.4085 8.49V11H61.6085V8.49H61.4085ZM61.5085 10.9H59.6385V11.1H61.5085V10.9ZM61.5085 7.17H63.6085V6.97H61.5085V7.17ZM63.6792 7.14071L64.0292 6.79071L63.8878 6.64929L63.5378 6.99929L63.6792 7.14071ZM64.0585 6.72V5.4H63.8585V6.72H64.0585ZM64.0292 5.32929L63.6792 4.97929L63.5378 5.12071L63.8878 5.47071L64.0292 5.32929ZM63.6085 4.95H61.5085V5.15H63.6085V4.95ZM61.4085 5.05V7.07H61.6085V5.05H61.4085ZM67.0604 11H66.9604V11.1H67.0604V11ZM67.0604 3.63V3.53H66.9604V3.63H67.0604ZM72.6604 3.63H72.7604V3.53H72.6604V3.63ZM72.6604 5.15V5.25H72.7604V5.15H72.6604ZM68.9304 5.15V5.05H68.8304V5.15H68.9304ZM68.9304 6.51H68.8304V6.61H68.9304V6.51ZM72.2904 6.51H72.3904V6.41H72.2904V6.51ZM72.2904 7.92V8.02H72.3904V7.92H72.2904ZM68.9304 7.92V7.82H68.8304V7.92H68.9304ZM68.9304 9.48H68.8304V9.58H68.9304V9.48ZM72.6604 9.48H72.7604V9.38H72.6604V9.48ZM72.6604 11V11.1H72.7604V11H72.6604ZM67.1604 11V3.63H66.9604V11H67.1604ZM67.0604 3.73H72.6604V3.53H67.0604V3.73ZM72.5604 3.63V5.15H72.7604V3.63H72.5604ZM72.6604 5.05H68.9304V5.25H72.6604V5.05ZM68.8304 5.15V6.51H69.0304V5.15H68.8304ZM68.9304 6.61H72.2904V6.41H68.9304V6.61ZM72.1904 6.51V7.92H72.3904V6.51H72.1904ZM72.2904 7.82H68.9304V8.02H72.2904V7.82ZM68.8304 7.92V9.48H69.0304V7.92H68.8304ZM68.9304 9.58H72.6604V9.38H68.9304V9.58ZM72.5604 9.48V11H72.7604V9.48H72.5604ZM72.6604 10.9H67.0604V11.1H72.6604V10.9ZM73.1572 11L73.0663 10.9583L73.0014 11.1H73.1572V11ZM74.9272 7.14L75.0181 7.18168L75.0381 7.13807L75.0166 7.09518L74.9272 7.14ZM73.1672 3.63V3.53H73.0052L73.0778 3.67482L73.1672 3.63ZM75.3172 3.63L75.4093 3.59097L75.3834 3.53H75.3172V3.63ZM76.4872 6.39L76.3952 6.42903L76.421 6.49H76.4872V6.39ZM76.8472 6.39V6.49H76.9134L76.9393 6.42903L76.8472 6.39ZM78.0172 3.63V3.53H77.951L77.9252 3.59097L78.0172 3.63ZM80.1672 3.63L80.2566 3.67482L80.3292 3.53H80.1672V3.63ZM78.4072 7.14L78.3178 7.09518L78.2963 7.13807L78.3163 7.18168L78.4072 7.14ZM80.1772 11V11.1H80.3331L80.2681 10.9583L80.1772 11ZM78.0172 11L77.9244 11.0371L77.9495 11.1H78.0172V11ZM76.8472 8.07L76.9401 8.03292L76.915 7.97H76.8472V8.07ZM76.4872 8.07V7.97H76.4195L76.3944 8.03292L76.4872 8.07ZM75.3172 11V11.1H75.385L75.4101 11.0371L75.3172 11ZM73.2481 11.0417L75.0181 7.18168L74.8363 7.09832L73.0663 10.9583L73.2481 11.0417ZM75.0166 7.09518L73.2566 3.58518L73.0778 3.67482L74.8378 7.18482L75.0166 7.09518ZM73.1672 3.73H75.3172V3.53H73.1672V3.73ZM75.2252 3.66903L76.3952 6.42903L76.5793 6.35097L75.4093 3.59097L75.2252 3.66903ZM76.4872 6.49H76.8472V6.29H76.4872V6.49ZM76.9393 6.42903L78.1093 3.66903L77.9252 3.59097L76.7552 6.35097L76.9393 6.42903ZM78.0172 3.73H80.1672V3.53H78.0172V3.73ZM80.0778 3.58518L78.3178 7.09518L78.4966 7.18482L80.2566 3.67482L80.0778 3.58518ZM78.3163 7.18168L80.0863 11.0417L80.2681 10.9583L78.4981 7.09832L78.3163 7.18168ZM80.1772 10.9H78.0172V11.1H80.1772V10.9ZM78.1101 10.9629L76.9401 8.03292L76.7544 8.10708L77.9244 11.0371L78.1101 10.9629ZM76.8472 7.97H76.4872V8.17H76.8472V7.97ZM76.3944 8.03292L75.2244 10.9629L75.4101 11.0371L76.5801 8.10708L76.3944 8.03292ZM75.3172 10.9H73.1572V11.1H75.3172V10.9ZM83.3396 11H83.2396V11.1H83.3396V11ZM83.3396 3.63V3.53H83.2396V3.63H83.3396ZM88.8796 3.63H88.9796V3.53H88.8796V3.63ZM88.8796 5.15V5.25H88.9796V5.15H88.8796ZM85.2096 5.15V5.05H85.1096V5.15H85.2096ZM85.2096 6.71H85.1096V6.81H85.2096V6.71ZM88.4196 6.71H88.5196V6.61H88.4196V6.71ZM88.4196 8.12V8.22H88.5196V8.12H88.4196ZM85.2096 8.12V8.02H85.1096V8.12H85.2096ZM85.2096 11V11.1H85.3096V11H85.2096ZM83.4396 11V3.63H83.2396V11H83.4396ZM83.3396 3.73H88.8796V3.53H83.3396V3.73ZM88.7796 3.63V5.15H88.9796V3.63H88.7796ZM88.8796 5.05H85.2096V5.25H88.8796V5.05ZM85.1096 5.15V6.71H85.3096V5.15H85.1096ZM85.2096 6.81H88.4196V6.61H85.2096V6.81ZM88.3196 6.71V8.12H88.5196V6.71H88.3196ZM88.4196 8.02H85.2096V8.22H88.4196V8.02ZM85.1096 8.12V11H85.3096V8.12H85.1096ZM85.2096 10.9H83.3396V11.1H85.2096V10.9ZM90.6364 11L90.5657 11.0707L90.5949 11.1H90.6364V11ZM89.5264 9.89H89.4264V9.93142L89.4557 9.96071L89.5264 9.89ZM89.5264 4.74L89.4557 4.66929L89.4264 4.69858V4.74H89.5264ZM90.6364 3.63V3.53H90.5949L90.5657 3.55929L90.6364 3.63ZM94.9564 3.63L95.0271 3.55929L94.9978 3.53H94.9564V3.63ZM96.0664 4.74H96.1664V4.69858L96.1371 4.66929L96.0664 4.74ZM96.0664 9.89L96.1371 9.96071L96.1664 9.93142V9.89H96.0664ZM94.9564 11V11.1H94.9978L95.0271 11.0707L94.9564 11ZM91.7564 9.58L91.6867 9.6517L91.7158 9.68H91.7564V9.58ZM93.8564 9.58V9.68H93.8978L93.9271 9.65071L93.8564 9.58ZM94.2064 9.23L94.2771 9.30071L94.3064 9.27142V9.23H94.2064ZM94.2064 5.4H94.3064V5.35694L94.2751 5.32735L94.2064 5.4ZM93.8364 5.05L93.9051 4.97735L93.8762 4.95H93.8364V5.05ZM91.7564 5.05V4.95H91.7158L91.6867 4.9783L91.7564 5.05ZM91.3964 5.4L91.3267 5.3283L91.2964 5.35775V5.4H91.3964ZM91.3964 9.23H91.2964V9.27225L91.3267 9.3017L91.3964 9.23ZM90.7071 10.9293L89.5971 9.81929L89.4557 9.96071L90.5657 11.0707L90.7071 10.9293ZM89.6264 9.89V4.74H89.4264V9.89H89.6264ZM89.5971 4.81071L90.7071 3.70071L90.5657 3.55929L89.4557 4.66929L89.5971 4.81071ZM90.6364 3.73H94.9564V3.53H90.6364V3.73ZM94.8857 3.70071L95.9957 4.81071L96.1371 4.66929L95.0271 3.55929L94.8857 3.70071ZM95.9664 4.74V9.89H96.1664V4.74H95.9664ZM95.9957 9.81929L94.8857 10.9293L95.0271 11.0707L96.1371 9.96071L95.9957 9.81929ZM94.9564 10.9H90.6364V11.1H94.9564V10.9ZM91.7564 9.68H93.8564V9.48H91.7564V9.68ZM93.9271 9.65071L94.2771 9.30071L94.1357 9.15929L93.7857 9.50929L93.9271 9.65071ZM94.3064 9.23V5.4H94.1064V9.23H94.3064ZM94.2751 5.32735L93.9051 4.97735L93.7676 5.12265L94.1376 5.47265L94.2751 5.32735ZM93.8364 4.95H91.7564V5.15H93.8364V4.95ZM91.6867 4.9783L91.3267 5.3283L91.4661 5.4717L91.8261 5.1217L91.6867 4.9783ZM91.2964 5.4V9.23H91.4964V5.4H91.2964ZM91.3267 9.3017L91.6867 9.6517L91.8261 9.5083L91.4661 9.1583L91.3267 9.3017ZM97.2654 11H97.1654V11.1H97.2654V11ZM97.2654 3.63V3.53H97.1654V3.63H97.2654ZM102.285 3.63L102.356 3.55897L102.327 3.53H102.285V3.63ZM103.405 4.74H103.505V4.69832L103.476 4.66897L103.405 4.74ZM103.405 7.38L103.476 7.45071L103.505 7.42142V7.38H103.405ZM102.565 8.22L102.495 8.14929L102.448 8.19604L102.473 8.25737L102.565 8.22ZM103.685 11V11.1H103.834L103.778 10.9626L103.685 11ZM101.805 11L101.712 11.036L101.737 11.1H101.805V11ZM100.835 8.49L100.929 8.45395L100.904 8.39H100.835V8.49ZM99.1354 8.49V8.39H99.0354V8.49H99.1354ZM99.1354 11V11.1H99.2354V11H99.1354ZM99.1354 7.07H99.0354V7.17H99.1354V7.07ZM101.235 7.07V7.17H101.277L101.306 7.14071L101.235 7.07ZM101.585 6.72L101.656 6.79071L101.685 6.76142V6.72H101.585ZM101.585 5.4H101.685V5.35858L101.656 5.32929L101.585 5.4ZM101.235 5.05L101.306 4.97929L101.277 4.95H101.235V5.05ZM99.1354 5.05V4.95H99.0354V5.05H99.1354ZM97.3654 11V3.63H97.1654V11H97.3654ZM97.2654 3.73H102.285V3.53H97.2654V3.73ZM102.215 3.70103L103.335 4.81103L103.476 4.66897L102.356 3.55897L102.215 3.70103ZM103.305 4.74V7.38H103.505V4.74H103.305ZM103.335 7.30929L102.495 8.14929L102.636 8.29071L103.476 7.45071L103.335 7.30929ZM102.473 8.25737L103.593 11.0374L103.778 10.9626L102.658 8.18263L102.473 8.25737ZM103.685 10.9H101.805V11.1H103.685V10.9ZM101.899 10.964L100.929 8.45395L100.742 8.52605L101.712 11.036L101.899 10.964ZM100.835 8.39H99.1354V8.59H100.835V8.39ZM99.0354 8.49V11H99.2354V8.49H99.0354ZM99.1354 10.9H97.2654V11.1H99.1354V10.9ZM99.1354 7.17H101.235V6.97H99.1354V7.17ZM101.306 7.14071L101.656 6.79071L101.515 6.64929L101.165 6.99929L101.306 7.14071ZM101.685 6.72V5.4H101.485V6.72H101.685ZM101.656 5.32929L101.306 4.97929L101.165 5.12071L101.515 5.47071L101.656 5.32929ZM101.235 4.95H99.1354V5.15H101.235V4.95ZM99.0354 5.05V7.07H99.2354V5.05H99.0354ZM35.825 23H35.725V23.1H35.825V23ZM35.825 15.63V15.53H35.725V15.63H35.825ZM37.695 15.63H37.795V15.53H37.695V15.63ZM37.695 21.48H37.595V21.58H37.695V21.48ZM41.075 21.48H41.175V21.38H41.075V21.48ZM41.075 23V23.1H41.175V23H41.075ZM35.925 23V15.63H35.725V23H35.925ZM35.825 15.73H37.695V15.53H35.825V15.73ZM37.595 15.63V21.48H37.795V15.63H37.595ZM37.695 21.58H41.075V21.38H37.695V21.58ZM40.975 21.48V23H41.175V21.48H40.975ZM41.075 22.9H35.825V23.1H41.075V22.9ZM42.1569 23H42.0569V23.1H42.1569V23ZM42.1569 17.15H42.2569V17.05H42.1569V17.15ZM40.0969 17.15H39.9969V17.25H40.0969V17.15ZM40.0969 15.63V15.53H39.9969V15.63H40.0969ZM46.0869 15.63H46.1869V15.53H46.0869V15.63ZM46.0869 17.15V17.25H46.1869V17.15H46.0869ZM44.0269 17.15V17.05H43.9269V17.15H44.0269ZM44.0269 23V23.1H44.1269V23H44.0269ZM42.2569 23V17.15H42.0569V23H42.2569ZM42.1569 17.05H40.0969V17.25H42.1569V17.05ZM40.1969 17.15V15.63H39.9969V17.15H40.1969ZM40.0969 15.73H46.0869V15.53H40.0969V15.73ZM45.9869 15.63V17.15H46.1869V15.63H45.9869ZM46.0869 17.05H44.0269V17.25H46.0869V17.05ZM43.9269 17.15V23H44.1269V17.15H43.9269ZM44.0269 22.9H42.1569V23.1H44.0269V22.9ZM50.2116 23L50.1409 23.0707L50.1701 23.1H50.2116V23ZM49.1016 21.89H49.0016V21.9314L49.0309 21.9607L49.1016 21.89ZM49.1016 16.74L49.0309 16.6693L49.0016 16.6986V16.74H49.1016ZM50.2116 15.63V15.53H50.1701L50.1409 15.5593L50.2116 15.63ZM54.0016 15.63L54.072 15.559L54.0427 15.53H54.0016V15.63ZM55.1216 16.74H55.2216V16.6983L55.192 16.669L55.1216 16.74ZM55.1216 18.23V18.33H55.2216V18.23H55.1216ZM53.3016 18.23H53.2016V18.33H53.3016V18.23ZM53.3016 17.4H53.4016V17.3578L53.3713 17.3283L53.3016 17.4ZM52.9416 17.05L53.0113 16.9783L52.9822 16.95H52.9416V17.05ZM51.3316 17.05V16.95H51.291L51.2619 16.9783L51.3316 17.05ZM50.9716 17.4L50.9019 17.3283L50.8716 17.3578V17.4H50.9716ZM50.9716 21.23H50.8716V21.2722L50.9019 21.3017L50.9716 21.23ZM51.3316 21.58L51.2619 21.6517L51.291 21.68H51.3316V21.58ZM53.0016 21.58V21.68H53.0414L53.0703 21.6526L53.0016 21.58ZM53.3716 21.23L53.4403 21.3026L53.4716 21.2731V21.23H53.3716ZM53.3716 20.39V20.29H53.2716V20.39H53.3716ZM55.1816 20.39H55.2816V20.29H55.1816V20.39ZM55.1816 21.89L55.2523 21.9607L55.2816 21.9314V21.89H55.1816ZM54.0716 23V23.1H54.113L54.1423 23.0707L54.0716 23ZM50.2823 22.9293L49.1723 21.8193L49.0309 21.9607L50.1409 23.0707L50.2823 22.9293ZM49.2016 21.89V16.74H49.0016V21.89H49.2016ZM49.1723 16.8107L50.2823 15.7007L50.1409 15.5593L49.0309 16.6693L49.1723 16.8107ZM50.2116 15.73H54.0016V15.53H50.2116V15.73ZM53.9312 15.701L55.0512 16.811L55.192 16.669L54.072 15.559L53.9312 15.701ZM55.0216 16.74V18.23H55.2216V16.74H55.0216ZM55.1216 18.13H53.3016V18.33H55.1216V18.13ZM53.4016 18.23V17.4H53.2016V18.23H53.4016ZM53.3713 17.3283L53.0113 16.9783L52.8719 17.1217L53.2319 17.4717L53.3713 17.3283ZM52.9416 16.95H51.3316V17.15H52.9416V16.95ZM51.2619 16.9783L50.9019 17.3283L51.0413 17.4717L51.4013 17.1217L51.2619 16.9783ZM50.8716 17.4V21.23H51.0716V17.4H50.8716ZM50.9019 21.3017L51.2619 21.6517L51.4013 21.5083L51.0413 21.1583L50.9019 21.3017ZM51.3316 21.68H53.0016V21.48H51.3316V21.68ZM53.0703 21.6526L53.4403 21.3026L53.3028 21.1574L52.9328 21.5074L53.0703 21.6526ZM53.4716 21.23V20.39H53.2716V21.23H53.4716ZM53.3716 20.49H55.1816V20.29H53.3716V20.49ZM55.0816 20.39V21.89H55.2816V20.39H55.0816ZM55.1109 21.8193L54.0009 22.9293L54.1423 23.0707L55.2523 21.9607L55.1109 21.8193ZM54.0716 22.9H50.2116V23.1H54.0716V22.9ZM57.0408 23L56.9694 23.0701L56.9988 23.1H57.0408V23ZM55.9508 21.89H55.8508V21.9309L55.8794 21.9601L55.9508 21.89ZM55.9508 15.63V15.53H55.8508V15.63H55.9508ZM57.8208 15.63H57.9208V15.53H57.8208V15.63ZM57.8208 21.23H57.7208V21.2714L57.7501 21.3007L57.8208 21.23ZM58.1708 21.58L58.1001 21.6507L58.1294 21.68H58.1708V21.58ZM60.2008 21.58V21.68H60.2422L60.2715 21.6507L60.2008 21.58ZM60.5508 21.23L60.6215 21.3007L60.6508 21.2714V21.23H60.5508ZM60.5508 15.63V15.53H60.4508V15.63H60.5508ZM62.4208 15.63H62.5208V15.53H62.4208V15.63ZM62.4208 21.89L62.4915 21.9607L62.5208 21.9314V21.89H62.4208ZM61.3108 23V23.1H61.3522L61.3815 23.0707L61.3108 23ZM57.1121 22.9299L56.0221 21.8199L55.8794 21.9601L56.9694 23.0701L57.1121 22.9299ZM56.0508 21.89V15.63H55.8508V21.89H56.0508ZM55.9508 15.73H57.8208V15.53H55.9508V15.73ZM57.7208 15.63V21.23H57.9208V15.63H57.7208ZM57.7501 21.3007L58.1001 21.6507L58.2415 21.5093L57.8915 21.1593L57.7501 21.3007ZM58.1708 21.68H60.2008V21.48H58.1708V21.68ZM60.2715 21.6507L60.6215 21.3007L60.4801 21.1593L60.1301 21.5093L60.2715 21.6507ZM60.6508 21.23V15.63H60.4508V21.23H60.6508ZM60.5508 15.73H62.4208V15.53H60.5508V15.73ZM62.3208 15.63V21.89H62.5208V15.63H62.3208ZM62.3501 21.8193L61.2401 22.9293L61.3815 23.0707L62.4915 21.9607L62.3501 21.8193ZM61.3108 22.9H57.0408V23.1H61.3108V22.9ZM63.8142 23H63.7142V23.1H63.8142V23ZM63.8142 21.5V21.4H63.7142V21.5H63.8142ZM67.6542 21.5V21.6H67.6956L67.7249 21.5707L67.6542 21.5ZM68.0042 21.15L68.0749 21.2207L68.1042 21.1914V21.15H68.0042ZM68.0042 20.33H68.1042V20.2886L68.0749 20.2593L68.0042 20.33ZM67.6542 19.98L67.7249 19.9093L67.6956 19.88H67.6542V19.98ZM64.6342 19.98L64.5632 20.0504L64.5925 20.08H64.6342V19.98ZM63.5242 18.86H63.4242V18.9012L63.4532 18.9304L63.5242 18.86ZM63.5242 16.74L63.4535 16.6693L63.4242 16.6986V16.74H63.5242ZM64.6342 15.63V15.53H64.5928L64.5635 15.5593L64.6342 15.63ZM69.4542 15.63H69.5542V15.53H69.4542V15.63ZM69.4542 17.13V17.23H69.5542V17.13H69.4542ZM65.7142 17.13V17.03H65.6728L65.6435 17.0593L65.7142 17.13ZM65.3642 17.48L65.2935 17.4093L65.2642 17.4386V17.48H65.3642ZM65.3642 18.13H65.2642V18.1714L65.2935 18.2007L65.3642 18.13ZM65.7142 18.48L65.6435 18.5507L65.6728 18.58H65.7142V18.48ZM68.7342 18.48L68.8049 18.4093L68.7756 18.38H68.7342V18.48ZM69.8442 19.59H69.9442V19.5486L69.9149 19.5193L69.8442 19.59ZM69.8442 21.89L69.9149 21.9607L69.9442 21.9314V21.89H69.8442ZM68.7342 23V23.1H68.7756L68.8049 23.0707L68.7342 23ZM63.9142 23V21.5H63.7142V23H63.9142ZM63.8142 21.6H67.6542V21.4H63.8142V21.6ZM67.7249 21.5707L68.0749 21.2207L67.9335 21.0793L67.5835 21.4293L67.7249 21.5707ZM68.1042 21.15V20.33H67.9042V21.15H68.1042ZM68.0749 20.2593L67.7249 19.9093L67.5835 20.0507L67.9335 20.4007L68.0749 20.2593ZM67.6542 19.88H64.6342V20.08H67.6542V19.88ZM64.7052 19.9096L63.5952 18.7896L63.4532 18.9304L64.5632 20.0504L64.7052 19.9096ZM63.6242 18.86V16.74H63.4242V18.86H63.6242ZM63.5949 16.8107L64.7049 15.7007L64.5635 15.5593L63.4535 16.6693L63.5949 16.8107ZM64.6342 15.73H69.4542V15.53H64.6342V15.73ZM69.3542 15.63V17.13H69.5542V15.63H69.3542ZM69.4542 17.03H65.7142V17.23H69.4542V17.03ZM65.6435 17.0593L65.2935 17.4093L65.4349 17.5507L65.7849 17.2007L65.6435 17.0593ZM65.2642 17.48V18.13H65.4642V17.48H65.2642ZM65.2935 18.2007L65.6435 18.5507L65.7849 18.4093L65.4349 18.0593L65.2935 18.2007ZM65.7142 18.58H68.7342V18.38H65.7142V18.58ZM68.6635 18.5507L69.7735 19.6607L69.9149 19.5193L68.8049 18.4093L68.6635 18.5507ZM69.7442 19.59V21.89H69.9442V19.59H69.7442ZM69.7735 21.8193L68.6635 22.9293L68.8049 23.0707L69.9149 21.9607L69.7735 21.8193ZM68.7342 22.9H63.8142V23.1H68.7342V22.9ZM72.1764 23H72.0764V23.1H72.1764V23ZM72.1764 17.15H72.2764V17.05H72.1764V17.15ZM70.1164 17.15H70.0164V17.25H70.1164V17.15ZM70.1164 15.63V15.53H70.0164V15.63H70.1164ZM76.1064 15.63H76.2064V15.53H76.1064V15.63ZM76.1064 17.15V17.25H76.2064V17.15H76.1064ZM74.0464 17.15V17.05H73.9464V17.15H74.0464ZM74.0464 23V23.1H74.1464V23H74.0464ZM72.2764 23V17.15H72.0764V23H72.2764ZM72.1764 17.05H70.1164V17.25H72.1764V17.05ZM70.2164 17.15V15.63H70.0164V17.15H70.2164ZM70.1164 15.73H76.1064V15.53H70.1164V15.73ZM76.0064 15.63V17.15H76.2064V15.63H76.0064ZM76.1064 17.05H74.0464V17.25H76.1064V17.05ZM73.9464 17.15V23H74.1464V17.15H73.9464ZM74.0464 22.9H72.1764V23.1H74.0464V22.9ZM77.7702 23L77.6994 23.0707L77.7287 23.1H77.7702V23ZM76.6602 21.89H76.5602V21.9314L76.5894 21.9607L76.6602 21.89ZM76.6602 16.74L76.5894 16.6693L76.5602 16.6986V16.74H76.6602ZM77.7702 15.63V15.53H77.7287L77.6994 15.5593L77.7702 15.63ZM82.0902 15.63L82.1609 15.5593L82.1316 15.53H82.0902V15.63ZM83.2002 16.74H83.3002V16.6986L83.2709 16.6693L83.2002 16.74ZM83.2002 21.89L83.2709 21.9607L83.3002 21.9314V21.89H83.2002ZM82.0902 23V23.1H82.1316L82.1609 23.0707L82.0902 23ZM78.8902 21.58L78.8204 21.6517L78.8496 21.68H78.8902V21.58ZM80.9902 21.58V21.68H81.0316L81.0609 21.6507L80.9902 21.58ZM81.3402 21.23L81.4109 21.3007L81.4402 21.2714V21.23H81.3402ZM81.3402 17.4H81.4402V17.3569L81.4089 17.3274L81.3402 17.4ZM80.9702 17.05L81.0389 16.9774L81.01 16.95H80.9702V17.05ZM78.8902 17.05V16.95H78.8496L78.8204 16.9783L78.8902 17.05ZM78.5302 17.4L78.4604 17.3283L78.4302 17.3578V17.4H78.5302ZM78.5302 21.23H78.4302V21.2722L78.4604 21.3017L78.5302 21.23ZM77.8409 22.9293L76.7309 21.8193L76.5894 21.9607L77.6994 23.0707L77.8409 22.9293ZM76.7602 21.89V16.74H76.5602V21.89H76.7602ZM76.7309 16.8107L77.8409 15.7007L77.6994 15.5593L76.5894 16.6693L76.7309 16.8107ZM77.7702 15.73H82.0902V15.53H77.7702V15.73ZM82.0194 15.7007L83.1294 16.8107L83.2709 16.6693L82.1609 15.5593L82.0194 15.7007ZM83.1002 16.74V21.89H83.3002V16.74H83.1002ZM83.1294 21.8193L82.0194 22.9293L82.1609 23.0707L83.2709 21.9607L83.1294 21.8193ZM82.0902 22.9H77.7702V23.1H82.0902V22.9ZM78.8902 21.68H80.9902V21.48H78.8902V21.68ZM81.0609 21.6507L81.4109 21.3007L81.2694 21.1593L80.9194 21.5093L81.0609 21.6507ZM81.4402 21.23V17.4H81.2402V21.23H81.4402ZM81.4089 17.3274L81.0389 16.9774L80.9014 17.1226L81.2714 17.4726L81.4089 17.3274ZM80.9702 16.95H78.8902V17.15H80.9702V16.95ZM78.8204 16.9783L78.4604 17.3283L78.5999 17.4717L78.9599 17.1217L78.8204 16.9783ZM78.4302 17.4V21.23H78.6302V17.4H78.4302ZM78.4604 21.3017L78.8204 21.6517L78.9599 21.5083L78.5999 21.1583L78.4604 21.3017ZM84.3992 23H84.2992V23.1H84.3992V23ZM84.3992 15.63V15.53H84.2992V15.63H84.3992ZM86.2292 15.63L86.3213 15.591L86.2954 15.53H86.2292V15.63ZM88.1292 20.11L88.0372 20.149L88.1292 20.3661L88.2213 20.149L88.1292 20.11ZM90.0292 15.63V15.53H89.963L89.9372 15.591L90.0292 15.63ZM91.8492 15.63H91.9492V15.53H91.8492V15.63ZM91.8492 23V23.1H91.9492V23H91.8492ZM90.1092 23H90.0092V23.1H90.1092V23ZM90.1092 18.95H90.2092L90.0168 18.9118L90.1092 18.95ZM88.5692 22.68V22.78H88.6361L88.6617 22.7182L88.5692 22.68ZM87.6892 22.68L87.5969 22.7184L87.6225 22.78H87.6892V22.68ZM86.1392 18.95L86.2316 18.9116L86.0392 18.95H86.1392ZM86.1392 23V23.1H86.2392V23H86.1392ZM84.4992 23V15.63H84.2992V23H84.4992ZM84.3992 15.73H86.2292V15.53H84.3992V15.73ZM86.1372 15.669L88.0372 20.149L88.2213 20.071L86.3213 15.591L86.1372 15.669ZM88.2213 20.149L90.1213 15.669L89.9372 15.591L88.0372 20.071L88.2213 20.149ZM90.0292 15.73H91.8492V15.53H90.0292V15.73ZM91.7492 15.63V23H91.9492V15.63H91.7492ZM91.8492 22.9H90.1092V23.1H91.8492V22.9ZM90.2092 23V18.95H90.0092V23H90.2092ZM90.0168 18.9118L88.4768 22.6418L88.6617 22.7182L90.2017 18.9882L90.0168 18.9118ZM88.5692 22.58H87.6892V22.78H88.5692V22.58ZM87.7816 22.6416L86.2316 18.9116L86.0469 18.9884L87.5969 22.7184L87.7816 22.6416ZM86.0392 18.95V23H86.2392V18.95H86.0392ZM86.1392 22.9H84.3992V23.1H86.1392V22.9ZM93.2469 23H93.1469V23.1H93.2469V23ZM93.2469 15.63V15.53H93.1469V15.63H93.2469ZM98.8469 15.63H98.9469V15.53H98.8469V15.63ZM98.8469 17.15V17.25H98.9469V17.15H98.8469ZM95.1169 17.15V17.05H95.0169V17.15H95.1169ZM95.1169 18.51H95.0169V18.61H95.1169V18.51ZM98.4769 18.51H98.5769V18.41H98.4769V18.51ZM98.4769 19.92V20.02H98.5769V19.92H98.4769ZM95.1169 19.92V19.82H95.0169V19.92H95.1169ZM95.1169 21.48H95.0169V21.58H95.1169V21.48ZM98.8469 21.48H98.9469V21.38H98.8469V21.48ZM98.8469 23V23.1H98.9469V23H98.8469ZM93.3469 23V15.63H93.1469V23H93.3469ZM93.2469 15.73H98.8469V15.53H93.2469V15.73ZM98.7469 15.63V17.15H98.9469V15.63H98.7469ZM98.8469 17.05H95.1169V17.25H98.8469V17.05ZM95.0169 17.15V18.51H95.2169V17.15H95.0169ZM95.1169 18.61H98.4769V18.41H95.1169V18.61ZM98.3769 18.51V19.92H98.5769V18.51H98.3769ZM98.4769 19.82H95.1169V20.02H98.4769V19.82ZM95.0169 19.92V21.48H95.2169V19.92H95.0169ZM95.1169 21.58H98.8469V21.38H95.1169V21.58ZM98.7469 21.48V23H98.9469V21.48H98.7469ZM98.8469 22.9H93.2469V23.1H98.8469V22.9ZM100.044 23H99.9438V23.1H100.044V23ZM100.044 15.63V15.53H99.9438V15.63H100.044ZM105.064 15.63L105.134 15.559L105.105 15.53H105.064V15.63ZM106.184 16.74H106.284V16.6983L106.254 16.669L106.184 16.74ZM106.184 19.38L106.254 19.4507L106.284 19.4214V19.38H106.184ZM105.344 20.22L105.273 20.1493L105.226 20.196L105.251 20.2574L105.344 20.22ZM106.464 23V23.1H106.612L106.557 22.9626L106.464 23ZM104.584 23L104.49 23.036L104.515 23.1H104.584V23ZM103.614 20.49L103.707 20.454L103.682 20.39H103.614V20.49ZM101.914 20.49V20.39H101.814V20.49H101.914ZM101.914 23V23.1H102.014V23H101.914ZM101.914 19.07H101.814V19.17H101.914V19.07ZM104.014 19.07V19.17H104.055L104.084 19.1407L104.014 19.07ZM104.364 18.72L104.434 18.7907L104.464 18.7614V18.72H104.364ZM104.364 17.4H104.464V17.3586L104.434 17.3293L104.364 17.4ZM104.014 17.05L104.084 16.9793L104.055 16.95H104.014V17.05ZM101.914 17.05V16.95H101.814V17.05H101.914ZM100.144 23V15.63H99.9438V23H100.144ZM100.044 15.73H105.064V15.53H100.044V15.73ZM104.993 15.701L106.113 16.811L106.254 16.669L105.134 15.559L104.993 15.701ZM106.084 16.74V19.38H106.284V16.74H106.084ZM106.113 19.3093L105.273 20.1493L105.414 20.2907L106.254 19.4507L106.113 19.3093ZM105.251 20.2574L106.371 23.0374L106.557 22.9626L105.437 20.1826L105.251 20.2574ZM106.464 22.9H104.584V23.1H106.464V22.9ZM104.677 22.964L103.707 20.454L103.52 20.526L104.49 23.036L104.677 22.964ZM103.614 20.39H101.914V20.59H103.614V20.39ZM101.814 20.49V23H102.014V20.49H101.814ZM101.914 22.9H100.044V23.1H101.914V22.9ZM101.914 19.17H104.014V18.97H101.914V19.17ZM104.084 19.1407L104.434 18.7907L104.293 18.6493L103.943 18.9993L104.084 19.1407ZM104.464 18.72V17.4H104.264V18.72H104.464ZM104.434 17.3293L104.084 16.9793L103.943 17.1207L104.293 17.4707L104.434 17.3293ZM104.014 16.95H101.914V17.15H104.014V16.95ZM101.814 17.05V19.07H102.014V17.05H101.814ZM107.398 23H107.298V23.1H107.398V23ZM107.398 21.5V21.4H107.298V21.5H107.398ZM111.238 21.5V21.6H111.28L111.309 21.5707L111.238 21.5ZM111.588 21.15L111.659 21.2207L111.688 21.1914V21.15H111.588ZM111.588 20.33H111.688V20.2886L111.659 20.2593L111.588 20.33ZM111.238 19.98L111.309 19.9093L111.28 19.88H111.238V19.98ZM108.218 19.98L108.147 20.0504L108.177 20.08H108.218V19.98ZM107.108 18.86H107.008V18.9012L107.037 18.9304L107.108 18.86ZM107.108 16.74L107.037 16.6693L107.008 16.6986V16.74H107.108ZM108.218 15.63V15.53H108.177L108.147 15.5593L108.218 15.63ZM113.038 15.63H113.138V15.53H113.038V15.63ZM113.038 17.13V17.23H113.138V17.13H113.038ZM109.298 17.13V17.03H109.257L109.227 17.0593L109.298 17.13ZM108.948 17.48L108.877 17.4093L108.848 17.4386V17.48H108.948ZM108.948 18.13H108.848V18.1714L108.877 18.2007L108.948 18.13ZM109.298 18.48L109.227 18.5507L109.257 18.58H109.298V18.48ZM112.318 18.48L112.389 18.4093L112.36 18.38H112.318V18.48ZM113.428 19.59H113.528V19.5486L113.499 19.5193L113.428 19.59ZM113.428 21.89L113.499 21.9607L113.528 21.9314V21.89H113.428ZM112.318 23V23.1H112.36L112.389 23.0707L112.318 23ZM107.498 23V21.5H107.298V23H107.498ZM107.398 21.6H111.238V21.4H107.398V21.6ZM111.309 21.5707L111.659 21.2207L111.517 21.0793L111.167 21.4293L111.309 21.5707ZM111.688 21.15V20.33H111.488V21.15H111.688ZM111.659 20.2593L111.309 19.9093L111.167 20.0507L111.517 20.4007L111.659 20.2593ZM111.238 19.88H108.218V20.08H111.238V19.88ZM108.289 19.9096L107.179 18.7896L107.037 18.9304L108.147 20.0504L108.289 19.9096ZM107.208 18.86V16.74H107.008V18.86H107.208ZM107.179 16.8107L108.289 15.7007L108.147 15.5593L107.037 16.6693L107.179 16.8107ZM108.218 15.73H113.038V15.53H108.218V15.73ZM112.938 15.63V17.13H113.138V15.63H112.938ZM113.038 17.03H109.298V17.23H113.038V17.03ZM109.227 17.0593L108.877 17.4093L109.019 17.5507L109.369 17.2007L109.227 17.0593ZM108.848 17.48V18.13H109.048V17.48H108.848ZM108.877 18.2007L109.227 18.5507L109.369 18.4093L109.019 18.0593L108.877 18.2007ZM109.298 18.58H112.318V18.38H109.298V18.58ZM112.247 18.5507L113.357 19.6607L113.499 19.5193L112.389 18.4093L112.247 18.5507ZM113.328 19.59V21.89H113.528V19.59H113.328ZM113.357 21.8193L112.247 22.9293L112.389 23.0707L113.499 21.9607L113.357 21.8193ZM112.318 22.9H107.398V23.1H112.318V22.9Z" fill="black"/>
</svg>
