<svg width="149" height="151" viewBox="0 0 149 151" fill="none" xmlns="http://www.w3.org/2000/svg">
<path d="M7.89749 11.1704H141.102C145.464 11.1704 149 14.7767 149 19.2253V142.945C149 147.394 145.464 151 141.102 151H7.89749C3.53581 151 0 147.394 0 142.945V19.2253C0 14.7767 3.53581 11.1704 7.89749 11.1704Z" fill="#06A589"/>
<mask id="mask0_281_1366" style="mask-type:alpha" maskUnits="userSpaceOnUse" x="0" y="11" width="149" height="140">
<path d="M7.89749 11.1704H141.102C145.464 11.1704 149 14.7767 149 19.2253V142.945C149 147.394 145.464 151 141.102 151H7.89749C3.53581 151 0 147.394 0 142.945V19.2253C0 14.7767 3.53581 11.1704 7.89749 11.1704Z" fill="#06A589"/>
</mask>
<g mask="url(#mask0_281_1366)">
<g opacity="0.25">
<path opacity="0.3" d="M-51.8259 120.424L74.4922 81.0869L-51.8259 128.756V120.424Z" fill="white"/>
<path opacity="0.3" d="M74.4922 81.0869L59.3709 230.631H41.9489L74.4922 81.0869Z" fill="white"/>
<path opacity="0.3" d="M25.7481 230.631H10.5656L74.4922 81.0869L25.7481 230.631Z" fill="white"/>
<path opacity="0.3" d="M74.4923 81.0869L87.8105 230.631H74.4923V81.0869Z" fill="white"/>
<path opacity="0.3" d="M121.656 230.631H107.553L74.497 81.0908L121.656 230.631Z" fill="white"/>
<path opacity="0.3" d="M74.4922 81.0869L-51.8259 167.781V157.758L74.4922 81.0869Z" fill="white"/>
<path opacity="0.3" d="M-8.1465 230.631H-26.5294L74.4922 81.0869L-8.1465 230.631Z" fill="white"/>
<path opacity="0.3" d="M-51.826 196.572V180.326L74.4883 81.0869L-51.826 196.572Z" fill="white"/>
<path opacity="0.3" d="M74.4922 81.0869L-50.2143 230.631H-51.8259V213.756L74.4922 81.0869Z" fill="white"/>
<path opacity="0.3" d="M74.4922 81.0869L-51.8259 147.208V138.384L74.4922 81.0869Z" fill="white"/>
<path opacity="0.3" d="M200.814 120.479V131.38L74.4963 81.0869L200.814 120.479Z" fill="white"/>
<path opacity="0.3" d="M156.529 230.631H140.512L74.4955 81.0869L156.529 230.631Z" fill="white"/>
<path opacity="0.3" d="M74.4963 81.0869L200.814 191.293V206.591L74.4963 81.0869Z" fill="white"/>
<path opacity="0.3" d="M74.4924 81.0869L200.811 230.631H174.844L74.4924 81.0869Z" fill="white"/>
<path opacity="0.3" d="M74.4963 81.0869L200.814 141.832V151.332L74.4963 81.0869Z" fill="white"/>
<path opacity="0.3" d="M200.814 165.485V176.988L74.5002 81.0908L200.814 165.485Z" fill="white"/>
<path opacity="0.3" d="M74.4919 81.111L89.617 10.2456H107.035L74.4919 81.111Z" fill="white"/>
<path opacity="0.3" d="M123.241 10.2456H138.42L74.4971 81.111L123.241 10.2456Z" fill="white"/>
<path opacity="0.3" d="M74.4922 81.111L61.1778 10.2456H74.4922V81.111Z" fill="white"/>
<path opacity="0.3" d="M27.3292 10.2456H41.4321L74.4922 81.1071L27.3292 10.2456Z" fill="white"/>
<path opacity="0.3" d="M74.4963 81.1105L200.814 73.0947V86.2371L74.4963 81.1105Z" fill="white"/>
<path opacity="0.3" d="M157.135 10.2456H175.514L74.4959 81.111L157.135 10.2456Z" fill="white"/>
<path opacity="0.3" d="M200.814 44.3037V60.55L74.4963 81.1108L200.814 44.3037Z" fill="white"/>
<path opacity="0.3" d="M74.4963 81.111L199.203 10.2456H200.814V27.1205L74.4963 81.111Z" fill="white"/>
<path opacity="0.3" d="M74.4963 81.1104L200.814 99.5471V110.878L74.4963 81.1104Z" fill="white"/>
<path opacity="0.3" d="M-7.54548 10.2456H8.47158L74.4922 81.111L-7.54548 10.2456Z" fill="white"/>
<path opacity="0.3" d="M74.4922 81.1105L-51.8259 49.5822V34.2847L74.4922 81.1105Z" fill="white"/>
<path opacity="0.3" d="M74.4922 81.0871L-51.8297 10.2217H-25.8595L74.4922 81.0871Z" fill="white"/>
<path opacity="0.3" d="M74.4922 81.1104L-51.8259 107.426V95.424L74.4922 81.1104Z" fill="white"/>
<path opacity="0.3" d="M-51.826 78.5103V63.8882L74.4883 81.1067L-51.826 78.5103Z" fill="white"/>
</g>
</g>
<path d="M14.2516 17.1328H134.747C139.109 17.1328 142.645 20.7391 142.645 25.1877V136.983C142.645 141.432 139.109 145.038 134.747 145.038H14.2516C9.88988 145.038 6.35403 141.432 6.35403 136.983V25.1877C6.35403 20.7391 9.88988 17.1328 14.2516 17.1328Z" stroke="white" stroke-width="3" stroke-linejoin="round"/>
<path d="M20.9506 17.4686L12.8196 27.1047C12.7709 27.1571 12.7374 27.2222 12.7228 27.2928C12.7082 27.3634 12.7131 27.4367 12.7369 27.5046C12.7607 27.5726 12.8025 27.6325 12.8576 27.6777C12.9128 27.7229 12.9791 27.7516 13.0493 27.7607H38.5793C38.6257 27.7567 38.6707 27.7435 38.712 27.7217C38.7533 27.6999 38.7899 27.67 38.8198 27.6337C38.8497 27.5974 38.8723 27.5555 38.8862 27.5102C38.9001 27.465 38.9051 27.4174 38.9009 27.3702V6.98908C38.9051 6.94187 38.9001 6.8943 38.8862 6.84907C38.8723 6.80384 38.8497 6.76187 38.8198 6.72558C38.7899 6.68928 38.7533 6.65938 38.712 6.6376C38.6707 6.61581 38.6257 6.60256 38.5793 6.59863H13.0493C12.9791 6.60771 12.9128 6.63644 12.8576 6.68164C12.8025 6.72683 12.7607 6.78673 12.7369 6.85467C12.7131 6.92261 12.7082 6.99596 12.7228 7.06655C12.7374 7.13714 12.7709 7.20221 12.8196 7.25457L20.9506 16.9024C21.0179 16.9808 21.055 17.0814 21.055 17.1855C21.055 17.2896 21.0179 17.3903 20.9506 17.4686V17.4686Z" fill="#086352"/>
<path d="M125.219 17.4686L133.35 27.1047C133.398 27.1568 133.432 27.2216 133.447 27.2919C133.461 27.3622 133.457 27.4353 133.433 27.5031C133.41 27.571 133.369 27.6309 133.314 27.6764C133.26 27.7218 133.194 27.751 133.124 27.7607H107.594C107.5 27.7527 107.413 27.7072 107.352 27.634C107.291 27.5608 107.261 27.466 107.268 27.3702V6.98908C107.264 6.94157 107.269 6.89368 107.283 6.84821C107.298 6.80275 107.32 6.76061 107.351 6.72427C107.381 6.68792 107.418 6.65809 107.46 6.63652C107.502 6.61495 107.547 6.60207 107.594 6.59863H133.124C133.194 6.60832 133.26 6.63748 133.314 6.68292C133.369 6.72836 133.41 6.78831 133.433 6.85615C133.457 6.92399 133.461 6.9971 133.447 7.06741C133.432 7.13771 133.398 7.20247 133.35 7.25457L125.219 16.9024C125.151 16.9808 125.114 17.0814 125.114 17.1855C125.114 17.2896 125.151 17.3903 125.219 17.4686V17.4686Z" fill="#086352"/>
<path d="M30.12 0H116.082C116.756 0 117.303 0.557636 117.303 1.24551V24.7619C117.303 25.4498 116.756 26.0074 116.082 26.0074H30.12C29.4456 26.0074 28.8988 25.4498 28.8988 24.7619V1.24551C28.8988 0.557636 29.4456 0 30.12 0Z" fill="#07725D"/>
<path d="M34.2555 10.3521V3.71905H35.9385V6.35605L37.9905 3.71905H39.8535L37.5135 6.60805L39.8535 10.3521H38.0625L36.5685 7.78705L35.9385 8.56105V10.3521H34.2555ZM40.4869 10.3521V3.71905H42.3229L44.5549 7.69705V3.71905H46.1209V10.3521H44.5549L42.3769 6.46405H42.0529V10.3521H40.4869ZM48.1965 10.3521L47.1975 9.35305V4.71805L48.1965 3.71905H52.0845L53.0835 4.71805V9.35305L52.0845 10.3521H48.1965ZM49.2045 9.07405H51.0945L51.4095 8.75905V5.31205L51.0765 4.99705H49.2045L48.8805 5.31205V8.75905L49.2045 9.07405ZM54.84 10.3521L53.436 3.71905H55.371L56.082 9.08305H56.397L57.117 3.71905H58.845L59.565 9.08305H59.88L60.591 3.71905H62.526L61.122 10.3521H58.449L57.981 7.29205L57.513 10.3521H54.84ZM63.1539 10.3521V3.71905H64.9899L67.2219 7.69705V3.71905H68.7879V10.3521H67.2219L65.0439 6.46405H64.7199V10.3521H63.1539ZM72.2594 10.3521V3.71905H73.9424V6.18505H76.2014V3.71905H77.8844V10.3521H76.2014V7.49905H73.9424V10.3521H72.2594ZM79.9602 10.3521L78.9612 9.35305V4.71805L79.9602 3.71905H83.8482L84.8472 4.71805V9.35305L83.8482 10.3521H79.9602ZM80.9682 9.07405H82.8582L83.1732 8.75905V5.31205L82.8402 4.99705H80.9682L80.6442 5.31205V8.75905L80.9682 9.07405ZM85.9264 10.3521V3.71905H87.6094V8.98405H90.6514V10.3521H85.9264ZM91.1495 10.3521V9.08305H91.8875L91.8695 4.98805H91.1495V3.71905H94.2095V4.98805H93.4805L93.4625 9.08305H94.2095V10.3521H91.1495ZM95.1988 10.3521V3.71905H99.5278L100.905 5.09605V8.97505L99.5278 10.3521H95.1988ZM96.8818 9.07405H98.7988L99.2758 8.59705V5.47405L98.7988 4.99705H96.8818V9.07405ZM101.064 10.3521L103.008 3.71905H105.744L107.688 10.3521H105.906L105.573 9.02905H103.179L102.846 10.3521H101.064ZM103.512 7.73305H105.24L104.538 4.98805H104.214L103.512 7.73305ZM109.211 10.3521V8.03005L108.545 7.45405L106.997 3.71905H108.932L109.886 6.77005H110.21L111.164 3.71905H113.099L111.551 7.45405L110.885 8.03005V10.3521H109.211ZM41.9986 21.3521V14.7191H46.3276L47.7046 16.0961V19.9751L46.3276 21.3521H41.9986ZM43.6816 20.0741H45.5986L46.0756 19.5971V16.4741L45.5986 15.9971H43.6816V20.0741ZM48.6959 21.3521V14.7191H53.7359V16.0871H50.3789V17.3111H53.4029V18.5801H50.3789V19.9841H53.7359V21.3521H48.6959ZM54.6997 21.3521V20.0021H58.1557L58.4707 19.6871V18.9491L58.1557 18.6341H55.4377L54.4387 17.6261V15.7181L55.4377 14.7191H59.7757V16.0691H56.4097L56.0947 16.3841V16.9691L56.4097 17.2841H59.1277L60.1267 18.2831V20.3531L59.1277 21.3521H54.6997ZM62.2256 21.3521V16.0871H60.3716V14.7191H65.7626V16.0871H63.9086V21.3521H62.2256ZM66.171 21.3521V20.0831H66.909L66.891 15.9881H66.171V14.7191H69.231V15.9881H68.502L68.484 20.0831H69.231V21.3521H66.171ZM70.2203 21.3521V14.7191H72.0563L74.2883 18.6971V14.7191H75.8543V21.3521H74.2883L72.1103 17.4641H71.7863V21.3521H70.2203ZM76.4809 21.3521L78.4249 14.7191H81.1609L83.1049 21.3521H81.3229L80.9899 20.0291H78.5959L78.2629 21.3521H76.4809ZM78.9289 18.7331H80.6569L79.9549 15.9881H79.6309L78.9289 18.7331ZM84.3126 21.3521V16.0871H82.4586V14.7191H87.8496V16.0871H85.9956V21.3521H84.3126ZM88.2579 21.3521V20.0831H88.9959L88.9779 15.9881H88.2579V14.7191H91.3179V15.9881H90.5889L90.5709 20.0831H91.3179V21.3521H88.2579ZM93.1262 21.3521L92.1272 20.3531V15.7181L93.1262 14.7191H97.0142L98.0132 15.7181V20.3531L97.0142 21.3521H93.1262ZM94.1342 20.0741H96.0242L96.3392 19.7591V16.3121L96.0062 15.9971H94.1342L93.8102 16.3121V19.7591L94.1342 20.0741ZM99.0924 21.3521V14.7191H100.928L103.16 18.6971V14.7191H104.726V21.3521H103.16L100.982 17.4641H100.658V21.3521H99.0924Z" fill="white"/>
<path d="M34.2555 10.3521H34.1555V10.4521H34.2555V10.3521ZM34.2555 3.71905V3.61905H34.1555V3.71905H34.2555ZM35.9385 3.71905H36.0385V3.61905H35.9385V3.71905ZM35.9385 6.35605H35.8385V6.64739L36.0174 6.41746L35.9385 6.35605ZM37.9905 3.71905V3.61905H37.9416L37.9116 3.65764L37.9905 3.71905ZM39.8535 3.71905L39.9312 3.78199L40.0632 3.61905H39.8535V3.71905ZM37.5135 6.60805L37.4358 6.54511L37.3909 6.60055L37.4287 6.66105L37.5135 6.60805ZM39.8535 10.3521V10.4521H40.0339L39.9383 10.2991L39.8535 10.3521ZM38.0625 10.3521L37.9761 10.4024L38.005 10.4521H38.0625V10.3521ZM36.5685 7.78705L36.6549 7.73672L36.5822 7.61184L36.4909 7.72392L36.5685 7.78705ZM35.9385 8.56105L35.8609 8.49792L35.8385 8.5255V8.56105H35.9385ZM35.9385 10.3521V10.4521H36.0385V10.3521H35.9385ZM34.3555 10.3521V3.71905H34.1555V10.3521H34.3555ZM34.2555 3.81905H35.9385V3.61905H34.2555V3.81905ZM35.8385 3.71905V6.35605H36.0385V3.71905H35.8385ZM36.0174 6.41746L38.0694 3.78046L37.9116 3.65764L35.8596 6.29464L36.0174 6.41746ZM37.9905 3.81905H39.8535V3.61905H37.9905V3.81905ZM39.7758 3.65611L37.4358 6.54511L37.5912 6.67099L39.9312 3.78199L39.7758 3.65611ZM37.4287 6.66105L39.7687 10.4051L39.9383 10.2991L37.5983 6.55505L37.4287 6.66105ZM39.8535 10.2521H38.0625V10.4521H39.8535V10.2521ZM38.1489 10.3017L36.6549 7.73672L36.4821 7.83738L37.9761 10.4024L38.1489 10.3017ZM36.4909 7.72392L35.8609 8.49792L36.016 8.62418L36.646 7.85018L36.4909 7.72392ZM35.8385 8.56105V10.3521H36.0385V8.56105H35.8385ZM35.9385 10.2521H34.2555V10.4521H35.9385V10.2521ZM40.4869 10.3521H40.3869V10.4521H40.4869V10.3521ZM40.4869 3.71905V3.61905H40.3869V3.71905H40.4869ZM42.3229 3.71905L42.4101 3.67012L42.3815 3.61905H42.3229V3.71905ZM44.5549 7.69705L44.4677 7.74598L44.6549 8.07964V7.69705H44.5549ZM44.5549 3.71905V3.61905H44.4549V3.71905H44.5549ZM46.1209 3.71905H46.2209V3.61905H46.1209V3.71905ZM46.1209 10.3521V10.4521H46.2209V10.3521H46.1209ZM44.5549 10.3521L44.4677 10.4009L44.4963 10.4521H44.5549V10.3521ZM42.3769 6.46405L42.4642 6.41518L42.4355 6.36405H42.3769V6.46405ZM42.0529 6.46405V6.36405H41.9529V6.46405H42.0529ZM42.0529 10.3521V10.4521H42.1529V10.3521H42.0529ZM40.5869 10.3521V3.71905H40.3869V10.3521H40.5869ZM40.4869 3.81905H42.3229V3.61905H40.4869V3.81905ZM42.2357 3.76798L44.4677 7.74598L44.6421 7.64812L42.4101 3.67012L42.2357 3.76798ZM44.6549 7.69705V3.71905H44.4549V7.69705H44.6549ZM44.5549 3.81905H46.1209V3.61905H44.5549V3.81905ZM46.0209 3.71905V10.3521H46.2209V3.71905H46.0209ZM46.1209 10.2521H44.5549V10.4521H46.1209V10.2521ZM44.6422 10.3032L42.4642 6.41518L42.2897 6.51292L44.4677 10.4009L44.6422 10.3032ZM42.3769 6.36405H42.0529V6.56405H42.3769V6.36405ZM41.9529 6.46405V10.3521H42.1529V6.46405H41.9529ZM42.0529 10.2521H40.4869V10.4521H42.0529V10.2521ZM48.1965 10.3521L48.1258 10.4228L48.1551 10.4521H48.1965V10.3521ZM47.1975 9.35305H47.0975V9.39447L47.1268 9.42376L47.1975 9.35305ZM47.1975 4.71805L47.1268 4.64734L47.0975 4.67663V4.71805H47.1975ZM48.1965 3.71905V3.61905H48.1551L48.1258 3.64834L48.1965 3.71905ZM52.0845 3.71905L52.1553 3.64834L52.126 3.61905H52.0845V3.71905ZM53.0835 4.71805H53.1835V4.67663L53.1543 4.64734L53.0835 4.71805ZM53.0835 9.35305L53.1543 9.42376L53.1835 9.39447V9.35305H53.0835ZM52.0845 10.3521V10.4521H52.126L52.1553 10.4228L52.0845 10.3521ZM49.2045 9.07405L49.1348 9.14575L49.1639 9.17405H49.2045V9.07405ZM51.0945 9.07405V9.17405H51.136L51.1653 9.14476L51.0945 9.07405ZM51.4095 8.75905L51.4803 8.82976L51.5095 8.80047V8.75905H51.4095ZM51.4095 5.31205H51.5095V5.26899L51.4783 5.2394L51.4095 5.31205ZM51.0765 4.99705L51.1453 4.9244L51.1164 4.89705H51.0765V4.99705ZM49.2045 4.99705V4.89705H49.1639L49.1348 4.92535L49.2045 4.99705ZM48.8805 5.31205L48.8108 5.24035L48.7805 5.2698V5.31205H48.8805ZM48.8805 8.75905H48.7805V8.8013L48.8108 8.83075L48.8805 8.75905ZM48.2673 10.2813L47.2683 9.28234L47.1268 9.42376L48.1258 10.4228L48.2673 10.2813ZM47.2975 9.35305V4.71805H47.0975V9.35305H47.2975ZM47.2683 4.78876L48.2673 3.78976L48.1258 3.64834L47.1268 4.64734L47.2683 4.78876ZM48.1965 3.81905H52.0845V3.61905H48.1965V3.81905ZM52.0138 3.78976L53.0128 4.78876L53.1543 4.64734L52.1553 3.64834L52.0138 3.78976ZM52.9835 4.71805V9.35305H53.1835V4.71805H52.9835ZM53.0128 9.28234L52.0138 10.2813L52.1553 10.4228L53.1543 9.42376L53.0128 9.28234ZM52.0845 10.2521H48.1965V10.4521H52.0845V10.2521ZM49.2045 9.17405H51.0945V8.97405H49.2045V9.17405ZM51.1653 9.14476L51.4803 8.82976L51.3388 8.68834L51.0238 9.00334L51.1653 9.14476ZM51.5095 8.75905V5.31205H51.3095V8.75905H51.5095ZM51.4783 5.2394L51.1453 4.9244L51.0078 5.0697L51.3408 5.3847L51.4783 5.2394ZM51.0765 4.89705H49.2045V5.09705H51.0765V4.89705ZM49.1348 4.92535L48.8108 5.24035L48.9503 5.38375L49.2743 5.06875L49.1348 4.92535ZM48.7805 5.31205V8.75905H48.9805V5.31205H48.7805ZM48.8108 8.83075L49.1348 9.14575L49.2743 9.00235L48.9503 8.68735L48.8108 8.83075ZM54.84 10.3521L54.7422 10.3728L54.759 10.4521H54.84V10.3521ZM53.436 3.71905V3.61905H53.3126L53.3382 3.73976L53.436 3.71905ZM55.371 3.71905L55.4702 3.70591L55.4586 3.61905H55.371V3.71905ZM56.082 9.08305L55.9829 9.09619L55.9944 9.18305H56.082V9.08305ZM56.397 9.08305V9.18305H56.4845L56.4961 9.09635L56.397 9.08305ZM57.117 3.71905V3.61905H57.0295L57.0179 3.70575L57.117 3.71905ZM58.845 3.71905L58.9441 3.70575L58.9325 3.61905H58.845V3.71905ZM59.565 9.08305L59.4659 9.09635L59.4776 9.18305H59.565V9.08305ZM59.88 9.08305V9.18305H59.9676L59.9792 9.09619L59.88 9.08305ZM60.591 3.71905V3.61905H60.5034L60.4919 3.70591L60.591 3.71905ZM62.526 3.71905L62.6239 3.73976L62.6494 3.61905H62.526V3.71905ZM61.122 10.3521V10.4521H61.2031L61.2199 10.3728L61.122 10.3521ZM58.449 10.3521L58.3502 10.3672L58.3632 10.4521H58.449V10.3521ZM57.981 7.29205L58.0799 7.27693L57.8822 7.27693L57.981 7.29205ZM57.513 10.3521V10.4521H57.5989L57.6119 10.3672L57.513 10.3521ZM54.9379 10.3313L53.5339 3.69834L53.3382 3.73976L54.7422 10.3728L54.9379 10.3313ZM53.436 3.81905H55.371V3.61905H53.436V3.81905ZM55.2719 3.73219L55.9829 9.09619L56.1812 9.06991L55.4702 3.70591L55.2719 3.73219ZM56.082 9.18305H56.397V8.98305H56.082V9.18305ZM56.4961 9.09635L57.2161 3.73235L57.0179 3.70575L56.2979 9.06975L56.4961 9.09635ZM57.117 3.81905H58.845V3.61905H57.117V3.81905ZM58.7459 3.73235L59.4659 9.09635L59.6641 9.06975L58.9441 3.70575L58.7459 3.73235ZM59.565 9.18305H59.88V8.98305H59.565V9.18305ZM59.9792 9.09619L60.6902 3.73219L60.4919 3.70591L59.7809 9.06991L59.9792 9.09619ZM60.591 3.81905H62.526V3.61905H60.591V3.81905ZM62.4282 3.69834L61.0242 10.3313L61.2199 10.3728L62.6239 3.73976L62.4282 3.69834ZM61.122 10.2521H58.449V10.4521H61.122V10.2521ZM58.5479 10.3369L58.0799 7.27693L57.8822 7.30717L58.3502 10.3672L58.5479 10.3369ZM57.8822 7.27693L57.4142 10.3369L57.6119 10.3672L58.0799 7.30717L57.8822 7.27693ZM57.513 10.2521H54.84V10.4521H57.513V10.2521ZM63.1539 10.3521H63.0539V10.4521H63.1539V10.3521ZM63.1539 3.71905V3.61905H63.0539V3.71905H63.1539ZM64.9899 3.71905L65.0771 3.67012L65.0485 3.61905H64.9899V3.71905ZM67.2219 7.69705L67.1347 7.74598L67.3219 8.07964V7.69705H67.2219ZM67.2219 3.71905V3.61905H67.1219V3.71905H67.2219ZM68.7879 3.71905H68.8879V3.61905H68.7879V3.71905ZM68.7879 10.3521V10.4521H68.8879V10.3521H68.7879ZM67.2219 10.3521L67.1347 10.4009L67.1633 10.4521H67.2219V10.3521ZM65.0439 6.46405L65.1312 6.41518L65.1025 6.36405H65.0439V6.46405ZM64.7199 6.46405V6.36405H64.6199V6.46405H64.7199ZM64.7199 10.3521V10.4521H64.8199V10.3521H64.7199ZM63.2539 10.3521V3.71905H63.0539V10.3521H63.2539ZM63.1539 3.81905H64.9899V3.61905H63.1539V3.81905ZM64.9027 3.76798L67.1347 7.74598L67.3091 7.64812L65.0771 3.67012L64.9027 3.76798ZM67.3219 7.69705V3.71905H67.1219V7.69705H67.3219ZM67.2219 3.81905H68.7879V3.61905H67.2219V3.81905ZM68.6879 3.71905V10.3521H68.8879V3.71905H68.6879ZM68.7879 10.2521H67.2219V10.4521H68.7879V10.2521ZM67.3092 10.3032L65.1312 6.41518L64.9567 6.51292L67.1347 10.4009L67.3092 10.3032ZM65.0439 6.36405H64.7199V6.56405H65.0439V6.36405ZM64.6199 6.46405V10.3521H64.8199V6.46405H64.6199ZM64.7199 10.2521H63.1539V10.4521H64.7199V10.2521ZM72.2594 10.3521H72.1594V10.4521H72.2594V10.3521ZM72.2594 3.71905V3.61905H72.1594V3.71905H72.2594ZM73.9424 3.71905H74.0424V3.61905H73.9424V3.71905ZM73.9424 6.18505H73.8424V6.28505H73.9424V6.18505ZM76.2014 6.18505V6.28505H76.3014V6.18505H76.2014ZM76.2014 3.71905V3.61905H76.1014V3.71905H76.2014ZM77.8844 3.71905H77.9844V3.61905H77.8844V3.71905ZM77.8844 10.3521V10.4521H77.9844V10.3521H77.8844ZM76.2014 10.3521H76.1014V10.4521H76.2014V10.3521ZM76.2014 7.49905H76.3014V7.39905H76.2014V7.49905ZM73.9424 7.49905V7.39905H73.8424V7.49905H73.9424ZM73.9424 10.3521V10.4521H74.0424V10.3521H73.9424ZM72.3594 10.3521V3.71905H72.1594V10.3521H72.3594ZM72.2594 3.81905H73.9424V3.61905H72.2594V3.81905ZM73.8424 3.71905V6.18505H74.0424V3.71905H73.8424ZM73.9424 6.28505H76.2014V6.08505H73.9424V6.28505ZM76.3014 6.18505V3.71905H76.1014V6.18505H76.3014ZM76.2014 3.81905H77.8844V3.61905H76.2014V3.81905ZM77.7844 3.71905V10.3521H77.9844V3.71905H77.7844ZM77.8844 10.2521H76.2014V10.4521H77.8844V10.2521ZM76.3014 10.3521V7.49905H76.1014V10.3521H76.3014ZM76.2014 7.39905H73.9424V7.59905H76.2014V7.39905ZM73.8424 7.49905V10.3521H74.0424V7.49905H73.8424ZM73.9424 10.2521H72.2594V10.4521H73.9424V10.2521ZM79.9602 10.3521L79.8895 10.4228L79.9188 10.4521H79.9602V10.3521ZM78.9612 9.35305H78.8612V9.39447L78.8905 9.42376L78.9612 9.35305ZM78.9612 4.71805L78.8905 4.64734L78.8612 4.67663V4.71805H78.9612ZM79.9602 3.71905V3.61905H79.9188L79.8895 3.64834L79.9602 3.71905ZM83.8482 3.71905L83.9189 3.64834L83.8896 3.61905H83.8482V3.71905ZM84.8472 4.71805H84.9472V4.67663L84.9179 4.64734L84.8472 4.71805ZM84.8472 9.35305L84.9179 9.42376L84.9472 9.39447V9.35305H84.8472ZM83.8482 10.3521V10.4521H83.8896L83.9189 10.4228L83.8482 10.3521ZM80.9682 9.07405L80.8985 9.14575L80.9276 9.17405H80.9682V9.07405ZM82.8582 9.07405V9.17405H82.8996L82.9289 9.14476L82.8582 9.07405ZM83.1732 8.75905L83.2439 8.82976L83.2732 8.80047V8.75905H83.1732ZM83.1732 5.31205H83.2732V5.26899L83.2419 5.2394L83.1732 5.31205ZM82.8402 4.99705L82.9089 4.9244L82.88 4.89705H82.8402V4.99705ZM80.9682 4.99705V4.89705H80.9276L80.8985 4.92535L80.9682 4.99705ZM80.6442 5.31205L80.5745 5.24035L80.5442 5.2698V5.31205H80.6442ZM80.6442 8.75905H80.5442V8.8013L80.5745 8.83075L80.6442 8.75905ZM80.0309 10.2813L79.0319 9.28234L78.8905 9.42376L79.8895 10.4228L80.0309 10.2813ZM79.0612 9.35305V4.71805H78.8612V9.35305H79.0612ZM79.0319 4.78876L80.0309 3.78976L79.8895 3.64834L78.8905 4.64734L79.0319 4.78876ZM79.9602 3.81905H83.8482V3.61905H79.9602V3.81905ZM83.7775 3.78976L84.7765 4.78876L84.9179 4.64734L83.9189 3.64834L83.7775 3.78976ZM84.7472 4.71805V9.35305H84.9472V4.71805H84.7472ZM84.7765 9.28234L83.7775 10.2813L83.9189 10.4228L84.9179 9.42376L84.7765 9.28234ZM83.8482 10.2521H79.9602V10.4521H83.8482V10.2521ZM80.9682 9.17405H82.8582V8.97405H80.9682V9.17405ZM82.9289 9.14476L83.2439 8.82976L83.1025 8.68834L82.7875 9.00334L82.9289 9.14476ZM83.2732 8.75905V5.31205H83.0732V8.75905H83.2732ZM83.2419 5.2394L82.9089 4.9244L82.7715 5.0697L83.1045 5.3847L83.2419 5.2394ZM82.8402 4.89705H80.9682V5.09705H82.8402V4.89705ZM80.8985 4.92535L80.5745 5.24035L80.7139 5.38375L81.0379 5.06875L80.8985 4.92535ZM80.5442 5.31205V8.75905H80.7442V5.31205H80.5442ZM80.5745 8.83075L80.8985 9.14575L81.0379 9.00235L80.7139 8.68735L80.5745 8.83075ZM85.9264 10.3521H85.8264V10.4521H85.9264V10.3521ZM85.9264 3.71905V3.61905H85.8264V3.71905H85.9264ZM87.6094 3.71905H87.7094V3.61905H87.6094V3.71905ZM87.6094 8.98405H87.5094V9.08405H87.6094V8.98405ZM90.6514 8.98405H90.7514V8.88405H90.6514V8.98405ZM90.6514 10.3521V10.4521H90.7514V10.3521H90.6514ZM86.0264 10.3521V3.71905H85.8264V10.3521H86.0264ZM85.9264 3.81905H87.6094V3.61905H85.9264V3.81905ZM87.5094 3.71905V8.98405H87.7094V3.71905H87.5094ZM87.6094 9.08405H90.6514V8.88405H87.6094V9.08405ZM90.5514 8.98405V10.3521H90.7514V8.98405H90.5514ZM90.6514 10.2521H85.9264V10.4521H90.6514V10.2521ZM91.1495 10.3521H91.0495V10.4521H91.1495V10.3521ZM91.1495 9.08305V8.98305H91.0495V9.08305H91.1495ZM91.8875 9.08305V9.18305H91.988L91.9875 9.08261L91.8875 9.08305ZM91.8695 4.98805L91.9695 4.98761L91.9691 4.88805H91.8695V4.98805ZM91.1495 4.98805H91.0495V5.08805H91.1495V4.98805ZM91.1495 3.71905V3.61905H91.0495V3.71905H91.1495ZM94.2095 3.71905H94.3095V3.61905H94.2095V3.71905ZM94.2095 4.98805V5.08805H94.3095V4.98805H94.2095ZM93.4805 4.98805V4.88805H93.381L93.3805 4.98761L93.4805 4.98805ZM93.4625 9.08305L93.3625 9.08261L93.3621 9.18305H93.4625V9.08305ZM94.2095 9.08305H94.3095V8.98305H94.2095V9.08305ZM94.2095 10.3521V10.4521H94.3095V10.3521H94.2095ZM91.2495 10.3521V9.08305H91.0495V10.3521H91.2495ZM91.1495 9.18305H91.8875V8.98305H91.1495V9.18305ZM91.9875 9.08261L91.9695 4.98761L91.7695 4.98849L91.7875 9.08349L91.9875 9.08261ZM91.8695 4.88805H91.1495V5.08805H91.8695V4.88805ZM91.2495 4.98805V3.71905H91.0495V4.98805H91.2495ZM91.1495 3.81905H94.2095V3.61905H91.1495V3.81905ZM94.1095 3.71905V4.98805H94.3095V3.71905H94.1095ZM94.2095 4.88805H93.4805V5.08805H94.2095V4.88805ZM93.3805 4.98761L93.3625 9.08261L93.5625 9.08349L93.5805 4.98849L93.3805 4.98761ZM93.4625 9.18305H94.2095V8.98305H93.4625V9.18305ZM94.1095 9.08305V10.3521H94.3095V9.08305H94.1095ZM94.2095 10.2521H91.1495V10.4521H94.2095V10.2521ZM95.1988 10.3521H95.0988V10.4521H95.1988V10.3521ZM95.1988 3.71905V3.61905H95.0988V3.71905H95.1988ZM99.5278 3.71905L99.5985 3.64834L99.5693 3.61905H99.5278V3.71905ZM100.905 5.09605H101.005V5.05463L100.976 5.02534L100.905 5.09605ZM100.905 8.97505L100.976 9.04576L101.005 9.01647V8.97505H100.905ZM99.5278 10.3521V10.4521H99.5693L99.5985 10.4228L99.5278 10.3521ZM96.8818 9.07405H96.7818V9.17405H96.8818V9.07405ZM98.7988 9.07405V9.17405H98.8403L98.8695 9.14476L98.7988 9.07405ZM99.2758 8.59705L99.3465 8.66776L99.3758 8.63847V8.59705H99.2758ZM99.2758 5.47405H99.3758V5.43263L99.3465 5.40334L99.2758 5.47405ZM98.7988 4.99705L98.8695 4.92634L98.8403 4.89705H98.7988V4.99705ZM96.8818 4.99705V4.89705H96.7818V4.99705H96.8818ZM95.2988 10.3521V3.71905H95.0988V10.3521H95.2988ZM95.1988 3.81905H99.5278V3.61905H95.1988V3.81905ZM99.4571 3.78976L100.834 5.16676L100.976 5.02534L99.5985 3.64834L99.4571 3.78976ZM100.805 5.09605V8.97505H101.005V5.09605H100.805ZM100.834 8.90434L99.4571 10.2813L99.5985 10.4228L100.976 9.04576L100.834 8.90434ZM99.5278 10.2521H95.1988V10.4521H99.5278V10.2521ZM96.8818 9.17405H98.7988V8.97405H96.8818V9.17405ZM98.8695 9.14476L99.3465 8.66776L99.2051 8.52634L98.7281 9.00334L98.8695 9.14476ZM99.3758 8.59705V5.47405H99.1758V8.59705H99.3758ZM99.3465 5.40334L98.8695 4.92634L98.7281 5.06776L99.2051 5.54476L99.3465 5.40334ZM98.7988 4.89705H96.8818V5.09705H98.7988V4.89705ZM96.7818 4.99705V9.07405H96.9818V4.99705H96.7818ZM101.064 10.3521L100.968 10.3239L100.93 10.4521H101.064V10.3521ZM103.008 3.71905V3.61905H102.933L102.912 3.69093L103.008 3.71905ZM105.744 3.71905L105.84 3.69093L105.819 3.61905H105.744V3.71905ZM107.688 10.3521V10.4521H107.821L107.784 10.3239L107.688 10.3521ZM105.906 10.3521L105.809 10.3765L105.828 10.4521H105.906V10.3521ZM105.573 9.02905L105.67 9.00464L105.651 8.92905H105.573V9.02905ZM103.179 9.02905V8.92905H103.101L103.082 9.00464L103.179 9.02905ZM102.846 10.3521V10.4521H102.924L102.943 10.3765L102.846 10.3521ZM103.512 7.73305L103.415 7.70827L103.383 7.83305H103.512V7.73305ZM105.24 7.73305V7.83305H105.369L105.337 7.70827L105.24 7.73305ZM104.538 4.98805L104.635 4.96327L104.616 4.88805H104.538V4.98805ZM104.214 4.98805V4.88805H104.136L104.117 4.96327L104.214 4.98805ZM101.16 10.3802L103.104 3.74718L102.912 3.69093L100.968 10.3239L101.16 10.3802ZM103.008 3.81905H105.744V3.61905H103.008V3.81905ZM105.648 3.74718L107.592 10.3802L107.784 10.3239L105.84 3.69093L105.648 3.74718ZM107.688 10.2521H105.906V10.4521H107.688V10.2521ZM106.003 10.3276L105.67 9.00464L105.476 9.05346L105.809 10.3765L106.003 10.3276ZM105.573 8.92905H103.179V9.12905H105.573V8.92905ZM103.082 9.00464L102.749 10.3276L102.943 10.3765L103.276 9.05346L103.082 9.00464ZM102.846 10.2521H101.064V10.4521H102.846V10.2521ZM103.512 7.83305H105.24V7.63305H103.512V7.83305ZM105.337 7.70827L104.635 4.96327L104.441 5.01283L105.143 7.75783L105.337 7.70827ZM104.538 4.88805H104.214V5.08805H104.538V4.88805ZM104.117 4.96327L103.415 7.70827L103.609 7.75783L104.311 5.01283L104.117 4.96327ZM109.211 10.3521H109.111V10.4521H109.211V10.3521ZM109.211 8.03005H109.311V7.98433L109.276 7.95441L109.211 8.03005ZM108.545 7.45405L108.452 7.49234L108.461 7.5142L108.479 7.52969L108.545 7.45405ZM106.997 3.71905V3.61905H106.847L106.904 3.75734L106.997 3.71905ZM108.932 3.71905L109.027 3.68921L109.005 3.61905H108.932V3.71905ZM109.886 6.77005L109.79 6.79989L109.812 6.87005H109.886V6.77005ZM110.21 6.77005V6.87005H110.283L110.305 6.79989L110.21 6.77005ZM111.164 3.71905V3.61905H111.09L111.068 3.68921L111.164 3.71905ZM113.099 3.71905L113.191 3.75734L113.248 3.61905H113.099V3.71905ZM111.551 7.45405L111.616 7.52969L111.634 7.5142L111.643 7.49234L111.551 7.45405ZM110.885 8.03005L110.819 7.95441L110.785 7.98433V8.03005H110.885ZM110.885 10.3521V10.4521H110.985V10.3521H110.885ZM109.311 10.3521V8.03005H109.111V10.3521H109.311ZM109.276 7.95441L108.61 7.37841L108.479 7.52969L109.145 8.10569L109.276 7.95441ZM108.637 7.41576L107.089 3.68076L106.904 3.75734L108.452 7.49234L108.637 7.41576ZM106.997 3.81905H108.932V3.61905H106.997V3.81905ZM108.836 3.74889L109.79 6.79989L109.981 6.74021L109.027 3.68921L108.836 3.74889ZM109.886 6.87005H110.21V6.67005H109.886V6.87005ZM110.305 6.79989L111.259 3.74889L111.068 3.68921L110.114 6.74021L110.305 6.79989ZM111.164 3.81905H113.099V3.61905H111.164V3.81905ZM113.006 3.68076L111.458 7.41576L111.643 7.49234L113.191 3.75734L113.006 3.68076ZM111.485 7.37841L110.819 7.95441L110.95 8.10569L111.616 7.52969L111.485 7.37841ZM110.785 8.03005V10.3521H110.985V8.03005H110.785ZM110.885 10.2521H109.211V10.4521H110.885V10.2521ZM41.9986 21.3521H41.8986V21.4521H41.9986V21.3521ZM41.9986 14.7191V14.6191H41.8986V14.7191H41.9986ZM46.3276 14.7191L46.3984 14.6483L46.3691 14.6191H46.3276V14.7191ZM47.7046 16.0961H47.8046V16.0546L47.7754 16.0253L47.7046 16.0961ZM47.7046 19.9751L47.7754 20.0458L47.8046 20.0165V19.9751H47.7046ZM46.3276 21.3521V21.4521H46.3691L46.3984 21.4228L46.3276 21.3521ZM43.6816 20.0741H43.5816V20.1741H43.6816V20.0741ZM45.5986 20.0741V20.1741H45.6401L45.6694 20.1448L45.5986 20.0741ZM46.0756 19.5971L46.1464 19.6678L46.1756 19.6385V19.5971H46.0756ZM46.0756 16.4741H46.1756V16.4326L46.1464 16.4033L46.0756 16.4741ZM45.5986 15.9971L45.6694 15.9263L45.6401 15.8971H45.5986V15.9971ZM43.6816 15.9971V15.8971H43.5816V15.9971H43.6816ZM42.0986 21.3521V14.7191H41.8986V21.3521H42.0986ZM41.9986 14.8191H46.3276V14.6191H41.9986V14.8191ZM46.2569 14.7898L47.6339 16.1668L47.7754 16.0253L46.3984 14.6483L46.2569 14.7898ZM47.6046 16.0961V19.9751H47.8046V16.0961H47.6046ZM47.6339 19.9043L46.2569 21.2813L46.3984 21.4228L47.7754 20.0458L47.6339 19.9043ZM46.3276 21.2521H41.9986V21.4521H46.3276V21.2521ZM43.6816 20.1741H45.5986V19.9741H43.6816V20.1741ZM45.6694 20.1448L46.1464 19.6678L46.0049 19.5263L45.5279 20.0033L45.6694 20.1448ZM46.1756 19.5971V16.4741H45.9756V19.5971H46.1756ZM46.1464 16.4033L45.6694 15.9263L45.5279 16.0678L46.0049 16.5448L46.1464 16.4033ZM45.5986 15.8971H43.6816V16.0971H45.5986V15.8971ZM43.5816 15.9971V20.0741H43.7816V15.9971H43.5816ZM48.6959 21.3521H48.5959V21.4521H48.6959V21.3521ZM48.6959 14.7191V14.6191H48.5959V14.7191H48.6959ZM53.7359 14.7191H53.8359V14.6191H53.7359V14.7191ZM53.7359 16.0871V16.1871H53.8359V16.0871H53.7359ZM50.3789 16.0871V15.9871H50.2789V16.0871H50.3789ZM50.3789 17.3111H50.2789V17.4111H50.3789V17.3111ZM53.4029 17.3111H53.5029V17.2111H53.4029V17.3111ZM53.4029 18.5801V18.6801H53.5029V18.5801H53.4029ZM50.3789 18.5801V18.4801H50.2789V18.5801H50.3789ZM50.3789 19.9841H50.2789V20.0841H50.3789V19.9841ZM53.7359 19.9841H53.8359V19.8841H53.7359V19.9841ZM53.7359 21.3521V21.4521H53.8359V21.3521H53.7359ZM48.7959 21.3521V14.7191H48.5959V21.3521H48.7959ZM48.6959 14.8191H53.7359V14.6191H48.6959V14.8191ZM53.6359 14.7191V16.0871H53.8359V14.7191H53.6359ZM53.7359 15.9871H50.3789V16.1871H53.7359V15.9871ZM50.2789 16.0871V17.3111H50.4789V16.0871H50.2789ZM50.3789 17.4111H53.4029V17.2111H50.3789V17.4111ZM53.3029 17.3111V18.5801H53.5029V17.3111H53.3029ZM53.4029 18.4801H50.3789V18.6801H53.4029V18.4801ZM50.2789 18.5801V19.9841H50.4789V18.5801H50.2789ZM50.3789 20.0841H53.7359V19.8841H50.3789V20.0841ZM53.6359 19.9841V21.3521H53.8359V19.9841H53.6359ZM53.7359 21.2521H48.6959V21.4521H53.7359V21.2521ZM54.6997 21.3521H54.5997V21.4521H54.6997V21.3521ZM54.6997 20.0021V19.9021H54.5997V20.0021H54.6997ZM58.1557 20.0021V20.1021H58.1971L58.2264 20.0728L58.1557 20.0021ZM58.4707 19.6871L58.5414 19.7578L58.5707 19.7285V19.6871H58.4707ZM58.4707 18.9491H58.5707V18.9076L58.5414 18.8783L58.4707 18.9491ZM58.1557 18.6341L58.2264 18.5633L58.1971 18.5341H58.1557V18.6341ZM55.4377 18.6341L55.3667 18.7044L55.396 18.7341H55.4377V18.6341ZM54.4387 17.6261H54.3387V17.6672L54.3677 17.6964L54.4387 17.6261ZM54.4387 15.7181L54.368 15.6473L54.3387 15.6766V15.7181H54.4387ZM55.4377 14.7191V14.6191H55.3963L55.367 14.6483L55.4377 14.7191ZM59.7757 14.7191H59.8757V14.6191H59.7757V14.7191ZM59.7757 16.0691V16.1691H59.8757V16.0691H59.7757ZM56.4097 16.0691V15.9691H56.3683L56.339 15.9983L56.4097 16.0691ZM56.0947 16.3841L56.024 16.3133L55.9947 16.3426V16.3841H56.0947ZM56.0947 16.9691H55.9947V17.0105L56.024 17.0398L56.0947 16.9691ZM56.4097 17.2841L56.339 17.3548L56.3683 17.3841H56.4097V17.2841ZM59.1277 17.2841L59.1984 17.2133L59.1691 17.1841H59.1277V17.2841ZM60.1267 18.2831H60.2267V18.2416L60.1974 18.2123L60.1267 18.2831ZM60.1267 20.3531L60.1974 20.4238L60.2267 20.3945V20.3531H60.1267ZM59.1277 21.3521V21.4521H59.1691L59.1984 21.4228L59.1277 21.3521ZM54.7997 21.3521V20.0021H54.5997V21.3521H54.7997ZM54.6997 20.1021H58.1557V19.9021H54.6997V20.1021ZM58.2264 20.0728L58.5414 19.7578L58.4 19.6163L58.085 19.9313L58.2264 20.0728ZM58.5707 19.6871V18.9491H58.3707V19.6871H58.5707ZM58.5414 18.8783L58.2264 18.5633L58.085 18.7048L58.4 19.0198L58.5414 18.8783ZM58.1557 18.5341H55.4377V18.7341H58.1557V18.5341ZM55.5087 18.5637L54.5097 17.5557L54.3677 17.6964L55.3667 18.7044L55.5087 18.5637ZM54.5387 17.6261V15.7181H54.3387V17.6261H54.5387ZM54.5094 15.7888L55.5084 14.7898L55.367 14.6483L54.368 15.6473L54.5094 15.7888ZM55.4377 14.8191H59.7757V14.6191H55.4377V14.8191ZM59.6757 14.7191V16.0691H59.8757V14.7191H59.6757ZM59.7757 15.9691H56.4097V16.1691H59.7757V15.9691ZM56.339 15.9983L56.024 16.3133L56.1654 16.4548L56.4804 16.1398L56.339 15.9983ZM55.9947 16.3841V16.9691H56.1947V16.3841H55.9947ZM56.024 17.0398L56.339 17.3548L56.4804 17.2133L56.1654 16.8983L56.024 17.0398ZM56.4097 17.3841H59.1277V17.1841H56.4097V17.3841ZM59.057 17.3548L60.056 18.3538L60.1974 18.2123L59.1984 17.2133L59.057 17.3548ZM60.0267 18.2831V20.3531H60.2267V18.2831H60.0267ZM60.056 20.2823L59.057 21.2813L59.1984 21.4228L60.1974 20.4238L60.056 20.2823ZM59.1277 21.2521H54.6997V21.4521H59.1277V21.2521ZM62.2256 21.3521H62.1256V21.4521H62.2256V21.3521ZM62.2256 16.0871H62.3256V15.9871H62.2256V16.0871ZM60.3716 16.0871H60.2716V16.1871H60.3716V16.0871ZM60.3716 14.7191V14.6191H60.2716V14.7191H60.3716ZM65.7626 14.7191H65.8626V14.6191H65.7626V14.7191ZM65.7626 16.0871V16.1871H65.8626V16.0871H65.7626ZM63.9086 16.0871V15.9871H63.8086V16.0871H63.9086ZM63.9086 21.3521V21.4521H64.0086V21.3521H63.9086ZM62.3256 21.3521V16.0871H62.1256V21.3521H62.3256ZM62.2256 15.9871H60.3716V16.1871H62.2256V15.9871ZM60.4716 16.0871V14.7191H60.2716V16.0871H60.4716ZM60.3716 14.8191H65.7626V14.6191H60.3716V14.8191ZM65.6626 14.7191V16.0871H65.8626V14.7191H65.6626ZM65.7626 15.9871H63.9086V16.1871H65.7626V15.9871ZM63.8086 16.0871V21.3521H64.0086V16.0871H63.8086ZM63.9086 21.2521H62.2256V21.4521H63.9086V21.2521ZM66.171 21.3521H66.071V21.4521H66.171V21.3521ZM66.171 20.0831V19.9831H66.071V20.0831H66.171ZM66.909 20.0831V20.1831H67.0095L67.009 20.0826L66.909 20.0831ZM66.891 15.9881L66.991 15.9876L66.9906 15.8881H66.891V15.9881ZM66.171 15.9881H66.071V16.0881H66.171V15.9881ZM66.171 14.7191V14.6191H66.071V14.7191H66.171ZM69.231 14.7191H69.331V14.6191H69.231V14.7191ZM69.231 15.9881V16.0881H69.331V15.9881H69.231ZM68.502 15.9881V15.8881H68.4025L68.402 15.9876L68.502 15.9881ZM68.484 20.0831L68.384 20.0826L68.3836 20.1831H68.484V20.0831ZM69.231 20.0831H69.331V19.9831H69.231V20.0831ZM69.231 21.3521V21.4521H69.331V21.3521H69.231ZM66.271 21.3521V20.0831H66.071V21.3521H66.271ZM66.171 20.1831H66.909V19.9831H66.171V20.1831ZM67.009 20.0826L66.991 15.9876L66.791 15.9885L66.809 20.0835L67.009 20.0826ZM66.891 15.8881H66.171V16.0881H66.891V15.8881ZM66.271 15.9881V14.7191H66.071V15.9881H66.271ZM66.171 14.8191H69.231V14.6191H66.171V14.8191ZM69.131 14.7191V15.9881H69.331V14.7191H69.131ZM69.231 15.8881H68.502V16.0881H69.231V15.8881ZM68.402 15.9876L68.384 20.0826L68.584 20.0835L68.602 15.9885L68.402 15.9876ZM68.484 20.1831H69.231V19.9831H68.484V20.1831ZM69.131 20.0831V21.3521H69.331V20.0831H69.131ZM69.231 21.2521H66.171V21.4521H69.231V21.2521ZM70.2203 21.3521H70.1203V21.4521H70.2203V21.3521ZM70.2203 14.7191V14.6191H70.1203V14.7191H70.2203ZM72.0563 14.7191L72.1435 14.6701L72.1149 14.6191H72.0563V14.7191ZM74.2883 18.6971L74.2011 18.746L74.3883 19.0796V18.6971H74.2883ZM74.2883 14.7191V14.6191H74.1883V14.7191H74.2883ZM75.8543 14.7191H75.9543V14.6191H75.8543V14.7191ZM75.8543 21.3521V21.4521H75.9543V21.3521H75.8543ZM74.2883 21.3521L74.2011 21.4009L74.2297 21.4521H74.2883V21.3521ZM72.1103 17.4641L72.1976 17.4152L72.1689 17.3641H72.1103V17.4641ZM71.7863 17.4641V17.3641H71.6863V17.4641H71.7863ZM71.7863 21.3521V21.4521H71.8863V21.3521H71.7863ZM70.3203 21.3521V14.7191H70.1203V21.3521H70.3203ZM70.2203 14.8191H72.0563V14.6191H70.2203V14.8191ZM71.9691 14.768L74.2011 18.746L74.3755 18.6481L72.1435 14.6701L71.9691 14.768ZM74.3883 18.6971V14.7191H74.1883V18.6971H74.3883ZM74.2883 14.8191H75.8543V14.6191H74.2883V14.8191ZM75.7543 14.7191V21.3521H75.9543V14.7191H75.7543ZM75.8543 21.2521H74.2883V21.4521H75.8543V21.2521ZM74.3756 21.3032L72.1976 17.4152L72.0231 17.5129L74.2011 21.4009L74.3756 21.3032ZM72.1103 17.3641H71.7863V17.5641H72.1103V17.3641ZM71.6863 17.4641V21.3521H71.8863V17.4641H71.6863ZM71.7863 21.2521H70.2203V21.4521H71.7863V21.2521ZM76.4809 21.3521L76.385 21.3239L76.3474 21.4521H76.4809V21.3521ZM78.4249 14.7191V14.6191H78.35L78.329 14.6909L78.4249 14.7191ZM81.1609 14.7191L81.2569 14.6909L81.2358 14.6191H81.1609V14.7191ZM83.1049 21.3521V21.4521H83.2385L83.2009 21.3239L83.1049 21.3521ZM81.3229 21.3521L81.226 21.3765L81.245 21.4521H81.3229V21.3521ZM80.9899 20.0291L81.0869 20.0046L81.0679 19.9291H80.9899V20.0291ZM78.5959 20.0291V19.9291H78.518L78.499 20.0046L78.5959 20.0291ZM78.2629 21.3521V21.4521H78.3409L78.3599 21.3765L78.2629 21.3521ZM78.9289 18.7331L78.8321 18.7083L78.8002 18.8331H78.9289V18.7331ZM80.6569 18.7331V18.8331H80.7857L80.7538 18.7083L80.6569 18.7331ZM79.9549 15.9881L80.0518 15.9633L80.0326 15.8881H79.9549V15.9881ZM79.6309 15.9881V15.8881H79.5533L79.5341 15.9633L79.6309 15.9881ZM76.5769 21.3802L78.5209 14.7472L78.329 14.6909L76.385 21.3239L76.5769 21.3802ZM78.4249 14.8191H81.1609V14.6191H78.4249V14.8191ZM81.065 14.7472L83.009 21.3802L83.2009 21.3239L81.2569 14.6909L81.065 14.7472ZM83.1049 21.2521H81.3229V21.4521H83.1049V21.2521ZM81.4199 21.3276L81.0869 20.0046L80.893 20.0535L81.226 21.3765L81.4199 21.3276ZM80.9899 19.9291H78.5959V20.1291H80.9899V19.9291ZM78.499 20.0046L78.166 21.3276L78.3599 21.3765L78.6929 20.0535L78.499 20.0046ZM78.2629 21.2521H76.4809V21.4521H78.2629V21.2521ZM78.9289 18.8331H80.6569V18.6331H78.9289V18.8331ZM80.7538 18.7083L80.0518 15.9633L79.8581 16.0128L80.5601 18.7578L80.7538 18.7083ZM79.9549 15.8881H79.6309V16.0881H79.9549V15.8881ZM79.5341 15.9633L78.8321 18.7083L79.0258 18.7578L79.7278 16.0128L79.5341 15.9633ZM84.3126 21.3521H84.2126V21.4521H84.3126V21.3521ZM84.3126 16.0871H84.4126V15.9871H84.3126V16.0871ZM82.4586 16.0871H82.3586V16.1871H82.4586V16.0871ZM82.4586 14.7191V14.6191H82.3586V14.7191H82.4586ZM87.8496 14.7191H87.9496V14.6191H87.8496V14.7191ZM87.8496 16.0871V16.1871H87.9496V16.0871H87.8496ZM85.9956 16.0871V15.9871H85.8956V16.0871H85.9956ZM85.9956 21.3521V21.4521H86.0956V21.3521H85.9956ZM84.4126 21.3521V16.0871H84.2126V21.3521H84.4126ZM84.3126 15.9871H82.4586V16.1871H84.3126V15.9871ZM82.5586 16.0871V14.7191H82.3586V16.0871H82.5586ZM82.4586 14.8191H87.8496V14.6191H82.4586V14.8191ZM87.7496 14.7191V16.0871H87.9496V14.7191H87.7496ZM87.8496 15.9871H85.9956V16.1871H87.8496V15.9871ZM85.8956 16.0871V21.3521H86.0956V16.0871H85.8956ZM85.9956 21.2521H84.3126V21.4521H85.9956V21.2521ZM88.2579 21.3521H88.1579V21.4521H88.2579V21.3521ZM88.2579 20.0831V19.9831H88.1579V20.0831H88.2579ZM88.9959 20.0831V20.1831H89.0964L89.0959 20.0826L88.9959 20.0831ZM88.9779 15.9881L89.0779 15.9876L89.0775 15.8881H88.9779V15.9881ZM88.2579 15.9881H88.1579V16.0881H88.2579V15.9881ZM88.2579 14.7191V14.6191H88.1579V14.7191H88.2579ZM91.3179 14.7191H91.4179V14.6191H91.3179V14.7191ZM91.3179 15.9881V16.0881H91.4179V15.9881H91.3179ZM90.5889 15.9881V15.8881H90.4894L90.4889 15.9876L90.5889 15.9881ZM90.5709 20.0831L90.4709 20.0826L90.4705 20.1831H90.5709V20.0831ZM91.3179 20.0831H91.4179V19.9831H91.3179V20.0831ZM91.3179 21.3521V21.4521H91.4179V21.3521H91.3179ZM88.3579 21.3521V20.0831H88.1579V21.3521H88.3579ZM88.2579 20.1831H88.9959V19.9831H88.2579V20.1831ZM89.0959 20.0826L89.0779 15.9876L88.8779 15.9885L88.8959 20.0835L89.0959 20.0826ZM88.9779 15.8881H88.2579V16.0881H88.9779V15.8881ZM88.3579 15.9881V14.7191H88.1579V15.9881H88.3579ZM88.2579 14.8191H91.3179V14.6191H88.2579V14.8191ZM91.2179 14.7191V15.9881H91.4179V14.7191H91.2179ZM91.3179 15.8881H90.5889V16.0881H91.3179V15.8881ZM90.4889 15.9876L90.4709 20.0826L90.6709 20.0835L90.6889 15.9885L90.4889 15.9876ZM90.5709 20.1831H91.3179V19.9831H90.5709V20.1831ZM91.2179 20.0831V21.3521H91.4179V20.0831H91.2179ZM91.3179 21.2521H88.2579V21.4521H91.3179V21.2521ZM93.1262 21.3521L93.0555 21.4228L93.0848 21.4521H93.1262V21.3521ZM92.1272 20.3531H92.0272V20.3945L92.0565 20.4238L92.1272 20.3531ZM92.1272 15.7181L92.0565 15.6473L92.0272 15.6766V15.7181H92.1272ZM93.1262 14.7191V14.6191H93.0848L93.0555 14.6483L93.1262 14.7191ZM97.0142 14.7191L97.0849 14.6483L97.0557 14.6191H97.0142V14.7191ZM98.0132 15.7181H98.1132V15.6766L98.0839 15.6473L98.0132 15.7181ZM98.0132 20.3531L98.0839 20.4238L98.1132 20.3945V20.3531H98.0132ZM97.0142 21.3521V21.4521H97.0557L97.0849 21.4228L97.0142 21.3521ZM94.1342 20.0741L94.0645 20.1458L94.0936 20.1741H94.1342V20.0741ZM96.0242 20.0741V20.1741H96.0657L96.0949 20.1448L96.0242 20.0741ZM96.3392 19.7591L96.4099 19.8298L96.4392 19.8005V19.7591H96.3392ZM96.3392 16.3121H96.4392V16.269L96.408 16.2394L96.3392 16.3121ZM96.0062 15.9971L96.075 15.9244L96.046 15.8971H96.0062V15.9971ZM94.1342 15.9971V15.8971H94.0936L94.0645 15.9254L94.1342 15.9971ZM93.8102 16.3121L93.7405 16.2404L93.7102 16.2698V16.3121H93.8102ZM93.8102 19.7591H93.7102V19.8013L93.7405 19.8308L93.8102 19.7591ZM93.1969 21.2813L92.1979 20.2823L92.0565 20.4238L93.0555 21.4228L93.1969 21.2813ZM92.2272 20.3531V15.7181H92.0272V20.3531H92.2272ZM92.1979 15.7888L93.1969 14.7898L93.0555 14.6483L92.0565 15.6473L92.1979 15.7888ZM93.1262 14.8191H97.0142V14.6191H93.1262V14.8191ZM96.9435 14.7898L97.9425 15.7888L98.0839 15.6473L97.0849 14.6483L96.9435 14.7898ZM97.9132 15.7181V20.3531H98.1132V15.7181H97.9132ZM97.9425 20.2823L96.9435 21.2813L97.0849 21.4228L98.0839 20.4238L97.9425 20.2823ZM97.0142 21.2521H93.1262V21.4521H97.0142V21.2521ZM94.1342 20.1741H96.0242V19.9741H94.1342V20.1741ZM96.0949 20.1448L96.4099 19.8298L96.2685 19.6883L95.9535 20.0033L96.0949 20.1448ZM96.4392 19.7591V16.3121H96.2392V19.7591H96.4392ZM96.408 16.2394L96.075 15.9244L95.9375 16.0697L96.2705 16.3847L96.408 16.2394ZM96.0062 15.8971H94.1342V16.0971H96.0062V15.8971ZM94.0645 15.9254L93.7405 16.2404L93.8799 16.3838L94.2039 16.0687L94.0645 15.9254ZM93.7102 16.3121V19.7591H93.9102V16.3121H93.7102ZM93.7405 19.8308L94.0645 20.1458L94.2039 20.0024L93.8799 19.6874L93.7405 19.8308ZM99.0924 21.3521H98.9924V21.4521H99.0924V21.3521ZM99.0924 14.7191V14.6191H98.9924V14.7191H99.0924ZM100.928 14.7191L101.016 14.6701L100.987 14.6191H100.928V14.7191ZM103.16 18.6971L103.073 18.746L103.26 19.0796V18.6971H103.16ZM103.16 14.7191V14.6191H103.06V14.7191H103.16ZM104.726 14.7191H104.826V14.6191H104.726V14.7191ZM104.726 21.3521V21.4521H104.826V21.3521H104.726ZM103.16 21.3521L103.073 21.4009L103.102 21.4521H103.16V21.3521ZM100.982 17.4641L101.07 17.4152L101.041 17.3641H100.982V17.4641ZM100.658 17.4641V17.3641H100.558V17.4641H100.658ZM100.658 21.3521V21.4521H100.758V21.3521H100.658ZM99.1924 21.3521V14.7191H98.9924V21.3521H99.1924ZM99.0924 14.8191H100.928V14.6191H99.0924V14.8191ZM100.841 14.768L103.073 18.746L103.248 18.6481L101.016 14.6701L100.841 14.768ZM103.26 18.6971V14.7191H103.06V18.6971H103.26ZM103.16 14.8191H104.726V14.6191H103.16V14.8191ZM104.626 14.7191V21.3521H104.826V14.7191H104.626ZM104.726 21.2521H103.16V21.4521H104.726V21.2521ZM103.248 21.3032L101.07 17.4152L100.895 17.5129L103.073 21.4009L103.248 21.3032ZM100.982 17.3641H100.658V17.5641H100.982V17.3641ZM100.558 17.4641V21.3521H100.758V17.4641H100.558ZM100.658 21.2521H99.0924V21.4521H100.658V21.2521Z" fill="black"/>
</svg>
