<svg width="149" height="151" viewBox="0 0 149 151" fill="none" xmlns="http://www.w3.org/2000/svg">
<path d="M7.89752 11.1709H141.102C145.464 11.1709 149 14.7772 149 19.2257V142.945C149 147.394 145.464 151 141.102 151H7.89752C3.53584 151 0 147.394 0 142.945V19.2257C0 14.7772 3.53584 11.1709 7.89752 11.1709Z" fill="#F48244"/>
<mask id="mask0_281_1452" style="mask-type:alpha" maskUnits="userSpaceOnUse" x="0" y="11" width="149" height="141">
<path d="M7.89752 11.1709H141.102C145.464 11.1709 149 14.7772 149 19.2257V142.945C149 147.394 145.464 151 141.102 151H7.89752C3.53584 151 0 147.394 0 142.945V19.2257C0 14.7772 3.53584 11.1709 7.89752 11.1709Z" fill="#F48244"/>
</mask>
<g mask="url(#mask0_281_1452)">
<g opacity="0.25">
<path opacity="0.3" d="M-51.8259 120.425L74.4922 81.0874L-51.8259 128.757V120.425Z" fill="white"/>
<path opacity="0.3" d="M74.4961 81.0874L59.371 230.631H41.9528L74.4961 81.0874Z" fill="white"/>
<path opacity="0.3" d="M25.7481 230.631H10.5694L74.4922 81.0874L25.7481 230.631Z" fill="white"/>
<path opacity="0.3" d="M74.4962 81.0874L87.8105 230.631H74.4962V81.0874Z" fill="white"/>
<path opacity="0.3" d="M121.66 230.63H107.557L74.4971 81.0908L121.66 230.63Z" fill="white"/>
<path opacity="0.3" d="M74.4922 81.0874L-51.8259 167.781V157.759L74.4922 81.0874Z" fill="white"/>
<path opacity="0.3" d="M-8.14651 230.631H-26.5256L74.4922 81.0874L-8.14651 230.631Z" fill="white"/>
<path opacity="0.3" d="M-51.8259 196.573V180.326L74.4922 81.0874L-51.8259 196.573Z" fill="white"/>
<path opacity="0.3" d="M74.4922 81.0874L-50.2142 230.631H-51.8259V213.756L74.4922 81.0874Z" fill="white"/>
<path opacity="0.3" d="M74.4922 81.0874L-51.8259 147.209V138.385L74.4922 81.0874Z" fill="white"/>
<path opacity="0.3" d="M200.814 120.479V131.38L74.5002 81.0874L200.814 120.479Z" fill="white"/>
<path opacity="0.3" d="M156.535 230.631H140.518L74.4975 81.0874L156.535 230.631Z" fill="white"/>
<path opacity="0.3" d="M74.4963 81.0874L200.814 191.294V206.591L74.4963 81.0874Z" fill="white"/>
<path opacity="0.3" d="M74.4925 81.0874L200.814 230.631H174.844L74.4925 81.0874Z" fill="white"/>
<path opacity="0.3" d="M74.4963 81.0874L200.814 141.833V151.332L74.4963 81.0874Z" fill="white"/>
<path opacity="0.3" d="M200.814 165.485V176.988L74.5002 81.0908L200.814 165.485Z" fill="white"/>
<path opacity="0.3" d="M74.4958 81.111L89.6171 10.2456H107.039L74.4958 81.111Z" fill="white"/>
<path opacity="0.3" d="M123.241 10.2456H138.424L74.4972 81.111L123.241 10.2456Z" fill="white"/>
<path opacity="0.3" d="M74.4961 81.111L61.1779 10.2456H74.4961V81.111Z" fill="white"/>
<path opacity="0.3" d="M27.333 10.2456H41.436L74.4922 81.1071L27.333 10.2456Z" fill="white"/>
<path opacity="0.3" d="M74.4963 81.1105L200.814 73.0947V86.2371L74.4963 81.1105Z" fill="white"/>
<path opacity="0.3" d="M157.135 10.2456H175.518L74.496 81.111L157.135 10.2456Z" fill="white"/>
<path opacity="0.3" d="M200.814 44.3037V60.55L74.5002 81.1108L200.814 44.3037Z" fill="white"/>
<path opacity="0.3" d="M74.4963 81.111L199.203 10.2456H200.814V27.1205L74.4963 81.111Z" fill="white"/>
<path opacity="0.3" d="M74.4963 81.1108L200.814 99.5475V110.878L74.4963 81.1108Z" fill="white"/>
<path opacity="0.3" d="M-7.54166 10.2456H8.47539L74.4922 81.111L-7.54166 10.2456Z" fill="white"/>
<path opacity="0.3" d="M74.4922 81.111L-51.8259 49.5827V34.2852L74.4922 81.111Z" fill="white"/>
<path opacity="0.3" d="M74.4922 81.0876L-51.8259 10.2222H-25.8594L74.4922 81.0876Z" fill="white"/>
<path opacity="0.3" d="M74.4922 81.1108L-51.8259 107.427V95.4245L74.4922 81.1108Z" fill="white"/>
<path opacity="0.3" d="M-51.826 78.5103V63.8882L74.4883 81.1067L-51.826 78.5103Z" fill="white"/>
</g>
</g>
<path d="M14.2516 17.1323H134.747C139.109 17.1323 142.645 20.7386 142.645 25.1872V136.983C142.645 141.431 139.109 145.038 134.747 145.038H14.2516C9.88988 145.038 6.35403 141.431 6.35403 136.983V25.1872C6.35403 20.7386 9.88988 17.1323 14.2516 17.1323Z" stroke="white" stroke-width="3" stroke-linejoin="round"/>
<path d="M22.3686 17.4686L14.2452 27.1047C14.1965 27.1571 14.1631 27.2222 14.1485 27.2928C14.1339 27.3633 14.1387 27.4367 14.1625 27.5046C14.1863 27.5726 14.2281 27.6325 14.2833 27.6776C14.3384 27.7228 14.4047 27.7516 14.4749 27.7606H39.9973C40.0436 27.7567 40.0887 27.7435 40.13 27.7217C40.1713 27.6999 40.2079 27.67 40.2378 27.6337C40.2677 27.5974 40.2902 27.5555 40.3042 27.5102C40.3181 27.465 40.3231 27.4174 40.3189 27.3702V6.98908C40.3231 6.94187 40.3181 6.8943 40.3042 6.84907C40.2902 6.80384 40.2677 6.76187 40.2378 6.72558C40.2079 6.68928 40.1713 6.65938 40.13 6.6376C40.0887 6.61581 40.0436 6.60256 39.9973 6.59863H14.4673C14.3971 6.60771 14.3307 6.63644 14.2756 6.68164C14.2204 6.72683 14.1787 6.78673 14.1549 6.85467C14.1311 6.92261 14.1262 6.99596 14.1408 7.06655C14.1554 7.13714 14.1889 7.20221 14.2375 7.25457L22.3686 16.9024C22.4359 16.9808 22.473 17.0813 22.473 17.1855C22.473 17.2896 22.4359 17.3903 22.3686 17.4686V17.4686Z" fill="#B24E2B"/>
<path d="M126.637 17.4686L134.768 27.1047C134.816 27.1568 134.85 27.2216 134.865 27.2919C134.879 27.3622 134.875 27.4353 134.851 27.5031C134.828 27.571 134.787 27.6309 134.732 27.6764C134.678 27.7218 134.612 27.751 134.542 27.7606H109.012C108.918 27.7527 108.831 27.7071 108.77 27.634C108.709 27.5608 108.679 27.4659 108.686 27.3702V6.98908C108.682 6.94157 108.687 6.89368 108.701 6.84821C108.716 6.80275 108.738 6.76061 108.769 6.72427C108.799 6.68792 108.836 6.65809 108.878 6.63652C108.92 6.61495 108.965 6.60207 109.012 6.59863H134.542C134.612 6.60832 134.678 6.63748 134.732 6.68292C134.787 6.72836 134.828 6.78831 134.851 6.85615C134.875 6.92399 134.879 6.9971 134.865 7.06741C134.85 7.13771 134.816 7.20247 134.768 7.25457L126.637 16.9024C126.569 16.9808 126.532 17.0813 126.532 17.1855C126.532 17.2896 126.569 17.3903 126.637 17.4686V17.4686Z" fill="#B24E2B"/>
<path d="M31.6552 0H117.617C118.291 0 118.838 0.557636 118.838 1.24551V24.7619C118.838 25.4498 118.291 26.0074 117.617 26.0074H31.6552C30.9807 26.0074 30.434 25.4498 30.434 24.7619V1.24551C30.434 0.557636 30.9807 0 31.6552 0Z" fill="#C96032"/>
<path d="M49.3289 18.04V9.19604H51.5249L53.8049 14.572L56.0849 9.19604H58.2689V18.04H56.1809V13.18L54.3329 17.656H53.2769L51.4169 13.18V18.04H49.3289ZM59.5861 18.04V16.348H60.5701L60.5461 10.888H59.5861V9.19604H63.6661V10.888H62.6941L62.6701 16.348H63.6661V18.04H59.5861ZM64.9851 18.04V9.19604H70.8891L72.2211 10.528V12.652L71.6211 13.264L72.5691 14.152V16.708L71.2371 18.04H64.9851ZM67.2291 12.628H69.6531L70.0731 12.208V11.32L69.6531 10.9H67.2291V12.628ZM67.2291 16.336H69.9051L70.3251 15.916V14.608L69.9051 14.188H67.2291V16.336ZM74.9131 18.04L73.5811 16.708V10.528L74.9131 9.19604H80.0971L81.4291 10.528V16.708L80.0971 18.04H74.9131ZM76.2571 16.336H78.7771L79.1971 15.916V11.32L78.7531 10.9H76.2571L75.8251 11.32V15.916L76.2571 16.336ZM82.787 18.04V16.24H87.395L87.815 15.82V14.836L87.395 14.416H83.771L82.439 13.072V10.528L83.771 9.19604H89.555V10.996H85.067L84.647 11.416V12.196L85.067 12.616H88.691L90.023 13.948V16.708L88.691 18.04H82.787ZM92.4912 18.04L91.1592 16.708V10.528L92.4912 9.19604H97.6752L99.0072 10.528V16.708L97.6752 18.04H92.4912ZM93.8352 16.336H96.3552L96.7752 15.916V11.32L96.3312 10.9H93.8352L93.4032 11.32V15.916L93.8352 16.336Z" fill="white"/>
<path d="M49.3289 18.04H49.2289V18.14H49.3289V18.04ZM49.3289 9.19604V9.09604H49.2289V9.19604H49.3289ZM51.5249 9.19604L51.6169 9.15699L51.5911 9.09604H51.5249V9.19604ZM53.8049 14.572L53.7128 14.6111L53.8049 14.8282L53.8969 14.6111L53.8049 14.572ZM56.0849 9.19604V9.09604H56.0187L55.9928 9.15699L56.0849 9.19604ZM58.2689 9.19604H58.3689V9.09604H58.2689V9.19604ZM58.2689 18.04V18.14H58.3689V18.04H58.2689ZM56.1809 18.04H56.0809V18.14H56.1809V18.04ZM56.1809 13.18H56.2809L56.0884 13.1419L56.1809 13.18ZM54.3329 17.656V17.756H54.3998L54.4253 17.6942L54.3329 17.656ZM53.2769 17.656L53.1845 17.6944L53.2101 17.756H53.2769V17.656ZM51.4169 13.18L51.5092 13.1417L51.3169 13.18H51.4169ZM51.4169 18.04V18.14H51.5169V18.04H51.4169ZM49.4289 18.04V9.19604H49.2289V18.04H49.4289ZM49.3289 9.29604H51.5249V9.09604H49.3289V9.29604ZM51.4328 9.23508L53.7128 14.6111L53.8969 14.533L51.6169 9.15699L51.4328 9.23508ZM53.8969 14.6111L56.1769 9.23508L55.9928 9.15699L53.7128 14.533L53.8969 14.6111ZM56.0849 9.29604H58.2689V9.09604H56.0849V9.29604ZM58.1689 9.19604V18.04H58.3689V9.19604H58.1689ZM58.2689 17.94H56.1809V18.14H58.2689V17.94ZM56.2809 18.04V13.18H56.0809V18.04H56.2809ZM56.0884 13.1419L54.2404 17.6179L54.4253 17.6942L56.2733 13.2182L56.0884 13.1419ZM54.3329 17.556H53.2769V17.756H54.3329V17.556ZM53.3692 17.6177L51.5092 13.1417L51.3245 13.2184L53.1845 17.6944L53.3692 17.6177ZM51.3169 13.18V18.04H51.5169V13.18H51.3169ZM51.4169 17.94H49.3289V18.14H51.4169V17.94ZM59.5861 18.04H59.4861V18.14H59.5861V18.04ZM59.5861 16.348V16.248H59.4861V16.348H59.5861ZM60.5701 16.348V16.448H60.6705L60.6701 16.3476L60.5701 16.348ZM60.5461 10.888L60.6461 10.8876L60.6456 10.788H60.5461V10.888ZM59.5861 10.888H59.4861V10.988H59.5861V10.888ZM59.5861 9.19604V9.09604H59.4861V9.19604H59.5861ZM63.6661 9.19604H63.7661V9.09604H63.6661V9.19604ZM63.6661 10.888V10.988H63.7661V10.888H63.6661ZM62.6941 10.888V10.788H62.5945L62.5941 10.8876L62.6941 10.888ZM62.6701 16.348L62.5701 16.3476L62.5696 16.448H62.6701V16.348ZM63.6661 16.348H63.7661V16.248H63.6661V16.348ZM63.6661 18.04V18.14H63.7661V18.04H63.6661ZM59.6861 18.04V16.348H59.4861V18.04H59.6861ZM59.5861 16.448H60.5701V16.248H59.5861V16.448ZM60.6701 16.3476L60.6461 10.8876L60.4461 10.8885L60.4701 16.3485L60.6701 16.3476ZM60.5461 10.788H59.5861V10.988H60.5461V10.788ZM59.6861 10.888V9.19604H59.4861V10.888H59.6861ZM59.5861 9.29604H63.6661V9.09604H59.5861V9.29604ZM63.5661 9.19604V10.888H63.7661V9.19604H63.5661ZM63.6661 10.788H62.6941V10.988H63.6661V10.788ZM62.5941 10.8876L62.5701 16.3476L62.7701 16.3485L62.7941 10.8885L62.5941 10.8876ZM62.6701 16.448H63.6661V16.248H62.6701V16.448ZM63.5661 16.348V18.04H63.7661V16.348H63.5661ZM63.6661 17.94H59.5861V18.14H63.6661V17.94ZM64.9851 18.04H64.8851V18.14H64.9851V18.04ZM64.9851 9.19604V9.09604H64.8851V9.19604H64.9851ZM70.8891 9.19604L70.9598 9.12533L70.9305 9.09604H70.8891V9.19604ZM72.2211 10.528H72.3211V10.4866L72.2918 10.4573L72.2211 10.528ZM72.2211 12.652L72.2925 12.722L72.3211 12.6929V12.652H72.2211ZM71.6211 13.264L71.5497 13.194L71.4781 13.2671L71.5528 13.337L71.6211 13.264ZM72.5691 14.152H72.6691V14.1087L72.6375 14.0791L72.5691 14.152ZM72.5691 16.708L72.6398 16.7787L72.6691 16.7495V16.708H72.5691ZM71.2371 18.04V18.14H71.2785L71.3078 18.1107L71.2371 18.04ZM67.2291 12.628H67.1291V12.728H67.2291V12.628ZM69.6531 12.628V12.728H69.6945L69.7238 12.6987L69.6531 12.628ZM70.0731 12.208L70.1438 12.2787L70.1731 12.2495V12.208H70.0731ZM70.0731 11.32H70.1731V11.2786L70.1438 11.2493L70.0731 11.32ZM69.6531 10.9L69.7238 10.8293L69.6945 10.8H69.6531V10.9ZM67.2291 10.9V10.8H67.1291V10.9H67.2291ZM67.2291 16.336H67.1291V16.436H67.2291V16.336ZM69.9051 16.336V16.436H69.9465L69.9758 16.4067L69.9051 16.336ZM70.3251 15.916L70.3958 15.9867L70.4251 15.9575V15.916H70.3251ZM70.3251 14.608H70.4251V14.5666L70.3958 14.5373L70.3251 14.608ZM69.9051 14.188L69.9758 14.1173L69.9465 14.088H69.9051V14.188ZM67.2291 14.188V14.088H67.1291V14.188H67.2291ZM65.0851 18.04V9.19604H64.8851V18.04H65.0851ZM64.9851 9.29604H70.8891V9.09604H64.9851V9.29604ZM70.8184 9.26675L72.1504 10.5987L72.2918 10.4573L70.9598 9.12533L70.8184 9.26675ZM72.1211 10.528V12.652H72.3211V10.528H72.1211ZM72.1497 12.582L71.5497 13.194L71.6925 13.334L72.2925 12.722L72.1497 12.582ZM71.5528 13.337L72.5008 14.225L72.6375 14.0791L71.6895 13.1911L71.5528 13.337ZM72.4691 14.152V16.708H72.6691V14.152H72.4691ZM72.4984 16.6373L71.1664 17.9693L71.3078 18.1107L72.6398 16.7787L72.4984 16.6373ZM71.2371 17.94H64.9851V18.14H71.2371V17.94ZM67.2291 12.728H69.6531V12.528H67.2291V12.728ZM69.7238 12.6987L70.1438 12.2787L70.0024 12.1373L69.5824 12.5573L69.7238 12.6987ZM70.1731 12.208V11.32H69.9731V12.208H70.1731ZM70.1438 11.2493L69.7238 10.8293L69.5824 10.9707L70.0024 11.3907L70.1438 11.2493ZM69.6531 10.8H67.2291V11H69.6531V10.8ZM67.1291 10.9V12.628H67.3291V10.9H67.1291ZM67.2291 16.436H69.9051V16.236H67.2291V16.436ZM69.9758 16.4067L70.3958 15.9867L70.2544 15.8453L69.8344 16.2653L69.9758 16.4067ZM70.4251 15.916V14.608H70.2251V15.916H70.4251ZM70.3958 14.5373L69.9758 14.1173L69.8344 14.2587L70.2544 14.6787L70.3958 14.5373ZM69.9051 14.088H67.2291V14.288H69.9051V14.088ZM67.1291 14.188V16.336H67.3291V14.188H67.1291ZM74.9131 18.04L74.8423 18.1107L74.8716 18.14H74.9131V18.04ZM73.5811 16.708H73.4811V16.7495L73.5103 16.7787L73.5811 16.708ZM73.5811 10.528L73.5103 10.4573L73.4811 10.4866V10.528H73.5811ZM74.9131 9.19604V9.09604H74.8716L74.8423 9.12533L74.9131 9.19604ZM80.0971 9.19604L80.1678 9.12533L80.1385 9.09604H80.0971V9.19604ZM81.4291 10.528H81.5291V10.4866L81.4998 10.4573L81.4291 10.528ZM81.4291 16.708L81.4998 16.7787L81.5291 16.7495V16.708H81.4291ZM80.0971 18.04V18.14H80.1385L80.1678 18.1107L80.0971 18.04ZM76.2571 16.336L76.1874 16.4077L76.2165 16.436H76.2571V16.336ZM78.7771 16.336V16.436H78.8185L78.8478 16.4067L78.7771 16.336ZM79.1971 15.916L79.2678 15.9867L79.2971 15.9575V15.916H79.1971ZM79.1971 11.32H79.2971V11.277L79.2658 11.2474L79.1971 11.32ZM78.7531 10.9L78.8218 10.8274L78.7929 10.8H78.7531V10.9ZM76.2571 10.9V10.8H76.2165L76.1874 10.8283L76.2571 10.9ZM75.8251 11.32L75.7554 11.2483L75.7251 11.2778V11.32H75.8251ZM75.8251 15.916H75.7251V15.9583L75.7554 15.9877L75.8251 15.916ZM74.9838 17.9693L73.6518 16.6373L73.5103 16.7787L74.8423 18.1107L74.9838 17.9693ZM73.6811 16.708V10.528H73.4811V16.708H73.6811ZM73.6518 10.5987L74.9838 9.26675L74.8423 9.12533L73.5103 10.4573L73.6518 10.5987ZM74.9131 9.29604H80.0971V9.09604H74.9131V9.29604ZM80.0263 9.26675L81.3583 10.5987L81.4998 10.4573L80.1678 9.12533L80.0263 9.26675ZM81.3291 10.528V16.708H81.5291V10.528H81.3291ZM81.3583 16.6373L80.0263 17.9693L80.1678 18.1107L81.4998 16.7787L81.3583 16.6373ZM80.0971 17.94H74.9131V18.14H80.0971V17.94ZM76.2571 16.436H78.7771V16.236H76.2571V16.436ZM78.8478 16.4067L79.2678 15.9867L79.1263 15.8453L78.7063 16.2653L78.8478 16.4067ZM79.2971 15.916V11.32H79.0971V15.916H79.2971ZM79.2658 11.2474L78.8218 10.8274L78.6843 10.9727L79.1283 11.3927L79.2658 11.2474ZM78.7531 10.8H76.2571V11H78.7531V10.8ZM76.1874 10.8283L75.7554 11.2483L75.8948 11.3917L76.3268 10.9717L76.1874 10.8283ZM75.7251 11.32V15.916H75.9251V11.32H75.7251ZM75.7554 15.9877L76.1874 16.4077L76.3268 16.2643L75.8948 15.8443L75.7554 15.9877ZM82.787 18.04H82.687V18.14H82.787V18.04ZM82.787 16.24V16.14H82.687V16.24H82.787ZM87.395 16.24V16.34H87.4364L87.4657 16.3107L87.395 16.24ZM87.815 15.82L87.8857 15.8907L87.915 15.8615V15.82H87.815ZM87.815 14.836H87.915V14.7946L87.8857 14.7653L87.815 14.836ZM87.395 14.416L87.4657 14.3453L87.4364 14.316H87.395V14.416ZM83.771 14.416L83.7 14.4864L83.7293 14.516H83.771V14.416ZM82.439 13.072H82.339V13.1132L82.368 13.1424L82.439 13.072ZM82.439 10.528L82.3683 10.4573L82.339 10.4866V10.528H82.439ZM83.771 9.19604V9.09604H83.7296L83.7003 9.12533L83.771 9.19604ZM89.555 9.19604H89.655V9.09604H89.555V9.19604ZM89.555 10.996V11.096H89.655V10.996H89.555ZM85.067 10.996V10.896H85.0256L84.9963 10.9253L85.067 10.996ZM84.647 11.416L84.5763 11.3453L84.547 11.3746V11.416H84.647ZM84.647 12.196H84.547V12.2375L84.5763 12.2667L84.647 12.196ZM85.067 12.616L84.9963 12.6867L85.0256 12.716H85.067V12.616ZM88.691 12.616L88.7617 12.5453L88.7324 12.516H88.691V12.616ZM90.023 13.948H90.123V13.9066L90.0937 13.8773L90.023 13.948ZM90.023 16.708L90.0937 16.7787L90.123 16.7495V16.708H90.023ZM88.691 18.04V18.14H88.7324L88.7617 18.1107L88.691 18.04ZM82.887 18.04V16.24H82.687V18.04H82.887ZM82.787 16.34H87.395V16.14H82.787V16.34ZM87.4657 16.3107L87.8857 15.8907L87.7443 15.7493L87.3243 16.1693L87.4657 16.3107ZM87.915 15.82V14.836H87.715V15.82H87.915ZM87.8857 14.7653L87.4657 14.3453L87.3243 14.4867L87.7443 14.9067L87.8857 14.7653ZM87.395 14.316H83.771V14.516H87.395V14.316ZM83.8421 14.3456L82.5101 13.0016L82.368 13.1424L83.7 14.4864L83.8421 14.3456ZM82.539 13.072V10.528H82.339V13.072H82.539ZM82.5097 10.5987L83.8417 9.26675L83.7003 9.12533L82.3683 10.4573L82.5097 10.5987ZM83.771 9.29604H89.555V9.09604H83.771V9.29604ZM89.455 9.19604V10.996H89.655V9.19604H89.455ZM89.555 10.896H85.067V11.096H89.555V10.896ZM84.9963 10.9253L84.5763 11.3453L84.7177 11.4867L85.1377 11.0667L84.9963 10.9253ZM84.547 11.416V12.196H84.747V11.416H84.547ZM84.5763 12.2667L84.9963 12.6867L85.1377 12.5453L84.7177 12.1253L84.5763 12.2667ZM85.067 12.716H88.691V12.516H85.067V12.716ZM88.6203 12.6867L89.9523 14.0187L90.0937 13.8773L88.7617 12.5453L88.6203 12.6867ZM89.923 13.948V16.708H90.123V13.948H89.923ZM89.9523 16.6373L88.6203 17.9693L88.7617 18.1107L90.0937 16.7787L89.9523 16.6373ZM88.691 17.94H82.787V18.14H88.691V17.94ZM92.4912 18.04L92.4205 18.1107L92.4498 18.14H92.4912V18.04ZM91.1592 16.708H91.0592V16.7495L91.0885 16.7787L91.1592 16.708ZM91.1592 10.528L91.0885 10.4573L91.0592 10.4866V10.528H91.1592ZM92.4912 9.19604V9.09604H92.4498L92.4205 9.12533L92.4912 9.19604ZM97.6752 9.19604L97.7459 9.12533L97.7166 9.09604H97.6752V9.19604ZM99.0072 10.528H99.1072V10.4866L99.0779 10.4573L99.0072 10.528ZM99.0072 16.708L99.0779 16.7787L99.1072 16.7495V16.708H99.0072ZM97.6752 18.04V18.14H97.7166L97.7459 18.1107L97.6752 18.04ZM93.8352 16.336L93.7655 16.4077L93.7946 16.436H93.8352V16.336ZM96.3552 16.336V16.436H96.3966L96.4259 16.4067L96.3552 16.336ZM96.7752 15.916L96.8459 15.9867L96.8752 15.9575V15.916H96.7752ZM96.7752 11.32H96.8752V11.277L96.8439 11.2474L96.7752 11.32ZM96.3312 10.9L96.3999 10.8274L96.371 10.8H96.3312V10.9ZM93.8352 10.9V10.8H93.7946L93.7655 10.8283L93.8352 10.9ZM93.4032 11.32L93.3335 11.2483L93.3032 11.2778V11.32H93.4032ZM93.4032 15.916H93.3032V15.9583L93.3335 15.9877L93.4032 15.916ZM92.5619 17.9693L91.2299 16.6373L91.0885 16.7787L92.4205 18.1107L92.5619 17.9693ZM91.2592 16.708V10.528H91.0592V16.708H91.2592ZM91.2299 10.5987L92.5619 9.26675L92.4205 9.12533L91.0885 10.4573L91.2299 10.5987ZM92.4912 9.29604H97.6752V9.09604H92.4912V9.29604ZM97.6045 9.26675L98.9365 10.5987L99.0779 10.4573L97.7459 9.12533L97.6045 9.26675ZM98.9072 10.528V16.708H99.1072V10.528H98.9072ZM98.9365 16.6373L97.6045 17.9693L97.7459 18.1107L99.0779 16.7787L98.9365 16.6373ZM97.6752 17.94H92.4912V18.14H97.6752V17.94ZM93.8352 16.436H96.3552V16.236H93.8352V16.436ZM96.4259 16.4067L96.8459 15.9867L96.7045 15.8453L96.2845 16.2653L96.4259 16.4067ZM96.8752 15.916V11.32H96.6752V15.916H96.8752ZM96.8439 11.2474L96.3999 10.8274L96.2625 10.9727L96.7065 11.3927L96.8439 11.2474ZM96.3312 10.8H93.8352V11H96.3312V10.8ZM93.7655 10.8283L93.3335 11.2483L93.4729 11.3917L93.9049 10.9717L93.7655 10.8283ZM93.3032 11.32V15.916H93.5032V11.32H93.3032ZM93.3335 15.9877L93.7655 16.4077L93.9049 16.2643L93.4729 15.8443L93.3335 15.9877Z" fill="black"/>
</svg>
