<svg width="45" height="34" viewBox="0 0 45 34" fill="none" xmlns="http://www.w3.org/2000/svg">
<path d="M17.432 34C17.08 34 16.776 33.888 16.52 33.664C16.296 33.408 16.184 33.104 16.184 32.752V28H1.544C1.192 28 0.888 27.888 0.632 27.664C0.408 27.408 0.296 27.104 0.296 26.752V21.04C0.296 20.688 0.344 20.4 0.44 20.176C0.568 19.92 0.696 19.712 0.824 19.552L14.6 1.216C15.048 0.671998 15.64 0.399998 16.376 0.399998H24.872C25.224 0.399998 25.512 0.527998 25.736 0.783998C25.992 1.008 26.12 1.296 26.12 1.648V19.552H30.344C30.728 19.552 31.032 19.68 31.256 19.936C31.48 20.16 31.592 20.448 31.592 20.8V26.752C31.592 27.104 31.464 27.408 31.208 27.664C30.984 27.888 30.696 28 30.344 28H26.12V32.752C26.12 33.104 25.992 33.408 25.736 33.664C25.512 33.888 25.224 34 24.872 34H17.432ZM9.896 19.984H16.472V10.864L9.896 19.984ZM36.4426 34C36.0906 34 35.7866 33.888 35.5306 33.664C35.3066 33.408 35.1946 33.104 35.1946 32.752V25.552C35.1946 25.2 35.3066 24.896 35.5306 24.64C35.7866 24.384 36.0906 24.256 36.4426 24.256H43.6426C43.9946 24.256 44.2986 24.384 44.5546 24.64C44.8106 24.896 44.9386 25.2 44.9386 25.552V32.752C44.9386 33.104 44.8106 33.408 44.5546 33.664C44.2986 33.888 43.9946 34 43.6426 34H36.4426Z" fill="white"/>
</svg>
