<svg width="44" height="35" viewBox="0 0 44 35" fill="none" xmlns="http://www.w3.org/2000/svg">
<path d="M14.936 34.576C11.736 34.576 9.064 34.096 6.92 33.136C4.776 32.144 3.16 30.864 2.072 29.296C0.984 27.696 0.408 25.984 0.344 24.16C0.344 23.872 0.44 23.632 0.632 23.44C0.856 23.216 1.112 23.104 1.4 23.104H9.416C9.896 23.104 10.264 23.2 10.52 23.392C10.776 23.584 10.952 23.776 11.048 23.968C11.368 24.512 11.704 24.976 12.056 25.36C12.408 25.712 12.824 25.984 13.304 26.176C13.784 26.336 14.344 26.416 14.984 26.416C15.688 26.416 16.344 26.272 16.952 25.984C17.56 25.664 18.04 25.216 18.392 24.64C18.776 24.032 18.968 23.296 18.968 22.432C18.968 21.696 18.792 21.056 18.44 20.512C18.12 19.936 17.656 19.472 17.048 19.12C16.472 18.768 15.784 18.592 14.984 18.592C14.344 18.592 13.816 18.672 13.4 18.832C13.016 18.96 12.696 19.12 12.44 19.312C12.184 19.504 11.944 19.68 11.72 19.84C11.528 19.968 11.304 20.032 11.048 20.032H3.128C2.84 20.032 2.584 19.936 2.36 19.744C2.168 19.52 2.072 19.264 2.072 18.976L3.896 1.936C3.96 1.424 4.152 1.04 4.472 0.783998C4.824 0.527998 5.208 0.399998 5.624 0.399998H25.976C26.328 0.399998 26.616 0.527998 26.84 0.783998C27.096 1.008 27.224 1.296 27.224 1.648V7.312C27.224 7.632 27.096 7.92 26.84 8.176C26.616 8.432 26.328 8.56 25.976 8.56H12.008L11.528 13.36C12.328 12.816 13.176 12.416 14.072 12.16C15 11.872 16.28 11.728 17.912 11.728C19.416 11.728 20.856 12 22.232 12.544C23.64 13.056 24.888 13.808 25.976 14.8C27.096 15.76 27.976 16.912 28.616 18.256C29.256 19.6 29.576 21.088 29.576 22.72C29.576 24.896 29.016 26.88 27.896 28.672C26.776 30.464 25.128 31.904 22.952 32.992C20.776 34.048 18.104 34.576 14.936 34.576ZM34.5208 34C34.1688 34 33.8648 33.888 33.6088 33.664C33.3848 33.408 33.2728 33.104 33.2728 32.752V25.552C33.2728 25.2 33.3848 24.896 33.6088 24.64C33.8648 24.384 34.1688 24.256 34.5208 24.256H41.7208C42.0728 24.256 42.3768 24.384 42.6328 24.64C42.8888 24.896 43.0168 25.2 43.0168 25.552V32.752C43.0168 33.104 42.8888 33.408 42.6328 33.664C42.3768 33.888 42.0728 34 41.7208 34H34.5208Z" fill="white"/>
</svg>
