<svg width="346" height="106" viewBox="0 0 346 106" fill="none" xmlns="http://www.w3.org/2000/svg">
<path d="M4 53C4 25.938 25.9381 4 53 4H293C320.062 4 342 25.938 342 53C342 80.062 320.062 102 293 102H53C25.938 102 4 80.062 4 53Z" fill="#1A2B5E" stroke="#9DB7FF" stroke-width="8"/>
<path d="M54 69L62.64 39.52H74.8L83.44 69H75.52L74.04 63.12H63.4L61.92 69H54ZM64.88 57.36H72.56L69.44 45.16H68L64.88 57.36ZM89.2531 69V39.52H108.493L114.613 45.64V62.88L108.493 69H89.2531ZM96.7331 63.32H105.253L107.373 61.2V47.32L105.253 45.2H96.7331V63.32ZM122.019 69V39.52H141.259L147.379 45.64V62.88L141.259 69H122.019ZM129.499 63.32H138.019L140.139 61.2V47.32L138.019 45.2H129.499V63.32ZM171.788 69L167.428 64.56V39.52H174.908V61.92L176.308 63.32H184.428L185.828 61.92V39.52H193.308V64.56L188.868 69H171.788ZM201.882 69V63H217.242L218.642 61.6V58.32L217.242 56.92H205.162L200.722 52.44V43.96L205.162 39.52H224.442V45.52H209.482L208.082 46.92V49.52L209.482 50.92H221.562L226.002 55.36V64.56L221.562 69H201.882ZM233.589 69V39.52H255.989V45.6H241.069V51.04H254.509V56.68H241.069V62.92H255.989V69H233.589ZM263.777 69V39.52H283.857L288.337 43.96V54.52L284.977 57.88L289.457 69H281.937L278.057 58.96H271.257V69H263.777ZM271.257 53.28H279.657L281.057 51.88V46.6L279.657 45.2H271.257V53.28Z" fill="white"/>
</svg>
