<svg width="184" height="78" viewBox="0 0 184 78" fill="none" xmlns="http://www.w3.org/2000/svg">
<g clip-path="url(#clip0_1_3235)">
<path d="M30.3857 6.77246H153.614C167.312 6.77246 178.613 21.0776 178.613 38.9994C178.613 56.9212 167.312 71.2264 153.614 71.2264H30.3857C16.6884 71.2264 5.38721 56.9212 5.38721 38.9994C5.38721 21.0776 16.6884 6.77246 30.3857 6.77246Z" fill="white" stroke="black"/>
<path d="M153.618 66.8753H30.3857C23.9519 66.871 17.7575 63.7429 13.0461 58.1191C8.33462 52.4953 5.45486 44.792 4.98495 36.5557C4.93607 37.3607 4.88721 38.1657 4.88721 38.9865C4.88721 43.2843 5.54678 47.5401 6.82825 51.5107C8.10972 55.4814 9.98798 59.0891 12.3558 62.1279C14.7236 65.1667 17.5346 67.5771 20.6282 69.2213C23.7218 70.8656 27.0374 71.7115 30.3857 71.7108H153.618C156.967 71.7115 160.282 70.8656 163.376 69.2213C166.47 67.5771 169.281 65.1667 171.648 62.1279C174.016 59.0891 175.895 55.4814 177.176 51.5107C178.457 47.5401 179.117 43.2843 179.117 38.9865C179.117 38.1657 179.064 37.3607 179.019 36.5557C178.549 44.792 175.67 52.4953 170.958 58.1191C166.247 63.7429 160.052 66.871 153.618 66.8753Z" fill="#999999"/>
<path d="M153.619 6.27272C160.381 6.27272 166.867 9.72101 171.649 15.859C176.431 21.997 179.117 30.3219 179.117 39.0023C179.117 43.3001 178.458 47.5559 177.176 51.5266C175.895 55.4972 174.016 59.1049 171.649 62.1437C169.281 65.1825 166.47 67.5929 163.376 69.2371C160.283 70.8814 156.967 71.7273 153.619 71.7267H30.3859C27.0375 71.7273 23.7219 70.8814 20.6283 69.2371C17.5347 67.5929 14.7237 65.1825 12.3559 62.1437C9.98811 59.1049 8.10985 55.4972 6.82838 51.5266C5.54691 47.5559 4.88733 43.3001 4.88733 39.0023C4.88733 30.3219 7.57377 21.997 12.3557 15.859C17.1376 9.72101 23.6232 6.27272 30.3859 6.27272H153.619ZM153.619 -0.000315729H30.3859C26.3662 -0.0600515 22.3773 0.904597 18.6502 2.83774C14.9231 4.77087 11.5318 7.63407 8.67293 11.2615C5.81402 14.8889 3.5443 19.2084 1.9952 23.9698C0.44611 28.7312 -0.351562 33.8398 -0.351562 38.9997C-0.351562 44.1596 0.44611 49.2682 1.9952 54.0296C3.5443 58.7909 5.81402 63.1105 8.67293 66.7379C11.5318 70.3653 14.9231 73.2285 18.6502 75.1616C22.3773 77.0948 26.3662 78.0594 30.3859 77.9997H153.619C157.638 78.0594 161.627 77.0948 165.354 75.1616C169.081 73.2285 172.473 70.3653 175.332 66.7379C178.191 63.1105 180.46 58.7909 182.009 54.0296C183.558 49.2682 184.356 44.1596 184.356 38.9997C184.356 33.8398 183.558 28.7312 182.009 23.9698C180.46 19.2084 178.191 14.8889 175.332 11.2615C172.473 7.63407 169.081 4.77087 165.354 2.83774C161.627 0.904597 157.638 -0.0600515 153.619 -0.000315729Z" fill="#9DB7FF"/>
<path d="M46.816 50C46.6027 50 46.4107 49.9253 46.24 49.776C46.0693 49.6053 45.984 49.4027 45.984 49.168V28.432C45.984 28.1973 46.0693 28.0053 46.24 27.856C46.4107 27.6853 46.6027 27.6 46.816 27.6H57.024C58.9653 27.6 60.5547 27.856 61.792 28.368C63.0293 28.88 63.9467 29.616 64.544 30.576C65.1413 31.536 65.44 32.72 65.44 34.128C65.44 34.8533 65.2907 35.504 64.992 36.08C64.7147 36.6347 64.3733 37.104 63.968 37.488C63.5627 37.8507 63.1787 38.1173 62.816 38.288C63.648 38.6507 64.3733 39.2693 64.992 40.144C65.6107 40.9973 65.92 41.9787 65.92 43.088C65.92 44.5813 65.5787 45.84 64.896 46.864C64.2347 47.888 63.264 48.6667 61.984 49.2C60.7253 49.7333 59.1787 50 57.344 50H46.816ZM52.864 45.168H56.608C57.3333 45.168 57.8667 44.9547 58.208 44.528C58.5493 44.08 58.72 43.5893 58.72 43.056C58.72 42.5013 58.5387 42.0213 58.176 41.616C57.8133 41.1893 57.2907 40.976 56.608 40.976H52.864V45.168ZM52.864 36.272H56.288C56.9707 36.272 57.472 36.08 57.792 35.696C58.112 35.312 58.272 34.864 58.272 34.352C58.272 33.84 58.112 33.392 57.792 33.008C57.472 32.624 56.9707 32.432 56.288 32.432H52.864V36.272ZM68.9283 50C68.7363 50 68.5656 49.936 68.4163 49.808C68.2883 49.6587 68.2243 49.488 68.2243 49.296C68.2243 49.2107 68.2456 49.136 68.2883 49.072L75.5843 28.592C75.6483 28.3573 75.7869 28.1333 76.0003 27.92C76.2349 27.7067 76.5443 27.6 76.9283 27.6H82.7843C83.1896 27.6 83.4989 27.7067 83.7123 27.92C83.9256 28.1333 84.0643 28.3573 84.1283 28.592L91.4563 49.072C91.4776 49.136 91.4883 49.2107 91.4883 49.296C91.4883 49.488 91.4136 49.6587 91.2643 49.808C91.1363 49.936 90.9763 50 90.7843 50H85.8563C85.4936 50 85.2269 49.9147 85.0563 49.744C84.8856 49.5733 84.7683 49.4133 84.7043 49.264L83.7123 46.576H76.0003L75.0083 49.264C74.9443 49.4133 74.8269 49.5733 74.6563 49.744C74.5069 49.9147 74.2403 50 73.8563 50H68.9283ZM77.4723 41.168H82.2403L79.8403 33.968L77.4723 41.168ZM104.216 50.32C102.189 50.32 100.418 50.0107 98.9035 49.392C97.3888 48.752 96.1942 47.792 95.3195 46.512C94.4662 45.232 93.9968 43.6107 93.9115 41.648C93.8902 40.7733 93.8795 39.8347 93.8795 38.832C93.8795 37.8293 93.8902 36.8693 93.9115 35.952C93.9968 34.032 94.4768 32.432 95.3515 31.152C96.2475 29.8507 97.4528 28.88 98.9675 28.24C100.504 27.6 102.253 27.28 104.216 27.28C105.624 27.28 106.936 27.4507 108.152 27.792C109.389 28.112 110.488 28.6133 111.448 29.296C112.408 29.9573 113.165 30.7893 113.72 31.792C114.274 32.7733 114.562 33.9253 114.584 35.248C114.584 35.44 114.509 35.6 114.36 35.728C114.232 35.856 114.072 35.92 113.88 35.92H108.472C108.152 35.92 107.917 35.856 107.768 35.728C107.618 35.6 107.49 35.376 107.384 35.056C107.106 34.1387 106.701 33.52 106.168 33.2C105.634 32.88 104.984 32.72 104.216 32.72C103.277 32.72 102.53 32.976 101.976 33.488C101.421 33.9787 101.122 34.8533 101.08 36.112C101.016 37.8613 101.016 39.6533 101.08 41.488C101.122 42.7467 101.421 43.632 101.976 44.144C102.53 44.6347 103.277 44.88 104.216 44.88C104.984 44.88 105.634 44.7093 106.168 44.368C106.722 44.0267 107.128 43.4187 107.384 42.544C107.469 42.2027 107.586 41.9787 107.736 41.872C107.906 41.744 108.152 41.68 108.472 41.68H113.88C114.072 41.68 114.232 41.744 114.36 41.872C114.509 42 114.584 42.16 114.584 42.352C114.562 43.6747 114.274 44.8373 113.72 45.84C113.165 46.8213 112.408 47.6533 111.448 48.336C110.488 48.9973 109.389 49.4987 108.152 49.84C106.936 50.16 105.624 50.32 104.216 50.32ZM119.792 50C119.579 50 119.387 49.9253 119.216 49.776C119.046 49.6053 118.96 49.4027 118.96 49.168V28.432C118.96 28.1973 119.046 28.0053 119.216 27.856C119.387 27.6853 119.579 27.6 119.792 27.6H124.88C125.115 27.6 125.307 27.6853 125.456 27.856C125.627 28.0053 125.712 28.1973 125.712 28.432V35.152L130.48 28.272C130.587 28.1227 130.736 27.9733 130.928 27.824C131.12 27.6747 131.387 27.6 131.728 27.6H137.584C137.776 27.6 137.936 27.6747 138.064 27.824C138.214 27.952 138.288 28.112 138.288 28.304C138.288 28.432 138.246 28.5493 138.16 28.656L131.44 38.32L138.736 48.944C138.822 49.0293 138.864 49.1467 138.864 49.296C138.864 49.488 138.79 49.6587 138.64 49.808C138.512 49.936 138.352 50 138.16 50H132.112C131.707 50 131.398 49.904 131.184 49.712C130.992 49.52 130.875 49.3813 130.832 49.296L125.712 41.872V49.168C125.712 49.4027 125.627 49.6053 125.456 49.776C125.307 49.9253 125.115 50 124.88 50H119.792Z" fill="#032064"/>
</g>
<defs>
<clipPath id="clip0_1_3235">
<rect width="184" height="78" fill="white"/>
</clipPath>
</defs>
</svg>
