<svg width="79" height="79" viewBox="0 0 79 79" fill="none" xmlns="http://www.w3.org/2000/svg">
<path style="mix-blend-mode:screen" d="M35.8768 36.2154C46.2167 24.7828 55.9153 16.7036 57.525 18.1595C59.1348 19.6154 52.115 30.0386 41.7359 41.5145C31.3569 52.9904 21.6974 61.0263 20.079 59.5626C18.4606 58.0989 25.5369 47.648 35.8768 36.2154Z" fill="url(#paint0_radial_1_3195)"/>
<path style="mix-blend-mode:color-dodge" d="M36.6815 36.9432C44.9081 27.8473 52.5055 21.3606 53.6738 22.4173C54.8422 23.474 49.192 31.7218 40.9655 40.8177C32.739 49.9136 25.1416 56.4002 23.9645 55.3357C22.7875 54.2712 28.4472 46.0477 36.6815 36.9432Z" fill="url(#paint1_radial_1_3195)"/>
<path style="mix-blend-mode:screen" d="M42.1165 36.4313C53.5491 46.7712 61.6362 56.4611 60.1725 58.0795C58.7088 59.6979 48.25 52.6303 36.8174 42.2904C25.3848 31.9505 17.3143 22.2597 18.778 20.6413C20.2417 19.0229 30.6926 26.0992 42.1165 36.4313Z" fill="url(#paint2_radial_1_3195)"/>
<path style="mix-blend-mode:screen" d="M35.8768 36.2154C46.2167 24.7828 55.9153 16.7036 57.525 18.1595C59.1348 19.6154 52.115 30.0386 41.7359 41.5145C31.3569 52.9904 21.6974 61.0263 20.079 59.5626C18.4606 58.0989 25.5369 47.648 35.8768 36.2154Z" fill="url(#paint3_radial_1_3195)"/>
<path style="mix-blend-mode:screen" d="M35.8768 36.2164C46.2167 24.7838 55.9153 16.7046 57.525 18.1605C59.1348 19.6163 52.115 30.0396 41.7359 41.5155C31.3569 52.9914 21.6974 61.0273 20.079 59.5636C18.4606 58.0999 25.5369 47.649 35.8768 36.2164Z" fill="url(#paint4_radial_1_3195)"/>
<path style="mix-blend-mode:screen" d="M35.8768 36.2164C46.2167 24.7838 55.9153 16.7046 57.525 18.1605C59.1348 19.6163 52.115 30.0396 41.7359 41.5155C31.3569 52.9914 21.6974 61.0273 20.079 59.5636C18.4606 58.0999 25.5369 47.649 35.8768 36.2164Z" fill="url(#paint5_radial_1_3195)"/>
<path style="mix-blend-mode:screen" d="M35.8768 36.2164C46.2167 24.7838 55.9153 16.7046 57.525 18.1605C59.1348 19.6163 52.115 30.0396 41.7359 41.5155C31.3569 52.9914 21.6974 61.0273 20.079 59.5636C18.4606 58.0999 25.5369 47.649 35.8768 36.2164Z" fill="url(#paint6_radial_1_3195)"/>
<path style="mix-blend-mode:screen" d="M35.8768 36.2164C46.2167 24.7838 55.9153 16.7046 57.525 18.1605C59.1348 19.6163 52.115 30.0396 41.7359 41.5155C31.3569 52.9914 21.6974 61.0273 20.079 59.5636C18.4606 58.0999 25.5369 47.649 35.8768 36.2164Z" fill="url(#paint7_radial_1_3195)"/>
<path style="mix-blend-mode:color-dodge" d="M36.6815 36.9432C44.9081 27.8473 52.5055 21.3606 53.6738 22.4173C54.8422 23.474 49.192 31.7218 40.9655 40.8177C32.739 49.9136 25.1416 56.4002 23.9645 55.3357C22.7875 54.2712 28.4472 46.0477 36.6815 36.9432Z" fill="url(#paint8_radial_1_3195)"/>
<path style="mix-blend-mode:screen" d="M42.1165 36.4313C53.5491 46.7712 61.6362 56.4611 60.1725 58.0795C58.7088 59.6979 48.25 52.6303 36.8174 42.2904C25.3848 31.9505 17.3143 22.2597 18.778 20.6413C20.2417 19.0229 30.6926 26.0992 42.1165 36.4313Z" fill="url(#paint9_radial_1_3195)"/>
<path style="mix-blend-mode:screen" d="M42.1165 36.4303C53.5491 46.7702 61.6362 56.4601 60.1725 58.0785C58.7088 59.6969 48.25 52.6293 36.8174 42.2894C25.3848 31.9495 17.3143 22.2587 18.778 20.6403C20.2417 19.0219 30.6926 26.0982 42.1165 36.4303Z" fill="url(#paint10_radial_1_3195)"/>
<path style="mix-blend-mode:screen" d="M42.1165 36.4303C53.5491 46.7702 61.6362 56.4601 60.1725 58.0785C58.7088 59.6969 48.25 52.6293 36.8174 42.2894C25.3848 31.9495 17.3143 22.2587 18.778 20.6403C20.2417 19.0219 30.6926 26.0982 42.1165 36.4303Z" fill="url(#paint11_radial_1_3195)"/>
<path style="mix-blend-mode:screen" d="M42.1165 36.4303C53.5491 46.7702 61.6362 56.4601 60.1725 58.0785C58.7088 59.6969 48.25 52.6293 36.8174 42.2894C25.3848 31.9495 17.3143 22.2587 18.778 20.6403C20.2417 19.0219 30.6926 26.0982 42.1165 36.4303Z" fill="url(#paint12_radial_1_3195)"/>
<path style="mix-blend-mode:screen" d="M42.1165 36.4303C53.5491 46.7702 61.6362 56.4601 60.1725 58.0785C58.7088 59.6969 48.25 52.6293 36.8174 42.2894C25.3848 31.9495 17.3143 22.2587 18.778 20.6403C20.2417 19.0219 30.6926 26.0982 42.1165 36.4303Z" fill="url(#paint13_radial_1_3195)"/>
<path style="mix-blend-mode:screen" d="M42.1165 36.4303C53.5491 46.7702 61.6362 56.4601 60.1725 58.0785C58.7088 59.6969 48.25 52.6293 36.8174 42.2894C25.3848 31.9495 17.3143 22.2587 18.778 20.6403C20.2417 19.0219 30.6926 26.0982 42.1165 36.4303Z" fill="url(#paint14_radial_1_3195)"/>
<defs>
<radialGradient id="paint0_radial_1_3195" cx="0" cy="0" r="1" gradientUnits="userSpaceOnUse" gradientTransform="translate(40.5738 39.926) rotate(-137.873) scale(3.95757 27.8915)">
<stop offset="0.1" stop-color="#006AFF"/>
<stop offset="0.17" stop-color="#0058D3"/>
<stop offset="0.25" stop-color="#0043A2"/>
<stop offset="0.34" stop-color="#003177"/>
<stop offset="0.43" stop-color="#002252"/>
<stop offset="0.52" stop-color="#001634"/>
<stop offset="0.62" stop-color="#000C1D"/>
<stop offset="0.73" stop-color="#00050D"/>
<stop offset="0.85" stop-color="#000103"/>
<stop offset="1"/>
</radialGradient>
<radialGradient id="paint1_radial_1_3195" cx="0" cy="0" r="1" gradientUnits="userSpaceOnUse" gradientTransform="translate(35.747 35.5605) rotate(-137.873) scale(2.84901 22.1923)">
<stop stop-color="#006AFF"/>
<stop offset="0.04" stop-color="#005CDE"/>
<stop offset="0.1" stop-color="#0049B0"/>
<stop offset="0.17" stop-color="#003886"/>
<stop offset="0.24" stop-color="#002962"/>
<stop offset="0.31" stop-color="#001C43"/>
<stop offset="0.39" stop-color="#00122A"/>
<stop offset="0.49" stop-color="#000A17"/>
<stop offset="0.6" stop-color="#00040A"/>
<stop offset="0.73" stop-color="#000102"/>
<stop offset="1"/>
</radialGradient>
<radialGradient id="paint2_radial_1_3195" cx="0" cy="0" r="1" gradientUnits="userSpaceOnUse" gradientTransform="translate(39.9651 38.934) rotate(-47.8731) scale(3.95757 27.8915)">
<stop offset="0.17" stop-color="#0058D3"/>
<stop offset="0.25" stop-color="#0043A2"/>
<stop offset="0.34" stop-color="#003177"/>
<stop offset="0.43" stop-color="#002252"/>
<stop offset="0.52" stop-color="#001634"/>
<stop offset="0.62" stop-color="#000C1D"/>
<stop offset="0.73" stop-color="#00050D"/>
<stop offset="0.85" stop-color="#000103"/>
<stop offset="1"/>
</radialGradient>
<radialGradient id="paint3_radial_1_3195" cx="0" cy="0" r="1" gradientUnits="userSpaceOnUse" gradientTransform="translate(40.5738 39.926) rotate(-137.873) scale(3.95757 27.8915)">
<stop offset="0.1" stop-color="#006AFF"/>
<stop offset="0.17" stop-color="#0058D3"/>
<stop offset="0.25" stop-color="#0043A2"/>
<stop offset="0.34" stop-color="#003177"/>
<stop offset="0.43" stop-color="#002252"/>
<stop offset="0.52" stop-color="#001634"/>
<stop offset="0.62" stop-color="#000C1D"/>
<stop offset="0.73" stop-color="#00050D"/>
<stop offset="0.85" stop-color="#000103"/>
<stop offset="1"/>
</radialGradient>
<radialGradient id="paint4_radial_1_3195" cx="0" cy="0" r="1" gradientUnits="userSpaceOnUse" gradientTransform="translate(40.5738 39.927) rotate(-137.873) scale(3.95757 27.8915)">
<stop offset="0.1" stop-color="#006AFF"/>
<stop offset="0.17" stop-color="#0058D3"/>
<stop offset="0.25" stop-color="#0043A2"/>
<stop offset="0.34" stop-color="#003177"/>
<stop offset="0.43" stop-color="#002252"/>
<stop offset="0.52" stop-color="#001634"/>
<stop offset="0.62" stop-color="#000C1D"/>
<stop offset="0.73" stop-color="#00050D"/>
<stop offset="0.85" stop-color="#000103"/>
<stop offset="1"/>
</radialGradient>
<radialGradient id="paint5_radial_1_3195" cx="0" cy="0" r="1" gradientUnits="userSpaceOnUse" gradientTransform="translate(40.5738 39.927) rotate(-137.873) scale(3.95757 27.8915)">
<stop offset="0.1" stop-color="#006AFF"/>
<stop offset="0.17" stop-color="#0058D3"/>
<stop offset="0.25" stop-color="#0043A2"/>
<stop offset="0.34" stop-color="#003177"/>
<stop offset="0.43" stop-color="#002252"/>
<stop offset="0.52" stop-color="#001634"/>
<stop offset="0.62" stop-color="#000C1D"/>
<stop offset="0.73" stop-color="#00050D"/>
<stop offset="0.85" stop-color="#000103"/>
<stop offset="1"/>
</radialGradient>
<radialGradient id="paint6_radial_1_3195" cx="0" cy="0" r="1" gradientUnits="userSpaceOnUse" gradientTransform="translate(40.5738 39.927) rotate(-137.873) scale(3.95757 27.8915)">
<stop offset="0.1" stop-color="#006AFF"/>
<stop offset="0.17" stop-color="#0058D3"/>
<stop offset="0.25" stop-color="#0043A2"/>
<stop offset="0.34" stop-color="#003177"/>
<stop offset="0.43" stop-color="#002252"/>
<stop offset="0.52" stop-color="#001634"/>
<stop offset="0.62" stop-color="#000C1D"/>
<stop offset="0.73" stop-color="#00050D"/>
<stop offset="0.85" stop-color="#000103"/>
<stop offset="1"/>
</radialGradient>
<radialGradient id="paint7_radial_1_3195" cx="0" cy="0" r="1" gradientUnits="userSpaceOnUse" gradientTransform="translate(40.5738 39.927) rotate(-137.873) scale(3.95757 27.8915)">
<stop offset="0.1" stop-color="#006AFF"/>
<stop offset="0.17" stop-color="#0058D3"/>
<stop offset="0.25" stop-color="#0043A2"/>
<stop offset="0.34" stop-color="#003177"/>
<stop offset="0.43" stop-color="#002252"/>
<stop offset="0.52" stop-color="#001634"/>
<stop offset="0.62" stop-color="#000C1D"/>
<stop offset="0.73" stop-color="#00050D"/>
<stop offset="0.85" stop-color="#000103"/>
<stop offset="1"/>
</radialGradient>
<radialGradient id="paint8_radial_1_3195" cx="0" cy="0" r="1" gradientUnits="userSpaceOnUse" gradientTransform="translate(35.747 35.5605) rotate(-137.873) scale(2.84901 22.1923)">
<stop stop-color="#006AFF"/>
<stop offset="0.04" stop-color="#005CDE"/>
<stop offset="0.1" stop-color="#0049B0"/>
<stop offset="0.17" stop-color="#003886"/>
<stop offset="0.24" stop-color="#002962"/>
<stop offset="0.31" stop-color="#001C43"/>
<stop offset="0.39" stop-color="#00122A"/>
<stop offset="0.49" stop-color="#000A17"/>
<stop offset="0.6" stop-color="#00040A"/>
<stop offset="0.73" stop-color="#000102"/>
<stop offset="1"/>
</radialGradient>
<radialGradient id="paint9_radial_1_3195" cx="0" cy="0" r="1" gradientUnits="userSpaceOnUse" gradientTransform="translate(39.9651 38.934) rotate(-47.8731) scale(3.95757 27.8915)">
<stop offset="0.17" stop-color="#0058D3"/>
<stop offset="0.25" stop-color="#0043A2"/>
<stop offset="0.34" stop-color="#003177"/>
<stop offset="0.43" stop-color="#002252"/>
<stop offset="0.52" stop-color="#001634"/>
<stop offset="0.62" stop-color="#000C1D"/>
<stop offset="0.73" stop-color="#00050D"/>
<stop offset="0.85" stop-color="#000103"/>
<stop offset="1"/>
</radialGradient>
<radialGradient id="paint10_radial_1_3195" cx="0" cy="0" r="1" gradientUnits="userSpaceOnUse" gradientTransform="translate(39.9651 38.933) rotate(-47.8731) scale(3.95757 27.8915)">
<stop offset="0.17" stop-color="#0058D3"/>
<stop offset="0.25" stop-color="#0043A2"/>
<stop offset="0.34" stop-color="#003177"/>
<stop offset="0.43" stop-color="#002252"/>
<stop offset="0.52" stop-color="#001634"/>
<stop offset="0.62" stop-color="#000C1D"/>
<stop offset="0.73" stop-color="#00050D"/>
<stop offset="0.85" stop-color="#000103"/>
<stop offset="1"/>
</radialGradient>
<radialGradient id="paint11_radial_1_3195" cx="0" cy="0" r="1" gradientUnits="userSpaceOnUse" gradientTransform="translate(39.9651 38.933) rotate(-47.8731) scale(3.95757 27.8915)">
<stop offset="0.17" stop-color="#0058D3"/>
<stop offset="0.25" stop-color="#0043A2"/>
<stop offset="0.34" stop-color="#003177"/>
<stop offset="0.43" stop-color="#002252"/>
<stop offset="0.52" stop-color="#001634"/>
<stop offset="0.62" stop-color="#000C1D"/>
<stop offset="0.73" stop-color="#00050D"/>
<stop offset="0.85" stop-color="#000103"/>
<stop offset="1"/>
</radialGradient>
<radialGradient id="paint12_radial_1_3195" cx="0" cy="0" r="1" gradientUnits="userSpaceOnUse" gradientTransform="translate(39.9651 38.933) rotate(-47.8731) scale(3.95757 27.8915)">
<stop offset="0.17" stop-color="#0058D3"/>
<stop offset="0.25" stop-color="#0043A2"/>
<stop offset="0.34" stop-color="#003177"/>
<stop offset="0.43" stop-color="#002252"/>
<stop offset="0.52" stop-color="#001634"/>
<stop offset="0.62" stop-color="#000C1D"/>
<stop offset="0.73" stop-color="#00050D"/>
<stop offset="0.85" stop-color="#000103"/>
<stop offset="1"/>
</radialGradient>
<radialGradient id="paint13_radial_1_3195" cx="0" cy="0" r="1" gradientUnits="userSpaceOnUse" gradientTransform="translate(39.9651 38.933) rotate(-47.8731) scale(3.95757 27.8915)">
<stop offset="0.17" stop-color="#0058D3"/>
<stop offset="0.25" stop-color="#0043A2"/>
<stop offset="0.34" stop-color="#003177"/>
<stop offset="0.43" stop-color="#002252"/>
<stop offset="0.52" stop-color="#001634"/>
<stop offset="0.62" stop-color="#000C1D"/>
<stop offset="0.73" stop-color="#00050D"/>
<stop offset="0.85" stop-color="#000103"/>
<stop offset="1"/>
</radialGradient>
<radialGradient id="paint14_radial_1_3195" cx="0" cy="0" r="1" gradientUnits="userSpaceOnUse" gradientTransform="translate(39.9651 38.933) rotate(-47.8731) scale(3.95757 27.8915)">
<stop offset="0.17" stop-color="#0058D3"/>
<stop offset="0.25" stop-color="#0043A2"/>
<stop offset="0.34" stop-color="#003177"/>
<stop offset="0.43" stop-color="#002252"/>
<stop offset="0.52" stop-color="#001634"/>
<stop offset="0.62" stop-color="#000C1D"/>
<stop offset="0.73" stop-color="#00050D"/>
<stop offset="0.85" stop-color="#000103"/>
<stop offset="1"/>
</radialGradient>
</defs>
</svg>
