<svg width="59" height="59" viewBox="0 0 59 59" fill="none" xmlns="http://www.w3.org/2000/svg">
<path fill-rule="evenodd" clip-rule="evenodd" d="M10.4298 4.09009H51.8598C53.5413 4.09009 55.1539 4.75805 56.3429 5.94703C57.5319 7.13601 58.1998 8.74861 58.1998 10.4301V51.8601C58.1972 53.5407 57.5284 55.1518 56.34 56.3402C55.1516 57.5286 53.5405 58.1974 51.8598 58.2001H10.4298C8.74918 58.1974 7.13811 57.5286 5.94971 56.3402C4.7613 55.1518 4.09249 53.5407 4.08984 51.8601V10.4301C4.09249 8.74943 4.7613 7.13836 5.94971 5.94995C7.13811 4.76154 8.74918 4.09273 10.4298 4.09009Z" fill="url(#paint0_linear_561_12547)"/>
<path fill-rule="evenodd" clip-rule="evenodd" d="M10.4297 8.17993C10.1342 8.17965 9.84164 8.23781 9.56876 8.35109C9.29587 8.46436 9.04809 8.6305 8.83969 8.83993C8.42036 9.26332 8.18345 9.83405 8.17969 10.4299V51.8599C8.18491 52.4551 8.42365 53.0243 8.84448 53.4452C9.26531 53.866 9.83457 54.1047 10.4297 54.1099H51.8597C52.4556 54.1073 53.0264 53.8694 53.4478 53.448C53.8692 53.0266 54.107 52.4559 54.1097 51.8599V10.4299C54.1097 9.8332 53.8726 9.2609 53.4507 8.83894C53.0287 8.41699 52.4564 8.17993 51.8597 8.17993H10.4297Z" fill="url(#paint1_linear_561_12547)"/>
<path style="mix-blend-mode:screen" fill-rule="evenodd" clip-rule="evenodd" d="M10.4302 8.17986H51.8602C52.1557 8.17957 52.4482 8.23774 52.7211 8.35101C52.994 8.46429 53.2418 8.63043 53.4502 8.83986L56.3402 5.94986C55.7538 5.35872 55.0558 4.88991 54.2867 4.57063C53.5177 4.25134 52.6929 4.08792 51.8602 4.08986H10.4302C9.59785 4.09012 8.77371 4.25454 8.00497 4.5737C7.23624 4.89286 6.53798 5.36051 5.9502 5.94986L8.84021 8.83986C9.04861 8.63043 9.29639 8.46429 9.56927 8.35101C9.84216 8.23774 10.1347 8.17957 10.4302 8.17986Z" fill="url(#paint2_linear_561_12547)"/>
<path style="mix-blend-mode:multiply" fill-rule="evenodd" clip-rule="evenodd" d="M51.8602 54.1099H10.4302C10.1347 54.1102 9.84216 54.052 9.56927 53.9388C9.29639 53.8255 9.04861 53.6593 8.84021 53.4499L5.9502 56.2999C6.53798 56.8893 7.23624 57.3569 8.00497 57.6761C8.77371 57.9952 9.59785 58.1597 10.4302 58.1599H51.8602C52.6929 58.1619 53.5177 57.9984 54.2867 57.6791C55.0558 57.3599 55.7538 56.891 56.3402 56.2999L53.4502 53.4099C53.2418 53.6193 52.994 53.7855 52.7211 53.8988C52.4482 54.012 52.1557 54.0702 51.8602 54.0699V54.1099Z" fill="url(#paint3_linear_561_12547)"/>
<path style="mix-blend-mode:screen" fill-rule="evenodd" clip-rule="evenodd" d="M8.17984 51.86V10.43C8.18361 9.83407 8.42052 9.26334 8.83985 8.83995L5.94983 5.94995C5.35959 6.53707 4.89137 7.23519 4.57215 8.00408C4.25292 8.77297 4.08901 9.59743 4.08985 10.43V51.86C4.09877 53.5276 4.76747 55.1239 5.94983 56.2999L8.83985 53.41C8.42052 52.9866 8.18361 52.4158 8.17984 51.82V51.86Z" fill="url(#paint4_radial_561_12547)"/>
<path style="mix-blend-mode:multiply" fill-rule="evenodd" clip-rule="evenodd" d="M54.1102 10.43V51.86C54.1105 52.1554 54.0523 52.448 53.9391 52.7209C53.8258 52.9938 53.6596 53.2415 53.4502 53.45L56.3402 56.2999C56.9305 55.7128 57.3987 55.0147 57.7179 54.2458C58.0371 53.4769 58.201 52.6525 58.2002 51.82V10.43C58.201 9.59743 58.0371 8.77297 57.7179 8.00408C57.3987 7.23519 56.9305 6.53707 56.3402 5.94995L53.4502 8.83995C53.6596 9.04836 53.8258 9.29613 53.9391 9.56902C54.0523 9.8419 54.1105 10.1345 54.1102 10.43Z" fill="url(#paint5_linear_561_12547)"/>
<path style="mix-blend-mode:screen" fill-rule="evenodd" clip-rule="evenodd" d="M31.1501 56.16C20.2201 56.16 11.3701 55.37 11.3701 54.97C11.3701 54.57 27.6801 54.61 31.1501 54.61C34.6201 54.61 50.9301 54.61 50.9301 54.97C50.9301 55.33 42.0701 56.16 31.1501 56.16Z" fill="url(#paint6_radial_561_12547)"/>
<path style="mix-blend-mode:screen" opacity="0.65" fill-rule="evenodd" clip-rule="evenodd" d="M8.17969 36.79C18.5097 31.22 41.6197 21.87 54.1097 17.48V10.48C54.1097 9.88324 53.8726 9.31095 53.4507 8.88899C53.0287 8.46703 52.4564 8.22998 51.8597 8.22998H10.4297C10.1342 8.2297 9.84164 8.28786 9.56876 8.40114C9.29587 8.51441 9.04809 8.68055 8.83969 8.88998C8.42036 9.31337 8.18345 9.8841 8.17969 10.48V36.79Z" fill="url(#paint7_linear_561_12547)"/>
<path style="mix-blend-mode:screen" fill-rule="evenodd" clip-rule="evenodd" d="M8.17984 36.79V10.43C8.18361 9.83407 8.42052 9.26334 8.83985 8.83995L5.94983 5.94995C5.35959 6.53707 4.89137 7.23519 4.57215 8.00408C4.25292 8.77297 4.08901 9.59743 4.08985 10.43V38.5099C5.29924 37.6235 6.70038 37.0342 8.17984 36.79Z" fill="url(#paint8_linear_561_12547)"/>
<path style="mix-blend-mode:screen" fill-rule="evenodd" clip-rule="evenodd" d="M51.8597 4.69995H10.4297C8.90815 4.69994 7.44864 5.303 6.37088 6.37701C5.29312 7.45102 4.68498 8.90842 4.67969 10.43V36.9C4.70976 37.2599 4.87398 37.5953 5.13977 37.8398C5.40557 38.0843 5.75353 38.2201 6.11469 38.2201C6.47584 38.2201 6.8238 38.0843 7.0896 37.8398C7.35539 37.5953 7.51961 37.2599 7.54968 36.9V10.43C7.55489 9.67211 7.85757 8.94665 8.39252 8.40983C8.92747 7.87301 9.65188 7.5678 10.4097 7.55995H51.8397C52.6001 7.56259 53.3285 7.86581 53.8662 8.40347C54.4038 8.94113 54.7071 9.66959 54.7097 10.43V16.62C54.7097 16.9992 54.8604 17.3629 55.1285 17.6311C55.3967 17.8993 55.7604 18.05 56.1397 18.05C56.5189 18.05 56.8827 17.8993 57.1508 17.6311C57.419 17.3629 57.5697 16.9992 57.5697 16.62V10.43C57.5671 8.91107 56.9625 7.45516 55.8885 6.38115C54.8145 5.30714 53.3586 4.7026 51.8397 4.69995H51.8597Z" fill="url(#paint9_radial_561_12547)"/>
<g style="mix-blend-mode:screen">
<path fill-rule="evenodd" clip-rule="evenodd" d="M28.2601 7C18.9301 7 11.3701 7.37 11.3701 7.56C11.3701 7.75 25.3001 7.73 28.2601 7.73C31.2201 7.73 45.1501 7.73 45.1501 7.56C45.1501 7.39 37.5901 7 28.2601 7Z" fill="#A1FFEE"/>
</g>
<path fill-rule="evenodd" clip-rule="evenodd" d="M47.2496 53.55C44.8196 53.55 42.8496 53.9201 42.8496 54.1101C42.8496 54.3001 45.1996 54.42 47.2496 54.42C49.2996 54.42 51.6796 54.3001 51.6796 54.1101C51.6796 53.9201 49.6796 53.55 47.2696 53.55H47.2496Z" fill="#88F6FF"/>
<path fill-rule="evenodd" clip-rule="evenodd" d="M39.7597 53.6699C38.8078 53.5873 37.8501 53.7383 36.9697 54.1099C38.816 54.4298 40.7035 54.4298 42.5497 54.1099C41.6698 53.7368 40.7117 53.5857 39.7597 53.6699Z" fill="#88F6FF"/>
<g style="mix-blend-mode:multiply" opacity="0.5">
<path fill-rule="evenodd" clip-rule="evenodd" d="M6.91037 55.8599C7.33104 55.2327 7.85514 54.6816 8.46036 54.2299C8.77539 54.0311 9.13801 53.9206 9.51035 53.9099C9.19838 53.7678 8.92232 53.5574 8.70251 53.2943C8.48271 53.0312 8.32477 52.7222 8.24036 52.3899C8.3212 52.8735 8.23666 53.3703 8.00037 53.7999C7.57983 54.43 7.05576 54.9845 6.45035 55.4399C6.12862 55.6502 5.73845 55.7289 5.36035 55.6599C5.7517 56.1814 6.22046 56.64 6.75037 57.0199C6.64997 56.6272 6.70741 56.2108 6.91037 55.8599Z" fill="#5FB7FC"/>
</g>
<g style="mix-blend-mode:multiply" opacity="0.5">
<path fill-rule="evenodd" clip-rule="evenodd" d="M55.3901 55.8599C54.963 55.2346 54.436 54.684 53.8301 54.2299C53.5302 54.0382 53.1855 53.9279 52.8301 53.9099C53.1446 53.7715 53.4228 53.5623 53.6431 53.2986C53.8634 53.035 54.0198 52.724 54.1001 52.3899C54.0289 52.8734 54.1129 53.3671 54.3401 53.7999C54.7642 54.4303 55.2916 54.9848 55.9001 55.4399C56.2183 55.6495 56.6052 55.7283 56.9801 55.6599C56.5887 56.1814 56.12 56.64 55.5901 57.0199C55.6946 56.6285 55.6407 56.2118 55.4401 55.8599H55.3901Z" fill="#5FB7FC"/>
</g>
<g style="mix-blend-mode:screen">
<path fill-rule="evenodd" clip-rule="evenodd" d="M6.91037 6.42005C7.32795 7.05252 7.85243 7.60747 8.46036 8.06005C8.77539 8.25881 9.13801 8.36933 9.51035 8.38005C9.19838 8.52219 8.92232 8.73256 8.70251 8.99564C8.48271 9.25871 8.32477 9.56779 8.24036 9.90005C8.322 9.41643 8.23741 8.91942 8.00037 8.49005C7.57983 7.85992 7.05576 7.30544 6.45035 6.85005C6.12862 6.63978 5.73845 6.56103 5.36035 6.63005C5.75403 6.11921 6.22267 5.67081 6.75037 5.30005C6.64942 5.68945 6.70696 6.10299 6.91037 6.45005V6.42005Z" fill="#75CAFF"/>
</g>
<g style="mix-blend-mode:screen">
<path fill-rule="evenodd" clip-rule="evenodd" d="M55.3901 6.42005C54.9659 7.0505 54.4386 7.60494 53.8301 8.06005C53.5302 8.25172 53.1855 8.362 52.8301 8.38005C53.1446 8.51845 53.4228 8.72764 53.6431 8.99131C53.8634 9.25497 54.0198 9.56598 54.1001 9.90005C54.0282 9.41649 54.1123 8.9226 54.3401 8.49005C54.7642 7.85959 55.2916 7.30516 55.9001 6.85005C56.2183 6.6404 56.6052 6.5616 56.9801 6.63005C56.5712 6.1154 56.0855 5.66681 55.5401 5.30005C55.5921 5.49216 55.6056 5.69266 55.5799 5.89002C55.5542 6.08738 55.4896 6.27771 55.3901 6.45005V6.42005Z" fill="#75CAFF"/>
</g>
<path fill-rule="evenodd" clip-rule="evenodd" d="M10.4304 9.60986H51.8604C52.0778 9.60986 52.2864 9.69626 52.4402 9.85004C52.594 10.0038 52.6804 10.2124 52.6804 10.4299V51.8599C52.6778 52.0765 52.5905 52.2836 52.4373 52.4368C52.2841 52.59 52.077 52.6773 51.8604 52.6799H10.4304C10.2145 52.6748 10.0089 52.5868 9.85617 52.4341C9.70348 52.2814 9.61543 52.0757 9.61035 51.8599V10.4299C9.61105 10.3214 9.63357 10.2141 9.67651 10.1145C9.71946 10.0149 9.78196 9.92487 9.86035 9.84986C9.93468 9.77403 10.0234 9.71376 10.1212 9.67255C10.2191 9.63135 10.3242 9.61004 10.4304 9.60986Z" fill="url(#paint10_linear_561_12547)"/>
<path fill-rule="evenodd" clip-rule="evenodd" d="M10.4303 9.81006C10.2684 9.81518 10.1147 9.88245 10.0011 9.9979C9.88754 10.1134 9.8228 10.2681 9.82031 10.4301V51.8601C9.82289 52.021 9.88796 52.1747 10.0018 52.2885C10.1156 52.4024 10.2693 52.4675 10.4303 52.4701H51.8603C52.023 52.4701 52.1792 52.4061 52.2952 52.292C52.4112 52.1779 52.4777 52.0228 52.4803 51.8601V10.4301C52.4777 10.2664 52.4116 10.1102 52.2959 9.9945C52.1801 9.87878 52.0239 9.81264 51.8603 9.81006H10.4303Z" fill="url(#paint11_linear_561_12547)"/>
<path style="mix-blend-mode:multiply" opacity="0.5" fill-rule="evenodd" clip-rule="evenodd" d="M9.82031 18.5201C10.8203 15.6901 12.0503 13.8701 13.9403 13.3201C18.3803 12.0401 26.1603 12.2301 31.1503 12.2301C36.1403 12.2301 43.9203 12.0401 48.3503 13.3201C50.2503 13.8701 51.5003 15.6901 52.4803 18.5201V10.4301C52.473 10.268 52.4053 10.1145 52.2906 9.99978C52.1759 9.88505 52.0224 9.81738 51.8603 9.81006H10.4303C10.2684 9.81518 10.1147 9.88245 10.0011 9.9979C9.88754 10.1134 9.8228 10.2681 9.82031 10.4301V18.5201Z" fill="url(#paint12_linear_561_12547)"/>
<path style="mix-blend-mode:screen" fill-rule="evenodd" clip-rule="evenodd" d="M31.1504 51.5C24.8704 51.5 11.1504 51.6501 11.1504 50.0201C11.1504 48.39 20.1504 45.55 31.1504 45.55C42.1504 45.55 51.1504 48.39 51.1504 50.0201C51.1504 51.6501 37.4204 51.5 31.1504 51.5Z" fill="url(#paint13_radial_561_12547)"/>
<path style="mix-blend-mode:screen" d="M16.1363 10.0628C17.1779 5.66685 14.4586 1.25884 10.0626 0.217244C5.66664 -0.824351 1.25862 1.8949 0.217028 6.29088C-0.824567 10.6869 1.8947 15.0949 6.29067 16.1365C10.6866 17.1781 15.0947 14.4588 16.1363 10.0628Z" fill="url(#paint14_radial_561_12547)"/>
<path d="M30.896 42C30.6613 42 30.4587 41.9253 30.288 41.776C30.1387 41.6053 30.064 41.4027 30.064 41.168V27.088L26.064 30.16C25.8507 30.3093 25.6373 30.3627 25.424 30.32C25.232 30.256 25.0507 30.1173 24.88 29.904L22.544 26.864C22.4373 26.672 22.3947 26.4587 22.416 26.224C22.4587 25.9893 22.5867 25.808 22.8 25.68L30.352 19.824C30.4587 19.7387 30.5653 19.6853 30.672 19.664C30.7787 19.6213 30.9067 19.6 31.056 19.6H36.08C36.3147 19.6 36.5173 19.6853 36.688 19.856C36.8587 20.0053 36.944 20.1973 36.944 20.432V41.168C36.944 41.4027 36.8587 41.6053 36.688 41.776C36.5173 41.9253 36.3147 42 36.08 42H30.896Z" fill="#031E4D"/>
<path d="M30.288 41.776L29.5354 42.4345L29.5793 42.4847L29.6295 42.5286L30.288 41.776ZM30.064 27.088H31.064V25.0591L29.4549 26.2949L30.064 27.088ZM26.064 30.16L26.6375 30.9792L26.6556 30.9666L26.6731 30.9531L26.064 30.16ZM25.424 30.32L25.1078 31.2687L25.1668 31.2884L25.2279 31.3006L25.424 30.32ZM24.88 29.904L24.0871 30.5133L24.093 30.5211L24.0991 30.5287L24.88 29.904ZM22.544 26.864L21.6698 27.3496L21.7059 27.4145L21.7511 27.4733L22.544 26.864ZM22.416 26.224L21.4321 26.0451L21.4241 26.089L21.4201 26.1335L22.416 26.224ZM22.8 25.68L23.3145 26.5375L23.3656 26.5068L23.4128 26.4703L22.8 25.68ZM30.352 19.824L30.9648 20.6143L30.9708 20.6096L30.9767 20.6049L30.352 19.824ZM30.672 19.664L30.8681 20.6446L30.9581 20.6266L31.0434 20.5925L30.672 19.664ZM36.688 19.856L35.9809 20.5631L36.0044 20.5866L36.0295 20.6086L36.688 19.856ZM36.688 41.776L37.3465 42.5286L37.3716 42.5067L37.3951 42.4831L36.688 41.776ZM30.896 41C30.8864 41 30.8951 40.9988 30.9137 41.0057C30.9222 41.0088 30.93 41.0126 30.9365 41.0165C30.9429 41.0204 30.9462 41.0232 30.9465 41.0234L29.6295 42.5286C29.9893 42.8434 30.4283 43 30.896 43V41ZM31.0406 41.1175C31.0408 41.1178 31.0436 41.1211 31.0475 41.1275C31.0514 41.134 31.0552 41.1418 31.0583 41.1503C31.0652 41.1689 31.064 41.1776 31.064 41.168H29.064C29.064 41.6357 29.2206 42.0747 29.5354 42.4345L31.0406 41.1175ZM31.064 41.168V27.088H29.064V41.168H31.064ZM29.4549 26.2949L25.4549 29.3669L26.6731 30.9531L30.6731 27.8811L29.4549 26.2949ZM25.4905 29.3408C25.466 29.358 25.4699 29.3498 25.5015 29.3419C25.5172 29.3379 25.5368 29.3349 25.559 29.3343C25.5813 29.3338 25.6021 29.3358 25.6201 29.3394L25.2279 31.3006C25.761 31.4072 26.2479 31.2519 26.6375 30.9792L25.4905 29.3408ZM25.7402 29.3713C25.7847 29.3861 25.7521 29.3934 25.6609 29.2793L24.0991 30.5287C24.3492 30.8413 24.6793 31.1258 25.1078 31.2687L25.7402 29.3713ZM25.6729 29.2947L23.3369 26.2547L21.7511 27.4733L24.0871 30.5133L25.6729 29.2947ZM23.4182 26.3784C23.4162 26.3748 23.4073 26.3646 23.4119 26.3145L21.4201 26.1335C21.382 26.5528 21.4585 26.9692 21.6698 27.3496L23.4182 26.3784ZM23.3999 26.4029C23.3971 26.4179 23.387 26.4518 23.361 26.4887C23.3356 26.5246 23.3126 26.5386 23.3145 26.5375L22.2855 24.8225C21.8374 25.0913 21.5288 25.5136 21.4321 26.0451L23.3999 26.4029ZM23.4128 26.4703L30.9648 20.6143L29.7392 19.0337L22.1872 24.8897L23.4128 26.4703ZM30.9767 20.6049C30.9897 20.5944 30.9532 20.6276 30.8681 20.6446L30.4759 18.6834C30.1774 18.7431 29.9276 18.8829 29.7273 19.0431L30.9767 20.6049ZM31.0434 20.5925C31.0221 20.601 31.0103 20.6027 31.0124 20.6024C31.0147 20.602 31.0284 20.6 31.056 20.6V18.6C30.8158 18.6 30.555 18.6338 30.3006 18.7355L31.0434 20.5925ZM31.056 20.6H36.08V18.6H31.056V20.6ZM36.08 20.6C36.0731 20.6 36.0495 20.5981 36.0199 20.5856C35.9909 20.5734 35.9781 20.5603 35.9809 20.5631L37.3951 19.1489C37.0429 18.7967 36.5882 18.6 36.08 18.6V20.6ZM36.0295 20.6086C36.0144 20.5954 35.987 20.5651 35.9662 20.5181C35.9457 20.4721 35.944 20.4382 35.944 20.432H37.944C37.944 19.9204 37.7427 19.4501 37.3465 19.1034L36.0295 20.6086ZM35.944 20.432V41.168H37.944V20.432H35.944ZM35.944 41.168C35.944 41.1611 35.9459 41.1375 35.9584 41.1079C35.9706 41.0789 35.9837 41.0661 35.9809 41.0689L37.3951 42.4831C37.7473 42.1309 37.944 41.6762 37.944 41.168H35.944ZM36.0295 41.0234C36.0298 41.0232 36.0331 41.0204 36.0395 41.0165C36.046 41.0126 36.0538 41.0088 36.0623 41.0057C36.0809 40.9988 36.0896 41 36.08 41V43C36.5477 43 36.9867 42.8434 37.3465 42.5286L36.0295 41.0234ZM36.08 41H30.896V43H36.08V41Z" fill="white"/>
<defs>
<linearGradient id="paint0_linear_561_12547" x1="56.3398" y1="56.3401" x2="5.94983" y2="5.9501" gradientUnits="userSpaceOnUse">
<stop stop-color="#4CB7FF"/>
<stop offset="1" stop-color="#7AEDFF"/>
</linearGradient>
<linearGradient id="paint1_linear_561_12547" x1="53.4497" y1="53.4499" x2="8.83968" y2="8.83995" gradientUnits="userSpaceOnUse">
<stop stop-color="#60C1FF"/>
<stop offset="1" stop-color="#8CDEFF"/>
</linearGradient>
<linearGradient id="paint2_linear_561_12547" x1="5.9502" y1="6.45986" x2="56.3402" y2="6.45986" gradientUnits="userSpaceOnUse">
<stop stop-color="#00080D"/>
<stop offset="1" stop-color="#3040E8"/>
</linearGradient>
<linearGradient id="paint3_linear_561_12547" x1="5.9502" y1="55.8199" x2="56.3402" y2="55.8199" gradientUnits="userSpaceOnUse">
<stop stop-color="#FCFFFF"/>
<stop offset="1" stop-color="#70A2FF"/>
</linearGradient>
<radialGradient id="paint4_radial_561_12547" cx="0" cy="0" r="1" gradientUnits="userSpaceOnUse" gradientTransform="translate(-2.17015 7.26995) scale(62.41 62.41)">
<stop stop-color="#1F6AF0"/>
<stop offset="1" stop-color="#002348"/>
</radialGradient>
<linearGradient id="paint5_linear_561_12547" x1="53.4502" y1="31.1399" x2="58.2002" y2="31.1399" gradientUnits="userSpaceOnUse">
<stop stop-color="#FCFFFF"/>
<stop offset="1" stop-color="#4484FF"/>
</linearGradient>
<radialGradient id="paint6_radial_561_12547" cx="0" cy="0" r="1" gradientUnits="userSpaceOnUse" gradientTransform="translate(34.4201 64.25) scale(34.03 34.03)">
<stop stop-color="#0D50D9"/>
<stop offset="1" stop-color="#00080D"/>
</radialGradient>
<linearGradient id="paint7_linear_561_12547" x1="39.7997" y1="31.8" x2="12.8397" y2="4.83999" gradientUnits="userSpaceOnUse">
<stop stop-color="#00080D"/>
<stop offset="1" stop-color="#073FD9"/>
</linearGradient>
<linearGradient id="paint8_linear_561_12547" x1="6.46985" y1="38.5099" x2="6.46985" y2="5.94995" gradientUnits="userSpaceOnUse">
<stop stop-color="#00080D"/>
<stop offset="1" stop-color="#26DCFF"/>
</linearGradient>
<radialGradient id="paint9_radial_561_12547" cx="0" cy="0" r="1" gradientUnits="userSpaceOnUse" gradientTransform="translate(9.34969 2.76995) scale(50.2 50.2)">
<stop stop-color="#66B2FF"/>
<stop offset="1" stop-color="#00080D"/>
</radialGradient>
<linearGradient id="paint10_linear_561_12547" x1="52.4404" y1="52.4399" x2="9.86036" y2="9.84986" gradientUnits="userSpaceOnUse">
<stop stop-color="#1D7BFF"/>
<stop offset="1" stop-color="#6DDEFF"/>
</linearGradient>
<linearGradient id="paint11_linear_561_12547" x1="31.1503" y1="52.4701" x2="31.1503" y2="9.81006" gradientUnits="userSpaceOnUse">
<stop stop-color="#72E3FF"/>
<stop offset="1" stop-color="#4499FF"/>
</linearGradient>
<linearGradient id="paint12_linear_561_12547" x1="31.1503" y1="18.5201" x2="31.1503" y2="9.81006" gradientUnits="userSpaceOnUse">
<stop stop-color="#FCFFFF"/>
<stop offset="1" stop-color="#4795E6"/>
</linearGradient>
<radialGradient id="paint13_radial_561_12547" cx="0" cy="0" r="1" gradientUnits="userSpaceOnUse" gradientTransform="translate(30.7904 74.0901) scale(36.55 36.55)">
<stop stop-color="#30CCFF"/>
<stop offset="1" stop-color="#00080D"/>
</radialGradient>
<radialGradient id="paint14_radial_561_12547" cx="0" cy="0" r="1" gradientUnits="userSpaceOnUse" gradientTransform="translate(8.17265 8.17972) scale(8.18 8.17999)">
<stop stop-color="#00FF9D"/>
<stop offset="0.06" stop-color="#00E68D"/>
<stop offset="0.21" stop-color="#00AA68"/>
<stop offset="0.35" stop-color="#007649"/>
<stop offset="0.5" stop-color="#004C2E"/>
<stop offset="0.64" stop-color="#002B1A"/>
<stop offset="0.77" stop-color="#00130C"/>
<stop offset="0.89" stop-color="#000503"/>
<stop offset="1"/>
</radialGradient>
</defs>
</svg>
