<svg width="59" height="59" viewBox="0 0 59 59" fill="none" xmlns="http://www.w3.org/2000/svg">
<path fill-rule="evenodd" clip-rule="evenodd" d="M10.4298 4.09009H51.8598C53.5413 4.09009 55.1539 4.75805 56.3429 5.94703C57.5319 7.13601 58.1998 8.74861 58.1998 10.4301V51.8601C58.1972 53.5407 57.5284 55.1518 56.34 56.3402C55.1516 57.5286 53.5405 58.1974 51.8598 58.2001H10.4298C8.74918 58.1974 7.13811 57.5286 5.94971 56.3402C4.7613 55.1518 4.09249 53.5407 4.08984 51.8601V10.4301C4.09249 8.74943 4.7613 7.13836 5.94971 5.94995C7.13811 4.76154 8.74918 4.09273 10.4298 4.09009Z" fill="url(#paint0_linear_561_12577)"/>
<path fill-rule="evenodd" clip-rule="evenodd" d="M10.4297 8.17993C10.1342 8.17965 9.84164 8.23781 9.56876 8.35109C9.29587 8.46436 9.04809 8.6305 8.83969 8.83993C8.42036 9.26332 8.18345 9.83405 8.17969 10.4299V51.8599C8.18491 52.4551 8.42365 53.0243 8.84448 53.4452C9.26531 53.866 9.83457 54.1047 10.4297 54.1099H51.8597C52.4556 54.1073 53.0264 53.8694 53.4478 53.448C53.8692 53.0266 54.107 52.4559 54.1097 51.8599V10.4299C54.1097 9.8332 53.8726 9.2609 53.4507 8.83894C53.0287 8.41699 52.4564 8.17993 51.8597 8.17993H10.4297Z" fill="url(#paint1_linear_561_12577)"/>
<path style="mix-blend-mode:screen" fill-rule="evenodd" clip-rule="evenodd" d="M10.4302 8.17986H51.8602C52.1557 8.17957 52.4482 8.23774 52.7211 8.35101C52.994 8.46429 53.2418 8.63043 53.4502 8.83986L56.3402 5.94986C55.7538 5.35872 55.0558 4.88991 54.2867 4.57063C53.5177 4.25134 52.6929 4.08792 51.8602 4.08986H10.4302C9.59785 4.09012 8.77371 4.25454 8.00497 4.5737C7.23624 4.89286 6.53798 5.36051 5.9502 5.94986L8.84021 8.83986C9.04861 8.63043 9.29639 8.46429 9.56927 8.35101C9.84216 8.23774 10.1347 8.17957 10.4302 8.17986Z" fill="url(#paint2_linear_561_12577)"/>
<path style="mix-blend-mode:multiply" fill-rule="evenodd" clip-rule="evenodd" d="M51.8602 54.1099H10.4302C10.1347 54.1102 9.84216 54.052 9.56927 53.9388C9.29639 53.8255 9.04861 53.6593 8.84021 53.4499L5.9502 56.2999C6.53798 56.8893 7.23624 57.3569 8.00497 57.6761C8.77371 57.9952 9.59785 58.1597 10.4302 58.1599H51.8602C52.6929 58.1619 53.5177 57.9984 54.2867 57.6791C55.0558 57.3599 55.7538 56.891 56.3402 56.2999L53.4502 53.4099C53.2418 53.6193 52.994 53.7855 52.7211 53.8988C52.4482 54.012 52.1557 54.0702 51.8602 54.0699V54.1099Z" fill="url(#paint3_linear_561_12577)"/>
<path style="mix-blend-mode:screen" fill-rule="evenodd" clip-rule="evenodd" d="M8.17984 51.86V10.43C8.18361 9.83407 8.42052 9.26334 8.83985 8.83995L5.94983 5.94995C5.35959 6.53707 4.89137 7.23519 4.57215 8.00408C4.25292 8.77297 4.08901 9.59743 4.08985 10.43V51.86C4.09877 53.5276 4.76747 55.1239 5.94983 56.2999L8.83985 53.41C8.42052 52.9866 8.18361 52.4158 8.17984 51.82V51.86Z" fill="url(#paint4_radial_561_12577)"/>
<path style="mix-blend-mode:multiply" fill-rule="evenodd" clip-rule="evenodd" d="M54.1102 10.43V51.86C54.1105 52.1554 54.0523 52.448 53.9391 52.7209C53.8258 52.9938 53.6596 53.2415 53.4502 53.45L56.3402 56.2999C56.9305 55.7128 57.3987 55.0147 57.7179 54.2458C58.0371 53.4769 58.201 52.6525 58.2002 51.82V10.43C58.201 9.59743 58.0371 8.77297 57.7179 8.00408C57.3987 7.23519 56.9305 6.53707 56.3402 5.94995L53.4502 8.83995C53.6596 9.04836 53.8258 9.29613 53.9391 9.56902C54.0523 9.8419 54.1105 10.1345 54.1102 10.43Z" fill="url(#paint5_linear_561_12577)"/>
<path style="mix-blend-mode:screen" fill-rule="evenodd" clip-rule="evenodd" d="M31.1501 56.16C20.2201 56.16 11.3701 55.37 11.3701 54.97C11.3701 54.57 27.6801 54.61 31.1501 54.61C34.6201 54.61 50.9301 54.61 50.9301 54.97C50.9301 55.33 42.0701 56.16 31.1501 56.16Z" fill="url(#paint6_radial_561_12577)"/>
<path style="mix-blend-mode:screen" opacity="0.65" fill-rule="evenodd" clip-rule="evenodd" d="M8.17969 36.79C18.5097 31.22 41.6197 21.87 54.1097 17.48V10.48C54.1097 9.88324 53.8726 9.31095 53.4507 8.88899C53.0287 8.46703 52.4564 8.22998 51.8597 8.22998H10.4297C10.1342 8.2297 9.84164 8.28786 9.56876 8.40114C9.29587 8.51441 9.04809 8.68055 8.83969 8.88998C8.42036 9.31337 8.18345 9.8841 8.17969 10.48V36.79Z" fill="url(#paint7_linear_561_12577)"/>
<path style="mix-blend-mode:screen" fill-rule="evenodd" clip-rule="evenodd" d="M8.17984 36.79V10.43C8.18361 9.83407 8.42052 9.26334 8.83985 8.83995L5.94983 5.94995C5.35959 6.53707 4.89137 7.23519 4.57215 8.00408C4.25292 8.77297 4.08901 9.59743 4.08985 10.43V38.5099C5.29924 37.6235 6.70038 37.0342 8.17984 36.79Z" fill="url(#paint8_linear_561_12577)"/>
<path style="mix-blend-mode:screen" fill-rule="evenodd" clip-rule="evenodd" d="M51.8597 4.69995H10.4297C8.90815 4.69994 7.44864 5.303 6.37088 6.37701C5.29312 7.45102 4.68498 8.90842 4.67969 10.43V36.9C4.70976 37.2599 4.87398 37.5953 5.13977 37.8398C5.40557 38.0843 5.75353 38.2201 6.11469 38.2201C6.47584 38.2201 6.8238 38.0843 7.0896 37.8398C7.35539 37.5953 7.51961 37.2599 7.54968 36.9V10.43C7.55489 9.67211 7.85757 8.94665 8.39252 8.40983C8.92747 7.87301 9.65188 7.5678 10.4097 7.55995H51.8397C52.6001 7.56259 53.3285 7.86581 53.8662 8.40347C54.4038 8.94113 54.7071 9.66959 54.7097 10.43V16.62C54.7097 16.9992 54.8604 17.3629 55.1285 17.6311C55.3967 17.8993 55.7604 18.05 56.1397 18.05C56.5189 18.05 56.8827 17.8993 57.1508 17.6311C57.419 17.3629 57.5697 16.9992 57.5697 16.62V10.43C57.5671 8.91107 56.9625 7.45516 55.8885 6.38115C54.8145 5.30714 53.3586 4.7026 51.8397 4.69995H51.8597Z" fill="url(#paint9_radial_561_12577)"/>
<g style="mix-blend-mode:screen">
<path fill-rule="evenodd" clip-rule="evenodd" d="M28.2601 7C18.9301 7 11.3701 7.37 11.3701 7.56C11.3701 7.75 25.3001 7.73 28.2601 7.73C31.2201 7.73 45.1501 7.73 45.1501 7.56C45.1501 7.39 37.5901 7 28.2601 7Z" fill="#A1FFEE"/>
</g>
<path fill-rule="evenodd" clip-rule="evenodd" d="M47.2496 53.55C44.8196 53.55 42.8496 53.9201 42.8496 54.1101C42.8496 54.3001 45.1996 54.42 47.2496 54.42C49.2996 54.42 51.6796 54.3001 51.6796 54.1101C51.6796 53.9201 49.6796 53.55 47.2696 53.55H47.2496Z" fill="#88F6FF"/>
<path fill-rule="evenodd" clip-rule="evenodd" d="M39.7597 53.6699C38.8078 53.5873 37.8501 53.7383 36.9697 54.1099C38.816 54.4298 40.7035 54.4298 42.5497 54.1099C41.6698 53.7368 40.7117 53.5857 39.7597 53.6699Z" fill="#88F6FF"/>
<g style="mix-blend-mode:multiply" opacity="0.5">
<path fill-rule="evenodd" clip-rule="evenodd" d="M6.91037 55.8599C7.33104 55.2327 7.85514 54.6816 8.46036 54.2299C8.77539 54.0311 9.13801 53.9206 9.51035 53.9099C9.19838 53.7678 8.92232 53.5574 8.70251 53.2943C8.48271 53.0312 8.32477 52.7222 8.24036 52.3899C8.3212 52.8735 8.23666 53.3703 8.00037 53.7999C7.57983 54.43 7.05576 54.9845 6.45035 55.4399C6.12862 55.6502 5.73845 55.7289 5.36035 55.6599C5.7517 56.1814 6.22046 56.64 6.75037 57.0199C6.64997 56.6272 6.70741 56.2108 6.91037 55.8599Z" fill="#5FB7FC"/>
</g>
<g style="mix-blend-mode:multiply" opacity="0.5">
<path fill-rule="evenodd" clip-rule="evenodd" d="M55.3901 55.8599C54.963 55.2346 54.436 54.684 53.8301 54.2299C53.5302 54.0382 53.1855 53.9279 52.8301 53.9099C53.1446 53.7715 53.4228 53.5623 53.6431 53.2986C53.8634 53.035 54.0198 52.724 54.1001 52.3899C54.0289 52.8734 54.1129 53.3671 54.3401 53.7999C54.7642 54.4303 55.2916 54.9848 55.9001 55.4399C56.2183 55.6495 56.6052 55.7283 56.9801 55.6599C56.5887 56.1814 56.12 56.64 55.5901 57.0199C55.6946 56.6285 55.6407 56.2118 55.4401 55.8599H55.3901Z" fill="#5FB7FC"/>
</g>
<g style="mix-blend-mode:screen">
<path fill-rule="evenodd" clip-rule="evenodd" d="M6.91037 6.42005C7.32795 7.05252 7.85243 7.60747 8.46036 8.06005C8.77539 8.25881 9.13801 8.36933 9.51035 8.38005C9.19838 8.52219 8.92232 8.73256 8.70251 8.99564C8.48271 9.25871 8.32477 9.56779 8.24036 9.90005C8.322 9.41643 8.23741 8.91942 8.00037 8.49005C7.57983 7.85992 7.05576 7.30544 6.45035 6.85005C6.12862 6.63978 5.73845 6.56103 5.36035 6.63005C5.75403 6.11921 6.22267 5.67081 6.75037 5.30005C6.64942 5.68945 6.70696 6.10299 6.91037 6.45005V6.42005Z" fill="#75CAFF"/>
</g>
<g style="mix-blend-mode:screen">
<path fill-rule="evenodd" clip-rule="evenodd" d="M55.3901 6.42005C54.9659 7.0505 54.4386 7.60494 53.8301 8.06005C53.5302 8.25172 53.1855 8.362 52.8301 8.38005C53.1446 8.51845 53.4228 8.72764 53.6431 8.99131C53.8634 9.25497 54.0198 9.56598 54.1001 9.90005C54.0282 9.41649 54.1123 8.9226 54.3401 8.49005C54.7642 7.85959 55.2916 7.30516 55.9001 6.85005C56.2183 6.6404 56.6052 6.5616 56.9801 6.63005C56.5712 6.1154 56.0855 5.66681 55.5401 5.30005C55.5921 5.49216 55.6056 5.69266 55.5799 5.89002C55.5542 6.08738 55.4896 6.27771 55.3901 6.45005V6.42005Z" fill="#75CAFF"/>
</g>
<path fill-rule="evenodd" clip-rule="evenodd" d="M10.4304 9.60986H51.8604C52.0778 9.60986 52.2864 9.69626 52.4402 9.85004C52.594 10.0038 52.6804 10.2124 52.6804 10.4299V51.8599C52.6778 52.0765 52.5905 52.2836 52.4373 52.4368C52.2841 52.59 52.077 52.6773 51.8604 52.6799H10.4304C10.2145 52.6748 10.0089 52.5868 9.85617 52.4341C9.70348 52.2814 9.61543 52.0757 9.61035 51.8599V10.4299C9.61105 10.3214 9.63357 10.2141 9.67651 10.1145C9.71946 10.0149 9.78196 9.92487 9.86035 9.84986C9.93468 9.77403 10.0234 9.71376 10.1212 9.67255C10.2191 9.63135 10.3242 9.61004 10.4304 9.60986Z" fill="url(#paint10_linear_561_12577)"/>
<path fill-rule="evenodd" clip-rule="evenodd" d="M10.4303 9.81006C10.2684 9.81518 10.1147 9.88245 10.0011 9.9979C9.88754 10.1134 9.8228 10.2681 9.82031 10.4301V51.8601C9.82289 52.021 9.88796 52.1747 10.0018 52.2885C10.1156 52.4024 10.2693 52.4675 10.4303 52.4701H51.8603C52.023 52.4701 52.1792 52.4061 52.2952 52.292C52.4112 52.1779 52.4777 52.0228 52.4803 51.8601V10.4301C52.4777 10.2664 52.4116 10.1102 52.2959 9.9945C52.1801 9.87878 52.0239 9.81264 51.8603 9.81006H10.4303Z" fill="url(#paint11_linear_561_12577)"/>
<path style="mix-blend-mode:multiply" opacity="0.5" fill-rule="evenodd" clip-rule="evenodd" d="M9.82031 18.5201C10.8203 15.6901 12.0503 13.8701 13.9403 13.3201C18.3803 12.0401 26.1603 12.2301 31.1503 12.2301C36.1403 12.2301 43.9203 12.0401 48.3503 13.3201C50.2503 13.8701 51.5003 15.6901 52.4803 18.5201V10.4301C52.473 10.268 52.4053 10.1145 52.2906 9.99978C52.1759 9.88505 52.0224 9.81738 51.8603 9.81006H10.4303C10.2684 9.81518 10.1147 9.88245 10.0011 9.9979C9.88754 10.1134 9.8228 10.2681 9.82031 10.4301V18.5201Z" fill="url(#paint12_linear_561_12577)"/>
<path style="mix-blend-mode:screen" fill-rule="evenodd" clip-rule="evenodd" d="M31.1504 51.5C24.8704 51.5 11.1504 51.6501 11.1504 50.0201C11.1504 48.39 20.1504 45.55 31.1504 45.55C42.1504 45.55 51.1504 48.39 51.1504 50.0201C51.1504 51.6501 37.4204 51.5 31.1504 51.5Z" fill="url(#paint13_radial_561_12577)"/>
<path style="mix-blend-mode:screen" d="M16.1363 10.0628C17.1779 5.66685 14.4586 1.25884 10.0626 0.217244C5.66664 -0.824351 1.25862 1.8949 0.217028 6.29088C-0.824567 10.6869 1.8947 15.0949 6.29067 16.1365C10.6866 17.1781 15.0947 14.4588 16.1363 10.0628Z" fill="url(#paint14_radial_561_12577)"/>
<path d="M23.048 42C22.8133 42 22.6107 41.9253 22.44 41.776C22.2907 41.6053 22.216 41.4027 22.216 41.168V38.384C22.216 38.2347 22.248 37.9893 22.312 37.648C22.3973 37.3067 22.632 36.9973 23.016 36.72L24.872 34.96C26.8347 33.5093 28.4667 32.2827 29.768 31.28C31.0693 30.256 32.04 29.3707 32.68 28.624C33.3413 27.8773 33.672 27.184 33.672 26.544C33.672 26.032 33.544 25.5947 33.288 25.232C33.0533 24.848 32.5733 24.656 31.848 24.656C31.3147 24.656 30.888 24.7733 30.568 25.008C30.248 25.2427 30.0027 25.5307 29.832 25.872C29.6827 26.2133 29.5653 26.544 29.48 26.864C29.3947 27.1413 29.2453 27.3333 29.032 27.44C28.8187 27.5467 28.5733 27.6 28.296 27.6H23.304C23.0907 27.6 22.92 27.536 22.792 27.408C22.664 27.2587 22.6 27.088 22.6 26.896C22.6213 25.7653 22.856 24.7413 23.304 23.824C23.7733 22.8853 24.4133 22.064 25.224 21.36C26.0347 20.656 26.9947 20.1227 28.104 19.76C29.2347 19.376 30.472 19.184 31.816 19.184C33.6933 19.184 35.304 19.472 36.648 20.048C37.992 20.624 39.0267 21.4347 39.752 22.48C40.4773 23.5253 40.84 24.7733 40.84 26.224C40.84 27.3333 40.584 28.368 40.072 29.328C39.56 30.288 38.8347 31.2053 37.896 32.08C36.9573 32.9333 35.848 33.8187 34.568 34.736L33 36.272H40.488C40.7227 36.272 40.9147 36.3573 41.064 36.528C41.2347 36.6987 41.32 36.9013 41.32 37.136V41.168C41.32 41.4027 41.2347 41.6053 41.064 41.776C40.9147 41.9253 40.7227 42 40.488 42H23.048Z" fill="#031E4D"/>
<path d="M22.44 41.776L21.6874 42.4345L21.7313 42.4847L21.7815 42.5286L22.44 41.776ZM22.312 37.648L21.3419 37.4055L21.3346 37.4344L21.3291 37.4637L22.312 37.648ZM23.016 36.72L23.6015 37.5307L23.6556 37.4916L23.7041 37.4456L23.016 36.72ZM24.872 34.96L24.2776 34.1558L24.2284 34.1922L24.1839 34.2344L24.872 34.96ZM29.768 31.28L30.3784 32.0722L30.3864 32.0659L29.768 31.28ZM32.68 28.624L31.9314 27.961L31.926 27.967L31.9207 27.9732L32.68 28.624ZM33.288 25.232L32.4347 25.7534L32.452 25.7817L32.471 25.8087L33.288 25.232ZM30.568 25.008L31.1594 25.8144L31.1594 25.8144L30.568 25.008ZM29.832 25.872L28.9376 25.4248L28.9261 25.4477L28.9158 25.4712L29.832 25.872ZM29.48 26.864L30.4358 27.1581L30.4414 27.14L30.4462 27.1217L29.48 26.864ZM29.032 27.44L29.4792 28.3344L29.032 27.44ZM22.792 27.408L22.0327 28.0588L22.0577 28.0879L22.0849 28.1151L22.792 27.408ZM22.6 26.896L21.6002 26.8771L21.6 26.8866V26.896H22.6ZM23.304 23.824L22.4095 23.3768L22.4054 23.3852L23.304 23.824ZM25.224 21.36L24.5683 20.605L25.224 21.36ZM28.104 19.76L28.4148 20.7106L28.4256 20.7069L28.104 19.76ZM36.648 20.048L36.2541 20.9671L36.648 20.048ZM39.752 22.48L38.9304 23.0501V23.0501L39.752 22.48ZM40.072 29.328L39.1896 28.8574L40.072 29.328ZM37.896 32.08L38.5687 32.82L38.5777 32.8116L37.896 32.08ZM34.568 34.736L33.9855 33.9232L33.9231 33.9679L33.8682 34.0216L34.568 34.736ZM33 36.272L32.3002 35.5576L30.5501 37.272H33V36.272ZM41.064 36.528L40.3114 37.1865L40.3334 37.2116L40.3569 37.2351L41.064 36.528ZM41.064 41.776L41.7711 42.4831V42.4831L41.064 41.776ZM23.048 41C23.0384 41 23.0471 40.9988 23.0657 41.0057C23.0742 41.0088 23.082 41.0126 23.0885 41.0165C23.0949 41.0204 23.0982 41.0232 23.0985 41.0234L21.7815 42.5286C22.1413 42.8434 22.5803 43 23.048 43V41ZM23.1926 41.1175C23.1928 41.1178 23.1956 41.1211 23.1995 41.1275C23.2034 41.134 23.2072 41.1418 23.2103 41.1503C23.2172 41.1689 23.216 41.1776 23.216 41.168H21.216C21.216 41.6357 21.3726 42.0747 21.6874 42.4345L23.1926 41.1175ZM23.216 41.168V38.384H21.216V41.168H23.216ZM23.216 38.384C23.216 38.3362 23.2313 38.1713 23.2949 37.8323L21.3291 37.4637C21.2647 37.8074 21.216 38.1331 21.216 38.384H23.216ZM23.2821 37.8905C23.2931 37.8467 23.3422 37.718 23.6015 37.5307L22.4305 35.9093C21.9218 36.2767 21.5016 36.7667 21.3419 37.4055L23.2821 37.8905ZM23.7041 37.4456L25.5601 35.6856L24.1839 34.2344L22.3279 35.9944L23.7041 37.4456ZM25.4664 35.7642C27.4321 34.3112 29.0699 33.0803 30.3783 32.0721L29.1577 30.4879C27.8635 31.485 26.2372 32.7074 24.2776 34.1558L25.4664 35.7642ZM30.3864 32.0659C31.7093 31.0249 32.7378 30.0931 33.4393 29.2748L31.9207 27.9732C31.3422 28.6482 30.4293 29.4871 29.1496 30.4941L30.3864 32.0659ZM33.4286 29.287C34.1654 28.4551 34.672 27.5331 34.672 26.544H32.672C32.672 26.8349 32.5173 27.2995 31.9314 27.961L33.4286 29.287ZM34.672 26.544C34.672 25.8582 34.4976 25.2116 34.105 24.6553L32.471 25.8087C32.5904 25.9777 32.672 26.2058 32.672 26.544H34.672ZM34.1413 24.7105C33.6332 23.8792 32.6994 23.656 31.848 23.656V25.656C32.131 25.656 32.296 25.6946 32.3806 25.7285C32.4513 25.7568 32.4462 25.7722 32.4347 25.7534L34.1413 24.7105ZM31.848 23.656C31.1742 23.656 30.5185 23.8043 29.9766 24.2016L31.1594 25.8144C31.2575 25.7424 31.4551 25.656 31.848 25.656V23.656ZM29.9766 24.2016C29.5338 24.5263 29.1822 24.9356 28.9376 25.4248L30.7264 26.3192C30.8232 26.1257 30.9622 25.959 31.1594 25.8144L29.9766 24.2016ZM28.9158 25.4712C28.7487 25.8533 28.6136 26.2318 28.5138 26.6063L30.4462 27.1217C30.517 26.8562 30.6166 26.5734 30.7482 26.2728L28.9158 25.4712ZM28.5242 26.5699C28.5105 26.6146 28.5021 26.6182 28.5146 26.6021C28.5209 26.594 28.5308 26.5832 28.5443 26.5721C28.5579 26.5609 28.5719 26.552 28.5848 26.5456L29.4792 28.3344C29.9885 28.0798 30.2888 27.6359 30.4358 27.1581L28.5242 26.5699ZM28.5848 26.5456C28.5313 26.5723 28.4433 26.6 28.296 26.6V28.6C28.7033 28.6 29.1061 28.521 29.4792 28.3344L28.5848 26.5456ZM28.296 26.6H23.304V28.6H28.296V26.6ZM23.304 26.6C23.2972 26.6 23.3228 26.5991 23.3671 26.6157C23.4145 26.6334 23.4614 26.6632 23.4991 26.7009L22.0849 28.1151C22.4336 28.4638 22.8764 28.6 23.304 28.6V26.6ZM23.5513 26.7572C23.5573 26.7643 23.5721 26.7844 23.5843 26.8169C23.5966 26.8497 23.6 26.8786 23.6 26.896H21.6C21.6 27.333 21.7535 27.7331 22.0327 28.0588L23.5513 26.7572ZM23.5998 26.9149C23.6187 25.9141 23.8251 25.0357 24.2026 24.2628L22.4054 23.3852C21.8869 24.447 21.624 25.6166 21.6002 26.8771L23.5998 26.9149ZM24.1984 24.2712C24.6078 23.4525 25.1657 22.7351 25.8797 22.115L24.5683 20.605C23.661 21.3929 22.9389 22.3181 22.4096 23.3768L24.1984 24.2712ZM25.8797 22.115C26.5811 21.5059 27.4212 21.0353 28.4147 20.7105L27.7933 18.8095C26.5682 19.21 25.4882 19.8061 24.5683 20.605L25.8797 22.115ZM28.4256 20.7069C29.4406 20.3622 30.5678 20.184 31.816 20.184V18.184C30.3762 18.184 29.0288 18.3898 27.7824 18.8131L28.4256 20.7069ZM31.816 20.184C33.5948 20.184 35.0645 20.4573 36.2541 20.9671L37.0419 19.1289C35.5435 18.4867 33.7919 18.184 31.816 18.184V20.184ZM36.2541 20.9671C37.4519 21.4805 38.3273 22.1809 38.9304 23.0501L40.5736 21.9099C39.7261 20.6885 38.5321 19.7675 37.0419 19.1289L36.2541 20.9671ZM38.9304 23.0501C39.5238 23.9053 39.84 24.9475 39.84 26.224H41.84C41.84 24.5991 41.4309 23.1454 40.5736 21.9099L38.9304 23.0501ZM39.84 26.224C39.84 27.1725 39.6228 28.0452 39.1896 28.8574L40.9544 29.7986C41.5452 28.6908 41.84 27.4941 41.84 26.224H39.84ZM39.1896 28.8574C38.738 29.7042 38.0862 30.5359 37.2143 31.3484L38.5777 32.8116C39.5831 31.8748 40.382 30.8718 40.9544 29.7986L39.1896 28.8574ZM37.2233 31.3401C36.3191 32.1621 35.2412 33.0233 33.9855 33.9232L35.1505 35.5488C36.4548 34.6141 37.5955 33.7046 38.5687 32.8199L37.2233 31.3401ZM33.8682 34.0216L32.3002 35.5576L33.6998 36.9864L35.2678 35.4504L33.8682 34.0216ZM33 37.272H40.488V35.272H33V37.272ZM40.488 37.272C40.4818 37.272 40.4479 37.2703 40.4019 37.2498C40.3549 37.229 40.3246 37.2016 40.3114 37.1865L41.8166 35.8695C41.4699 35.4733 40.9996 35.272 40.488 35.272V37.272ZM40.3569 37.2351C40.3597 37.2379 40.3466 37.2251 40.3344 37.1961C40.3219 37.1665 40.32 37.1429 40.32 37.136H42.32C42.32 36.6278 42.1233 36.1731 41.7711 35.8209L40.3569 37.2351ZM40.32 37.136V41.168H42.32V37.136H40.32ZM40.32 41.168C40.32 41.1611 40.3219 41.1375 40.3344 41.1079C40.3466 41.0789 40.3597 41.0661 40.3569 41.0689L41.7711 42.4831C42.1233 42.1309 42.32 41.6762 42.32 41.168H40.32ZM40.3569 41.0689C40.3777 41.048 40.409 41.0262 40.4456 41.012C40.48 40.9986 40.4984 41 40.488 41V43C40.9556 43 41.4126 42.8416 41.7711 42.4831L40.3569 41.0689ZM40.488 41H23.048V43H40.488V41Z" fill="white"/>
<defs>
<linearGradient id="paint0_linear_561_12577" x1="56.3398" y1="56.3401" x2="5.94983" y2="5.9501" gradientUnits="userSpaceOnUse">
<stop stop-color="#4CB7FF"/>
<stop offset="1" stop-color="#7AEDFF"/>
</linearGradient>
<linearGradient id="paint1_linear_561_12577" x1="53.4497" y1="53.4499" x2="8.83968" y2="8.83995" gradientUnits="userSpaceOnUse">
<stop stop-color="#60C1FF"/>
<stop offset="1" stop-color="#8CDEFF"/>
</linearGradient>
<linearGradient id="paint2_linear_561_12577" x1="5.9502" y1="6.45986" x2="56.3402" y2="6.45986" gradientUnits="userSpaceOnUse">
<stop stop-color="#00080D"/>
<stop offset="1" stop-color="#3040E8"/>
</linearGradient>
<linearGradient id="paint3_linear_561_12577" x1="5.9502" y1="55.8199" x2="56.3402" y2="55.8199" gradientUnits="userSpaceOnUse">
<stop stop-color="#FCFFFF"/>
<stop offset="1" stop-color="#70A2FF"/>
</linearGradient>
<radialGradient id="paint4_radial_561_12577" cx="0" cy="0" r="1" gradientUnits="userSpaceOnUse" gradientTransform="translate(-2.17015 7.26995) scale(62.41 62.41)">
<stop stop-color="#1F6AF0"/>
<stop offset="1" stop-color="#002348"/>
</radialGradient>
<linearGradient id="paint5_linear_561_12577" x1="53.4502" y1="31.1399" x2="58.2002" y2="31.1399" gradientUnits="userSpaceOnUse">
<stop stop-color="#FCFFFF"/>
<stop offset="1" stop-color="#4484FF"/>
</linearGradient>
<radialGradient id="paint6_radial_561_12577" cx="0" cy="0" r="1" gradientUnits="userSpaceOnUse" gradientTransform="translate(34.4201 64.25) scale(34.03 34.03)">
<stop stop-color="#0D50D9"/>
<stop offset="1" stop-color="#00080D"/>
</radialGradient>
<linearGradient id="paint7_linear_561_12577" x1="39.7997" y1="31.8" x2="12.8397" y2="4.83999" gradientUnits="userSpaceOnUse">
<stop stop-color="#00080D"/>
<stop offset="1" stop-color="#073FD9"/>
</linearGradient>
<linearGradient id="paint8_linear_561_12577" x1="6.46985" y1="38.5099" x2="6.46985" y2="5.94995" gradientUnits="userSpaceOnUse">
<stop stop-color="#00080D"/>
<stop offset="1" stop-color="#26DCFF"/>
</linearGradient>
<radialGradient id="paint9_radial_561_12577" cx="0" cy="0" r="1" gradientUnits="userSpaceOnUse" gradientTransform="translate(9.34969 2.76995) scale(50.2 50.2)">
<stop stop-color="#66B2FF"/>
<stop offset="1" stop-color="#00080D"/>
</radialGradient>
<linearGradient id="paint10_linear_561_12577" x1="52.4404" y1="52.4399" x2="9.86036" y2="9.84986" gradientUnits="userSpaceOnUse">
<stop stop-color="#1D7BFF"/>
<stop offset="1" stop-color="#6DDEFF"/>
</linearGradient>
<linearGradient id="paint11_linear_561_12577" x1="31.1503" y1="52.4701" x2="31.1503" y2="9.81006" gradientUnits="userSpaceOnUse">
<stop stop-color="#72E3FF"/>
<stop offset="1" stop-color="#4499FF"/>
</linearGradient>
<linearGradient id="paint12_linear_561_12577" x1="31.1503" y1="18.5201" x2="31.1503" y2="9.81006" gradientUnits="userSpaceOnUse">
<stop stop-color="#FCFFFF"/>
<stop offset="1" stop-color="#4795E6"/>
</linearGradient>
<radialGradient id="paint13_radial_561_12577" cx="0" cy="0" r="1" gradientUnits="userSpaceOnUse" gradientTransform="translate(30.7904 74.0901) scale(36.55 36.55)">
<stop stop-color="#30CCFF"/>
<stop offset="1" stop-color="#00080D"/>
</radialGradient>
<radialGradient id="paint14_radial_561_12577" cx="0" cy="0" r="1" gradientUnits="userSpaceOnUse" gradientTransform="translate(8.17265 8.17972) scale(8.18 8.17999)">
<stop stop-color="#00FF9D"/>
<stop offset="0.06" stop-color="#00E68D"/>
<stop offset="0.21" stop-color="#00AA68"/>
<stop offset="0.35" stop-color="#007649"/>
<stop offset="0.5" stop-color="#004C2E"/>
<stop offset="0.64" stop-color="#002B1A"/>
<stop offset="0.77" stop-color="#00130C"/>
<stop offset="0.89" stop-color="#000503"/>
<stop offset="1"/>
</radialGradient>
</defs>
</svg>
