<svg width="59" height="59" viewBox="0 0 59 59" fill="none" xmlns="http://www.w3.org/2000/svg">
<path fill-rule="evenodd" clip-rule="evenodd" d="M10.4298 4.09009H51.8598C53.5413 4.09009 55.1539 4.75805 56.3429 5.94703C57.5319 7.13601 58.1998 8.74861 58.1998 10.4301V51.8601C58.1972 53.5407 57.5284 55.1518 56.34 56.3402C55.1516 57.5286 53.5405 58.1974 51.8598 58.2001H10.4298C8.74918 58.1974 7.13811 57.5286 5.94971 56.3402C4.7613 55.1518 4.09249 53.5407 4.08984 51.8601V10.4301C4.09249 8.74943 4.7613 7.13836 5.94971 5.94995C7.13811 4.76154 8.74918 4.09273 10.4298 4.09009Z" fill="url(#paint0_linear_561_12603)"/>
<path fill-rule="evenodd" clip-rule="evenodd" d="M10.4297 8.17993C10.1342 8.17965 9.84164 8.23781 9.56876 8.35109C9.29587 8.46436 9.04809 8.6305 8.83969 8.83993C8.42036 9.26332 8.18345 9.83405 8.17969 10.4299V51.8599C8.18491 52.4551 8.42365 53.0243 8.84448 53.4452C9.26531 53.866 9.83457 54.1047 10.4297 54.1099H51.8597C52.4556 54.1073 53.0264 53.8694 53.4478 53.448C53.8692 53.0266 54.107 52.4559 54.1097 51.8599V10.4299C54.1097 9.8332 53.8726 9.2609 53.4507 8.83894C53.0287 8.41699 52.4564 8.17993 51.8597 8.17993H10.4297Z" fill="url(#paint1_linear_561_12603)"/>
<path style="mix-blend-mode:screen" fill-rule="evenodd" clip-rule="evenodd" d="M10.4302 8.17986H51.8602C52.1557 8.17957 52.4482 8.23774 52.7211 8.35101C52.994 8.46429 53.2418 8.63043 53.4502 8.83986L56.3402 5.94986C55.7538 5.35872 55.0558 4.88991 54.2867 4.57063C53.5177 4.25134 52.6929 4.08792 51.8602 4.08986H10.4302C9.59785 4.09012 8.77371 4.25454 8.00497 4.5737C7.23624 4.89286 6.53798 5.36051 5.9502 5.94986L8.84021 8.83986C9.04861 8.63043 9.29639 8.46429 9.56927 8.35101C9.84216 8.23774 10.1347 8.17957 10.4302 8.17986Z" fill="url(#paint2_linear_561_12603)"/>
<path style="mix-blend-mode:multiply" fill-rule="evenodd" clip-rule="evenodd" d="M51.8602 54.1099H10.4302C10.1347 54.1102 9.84216 54.052 9.56927 53.9388C9.29639 53.8255 9.04861 53.6593 8.84021 53.4499L5.9502 56.2999C6.53798 56.8893 7.23624 57.3569 8.00497 57.6761C8.77371 57.9952 9.59785 58.1597 10.4302 58.1599H51.8602C52.6929 58.1619 53.5177 57.9984 54.2867 57.6791C55.0558 57.3599 55.7538 56.891 56.3402 56.2999L53.4502 53.4099C53.2418 53.6193 52.994 53.7855 52.7211 53.8988C52.4482 54.012 52.1557 54.0702 51.8602 54.0699V54.1099Z" fill="url(#paint3_linear_561_12603)"/>
<path style="mix-blend-mode:screen" fill-rule="evenodd" clip-rule="evenodd" d="M8.17984 51.86V10.43C8.18361 9.83407 8.42052 9.26334 8.83985 8.83995L5.94983 5.94995C5.35959 6.53707 4.89137 7.23519 4.57215 8.00408C4.25292 8.77297 4.08901 9.59743 4.08985 10.43V51.86C4.09877 53.5276 4.76747 55.1239 5.94983 56.2999L8.83985 53.41C8.42052 52.9866 8.18361 52.4158 8.17984 51.82V51.86Z" fill="url(#paint4_radial_561_12603)"/>
<path style="mix-blend-mode:multiply" fill-rule="evenodd" clip-rule="evenodd" d="M54.1102 10.43V51.86C54.1105 52.1554 54.0523 52.448 53.9391 52.7209C53.8258 52.9938 53.6596 53.2415 53.4502 53.45L56.3402 56.2999C56.9305 55.7128 57.3987 55.0147 57.7179 54.2458C58.0371 53.4769 58.201 52.6525 58.2002 51.82V10.43C58.201 9.59743 58.0371 8.77297 57.7179 8.00408C57.3987 7.23519 56.9305 6.53707 56.3402 5.94995L53.4502 8.83995C53.6596 9.04836 53.8258 9.29613 53.9391 9.56902C54.0523 9.8419 54.1105 10.1345 54.1102 10.43Z" fill="url(#paint5_linear_561_12603)"/>
<path style="mix-blend-mode:screen" fill-rule="evenodd" clip-rule="evenodd" d="M31.1501 56.16C20.2201 56.16 11.3701 55.37 11.3701 54.97C11.3701 54.57 27.6801 54.61 31.1501 54.61C34.6201 54.61 50.9301 54.61 50.9301 54.97C50.9301 55.33 42.0701 56.16 31.1501 56.16Z" fill="url(#paint6_radial_561_12603)"/>
<path style="mix-blend-mode:screen" opacity="0.65" fill-rule="evenodd" clip-rule="evenodd" d="M8.17969 36.79C18.5097 31.22 41.6197 21.87 54.1097 17.48V10.48C54.1097 9.88324 53.8726 9.31095 53.4507 8.88899C53.0287 8.46703 52.4564 8.22998 51.8597 8.22998H10.4297C10.1342 8.2297 9.84164 8.28786 9.56876 8.40114C9.29587 8.51441 9.04809 8.68055 8.83969 8.88998C8.42036 9.31337 8.18345 9.8841 8.17969 10.48V36.79Z" fill="url(#paint7_linear_561_12603)"/>
<path style="mix-blend-mode:screen" fill-rule="evenodd" clip-rule="evenodd" d="M8.17984 36.79V10.43C8.18361 9.83407 8.42052 9.26334 8.83985 8.83995L5.94983 5.94995C5.35959 6.53707 4.89137 7.23519 4.57215 8.00408C4.25292 8.77297 4.08901 9.59743 4.08985 10.43V38.5099C5.29924 37.6235 6.70038 37.0342 8.17984 36.79Z" fill="url(#paint8_linear_561_12603)"/>
<path style="mix-blend-mode:screen" fill-rule="evenodd" clip-rule="evenodd" d="M51.8597 4.69995H10.4297C8.90815 4.69994 7.44864 5.303 6.37088 6.37701C5.29312 7.45102 4.68498 8.90842 4.67969 10.43V36.9C4.70976 37.2599 4.87398 37.5953 5.13977 37.8398C5.40557 38.0843 5.75353 38.2201 6.11469 38.2201C6.47584 38.2201 6.8238 38.0843 7.0896 37.8398C7.35539 37.5953 7.51961 37.2599 7.54968 36.9V10.43C7.55489 9.67211 7.85757 8.94665 8.39252 8.40983C8.92747 7.87301 9.65188 7.5678 10.4097 7.55995H51.8397C52.6001 7.56259 53.3285 7.86581 53.8662 8.40347C54.4038 8.94113 54.7071 9.66959 54.7097 10.43V16.62C54.7097 16.9992 54.8604 17.3629 55.1285 17.6311C55.3967 17.8993 55.7604 18.05 56.1397 18.05C56.5189 18.05 56.8827 17.8993 57.1508 17.6311C57.419 17.3629 57.5697 16.9992 57.5697 16.62V10.43C57.5671 8.91107 56.9625 7.45516 55.8885 6.38115C54.8145 5.30714 53.3586 4.7026 51.8397 4.69995H51.8597Z" fill="url(#paint9_radial_561_12603)"/>
<g style="mix-blend-mode:screen">
<path fill-rule="evenodd" clip-rule="evenodd" d="M28.2601 7C18.9301 7 11.3701 7.37 11.3701 7.56C11.3701 7.75 25.3001 7.73 28.2601 7.73C31.2201 7.73 45.1501 7.73 45.1501 7.56C45.1501 7.39 37.5901 7 28.2601 7Z" fill="#A1FFEE"/>
</g>
<path fill-rule="evenodd" clip-rule="evenodd" d="M47.2496 53.55C44.8196 53.55 42.8496 53.9201 42.8496 54.1101C42.8496 54.3001 45.1996 54.42 47.2496 54.42C49.2996 54.42 51.6796 54.3001 51.6796 54.1101C51.6796 53.9201 49.6796 53.55 47.2696 53.55H47.2496Z" fill="#88F6FF"/>
<path fill-rule="evenodd" clip-rule="evenodd" d="M39.7597 53.6699C38.8078 53.5873 37.8501 53.7383 36.9697 54.1099C38.816 54.4298 40.7035 54.4298 42.5497 54.1099C41.6698 53.7368 40.7117 53.5857 39.7597 53.6699Z" fill="#88F6FF"/>
<g style="mix-blend-mode:multiply" opacity="0.5">
<path fill-rule="evenodd" clip-rule="evenodd" d="M6.91037 55.8599C7.33104 55.2327 7.85514 54.6816 8.46036 54.2299C8.77539 54.0311 9.13801 53.9206 9.51035 53.9099C9.19838 53.7678 8.92232 53.5574 8.70251 53.2943C8.48271 53.0312 8.32477 52.7222 8.24036 52.3899C8.3212 52.8735 8.23666 53.3703 8.00037 53.7999C7.57983 54.43 7.05576 54.9845 6.45035 55.4399C6.12862 55.6502 5.73845 55.7289 5.36035 55.6599C5.7517 56.1814 6.22046 56.64 6.75037 57.0199C6.64997 56.6272 6.70741 56.2108 6.91037 55.8599Z" fill="#5FB7FC"/>
</g>
<g style="mix-blend-mode:multiply" opacity="0.5">
<path fill-rule="evenodd" clip-rule="evenodd" d="M55.3901 55.8599C54.963 55.2346 54.436 54.684 53.8301 54.2299C53.5302 54.0382 53.1855 53.9279 52.8301 53.9099C53.1446 53.7715 53.4228 53.5623 53.6431 53.2986C53.8634 53.035 54.0198 52.724 54.1001 52.3899C54.0289 52.8734 54.1129 53.3671 54.3401 53.7999C54.7642 54.4303 55.2916 54.9848 55.9001 55.4399C56.2183 55.6495 56.6052 55.7283 56.9801 55.6599C56.5887 56.1814 56.12 56.64 55.5901 57.0199C55.6946 56.6285 55.6407 56.2118 55.4401 55.8599H55.3901Z" fill="#5FB7FC"/>
</g>
<g style="mix-blend-mode:screen">
<path fill-rule="evenodd" clip-rule="evenodd" d="M6.91037 6.42005C7.32795 7.05252 7.85243 7.60747 8.46036 8.06005C8.77539 8.25881 9.13801 8.36933 9.51035 8.38005C9.19838 8.52219 8.92232 8.73256 8.70251 8.99564C8.48271 9.25871 8.32477 9.56779 8.24036 9.90005C8.322 9.41643 8.23741 8.91942 8.00037 8.49005C7.57983 7.85992 7.05576 7.30544 6.45035 6.85005C6.12862 6.63978 5.73845 6.56103 5.36035 6.63005C5.75403 6.11921 6.22267 5.67081 6.75037 5.30005C6.64942 5.68945 6.70696 6.10299 6.91037 6.45005V6.42005Z" fill="#75CAFF"/>
</g>
<g style="mix-blend-mode:screen">
<path fill-rule="evenodd" clip-rule="evenodd" d="M55.3901 6.42005C54.9659 7.0505 54.4386 7.60494 53.8301 8.06005C53.5302 8.25172 53.1855 8.362 52.8301 8.38005C53.1446 8.51845 53.4228 8.72764 53.6431 8.99131C53.8634 9.25497 54.0198 9.56598 54.1001 9.90005C54.0282 9.41649 54.1123 8.9226 54.3401 8.49005C54.7642 7.85959 55.2916 7.30516 55.9001 6.85005C56.2183 6.6404 56.6052 6.5616 56.9801 6.63005C56.5712 6.1154 56.0855 5.66681 55.5401 5.30005C55.5921 5.49216 55.6056 5.69266 55.5799 5.89002C55.5542 6.08738 55.4896 6.27771 55.3901 6.45005V6.42005Z" fill="#75CAFF"/>
</g>
<path fill-rule="evenodd" clip-rule="evenodd" d="M10.4304 9.60986H51.8604C52.0778 9.60986 52.2864 9.69626 52.4402 9.85004C52.594 10.0038 52.6804 10.2124 52.6804 10.4299V51.8599C52.6778 52.0765 52.5905 52.2836 52.4373 52.4368C52.2841 52.59 52.077 52.6773 51.8604 52.6799H10.4304C10.2145 52.6748 10.0089 52.5868 9.85617 52.4341C9.70348 52.2814 9.61543 52.0757 9.61035 51.8599V10.4299C9.61105 10.3214 9.63357 10.2141 9.67651 10.1145C9.71946 10.0149 9.78196 9.92487 9.86035 9.84986C9.93468 9.77403 10.0234 9.71376 10.1212 9.67255C10.2191 9.63135 10.3242 9.61004 10.4304 9.60986Z" fill="url(#paint10_linear_561_12603)"/>
<path fill-rule="evenodd" clip-rule="evenodd" d="M10.4303 9.81006C10.2684 9.81518 10.1147 9.88245 10.0011 9.9979C9.88754 10.1134 9.8228 10.2681 9.82031 10.4301V51.8601C9.82289 52.021 9.88796 52.1747 10.0018 52.2885C10.1156 52.4024 10.2693 52.4675 10.4303 52.4701H51.8603C52.023 52.4701 52.1792 52.4061 52.2952 52.292C52.4112 52.1779 52.4777 52.0228 52.4803 51.8601V10.4301C52.4777 10.2664 52.4116 10.1102 52.2959 9.9945C52.1801 9.87878 52.0239 9.81264 51.8603 9.81006H10.4303Z" fill="url(#paint11_linear_561_12603)"/>
<path style="mix-blend-mode:multiply" opacity="0.5" fill-rule="evenodd" clip-rule="evenodd" d="M9.82031 18.5201C10.8203 15.6901 12.0503 13.8701 13.9403 13.3201C18.3803 12.0401 26.1603 12.2301 31.1503 12.2301C36.1403 12.2301 43.9203 12.0401 48.3503 13.3201C50.2503 13.8701 51.5003 15.6901 52.4803 18.5201V10.4301C52.473 10.268 52.4053 10.1145 52.2906 9.99978C52.1759 9.88505 52.0224 9.81738 51.8603 9.81006H10.4303C10.2684 9.81518 10.1147 9.88245 10.0011 9.9979C9.88754 10.1134 9.8228 10.2681 9.82031 10.4301V18.5201Z" fill="url(#paint12_linear_561_12603)"/>
<path style="mix-blend-mode:screen" fill-rule="evenodd" clip-rule="evenodd" d="M31.1504 51.5C24.8704 51.5 11.1504 51.6501 11.1504 50.0201C11.1504 48.39 20.1504 45.55 31.1504 45.55C42.1504 45.55 51.1504 48.39 51.1504 50.0201C51.1504 51.6501 37.4204 51.5 31.1504 51.5Z" fill="url(#paint13_radial_561_12603)"/>
<path style="mix-blend-mode:screen" d="M16.1363 10.0628C17.1779 5.66685 14.4586 1.25884 10.0626 0.217244C5.66664 -0.824351 1.25862 1.8949 0.217028 6.29088C-0.824567 10.6869 1.8947 15.0949 6.29067 16.1365C10.6866 17.1781 15.0947 14.4588 16.1363 10.0628Z" fill="url(#paint14_radial_561_12603)"/>
<path d="M31.752 42.32C29.9813 42.32 28.4667 42.1067 27.208 41.68C25.9493 41.2533 24.936 40.72 24.168 40.08C23.4 39.4187 22.824 38.7147 22.44 37.968C22.0773 37.2213 21.8853 36.528 21.864 35.888C21.864 35.696 21.928 35.536 22.056 35.408C22.2053 35.2587 22.376 35.184 22.568 35.184H27.88C28.1573 35.184 28.3707 35.2373 28.52 35.344C28.6693 35.4293 28.808 35.568 28.936 35.76C29.0853 36.016 29.288 36.24 29.544 36.432C29.8 36.6027 30.1093 36.7307 30.472 36.816C30.8347 36.88 31.272 36.912 31.784 36.912C32.7013 36.912 33.3947 36.7093 33.864 36.304C34.3333 35.8773 34.568 35.3227 34.568 34.64C34.568 33.9573 34.3333 33.4667 33.864 33.168C33.3947 32.848 32.7227 32.688 31.848 32.688H28.072C27.8373 32.688 27.6347 32.6027 27.464 32.432C27.3147 32.2613 27.24 32.0693 27.24 31.856V29.648C27.24 29.3493 27.2933 29.104 27.4 28.912C27.528 28.6987 27.6667 28.5493 27.816 28.464L32.648 25.04H24.008C23.7733 25.04 23.5707 24.9547 23.4 24.784C23.2507 24.6133 23.176 24.4213 23.176 24.208V20.432C23.176 20.1973 23.2507 20.0053 23.4 19.856C23.5707 19.6853 23.7733 19.6 24.008 19.6H39.56C39.7947 19.6 39.9867 19.6853 40.136 19.856C40.3067 20.0053 40.392 20.1973 40.392 20.432V23.824C40.392 24.1013 40.3387 24.3467 40.232 24.56C40.1253 24.752 39.9973 24.8907 39.848 24.976L35.528 28.496L35.656 28.56C36.7867 28.7733 37.8107 29.136 38.728 29.648C39.6453 30.1387 40.3707 30.832 40.904 31.728C41.4373 32.624 41.704 33.7547 41.704 35.12C41.704 36.5707 41.2667 37.84 40.392 38.928C39.5387 39.9947 38.3653 40.8267 36.872 41.424C35.4 42.0213 33.6933 42.32 31.752 42.32Z" fill="#031E4D"/>
<path d="M27.208 41.68L26.887 42.6271L27.208 41.68ZM24.168 40.08L23.5155 40.8378L23.5216 40.843L23.5278 40.8482L24.168 40.08ZM22.44 37.968L21.5405 38.4049L21.5455 38.4152L21.5507 38.4253L22.44 37.968ZM21.864 35.888H20.864V35.9047L20.8646 35.9213L21.864 35.888ZM22.056 35.408L21.3489 34.7009H21.3489L22.056 35.408ZM28.52 35.344L27.9388 36.1577L27.9799 36.1871L28.0239 36.2122L28.52 35.344ZM28.936 35.76L29.7998 35.2561L29.7847 35.2302L29.7681 35.2053L28.936 35.76ZM29.544 36.432L28.944 37.232L28.9662 37.2487L28.9893 37.264L29.544 36.432ZM30.472 36.816L30.243 37.7894L30.2704 37.7959L30.2982 37.8008L30.472 36.816ZM33.864 36.304L34.5176 37.0608L34.5273 37.0525L34.5367 37.0439L33.864 36.304ZM33.864 33.168L33.3007 33.9942L33.3138 34.0032L33.3271 34.0117L33.864 33.168ZM27.464 32.432L26.7114 33.0905L26.7333 33.1156L26.7569 33.1391L27.464 32.432ZM27.4 28.912L26.5425 28.3975L26.5339 28.4118L26.5258 28.4264L27.4 28.912ZM27.816 28.464L28.3121 29.3322L28.3544 29.3081L28.3942 29.2799L27.816 28.464ZM32.648 25.04L33.2262 25.8559L35.7888 24.04H32.648V25.04ZM23.4 24.784L22.6474 25.4425L22.6693 25.4676L22.6929 25.4911L23.4 24.784ZM23.4 19.856L24.1071 20.5631L24.1071 20.5631L23.4 19.856ZM40.136 19.856L39.3834 20.5145L39.4273 20.5647L39.4775 20.6086L40.136 19.856ZM40.232 24.56L41.1062 25.0456L41.1167 25.0266L41.1264 25.0072L40.232 24.56ZM39.848 24.976L39.3519 24.1078L39.2803 24.1487L39.2163 24.2008L39.848 24.976ZM35.528 28.496L34.8963 27.7208L33.6966 28.6983L35.0808 29.3904L35.528 28.496ZM35.656 28.56L35.2088 29.4544L35.3335 29.5168L35.4706 29.5427L35.656 28.56ZM38.728 29.648L38.2406 30.5212L38.2485 30.5256L38.2563 30.5298L38.728 29.648ZM40.904 31.728L41.7633 31.2165V31.2165L40.904 31.728ZM40.392 38.928L39.6126 38.3014L39.6111 38.3033L40.392 38.928ZM36.872 41.424L36.5006 40.4955L36.496 40.4974L36.872 41.424ZM31.752 41.32C30.0565 41.32 28.6564 41.1151 27.529 40.7329L26.887 42.6271C28.277 43.0982 29.9061 43.32 31.752 43.32V41.32ZM27.529 40.7329C26.3507 40.3335 25.4562 39.8518 24.8082 39.3118L23.5278 40.8482C24.4158 41.5882 25.548 42.1732 26.887 42.6271L27.529 40.7329ZM24.8205 39.3222C24.1303 38.7279 23.6436 38.1218 23.3293 37.5107L21.5507 38.4253C22.0044 39.3075 22.6697 40.1094 23.5155 40.8378L24.8205 39.3222ZM23.3395 37.5311C23.0207 36.8747 22.8789 36.3197 22.8634 35.8547L20.8646 35.9213C20.8917 36.7363 21.134 37.568 21.5405 38.4049L23.3395 37.5311ZM22.864 35.888C22.864 35.9047 22.8608 35.9445 22.8405 35.9954C22.8197 36.0474 22.7899 36.0883 22.7631 36.1151L21.3489 34.7009C21.0211 35.0287 20.864 35.4486 20.864 35.888H22.864ZM22.7631 36.1151C22.7613 36.1169 22.74 36.1373 22.6968 36.1562C22.6518 36.1758 22.6056 36.184 22.568 36.184V34.184C22.083 34.184 21.6652 34.3846 21.3489 34.7009L22.7631 36.1151ZM22.568 36.184H27.88V34.184H22.568V36.184ZM27.88 36.184C27.9571 36.184 27.9956 36.1917 28.0055 36.1941C28.014 36.1963 27.9842 36.1902 27.9388 36.1577L29.1012 34.5303C28.7157 34.2549 28.2653 34.184 27.88 34.184V36.184ZM28.0239 36.2122C28.0004 36.1989 28.034 36.2098 28.104 36.3147L29.7681 35.2053C29.582 34.9262 29.3382 34.6598 29.0161 34.4758L28.0239 36.2122ZM28.0722 36.2639C28.294 36.6441 28.5898 36.9663 28.944 37.232L30.144 35.632C29.9862 35.5137 29.8766 35.3879 29.7998 35.2561L28.0722 36.2639ZM28.9893 37.264C29.363 37.5132 29.788 37.6824 30.243 37.7894L30.701 35.8426C30.4307 35.779 30.237 35.6921 30.0987 35.5999L28.9893 37.264ZM30.2982 37.8008C30.7356 37.878 31.2344 37.912 31.784 37.912V35.912C31.3096 35.912 30.9338 35.882 30.6458 35.8312L30.2982 37.8008ZM31.784 37.912C32.8294 37.912 33.7969 37.6833 34.5176 37.0608L33.2104 35.5472C32.9925 35.7354 32.5732 35.912 31.784 35.912V37.912ZM34.5367 37.0439C35.2317 36.4121 35.568 35.5803 35.568 34.64H33.568C33.568 35.065 33.435 35.3426 33.1913 35.5641L34.5367 37.0439ZM35.568 34.64C35.568 33.7048 35.2267 32.8499 34.4009 32.3243L33.3271 34.0117C33.4399 34.0834 33.568 34.2099 33.568 34.64H35.568ZM34.4273 32.3418C33.7245 31.8626 32.8227 31.688 31.848 31.688V33.688C32.6227 33.688 33.0648 33.8334 33.3007 33.9942L34.4273 32.3418ZM31.848 31.688H28.072V33.688H31.848V31.688ZM28.072 31.688C28.0789 31.688 28.1025 31.6899 28.1321 31.7024C28.1611 31.7146 28.1739 31.7277 28.1711 31.7249L26.7569 33.1391C27.1091 33.4913 27.5638 33.688 28.072 33.688V31.688ZM28.2166 31.7735C28.2108 31.7669 28.2192 31.7748 28.228 31.7976C28.2372 31.8212 28.24 31.8432 28.24 31.856H26.24C26.24 32.3277 26.4135 32.75 26.7114 33.0905L28.2166 31.7735ZM28.24 31.856V29.648H26.24V31.856H28.24ZM28.24 29.648C28.24 29.4608 28.2744 29.3972 28.2742 29.3976L26.5258 28.4264C26.3122 28.8108 26.24 29.2379 26.24 29.648H28.24ZM28.2575 29.4265C28.2933 29.3668 28.3197 29.3346 28.3328 29.3205C28.3456 29.3067 28.3399 29.3164 28.3121 29.3322L27.3199 27.5958C26.97 27.7957 26.7218 28.0987 26.5425 28.3975L28.2575 29.4265ZM28.3942 29.2799L33.2262 25.8559L32.0698 24.2241L27.2378 27.6481L28.3942 29.2799ZM32.648 24.04H24.008V26.04H32.648V24.04ZM24.008 24.04C24.0149 24.04 24.0385 24.0419 24.0681 24.0544C24.0971 24.0666 24.1099 24.0797 24.1071 24.0769L22.6929 25.4911C23.0451 25.8433 23.4998 26.04 24.008 26.04V24.04ZM24.1526 24.1255C24.1468 24.1189 24.1552 24.1268 24.164 24.1496C24.1732 24.1732 24.176 24.1952 24.176 24.208H22.176C22.176 24.6797 22.3495 25.102 22.6474 25.4425L24.1526 24.1255ZM24.176 24.208V20.432H22.176V24.208H24.176ZM24.176 20.432C24.176 20.4216 24.1774 20.44 24.164 20.4744C24.1498 20.511 24.128 20.5423 24.1071 20.5631L22.6929 19.1489C22.3344 19.5074 22.176 19.9644 22.176 20.432H24.176ZM24.1071 20.5631C24.1099 20.5603 24.0971 20.5734 24.0681 20.5856C24.0385 20.5981 24.0149 20.6 24.008 20.6V18.6C23.4998 18.6 23.0451 18.7967 22.6929 19.1489L24.1071 20.5631ZM24.008 20.6H39.56V18.6H24.008V20.6ZM39.56 20.6C39.5538 20.6 39.5199 20.5983 39.4739 20.5778C39.4269 20.557 39.3966 20.5296 39.3834 20.5145L40.8886 19.1975C40.5419 18.8013 40.0716 18.6 39.56 18.6V20.6ZM39.4775 20.6086C39.4624 20.5954 39.435 20.5651 39.4142 20.5181C39.3937 20.4721 39.392 20.4382 39.392 20.432H41.392C41.392 19.9204 41.1907 19.4501 40.7945 19.1034L39.4775 20.6086ZM39.392 20.432V23.824H41.392V20.432H39.392ZM39.392 23.824C39.392 23.9713 39.3643 24.0593 39.3376 24.1128L41.1264 25.0072C41.313 24.6341 41.392 24.2313 41.392 23.824H39.392ZM39.3578 24.0744C39.337 24.1119 39.3233 24.1274 39.3212 24.1297C39.3199 24.1312 39.3295 24.1205 39.3519 24.1078L40.3441 25.8442C40.6904 25.6464 40.935 25.3537 41.1062 25.0456L39.3578 24.0744ZM39.2163 24.2008L34.8963 27.7208L36.1597 29.2712L40.4797 25.7512L39.2163 24.2008ZM35.0808 29.3904L35.2088 29.4544L36.1032 27.6656L35.9752 27.6016L35.0808 29.3904ZM35.4706 29.5427C36.5054 29.7379 37.4259 30.0665 38.2406 30.5212L39.2154 28.7748C38.1954 28.2055 37.0679 27.8088 35.8414 27.5773L35.4706 29.5427ZM38.2563 30.5298C39.0128 30.9344 39.6042 31.4995 40.0447 32.2395L41.7633 31.2165C41.1371 30.1645 40.2779 29.3429 39.1997 28.7662L38.2563 30.5298ZM40.0447 32.2395C40.4616 32.9399 40.704 33.8804 40.704 35.12H42.704C42.704 33.629 42.413 32.3081 41.7633 31.2165L40.0447 32.2395ZM40.704 35.12C40.704 36.3524 40.3386 37.3984 39.6126 38.3014L41.1714 39.5546C42.1948 38.2816 42.704 36.7889 42.704 35.12H40.704ZM39.6111 38.3033C38.8835 39.2128 37.8621 39.9509 36.5006 40.4955L37.2434 42.3525C38.8686 41.7024 40.1938 40.7765 41.1729 39.5527L39.6111 38.3033ZM36.496 40.4974C35.1667 41.0368 33.5923 41.32 31.752 41.32V43.32C33.7944 43.32 35.6333 43.0059 37.248 42.3506L36.496 40.4974Z" fill="white"/>
<defs>
<linearGradient id="paint0_linear_561_12603" x1="56.3398" y1="56.3401" x2="5.94983" y2="5.9501" gradientUnits="userSpaceOnUse">
<stop stop-color="#4CB7FF"/>
<stop offset="1" stop-color="#7AEDFF"/>
</linearGradient>
<linearGradient id="paint1_linear_561_12603" x1="53.4497" y1="53.4499" x2="8.83968" y2="8.83995" gradientUnits="userSpaceOnUse">
<stop stop-color="#60C1FF"/>
<stop offset="1" stop-color="#8CDEFF"/>
</linearGradient>
<linearGradient id="paint2_linear_561_12603" x1="5.9502" y1="6.45986" x2="56.3402" y2="6.45986" gradientUnits="userSpaceOnUse">
<stop stop-color="#00080D"/>
<stop offset="1" stop-color="#3040E8"/>
</linearGradient>
<linearGradient id="paint3_linear_561_12603" x1="5.9502" y1="55.8199" x2="56.3402" y2="55.8199" gradientUnits="userSpaceOnUse">
<stop stop-color="#FCFFFF"/>
<stop offset="1" stop-color="#70A2FF"/>
</linearGradient>
<radialGradient id="paint4_radial_561_12603" cx="0" cy="0" r="1" gradientUnits="userSpaceOnUse" gradientTransform="translate(-2.17015 7.26995) scale(62.41 62.41)">
<stop stop-color="#1F6AF0"/>
<stop offset="1" stop-color="#002348"/>
</radialGradient>
<linearGradient id="paint5_linear_561_12603" x1="53.4502" y1="31.1399" x2="58.2002" y2="31.1399" gradientUnits="userSpaceOnUse">
<stop stop-color="#FCFFFF"/>
<stop offset="1" stop-color="#4484FF"/>
</linearGradient>
<radialGradient id="paint6_radial_561_12603" cx="0" cy="0" r="1" gradientUnits="userSpaceOnUse" gradientTransform="translate(34.4201 64.25) scale(34.03 34.03)">
<stop stop-color="#0D50D9"/>
<stop offset="1" stop-color="#00080D"/>
</radialGradient>
<linearGradient id="paint7_linear_561_12603" x1="39.7997" y1="31.8" x2="12.8397" y2="4.83999" gradientUnits="userSpaceOnUse">
<stop stop-color="#00080D"/>
<stop offset="1" stop-color="#073FD9"/>
</linearGradient>
<linearGradient id="paint8_linear_561_12603" x1="6.46985" y1="38.5099" x2="6.46985" y2="5.94995" gradientUnits="userSpaceOnUse">
<stop stop-color="#00080D"/>
<stop offset="1" stop-color="#26DCFF"/>
</linearGradient>
<radialGradient id="paint9_radial_561_12603" cx="0" cy="0" r="1" gradientUnits="userSpaceOnUse" gradientTransform="translate(9.34969 2.76995) scale(50.2 50.2)">
<stop stop-color="#66B2FF"/>
<stop offset="1" stop-color="#00080D"/>
</radialGradient>
<linearGradient id="paint10_linear_561_12603" x1="52.4404" y1="52.4399" x2="9.86036" y2="9.84986" gradientUnits="userSpaceOnUse">
<stop stop-color="#1D7BFF"/>
<stop offset="1" stop-color="#6DDEFF"/>
</linearGradient>
<linearGradient id="paint11_linear_561_12603" x1="31.1503" y1="52.4701" x2="31.1503" y2="9.81006" gradientUnits="userSpaceOnUse">
<stop stop-color="#72E3FF"/>
<stop offset="1" stop-color="#4499FF"/>
</linearGradient>
<linearGradient id="paint12_linear_561_12603" x1="31.1503" y1="18.5201" x2="31.1503" y2="9.81006" gradientUnits="userSpaceOnUse">
<stop stop-color="#FCFFFF"/>
<stop offset="1" stop-color="#4795E6"/>
</linearGradient>
<radialGradient id="paint13_radial_561_12603" cx="0" cy="0" r="1" gradientUnits="userSpaceOnUse" gradientTransform="translate(30.7904 74.0901) scale(36.55 36.55)">
<stop stop-color="#30CCFF"/>
<stop offset="1" stop-color="#00080D"/>
</radialGradient>
<radialGradient id="paint14_radial_561_12603" cx="0" cy="0" r="1" gradientUnits="userSpaceOnUse" gradientTransform="translate(8.17265 8.17972) scale(8.18 8.17999)">
<stop stop-color="#00FF9D"/>
<stop offset="0.06" stop-color="#00E68D"/>
<stop offset="0.21" stop-color="#00AA68"/>
<stop offset="0.35" stop-color="#007649"/>
<stop offset="0.5" stop-color="#004C2E"/>
<stop offset="0.64" stop-color="#002B1A"/>
<stop offset="0.77" stop-color="#00130C"/>
<stop offset="0.89" stop-color="#000503"/>
<stop offset="1"/>
</radialGradient>
</defs>
</svg>
