<svg width="59" height="59" viewBox="0 0 59 59" fill="none" xmlns="http://www.w3.org/2000/svg">
<path fill-rule="evenodd" clip-rule="evenodd" d="M10.4298 4.09009H51.8598C53.5413 4.09009 55.1539 4.75805 56.3429 5.94703C57.5319 7.13601 58.1998 8.74861 58.1998 10.4301V51.8601C58.1972 53.5407 57.5284 55.1518 56.34 56.3402C55.1516 57.5286 53.5405 58.1974 51.8598 58.2001H10.4298C8.74918 58.1974 7.13811 57.5286 5.94971 56.3402C4.7613 55.1518 4.09249 53.5407 4.08984 51.8601V10.4301C4.09249 8.74943 4.7613 7.13836 5.94971 5.94995C7.13811 4.76154 8.74918 4.09273 10.4298 4.09009Z" fill="url(#paint0_linear_561_12629)"/>
<path fill-rule="evenodd" clip-rule="evenodd" d="M10.4297 8.17993C10.1342 8.17965 9.84164 8.23781 9.56876 8.35109C9.29587 8.46436 9.04809 8.6305 8.83969 8.83993C8.42036 9.26332 8.18345 9.83405 8.17969 10.4299V51.8599C8.18491 52.4551 8.42365 53.0243 8.84448 53.4452C9.26531 53.866 9.83457 54.1047 10.4297 54.1099H51.8597C52.4556 54.1073 53.0264 53.8694 53.4478 53.448C53.8692 53.0266 54.107 52.4559 54.1097 51.8599V10.4299C54.1097 9.8332 53.8726 9.2609 53.4507 8.83894C53.0287 8.41699 52.4564 8.17993 51.8597 8.17993H10.4297Z" fill="url(#paint1_linear_561_12629)"/>
<path style="mix-blend-mode:screen" fill-rule="evenodd" clip-rule="evenodd" d="M10.4302 8.17986H51.8602C52.1557 8.17957 52.4482 8.23774 52.7211 8.35101C52.994 8.46429 53.2418 8.63043 53.4502 8.83986L56.3402 5.94986C55.7538 5.35872 55.0558 4.88991 54.2867 4.57063C53.5177 4.25134 52.6929 4.08792 51.8602 4.08986H10.4302C9.59785 4.09012 8.77371 4.25454 8.00497 4.5737C7.23624 4.89286 6.53798 5.36051 5.9502 5.94986L8.84021 8.83986C9.04861 8.63043 9.29639 8.46429 9.56927 8.35101C9.84216 8.23774 10.1347 8.17957 10.4302 8.17986Z" fill="url(#paint2_linear_561_12629)"/>
<path style="mix-blend-mode:multiply" fill-rule="evenodd" clip-rule="evenodd" d="M51.8602 54.1099H10.4302C10.1347 54.1102 9.84216 54.052 9.56927 53.9388C9.29639 53.8255 9.04861 53.6593 8.84021 53.4499L5.9502 56.2999C6.53798 56.8893 7.23624 57.3569 8.00497 57.6761C8.77371 57.9952 9.59785 58.1597 10.4302 58.1599H51.8602C52.6929 58.1619 53.5177 57.9984 54.2867 57.6791C55.0558 57.3599 55.7538 56.891 56.3402 56.2999L53.4502 53.4099C53.2418 53.6193 52.994 53.7855 52.7211 53.8988C52.4482 54.012 52.1557 54.0702 51.8602 54.0699V54.1099Z" fill="url(#paint3_linear_561_12629)"/>
<path style="mix-blend-mode:screen" fill-rule="evenodd" clip-rule="evenodd" d="M8.17984 51.86V10.43C8.18361 9.83407 8.42052 9.26334 8.83985 8.83995L5.94983 5.94995C5.35959 6.53707 4.89137 7.23519 4.57215 8.00408C4.25292 8.77297 4.08901 9.59743 4.08985 10.43V51.86C4.09877 53.5276 4.76747 55.1239 5.94983 56.2999L8.83985 53.41C8.42052 52.9866 8.18361 52.4158 8.17984 51.82V51.86Z" fill="url(#paint4_radial_561_12629)"/>
<path style="mix-blend-mode:multiply" fill-rule="evenodd" clip-rule="evenodd" d="M54.1102 10.43V51.86C54.1105 52.1554 54.0523 52.448 53.9391 52.7209C53.8258 52.9938 53.6596 53.2415 53.4502 53.45L56.3402 56.2999C56.9305 55.7128 57.3987 55.0147 57.7179 54.2458C58.0371 53.4769 58.201 52.6525 58.2002 51.82V10.43C58.201 9.59743 58.0371 8.77297 57.7179 8.00408C57.3987 7.23519 56.9305 6.53707 56.3402 5.94995L53.4502 8.83995C53.6596 9.04836 53.8258 9.29613 53.9391 9.56902C54.0523 9.8419 54.1105 10.1345 54.1102 10.43Z" fill="url(#paint5_linear_561_12629)"/>
<path style="mix-blend-mode:screen" fill-rule="evenodd" clip-rule="evenodd" d="M31.1501 56.16C20.2201 56.16 11.3701 55.37 11.3701 54.97C11.3701 54.57 27.6801 54.61 31.1501 54.61C34.6201 54.61 50.9301 54.61 50.9301 54.97C50.9301 55.33 42.0701 56.16 31.1501 56.16Z" fill="url(#paint6_radial_561_12629)"/>
<path style="mix-blend-mode:screen" opacity="0.65" fill-rule="evenodd" clip-rule="evenodd" d="M8.17969 36.79C18.5097 31.22 41.6197 21.87 54.1097 17.48V10.48C54.1097 9.88324 53.8726 9.31095 53.4507 8.88899C53.0287 8.46703 52.4564 8.22998 51.8597 8.22998H10.4297C10.1342 8.2297 9.84164 8.28786 9.56876 8.40114C9.29587 8.51441 9.04809 8.68055 8.83969 8.88998C8.42036 9.31337 8.18345 9.8841 8.17969 10.48V36.79Z" fill="url(#paint7_linear_561_12629)"/>
<path style="mix-blend-mode:screen" fill-rule="evenodd" clip-rule="evenodd" d="M8.17984 36.79V10.43C8.18361 9.83407 8.42052 9.26334 8.83985 8.83995L5.94983 5.94995C5.35959 6.53707 4.89137 7.23519 4.57215 8.00408C4.25292 8.77297 4.08901 9.59743 4.08985 10.43V38.5099C5.29924 37.6235 6.70038 37.0342 8.17984 36.79Z" fill="url(#paint8_linear_561_12629)"/>
<path style="mix-blend-mode:screen" fill-rule="evenodd" clip-rule="evenodd" d="M51.8597 4.69995H10.4297C8.90815 4.69994 7.44864 5.303 6.37088 6.37701C5.29312 7.45102 4.68498 8.90842 4.67969 10.43V36.9C4.70976 37.2599 4.87398 37.5953 5.13977 37.8398C5.40557 38.0843 5.75353 38.2201 6.11469 38.2201C6.47584 38.2201 6.8238 38.0843 7.0896 37.8398C7.35539 37.5953 7.51961 37.2599 7.54968 36.9V10.43C7.55489 9.67211 7.85757 8.94665 8.39252 8.40983C8.92747 7.87301 9.65188 7.5678 10.4097 7.55995H51.8397C52.6001 7.56259 53.3285 7.86581 53.8662 8.40347C54.4038 8.94113 54.7071 9.66959 54.7097 10.43V16.62C54.7097 16.9992 54.8604 17.3629 55.1285 17.6311C55.3967 17.8993 55.7604 18.05 56.1397 18.05C56.5189 18.05 56.8827 17.8993 57.1508 17.6311C57.419 17.3629 57.5697 16.9992 57.5697 16.62V10.43C57.5671 8.91107 56.9625 7.45516 55.8885 6.38115C54.8145 5.30714 53.3586 4.7026 51.8397 4.69995H51.8597Z" fill="url(#paint9_radial_561_12629)"/>
<g style="mix-blend-mode:screen">
<path fill-rule="evenodd" clip-rule="evenodd" d="M28.2601 7C18.9301 7 11.3701 7.37 11.3701 7.56C11.3701 7.75 25.3001 7.73 28.2601 7.73C31.2201 7.73 45.1501 7.73 45.1501 7.56C45.1501 7.39 37.5901 7 28.2601 7Z" fill="#A1FFEE"/>
</g>
<path fill-rule="evenodd" clip-rule="evenodd" d="M47.2496 53.55C44.8196 53.55 42.8496 53.9201 42.8496 54.1101C42.8496 54.3001 45.1996 54.42 47.2496 54.42C49.2996 54.42 51.6796 54.3001 51.6796 54.1101C51.6796 53.9201 49.6796 53.55 47.2696 53.55H47.2496Z" fill="#88F6FF"/>
<path fill-rule="evenodd" clip-rule="evenodd" d="M39.7597 53.6699C38.8078 53.5873 37.8501 53.7383 36.9697 54.1099C38.816 54.4298 40.7035 54.4298 42.5497 54.1099C41.6698 53.7368 40.7117 53.5857 39.7597 53.6699Z" fill="#88F6FF"/>
<g style="mix-blend-mode:multiply" opacity="0.5">
<path fill-rule="evenodd" clip-rule="evenodd" d="M6.91037 55.8599C7.33104 55.2327 7.85514 54.6816 8.46036 54.2299C8.77539 54.0311 9.13801 53.9206 9.51035 53.9099C9.19838 53.7678 8.92232 53.5574 8.70251 53.2943C8.48271 53.0312 8.32477 52.7222 8.24036 52.3899C8.3212 52.8735 8.23666 53.3703 8.00037 53.7999C7.57983 54.43 7.05576 54.9845 6.45035 55.4399C6.12862 55.6502 5.73845 55.7289 5.36035 55.6599C5.7517 56.1814 6.22046 56.64 6.75037 57.0199C6.64997 56.6272 6.70741 56.2108 6.91037 55.8599Z" fill="#5FB7FC"/>
</g>
<g style="mix-blend-mode:multiply" opacity="0.5">
<path fill-rule="evenodd" clip-rule="evenodd" d="M55.3901 55.8599C54.963 55.2346 54.436 54.684 53.8301 54.2299C53.5302 54.0382 53.1855 53.9279 52.8301 53.9099C53.1446 53.7715 53.4228 53.5623 53.6431 53.2986C53.8634 53.035 54.0198 52.724 54.1001 52.3899C54.0289 52.8734 54.1129 53.3671 54.3401 53.7999C54.7642 54.4303 55.2916 54.9848 55.9001 55.4399C56.2183 55.6495 56.6052 55.7283 56.9801 55.6599C56.5887 56.1814 56.12 56.64 55.5901 57.0199C55.6946 56.6285 55.6407 56.2118 55.4401 55.8599H55.3901Z" fill="#5FB7FC"/>
</g>
<g style="mix-blend-mode:screen">
<path fill-rule="evenodd" clip-rule="evenodd" d="M6.91037 6.42005C7.32795 7.05252 7.85243 7.60747 8.46036 8.06005C8.77539 8.25881 9.13801 8.36933 9.51035 8.38005C9.19838 8.52219 8.92232 8.73256 8.70251 8.99564C8.48271 9.25871 8.32477 9.56779 8.24036 9.90005C8.322 9.41643 8.23741 8.91942 8.00037 8.49005C7.57983 7.85992 7.05576 7.30544 6.45035 6.85005C6.12862 6.63978 5.73845 6.56103 5.36035 6.63005C5.75403 6.11921 6.22267 5.67081 6.75037 5.30005C6.64942 5.68945 6.70696 6.10299 6.91037 6.45005V6.42005Z" fill="#75CAFF"/>
</g>
<g style="mix-blend-mode:screen">
<path fill-rule="evenodd" clip-rule="evenodd" d="M55.3901 6.42005C54.9659 7.0505 54.4386 7.60494 53.8301 8.06005C53.5302 8.25172 53.1855 8.362 52.8301 8.38005C53.1446 8.51845 53.4228 8.72764 53.6431 8.99131C53.8634 9.25497 54.0198 9.56598 54.1001 9.90005C54.0282 9.41649 54.1123 8.9226 54.3401 8.49005C54.7642 7.85959 55.2916 7.30516 55.9001 6.85005C56.2183 6.6404 56.6052 6.5616 56.9801 6.63005C56.5712 6.1154 56.0855 5.66681 55.5401 5.30005C55.5921 5.49216 55.6056 5.69266 55.5799 5.89002C55.5542 6.08738 55.4896 6.27771 55.3901 6.45005V6.42005Z" fill="#75CAFF"/>
</g>
<path fill-rule="evenodd" clip-rule="evenodd" d="M10.4304 9.60986H51.8604C52.0778 9.60986 52.2864 9.69626 52.4402 9.85004C52.594 10.0038 52.6804 10.2124 52.6804 10.4299V51.8599C52.6778 52.0765 52.5905 52.2836 52.4373 52.4368C52.2841 52.59 52.077 52.6773 51.8604 52.6799H10.4304C10.2145 52.6748 10.0089 52.5868 9.85617 52.4341C9.70348 52.2814 9.61543 52.0757 9.61035 51.8599V10.4299C9.61105 10.3214 9.63357 10.2141 9.67651 10.1145C9.71946 10.0149 9.78196 9.92487 9.86035 9.84986C9.93468 9.77403 10.0234 9.71376 10.1212 9.67255C10.2191 9.63135 10.3242 9.61004 10.4304 9.60986Z" fill="url(#paint10_linear_561_12629)"/>
<path fill-rule="evenodd" clip-rule="evenodd" d="M10.4303 9.81006C10.2684 9.81518 10.1147 9.88245 10.0011 9.9979C9.88754 10.1134 9.8228 10.2681 9.82031 10.4301V51.8601C9.82289 52.021 9.88796 52.1747 10.0018 52.2885C10.1156 52.4024 10.2693 52.4675 10.4303 52.4701H51.8603C52.023 52.4701 52.1792 52.4061 52.2952 52.292C52.4112 52.1779 52.4777 52.0228 52.4803 51.8601V10.4301C52.4777 10.2664 52.4116 10.1102 52.2959 9.9945C52.1801 9.87878 52.0239 9.81264 51.8603 9.81006H10.4303Z" fill="url(#paint11_linear_561_12629)"/>
<path style="mix-blend-mode:multiply" opacity="0.5" fill-rule="evenodd" clip-rule="evenodd" d="M9.82031 18.5201C10.8203 15.6901 12.0503 13.8701 13.9403 13.3201C18.3803 12.0401 26.1603 12.2301 31.1503 12.2301C36.1403 12.2301 43.9203 12.0401 48.3503 13.3201C50.2503 13.8701 51.5003 15.6901 52.4803 18.5201V10.4301C52.473 10.268 52.4053 10.1145 52.2906 9.99978C52.1759 9.88505 52.0224 9.81738 51.8603 9.81006H10.4303C10.2684 9.81518 10.1147 9.88245 10.0011 9.9979C9.88754 10.1134 9.8228 10.2681 9.82031 10.4301V18.5201Z" fill="url(#paint12_linear_561_12629)"/>
<path style="mix-blend-mode:screen" fill-rule="evenodd" clip-rule="evenodd" d="M31.1504 51.5C24.8704 51.5 11.1504 51.6501 11.1504 50.0201C11.1504 48.39 20.1504 45.55 31.1504 45.55C42.1504 45.55 51.1504 48.39 51.1504 50.0201C51.1504 51.6501 37.4204 51.5 31.1504 51.5Z" fill="url(#paint13_radial_561_12629)"/>
<path style="mix-blend-mode:screen" d="M16.1363 10.0628C17.1779 5.66685 14.4586 1.25884 10.0626 0.217244C5.66664 -0.824351 1.25862 1.8949 0.217028 6.29088C-0.824567 10.6869 1.8947 15.0949 6.29067 16.1365C10.6866 17.1781 15.0947 14.4588 16.1363 10.0628Z" fill="url(#paint14_radial_561_12629)"/>
<path d="M33.288 42C33.0533 42 32.8507 41.9253 32.68 41.776C32.5307 41.6053 32.456 41.4027 32.456 41.168V38H22.696C22.4613 38 22.2587 37.9253 22.088 37.776C21.9387 37.6053 21.864 37.4027 21.864 37.168V33.36C21.864 33.1253 21.896 32.9333 21.96 32.784C22.0453 32.6133 22.1307 32.4747 22.216 32.368L31.4 20.144C31.6987 19.7813 32.0933 19.6 32.584 19.6H38.248C38.4827 19.6 38.6747 19.6853 38.824 19.856C38.9947 20.0053 39.08 20.1973 39.08 20.432V32.368H41.896C42.152 32.368 42.3547 32.4533 42.504 32.624C42.6533 32.7733 42.728 32.9653 42.728 33.2V37.168C42.728 37.4027 42.6427 37.6053 42.472 37.776C42.3227 37.9253 42.1307 38 41.896 38H39.08V41.168C39.08 41.4027 38.9947 41.6053 38.824 41.776C38.6747 41.9253 38.4827 42 38.248 42H33.288ZM28.264 32.656H32.648V26.576L28.264 32.656Z" fill="#031E4D"/>
<path d="M32.68 41.776L31.9274 42.4345L31.9713 42.4847L32.0215 42.5286L32.68 41.776ZM32.456 38H33.456V37H32.456V38ZM22.088 37.776L21.3354 38.4345L21.3793 38.4847L21.4295 38.5286L22.088 37.776ZM21.96 32.784L21.0656 32.3368L21.0524 32.3631L21.0409 32.3901L21.96 32.784ZM22.216 32.368L22.9969 32.9927L23.0064 32.9808L23.0155 32.9687L22.216 32.368ZM31.4 20.144L30.6281 19.5083L30.6139 19.5255L30.6005 19.5433L31.4 20.144ZM38.824 19.856L38.0714 20.5145L38.1153 20.5647L38.1655 20.6086L38.824 19.856ZM39.08 32.368H38.08V33.368H39.08V32.368ZM42.504 32.624L41.7514 33.2825L41.7733 33.3076L41.7969 33.3311L42.504 32.624ZM42.472 37.776L41.7649 37.0689L41.7649 37.0689L42.472 37.776ZM39.08 38V37H38.08V38H39.08ZM38.824 41.776L39.5311 42.4831L39.5311 42.4831L38.824 41.776ZM28.264 32.656L27.4529 32.0711L26.3101 33.656H28.264V32.656ZM32.648 32.656V33.656H33.648V32.656H32.648ZM32.648 26.576H33.648V23.4793L31.8369 25.9911L32.648 26.576ZM33.288 41C33.2784 41 33.2871 40.9988 33.3057 41.0057C33.3142 41.0088 33.322 41.0126 33.3285 41.0165C33.3349 41.0204 33.3382 41.0232 33.3385 41.0234L32.0215 42.5286C32.3813 42.8434 32.8203 43 33.288 43V41ZM33.4326 41.1175C33.4328 41.1178 33.4356 41.1211 33.4395 41.1275C33.4434 41.134 33.4472 41.1418 33.4503 41.1503C33.4572 41.1689 33.456 41.1776 33.456 41.168H31.456C31.456 41.6357 31.6126 42.0747 31.9274 42.4345L33.4326 41.1175ZM33.456 41.168V38H31.456V41.168H33.456ZM32.456 37H22.696V39H32.456V37ZM22.696 37C22.6864 37 22.6951 36.9988 22.7137 37.0057C22.7222 37.0088 22.73 37.0126 22.7365 37.0165C22.7429 37.0204 22.7462 37.0232 22.7465 37.0234L21.4295 38.5286C21.7893 38.8434 22.2283 39 22.696 39V37ZM22.8406 37.1175C22.8408 37.1178 22.8436 37.1211 22.8475 37.1275C22.8514 37.134 22.8552 37.1418 22.8583 37.1503C22.8652 37.1689 22.864 37.1776 22.864 37.168H20.864C20.864 37.6357 21.0206 38.0747 21.3354 38.4345L22.8406 37.1175ZM22.864 37.168V33.36H20.864V37.168H22.864ZM22.864 33.36C22.864 33.2869 22.8691 33.2364 22.8744 33.2044C22.8797 33.1723 22.8841 33.1663 22.8791 33.1779L21.0409 32.3901C20.9053 32.7063 20.864 33.0453 20.864 33.36H22.864ZM22.8544 33.2312C22.9197 33.1008 22.969 33.0275 22.9969 32.9927L21.4351 31.7433C21.2923 31.9218 21.171 32.1259 21.0656 32.3368L22.8544 33.2312ZM23.0155 32.9687L32.1995 20.7447L30.6005 19.5433L21.4165 31.7673L23.0155 32.9687ZM32.1719 20.7797C32.2711 20.6592 32.3769 20.6 32.584 20.6V18.6C31.8098 18.6 31.1262 18.9034 30.6281 19.5083L32.1719 20.7797ZM32.584 20.6H38.248V18.6H32.584V20.6ZM38.248 20.6C38.2418 20.6 38.2079 20.5983 38.1619 20.5778C38.1149 20.557 38.0846 20.5296 38.0714 20.5145L39.5766 19.1975C39.2299 18.8013 38.7596 18.6 38.248 18.6V20.6ZM38.1655 20.6086C38.1504 20.5954 38.123 20.5651 38.1022 20.5181C38.0817 20.4721 38.08 20.4382 38.08 20.432H40.08C40.08 19.9204 39.8787 19.4501 39.4825 19.1034L38.1655 20.6086ZM38.08 20.432V32.368H40.08V20.432H38.08ZM39.08 33.368H41.896V31.368H39.08V33.368ZM41.896 33.368C41.9123 33.368 41.8919 33.3705 41.8519 33.3536C41.8089 33.3355 41.7735 33.3077 41.7514 33.2825L43.2566 31.9655C42.8917 31.5485 42.3989 31.368 41.896 31.368V33.368ZM41.7969 33.3311C41.776 33.3103 41.7542 33.279 41.74 33.2424C41.7266 33.208 41.728 33.1896 41.728 33.2H43.728C43.728 32.7324 43.5696 32.2754 43.2111 31.9169L41.7969 33.3311ZM41.728 33.2V37.168H43.728V33.2H41.728ZM41.728 37.168C41.728 37.1611 41.7299 37.1375 41.7424 37.1079C41.7546 37.0789 41.7677 37.0661 41.7649 37.0689L43.1791 38.4831C43.5313 38.1309 43.728 37.6762 43.728 37.168H41.728ZM41.7649 37.0689C41.7857 37.048 41.817 37.0262 41.8536 37.012C41.888 36.9986 41.9064 37 41.896 37V39C42.3636 39 42.8206 38.8416 43.1791 38.4831L41.7649 37.0689ZM41.896 37H39.08V39H41.896V37ZM38.08 38V41.168H40.08V38H38.08ZM38.08 41.168C38.08 41.1611 38.0819 41.1375 38.0944 41.1079C38.1066 41.0789 38.1197 41.0661 38.1169 41.0689L39.5311 42.4831C39.8833 42.1309 40.08 41.6762 40.08 41.168H38.08ZM38.1169 41.0689C38.1377 41.048 38.169 41.0262 38.2056 41.012C38.24 40.9986 38.2584 41 38.248 41V43C38.7156 43 39.1726 42.8416 39.5311 42.4831L38.1169 41.0689ZM38.248 41H33.288V43H38.248V41ZM28.264 33.656H32.648V31.656H28.264V33.656ZM33.648 32.656V26.576H31.648V32.656H33.648ZM31.8369 25.9911L27.4529 32.0711L29.0751 33.2409L33.4591 27.1609L31.8369 25.9911Z" fill="white"/>
<defs>
<linearGradient id="paint0_linear_561_12629" x1="56.3398" y1="56.3401" x2="5.94983" y2="5.9501" gradientUnits="userSpaceOnUse">
<stop stop-color="#4CB7FF"/>
<stop offset="1" stop-color="#7AEDFF"/>
</linearGradient>
<linearGradient id="paint1_linear_561_12629" x1="53.4497" y1="53.4499" x2="8.83968" y2="8.83995" gradientUnits="userSpaceOnUse">
<stop stop-color="#60C1FF"/>
<stop offset="1" stop-color="#8CDEFF"/>
</linearGradient>
<linearGradient id="paint2_linear_561_12629" x1="5.9502" y1="6.45986" x2="56.3402" y2="6.45986" gradientUnits="userSpaceOnUse">
<stop stop-color="#00080D"/>
<stop offset="1" stop-color="#3040E8"/>
</linearGradient>
<linearGradient id="paint3_linear_561_12629" x1="5.9502" y1="55.8199" x2="56.3402" y2="55.8199" gradientUnits="userSpaceOnUse">
<stop stop-color="#FCFFFF"/>
<stop offset="1" stop-color="#70A2FF"/>
</linearGradient>
<radialGradient id="paint4_radial_561_12629" cx="0" cy="0" r="1" gradientUnits="userSpaceOnUse" gradientTransform="translate(-2.17015 7.26995) scale(62.41 62.41)">
<stop stop-color="#1F6AF0"/>
<stop offset="1" stop-color="#002348"/>
</radialGradient>
<linearGradient id="paint5_linear_561_12629" x1="53.4502" y1="31.1399" x2="58.2002" y2="31.1399" gradientUnits="userSpaceOnUse">
<stop stop-color="#FCFFFF"/>
<stop offset="1" stop-color="#4484FF"/>
</linearGradient>
<radialGradient id="paint6_radial_561_12629" cx="0" cy="0" r="1" gradientUnits="userSpaceOnUse" gradientTransform="translate(34.4201 64.25) scale(34.03 34.03)">
<stop stop-color="#0D50D9"/>
<stop offset="1" stop-color="#00080D"/>
</radialGradient>
<linearGradient id="paint7_linear_561_12629" x1="39.7997" y1="31.8" x2="12.8397" y2="4.83999" gradientUnits="userSpaceOnUse">
<stop stop-color="#00080D"/>
<stop offset="1" stop-color="#073FD9"/>
</linearGradient>
<linearGradient id="paint8_linear_561_12629" x1="6.46985" y1="38.5099" x2="6.46985" y2="5.94995" gradientUnits="userSpaceOnUse">
<stop stop-color="#00080D"/>
<stop offset="1" stop-color="#26DCFF"/>
</linearGradient>
<radialGradient id="paint9_radial_561_12629" cx="0" cy="0" r="1" gradientUnits="userSpaceOnUse" gradientTransform="translate(9.34969 2.76995) scale(50.2 50.2)">
<stop stop-color="#66B2FF"/>
<stop offset="1" stop-color="#00080D"/>
</radialGradient>
<linearGradient id="paint10_linear_561_12629" x1="52.4404" y1="52.4399" x2="9.86036" y2="9.84986" gradientUnits="userSpaceOnUse">
<stop stop-color="#1D7BFF"/>
<stop offset="1" stop-color="#6DDEFF"/>
</linearGradient>
<linearGradient id="paint11_linear_561_12629" x1="31.1503" y1="52.4701" x2="31.1503" y2="9.81006" gradientUnits="userSpaceOnUse">
<stop stop-color="#72E3FF"/>
<stop offset="1" stop-color="#4499FF"/>
</linearGradient>
<linearGradient id="paint12_linear_561_12629" x1="31.1503" y1="18.5201" x2="31.1503" y2="9.81006" gradientUnits="userSpaceOnUse">
<stop stop-color="#FCFFFF"/>
<stop offset="1" stop-color="#4795E6"/>
</linearGradient>
<radialGradient id="paint13_radial_561_12629" cx="0" cy="0" r="1" gradientUnits="userSpaceOnUse" gradientTransform="translate(30.7904 74.0901) scale(36.55 36.55)">
<stop stop-color="#30CCFF"/>
<stop offset="1" stop-color="#00080D"/>
</radialGradient>
<radialGradient id="paint14_radial_561_12629" cx="0" cy="0" r="1" gradientUnits="userSpaceOnUse" gradientTransform="translate(8.17265 8.17972) scale(8.18 8.17999)">
<stop stop-color="#00FF9D"/>
<stop offset="0.06" stop-color="#00E68D"/>
<stop offset="0.21" stop-color="#00AA68"/>
<stop offset="0.35" stop-color="#007649"/>
<stop offset="0.5" stop-color="#004C2E"/>
<stop offset="0.64" stop-color="#002B1A"/>
<stop offset="0.77" stop-color="#00130C"/>
<stop offset="0.89" stop-color="#000503"/>
<stop offset="1"/>
</radialGradient>
</defs>
</svg>
