<svg width="59" height="59" viewBox="0 0 59 59" fill="none" xmlns="http://www.w3.org/2000/svg">
<path fill-rule="evenodd" clip-rule="evenodd" d="M10.4298 4.09009H51.8598C53.5413 4.09009 55.1539 4.75805 56.3429 5.94703C57.5319 7.13601 58.1998 8.74861 58.1998 10.4301V51.8601C58.1972 53.5407 57.5284 55.1518 56.34 56.3402C55.1516 57.5286 53.5405 58.1974 51.8598 58.2001H10.4298C8.74918 58.1974 7.13811 57.5286 5.94971 56.3402C4.7613 55.1518 4.09249 53.5407 4.08984 51.8601V10.4301C4.09249 8.74943 4.7613 7.13836 5.94971 5.94995C7.13811 4.76154 8.74918 4.09273 10.4298 4.09009Z" fill="url(#paint0_linear_561_12655)"/>
<path fill-rule="evenodd" clip-rule="evenodd" d="M10.4297 8.17993C10.1342 8.17965 9.84164 8.23781 9.56876 8.35109C9.29587 8.46436 9.04809 8.6305 8.83969 8.83993C8.42036 9.26332 8.18345 9.83405 8.17969 10.4299V51.8599C8.18491 52.4551 8.42365 53.0243 8.84448 53.4452C9.26531 53.866 9.83457 54.1047 10.4297 54.1099H51.8597C52.4556 54.1073 53.0264 53.8694 53.4478 53.448C53.8692 53.0266 54.107 52.4559 54.1097 51.8599V10.4299C54.1097 9.8332 53.8726 9.2609 53.4507 8.83894C53.0287 8.41699 52.4564 8.17993 51.8597 8.17993H10.4297Z" fill="url(#paint1_linear_561_12655)"/>
<path style="mix-blend-mode:screen" fill-rule="evenodd" clip-rule="evenodd" d="M10.4302 8.17986H51.8602C52.1557 8.17957 52.4482 8.23774 52.7211 8.35101C52.994 8.46429 53.2418 8.63043 53.4502 8.83986L56.3402 5.94986C55.7538 5.35872 55.0558 4.88991 54.2867 4.57063C53.5177 4.25134 52.6929 4.08792 51.8602 4.08986H10.4302C9.59785 4.09012 8.77371 4.25454 8.00497 4.5737C7.23624 4.89286 6.53798 5.36051 5.9502 5.94986L8.84021 8.83986C9.04861 8.63043 9.29639 8.46429 9.56927 8.35101C9.84216 8.23774 10.1347 8.17957 10.4302 8.17986Z" fill="url(#paint2_linear_561_12655)"/>
<path style="mix-blend-mode:multiply" fill-rule="evenodd" clip-rule="evenodd" d="M51.8602 54.1099H10.4302C10.1347 54.1102 9.84216 54.052 9.56927 53.9388C9.29639 53.8255 9.04861 53.6593 8.84021 53.4499L5.9502 56.2999C6.53798 56.8893 7.23624 57.3569 8.00497 57.6761C8.77371 57.9952 9.59785 58.1597 10.4302 58.1599H51.8602C52.6929 58.1619 53.5177 57.9984 54.2867 57.6791C55.0558 57.3599 55.7538 56.891 56.3402 56.2999L53.4502 53.4099C53.2418 53.6193 52.994 53.7855 52.7211 53.8988C52.4482 54.012 52.1557 54.0702 51.8602 54.0699V54.1099Z" fill="url(#paint3_linear_561_12655)"/>
<path style="mix-blend-mode:screen" fill-rule="evenodd" clip-rule="evenodd" d="M8.17984 51.86V10.43C8.18361 9.83407 8.42052 9.26334 8.83985 8.83995L5.94983 5.94995C5.35959 6.53707 4.89137 7.23519 4.57215 8.00408C4.25292 8.77297 4.08901 9.59743 4.08985 10.43V51.86C4.09877 53.5276 4.76747 55.1239 5.94983 56.2999L8.83985 53.41C8.42052 52.9866 8.18361 52.4158 8.17984 51.82V51.86Z" fill="url(#paint4_radial_561_12655)"/>
<path style="mix-blend-mode:multiply" fill-rule="evenodd" clip-rule="evenodd" d="M54.1102 10.43V51.86C54.1105 52.1554 54.0523 52.448 53.9391 52.7209C53.8258 52.9938 53.6596 53.2415 53.4502 53.45L56.3402 56.2999C56.9305 55.7128 57.3987 55.0147 57.7179 54.2458C58.0371 53.4769 58.201 52.6525 58.2002 51.82V10.43C58.201 9.59743 58.0371 8.77297 57.7179 8.00408C57.3987 7.23519 56.9305 6.53707 56.3402 5.94995L53.4502 8.83995C53.6596 9.04836 53.8258 9.29613 53.9391 9.56902C54.0523 9.8419 54.1105 10.1345 54.1102 10.43Z" fill="url(#paint5_linear_561_12655)"/>
<path style="mix-blend-mode:screen" fill-rule="evenodd" clip-rule="evenodd" d="M31.1501 56.16C20.2201 56.16 11.3701 55.37 11.3701 54.97C11.3701 54.57 27.6801 54.61 31.1501 54.61C34.6201 54.61 50.9301 54.61 50.9301 54.97C50.9301 55.33 42.0701 56.16 31.1501 56.16Z" fill="url(#paint6_radial_561_12655)"/>
<path style="mix-blend-mode:screen" opacity="0.65" fill-rule="evenodd" clip-rule="evenodd" d="M8.17969 36.79C18.5097 31.22 41.6197 21.87 54.1097 17.48V10.48C54.1097 9.88324 53.8726 9.31095 53.4507 8.88899C53.0287 8.46703 52.4564 8.22998 51.8597 8.22998H10.4297C10.1342 8.2297 9.84164 8.28786 9.56876 8.40114C9.29587 8.51441 9.04809 8.68055 8.83969 8.88998C8.42036 9.31337 8.18345 9.8841 8.17969 10.48V36.79Z" fill="url(#paint7_linear_561_12655)"/>
<path style="mix-blend-mode:screen" fill-rule="evenodd" clip-rule="evenodd" d="M8.17984 36.79V10.43C8.18361 9.83407 8.42052 9.26334 8.83985 8.83995L5.94983 5.94995C5.35959 6.53707 4.89137 7.23519 4.57215 8.00408C4.25292 8.77297 4.08901 9.59743 4.08985 10.43V38.5099C5.29924 37.6235 6.70038 37.0342 8.17984 36.79Z" fill="url(#paint8_linear_561_12655)"/>
<path style="mix-blend-mode:screen" fill-rule="evenodd" clip-rule="evenodd" d="M51.8597 4.69995H10.4297C8.90815 4.69994 7.44864 5.303 6.37088 6.37701C5.29312 7.45102 4.68498 8.90842 4.67969 10.43V36.9C4.70976 37.2599 4.87398 37.5953 5.13977 37.8398C5.40557 38.0843 5.75353 38.2201 6.11469 38.2201C6.47584 38.2201 6.8238 38.0843 7.0896 37.8398C7.35539 37.5953 7.51961 37.2599 7.54968 36.9V10.43C7.55489 9.67211 7.85757 8.94665 8.39252 8.40983C8.92747 7.87301 9.65188 7.5678 10.4097 7.55995H51.8397C52.6001 7.56259 53.3285 7.86581 53.8662 8.40347C54.4038 8.94113 54.7071 9.66959 54.7097 10.43V16.62C54.7097 16.9992 54.8604 17.3629 55.1285 17.6311C55.3967 17.8993 55.7604 18.05 56.1397 18.05C56.5189 18.05 56.8827 17.8993 57.1508 17.6311C57.419 17.3629 57.5697 16.9992 57.5697 16.62V10.43C57.5671 8.91107 56.9625 7.45516 55.8885 6.38115C54.8145 5.30714 53.3586 4.7026 51.8397 4.69995H51.8597Z" fill="url(#paint9_radial_561_12655)"/>
<g style="mix-blend-mode:screen">
<path fill-rule="evenodd" clip-rule="evenodd" d="M28.2601 7C18.9301 7 11.3701 7.37 11.3701 7.56C11.3701 7.75 25.3001 7.73 28.2601 7.73C31.2201 7.73 45.1501 7.73 45.1501 7.56C45.1501 7.39 37.5901 7 28.2601 7Z" fill="#A1FFEE"/>
</g>
<path fill-rule="evenodd" clip-rule="evenodd" d="M47.2496 53.55C44.8196 53.55 42.8496 53.9201 42.8496 54.1101C42.8496 54.3001 45.1996 54.42 47.2496 54.42C49.2996 54.42 51.6796 54.3001 51.6796 54.1101C51.6796 53.9201 49.6796 53.55 47.2696 53.55H47.2496Z" fill="#88F6FF"/>
<path fill-rule="evenodd" clip-rule="evenodd" d="M39.7597 53.6699C38.8078 53.5873 37.8501 53.7383 36.9697 54.1099C38.816 54.4298 40.7035 54.4298 42.5497 54.1099C41.6698 53.7368 40.7117 53.5857 39.7597 53.6699Z" fill="#88F6FF"/>
<g style="mix-blend-mode:multiply" opacity="0.5">
<path fill-rule="evenodd" clip-rule="evenodd" d="M6.91037 55.8599C7.33104 55.2327 7.85514 54.6816 8.46036 54.2299C8.77539 54.0311 9.13801 53.9206 9.51035 53.9099C9.19838 53.7678 8.92232 53.5574 8.70251 53.2943C8.48271 53.0312 8.32477 52.7222 8.24036 52.3899C8.3212 52.8735 8.23666 53.3703 8.00037 53.7999C7.57983 54.43 7.05576 54.9845 6.45035 55.4399C6.12862 55.6502 5.73845 55.7289 5.36035 55.6599C5.7517 56.1814 6.22046 56.64 6.75037 57.0199C6.64997 56.6272 6.70741 56.2108 6.91037 55.8599Z" fill="#5FB7FC"/>
</g>
<g style="mix-blend-mode:multiply" opacity="0.5">
<path fill-rule="evenodd" clip-rule="evenodd" d="M55.3901 55.8599C54.963 55.2346 54.436 54.684 53.8301 54.2299C53.5302 54.0382 53.1855 53.9279 52.8301 53.9099C53.1446 53.7715 53.4228 53.5623 53.6431 53.2986C53.8634 53.035 54.0198 52.724 54.1001 52.3899C54.0289 52.8734 54.1129 53.3671 54.3401 53.7999C54.7642 54.4303 55.2916 54.9848 55.9001 55.4399C56.2183 55.6495 56.6052 55.7283 56.9801 55.6599C56.5887 56.1814 56.12 56.64 55.5901 57.0199C55.6946 56.6285 55.6407 56.2118 55.4401 55.8599H55.3901Z" fill="#5FB7FC"/>
</g>
<g style="mix-blend-mode:screen">
<path fill-rule="evenodd" clip-rule="evenodd" d="M6.91037 6.42005C7.32795 7.05252 7.85243 7.60747 8.46036 8.06005C8.77539 8.25881 9.13801 8.36933 9.51035 8.38005C9.19838 8.52219 8.92232 8.73256 8.70251 8.99564C8.48271 9.25871 8.32477 9.56779 8.24036 9.90005C8.322 9.41643 8.23741 8.91942 8.00037 8.49005C7.57983 7.85992 7.05576 7.30544 6.45035 6.85005C6.12862 6.63978 5.73845 6.56103 5.36035 6.63005C5.75403 6.11921 6.22267 5.67081 6.75037 5.30005C6.64942 5.68945 6.70696 6.10299 6.91037 6.45005V6.42005Z" fill="#75CAFF"/>
</g>
<g style="mix-blend-mode:screen">
<path fill-rule="evenodd" clip-rule="evenodd" d="M55.3901 6.42005C54.9659 7.0505 54.4386 7.60494 53.8301 8.06005C53.5302 8.25172 53.1855 8.362 52.8301 8.38005C53.1446 8.51845 53.4228 8.72764 53.6431 8.99131C53.8634 9.25497 54.0198 9.56598 54.1001 9.90005C54.0282 9.41649 54.1123 8.9226 54.3401 8.49005C54.7642 7.85959 55.2916 7.30516 55.9001 6.85005C56.2183 6.6404 56.6052 6.5616 56.9801 6.63005C56.5712 6.1154 56.0855 5.66681 55.5401 5.30005C55.5921 5.49216 55.6056 5.69266 55.5799 5.89002C55.5542 6.08738 55.4896 6.27771 55.3901 6.45005V6.42005Z" fill="#75CAFF"/>
</g>
<path fill-rule="evenodd" clip-rule="evenodd" d="M10.4304 9.60986H51.8604C52.0778 9.60986 52.2864 9.69626 52.4402 9.85004C52.594 10.0038 52.6804 10.2124 52.6804 10.4299V51.8599C52.6778 52.0765 52.5905 52.2836 52.4373 52.4368C52.2841 52.59 52.077 52.6773 51.8604 52.6799H10.4304C10.2145 52.6748 10.0089 52.5868 9.85617 52.4341C9.70348 52.2814 9.61543 52.0757 9.61035 51.8599V10.4299C9.61105 10.3214 9.63357 10.2141 9.67651 10.1145C9.71946 10.0149 9.78196 9.92487 9.86035 9.84986C9.93468 9.77403 10.0234 9.71376 10.1212 9.67255C10.2191 9.63135 10.3242 9.61004 10.4304 9.60986Z" fill="url(#paint10_linear_561_12655)"/>
<path fill-rule="evenodd" clip-rule="evenodd" d="M10.4303 9.81006C10.2684 9.81518 10.1147 9.88245 10.0011 9.9979C9.88754 10.1134 9.8228 10.2681 9.82031 10.4301V51.8601C9.82289 52.021 9.88796 52.1747 10.0018 52.2885C10.1156 52.4024 10.2693 52.4675 10.4303 52.4701H51.8603C52.023 52.4701 52.1792 52.4061 52.2952 52.292C52.4112 52.1779 52.4777 52.0228 52.4803 51.8601V10.4301C52.4777 10.2664 52.4116 10.1102 52.2959 9.9945C52.1801 9.87878 52.0239 9.81264 51.8603 9.81006H10.4303Z" fill="url(#paint11_linear_561_12655)"/>
<path style="mix-blend-mode:multiply" opacity="0.5" fill-rule="evenodd" clip-rule="evenodd" d="M9.82031 18.5201C10.8203 15.6901 12.0503 13.8701 13.9403 13.3201C18.3803 12.0401 26.1603 12.2301 31.1503 12.2301C36.1403 12.2301 43.9203 12.0401 48.3503 13.3201C50.2503 13.8701 51.5003 15.6901 52.4803 18.5201V10.4301C52.473 10.268 52.4053 10.1145 52.2906 9.99978C52.1759 9.88505 52.0224 9.81738 51.8603 9.81006H10.4303C10.2684 9.81518 10.1147 9.88245 10.0011 9.9979C9.88754 10.1134 9.8228 10.2681 9.82031 10.4301V18.5201Z" fill="url(#paint12_linear_561_12655)"/>
<path style="mix-blend-mode:screen" fill-rule="evenodd" clip-rule="evenodd" d="M31.1504 51.5C24.8704 51.5 11.1504 51.6501 11.1504 50.0201C11.1504 48.39 20.1504 45.55 31.1504 45.55C42.1504 45.55 51.1504 48.39 51.1504 50.0201C51.1504 51.6501 37.4204 51.5 31.1504 51.5Z" fill="url(#paint13_radial_561_12655)"/>
<path style="mix-blend-mode:screen" d="M16.1363 10.0628C17.1779 5.66685 14.4586 1.25884 10.0626 0.217244C5.66664 -0.824351 1.25862 1.8949 0.217028 6.29088C-0.824567 10.6869 1.8947 15.0949 6.29067 16.1365C10.6866 17.1781 15.0947 14.4588 16.1363 10.0628Z" fill="url(#paint14_radial_561_12655)"/>
<path d="M31.624 42.384C29.4907 42.384 27.7093 42.064 26.28 41.424C24.8507 40.7627 23.7733 39.9093 23.048 38.864C22.3227 37.7973 21.9387 36.656 21.896 35.44C21.896 35.248 21.96 35.088 22.088 34.96C22.2373 34.8107 22.408 34.736 22.6 34.736H27.944C28.264 34.736 28.5093 34.8 28.68 34.928C28.8507 35.056 28.968 35.184 29.032 35.312C29.2453 35.6747 29.4693 35.984 29.704 36.24C29.9387 36.4747 30.216 36.656 30.536 36.784C30.856 36.8907 31.2293 36.944 31.656 36.944C32.1253 36.944 32.5627 36.848 32.968 36.656C33.3733 36.4427 33.6933 36.144 33.928 35.76C34.184 35.3547 34.312 34.864 34.312 34.288C34.312 33.7973 34.1947 33.3707 33.96 33.008C33.7467 32.624 33.4373 32.3147 33.032 32.08C32.648 31.8453 32.1893 31.728 31.656 31.728C31.2293 31.728 30.8773 31.7813 30.6 31.888C30.344 31.9733 30.1307 32.08 29.96 32.208C29.7893 32.336 29.6293 32.4533 29.48 32.56C29.352 32.6453 29.2027 32.688 29.032 32.688H23.752C23.56 32.688 23.3893 32.624 23.24 32.496C23.112 32.3467 23.048 32.176 23.048 31.984L24.264 20.624C24.3067 20.2827 24.4347 20.0267 24.648 19.856C24.8827 19.6853 25.1387 19.6 25.416 19.6H38.984C39.2187 19.6 39.4107 19.6853 39.56 19.856C39.7307 20.0053 39.816 20.1973 39.816 20.432V24.208C39.816 24.4213 39.7307 24.6133 39.56 24.784C39.4107 24.9547 39.2187 25.04 38.984 25.04H29.672L29.352 28.24C29.8853 27.8773 30.4507 27.6107 31.048 27.44C31.6667 27.248 32.52 27.152 33.608 27.152C34.6107 27.152 35.5707 27.3333 36.488 27.696C37.4267 28.0373 38.2587 28.5387 38.984 29.2C39.7307 29.84 40.3173 30.608 40.744 31.504C41.1707 32.4 41.384 33.392 41.384 34.48C41.384 35.9307 41.0107 37.2533 40.264 38.448C39.5173 39.6427 38.4187 40.6027 36.968 41.328C35.5173 42.032 33.736 42.384 31.624 42.384Z" fill="#031E4D"/>
<path d="M26.28 41.424L25.8601 42.3316L25.8713 42.3367L26.28 41.424ZM23.048 38.864L22.221 39.4263L22.2264 39.4341L23.048 38.864ZM21.896 35.44H20.896V35.4575L20.8966 35.4751L21.896 35.44ZM22.088 34.96L22.7951 35.6671H22.7951L22.088 34.96ZM28.68 34.928L29.28 34.128H29.28L28.68 34.928ZM29.032 35.312L28.1376 35.7592L28.1528 35.7897L28.1701 35.819L29.032 35.312ZM29.704 36.24L28.9668 36.9157L28.9815 36.9317L28.9969 36.9471L29.704 36.24ZM30.536 36.784L30.1646 37.7125L30.1919 37.7234L30.2198 37.7327L30.536 36.784ZM32.968 36.656L33.3961 37.5597L33.4151 37.5507L33.4337 37.5409L32.968 36.656ZM33.928 35.76L33.0825 35.226L33.0786 35.2323L33.0747 35.2386L33.928 35.76ZM33.96 33.008L33.0858 33.4936L33.1022 33.523L33.1204 33.5512L33.96 33.008ZM33.032 32.08L32.5106 32.9333L32.5207 32.9395L32.531 32.9454L33.032 32.08ZM30.6 31.888L30.9162 32.8367L30.9378 32.8295L30.959 32.8213L30.6 31.888ZM29.96 32.208L29.36 31.408L29.36 31.408L29.96 32.208ZM29.48 32.56L30.0347 33.392L30.0481 33.3831L30.0612 33.3737L29.48 32.56ZM23.24 32.496L22.4807 33.1468L22.5308 33.2052L22.5892 33.2553L23.24 32.496ZM23.048 31.984L22.0537 31.8776L22.048 31.9306V31.984H23.048ZM24.264 20.624L23.2717 20.5L23.2706 20.5088L23.2697 20.5176L24.264 20.624ZM24.648 19.856L24.0598 19.0473L24.0412 19.0608L24.0233 19.0751L24.648 19.856ZM39.56 19.856L38.8074 20.5145L38.8513 20.5647L38.9015 20.6086L39.56 19.856ZM39.56 24.784L38.8529 24.0769L38.8294 24.1004L38.8074 24.1255L39.56 24.784ZM29.672 25.04V24.04H28.767L28.677 24.9405L29.672 25.04ZM29.352 28.24L28.357 28.1405L28.1439 30.2708L29.9143 29.0669L29.352 28.24ZM31.048 27.44L31.3227 28.4015L31.3336 28.3984L31.3444 28.3951L31.048 27.44ZM36.488 27.696L36.1203 28.626L36.1332 28.6311L36.1463 28.6358L36.488 27.696ZM38.984 29.2L38.3102 29.939L38.3216 29.9493L38.3332 29.9593L38.984 29.2ZM40.744 31.504L41.6469 31.0741L40.744 31.504ZM40.264 38.448L41.112 38.978L40.264 38.448ZM36.968 41.328L37.4046 42.2277L37.4152 42.2224L36.968 41.328ZM31.624 41.384C29.5835 41.384 27.9518 41.0769 26.6887 40.5113L25.8713 42.3367C27.4668 43.0511 29.3979 43.384 31.624 43.384V41.384ZM26.6999 40.5164C25.394 39.9122 24.4719 39.162 23.8696 38.2939L22.2264 39.4341C23.0748 40.6567 24.3073 41.6131 25.8601 42.3316L26.6999 40.5164ZM23.8749 38.3017C23.249 37.3812 22.931 36.4209 22.8954 35.4049L20.8966 35.4751C20.9463 36.8911 21.3964 38.2135 22.2211 39.4263L23.8749 38.3017ZM22.896 35.44C22.896 35.4567 22.8928 35.4965 22.8725 35.5474C22.8517 35.5994 22.8219 35.6403 22.7951 35.6671L21.3809 34.2529C21.0531 34.5807 20.896 35.0006 20.896 35.44H22.896ZM22.7951 35.6671C22.7933 35.6689 22.772 35.6893 22.7288 35.7082C22.6838 35.7278 22.6376 35.736 22.6 35.736V33.736C22.115 33.736 21.6972 33.9366 21.3809 34.2529L22.7951 35.6671ZM22.6 35.736H27.944V33.736H22.6V35.736ZM27.944 35.736C28.04 35.736 28.0935 35.7459 28.1156 35.7516C28.1358 35.7569 28.1162 35.7551 28.08 35.728L29.28 34.128C28.8689 33.8197 28.3775 33.736 27.944 33.736V35.736ZM28.08 35.728C28.1266 35.763 28.1501 35.7862 28.1588 35.7957C28.1676 35.8053 28.1549 35.7938 28.1376 35.7592L29.9264 34.8648C29.7673 34.5466 29.5189 34.3072 29.28 34.128L28.08 35.728ZM28.1701 35.819C28.4118 36.2299 28.6761 36.5985 28.9668 36.9157L30.4412 35.5643C30.2626 35.3695 30.0789 35.1194 29.8939 34.805L28.1701 35.819ZM28.9969 36.9471C29.331 37.2812 29.7238 37.5362 30.1646 37.7125L30.9074 35.8555C30.7082 35.7758 30.5463 35.6681 30.4111 35.5329L28.9969 36.9471ZM30.2198 37.7327C30.6646 37.881 31.149 37.944 31.656 37.944V35.944C31.3097 35.944 31.0474 35.9004 30.8522 35.8353L30.2198 37.7327ZM31.656 37.944C32.2663 37.944 32.8507 37.8181 33.3961 37.5597L32.5399 35.7523C32.2746 35.8779 31.9843 35.944 31.656 35.944V37.944ZM33.4337 37.5409C33.9957 37.2452 34.4508 36.8222 34.7813 36.2815L33.0747 35.2386C32.9358 35.4658 32.751 35.6402 32.5023 35.7711L33.4337 37.5409ZM34.7735 36.294C35.1491 35.6992 35.312 35.0146 35.312 34.288H33.312C33.312 34.7134 33.2189 35.0101 33.0825 35.226L34.7735 36.294ZM35.312 34.288C35.312 33.6315 35.1527 33.0105 34.7996 32.4648L33.1204 33.5512C33.2366 33.7309 33.312 33.9631 33.312 34.288H35.312ZM34.8342 32.5224C34.5272 31.9698 34.084 31.5336 33.533 31.2146L32.531 32.9454C32.7907 33.0958 32.9661 33.2782 33.0858 33.4936L34.8342 32.5224ZM33.5535 31.2267C32.9855 30.8796 32.3389 30.728 31.656 30.728V32.728C32.0397 32.728 32.3105 32.811 32.5106 32.9333L33.5535 31.2267ZM31.656 30.728C31.1557 30.728 30.6712 30.7892 30.241 30.9547L30.959 32.8213C31.0835 32.7735 31.303 32.728 31.656 32.728V30.728ZM30.2838 30.9393C29.9515 31.0501 29.636 31.201 29.36 31.408L30.56 33.008C30.6254 32.959 30.7365 32.8966 30.9162 32.8367L30.2838 30.9393ZM29.36 31.408C29.1946 31.5321 29.0409 31.6448 28.8988 31.7463L30.0612 33.3737C30.2178 33.2619 30.3841 33.1399 30.56 33.008L29.36 31.408ZM28.9253 31.7279C28.9482 31.7127 28.9735 31.7013 28.9973 31.6945C29.0203 31.6879 29.0335 31.688 29.032 31.688V33.688C29.3777 33.688 29.7247 33.5987 30.0347 33.392L28.9253 31.7279ZM29.032 31.688H23.752V33.688H29.032V31.688ZM23.752 31.688C23.7694 31.688 23.7983 31.6914 23.8311 31.7037C23.8636 31.7159 23.8837 31.7307 23.8908 31.7367L22.5892 33.2553C22.9149 33.5345 23.315 33.688 23.752 33.688V31.688ZM23.9993 31.8452C24.0053 31.8523 24.0201 31.8724 24.0323 31.9049C24.0446 31.9377 24.048 31.9666 24.048 31.984H22.048C22.048 32.421 22.2015 32.8211 22.4807 33.1468L23.9993 31.8452ZM24.0423 32.0904L25.2583 20.7304L23.2697 20.5176L22.0537 31.8776L24.0423 32.0904ZM25.2563 20.748C25.2663 20.6678 25.2822 20.6317 25.2864 20.6232C25.2884 20.6192 25.2882 20.6205 25.2849 20.6247C25.2814 20.629 25.277 20.6334 25.2727 20.6369L24.0233 19.0751C23.5573 19.448 23.3379 19.9704 23.2717 20.5L25.2563 20.748ZM25.2362 20.6647C25.3084 20.6122 25.3602 20.6 25.416 20.6V18.6C24.9171 18.6 24.457 18.7584 24.0598 19.0473L25.2362 20.6647ZM25.416 20.6H38.984V18.6H25.416V20.6ZM38.984 20.6C38.9778 20.6 38.9439 20.5983 38.8979 20.5778C38.8509 20.557 38.8206 20.5296 38.8074 20.5145L40.3126 19.1975C39.9659 18.8013 39.4956 18.6 38.984 18.6V20.6ZM38.9015 20.6086C38.8864 20.5954 38.859 20.5651 38.8382 20.5181C38.8177 20.4721 38.816 20.4382 38.816 20.432H40.816C40.816 19.9204 40.6147 19.4501 40.2185 19.1034L38.9015 20.6086ZM38.816 20.432V24.208H40.816V20.432H38.816ZM38.816 24.208C38.816 24.177 38.8231 24.1397 38.8382 24.1059C38.8522 24.0743 38.8642 24.0656 38.8529 24.0769L40.2671 25.4911C40.5985 25.1597 40.816 24.7222 40.816 24.208H38.816ZM38.8074 24.1255C38.8206 24.1104 38.8509 24.083 38.8979 24.0622C38.9439 24.0417 38.9778 24.04 38.984 24.04V26.04C39.4956 26.04 39.9659 25.8387 40.3126 25.4425L38.8074 24.1255ZM38.984 24.04H29.672V26.04H38.984V24.04ZM28.677 24.9405L28.357 28.1405L30.347 28.3395L30.667 25.1395L28.677 24.9405ZM29.9143 29.0669C30.363 28.7618 30.8317 28.5418 31.3227 28.4015L30.7733 26.4785C30.0697 26.6795 29.4077 26.9928 28.7897 27.4131L29.9143 29.0669ZM31.3444 28.3951C31.8239 28.2463 32.5621 28.152 33.608 28.152V26.152C32.4779 26.152 31.5095 26.2497 30.7516 26.4849L31.3444 28.3951ZM33.608 28.152C34.4869 28.152 35.322 28.3103 36.1203 28.626L36.8557 26.766C35.8193 26.3563 34.7344 26.152 33.608 26.152V28.152ZM36.1463 28.6358C36.9644 28.9333 37.6831 29.3672 38.3102 29.939L39.6578 28.461C38.8342 27.7102 37.8889 27.1414 36.8297 26.7562L36.1463 28.6358ZM38.3332 29.9593C38.9728 30.5075 39.474 31.1629 39.8411 31.9339L41.6469 31.0741C41.1607 30.0531 40.4886 29.1726 39.6348 28.4407L38.3332 29.9593ZM39.8411 31.9339C40.1979 32.6831 40.384 33.5262 40.384 34.48H42.384C42.384 33.2578 42.1434 32.1169 41.6469 31.0741L39.8411 31.9339ZM40.384 34.48C40.384 35.7491 40.0603 36.8872 39.416 37.918L41.112 38.978C41.9611 37.6195 42.384 36.1122 42.384 34.48H40.384ZM39.416 37.918C38.7809 38.9342 37.8322 39.7778 36.5208 40.4336L37.4152 42.2224C39.0051 41.4275 40.2538 40.3511 41.112 38.978L39.416 37.918ZM36.5314 40.4283C35.2522 41.0491 33.6297 41.384 31.624 41.384V43.384C33.8423 43.384 35.7825 43.0149 37.4046 42.2277L36.5314 40.4283Z" fill="white"/>
<defs>
<linearGradient id="paint0_linear_561_12655" x1="56.3398" y1="56.3401" x2="5.94983" y2="5.9501" gradientUnits="userSpaceOnUse">
<stop stop-color="#4CB7FF"/>
<stop offset="1" stop-color="#7AEDFF"/>
</linearGradient>
<linearGradient id="paint1_linear_561_12655" x1="53.4497" y1="53.4499" x2="8.83968" y2="8.83995" gradientUnits="userSpaceOnUse">
<stop stop-color="#60C1FF"/>
<stop offset="1" stop-color="#8CDEFF"/>
</linearGradient>
<linearGradient id="paint2_linear_561_12655" x1="5.9502" y1="6.45986" x2="56.3402" y2="6.45986" gradientUnits="userSpaceOnUse">
<stop stop-color="#00080D"/>
<stop offset="1" stop-color="#3040E8"/>
</linearGradient>
<linearGradient id="paint3_linear_561_12655" x1="5.9502" y1="55.8199" x2="56.3402" y2="55.8199" gradientUnits="userSpaceOnUse">
<stop stop-color="#FCFFFF"/>
<stop offset="1" stop-color="#70A2FF"/>
</linearGradient>
<radialGradient id="paint4_radial_561_12655" cx="0" cy="0" r="1" gradientUnits="userSpaceOnUse" gradientTransform="translate(-2.17015 7.26995) scale(62.41 62.41)">
<stop stop-color="#1F6AF0"/>
<stop offset="1" stop-color="#002348"/>
</radialGradient>
<linearGradient id="paint5_linear_561_12655" x1="53.4502" y1="31.1399" x2="58.2002" y2="31.1399" gradientUnits="userSpaceOnUse">
<stop stop-color="#FCFFFF"/>
<stop offset="1" stop-color="#4484FF"/>
</linearGradient>
<radialGradient id="paint6_radial_561_12655" cx="0" cy="0" r="1" gradientUnits="userSpaceOnUse" gradientTransform="translate(34.4201 64.25) scale(34.03 34.03)">
<stop stop-color="#0D50D9"/>
<stop offset="1" stop-color="#00080D"/>
</radialGradient>
<linearGradient id="paint7_linear_561_12655" x1="39.7997" y1="31.8" x2="12.8397" y2="4.83999" gradientUnits="userSpaceOnUse">
<stop stop-color="#00080D"/>
<stop offset="1" stop-color="#073FD9"/>
</linearGradient>
<linearGradient id="paint8_linear_561_12655" x1="6.46985" y1="38.5099" x2="6.46985" y2="5.94995" gradientUnits="userSpaceOnUse">
<stop stop-color="#00080D"/>
<stop offset="1" stop-color="#26DCFF"/>
</linearGradient>
<radialGradient id="paint9_radial_561_12655" cx="0" cy="0" r="1" gradientUnits="userSpaceOnUse" gradientTransform="translate(9.34969 2.76995) scale(50.2 50.2)">
<stop stop-color="#66B2FF"/>
<stop offset="1" stop-color="#00080D"/>
</radialGradient>
<linearGradient id="paint10_linear_561_12655" x1="52.4404" y1="52.4399" x2="9.86036" y2="9.84986" gradientUnits="userSpaceOnUse">
<stop stop-color="#1D7BFF"/>
<stop offset="1" stop-color="#6DDEFF"/>
</linearGradient>
<linearGradient id="paint11_linear_561_12655" x1="31.1503" y1="52.4701" x2="31.1503" y2="9.81006" gradientUnits="userSpaceOnUse">
<stop stop-color="#72E3FF"/>
<stop offset="1" stop-color="#4499FF"/>
</linearGradient>
<linearGradient id="paint12_linear_561_12655" x1="31.1503" y1="18.5201" x2="31.1503" y2="9.81006" gradientUnits="userSpaceOnUse">
<stop stop-color="#FCFFFF"/>
<stop offset="1" stop-color="#4795E6"/>
</linearGradient>
<radialGradient id="paint13_radial_561_12655" cx="0" cy="0" r="1" gradientUnits="userSpaceOnUse" gradientTransform="translate(30.7904 74.0901) scale(36.55 36.55)">
<stop stop-color="#30CCFF"/>
<stop offset="1" stop-color="#00080D"/>
</radialGradient>
<radialGradient id="paint14_radial_561_12655" cx="0" cy="0" r="1" gradientUnits="userSpaceOnUse" gradientTransform="translate(8.17265 8.17972) scale(8.18 8.17999)">
<stop stop-color="#00FF9D"/>
<stop offset="0.06" stop-color="#00E68D"/>
<stop offset="0.21" stop-color="#00AA68"/>
<stop offset="0.35" stop-color="#007649"/>
<stop offset="0.5" stop-color="#004C2E"/>
<stop offset="0.64" stop-color="#002B1A"/>
<stop offset="0.77" stop-color="#00130C"/>
<stop offset="0.89" stop-color="#000503"/>
<stop offset="1"/>
</radialGradient>
</defs>
</svg>
