<svg width="195" height="58" viewBox="0 0 195 58" fill="none" xmlns="http://www.w3.org/2000/svg">
<path fill-rule="evenodd" clip-rule="evenodd" d="M22.6341 4.07617H172.124C178.191 4.07617 184.01 4.74184 188.3 5.92673C192.59 7.11163 195 8.71869 195 10.3944V51.682C194.99 53.3569 192.577 54.9624 188.289 56.1468C184.001 57.3311 178.188 57.9976 172.124 58.0002H22.6341C16.5698 57.9976 10.7567 57.3311 6.46866 56.1468C2.18059 54.9624 -0.232645 53.3569 -0.242188 51.682V10.3944C-0.232645 8.7195 2.18059 7.11397 6.46866 5.92964C10.7567 4.74532 16.5698 4.07881 22.6341 4.07617Z" fill="url(#paint0_linear_561_12681)"/>
<path fill-rule="evenodd" clip-rule="evenodd" d="M22.6342 8.1521C21.5681 8.15182 20.5124 8.20978 19.5277 8.32267C18.5431 8.43555 17.6491 8.60112 16.8971 8.80983C15.384 9.23177 14.5292 9.80053 14.5156 10.3944V51.682C14.5345 52.2751 15.3959 52.8424 16.9144 53.2618C18.4328 53.6812 20.4868 53.9191 22.6342 53.9243H172.124C174.274 53.9216 176.334 53.6846 177.854 53.2646C179.375 52.8447 180.233 52.2759 180.242 51.682V10.3944C180.242 9.79968 179.387 9.22935 177.865 8.80885C176.342 8.38834 174.277 8.1521 172.124 8.1521H22.6342Z" fill="url(#paint1_linear_561_12681)"/>
<path style="mix-blend-mode:screen" fill-rule="evenodd" clip-rule="evenodd" d="M22.6337 8.15189H172.123C173.189 8.1516 174.245 8.20957 175.23 8.32245C176.214 8.43534 177.109 8.60091 177.861 8.80962L188.288 5.92955C186.172 5.34045 183.654 4.87325 180.879 4.55506C178.104 4.23686 175.128 4.07401 172.123 4.07594H22.6337C19.6304 4.0762 16.6567 4.24005 13.8829 4.55812C11.1091 4.87619 8.58961 5.34222 6.46875 5.92955L16.8966 8.80962C17.6486 8.60091 18.5427 8.43534 19.5273 8.32245C20.5119 8.20957 21.5677 8.1516 22.6337 8.15189Z" fill="url(#paint2_linear_561_12681)"/>
<path style="mix-blend-mode:multiply" fill-rule="evenodd" clip-rule="evenodd" d="M172.123 53.9242H22.6337C21.5677 53.9244 20.5119 53.8665 19.5273 53.7536C18.5427 53.6407 17.6486 53.4751 16.8966 53.2664L6.46875 56.1066C8.58961 56.694 11.1091 57.16 13.8829 57.4781C16.6567 57.7961 19.6304 57.96 22.6337 57.9602H172.123C175.128 57.9622 178.104 57.7993 180.879 57.4811C183.654 57.1629 186.172 56.6957 188.288 56.1066L177.861 53.2266C177.109 53.4353 176.214 53.6008 175.23 53.7137C174.245 53.8266 173.189 53.8846 172.123 53.8843V53.9242Z" fill="url(#paint3_linear_561_12681)"/>
<path style="mix-blend-mode:screen" fill-rule="evenodd" clip-rule="evenodd" d="M14.5155 51.6819V10.3943C14.5291 9.80046 15.384 9.23169 16.897 8.80976L6.46911 5.92969C4.33937 6.51479 2.64993 7.21051 1.49808 7.97676C0.346233 8.743 -0.245195 9.56463 -0.242176 10.3943V51.6819C-0.209995 53.3438 2.20286 54.9346 6.46911 56.1067L16.897 53.2266C15.384 52.8047 14.5291 52.2359 14.5155 51.6421V51.6819Z" fill="url(#paint4_radial_561_12681)"/>
<path style="mix-blend-mode:multiply" fill-rule="evenodd" clip-rule="evenodd" d="M180.243 10.3943V51.6819C180.244 51.9764 180.034 52.268 179.625 52.5399C179.217 52.8118 178.617 53.0588 177.861 53.2665L188.289 56.1067C190.419 55.5216 192.108 54.8258 193.26 54.0596C194.412 53.2934 195.004 52.4717 195.001 51.6421V10.3943C195.004 9.56463 194.412 8.743 193.26 7.97676C192.108 7.21051 190.419 6.51479 188.289 5.92969L177.861 8.80976C178.617 9.01744 179.217 9.26437 179.625 9.53632C180.034 9.80826 180.244 10.0998 180.243 10.3943Z" fill="url(#paint5_linear_561_12681)"/>
<path style="mix-blend-mode:screen" fill-rule="evenodd" clip-rule="evenodd" d="M97.3975 55.9672C57.9594 55.9672 26.0264 55.1799 26.0264 54.7813C26.0264 54.3826 84.8769 54.4225 97.3975 54.4225C109.918 54.4225 168.769 54.4225 168.769 54.7813C168.769 55.14 136.8 55.9672 97.3975 55.9672Z" fill="url(#paint6_radial_561_12681)"/>
<path style="mix-blend-mode:screen" opacity="0.65" fill-rule="evenodd" clip-rule="evenodd" d="M14.5156 36.6638C51.7888 31.1129 135.175 21.795 180.242 17.4201V10.4442C180.242 9.84949 179.387 9.27916 177.865 8.85865C176.342 8.43814 174.277 8.20191 172.124 8.20191H22.6342C21.5681 8.20162 20.5124 8.25959 19.5277 8.37247C18.5431 8.48535 17.6491 8.65092 16.8971 8.85964C15.384 9.28157 14.5292 9.85034 14.5156 10.4442V36.6638Z" fill="url(#paint7_linear_561_12681)"/>
<path style="mix-blend-mode:screen" fill-rule="evenodd" clip-rule="evenodd" d="M14.5155 36.6637V10.3943C14.5291 9.80046 15.384 9.23169 16.897 8.80976L6.46911 5.92969C4.33937 6.51479 2.64993 7.21051 1.49808 7.97676C0.346233 8.743 -0.245195 9.56463 -0.242176 10.3943V38.3778C4.12162 37.4944 9.17729 36.9072 14.5155 36.6637Z" fill="url(#paint8_linear_561_12681)"/>
<path style="mix-blend-mode:screen" fill-rule="evenodd" clip-rule="evenodd" d="M172.124 4.68384H22.6341C17.1441 4.68383 11.8778 5.28481 7.98896 6.35513C4.10013 7.42546 1.90581 8.87785 1.88672 10.3941V36.7732C1.99522 37.1319 2.58776 37.4662 3.54681 37.7098C4.50587 37.9535 5.7614 38.0888 7.06454 38.0888C8.36769 38.0888 9.62322 37.9535 10.5823 37.7098C11.5413 37.4662 12.1339 37.1319 12.2424 36.7732V10.3941C12.2611 9.63891 13.3533 8.91594 15.2835 8.38097C17.2138 7.84599 19.8276 7.54183 22.562 7.53401H172.052C174.795 7.53664 177.424 7.83882 179.364 8.37463C181.304 8.91044 182.398 9.6364 182.407 10.3941V16.5629C182.407 16.9408 182.951 17.3033 183.919 17.5706C184.886 17.8378 186.199 17.988 187.567 17.988C188.936 17.988 190.248 17.8378 191.216 17.5706C192.183 17.3033 192.727 16.9408 192.727 16.5629V10.3941C192.717 8.88049 190.536 7.42958 186.661 6.35926C182.785 5.28894 177.532 4.68647 172.052 4.68384H172.124Z" fill="url(#paint9_radial_561_12681)"/>
<g style="mix-blend-mode:screen">
<path fill-rule="evenodd" clip-rule="evenodd" d="M86.9696 6.97607C53.3047 6.97607 26.0264 7.3448 26.0264 7.53415C26.0264 7.7235 76.2892 7.70357 86.9696 7.70357C97.65 7.70357 147.913 7.70357 147.913 7.53415C147.913 7.36473 120.635 6.97607 86.9696 6.97607Z" fill="#A1FFEE"/>
</g>
<path fill-rule="evenodd" clip-rule="evenodd" d="M155.49 53.366C146.722 53.366 139.613 53.7347 139.613 53.924C139.613 54.1134 148.093 54.233 155.49 54.233C162.886 54.233 171.474 54.1134 171.474 53.924C171.474 53.7347 164.258 53.366 155.562 53.366H155.49Z" fill="#88F6FF"/>
<path fill-rule="evenodd" clip-rule="evenodd" d="M128.464 53.4857C125.03 53.4034 121.574 53.554 118.397 53.9242C125.059 54.2431 131.87 54.2431 138.531 53.9242C135.357 53.5524 131.899 53.4018 128.464 53.4857Z" fill="#88F6FF"/>
<g style="mix-blend-mode:multiply" opacity="0.5">
<path fill-rule="evenodd" clip-rule="evenodd" d="M9.93269 55.668C11.4506 55.043 13.3417 54.4938 15.5254 54.0436C16.6621 53.8456 17.9706 53.7354 19.314 53.7247C18.1884 53.5831 17.1923 53.3734 16.3992 53.1113C15.6061 52.8491 15.0362 52.5411 14.7316 52.21C15.0233 52.6919 14.7183 53.187 13.8657 53.6151C12.3483 54.2431 10.4573 54.7957 8.27282 55.2495C7.11194 55.459 5.70412 55.5375 4.33984 55.4687C5.75194 55.9884 7.44334 56.4455 9.35536 56.8241C8.99311 56.4327 9.20037 56.0177 9.93269 55.668Z" fill="#5FB7FC"/>
</g>
<g style="mix-blend-mode:multiply" opacity="0.5">
<path fill-rule="evenodd" clip-rule="evenodd" d="M184.861 55.668C183.32 55.0449 181.419 54.4961 179.232 54.0436C178.15 53.8526 176.907 53.7427 175.624 53.7247C176.759 53.5868 177.763 53.3783 178.558 53.1156C179.352 52.8528 179.917 52.5429 180.207 52.21C179.95 52.6919 180.253 53.1838 181.073 53.6151C182.603 54.2434 184.506 54.7959 186.701 55.2495C187.85 55.4584 189.246 55.5369 190.598 55.4687C189.186 55.9884 187.495 56.4455 185.583 56.8241C185.96 56.434 185.765 56.0187 185.042 55.668H184.861Z" fill="#5FB7FC"/>
</g>
<g style="mix-blend-mode:screen">
<path fill-rule="evenodd" clip-rule="evenodd" d="M9.93269 6.39813C11.4394 7.02843 13.3319 7.58148 15.5254 8.0325C16.6621 8.23058 17.9706 8.34071 19.314 8.3514C18.1884 8.49305 17.1923 8.7027 16.3992 8.96487C15.6061 9.22704 15.0362 9.53505 14.7316 9.86618C15.0262 9.38422 14.721 8.88892 13.8657 8.46102C12.3483 7.83306 10.4573 7.28048 8.27282 6.82666C7.11194 6.61711 5.70412 6.53863 4.33984 6.60741C5.76032 6.09833 7.45129 5.65147 9.35536 5.28198C8.99113 5.67005 9.19875 6.08216 9.93269 6.42803V6.39813Z" fill="#75CAFF"/>
</g>
<g style="mix-blend-mode:screen">
<path fill-rule="evenodd" clip-rule="evenodd" d="M184.861 6.39813C183.331 7.02642 181.428 7.57895 179.232 8.0325C178.15 8.22351 176.907 8.33341 175.624 8.3514C176.759 8.48932 177.763 8.6978 178.558 8.96056C179.352 9.22331 179.917 9.53325 180.207 9.86618C179.947 9.38427 180.25 8.89208 181.073 8.46102C182.603 7.83273 184.506 7.2802 186.701 6.82666C187.85 6.61773 189.246 6.5392 190.598 6.60741C189.123 6.09453 187.37 5.64748 185.402 5.28198C185.59 5.47344 185.639 5.67325 185.546 5.86993C185.453 6.06661 185.22 6.25628 184.861 6.42803V6.39813Z" fill="#75CAFF"/>
</g>
<path fill-rule="evenodd" clip-rule="evenodd" d="M22.6346 9.57715H172.124C172.909 9.57715 173.662 9.66325 174.216 9.8165C174.771 9.96975 175.083 10.1776 175.083 10.3943V51.682C175.074 51.8979 174.759 52.1042 174.206 52.2569C173.653 52.4096 172.906 52.4966 172.124 52.4991H22.6346C21.8556 52.4941 21.1137 52.4064 20.5628 52.2542C20.0118 52.102 19.6941 51.8971 19.6758 51.682V10.3943C19.6783 10.2862 19.7596 10.1793 19.9145 10.08C20.0695 9.98075 20.295 9.89107 20.5778 9.81632C20.846 9.74075 21.166 9.68069 21.5191 9.63962C21.8722 9.59856 22.2514 9.57732 22.6346 9.57715Z" fill="url(#paint10_linear_561_12681)"/>
<path fill-rule="evenodd" clip-rule="evenodd" d="M10.5595 10C9.88024 10.005 9.23532 10.0713 8.7587 10.1849C8.28208 10.2986 8.01045 10.451 8 10.6104V51.3994C8.01081 51.5579 8.28383 51.7092 8.76152 51.8213C9.2392 51.9334 9.88402 51.9975 10.5595 52H184.399C185.081 52 185.737 51.9371 186.223 51.8247C186.71 51.7124 186.989 51.5596 187 51.3994V10.6104C186.989 10.4493 186.712 10.2955 186.226 10.1816C185.741 10.0677 185.085 10.0025 184.399 10H10.5595Z" fill="url(#paint11_linear_561_12681)"/>
<path style="mix-blend-mode:multiply" opacity="0.5" fill-rule="evenodd" clip-rule="evenodd" d="M20.4336 18.4564C24.0418 15.6362 28.48 13.8224 35.2996 13.2743C51.3202 11.9987 79.3923 12.1881 97.3975 12.1881C115.403 12.1881 143.475 11.9987 159.459 13.2743C166.315 13.8224 170.825 15.6362 174.361 18.4564V10.3942C174.335 10.2327 174.091 10.0798 173.677 9.96543C173.263 9.8511 172.709 9.78366 172.124 9.77637H22.6346C22.0505 9.78147 21.4959 9.84851 21.086 9.96357C20.6762 10.0786 20.4426 10.2328 20.4336 10.3942V18.4564Z" fill="url(#paint12_linear_561_12681)"/>
<path style="mix-blend-mode:screen" fill-rule="evenodd" clip-rule="evenodd" d="M97.3974 51.3231C74.7376 51.3231 25.2324 51.4726 25.2324 49.8482C25.2324 48.2238 57.7066 45.3936 97.3974 45.3936C137.088 45.3936 169.562 48.2238 169.562 49.8482C169.562 51.4726 120.021 51.3231 97.3974 51.3231Z" fill="url(#paint13_radial_561_12681)"/>
<path style="mix-blend-mode:screen" d="M43.2241 10.0284C46.9824 5.64752 37.1707 1.25466 21.3089 0.21664C5.44713 -0.821375 -10.4581 1.88854 -14.2164 6.2694C-17.9748 10.6503 -8.16299 15.0431 7.69878 16.0812C23.5605 17.1192 39.4658 14.4093 43.2241 10.0284Z" fill="url(#paint14_radial_561_12681)"/>
<path d="M26.816 42C26.6027 42 26.4107 41.9253 26.24 41.776C26.0693 41.6053 25.984 41.4027 25.984 41.168V20.432C25.984 20.1973 26.0693 20.0053 26.24 19.856C26.4107 19.6853 26.6027 19.6 26.816 19.6H35.584C37.6533 19.6 39.4453 19.9413 40.96 20.624C42.4747 21.2853 43.6693 22.2667 44.544 23.568C45.4187 24.8693 45.888 26.4693 45.952 28.368C45.9947 29.2853 46.016 30.096 46.016 30.8C46.016 31.504 45.9947 32.304 45.952 33.2C45.8667 35.2053 45.408 36.8587 44.576 38.16C43.7653 39.4613 42.6133 40.432 41.12 41.072C39.6267 41.6907 37.8347 42 35.744 42H26.816ZM32.864 36.56H35.584C36.288 36.56 36.8853 36.4427 37.376 36.208C37.8667 35.9733 38.2507 35.6107 38.528 35.12C38.8053 34.608 38.9547 33.9573 38.976 33.168C38.9973 32.5493 39.008 31.9947 39.008 31.504C39.0293 31.0133 39.0293 30.5227 39.008 30.032C39.008 29.5413 38.9973 28.9973 38.976 28.4C38.9333 27.2267 38.592 26.3733 37.952 25.84C37.3333 25.3067 36.4907 25.04 35.424 25.04H32.864V36.56ZM50.0973 42C49.8839 42 49.6919 41.9253 49.5213 41.776C49.3506 41.6053 49.2653 41.4027 49.2653 41.168V20.432C49.2653 20.1973 49.3506 20.0053 49.5213 19.856C49.6919 19.6853 49.8839 19.6 50.0973 19.6H65.7773C66.0119 19.6 66.2146 19.6853 66.3853 19.856C66.5559 20.0053 66.6413 20.1973 66.6413 20.432V24.208C66.6413 24.4213 66.5559 24.6133 66.3853 24.784C66.2146 24.9547 66.0119 25.04 65.7773 25.04H55.8893V28.208H65.0733C65.3079 28.208 65.5106 28.2933 65.6813 28.464C65.8519 28.6133 65.9373 28.8053 65.9373 29.04V32.496C65.9373 32.7307 65.8519 32.9333 65.6813 33.104C65.5106 33.2533 65.3079 33.328 65.0733 33.328H55.8893V36.56H66.0333C66.2679 36.56 66.4706 36.6453 66.6413 36.816C66.8119 36.9867 66.8973 37.1893 66.8973 37.424V41.168C66.8973 41.4027 66.8119 41.6053 66.6413 41.776C66.4706 41.9253 66.2679 42 66.0333 42H50.0973ZM71.0035 42C70.7902 42 70.5982 41.9253 70.4275 41.776C70.2568 41.6053 70.1715 41.4027 70.1715 41.168V20.432C70.1715 20.1973 70.2568 20.0053 70.4275 19.856C70.5982 19.6853 70.7902 19.6 71.0035 19.6H86.4275C86.6622 19.6 86.8648 19.6853 87.0355 19.856C87.2062 20.0053 87.2915 20.1973 87.2915 20.432V24.496C87.2915 24.7093 87.2062 24.9013 87.0355 25.072C86.8648 25.2427 86.6622 25.328 86.4275 25.328H76.9235V28.848H85.7875C86.0222 28.848 86.2248 28.9333 86.3955 29.104C86.5662 29.2533 86.6515 29.4453 86.6515 29.68V33.712C86.6515 33.9467 86.5662 34.1493 86.3955 34.32C86.2248 34.4693 86.0222 34.544 85.7875 34.544H76.9235V41.168C76.9235 41.4027 76.8382 41.6053 76.6675 41.776C76.5182 41.9253 76.3262 42 76.0915 42H71.0035ZM88.0195 42C87.8275 42 87.6568 41.936 87.5075 41.808C87.3795 41.6587 87.3155 41.488 87.3155 41.296C87.3155 41.2107 87.3368 41.136 87.3795 41.072L94.6755 20.592C94.7395 20.3573 94.8782 20.1333 95.0915 19.92C95.3262 19.7067 95.6355 19.6 96.0195 19.6H101.876C102.281 19.6 102.59 19.7067 102.804 19.92C103.017 20.1333 103.156 20.3573 103.22 20.592L110.548 41.072C110.569 41.136 110.58 41.2107 110.58 41.296C110.58 41.488 110.505 41.6587 110.356 41.808C110.228 41.936 110.068 42 109.876 42H104.948C104.585 42 104.318 41.9147 104.148 41.744C103.977 41.5733 103.86 41.4133 103.796 41.264L102.804 38.576H95.0915L94.0995 41.264C94.0355 41.4133 93.9182 41.5733 93.7475 41.744C93.5982 41.9147 93.3315 42 92.9475 42H88.0195ZM96.5635 33.168H101.332L98.9315 25.968L96.5635 33.168ZM121.964 42.32C119.98 42.32 118.231 42.0107 116.716 41.392C115.223 40.7733 114.05 39.8133 113.196 38.512C112.364 37.1893 111.948 35.5253 111.948 33.52V20.432C111.948 20.1973 112.034 20.0053 112.204 19.856C112.375 19.6853 112.567 19.6 112.78 19.6H117.996C118.231 19.6 118.423 19.6853 118.572 19.856C118.743 20.0053 118.828 20.1973 118.828 20.432V33.424C118.828 34.512 119.095 35.3333 119.628 35.888C120.162 36.4427 120.93 36.72 121.932 36.72C122.935 36.72 123.692 36.4427 124.204 35.888C124.738 35.3333 125.004 34.512 125.004 33.424V20.432C125.004 20.1973 125.09 20.0053 125.26 19.856C125.431 19.6853 125.634 19.6 125.868 19.6H131.052C131.287 19.6 131.479 19.6853 131.628 19.856C131.799 20.0053 131.884 20.1973 131.884 20.432V33.52C131.884 35.5253 131.468 37.1893 130.636 38.512C129.804 39.8133 128.642 40.7733 127.148 41.392C125.655 42.0107 123.927 42.32 121.964 42.32ZM136.535 42C136.321 42 136.129 41.9253 135.959 41.776C135.788 41.6053 135.703 41.4027 135.703 41.168V20.432C135.703 20.1973 135.788 20.0053 135.959 19.856C136.129 19.6853 136.321 19.6 136.535 19.6H141.847C142.081 19.6 142.284 19.6853 142.455 19.856C142.625 20.0053 142.711 20.1973 142.711 20.432V36.304H151.959C152.193 36.304 152.396 36.3893 152.567 36.56C152.737 36.7093 152.823 36.9013 152.823 37.136V41.168C152.823 41.4027 152.737 41.6053 152.567 41.776C152.396 41.9253 152.193 42 151.959 42H136.535ZM157.776 42C157.541 42 157.339 41.9253 157.168 41.776C157.019 41.6053 156.944 41.4027 156.944 41.168V25.552H151.44C151.205 25.552 151.003 25.4773 150.832 25.328C150.683 25.1573 150.608 24.9547 150.608 24.72V20.432C150.608 20.1973 150.683 20.0053 150.832 19.856C151.003 19.6853 151.205 19.6 151.44 19.6H169.424C169.659 19.6 169.851 19.6853 170 19.856C170.171 20.0053 170.256 20.1973 170.256 20.432V24.72C170.256 24.9547 170.171 25.1573 170 25.328C169.851 25.4773 169.659 25.552 169.424 25.552H163.92V41.168C163.92 41.4027 163.835 41.6053 163.664 41.776C163.515 41.9253 163.323 42 163.088 42H157.776Z" fill="#031E4D"/>
<path d="M26.24 41.776L25.5329 42.4831L25.5564 42.5067L25.5815 42.5286L26.24 41.776ZM26.24 19.856L26.8985 20.6086L26.9236 20.5866L26.9471 20.5631L26.24 19.856ZM40.96 20.624L40.5491 21.5357L40.5599 21.5405L40.96 20.624ZM45.952 28.368L44.9525 28.4017L44.9531 28.4145L45.952 28.368ZM45.952 33.2L44.9531 33.1524L44.9529 33.1575L45.952 33.2ZM44.576 38.16L43.7334 37.6213L43.7272 37.6313L44.576 38.16ZM41.12 41.072L41.5028 41.9959L41.5139 41.9911L41.12 41.072ZM32.864 36.56H31.864V37.56H32.864V36.56ZM37.376 36.208L36.9445 35.3059L37.376 36.208ZM38.528 35.12L39.3986 35.6121L39.403 35.6042L39.4073 35.5963L38.528 35.12ZM38.976 33.168L37.9766 33.1335L37.9764 33.141L38.976 33.168ZM39.008 31.504L38.0089 31.4606L38.008 31.4823V31.504H39.008ZM39.008 30.032H38.008V30.0537L38.0089 30.0754L39.008 30.032ZM38.976 28.4L39.9754 28.3643L39.9753 28.3637L38.976 28.4ZM37.952 25.84L37.2991 26.5974L37.3054 26.6029L37.3118 26.6082L37.952 25.84ZM32.864 25.04V24.04H31.864V25.04H32.864ZM26.816 41C26.8288 41 26.8508 41.0028 26.8744 41.012C26.8972 41.0208 26.9051 41.0292 26.8985 41.0234L25.5815 42.5286C25.922 42.8265 26.3443 43 26.816 43V41ZM26.9471 41.0689C26.9443 41.0661 26.9574 41.0789 26.9696 41.1079C26.9821 41.1375 26.984 41.1611 26.984 41.168H24.984C24.984 41.6762 25.1807 42.1309 25.5329 42.4831L26.9471 41.0689ZM26.984 41.168V20.432H24.984V41.168H26.984ZM26.984 20.432C26.984 20.4382 26.9823 20.4721 26.9618 20.5181C26.941 20.5651 26.9136 20.5954 26.8985 20.6086L25.5815 19.1034C25.1853 19.4501 24.984 19.9204 24.984 20.432H26.984ZM26.9471 20.5631C26.9584 20.5518 26.9497 20.5638 26.9181 20.5778C26.8843 20.5929 26.847 20.6 26.816 20.6V18.6C26.3018 18.6 25.8642 18.8175 25.5329 19.1489L26.9471 20.5631ZM26.816 20.6H35.584V18.6H26.816V20.6ZM35.584 20.6C37.5455 20.6 39.1912 20.9237 40.5491 21.5357L41.3709 19.7123C39.6995 18.959 37.7612 18.6 35.584 18.6V20.6ZM40.5599 21.5405C41.9099 22.1299 42.9515 22.9913 43.7141 24.1258L45.374 23.0102C44.3872 21.5421 43.0394 20.4407 41.3601 19.7075L40.5599 21.5405ZM43.7141 24.1258C44.4641 25.2417 44.8935 26.6504 44.9526 28.4017L46.9514 28.3343C46.8825 26.2883 46.3733 24.4969 45.374 23.0102L43.7141 24.1258ZM44.9531 28.4145C44.9952 29.3207 45.016 30.1153 45.016 30.8H47.016C47.016 30.0767 46.9941 29.25 46.9509 28.3215L44.9531 28.4145ZM45.016 30.8C45.016 31.4845 44.9952 32.2682 44.9531 33.1524L46.9509 33.2476C46.9941 32.3398 47.016 31.5235 47.016 30.8H45.016ZM44.9529 33.1575C44.8729 35.038 44.446 36.5068 43.7335 37.6213L45.4185 38.6987C46.37 37.2105 46.8605 35.3726 46.9511 33.2425L44.9529 33.1575ZM43.7272 37.6313C43.0313 38.7484 42.0433 39.5883 40.7261 40.1529L41.5139 41.9911C43.1834 41.2757 44.4993 40.1743 45.4248 38.6887L43.7272 37.6313ZM40.7373 40.1481C39.3952 40.7041 37.7401 41 35.744 41V43C37.9292 43 39.8582 42.6772 41.5027 41.9959L40.7373 40.1481ZM35.744 41H26.816V43H35.744V41ZM32.864 37.56H35.584V35.56H32.864V37.56ZM35.584 37.56C36.395 37.56 37.1485 37.4253 37.8075 37.1101L36.9445 35.3059C36.6222 35.46 36.181 35.56 35.584 35.56V37.56ZM37.8075 37.1101C38.4901 36.7837 39.0242 36.2743 39.3986 35.6121L37.6574 34.6279C37.4771 34.947 37.2433 35.163 36.9445 35.3059L37.8075 37.1101ZM39.4073 35.5963C39.7813 34.9058 39.9515 34.0883 39.9756 33.195L37.9764 33.141C37.9578 33.8264 37.8294 34.3102 37.6487 34.6437L39.4073 35.5963ZM39.9754 33.2025C39.997 32.5751 40.008 32.0087 40.008 31.504H38.008C38.008 31.9807 37.9976 32.5235 37.9766 33.1335L39.9754 33.2025ZM40.0071 31.5474C40.0296 31.0278 40.0296 30.5082 40.0071 29.9886L38.0089 30.0754C38.029 30.5372 38.029 30.9988 38.0089 31.4606L40.0071 31.5474ZM40.008 30.032C40.008 29.5272 39.997 28.9711 39.9754 28.3643L37.9766 28.4357C37.9976 29.0236 38.008 29.5555 38.008 30.032H40.008ZM39.9753 28.3637C39.9267 27.0261 39.5281 25.8517 38.5922 25.0718L37.3118 26.6082C37.6559 26.895 37.94 27.4272 37.9767 28.4363L39.9753 28.3637ZM38.6049 25.0826C37.7552 24.3501 36.6557 24.04 35.424 24.04V26.04C36.3256 26.04 36.9115 26.2633 37.2991 26.5974L38.6049 25.0826ZM35.424 24.04H32.864V26.04H35.424V24.04ZM31.864 25.04V36.56H33.864V25.04H31.864ZM49.5212 41.776L48.8141 42.4831L48.8377 42.5067L48.8627 42.5286L49.5212 41.776ZM49.5212 19.856L50.1798 20.6086L50.2048 20.5866L50.2284 20.5631L49.5212 19.856ZM66.3853 19.856L65.6781 20.5631L65.7017 20.5866L65.7267 20.6086L66.3853 19.856ZM66.3853 24.784L65.6781 24.0769L65.6781 24.0769L66.3853 24.784ZM55.8893 25.04V24.04H54.8893V25.04H55.8893ZM55.8893 28.208H54.8893V29.208H55.8893V28.208ZM65.6813 28.464L64.9741 29.1711L64.9977 29.1946L65.0227 29.2166L65.6813 28.464ZM65.6813 33.104L66.3398 33.8566L66.3648 33.8347L66.3884 33.8111L65.6813 33.104ZM55.8893 33.328V32.328H54.8893V33.328H55.8893ZM55.8893 36.56H54.8893V37.56H55.8893V36.56ZM66.6413 36.816L65.9341 37.5231H65.9341L66.6413 36.816ZM66.6413 41.776L67.2998 42.5286L67.3248 42.5067L67.3484 42.4831L66.6413 41.776ZM50.0972 41C50.1101 41 50.132 41.0028 50.1557 41.012C50.1784 41.0208 50.1864 41.0292 50.1798 41.0234L48.8627 42.5286C49.2032 42.8265 49.6256 43 50.0972 43V41ZM50.2284 41.0689C50.2255 41.0661 50.2387 41.0789 50.2509 41.1079C50.2633 41.1375 50.2652 41.1611 50.2652 41.168H48.2652C48.2652 41.6762 48.4619 42.1309 48.8141 42.4831L50.2284 41.0689ZM50.2652 41.168V20.432H48.2652V41.168H50.2652ZM50.2652 20.432C50.2652 20.4382 50.2635 20.4721 50.2431 20.5181C50.2222 20.5651 50.1949 20.5954 50.1798 20.6086L48.8627 19.1034C48.4666 19.4501 48.2652 19.9204 48.2652 20.432H50.2652ZM50.2284 20.5631C50.2397 20.5518 50.2309 20.5638 50.1994 20.5778C50.1655 20.5929 50.1283 20.6 50.0972 20.6V18.6C49.583 18.6 49.1455 18.8175 48.8141 19.1489L50.2284 20.5631ZM50.0972 20.6H65.7773V18.6H50.0972V20.6ZM65.7773 20.6C65.7704 20.6 65.7468 20.5981 65.7172 20.5856C65.6882 20.5734 65.6753 20.5603 65.6781 20.5631L67.0924 19.1489C66.7401 18.7967 66.2855 18.6 65.7773 18.6V20.6ZM65.7267 20.6086C65.7116 20.5954 65.6843 20.5651 65.6634 20.5181C65.643 20.4721 65.6413 20.4382 65.6413 20.432H67.6413C67.6413 19.9204 67.4399 19.4501 67.0438 19.1034L65.7267 20.6086ZM65.6413 20.432V24.208H67.6413V20.432H65.6413ZM65.6413 24.208C65.6413 24.177 65.6484 24.1397 65.6634 24.1059C65.6775 24.0743 65.6894 24.0656 65.6781 24.0769L67.0924 25.4911C67.4237 25.1598 67.6413 24.7222 67.6413 24.208H65.6413ZM65.6781 24.0769C65.6753 24.0797 65.6882 24.0666 65.7172 24.0544C65.7468 24.0419 65.7704 24.04 65.7773 24.04V26.04C66.2855 26.04 66.7401 25.8433 67.0924 25.4911L65.6781 24.0769ZM65.7773 24.04H55.8893V26.04H65.7773V24.04ZM54.8893 25.04V28.208H56.8893V25.04H54.8893ZM55.8893 29.208H65.0732V27.208H55.8893V29.208ZM65.0732 29.208C65.0664 29.208 65.0428 29.2061 65.0132 29.1936C64.9842 29.1814 64.9713 29.1683 64.9741 29.1711L66.3884 27.7569C66.0361 27.4047 65.5815 27.208 65.0732 27.208V29.208ZM65.0227 29.2166C65.0076 29.2034 64.9803 29.1731 64.9594 29.1261C64.939 29.0801 64.9372 29.0462 64.9372 29.04H66.9372C66.9372 28.5284 66.7359 28.0581 66.3398 27.7114L65.0227 29.2166ZM64.9372 29.04V32.496H66.9372V29.04H64.9372ZM64.9372 32.496C64.9372 32.4891 64.9392 32.4655 64.9516 32.4359C64.9638 32.4069 64.977 32.3941 64.9741 32.3969L66.3884 33.8111C66.7406 33.4589 66.9372 33.0042 66.9372 32.496H64.9372ZM65.0227 32.3514C65.023 32.3512 65.0263 32.3484 65.0328 32.3445C65.0393 32.3406 65.0471 32.3368 65.0555 32.3337C65.0741 32.3268 65.0828 32.328 65.0732 32.328V34.328C65.5409 34.328 65.98 34.1714 66.3398 33.8566L65.0227 32.3514ZM65.0732 32.328H55.8893V34.328H65.0732V32.328ZM54.8893 33.328V36.56H56.8893V33.328H54.8893ZM55.8893 37.56H66.0332V35.56H55.8893V37.56ZM66.0332 37.56C66.0264 37.56 66.0028 37.5581 65.9732 37.5456C65.9442 37.5334 65.9313 37.5203 65.9341 37.5231L67.3484 36.1089C66.9961 35.7567 66.5415 35.56 66.0332 35.56V37.56ZM65.9341 37.5231C65.937 37.5259 65.9238 37.5131 65.9116 37.4841C65.8992 37.4545 65.8973 37.4309 65.8973 37.424H67.8973C67.8973 36.9158 67.7006 36.4611 67.3484 36.1089L65.9341 37.5231ZM65.8973 37.424V41.168H67.8973V37.424H65.8973ZM65.8973 41.168C65.8973 41.1611 65.8992 41.1375 65.9116 41.1079C65.9238 41.0789 65.937 41.0661 65.9341 41.0689L67.3484 42.4831C67.7006 42.1309 67.8973 41.6762 67.8973 41.168H65.8973ZM65.9827 41.0234C65.983 41.0232 65.9863 41.0204 65.9928 41.0165C65.9993 41.0126 66.0071 41.0088 66.0155 41.0057C66.0341 40.9988 66.0428 41 66.0332 41V43C66.5009 43 66.94 42.8434 67.2998 42.5286L65.9827 41.0234ZM66.0332 41H50.0972V43H66.0332V41ZM70.4275 41.776L69.7204 42.4831L69.7439 42.5067L69.769 42.5286L70.4275 41.776ZM70.4275 19.856L71.086 20.6086L71.1111 20.5866L71.1346 20.5631L70.4275 19.856ZM87.0355 19.856L86.3284 20.5631L86.3519 20.5866L86.377 20.6086L87.0355 19.856ZM76.9235 25.328V24.328H75.9235V25.328H76.9235ZM76.9235 28.848H75.9235V29.848H76.9235V28.848ZM86.3955 29.104L85.6884 29.8111L85.7119 29.8347L85.737 29.8566L86.3955 29.104ZM86.3955 34.32L87.054 35.0726L87.0791 35.0506L87.1026 35.0271L86.3955 34.32ZM76.9235 34.544V33.544H75.9235V34.544H76.9235ZM76.6675 41.776L77.3746 42.4831L76.6675 41.776ZM71.0035 41C71.0163 41 71.0383 41.0028 71.0619 41.012C71.0847 41.0208 71.0926 41.0292 71.086 41.0234L69.769 42.5286C70.1095 42.8265 70.5318 43 71.0035 43V41ZM71.1346 41.0689C71.1318 41.0661 71.1449 41.0789 71.1571 41.1079C71.1696 41.1375 71.1715 41.1611 71.1715 41.168H69.1715C69.1715 41.6762 69.3682 42.1309 69.7204 42.4831L71.1346 41.0689ZM71.1715 41.168V20.432H69.1715V41.168H71.1715ZM71.1715 20.432C71.1715 20.4382 71.1698 20.4721 71.1493 20.5181C71.1285 20.5651 71.1011 20.5954 71.086 20.6086L69.769 19.1034C69.3728 19.4501 69.1715 19.9204 69.1715 20.432H71.1715ZM71.1346 20.5631C71.1459 20.5518 71.1372 20.5638 71.1056 20.5778C71.0718 20.5929 71.0345 20.6 71.0035 20.6V18.6C70.4893 18.6 70.0517 18.8175 69.7204 19.1489L71.1346 20.5631ZM71.0035 20.6H86.4275V18.6H71.0035V20.6ZM86.4275 20.6C86.4206 20.6 86.397 20.5981 86.3674 20.5856C86.3384 20.5734 86.3256 20.5603 86.3284 20.5631L87.7426 19.1489C87.3904 18.7967 86.9357 18.6 86.4275 18.6V20.6ZM86.377 20.6086C86.3619 20.5954 86.3345 20.5651 86.3137 20.5181C86.2932 20.4721 86.2915 20.4382 86.2915 20.432H88.2915C88.2915 19.9204 88.0902 19.4501 87.694 19.1034L86.377 20.6086ZM86.2915 20.432V24.496H88.2915V20.432H86.2915ZM86.2915 24.496C86.2915 24.465 86.2986 24.4277 86.3137 24.3939C86.3277 24.3623 86.3397 24.3536 86.3284 24.3649L87.7426 25.7791C88.074 25.4477 88.2915 25.0102 88.2915 24.496H86.2915ZM86.3284 24.3649C86.3256 24.3677 86.3384 24.3546 86.3674 24.3424C86.397 24.3299 86.4206 24.328 86.4275 24.328V26.328C86.9357 26.328 87.3904 26.1313 87.7426 25.7791L86.3284 24.3649ZM86.4275 24.328H76.9235V26.328H86.4275V24.328ZM75.9235 25.328V28.848H77.9235V25.328H75.9235ZM76.9235 29.848H85.7875V27.848H76.9235V29.848ZM85.7875 29.848C85.7806 29.848 85.757 29.8461 85.7274 29.8336C85.6984 29.8214 85.6856 29.8083 85.6884 29.8111L87.1026 28.3969C86.7504 28.0447 86.2957 27.848 85.7875 27.848V29.848ZM85.737 29.8566C85.7219 29.8434 85.6945 29.8131 85.6737 29.7661C85.6532 29.7201 85.6515 29.6862 85.6515 29.68H87.6515C87.6515 29.1684 87.4502 28.6981 87.054 28.3514L85.737 29.8566ZM85.6515 29.68V33.712H87.6515V29.68H85.6515ZM85.6515 33.712C85.6515 33.7051 85.6534 33.6815 85.6659 33.6519C85.6781 33.6229 85.6912 33.6101 85.6884 33.6129L87.1026 35.0271C87.4548 34.6749 87.6515 34.2202 87.6515 33.712H85.6515ZM85.737 33.5674C85.7373 33.5672 85.7406 33.5644 85.747 33.5605C85.7535 33.5566 85.7613 33.5528 85.7698 33.5497C85.7884 33.5428 85.7971 33.544 85.7875 33.544V35.544C86.2552 35.544 86.6942 35.3874 87.054 35.0726L85.737 33.5674ZM85.7875 33.544H76.9235V35.544H85.7875V33.544ZM75.9235 34.544V41.168H77.9235V34.544H75.9235ZM75.9235 41.168C75.9235 41.1611 75.9254 41.1375 75.9379 41.1079C75.9501 41.0789 75.9632 41.0661 75.9604 41.0689L77.3746 42.4831C77.7268 42.1309 77.9235 41.6762 77.9235 41.168H75.9235ZM75.9604 41.0689C75.9812 41.048 76.0125 41.0262 76.0491 41.012C76.0835 40.9986 76.1019 41 76.0915 41V43C76.5591 43 77.0161 42.8416 77.3746 42.4831L75.9604 41.0689ZM76.0915 41H71.0035V43H76.0915V41ZM87.5075 41.808L86.7482 42.4588L86.7983 42.5172L86.8567 42.5673L87.5075 41.808ZM87.3795 41.072L88.2115 41.6267L88.2801 41.5239L88.3215 41.4076L87.3795 41.072ZM94.6755 20.592L95.6175 20.9276L95.6303 20.8918L95.6403 20.8551L94.6755 20.592ZM95.0915 19.92L94.4188 19.1801L94.4012 19.1961L94.3844 19.2129L95.0915 19.92ZM102.803 19.92L103.511 19.2129L103.511 19.2129L102.803 19.92ZM103.219 20.592L102.255 20.8551L102.265 20.8925L102.278 20.9289L103.219 20.592ZM110.548 41.072L111.496 40.7558L111.493 40.7454L111.489 40.7351L110.548 41.072ZM110.355 41.808L111.063 42.5151V42.5151L110.355 41.808ZM103.796 41.264L102.857 41.6102L102.866 41.6343L102.876 41.6579L103.796 41.264ZM102.803 38.576L103.742 38.2298L103.5 37.576H102.803V38.576ZM95.0915 38.576V37.576H94.3946L94.1534 38.2298L95.0915 38.576ZM94.0995 41.264L95.0186 41.6579L95.0288 41.6343L95.0377 41.6102L94.0995 41.264ZM93.7475 41.744L93.0404 41.0369L93.0169 41.0604L92.9949 41.0855L93.7475 41.744ZM96.5635 33.168L95.6136 32.8556L95.1819 34.168H96.5635V33.168ZM101.331 33.168V34.168H102.719L102.28 32.8518L101.331 33.168ZM98.9315 25.968L99.8802 25.6518L98.9251 22.7866L97.9816 25.6556L98.9315 25.968ZM88.0195 41C88.0369 41 88.0658 41.0034 88.0986 41.0157C88.1311 41.0279 88.1512 41.0427 88.1583 41.0487L86.8567 42.5673C87.1824 42.8465 87.5825 43 88.0195 43V41ZM88.2668 41.1572C88.2728 41.1643 88.2876 41.1844 88.2998 41.2169C88.3121 41.2497 88.3155 41.2786 88.3155 41.296H86.3155C86.3155 41.733 86.469 42.1331 86.7482 42.4588L88.2668 41.1572ZM88.3155 41.296C88.3155 41.3857 88.2902 41.5087 88.2115 41.6267L86.5475 40.5173C86.3835 40.7633 86.3155 41.0357 86.3155 41.296H88.3155ZM88.3215 41.4076L95.6175 20.9276L93.7335 20.2564L86.4375 40.7364L88.3215 41.4076ZM95.6403 20.8551C95.6487 20.8242 95.6791 20.7467 95.7986 20.6271L94.3844 19.2129C94.0773 19.52 93.8303 19.8905 93.7107 20.3289L95.6403 20.8551ZM95.7642 20.6599C95.7777 20.6477 95.8291 20.6 96.0195 20.6V18.6C95.4419 18.6 94.8747 18.7657 94.4188 19.1801L95.7642 20.6599ZM96.0195 20.6H101.876V18.6H96.0195V20.6ZM101.876 20.6C101.993 20.6 102.057 20.6157 102.086 20.6254C102.109 20.6335 102.106 20.6366 102.096 20.6271L103.511 19.2129C103.052 18.7547 102.452 18.6 101.876 18.6V20.6ZM102.096 20.6271C102.216 20.7467 102.246 20.8242 102.255 20.8551L104.184 20.3289C104.065 19.8904 103.818 19.52 103.511 19.2129L102.096 20.6271ZM102.278 20.9289L109.606 41.4089L111.489 40.7351L104.161 20.2551L102.278 20.9289ZM109.599 41.3882C109.579 41.3274 109.579 41.291 109.579 41.296H111.579C111.579 41.1303 111.559 40.9446 111.496 40.7558L109.599 41.3882ZM109.579 41.296C109.579 41.2584 109.588 41.2122 109.607 41.1672C109.626 41.124 109.647 41.1027 109.648 41.1009L111.063 42.5151C111.379 42.1988 111.579 41.781 111.579 41.296H109.579ZM109.648 41.1009C109.675 41.0741 109.716 41.0443 109.768 41.0235C109.819 41.0032 109.859 41 109.876 41V43C110.315 43 110.735 42.8429 111.063 42.5151L109.648 41.1009ZM109.876 41H104.948V43H109.876V41ZM104.948 41C104.841 41 104.791 40.987 104.78 40.9836C104.776 40.9823 104.784 40.9843 104.799 40.993C104.814 41.002 104.834 41.0162 104.855 41.0369L103.44 42.4511C103.875 42.8854 104.451 43 104.948 43V41ZM104.855 41.0369C104.798 40.9802 104.761 40.9359 104.738 40.9046C104.715 40.873 104.711 40.8615 104.715 40.8701L102.876 41.6579C103.009 41.9665 103.219 42.2301 103.44 42.4511L104.855 41.0369ZM104.734 40.9178L103.742 38.2298L101.865 38.9222L102.857 41.6102L104.734 40.9178ZM102.803 37.576H95.0915V39.576H102.803V37.576ZM94.1534 38.2298L93.1613 40.9178L95.0377 41.6102L96.0297 38.9222L94.1534 38.2298ZM93.1804 40.8701C93.184 40.8615 93.1803 40.873 93.1571 40.9046C93.1341 40.9359 93.0971 40.9802 93.0404 41.0369L94.4546 42.4511C94.6756 42.2301 94.8864 41.9665 95.0186 41.6579L93.1804 40.8701ZM92.9949 41.0855C93.0285 41.0471 93.0625 41.0209 93.0894 41.0043C93.1153 40.9884 93.1315 40.9833 93.1307 40.9836C93.1297 40.9839 93.1153 40.9883 93.0835 40.9925C93.0518 40.9966 93.0071 41 92.9475 41V43C93.4282 43 94.0633 42.9016 94.5001 42.4025L92.9949 41.0855ZM92.9475 41H88.0195V43H92.9475V41ZM96.5635 34.168H101.331V32.168H96.5635V34.168ZM102.28 32.8518L99.8802 25.6518L97.9828 26.2842L100.383 33.4842L102.28 32.8518ZM97.9816 25.6556L95.6136 32.8556L97.5134 33.4804L99.8814 26.2804L97.9816 25.6556ZM116.716 41.392L116.334 42.3159L116.338 42.3178L116.716 41.392ZM113.196 38.512L112.35 39.0445L112.355 39.0525L112.36 39.0604L113.196 38.512ZM112.204 19.856L112.863 20.6086L112.888 20.5866L112.911 20.5631L112.204 19.856ZM118.572 19.856L117.82 20.5145L117.864 20.5647L117.914 20.6086L118.572 19.856ZM119.628 35.888L118.907 36.5811L119.628 35.888ZM124.204 35.888L123.483 35.1949L123.476 35.2022L123.469 35.2097L124.204 35.888ZM125.26 19.856L125.919 20.6086L125.944 20.5867L125.967 20.5631L125.26 19.856ZM131.628 19.856L130.876 20.5145L130.92 20.5647L130.97 20.6086L131.628 19.856ZM130.636 38.512L131.479 39.0507L131.483 39.0445L130.636 38.512ZM127.148 41.392L126.766 40.4681L127.148 41.392ZM121.964 41.32C120.083 41.32 118.466 41.0267 117.094 40.4662L116.338 42.3178C117.995 42.9947 119.877 43.32 121.964 43.32V41.32ZM117.099 40.4681C115.783 39.9231 114.771 39.0904 114.032 37.9636L112.36 39.0604C113.328 40.5363 114.662 41.6235 116.334 42.3159L117.099 40.4681ZM114.043 37.9795C113.336 36.8558 112.948 35.3896 112.948 33.52H110.948C110.948 35.661 111.393 37.5229 112.35 39.0445L114.043 37.9795ZM112.948 33.52V20.432H110.948V33.52H112.948ZM112.948 20.432C112.948 20.4382 112.947 20.4721 112.926 20.5181C112.905 20.5651 112.878 20.5954 112.863 20.6086L111.546 19.1034C111.15 19.4501 110.948 19.9204 110.948 20.432H112.948ZM112.911 20.5631C112.923 20.5518 112.914 20.5638 112.882 20.5778C112.849 20.5929 112.811 20.6 112.78 20.6V18.6C112.266 18.6 111.828 18.8175 111.497 19.1489L112.911 20.5631ZM112.78 20.6H117.996V18.6H112.78V20.6ZM117.996 20.6C117.99 20.6 117.956 20.5983 117.91 20.5778C117.863 20.557 117.833 20.5296 117.82 20.5145L119.325 19.1975C118.978 18.8013 118.508 18.6 117.996 18.6V20.6ZM117.914 20.6086C117.899 20.5954 117.871 20.5651 117.85 20.5181C117.83 20.4721 117.828 20.4382 117.828 20.432H119.828C119.828 19.9204 119.627 19.4501 119.231 19.1034L117.914 20.6086ZM117.828 20.432V33.424H119.828V20.432H117.828ZM117.828 33.424C117.828 34.6629 118.132 35.7749 118.907 36.5811L120.349 35.1949C120.058 34.8918 119.828 34.3611 119.828 33.424H117.828ZM118.907 36.5811C119.682 37.3864 120.744 37.72 121.932 37.72V35.72C121.115 35.72 120.641 35.4989 120.349 35.1949L118.907 36.5811ZM121.932 37.72C123.118 37.72 124.181 37.3873 124.939 36.5663L123.469 35.2097C123.203 35.498 122.752 35.72 121.932 35.72V37.72ZM124.925 36.5811C125.7 35.7749 126.004 34.6629 126.004 33.424H124.004C124.004 34.3611 123.775 34.8918 123.483 35.1949L124.925 36.5811ZM126.004 33.424V20.432H124.004V33.424H126.004ZM126.004 20.432C126.004 20.4382 126.003 20.4721 125.982 20.5181C125.961 20.5651 125.934 20.5954 125.919 20.6086L124.602 19.1034C124.206 19.4501 124.004 19.9204 124.004 20.432H126.004ZM125.967 20.5631C125.97 20.5603 125.957 20.5734 125.928 20.5856C125.899 20.5981 125.875 20.6 125.868 20.6V18.6C125.36 18.6 124.905 18.7967 124.553 19.1489L125.967 20.5631ZM125.868 20.6H131.052V18.6H125.868V20.6ZM131.052 20.6C131.046 20.6 131.012 20.5983 130.966 20.5778C130.919 20.557 130.889 20.5296 130.876 20.5145L132.381 19.1975C132.034 18.8013 131.564 18.6 131.052 18.6V20.6ZM130.97 20.6086C130.955 20.5954 130.927 20.5651 130.906 20.5181C130.886 20.4721 130.884 20.4382 130.884 20.432H132.884C132.884 19.9204 132.683 19.4501 132.287 19.1034L130.97 20.6086ZM130.884 20.432V33.52H132.884V20.432H130.884ZM130.884 33.52C130.884 35.3896 130.497 36.8558 129.79 37.9795L131.483 39.0445C132.44 37.5229 132.884 35.661 132.884 33.52H130.884ZM129.794 37.9733C129.077 39.0939 128.079 39.9239 126.766 40.4681L127.531 42.3159C129.204 41.6227 130.531 40.5327 131.479 39.0507L129.794 37.9733ZM126.766 40.4681C125.417 41.027 123.823 41.32 121.964 41.32V43.32C124.031 43.32 125.893 42.9943 127.531 42.3159L126.766 40.4681ZM135.959 41.776L135.252 42.4831L135.275 42.5067L135.3 42.5286L135.959 41.776ZM135.959 19.856L136.617 20.6086L136.642 20.5866L136.666 20.5631L135.959 19.856ZM142.455 19.856L141.748 20.5631L141.771 20.5867L141.796 20.6086L142.455 19.856ZM142.711 36.304H141.711V37.304H142.711V36.304ZM152.567 36.56L151.86 37.2671L151.883 37.2906L151.908 37.3126L152.567 36.56ZM152.567 41.776L153.225 42.5286L153.25 42.5067L153.274 42.4831L152.567 41.776ZM136.535 41C136.548 41 136.57 41.0028 136.593 41.012C136.616 41.0208 136.624 41.0292 136.617 41.0234L135.3 42.5286C135.641 42.8265 136.063 43 136.535 43V41ZM136.666 41.0689C136.663 41.0661 136.676 41.0789 136.688 41.1079C136.701 41.1375 136.703 41.1611 136.703 41.168H134.703C134.703 41.6762 134.899 42.1309 135.252 42.4831L136.666 41.0689ZM136.703 41.168V20.432H134.703V41.168H136.703ZM136.703 20.432C136.703 20.4382 136.701 20.4721 136.681 20.5181C136.66 20.5651 136.632 20.5954 136.617 20.6086L135.3 19.1034C134.904 19.4501 134.703 19.9204 134.703 20.432H136.703ZM136.666 20.5631C136.677 20.5518 136.668 20.5638 136.637 20.5778C136.603 20.5929 136.566 20.6 136.535 20.6V18.6C136.021 18.6 135.583 18.8175 135.252 19.1489L136.666 20.5631ZM136.535 20.6H141.847V18.6H136.535V20.6ZM141.847 20.6C141.84 20.6 141.816 20.5981 141.787 20.5856C141.758 20.5734 141.745 20.5603 141.748 20.5631L143.162 19.1489C142.81 18.7967 142.355 18.6 141.847 18.6V20.6ZM141.796 20.6086C141.781 20.5954 141.754 20.5651 141.733 20.5181C141.712 20.4721 141.711 20.4382 141.711 20.432H143.711C143.711 19.9204 143.509 19.4501 143.113 19.1034L141.796 20.6086ZM141.711 20.432V36.304H143.711V20.432H141.711ZM142.711 37.304H151.959V35.304H142.711V37.304ZM151.959 37.304C151.952 37.304 151.928 37.3021 151.899 37.2896C151.87 37.2774 151.857 37.2643 151.86 37.2671L153.274 35.8529C152.922 35.5007 152.467 35.304 151.959 35.304V37.304ZM151.908 37.3126C151.893 37.2994 151.866 37.2691 151.845 37.2221C151.824 37.1761 151.823 37.1422 151.823 37.136H153.823C153.823 36.6244 153.621 36.1541 153.225 35.8074L151.908 37.3126ZM151.823 37.136V41.168H153.823V37.136H151.823ZM151.823 41.168C151.823 41.1611 151.825 41.1375 151.837 41.1079C151.849 41.0789 151.862 41.0661 151.86 41.0689L153.274 42.4831C153.626 42.1309 153.823 41.6762 153.823 41.168H151.823ZM151.908 41.0234C151.909 41.0232 151.912 41.0204 151.918 41.0165C151.925 41.0126 151.933 41.0088 151.941 41.0057C151.96 40.9988 151.968 41 151.959 41V43C152.426 43 152.865 42.8434 153.225 42.5286L151.908 41.0234ZM151.959 41H136.535V43H151.959V41ZM157.168 41.776L156.415 42.4345L156.459 42.4847L156.509 42.5286L157.168 41.776ZM156.944 25.552H157.944V24.552H156.944V25.552ZM150.832 25.328L150.079 25.9865L150.123 26.0367L150.173 26.0806L150.832 25.328ZM150.832 19.856L151.539 20.5631V20.5631L150.832 19.856ZM170 19.856L169.247 20.5145L169.291 20.5647L169.341 20.6086L170 19.856ZM170 25.328L169.293 24.6209V24.6209L170 25.328ZM163.92 25.552V24.552H162.92V25.552H163.92ZM163.664 41.776L162.957 41.0689L163.664 41.776ZM157.776 41C157.766 41 157.775 40.9988 157.794 41.0057C157.802 41.0088 157.81 41.0126 157.816 41.0165C157.823 41.0204 157.826 41.0232 157.827 41.0234L156.509 42.5286C156.869 42.8434 157.308 43 157.776 43V41ZM157.921 41.1175C157.921 41.1178 157.924 41.1211 157.927 41.1275C157.931 41.134 157.935 41.1418 157.938 41.1503C157.945 41.1689 157.944 41.1776 157.944 41.168H155.944C155.944 41.6357 156.101 42.0747 156.415 42.4345L157.921 41.1175ZM157.944 41.168V25.552H155.944V41.168H157.944ZM156.944 24.552H151.44V26.552H156.944V24.552ZM151.44 24.552C151.43 24.552 151.439 24.5508 151.458 24.5577C151.466 24.5608 151.474 24.5646 151.48 24.5685C151.487 24.5724 151.49 24.5752 151.491 24.5754L150.173 26.0806C150.533 26.3954 150.972 26.552 151.44 26.552V24.552ZM151.585 24.6695C151.585 24.6698 151.588 24.6731 151.591 24.6795C151.595 24.686 151.599 24.6938 151.602 24.7023C151.609 24.7209 151.608 24.7296 151.608 24.72H149.608C149.608 25.1877 149.765 25.6267 150.079 25.9865L151.585 24.6695ZM151.608 24.72V20.432H149.608V24.72H151.608ZM151.608 20.432C151.608 20.4216 151.609 20.44 151.596 20.4744C151.582 20.511 151.56 20.5423 151.539 20.5631L150.125 19.1489C149.766 19.5074 149.608 19.9644 149.608 20.432H151.608ZM151.539 20.5631C151.542 20.5603 151.529 20.5734 151.5 20.5856C151.47 20.5981 151.447 20.6 151.44 20.6V18.6C150.932 18.6 150.477 18.7967 150.125 19.1489L151.539 20.5631ZM151.44 20.6H169.424V18.6H151.44V20.6ZM169.424 20.6C169.418 20.6 169.384 20.5983 169.338 20.5778C169.291 20.557 169.261 20.5296 169.247 20.5145L170.753 19.1975C170.406 18.8013 169.936 18.6 169.424 18.6V20.6ZM169.341 20.6086C169.326 20.5954 169.299 20.5651 169.278 20.5181C169.258 20.4721 169.256 20.4382 169.256 20.432H171.256C171.256 19.9204 171.055 19.4501 170.659 19.1034L169.341 20.6086ZM169.256 20.432V24.72H171.256V20.432H169.256ZM169.256 24.72C169.256 24.7131 169.258 24.6895 169.27 24.6599C169.283 24.6309 169.296 24.6181 169.293 24.6209L170.707 26.0351C171.059 25.6829 171.256 25.2282 171.256 24.72H169.256ZM169.293 24.6209C169.314 24.6 169.345 24.5782 169.382 24.564C169.416 24.5506 169.434 24.552 169.424 24.552V26.552C169.892 26.552 170.349 26.3936 170.707 26.0351L169.293 24.6209ZM169.424 24.552H163.92V26.552H169.424V24.552ZM162.92 25.552V41.168H164.92V25.552H162.92ZM162.92 41.168C162.92 41.1611 162.922 41.1375 162.934 41.1079C162.947 41.0789 162.96 41.0661 162.957 41.0689L164.371 42.4831C164.723 42.1309 164.92 41.6762 164.92 41.168H162.92ZM162.957 41.0689C162.978 41.048 163.009 41.0262 163.046 41.012C163.08 40.9986 163.098 41 163.088 41V43C163.556 43 164.013 42.8416 164.371 42.4831L162.957 41.0689ZM163.088 41H157.776V43H163.088V41Z" fill="white"/>
<defs>
<linearGradient id="paint0_linear_561_12681" x1="188.289" y1="56.1466" x2="162.516" y2="-37.1688" gradientUnits="userSpaceOnUse">
<stop stop-color="#4CB7FF"/>
<stop offset="1" stop-color="#7AEDFF"/>
</linearGradient>
<linearGradient id="paint1_linear_561_12681" x1="177.861" y1="53.2665" x2="155.044" y2="-29.3451" gradientUnits="userSpaceOnUse">
<stop stop-color="#60C1FF"/>
<stop offset="1" stop-color="#8CDEFF"/>
</linearGradient>
<linearGradient id="paint2_linear_561_12681" x1="6.46875" y1="6.4378" x2="188.288" y2="6.4378" gradientUnits="userSpaceOnUse">
<stop stop-color="#00080D"/>
<stop offset="1" stop-color="#3040E8"/>
</linearGradient>
<linearGradient id="paint3_linear_561_12681" x1="6.46875" y1="55.6283" x2="188.288" y2="55.6283" gradientUnits="userSpaceOnUse">
<stop stop-color="#FCFFFF"/>
<stop offset="1" stop-color="#70A2FF"/>
</linearGradient>
<radialGradient id="paint4_radial_561_12681" cx="0" cy="0" r="1" gradientUnits="userSpaceOnUse" gradientTransform="translate(-22.8298 7.24515) scale(225.191 62.1955)">
<stop stop-color="#1F6AF0"/>
<stop offset="1" stop-color="#002348"/>
</radialGradient>
<linearGradient id="paint5_linear_561_12681" x1="177.861" y1="31.0331" x2="195.001" y2="31.0331" gradientUnits="userSpaceOnUse">
<stop stop-color="#FCFFFF"/>
<stop offset="1" stop-color="#4484FF"/>
</linearGradient>
<radialGradient id="paint6_radial_561_12681" cx="0" cy="0" r="1" gradientUnits="userSpaceOnUse" gradientTransform="translate(109.196 64.0294) scale(122.789 33.913)">
<stop stop-color="#0D50D9"/>
<stop offset="1" stop-color="#00080D"/>
</radialGradient>
<linearGradient id="paint7_linear_561_12681" x1="128.608" y1="31.6909" x2="114.819" y2="-18.2354" gradientUnits="userSpaceOnUse">
<stop stop-color="#00080D"/>
<stop offset="1" stop-color="#073FD9"/>
</linearGradient>
<linearGradient id="paint8_linear_561_12681" x1="8.34545" y1="38.3778" x2="8.34545" y2="5.92969" gradientUnits="userSpaceOnUse">
<stop stop-color="#00080D"/>
<stop offset="1" stop-color="#26DCFF"/>
</linearGradient>
<radialGradient id="paint9_radial_561_12681" cx="0" cy="0" r="1" gradientUnits="userSpaceOnUse" gradientTransform="translate(18.7372 2.76047) scale(181.134 50.0275)">
<stop stop-color="#66B2FF"/>
<stop offset="1" stop-color="#00080D"/>
</radialGradient>
<linearGradient id="paint10_linear_561_12681" x1="174.217" y1="52.26" x2="152.443" y2="-26.5951" gradientUnits="userSpaceOnUse">
<stop stop-color="#1D7BFF"/>
<stop offset="1" stop-color="#6DDEFF"/>
</linearGradient>
<linearGradient id="paint11_linear_561_12681" x1="97.5" y1="52" x2="97.5" y2="10" gradientUnits="userSpaceOnUse">
<stop stop-color="#72E3FF"/>
<stop offset="1" stop-color="#4499FF"/>
</linearGradient>
<linearGradient id="paint12_linear_561_12681" x1="97.3975" y1="18.4564" x2="97.3975" y2="9.77637" gradientUnits="userSpaceOnUse">
<stop stop-color="#FCFFFF"/>
<stop offset="1" stop-color="#4795E6"/>
</linearGradient>
<radialGradient id="paint13_radial_561_12681" cx="0" cy="0" r="1" gradientUnits="userSpaceOnUse" gradientTransform="translate(96.0984 73.8355) scale(131.881 36.4244)">
<stop stop-color="#30CCFF"/>
<stop offset="1" stop-color="#00080D"/>
</radialGradient>
<radialGradient id="paint14_radial_561_12681" cx="0" cy="0" r="1" gradientUnits="userSpaceOnUse" gradientTransform="translate(14.4894 8.15176) scale(29.5155 8.15188)">
<stop stop-color="#00FF9D"/>
<stop offset="0.06" stop-color="#00E68D"/>
<stop offset="0.21" stop-color="#00AA68"/>
<stop offset="0.35" stop-color="#007649"/>
<stop offset="0.5" stop-color="#004C2E"/>
<stop offset="0.64" stop-color="#002B1A"/>
<stop offset="0.77" stop-color="#00130C"/>
<stop offset="0.89" stop-color="#000503"/>
<stop offset="1"/>
</radialGradient>
</defs>
</svg>
