<svg width="104" height="104" viewBox="0 0 104 104" fill="none" xmlns="http://www.w3.org/2000/svg">
<g filter="url(#filter0_d_552_13295)">
<path d="M66.4208 8.51074H29.5796C17.9544 8.51074 8.53027 17.9349 8.53027 29.5601V66.4013C8.53027 78.0266 17.9544 87.4507 29.5796 87.4507H66.4208C78.0461 87.4507 87.4702 78.0266 87.4702 66.4013V29.5601C87.4702 17.9349 78.0461 8.51074 66.4208 8.51074Z" fill="url(#paint0_linear_552_13295)"/>
<path d="M66.4206 90H29.5794C23.3294 89.9882 17.3387 87.5001 12.9193 83.0807C8.49982 78.6612 6.01179 72.6706 6 66.4206V29.5794C6.01179 23.3294 8.49982 17.3387 12.9193 12.9193C17.3387 8.49986 23.3294 6.01179 29.5794 6H66.4206C72.6706 6.01179 78.6612 8.49986 83.0807 12.9193C87.5001 17.3387 89.9881 23.3294 89.9999 29.5794V66.4206C89.9881 72.6706 87.5001 78.6612 83.0807 83.0807C78.6612 87.5001 72.6706 89.9882 66.4206 90ZM29.5794 11.06C24.681 11.0702 19.9861 13.0205 16.5224 16.4842C13.0587 19.9479 11.1083 24.6428 11.0982 29.5412V66.3823C11.1083 71.2807 13.0587 75.9756 16.5224 79.4393C19.9861 82.903 24.681 84.8534 29.5794 84.8635H66.4206C71.319 84.8534 76.0138 82.903 79.4775 79.4393C82.9412 75.9756 84.8916 71.2807 84.9017 66.3823V29.5412C84.8916 24.6428 82.9412 19.9479 79.4775 16.4842C76.0138 13.0205 71.319 11.0702 66.4206 11.06H29.5794Z" fill="#9DB7FF"/>
<path d="M66.719 55.6982L59.0364 47.958L66.3611 40.5665C67.1444 39.8632 67.777 39.0058 68.2201 38.0469C68.6632 37.088 68.9075 36.0479 68.9379 34.9903C68.9683 33.9327 68.7842 32.8801 68.3969 31.8969C68.0096 30.9137 67.4273 30.0207 66.6857 29.2728C65.9442 28.5249 65.059 27.9378 64.0844 27.5476C63.1099 27.1573 62.0666 26.9721 61.0186 27.0034C59.9706 27.0347 58.94 27.2818 57.9901 27.7295C57.0401 28.1772 56.1908 28.816 55.4943 29.6069L48.1634 36.9984L41.1843 29.9556C39.73 28.5579 37.7917 27.7894 35.7836 27.8141C33.7754 27.8388 31.8564 28.6547 30.4362 30.0878C29.0161 31.5209 28.2075 33.4574 28.183 35.484C28.1585 37.5105 28.9201 39.4663 30.3052 40.9338L37.2843 47.9829L29.9596 55.3744C28.5754 56.8428 27.8149 58.7991 27.8405 60.8256C27.8661 62.8521 28.6758 64.7882 30.0967 66.2204C31.5176 67.6527 33.4372 68.4676 35.4454 68.4911C37.4536 68.5147 39.3914 67.745 40.8449 66.3465L48.1696 58.955L55.8337 66.6952C56.5467 67.4227 57.3951 68.0007 58.3302 68.3963C59.2653 68.7918 60.2686 68.997 61.2825 69C62.2964 69.0029 63.3009 68.8036 64.2383 68.4136C65.1756 68.0236 66.0273 67.4504 66.7445 66.7272C67.4616 66.0039 68.0301 65.1448 68.4171 64.1991C68.8042 63.2534 69.0022 62.2398 68.9998 61.2167C68.9974 60.1935 68.7947 59.1809 68.4033 58.2371C68.0119 57.2933 67.4395 56.4368 66.719 55.7169V55.6982Z" fill="white"/>
</g>
<defs>
<filter id="filter0_d_552_13295" x="0" y="0" width="104" height="104" filterUnits="userSpaceOnUse" color-interpolation-filters="sRGB">
<feFlood flood-opacity="0" result="BackgroundImageFix"/>
<feColorMatrix in="SourceAlpha" type="matrix" values="0 0 0 0 0 0 0 0 0 0 0 0 0 0 0 0 0 0 127 0" result="hardAlpha"/>
<feOffset dx="4" dy="4"/>
<feGaussianBlur stdDeviation="5"/>
<feComposite in2="hardAlpha" operator="out"/>
<feColorMatrix type="matrix" values="0 0 0 0 0 0 0 0 0 0 0 0 0 0 0 0 0 0 0.8 0"/>
<feBlend mode="normal" in2="BackgroundImageFix" result="effect1_dropShadow_552_13295"/>
<feBlend mode="normal" in="SourceGraphic" in2="effect1_dropShadow_552_13295" result="shape"/>
</filter>
<linearGradient id="paint0_linear_552_13295" x1="50.8177" y1="87.4038" x2="50.4683" y2="2.60533" gradientUnits="userSpaceOnUse">
<stop offset="0.0406034" stop-color="#04173F"/>
<stop offset="0.186536" stop-color="#021F4B"/>
<stop offset="0.446439" stop-color="#003174"/>
<stop offset="0.685836" stop-color="#022A67"/>
<stop offset="1" stop-color="#041D63"/>
</linearGradient>
</defs>
</svg>
