<svg width="87" height="87" viewBox="0 0 87 87" fill="none" xmlns="http://www.w3.org/2000/svg">
<g clip-path="url(#clip0_694_15972)">
<path d="M43.4994 84.4709C66.1276 84.4709 84.4714 66.1271 84.4714 43.4989C84.4714 20.8707 66.1276 2.52686 43.4994 2.52686C20.8711 2.52686 2.52734 20.8707 2.52734 43.4989C2.52734 66.1271 20.8711 84.4709 43.4994 84.4709Z" fill="url(#paint0_linear_694_15972)"/>
<path d="M43.4992 2.52689C66.1278 2.52689 84.4733 20.8703 84.4733 43.4989C84.4733 66.1275 66.1278 84.473 43.4992 84.473C20.8706 84.473 2.52718 66.1296 2.52718 43.4989C2.52718 20.8682 20.8706 2.52689 43.4992 2.52689ZM43.4992 -3.6764e-05C32.7459 0.0130227 22.3808 4.01962 14.4145 11.2425C6.44817 18.4654 1.44853 28.3898 0.38545 39.0903C-0.677629 49.7909 2.27163 60.505 8.6611 69.1541C15.0506 77.8032 24.4248 83.7709 34.9653 85.8994C45.5058 88.028 56.4611 86.1657 65.7063 80.6738C74.9514 75.1819 81.8271 66.4519 84.9998 56.1774C88.1724 45.9028 87.4158 34.816 82.8766 25.0678C78.3374 15.3195 70.3394 7.60463 60.4338 3.41974C55.0767 1.15157 49.3167 -0.0115954 43.4992 -3.6764e-05Z" fill="#9DB7FF"/>
<path d="M43.4993 7.14169C65.6605 7.14169 83.6986 22.917 84.4377 44.8971C84.4524 44.4338 84.4735 43.9684 84.4735 43.4989C84.4735 20.8702 66.128 2.52686 43.4993 2.52686C20.8707 2.52686 2.52734 20.8702 2.52734 43.4989C2.52734 43.9684 2.54628 44.4338 2.56313 44.8971C3.30015 22.917 21.3403 7.14169 43.4993 7.14169Z" fill="#0039B0"/>
<path d="M43.4988 77.2692C62.1496 77.2692 77.2691 62.1497 77.2691 43.4989C77.2691 24.8481 62.1496 9.72864 43.4988 9.72864C24.848 9.72864 9.72852 24.8481 9.72852 43.4989C9.72852 62.1497 24.848 77.2692 43.4988 77.2692Z" fill="url(#paint1_linear_694_15972)"/>
<path d="M58.7743 36.6814C58.9654 36.6807 59.1526 36.737 59.3126 36.8436C59.4727 36.9501 59.5986 37.1022 59.6748 37.281C59.751 37.4597 59.7742 37.6574 59.7414 37.8494C59.7086 38.0414 59.6214 38.2194 59.4905 38.3614L44.2204 55.0269C44.1289 55.1273 44.0181 55.2074 43.8948 55.2622C43.7716 55.317 43.6386 55.3452 43.5042 55.3452C43.3698 55.3452 43.2368 55.317 43.1136 55.2622C42.9904 55.2074 42.8795 55.1273 42.788 55.0269L27.5204 38.3614C27.3895 38.2194 27.3023 38.0414 27.2695 37.8494C27.2367 37.6574 27.2599 37.4597 27.3361 37.281C27.4123 37.1022 27.5382 36.9501 27.6982 36.8436C27.8583 36.737 28.0455 36.6807 28.2366 36.6814H34.9929V22.86C34.9929 21.9629 35.3424 21.1026 35.9644 20.4682C36.5865 19.8339 37.4302 19.4775 38.3099 19.4775H48.701C49.5805 19.4782 50.4238 19.8348 51.0458 20.469C51.6677 21.1032 52.0173 21.9631 52.018 22.86V36.6814H58.7743ZM61.0304 65.7401V59.9523C61.0304 59.7186 60.9853 59.4872 60.8976 59.2712C60.8099 59.0553 60.6813 58.8591 60.5192 58.6939C60.3572 58.5286 60.1648 58.3975 59.953 58.3081C59.7413 58.2186 59.5143 58.1726 59.2851 58.1726H27.716C27.4868 58.1726 27.2598 58.2186 27.0481 58.3081C26.8363 58.3975 26.6439 58.5286 26.4819 58.6939C26.3198 58.8591 26.1913 59.0553 26.1035 59.2712C26.0158 59.4872 25.9707 59.7186 25.9707 59.9523V65.7401C25.9704 65.974 26.0153 66.2057 26.1028 66.4219C26.1904 66.6382 26.3189 66.8347 26.481 67.0002C26.6431 67.1657 26.8356 67.297 27.0475 67.3866C27.2594 67.4762 27.4866 67.5223 27.716 67.5223H59.2754C59.7385 67.5217 60.1824 67.3336 60.5096 66.9995C60.8368 66.6653 61.0206 66.2123 61.0206 65.7401H61.0304Z" fill="url(#paint2_linear_694_15972)"/>
</g>
<defs>
<linearGradient id="paint0_linear_694_15972" x1="43.4994" y1="84.473" x2="43.4994" y2="2.52686" gradientUnits="userSpaceOnUse">
<stop offset="0.31" stop-color="#002BA0"/>
<stop offset="1" stop-color="#7EA1FF"/>
</linearGradient>
<linearGradient id="paint1_linear_694_15972" x1="43.4988" y1="77.2713" x2="43.4988" y2="9.72864" gradientUnits="userSpaceOnUse">
<stop stop-color="white"/>
<stop offset="1" stop-color="#F7EDD2"/>
</linearGradient>
<linearGradient id="paint2_linear_694_15972" x1="84.3919" y1="78.3945" x2="25.1959" y2="17.4201" gradientUnits="userSpaceOnUse">
<stop offset="0.31" stop-color="#04173F"/>
<stop offset="1" stop-color="#3E7CFF"/>
</linearGradient>
<clipPath id="clip0_694_15972">
<rect width="87" height="87" fill="white"/>
</clipPath>
</defs>
</svg>
