<svg width="50" height="50" viewBox="0 0 50 50" fill="none" xmlns="http://www.w3.org/2000/svg">
<path d="M0.689244 11.8539L0.53025 38.8523C0.494936 44.8488 5.3253 49.7386 11.3192 49.774L38.3055 49.9332C44.2993 49.9686 49.1869 45.1361 49.2223 39.1395L49.3812 12.1412C49.4166 6.14465 44.5862 1.25483 38.5923 1.21946L11.606 1.06026C5.61217 1.0249 0.724557 5.85739 0.689244 11.8539Z" fill="#EFEFEF"/>
<mask id="mask0_27_111" style="mask-type:luminance" maskUnits="userSpaceOnUse" x="0" y="1" width="50" height="49">
<path d="M0.688755 11.8539L0.529761 38.8523C0.494448 44.8488 5.32481 49.7386 11.3187 49.774L38.305 49.9332C44.2988 49.9686 49.1864 45.1361 49.2218 39.1395L49.3808 12.1412C49.4161 6.14465 44.5857 1.25483 38.5918 1.21946L11.6055 1.06026C5.61169 1.0249 0.724069 5.85739 0.688755 11.8539Z" fill="white"/>
</mask>
<g mask="url(#mask0_27_111)">
<path d="M36.4305 11.531L56.0439 30.9299C57.8241 32.6054 59.2449 34.6258 60.2198 36.8682C61.1947 39.1105 61.7033 41.5279 61.7146 43.9732C61.7735 53.9553 53.7289 62.0955 43.7542 62.1542C41.3102 62.1717 38.8881 61.6914 36.6354 60.7425C34.3828 59.7937 32.3467 58.3962 30.651 56.6351L11.1643 37.3713C9.40513 35.6975 8.00223 33.6852 7.03991 31.4554C6.07758 29.2255 5.5757 26.824 5.56438 24.3952C5.50549 14.4124 13.5459 6.2722 23.5241 6.21344C25.9208 6.19628 28.2968 6.65776 30.513 7.57085C32.7291 8.48394 34.7409 9.83028 36.4305 11.531Z" fill="url(#paint0_linear_27_111)"/>
</g>
<path d="M5.57755 25.3824C5.51449 36.0895 14.1393 44.8205 24.8416 44.8836C35.544 44.9468 44.271 36.3181 44.3341 25.611C44.3971 14.9039 35.7723 6.17294 25.07 6.1098C14.3677 6.04666 5.6406 14.6753 5.57755 25.3824Z" fill="#192B5C"/>
<path d="M37.4531 16L24.459 24.3078L11.4648 15.9999L24.459 37.9999L37.4531 16Z" fill="white"/>
<defs>
<linearGradient id="paint0_linear_27_111" x1="56.4984" y1="56.7849" x2="10.7598" y2="11.6032" gradientUnits="userSpaceOnUse">
<stop stop-color="#CFD0D2"/>
<stop offset="1" stop-color="#CFD0D2"/>
</linearGradient>
</defs>
</svg>
