<svg width="993" height="187" viewBox="0 0 993 187" fill="none" xmlns="http://www.w3.org/2000/svg">
<path d="M61.0847 21.5402C79.7866 19.3392 388.978 14.0027 467.521 14.3162C546.064 14.6298 916.756 17.8206 937.533 19.9724C958.31 22.1242 967.466 90.6072 967.466 90.6072C967.466 90.6072 967.808 154.965 953.916 157.16C940.024 159.355 598.58 165.324 496.257 164.384C393.934 163.443 93.0683 160.455 68.5801 157.473C44.0919 154.491 27.4409 97.8373 26.1713 91.8614C24.9017 85.8855 61.0847 21.5402 61.0847 21.5402Z" fill="#FFE5C5"/>
<g style="mix-blend-mode:multiply">
<g filter="url(#filter0_d_561_12486)">
<path d="M51.9911 38.0029C57.6532 27.6163 67.996 21.0258 79.8186 20.6153C151.485 18.1263 398.517 14.0408 467.521 14.3162C546.064 14.6298 916.756 17.8206 937.533 19.9724C956.029 21.8879 965.315 76.3646 967.132 88.3076C967.368 89.8639 967.471 91.3634 967.458 92.9375C967.358 104.498 966.221 155.216 953.916 157.16C940.024 159.355 598.58 165.324 496.257 164.384C393.934 163.443 93.0683 160.455 68.5801 157.473C44.0919 154.491 27.4409 97.8373 26.1713 91.8614C25.3185 87.8474 41.364 57.4975 51.9911 38.0029Z" fill="url(#paint0_linear_561_12486)"/>
<path d="M48.4791 36.0884C54.7955 24.5015 66.3967 17.079 79.6797 16.6177C151.392 14.1271 398.476 10.0406 467.537 10.3163C506.821 10.4731 619.14 11.3493 724.231 12.4552C776.778 13.0081 827.524 13.6186 866.436 14.2254C905.188 14.8297 932.523 15.4321 937.945 15.9937C944.498 16.6723 949.443 21.8492 953.091 27.6484C956.856 33.6331 959.929 41.368 962.4 49.1723C967.356 64.8257 970.169 81.6765 971.086 87.7061C971.356 89.4794 971.473 91.1918 971.458 92.972C971.408 98.7921 971.098 114.553 969.232 129.162C968.303 136.435 966.962 143.651 964.981 149.262C963.994 152.059 962.774 154.674 961.215 156.732C959.659 158.785 957.477 160.647 954.54 161.111C952.491 161.434 945.291 161.771 934.596 162.137C923.71 162.509 908.817 162.919 891.031 163.346C855.455 164.199 808.264 165.122 758.314 165.947C658.433 167.596 547.441 168.854 496.22 168.383C445.057 167.913 344.253 166.931 253.176 165.694C207.639 165.075 164.525 164.392 131.261 163.678C98.1505 162.967 74.4741 162.22 68.0966 161.444C60.5248 160.522 54.0603 155.546 48.7727 149.417C43.4265 143.22 38.8322 135.325 35.0669 127.53C27.5452 111.958 22.9604 95.996 22.2586 92.6927C22.0485 91.7036 22.1592 90.7579 22.2565 90.163C22.3683 89.4803 22.5538 88.7569 22.7706 88.0386C23.2057 86.5971 23.863 84.863 24.6601 82.9533C26.2613 79.1171 28.5651 74.2454 31.1945 68.9567C36.4619 58.3618 43.1589 45.8479 48.4791 36.0884Z" stroke="#9DB7FF" stroke-width="8"/>
</g>
</g>
<g style="mix-blend-mode:multiply">
<path d="M62.63 157.237C9.42977 148.716 1.22634 31.6083 62.63 22.4662C124.034 13.3241 927.701 12.3158 948.894 22.4662C970.086 32.6166 990.692 147.37 948.894 157.237C907.095 167.105 115.879 165.765 62.63 157.237ZM782.628 157.557C891.518 156.143 920.597 154.12 927.335 153.469C933.927 150.395 943.986 137.066 943.986 104.284C943.986 68.0109 932.389 33.6372 923.917 25.6263C913.931 24.8394 881.166 23.0503 781.602 21.7592C704.5 20.7632 604.105 20.2837 498.901 20.4128C394.429 20.5419 294.084 21.2551 216.347 22.417C97.812 24.1938 74.0806 26.4009 70.6381 26.8067C69.1244 27.194 57.4052 30.6185 48.4693 46.2837C42.2923 57.1411 38.8986 71.4907 38.8986 86.6886C38.8986 102.606 42.5121 118.234 49.0797 130.684C58.1132 147.837 69.0267 152.171 71.4438 152.952C76.5221 153.45 103.183 155.411 216.811 157.034C295.085 158.141 395.504 158.811 499.585 158.916C605.375 159.045 705.891 158.553 782.628 157.557Z" fill="#BCB7B5"/>
</g>
<path d="M67.263 157.473C13.55 148.805 5.17569 29.7356 67.263 20.4336C129.35 11.1316 942.1 10.1172 963.414 20.4336C984.729 30.75 1005.68 147.434 963.414 157.473C921.152 167.513 121.122 166.13 67.263 157.473ZM795.391 157.793C905.527 156.354 934.922 154.301 941.734 153.637C948.399 150.489 958.58 136.964 958.58 103.653C958.58 66.7652 946.861 31.8198 938.291 23.6736C928.159 22.8744 895.028 21.0545 794.365 19.745C716.384 18.7306 614.866 18.2387 508.466 18.374C402.822 18.5031 301.329 19.2286 222.811 20.409C102.958 22.2165 78.9577 24.4606 75.4664 24.8725C73.9282 25.266 62.0626 28.7458 53.0534 44.6753C46.8032 55.7418 43.2875 70.3065 43.2875 85.7626C43.2875 101.95 46.9497 117.837 53.5906 130.496C62.7218 147.938 73.7573 152.346 76.2233 153.139C81.3504 153.643 108.231 155.654 223.201 157.289C302.379 158.414 403.872 159.096 509.174 159.201C616.136 159.318 717.727 158.801 795.391 157.781V157.793Z" fill="#032064"/>
<path d="M44.818 161.832C-10.6284 152.61 -19.1004 25.9606 44.818 16.0684C108.736 6.17626 945.389 5.0942 967.362 16.0684C989.336 27.0427 1010.85 151.159 967.362 161.832C923.879 172.505 100.24 171.054 44.818 161.832ZM790.72 159.318C900.856 157.848 930.251 155.746 937.063 155.069C943.729 151.848 953.91 138.021 953.91 103.967C953.91 66.2364 942.19 30.5286 933.621 22.198C923.513 21.3803 890.382 19.5175 789.694 18.1772C711.737 17.1382 610.196 16.6402 503.795 16.7755C398.152 16.9046 296.683 17.6485 218.14 18.8596C98.2624 20.7041 74.2625 23.0035 70.7711 23.4215C69.233 23.8211 57.3917 27.3808 48.3582 43.667C42.1324 54.9548 38.5922 69.8699 38.5922 85.6704C38.5922 102.221 42.23 118.464 48.8709 131.406C58.0021 149.235 69.0377 153.735 71.5036 154.547C76.6307 155.069 103.512 157.123 218.482 158.795C297.659 159.945 399.152 160.64 504.454 160.75C611.465 160.873 713.129 160.363 790.72 159.318Z" fill="#4091FF"/>
<path opacity="0.1" d="M45.1668 162.392C-10.6947 153.127 -19.2643 25.8192 45.1668 15.8716C109.598 5.92411 920.59 4.84206 942.71 15.8716C964.83 26.9012 986.657 151.663 942.71 162.392C898.763 173.12 101.053 171.614 45.1668 162.392ZM780.228 161.777C892.537 160.258 933.701 158.088 940.659 157.393C947.447 154.067 957.481 139.798 957.481 104.662C957.481 65.7199 945.884 28.8747 937.119 20.2859C926.816 19.4375 881.941 17.5132 779.179 16.136C699.61 15.0662 596.066 14.5498 487.395 14.6851C379.579 14.8265 276.01 15.5888 195.783 16.8369C73.4393 18.7428 48.9511 21.1405 45.3865 21.5463C43.824 21.9582 31.7142 25.6347 22.5097 42.4496C16.1374 54.0878 12.7437 69.501 12.7437 85.7871C12.7437 102.866 16.4792 119.601 23.2666 132.986C32.471 151.325 43.7263 155.979 46.3143 156.822C51.5391 157.356 78.9571 159.471 196.32 161.199C277.036 162.392 380.799 163.105 488.225 163.216C597.287 163.332 701.026 162.804 780.228 161.734V161.777Z" fill="white"/>
<path d="M202.455 107H193.582V80.8182H202.634C205.233 80.8182 207.466 81.3423 209.332 82.3906C211.207 83.4304 212.648 84.9261 213.653 86.8778C214.659 88.8295 215.162 91.1648 215.162 93.8835C215.162 96.6108 214.655 98.9545 213.641 100.915C212.635 102.875 211.182 104.379 209.281 105.428C207.389 106.476 205.114 107 202.455 107ZM198.325 102.896H202.224C204.048 102.896 205.57 102.564 206.788 101.899C208.007 101.226 208.923 100.224 209.537 98.8949C210.151 97.5568 210.457 95.8864 210.457 93.8835C210.457 91.8807 210.151 90.2187 209.537 88.8977C208.923 87.5682 208.016 86.5753 206.814 85.919C205.621 85.2543 204.138 84.9219 202.365 84.9219H198.325V102.896ZM220.184 107V87.3636H224.671V90.6364H224.876C225.233 89.5028 225.847 88.6293 226.716 88.0156C227.594 87.3935 228.596 87.0824 229.721 87.0824C229.976 87.0824 230.262 87.0952 230.577 87.1207C230.901 87.1378 231.17 87.1676 231.383 87.2102V91.4673C231.187 91.3991 230.876 91.3395 230.449 91.2884C230.032 91.2287 229.627 91.1989 229.235 91.1989C228.391 91.1989 227.633 91.3821 226.959 91.7486C226.295 92.1065 225.77 92.6051 225.387 93.2443C225.003 93.8835 224.812 94.6207 224.812 95.456V107H220.184ZM242.934 107.384C241.016 107.384 239.354 106.962 237.948 106.118C236.542 105.274 235.451 104.094 234.675 102.577C233.908 101.06 233.525 99.2869 233.525 97.2585C233.525 95.2301 233.908 93.4531 234.675 91.9276C235.451 90.402 236.542 89.2173 237.948 88.3736C239.354 87.5298 241.016 87.108 242.934 87.108C244.852 87.108 246.514 87.5298 247.92 88.3736C249.326 89.2173 250.413 90.402 251.18 91.9276C251.955 93.4531 252.343 95.2301 252.343 97.2585C252.343 99.2869 251.955 101.06 251.18 102.577C250.413 104.094 249.326 105.274 247.92 106.118C246.514 106.962 244.852 107.384 242.934 107.384ZM242.96 103.676C243.999 103.676 244.869 103.391 245.567 102.82C246.266 102.24 246.786 101.464 247.127 100.493C247.477 99.5213 247.651 98.4389 247.651 97.2457C247.651 96.044 247.477 94.9574 247.127 93.9858C246.786 93.0057 246.266 92.2259 245.567 91.6463C244.869 91.0668 243.999 90.777 242.96 90.777C241.894 90.777 241.008 91.0668 240.3 91.6463C239.602 92.2259 239.077 93.0057 238.728 93.9858C238.387 94.9574 238.217 96.044 238.217 97.2457C238.217 98.4389 238.387 99.5213 238.728 100.493C239.077 101.464 239.602 102.24 240.3 102.82C241.008 103.391 241.894 103.676 242.96 103.676ZM256.991 114.364V87.3636H261.542V90.6108H261.811C262.049 90.1335 262.386 89.6264 262.821 89.0895C263.255 88.544 263.843 88.0795 264.585 87.696C265.326 87.304 266.272 87.108 267.423 87.108C268.94 87.108 270.308 87.4957 271.526 88.2713C272.754 89.0384 273.725 90.1761 274.441 91.6847C275.166 93.1847 275.528 95.0256 275.528 97.2074C275.528 99.3636 275.174 101.196 274.467 102.705C273.759 104.213 272.796 105.364 271.578 106.156C270.359 106.949 268.978 107.345 267.436 107.345C266.311 107.345 265.377 107.158 264.636 106.783C263.894 106.408 263.298 105.956 262.846 105.428C262.403 104.891 262.058 104.384 261.811 103.906H261.619V114.364H256.991ZM261.529 97.1818C261.529 98.4517 261.708 99.5639 262.066 100.518C262.433 101.473 262.957 102.219 263.639 102.756C264.329 103.284 265.164 103.548 266.144 103.548C267.167 103.548 268.024 103.276 268.714 102.73C269.404 102.176 269.924 101.422 270.274 100.467C270.632 99.5043 270.811 98.4091 270.811 97.1818C270.811 95.9631 270.636 94.8807 270.286 93.9347C269.937 92.9886 269.417 92.2472 268.727 91.7102C268.036 91.1733 267.176 90.9048 266.144 90.9048C265.156 90.9048 264.316 91.1648 263.626 91.6847C262.936 92.2045 262.411 92.9332 262.053 93.8707C261.704 94.8082 261.529 95.9119 261.529 97.1818ZM295.511 107.396C294.267 107.396 293.146 107.175 292.149 106.732C291.16 106.28 290.376 105.615 289.797 104.737C289.226 103.859 288.94 102.777 288.94 101.49C288.94 100.382 289.145 99.4659 289.554 98.7415C289.963 98.017 290.521 97.4375 291.229 97.0028C291.936 96.5682 292.733 96.2401 293.619 96.0185C294.514 95.7884 295.439 95.6222 296.393 95.5199C297.544 95.4006 298.477 95.294 299.193 95.2003C299.909 95.098 300.429 94.9446 300.753 94.7401C301.085 94.527 301.251 94.1989 301.251 93.7557V93.679C301.251 92.7159 300.966 91.9702 300.395 91.4418C299.824 90.9134 299.001 90.6491 297.927 90.6491C296.794 90.6491 295.895 90.8963 295.23 91.3906C294.574 91.8849 294.131 92.4687 293.9 93.142L289.579 92.5284C289.92 91.3352 290.483 90.3381 291.267 89.5369C292.051 88.7273 293.01 88.1222 294.143 87.7216C295.277 87.3125 296.53 87.108 297.902 87.108C298.848 87.108 299.79 87.2188 300.727 87.4403C301.665 87.6619 302.521 88.0284 303.297 88.5398C304.072 89.0426 304.694 89.7287 305.163 90.598C305.64 91.4673 305.879 92.554 305.879 93.858V107H301.43V104.303H301.277C300.996 104.848 300.599 105.359 300.088 105.837C299.585 106.305 298.95 106.685 298.183 106.974C297.425 107.256 296.534 107.396 295.511 107.396ZM296.713 103.996C297.642 103.996 298.447 103.812 299.129 103.446C299.811 103.071 300.335 102.577 300.702 101.963C301.077 101.349 301.264 100.68 301.264 99.956V97.642C301.119 97.7614 300.872 97.8722 300.523 97.9744C300.182 98.0767 299.798 98.1662 299.372 98.2429C298.946 98.3196 298.524 98.3878 298.106 98.4474C297.689 98.5071 297.327 98.5582 297.02 98.6009C296.329 98.6946 295.712 98.848 295.166 99.0611C294.621 99.2741 294.19 99.5724 293.875 99.956C293.56 100.331 293.402 100.817 293.402 101.413C293.402 102.266 293.713 102.909 294.335 103.344C294.957 103.778 295.75 103.996 296.713 103.996ZM321.107 107V80.8182H338.135V84.794H325.85V91.902H337.253V95.8778H325.85V103.024H338.237V107H321.107ZM347.273 87.3636L351.237 94.6122L355.264 87.3636H360.16L354.241 97.1818L360.262 107H355.391L351.237 99.9304L347.12 107H342.211L348.194 97.1818L342.364 87.3636H347.273ZM372.286 107.384C370.326 107.384 368.643 106.953 367.237 106.092C365.839 105.232 364.761 104.043 364.002 102.526C363.252 101 362.877 99.2443 362.877 97.2585C362.877 95.2642 363.261 93.5043 364.028 91.9787C364.795 90.4446 365.877 89.2514 367.275 88.3991C368.681 87.5384 370.343 87.108 372.261 87.108C373.855 87.108 375.265 87.402 376.492 87.9901C377.728 88.5696 378.713 89.392 379.446 90.4574C380.179 91.5142 380.596 92.75 380.698 94.1648H376.275C376.096 93.2187 375.67 92.4304 374.997 91.7997C374.332 91.1605 373.441 90.8409 372.325 90.8409C371.379 90.8409 370.548 91.0966 369.832 91.608C369.116 92.1108 368.558 92.8352 368.157 93.7812C367.765 94.7273 367.569 95.8608 367.569 97.1818C367.569 98.5199 367.765 99.6705 368.157 100.634C368.549 101.588 369.099 102.325 369.806 102.845C370.522 103.357 371.362 103.612 372.325 103.612C373.007 103.612 373.616 103.484 374.153 103.229C374.698 102.964 375.154 102.585 375.521 102.091C375.887 101.597 376.139 100.996 376.275 100.288H380.698C380.588 101.678 380.179 102.909 379.471 103.983C378.764 105.048 377.801 105.884 376.582 106.489C375.363 107.085 373.931 107.384 372.286 107.384ZM393.912 107.384C391.943 107.384 390.243 106.974 388.811 106.156C387.387 105.33 386.292 104.162 385.525 102.653C384.758 101.136 384.375 99.3509 384.375 97.2969C384.375 95.277 384.758 93.5043 385.525 91.9787C386.301 90.4446 387.383 89.2514 388.772 88.3991C390.162 87.5384 391.794 87.108 393.669 87.108C394.879 87.108 396.021 87.304 397.095 87.696C398.177 88.0795 399.132 88.6761 399.959 89.4858C400.794 90.2955 401.45 91.3267 401.927 92.5795C402.405 93.8239 402.643 95.3068 402.643 97.0284V98.4474H386.548V95.3281H398.207C398.199 94.4418 398.007 93.6534 397.632 92.9631C397.257 92.2642 396.733 91.7145 396.059 91.3139C395.395 90.9134 394.619 90.7131 393.733 90.7131C392.787 90.7131 391.956 90.9432 391.24 91.4034C390.524 91.8551 389.966 92.4517 389.565 93.1932C389.173 93.9261 388.973 94.7315 388.964 95.6094V98.3324C388.964 99.4744 389.173 100.455 389.591 101.273C390.008 102.082 390.592 102.705 391.342 103.139C392.092 103.565 392.97 103.778 393.976 103.778C394.649 103.778 395.258 103.685 395.804 103.497C396.349 103.301 396.822 103.016 397.223 102.641C397.623 102.266 397.926 101.801 398.13 101.247L402.451 101.733C402.179 102.875 401.659 103.872 400.892 104.724C400.133 105.568 399.162 106.224 397.977 106.693C396.792 107.153 395.437 107.384 393.912 107.384ZM411.906 80.8182V107H407.278V80.8182H411.906ZM436.981 87.3636V90.9432H425.373V87.3636H436.981ZM428.275 107V85.5099C428.275 84.1889 428.548 83.0895 429.093 82.2116C429.647 81.3338 430.388 80.6776 431.317 80.2429C432.246 79.8082 433.278 79.5909 434.411 79.5909C435.212 79.5909 435.924 79.6548 436.546 79.7827C437.168 79.9105 437.628 80.0256 437.927 80.1278L437.006 83.7074C436.81 83.6477 436.563 83.5881 436.265 83.5284C435.967 83.4602 435.634 83.4261 435.268 83.4261C434.407 83.4261 433.798 83.6349 433.44 84.0526C433.09 84.4616 432.915 85.0497 432.915 85.8168V107H428.275ZM441.325 107V87.3636H445.953V107H441.325ZM443.652 84.5767C442.919 84.5767 442.288 84.3338 441.76 83.848C441.231 83.3537 440.967 82.7614 440.967 82.071C440.967 81.3722 441.231 80.7798 441.76 80.294C442.288 79.7997 442.919 79.5526 443.652 79.5526C444.393 79.5526 445.024 79.7997 445.544 80.294C446.072 80.7798 446.336 81.3722 446.336 82.071C446.336 82.7614 446.072 83.3537 445.544 83.848C445.024 84.3338 444.393 84.5767 443.652 84.5767ZM456.06 80.8182V107H451.432V80.8182H456.06ZM470.232 107.384C468.263 107.384 466.563 106.974 465.131 106.156C463.707 105.33 462.612 104.162 461.845 102.653C461.078 101.136 460.695 99.3509 460.695 97.2969C460.695 95.277 461.078 93.5043 461.845 91.9787C462.621 90.4446 463.703 89.2514 465.092 88.3991C466.482 87.5384 468.114 87.108 469.989 87.108C471.199 87.108 472.341 87.304 473.415 87.696C474.497 88.0795 475.452 88.6761 476.279 89.4858C477.114 90.2955 477.77 91.3267 478.247 92.5795C478.725 93.8239 478.963 95.3068 478.963 97.0284V98.4474H462.868V95.3281H474.527C474.519 94.4418 474.327 93.6534 473.952 92.9631C473.577 92.2642 473.053 91.7145 472.379 91.3139C471.715 90.9134 470.939 90.7131 470.053 90.7131C469.107 90.7131 468.276 90.9432 467.56 91.4034C466.844 91.8551 466.286 92.4517 465.885 93.1932C465.493 93.9261 465.293 94.7315 465.284 95.6094V98.3324C465.284 99.4744 465.493 100.455 465.911 101.273C466.328 102.082 466.912 102.705 467.662 103.139C468.412 103.565 469.29 103.778 470.296 103.778C470.969 103.778 471.578 103.685 472.124 103.497C472.669 103.301 473.142 103.016 473.543 102.641C473.943 102.266 474.246 101.801 474.45 101.247L478.771 101.733C478.499 102.875 477.979 103.872 477.212 104.724C476.453 105.568 475.482 106.224 474.297 106.693C473.112 107.153 471.757 107.384 470.232 107.384ZM501.813 107.384C499.896 107.384 498.234 106.962 496.828 106.118C495.421 105.274 494.33 104.094 493.555 102.577C492.788 101.06 492.404 99.2869 492.404 97.2585C492.404 95.2301 492.788 93.4531 493.555 91.9276C494.33 90.402 495.421 89.2173 496.828 88.3736C498.234 87.5298 499.896 87.108 501.813 87.108C503.731 87.108 505.393 87.5298 506.799 88.3736C508.205 89.2173 509.292 90.402 510.059 91.9276C510.835 93.4531 511.222 95.2301 511.222 97.2585C511.222 99.2869 510.835 101.06 510.059 102.577C509.292 104.094 508.205 105.274 506.799 106.118C505.393 106.962 503.731 107.384 501.813 107.384ZM501.839 103.676C502.879 103.676 503.748 103.391 504.447 102.82C505.146 102.24 505.666 101.464 506.007 100.493C506.356 99.5213 506.531 98.4389 506.531 97.2457C506.531 96.044 506.356 94.9574 506.007 93.9858C505.666 93.0057 505.146 92.2259 504.447 91.6463C503.748 91.0668 502.879 90.777 501.839 90.777C500.774 90.777 499.887 91.0668 499.18 91.6463C498.481 92.2259 497.957 93.0057 497.607 93.9858C497.266 94.9574 497.096 96.044 497.096 97.2457C497.096 98.4389 497.266 99.5213 497.607 100.493C497.957 101.464 498.481 102.24 499.18 102.82C499.887 103.391 500.774 103.676 501.839 103.676ZM515.87 107V87.3636H520.358V90.6364H520.562C520.92 89.5028 521.534 88.6293 522.403 88.0156C523.281 87.3935 524.282 87.0824 525.407 87.0824C525.663 87.0824 525.948 87.0952 526.264 87.1207C526.588 87.1378 526.856 87.1676 527.069 87.2102V91.4673C526.873 91.3991 526.562 91.3395 526.136 91.2884C525.718 91.2287 525.314 91.1989 524.921 91.1989C524.078 91.1989 523.319 91.3821 522.646 91.7486C521.981 92.1065 521.457 92.6051 521.073 93.2443C520.69 93.8835 520.498 94.6207 520.498 95.456V107H515.87ZM553.029 98.7415V87.3636H557.657V107H553.17V103.51H552.965C552.522 104.609 551.793 105.509 550.779 106.207C549.773 106.906 548.533 107.256 547.059 107.256C545.772 107.256 544.634 106.97 543.646 106.399C542.665 105.82 541.898 104.98 541.344 103.881C540.79 102.773 540.513 101.435 540.513 99.8665V87.3636H545.141V99.1506C545.141 100.395 545.482 101.384 546.164 102.116C546.846 102.849 547.741 103.216 548.849 103.216C549.531 103.216 550.191 103.05 550.83 102.717C551.469 102.385 551.994 101.891 552.403 101.234C552.82 100.57 553.029 99.7386 553.029 98.7415ZM563.136 114.364V87.3636H567.687V90.6108H567.955C568.194 90.1335 568.531 89.6264 568.965 89.0895C569.4 88.544 569.988 88.0795 570.73 87.696C571.471 87.304 572.417 87.108 573.568 87.108C575.085 87.108 576.453 87.4957 577.671 88.2713C578.899 89.0384 579.87 90.1761 580.586 91.6847C581.311 93.1847 581.673 95.0256 581.673 97.2074C581.673 99.3636 581.319 101.196 580.612 102.705C579.904 104.213 578.941 105.364 577.722 106.156C576.504 106.949 575.123 107.345 573.58 107.345C572.455 107.345 571.522 107.158 570.781 106.783C570.039 106.408 569.443 105.956 568.991 105.428C568.548 104.891 568.203 104.384 567.955 103.906H567.764V114.364H563.136ZM567.674 97.1818C567.674 98.4517 567.853 99.5639 568.211 100.518C568.578 101.473 569.102 102.219 569.784 102.756C570.474 103.284 571.309 103.548 572.289 103.548C573.312 103.548 574.168 103.276 574.859 102.73C575.549 102.176 576.069 101.422 576.418 100.467C576.776 99.5043 576.955 98.4091 576.955 97.1818C576.955 95.9631 576.781 94.8807 576.431 93.9347C576.082 92.9886 575.562 92.2472 574.872 91.7102C574.181 91.1733 573.32 90.9048 572.289 90.9048C571.301 90.9048 570.461 91.1648 569.771 91.6847C569.08 92.2045 568.556 92.9332 568.198 93.8707C567.849 94.8082 567.674 95.9119 567.674 97.1818ZM590.984 80.8182V107H586.356V80.8182H590.984ZM605.028 107.384C603.11 107.384 601.448 106.962 600.042 106.118C598.636 105.274 597.545 104.094 596.769 102.577C596.002 101.06 595.619 99.2869 595.619 97.2585C595.619 95.2301 596.002 93.4531 596.769 91.9276C597.545 90.402 598.636 89.2173 600.042 88.3736C601.448 87.5298 603.11 87.108 605.028 87.108C606.945 87.108 608.607 87.5298 610.014 88.3736C611.42 89.2173 612.507 90.402 613.274 91.9276C614.049 93.4531 614.437 95.2301 614.437 97.2585C614.437 99.2869 614.049 101.06 613.274 102.577C612.507 104.094 611.42 105.274 610.014 106.118C608.607 106.962 606.945 107.384 605.028 107.384ZM605.053 103.676C606.093 103.676 606.963 103.391 607.661 102.82C608.36 102.24 608.88 101.464 609.221 100.493C609.57 99.5213 609.745 98.4389 609.745 97.2457C609.745 96.044 609.57 94.9574 609.221 93.9858C608.88 93.0057 608.36 92.2259 607.661 91.6463C606.963 91.0668 606.093 90.777 605.053 90.777C603.988 90.777 603.102 91.0668 602.394 91.6463C601.695 92.2259 601.171 93.0057 600.822 93.9858C600.481 94.9574 600.311 96.044 600.311 97.2457C600.311 98.4389 600.481 99.5213 600.822 100.493C601.171 101.464 601.695 102.24 602.394 102.82C603.102 103.391 603.988 103.676 605.053 103.676ZM624.735 107.396C623.491 107.396 622.37 107.175 621.373 106.732C620.385 106.28 619.6 105.615 619.021 104.737C618.45 103.859 618.164 102.777 618.164 101.49C618.164 100.382 618.369 99.4659 618.778 98.7415C619.187 98.017 619.745 97.4375 620.453 97.0028C621.16 96.5682 621.957 96.2401 622.843 96.0185C623.738 95.7884 624.663 95.6222 625.618 95.5199C626.768 95.4006 627.701 95.294 628.417 95.2003C629.133 95.098 629.653 94.9446 629.977 94.7401C630.309 94.527 630.475 94.1989 630.475 93.7557V93.679C630.475 92.7159 630.19 91.9702 629.619 91.4418C629.048 90.9134 628.225 90.6491 627.152 90.6491C626.018 90.6491 625.119 90.8963 624.454 91.3906C623.798 91.8849 623.355 92.4687 623.125 93.142L618.804 92.5284C619.145 91.3352 619.707 90.3381 620.491 89.5369C621.275 88.7273 622.234 88.1222 623.368 87.7216C624.501 87.3125 625.754 87.108 627.126 87.108C628.072 87.108 629.014 87.2188 629.951 87.4403C630.889 87.6619 631.745 88.0284 632.521 88.5398C633.297 89.0426 633.919 89.7287 634.387 90.598C634.865 91.4673 635.103 92.554 635.103 93.858V107H630.654V104.303H630.501C630.22 104.848 629.824 105.359 629.312 105.837C628.809 106.305 628.174 106.685 627.407 106.974C626.649 107.256 625.758 107.396 624.735 107.396ZM625.937 103.996C626.866 103.996 627.672 103.812 628.353 103.446C629.035 103.071 629.559 102.577 629.926 101.963C630.301 101.349 630.488 100.68 630.488 99.956V97.642C630.343 97.7614 630.096 97.8722 629.747 97.9744C629.406 98.0767 629.022 98.1662 628.596 98.2429C628.17 98.3196 627.748 98.3878 627.331 98.4474C626.913 98.5071 626.551 98.5582 626.244 98.6009C625.554 98.6946 624.936 98.848 624.39 99.0611C623.845 99.2741 623.414 99.5724 623.099 99.956C622.784 100.331 622.626 100.817 622.626 101.413C622.626 102.266 622.937 102.909 623.559 103.344C624.181 103.778 624.974 103.996 625.937 103.996ZM647.764 107.345C646.221 107.345 644.84 106.949 643.622 106.156C642.403 105.364 641.44 104.213 640.732 102.705C640.025 101.196 639.671 99.3636 639.671 97.2074C639.671 95.0256 640.029 93.1847 640.745 91.6847C641.47 90.1761 642.445 89.0384 643.673 88.2713C644.9 87.4957 646.268 87.108 647.776 87.108C648.927 87.108 649.873 87.304 650.615 87.696C651.356 88.0795 651.944 88.544 652.379 89.0895C652.813 89.6264 653.15 90.1335 653.389 90.6108H653.58V80.8182H658.221V107H653.67V103.906H653.389C653.15 104.384 652.805 104.891 652.353 105.428C651.901 105.956 651.305 106.408 650.563 106.783C649.822 107.158 648.889 107.345 647.764 107.345ZM649.055 103.548C650.035 103.548 650.87 103.284 651.561 102.756C652.251 102.219 652.775 101.473 653.133 100.518C653.491 99.5639 653.67 98.4517 653.67 97.1818C653.67 95.9119 653.491 94.8082 653.133 93.8707C652.784 92.9332 652.264 92.2045 651.573 91.6847C650.892 91.1648 650.052 90.9048 649.055 90.9048C648.024 90.9048 647.163 91.1733 646.472 91.7102C645.782 92.2472 645.262 92.9886 644.913 93.9347C644.563 94.8807 644.389 95.9631 644.389 97.1818C644.389 98.4091 644.563 99.5043 644.913 100.467C645.271 101.422 645.795 102.176 646.485 102.73C647.184 103.276 648.041 103.548 649.055 103.548ZM683.328 87.3636V90.9432H672.039V87.3636H683.328ZM674.826 82.6591H679.454V101.094C679.454 101.716 679.548 102.193 679.735 102.526C679.931 102.849 680.187 103.071 680.502 103.19C680.818 103.31 681.167 103.369 681.551 103.369C681.84 103.369 682.105 103.348 682.343 103.305C682.59 103.263 682.778 103.224 682.906 103.19L683.686 106.808C683.438 106.893 683.085 106.987 682.624 107.089C682.173 107.192 681.619 107.251 680.963 107.268C679.803 107.303 678.759 107.128 677.83 106.744C676.901 106.352 676.164 105.747 675.619 104.929C675.082 104.111 674.818 103.088 674.826 101.861V82.6591ZM692.968 95.4943V107H688.34V80.8182H692.865V90.7003H693.096C693.556 89.5923 694.267 88.7187 695.231 88.0795C696.202 87.4318 697.438 87.108 698.938 87.108C700.302 87.108 701.49 87.3935 702.505 87.9645C703.519 88.5355 704.303 89.3707 704.857 90.4702C705.419 91.5696 705.701 92.9119 705.701 94.4972V107H701.073V95.2131C701.073 93.892 700.732 92.8651 700.05 92.1321C699.377 91.3906 698.431 91.0199 697.212 91.0199C696.394 91.0199 695.661 91.1989 695.013 91.5568C694.374 91.9062 693.871 92.4134 693.505 93.0781C693.147 93.7429 692.968 94.5483 692.968 95.4943ZM719.831 107.384C717.862 107.384 716.162 106.974 714.73 106.156C713.307 105.33 712.212 104.162 711.445 102.653C710.678 101.136 710.294 99.3509 710.294 97.2969C710.294 95.277 710.678 93.5043 711.445 91.9787C712.22 90.4446 713.303 89.2514 714.692 88.3991C716.081 87.5384 717.713 87.108 719.588 87.108C720.798 87.108 721.941 87.304 723.014 87.696C724.097 88.0795 725.051 88.6761 725.878 89.4858C726.713 90.2955 727.37 91.3267 727.847 92.5795C728.324 93.8239 728.563 95.3068 728.563 97.0284V98.4474H712.468V95.3281H724.127C724.118 94.4418 723.926 93.6534 723.551 92.9631C723.176 92.2642 722.652 91.7145 721.979 91.3139C721.314 90.9134 720.539 90.7131 719.652 90.7131C718.706 90.7131 717.875 90.9432 717.159 91.4034C716.443 91.8551 715.885 92.4517 715.485 93.1932C715.093 93.9261 714.892 94.7315 714.884 95.6094V98.3324C714.884 99.4744 715.093 100.455 715.51 101.273C715.928 102.082 716.512 102.705 717.262 103.139C718.012 103.565 718.889 103.778 719.895 103.778C720.568 103.778 721.178 103.685 721.723 103.497C722.269 103.301 722.742 103.016 723.142 102.641C723.543 102.266 723.845 101.801 724.05 101.247L728.371 101.733C728.098 102.875 727.578 103.872 726.811 104.724C726.053 105.568 725.081 106.224 723.896 106.693C722.712 107.153 721.357 107.384 719.831 107.384ZM752.794 87.3636V90.9432H741.186V87.3636H752.794ZM744.088 107V85.5099C744.088 84.1889 744.36 83.0895 744.906 82.2116C745.46 81.3338 746.201 80.6776 747.13 80.2429C748.059 79.8082 749.09 79.5909 750.224 79.5909C751.025 79.5909 751.737 79.6548 752.359 79.7827C752.981 79.9105 753.441 80.0256 753.74 80.1278L752.819 83.7074C752.623 83.6477 752.376 83.5881 752.078 83.5284C751.779 83.4602 751.447 83.4261 751.08 83.4261C750.22 83.4261 749.61 83.6349 749.252 84.0526C748.903 84.4616 748.728 85.0497 748.728 85.8168V107H744.088ZM757.138 107V87.3636H761.766V107H757.138ZM759.465 84.5767C758.732 84.5767 758.101 84.3338 757.573 83.848C757.044 83.3537 756.78 82.7614 756.78 82.071C756.78 81.3722 757.044 80.7798 757.573 80.294C758.101 79.7997 758.732 79.5526 759.465 79.5526C760.206 79.5526 760.837 79.7997 761.357 80.294C761.885 80.7798 762.149 81.3722 762.149 82.071C762.149 82.7614 761.885 83.3537 761.357 83.848C760.837 84.3338 760.206 84.5767 759.465 84.5767ZM771.872 80.8182V107H767.245V80.8182H771.872ZM786.044 107.384C784.076 107.384 782.375 106.974 780.944 106.156C779.52 105.33 778.425 104.162 777.658 102.653C776.891 101.136 776.508 99.3509 776.508 97.2969C776.508 95.277 776.891 93.5043 777.658 91.9787C778.434 90.4446 779.516 89.2514 780.905 88.3991C782.294 87.5384 783.927 87.108 785.802 87.108C787.012 87.108 788.154 87.304 789.228 87.696C790.31 88.0795 791.265 88.6761 792.091 89.4858C792.927 90.2955 793.583 91.3267 794.06 92.5795C794.537 93.8239 794.776 95.3068 794.776 97.0284V98.4474H778.681V95.3281H790.34C790.331 94.4418 790.14 93.6534 789.765 92.9631C789.39 92.2642 788.865 91.7145 788.192 91.3139C787.527 90.9134 786.752 90.7131 785.865 90.7131C784.919 90.7131 784.089 90.9432 783.373 91.4034C782.657 91.8551 782.098 92.4517 781.698 93.1932C781.306 93.9261 781.106 94.7315 781.097 95.6094V98.3324C781.097 99.4744 781.306 100.455 781.723 101.273C782.141 102.082 782.725 102.705 783.475 103.139C784.225 103.565 785.103 103.778 786.108 103.778C786.782 103.778 787.391 103.685 787.937 103.497C788.482 103.301 788.955 103.016 789.356 102.641C789.756 102.266 790.059 101.801 790.263 101.247L794.584 101.733C794.312 102.875 793.792 103.872 793.025 104.724C792.266 105.568 791.294 106.224 790.11 106.693C788.925 107.153 787.57 107.384 786.044 107.384Z" fill="white"/>
<defs>
<filter id="filter0_d_561_12486" x="12.1387" y="0.302979" width="977.32" height="186.18" filterUnits="userSpaceOnUse" color-interpolation-filters="sRGB">
<feFlood flood-opacity="0" result="BackgroundImageFix"/>
<feColorMatrix in="SourceAlpha" type="matrix" values="0 0 0 0 0 0 0 0 0 0 0 0 0 0 0 0 0 0 127 0" result="hardAlpha"/>
<feOffset dx="4" dy="4"/>
<feGaussianBlur stdDeviation="5"/>
<feComposite in2="hardAlpha" operator="out"/>
<feColorMatrix type="matrix" values="0 0 0 0 0.00784314 0 0 0 0 0.105882 0 0 0 0 0.270588 0 0 0 1 0"/>
<feBlend mode="normal" in2="BackgroundImageFix" result="effect1_dropShadow_561_12486"/>
<feBlend mode="normal" in="SourceGraphic" in2="effect1_dropShadow_561_12486" result="shape"/>
</filter>
<linearGradient id="paint0_linear_561_12486" x1="966.908" y1="94.7533" x2="-43.6242" y2="68.6551" gradientUnits="userSpaceOnUse">
<stop offset="0.0406034" stop-color="#00339D"/>
<stop offset="0.207701" stop-color="#1159C7"/>
<stop offset="0.475854" stop-color="#003174"/>
<stop offset="0.685836" stop-color="#022A67"/>
<stop offset="1" stop-color="#041D63"/>
</linearGradient>
</defs>
</svg>
