<svg width="1064" height="456" viewBox="0 0 1064 456" fill="none" xmlns="http://www.w3.org/2000/svg">
<path d="M65.45 413.561C85.4882 419.697 416.773 434.575 500.928 433.701C585.083 432.826 982.263 423.931 1004.53 417.932C1026.79 411.933 1036.6 221.012 1036.6 221.012C1036.6 221.012 1036.96 41.5915 1022.08 35.4725C1007.19 29.3536 641.352 12.7108 531.718 15.3332C422.083 17.9556 99.719 26.2855 73.4809 34.5984C47.2429 42.9112 29.4021 200.855 28.0418 217.515C26.6815 234.175 65.45 413.561 65.45 413.561Z" fill="#FFE5C5"/>
<g style="mix-blend-mode:multiply">
<g filter="url(#filter0_d_558_12477)">
<path d="M60.9221 392.388C63.7061 405.494 73.5806 415.085 86.9273 416.265C165.485 423.215 427.437 434.464 500.928 433.701C585.083 432.826 982.263 423.931 1004.53 417.932C1025.93 412.163 1035.83 235.383 1036.55 221.833C1036.59 221.226 1036.6 220.801 1036.6 220.193C1036.6 207.102 1036.37 41.3497 1022.08 35.4725C1007.19 29.3536 641.352 12.7108 531.718 15.3332C422.083 17.9556 99.719 26.2855 73.4809 34.5984C47.2429 42.9112 29.4021 200.855 28.0418 217.515C26.9717 230.621 50.7341 344.424 60.9221 392.388Z" fill="url(#paint0_linear_558_12477)"/>
<path d="M57.0094 393.219C60.1224 407.874 71.3102 418.899 86.5748 420.25C165.244 427.209 427.329 438.465 500.969 437.7C543.081 437.263 663.441 434.82 776.046 431.737C832.351 430.195 886.736 428.493 928.443 426.8C949.294 425.954 966.997 425.11 980.195 424.288C986.791 423.878 992.289 423.471 996.504 423.07C1000.59 422.681 1003.79 422.272 1005.57 421.794C1008.11 421.11 1010.07 419.314 1011.57 417.375C1013.1 415.389 1014.46 412.85 1015.69 409.982C1018.16 404.234 1020.37 396.524 1022.36 387.639C1026.36 369.827 1029.65 346.593 1032.27 323.247C1037.52 276.518 1040.18 228.842 1040.55 222.047C1040.58 221.369 1040.6 220.873 1040.6 220.195C1040.6 213.635 1040.54 168.856 1038.7 124.959C1037.77 103.026 1036.4 81.2191 1034.35 64.4868C1033.33 56.1405 1032.12 48.9145 1030.67 43.5232C1029.95 40.84 1029.13 38.4483 1028.16 36.5515C1027.28 34.8307 1025.88 32.7121 1023.6 31.7729C1022.72 31.4096 1021.54 31.1487 1020.41 30.9366C1019.17 30.7069 1017.64 30.4759 1015.84 30.2425C1012.24 29.775 1007.43 29.2782 1001.59 28.7585C989.892 27.7184 973.912 26.574 954.847 25.3833C916.709 23.0014 866.129 20.4281 812.601 18.1285C705.594 13.5316 586.594 10.0194 531.622 11.3343C476.801 12.6456 368.783 15.3841 271.184 18.8344C222.388 20.5594 176.175 22.463 140.509 24.4562C122.68 25.4526 107.456 26.473 95.8522 27.5072C90.0522 28.0241 85.1237 28.5473 81.21 29.0771C77.377 29.5959 74.2744 30.151 72.2728 30.7852C67.4787 32.3041 63.681 36.856 60.5957 42.1464C57.3935 47.6374 54.4367 54.8503 51.7065 63.0844C46.2369 79.5804 41.4654 100.834 37.4994 122.197C29.563 164.947 24.7456 208.733 24.0551 217.19C23.8816 219.315 24.2038 222.944 24.7615 227.329C25.3386 231.867 26.2289 237.635 27.3509 244.288C29.5962 257.602 32.7925 274.596 36.335 292.65C43.4214 328.765 51.9142 369.231 57.0094 393.219Z" stroke="#9DB7FF" stroke-width="8"/>
</g>
</g>
<g style="mix-blend-mode:multiply">
<path d="M67.1062 35.2562C10.1045 59.0121 1.31492 385.493 67.1062 410.98C132.897 436.467 993.991 439.278 1016.7 410.98C1039.4 382.682 1061.48 62.7657 1016.7 35.2562C971.912 7.74667 124.16 11.4832 67.1062 35.2562ZM838.551 34.3649C955.223 38.3071 986.379 43.9461 993.599 45.763C1000.66 54.3329 1011.44 91.4922 1011.44 182.882C1011.44 284.007 999.014 379.837 989.936 402.17C979.237 404.364 944.131 409.351 837.452 412.951C754.841 415.727 647.273 417.064 534.551 416.704C422.614 416.344 315.099 414.356 231.807 411.117C104.802 406.163 79.375 400.01 75.6865 398.879C74.0646 397.799 61.508 388.252 51.9336 344.58C45.3153 314.311 41.6791 274.306 41.6791 231.936C41.6791 187.561 45.5507 143.992 52.5876 109.283C62.2667 61.4631 73.96 49.3795 76.5498 47.2028C81.991 45.8144 110.557 40.3468 232.304 35.8218C316.171 32.7367 423.765 30.8684 535.284 30.5771C648.633 30.2171 756.332 31.5882 838.551 34.3649Z" fill="#BCB7B5"/>
</g>
<path d="M72.0692 34.5983C14.5182 58.7656 5.54544 390.714 72.0692 416.646C138.593 442.579 1009.42 445.407 1032.26 416.646C1055.09 387.886 1077.54 62.5877 1032.26 34.5983C986.973 6.60886 129.777 10.4653 72.0692 34.5983ZM852.225 33.707C970.231 37.7177 1001.73 43.4425 1009.03 45.2936C1016.17 54.0692 1027.08 91.7769 1027.08 184.641C1027.08 287.48 1014.52 384.903 1005.34 407.614C994.481 409.842 958.982 414.915 851.127 418.566C767.573 421.394 658.802 422.765 544.798 422.388C431.606 422.028 322.861 420.006 238.732 416.715C110.314 411.676 84.5996 405.42 80.8588 404.271C79.2107 403.174 66.4972 393.473 56.8443 349.064C50.1475 318.212 46.3805 277.608 46.3805 234.518C46.3805 189.389 50.3044 145.099 57.4198 109.808C67.2035 61.1823 79.0276 48.8929 81.6697 46.6819C87.1632 45.2764 115.965 39.6717 239.15 35.1125C323.986 31.9759 432.731 30.0734 545.557 29.782C660.162 29.4563 769.012 30.8961 852.225 33.7413V33.707Z" fill="#032064"/>
<path d="M48.0205 22.4461C-11.3878 48.156 -20.4652 401.238 48.0205 428.816C116.506 456.394 1012.94 459.411 1036.49 428.816C1060.03 398.221 1083.08 52.201 1036.49 22.4461C989.895 -7.30872 107.403 -3.2637 48.0205 22.4461ZM847.221 29.4564C965.226 33.5528 996.723 39.4146 1004.02 41.3C1011.16 50.2813 1022.07 88.829 1022.07 183.767C1022.07 288.954 1009.51 388.503 1000.33 411.727C989.503 414.007 954.004 419.2 846.122 422.937C762.595 425.833 653.797 427.222 539.794 426.845C426.601 426.485 317.882 424.411 233.727 421.034C105.284 415.892 79.5689 409.482 75.8281 408.316C74.1801 407.202 61.4927 397.278 51.8136 351.875C45.143 320.406 41.3498 278.825 41.3498 234.775C41.3498 188.634 45.2476 143.351 52.363 107.272C62.1467 57.5659 73.9708 45.0194 76.6129 42.757C82.1064 41.3001 110.908 35.5753 234.093 30.9132C318.929 27.7081 427.674 25.7713 540.5 25.4628C655.157 25.12 764.086 26.5426 847.221 29.4564Z" fill="#4091FF"/>
<path opacity="0.1" d="M48.3942 20.8864C-11.4588 46.7163 -20.6408 401.632 48.3942 429.364C117.429 457.097 986.371 460.113 1010.07 429.364C1033.77 398.615 1057.16 50.7956 1010.07 20.8864C962.984 -9.02264 108.273 -4.82336 48.3942 20.8864ZM835.98 22.6004C956.314 26.834 1000.42 32.8844 1007.87 34.8212C1015.15 44.0939 1025.9 83.8756 1025.9 181.83C1025.9 290.394 1013.47 393.113 1004.08 417.058C993.041 419.423 944.96 424.788 834.855 428.627C749.601 431.61 638.658 433.049 522.222 432.672C406.701 432.278 295.733 430.153 209.772 426.673C78.687 421.36 52.4489 414.675 48.6296 413.544C46.9554 412.396 33.9803 402.146 24.1181 355.269C17.2905 322.823 13.6543 279.853 13.6543 234.449C13.6543 186.835 17.6567 140.18 24.9291 102.867C34.7912 51.7383 46.8508 38.7634 49.6237 36.4152C55.2218 34.924 84.599 29.0279 210.348 24.2116C296.831 20.8865 408.009 18.8982 523.111 18.5897C639.966 18.264 751.118 19.7381 835.98 22.7204V22.6004Z" fill="white"/>
<defs>
<filter id="filter0_d_558_12477" x="14.0088" y="1.05542" width="1044.59" height="454.682" filterUnits="userSpaceOnUse" color-interpolation-filters="sRGB">
<feFlood flood-opacity="0" result="BackgroundImageFix"/>
<feColorMatrix in="SourceAlpha" type="matrix" values="0 0 0 0 0 0 0 0 0 0 0 0 0 0 0 0 0 0 127 0" result="hardAlpha"/>
<feOffset dx="4" dy="4"/>
<feGaussianBlur stdDeviation="5"/>
<feComposite in2="hardAlpha" operator="out"/>
<feColorMatrix type="matrix" values="0 0 0 0 0.00784314 0 0 0 0 0.105882 0 0 0 0 0.270588 0 0 0 1 0"/>
<feBlend mode="normal" in2="BackgroundImageFix" result="effect1_dropShadow_558_12477"/>
<feBlend mode="normal" in="SourceGraphic" in2="effect1_dropShadow_558_12477" result="shape"/>
</filter>
<linearGradient id="paint0_linear_558_12477" x1="1036" y1="209.453" x2="-47.3564" y2="220.206" gradientUnits="userSpaceOnUse">
<stop offset="0.0406034" stop-color="#00339D"/>
<stop offset="0.207701" stop-color="#1159C7"/>
<stop offset="0.475854" stop-color="#003174"/>
<stop offset="0.685836" stop-color="#022A67"/>
<stop offset="1" stop-color="#041D63"/>
</linearGradient>
</defs>
</svg>
