<svg width="346" height="106" viewBox="0 0 346 106" fill="none" xmlns="http://www.w3.org/2000/svg">
<path d="M4 53C4 25.938 25.9381 4 53 4H293C320.062 4 342 25.938 342 53C342 80.062 320.062 102 293 102H53C25.938 102 4 80.062 4 53Z" fill="#1A2B5E" stroke="#9DB7FF" stroke-width="8"/>
<path d="M85.057 69V63.36H88.337L88.257 45.16H85.057V39.52H98.657V45.16H95.417L95.337 63.36H98.657V69H85.057ZM106.054 69V39.52H113.374L120.974 57.44L128.574 39.52H135.854V69H128.894V52.8L122.734 67.72H119.214L113.014 52.8V69H106.054ZM144.445 69V39.52H164.165L168.605 43.96V55.32L164.165 59.76H151.925V69H144.445ZM151.925 54.08H159.965L161.365 52.68V46.6L159.965 45.2H151.925V54.08ZM178.663 69L174.223 64.56V43.96L178.663 39.52H195.943L200.383 43.96V64.56L195.943 69H178.663ZM183.143 63.32H191.543L192.943 61.92V46.6L191.463 45.2H183.143L181.703 46.6V61.92L183.143 63.32ZM208.179 69V39.52H228.259L232.739 43.96V54.52L229.379 57.88L233.859 69H226.339L222.459 58.96H215.659V69H208.179ZM215.659 53.28H224.059L225.459 51.88V46.6L224.059 45.2H215.659V53.28ZM245.608 69V45.6H237.368V39.52H261.328V45.6H253.088V69H245.608Z" fill="white"/>
</svg>
