<svg width="470" height="106" viewBox="0 0 470 106" fill="none" xmlns="http://www.w3.org/2000/svg">
<path d="M4 31C4 16.0883 16.0883 4 31 4H439C453.912 4 466 16.0883 466 31V75C466 89.9117 453.912 102 439 102H31C16.0883 102 4 89.9117 4 75V31Z" fill="#1A2B5E" stroke="#9DB7FF" stroke-width="8"/>
<path d="M31.36 71V35.624H40.336V63.704H56.56V71H31.36ZM64.2569 71V35.624H91.1369V42.92H73.2329V49.448H89.3609V56.216H73.2329V63.704H91.1369V71H64.2569ZM97.1219 71L107.49 35.624H122.082L132.45 71H122.946L121.17 63.944H108.402L106.626 71H97.1219ZM110.178 57.032H119.394L115.65 42.392H113.922L110.178 57.032ZM139.426 71V35.624H162.514L169.858 42.968V63.656L162.514 71H139.426ZM148.402 64.184H158.626L161.17 61.64V44.984L158.626 42.44H148.402V64.184ZM178.744 71V35.624H205.624V42.92H187.72V49.448H203.848V56.216H187.72V63.704H205.624V71H178.744ZM214.969 71V35.624H239.065L244.441 40.952V53.624L240.409 57.656L245.785 71H236.761L232.105 58.952H223.945V71H214.969ZM223.945 52.136H234.025L235.705 50.456V44.12L234.025 42.44H223.945V52.136ZM254.194 71V35.624H277.81L283.138 40.952V49.448L280.738 51.896L284.53 55.448V65.672L279.202 71H254.194ZM263.17 49.352H272.866L274.546 47.672V44.12L272.866 42.44H263.17V49.352ZM263.17 64.184H273.874L275.554 62.504V57.272L273.874 55.592H263.17V64.184ZM297.506 71L292.178 65.672V40.952L297.506 35.624H318.242L323.57 40.952V65.672L318.242 71H297.506ZM302.882 64.184H312.962L314.642 62.504V44.12L312.866 42.44H302.882L301.154 44.12V62.504L302.882 64.184ZM329.05 71L339.418 35.624H354.01L364.378 71H354.874L353.098 63.944H340.33L338.554 71H329.05ZM342.106 57.032H351.322L347.578 42.392H345.85L342.106 57.032ZM371.354 71V35.624H395.45L400.826 40.952V53.624L396.794 57.656L402.17 71H393.146L388.49 58.952H380.33V71H371.354ZM380.33 52.136H390.41L392.09 50.456V44.12L390.41 42.44H380.33V52.136ZM410.579 71V35.624H433.667L441.011 42.968V63.656L433.667 71H410.579ZM419.555 64.184H429.779L432.323 61.64V44.984L429.779 42.44H419.555V64.184Z" fill="white"/>
</svg>
