<svg width="235" height="24" viewBox="0 0 235 24" fill="none" xmlns="http://www.w3.org/2000/svg">
<path d="M10.352 17.624C10.032 17.624 9.776 17.5387 9.584 17.368C9.41333 17.176 9.27467 16.9947 9.168 16.824L6.16 11.544V22.136C6.16 22.3707 6.07467 22.5733 5.904 22.744C5.73333 22.9147 5.53067 23 5.296 23H1.104C0.869333 23 0.666667 22.9147 0.496 22.744C0.325333 22.5733 0.24 22.3707 0.24 22.136V1.464C0.24 1.22933 0.325333 1.02667 0.496 0.855999C0.666667 0.685332 0.869333 0.599998 1.104 0.599998H4.816C5.24267 0.599998 5.56267 0.717332 5.776 0.952C5.98933 1.18667 6.128 1.35733 6.192 1.464L11.376 10.328L16.56 1.464C16.624 1.35733 16.7627 1.18667 16.976 0.952C17.1893 0.717332 17.5093 0.599998 17.936 0.599998H21.648C21.8827 0.599998 22.0853 0.685332 22.256 0.855999C22.4267 1.02667 22.512 1.22933 22.512 1.464V22.136C22.512 22.3707 22.4267 22.5733 22.256 22.744C22.0853 22.9147 21.8827 23 21.648 23H17.456C17.2213 23 17.0187 22.9147 16.848 22.744C16.6773 22.5733 16.592 22.3707 16.592 22.136V11.544L13.584 16.824C13.4773 16.9947 13.328 17.176 13.136 17.368C12.9653 17.5387 12.72 17.624 12.4 17.624H10.352ZM38.83 0.599998C39.2567 0.599998 39.5767 0.717332 39.79 0.952C40.0247 1.18667 40.1847 1.42133 40.27 1.656L47.246 21.816C47.3313 22.0293 47.374 22.1893 47.374 22.296C47.374 22.488 47.2993 22.6587 47.15 22.808C47.022 22.936 46.862 23 46.67 23H42.638C42.2113 23 41.902 22.9147 41.71 22.744C41.5393 22.552 41.4327 22.3707 41.39 22.2L40.494 19.544H31.982L31.086 22.2C31.0433 22.3707 30.926 22.552 30.734 22.744C30.5633 22.9147 30.2647 23 29.838 23H25.806C25.614 23 25.4433 22.936 25.294 22.808C25.166 22.6587 25.102 22.488 25.102 22.296C25.102 22.1893 25.1447 22.0293 25.23 21.816L32.206 1.656C32.2913 1.42133 32.4407 1.18667 32.654 0.952C32.8887 0.717332 33.2193 0.599998 33.646 0.599998H38.83ZM33.646 14.584H38.83L36.238 6.904L33.646 14.584ZM68.9348 21.944C68.9988 22.0293 69.0308 22.1467 69.0308 22.296C69.0308 22.488 68.9561 22.6587 68.8068 22.808C68.6788 22.936 68.5188 23 68.3268 23H63.2388C62.9401 23 62.6948 22.936 62.5028 22.808C62.3108 22.68 62.1188 22.4987 61.9268 22.264L55.8788 14.648V22.136C55.8788 22.3707 55.7934 22.5733 55.6228 22.744C55.4521 22.9147 55.2494 23 55.0148 23H50.8228C50.5881 23 50.3854 22.9147 50.2148 22.744C50.0441 22.5733 49.9588 22.3707 49.9588 22.136V1.464C49.9588 1.22933 50.0441 1.02667 50.2148 0.855999C50.3854 0.685332 50.5881 0.599998 50.8228 0.599998H55.0148C55.2494 0.599998 55.4521 0.685332 55.6228 0.855999C55.7934 1.02667 55.8788 1.22933 55.8788 1.464V8.216L61.5108 1.304C61.6174 1.176 61.7561 1.02667 61.9268 0.855999C62.0974 0.685332 62.3854 0.599998 62.7908 0.599998H67.7828C67.9748 0.599998 68.1348 0.674665 68.2628 0.823999C68.4121 0.951999 68.4868 1.112 68.4868 1.304C68.4868 1.45333 68.4548 1.57067 68.3908 1.656L60.4868 11.32L68.9348 21.944ZM87.522 17.88C87.7567 17.88 87.9593 17.9653 88.13 18.136C88.3007 18.3067 88.386 18.5093 88.386 18.744V22.136C88.386 22.3707 88.3007 22.5733 88.13 22.744C87.9593 22.9147 87.7567 23 87.522 23H72.354C72.1193 23 71.9167 22.9147 71.746 22.744C71.5753 22.5733 71.49 22.3707 71.49 22.136V1.464C71.49 1.22933 71.5753 1.02667 71.746 0.855999C71.9167 0.685332 72.1193 0.599998 72.354 0.599998H87.266C87.5007 0.599998 87.7033 0.685332 87.874 0.855999C88.0447 1.02667 88.13 1.22933 88.13 1.464V4.856C88.13 5.09067 88.0447 5.29333 87.874 5.464C87.7033 5.63467 87.5007 5.72 87.266 5.72H77.41V9.176H86.562C86.7967 9.176 86.9993 9.26133 87.17 9.432C87.3407 9.60267 87.426 9.80533 87.426 10.04V13.432C87.426 13.6667 87.3407 13.8693 87.17 14.04C86.9993 14.2107 86.7967 14.296 86.562 14.296H77.41V17.88H87.522ZM114.501 0.599998C114.735 0.599998 114.938 0.685332 115.109 0.855999C115.279 1.02667 115.365 1.22933 115.365 1.464V4.856C115.365 5.09067 115.279 5.29333 115.109 5.464C114.938 5.63467 114.735 5.72 114.501 5.72H108.869V22.136C108.869 22.3707 108.783 22.5733 108.613 22.744C108.442 22.9147 108.239 23 108.005 23H103.812C103.578 23 103.375 22.9147 103.205 22.744C103.034 22.5733 102.949 22.3707 102.949 22.136V5.72H97.3165C97.0818 5.72 96.8792 5.63467 96.7085 5.464C96.5378 5.29333 96.4525 5.09067 96.4525 4.856V1.464C96.4525 1.22933 96.5378 1.02667 96.7085 0.855999C96.8792 0.685332 97.0818 0.599998 97.3165 0.599998H114.501ZM134.272 17.88C134.507 17.88 134.709 17.9653 134.88 18.136C135.051 18.3067 135.136 18.5093 135.136 18.744V22.136C135.136 22.3707 135.051 22.5733 134.88 22.744C134.709 22.9147 134.507 23 134.272 23H119.104C118.869 23 118.667 22.9147 118.496 22.744C118.325 22.5733 118.24 22.3707 118.24 22.136V1.464C118.24 1.22933 118.325 1.02667 118.496 0.855999C118.667 0.685332 118.869 0.599998 119.104 0.599998H134.016C134.251 0.599998 134.453 0.685332 134.624 0.855999C134.795 1.02667 134.88 1.22933 134.88 1.464V4.856C134.88 5.09067 134.795 5.29333 134.624 5.464C134.453 5.63467 134.251 5.72 134.016 5.72H124.16V9.176H133.312C133.547 9.176 133.749 9.26133 133.92 9.432C134.091 9.60267 134.176 9.80533 134.176 10.04V13.432C134.176 13.6667 134.091 13.8693 133.92 14.04C133.749 14.2107 133.547 14.296 133.312 14.296H124.16V17.88H134.272ZM150.643 0.599998C151.069 0.599998 151.389 0.717332 151.603 0.952C151.837 1.18667 151.997 1.42133 152.083 1.656L159.059 21.816C159.144 22.0293 159.187 22.1893 159.187 22.296C159.187 22.488 159.112 22.6587 158.963 22.808C158.835 22.936 158.675 23 158.483 23H154.451C154.024 23 153.715 22.9147 153.523 22.744C153.352 22.552 153.245 22.3707 153.203 22.2L152.307 19.544H143.795L142.899 22.2C142.856 22.3707 142.739 22.552 142.547 22.744C142.376 22.9147 142.077 23 141.651 23H137.618C137.427 23 137.256 22.936 137.107 22.808C136.979 22.6587 136.915 22.488 136.915 22.296C136.915 22.1893 136.957 22.0293 137.043 21.816L144.019 1.656C144.104 1.42133 144.253 1.18667 144.467 0.952C144.701 0.717332 145.032 0.599998 145.459 0.599998H150.643ZM145.459 14.584H150.643L148.051 6.904L145.459 14.584ZM171.883 17.624C171.563 17.624 171.307 17.5387 171.115 17.368C170.945 17.176 170.806 16.9947 170.699 16.824L167.691 11.544V22.136C167.691 22.3707 167.606 22.5733 167.435 22.744C167.265 22.9147 167.062 23 166.827 23H162.635C162.401 23 162.198 22.9147 162.027 22.744C161.857 22.5733 161.771 22.3707 161.771 22.136V1.464C161.771 1.22933 161.857 1.02667 162.027 0.855999C162.198 0.685332 162.401 0.599998 162.635 0.599998H166.347C166.774 0.599998 167.094 0.717332 167.307 0.952C167.521 1.18667 167.659 1.35733 167.723 1.464L172.907 10.328L178.091 1.464C178.155 1.35733 178.294 1.18667 178.507 0.952C178.721 0.717332 179.041 0.599998 179.467 0.599998H183.179C183.414 0.599998 183.617 0.685332 183.787 0.855999C183.958 1.02667 184.043 1.22933 184.043 1.464V22.136C184.043 22.3707 183.958 22.5733 183.787 22.744C183.617 22.9147 183.414 23 183.179 23H178.987C178.753 23 178.55 22.9147 178.379 22.744C178.209 22.5733 178.123 22.3707 178.123 22.136V11.544L175.115 16.824C175.009 16.9947 174.859 17.176 174.667 17.368C174.497 17.5387 174.251 17.624 173.931 17.624H171.883ZM194.567 8.952C194.631 7.75733 194.887 6.63733 195.335 5.592C195.804 4.52533 196.455 3.608 197.286 2.84C198.14 2.05066 199.164 1.432 200.359 0.983999C201.575 0.514666 202.972 0.279999 204.551 0.279999C206.108 0.279999 207.495 0.514666 208.711 0.983999C209.927 1.432 210.951 2.05066 211.783 2.84C212.636 3.608 213.287 4.52533 213.735 5.592C214.204 6.63733 214.471 7.75733 214.535 8.952C214.577 9.86933 214.599 10.8293 214.599 11.832C214.599 12.8347 214.577 13.7733 214.535 14.648C214.471 15.8427 214.204 16.9733 213.735 18.04C213.287 19.0853 212.636 20.0027 211.783 20.792C210.951 21.5813 209.927 22.2 208.711 22.648C207.495 23.096 206.108 23.32 204.551 23.32C202.972 23.32 201.575 23.096 200.359 22.648C199.164 22.2 198.14 21.5813 197.286 20.792C196.455 20.0027 195.804 19.0853 195.335 18.04C194.887 16.9733 194.631 15.8427 194.567 14.648C194.524 13.7733 194.503 12.8347 194.503 11.832C194.503 10.8293 194.524 9.86933 194.567 8.952ZM208.615 14.488C208.636 14.104 208.657 13.6773 208.679 13.208C208.7 12.7387 208.711 12.2587 208.711 11.768C208.711 11.2773 208.7 10.808 208.679 10.36C208.657 9.89067 208.636 9.47467 208.615 9.112C208.572 8.57867 208.455 8.088 208.263 7.64C208.092 7.192 207.836 6.808 207.495 6.488C207.175 6.14667 206.769 5.88 206.279 5.688C205.788 5.496 205.212 5.4 204.551 5.4C203.889 5.4 203.313 5.496 202.823 5.688C202.332 5.88 201.916 6.14667 201.575 6.488C201.255 6.808 200.999 7.192 200.807 7.64C200.636 8.088 200.529 8.57867 200.487 9.112C200.444 9.47467 200.412 9.89067 200.391 10.36C200.391 10.808 200.391 11.2773 200.391 11.768C200.391 12.2587 200.391 12.7387 200.391 13.208C200.412 13.6773 200.444 14.104 200.487 14.488C200.572 15.5547 200.935 16.44 201.575 17.144C202.236 17.848 203.228 18.2 204.551 18.2C205.873 18.2 206.855 17.848 207.495 17.144C208.135 16.44 208.508 15.5547 208.615 14.488ZM233.759 0.599998C233.994 0.599998 234.197 0.685332 234.367 0.855999C234.538 1.02667 234.623 1.22933 234.623 1.464V4.856C234.623 5.09067 234.538 5.29333 234.367 5.464C234.197 5.63467 233.994 5.72 233.759 5.72H224.191V10.104H233.119C233.354 10.104 233.557 10.1893 233.727 10.36C233.898 10.5307 233.983 10.7333 233.983 10.968V14.36C233.983 14.5947 233.898 14.7973 233.727 14.968C233.557 15.1387 233.354 15.224 233.119 15.224H224.191V22.136C224.191 22.3707 224.106 22.5733 223.935 22.744C223.765 22.9147 223.562 23 223.327 23H219.135C218.901 23 218.698 22.9147 218.527 22.744C218.357 22.5733 218.271 22.3707 218.271 22.136V1.464C218.271 1.22933 218.357 1.02667 218.527 0.855999C218.698 0.685332 218.901 0.599998 219.135 0.599998H233.759Z" fill="white"/>
</svg>
