<svg width="81" height="96" viewBox="0 0 81 96" fill="none" xmlns="http://www.w3.org/2000/svg">
<path d="M29.8516 36.2833V30.7336C29.8516 29.4 30.3812 28.1209 31.3238 27.1778C32.2665 26.2347 33.545 25.7049 34.8781 25.7049H45.712C47.0451 25.7049 48.3235 26.2347 49.2662 27.1778C50.2088 28.1209 50.7384 29.4 50.7384 30.7336V36.2833H55.7048V30.7336C55.7048 28.0769 54.6499 25.529 52.7721 23.6503C50.8943 21.7717 48.3475 20.7163 45.6919 20.7163H34.8781C32.2225 20.7163 29.6757 21.7717 27.7979 23.6503C25.9202 25.529 24.8652 28.0769 24.8652 30.7336V36.2833H29.8516Z" fill="url(#paint0_linear_27_91)"/>
<path d="M59.3435 76.5266C70.9082 65.922 71.6863 47.95 61.0813 36.3849C50.4764 24.8197 32.5044 24.041 20.9397 34.6455C9.37504 45.25 8.59699 63.2221 19.2019 74.7872C29.8068 86.3523 47.7789 87.1311 59.3435 76.5266Z" fill="url(#paint1_linear_27_91)"/>
<path d="M57.7374 75.2404C68.2972 65.553 69.0079 49.1355 59.3249 38.571C49.6418 28.0064 33.2318 27.2954 22.672 36.9828C12.1122 46.6702 11.4014 63.0876 21.0844 73.6522C30.7675 84.2168 47.1776 84.9279 57.7374 75.2404Z" fill="url(#paint2_linear_27_91)"/>
<path d="M55.2572 72.2819C64.2461 64.0298 64.8465 50.0499 56.5981 41.057C48.3497 32.064 34.3761 31.4634 25.3872 39.7155C16.3983 47.9676 15.798 61.9475 24.0463 70.9404C32.2947 79.9334 46.2683 80.534 55.2572 72.2819Z" fill="url(#paint3_linear_27_91)"/>
<g style="mix-blend-mode:overlay" opacity="0.45">
<path d="M20.1241 57.3535C20.1159 53.1293 21.3369 48.9941 23.638 45.4528C25.9392 41.9114 29.2209 39.1171 33.0825 37.411C36.9442 35.7049 41.2186 35.1608 45.3841 35.8452C49.5495 36.5296 53.4258 38.4129 56.5395 41.265C54.5675 39.0567 52.1659 37.2742 49.4819 36.0265C46.7978 34.7789 43.8876 34.0922 40.9292 34.0087C37.9709 33.9251 35.0266 34.4464 32.2765 35.5406C29.5263 36.6348 27.0282 38.2788 24.9348 40.3723C22.8414 42.4658 21.1967 44.9647 20.1015 47.7161C19.0062 50.4674 18.4834 53.4133 18.5649 56.3738C18.6464 59.3343 19.3306 62.2471 20.5756 64.9339C21.8206 67.6207 23.6002 70.0251 25.8056 72C22.1494 67.9998 20.1225 62.7746 20.1241 57.3535Z" fill="white"/>
</g>
<g style="mix-blend-mode:multiply" opacity="0.67">
<path d="M54.5347 39C58.1023 43.2223 60.219 48.4799 60.5726 53.9973C60.5671 59.8385 58.2439 65.4385 54.1135 69.5669C49.983 73.6952 44.3833 76.0142 38.5448 76.0142C33.0359 75.6505 27.7856 73.5421 23.5542 69.9944C25.5061 72.3613 27.9309 74.294 30.6732 75.6683C33.4155 77.0426 36.4147 77.8283 39.4783 77.9749C42.5419 78.1215 45.6023 77.6257 48.4631 76.5196C51.324 75.4134 53.9222 73.721 56.091 71.5513C58.2597 69.3816 59.9512 66.7823 61.0569 63.9201C62.1626 61.058 62.6581 57.9962 62.5115 54.9312C62.365 51.8663 61.5797 48.8658 60.206 46.1223C58.8323 43.3788 56.9006 40.9528 54.5347 39Z" fill="#F44B16"/>
</g>
<g style="mix-blend-mode:multiply" opacity="0.67">
<path d="M44.4501 44.0762V67.9374H38.2221V49.185H33.6162V44.0762H44.4501Z" fill="#CC3911"/>
</g>
<path d="M43.1085 0.0405273L33.6564 25.6249C33.5298 25.9402 33.4855 26.2826 33.5277 26.6199C33.5698 26.9571 33.697 27.278 33.8973 27.5525C34.0975 27.827 34.3643 28.0461 34.6725 28.189C34.9807 28.3319 35.3202 28.3941 35.659 28.3696H37.6615L48.1149 0.0405273H43.1085Z" fill="#1268C6"/>
<path d="M47.9949 0.0595703L37.5415 28.3886H42.4278L52.9012 0.0595703H47.9949Z" fill="white"/>
<path d="M52.8997 0.0399862L44.8894 21.6975L42.4463 28.3289H45.9107C46.3786 28.3299 46.8321 28.1669 47.1924 27.8682C47.4804 27.6447 47.7019 27.3469 47.8332 27.0067L57.846 0L52.8997 0.0399862Z" fill="#EB3723"/>
<path style="mix-blend-mode:multiply" opacity="0.69" d="M50.4174 20.0552L47.8341 27.0473C47.7028 27.3874 47.4813 27.6853 47.1933 27.9088C46.833 28.2074 46.3795 28.3704 45.9116 28.3695H35.5784C35.2396 28.394 34.9001 28.3318 34.5919 28.1889C34.2838 28.046 34.017 27.8269 33.8167 27.5524C33.6164 27.2779 33.4892 26.957 33.4471 26.6198C33.405 26.2826 33.4493 25.9401 33.5758 25.6248L42.9879 0.160645L50.4174 20.0552Z" fill="url(#paint4_linear_27_91)"/>
<path d="M36.92 0.0405273H32.0137L42.4671 28.3295H45.9115C46.3794 28.3304 46.8328 28.1674 47.1931 27.8687L44.9102 21.658L36.92 0.0405273Z" fill="#1268C6"/>
<path d="M27.1274 0.0595703L37.5808 28.3886H42.4671L32.0137 0.0595703H27.1274Z" fill="white"/>
<path d="M22.2422 0.0405273L32.255 27.0474C32.4013 27.4546 32.6755 27.8034 33.0364 28.0418C33.3974 28.2801 33.8258 28.3951 34.2576 28.3696H37.722L27.2686 0.0405273H22.2422Z" fill="#EB3723"/>
<defs>
<linearGradient id="paint0_linear_27_91" x1="24.8853" y1="28.5098" x2="55.7048" y2="28.5098" gradientUnits="userSpaceOnUse">
<stop stop-color="#F78614"/>
<stop offset="1" stop-color="#FFBE06"/>
</linearGradient>
<linearGradient id="paint1_linear_27_91" x1="53.6282" y1="69.0557" x2="23.846" y2="39.2736" gradientUnits="userSpaceOnUse">
<stop stop-color="#F78614"/>
<stop offset="1" stop-color="#FFBE06"/>
</linearGradient>
<linearGradient id="paint2_linear_27_91" x1="25.3855" y1="41.1464" x2="60.0669" y2="75.8122" gradientUnits="userSpaceOnUse">
<stop stop-color="#F78614"/>
<stop offset="1" stop-color="#FFBE06"/>
</linearGradient>
<linearGradient id="paint3_linear_27_91" x1="67.1308" y1="82.8759" x2="13.69" y2="29.4592" gradientUnits="userSpaceOnUse">
<stop stop-color="#F78614"/>
<stop offset="1" stop-color="#FFBE06"/>
</linearGradient>
<linearGradient id="paint4_linear_27_91" x1="46.212" y1="13.5438" x2="41.3049" y2="15.9262" gradientUnits="userSpaceOnUse">
<stop stop-color="white"/>
<stop offset="1" stop-color="#121E3D"/>
</linearGradient>
</defs>
</svg>
