<svg width="70" height="91" viewBox="0 0 70 91" fill="none" xmlns="http://www.w3.org/2000/svg">
<path d="M22.365 38.4879V32.5978C22.365 31.8979 22.5163 31.2049 22.8104 30.5586C23.1045 29.9122 23.5354 29.3252 24.0786 28.8313C24.6217 28.3374 25.2663 27.9463 25.9754 27.6804C26.6845 27.4145 27.4442 27.279 28.2107 27.2818H40.8339C42.3781 27.2818 43.8591 27.8419 44.951 28.8388C46.043 29.8358 46.6564 31.1879 46.6564 32.5978V38.4879H52.4556V32.5978C52.4556 29.778 51.2287 27.0737 49.0449 25.0799C46.861 23.086 43.899 21.9658 40.8106 21.9658H28.1875C25.099 21.9658 22.1371 23.086 19.9532 25.0799C17.7693 27.0737 16.5425 29.778 16.5425 32.5978V38.4879H22.365Z" fill="url(#paint0_linear_1_3050)"/>
<path d="M63.007 64.4712C66.5187 50.189 56.6843 36.0118 41.0412 32.8056C25.3982 29.5994 9.87021 38.5782 6.3585 52.8605C2.8468 67.1427 12.6812 81.3199 28.3242 84.5261C43.9673 87.7323 59.4953 78.7534 63.007 64.4712Z" fill="url(#paint1_linear_1_3050)"/>
<path d="M61.4741 64.1092C64.8318 50.6158 55.573 37.1922 40.794 34.1265C26.015 31.0609 11.3124 39.5143 7.95466 53.0076C4.59696 66.501 13.8557 79.9246 28.6347 82.9902C43.4137 86.0558 58.1164 77.6025 61.4741 64.1092Z" fill="url(#paint2_linear_1_3050)"/>
<path d="M57.5283 63.4654C60.3927 51.9639 52.5025 40.52 39.9051 37.9048C27.3077 35.2896 14.7734 42.4934 11.9091 53.9949C9.04469 65.4965 16.9349 76.9403 29.5323 79.5555C42.1297 82.1707 54.664 74.9669 57.5283 63.4654Z" fill="url(#paint3_linear_1_3050)"/>
<g style="mix-blend-mode:overlay" opacity="0.45">
<path d="M12.6451 59.6594C12.6461 55.5273 13.9776 51.4844 16.4778 48.0227C18.978 44.5609 22.5391 41.8295 26.7279 40.1606C30.9167 38.4917 35.5526 37.9573 40.0717 38.6224C44.5909 39.2875 48.7984 41.1234 52.1826 43.9068C50.0299 41.7876 47.4241 40.0836 44.5221 38.8974C41.6202 37.7113 38.4821 37.0675 35.2972 37.005C32.1122 36.9426 28.9461 37.4627 25.9898 38.534C23.0335 39.6053 20.3481 41.2056 18.0954 43.2385C15.8428 45.2714 14.0695 47.6948 12.8824 50.3627C11.6953 53.0305 11.119 55.8877 11.1882 58.7619C11.2574 61.6362 11.9707 64.4681 13.2851 67.087C14.5995 69.7058 16.4877 72.0573 18.8361 74C14.8432 70.0949 12.6319 64.9729 12.6451 59.6594Z" fill="white"/>
</g>
<g style="mix-blend-mode:multiply" opacity="0.67">
<path d="M49.5613 42C53.3819 46.1248 55.6524 51.2427 56.0441 56.6128C56.0382 62.3042 53.5351 67.7606 49.085 71.7831C44.6348 75.8056 38.6016 78.0651 32.3112 78.0651C26.3794 77.7233 20.7257 75.6672 16.1826 72.1997C18.2856 74.5059 20.8982 76.389 23.8527 77.7281C26.8073 79.0671 30.0386 79.8327 33.3393 79.9755C36.6401 80.1183 39.9374 79.6353 43.0197 78.5575C46.1021 77.4797 48.9013 75.8308 51.238 73.7167C53.5746 71.6025 55.3971 69.0699 56.5883 66.2811C57.7796 63.4924 58.3134 60.5091 58.1555 57.5228C57.9977 54.5364 57.1516 51.6128 55.6716 48.9397C54.1915 46.2665 52.1103 43.9027 49.5613 42Z" fill="#933116"/>
</g>
<path d="M37.7828 0.0429688L26.8132 27.197C26.666 27.5317 26.6145 27.8952 26.6635 28.2531C26.7125 28.611 26.8604 28.9516 27.0933 29.2429C27.3262 29.5343 27.6365 29.7668 27.9949 29.9185C28.3534 30.0702 28.7482 30.1361 29.1422 30.1102H31.4712L43.6286 0.0429688H37.7828Z" fill="#1268C6"/>
<path d="M43.4655 0.0429688L31.3081 30.1101H36.9909L49.1715 0.0429688H43.4655Z" fill="white"/>
<path d="M49.1476 0.0424395L39.8316 23.0074L36.9902 30.0671H41.0427C41.5219 30.0469 41.9848 29.9021 42.3768 29.6497C42.7688 29.3972 43.0736 29.0478 43.2552 28.6424L54.9002 0L49.1476 0.0424395Z" fill="#EB3723"/>
<path style="mix-blend-mode:multiply" opacity="0.69" d="M46.2829 21.2631L43.2785 28.6416C43.1325 29.0059 42.8736 29.3236 42.5332 29.5559C42.135 29.8932 41.609 30.0761 41.0659 30.0662H29.025C28.631 30.0922 28.2362 30.0262 27.8778 29.8745C27.5193 29.7228 27.2091 29.4904 26.9762 29.199C26.7433 28.9077 26.5953 28.5671 26.5463 28.2091C26.4973 27.8512 26.5488 27.4878 26.696 27.1531L37.619 0.105469L46.2829 21.2631Z" fill="url(#paint4_linear_1_3050)"/>
<path d="M30.5158 0.0429688H24.833L36.9671 30.0676H40.9962C41.5353 30.0577 42.0539 29.8773 42.4635 29.5573L39.8085 22.9655L30.5158 0.0429688Z" fill="#1268C6"/>
<path d="M19.1968 0.0429688L31.3541 30.1101H37.0369L24.8795 0.0429688H19.1968Z" fill="white"/>
<path d="M13.5142 0.0429688L25.1591 28.6855C25.3253 29.1217 25.6424 29.4966 26.0626 29.7536C26.4828 30.0107 26.9831 30.1358 27.4881 30.1102H31.5173L19.36 0.0429688H13.5142Z" fill="#EB3723"/>
<path d="M44.1826 61.8844C44.1826 66.0861 40.2281 68.9996 34.0235 68.9996C30.5041 69.0214 27.0643 68.0861 24.1826 66.3239L26.819 61.9439C27.6641 62.7723 28.6952 63.4407 29.8484 63.9077C31.0016 64.3748 32.2525 64.6305 33.5235 64.6592C36.2735 64.6592 37.7962 63.6484 37.7962 61.9439C37.7962 60.2395 36.2735 59.3079 33.4781 59.3079H29.2735V56.2558L35.1371 51.3801H25.5008V47H42.978V50.2901L36.1599 55.7603L37.3872 55.9187C41.4099 56.4539 44.1826 58.5547 44.1826 61.8844Z" fill="#6D2B07"/>
<defs>
<linearGradient id="paint0_linear_1_3050" x1="16.5891" y1="30.2375" x2="52.4556" y2="30.2375" gradientUnits="userSpaceOnUse">
<stop stop-color="#91410D"/>
<stop offset="1" stop-color="#CC8139"/>
</linearGradient>
<linearGradient id="paint1_linear_1_3050" x1="48.4533" y1="71.2256" x2="20.7015" y2="40.9856" gradientUnits="userSpaceOnUse">
<stop stop-color="#91410D"/>
<stop offset="1" stop-color="#CC8139"/>
</linearGradient>
<linearGradient id="paint2_linear_1_3050" x1="18.8632" y1="44.1569" x2="52.1831" y2="80.6736" gradientUnits="userSpaceOnUse">
<stop stop-color="#91410D"/>
<stop offset="1" stop-color="#CC8139"/>
</linearGradient>
<linearGradient id="paint3_linear_1_3050" x1="63.2784" y1="84.6596" x2="11.8251" y2="28.3257" gradientUnits="userSpaceOnUse">
<stop stop-color="#91410D"/>
<stop offset="1" stop-color="#CC8139"/>
</linearGradient>
<linearGradient id="paint4_linear_1_3050" x1="41.392" y1="14.3522" x2="35.8954" y2="17.2764" gradientUnits="userSpaceOnUse">
<stop stop-color="white"/>
<stop offset="1" stop-color="#121E3D"/>
</linearGradient>
</defs>
</svg>
