<svg width="64" height="79" viewBox="0 0 64 79" fill="none" xmlns="http://www.w3.org/2000/svg">
<path d="M21.5232 32.8233V27.8182C21.5232 26.611 22.055 25.4532 23.0016 24.5996C23.9482 23.746 25.2321 23.2665 26.5708 23.2665H37.4505C38.7892 23.2665 40.0731 23.746 41.0197 24.5996C41.9664 25.4532 42.4982 26.611 42.4982 27.8182V32.8233H47.4855V27.8182C47.4855 25.4134 46.4262 23.1072 44.5405 21.4067C42.6547 19.7063 40.0972 18.751 37.4304 18.751H26.5507C23.884 18.751 21.3264 19.7063 19.4407 21.4067C17.555 23.1072 16.4956 25.4134 16.4956 27.8182V32.8233H21.5232Z" fill="url(#paint0_linear_27_47)"/>
<path d="M57.6113 55.905C60.8249 43.15 51.9634 30.4608 37.8187 27.563C23.6739 24.6651 9.60219 32.6559 6.38858 45.4109C3.17497 58.1659 12.0364 70.855 26.1812 73.7529C40.3259 76.6508 54.3977 68.66 57.6113 55.905Z" fill="url(#paint1_linear_27_47)"/>
<path d="M56.3175 55.6219C59.3687 43.5114 50.955 31.4635 37.5251 28.7121C24.0951 25.9607 10.7346 33.5477 7.68339 45.6581C4.63218 57.7685 13.0457 69.8164 26.4757 72.5678C39.9056 75.3192 53.2663 67.7323 56.3175 55.6219Z" fill="url(#paint2_linear_27_47)"/>
<path d="M31.9993 69.8723C43.7389 69.8723 53.2558 61.2904 53.2558 50.7042C53.2558 40.118 43.7389 31.5361 31.9993 31.5361C20.2596 31.5361 10.7427 40.118 10.7427 50.7042C10.7427 61.2904 20.2596 69.8723 31.9993 69.8723Z" fill="url(#paint3_linear_27_47)"/>
<g style="mix-blend-mode:overlay" opacity="0.45">
<path d="M12.151 51.9732C12.143 48.2545 13.3358 44.6142 15.5838 41.4967C17.8319 38.3792 21.0378 35.9193 24.8103 34.4174C28.5829 32.9155 32.7587 32.4366 36.828 33.0391C40.8974 33.6415 44.6842 35.2994 47.7261 37.8102C45.7768 35.9343 43.429 34.4311 40.8224 33.39C38.2158 32.349 35.4036 31.7914 32.5531 31.7505C29.7026 31.7095 26.8722 32.1861 24.2301 33.1517C21.588 34.1174 19.1883 35.5523 17.1738 37.3713C15.1593 39.1903 13.5712 41.3562 12.5039 43.74C11.4366 46.1237 10.912 48.6767 10.9612 51.2471C11.0104 53.8174 11.6325 56.3526 12.7904 58.7017C13.9483 61.0508 15.6185 63.1659 17.7014 64.9211C14.1154 61.3859 12.1343 56.7642 12.151 51.9732Z" fill="white"/>
</g>
<g style="mix-blend-mode:multiply" opacity="0.67">
<path d="M45.4739 35.9062C48.9158 39.5773 50.9601 44.1477 51.3059 48.9449C51.3059 51.4645 50.7555 53.9593 49.6863 56.2871C48.617 58.6149 47.0498 60.73 45.0741 62.5116C43.0984 64.2932 40.7528 65.7065 38.1714 66.6707C35.59 67.6349 32.8233 68.1311 30.0292 68.1311C24.7082 67.8145 19.637 65.9789 15.5498 62.8903C17.4351 64.9509 19.7773 66.6335 22.4261 67.83C25.0749 69.0264 27.9717 69.7104 30.9308 69.838C33.89 69.9656 36.846 69.5341 39.6094 68.5711C42.3727 67.608 44.8822 66.1347 46.9771 64.2457C49.0719 62.3567 50.7057 60.0937 51.7737 57.6019C52.8416 55.1101 53.3202 52.4445 53.1787 49.7761C53.0371 47.1077 52.2786 44.4955 50.9518 42.107C49.6249 39.7184 47.7591 37.6063 45.4739 35.9062Z" fill="#93908F"/>
</g>
<g style="mix-blend-mode:multiply" opacity="0.67">
<path d="M33.1859 45.2097C33.1859 44.1216 32.2609 43.505 30.652 43.505C28.3905 43.731 26.2723 44.616 24.619 46.0258L22.3867 42.1993C24.9965 40.3291 28.2051 39.2672 31.5369 39.1709C36.0215 39.1709 39.2592 41.2745 39.2592 44.4299C39.2592 46.606 37.4292 48.8547 34.9757 51.1034L30.4308 55.1836H39.8827V59.3727H23.0504V55.9271L31.0945 48.4739C32.1634 47.6174 32.897 46.4725 33.1859 45.2097Z" fill="#8E8A88"/>
</g>
<path d="M34.8346 0.0371094L25.3426 23.2129C25.2155 23.4984 25.171 23.8083 25.2133 24.1136C25.2556 24.4188 25.3833 24.7093 25.5845 24.9578C25.7856 25.2062 26.0535 25.4045 26.363 25.5339C26.6725 25.6632 27.0134 25.7195 27.3536 25.6973H29.3646L39.8622 0.0552615L34.8346 0.0371094Z" fill="#1268C6"/>
<path d="M39.7422 0.0371094L29.2446 25.6792H34.1716L44.6692 0.0371094H39.7422Z" fill="white"/>
<path d="M44.6685 0.0361935L36.6244 19.6396L34.1709 25.6421H37.65C38.1199 25.6429 38.5752 25.4953 38.937 25.2249C39.2221 25.019 39.4437 24.7505 39.5806 24.4451L49.6357 0L44.6685 0.0361935Z" fill="#EB3723"/>
<path style="mix-blend-mode:multiply" opacity="0.69" d="M42.1747 18.1344L39.5805 24.4814C39.4487 24.7893 39.2262 25.0589 38.937 25.2612C38.5752 25.5316 38.1198 25.6791 37.6499 25.6783H27.273C26.9328 25.7004 26.5919 25.6442 26.2824 25.5148C25.9729 25.3854 25.705 25.1871 25.5039 24.9387C25.3027 24.6902 25.175 24.3997 25.1327 24.0945C25.0904 23.7893 25.1349 23.4793 25.262 23.1939L34.7138 0.126953L42.1747 18.1344Z" fill="url(#paint4_linear_27_47)"/>
<path d="M28.6204 0.0371094H23.6934L34.1909 25.643H37.6499C38.1198 25.6438 38.5751 25.4962 38.937 25.2258L36.6444 19.6042L28.6204 0.0371094Z" fill="#1268C6"/>
<path d="M18.7871 0.0371094L29.2847 25.6792H34.1916L23.694 0.0371094H18.7871Z" fill="white"/>
<path d="M13.8799 0.0371094L23.935 24.4824C24.0819 24.8509 24.3573 25.1667 24.7198 25.3824C25.0823 25.5982 25.5125 25.7023 25.9461 25.6792H29.4251L18.9276 0.0371094H13.8799Z" fill="#EB3723"/>
<defs>
<linearGradient id="paint0_linear_27_47" x1="16.5358" y1="25.8053" x2="47.4855" y2="25.8053" gradientUnits="userSpaceOnUse">
<stop stop-color="#BBBBBB"/>
<stop offset="1" stop-color="white"/>
</linearGradient>
<linearGradient id="paint1_linear_27_47" x1="44.4121" y1="61.8862" x2="19.7183" y2="34.5018" gradientUnits="userSpaceOnUse">
<stop stop-color="#BBBBBB"/>
<stop offset="1" stop-color="white"/>
</linearGradient>
<linearGradient id="paint2_linear_27_47" x1="17.5614" y1="37.7088" x2="47.4502" y2="70.8541" gradientUnits="userSpaceOnUse">
<stop stop-color="#BBBBBB"/>
<stop offset="1" stop-color="white"/>
</linearGradient>
<linearGradient id="paint3_linear_27_47" x1="57.841" y1="74.0069" x2="11.7362" y2="22.8787" gradientUnits="userSpaceOnUse">
<stop stop-color="#BBBBBB"/>
<stop offset="1" stop-color="white"/>
</linearGradient>
<linearGradient id="paint4_linear_27_47" x1="37.9516" y1="12.2588" x2="33.2316" y2="14.8012" gradientUnits="userSpaceOnUse">
<stop stop-color="white"/>
<stop offset="1" stop-color="#121E3D"/>
</linearGradient>
</defs>
</svg>
