<svg width="346" height="106" viewBox="0 0 346 106" fill="none" xmlns="http://www.w3.org/2000/svg">
<path d="M4 53C4 25.938 25.9381 4 53 4H293C320.062 4 342 25.938 342 53C342 80.062 320.062 102 293 102H53C25.938 102 4 80.062 4 53Z" fill="#1A2B5E" stroke="#9DB7FF" stroke-width="8"/>
<path d="M62.4523 69V39.52H69.7723L77.3723 57.44L84.9723 39.52H92.2523V69H85.2923V52.8L79.1323 67.72H75.6123L69.4123 52.8V69H62.4523ZM100.843 69V39.52H123.243V45.6H108.323V51.04H121.763V56.68H108.323V62.92H123.243V69H100.843ZM130.526 69V63H145.886L147.286 61.6V58.32L145.886 56.92H133.806L129.366 52.44V43.96L133.806 39.52H153.086V45.52H138.126L136.726 46.92V49.52L138.126 50.92H150.206L154.646 55.36V64.56L150.206 69H130.526ZM161.495 69V63H176.855L178.255 61.6V58.32L176.855 56.92H164.775L160.335 52.44V43.96L164.775 39.52H184.055V45.52H169.095L167.695 46.92V49.52L169.095 50.92H181.175L185.615 55.36V64.56L181.175 69H161.495ZM190.402 69L199.042 39.52H211.202L219.842 69H211.922L210.442 63.12H199.802L198.322 69H190.402ZM201.282 57.36H208.962L205.842 45.16H204.402L201.282 57.36ZM228.866 69L224.426 64.56V43.96L228.866 39.52H245.346L249.786 43.96V49.4L242.506 49.36V46.6L241.066 45.2H233.346L231.906 46.6V61.88L233.346 63.32H239.626L243.466 59.92V58.88H238.066V53.16H250.226V69H243.906V66.36L240.946 69H228.866ZM260.96 69V39.52H283.36V45.6H268.44V51.04H281.88V56.68H268.44V62.92H283.36V69H260.96Z" fill="white"/>
</svg>
