<svg width="346" height="95" viewBox="0 0 346 95" fill="none" xmlns="http://www.w3.org/2000/svg">
<path d="M4 47.5C4 23.4756 23.4756 4 47.5 4H298.5C322.524 4 342 23.4756 342 47.5C342 71.5244 322.524 91 298.5 91H47.5C23.4756 91 4 71.5244 4 47.5Z" fill="#1A2B5E" stroke="#9DB7FF" stroke-width="8"/>
<path d="M41.7744 61V37.416H48.3024L56.2384 51.56V37.416H61.8064V61H56.2384L48.4944 47.176H47.3424V61H41.7744ZM71.5864 61L68.0344 57.448V40.968L71.5864 37.416H85.4104L88.9624 40.968V57.448L85.4104 61H71.5864ZM75.1704 56.456H81.8904L83.0104 55.336V43.08L81.8264 41.96H75.1704L74.0184 43.08V55.336L75.1704 56.456ZM99.7114 61V42.28H93.1194V37.416H112.287V42.28H105.695V61H99.7114ZM116.139 61V56.488H118.763L118.699 41.928H116.139V37.416H127.019V41.928H124.427L124.363 56.488H127.019V61H116.139ZM132.937 61V37.416H150.665V42.28H138.921V47.272H149.193V51.784H138.921V61H132.937ZM154.814 61V56.488H157.438L157.374 41.928H154.814V37.416H165.694V41.928H163.102L163.038 56.488H165.694V61H154.814ZM174.524 61L170.972 57.448V40.968L174.524 37.416H186.652L190.236 40.968V45.736H184.412V43.08L183.26 41.96H178.108L176.956 43.08V55.336L178.108 56.456H183.452L184.636 55.336V52.648H190.428V57.448L186.876 61H174.524ZM193.209 61L200.121 37.416H209.849L216.761 61H210.425L209.241 56.296H200.729L199.545 61H193.209ZM201.913 51.688H208.057L205.561 41.928H204.409L201.913 51.688ZM223.455 61V42.28H216.863V37.416H236.031V42.28H229.439V61H223.455ZM239.883 61V56.488H242.507L242.443 41.928H239.883V37.416H250.763V41.928H248.171L248.107 56.488H250.763V61H239.883ZM259.593 61L256.041 57.448V40.968L259.593 37.416H273.417L276.969 40.968V57.448L273.417 61H259.593ZM263.177 56.456H269.897L271.017 55.336V43.08L269.833 41.96H263.177L262.025 43.08V55.336L263.177 56.456ZM283.206 61V37.416H289.734L297.67 51.56V37.416H303.238V61H297.67L289.926 47.176H288.774V61H283.206Z" fill="white"/>
</svg>
