<svg width="48" height="48" viewBox="0 0 48 48" fill="none" xmlns="http://www.w3.org/2000/svg">
<g filter="url(#filter0_d_113_3374)">
<path d="M24.975 25.0601L32.9812 39.8601C35.4179 38.3618 37.441 36.2047 38.8467 33.6063C40.2523 31.0079 40.9907 28.06 40.9875 25.0601H24.975Z" fill="#FFC033"/>
<path d="M19.5187 6.48009C17.0551 6.47088 14.6226 7.06746 12.4101 8.22351C10.1977 9.37957 8.26477 11.064 6.76151 13.146C5.25825 15.228 4.22508 17.6515 3.74221 20.2284C3.25934 22.8054 3.33977 25.4663 3.97726 28.0047C4.61474 30.5431 5.79213 32.8906 7.418 34.865C9.04387 36.8394 11.0745 38.3875 13.3521 39.3891C15.6298 40.3908 18.0933 40.819 20.5512 40.6405C23.0092 40.462 25.3955 39.6817 27.5249 38.3601L19.5187 23.5801V6.48009Z" fill="#FF782D"/>
<path d="M23.7937 3.33984V20.4398H39.825C39.825 15.9046 38.136 11.5552 35.1295 8.34832C32.1231 5.14145 28.0455 3.33984 23.7937 3.33984Z" fill="#4200FF"/>
<path d="M36.8438 25.0601C36.8453 27.4086 36.3932 29.7324 35.5158 31.8864C34.6384 34.0405 33.3543 35.9786 31.7438 37.5801L32.9813 39.8601C35.4153 38.3587 37.4364 36.2009 38.8417 33.6032C40.247 31.0055 40.987 28.0592 40.9875 25.0601H36.8438Z" fill="#F7BF75"/>
<path d="M23.7938 3.33984V3.99984C27.1796 4.98369 30.1698 7.12405 32.3066 10.0932C34.4434 13.0624 35.6091 16.6968 35.625 20.4398H39.7688C39.7688 18.1942 39.3541 15.9706 38.5485 13.896C37.7428 11.8213 36.562 9.9362 35.0734 8.34832C33.5847 6.76044 31.8174 5.50086 29.8724 4.6415C27.9274 3.78215 25.8428 3.33984 23.7375 3.33984" fill="#C184FF"/>
<path d="M40.9875 24H24.975C24.809 24.0015 24.646 24.0482 24.5016 24.1357C24.3573 24.2232 24.2362 24.3486 24.15 24.5C24.0677 24.652 24.0244 24.8245 24.0244 25C24.0244 25.1755 24.0677 25.348 24.15 25.5L32.175 40.3C32.2568 40.4511 32.3743 40.5768 32.5157 40.6645C32.6572 40.7522 32.8177 40.7989 32.9813 40.8C33.144 40.7986 33.3044 40.7576 33.45 40.68C36.0247 39.0851 38.1622 36.7978 39.6493 34.0465C41.1364 31.2951 41.9211 28.1759 41.925 25C41.925 24.7348 41.8262 24.4804 41.6504 24.2929C41.4746 24.1054 41.2362 24 40.9875 24ZM33.3 38.42L26.5875 26H40.0313C39.89 28.4937 39.2086 30.9184 38.0407 33.0838C36.8727 35.2492 35.25 37.0963 33.3 38.48V38.42Z" fill="#030099"/>
<path d="M20.4562 23.3V6.47998C20.4562 6.21476 20.3575 5.96041 20.1817 5.77287C20.0058 5.58534 19.7674 5.47998 19.5187 5.47998C16.9588 5.5331 14.4437 6.2069 12.164 7.45037C9.88425 8.69384 7.89972 10.4744 6.36066 12.6571C4.8216 14.8398 3.76838 17.3675 3.28076 20.0486C2.79314 22.7298 2.88391 25.4942 3.54621 28.1325C4.2085 30.7707 5.42494 33.2136 7.1034 35.2761C8.78186 37.3386 10.8783 38.9666 13.234 40.0369C15.5897 41.1072 18.1428 41.5916 20.7 41.4536C23.2572 41.3155 25.7514 40.5585 27.9937 39.24C28.2066 39.1064 28.3614 38.8886 28.4246 38.634C28.4878 38.3793 28.4543 38.1084 28.3312 37.88L20.4562 23.3ZM19.5187 39.66C15.5231 39.7926 11.6417 38.2267 8.72845 35.3067C5.81519 32.3868 4.10869 28.352 3.98437 24.09C3.86005 19.828 5.32809 15.6878 8.06553 12.5803C10.803 9.47285 14.5856 7.65259 18.5812 7.51998V23.52C18.5947 23.6936 18.6531 23.8598 18.75 24L26.25 38C24.1561 39.0989 21.8524 39.667 19.5187 39.66Z" fill="#030099"/>
<path d="M23.7937 2.33984C23.5451 2.33984 23.3066 2.4452 23.1308 2.63274C22.955 2.82027 22.8562 3.07463 22.8562 3.33984V20.4398C22.8562 20.7051 22.955 20.9594 23.1308 21.1469C23.3066 21.3345 23.5451 21.4398 23.7937 21.4398H39.825C40.0721 21.4347 40.3078 21.3277 40.4826 21.1413C40.6573 20.9548 40.7577 20.7035 40.7625 20.4398C40.7575 15.6411 38.9681 11.0403 35.7869 7.64706C32.6058 4.2538 28.2926 2.34514 23.7937 2.33984ZM24.7312 19.4398V4.37984C28.4072 4.60417 31.8775 6.26286 34.481 9.04001C37.0846 11.8172 38.6396 15.5188 38.85 19.4398H24.7312Z" fill="#030099"/>
</g>
<defs>
<filter id="filter0_d_113_3374" x="0.971924" y="0.339844" width="46.9531" height="47.1367" filterUnits="userSpaceOnUse" color-interpolation-filters="sRGB">
<feFlood flood-opacity="0" result="BackgroundImageFix"/>
<feColorMatrix in="SourceAlpha" type="matrix" values="0 0 0 0 0 0 0 0 0 0 0 0 0 0 0 0 0 0 127 0" result="hardAlpha"/>
<feOffset dx="2" dy="2"/>
<feGaussianBlur stdDeviation="2"/>
<feComposite in2="hardAlpha" operator="out"/>
<feColorMatrix type="matrix" values="0 0 0 0 0 0 0 0 0 0 0 0 0 0 0 0 0 0 0.6 0"/>
<feBlend mode="normal" in2="BackgroundImageFix" result="effect1_dropShadow_113_3374"/>
<feBlend mode="normal" in="SourceGraphic" in2="effect1_dropShadow_113_3374" result="shape"/>
</filter>
</defs>
</svg>
