<svg width="305" height="106" viewBox="0 0 305 106" fill="none" xmlns="http://www.w3.org/2000/svg">
<path d="M4 53C4 25.938 25.938 4 53 4H252C279.062 4 301 25.938 301 53C301 80.062 279.062 102 252 102H53C25.938 102 4 80.062 4 53Z" fill="#1A2B5E" stroke="#9DB7FF" stroke-width="8"/>
<path d="M40.22 71V37.098H62.898L68.004 42.204V55.268L62.898 60.374H48.822V71H40.22ZM48.822 53.842H58.068L59.678 52.232V45.24L58.068 43.63H48.822V53.842ZM75.3848 71V37.098H98.4768L103.629 42.204V54.348L99.7648 58.212L104.917 71H96.2688L91.8068 59.454H83.9868V71H75.3848ZM83.9868 52.922H93.6468L95.2568 51.312V45.24L93.6468 43.63H83.9868V52.922ZM117.161 71L112.055 65.894V42.204L117.161 37.098H137.033L142.139 42.204V65.894L137.033 71H117.161ZM122.313 64.468H131.973L133.583 62.858V45.24L131.881 43.63H122.313L120.657 45.24V62.858L122.313 64.468ZM151.105 71V37.098H176.589V44.09H159.707V51.266H174.473V57.752H159.707V71H151.105ZM182.554 71V64.514H186.326L186.234 43.584H182.554V37.098H198.194V43.584H194.468L194.376 64.514H198.194V71H182.554ZM206.7 71V37.098H215.302V64.008H230.85V71H206.7ZM238.227 71V37.098H263.987V44.09H246.829V50.346H262.285V56.832H246.829V64.008H263.987V71H238.227Z" fill="white"/>
</svg>
