<svg width="150" height="64" viewBox="0 0 150 64" fill="none" xmlns="http://www.w3.org/2000/svg">
<g clip-path="url(#clip0_552_13316)">
<path d="M125.228 5.14746H24.7703C13.29 5.14746 3.9834 17.1699 3.9834 32.0004C3.9834 46.8308 13.29 58.8532 24.7703 58.8532H125.228C136.709 58.8532 146.015 46.8308 146.015 32.0004C146.015 17.1699 136.709 5.14746 125.228 5.14746Z" fill="white"/>
<path d="M125.232 54.8728H24.7702C19.5253 54.8692 14.4755 52.3026 10.6346 47.6882C6.79379 43.0738 4.44616 36.7531 4.06308 29.9951C4.02324 30.6557 3.9834 31.3162 3.9834 31.9896C3.9834 35.5161 4.5211 39.008 5.56577 42.266C6.61045 45.5239 8.14164 48.4841 10.0719 50.9775C12.0022 53.4709 14.2938 55.4486 16.8157 56.7977C19.3377 58.1468 22.0406 58.8409 24.7702 58.8404H125.232C127.961 58.8409 130.664 58.1468 133.186 56.7977C135.708 55.4486 138 53.4709 139.93 50.9775C141.86 48.4841 143.392 45.5239 144.436 42.266C145.481 39.008 146.019 35.5161 146.019 31.9896C146.019 31.3162 145.975 30.6557 145.939 29.9951C145.556 36.7531 143.208 43.0738 139.367 47.6882C135.526 52.3026 130.477 54.8692 125.232 54.8728Z" fill="#999999"/>
<path d="M125.232 5.1473C130.745 5.1473 136.032 7.97666 139.931 13.013C143.829 18.0493 146.019 24.8799 146.019 32.0023C146.019 35.5288 145.481 39.0207 144.437 42.2787C143.392 45.5366 141.861 48.4968 139.93 50.9902C138 53.4836 135.709 55.4613 133.187 56.8104C130.665 58.1595 127.962 58.8536 125.232 58.8531H24.7706C22.041 58.8536 19.338 58.1595 16.8161 56.8104C14.2941 55.4613 12.0025 53.4836 10.0723 50.9902C8.14197 48.4968 6.61078 45.5366 5.56611 42.2787C4.52143 39.0207 3.98373 35.5288 3.98373 32.0023C3.98373 24.8799 6.17376 18.0493 10.072 13.013C13.9703 7.97666 19.2576 5.1473 24.7706 5.1473H125.232ZM125.232 0.000191661H24.7706C21.4937 -0.0488223 18.2419 0.742684 15.2035 2.32885C12.165 3.91501 9.40045 6.2643 7.06982 9.24064C4.73918 12.217 2.88886 15.7612 1.62601 19.668C0.363167 23.5748 -0.287109 27.7664 -0.287109 32.0002C-0.287109 36.2339 0.363167 40.4256 1.62601 44.3324C2.88886 48.2392 4.73918 51.7834 7.06982 54.7597C9.40045 57.7361 12.165 60.0854 15.2035 61.6715C18.2419 63.2577 21.4937 64.0492 24.7706 64.0002H125.232C128.509 64.0492 131.761 63.2577 134.799 61.6715C137.838 60.0854 140.602 57.7361 142.933 54.7597C145.263 51.7834 147.114 48.2392 148.377 44.3324C149.64 40.4256 150.29 36.2339 150.29 32.0002C150.29 27.7664 149.64 23.5748 148.377 19.668C147.114 15.7612 145.263 12.217 142.933 9.24064C140.602 6.2643 137.838 3.91501 134.799 2.32885C131.761 0.742684 128.509 -0.0488223 125.232 0.000191661Z" fill="#6890FF"/>
<path d="M46.814 41.26C44.994 41.26 43.4773 41.0087 42.264 40.506C41.068 39.986 40.1667 39.3187 39.56 38.504C38.9707 37.672 38.6587 36.7967 38.624 35.878C38.624 35.722 38.676 35.592 38.78 35.488C38.884 35.384 39.014 35.332 39.17 35.332H43.304C43.5467 35.332 43.7373 35.3753 43.876 35.462C44.0147 35.5313 44.162 35.6353 44.318 35.774C44.474 35.9647 44.656 36.1467 44.864 36.32C45.072 36.476 45.3407 36.606 45.67 36.71C45.9993 36.7967 46.3807 36.84 46.814 36.84C47.6113 36.84 48.2267 36.736 48.66 36.528C49.0933 36.3027 49.31 35.9993 49.31 35.618C49.31 35.3233 49.1887 35.0807 48.946 34.89C48.7207 34.6993 48.3307 34.526 47.776 34.37C47.2213 34.214 46.4673 34.0493 45.514 33.876C44.1793 33.6507 43.0267 33.3213 42.056 32.888C41.0853 32.4373 40.34 31.8393 39.82 31.094C39.3173 30.3313 39.066 29.3953 39.066 28.286C39.066 27.1593 39.378 26.1627 40.002 25.296C40.6433 24.4293 41.5273 23.7533 42.654 23.268C43.798 22.7827 45.124 22.54 46.632 22.54C47.88 22.54 48.9807 22.7047 49.934 23.034C50.9047 23.3633 51.7193 23.7967 52.378 24.334C53.0367 24.854 53.5393 25.4173 53.886 26.024C54.2327 26.6307 54.4147 27.2113 54.432 27.766C54.432 27.922 54.3713 28.0607 54.25 28.182C54.146 28.286 54.0247 28.338 53.886 28.338H49.544C49.336 28.338 49.154 28.3033 48.998 28.234C48.8593 28.1647 48.7293 28.052 48.608 27.896C48.5213 27.6533 48.3047 27.4367 47.958 27.246C47.6113 27.0553 47.1693 26.96 46.632 26.96C46.0427 26.96 45.592 27.064 45.28 27.272C44.968 27.4627 44.812 27.7487 44.812 28.13C44.812 28.39 44.9073 28.6153 45.098 28.806C45.2887 28.9967 45.6267 29.17 46.112 29.326C46.5973 29.4647 47.2733 29.6207 48.14 29.794C49.7867 30.0367 51.1127 30.3833 52.118 30.834C53.1407 31.2847 53.886 31.874 54.354 32.602C54.822 33.33 55.056 34.24 55.056 35.332C55.056 36.5627 54.7007 37.62 53.99 38.504C53.2793 39.388 52.3 40.0727 51.052 40.558C49.8213 41.026 48.4087 41.26 46.814 41.26ZM57.2132 41C57.0572 41 56.9185 40.948 56.7972 40.844C56.6932 40.7227 56.6412 40.584 56.6412 40.428C56.6412 40.3587 56.6585 40.298 56.6932 40.246L62.6212 23.606C62.6732 23.4153 62.7859 23.2333 62.9592 23.06C63.1499 22.8867 63.4012 22.8 63.7132 22.8H68.4712C68.8005 22.8 69.0519 22.8867 69.2252 23.06C69.3985 23.2333 69.5112 23.4153 69.5632 23.606L75.5172 40.246C75.5345 40.298 75.5432 40.3587 75.5432 40.428C75.5432 40.584 75.4825 40.7227 75.3612 40.844C75.2572 40.948 75.1272 41 74.9712 41H70.9672C70.6725 41 70.4559 40.9307 70.3172 40.792C70.1785 40.6533 70.0832 40.5233 70.0312 40.402L69.2252 38.218H62.9592L62.1532 40.402C62.1012 40.5233 62.0059 40.6533 61.8672 40.792C61.7459 40.9307 61.5292 41 61.2172 41H57.2132ZM64.1552 33.824H68.0292L66.0792 27.974L64.1552 33.824ZM82.0623 41C81.7503 41 81.4989 40.9133 81.3083 40.74C81.1349 40.5667 81.0223 40.3847 80.9703 40.194L75.8483 23.554C75.8309 23.4847 75.8223 23.424 75.8223 23.372C75.8223 23.216 75.8743 23.086 75.9783 22.982C76.0996 22.8607 76.2383 22.8 76.3943 22.8H80.4243C80.7363 22.8 80.9789 22.8867 81.1523 23.06C81.3256 23.2333 81.4383 23.4067 81.4903 23.58L84.5583 34.422L87.6263 23.58C87.6783 23.4067 87.7909 23.2333 87.9643 23.06C88.1376 22.8867 88.3803 22.8 88.6923 22.8H92.7223C92.8783 22.8 93.0083 22.8607 93.1123 22.982C93.2163 23.086 93.2683 23.216 93.2683 23.372C93.2683 23.424 93.2596 23.4847 93.2423 23.554L88.1463 40.194C88.0943 40.3847 87.9729 40.5667 87.7823 40.74C87.6089 40.9133 87.3576 41 87.0283 41H82.0623ZM97.2453 41C97.0719 41 96.9159 40.9393 96.7773 40.818C96.6386 40.6793 96.5693 40.5147 96.5693 40.324V23.476C96.5693 23.2853 96.6386 23.1293 96.7773 23.008C96.9159 22.8693 97.0719 22.8 97.2453 22.8H109.985C110.176 22.8 110.341 22.8693 110.479 23.008C110.618 23.1293 110.687 23.2853 110.687 23.476V26.544C110.687 26.7173 110.618 26.8733 110.479 27.012C110.341 27.1507 110.176 27.22 109.985 27.22H101.951V29.794H109.413C109.604 29.794 109.769 29.8633 109.907 30.002C110.046 30.1233 110.115 30.2793 110.115 30.47V33.278C110.115 33.4687 110.046 33.6333 109.907 33.772C109.769 33.8933 109.604 33.954 109.413 33.954H101.951V36.58H110.193C110.384 36.58 110.549 36.6493 110.687 36.788C110.826 36.9267 110.895 37.0913 110.895 37.282V40.324C110.895 40.5147 110.826 40.6793 110.687 40.818C110.549 40.9393 110.384 41 110.193 41H97.2453Z" fill="#032064"/>
</g>
<defs>
<clipPath id="clip0_552_13316">
<rect width="150" height="64" fill="white"/>
</clipPath>
</defs>
</svg>
