<svg width="150" height="64" viewBox="0 0 150 64" fill="none" xmlns="http://www.w3.org/2000/svg">
<g clip-path="url(#clip0_603_12985)">
<path d="M125.229 5.14746H24.7712C13.291 5.14746 3.98438 17.1699 3.98438 32.0004C3.98438 46.8308 13.291 58.8532 24.7712 58.8532H125.229C136.71 58.8532 146.016 46.8308 146.016 32.0004C146.016 17.1699 136.71 5.14746 125.229 5.14746Z" fill="white"/>
<path d="M125.233 54.8728H24.7712C19.5263 54.8692 14.4765 52.3026 10.6356 47.6882C6.79476 43.0738 4.44713 36.7531 4.06405 29.9951C4.02421 30.6557 3.98438 31.3162 3.98438 31.9896C3.98437 35.5161 4.52207 39.008 5.56675 42.266C6.61143 45.5239 8.14261 48.4841 10.0729 50.9775C12.0032 53.4709 14.2948 55.4486 16.8167 56.7977C19.3387 58.1468 22.0416 58.8409 24.7712 58.8404H125.233C127.962 58.8409 130.665 58.1468 133.187 56.7977C135.709 55.4486 138.001 53.4709 139.931 50.9775C141.861 48.4841 143.393 45.5239 144.437 42.266C145.482 39.008 146.02 35.5161 146.02 31.9896C146.02 31.3162 145.976 30.6557 145.94 29.9951C145.557 36.7531 143.209 43.0738 139.368 47.6882C135.527 52.3026 130.478 54.8692 125.233 54.8728Z" fill="#999999"/>
<path d="M125.233 5.1473C130.746 5.1473 136.033 7.97666 139.931 13.013C143.829 18.0493 146.019 24.8799 146.019 32.0023C146.019 35.5288 145.482 39.0207 144.437 42.2787C143.392 45.5366 141.861 48.4968 139.931 50.9902C138.001 53.4836 135.709 55.4613 133.187 56.8104C130.665 58.1595 127.962 58.8536 125.233 58.8531H24.7711C22.0415 58.8536 19.3385 58.1595 16.8166 56.8104C14.2946 55.4613 12.003 53.4836 10.0727 50.9902C8.14246 48.4968 6.61127 45.5366 5.56659 42.2787C4.52192 39.0207 3.98422 35.5288 3.98422 32.0023C3.98422 24.8799 6.17425 18.0493 10.0725 13.013C13.9708 7.97666 19.2581 5.1473 24.7711 5.1473H125.233ZM125.233 0.000191661H24.7711C21.4942 -0.0488223 18.2424 0.742684 15.2039 2.32885C12.1655 3.91501 9.40094 6.2643 7.0703 9.24064C4.73967 12.217 2.88935 15.7612 1.6265 19.668C0.363655 23.5748 -0.286621 27.7664 -0.286621 32.0002C-0.286621 36.2339 0.363655 40.4256 1.6265 44.3324C2.88935 48.2392 4.73967 51.7834 7.0703 54.7597C9.40094 57.7361 12.1655 60.0854 15.2039 61.6715C18.2424 63.2577 21.4942 64.0492 24.7711 64.0002H125.233C128.509 64.0492 131.761 63.2577 134.8 61.6715C137.838 60.0854 140.603 57.7361 142.933 54.7597C145.264 51.7834 147.114 48.2392 148.377 44.3324C149.64 40.4256 150.29 36.2339 150.29 32.0002C150.29 27.7664 149.64 23.5748 148.377 19.668C147.114 15.7612 145.264 12.217 142.933 9.24064C140.603 6.2643 137.838 3.91501 134.8 2.32885C131.761 0.742684 128.509 -0.0488223 125.233 0.000191661Z" fill="#6890FF"/>
<path d="M44.814 41.26C42.994 41.26 41.4773 41.0087 40.264 40.506C39.068 39.986 38.1667 39.3187 37.56 38.504C36.9707 37.672 36.6587 36.7967 36.624 35.878C36.624 35.722 36.676 35.592 36.78 35.488C36.884 35.384 37.014 35.332 37.17 35.332H41.304C41.5467 35.332 41.7373 35.3753 41.876 35.462C42.0147 35.5313 42.162 35.6353 42.318 35.774C42.474 35.9647 42.656 36.1467 42.864 36.32C43.072 36.476 43.3407 36.606 43.67 36.71C43.9993 36.7967 44.3807 36.84 44.814 36.84C45.6113 36.84 46.2267 36.736 46.66 36.528C47.0933 36.3027 47.31 35.9993 47.31 35.618C47.31 35.3233 47.1887 35.0807 46.946 34.89C46.7207 34.6993 46.3307 34.526 45.776 34.37C45.2213 34.214 44.4673 34.0493 43.514 33.876C42.1793 33.6507 41.0267 33.3213 40.056 32.888C39.0853 32.4373 38.34 31.8393 37.82 31.094C37.3173 30.3313 37.066 29.3953 37.066 28.286C37.066 27.1593 37.378 26.1627 38.002 25.296C38.6433 24.4293 39.5273 23.7533 40.654 23.268C41.798 22.7827 43.124 22.54 44.632 22.54C45.88 22.54 46.9807 22.7047 47.934 23.034C48.9047 23.3633 49.7193 23.7967 50.378 24.334C51.0367 24.854 51.5393 25.4173 51.886 26.024C52.2327 26.6307 52.4147 27.2113 52.432 27.766C52.432 27.922 52.3713 28.0607 52.25 28.182C52.146 28.286 52.0247 28.338 51.886 28.338H47.544C47.336 28.338 47.154 28.3033 46.998 28.234C46.8593 28.1647 46.7293 28.052 46.608 27.896C46.5213 27.6533 46.3047 27.4367 45.958 27.246C45.6113 27.0553 45.1693 26.96 44.632 26.96C44.0427 26.96 43.592 27.064 43.28 27.272C42.968 27.4627 42.812 27.7487 42.812 28.13C42.812 28.39 42.9073 28.6153 43.098 28.806C43.2887 28.9967 43.6267 29.17 44.112 29.326C44.5973 29.4647 45.2733 29.6207 46.14 29.794C47.7867 30.0367 49.1127 30.3833 50.118 30.834C51.1407 31.2847 51.886 31.874 52.354 32.602C52.822 33.33 53.056 34.24 53.056 35.332C53.056 36.5627 52.7007 37.62 51.99 38.504C51.2793 39.388 50.3 40.0727 49.052 40.558C47.8213 41.026 46.4087 41.26 44.814 41.26ZM57.1299 41C56.9565 41 56.8005 40.9393 56.6619 40.818C56.5232 40.6793 56.4539 40.5147 56.4539 40.324V23.476C56.4539 23.2853 56.5232 23.1293 56.6619 23.008C56.8005 22.8693 56.9565 22.8 57.1299 22.8H69.8699C70.0605 22.8 70.2252 22.8693 70.3639 23.008C70.5025 23.1293 70.5719 23.2853 70.5719 23.476V26.544C70.5719 26.7173 70.5025 26.8733 70.3639 27.012C70.2252 27.1507 70.0605 27.22 69.8699 27.22H61.8359V29.794H69.2979C69.4885 29.794 69.6532 29.8633 69.7919 30.002C69.9305 30.1233 69.9999 30.2793 69.9999 30.47V33.278C69.9999 33.4687 69.9305 33.6333 69.7919 33.772C69.6532 33.8933 69.4885 33.954 69.2979 33.954H61.8359V36.58H70.0779C70.2685 36.58 70.4332 36.6493 70.5719 36.788C70.7105 36.9267 70.7799 37.0913 70.7799 37.282V40.324C70.7799 40.5147 70.7105 40.6793 70.5719 40.818C70.4332 40.9393 70.2685 41 70.0779 41H57.1299ZM75.2862 41C75.1129 41 74.9569 40.9393 74.8182 40.818C74.6795 40.6793 74.6102 40.5147 74.6102 40.324V23.476C74.6102 23.2853 74.6795 23.1293 74.8182 23.008C74.9569 22.8693 75.1129 22.8 75.2862 22.8H78.7442C79.0562 22.8 79.2815 22.878 79.4202 23.034C79.5589 23.1727 79.6542 23.2767 79.7062 23.346L85.0622 31.952V23.476C85.0622 23.2853 85.1315 23.1293 85.2702 23.008C85.4089 22.8693 85.5649 22.8 85.7382 22.8H89.6642C89.8549 22.8 90.0109 22.8693 90.1322 23.008C90.2709 23.1293 90.3402 23.2853 90.3402 23.476V40.324C90.3402 40.5147 90.2709 40.6793 90.1322 40.818C90.0109 40.9393 89.8549 41 89.6642 41H86.2322C85.9029 41 85.6689 40.9307 85.5302 40.792C85.3915 40.636 85.2962 40.5233 85.2442 40.454L79.8882 32.342V40.324C79.8882 40.5147 79.8189 40.6793 79.6802 40.818C79.5589 40.9393 79.4029 41 79.2122 41H75.2862ZM95.4484 41C95.2751 41 95.1191 40.9393 94.9804 40.818C94.8417 40.6793 94.7724 40.5147 94.7724 40.324V23.476C94.7724 23.2853 94.8417 23.1293 94.9804 23.008C95.1191 22.8693 95.2751 22.8 95.4484 22.8H102.572C104.254 22.8 105.71 23.0773 106.94 23.632C108.171 24.1693 109.142 24.9667 109.852 26.024C110.563 27.0813 110.944 28.3813 110.996 29.924C111.031 30.6693 111.048 31.328 111.048 31.9C111.048 32.472 111.031 33.122 110.996 33.85C110.927 35.4793 110.554 36.8227 109.878 37.88C109.22 38.9373 108.284 39.726 107.07 40.246C105.857 40.7487 104.401 41 102.702 41H95.4484ZM100.362 36.58H102.572C103.144 36.58 103.63 36.4847 104.028 36.294C104.427 36.1033 104.739 35.8087 104.964 35.41C105.19 34.994 105.311 34.4653 105.328 33.824C105.346 33.3213 105.354 32.8707 105.354 32.472C105.372 32.0733 105.372 31.6747 105.354 31.276C105.354 30.8773 105.346 30.4353 105.328 29.95C105.294 28.9967 105.016 28.3033 104.496 27.87C103.994 27.4367 103.309 27.22 102.442 27.22H100.362V36.58Z" fill="#032064"/>
</g>
<defs>
<clipPath id="clip0_603_12985">
<rect width="150" height="64" fill="white"/>
</clipPath>
</defs>
</svg>
