<svg width="435" height="96" viewBox="0 0 435 96" fill="none" xmlns="http://www.w3.org/2000/svg">
<path d="M4 48C4 23.6995 23.6995 4 48 4H387C411.301 4 431 23.6995 431 48C431 72.3005 411.301 92 387 92H48C23.6995 92 4 72.3005 4 48Z" fill="#1A2B5E" stroke="#9DB7FF" stroke-width="8"/>
<path d="M55.6314 64V40.6H47.3914V34.52H71.3514V40.6H63.1114V64H55.6314ZM77.3664 64V34.52H99.7664V40.6H84.8464V46.04H98.2864V51.68H84.8464V57.92H99.7664V64H77.3664ZM104.754 64L113.394 34.52H125.554L134.194 64H126.274L124.794 58.12H114.154L112.674 64H104.754ZM115.634 52.36H123.314L120.194 40.16H118.754L115.634 52.36ZM140.007 64V34.52H147.327L154.927 52.44L162.527 34.52H169.807V64H162.847V47.8L156.687 62.72H153.167L146.967 47.8V64H140.007ZM191.241 64V34.52H210.961L215.401 38.96V50.32L210.961 54.76H198.721V64H191.241ZM198.721 49.08H206.761L208.161 47.68V41.6L206.761 40.2H198.721V49.08ZM221.82 64V34.52H241.9L246.38 38.96V49.52L243.02 52.88L247.5 64H239.98L236.1 53.96H229.3V64H221.82ZM229.3 48.28H237.7L239.1 46.88V41.6L237.7 40.2H229.3V48.28ZM258.147 64L253.707 59.56V38.96L258.147 34.52H275.427L279.867 38.96V59.56L275.427 64H258.147ZM262.627 58.32H271.027L272.427 56.92V41.6L270.947 40.2H262.627L261.187 41.6V56.92L262.627 58.32ZM287.663 64V34.52H309.823V40.6H295.143V46.84H307.983V52.48H295.143V64H287.663ZM315.01 64V58.36H318.29L318.21 40.16H315.01V34.52H328.61V40.16H325.37L325.29 58.36H328.61V64H315.01ZM336.007 64V34.52H343.487V57.92H357.007V64H336.007ZM363.421 64V34.52H385.821V40.6H370.901V46.04H384.341V51.68H370.901V57.92H385.821V64H363.421Z" fill="white"/>
</svg>
