<svg width="215" height="75" viewBox="0 0 215 75" fill="none" xmlns="http://www.w3.org/2000/svg">
<path d="M4 4H193C202.941 4 211 12.0589 211 22V53C211 62.9411 202.941 71 193 71H4V4Z" fill="#1A2B5E" stroke="#9DB7FF" stroke-width="8"/>
<path d="M28.9426 50V31.28H22.3506V26.416H41.5186V31.28H34.9266V50H28.9426ZM46.3306 50V26.416H62.3946L65.9786 29.968V38.416L63.2906 41.104L66.8746 50H60.8586L57.7546 41.968H52.3146V50H46.3306ZM52.3146 37.424H59.0346L60.1546 36.304V32.08L59.0346 30.96H52.3146V37.424ZM69.8969 50L76.8089 26.416H86.5369L93.4489 50H87.1129L85.9289 45.296H77.4169L76.2329 50H69.8969ZM78.6009 40.688H84.7449L82.2489 30.928H81.0969L78.6009 40.688ZM100.668 50L97.1156 46.448V29.968L100.668 26.416H112.796L116.38 29.968V34.736H110.556V32.08L109.404 30.96H104.252L103.1 32.08V44.336L104.252 45.456H109.596L110.78 44.336V41.648H116.572V46.448L113.02 50H100.668ZM121.593 50V26.416H127.577V35.792L134.873 26.416H141.497L133.177 36.688L141.497 50H135.129L129.817 40.88L127.577 43.632V50H121.593ZM146.149 50V26.416H164.069V31.28H152.133V35.632H162.885V40.144H152.133V45.136H164.069V50H146.149ZM170.299 50V26.416H186.363L189.947 29.968V38.416L187.259 41.104L190.843 50H184.827L181.723 41.968H176.283V50H170.299ZM176.283 37.424H183.003L184.123 36.304V32.08L183.003 30.96H176.283V37.424Z" fill="white"/>
</svg>
