<svg width="176" height="66" viewBox="0 0 176 66" fill="none" xmlns="http://www.w3.org/2000/svg">
<path d="M146.708 6.14697H29.2902C15.8719 6.14697 4.99414 18.1694 4.99414 32.9999C4.99414 47.8303 15.8719 59.8528 29.2902 59.8528H146.708C160.126 59.8528 171.004 47.8303 171.004 32.9999C171.004 18.1694 160.126 6.14697 146.708 6.14697Z" fill="white"/>
<path d="M146.712 55.8723H29.2902C23.1598 55.8688 17.2575 53.3021 12.7683 48.6877C8.27898 44.0733 5.53502 37.7526 5.08727 30.9946C5.0407 31.6552 4.99414 32.3157 4.99414 32.9891C4.99414 36.5156 5.62261 40.0075 6.84365 43.2655C8.06469 46.5234 9.85438 49.4836 12.1105 51.977C14.3667 54.4704 17.0451 56.4481 19.9928 57.7972C22.9406 59.1463 26.0998 59.8404 29.2902 59.8399H146.712C149.902 59.8404 153.061 59.1463 156.009 57.7972C158.957 56.4481 161.635 54.4704 163.891 51.977C166.148 49.4836 167.937 46.5234 169.158 43.2655C170.379 40.0075 171.008 36.5156 171.008 32.9891C171.008 32.3157 170.957 31.6552 170.915 30.9946C170.467 37.7526 167.723 44.0733 163.234 48.6877C158.744 53.3021 152.842 55.8688 146.712 55.8723Z" fill="#999999"/>
<path d="M146.712 6.14705C153.156 6.14705 159.336 8.97642 163.892 14.0127C168.449 19.049 171.008 25.8797 171.008 33.0021C171.008 36.5285 170.38 40.0205 169.159 43.2784C167.938 46.5364 166.148 49.4966 163.892 51.9899C161.636 54.4833 158.958 56.461 156.01 57.8102C153.062 59.1593 149.903 59.8534 146.712 59.8528H29.2909C26.1005 59.8534 22.9412 59.1593 19.9935 57.8102C17.0458 56.461 14.3673 54.4833 12.1112 51.9899C9.85501 49.4966 8.06533 46.5364 6.84429 43.2784C5.62325 40.0205 4.99478 36.5285 4.99478 33.0021C4.99478 25.8797 7.55452 19.049 12.1109 14.0127C16.6673 8.97642 22.8471 6.14705 29.2909 6.14705H146.712ZM146.712 0.999948H29.2909C25.4608 0.950934 21.66 1.74244 18.1086 3.3286C14.5573 4.91477 11.3259 7.26406 8.60186 10.2404C5.87777 13.2167 3.71507 16.761 2.23903 20.6677C0.762986 24.5745 0.00292969 28.7662 0.00292969 32.9999C0.00292969 37.2337 0.762986 41.4254 2.23903 45.3321C3.71507 49.2389 5.87777 52.7831 8.60186 55.7595C11.3259 58.7358 14.5573 61.0851 18.1086 62.6713C21.66 64.2574 25.4608 65.049 29.2909 64.9999H146.712C150.542 65.049 154.343 64.2574 157.895 62.6713C161.446 61.0851 164.677 58.7358 167.401 55.7595C170.126 52.7831 172.288 49.2389 173.764 45.3321C175.24 41.4254 176 37.2337 176 32.9999C176 28.7662 175.24 24.5745 173.764 20.6677C172.288 16.761 170.126 13.2167 167.401 10.2404C164.677 7.26406 161.446 4.91477 157.895 3.3286C154.343 1.74244 150.542 0.950934 146.712 0.999948Z" fill="#6890FF"/>
<path d="M39.594 42.26C37.982 42.26 36.5607 42.0087 35.33 41.506C34.1167 41.0033 33.1633 40.2233 32.47 39.166C31.794 38.0913 31.456 36.7393 31.456 35.11V24.476C31.456 24.2853 31.5253 24.1293 31.664 24.008C31.8027 23.8693 31.9587 23.8 32.132 23.8H36.37C36.5607 23.8 36.7167 23.8693 36.838 24.008C36.9767 24.1293 37.046 24.2853 37.046 24.476V35.032C37.046 35.916 37.2627 36.5833 37.696 37.034C38.1293 37.4847 38.7533 37.71 39.568 37.71C40.3827 37.71 40.998 37.4847 41.414 37.034C41.8473 36.5833 42.064 35.916 42.064 35.032V24.476C42.064 24.2853 42.1333 24.1293 42.272 24.008C42.4107 23.8693 42.5753 23.8 42.766 23.8H46.978C47.1687 23.8 47.3247 23.8693 47.446 24.008C47.5847 24.1293 47.654 24.2853 47.654 24.476V35.11C47.654 36.7393 47.316 38.0913 46.64 39.166C45.964 40.2233 45.0193 41.0033 43.806 41.506C42.5927 42.0087 41.1887 42.26 39.594 42.26ZM52.6025 42C52.4292 42 52.2732 41.9393 52.1345 41.818C51.9959 41.6793 51.9265 41.5147 51.9265 41.324V24.476C51.9265 24.2853 51.9959 24.1293 52.1345 24.008C52.2732 23.8693 52.4292 23.8 52.6025 23.8H60.1945C61.7025 23.8 63.0112 24.0253 64.1205 24.476C65.2472 24.9267 66.1225 25.6113 66.7465 26.53C67.3705 27.4487 67.6825 28.6013 67.6825 29.988C67.6825 31.3747 67.3705 32.5187 66.7465 33.42C66.1225 34.304 65.2472 34.954 64.1205 35.37C63.0112 35.786 61.7025 35.994 60.1945 35.994H57.7245V41.324C57.7245 41.5147 57.6552 41.6793 57.5165 41.818C57.3952 41.9393 57.2392 42 57.0485 42H52.6025ZM57.6205 31.808H60.0645C60.5672 31.808 60.9919 31.6607 61.3385 31.366C61.7025 31.054 61.8845 30.5773 61.8845 29.936C61.8845 29.4507 61.7459 29.0087 61.4685 28.61C61.1912 28.2113 60.7232 28.012 60.0645 28.012H57.6205V31.808ZM71.7491 42C71.5758 42 71.4198 41.9393 71.2811 41.818C71.1424 41.6793 71.0731 41.5147 71.0731 41.324V24.476C71.0731 24.2853 71.1424 24.1293 71.2811 24.008C71.4198 23.8693 71.5758 23.8 71.7491 23.8H76.0651C76.2558 23.8 76.4204 23.8693 76.5591 24.008C76.6978 24.1293 76.7671 24.2853 76.7671 24.476V37.372H84.2811C84.4718 37.372 84.6364 37.4413 84.7751 37.58C84.9138 37.7013 84.9831 37.8573 84.9831 38.048V41.324C84.9831 41.5147 84.9138 41.6793 84.7751 41.818C84.6364 41.9393 84.4718 42 84.2811 42H71.7491ZM95.7865 42.26C94.1225 42.26 92.6752 42 91.4445 41.48C90.2312 40.96 89.2692 40.18 88.5585 39.14C87.8652 38.0827 87.4925 36.774 87.4405 35.214C87.4232 34.486 87.4145 33.7407 87.4145 32.978C87.4145 32.198 87.4232 31.4267 87.4405 30.664C87.4925 29.1213 87.8652 27.8213 88.5585 26.764C89.2692 25.7067 90.2398 24.9093 91.4705 24.372C92.7012 23.8173 94.1398 23.54 95.7865 23.54C97.4158 23.54 98.8458 23.8173 100.076 24.372C101.307 24.9093 102.278 25.7067 102.988 26.764C103.699 27.8213 104.072 29.1213 104.106 30.664C104.141 31.4267 104.158 32.198 104.158 32.978C104.158 33.7407 104.141 34.486 104.106 35.214C104.054 36.774 103.673 38.0827 102.962 39.14C102.269 40.18 101.307 40.96 100.076 41.48C98.8632 42 97.4332 42.26 95.7865 42.26ZM95.7865 37.84C96.5145 37.84 97.1125 37.6233 97.5805 37.19C98.0485 36.7393 98.2912 36.0287 98.3085 35.058C98.3432 34.3127 98.3605 33.5933 98.3605 32.9C98.3605 32.1893 98.3432 31.47 98.3085 30.742C98.2912 30.1007 98.1698 29.572 97.9445 29.156C97.7365 28.74 97.4418 28.4367 97.0605 28.246C96.6965 28.0553 96.2718 27.96 95.7865 27.96C95.3012 27.96 94.8678 28.0553 94.4865 28.246C94.1052 28.4367 93.8018 28.74 93.5765 29.156C93.3685 29.572 93.2558 30.1007 93.2385 30.742C93.2212 31.47 93.2125 32.1893 93.2125 32.9C93.2125 33.5933 93.2212 34.3127 93.2385 35.058C93.2732 36.0287 93.5158 36.7393 93.9665 37.19C94.4345 37.6233 95.0412 37.84 95.7865 37.84ZM106.653 42C106.497 42 106.358 41.948 106.237 41.844C106.133 41.7227 106.081 41.584 106.081 41.428C106.081 41.3587 106.098 41.298 106.133 41.246L112.061 24.606C112.113 24.4153 112.226 24.2333 112.399 24.06C112.59 23.8867 112.841 23.8 113.153 23.8H117.911C118.24 23.8 118.492 23.8867 118.665 24.06C118.838 24.2333 118.951 24.4153 119.003 24.606L124.957 41.246C124.974 41.298 124.983 41.3587 124.983 41.428C124.983 41.584 124.922 41.7227 124.801 41.844C124.697 41.948 124.567 42 124.411 42H120.407C120.112 42 119.896 41.9307 119.757 41.792C119.618 41.6533 119.523 41.5233 119.471 41.402L118.665 39.218H112.399L111.593 41.402C111.541 41.5233 111.446 41.6533 111.307 41.792C111.186 41.9307 110.969 42 110.657 42H106.653ZM113.595 34.824H117.469L115.519 28.974L113.595 34.824ZM128.554 42C128.381 42 128.225 41.9393 128.086 41.818C127.947 41.6793 127.878 41.5147 127.878 41.324V24.476C127.878 24.2853 127.947 24.1293 128.086 24.008C128.225 23.8693 128.381 23.8 128.554 23.8H135.678C137.359 23.8 138.815 24.0773 140.046 24.632C141.277 25.1693 142.247 25.9667 142.958 27.024C143.669 28.0813 144.05 29.3813 144.102 30.924C144.137 31.6693 144.154 32.328 144.154 32.9C144.154 33.472 144.137 34.122 144.102 34.85C144.033 36.4793 143.66 37.8227 142.984 38.88C142.325 39.9373 141.389 40.726 140.176 41.246C138.963 41.7487 137.507 42 135.808 42H128.554ZM133.468 37.58H135.678C136.25 37.58 136.735 37.4847 137.134 37.294C137.533 37.1033 137.845 36.8087 138.07 36.41C138.295 35.994 138.417 35.4653 138.434 34.824C138.451 34.3213 138.46 33.8707 138.46 33.472C138.477 33.0733 138.477 32.6747 138.46 32.276C138.46 31.8773 138.451 31.4353 138.434 30.95C138.399 29.9967 138.122 29.3033 137.602 28.87C137.099 28.4367 136.415 28.22 135.548 28.22H133.468V37.58Z" fill="#032064"/>
</svg>
