<svg width="83" height="88" viewBox="0 0 83 88" fill="none" xmlns="http://www.w3.org/2000/svg">
<path d="M68.7215 46.1043C72.4979 28.4882 61.8239 11.0273 44.8804 7.10413C27.937 3.181 11.1402 14.2813 7.36372 31.8973C3.58728 49.5133 14.2613 66.9743 31.2048 70.8974C48.1482 74.8206 64.945 63.7203 68.7215 46.1043Z" fill="white"/>
<path style="mix-blend-mode:multiply" d="M62.6474 67.3698C73.6057 55.9761 73.6056 37.5033 62.6474 26.1096C51.6892 14.7159 33.9224 14.7159 22.9642 26.1096C12.006 37.5033 12.0059 55.9761 22.9642 67.3698C33.9224 78.7635 51.6892 78.7635 62.6474 67.3698Z" fill="url(#paint0_radial_27_86)"/>
<path d="M66.1035 38.9951C66.1035 44.7654 64.4578 50.4061 61.3745 55.204C58.2912 60.0019 53.9088 63.7414 48.7814 65.9496C43.6541 68.1578 38.0121 68.7356 32.5689 67.6099C27.1258 66.4841 22.1259 63.7054 18.2016 59.6251C14.2773 55.5449 11.6048 50.3463 10.5221 44.6869C9.43938 39.0274 9.99506 33.1613 12.1189 27.8302C14.2427 22.4991 17.8393 17.9424 22.4538 14.7366C27.0683 11.5308 32.4934 9.81967 38.0432 9.81967C41.7359 9.79076 45.3973 10.5257 48.8142 11.9816C52.2312 13.4376 55.3356 15.5855 57.9468 18.3005C60.558 21.0155 62.6239 24.2433 64.0242 27.7961C65.4245 31.3488 66.1313 35.1557 66.1035 38.9951Z" fill="#121E3D"/>
<path d="M58.6114 54.8071C57.7898 53.3592 49.7128 51.2307 45.9807 49.9131C45.3126 49.6816 44.6725 49.3706 44.0729 48.9864C43.0689 47.7707 42.4812 46.243 42.4019 44.6427C42.5133 44.5414 42.6386 44.469 42.7361 44.3676C44.5356 42.5377 45.883 40.2824 46.6631 37.7941C46.804 37.3795 46.9111 36.9532 46.9834 36.52C49.8382 35.3327 49.6432 32.3066 49.0444 30.5981C48.9887 30.4115 48.87 30.252 48.7102 30.1491C49.1302 27.6001 49.083 24.9915 48.5709 22.4607C47.9303 18.8844 43.5159 16.8284 39.38 16.3651C38.0584 16.2593 36.729 16.3668 35.439 16.6836C34.2999 17.0165 33.3124 17.7609 32.6539 18.7831C31.4031 18.8837 30.215 19.3931 29.2595 20.2383C28.3041 21.0835 27.6302 22.2212 27.3342 23.4888C26.8004 25.6756 26.715 27.9547 27.0836 30.1781C27.0477 30.2208 27.0194 30.2699 27 30.323C26.3734 32.1039 26.1923 35.2748 29.3813 36.3607C29.4651 36.8525 29.5862 37.3367 29.7434 37.8086C30.521 40.299 31.8631 42.5585 33.6565 44.3966C33.5932 46.0822 32.9903 47.6976 31.9436 48.9864C31.3441 49.3706 30.7039 49.6816 30.0358 49.9131C26.3037 51.2307 18.2129 53.3157 17.4052 54.8071C17.0067 55.7423 16.6852 56.7111 16.4443 57.7029C19.0767 60.9758 22.3676 63.6083 26.0852 65.4147C29.8027 67.2211 33.8561 68.1573 37.9595 68.1573C42.063 68.1573 46.1164 67.2211 49.8339 65.4147C53.5515 63.6083 56.8424 60.9758 59.4748 57.7029C59.2701 56.7129 58.9812 55.7438 58.6114 54.8071Z" fill="white"/>
<defs>
<radialGradient id="paint0_radial_27_86" cx="0" cy="0" r="1" gradientUnits="userSpaceOnUse" gradientTransform="translate(42.8075 46.7389) scale(28.0603 29.1754)">
<stop stop-color="#2A0029"/>
<stop offset="1" stop-color="white"/>
</radialGradient>
</defs>
</svg>
