<svg width="476" height="150" viewBox="0 0 476 150" fill="none" xmlns="http://www.w3.org/2000/svg">
<path d="M461.412 2H14.5876C7.63565 2 2 12.6392 2 25.7632V86.2368C2 99.3608 7.63565 110 14.5876 110H461.412C468.364 110 474 99.3608 474 86.2368V25.7632C474 12.6392 468.364 2 461.412 2Z" stroke="#BE2200" stroke-width="4" stroke-miterlimit="10"/>
<path d="M293.094 114H183.906C179.54 114 176 117.393 176 121.579V142.421C176 146.607 179.54 150 183.906 150H293.094C297.46 150 301 146.607 301 142.421V121.579C301 117.393 297.46 114 293.094 114Z" fill="#BE2200"/>
<path d="M198.12 139.2C196.893 139.2 195.827 139 194.92 138.6C194.013 138.2 193.307 137.6 192.8 136.8C192.293 135.987 192.013 134.973 191.96 133.76C191.947 133.187 191.94 132.613 191.94 132.04C191.94 131.467 191.947 130.887 191.96 130.3C192.013 129.1 192.293 128.093 192.8 127.28C193.32 126.453 194.033 125.833 194.94 125.42C195.847 125.007 196.907 124.8 198.12 124.8C199.32 124.8 200.373 125.007 201.28 125.42C202.2 125.833 202.92 126.453 203.44 127.28C203.96 128.093 204.24 129.1 204.28 130.3C204.307 130.887 204.32 131.467 204.32 132.04C204.32 132.613 204.307 133.187 204.28 133.76C204.227 134.973 203.947 135.987 203.44 136.8C202.933 137.6 202.227 138.2 201.32 138.6C200.413 139 199.347 139.2 198.12 139.2ZM198.12 136.32C198.827 136.32 199.4 136.107 199.84 135.68C200.293 135.253 200.533 134.573 200.56 133.64C200.587 133.053 200.6 132.5 200.6 131.98C200.6 131.46 200.587 130.92 200.56 130.36C200.533 129.733 200.413 129.227 200.2 128.84C200 128.44 199.72 128.147 199.36 127.96C199 127.773 198.587 127.68 198.12 127.68C197.667 127.68 197.26 127.773 196.9 127.96C196.54 128.147 196.253 128.44 196.04 128.84C195.827 129.227 195.707 129.733 195.68 130.36C195.667 130.92 195.66 131.46 195.66 131.98C195.66 132.5 195.667 133.053 195.68 133.64C195.72 134.573 195.96 135.253 196.4 135.68C196.84 136.107 197.413 136.32 198.12 136.32ZM207.138 139C206.992 139 206.872 138.953 206.778 138.86C206.685 138.767 206.638 138.647 206.638 138.5V125.5C206.638 125.353 206.685 125.233 206.778 125.14C206.872 125.047 206.992 125 207.138 125H212.738C213.845 125 214.805 125.173 215.618 125.52C216.445 125.853 217.085 126.36 217.538 127.04C218.005 127.72 218.238 128.58 218.238 129.62C218.238 130.647 218.005 131.493 217.538 132.16C217.085 132.827 216.445 133.32 215.618 133.64C214.805 133.96 213.845 134.12 212.738 134.12H210.358V138.5C210.358 138.647 210.305 138.767 210.198 138.86C210.105 138.953 209.985 139 209.838 139H207.138ZM210.298 131.36H212.638C213.212 131.36 213.665 131.213 213.998 130.92C214.345 130.627 214.518 130.18 214.518 129.58C214.518 129.073 214.372 128.647 214.078 128.3C213.785 127.953 213.305 127.78 212.638 127.78H210.298V131.36ZM223.734 139C223.587 139 223.467 138.953 223.374 138.86C223.281 138.767 223.234 138.647 223.234 138.5V128.14H219.674C219.527 128.14 219.407 128.093 219.314 128C219.221 127.893 219.174 127.773 219.174 127.64V125.5C219.174 125.353 219.221 125.233 219.314 125.14C219.407 125.047 219.527 125 219.674 125H230.434C230.581 125 230.701 125.047 230.794 125.14C230.887 125.233 230.934 125.353 230.934 125.5V127.64C230.934 127.773 230.887 127.893 230.794 128C230.701 128.093 230.581 128.14 230.434 128.14H226.874V138.5C226.874 138.647 226.827 138.767 226.734 138.86C226.641 138.953 226.521 139 226.374 139H223.734ZM233.252 139C233.105 139 232.985 138.953 232.892 138.86C232.798 138.767 232.752 138.647 232.752 138.5V125.5C232.752 125.353 232.798 125.233 232.892 125.14C232.985 125.047 233.105 125 233.252 125H235.932C236.078 125 236.198 125.047 236.292 125.14C236.385 125.233 236.432 125.353 236.432 125.5V138.5C236.432 138.647 236.385 138.767 236.292 138.86C236.198 138.953 236.078 139 235.932 139H233.252ZM244.956 139.2C243.729 139.2 242.663 139 241.756 138.6C240.849 138.2 240.143 137.6 239.636 136.8C239.129 135.987 238.849 134.973 238.796 133.76C238.783 133.187 238.776 132.613 238.776 132.04C238.776 131.467 238.783 130.887 238.796 130.3C238.849 129.1 239.129 128.093 239.636 127.28C240.156 126.453 240.869 125.833 241.776 125.42C242.683 125.007 243.743 124.8 244.956 124.8C246.156 124.8 247.209 125.007 248.116 125.42C249.036 125.833 249.756 126.453 250.276 127.28C250.796 128.093 251.076 129.1 251.116 130.3C251.143 130.887 251.156 131.467 251.156 132.04C251.156 132.613 251.143 133.187 251.116 133.76C251.063 134.973 250.783 135.987 250.276 136.8C249.769 137.6 249.063 138.2 248.156 138.6C247.249 139 246.183 139.2 244.956 139.2ZM244.956 136.32C245.663 136.32 246.236 136.107 246.676 135.68C247.129 135.253 247.369 134.573 247.396 133.64C247.423 133.053 247.436 132.5 247.436 131.98C247.436 131.46 247.423 130.92 247.396 130.36C247.369 129.733 247.249 129.227 247.036 128.84C246.836 128.44 246.556 128.147 246.196 127.96C245.836 127.773 245.423 127.68 244.956 127.68C244.503 127.68 244.096 127.773 243.736 127.96C243.376 128.147 243.089 128.44 242.876 128.84C242.663 129.227 242.543 129.733 242.516 130.36C242.503 130.92 242.496 131.46 242.496 131.98C242.496 132.5 242.503 133.053 242.516 133.64C242.556 134.573 242.796 135.253 243.236 135.68C243.676 136.107 244.249 136.32 244.956 136.32ZM253.974 139C253.828 139 253.708 138.953 253.614 138.86C253.521 138.767 253.474 138.647 253.474 138.5V125.5C253.474 125.353 253.521 125.233 253.614 125.14C253.708 125.047 253.828 125 253.974 125H256.094C256.321 125 256.481 125.053 256.574 125.16C256.681 125.253 256.748 125.327 256.774 125.38L261.654 133.08V125.5C261.654 125.353 261.701 125.233 261.794 125.14C261.888 125.047 262.008 125 262.154 125H264.554C264.701 125 264.821 125.047 264.914 125.14C265.008 125.233 265.054 125.353 265.054 125.5V138.5C265.054 138.633 265.008 138.753 264.914 138.86C264.821 138.953 264.701 139 264.554 139H262.414C262.201 139 262.041 138.947 261.934 138.84C261.841 138.733 261.781 138.66 261.754 138.62L256.874 131.22V138.5C256.874 138.647 256.828 138.767 256.734 138.86C256.641 138.953 256.521 139 256.374 139H253.974ZM277.847 139.2C276.58 139.2 275.494 138.993 274.587 138.58C273.694 138.167 272.994 137.56 272.487 136.76C271.994 135.96 271.72 134.967 271.667 133.78C271.654 133.233 271.647 132.647 271.647 132.02C271.647 131.393 271.654 130.793 271.667 130.22C271.72 129.06 272 128.08 272.507 127.28C273.014 126.467 273.72 125.853 274.627 125.44C275.534 125.013 276.607 124.8 277.847 124.8C278.727 124.8 279.54 124.913 280.287 125.14C281.034 125.353 281.687 125.673 282.247 126.1C282.807 126.513 283.24 127.02 283.547 127.62C283.867 128.207 284.034 128.873 284.047 129.62C284.06 129.74 284.02 129.84 283.927 129.92C283.847 130 283.747 130.04 283.627 130.04H280.927C280.754 130.04 280.62 130.007 280.527 129.94C280.434 129.86 280.354 129.72 280.287 129.52C280.1 128.813 279.794 128.333 279.367 128.08C278.954 127.813 278.44 127.68 277.827 127.68C277.094 127.68 276.514 127.887 276.087 128.3C275.66 128.7 275.427 129.373 275.387 130.32C275.347 131.413 275.347 132.533 275.387 133.68C275.427 134.627 275.66 135.307 276.087 135.72C276.514 136.12 277.094 136.32 277.827 136.32C278.44 136.32 278.96 136.187 279.387 135.92C279.814 135.653 280.114 135.173 280.287 134.48C280.34 134.28 280.414 134.147 280.507 134.08C280.614 134 280.754 133.96 280.927 133.96H283.627C283.747 133.96 283.847 134 283.927 134.08C284.02 134.16 284.06 134.26 284.047 134.38C284.034 135.127 283.867 135.8 283.547 136.4C283.24 136.987 282.807 137.493 282.247 137.92C281.687 138.333 281.034 138.653 280.287 138.88C279.54 139.093 278.727 139.2 277.847 139.2Z" fill="white"/>
<path d="M80.2432 38C80.0819 38 79.9572 37.956 79.8692 37.868C79.7812 37.7653 79.7372 37.6407 79.7372 37.494V23.128C79.7372 22.9667 79.7812 22.842 79.8692 22.754C79.9572 22.6513 80.0819 22.6 80.2432 22.6H85.6112C87.2686 22.6 88.5812 22.9887 89.5492 23.766C90.5172 24.5433 91.0012 25.6947 91.0012 27.22C91.0012 28.3493 90.7152 29.2733 90.1432 29.992C89.5859 30.696 88.8232 31.1873 87.8552 31.466L91.2432 37.318C91.2872 37.406 91.3092 37.4867 91.3092 37.56C91.3092 37.6773 91.2579 37.78 91.1552 37.868C91.0672 37.956 90.9646 38 90.8472 38H89.7912C89.5419 38 89.3586 37.934 89.2412 37.802C89.1239 37.67 89.0212 37.538 88.9332 37.406L85.7432 31.818H81.8932V37.494C81.8932 37.6407 81.8419 37.7653 81.7392 37.868C81.6512 37.956 81.5266 38 81.3652 38H80.2432ZM81.8932 29.948H85.5232C86.6232 29.948 87.4446 29.7207 87.9872 29.266C88.5299 28.7967 88.8012 28.1073 88.8012 27.198C88.8012 26.3033 88.5299 25.6213 87.9872 25.152C87.4592 24.6827 86.6379 24.448 85.5232 24.448H81.8932V29.948ZM93.1193 38C93.0019 38 92.8993 37.956 92.8113 37.868C92.7233 37.78 92.6793 37.6773 92.6793 37.56C92.6793 37.4867 92.6866 37.406 92.7013 37.318L98.1573 23.084C98.2159 22.9373 98.2966 22.82 98.3993 22.732C98.5019 22.644 98.6559 22.6 98.8613 22.6H100.357C100.548 22.6 100.695 22.644 100.797 22.732C100.915 22.82 101.003 22.9373 101.061 23.084L106.495 37.318C106.525 37.406 106.539 37.4867 106.539 37.56C106.539 37.6773 106.495 37.78 106.407 37.868C106.319 37.956 106.217 38 106.099 38H104.977C104.801 38 104.669 37.956 104.581 37.868C104.508 37.78 104.457 37.6993 104.427 37.626L103.217 34.502H96.0013L94.7913 37.626C94.7766 37.6993 94.7253 37.78 94.6373 37.868C94.5493 37.956 94.4173 38 94.2413 38H93.1193ZM96.6393 32.61H102.579L99.6093 24.8L96.6393 32.61ZM109.398 38C109.236 38 109.112 37.956 109.024 37.868C108.936 37.7653 108.892 37.6407 108.892 37.494V23.106C108.892 22.9593 108.936 22.842 109.024 22.754C109.112 22.6513 109.236 22.6 109.398 22.6H110.564C110.71 22.6 110.828 22.6513 110.916 22.754C111.018 22.842 111.07 22.9593 111.07 23.106V37.494C111.07 37.6407 111.018 37.7653 110.916 37.868C110.828 37.956 110.71 38 110.564 38H109.398ZM119.857 38.22C118.581 38.22 117.51 38.0293 116.645 37.648C115.78 37.252 115.112 36.746 114.643 36.13C114.188 35.4993 113.946 34.832 113.917 34.128C113.917 34.0107 113.961 33.908 114.049 33.82C114.152 33.7173 114.269 33.666 114.401 33.666H115.523C115.699 33.666 115.831 33.71 115.919 33.798C116.007 33.886 116.066 33.9887 116.095 34.106C116.168 34.458 116.344 34.81 116.623 35.162C116.916 35.4993 117.32 35.7853 117.833 36.02C118.361 36.24 119.036 36.35 119.857 36.35C121.118 36.35 122.042 36.13 122.629 35.69C123.23 35.2353 123.531 34.634 123.531 33.886C123.531 33.3727 123.37 32.962 123.047 32.654C122.739 32.3313 122.262 32.0453 121.617 31.796C120.972 31.5467 120.136 31.2753 119.109 30.982C118.038 30.674 117.151 30.3367 116.447 29.97C115.743 29.6033 115.215 29.1487 114.863 28.606C114.526 28.0633 114.357 27.374 114.357 26.538C114.357 25.746 114.57 25.042 114.995 24.426C115.42 23.7953 116.029 23.2967 116.821 22.93C117.628 22.5633 118.603 22.38 119.747 22.38C120.656 22.38 121.448 22.5047 122.123 22.754C122.812 22.9887 123.384 23.3113 123.839 23.722C124.294 24.118 124.638 24.5507 124.873 25.02C125.108 25.4747 125.232 25.922 125.247 26.362C125.247 26.4647 125.21 26.5673 125.137 26.67C125.064 26.758 124.946 26.802 124.785 26.802H123.619C123.516 26.802 123.406 26.7727 123.289 26.714C123.186 26.6553 123.106 26.5453 123.047 26.384C122.959 25.7827 122.622 25.2767 122.035 24.866C121.448 24.4553 120.686 24.25 119.747 24.25C118.794 24.25 118.016 24.4333 117.415 24.8C116.828 25.1667 116.535 25.7387 116.535 26.516C116.535 27.0147 116.674 27.4327 116.953 27.77C117.232 28.0927 117.672 28.3787 118.273 28.628C118.874 28.8773 119.659 29.1413 120.627 29.42C121.8 29.7427 122.761 30.0873 123.509 30.454C124.257 30.806 124.807 31.2533 125.159 31.796C125.526 32.324 125.709 33.006 125.709 33.842C125.709 34.766 125.467 35.558 124.983 36.218C124.499 36.8633 123.817 37.362 122.937 37.714C122.072 38.0513 121.045 38.22 119.857 38.22ZM129.099 38C128.937 38 128.813 37.956 128.725 37.868C128.637 37.7653 128.593 37.6407 128.593 37.494V23.128C128.593 22.9667 128.637 22.842 128.725 22.754C128.813 22.6513 128.937 22.6 129.099 22.6H138.185C138.346 22.6 138.471 22.6513 138.559 22.754C138.647 22.842 138.691 22.9667 138.691 23.128V23.964C138.691 24.1253 138.647 24.25 138.559 24.338C138.471 24.426 138.346 24.47 138.185 24.47H130.705V29.288H137.701C137.862 29.288 137.987 29.3393 138.075 29.442C138.163 29.53 138.207 29.6547 138.207 29.816V30.63C138.207 30.7767 138.163 30.9013 138.075 31.004C137.987 31.092 137.862 31.136 137.701 31.136H130.705V36.13H138.361C138.522 36.13 138.647 36.174 138.735 36.262C138.823 36.35 138.867 36.4747 138.867 36.636V37.494C138.867 37.6407 138.823 37.7653 138.735 37.868C138.647 37.956 138.522 38 138.361 38H129.099ZM147.833 38C147.672 38 147.547 37.956 147.459 37.868C147.371 37.7653 147.327 37.6407 147.327 37.494V23.128C147.327 22.9667 147.371 22.842 147.459 22.754C147.547 22.6513 147.672 22.6 147.833 22.6H153.421C154.506 22.6 155.445 22.776 156.237 23.128C157.044 23.48 157.667 24.008 158.107 24.712C158.547 25.4013 158.767 26.2667 158.767 27.308C158.767 28.3493 158.547 29.2147 158.107 29.904C157.667 30.5933 157.044 31.114 156.237 31.466C155.445 31.818 154.506 31.994 153.421 31.994H149.527V37.494C149.527 37.6407 149.476 37.7653 149.373 37.868C149.285 37.956 149.16 38 148.999 38H147.833ZM149.505 30.146H153.311C154.396 30.146 155.21 29.904 155.753 29.42C156.296 28.936 156.567 28.232 156.567 27.308C156.567 26.3987 156.303 25.6947 155.775 25.196C155.247 24.6973 154.426 24.448 153.311 24.448H149.505V30.146ZM161.948 38C161.787 38 161.662 37.956 161.574 37.868C161.486 37.7653 161.442 37.6407 161.442 37.494V23.128C161.442 22.9667 161.486 22.842 161.574 22.754C161.662 22.6513 161.787 22.6 161.948 22.6H167.316C168.974 22.6 170.286 22.9887 171.254 23.766C172.222 24.5433 172.706 25.6947 172.706 27.22C172.706 28.3493 172.42 29.2733 171.848 29.992C171.291 30.696 170.528 31.1873 169.56 31.466L172.948 37.318C172.992 37.406 173.014 37.4867 173.014 37.56C173.014 37.6773 172.963 37.78 172.86 37.868C172.772 37.956 172.67 38 172.552 38H171.496C171.247 38 171.064 37.934 170.946 37.802C170.829 37.67 170.726 37.538 170.638 37.406L167.448 31.818H163.598V37.494C163.598 37.6407 163.547 37.7653 163.444 37.868C163.356 37.956 163.232 38 163.07 38H161.948ZM163.598 29.948H167.228C168.328 29.948 169.15 29.7207 169.692 29.266C170.235 28.7967 170.506 28.1073 170.506 27.198C170.506 26.3033 170.235 25.6213 169.692 25.152C169.164 24.6827 168.343 24.448 167.228 24.448H163.598V29.948ZM181.359 38.22C180.112 38.22 179.042 38.0073 178.147 37.582C177.252 37.142 176.563 36.4747 176.079 35.58C175.595 34.6707 175.324 33.534 175.265 32.17C175.25 31.5247 175.243 30.9087 175.243 30.322C175.243 29.7207 175.25 29.0973 175.265 28.452C175.324 27.1027 175.602 25.9807 176.101 25.086C176.614 24.1767 177.318 23.502 178.213 23.062C179.122 22.6073 180.171 22.38 181.359 22.38C182.562 22.38 183.61 22.6073 184.505 23.062C185.414 23.502 186.126 24.1767 186.639 25.086C187.152 25.9807 187.431 27.1027 187.475 28.452C187.504 29.0973 187.519 29.7207 187.519 30.322C187.519 30.9087 187.504 31.5247 187.475 32.17C187.431 33.534 187.16 34.6707 186.661 35.58C186.177 36.4747 185.488 37.142 184.593 37.582C183.698 38.0073 182.62 38.22 181.359 38.22ZM181.359 36.35C182.488 36.35 183.405 36.0127 184.109 35.338C184.828 34.6633 185.216 33.5707 185.275 32.06C185.304 31.4 185.319 30.8133 185.319 30.3C185.319 29.772 185.304 29.1853 185.275 28.54C185.246 27.528 185.055 26.7067 184.703 26.076C184.366 25.4453 183.911 24.9833 183.339 24.69C182.767 24.3967 182.107 24.25 181.359 24.25C180.64 24.25 179.995 24.3967 179.423 24.69C178.851 24.9833 178.389 25.4453 178.037 26.076C177.7 26.7067 177.509 27.528 177.465 28.54C177.45 29.1853 177.443 29.772 177.443 30.3C177.443 30.8133 177.45 31.4 177.465 32.06C177.524 33.5707 177.912 34.6633 178.631 35.338C179.35 36.0127 180.259 36.35 181.359 36.35ZM191.232 38C191.07 38 190.946 37.956 190.858 37.868C190.77 37.7653 190.726 37.6407 190.726 37.494V23.128C190.726 22.9667 190.77 22.842 190.858 22.754C190.946 22.6513 191.07 22.6 191.232 22.6H196.226C197.736 22.6 198.954 22.8273 199.878 23.282C200.802 23.7367 201.476 24.4113 201.902 25.306C202.327 26.186 202.547 27.2713 202.562 28.562C202.576 29.222 202.584 29.8013 202.584 30.3C202.584 30.7987 202.576 31.3707 202.562 32.016C202.532 33.3653 202.305 34.4873 201.88 35.382C201.469 36.262 200.809 36.922 199.9 37.362C199.005 37.7873 197.817 38 196.336 38H191.232ZM192.882 36.13H196.226C197.238 36.13 198.044 35.9907 198.646 35.712C199.247 35.4333 199.68 34.986 199.944 34.37C200.222 33.754 200.369 32.94 200.384 31.928C200.413 31.488 200.428 31.1067 200.428 30.784C200.428 30.4467 200.428 30.1167 200.428 29.794C200.428 29.4567 200.413 29.0753 200.384 28.65C200.354 27.2273 200.017 26.1787 199.372 25.504C198.726 24.8147 197.641 24.47 196.116 24.47H192.882V36.13ZM211.701 38.22C210.469 38.22 209.406 38 208.511 37.56C207.631 37.12 206.949 36.4527 206.465 35.558C205.996 34.6487 205.761 33.4827 205.761 32.06V23.128C205.761 22.9667 205.805 22.842 205.893 22.754C205.981 22.6513 206.106 22.6 206.267 22.6H207.389C207.551 22.6 207.675 22.6513 207.763 22.754C207.866 22.842 207.917 22.9667 207.917 23.128V32.104C207.917 33.5413 208.255 34.6047 208.929 35.294C209.604 35.9833 210.528 36.328 211.701 36.328C212.86 36.328 213.777 35.9833 214.451 35.294C215.141 34.6047 215.485 33.5413 215.485 32.104V23.128C215.485 22.9667 215.529 22.842 215.617 22.754C215.72 22.6513 215.845 22.6 215.991 22.6H217.135C217.282 22.6 217.399 22.6513 217.487 22.754C217.59 22.842 217.641 22.9667 217.641 23.128V32.06C217.641 33.4827 217.399 34.6487 216.915 35.558C216.446 36.4527 215.771 37.12 214.891 37.56C214.011 38 212.948 38.22 211.701 38.22ZM226.863 38.22C225.514 38.22 224.392 37.9707 223.497 37.472C222.617 36.9733 221.95 36.2767 221.495 35.382C221.041 34.4873 220.791 33.446 220.747 32.258C220.733 31.6567 220.725 31.0113 220.725 30.322C220.725 29.6327 220.733 28.9727 220.747 28.342C220.791 27.154 221.041 26.1127 221.495 25.218C221.95 24.3233 222.617 23.6267 223.497 23.128C224.392 22.6293 225.514 22.38 226.863 22.38C227.875 22.38 228.763 22.5193 229.525 22.798C230.288 23.0767 230.919 23.4507 231.417 23.92C231.931 24.3893 232.319 24.9173 232.583 25.504C232.847 26.076 232.994 26.67 233.023 27.286C233.038 27.418 232.994 27.528 232.891 27.616C232.803 27.704 232.693 27.748 232.561 27.748H231.351C231.219 27.748 231.102 27.7113 230.999 27.638C230.911 27.5647 230.845 27.4327 230.801 27.242C230.552 26.098 230.083 25.3133 229.393 24.888C228.719 24.4627 227.868 24.25 226.841 24.25C225.668 24.25 224.737 24.5873 224.047 25.262C223.358 25.922 222.984 26.9853 222.925 28.452C222.881 29.6547 222.881 30.8867 222.925 32.148C222.984 33.6147 223.358 34.6853 224.047 35.36C224.737 36.02 225.668 36.35 226.841 36.35C227.868 36.35 228.719 36.1373 229.393 35.712C230.083 35.2867 230.552 34.502 230.801 33.358C230.845 33.1673 230.911 33.0353 230.999 32.962C231.102 32.8887 231.219 32.852 231.351 32.852H232.561C232.693 32.852 232.803 32.896 232.891 32.984C232.994 33.072 233.038 33.182 233.023 33.314C232.994 33.93 232.847 34.5313 232.583 35.118C232.319 35.69 231.931 36.2107 231.417 36.68C230.919 37.1493 230.288 37.5233 229.525 37.802C228.763 38.0807 227.875 38.22 226.863 38.22ZM239.844 38C239.697 38 239.572 37.956 239.47 37.868C239.382 37.7653 239.338 37.6407 239.338 37.494V24.558H235.114C234.967 24.558 234.842 24.514 234.74 24.426C234.652 24.3233 234.608 24.1987 234.608 24.052V23.128C234.608 22.9667 234.652 22.842 234.74 22.754C234.842 22.6513 234.967 22.6 235.114 22.6H245.718C245.879 22.6 246.004 22.6513 246.092 22.754C246.194 22.842 246.246 22.9667 246.246 23.128V24.052C246.246 24.1987 246.194 24.3233 246.092 24.426C246.004 24.514 245.879 24.558 245.718 24.558H241.516V37.494C241.516 37.6407 241.464 37.7653 241.362 37.868C241.274 37.956 241.149 38 240.988 38H239.844ZM254.052 38C253.891 38 253.766 37.956 253.678 37.868C253.59 37.7653 253.546 37.6407 253.546 37.494V23.128C253.546 22.9667 253.59 22.842 253.678 22.754C253.766 22.6513 253.891 22.6 254.052 22.6H259.64C260.725 22.6 261.664 22.776 262.456 23.128C263.263 23.48 263.886 24.008 264.326 24.712C264.766 25.4013 264.986 26.2667 264.986 27.308C264.986 28.3493 264.766 29.2147 264.326 29.904C263.886 30.5933 263.263 31.114 262.456 31.466C261.664 31.818 260.725 31.994 259.64 31.994H255.746V37.494C255.746 37.6407 255.695 37.7653 255.592 37.868C255.504 37.956 255.379 38 255.218 38H254.052ZM255.724 30.146H259.53C260.615 30.146 261.429 29.904 261.972 29.42C262.515 28.936 262.786 28.232 262.786 27.308C262.786 26.3987 262.522 25.6947 261.994 25.196C261.466 24.6973 260.645 24.448 259.53 24.448H255.724V30.146ZM268.167 38C268.006 38 267.881 37.956 267.793 37.868C267.705 37.7653 267.661 37.6407 267.661 37.494V23.128C267.661 22.9667 267.705 22.842 267.793 22.754C267.881 22.6513 268.006 22.6 268.167 22.6H273.535C275.192 22.6 276.505 22.9887 277.473 23.766C278.441 24.5433 278.925 25.6947 278.925 27.22C278.925 28.3493 278.639 29.2733 278.067 29.992C277.51 30.696 276.747 31.1873 275.779 31.466L279.167 37.318C279.211 37.406 279.233 37.4867 279.233 37.56C279.233 37.6773 279.182 37.78 279.079 37.868C278.991 37.956 278.888 38 278.771 38H277.715C277.466 38 277.282 37.934 277.165 37.802C277.048 37.67 276.945 37.538 276.857 37.406L273.667 31.818H269.817V37.494C269.817 37.6407 269.766 37.7653 269.663 37.868C269.575 37.956 269.45 38 269.289 38H268.167ZM269.817 29.948H273.447C274.547 29.948 275.368 29.7207 275.911 29.266C276.454 28.7967 276.725 28.1073 276.725 27.198C276.725 26.3033 276.454 25.6213 275.911 25.152C275.383 24.6827 274.562 24.448 273.447 24.448H269.817V29.948ZM282.583 38C282.422 38 282.297 37.956 282.209 37.868C282.121 37.7653 282.077 37.6407 282.077 37.494V23.106C282.077 22.9593 282.121 22.842 282.209 22.754C282.297 22.6513 282.422 22.6 282.583 22.6H283.749C283.896 22.6 284.013 22.6513 284.101 22.754C284.204 22.842 284.255 22.9593 284.255 23.106V37.494C284.255 37.6407 284.204 37.7653 284.101 37.868C284.013 37.956 283.896 38 283.749 38H282.583ZM293.637 38.22C292.287 38.22 291.165 37.9707 290.271 37.472C289.391 36.9733 288.723 36.2767 288.269 35.382C287.814 34.4873 287.565 33.446 287.521 32.258C287.506 31.6567 287.499 31.0113 287.499 30.322C287.499 29.6327 287.506 28.9727 287.521 28.342C287.565 27.154 287.814 26.1127 288.269 25.218C288.723 24.3233 289.391 23.6267 290.271 23.128C291.165 22.6293 292.287 22.38 293.637 22.38C294.649 22.38 295.536 22.5193 296.299 22.798C297.061 23.0767 297.692 23.4507 298.191 23.92C298.704 24.3893 299.093 24.9173 299.357 25.504C299.621 26.076 299.767 26.67 299.797 27.286C299.811 27.418 299.767 27.528 299.665 27.616C299.577 27.704 299.467 27.748 299.335 27.748H298.125C297.993 27.748 297.875 27.7113 297.773 27.638C297.685 27.5647 297.619 27.4327 297.575 27.242C297.325 26.098 296.856 25.3133 296.167 24.888C295.492 24.4627 294.641 24.25 293.615 24.25C292.441 24.25 291.51 24.5873 290.821 25.262C290.131 25.922 289.757 26.9853 289.699 28.452C289.655 29.6547 289.655 30.8867 289.699 32.148C289.757 33.6147 290.131 34.6853 290.821 35.36C291.51 36.02 292.441 36.35 293.615 36.35C294.641 36.35 295.492 36.1373 296.167 35.712C296.856 35.2867 297.325 34.502 297.575 33.358C297.619 33.1673 297.685 33.0353 297.773 32.962C297.875 32.8887 297.993 32.852 298.125 32.852H299.335C299.467 32.852 299.577 32.896 299.665 32.984C299.767 33.072 299.811 33.182 299.797 33.314C299.767 33.93 299.621 34.5313 299.357 35.118C299.093 35.69 298.704 36.2107 298.191 36.68C297.692 37.1493 297.061 37.5233 296.299 37.802C295.536 38.0807 294.649 38.22 293.637 38.22ZM303.251 38C303.09 38 302.965 37.956 302.877 37.868C302.789 37.7653 302.745 37.6407 302.745 37.494V23.128C302.745 22.9667 302.789 22.842 302.877 22.754C302.965 22.6513 303.09 22.6 303.251 22.6H312.337C312.498 22.6 312.623 22.6513 312.711 22.754C312.799 22.842 312.843 22.9667 312.843 23.128V23.964C312.843 24.1253 312.799 24.25 312.711 24.338C312.623 24.426 312.498 24.47 312.337 24.47H304.857V29.288H311.853C312.014 29.288 312.139 29.3393 312.227 29.442C312.315 29.53 312.359 29.6547 312.359 29.816V30.63C312.359 30.7767 312.315 30.9013 312.227 31.004C312.139 31.092 312.014 31.136 311.853 31.136H304.857V36.13H312.513C312.674 36.13 312.799 36.174 312.887 36.262C312.975 36.35 313.019 36.4747 313.019 36.636V37.494C313.019 37.6407 312.975 37.7653 312.887 37.868C312.799 37.956 312.674 38 312.513 38H303.251ZM321.037 38.22C319.761 38.22 318.69 38.0293 317.825 37.648C316.96 37.252 316.292 36.746 315.823 36.13C315.368 35.4993 315.126 34.832 315.097 34.128C315.097 34.0107 315.141 33.908 315.229 33.82C315.332 33.7173 315.449 33.666 315.581 33.666H316.703C316.879 33.666 317.011 33.71 317.099 33.798C317.187 33.886 317.246 33.9887 317.275 34.106C317.348 34.458 317.524 34.81 317.803 35.162C318.096 35.4993 318.5 35.7853 319.013 36.02C319.541 36.24 320.216 36.35 321.037 36.35C322.298 36.35 323.222 36.13 323.809 35.69C324.41 35.2353 324.711 34.634 324.711 33.886C324.711 33.3727 324.55 32.962 324.227 32.654C323.919 32.3313 323.442 32.0453 322.797 31.796C322.152 31.5467 321.316 31.2753 320.289 30.982C319.218 30.674 318.331 30.3367 317.627 29.97C316.923 29.6033 316.395 29.1487 316.043 28.606C315.706 28.0633 315.537 27.374 315.537 26.538C315.537 25.746 315.75 25.042 316.175 24.426C316.6 23.7953 317.209 23.2967 318.001 22.93C318.808 22.5633 319.783 22.38 320.927 22.38C321.836 22.38 322.628 22.5047 323.303 22.754C323.992 22.9887 324.564 23.3113 325.019 23.722C325.474 24.118 325.818 24.5507 326.053 25.02C326.288 25.4747 326.412 25.922 326.427 26.362C326.427 26.4647 326.39 26.5673 326.317 26.67C326.244 26.758 326.126 26.802 325.965 26.802H324.799C324.696 26.802 324.586 26.7727 324.469 26.714C324.366 26.6553 324.286 26.5453 324.227 26.384C324.139 25.7827 323.802 25.2767 323.215 24.866C322.628 24.4553 321.866 24.25 320.927 24.25C319.974 24.25 319.196 24.4333 318.595 24.8C318.008 25.1667 317.715 25.7387 317.715 26.516C317.715 27.0147 317.854 27.4327 318.133 27.77C318.412 28.0927 318.852 28.3787 319.453 28.628C320.054 28.8773 320.839 29.1413 321.807 29.42C322.98 29.7427 323.941 30.0873 324.689 30.454C325.437 30.806 325.987 31.2533 326.339 31.796C326.706 32.324 326.889 33.006 326.889 33.842C326.889 34.766 326.647 35.558 326.163 36.218C325.679 36.8633 324.997 37.362 324.117 37.714C323.252 38.0513 322.225 38.22 321.037 38.22ZM329.838 38C329.692 38 329.567 37.956 329.464 37.868C329.376 37.7653 329.332 37.6407 329.332 37.494V35.91C329.332 35.7633 329.376 35.646 329.464 35.558C329.567 35.4553 329.692 35.404 329.838 35.404H331.422C331.569 35.404 331.686 35.4553 331.774 35.558C331.877 35.646 331.928 35.7633 331.928 35.91V37.494C331.928 37.6407 331.877 37.7653 331.774 37.868C331.686 37.956 331.569 38 331.422 38H329.838ZM345.658 38.22C344.382 38.22 343.311 38.0293 342.446 37.648C341.581 37.252 340.913 36.746 340.444 36.13C339.989 35.4993 339.747 34.832 339.718 34.128C339.718 34.0107 339.762 33.908 339.85 33.82C339.953 33.7173 340.07 33.666 340.202 33.666H341.324C341.5 33.666 341.632 33.71 341.72 33.798C341.808 33.886 341.867 33.9887 341.896 34.106C341.969 34.458 342.145 34.81 342.424 35.162C342.717 35.4993 343.121 35.7853 343.634 36.02C344.162 36.24 344.837 36.35 345.658 36.35C346.919 36.35 347.843 36.13 348.43 35.69C349.031 35.2353 349.332 34.634 349.332 33.886C349.332 33.3727 349.171 32.962 348.848 32.654C348.54 32.3313 348.063 32.0453 347.418 31.796C346.773 31.5467 345.937 31.2753 344.91 30.982C343.839 30.674 342.952 30.3367 342.248 29.97C341.544 29.6033 341.016 29.1487 340.664 28.606C340.327 28.0633 340.158 27.374 340.158 26.538C340.158 25.746 340.371 25.042 340.796 24.426C341.221 23.7953 341.83 23.2967 342.622 22.93C343.429 22.5633 344.404 22.38 345.548 22.38C346.457 22.38 347.249 22.5047 347.924 22.754C348.613 22.9887 349.185 23.3113 349.64 23.722C350.095 24.118 350.439 24.5507 350.674 25.02C350.909 25.4747 351.033 25.922 351.048 26.362C351.048 26.4647 351.011 26.5673 350.938 26.67C350.865 26.758 350.747 26.802 350.586 26.802H349.42C349.317 26.802 349.207 26.7727 349.09 26.714C348.987 26.6553 348.907 26.5453 348.848 26.384C348.76 25.7827 348.423 25.2767 347.836 24.866C347.249 24.4553 346.487 24.25 345.548 24.25C344.595 24.25 343.817 24.4333 343.216 24.8C342.629 25.1667 342.336 25.7387 342.336 26.516C342.336 27.0147 342.475 27.4327 342.754 27.77C343.033 28.0927 343.473 28.3787 344.074 28.628C344.675 28.8773 345.46 29.1413 346.428 29.42C347.601 29.7427 348.562 30.0873 349.31 30.454C350.058 30.806 350.608 31.2533 350.96 31.796C351.327 32.324 351.51 33.006 351.51 33.842C351.51 34.766 351.268 35.558 350.784 36.218C350.3 36.8633 349.618 37.362 348.738 37.714C347.873 38.0513 346.846 38.22 345.658 38.22ZM359.915 38.22C358.669 38.22 357.598 38.0073 356.703 37.582C355.809 37.142 355.119 36.4747 354.635 35.58C354.151 34.6707 353.88 33.534 353.821 32.17C353.807 31.5247 353.799 30.9087 353.799 30.322C353.799 29.7207 353.807 29.0973 353.821 28.452C353.88 27.1027 354.159 25.9807 354.657 25.086C355.171 24.1767 355.875 23.502 356.769 23.062C357.679 22.6073 358.727 22.38 359.915 22.38C361.118 22.38 362.167 22.6073 363.061 23.062C363.971 23.502 364.682 24.1767 365.195 25.086C365.709 25.9807 365.987 27.1027 366.031 28.452C366.061 29.0973 366.075 29.7207 366.075 30.322C366.075 30.9087 366.061 31.5247 366.031 32.17C365.987 33.534 365.716 34.6707 365.217 35.58C364.733 36.4747 364.044 37.142 363.149 37.582C362.255 38.0073 361.177 38.22 359.915 38.22ZM359.915 36.35C361.045 36.35 361.961 36.0127 362.665 35.338C363.384 34.6633 363.773 33.5707 363.831 32.06C363.861 31.4 363.875 30.8133 363.875 30.3C363.875 29.772 363.861 29.1853 363.831 28.54C363.802 27.528 363.611 26.7067 363.259 26.076C362.922 25.4453 362.467 24.9833 361.895 24.69C361.323 24.3967 360.663 24.25 359.915 24.25C359.197 24.25 358.551 24.3967 357.979 24.69C357.407 24.9833 356.945 25.4453 356.593 26.076C356.256 26.7067 356.065 27.528 356.021 28.54C356.007 29.1853 355.999 29.772 355.999 30.3C355.999 30.8133 356.007 31.4 356.021 32.06C356.08 33.5707 356.469 34.6633 357.187 35.338C357.906 36.0127 358.815 36.35 359.915 36.35ZM369.788 38C369.641 38 369.517 37.956 369.414 37.868C369.326 37.7653 369.282 37.6407 369.282 37.494V23.128C369.282 22.9667 369.326 22.842 369.414 22.754C369.517 22.6513 369.641 22.6 369.788 22.6H370.888C371.064 22.6 371.196 22.644 371.284 22.732C371.372 22.82 371.423 22.8933 371.438 22.952L376.102 31.84L380.788 22.952C380.817 22.8933 380.869 22.82 380.942 22.732C381.03 22.644 381.162 22.6 381.338 22.6H382.416C382.577 22.6 382.702 22.6513 382.79 22.754C382.893 22.842 382.944 22.9667 382.944 23.128V37.494C382.944 37.6407 382.893 37.7653 382.79 37.868C382.702 37.956 382.577 38 382.416 38H381.338C381.191 38 381.067 37.956 380.964 37.868C380.876 37.7653 380.832 37.6407 380.832 37.494V26.67L377.158 33.842C377.099 33.9887 377.011 34.106 376.894 34.194C376.777 34.2673 376.63 34.304 376.454 34.304H375.772C375.581 34.304 375.427 34.2673 375.31 34.194C375.207 34.106 375.119 33.9887 375.046 33.842L371.372 26.67V37.494C371.372 37.6407 371.321 37.7653 371.218 37.868C371.13 37.956 371.013 38 370.866 38H369.788ZM387.255 38C387.094 38 386.969 37.956 386.881 37.868C386.793 37.7653 386.749 37.6407 386.749 37.494V23.128C386.749 22.9667 386.793 22.842 386.881 22.754C386.969 22.6513 387.094 22.6 387.255 22.6H396.341C396.502 22.6 396.627 22.6513 396.715 22.754C396.803 22.842 396.847 22.9667 396.847 23.128V23.964C396.847 24.1253 396.803 24.25 396.715 24.338C396.627 24.426 396.502 24.47 396.341 24.47H388.861V29.288H395.857C396.018 29.288 396.143 29.3393 396.231 29.442C396.319 29.53 396.363 29.6547 396.363 29.816V30.63C396.363 30.7767 396.319 30.9013 396.231 31.004C396.143 31.092 396.018 31.136 395.857 31.136H388.861V36.13H396.517C396.678 36.13 396.803 36.174 396.891 36.262C396.979 36.35 397.023 36.4747 397.023 36.636V37.494C397.023 37.6407 396.979 37.7653 396.891 37.868C396.803 37.956 396.678 38 396.517 38H387.255ZM30.6787 64.22C29.3294 64.22 28.2074 63.9707 27.3127 63.472C26.4327 62.9733 25.7654 62.2767 25.3107 61.382C24.856 60.4873 24.6067 59.446 24.5627 58.258C24.548 57.6567 24.5407 57.0113 24.5407 56.322C24.5407 55.6327 24.548 54.9727 24.5627 54.342C24.6067 53.154 24.856 52.1127 25.3107 51.218C25.7654 50.3233 26.4327 49.6267 27.3127 49.128C28.2074 48.6293 29.3294 48.38 30.6787 48.38C31.6907 48.38 32.578 48.5193 33.3407 48.798C34.1034 49.0767 34.734 49.4507 35.2327 49.92C35.746 50.3893 36.1347 50.9173 36.3987 51.504C36.6627 52.076 36.8094 52.67 36.8387 53.286C36.8534 53.418 36.8094 53.528 36.7067 53.616C36.6187 53.704 36.5087 53.748 36.3767 53.748H35.1667C35.0347 53.748 34.9174 53.7113 34.8147 53.638C34.7267 53.5647 34.6607 53.4327 34.6167 53.242C34.3674 52.098 33.898 51.3133 33.2087 50.888C32.534 50.4627 31.6834 50.25 30.6567 50.25C29.4834 50.25 28.552 50.5873 27.8627 51.262C27.1734 51.922 26.7994 52.9853 26.7407 54.452C26.6967 55.6547 26.6967 56.8867 26.7407 58.148C26.7994 59.6147 27.1734 60.6853 27.8627 61.36C28.552 62.02 29.4834 62.35 30.6567 62.35C31.6834 62.35 32.534 62.1373 33.2087 61.712C33.898 61.2867 34.3674 60.502 34.6167 59.358C34.6607 59.1673 34.7267 59.0353 34.8147 58.962C34.9174 58.8887 35.0347 58.852 35.1667 58.852H36.3767C36.5087 58.852 36.6187 58.896 36.7067 58.984C36.8094 59.072 36.8534 59.182 36.8387 59.314C36.8094 59.93 36.6627 60.5313 36.3987 61.118C36.1347 61.69 35.746 62.2107 35.2327 62.68C34.734 63.1493 34.1034 63.5233 33.3407 63.802C32.578 64.0807 31.6907 64.22 30.6787 64.22ZM45.309 64.22C44.0624 64.22 42.9917 64.0073 42.097 63.582C41.2024 63.142 40.513 62.4747 40.029 61.58C39.545 60.6707 39.2737 59.534 39.215 58.17C39.2004 57.5247 39.193 56.9087 39.193 56.322C39.193 55.7207 39.2004 55.0973 39.215 54.452C39.2737 53.1027 39.5524 51.9807 40.051 51.086C40.5644 50.1767 41.2684 49.502 42.163 49.062C43.0724 48.6073 44.121 48.38 45.309 48.38C46.5117 48.38 47.5604 48.6073 48.455 49.062C49.3644 49.502 50.0757 50.1767 50.589 51.086C51.1024 51.9807 51.381 53.1027 51.425 54.452C51.4544 55.0973 51.469 55.7207 51.469 56.322C51.469 56.9087 51.4544 57.5247 51.425 58.17C51.381 59.534 51.1097 60.6707 50.611 61.58C50.127 62.4747 49.4377 63.142 48.543 63.582C47.6484 64.0073 46.5704 64.22 45.309 64.22ZM45.309 62.35C46.4384 62.35 47.355 62.0127 48.059 61.338C48.7777 60.6633 49.1664 59.5707 49.225 58.06C49.2544 57.4 49.269 56.8133 49.269 56.3C49.269 55.772 49.2544 55.1853 49.225 54.54C49.1957 53.528 49.005 52.7067 48.653 52.076C48.3157 51.4453 47.861 50.9833 47.289 50.69C46.717 50.3967 46.057 50.25 45.309 50.25C44.5904 50.25 43.945 50.3967 43.373 50.69C42.801 50.9833 42.339 51.4453 41.987 52.076C41.6497 52.7067 41.459 53.528 41.415 54.54C41.4004 55.1853 41.393 55.772 41.393 56.3C41.393 56.8133 41.4004 57.4 41.415 58.06C41.4737 59.5707 41.8624 60.6633 42.581 61.338C43.2997 62.0127 44.209 62.35 45.309 62.35ZM55.1817 64C55.0351 64 54.9104 63.956 54.8077 63.868C54.7197 63.7653 54.6757 63.6407 54.6757 63.494V49.128C54.6757 48.9667 54.7197 48.842 54.8077 48.754C54.9104 48.6513 55.0351 48.6 55.1817 48.6H56.2817C56.4577 48.6 56.5897 48.644 56.6777 48.732C56.7657 48.82 56.8171 48.8933 56.8317 48.952L61.4957 57.84L66.1817 48.952C66.2111 48.8933 66.2624 48.82 66.3357 48.732C66.4237 48.644 66.5557 48.6 66.7317 48.6H67.8097C67.9711 48.6 68.0957 48.6513 68.1837 48.754C68.2864 48.842 68.3377 48.9667 68.3377 49.128V63.494C68.3377 63.6407 68.2864 63.7653 68.1837 63.868C68.0957 63.956 67.9711 64 67.8097 64H66.7317C66.5851 64 66.4604 63.956 66.3577 63.868C66.2697 63.7653 66.2257 63.6407 66.2257 63.494V52.67L62.5517 59.842C62.4931 59.9887 62.4051 60.106 62.2877 60.194C62.1704 60.2673 62.0237 60.304 61.8477 60.304H61.1657C60.9751 60.304 60.8211 60.2673 60.7037 60.194C60.6011 60.106 60.5131 59.9887 60.4397 59.842L56.7657 52.67V63.494C56.7657 63.6407 56.7144 63.7653 56.6117 63.868C56.5237 63.956 56.4064 64 56.2597 64H55.1817ZM72.6485 64C72.4872 64 72.3625 63.956 72.2745 63.868C72.1865 63.7653 72.1425 63.6407 72.1425 63.494V49.128C72.1425 48.9667 72.1865 48.842 72.2745 48.754C72.3625 48.6513 72.4872 48.6 72.6485 48.6H78.2365C79.3218 48.6 80.2605 48.776 81.0525 49.128C81.8592 49.48 82.4825 50.008 82.9225 50.712C83.3625 51.4013 83.5825 52.2667 83.5825 53.308C83.5825 54.3493 83.3625 55.2147 82.9225 55.904C82.4825 56.5933 81.8592 57.114 81.0525 57.466C80.2605 57.818 79.3218 57.994 78.2365 57.994H74.3425V63.494C74.3425 63.6407 74.2912 63.7653 74.1885 63.868C74.1005 63.956 73.9758 64 73.8145 64H72.6485ZM74.3205 56.146H78.1265C79.2118 56.146 80.0258 55.904 80.5685 55.42C81.1112 54.936 81.3825 54.232 81.3825 53.308C81.3825 52.3987 81.1185 51.6947 80.5905 51.196C80.0625 50.6973 79.2412 50.448 78.1265 50.448H74.3205V56.146ZM86.7638 64C86.6024 64 86.4778 63.956 86.3898 63.868C86.3018 63.7653 86.2578 63.6407 86.2578 63.494V49.128C86.2578 48.9667 86.3018 48.842 86.3898 48.754C86.4778 48.6513 86.6024 48.6 86.7638 48.6H95.8498C96.0111 48.6 96.1358 48.6513 96.2238 48.754C96.3118 48.842 96.3558 48.9667 96.3558 49.128V49.964C96.3558 50.1253 96.3118 50.25 96.2238 50.338C96.1358 50.426 96.0111 50.47 95.8498 50.47H88.3698V55.288H95.3658C95.5271 55.288 95.6518 55.3393 95.7398 55.442C95.8278 55.53 95.8718 55.6547 95.8718 55.816V56.63C95.8718 56.7767 95.8278 56.9013 95.7398 57.004C95.6518 57.092 95.5271 57.136 95.3658 57.136H88.3698V62.13H96.0258C96.1871 62.13 96.3118 62.174 96.3998 62.262C96.4878 62.35 96.5318 62.4747 96.5318 62.636V63.494C96.5318 63.6407 96.4878 63.7653 96.3998 63.868C96.3118 63.956 96.1871 64 96.0258 64H86.7638ZM103.472 64C103.325 64 103.2 63.956 103.098 63.868C103.01 63.7653 102.966 63.6407 102.966 63.494V50.558H98.7415C98.5949 50.558 98.4702 50.514 98.3675 50.426C98.2795 50.3233 98.2355 50.1987 98.2355 50.052V49.128C98.2355 48.9667 98.2795 48.842 98.3675 48.754C98.4702 48.6513 98.5949 48.6 98.7415 48.6H109.346C109.507 48.6 109.632 48.6513 109.72 48.754C109.822 48.842 109.874 48.9667 109.874 49.128V50.052C109.874 50.1987 109.822 50.3233 109.72 50.426C109.632 50.514 109.507 50.558 109.346 50.558H105.144V63.494C105.144 63.6407 105.092 63.7653 104.99 63.868C104.902 63.956 104.777 64 104.616 64H103.472ZM112.846 64C112.684 64 112.56 63.956 112.472 63.868C112.384 63.7653 112.34 63.6407 112.34 63.494V49.106C112.34 48.9593 112.384 48.842 112.472 48.754C112.56 48.6513 112.684 48.6 112.846 48.6H114.012C114.158 48.6 114.276 48.6513 114.364 48.754C114.466 48.842 114.518 48.9593 114.518 49.106V63.494C114.518 63.6407 114.466 63.7653 114.364 63.868C114.276 63.956 114.158 64 114.012 64H112.846ZM122.227 64C122.081 64 121.956 63.956 121.853 63.868C121.765 63.7653 121.721 63.6407 121.721 63.494V50.558H117.497C117.351 50.558 117.226 50.514 117.123 50.426C117.035 50.3233 116.991 50.1987 116.991 50.052V49.128C116.991 48.9667 117.035 48.842 117.123 48.754C117.226 48.6513 117.351 48.6 117.497 48.6H128.101C128.263 48.6 128.387 48.6513 128.475 48.754C128.578 48.842 128.629 48.9667 128.629 49.128V50.052C128.629 50.1987 128.578 50.3233 128.475 50.426C128.387 50.514 128.263 50.558 128.101 50.558H123.899V63.494C123.899 63.6407 123.848 63.7653 123.745 63.868C123.657 63.956 123.533 64 123.371 64H122.227ZM136.295 64.22C135.049 64.22 133.978 64.0073 133.083 63.582C132.189 63.142 131.499 62.4747 131.015 61.58C130.531 60.6707 130.26 59.534 130.201 58.17C130.187 57.5247 130.179 56.9087 130.179 56.322C130.179 55.7207 130.187 55.0973 130.201 54.452C130.26 53.1027 130.539 51.9807 131.037 51.086C131.551 50.1767 132.255 49.502 133.149 49.062C134.059 48.6073 135.107 48.38 136.295 48.38C137.498 48.38 138.547 48.6073 139.441 49.062C140.351 49.502 141.062 50.1767 141.575 51.086C142.089 51.9807 142.367 53.1027 142.411 54.452C142.441 55.0973 142.455 55.7207 142.455 56.322C142.455 56.9087 142.441 57.5247 142.411 58.17C142.367 59.534 142.096 60.6707 141.597 61.58C141.113 62.4747 140.424 63.142 139.529 63.582C138.635 64.0073 137.557 64.22 136.295 64.22ZM136.295 62.35C137.425 62.35 138.341 62.0127 139.045 61.338C139.764 60.6633 140.153 59.5707 140.211 58.06C140.241 57.4 140.255 56.8133 140.255 56.3C140.255 55.772 140.241 55.1853 140.211 54.54C140.182 53.528 139.991 52.7067 139.639 52.076C139.302 51.4453 138.847 50.9833 138.275 50.69C137.703 50.3967 137.043 50.25 136.295 50.25C135.577 50.25 134.931 50.3967 134.359 50.69C133.787 50.9833 133.325 51.4453 132.973 52.076C132.636 52.7067 132.445 53.528 132.401 54.54C132.387 55.1853 132.379 55.772 132.379 56.3C132.379 56.8133 132.387 57.4 132.401 58.06C132.46 59.5707 132.849 60.6633 133.567 61.338C134.286 62.0127 135.195 62.35 136.295 62.35ZM146.168 64C146.007 64 145.882 63.956 145.794 63.868C145.706 63.7653 145.662 63.6407 145.662 63.494V49.128C145.662 48.9667 145.706 48.842 145.794 48.754C145.882 48.6513 146.007 48.6 146.168 48.6H151.536C153.193 48.6 154.506 48.9887 155.474 49.766C156.442 50.5433 156.926 51.6947 156.926 53.22C156.926 54.3493 156.64 55.2733 156.068 55.992C155.511 56.696 154.748 57.1873 153.78 57.466L157.168 63.318C157.212 63.406 157.234 63.4867 157.234 63.56C157.234 63.6773 157.183 63.78 157.08 63.868C156.992 63.956 156.889 64 156.772 64H155.716C155.467 64 155.283 63.934 155.166 63.802C155.049 63.67 154.946 63.538 154.858 63.406L151.668 57.818H147.818V63.494C147.818 63.6407 147.767 63.7653 147.664 63.868C147.576 63.956 147.451 64 147.29 64H146.168ZM147.818 55.948H151.448C152.548 55.948 153.369 55.7207 153.912 55.266C154.455 54.7967 154.726 54.1073 154.726 53.198C154.726 52.3033 154.455 51.6213 153.912 51.152C153.384 50.6827 152.563 50.448 151.448 50.448H147.818V55.948ZM165.028 64.22C163.752 64.22 162.681 64.0293 161.816 63.648C160.951 63.252 160.283 62.746 159.814 62.13C159.359 61.4993 159.117 60.832 159.088 60.128C159.088 60.0107 159.132 59.908 159.22 59.82C159.323 59.7173 159.44 59.666 159.572 59.666H160.694C160.87 59.666 161.002 59.71 161.09 59.798C161.178 59.886 161.237 59.9887 161.266 60.106C161.339 60.458 161.515 60.81 161.794 61.162C162.087 61.4993 162.491 61.7853 163.004 62.02C163.532 62.24 164.207 62.35 165.028 62.35C166.289 62.35 167.213 62.13 167.8 61.69C168.401 61.2353 168.702 60.634 168.702 59.886C168.702 59.3727 168.541 58.962 168.218 58.654C167.91 58.3313 167.433 58.0453 166.788 57.796C166.143 57.5467 165.307 57.2753 164.28 56.982C163.209 56.674 162.322 56.3367 161.618 55.97C160.914 55.6033 160.386 55.1487 160.034 54.606C159.697 54.0633 159.528 53.374 159.528 52.538C159.528 51.746 159.741 51.042 160.166 50.426C160.591 49.7953 161.2 49.2967 161.992 48.93C162.799 48.5633 163.774 48.38 164.918 48.38C165.827 48.38 166.619 48.5047 167.294 48.754C167.983 48.9887 168.555 49.3113 169.01 49.722C169.465 50.118 169.809 50.5507 170.044 51.02C170.279 51.4747 170.403 51.922 170.418 52.362C170.418 52.4647 170.381 52.5673 170.308 52.67C170.235 52.758 170.117 52.802 169.956 52.802H168.79C168.687 52.802 168.577 52.7727 168.46 52.714C168.357 52.6553 168.277 52.5453 168.218 52.384C168.13 51.7827 167.793 51.2767 167.206 50.866C166.619 50.4553 165.857 50.25 164.918 50.25C163.965 50.25 163.187 50.4333 162.586 50.8C161.999 51.1667 161.706 51.7387 161.706 52.516C161.706 53.0147 161.845 53.4327 162.124 53.77C162.403 54.0927 162.843 54.3787 163.444 54.628C164.045 54.8773 164.83 55.1413 165.798 55.42C166.971 55.7427 167.932 56.0873 168.68 56.454C169.428 56.806 169.978 57.2533 170.33 57.796C170.697 58.324 170.88 59.006 170.88 59.842C170.88 60.766 170.638 61.558 170.154 62.218C169.67 62.8633 168.988 63.362 168.108 63.714C167.243 64.0513 166.216 64.22 165.028 64.22ZM179.662 64C179.501 64 179.376 63.956 179.288 63.868C179.2 63.7653 179.156 63.6407 179.156 63.494V49.128C179.156 48.9667 179.2 48.842 179.288 48.754C179.376 48.6513 179.501 48.6 179.662 48.6H180.784C180.946 48.6 181.07 48.6513 181.158 48.754C181.261 48.842 181.312 48.9667 181.312 49.128V55.2H188.88V49.128C188.88 48.9667 188.924 48.842 189.012 48.754C189.115 48.6513 189.24 48.6 189.386 48.6H190.508C190.67 48.6 190.794 48.6513 190.882 48.754C190.985 48.842 191.036 48.9667 191.036 49.128V63.494C191.036 63.6407 190.985 63.7653 190.882 63.868C190.794 63.956 190.67 64 190.508 64H189.386C189.24 64 189.115 63.956 189.012 63.868C188.924 63.7653 188.88 63.6407 188.88 63.494V57.18H181.312V63.494C181.312 63.6407 181.261 63.7653 181.158 63.868C181.07 63.956 180.946 64 180.784 64H179.662ZM193.806 64C193.688 64 193.586 63.956 193.498 63.868C193.41 63.78 193.366 63.6773 193.366 63.56C193.366 63.4867 193.373 63.406 193.388 63.318L198.844 49.084C198.902 48.9373 198.983 48.82 199.086 48.732C199.188 48.644 199.342 48.6 199.548 48.6H201.044C201.234 48.6 201.381 48.644 201.484 48.732C201.601 48.82 201.689 48.9373 201.748 49.084L207.182 63.318C207.211 63.406 207.226 63.4867 207.226 63.56C207.226 63.6773 207.182 63.78 207.094 63.868C207.006 63.956 206.903 64 206.786 64H205.664C205.488 64 205.356 63.956 205.268 63.868C205.194 63.78 205.143 63.6993 205.114 63.626L203.904 60.502H196.688L195.478 63.626C195.463 63.6993 195.412 63.78 195.324 63.868C195.236 63.956 195.104 64 194.928 64H193.806ZM197.326 58.61H203.266L200.296 50.8L197.326 58.61ZM213.08 64C212.86 64 212.684 63.9487 212.552 63.846C212.435 63.7433 212.339 63.604 212.266 63.428L207.36 49.282C207.331 49.194 207.316 49.1133 207.316 49.04C207.316 48.9227 207.36 48.82 207.448 48.732C207.536 48.644 207.639 48.6 207.756 48.6H208.9C209.076 48.6 209.208 48.6513 209.296 48.754C209.399 48.842 209.457 48.9227 209.472 48.996L213.784 61.47L218.096 48.996C218.125 48.9227 218.184 48.842 218.272 48.754C218.36 48.6513 218.492 48.6 218.668 48.6H219.812C219.929 48.6 220.032 48.644 220.12 48.732C220.223 48.82 220.274 48.9227 220.274 49.04C220.274 49.1133 220.259 49.194 220.23 49.282L215.302 63.428C215.243 63.604 215.148 63.7433 215.016 63.846C214.899 63.9487 214.73 64 214.51 64H213.08ZM223.404 64C223.243 64 223.118 63.956 223.03 63.868C222.942 63.7653 222.898 63.6407 222.898 63.494V49.128C222.898 48.9667 222.942 48.842 223.03 48.754C223.118 48.6513 223.243 48.6 223.404 48.6H232.49C232.652 48.6 232.776 48.6513 232.864 48.754C232.952 48.842 232.996 48.9667 232.996 49.128V49.964C232.996 50.1253 232.952 50.25 232.864 50.338C232.776 50.426 232.652 50.47 232.49 50.47H225.01V55.288H232.006C232.168 55.288 232.292 55.3393 232.38 55.442C232.468 55.53 232.512 55.6547 232.512 55.816V56.63C232.512 56.7767 232.468 56.9013 232.38 57.004C232.292 57.092 232.168 57.136 232.006 57.136H225.01V62.13H232.666C232.828 62.13 232.952 62.174 233.04 62.262C233.128 62.35 233.172 62.4747 233.172 62.636V63.494C233.172 63.6407 233.128 63.7653 233.04 63.868C232.952 63.956 232.828 64 232.666 64H223.404ZM240.019 64C239.901 64 239.799 63.956 239.711 63.868C239.623 63.78 239.579 63.6773 239.579 63.56C239.579 63.4867 239.586 63.406 239.601 63.318L245.057 49.084C245.115 48.9373 245.196 48.82 245.299 48.732C245.401 48.644 245.555 48.6 245.761 48.6H247.257C247.447 48.6 247.594 48.644 247.697 48.732C247.814 48.82 247.902 48.9373 247.961 49.084L253.395 63.318C253.424 63.406 253.439 63.4867 253.439 63.56C253.439 63.6773 253.395 63.78 253.307 63.868C253.219 63.956 253.116 64 252.999 64H251.877C251.701 64 251.569 63.956 251.481 63.868C251.407 63.78 251.356 63.6993 251.327 63.626L250.117 60.502H242.901L241.691 63.626C241.676 63.6993 241.625 63.78 241.537 63.868C241.449 63.956 241.317 64 241.141 64H240.019ZM243.539 58.61H249.479L246.509 50.8L243.539 58.61ZM256.297 64C256.136 64 256.011 63.956 255.923 63.868C255.835 63.7653 255.791 63.6407 255.791 63.494V49.106C255.791 48.9593 255.835 48.842 255.923 48.754C256.011 48.6513 256.136 48.6 256.297 48.6H257.463C257.61 48.6 257.727 48.6513 257.815 48.754C257.903 48.842 257.947 48.9593 257.947 49.106V62.086H265.273C265.434 62.086 265.559 62.1373 265.647 62.24C265.735 62.328 265.779 62.4527 265.779 62.614V63.494C265.779 63.6407 265.735 63.7653 265.647 63.868C265.559 63.956 265.434 64 265.273 64H256.297ZM273.137 64.22C271.861 64.22 270.791 64.0293 269.925 63.648C269.06 63.252 268.393 62.746 267.923 62.13C267.469 61.4993 267.227 60.832 267.197 60.128C267.197 60.0107 267.241 59.908 267.329 59.82C267.432 59.7173 267.549 59.666 267.681 59.666H268.803C268.979 59.666 269.111 59.71 269.199 59.798C269.287 59.886 269.346 59.9887 269.375 60.106C269.449 60.458 269.625 60.81 269.903 61.162C270.197 61.4993 270.6 61.7853 271.113 62.02C271.641 62.24 272.316 62.35 273.137 62.35C274.399 62.35 275.323 62.13 275.909 61.69C276.511 61.2353 276.811 60.634 276.811 59.886C276.811 59.3727 276.65 58.962 276.327 58.654C276.019 58.3313 275.543 58.0453 274.897 57.796C274.252 57.5467 273.416 57.2753 272.389 56.982C271.319 56.674 270.431 56.3367 269.727 55.97C269.023 55.6033 268.495 55.1487 268.143 54.606C267.806 54.0633 267.637 53.374 267.637 52.538C267.637 51.746 267.85 51.042 268.275 50.426C268.701 49.7953 269.309 49.2967 270.101 48.93C270.908 48.5633 271.883 48.38 273.027 48.38C273.937 48.38 274.729 48.5047 275.403 48.754C276.093 48.9887 276.665 49.3113 277.119 49.722C277.574 50.118 277.919 50.5507 278.153 51.02C278.388 51.4747 278.513 51.922 278.527 52.362C278.527 52.4647 278.491 52.5673 278.417 52.67C278.344 52.758 278.227 52.802 278.065 52.802H276.899C276.797 52.802 276.687 52.7727 276.569 52.714C276.467 52.6553 276.386 52.5453 276.327 52.384C276.239 51.7827 275.902 51.2767 275.315 50.866C274.729 50.4553 273.966 50.25 273.027 50.25C272.074 50.25 271.297 50.4333 270.695 50.8C270.109 51.1667 269.815 51.7387 269.815 52.516C269.815 53.0147 269.955 53.4327 270.233 53.77C270.512 54.0927 270.952 54.3787 271.553 54.628C272.155 54.8773 272.939 55.1413 273.907 55.42C275.081 55.7427 276.041 56.0873 276.789 56.454C277.537 56.806 278.087 57.2533 278.439 57.796C278.806 58.324 278.989 59.006 278.989 59.842C278.989 60.766 278.747 61.558 278.263 62.218C277.779 62.8633 277.097 63.362 276.217 63.714C275.352 64.0513 274.325 64.22 273.137 64.22ZM287.395 64.22C286.148 64.22 285.078 64.0073 284.183 63.582C283.288 63.142 282.599 62.4747 282.115 61.58C281.631 60.6707 281.36 59.534 281.301 58.17C281.286 57.5247 281.279 56.9087 281.279 56.322C281.279 55.7207 281.286 55.0973 281.301 54.452C281.36 53.1027 281.638 51.9807 282.137 51.086C282.65 50.1767 283.354 49.502 284.249 49.062C285.158 48.6073 286.207 48.38 287.395 48.38C288.598 48.38 289.646 48.6073 290.541 49.062C291.45 49.502 292.162 50.1767 292.675 51.086C293.188 51.9807 293.467 53.1027 293.511 54.452C293.54 55.0973 293.555 55.7207 293.555 56.322C293.555 56.9087 293.54 57.5247 293.511 58.17C293.467 59.534 293.196 60.6707 292.697 61.58C292.213 62.4747 291.524 63.142 290.629 63.582C289.734 64.0073 288.656 64.22 287.395 64.22ZM287.395 62.35C288.524 62.35 289.441 62.0127 290.145 61.338C290.864 60.6633 291.252 59.5707 291.311 58.06C291.34 57.4 291.355 56.8133 291.355 56.3C291.355 55.772 291.34 55.1853 291.311 54.54C291.282 53.528 291.091 52.7067 290.739 52.076C290.402 51.4453 289.947 50.9833 289.375 50.69C288.803 50.3967 288.143 50.25 287.395 50.25C286.676 50.25 286.031 50.3967 285.459 50.69C284.887 50.9833 284.425 51.4453 284.073 52.076C283.736 52.7067 283.545 53.528 283.501 54.54C283.486 55.1853 283.479 55.772 283.479 56.3C283.479 56.8133 283.486 57.4 283.501 58.06C283.56 59.5707 283.948 60.6633 284.667 61.338C285.386 62.0127 286.295 62.35 287.395 62.35ZM300.54 64C300.423 64 300.32 63.956 300.232 63.868C300.144 63.78 300.1 63.6773 300.1 63.56C300.1 63.4867 300.107 63.406 300.122 63.318L305.578 49.084C305.637 48.9373 305.717 48.82 305.82 48.732C305.923 48.644 306.077 48.6 306.282 48.6H307.778C307.969 48.6 308.115 48.644 308.218 48.732C308.335 48.82 308.423 48.9373 308.482 49.084L313.916 63.318C313.945 63.406 313.96 63.4867 313.96 63.56C313.96 63.6773 313.916 63.78 313.828 63.868C313.74 63.956 313.637 64 313.52 64H312.398C312.222 64 312.09 63.956 312.002 63.868C311.929 63.78 311.877 63.6993 311.848 63.626L310.638 60.502H303.422L302.212 63.626C302.197 63.6993 302.146 63.78 302.058 63.868C301.97 63.956 301.838 64 301.662 64H300.54ZM304.06 58.61H310L307.03 50.8L304.06 58.61ZM316.818 64C316.657 64 316.532 63.956 316.444 63.868C316.356 63.7653 316.312 63.6407 316.312 63.494V49.128C316.312 48.9667 316.356 48.842 316.444 48.754C316.532 48.6513 316.657 48.6 316.818 48.6H321.812C323.323 48.6 324.54 48.8273 325.464 49.282C326.388 49.7367 327.063 50.4113 327.488 51.306C327.914 52.186 328.134 53.2713 328.148 54.562C328.163 55.222 328.17 55.8013 328.17 56.3C328.17 56.7987 328.163 57.3707 328.148 58.016C328.119 59.3653 327.892 60.4873 327.466 61.382C327.056 62.262 326.396 62.922 325.486 63.362C324.592 63.7873 323.404 64 321.922 64H316.818ZM318.468 62.13H321.812C322.824 62.13 323.631 61.9907 324.232 61.712C324.834 61.4333 325.266 60.986 325.53 60.37C325.809 59.754 325.956 58.94 325.97 57.928C326 57.488 326.014 57.1067 326.014 56.784C326.014 56.4467 326.014 56.1167 326.014 55.794C326.014 55.4567 326 55.0753 325.97 54.65C325.941 53.2273 325.604 52.1787 324.958 51.504C324.313 50.8147 323.228 50.47 321.702 50.47H318.468V62.13ZM337.002 64.22C335.756 64.22 334.685 64.0073 333.79 63.582C332.896 63.142 332.206 62.4747 331.722 61.58C331.238 60.6707 330.967 59.534 330.908 58.17C330.894 57.5247 330.886 56.9087 330.886 56.322C330.886 55.7207 330.894 55.0973 330.908 54.452C330.967 53.1027 331.246 51.9807 331.744 51.086C332.258 50.1767 332.962 49.502 333.856 49.062C334.766 48.6073 335.814 48.38 337.002 48.38C338.205 48.38 339.254 48.6073 340.148 49.062C341.058 49.502 341.769 50.1767 342.282 51.086C342.796 51.9807 343.074 53.1027 343.118 54.452C343.148 55.0973 343.162 55.7207 343.162 56.322C343.162 56.9087 343.148 57.5247 343.118 58.17C343.074 59.534 342.803 60.6707 342.304 61.58C341.82 62.4747 341.131 63.142 340.236 63.582C339.342 64.0073 338.264 64.22 337.002 64.22ZM337.002 62.35C338.132 62.35 339.048 62.0127 339.752 61.338C340.471 60.6633 340.86 59.5707 340.918 58.06C340.948 57.4 340.962 56.8133 340.962 56.3C340.962 55.772 340.948 55.1853 340.918 54.54C340.889 53.528 340.698 52.7067 340.346 52.076C340.009 51.4453 339.554 50.9833 338.982 50.69C338.41 50.3967 337.75 50.25 337.002 50.25C336.284 50.25 335.638 50.3967 335.066 50.69C334.494 50.9833 334.032 51.4453 333.68 52.076C333.343 52.7067 333.152 53.528 333.108 54.54C333.094 55.1853 333.086 55.772 333.086 56.3C333.086 56.8133 333.094 57.4 333.108 58.06C333.167 59.5707 333.556 60.6633 334.274 61.338C334.993 62.0127 335.902 62.35 337.002 62.35ZM346.875 64C346.714 64 346.589 63.956 346.501 63.868C346.413 63.7653 346.369 63.6407 346.369 63.494V49.128C346.369 48.9667 346.413 48.842 346.501 48.754C346.589 48.6513 346.714 48.6 346.875 48.6H352.463C353.548 48.6 354.487 48.776 355.279 49.128C356.086 49.48 356.709 50.008 357.149 50.712C357.589 51.4013 357.809 52.2667 357.809 53.308C357.809 54.3493 357.589 55.2147 357.149 55.904C356.709 56.5933 356.086 57.114 355.279 57.466C354.487 57.818 353.548 57.994 352.463 57.994H348.569V63.494C348.569 63.6407 348.518 63.7653 348.415 63.868C348.327 63.956 348.202 64 348.041 64H346.875ZM348.547 56.146H352.353C353.438 56.146 354.252 55.904 354.795 55.42C355.338 54.936 355.609 54.232 355.609 53.308C355.609 52.3987 355.345 51.6947 354.817 51.196C354.289 50.6973 353.468 50.448 352.353 50.448H348.547V56.146ZM364.356 64C364.21 64 364.085 63.956 363.982 63.868C363.894 63.7653 363.85 63.6407 363.85 63.494V50.558H359.626C359.48 50.558 359.355 50.514 359.252 50.426C359.164 50.3233 359.12 50.1987 359.12 50.052V49.128C359.12 48.9667 359.164 48.842 359.252 48.754C359.355 48.6513 359.48 48.6 359.626 48.6H370.23C370.392 48.6 370.516 48.6513 370.604 48.754C370.707 48.842 370.758 48.9667 370.758 49.128V50.052C370.758 50.1987 370.707 50.3233 370.604 50.426C370.516 50.514 370.392 50.558 370.23 50.558H366.028V63.494C366.028 63.6407 365.977 63.7653 365.874 63.868C365.786 63.956 365.662 64 365.5 64H364.356ZM373.731 64C373.569 64 373.445 63.956 373.357 63.868C373.269 63.7653 373.225 63.6407 373.225 63.494V49.128C373.225 48.9667 373.269 48.842 373.357 48.754C373.445 48.6513 373.569 48.6 373.731 48.6H382.817C382.978 48.6 383.103 48.6513 383.191 48.754C383.279 48.842 383.323 48.9667 383.323 49.128V49.964C383.323 50.1253 383.279 50.25 383.191 50.338C383.103 50.426 382.978 50.47 382.817 50.47H375.337V55.288H382.333C382.494 55.288 382.619 55.3393 382.707 55.442C382.795 55.53 382.839 55.6547 382.839 55.816V56.63C382.839 56.7767 382.795 56.9013 382.707 57.004C382.619 57.092 382.494 57.136 382.333 57.136H375.337V62.13H382.993C383.154 62.13 383.279 62.174 383.367 62.262C383.455 62.35 383.499 62.4747 383.499 62.636V63.494C383.499 63.6407 383.455 63.7653 383.367 63.868C383.279 63.956 383.154 64 382.993 64H373.731ZM387.072 64C386.911 64 386.786 63.956 386.698 63.868C386.61 63.7653 386.566 63.6407 386.566 63.494V49.128C386.566 48.9667 386.61 48.842 386.698 48.754C386.786 48.6513 386.911 48.6 387.072 48.6H392.066C393.577 48.6 394.794 48.8273 395.718 49.282C396.642 49.7367 397.317 50.4113 397.742 51.306C398.168 52.186 398.388 53.2713 398.402 54.562C398.417 55.222 398.424 55.8013 398.424 56.3C398.424 56.7987 398.417 57.3707 398.402 58.016C398.373 59.3653 398.146 60.4873 397.72 61.382C397.31 62.262 396.65 62.922 395.74 63.362C394.846 63.7873 393.658 64 392.176 64H387.072ZM388.722 62.13H392.066C393.078 62.13 393.885 61.9907 394.486 61.712C395.088 61.4333 395.52 60.986 395.784 60.37C396.063 59.754 396.21 58.94 396.224 57.928C396.254 57.488 396.268 57.1067 396.268 56.784C396.268 56.4467 396.268 56.1167 396.268 55.794C396.268 55.4567 396.254 55.0753 396.224 54.65C396.195 53.2273 395.858 52.1787 395.212 51.504C394.567 50.8147 393.482 50.47 391.956 50.47H388.722V62.13ZM410.44 64C410.294 64 410.169 63.956 410.066 63.868C409.978 63.7653 409.934 63.6407 409.934 63.494V50.558H405.71C405.564 50.558 405.439 50.514 405.336 50.426C405.248 50.3233 405.204 50.1987 405.204 50.052V49.128C405.204 48.9667 405.248 48.842 405.336 48.754C405.439 48.6513 405.564 48.6 405.71 48.6H416.314C416.476 48.6 416.6 48.6513 416.688 48.754C416.791 48.842 416.842 48.9667 416.842 49.128V50.052C416.842 50.1987 416.791 50.3233 416.688 50.426C416.6 50.514 416.476 50.558 416.314 50.558H412.112V63.494C412.112 63.6407 412.061 63.7653 411.958 63.868C411.87 63.956 411.746 64 411.584 64H410.44ZM419.815 64C419.653 64 419.529 63.956 419.441 63.868C419.353 63.7653 419.309 63.6407 419.309 63.494V49.128C419.309 48.9667 419.353 48.842 419.441 48.754C419.529 48.6513 419.653 48.6 419.815 48.6H420.937C421.098 48.6 421.223 48.6513 421.311 48.754C421.413 48.842 421.465 48.9667 421.465 49.128V55.2H429.033V49.128C429.033 48.9667 429.077 48.842 429.165 48.754C429.267 48.6513 429.392 48.6 429.539 48.6H430.661C430.822 48.6 430.947 48.6513 431.035 48.754C431.137 48.842 431.189 48.9667 431.189 49.128V63.494C431.189 63.6407 431.137 63.7653 431.035 63.868C430.947 63.956 430.822 64 430.661 64H429.539C429.392 64 429.267 63.956 429.165 63.868C429.077 63.7653 429.033 63.6407 429.033 63.494V57.18H421.465V63.494C421.465 63.6407 421.413 63.7653 421.311 63.868C421.223 63.956 421.098 64 420.937 64H419.815ZM435.498 64C435.337 64 435.212 63.956 435.124 63.868C435.036 63.7653 434.992 63.6407 434.992 63.494V49.106C434.992 48.9593 435.036 48.842 435.124 48.754C435.212 48.6513 435.337 48.6 435.498 48.6H436.664C436.811 48.6 436.928 48.6513 437.016 48.754C437.119 48.842 437.17 48.9593 437.17 49.106V63.494C437.17 63.6407 437.119 63.7653 437.016 63.868C436.928 63.956 436.811 64 436.664 64H435.498ZM445.958 64.22C444.682 64.22 443.611 64.0293 442.746 63.648C441.88 63.252 441.213 62.746 440.744 62.13C440.289 61.4993 440.047 60.832 440.018 60.128C440.018 60.0107 440.062 59.908 440.15 59.82C440.252 59.7173 440.37 59.666 440.502 59.666H441.624C441.8 59.666 441.932 59.71 442.02 59.798C442.108 59.886 442.166 59.9887 442.196 60.106C442.269 60.458 442.445 60.81 442.724 61.162C443.017 61.4993 443.42 61.7853 443.934 62.02C444.462 62.24 445.136 62.35 445.958 62.35C447.219 62.35 448.143 62.13 448.73 61.69C449.331 61.2353 449.632 60.634 449.632 59.886C449.632 59.3727 449.47 58.962 449.148 58.654C448.84 58.3313 448.363 58.0453 447.718 57.796C447.072 57.5467 446.236 57.2753 445.21 56.982C444.139 56.674 443.252 56.3367 442.548 55.97C441.844 55.6033 441.316 55.1487 440.964 54.606C440.626 54.0633 440.458 53.374 440.458 52.538C440.458 51.746 440.67 51.042 441.096 50.426C441.521 49.7953 442.13 49.2967 442.922 48.93C443.728 48.5633 444.704 48.38 445.848 48.38C446.757 48.38 447.549 48.5047 448.224 48.754C448.913 48.9887 449.485 49.3113 449.94 49.722C450.394 50.118 450.739 50.5507 450.974 51.02C451.208 51.4747 451.333 51.922 451.348 52.362C451.348 52.4647 451.311 52.5673 451.238 52.67C451.164 52.758 451.047 52.802 450.886 52.802H449.72C449.617 52.802 449.507 52.7727 449.39 52.714C449.287 52.6553 449.206 52.5453 449.148 52.384C449.06 51.7827 448.722 51.2767 448.136 50.866C447.549 50.4553 446.786 50.25 445.848 50.25C444.894 50.25 444.117 50.4333 443.516 50.8C442.929 51.1667 442.636 51.7387 442.636 52.516C442.636 53.0147 442.775 53.4327 443.054 53.77C443.332 54.0927 443.772 54.3787 444.374 54.628C444.975 54.8773 445.76 55.1413 446.728 55.42C447.901 55.7427 448.862 56.0873 449.61 56.454C450.358 56.806 450.908 57.2533 451.26 57.796C451.626 58.324 451.81 59.006 451.81 59.842C451.81 60.766 451.568 61.558 451.084 62.218C450.6 62.8633 449.918 63.362 449.038 63.714C448.172 64.0513 447.146 64.22 445.958 64.22ZM74.1814 90.22C72.9054 90.22 71.8347 90.0293 70.9694 89.648C70.104 89.252 69.4367 88.746 68.9674 88.13C68.5127 87.4993 68.2707 86.832 68.2414 86.128C68.2414 86.0107 68.2854 85.908 68.3734 85.82C68.476 85.7173 68.5934 85.666 68.7254 85.666H69.8474C70.0234 85.666 70.1554 85.71 70.2434 85.798C70.3314 85.886 70.39 85.9887 70.4194 86.106C70.4927 86.458 70.6687 86.81 70.9474 87.162C71.2407 87.4993 71.644 87.7853 72.1574 88.02C72.6854 88.24 73.36 88.35 74.1814 88.35C75.4427 88.35 76.3667 88.13 76.9534 87.69C77.5547 87.2353 77.8554 86.634 77.8554 85.886C77.8554 85.3727 77.6941 84.962 77.3714 84.654C77.0634 84.3313 76.5867 84.0453 75.9414 83.796C75.296 83.5467 74.46 83.2753 73.4334 82.982C72.3627 82.674 71.4754 82.3367 70.7714 81.97C70.0674 81.6033 69.5394 81.1487 69.1874 80.606C68.85 80.0633 68.6814 79.374 68.6814 78.538C68.6814 77.746 68.894 77.042 69.3194 76.426C69.7447 75.7953 70.3534 75.2967 71.1454 74.93C71.952 74.5633 72.9274 74.38 74.0714 74.38C74.9807 74.38 75.7727 74.5047 76.4474 74.754C77.1367 74.9887 77.7087 75.3113 78.1634 75.722C78.6181 76.118 78.9627 76.5507 79.1974 77.02C79.4321 77.4747 79.5567 77.922 79.5714 78.362C79.5714 78.4647 79.5347 78.5673 79.4614 78.67C79.3881 78.758 79.2707 78.802 79.1094 78.802H77.9434C77.8407 78.802 77.7307 78.7727 77.6134 78.714C77.5107 78.6553 77.43 78.5453 77.3714 78.384C77.2834 77.7827 76.9461 77.2767 76.3594 76.866C75.7727 76.4553 75.01 76.25 74.0714 76.25C73.118 76.25 72.3407 76.4333 71.7394 76.8C71.1527 77.1667 70.8594 77.7387 70.8594 78.516C70.8594 79.0147 70.9987 79.4327 71.2774 79.77C71.556 80.0927 71.996 80.3787 72.5974 80.628C73.1987 80.8773 73.9834 81.1413 74.9514 81.42C76.1247 81.7427 77.0854 82.0873 77.8334 82.454C78.5814 82.806 79.1314 83.2533 79.4834 83.796C79.85 84.324 80.0334 85.006 80.0334 85.842C80.0334 86.766 79.7914 87.558 79.3074 88.218C78.8234 88.8633 78.1414 89.362 77.2614 89.714C76.396 90.0513 75.3694 90.22 74.1814 90.22ZM86.6171 90C86.4704 90 86.3457 89.956 86.2431 89.868C86.1551 89.7653 86.1111 89.6407 86.1111 89.494V76.558H81.8871C81.7404 76.558 81.6157 76.514 81.5131 76.426C81.4251 76.3233 81.3811 76.1987 81.3811 76.052V75.128C81.3811 74.9667 81.4251 74.842 81.5131 74.754C81.6157 74.6513 81.7404 74.6 81.8871 74.6H92.4911C92.6524 74.6 92.7771 74.6513 92.8651 74.754C92.9677 74.842 93.0191 74.9667 93.0191 75.128V76.052C93.0191 76.1987 92.9677 76.3233 92.8651 76.426C92.7771 76.514 92.6524 76.558 92.4911 76.558H88.2891V89.494C88.2891 89.6407 88.2377 89.7653 88.1351 89.868C88.0471 89.956 87.9224 90 87.7611 90H86.6171ZM95.9913 90C95.83 90 95.7053 89.956 95.6173 89.868C95.5293 89.7653 95.4853 89.6407 95.4853 89.494V75.128C95.4853 74.9667 95.5293 74.842 95.6173 74.754C95.7053 74.6513 95.83 74.6 95.9913 74.6H101.359C103.017 74.6 104.329 74.9887 105.297 75.766C106.265 76.5433 106.749 77.6947 106.749 79.22C106.749 80.3493 106.463 81.2733 105.891 81.992C105.334 82.696 104.571 83.1873 103.603 83.466L106.991 89.318C107.035 89.406 107.057 89.4867 107.057 89.56C107.057 89.6773 107.006 89.78 106.903 89.868C106.815 89.956 106.713 90 106.595 90H105.539C105.29 90 105.107 89.934 104.989 89.802C104.872 89.67 104.769 89.538 104.681 89.406L101.491 83.818H97.6413V89.494C97.6413 89.6407 97.59 89.7653 97.4873 89.868C97.3993 89.956 97.2746 90 97.1133 90H95.9913ZM97.6413 81.948H101.271C102.371 81.948 103.193 81.7207 103.735 81.266C104.278 80.7967 104.549 80.1073 104.549 79.198C104.549 78.3033 104.278 77.6213 103.735 77.152C103.207 76.6827 102.386 76.448 101.271 76.448H97.6413V81.948ZM108.867 90C108.75 90 108.647 89.956 108.559 89.868C108.471 89.78 108.427 89.6773 108.427 89.56C108.427 89.4867 108.435 89.406 108.449 89.318L113.905 75.084C113.964 74.9373 114.045 74.82 114.147 74.732C114.25 74.644 114.404 74.6 114.609 74.6H116.105C116.296 74.6 116.443 74.644 116.545 74.732C116.663 74.82 116.751 74.9373 116.809 75.084L122.243 89.318C122.273 89.406 122.287 89.4867 122.287 89.56C122.287 89.6773 122.243 89.78 122.155 89.868C122.067 89.956 121.965 90 121.847 90H120.725C120.549 90 120.417 89.956 120.329 89.868C120.256 89.78 120.205 89.6993 120.175 89.626L118.965 86.502H111.749L110.539 89.626C110.525 89.6993 110.473 89.78 110.385 89.868C110.297 89.956 110.165 90 109.989 90H108.867ZM112.387 84.61H118.327L115.357 76.8L112.387 84.61ZM126.879 90C126.732 90 126.607 89.956 126.505 89.868C126.417 89.7653 126.373 89.6407 126.373 89.494V76.558H122.149C122.002 76.558 121.877 76.514 121.775 76.426C121.687 76.3233 121.643 76.1987 121.643 76.052V75.128C121.643 74.9667 121.687 74.842 121.775 74.754C121.877 74.6513 122.002 74.6 122.149 74.6H132.753C132.914 74.6 133.039 74.6513 133.127 74.754C133.229 74.842 133.281 74.9667 133.281 75.128V76.052C133.281 76.1987 133.229 76.3233 133.127 76.426C133.039 76.514 132.914 76.558 132.753 76.558H128.551V89.494C128.551 89.6407 128.499 89.7653 128.397 89.868C128.309 89.956 128.184 90 128.023 90H126.879ZM136.253 90C136.092 90 135.967 89.956 135.879 89.868C135.791 89.7653 135.747 89.6407 135.747 89.494V75.128C135.747 74.9667 135.791 74.842 135.879 74.754C135.967 74.6513 136.092 74.6 136.253 74.6H145.339C145.5 74.6 145.625 74.6513 145.713 74.754C145.801 74.842 145.845 74.9667 145.845 75.128V75.964C145.845 76.1253 145.801 76.25 145.713 76.338C145.625 76.426 145.5 76.47 145.339 76.47H137.859V81.288H144.855C145.016 81.288 145.141 81.3393 145.229 81.442C145.317 81.53 145.361 81.6547 145.361 81.816V82.63C145.361 82.7767 145.317 82.9013 145.229 83.004C145.141 83.092 145.016 83.136 144.855 83.136H137.859V88.13H145.515C145.676 88.13 145.801 88.174 145.889 88.262C145.977 88.35 146.021 88.4747 146.021 88.636V89.494C146.021 89.6407 145.977 89.7653 145.889 89.868C145.801 89.956 145.676 90 145.515 90H136.253ZM154.526 90.22C153.236 90.22 152.136 89.978 151.226 89.494C150.332 89.01 149.642 88.328 149.158 87.448C148.689 86.568 148.425 85.534 148.366 84.346C148.352 83.7007 148.344 83.0187 148.344 82.3C148.344 81.5667 148.352 80.87 148.366 80.21C148.425 79.022 148.689 77.9953 149.158 77.13C149.642 76.2647 150.339 75.59 151.248 75.106C152.158 74.622 153.25 74.38 154.526 74.38C155.568 74.38 156.47 74.5267 157.232 74.82C157.995 75.1133 158.618 75.4873 159.102 75.942C159.601 76.382 159.968 76.844 160.202 77.328C160.452 77.812 160.584 78.2373 160.598 78.604C160.613 78.736 160.576 78.846 160.488 78.934C160.4 79.0073 160.283 79.044 160.136 79.044H158.838C158.692 79.044 158.582 79.0147 158.508 78.956C158.45 78.8973 158.391 78.7947 158.332 78.648C158.2 78.2667 157.98 77.8927 157.672 77.526C157.379 77.1593 156.976 76.8587 156.462 76.624C155.964 76.3747 155.318 76.25 154.526 76.25C153.368 76.25 152.429 76.5653 151.71 77.196C151.006 77.8267 150.625 78.868 150.566 80.32C150.522 81.6253 150.522 82.9307 150.566 84.236C150.625 85.7027 151.014 86.7587 151.732 87.404C152.451 88.0347 153.39 88.35 154.548 88.35C155.326 88.35 156.015 88.2107 156.616 87.932C157.232 87.6387 157.716 87.1913 158.068 86.59C158.42 85.9887 158.596 85.226 158.596 84.302V83.378H155.296C155.15 83.378 155.025 83.334 154.922 83.246C154.834 83.1433 154.79 83.0113 154.79 82.85V82.146C154.79 81.9847 154.834 81.86 154.922 81.772C155.025 81.6693 155.15 81.618 155.296 81.618H160.268C160.43 81.618 160.554 81.6693 160.642 81.772C160.73 81.86 160.774 81.9847 160.774 82.146V84.258C160.774 85.4607 160.525 86.5093 160.026 87.404C159.542 88.2987 158.831 88.9953 157.892 89.494C156.954 89.978 155.832 90.22 154.526 90.22ZM167.974 90C167.828 90 167.703 89.956 167.6 89.868C167.512 89.7653 167.468 89.6407 167.468 89.494V84.302L162.166 75.326C162.152 75.282 162.137 75.238 162.122 75.194C162.108 75.15 162.1 75.0987 162.1 75.04C162.1 74.9227 162.144 74.82 162.232 74.732C162.32 74.644 162.423 74.6 162.54 74.6H163.684C163.816 74.6 163.934 74.6367 164.036 74.71C164.139 74.7687 164.212 74.8567 164.256 74.974L168.546 82.102L172.836 74.974C172.91 74.8567 172.99 74.7687 173.078 74.71C173.181 74.6367 173.298 74.6 173.43 74.6H174.552C174.684 74.6 174.794 74.644 174.882 74.732C174.97 74.82 175.014 74.9227 175.014 75.04C175.014 75.0987 175.007 75.15 174.992 75.194C174.978 75.238 174.956 75.282 174.926 75.326L169.646 84.302V89.494C169.646 89.6407 169.595 89.7653 169.492 89.868C169.404 89.956 169.28 90 169.118 90H167.974ZM187.869 90.22C186.622 90.22 185.551 90.0073 184.657 89.582C183.762 89.142 183.073 88.4747 182.589 87.58C182.105 86.6707 181.833 85.534 181.775 84.17C181.76 83.5247 181.753 82.9087 181.753 82.322C181.753 81.7207 181.76 81.0973 181.775 80.452C181.833 79.1027 182.112 77.9807 182.611 77.086C183.124 76.1767 183.828 75.502 184.723 75.062C185.632 74.6073 186.681 74.38 187.869 74.38C189.071 74.38 190.12 74.6073 191.015 75.062C191.924 75.502 192.635 76.1767 193.149 77.086C193.662 77.9807 193.941 79.1027 193.985 80.452C194.014 81.0973 194.029 81.7207 194.029 82.322C194.029 82.9087 194.014 83.5247 193.985 84.17C193.941 85.534 193.669 86.6707 193.171 87.58C192.687 88.4747 191.997 89.142 191.103 89.582C190.208 90.0073 189.13 90.22 187.869 90.22ZM187.869 88.35C188.998 88.35 189.915 88.0127 190.619 87.338C191.337 86.6633 191.726 85.5707 191.785 84.06C191.814 83.4 191.829 82.8133 191.829 82.3C191.829 81.772 191.814 81.1853 191.785 80.54C191.755 79.528 191.565 78.7067 191.213 78.076C190.875 77.4453 190.421 76.9833 189.849 76.69C189.277 76.3967 188.617 76.25 187.869 76.25C187.15 76.25 186.505 76.3967 185.933 76.69C185.361 76.9833 184.899 77.4453 184.547 78.076C184.209 78.7067 184.019 79.528 183.975 80.54C183.96 81.1853 183.953 81.772 183.953 82.3C183.953 82.8133 183.96 83.4 183.975 84.06C184.033 85.5707 184.422 86.6633 185.141 87.338C185.859 88.0127 186.769 88.35 187.869 88.35ZM201.382 90C201.162 90 200.986 89.9487 200.854 89.846C200.736 89.7433 200.641 89.604 200.568 89.428L195.662 75.282C195.632 75.194 195.618 75.1133 195.618 75.04C195.618 74.9227 195.662 74.82 195.75 74.732C195.838 74.644 195.94 74.6 196.058 74.6H197.202C197.378 74.6 197.51 74.6513 197.598 74.754C197.7 74.842 197.759 74.9227 197.774 74.996L202.086 87.47L206.398 74.996C206.427 74.9227 206.486 74.842 206.574 74.754C206.662 74.6513 206.794 74.6 206.97 74.6H208.114C208.231 74.6 208.334 74.644 208.422 74.732C208.524 74.82 208.576 74.9227 208.576 75.04C208.576 75.1133 208.561 75.194 208.532 75.282L203.604 89.428C203.545 89.604 203.45 89.7433 203.318 89.846C203.2 89.9487 203.032 90 202.812 90H201.382ZM211.706 90C211.545 90 211.42 89.956 211.332 89.868C211.244 89.7653 211.2 89.6407 211.2 89.494V75.128C211.2 74.9667 211.244 74.842 211.332 74.754C211.42 74.6513 211.545 74.6 211.706 74.6H220.792C220.953 74.6 221.078 74.6513 221.166 74.754C221.254 74.842 221.298 74.9667 221.298 75.128V75.964C221.298 76.1253 221.254 76.25 221.166 76.338C221.078 76.426 220.953 76.47 220.792 76.47H213.312V81.288H220.308C220.469 81.288 220.594 81.3393 220.682 81.442C220.77 81.53 220.814 81.6547 220.814 81.816V82.63C220.814 82.7767 220.77 82.9013 220.682 83.004C220.594 83.092 220.469 83.136 220.308 83.136H213.312V88.13H220.968C221.129 88.13 221.254 88.174 221.342 88.262C221.43 88.35 221.474 88.4747 221.474 88.636V89.494C221.474 89.6407 221.43 89.7653 221.342 89.868C221.254 89.956 221.129 90 220.968 90H211.706ZM225.048 90C224.887 90 224.762 89.956 224.674 89.868C224.586 89.7653 224.542 89.6407 224.542 89.494V75.128C224.542 74.9667 224.586 74.842 224.674 74.754C224.762 74.6513 224.887 74.6 225.048 74.6H230.416C232.073 74.6 233.386 74.9887 234.354 75.766C235.322 76.5433 235.806 77.6947 235.806 79.22C235.806 80.3493 235.52 81.2733 234.948 81.992C234.391 82.696 233.628 83.1873 232.66 83.466L236.048 89.318C236.092 89.406 236.114 89.4867 236.114 89.56C236.114 89.6773 236.063 89.78 235.96 89.868C235.872 89.956 235.769 90 235.652 90H234.596C234.347 90 234.163 89.934 234.046 89.802C233.929 89.67 233.826 89.538 233.738 89.406L230.548 83.818H226.698V89.494C226.698 89.6407 226.647 89.7653 226.544 89.868C226.456 89.956 226.331 90 226.17 90H225.048ZM226.698 81.948H230.328C231.428 81.948 232.249 81.7207 232.792 81.266C233.335 80.7967 233.606 80.1073 233.606 79.198C233.606 78.3033 233.335 77.6213 232.792 77.152C232.264 76.6827 231.443 76.448 230.328 76.448H226.698V81.948ZM247.664 90C247.517 90 247.393 89.956 247.29 89.868C247.202 89.7653 247.158 89.6407 247.158 89.494V76.558H242.934C242.787 76.558 242.663 76.514 242.56 76.426C242.472 76.3233 242.428 76.1987 242.428 76.052V75.128C242.428 74.9667 242.472 74.842 242.56 74.754C242.663 74.6513 242.787 74.6 242.934 74.6H253.538C253.699 74.6 253.824 74.6513 253.912 74.754C254.015 74.842 254.066 74.9667 254.066 75.128V76.052C254.066 76.1987 254.015 76.3233 253.912 76.426C253.824 76.514 253.699 76.558 253.538 76.558H249.336V89.494C249.336 89.6407 249.285 89.7653 249.182 89.868C249.094 89.956 248.969 90 248.808 90H247.664ZM257.038 90C256.877 90 256.752 89.956 256.664 89.868C256.576 89.7653 256.532 89.6407 256.532 89.494V75.128C256.532 74.9667 256.576 74.842 256.664 74.754C256.752 74.6513 256.877 74.6 257.038 74.6H258.16C258.321 74.6 258.446 74.6513 258.534 74.754C258.637 74.842 258.688 74.9667 258.688 75.128V81.2H266.256V75.128C266.256 74.9667 266.3 74.842 266.388 74.754C266.491 74.6513 266.615 74.6 266.762 74.6H267.884C268.045 74.6 268.17 74.6513 268.258 74.754C268.361 74.842 268.412 74.9667 268.412 75.128V89.494C268.412 89.6407 268.361 89.7653 268.258 89.868C268.17 89.956 268.045 90 267.884 90H266.762C266.615 90 266.491 89.956 266.388 89.868C266.3 89.7653 266.256 89.6407 266.256 89.494V83.18H258.688V89.494C258.688 89.6407 258.637 89.7653 258.534 89.868C258.446 89.956 258.321 90 258.16 90H257.038ZM272.722 90C272.56 90 272.436 89.956 272.348 89.868C272.26 89.7653 272.216 89.6407 272.216 89.494V75.128C272.216 74.9667 272.26 74.842 272.348 74.754C272.436 74.6513 272.56 74.6 272.722 74.6H281.808C281.969 74.6 282.094 74.6513 282.182 74.754C282.27 74.842 282.314 74.9667 282.314 75.128V75.964C282.314 76.1253 282.27 76.25 282.182 76.338C282.094 76.426 281.969 76.47 281.808 76.47H274.328V81.288H281.324C281.485 81.288 281.61 81.3393 281.698 81.442C281.786 81.53 281.83 81.6547 281.83 81.816V82.63C281.83 82.7767 281.786 82.9013 281.698 83.004C281.61 83.092 281.485 83.136 281.324 83.136H274.328V88.13H281.984C282.145 88.13 282.27 88.174 282.358 88.262C282.446 88.35 282.49 88.4747 282.49 88.636V89.494C282.49 89.6407 282.446 89.7653 282.358 89.868C282.27 89.956 282.145 90 281.984 90H272.722ZM291.456 90C291.295 90 291.17 89.956 291.082 89.868C290.994 89.7653 290.95 89.6407 290.95 89.494V75.106C290.95 74.9593 290.994 74.842 291.082 74.754C291.17 74.6513 291.295 74.6 291.456 74.6H292.622C292.769 74.6 292.886 74.6513 292.974 74.754C293.062 74.842 293.106 74.9593 293.106 75.106V88.086H300.432C300.593 88.086 300.718 88.1373 300.806 88.24C300.894 88.328 300.938 88.4527 300.938 88.614V89.494C300.938 89.6407 300.894 89.7653 300.806 89.868C300.718 89.956 300.593 90 300.432 90H291.456ZM302.313 90C302.195 90 302.093 89.956 302.005 89.868C301.917 89.78 301.873 89.6773 301.873 89.56C301.873 89.4867 301.88 89.406 301.895 89.318L307.351 75.084C307.409 74.9373 307.49 74.82 307.593 74.732C307.695 74.644 307.849 74.6 308.055 74.6H309.551C309.741 74.6 309.888 74.644 309.991 74.732C310.108 74.82 310.196 74.9373 310.255 75.084L315.689 89.318C315.718 89.406 315.733 89.4867 315.733 89.56C315.733 89.6773 315.689 89.78 315.601 89.868C315.513 89.956 315.41 90 315.293 90H314.171C313.995 90 313.863 89.956 313.775 89.868C313.701 89.78 313.65 89.6993 313.621 89.626L312.411 86.502H305.195L303.985 89.626C303.97 89.6993 303.919 89.78 303.831 89.868C303.743 89.956 303.611 90 303.435 90H302.313ZM305.833 84.61H311.773L308.803 76.8L305.833 84.61ZM322.82 90.22C321.544 90.22 320.473 90.0293 319.608 89.648C318.743 89.252 318.075 88.746 317.606 88.13C317.151 87.4993 316.909 86.832 316.88 86.128C316.88 86.0107 316.924 85.908 317.012 85.82C317.115 85.7173 317.232 85.666 317.364 85.666H318.486C318.662 85.666 318.794 85.71 318.882 85.798C318.97 85.886 319.029 85.9887 319.058 86.106C319.131 86.458 319.307 86.81 319.586 87.162C319.879 87.4993 320.283 87.7853 320.796 88.02C321.324 88.24 321.999 88.35 322.82 88.35C324.081 88.35 325.005 88.13 325.592 87.69C326.193 87.2353 326.494 86.634 326.494 85.886C326.494 85.3727 326.333 84.962 326.01 84.654C325.702 84.3313 325.225 84.0453 324.58 83.796C323.935 83.5467 323.099 83.2753 322.072 82.982C321.001 82.674 320.114 82.3367 319.41 81.97C318.706 81.6033 318.178 81.1487 317.826 80.606C317.489 80.0633 317.32 79.374 317.32 78.538C317.32 77.746 317.533 77.042 317.958 76.426C318.383 75.7953 318.992 75.2967 319.784 74.93C320.591 74.5633 321.566 74.38 322.71 74.38C323.619 74.38 324.411 74.5047 325.086 74.754C325.775 74.9887 326.347 75.3113 326.802 75.722C327.257 76.118 327.601 76.5507 327.836 77.02C328.071 77.4747 328.195 77.922 328.21 78.362C328.21 78.4647 328.173 78.5673 328.1 78.67C328.027 78.758 327.909 78.802 327.748 78.802H326.582C326.479 78.802 326.369 78.7727 326.252 78.714C326.149 78.6553 326.069 78.5453 326.01 78.384C325.922 77.7827 325.585 77.2767 324.998 76.866C324.411 76.4553 323.649 76.25 322.71 76.25C321.757 76.25 320.979 76.4333 320.378 76.8C319.791 77.1667 319.498 77.7387 319.498 78.516C319.498 79.0147 319.637 79.4327 319.916 79.77C320.195 80.0927 320.635 80.3787 321.236 80.628C321.837 80.8773 322.622 81.1413 323.59 81.42C324.763 81.7427 325.724 82.0873 326.472 82.454C327.22 82.806 327.77 83.2533 328.122 83.796C328.489 84.324 328.672 85.006 328.672 85.842C328.672 86.766 328.43 87.558 327.946 88.218C327.462 88.8633 326.78 89.362 325.9 89.714C325.035 90.0513 324.008 90.22 322.82 90.22ZM335.256 90C335.109 90 334.984 89.956 334.882 89.868C334.794 89.7653 334.75 89.6407 334.75 89.494V76.558H330.526C330.379 76.558 330.254 76.514 330.152 76.426C330.064 76.3233 330.02 76.1987 330.02 76.052V75.128C330.02 74.9667 330.064 74.842 330.152 74.754C330.254 74.6513 330.379 74.6 330.526 74.6H341.13C341.291 74.6 341.416 74.6513 341.504 74.754C341.606 74.842 341.658 74.9667 341.658 75.128V76.052C341.658 76.1987 341.606 76.3233 341.504 76.426C341.416 76.514 341.291 76.558 341.13 76.558H336.928V89.494C336.928 89.6407 336.876 89.7653 336.774 89.868C336.686 89.956 336.561 90 336.4 90H335.256ZM352.933 90C352.787 90 352.662 89.956 352.559 89.868C352.471 89.7653 352.427 89.6407 352.427 89.494V84.302L347.125 75.326C347.111 75.282 347.096 75.238 347.081 75.194C347.067 75.15 347.059 75.0987 347.059 75.04C347.059 74.9227 347.103 74.82 347.191 74.732C347.279 74.644 347.382 74.6 347.499 74.6H348.643C348.775 74.6 348.893 74.6367 348.995 74.71C349.098 74.7687 349.171 74.8567 349.215 74.974L353.505 82.102L357.795 74.974C357.869 74.8567 357.949 74.7687 358.037 74.71C358.14 74.6367 358.257 74.6 358.389 74.6H359.511C359.643 74.6 359.753 74.644 359.841 74.732C359.929 74.82 359.973 74.9227 359.973 75.04C359.973 75.0987 359.966 75.15 359.951 75.194C359.937 75.238 359.915 75.282 359.885 75.326L354.605 84.302V89.494C354.605 89.6407 354.554 89.7653 354.451 89.868C354.363 89.956 354.239 90 354.077 90H352.933ZM363.064 90C362.902 90 362.778 89.956 362.69 89.868C362.602 89.7653 362.558 89.6407 362.558 89.494V75.128C362.558 74.9667 362.602 74.842 362.69 74.754C362.778 74.6513 362.902 74.6 363.064 74.6H372.15C372.311 74.6 372.436 74.6513 372.524 74.754C372.612 74.842 372.656 74.9667 372.656 75.128V75.964C372.656 76.1253 372.612 76.25 372.524 76.338C372.436 76.426 372.311 76.47 372.15 76.47H364.67V81.288H371.666C371.827 81.288 371.952 81.3393 372.04 81.442C372.128 81.53 372.172 81.6547 372.172 81.816V82.63C372.172 82.7767 372.128 82.9013 372.04 83.004C371.952 83.092 371.827 83.136 371.666 83.136H364.67V88.13H372.326C372.487 88.13 372.612 88.174 372.7 88.262C372.788 88.35 372.832 88.4747 372.832 88.636V89.494C372.832 89.6407 372.788 89.7653 372.7 89.868C372.612 89.956 372.487 90 372.326 90H363.064ZM374.865 90C374.748 90 374.645 89.956 374.557 89.868C374.469 89.78 374.425 89.6773 374.425 89.56C374.425 89.4867 374.433 89.406 374.447 89.318L379.903 75.084C379.962 74.9373 380.043 74.82 380.145 74.732C380.248 74.644 380.402 74.6 380.607 74.6H382.103C382.294 74.6 382.441 74.644 382.543 74.732C382.661 74.82 382.749 74.9373 382.807 75.084L388.241 89.318C388.271 89.406 388.285 89.4867 388.285 89.56C388.285 89.6773 388.241 89.78 388.153 89.868C388.065 89.956 387.963 90 387.845 90H386.723C386.547 90 386.415 89.956 386.327 89.868C386.254 89.78 386.203 89.6993 386.173 89.626L384.963 86.502H377.747L376.537 89.626C376.523 89.6993 376.471 89.78 376.383 89.868C376.295 89.956 376.163 90 375.987 90H374.865ZM378.385 84.61H384.325L381.355 76.8L378.385 84.61ZM391.144 90C390.982 90 390.858 89.956 390.77 89.868C390.682 89.7653 390.638 89.6407 390.638 89.494V75.128C390.638 74.9667 390.682 74.842 390.77 74.754C390.858 74.6513 390.982 74.6 391.144 74.6H396.512C398.169 74.6 399.482 74.9887 400.45 75.766C401.418 76.5433 401.902 77.6947 401.902 79.22C401.902 80.3493 401.616 81.2733 401.044 81.992C400.486 82.696 399.724 83.1873 398.756 83.466L402.144 89.318C402.188 89.406 402.21 89.4867 402.21 89.56C402.21 89.6773 402.158 89.78 402.056 89.868C401.968 89.956 401.865 90 401.748 90H400.692C400.442 90 400.259 89.934 400.142 89.802C400.024 89.67 399.922 89.538 399.834 89.406L396.644 83.818H392.794V89.494C392.794 89.6407 392.742 89.7653 392.64 89.868C392.552 89.956 392.427 90 392.266 90H391.144ZM392.794 81.948H396.424C397.524 81.948 398.345 81.7207 398.888 81.266C399.43 80.7967 399.702 80.1073 399.702 79.198C399.702 78.3033 399.43 77.6213 398.888 77.152C398.36 76.6827 397.538 76.448 396.424 76.448H392.794V81.948ZM405.12 90C404.973 90 404.848 89.956 404.746 89.868C404.658 89.7653 404.614 89.6407 404.614 89.494V87.91C404.614 87.7633 404.658 87.646 404.746 87.558C404.848 87.4553 404.973 87.404 405.12 87.404H406.704C406.85 87.404 406.968 87.4553 407.056 87.558C407.158 87.646 407.21 87.7633 407.21 87.91V89.494C407.21 89.6407 407.158 89.7653 407.056 89.868C406.968 89.956 406.85 90 406.704 90H405.12Z" fill="white"/>
</svg>
