<svg xmlns="http://www.w3.org/2000/svg" xmlns:xlink="http://www.w3.org/1999/xlink" viewBox="0 0 231.24 142.08"><defs><style>.cls-1{fill:none;}.cls-2{isolation:isolate;}.cls-3{clip-path:url(#clip-path);}.cls-4{fill:#133f5d;}.cls-5{fill:#134160;}.cls-6{fill:#144463;}.cls-7{fill:#144666;}.cls-8{fill:#15486a;}.cls-9{fill:#164a6d;}.cls-10{fill:#164c70;}.cls-11{fill:#174e73;}.cls-12{clip-path:url(#clip-path-2);}.cls-13{fill:#113953;}.cls-14{fill:#19547b;}.cls-15{fill:#113a56;}.cls-16{clip-path:url(#clip-path-3);}.cls-17{fill:#123d5a;}.cls-18{fill:#113b56;}.cls-19{fill:#1c5e8a;}.cls-20{fill:#dcdcdc;}.cls-21{clip-path:url(#clip-path-4);}.cls-22{fill:#949494;}.cls-23{fill:#999;}.cls-24{fill:#9e9e9e;}.cls-25{fill:#a3a3a3;}.cls-26{fill:#a8a8a8;}.cls-27{fill:#adadad;}.cls-28{fill:#b3b3b3;}.cls-29{fill:#b8b8b8;}.cls-30{clip-path:url(#clip-path-5);}.cls-31{fill:#858585;}.cls-32{fill:#c5c5c5;}.cls-33{fill:#898989;}.cls-34{clip-path:url(#clip-path-6);}.cls-35{fill:#8f8f8f;}.cls-36{fill:#8a8a8a;}</style><clipPath id="clip-path"><path class="cls-1" d="M231.24,67l0,8.16c0,2.21-1.46,4.41-4.36,6.1l0-8.15C229.78,71.42,231.23,69.21,231.24,67Z"/></clipPath><clipPath id="clip-path-2"><path class="cls-1" d="M0,75.08l0-8.15c0,2.23,1.47,4.47,4.43,6.18l0,8.15C1.47,79.55,0,77.31,0,75.08Z"/></clipPath><clipPath id="clip-path-3"><path class="cls-1" d="M126.6,131.38l0,8.15c-5.83,3.4-15.33,3.4-21.21,0l0-8.15C111.26,134.78,120.76,134.77,126.6,131.38Z"/></clipPath><clipPath id="clip-path-4"><path class="cls-1" d="M185.64,49.75v4.07c0,2.11-1.39,4.21-4.15,5.81V55.55C184.26,54,185.64,51.85,185.64,49.75Z"/></clipPath><clipPath id="clip-path-5"><path class="cls-1" d="M79.7,53.74l0-4.08c0,2.13,1.4,4.27,4.21,5.89v4.08C81.1,58,79.7,55.87,79.7,53.74Z"/></clipPath><clipPath id="clip-path-6"><path class="cls-1" d="M142.93,78V82c-5.55,3.23-14.59,3.23-20.18,0V78C128.34,81.19,137.38,81.19,142.93,78Z"/></clipPath></defs><g id="Layer_2" data-name="Layer 2"><g id="Layer_1-2" data-name="Layer 1"><g class="cls-2"><g class="cls-2"><g class="cls-3"><g class="cls-2"><path class="cls-4" d="M231.24,67l0,8.16v.13l0-8.15a.66.66,0,0,0,0-.14"/><path class="cls-5" d="M231.23,67.14l0,8.15a5.16,5.16,0,0,1-.1.86l0-8.15a5.13,5.13,0,0,0,.09-.86"/><path class="cls-6" d="M231.14,68l0,8.15a5.3,5.3,0,0,1-.24.84l0-8.15a5.35,5.35,0,0,0,.25-.84"/><path class="cls-7" d="M230.89,68.84l0,8.15a6.06,6.06,0,0,1-.4.86l0-8.15a5.52,5.52,0,0,0,.4-.86"/><path class="cls-8" d="M230.49,69.7l0,8.15a7,7,0,0,1-.6.89l0-8.15a7,7,0,0,0,.6-.89"/><path class="cls-9" d="M229.89,70.59l0,8.15a7.88,7.88,0,0,1-.93,1l0-8.15a8.62,8.62,0,0,0,.93-1"/><path class="cls-10" d="M229,71.59l0,8.15a11.58,11.58,0,0,1-1.9,1.41l0-8.15a11.58,11.58,0,0,0,1.9-1.41"/><path class="cls-11" d="M227.06,73l0,8.15-.19.11,0-8.15.18-.11"/></g></g></g><g class="cls-2"><g class="cls-12"><g class="cls-2"><path class="cls-13" d="M4.45,73.11l0,8.15C1.47,79.55,0,77.31,0,75.08l0-8.15c0,2.23,1.47,4.47,4.43,6.18"/></g></g></g><polygon class="cls-14" points="226.88 73.11 226.85 81.26 126.58 139.53 126.6 131.38 226.88 73.11"/><polygon class="cls-15" points="105.38 131.38 105.36 139.53 4.42 81.26 4.45 73.11 105.38 131.38"/><g class="cls-2"><g class="cls-16"><g class="cls-2"><path class="cls-11" d="M126.6,131.38l0,8.15a16.81,16.81,0,0,1-3.28,1.45l0-8.15a17.52,17.52,0,0,0,3.29-1.45"/><path class="cls-10" d="M123.31,132.83l0,8.15a23.11,23.11,0,0,1-2.84.71l0-8.16a21.42,21.42,0,0,0,2.84-.7"/><path class="cls-9" d="M120.47,133.53l0,8.16c-.63.11-1.27.2-1.92.26l0-8.15c.64-.06,1.28-.15,1.91-.27"/><path class="cls-8" d="M118.56,133.8l0,8.15c-.55.06-1.1.09-1.66.11l0-8.15c.56,0,1.12,0,1.67-.11"/><path class="cls-7" d="M116.89,133.91l0,8.15c-.51,0-1,0-1.54,0l0-8.15c.52,0,1,0,1.54,0"/><path class="cls-6" d="M115.35,133.92l0,8.15c-.49,0-1,0-1.48-.08l0-8.15c.49,0,1,.07,1.47.08"/><path class="cls-5" d="M113.88,133.84l0,8.15c-.49,0-1-.09-1.46-.16l0-8.15c.48.07,1,.12,1.46.16"/><path class="cls-4" d="M112.42,133.68l0,8.15c-.5-.07-1-.16-1.48-.26l0-8.15c.49.1,1,.19,1.49.26"/><path class="cls-17" d="M110.93,133.42l0,8.15c-.53-.11-1.06-.24-1.57-.38l0-8.16q.76.22,1.56.39"/><path class="cls-18" d="M109.37,133l0,8.16c-.62-.18-1.23-.39-1.82-.62l0-8.15a17.84,17.84,0,0,0,1.83.61"/><path class="cls-13" d="M107.54,132.42l0,8.15a16,16,0,0,1-2.16-1l0-8.15a16.56,16.56,0,0,0,2.16,1"/></g></g></g><path class="cls-19" d="M226.81,60.82c5.88,3.39,5.9,8.89.07,12.29L126.6,131.38c-5.84,3.39-15.34,3.4-21.22,0L4.45,73.11c-5.88-3.39-5.9-8.9-.07-12.29L104.66,2.55c5.84-3.4,15.34-3.4,21.21,0Z"/></g><path class="cls-20" d="M89.7,79.82l-1.19.7c-.35.21-.76.44-1.23.7a7.69,7.69,0,0,1-2.07.81,8.77,8.77,0,0,1-2.21.25A9,9,0,0,1,80.83,82a8.3,8.3,0,0,1-2-.84L75.19,79A.28.28,0,0,1,75,78.8a.28.28,0,0,1,.17-.24l9.88-5.74a.76.76,0,0,1,.41-.1.79.79,0,0,1,.42.1l3.53,2A5.17,5.17,0,0,1,90.9,76a2.34,2.34,0,0,1,.58,1.28,1.94,1.94,0,0,1-.4,1.28A4.44,4.44,0,0,1,89.7,79.82ZM86.51,80l.53-.3.51-.3c.17-.11.37-.23.61-.36a4.09,4.09,0,0,0,.89-.73,1.45,1.45,0,0,0,.39-.82,1.29,1.29,0,0,0-.3-.9A3.53,3.53,0,0,0,88,75.62l-2.42-1.4-8,4.62,2.5,1.45a5.82,5.82,0,0,0,1.63.66,5.1,5.1,0,0,0,1.53.15,4.89,4.89,0,0,0,1.4-.25,7.1,7.1,0,0,0,1.23-.52l.61-.35"/><path class="cls-20" d="M73.67,77.53a.38.38,0,0,1-.14.16.65.65,0,0,1-.35.08.7.7,0,0,1-.33-.08l-.57-.33c-.21-.12-.31-.22-.3-.32a.41.41,0,0,1,.08-.25l1.24-1.64L68,72.06l-2.83.72a1.75,1.75,0,0,1-.43,0,1,1,0,0,1-.55-.17l-.58-.33a.21.21,0,0,1,0-.39,1.19,1.19,0,0,1,.27-.09l13.43-3.43a2.49,2.49,0,0,1,.57-.06,1.14,1.14,0,0,1,.63.16l.92.54c.21.12.31.24.29.36a.52.52,0,0,1-.1.33Zm-3.8-6L74.14,74l3.33-4.4-7.6,1.93"/><path class="cls-20" d="M96,81.65a4.74,4.74,0,0,1,1.14.85,2.17,2.17,0,0,1,.53.8,1,1,0,0,1,0,.66.87.87,0,0,1-.36.46.6.6,0,0,1-.4.1.77.77,0,0,1-.42-.1L96,84.13a2,2,0,0,1-.18-.15.26.26,0,0,1-.06-.24.77.77,0,0,0-.16-.6,2.65,2.65,0,0,0-.91-.73,4,4,0,0,0-1.4-.51,1.73,1.73,0,0,0-1.16.17c-.19.11-.31.22-.34.33a.5.5,0,0,0,.09.42,3.12,3.12,0,0,0,.49.55l.88.81a4,4,0,0,1,.79.91,1.52,1.52,0,0,1,.24.76,1,1,0,0,1-.25.62,2.22,2.22,0,0,1-.63.51,3.37,3.37,0,0,1-1.11.39,5.27,5.27,0,0,1-1.39.06,7.29,7.29,0,0,1-1.53-.28,6.69,6.69,0,0,1-1.54-.66,4.68,4.68,0,0,1-1.17-.88,2.58,2.58,0,0,1-.53-.84,1,1,0,0,1-.07-.7.88.88,0,0,1,.35-.49.72.72,0,0,1,.4-.1.83.83,0,0,1,.43.1l.55.33A1.13,1.13,0,0,1,88,84a.19.19,0,0,1,0,.24.83.83,0,0,0,.16.69,3,3,0,0,0,.94.76,5.16,5.16,0,0,0,.75.34,3.94,3.94,0,0,0,.8.21,2.69,2.69,0,0,0,.74,0,1.32,1.32,0,0,0,.57-.16.58.58,0,0,0,.32-.37.74.74,0,0,0-.15-.47,4.89,4.89,0,0,0-.57-.63c-.25-.24-.55-.51-.9-.82-.66-.58-1-1.09-.88-1.51a1.64,1.64,0,0,1,.91-1.12,4.25,4.25,0,0,1,1.06-.4,5.28,5.28,0,0,1,1.28-.1,6.28,6.28,0,0,1,1.44.24A6.54,6.54,0,0,1,96,81.65Z"/><path class="cls-20" d="M106.4,96.51a.21.21,0,0,1-.12.18.54.54,0,0,1-.27.06.5.5,0,0,1-.27-.07L104.6,96c-.11-.06-.18-.12-.19-.17l0-.14,0-1a11,11,0,0,1-2.26-.34,8.64,8.64,0,0,1-2.17-.89,5.25,5.25,0,0,1-1.21-.92,2.13,2.13,0,0,1-.57-1,1.25,1.25,0,0,1,.13-1,2.38,2.38,0,0,1,1-.88,3.9,3.9,0,0,1,1.1-.44,8.3,8.3,0,0,1,1.26-.19,12.16,12.16,0,0,1,1.35,0c.45,0,.9.07,1.36.13a7.87,7.87,0,0,1,.11-.87,2.22,2.22,0,0,1,.21-.63,2.45,2.45,0,0,1,.38-.47,5.43,5.43,0,0,1,.56-.39,3.8,3.8,0,0,1,1.35-.47,6,6,0,0,1,1.47-.06,7.24,7.24,0,0,1,1.43.26,5.47,5.47,0,0,1,1.16.49,2.92,2.92,0,0,1,.82.68,1.74,1.74,0,0,1,.41.81,1.24,1.24,0,0,1-.12.84,1.91,1.91,0,0,1-.8.76,5,5,0,0,1-2.16.62,15.89,15.89,0,0,1-2.79-.1l0,2.7a15,15,0,0,0,2.93-.79.81.81,0,0,1,.39,0,.89.89,0,0,1,.34.08l.71.41c.11.07.17.14.16.22a.27.27,0,0,1-.16.17,10.58,10.58,0,0,1-1.81.72,13.2,13.2,0,0,1-2.56.5Zm-3.75-3.25a7.79,7.79,0,0,0,1.67.26l0-3.08-1-.12c-.35,0-.68,0-1,0a6.12,6.12,0,0,0-.88.08,1.93,1.93,0,0,0-.69.23,1.05,1.05,0,0,0-.5.51.72.72,0,0,0,0,.56,1.79,1.79,0,0,0,.43.56,4.4,4.4,0,0,0,.64.47,6.33,6.33,0,0,0,1.37.57m5.6-5.74a2.08,2.08,0,0,0-1.26.23,1.56,1.56,0,0,0-.37.28,1.25,1.25,0,0,0-.2.36,2.14,2.14,0,0,0-.09.49c0,.19,0,.41,0,.66l.9.13c.32,0,.64,0,1,0a5.14,5.14,0,0,0,.88-.08,2.27,2.27,0,0,0,.77-.28.76.76,0,0,0,.3-.29.55.55,0,0,0,.09-.37.78.78,0,0,0-.16-.41,1.7,1.7,0,0,0-.44-.38,3.14,3.14,0,0,0-1.34-.39"/><path class="cls-20" d="M44.91,70.42a.27.27,0,0,1,.16.24c0,.09,0,.17-.16.24L35,76.64a.79.79,0,0,1-.42.1.76.76,0,0,1-.41-.1l-.63-.36q-.18-.11-.18-.24a.28.28,0,0,1,.17-.24l7.25-4.22-7,1.29a3.89,3.89,0,0,1-.62.06,1.07,1.07,0,0,1-.5-.14l-.59-.34c-.15-.09-.23-.18-.24-.28a.82.82,0,0,1,.1-.37l2.2-4.06L26.91,72a.76.76,0,0,1-.41.1.79.79,0,0,1-.42-.1l-.63-.36a.28.28,0,0,1-.17-.24.32.32,0,0,1,.17-.24l9.88-5.74a.78.78,0,0,1,.41-.1.79.79,0,0,1,.42.1l.59.34q.26.15.27.33a.81.81,0,0,1-.08.34l-2.88,5.27L43.15,70a3.83,3.83,0,0,1,.6,0,1.22,1.22,0,0,1,.57.16Z"/><path class="cls-20" d="M56.2,88.76l-.12.12a.65.65,0,0,1-.35.08.62.62,0,0,1-.33-.08l-.66-.38c-.21-.12-.31-.24-.3-.35a.65.65,0,0,1,.05-.27l1.67-3.56-2.65-1.53-3.9,2.27a.76.76,0,0,1-.41.1.79.79,0,0,1-.42-.1l-.63-.37a.25.25,0,0,1,0-.47L58,78.47a.75.75,0,0,1,.41-.09.93.93,0,0,1,.42.09l3.73,2.15a6.78,6.78,0,0,1,1.24.93,2.32,2.32,0,0,1,.61,1,1.4,1.4,0,0,1-.18,1,3,3,0,0,1-1.13,1,5.64,5.64,0,0,1-2.6.78,7.72,7.72,0,0,1-2.63-.31Zm1.29-5.26a5.52,5.52,0,0,0,2.15.74,3.41,3.41,0,0,0,2-.48c.64-.37.9-.76.77-1.15a2.79,2.79,0,0,0-1.31-1.23l-2.6-1.5L54.89,82l2.6,1.51"/><path class="cls-20" d="M46.63,83.19a.57.57,0,0,1-.14.16.9.9,0,0,1-.35.08.67.67,0,0,1-.33-.09L45.24,83c-.21-.11-.31-.22-.3-.32a.36.36,0,0,1,.08-.24l1.24-1.65-5.35-3.08-2.83.72a2.42,2.42,0,0,1-.43,0,1.14,1.14,0,0,1-.56-.18L36.52,78a.23.23,0,0,1-.14-.19c0-.08,0-.14.14-.2a.79.79,0,0,1,.27-.08l13.43-3.44a4.54,4.54,0,0,1,.57-.06,1.15,1.15,0,0,1,.63.17l.92.53c.21.12.31.24.29.37a.58.58,0,0,1-.1.32Zm-3.8-6,4.26,2.46,3.34-4.4-7.6,1.94"/><path class="cls-20" d="M75.49,88.07a.25.25,0,0,1,.13.2c0,.08,0,.14-.13.2l-.14,0-.29,0-9.45-.23.27,5.92,0,.16-.09.08a.59.59,0,0,1-.34.08.58.58,0,0,1-.33-.08l-1-.55a.58.58,0,0,1-.28-.25.45.45,0,0,1,0-.2l-.23-4.92-3.95,2.3a.89.89,0,0,1-.82,0l-.64-.37a.28.28,0,0,1-.17-.24.3.3,0,0,1,.17-.24l9.88-5.74a.86.86,0,0,1,.41-.1.77.77,0,0,1,.42.1l.63.36a.28.28,0,0,1,.17.25c0,.09-.06.17-.16.23L66,87.18l7.86.19.35,0a1.39,1.39,0,0,1,.44.16Z"/><path class="cls-20" d="M107.3,106.44a.29.29,0,0,1,.16.24.26.26,0,0,1-.15.24l-9.89,5.75a.87.87,0,0,1-.42.09.78.78,0,0,1-.41-.1l-.54-.31a.38.38,0,0,1-.22-.29,1,1,0,0,1,.07-.33l2.47-7.23-7.52,4.37a.93.93,0,0,1-.42.09.75.75,0,0,1-.41-.09l-.63-.37a.26.26,0,0,1-.17-.24c0-.09,0-.17.17-.24l9.88-5.74a.74.74,0,0,1,.4-.09.83.83,0,0,1,.43.09l.53.31a.37.37,0,0,1,.22.3,1,1,0,0,1-.06.33l-2.48,7.23,7.53-4.38a.86.86,0,0,1,.41-.09.77.77,0,0,1,.42.1Z"/><path class="cls-20" d="M96.62,100.27a.29.29,0,0,1,.16.24.27.27,0,0,1-.16.24l-9.88,5.74a.82.82,0,0,1-.42.1.76.76,0,0,1-.41-.1l-.63-.36c-.12-.07-.18-.14-.18-.24s.06-.17.17-.24l9.89-5.74a.7.7,0,0,1,.4-.1.77.77,0,0,1,.42.1Z"/><path class="cls-20" d="M93.47,98.46a.26.26,0,0,1,0,.48l-.55.32a.93.93,0,0,1-.42.09.75.75,0,0,1-.41-.09L89.22,97.6l-8.92,5.18a.77.77,0,0,1-.42.09.75.75,0,0,1-.41-.09l-.63-.37a.28.28,0,0,1-.17-.24.28.28,0,0,1,.17-.24l8.92-5.18-2.88-1.66c-.12-.07-.18-.14-.18-.24s.06-.17.17-.24l.56-.32a.79.79,0,0,1,.4-.1.77.77,0,0,1,.42.1Z"/><path class="cls-20" d="M84.2,93.11a.28.28,0,0,1,.17.24.31.31,0,0,1-.16.24l-.56.32a1,1,0,0,1-.41.1.86.86,0,0,1-.41-.1l-5-2.92-3.23,1.88,4.71,2.72a.28.28,0,0,1,.17.24.3.3,0,0,1-.17.24l-.55.32a1,1,0,0,1-.41.1.87.87,0,0,1-.42-.1l-4.71-2.72-3.35,1.94,5.17,3a.27.27,0,0,1,.17.24.26.26,0,0,1-.17.24l-.54.32a.9.9,0,0,1-.42.1.86.86,0,0,1-.41-.1L67.4,95.81a.28.28,0,0,1-.17-.24c0-.1,0-.17.17-.24l9.88-5.74a.76.76,0,0,1,.41-.1.82.82,0,0,1,.42.1Z"/><path class="cls-20" d="M114.52,110.43a5.42,5.42,0,0,1,1.54,1.24,2.78,2.78,0,0,1,.56,1.21,1.6,1.6,0,0,1-.17,1,1.67,1.67,0,0,1-.64.7.51.51,0,0,1-.32.09.72.72,0,0,1-.35-.09l-.63-.36c-.25-.14-.34-.26-.28-.36a2.5,2.5,0,0,0,.27-.64,1.3,1.3,0,0,0,0-.65,1.77,1.77,0,0,0-.42-.66,3.79,3.79,0,0,0-.93-.7,6.14,6.14,0,0,0-1.34-.57,5.77,5.77,0,0,0-1.44-.22,6,6,0,0,0-1.5.16,5.21,5.21,0,0,0-1.47.57l-1.3.72c-.39.23-.8.48-1.24.76a3.26,3.26,0,0,0-1,.88,1.3,1.3,0,0,0,.08,1.73,3.74,3.74,0,0,0,1,.77,5.93,5.93,0,0,0,1.31.58,4.94,4.94,0,0,0,1.43.25,5.27,5.27,0,0,0,1.52-.15,5.85,5.85,0,0,0,1.57-.66l.43-.25-2.21-1.28a.27.27,0,0,1-.18-.24.3.3,0,0,1,.17-.24l.56-.32a.8.8,0,0,1,.41-.1,1,1,0,0,1,.41.1l3.27,1.89a.29.29,0,0,1,.17.24.3.3,0,0,1-.17.24l-1.45.84a7.71,7.71,0,0,1-2,.81,8.43,8.43,0,0,1-2.19.28,8.8,8.8,0,0,1-2.25-.29,8.65,8.65,0,0,1-2.19-.9,5.1,5.1,0,0,1-1.59-1.3,2,2,0,0,1-.46-1.3A2.12,2.12,0,0,1,102,113a5.2,5.2,0,0,1,1.35-1.14c.86-.54,1.77-1.07,2.69-1.57a9.55,9.55,0,0,1,1.89-.75,7.88,7.88,0,0,1,2.13-.29,8.71,8.71,0,0,1,2.25.27A9,9,0,0,1,114.52,110.43Z"/><g class="cls-2"><g class="cls-2"><g class="cls-21"><g class="cls-2"><path class="cls-22" d="M185.64,49.75v0"/><path class="cls-23" d="M185.64,49.87V54a5.71,5.71,0,0,1-.09.82V50.69a5.56,5.56,0,0,0,.09-.82"/><path class="cls-24" d="M185.55,50.69v4.08a7.32,7.32,0,0,1-.23.8V51.5a6.15,6.15,0,0,0,.23-.81"/><path class="cls-25" d="M185.32,51.5v4.07a5.46,5.46,0,0,1-.39.81l0-4.07a7.37,7.37,0,0,0,.38-.81"/><path class="cls-26" d="M184.94,52.31l0,4.07a6.4,6.4,0,0,1-.57.86V53.16a7.53,7.53,0,0,0,.58-.85"/><path class="cls-27" d="M184.36,53.16v4.08a9.62,9.62,0,0,1-.88.95V54.11a7.74,7.74,0,0,0,.88-1"/><path class="cls-28" d="M183.48,54.11v4.08a12,12,0,0,1-1.81,1.34V55.45a12,12,0,0,0,1.81-1.34"/><path class="cls-29" d="M181.67,55.45v4.08l-.18.1V55.55l.18-.1"/></g></g></g><g class="cls-2"><g class="cls-30"><g class="cls-2"><path class="cls-31" d="M83.93,55.55v4.08C81.1,58,79.7,55.87,79.7,53.74l0-4.08c0,2.13,1.4,4.27,4.21,5.89"/></g></g></g><polygon class="cls-32" points="181.5 55.55 181.48 59.63 142.92 82.04 142.94 77.96 181.5 55.55"/><polygon class="cls-33" points="122.75 77.96 122.74 82.04 83.92 59.63 83.93 55.55 122.75 77.96"/><g class="cls-2"><g class="cls-34"><g class="cls-2"><path class="cls-29" d="M142.93,78V82a15.84,15.84,0,0,1-3.13,1.37l0-4.07A16,16,0,0,0,142.93,78"/><path class="cls-28" d="M139.81,79.34l0,4.07a20.9,20.9,0,0,1-2.7.68V80a21.46,21.46,0,0,0,2.71-.67"/><path class="cls-27" d="M137.1,80v4.08c-.6.1-1.2.19-1.82.25V80.26c.62-.06,1.23-.14,1.82-.25"/><path class="cls-26" d="M135.28,80.26v4.08c-.52,0-1.05.09-1.58.11V80.37c.53,0,1.06-.05,1.58-.11"/><path class="cls-25" d="M133.7,80.37v4.08h-1.46V80.38c.49,0,1,0,1.46,0"/><path class="cls-24" d="M132.24,80.38v4.07c-.47,0-.94,0-1.41-.07V80.3c.47,0,.94.06,1.41.08"/><path class="cls-23" d="M130.83,80.3v4.08c-.46,0-.93-.09-1.39-.16l0-4.07c.45.06.92.11,1.38.15"/><path class="cls-22" d="M129.45,80.15l0,4.07c-.47-.07-1-.15-1.41-.24V79.9c.47.1.94.18,1.42.25"/><path class="cls-35" d="M128,79.9V84c-.51-.11-1-.23-1.49-.37V79.54c.49.13,1,.26,1.49.36"/><path class="cls-36" d="M126.54,79.54v4.07A17.54,17.54,0,0,1,124.8,83V79c.56.22,1.14.42,1.73.59"/><path class="cls-31" d="M124.81,79V83a15.69,15.69,0,0,1-2.06-1V78a15.69,15.69,0,0,0,2.06,1"/></g></g></g><path class="cls-20" d="M181.43,43.86c5.59,3.23,5.62,8.46.06,11.69L142.93,78c-5.55,3.23-14.59,3.23-20.18,0L83.93,55.55c-5.59-3.23-5.62-8.46-.07-11.69l38.56-22.41c5.56-3.23,14.6-3.23,20.19,0Z"/></g></g></g></svg>