<svg xmlns="http://www.w3.org/2000/svg" xmlns:xlink="http://www.w3.org/1999/xlink" viewBox="0 0 230.37 141.58"><defs><style>.cls-1{fill:none;}.cls-2{isolation:isolate;}.cls-3{clip-path:url(#clip-path);}.cls-4{fill:#133f5d;}.cls-5{fill:#134160;}.cls-6{fill:#144463;}.cls-7{fill:#144666;}.cls-8{fill:#15486a;}.cls-9{fill:#164a6d;}.cls-10{fill:#164c70;}.cls-11{fill:#174e73;}.cls-12{clip-path:url(#clip-path-2);}.cls-13{fill:#113953;}.cls-14{fill:#19547b;}.cls-15{fill:#113a56;}.cls-16{clip-path:url(#clip-path-3);}.cls-17{fill:#123d5a;}.cls-18{fill:#113b56;}.cls-19{fill:#1c5e8a;}.cls-20{fill:#dcdcdc;}.cls-21{clip-path:url(#clip-path-4);}.cls-22{fill:#949494;}.cls-23{fill:#999;}.cls-24{fill:#9e9e9e;}.cls-25{fill:#a3a3a3;}.cls-26{fill:#a8a8a8;}.cls-27{fill:#adadad;}.cls-28{fill:#b3b3b3;}.cls-29{fill:#b8b8b8;}.cls-30{clip-path:url(#clip-path-5);}.cls-31{fill:#858585;}.cls-32{fill:#c5c5c5;}.cls-33{fill:#898989;}.cls-34{clip-path:url(#clip-path-6);}.cls-35{fill:#8f8f8f;}.cls-36{fill:#8a8a8a;}</style><clipPath id="clip-path"><path class="cls-1" d="M230.37,66.75l0,8.16c0,2.21-1.46,4.41-4.37,6.1l0-8.15C228.91,71.17,230.36,69,230.37,66.75Z"/></clipPath><clipPath id="clip-path-2"><path class="cls-1" d="M0,74.82l0-8.15c0,2.24,1.47,4.48,4.43,6.19l0,8.15C1.47,79.3,0,77.06,0,74.82Z"/></clipPath><clipPath id="clip-path-3"><path class="cls-1" d="M126.17,130.88l0,8.15c-5.84,3.39-15.33,3.39-21.21,0l0-8.15C110.83,134.27,120.32,134.27,126.17,130.88Z"/></clipPath><clipPath id="clip-path-4"><path class="cls-1" d="M150.07,49.8v4.07c0,2.1-1.39,4.2-4.15,5.81l0-4.08C148.69,54,150.07,51.9,150.07,49.8Z"/></clipPath><clipPath id="clip-path-5"><path class="cls-1" d="M44.14,53.79V49.72c0,2.12,1.4,4.26,4.22,5.88v4.08C45.54,58.05,44.14,55.92,44.14,53.79Z"/></clipPath><clipPath id="clip-path-6"><path class="cls-1" d="M107.37,78l0,4.08c-5.55,3.23-14.59,3.23-20.18,0V78C92.77,81.24,101.81,81.24,107.37,78Z"/></clipPath></defs><g id="Layer_2" data-name="Layer 2"><g id="Layer_1-2" data-name="Layer 1"><g class="cls-2"><g class="cls-2"><g class="cls-3"><g class="cls-2"><path class="cls-4" d="M230.37,66.75l0,8.16a.53.53,0,0,0,0,.13l0-8.15v-.14"/><path class="cls-5" d="M230.37,66.89l0,8.15a5,5,0,0,1-.1.86l0-8.15a5.16,5.16,0,0,0,.1-.86"/><path class="cls-6" d="M230.27,67.75l0,8.15a4.42,4.42,0,0,1-.24.84l0-8.15a6.62,6.62,0,0,0,.24-.84"/><path class="cls-7" d="M230,68.59l0,8.15a6,6,0,0,1-.4.85l0-8.15a7.28,7.28,0,0,0,.4-.85"/><path class="cls-8" d="M229.63,69.44l0,8.15a6.4,6.4,0,0,1-.6.9l0-8.15a7.5,7.5,0,0,0,.61-.9"/><path class="cls-9" d="M229,70.34l0,8.15a8.62,8.62,0,0,1-.93,1l0-8.15a8.62,8.62,0,0,0,.93-1"/><path class="cls-10" d="M228.09,71.34l0,8.15a11.58,11.58,0,0,1-1.9,1.41l0-8.15a11.58,11.58,0,0,0,1.9-1.41"/><path class="cls-11" d="M226.19,72.75l0,8.15L226,81l0-8.15.18-.11"/></g></g></g><g class="cls-2"><g class="cls-12"><g class="cls-2"><path class="cls-13" d="M4.45,72.86l0,8.15c-3-1.71-4.44-4-4.43-6.19l0-8.15c0,2.24,1.47,4.48,4.43,6.19"/></g></g></g><polygon class="cls-14" points="226.01 72.86 225.98 81.01 126.14 139.03 126.17 130.88 226.01 72.86"/><polygon class="cls-15" points="104.95 130.88 104.92 139.03 4.43 81.01 4.45 72.86 104.95 130.88"/><g class="cls-2"><g class="cls-16"><g class="cls-2"><path class="cls-11" d="M126.17,130.88l0,8.15a17.52,17.52,0,0,1-3.29,1.45l0-8.16a17.15,17.15,0,0,0,3.29-1.44"/><path class="cls-10" d="M122.88,132.32l0,8.16a21.42,21.42,0,0,1-2.84.7l0-8.15a20.33,20.33,0,0,0,2.84-.71"/><path class="cls-9" d="M120,133l0,8.15c-.63.12-1.27.21-1.91.27l0-8.15c.65-.07,1.29-.15,1.92-.27"/><path class="cls-8" d="M118.12,133.3l0,8.15c-.55.05-1.11.09-1.66.11l0-8.15c.56,0,1.11-.06,1.66-.11"/><path class="cls-7" d="M116.46,133.41l0,8.15c-.52,0-1,0-1.54,0l0-8.15c.52,0,1,0,1.54,0"/><path class="cls-6" d="M114.92,133.42l0,8.15c-.49,0-1,0-1.48-.08l0-8.15c.49,0,1,.06,1.47.08"/><path class="cls-5" d="M113.45,133.34l0,8.15c-.49,0-1-.1-1.45-.16l0-8.16c.48.07,1,.13,1.46.17"/><path class="cls-4" d="M112,133.17l0,8.16c-.51-.08-1-.16-1.49-.26l0-8.15c.49.1,1,.18,1.49.25"/><path class="cls-17" d="M110.5,132.92l0,8.15c-.53-.11-1-.24-1.57-.39l0-8.15q.77.22,1.56.39"/><path class="cls-18" d="M108.94,132.53l0,8.15a18.5,18.5,0,0,1-1.82-.61l0-8.15c.59.23,1.2.43,1.83.61"/><path class="cls-13" d="M107.11,131.92l0,8.15a16,16,0,0,1-2.16-1l0-8.15a16.56,16.56,0,0,0,2.16,1"/></g></g></g><path class="cls-19" d="M225.94,60.57c5.88,3.39,5.91,8.89.07,12.29l-99.84,58c-5.85,3.39-15.34,3.39-21.22,0l-100.5-58c-5.88-3.4-5.91-8.9-.07-12.29l99.85-58c5.84-3.4,15.33-3.4,21.21,0Z"/></g><path class="cls-20" d="M116.32,100.87a2.87,2.87,0,0,1,.85.78,2,2,0,0,1,.38,1.1,2.27,2.27,0,0,1-.43,1.27,5,5,0,0,1-1.59,1.34,8,8,0,0,1-2.09.84,9.61,9.61,0,0,1-2.2.28,9.33,9.33,0,0,1-2.17-.26,8.63,8.63,0,0,1-2-.77c-.47-.26-.93-.51-1.39-.78l-1.34-.8a4.64,4.64,0,0,1-1.33-1.15,2.2,2.2,0,0,1-.46-1.26,2.29,2.29,0,0,1,.47-1.28A4.86,4.86,0,0,1,104.48,99a8,8,0,0,1,2.29-.92,9.62,9.62,0,0,1,2.2-.26,8.93,8.93,0,0,1,1.88.21,5.67,5.67,0,0,1,1.36.5.21.21,0,0,1,.14.19.21.21,0,0,1-.13.19l-.7.41a1,1,0,0,1-.34.1,1,1,0,0,1-.4-.06,7,7,0,0,0-1-.29,4.83,4.83,0,0,0-1.16-.09,5.18,5.18,0,0,0-1.31.21,6,6,0,0,0-1.43.61c-.9.52-1.33,1.08-1.28,1.67s.47,1.12,1.29,1.63c.45.28.86.54,1.26.77s.84.47,1.32.72a6.19,6.19,0,0,0,2.83.75,5.43,5.43,0,0,0,2.87-.75,3.75,3.75,0,0,0,1-.83,1.42,1.42,0,0,0,.36-.76,1,1,0,0,0-.17-.67,2.53,2.53,0,0,0-.49-.6c-.08-.08-.12-.15-.1-.23a.35.35,0,0,1,.17-.19l.7-.41a.72.72,0,0,1,.66,0Z"/><path class="cls-20" d="M125.56,94.49a6.67,6.67,0,0,1,1.51,1.14,2.25,2.25,0,0,1,.63,1.22,1.71,1.71,0,0,1-.36,1.26,4.71,4.71,0,0,1-1.54,1.27,7.89,7.89,0,0,1-6.47.75,10.15,10.15,0,0,1-2-.88l-6.14-3.54a.28.28,0,0,1-.17-.24.28.28,0,0,1,.17-.24l.62-.36a1,1,0,0,1,.41-.1.9.9,0,0,1,.42.1l6.21,3.59a6,6,0,0,0,2.94.88,5.14,5.14,0,0,0,2.67-.71c.84-.49,1.25-1,1.24-1.56s-.53-1.13-1.53-1.7L118,91.78c-.12-.07-.17-.14-.17-.24a.28.28,0,0,1,.17-.24l.61-.35a.89.89,0,0,1,.82,0Z"/><path class="cls-20" d="M138.81,80.33a.28.28,0,0,1,.16.23.27.27,0,0,1-.16.24L136,82.46l9,5.16c.11.07.18.15.17.24a.26.26,0,0,1-.16.24l-.62.36a.82.82,0,0,1-.42.1.76.76,0,0,1-.41-.1l-9-5.16L131.65,85a.72.72,0,0,1-.4.09.87.87,0,0,1-.42-.09l-.55-.32a.28.28,0,0,1-.17-.24.29.29,0,0,1,.16-.24L137.43,80a.86.86,0,0,1,.41-.09.78.78,0,0,1,.41.1Z"/><path class="cls-20" d="M178.9,67.87a.27.27,0,0,1,.17.23.29.29,0,0,1-.16.25l-6.16,3.57a.82.82,0,0,1-.42.1.76.76,0,0,1-.41-.1L162,66.2c-.11-.07-.17-.14-.17-.24a.32.32,0,0,1,.17-.24l6-3.51a.86.86,0,0,1,.41-.09.93.93,0,0,1,.42.09l.55.32a.27.27,0,0,1,.16.24.26.26,0,0,1-.16.24l-5,2.91,3.24,1.87,4.67-2.71a.73.73,0,0,1,.41-.1.86.86,0,0,1,.41.09l.55.32a.31.31,0,0,1,.18.24.33.33,0,0,1-.17.24L169,68.59l3.36,1.93,5.12-3a.82.82,0,0,1,.42-.1.78.78,0,0,1,.41.1Z"/><path class="cls-20" d="M169.3,73.45a.25.25,0,0,1,.16.24c0,.09-.05.17-.16.24l-.62.36a.82.82,0,0,1-.42.1.86.86,0,0,1-.41-.1l-7.28-4.2,2.24,4a.68.68,0,0,1,.1.36c0,.1-.07.2-.23.29l-.58.33a1,1,0,0,1-.5.14,3.67,3.67,0,0,1-.61-.06l-7-1.28,7.27,4.2a.26.26,0,0,1,0,.48l-.63.36a.86.86,0,0,1-.41.09.75.75,0,0,1-.41-.09l-9.92-5.73a.28.28,0,0,1-.17-.24.28.28,0,0,1,.16-.23l.59-.34a1.22,1.22,0,0,1,.57-.16,3.61,3.61,0,0,1,.59,0L160.72,74l-2.92-5.26a.56.56,0,0,1-.09-.34c0-.12.09-.23.26-.33l.59-.34a.84.84,0,0,1,.4-.09.94.94,0,0,1,.43.09Z"/><path class="cls-20" d="M155.4,81.81A4.58,4.58,0,0,1,154,83a7.89,7.89,0,0,1-2.1.84,9.15,9.15,0,0,1-2.19.25,9.69,9.69,0,0,1-2.15-.3,8.6,8.6,0,0,1-1.93-.75c-.47-.25-.93-.51-1.39-.78l-1.34-.8a4.49,4.49,0,0,1-1.32-1.11,2.1,2.1,0,0,1-.51-1.23,2,2,0,0,1,.43-1.28,4.24,4.24,0,0,1,1.45-1.22A7.48,7.48,0,0,1,145,75.8a9.09,9.09,0,0,1,2.19-.25,9,9,0,0,1,2.14.29,8.1,8.1,0,0,1,1.91.76c.48.25.94.51,1.4.78l1.34.8a4.85,4.85,0,0,1,1.3,1.12,2.14,2.14,0,0,1,.52,1.24A2.1,2.1,0,0,1,155.4,81.81Zm-4.1,1a5.42,5.42,0,0,0,1.26-.53,3.27,3.27,0,0,0,.92-.74,1.29,1.29,0,0,0,.33-.8,1.28,1.28,0,0,0-.32-.85,3.82,3.82,0,0,0-1-.86c-.44-.28-.86-.53-1.26-.77s-.83-.47-1.32-.72a6.32,6.32,0,0,0-1.49-.59,5.35,5.35,0,0,0-1.46-.18,5.43,5.43,0,0,0-1.4.19,5.88,5.88,0,0,0-1.27.53,3.52,3.52,0,0,0-.91.74,1.28,1.28,0,0,0-.32.8,1.35,1.35,0,0,0,.3.86,3.72,3.72,0,0,0,1,.85c.45.28.86.54,1.26.77s.84.47,1.32.72a6.3,6.3,0,0,0,1.48.6,5.9,5.9,0,0,0,1.48.17,5.36,5.36,0,0,0,1.39-.19"/><path class="cls-20" d="M136.76,89.39a2.44,2.44,0,0,1,1,.9,1.57,1.57,0,0,1,.16,1.06,2.48,2.48,0,0,1-.65,1.12,6,6,0,0,1-1.45,1.11,8.32,8.32,0,0,1-1.89.8,10.12,10.12,0,0,1-2,.35,8.59,8.59,0,0,1-1.77,0,3.68,3.68,0,0,1-1.32-.39.2.2,0,0,1,0-.38l.62-.37a1,1,0,0,1,.33-.12,1.22,1.22,0,0,1,.48,0,5.79,5.79,0,0,0,.75.11,6.54,6.54,0,0,0,1,0,6.66,6.66,0,0,0,1.16-.24,5.76,5.76,0,0,0,1.24-.54,5,5,0,0,0,.89-.66,1.91,1.91,0,0,0,.49-.7.92.92,0,0,0,0-.65,1,1,0,0,0-.51-.54,1.94,1.94,0,0,0-.93-.25,5,5,0,0,0-1.21.11,12.35,12.35,0,0,0-1.54.41l-1.92.63a12.49,12.49,0,0,1-1.77.48,6.8,6.8,0,0,1-1.52.12,5.3,5.3,0,0,1-1.3-.18,5.48,5.48,0,0,1-1.11-.48,2.75,2.75,0,0,1-.87-.77,1.4,1.4,0,0,1-.28-1,2,2,0,0,1,.46-1,4.64,4.64,0,0,1,1.35-1.08,6.86,6.86,0,0,1,1.93-.78,10.27,10.27,0,0,1,1.92-.29,7.86,7.86,0,0,1,1.65.08,3.67,3.67,0,0,1,1.14.35l.05,0a.18.18,0,0,1,.1.16c0,.09-.05.15-.15.21l-.62.36a1.1,1.1,0,0,1-.33.12,1.85,1.85,0,0,1-.48,0,5.21,5.21,0,0,0-.64-.08,5.84,5.84,0,0,0-.93,0,5.21,5.21,0,0,0-1.11.2A4.6,4.6,0,0,0,126,88a3.37,3.37,0,0,0-.71.53,1.45,1.45,0,0,0-.39.58.75.75,0,0,0,0,.57,1.13,1.13,0,0,0,.51.51,2.19,2.19,0,0,0,.85.28,3.5,3.5,0,0,0,1.06,0,11.21,11.21,0,0,0,1.4-.34l1.86-.6a18.3,18.3,0,0,1,2-.57,9.13,9.13,0,0,1,1.61-.21,4.87,4.87,0,0,1,1.35.14A4.81,4.81,0,0,1,136.76,89.39Z"/><path class="cls-20" d="M187.23,63l-6.12-1-2.63,1.53,3.91,2.26c.11.06.18.14.17.23a.29.29,0,0,1-.16.25l-.63.36a.77.77,0,0,1-.42.09.74.74,0,0,1-.4-.09L171,61a.28.28,0,0,1-.17-.24.26.26,0,0,1,.17-.23l3.69-2.15a8.75,8.75,0,0,1,1.59-.71,7.46,7.46,0,0,1,1.74-.35,6.29,6.29,0,0,1,1.78.1,5.88,5.88,0,0,1,1.74.66c.83.48,1.28,1,1.36,1.51a1.8,1.8,0,0,1-.53,1.51l6.34,1,.21.08a.22.22,0,0,1,.14.19.26.26,0,0,1-.14.2l-.65.38a1.2,1.2,0,0,1-.61.17A4.38,4.38,0,0,1,187.23,63Zm-10.14-.25,2.58-1.5c.73-.43,1.16-.83,1.27-1.24s-.17-.79-.82-1.16a3.15,3.15,0,0,0-2-.46,5.61,5.61,0,0,0-2.11.75l-2.58,1.5,3.65,2.11"/><path class="cls-20" d="M140,111.81a.26.26,0,0,1,.17.24.3.3,0,0,1-.17.24l-6.16,3.57a.89.89,0,0,1-.82,0l-9.92-5.72a.28.28,0,0,1-.17-.24.28.28,0,0,1,.17-.24l6-3.5a.82.82,0,0,1,.42-.1.76.76,0,0,1,.41.1l.55.32c.11.06.18.14.17.23a.29.29,0,0,1-.16.25l-5,2.9,3.24,1.87,4.66-2.71a.76.76,0,0,1,.41-.1.77.77,0,0,1,.42.1l.55.31a.28.28,0,0,1,.17.25.27.27,0,0,1-.17.23l-4.67,2.71,3.37,2,5.12-3a.86.86,0,0,1,.41-.1.77.77,0,0,1,.42.1Z"/><path class="cls-20" d="M128.49,115.53a2.51,2.51,0,0,1,1,.9,1.46,1.46,0,0,1,.15,1.06,2.49,2.49,0,0,1-.64,1.12,6,6,0,0,1-1.46,1.11,8.32,8.32,0,0,1-1.89.8,10.12,10.12,0,0,1-2,.35,8.5,8.5,0,0,1-1.76,0,3.77,3.77,0,0,1-1.32-.38c-.1-.06-.14-.12-.14-.2s0-.14.13-.19l.63-.37a1.42,1.42,0,0,1,.33-.12,1.46,1.46,0,0,1,.48,0,4.33,4.33,0,0,0,.74.11,4.86,4.86,0,0,0,1,0,6.76,6.76,0,0,0,1.15-.24,5.76,5.76,0,0,0,1.24-.54,4.21,4.21,0,0,0,.88-.66,1.88,1.88,0,0,0,.5-.69,1,1,0,0,0,0-.66,1.14,1.14,0,0,0-.51-.54,2,2,0,0,0-.93-.25,5,5,0,0,0-1.22.11,12.35,12.35,0,0,0-1.54.41l-1.91.63a12.49,12.49,0,0,1-1.77.48,7.6,7.6,0,0,1-1.53.12,4.79,4.79,0,0,1-1.29-.18,5.24,5.24,0,0,1-1.11-.48,2.67,2.67,0,0,1-.88-.77,1.47,1.47,0,0,1-.27-.94,1.88,1.88,0,0,1,.46-1,4.75,4.75,0,0,1,1.34-1.08,7.11,7.11,0,0,1,1.93-.78,10.4,10.4,0,0,1,1.92-.29,8,8,0,0,1,1.66.09,3.52,3.52,0,0,1,1.14.34c.11.06.15.12.15.19a.29.29,0,0,1-.15.2l-.63.36a1,1,0,0,1-.32.12,1.82,1.82,0,0,1-.48,0c-.16,0-.37,0-.65-.08a4.87,4.87,0,0,0-.93,0,7.06,7.06,0,0,0-1.11.2,4.93,4.93,0,0,0-1.15.48,4.23,4.23,0,0,0-.71.53,1.6,1.6,0,0,0-.4.58.8.8,0,0,0,0,.57,1.11,1.11,0,0,0,.52.51,2.27,2.27,0,0,0,.84.29,4,4,0,0,0,1.07,0,11.1,11.1,0,0,0,1.39-.34l1.86-.6a19.54,19.54,0,0,1,2-.56,8.29,8.29,0,0,1,1.6-.21,4.91,4.91,0,0,1,1.36.13A4.81,4.81,0,0,1,128.49,115.53Z"/><path class="cls-20" d="M148.32,107l-6.12-1-2.62,1.52,3.91,2.26a.28.28,0,0,1,.17.24.28.28,0,0,1-.17.24l-.62.36a.86.86,0,0,1-.41.1.79.79,0,0,1-.42-.1l-9.91-5.73a.27.27,0,0,1-.17-.23.26.26,0,0,1,.17-.24l3.68-2.15a8.55,8.55,0,0,1,1.6-.71,7.28,7.28,0,0,1,1.73-.35,6.78,6.78,0,0,1,1.79.1,5.88,5.88,0,0,1,1.74.66c.83.48,1.28,1,1.36,1.51a1.83,1.83,0,0,1-.54,1.51l6.34,1,.22.07a.22.22,0,0,1,.13.19.23.23,0,0,1-.13.2l-.66.38a1.14,1.14,0,0,1-.6.17A2.83,2.83,0,0,1,148.32,107Zm-10.12-.25,2.57-1.49c.74-.43,1.16-.84,1.26-1.25s-.16-.79-.81-1.16a3.18,3.18,0,0,0-2-.46,5.48,5.48,0,0,0-2.1.76l-2.58,1.49,3.66,2.11"/><path class="cls-20" d="M204.26,74.46a.28.28,0,0,1,.17.24.29.29,0,0,1-.16.24l-.63.36a.82.82,0,0,1-.42.1.8.8,0,0,1-.41-.1l-9.91-5.72a.26.26,0,0,1,0-.48l.63-.36a.76.76,0,0,1,.41-.1.79.79,0,0,1,.42.1Z"/><path class="cls-20" d="M204.54,63.46a.26.26,0,0,1,.16.24.29.29,0,0,1-.16.24l-2.85,1.66,8.94,5.16c.12.07.17.14.17.24a.28.28,0,0,1-.17.24l-.62.36a.76.76,0,0,1-.41.1.73.73,0,0,1-.41-.1l-8.95-5.16-2.85,1.65a.77.77,0,0,1-.42.1.76.76,0,0,1-.41-.1l-.56-.32a.26.26,0,0,1-.16-.24.29.29,0,0,1,.16-.24l7.16-4.15a.71.71,0,0,1,.41-.1.76.76,0,0,1,.41.1Z"/><path class="cls-20" d="M193.69,80.9a5.18,5.18,0,0,1-1.53,1.25,7.13,7.13,0,0,1-1.57.69,7.22,7.22,0,0,1-1.69.33,6.11,6.11,0,0,1-1.66-.08,4.65,4.65,0,0,1-1.51-.56,2.36,2.36,0,0,1-.76-.63,2.07,2.07,0,0,1-.33-.73,2.21,2.21,0,0,1,0-.77,4.42,4.42,0,0,1,.22-.79c-.58,0-1.08,0-1.49-.07s-.78-.07-1.09-.12a4.79,4.79,0,0,1-.8-.23,3.82,3.82,0,0,1-.68-.31,2,2,0,0,1-.82-.78,1.29,1.29,0,0,1-.1-.86,1.94,1.94,0,0,1,.44-.82,3.7,3.7,0,0,1,.84-.67,4.93,4.93,0,0,1,1.16-.47,6.51,6.51,0,0,1,1.4-.24,6.39,6.39,0,0,1,1.45.08,3.94,3.94,0,0,1,1.3.46,2,2,0,0,1,1.07,1.25,3.06,3.06,0,0,1-.15,1.61H192a5.26,5.26,0,0,0-1.37-1.69.23.23,0,0,1-.08-.23.28.28,0,0,1,.14-.2l.7-.4a.62.62,0,0,1,.37-.09.51.51,0,0,1,.27.06l0,0a6,6,0,0,1,1.23,1,3.66,3.66,0,0,1,.88,1.47l3.15,0a.56.56,0,0,1,.3.08.18.18,0,0,1,.11.15c0,.06,0,.11-.12.16l-1.13.65a.85.85,0,0,1-.3.11l-.23,0h-1.69A2.89,2.89,0,0,1,193.69,80.9Zm-3.72.83a6.13,6.13,0,0,0,.81-.37,3.55,3.55,0,0,0,1-.8,1.87,1.87,0,0,0,.46-1H186.9a4.62,4.62,0,0,0-.19.6,1.65,1.65,0,0,0-.07.57,1.46,1.46,0,0,0,.12.51,1,1,0,0,0,.41.4,2.34,2.34,0,0,0,.88.29,3.94,3.94,0,0,0,1,0,5.29,5.29,0,0,0,.95-.24m-5.77-3.3,1.15,0a4.71,4.71,0,0,0,.21-.52,1.75,1.75,0,0,0,.09-.54,1,1,0,0,0-.15-.52,1.26,1.26,0,0,0-.47-.44,1.52,1.52,0,0,0-.51-.18,2.64,2.64,0,0,0-.64,0,3.63,3.63,0,0,0-.7.09,2.15,2.15,0,0,0-.64.26,1.24,1.24,0,0,0-.67.76.64.64,0,0,0,.38.73,2.13,2.13,0,0,0,.49.21,2.71,2.71,0,0,0,.63.12c.24,0,.51,0,.83.06"/><path class="cls-20" d="M182.72,87a.3.3,0,0,1,.17.24.31.31,0,0,1-.17.24L176.56,91a1,1,0,0,1-.41.1.86.86,0,0,1-.41-.1l-9.92-5.73c-.11-.06-.17-.14-.16-.23a.27.27,0,0,1,.15-.24l6-3.51a.82.82,0,0,1,.42-.1.86.86,0,0,1,.41.1l.56.32c.1.06.17.14.16.23a.29.29,0,0,1-.16.25l-5,2.9,3.24,1.87,4.66-2.71a.86.86,0,0,1,.41-.1.9.9,0,0,1,.42.1l.54.32c.12.07.18.14.18.24a.3.3,0,0,1-.17.24l-4.66,2.71,3.36,1.94,5.12-3a.76.76,0,0,1,.41-.1.83.83,0,0,1,.41.09Z"/><path class="cls-20" d="M170.84,90.53a3.14,3.14,0,0,1,.85.78,1.87,1.87,0,0,1,.36,1.09,2.12,2.12,0,0,1-.42,1.28A4.83,4.83,0,0,1,170,95a8.51,8.51,0,0,1-2.08.85,9.74,9.74,0,0,1-2.2.27,8.79,8.79,0,0,1-2.18-.26,8.44,8.44,0,0,1-2-.76l-1.39-.78c-.46-.26-.9-.53-1.34-.8a4.48,4.48,0,0,1-1.32-1.15,2.05,2.05,0,0,1-.46-1.27,2.09,2.09,0,0,1,.47-1.27A4.67,4.67,0,0,1,159,88.63a7.8,7.8,0,0,1,2.3-.92,9.53,9.53,0,0,1,2.19-.26,8.47,8.47,0,0,1,1.89.21,5.77,5.77,0,0,1,1.35.49.22.22,0,0,1,.14.2.24.24,0,0,1-.13.19L166,89a.68.68,0,0,1-.32.09.82.82,0,0,1-.41-.06,8.85,8.85,0,0,0-1-.28,4.56,4.56,0,0,0-1.18-.09,5.24,5.24,0,0,0-1.3.21,5.53,5.53,0,0,0-1.42.61c-.9.52-1.33,1.08-1.29,1.66a2.3,2.3,0,0,0,1.29,1.64c.44.28.86.53,1.26.77s.84.46,1.32.72a6.22,6.22,0,0,0,2.84.74,5.3,5.3,0,0,0,2.87-.75,3.74,3.74,0,0,0,1.05-.82,1.56,1.56,0,0,0,.35-.76,1,1,0,0,0-.16-.68,3.41,3.41,0,0,0-.49-.59.23.23,0,0,1-.11-.24.37.37,0,0,1,.16-.19l.71-.4a.58.58,0,0,1,.33-.09A.71.71,0,0,1,170.84,90.53Z"/><path class="cls-20" d="M162.94,98.47q.18.11.18.24A.31.31,0,0,1,163,99l-.63.36a.89.89,0,0,1-.82,0l-9.92-5.72a.26.26,0,0,1-.16-.24c0-.09.05-.17.16-.24l.62-.36a.82.82,0,0,1,.42-.1.86.86,0,0,1,.41.1Z"/><path class="cls-20" d="M149.69,94.6l.12.11,6.35,7.47a.51.51,0,0,1,.14.43.58.58,0,0,1-.34.4l-.61.35a1.38,1.38,0,0,1-.67.2,2.32,2.32,0,0,1-.73-.09L141,99.83l-.18-.07c-.09-.06-.14-.12-.14-.2a.22.22,0,0,1,.14-.19l.56-.33a1,1,0,0,1,.56-.17,1.73,1.73,0,0,1,.42,0l11.76,3.38-5.87-6.8a.37.37,0,0,1-.09-.25c0-.09.09-.21.29-.32l.57-.33a.7.7,0,0,1,.33-.08A.71.71,0,0,1,149.69,94.6Z"/><g class="cls-2"><g class="cls-2"><g class="cls-21"><g class="cls-2"><path class="cls-22" d="M150.07,49.8v0"/><path class="cls-23" d="M150.07,49.92V54a5.87,5.87,0,0,1-.09.82V50.74a5.56,5.56,0,0,0,.09-.82"/><path class="cls-24" d="M150,50.74v4.08a6,6,0,0,1-.23.8V51.54a5.61,5.61,0,0,0,.23-.8"/><path class="cls-25" d="M149.75,51.54v4.08a7.37,7.37,0,0,1-.38.81V52.36a5.5,5.5,0,0,0,.38-.82"/><path class="cls-26" d="M149.37,52.36v4.07a7.53,7.53,0,0,1-.58.85V53.21a8.55,8.55,0,0,0,.58-.85"/><path class="cls-27" d="M148.79,53.21v4.07a7.81,7.81,0,0,1-.88,1V54.16a8.54,8.54,0,0,0,.88-.95"/><path class="cls-28" d="M147.91,54.16v4.08a11.3,11.3,0,0,1-1.81,1.33V55.5a11.49,11.49,0,0,0,1.81-1.34"/><path class="cls-29" d="M146.1,55.5v4.07l-.18.11,0-4.08.17-.1"/></g></g></g><g class="cls-2"><g class="cls-30"><g class="cls-2"><path class="cls-31" d="M48.37,55.6v4.08c-2.82-1.63-4.22-3.76-4.22-5.89V49.72c0,2.12,1.4,4.26,4.22,5.88"/></g></g></g><polygon class="cls-32" points="145.93 55.6 145.91 59.68 107.35 82.09 107.37 78.01 145.93 55.6"/><polygon class="cls-33" points="87.18 78.01 87.17 82.09 48.35 59.68 48.37 55.6 87.18 78.01"/><g class="cls-2"><g class="cls-34"><g class="cls-2"><path class="cls-29" d="M107.37,78l0,4.08a16,16,0,0,1-3.12,1.37V79.39A17.05,17.05,0,0,0,107.37,78"/><path class="cls-28" d="M104.24,79.39v4.07a19.87,19.87,0,0,1-2.71.67V80.06a21,21,0,0,0,2.71-.67"/><path class="cls-27" d="M101.53,80.06v4.07c-.6.11-1.2.2-1.82.26V80.31c.62-.06,1.23-.14,1.82-.25"/><path class="cls-26" d="M99.71,80.31v4.08c-.52,0-1,.09-1.58.1V80.42c.53,0,1.06-.06,1.58-.11"/><path class="cls-25" d="M98.13,80.42v4.07c-.49,0-1,0-1.46,0V80.42c.49,0,1,0,1.46,0"/><path class="cls-24" d="M96.67,80.42V84.5c-.47,0-.94,0-1.41-.07V80.35c.47,0,.94.06,1.41.07"/><path class="cls-23" d="M95.26,80.35v4.08c-.46,0-.93-.09-1.39-.16l0-4.08c.46.07.92.12,1.38.16"/><path class="cls-22" d="M93.88,80.19l0,4.08c-.47-.07-.94-.15-1.41-.25V80c.47.09.94.18,1.42.24"/><path class="cls-35" d="M92.46,80V84c-.51-.1-1-.22-1.49-.36V79.58c.49.14,1,.26,1.49.37"/><path class="cls-36" d="M91,79.58v4.08c-.59-.17-1.17-.37-1.73-.59V79c.56.22,1.14.41,1.73.58"/><path class="cls-31" d="M89.24,79v4.07a14.48,14.48,0,0,1-2.06-1V78a15.69,15.69,0,0,0,2.06,1"/></g></g></g><path class="cls-20" d="M145.86,43.91c5.59,3.23,5.62,8.46.07,11.69L107.37,78c-5.56,3.23-14.6,3.23-20.19,0L48.37,55.6c-5.6-3.23-5.63-8.46-.07-11.69L86.86,21.5c5.56-3.23,14.59-3.23,20.19,0Z"/></g></g></g></svg>