<svg xmlns="http://www.w3.org/2000/svg" xmlns:xlink="http://www.w3.org/1999/xlink" viewBox="0 0 208.76 129.06"><defs><style>.cls-1{fill:none;}.cls-2{isolation:isolate;}.cls-3{clip-path:url(#clip-path);}.cls-4{fill:#133f5d;}.cls-5{fill:#134160;}.cls-6{fill:#144463;}.cls-7{fill:#144666;}.cls-8{fill:#15486a;}.cls-9{fill:#164a6d;}.cls-10{fill:#164c70;}.cls-11{fill:#174e73;}.cls-12{clip-path:url(#clip-path-2);}.cls-13{fill:#113953;}.cls-14{fill:#19547b;}.cls-15{fill:#113a56;}.cls-16{clip-path:url(#clip-path-3);}.cls-17{fill:#123d5a;}.cls-18{fill:#113b56;}.cls-19{fill:#1c5e8a;}.cls-20{fill:#dcdcdc;}.cls-21{clip-path:url(#clip-path-4);}.cls-22{fill:#949494;}.cls-23{fill:#999;}.cls-24{fill:#9e9e9e;}.cls-25{fill:#a3a3a3;}.cls-26{fill:#a8a8a8;}.cls-27{fill:#adadad;}.cls-28{fill:#b3b3b3;}.cls-29{fill:#b8b8b8;}.cls-30{clip-path:url(#clip-path-5);}.cls-31{fill:#858585;}.cls-32{fill:#c5c5c5;}.cls-33{fill:#898989;}.cls-34{clip-path:url(#clip-path-6);}.cls-35{fill:#8f8f8f;}.cls-36{fill:#8a8a8a;}</style><clipPath id="clip-path"><path class="cls-1" d="M208.76,60.5l0,8.15c0,2.21-1.46,4.41-4.36,6.1l0-8.15C207.31,64.91,208.76,62.71,208.76,60.5Z"/></clipPath><clipPath id="clip-path-2"><path class="cls-1" d="M0,68.56l0-8.15c0,2.24,1.47,4.48,4.43,6.19l0,8.15C1.47,73,0,70.8,0,68.56Z"/></clipPath><clipPath id="clip-path-3"><path class="cls-1" d="M115.32,118.37l0,8.15c-5.84,3.39-15.33,3.39-21.2,0l0-8.15C100,121.76,109.49,121.76,115.32,118.37Z"/></clipPath><clipPath id="clip-path-4"><path class="cls-1" d="M167.41,45v4.08c0,2.1-1.39,4.2-4.15,5.81V50.82C166,49.22,167.41,47.12,167.41,45Z"/></clipPath><clipPath id="clip-path-5"><path class="cls-1" d="M72.32,49l0-4.08c0,2.13,1.4,4.26,4.21,5.89V54.9C73.72,53.27,72.32,51.14,72.32,49Z"/></clipPath><clipPath id="clip-path-6"><path class="cls-1" d="M130.11,70.09v4.07c-5.56,3.23-14.6,3.23-20.19,0V70.09C115.52,73.32,124.55,73.32,130.11,70.09Z"/></clipPath></defs><g id="Layer_2" data-name="Layer 2"><g id="Layer_1-2" data-name="Layer 1"><g class="cls-2"><g class="cls-2"><g class="cls-3"><g class="cls-2"><path class="cls-4" d="M208.76,60.5l0,8.15v.13l0-8.15V60.5"/><path class="cls-5" d="M208.76,60.63l0,8.15a4.93,4.93,0,0,1-.1.86l0-8.15a5,5,0,0,0,.1-.86"/><path class="cls-6" d="M208.66,61.49l0,8.15a6.32,6.32,0,0,1-.24.85l0-8.16a5,5,0,0,0,.24-.84"/><path class="cls-7" d="M208.42,62.33l0,8.16a6.51,6.51,0,0,1-.4.85l0-8.15a6.06,6.06,0,0,0,.4-.86"/><path class="cls-8" d="M208,63.19l0,8.15a7,7,0,0,1-.61.89l0-8.15a7,7,0,0,0,.6-.89"/><path class="cls-9" d="M207.42,64.08l0,8.15a7.88,7.88,0,0,1-.93,1l0-8.15a7.88,7.88,0,0,0,.93-1"/><path class="cls-10" d="M206.49,65.08l0,8.15a11.48,11.48,0,0,1-1.89,1.41l0-8.15a11.58,11.58,0,0,0,1.9-1.41"/><path class="cls-11" d="M204.59,66.49l0,8.15-.19.11,0-8.15.18-.11"/></g></g></g><g class="cls-2"><g class="cls-12"><g class="cls-2"><path class="cls-13" d="M4.45,66.6l0,8.15C1.47,73,0,70.8,0,68.56l0-8.15c0,2.24,1.47,4.48,4.43,6.19"/></g></g></g><polygon class="cls-14" points="204.41 66.6 204.38 74.75 115.3 126.52 115.32 118.37 204.41 66.6"/><polygon class="cls-15" points="94.12 118.37 94.09 126.52 4.43 74.75 4.45 66.6 94.12 118.37"/><g class="cls-2"><g class="cls-16"><g class="cls-2"><path class="cls-11" d="M115.32,118.37l0,8.15A16.88,16.88,0,0,1,112,128l0-8.15a16.78,16.78,0,0,0,3.28-1.44"/><path class="cls-10" d="M112,119.81l0,8.15a21.69,21.69,0,0,1-2.83.71l0-8.15a21.44,21.44,0,0,0,2.84-.71"/><path class="cls-9" d="M109.2,120.52l0,8.15q-.95.17-1.92.27l0-8.16c.64-.06,1.28-.15,1.91-.26"/><path class="cls-8" d="M107.29,120.78l0,8.16c-.55.05-1.1.09-1.66.11l0-8.16c.56,0,1.12,0,1.67-.11"/><path class="cls-7" d="M105.62,120.89l0,8.16c-.51,0-1,0-1.54,0l0-8.15c.51,0,1,0,1.53,0"/><path class="cls-6" d="M104.09,120.9l0,8.15c-.49,0-1,0-1.47-.08l0-8.15c.49,0,1,.07,1.48.08"/><path class="cls-5" d="M102.61,120.82l0,8.15c-.49,0-1-.09-1.46-.16l0-8.15c.48.07,1,.12,1.46.16"/><path class="cls-4" d="M101.15,120.66l0,8.15c-.5-.07-1-.16-1.49-.26l0-8.15c.48.1,1,.19,1.48.26"/><path class="cls-17" d="M99.67,120.4l0,8.15c-.53-.11-1-.24-1.56-.38l0-8.15c.51.14,1,.27,1.57.38"/><path class="cls-18" d="M98.1,120l0,8.15a16.91,16.91,0,0,1-1.82-.62l0-8.15c.59.23,1.2.44,1.82.62"/><path class="cls-13" d="M96.28,119.4l0,8.15a15.93,15.93,0,0,1-2.16-1l0-8.15a15.93,15.93,0,0,0,2.16,1"/></g></g></g><path class="cls-19" d="M204.34,54.31c5.87,3.4,5.9,8.9.07,12.29l-89.09,51.77c-5.83,3.39-15.33,3.39-21.2,0L4.45,66.6c-5.87-3.39-5.91-8.9-.07-12.29L93.46,2.54c5.84-3.39,15.34-3.39,21.21,0Z"/></g><path class="cls-20" d="M60.85,58.16a2.75,2.75,0,0,1-1,.92,5.31,5.31,0,0,1-1.6.62,6.8,6.8,0,0,1-1.68.12,7.46,7.46,0,0,1-1.62-.3,7,7,0,0,1-1.48-.64l-2.57-1.49-3.4,2a.7.7,0,0,1-.37.09.74.74,0,0,1-.38-.09L46.14,59C46,59,46,58.91,46,58.83a.27.27,0,0,1,.15-.23l9-5.21a.74.74,0,0,1,.38-.09.7.7,0,0,1,.37.09l3.53,2a4.88,4.88,0,0,1,1.12.84,2,2,0,0,1,.54.93A1.3,1.3,0,0,1,60.85,58.16Zm-4.25.6a3.2,3.2,0,0,0,1.88-.44c.59-.35.84-.71.74-1.08s-.49-.74-1.16-1.13l-2.5-1.44-3.45,2,2.5,1.44a4.53,4.53,0,0,0,2,.65"/><path class="cls-20" d="M77.25,69.94c-.79.5-1.61,1-2.47,1.44a7.34,7.34,0,0,1-1.75.69,8.24,8.24,0,0,1-4,0,6.84,6.84,0,0,1-1.92-.77,4,4,0,0,1-1.33-1.11,1.73,1.73,0,0,1-.39-1.16,1.91,1.91,0,0,1,.45-1.13,4.62,4.62,0,0,1,1.18-1c.79-.5,1.61-1,2.47-1.44a7,7,0,0,1,1.74-.69,7.44,7.44,0,0,1,1.94-.26,8.15,8.15,0,0,1,2,.22,7,7,0,0,1,1.93.77,4,4,0,0,1,1.33,1.12,1.85,1.85,0,0,1,.41,1.16,2,2,0,0,1-.45,1.13A4.09,4.09,0,0,1,77.25,69.94Zm-3.73.63q.66-.34,1.2-.66l1.14-.69a3.85,3.85,0,0,0,.93-.79,1.15,1.15,0,0,0,.27-.77,1.24,1.24,0,0,0-.31-.73,3.13,3.13,0,0,0-.84-.67,4.93,4.93,0,0,0-1.16-.49,5.32,5.32,0,0,0-1.26-.18,5.53,5.53,0,0,0-2.69.71c-.44.23-.83.45-1.19.66s-.75.44-1.15.69a3.11,3.11,0,0,0-.92.79,1.18,1.18,0,0,0-.28.77,1.29,1.29,0,0,0,.31.74,3.32,3.32,0,0,0,.84.66,4.76,4.76,0,0,0,1.16.49,4.86,4.86,0,0,0,1.27.17,4.7,4.7,0,0,0,1.33-.16,5.69,5.69,0,0,0,1.35-.54"/><path class="cls-20" d="M62.39,67.9l-.11.11a.58.58,0,0,1-.3.07.57.57,0,0,1-.31-.07l-.6-.35c-.19-.11-.28-.21-.28-.32a.51.51,0,0,1,.05-.24l1.51-3.23L60,62.48l-3.54,2.06a.74.74,0,0,1-.38.09,1,1,0,0,1-.37-.09l-.57-.33a.28.28,0,0,1-.16-.22.25.25,0,0,1,.15-.22l9-5.21a.76.76,0,0,1,.38-.09.7.7,0,0,1,.37.09l3.39,1.95a5.53,5.53,0,0,1,1.12.84,2,2,0,0,1,.56.92,1.23,1.23,0,0,1-.15.94,2.84,2.84,0,0,1-1,.92,5.18,5.18,0,0,1-2.35.71,6.83,6.83,0,0,1-2.39-.29Zm1.17-4.78a4.77,4.77,0,0,0,2,.67,3,3,0,0,0,1.83-.43c.6-.35.83-.7.71-1a2.48,2.48,0,0,0-1.19-1.11l-2.36-1.36L61.2,61.76l2.36,1.36"/><path class="cls-20" d="M117.67,89.08a.27.27,0,0,1,.16.22.3.3,0,0,1-.16.22l-.5.29a.72.72,0,0,1-.37.09.74.74,0,0,1-.38-.09l-2.61-1.51L105.72,93a.78.78,0,0,1-.39.09A.75.75,0,0,1,105,93l-.57-.33a.29.29,0,0,1-.16-.22c0-.08.06-.15.16-.21l8.09-4.71L109.86,86c-.1-.06-.15-.13-.14-.22s0-.15.14-.21l.5-.29a.74.74,0,0,1,.38-.09.62.62,0,0,1,.37.09Z"/><path class="cls-20" d="M106,82.19a4.35,4.35,0,0,1,1.46,1.21,2,2,0,0,1,.41,1.16,1.68,1.68,0,0,1-.33,1,2.4,2.4,0,0,1-.77.72.54.54,0,0,1-.29.07.56.56,0,0,1-.32-.07l-.64-.37a.35.35,0,0,1-.15-.17.22.22,0,0,1,.09-.22,2.31,2.31,0,0,0,.45-.54,1,1,0,0,0,.14-.61,1.48,1.48,0,0,0-.33-.7,3.62,3.62,0,0,0-1-.75,5,5,0,0,0-2.62-.68,5.56,5.56,0,0,0-2.57.68q-.66.34-1.2.66l-1.14.69a2.07,2.07,0,0,0-1.16,1.49c0,.54.36,1,1.19,1.52a5.73,5.73,0,0,0,1.3.56,5.33,5.33,0,0,0,1.2.19,5.18,5.18,0,0,0,1.06-.08,6.86,6.86,0,0,0,.93-.27,1,1,0,0,1,.37,0,.89.89,0,0,1,.3.09l.65.37a.21.21,0,0,1,.12.18c0,.07,0,.12-.12.17a5.16,5.16,0,0,1-1.24.45,8.06,8.06,0,0,1-1.71.19,8.56,8.56,0,0,1-2-.23A8,8,0,0,1,96,88a4.5,4.5,0,0,1-1.33-1.1,2.07,2.07,0,0,1-.44-1.16,1.79,1.79,0,0,1,.4-1.15,4.22,4.22,0,0,1,1.2-1c.79-.5,1.61-1,2.47-1.44a7.8,7.8,0,0,1,1.8-.69,7.38,7.38,0,0,1,2-.24,7.94,7.94,0,0,1,2,.25A7.15,7.15,0,0,1,106,82.19Z"/><path class="cls-20" d="M99.59,78.65a.25.25,0,0,1,.17.21.29.29,0,0,1-.16.22l-5.55,3.23a9,9,0,0,1-1.8.79,7.64,7.64,0,0,1-1.91.33,7.15,7.15,0,0,1-2-.19,7.68,7.68,0,0,1-2-.82,4.41,4.41,0,0,1-1.42-1.16,1.63,1.63,0,0,1-.35-1.15A2,2,0,0,1,85.16,79a6.18,6.18,0,0,1,1.37-1l5.55-3.22a.71.71,0,0,1,.38-.09.72.72,0,0,1,.37.09l.57.33a.27.27,0,0,1,.16.22.26.26,0,0,1-.16.22l-5.62,3.26c-.91.53-1.36,1-1.37,1.55s.36,1,1.12,1.41a4.78,4.78,0,0,0,2.46.66,5.4,5.4,0,0,0,2.67-.8l5.62-3.27a.74.74,0,0,1,.38-.09.71.71,0,0,1,.38.1Z"/><path class="cls-20" d="M86.75,75.59l-1.09.64c-.31.19-.68.39-1.11.63a7.08,7.08,0,0,1-1.88.74,7.92,7.92,0,0,1-2,.22,7.74,7.74,0,0,1-2-.28,7.37,7.37,0,0,1-1.83-.76l-3.29-1.9c-.1-.06-.16-.13-.16-.21a.25.25,0,0,1,.15-.22l9-5.22a.9.9,0,0,1,.39-.08.68.68,0,0,1,.36.08l3.21,1.86a4.86,4.86,0,0,1,1.34,1.06,2,2,0,0,1,.52,1.17A1.78,1.78,0,0,1,88,74.49,4.12,4.12,0,0,1,86.75,75.59Zm-2.9.15.48-.27.46-.28.56-.33a3.59,3.59,0,0,0,.8-.65,1.31,1.31,0,0,0,.36-.76,1.17,1.17,0,0,0-.26-.81,3.16,3.16,0,0,0-1.06-.86L83,70.51l-7.22,4.2L78,76a5.22,5.22,0,0,0,1.48.61,4.85,4.85,0,0,0,1.4.13,4.75,4.75,0,0,0,1.26-.22,6.29,6.29,0,0,0,1.12-.48l.55-.31"/><path class="cls-20" d="M76.59,84.67a.27.27,0,0,1,.16.21.29.29,0,0,1-.16.22l-9,5.21a.74.74,0,0,1-.38.09.7.7,0,0,1-.37-.09L66.38,90a.31.31,0,0,1-.2-.26.73.73,0,0,1,0-.3l2.25-6.57-6.83,4a.71.71,0,0,1-.38.09.7.7,0,0,1-.37-.09l-.57-.33a.27.27,0,0,1-.16-.22.25.25,0,0,1,.15-.22l9-5.21a.85.85,0,0,1,.76,0l.48.28c.14.08.2.17.2.27a1,1,0,0,1,0,.3L68.43,88.3l6.83-4a.74.74,0,0,1,.38-.08.7.7,0,0,1,.37.08Z"/><path class="cls-20" d="M67,79.11a.27.27,0,0,1,.15.22.25.25,0,0,1-.15.22l-5.55,3.23a8.87,8.87,0,0,1-1.79.79,7.88,7.88,0,0,1-1.92.33,6.39,6.39,0,0,1-2-.2,7.51,7.51,0,0,1-2-.81,4.72,4.72,0,0,1-1.43-1.16A1.55,1.55,0,0,1,52,80.58a2,2,0,0,1,.58-1.11,6,6,0,0,1,1.36-1l5.56-3.23a.74.74,0,0,1,.38-.09.72.72,0,0,1,.37.09l.58.33a.22.22,0,0,1,0,.43l-5.63,3.27c-.9.53-1.36,1.05-1.37,1.55s.36,1,1.13,1.41a4.63,4.63,0,0,0,2.45.66,5.4,5.4,0,0,0,2.67-.8l5.63-3.27A.74.74,0,0,1,66,78.7a.72.72,0,0,1,.37.09Z"/><path class="cls-20" d="M49.39,79.65a.92.92,0,0,1-.14.14.48.48,0,0,1-.3.07.49.49,0,0,1-.31-.07l-.52-.3c-.18-.11-.27-.2-.27-.29a.36.36,0,0,1,.07-.22L49,77.48l-4.85-2.8-2.58.66a1.76,1.76,0,0,1-.38,0,1,1,0,0,1-.5-.16l-.52-.3c-.08,0-.13-.1-.13-.17a.23.23,0,0,1,.13-.18.93.93,0,0,1,.24-.08l12.2-3.12a2.44,2.44,0,0,1,.51-.05,1,1,0,0,1,.57.15l.84.49q.28.15.27.33a.56.56,0,0,1-.1.29Zm-3.46-5.41,3.87,2.23,3-4-6.9,1.76"/><path class="cls-20" d="M43.64,65.64a.27.27,0,0,1,.15.22.25.25,0,0,1-.15.22l-8.09,4.7,4.74,2.74a.25.25,0,0,1,.15.22.3.3,0,0,1-.16.22l-.49.28a.85.85,0,0,1-.38.1.7.7,0,0,1-.37-.1L33.35,71a.27.27,0,0,1-.16-.22.24.24,0,0,1,.16-.21l9-5.22a.85.85,0,0,1,.76,0Z"/><path class="cls-20" d="M95.89,95.81a.28.28,0,0,1,.16.22.26.26,0,0,1-.16.22l-9,5.21a.78.78,0,0,1-.39.09.75.75,0,0,1-.37-.09l-.57-.33a.27.27,0,0,1-.16-.22.3.3,0,0,1,.16-.22l3.91-2.27-4.92-2.84-3.92,2.27a.7.7,0,0,1-.37.09.76.76,0,0,1-.38-.09l-.57-.33c-.1-.06-.16-.13-.16-.21s0-.16.16-.23l9-5.21a.71.71,0,0,1,.38-.09.72.72,0,0,1,.37.09l.57.33a.28.28,0,0,1,.16.22.25.25,0,0,1-.16.22l-3.8,2.21,4.92,2.84,3.81-2.21a.72.72,0,0,1,.37-.09.74.74,0,0,1,.38.09Z"/><path class="cls-20" d="M83.08,88.26a4.4,4.4,0,0,1,1.47,1.21A2.12,2.12,0,0,1,85,90.63a1.74,1.74,0,0,1-.34,1,2.48,2.48,0,0,1-.76.72.57.57,0,0,1-.31.07.58.58,0,0,1-.3-.07L82.61,92a.31.31,0,0,1-.16-.18.21.21,0,0,1,.1-.21A2.74,2.74,0,0,0,83,91a1,1,0,0,0,.14-.62,1.41,1.41,0,0,0-.32-.69,3.7,3.7,0,0,0-1-.75,4.92,4.92,0,0,0-2.62-.68,5.55,5.55,0,0,0-2.57.67l-1.19.67-1.14.69a2.06,2.06,0,0,0-1.17,1.49c0,.54.37,1,1.2,1.52a5.29,5.29,0,0,0,2.49.75A4.6,4.6,0,0,0,77.89,94a7.54,7.54,0,0,0,.94-.25.74.74,0,0,1,.36-.06.67.67,0,0,1,.31.09l.64.37a.19.19,0,0,1,.12.18c0,.07,0,.12-.13.17A4.92,4.92,0,0,1,78.9,95a7.46,7.46,0,0,1-1.71.19,8.42,8.42,0,0,1-2-.23,7.56,7.56,0,0,1-2.1-.84A4.3,4.3,0,0,1,71.75,93a2,2,0,0,1-.44-1.15,1.87,1.87,0,0,1,.4-1.15,3.94,3.94,0,0,1,1.2-1c.8-.5,1.62-1,2.47-1.44a8,8,0,0,1,1.81-.7,7.72,7.72,0,0,1,2-.23,8.08,8.08,0,0,1,2,.25A7,7,0,0,1,83.08,88.26Z"/><g class="cls-2"><g class="cls-2"><g class="cls-21"><g class="cls-2"><path class="cls-22" d="M167.41,45v0"/><path class="cls-23" d="M167.41,45.14v4.08a5.58,5.58,0,0,1-.09.81V46a5.71,5.71,0,0,0,.09-.82"/><path class="cls-24" d="M167.32,46V50a6.15,6.15,0,0,1-.23.81V46.76a5.61,5.61,0,0,0,.23-.8"/><path class="cls-25" d="M167.09,46.76v4.08a7.37,7.37,0,0,1-.38.81V47.57a6.6,6.6,0,0,0,.38-.81"/><path class="cls-26" d="M166.71,47.57v4.08a7.53,7.53,0,0,1-.58.85V48.43a7.63,7.63,0,0,0,.58-.86"/><path class="cls-27" d="M166.13,48.43V52.5a7.8,7.8,0,0,1-.88,1V49.38a8.54,8.54,0,0,0,.88-1"/><path class="cls-28" d="M165.25,49.38v4.07a10.76,10.76,0,0,1-1.81,1.34V50.72a11.49,11.49,0,0,0,1.81-1.34"/><path class="cls-29" d="M163.44,50.72v4.07l-.18.11V50.82l.18-.1"/></g></g></g><g class="cls-2"><g class="cls-30"><g class="cls-2"><path class="cls-31" d="M76.55,50.82V54.9c-2.82-1.63-4.22-3.76-4.22-5.89l0-4.08c0,2.13,1.4,4.26,4.21,5.89"/></g></g></g><polygon class="cls-32" points="163.26 50.82 163.25 54.9 130.1 74.16 130.11 70.09 163.26 50.82"/><polygon class="cls-33" points="109.92 70.09 109.91 74.16 76.54 54.9 76.55 50.82 109.92 70.09"/><g class="cls-2"><g class="cls-34"><g class="cls-2"><path class="cls-29" d="M130.11,70.09v4.07A15.55,15.55,0,0,1,127,75.54V71.46a16.11,16.11,0,0,0,3.13-1.37"/><path class="cls-28" d="M127,71.46v4.08a21.3,21.3,0,0,1-2.7.67V72.14a21.32,21.32,0,0,0,2.7-.68"/><path class="cls-27" d="M124.28,72.14v4.07c-.6.11-1.21.19-1.82.26V72.39c.61-.06,1.22-.15,1.82-.25"/><path class="cls-26" d="M122.46,72.39v4.08c-.53,0-1.06.08-1.59.1V72.49c.53,0,1.06,0,1.59-.1"/><path class="cls-25" d="M120.87,72.49v4.08c-.48,0-1,0-1.46,0V72.5c.49,0,1,0,1.46,0"/><path class="cls-24" d="M119.41,72.5v4.08c-.47,0-.94,0-1.4-.08V72.43c.46,0,.93.06,1.4.07"/><path class="cls-23" d="M118,72.43V76.5c-.47,0-.93-.09-1.39-.15V72.27c.46.07.92.12,1.39.16"/><path class="cls-22" d="M116.62,72.27v4.08c-.48-.07-1-.15-1.42-.25V72c.47.09.94.17,1.42.24"/><path class="cls-35" d="M115.2,72V76.1c-.5-.1-1-.23-1.49-.36l0-4.08c.48.14,1,.26,1.48.37"/><path class="cls-36" d="M113.72,71.66l0,4.08c-.59-.17-1.17-.37-1.73-.59V71.07a16.16,16.16,0,0,0,1.74.59"/><path class="cls-31" d="M112,71.07v4.08a15.64,15.64,0,0,1-2.06-1V70.09a15.6,15.6,0,0,0,2.06,1"/></g></g></g><path class="cls-20" d="M163.2,39.13c5.59,3.23,5.62,8.46.06,11.69L130.11,70.09c-5.56,3.23-14.59,3.23-20.19,0L76.55,50.82c-5.59-3.23-5.62-8.46-.07-11.69l33.16-19.27c5.56-3.23,14.59-3.23,20.19,0Z"/></g></g></g></svg>