<svg xmlns="http://www.w3.org/2000/svg" xmlns:xlink="http://www.w3.org/1999/xlink" viewBox="0 0 230.37 141.57"><defs><style>.cls-1{fill:none;}.cls-2{isolation:isolate;}.cls-3{clip-path:url(#clip-path);}.cls-4{fill:#133f5d;}.cls-5{fill:#134160;}.cls-6{fill:#144463;}.cls-7{fill:#144666;}.cls-8{fill:#15486a;}.cls-9{fill:#164a6d;}.cls-10{fill:#164c70;}.cls-11{fill:#174e73;}.cls-12{clip-path:url(#clip-path-2);}.cls-13{fill:#113953;}.cls-14{fill:#19547b;}.cls-15{fill:#113a56;}.cls-16{clip-path:url(#clip-path-3);}.cls-17{fill:#123d5a;}.cls-18{fill:#113b56;}.cls-19{fill:#1c5e8a;}.cls-20{fill:#dcdcdc;}.cls-21{clip-path:url(#clip-path-4);}.cls-22{fill:#949494;}.cls-23{fill:#999;}.cls-24{fill:#9e9e9e;}.cls-25{fill:#a3a3a3;}.cls-26{fill:#a8a8a8;}.cls-27{fill:#adadad;}.cls-28{fill:#b3b3b3;}.cls-29{fill:#b8b8b8;}.cls-30{clip-path:url(#clip-path-5);}.cls-31{fill:#858585;}.cls-32{fill:#c5c5c5;}.cls-33{fill:#898989;}.cls-34{clip-path:url(#clip-path-6);}.cls-35{fill:#8f8f8f;}.cls-36{fill:#8a8a8a;}.cls-37{fill:#08665b;}.cls-38{fill:#138c82;}.cls-39{fill:#46ccbc;}.cls-40{fill:#07584e;}</style><clipPath id="clip-path"><path class="cls-1" d="M230.37,66.75l0,8.15c0,2.21-1.46,4.42-4.36,6.11l0-8.15C228.91,71.17,230.36,69,230.37,66.75Z"/></clipPath><clipPath id="clip-path-2"><path class="cls-1" d="M0,74.82l0-8.15c0,2.24,1.47,4.48,4.43,6.19l0,8.15C1.47,79.3,0,77.06,0,74.82Z"/></clipPath><clipPath id="clip-path-3"><path class="cls-1" d="M126.17,130.88l0,8.15c-5.84,3.39-15.33,3.39-21.21,0l0-8.15C110.83,134.27,120.32,134.27,126.17,130.88Z"/></clipPath><clipPath id="clip-path-4"><path class="cls-1" d="M150.08,49.8v4.08c0,2.1-1.38,4.2-4.15,5.8l0-4.08C148.7,54,150.08,51.9,150.08,49.8Z"/></clipPath><clipPath id="clip-path-5"><path class="cls-1" d="M44.14,53.79V49.72c0,2.13,1.4,4.26,4.22,5.89l0,4.07C45.54,58.06,44.13,55.92,44.14,53.79Z"/></clipPath><clipPath id="clip-path-6"><path class="cls-1" d="M107.37,78v4.07c-5.56,3.23-14.59,3.23-20.19,0V78C92.78,81.25,101.81,81.25,107.37,78Z"/></clipPath></defs><g id="Layer_2" data-name="Layer 2"><g id="Layer_1-2" data-name="Layer 1"><g class="cls-2"><g class="cls-2"><g class="cls-3"><g class="cls-2"><path class="cls-4" d="M230.37,66.75l0,8.15V75l0-8.16s0-.08,0-.13"/><path class="cls-5" d="M230.36,66.88l0,8.16a5.16,5.16,0,0,1-.1.86l0-8.15a5.14,5.14,0,0,0,.09-.87"/><path class="cls-6" d="M230.27,67.75l0,8.15a5.3,5.3,0,0,1-.24.84l0-8.15a5.35,5.35,0,0,0,.25-.84"/><path class="cls-7" d="M230,68.59l0,8.15a6.62,6.62,0,0,1-.4.86l0-8.16a6,6,0,0,0,.4-.85"/><path class="cls-8" d="M229.62,69.44l0,8.16a7,7,0,0,1-.6.89l0-8.15a6.4,6.4,0,0,0,.6-.9"/><path class="cls-9" d="M229,70.34l0,8.15a8.62,8.62,0,0,1-.93,1l0-8.15a8.62,8.62,0,0,0,.93-1"/><path class="cls-10" d="M228.09,71.34l0,8.15a12,12,0,0,1-1.9,1.41l0-8.15a11.58,11.58,0,0,0,1.9-1.41"/><path class="cls-11" d="M226.19,72.75l0,8.15L226,81l0-8.15.18-.11"/></g></g></g><g class="cls-2"><g class="cls-12"><g class="cls-2"><path class="cls-13" d="M4.45,72.86l0,8.15c-3-1.71-4.44-4-4.43-6.19l0-8.15c0,2.24,1.47,4.48,4.43,6.19"/></g></g></g><polygon class="cls-14" points="226.01 72.86 225.98 81.01 126.14 139.03 126.17 130.88 226.01 72.86"/><polygon class="cls-15" points="104.95 130.88 104.92 139.03 4.43 81.01 4.45 72.86 104.95 130.88"/><g class="cls-2"><g class="cls-16"><g class="cls-2"><path class="cls-11" d="M126.17,130.88l0,8.15a17.52,17.52,0,0,1-3.29,1.45l0-8.16a17.15,17.15,0,0,0,3.29-1.44"/><path class="cls-10" d="M122.88,132.32l0,8.16a21.42,21.42,0,0,1-2.84.7l0-8.15a21.83,21.83,0,0,0,2.84-.71"/><path class="cls-9" d="M120,133l0,8.15c-.63.12-1.27.2-1.91.27l0-8.15q1-.11,1.92-.27"/><path class="cls-8" d="M118.12,133.3l0,8.15c-.55.05-1.11.09-1.66.11l0-8.15c.56,0,1.11-.06,1.66-.11"/><path class="cls-7" d="M116.46,133.41l0,8.15c-.52,0-1,0-1.54,0l0-8.16c.52,0,1,0,1.54,0"/><path class="cls-6" d="M114.92,133.41l0,8.16c-.49,0-1,0-1.48-.08l0-8.15c.49,0,1,.06,1.47.07"/><path class="cls-5" d="M113.45,133.34l0,8.15c-.49,0-1-.1-1.45-.17l0-8.15c.48.07,1,.13,1.46.17"/><path class="cls-4" d="M112,133.17l0,8.15c-.51-.07-1-.15-1.49-.25l0-8.16c.49.11,1,.19,1.49.26"/><path class="cls-17" d="M110.5,132.91l0,8.16c-.53-.11-1-.24-1.57-.39l0-8.15c.51.15,1,.27,1.56.38"/><path class="cls-18" d="M108.94,132.53l0,8.15c-.62-.18-1.23-.38-1.82-.61l0-8.15c.59.23,1.2.43,1.83.61"/><path class="cls-13" d="M107.11,131.92l0,8.15a16,16,0,0,1-2.16-1l0-8.15a18,18,0,0,0,2.16,1"/></g></g></g><path class="cls-19" d="M225.94,60.57c5.88,3.39,5.9,8.89.07,12.29l-99.84,58c-5.85,3.39-15.34,3.39-21.22,0l-100.5-58c-5.88-3.4-5.91-8.9-.07-12.29l99.85-58c5.83-3.39,15.33-3.39,21.21,0Z"/></g><path class="cls-20" d="M118.51,104.26a.26.26,0,0,1-.16.24l-.63.36a.76.76,0,0,1-.41.1.82.82,0,0,1-.42-.1L107,99.14a.25.25,0,0,1,0-.48l3.85-2.23a8.27,8.27,0,0,1,1.6-.71,8,8,0,0,1,1.75-.34,7,7,0,0,1,1.82.12,5.86,5.86,0,0,1,1.75.67,3.27,3.27,0,0,1,1.17,1,1.44,1.44,0,0,1,.23,1.06,2,2,0,0,1-.55,1,5.27,5.27,0,0,1-1.21.93l-2.81,1.63,3.76,2.17A.28.28,0,0,1,118.51,104.26Zm-5.31-3.21,2.74-1.58c.72-.43,1.13-.85,1.22-1.26s-.21-.82-.86-1.2a3.43,3.43,0,0,0-2-.47,5.19,5.19,0,0,0-2.15.73l-2.73,1.59,3.8,2.19"/><path class="cls-20" d="M142.41,90.32A4.64,4.64,0,0,1,141,91.54a7.86,7.86,0,0,1-2.09.85,9.16,9.16,0,0,1-2.2.24,9,9,0,0,1-2.14-.29,8.62,8.62,0,0,1-1.93-.76c-.47-.25-.94-.51-1.39-.77s-.9-.53-1.34-.8a5,5,0,0,1-1.33-1.11,2.09,2.09,0,0,1-.49-1.24,2,2,0,0,1,.41-1.27,4.52,4.52,0,0,1,1.46-1.23,7.85,7.85,0,0,1,2.11-.85,9.21,9.21,0,0,1,2.2-.24,8.89,8.89,0,0,1,2.13.28,8.2,8.2,0,0,1,1.92.77c.47.25.93.51,1.39.77l1.35.8a5.24,5.24,0,0,1,1.3,1.12,2.12,2.12,0,0,1,.51,1.24A2,2,0,0,1,142.41,90.32Zm-4.1,1a5,5,0,0,0,1.26-.53,3.06,3.06,0,0,0,.91-.73,1.31,1.31,0,0,0,.34-.81,1.34,1.34,0,0,0-.32-.84,3.84,3.84,0,0,0-1-.87c-.44-.28-.86-.53-1.26-.76s-.84-.48-1.32-.73a7.32,7.32,0,0,0-1.49-.59,6.27,6.27,0,0,0-1.46-.18,5.44,5.44,0,0,0-1.4.2,5,5,0,0,0-1.26.53,3.19,3.19,0,0,0-.91.73,1.24,1.24,0,0,0-.33.81,1.3,1.3,0,0,0,.3.85,3.57,3.57,0,0,0,1,.86c.44.28.86.53,1.26.76s.84.48,1.32.73a6,6,0,0,0,1.49.59,5.74,5.74,0,0,0,1.47.18,5.43,5.43,0,0,0,1.39-.2"/><path class="cls-20" d="M132.93,95.54l-6.12-1-2.63,1.52,3.92,2.26a.3.3,0,0,1,.17.24.28.28,0,0,1-.16.24l-.63.36a.79.79,0,0,1-.42.1.8.8,0,0,1-.41-.1l-9.91-5.72a.31.31,0,0,1-.17-.24.28.28,0,0,1,.17-.24l3.69-2.14a7.86,7.86,0,0,1,1.59-.71,7,7,0,0,1,1.74-.35,6.29,6.29,0,0,1,1.78.1,5.46,5.46,0,0,1,1.74.66c.83.47,1.27,1,1.35,1.5a1.8,1.8,0,0,1-.52,1.52l6.34,1,.21.07c.09.05.14.12.13.19a.21.21,0,0,1-.13.2l-.66.38a1.06,1.06,0,0,1-.6.17A2.83,2.83,0,0,1,132.93,95.54ZM122.8,95.3l2.59-1.5c.72-.43,1.14-.84,1.25-1.24s-.16-.79-.82-1.17a3.12,3.12,0,0,0-2-.45,5.23,5.23,0,0,0-2.11.75l-2.58,1.5,3.65,2.11"/><path class="cls-20" d="M161.64,74.49a6.33,6.33,0,0,1,1.51,1.14,2.34,2.34,0,0,1,.64,1.22,1.7,1.7,0,0,1-.37,1.26,4.82,4.82,0,0,1-1.54,1.27,8.45,8.45,0,0,1-2.19.9,7.77,7.77,0,0,1-2.18.22,8.26,8.26,0,0,1-2.1-.37,9.89,9.89,0,0,1-2-.88l-6.14-3.54a.27.27,0,0,1-.16-.24c0-.09.05-.17.16-.24l.63-.36a.85.85,0,0,1,.4-.1.83.83,0,0,1,.43.1L155,78.45a6,6,0,0,0,2.93.89,5.11,5.11,0,0,0,2.68-.72q1.24-.72,1.23-1.56c0-.55-.52-1.12-1.53-1.69l-6.21-3.59a.3.3,0,0,1-.17-.24.28.28,0,0,1,.17-.24l.61-.35a.89.89,0,0,1,.82,0Z"/><path class="cls-20" d="M152.67,84.23a5.17,5.17,0,0,1-1.44,1.16l-3.59,2.08a.72.72,0,0,1-.4.1.79.79,0,0,1-.42-.1l-9.91-5.72c-.11-.07-.17-.14-.17-.24a.29.29,0,0,1,.16-.24l3.5-2a9,9,0,0,1,2-.85,9.21,9.21,0,0,1,2.2-.32,8.3,8.3,0,0,1,2.22.23,7.79,7.79,0,0,1,2.09.8l1.23.69,1.19.71a4.56,4.56,0,0,1,1.41,1.2,2.09,2.09,0,0,1,.43,1.27A2.22,2.22,0,0,1,152.67,84.23Zm-5.37,1.84,2.47-1.43a3.46,3.46,0,0,0,1.14-.94,1.2,1.2,0,0,0,.26-.88,1.53,1.53,0,0,0-.43-.81,4.78,4.78,0,0,0-.91-.71l-.6-.35-.51-.31-.54-.3-.62-.35a6.3,6.3,0,0,0-1.25-.51,5.41,5.41,0,0,0-1.42-.24,5.58,5.58,0,0,0-1.55.17,6.32,6.32,0,0,0-1.63.67l-2.39,1.39,8,4.6"/><path class="cls-20" d="M175.77,59.81a.26.26,0,0,1,.16.24c0,.09-.05.17-.16.23l-2.85,1.66,8.94,5.17a.26.26,0,0,1,.17.24c0,.09-.05.17-.17.24l-.62.36a.86.86,0,0,1-.41.1.83.83,0,0,1-.41-.1l-8.95-5.17-2.85,1.66a.76.76,0,0,1-.41.1.79.79,0,0,1-.42-.1l-.54-.32a.27.27,0,0,1-.18-.24.3.3,0,0,1,.17-.24l7.15-4.15a.86.86,0,0,1,.41-.1.82.82,0,0,1,.42.1Z"/><path class="cls-20" d="M173.22,68.77a3,3,0,0,1,.84.79,1.94,1.94,0,0,1,.38,1.09,2.17,2.17,0,0,1-.43,1.27,4.79,4.79,0,0,1-1.6,1.34,8,8,0,0,1-2.07.84,9.7,9.7,0,0,1-2.21.28,9.12,9.12,0,0,1-2.16-.26,8.37,8.37,0,0,1-2-.77c-.47-.25-.93-.51-1.39-.77s-.9-.53-1.34-.81a4.59,4.59,0,0,1-1.32-1.15,2,2,0,0,1-.46-1.26,2.13,2.13,0,0,1,.47-1.27,4.43,4.43,0,0,1,1.45-1.21,7.94,7.94,0,0,1,2.3-.93,9.54,9.54,0,0,1,2.18-.25,8.34,8.34,0,0,1,1.89.21,5.7,5.7,0,0,1,1.36.49.27.27,0,0,1,.15.19.23.23,0,0,1-.14.2l-.7.41a1.2,1.2,0,0,1-.33.09.84.84,0,0,1-.41-.06,7,7,0,0,0-1-.28,4.86,4.86,0,0,0-1.17-.1,6.49,6.49,0,0,0-1.3.21,6,6,0,0,0-1.42.62c-.9.52-1.34,1.08-1.29,1.66A2.31,2.31,0,0,0,162.75,71c.44.28.86.53,1.26.76l1.32.73a6.21,6.21,0,0,0,2.83.74,5.34,5.34,0,0,0,2.87-.75,3.78,3.78,0,0,0,1.06-.83,1.41,1.41,0,0,0,.35-.75,1,1,0,0,0-.16-.68,2.75,2.75,0,0,0-.5-.59.24.24,0,0,1-.1-.24.33.33,0,0,1,.16-.19l.7-.41a.71.71,0,0,1,.34-.08A.74.74,0,0,1,173.22,68.77Z"/><path class="cls-20" d="M135.09,112.66a2.34,2.34,0,0,1,1,.9,1.44,1.44,0,0,1,.16,1,2.44,2.44,0,0,1-.64,1.12,6.11,6.11,0,0,1-1.45,1.11,8,8,0,0,1-1.9.8,10,10,0,0,1-1.95.35,8.62,8.62,0,0,1-1.77,0,4,4,0,0,1-1.32-.39c-.1-.06-.14-.12-.14-.19a.22.22,0,0,1,.13-.2l.63-.36a.93.93,0,0,1,.33-.12,1.24,1.24,0,0,1,.48,0,6,6,0,0,0,.75.1,4.77,4.77,0,0,0,1,0,6.5,6.5,0,0,0,1.15-.23,5.76,5.76,0,0,0,1.24-.54,4.29,4.29,0,0,0,.88-.66,2,2,0,0,0,.5-.7.92.92,0,0,0,0-.65,1.05,1.05,0,0,0-.51-.54,1.9,1.9,0,0,0-.93-.25,4.84,4.84,0,0,0-1.21.1,14.51,14.51,0,0,0-1.55.41l-1.91.64a12,12,0,0,1-1.77.47,7.61,7.61,0,0,1-1.52.13,4.85,4.85,0,0,1-1.3-.19,4.94,4.94,0,0,1-1.11-.47,2.75,2.75,0,0,1-.87-.77,1.39,1.39,0,0,1-.27-.95,1.92,1.92,0,0,1,.45-1,4.77,4.77,0,0,1,1.35-1.07,7.27,7.27,0,0,1,1.92-.79,11.41,11.41,0,0,1,1.92-.28,8,8,0,0,1,1.66.08,4.1,4.1,0,0,1,1.14.34l0,0a.17.17,0,0,1,.11.16.25.25,0,0,1-.15.2l-.62.36a.78.78,0,0,1-.33.12,1.41,1.41,0,0,1-.48,0l-.64-.09a6,6,0,0,0-.94,0,7,7,0,0,0-1.1.2,4.63,4.63,0,0,0-1.15.49,3.52,3.52,0,0,0-.73.53,1.76,1.76,0,0,0-.39.57.75.75,0,0,0,0,.57,1.23,1.23,0,0,0,.52.52,2.13,2.13,0,0,0,.86.28,3.8,3.8,0,0,0,1,0,9.74,9.74,0,0,0,1.39-.35q.78-.23,1.86-.6c.73-.24,1.4-.43,2-.56a8.19,8.19,0,0,1,1.6-.21,4.52,4.52,0,0,1,1.35.14A4.16,4.16,0,0,1,135.09,112.66Z"/><path class="cls-20" d="M164.25,98.67a.28.28,0,0,1,.17.25.27.27,0,0,1-.17.23l-6.15,3.58a.82.82,0,0,1-.42.1.76.76,0,0,1-.41-.1L147.35,97a.27.27,0,0,1-.16-.24.28.28,0,0,1,.17-.24l6-3.5a.76.76,0,0,1,.41-.1.83.83,0,0,1,.41.09l.56.32a.3.3,0,0,1,.17.24.31.31,0,0,1-.17.24l-5,2.91L153,98.6l4.66-2.72a.86.86,0,0,1,.41-.09.87.87,0,0,1,.42.09l.55.32a.28.28,0,0,1,.17.24.28.28,0,0,1-.17.24l-4.66,2.71,3.36,1.94,5.13-3a.7.7,0,0,1,.4-.1.87.87,0,0,1,.42.09Z"/><g class="cls-2"><path class="cls-20" d="M155.67,103.66a.3.3,0,0,1,.17.24.29.29,0,0,1-.17.24l-6.2,3.61a.91.91,0,0,1-.41.09.9.9,0,0,1-.42-.09L138.73,102a.28.28,0,0,1-.17-.24.3.3,0,0,1,.17-.24l.62-.36a.89.89,0,0,1,.41-.1.83.83,0,0,1,.41.1l9,5.17,5.17-3a.83.83,0,0,1,.41-.09.8.8,0,0,1,.41.09Z"/><path class="cls-20" d="M146.6,108.93a.3.3,0,0,1,.17.25.29.29,0,0,1-.17.23L140.44,113a.76.76,0,0,1-.41.1.82.82,0,0,1-.42-.1l-9.91-5.72a.32.32,0,0,1-.17-.24c0-.1.06-.17.17-.24l6-3.51a.83.83,0,0,1,.41-.09.86.86,0,0,1,.41.09l.55.32a.31.31,0,0,1,.18.24.32.32,0,0,1-.17.24l-5,2.91,3.23,1.86,4.67-2.71a.75.75,0,0,1,.41-.09.93.93,0,0,1,.42.09l.55.32a.32.32,0,0,1,.17.24.29.29,0,0,1-.17.24l-4.67,2.71,3.37,1.94,5.12-3a.76.76,0,0,1,.41-.1.86.86,0,0,1,.41.09Z"/></g><path class="cls-20" d="M171.46,91.13a2.86,2.86,0,0,1,.84.79,1.9,1.9,0,0,1,.37,1.08,2.19,2.19,0,0,1-.42,1.28,4.94,4.94,0,0,1-1.59,1.33,8.42,8.42,0,0,1-2.09.85,9.2,9.2,0,0,1-2.2.27,8.91,8.91,0,0,1-2.18-.26,8.11,8.11,0,0,1-2-.76l-1.39-.78-1.34-.8A4.66,4.66,0,0,1,158.14,93a2,2,0,0,1-.45-1.26,2.16,2.16,0,0,1,.46-1.28,4.86,4.86,0,0,1,1.46-1.21,8,8,0,0,1,2.29-.92,9.62,9.62,0,0,1,2.2-.26,8.36,8.36,0,0,1,1.88.22,6,6,0,0,1,1.37.48c.09.06.14.12.13.2a.22.22,0,0,1-.13.19l-.71.41a.68.68,0,0,1-.33.09.79.79,0,0,1-.4,0,9.42,9.42,0,0,0-1-.29,5.65,5.65,0,0,0-1.18-.09,5.76,5.76,0,0,0-1.3.21A5.9,5.9,0,0,0,161,90c-.91.53-1.34,1.08-1.29,1.67a2.25,2.25,0,0,0,1.3,1.63c.43.28.85.53,1.25.77s.83.47,1.32.72a6.19,6.19,0,0,0,2.83.75,5.41,5.41,0,0,0,2.88-.76,3.9,3.9,0,0,0,1.05-.82,1.48,1.48,0,0,0,.35-.76,1.11,1.11,0,0,0-.16-.68A3.07,3.07,0,0,0,170,92a.23.23,0,0,1-.1-.24.31.31,0,0,1,.16-.18l.7-.41a.7.7,0,0,1,.33-.08A.65.65,0,0,1,171.46,91.13Z"/><path class="cls-20" d="M207.3,73.66a.28.28,0,0,1,.17.24.32.32,0,0,1-.17.24l-.53.31a1,1,0,0,1-.51.12,5.12,5.12,0,0,1-.56,0l-12.46-1.46,7.55,4.36a.32.32,0,0,1,.17.24.28.28,0,0,1-.17.24l-.63.36a.7.7,0,0,1-.4.1.79.79,0,0,1-.42-.1l-9.91-5.72c-.11-.07-.17-.14-.17-.24a.29.29,0,0,1,.16-.24l.54-.31a1,1,0,0,1,.5-.12,5.3,5.3,0,0,1,.57,0l12.46,1.46-7.56-4.37a.28.28,0,0,1-.16-.23c0-.1,0-.17.17-.24l.62-.36a.76.76,0,0,1,.41-.1.83.83,0,0,1,.41.09Z"/><path class="cls-20" d="M194.92,81.13a4.47,4.47,0,0,1-1.45,1.22,7.45,7.45,0,0,1-2.1.84,8.56,8.56,0,0,1-2.19.25,9,9,0,0,1-2.14-.29,9.13,9.13,0,0,1-1.93-.76c-.47-.25-.94-.51-1.39-.77s-.9-.53-1.34-.8a5,5,0,0,1-1.33-1.11,2.12,2.12,0,0,1-.49-1.24A2.06,2.06,0,0,1,181,77.2,4.52,4.52,0,0,1,182.43,76a7.85,7.85,0,0,1,2.11-.85,9.21,9.21,0,0,1,2.2-.24,9,9,0,0,1,2.14.28,8.3,8.3,0,0,1,1.91.77c.47.25.94.51,1.39.77s.91.53,1.35.8a5,5,0,0,1,1.3,1.12,2.12,2.12,0,0,1,.51,1.24A2,2,0,0,1,194.92,81.13Zm-4.09,1a5.18,5.18,0,0,0,1.26-.53,3.4,3.4,0,0,0,.92-.73,1.36,1.36,0,0,0,.33-.81,1.29,1.29,0,0,0-.32-.84,3.84,3.84,0,0,0-1-.87c-.44-.28-.86-.53-1.26-.76s-.84-.48-1.32-.73a7.32,7.32,0,0,0-1.49-.59,6.22,6.22,0,0,0-1.47-.18,5.43,5.43,0,0,0-1.39.2,5.18,5.18,0,0,0-1.26.53,3.4,3.4,0,0,0-.92.73,1.36,1.36,0,0,0-.33.81,1.37,1.37,0,0,0,.31.85,3.57,3.57,0,0,0,1,.86c.44.28.86.53,1.26.76s.83.47,1.32.73a6,6,0,0,0,1.49.59,5.74,5.74,0,0,0,1.47.18,5.43,5.43,0,0,0,1.39-.2"/><path class="cls-20" d="M186.47,85.76a.3.3,0,0,1,.18.24.31.31,0,0,1-.18.24l-.62.36a.76.76,0,0,1-.41.1.73.73,0,0,1-.41-.1l-9.92-5.72c-.11-.07-.17-.14-.17-.24s.06-.17.17-.24l.63-.36a.73.73,0,0,1,.41-.1.76.76,0,0,1,.41.1Z"/><path class="cls-20" d="M174,82.16q.18.11.18.24a.31.31,0,0,1-.17.24l-2.85,1.66,8.94,5.16a.31.31,0,0,1,.18.24.33.33,0,0,1-.17.24l-.63.37a.86.86,0,0,1-.41.09.76.76,0,0,1-.41-.1l-8.95-5.16-2.85,1.66a.91.91,0,0,1-.83,0l-.55-.32a.32.32,0,0,1-.17-.24c0-.1.05-.17.17-.24l7.15-4.15a.76.76,0,0,1,.41-.1.83.83,0,0,1,.41.09Z"/><g class="cls-2"><g class="cls-2"><g class="cls-21"><g class="cls-2"><path class="cls-22" d="M150.08,49.8v0"/><path class="cls-23" d="M150.08,49.92V54a5.71,5.71,0,0,1-.09.82V50.74a5.56,5.56,0,0,0,.09-.82"/><path class="cls-24" d="M150,50.74v4.08a5.61,5.61,0,0,1-.23.8V51.55a4.92,4.92,0,0,0,.23-.81"/><path class="cls-25" d="M149.76,51.55v4.07a6,6,0,0,1-.38.81V52.36a5.9,5.9,0,0,0,.38-.81"/><path class="cls-26" d="M149.38,52.36v4.07a7.63,7.63,0,0,1-.58.86V53.21a6.4,6.4,0,0,0,.58-.85"/><path class="cls-27" d="M148.8,53.21v4.08a8.54,8.54,0,0,1-.88,1V54.16a7.08,7.08,0,0,0,.88-.95"/><path class="cls-28" d="M147.92,54.16v4.08a11.49,11.49,0,0,1-1.81,1.34V55.5a10.9,10.9,0,0,0,1.81-1.34"/><path class="cls-29" d="M146.11,55.5v4.08l-.18.1,0-4.08.17-.1"/></g></g></g><g class="cls-2"><g class="cls-30"><g class="cls-2"><path class="cls-31" d="M48.37,55.61l0,4.07c-2.81-1.62-4.22-3.76-4.21-5.89V49.72c0,2.13,1.4,4.26,4.22,5.89"/></g></g></g><polygon class="cls-32" points="145.94 55.6 145.93 59.68 107.36 82.09 107.37 78.02 145.94 55.6"/><polygon class="cls-33" points="87.18 78.02 87.17 82.09 48.35 59.68 48.37 55.6 87.18 78.02"/><g class="cls-2"><g class="cls-34"><g class="cls-2"><path class="cls-29" d="M107.37,78v4.07a16.13,16.13,0,0,1-3.13,1.38V79.39A16.11,16.11,0,0,0,107.37,78"/><path class="cls-28" d="M104.24,79.39v4.08a21.3,21.3,0,0,1-2.7.67V80.07a20.9,20.9,0,0,0,2.7-.68"/><path class="cls-27" d="M101.54,80.07v4.07c-.6.11-1.21.19-1.82.25V80.32c.61-.06,1.22-.15,1.82-.25"/><path class="cls-26" d="M99.72,80.32v4.07c-.53.06-1.06.09-1.59.11l0-4.08c.53,0,1,0,1.58-.1"/><path class="cls-25" d="M98.14,80.42l0,4.08c-.48,0-1,0-1.46,0V80.43c.49,0,1,0,1.47,0"/><path class="cls-24" d="M96.67,80.43v4.08c-.47,0-.94,0-1.4-.08V80.36c.47,0,.93.06,1.4.07"/><path class="cls-23" d="M95.27,80.36v4.07c-.47,0-.93-.09-1.39-.15V80.2c.46.07.92.12,1.39.16"/><path class="cls-22" d="M93.88,80.2v4.08c-.48-.07-1-.15-1.42-.25l0-4.08c.46.1.93.18,1.41.25"/><path class="cls-35" d="M92.47,80l0,4.08c-.5-.1-1-.23-1.48-.36V79.59c.48.14,1,.26,1.49.36"/><path class="cls-36" d="M91,79.59v4.08c-.6-.17-1.18-.37-1.74-.59V79a16.16,16.16,0,0,0,1.74.59"/><path class="cls-31" d="M89.24,79v4.08a15.64,15.64,0,0,1-2.06-1V78a15.6,15.6,0,0,0,2.06,1"/></g></g></g><path class="cls-20" d="M145.87,43.91c5.59,3.23,5.62,8.47.07,11.69L107.37,78c-5.56,3.23-14.59,3.23-20.19,0L48.37,55.61c-5.6-3.23-5.63-8.47-.07-11.7L86.87,21.5c5.55-3.23,14.59-3.23,20.18,0Z"/></g><path class="cls-37" d="M65,49.54V48.23h1.2l0,.24L92,33.56a.65.65,0,0,1,.66,0l6.92,4,3.27,1.88,5.55,3.21,3.27,1.89,5.55,3.2,3.27,1.89,4.82,2.78.08-.26,1.24,0v1.34a.65.65,0,0,1-.32.6L99.61,69.56a.65.65,0,0,1-.66,0l-6.47-3.74-3.27-1.88-5.55-3.21-3.27-1.88-5.55-3.21-3.27-1.88-6.26-3.62A.65.65,0,0,1,65,49.54Z"/><path class="cls-38" d="M65.31,47.63a.67.67,0,0,0,0,1.15l6.26,3.61,3.27,1.89,5.55,3.21,3.27,1.88,5.55,3.21,3.27,1.88L99,68.2a.7.7,0,0,0,.66,0l26.73-15.44a.66.66,0,0,0,0-1.14l-5.81-3.35-3.27-1.89-5.55-3.2-3.27-1.89-5.55-3.21L99.62,36.2l-6.92-4a.65.65,0,0,0-.66,0Z"/><path class="cls-37" d="M65,47.52V46.21h1.2l0,.24L92,31.54a.65.65,0,0,1,.66,0l6.92,4,3.27,1.89,5.55,3.2,3.27,1.89,5.55,3.2,3.27,1.89,4.82,2.78.08-.26,1.24,0v1.34a.65.65,0,0,1-.32.6L99.61,67.54a.65.65,0,0,1-.66,0L92.48,63.8l-3.27-1.88-5.55-3.21-3.27-1.88-5.55-3.21-3.27-1.88-6.26-3.62A.65.65,0,0,1,65,47.52Z"/><path class="cls-38" d="M65.31,45.61a.67.67,0,0,0,0,1.15l6.26,3.61,3.27,1.89,5.55,3.21,3.27,1.88,5.55,3.21,3.27,1.88L99,66.18a.7.7,0,0,0,.66,0l26.73-15.44a.66.66,0,0,0,0-1.14l-5.81-3.35-3.27-1.89-5.55-3.2-3.27-1.89-5.55-3.21-3.27-1.88-6.92-4a.65.65,0,0,0-.66,0Z"/><path class="cls-37" d="M65,45.5V44.19h1.2l0,.23L92,29.52a.65.65,0,0,1,.66,0l6.92,4,3.27,1.88,5.55,3.21,3.27,1.89,5.55,3.2,3.27,1.89,4.82,2.78.08-.26,1.24,0v1.34a.63.63,0,0,1-.32.59L99.61,65.52a.7.7,0,0,1-.66,0l-6.47-3.74L89.21,59.9l-5.55-3.21-3.27-1.88L74.84,51.6l-3.27-1.89L65.31,46.1A.65.65,0,0,1,65,45.5Z"/><path class="cls-38" d="M65.31,43.59a.67.67,0,0,0,0,1.15l6.26,3.61,3.27,1.89,5.55,3.2,3.27,1.89,5.55,3.21,3.27,1.88L99,64.16a.7.7,0,0,0,.66,0l26.73-15.44a.66.66,0,0,0,0-1.14l-5.81-3.35-3.27-1.89-5.55-3.21-3.27-1.88L102.89,34l-3.27-1.88-6.92-4a.65.65,0,0,0-.66,0Z"/><path class="cls-37" d="M65,43.41V42.1h1.2l0,.23L92,27.43a.65.65,0,0,1,.66,0l6.92,4,3.27,1.88,5.55,3.21,3.27,1.89,5.55,3.2,3.27,1.89,4.82,2.78.08-.26,1.24,0V47.4a.63.63,0,0,1-.32.59L99.61,63.43a.7.7,0,0,1-.66,0l-6.47-3.74-3.27-1.88L83.66,54.6l-3.27-1.88-5.55-3.21-3.27-1.89L65.31,44A.65.65,0,0,1,65,43.41Z"/><path class="cls-38" d="M65.31,41.5a.67.67,0,0,0,0,1.15l6.26,3.61,3.27,1.89,5.55,3.2,3.27,1.89,5.55,3.21,3.27,1.88L99,62.07a.7.7,0,0,0,.66,0l26.73-15.44a.66.66,0,0,0,0-1.14l-5.81-3.35-3.27-1.89L111.71,37l-3.27-1.88L102.89,32l-3.27-1.88-6.92-4a.65.65,0,0,0-.66,0Z"/><path class="cls-37" d="M65,41.37V40.05h1.2l0,.24L92,25.39a.65.65,0,0,1,.66,0l6.92,4,3.27,1.89,5.55,3.21,3.27,1.88,5.55,3.21,3.27,1.88,4.82,2.79.08-.27,1.24,0v1.34a.64.64,0,0,1-.32.6L99.61,61.38a.65.65,0,0,1-.66,0l-6.47-3.73-3.27-1.89-5.55-3.21-3.27-1.88-5.55-3.21-3.27-1.88L65.31,42A.64.64,0,0,1,65,41.37Z"/><path class="cls-38" d="M65.31,39.46a.66.66,0,0,0,0,1.14l6.26,3.62,3.27,1.88,5.55,3.21,3.27,1.88,5.55,3.21,3.27,1.88L99,60a.65.65,0,0,0,.66,0l26.73-15.43a.67.67,0,0,0,0-1.15l-5.81-3.35-3.27-1.88L111.71,35l-3.27-1.89-5.55-3.2L99.62,28,92.7,24A.7.7,0,0,0,92,24Z"/><path class="cls-37" d="M65,39.23V37.92h1.2l0,.23L92,23.25a.65.65,0,0,1,.66,0l6.92,4,3.27,1.88,5.55,3.21,3.27,1.89,5.55,3.2,3.27,1.89,4.82,2.78.08-.26,1.24,0v1.34a.63.63,0,0,1-.32.59L99.61,59.25a.65.65,0,0,1-.66,0l-6.47-3.74-3.27-1.88-5.55-3.21-3.27-1.88-5.55-3.21-3.27-1.89-6.26-3.61A.65.65,0,0,1,65,39.23Z"/><path class="cls-38" d="M65.31,37.32a.67.67,0,0,0,0,1.15l6.26,3.61L74.84,44l5.55,3.21,3.27,1.88,5.55,3.21,3.27,1.88L99,57.89a.7.7,0,0,0,.66,0l26.73-15.44a.66.66,0,0,0,0-1.14L120.53,38l-3.27-1.89-5.55-3.21L108.44,31l-5.55-3.21-3.27-1.88-6.92-4a.65.65,0,0,0-.66,0Z"/><path class="cls-37" d="M65,37.14V35.83h1.2l0,.23L92,21.16a.65.65,0,0,1,.66,0l6.92,4L102.89,27l5.55,3.21,3.27,1.89,5.55,3.2,3.27,1.89L125.35,40l.08-.26,1.24,0v1.34a.63.63,0,0,1-.32.59L99.61,57.16a.65.65,0,0,1-.66,0l-6.47-3.74-3.27-1.88-5.55-3.21-3.27-1.88-5.55-3.21-3.27-1.88-6.26-3.62A.65.65,0,0,1,65,37.14Z"/><path class="cls-38" d="M65.31,35.23a.67.67,0,0,0,0,1.15L71.57,40l3.27,1.89,5.55,3.21L83.66,47l5.55,3.21,3.27,1.88L99,55.8a.7.7,0,0,0,.66,0l26.73-15.44a.66.66,0,0,0,0-1.14l-5.81-3.35L117.26,34l-5.55-3.21-3.27-1.88-5.55-3.21L99.62,23.8l-6.92-4a.65.65,0,0,0-.66,0Z"/><path class="cls-39" d="M98.93,54.34a.91.91,0,0,1-.42-.11l-30.3-17.5a.82.82,0,0,1-.43-.73.83.83,0,0,1,.43-.73l24.08-13.9a.84.84,0,0,1,.84,0l30.31,17.49a.85.85,0,0,1,0,1.47L99.36,54.23A.92.92,0,0,1,98.93,54.34ZM92.71,21.75a.34.34,0,0,0-.17.05L68.46,35.7a.36.36,0,0,0-.18.3.34.34,0,0,0,.18.3l30.3,17.5a.36.36,0,0,0,.35,0l24.08-13.91a.33.33,0,0,0,.17-.3.32.32,0,0,0-.17-.29L92.88,21.8A.34.34,0,0,0,92.71,21.75Z"/><path class="cls-39" d="M98.65,52.85a.82.82,0,0,1-.4-.1L70.72,36.85a.8.8,0,0,1,0-1.37L92.6,22.85a.8.8,0,0,1,.79,0l27.53,15.9a.78.78,0,0,1,0,1.36L99,52.75A.76.76,0,0,1,98.65,52.85ZM93,23.24a.33.33,0,0,0-.14,0L71,35.92a.27.27,0,0,0-.14.25.28.28,0,0,0,.14.25L98.5,52.31a.3.3,0,0,0,.29,0l21.88-12.63a.28.28,0,0,0,0-.5L93.14,23.28A.42.42,0,0,0,93,23.24Z"/><g class="cls-2"><path class="cls-40" d="M104.13,32.74a.3.3,0,0,1,.12.13c.94,2,1.89,4.05,2.84,6.07,0,.06,0,.12.08.2l-.21,0L96.23,37.45,96,37.33q-1.45-3.09-2.9-6.18L93,31l1.93.3,8.93,1.39A.48.48,0,0,1,104.13,32.74Z"/><path class="cls-40" d="M92.35,31.1a.59.59,0,0,1,.08.16q1.13,2.37,2.23,4.74c.23.48.47,1,.69,1.45l-.07.14c-.19.13-.41.24-.61.35l-7.2,4.19-.2.11-.08-.14L84.3,35.93c0-.09,0-.15.1-.22l7.74-4.5Z"/><path class="cls-40" d="M107,39.54a1.1,1.1,0,0,1-.17.12l-7.76,4.51a.47.47,0,0,1-.36.06L88,42.57l-.18,0L88,42.4l7.08-4.11c.23-.14.44-.28.68-.41l.27,0,10.66,1.66Z"/></g></g></g></svg>