<svg xmlns="http://www.w3.org/2000/svg" xmlns:xlink="http://www.w3.org/1999/xlink" viewBox="0 0 230.34 141.56"><defs><style>.cls-1{fill:none;}.cls-2{isolation:isolate;}.cls-3{clip-path:url(#clip-path);}.cls-4{fill:#133f5d;}.cls-5{fill:#134160;}.cls-6{fill:#144463;}.cls-7{fill:#144666;}.cls-8{fill:#15486a;}.cls-9{fill:#164a6d;}.cls-10{fill:#164c70;}.cls-11{fill:#174e73;}.cls-12{clip-path:url(#clip-path-2);}.cls-13{fill:#113953;}.cls-14{fill:#19547b;}.cls-15{fill:#113a56;}.cls-16{clip-path:url(#clip-path-3);}.cls-17{fill:#123d5a;}.cls-18{fill:#113b56;}.cls-19{fill:#1c5e8a;}.cls-20{fill:#dcdcdc;}.cls-21{clip-path:url(#clip-path-4);}.cls-22{fill:#949494;}.cls-23{fill:#999;}.cls-24{fill:#9e9e9e;}.cls-25{fill:#a3a3a3;}.cls-26{fill:#a8a8a8;}.cls-27{fill:#adadad;}.cls-28{fill:#b3b3b3;}.cls-29{fill:#b8b8b8;}.cls-30{clip-path:url(#clip-path-5);}.cls-31{fill:#858585;}.cls-32{fill:#c5c5c5;}.cls-33{fill:#898989;}.cls-34{clip-path:url(#clip-path-6);}.cls-35{fill:#8f8f8f;}.cls-36{fill:#8a8a8a;}.cls-37{fill:#bc3217;}.cls-38{fill:#d94b25;}.cls-39{fill:#51160a;}.cls-40{fill:#8c2511;}.cls-41{fill:#ff8976;}</style><clipPath id="clip-path"><path class="cls-1" d="M230.34,66.75l0,8.15c0,2.21-1.45,4.41-4.35,6.1l0-8.15C228.88,71.16,230.33,69,230.34,66.75Z"/></clipPath><clipPath id="clip-path-2"><path class="cls-1" d="M0,74.81l0-8.15c0,2.24,1.47,4.48,4.43,6.19l0,8.15C1.47,79.29,0,77.05,0,74.81Z"/></clipPath><clipPath id="clip-path-3"><path class="cls-1" d="M126.15,130.86l0,8.16c-5.83,3.39-15.33,3.39-21.21,0l0-8.15C110.82,134.26,120.31,134.26,126.15,130.86Z"/></clipPath><clipPath id="clip-path-4"><path class="cls-1" d="M184.25,50.69v4.08c0,2.1-1.39,4.2-4.15,5.8V56.5C182.86,54.89,184.25,52.79,184.25,50.69Z"/></clipPath><clipPath id="clip-path-5"><path class="cls-1" d="M78.32,54.69l0-4.08c0,2.13,1.4,4.26,4.21,5.89v4.08C79.72,59,78.32,56.82,78.32,54.69Z"/></clipPath><clipPath id="clip-path-6"><path class="cls-1" d="M141.54,78.9V83c-5.56,3.23-14.59,3.23-20.19,0l0-4.08C127,82.13,136,82.13,141.54,78.9Z"/></clipPath></defs><g id="Layer_2" data-name="Layer 2"><g id="Layer_1-2" data-name="Layer 1"><g class="cls-2"><g class="cls-2"><g class="cls-3"><g class="cls-2"><path class="cls-4" d="M230.34,66.75l0,8.15V75l0-8.15v-.13"/><path class="cls-5" d="M230.34,66.88l0,8.15a4.93,4.93,0,0,1-.1.86l0-8.15a6.12,6.12,0,0,0,.1-.86"/><path class="cls-6" d="M230.24,67.74l0,8.15a4.31,4.31,0,0,1-.24.85l0-8.16a6.18,6.18,0,0,0,.24-.84"/><path class="cls-7" d="M230,68.58l0,8.16a6.51,6.51,0,0,1-.4.85l0-8.15a7.41,7.41,0,0,0,.4-.86"/><path class="cls-8" d="M229.6,69.44l0,8.15a7,7,0,0,1-.6.89l0-8.15a8.28,8.28,0,0,0,.61-.89"/><path class="cls-9" d="M229,70.33l0,8.15a7.88,7.88,0,0,1-.93,1l0-8.15a8.62,8.62,0,0,0,.93-1"/><path class="cls-10" d="M228.06,71.33l0,8.15a11.58,11.58,0,0,1-1.9,1.41l0-8.15a11.48,11.48,0,0,0,1.89-1.41"/><path class="cls-11" d="M226.17,72.74l0,8.15L226,81l0-8.15a1.18,1.18,0,0,1,.19-.11"/></g></g></g><g class="cls-2"><g class="cls-12"><g class="cls-2"><path class="cls-13" d="M4.45,72.85l0,8.15c-3-1.71-4.44-4-4.43-6.19l0-8.15c0,2.24,1.47,4.48,4.43,6.19"/></g></g></g><polygon class="cls-14" points="225.98 72.85 225.96 81 126.12 139.01 126.15 130.86 225.98 72.85"/><polygon class="cls-15" points="104.94 130.86 104.91 139.01 4.43 81 4.45 72.85 104.94 130.86"/><g class="cls-2"><g class="cls-16"><g class="cls-2"><path class="cls-11" d="M126.15,130.86l0,8.16a16.78,16.78,0,0,1-3.28,1.44l0-8.15a16.9,16.9,0,0,0,3.29-1.45"/><path class="cls-10" d="M122.86,132.31l0,8.15a23.11,23.11,0,0,1-2.84.71l0-8.16a21.42,21.42,0,0,0,2.84-.7"/><path class="cls-9" d="M120,133l0,8.16c-.63.11-1.27.2-1.91.26l0-8.15c.65-.06,1.29-.15,1.91-.27"/><path class="cls-8" d="M118.11,133.28l0,8.15c-.55.06-1.11.09-1.66.11l0-8.15c.56,0,1.11,0,1.66-.11"/><path class="cls-7" d="M116.45,133.39l0,8.15c-.51,0-1,0-1.54,0l0-8.15c.52,0,1,0,1.54,0"/><path class="cls-6" d="M114.91,133.4l0,8.15c-.49,0-1,0-1.48-.08l0-8.15c.49,0,1,.07,1.47.08"/><path class="cls-5" d="M113.44,133.32l0,8.15c-.49,0-1-.09-1.45-.16l0-8.15c.48.07,1,.12,1.46.16"/><path class="cls-4" d="M112,133.16l0,8.15c-.51-.07-1-.16-1.49-.26l0-8.15c.49.1,1,.19,1.49.26"/><path class="cls-17" d="M110.49,132.9l0,8.15c-.53-.11-1.06-.24-1.57-.38l0-8.16q.76.23,1.56.39"/><path class="cls-18" d="M108.93,132.51l0,8.16c-.62-.18-1.23-.39-1.82-.62l0-8.15a17.84,17.84,0,0,0,1.83.61"/><path class="cls-13" d="M107.1,131.9l0,8.15a16.7,16.7,0,0,1-2.17-1l0-8.15a16,16,0,0,0,2.16,1"/></g></g></g><path class="cls-19" d="M225.91,60.56c5.88,3.39,5.91,8.89.07,12.29l-99.83,58c-5.84,3.4-15.33,3.4-21.21,0L4.45,72.85c-5.88-3.4-5.91-8.9-.07-12.29l99.83-58c5.84-3.39,15.33-3.39,21.21,0Z"/></g><path class="cls-20" d="M60.07,58.41a4.61,4.61,0,0,1,1.36,1.12,2.58,2.58,0,0,1,.5,1.11,1.58,1.58,0,0,1-.14,1,1.64,1.64,0,0,1-.59.66.51.51,0,0,1-.32.08.72.72,0,0,1-.35-.08l-.63-.37a.41.41,0,0,1-.2-.19c0-.06,0-.15.07-.27a1.66,1.66,0,0,0,.13-.38,1.25,1.25,0,0,0,0-.54,1.78,1.78,0,0,0-.35-.64,3,3,0,0,0-.83-.67,4.46,4.46,0,0,0-.92-.41,5.19,5.19,0,0,0-1-.24,3.65,3.65,0,0,0-1,0,2.4,2.4,0,0,0-.88.29,1.1,1.1,0,0,0-.49.5.8.8,0,0,0,.07.61,3.77,3.77,0,0,0,.59.81c.27.3.63.66,1.05,1.08a6.88,6.88,0,0,1,1,1.15,2,2,0,0,1,.38.93,1.13,1.13,0,0,1-.24.78,2.77,2.77,0,0,1-.84.69,4.68,4.68,0,0,1-1.55.56,7.29,7.29,0,0,1-1.82.09,8.45,8.45,0,0,1-1.93-.38,9.11,9.11,0,0,1-1.93-.84,5.6,5.6,0,0,1-1.38-1.1,2.81,2.81,0,0,1-.62-1.14,1.68,1.68,0,0,1,.07-1,1.56,1.56,0,0,1,.65-.77.86.86,0,0,1,.68,0l.63.37a.41.41,0,0,1,.2.19c0,.07,0,.16-.06.28a1.22,1.22,0,0,0-.19.43,1,1,0,0,0,.05.57,2.11,2.11,0,0,0,.4.67,3.64,3.64,0,0,0,.94.72,6.31,6.31,0,0,0,1.15.52,5.65,5.65,0,0,0,1.2.28,4.23,4.23,0,0,0,1.12,0,2.36,2.36,0,0,0,.94-.29.76.76,0,0,0,.43-.53,1.14,1.14,0,0,0-.19-.71,4.58,4.58,0,0,0-.71-.89c-.32-.34-.69-.7-1.1-1.11a4.34,4.34,0,0,1-.83-1,1.63,1.63,0,0,1-.23-.88,1.27,1.27,0,0,1,.33-.76,3.27,3.27,0,0,1,.81-.64,5.05,5.05,0,0,1,1.33-.5,6.5,6.5,0,0,1,1.62-.16,8.53,8.53,0,0,1,1.81.27A8.32,8.32,0,0,1,60.07,58.41Z"/><path class="cls-20" d="M72.6,65.83a.26.26,0,0,1,.17.24.28.28,0,0,1-.17.24l-.54.31a.79.79,0,0,1-.42.1.78.78,0,0,1-.41-.1L68.36,65l-8.88,5.16a.82.82,0,0,1-.42.1.76.76,0,0,1-.41-.1L58,69.77a.32.32,0,0,1-.17-.24.3.3,0,0,1,.17-.24l8.89-5.16L64,62.47a.26.26,0,0,1-.16-.24A.29.29,0,0,1,64,62l.55-.32a.87.87,0,0,1,.42-.09.75.75,0,0,1,.41.09Z"/><path class="cls-20" d="M100.65,82a.28.28,0,0,1,.17.24.28.28,0,0,1-.17.24l-.54.32a.93.93,0,0,1-.42.09.75.75,0,0,1-.41-.09l-2.87-1.66-8.89,5.16a.78.78,0,0,1-.41.1.82.82,0,0,1-.42-.1L86.07,86a.31.31,0,0,1-.18-.24.3.3,0,0,1,.17-.24L95,80.32l-2.87-1.66a.28.28,0,0,1-.17-.24.3.3,0,0,1,.17-.24l.55-.31a.73.73,0,0,1,.41-.1.76.76,0,0,1,.41.1Z"/><path class="cls-20" d="M83.35,83.75c-.06.08-.1.14-.15.16a.54.54,0,0,1-.34.08.61.61,0,0,1-.34-.07L82,83.59c-.2-.12-.3-.23-.29-.33a.4.4,0,0,1,.07-.24L83,81.38l-5.32-3.07L74.82,79a1.66,1.66,0,0,1-.42,0,1,1,0,0,1-.56-.17l-.57-.33c-.1,0-.14-.11-.13-.19a.21.21,0,0,1,.13-.2,1,1,0,0,1,.28-.09l13.37-3.42a4.18,4.18,0,0,1,.56-.06,1.25,1.25,0,0,1,.63.17l.92.54q.31.17.3.36a.59.59,0,0,1-.11.32Zm-3.8-5.93,4.25,2.45,3.33-4.38-7.58,1.93"/><path class="cls-20" d="M72.46,77.52l-.12.12a.61.61,0,0,1-.34.08.59.59,0,0,1-.34-.08L71,77.26c-.21-.12-.3-.23-.3-.35a.65.65,0,0,1,0-.27l1.67-3.54-2.64-1.53-3.89,2.26a.79.79,0,0,1-.42.1.76.76,0,0,1-.41-.1l-.63-.36a.31.31,0,0,1-.17-.24.3.3,0,0,1,.17-.24l9.85-5.72a.83.83,0,0,1,.41-.1.86.86,0,0,1,.41.1l3.71,2.14a5.49,5.49,0,0,1,1.24.93,2.23,2.23,0,0,1,.61,1,1.41,1.41,0,0,1-.16,1,3,3,0,0,1-1.14,1,5.74,5.74,0,0,1-2.59.79,7.76,7.76,0,0,1-2.63-.32Zm1.28-5.25a5.31,5.31,0,0,0,2.15.74,3.26,3.26,0,0,0,2-.47c.65-.38.91-.76.77-1.15a2.66,2.66,0,0,0-1.3-1.22l-2.6-1.5-3.62,2.11,2.59,1.49"/><path class="cls-20" d="M129.55,98.71a.22.22,0,0,1,.14.19c0,.08,0,.14-.14.2a.85.85,0,0,1-.29.07l-9.81,1.46-3.56,2.07a.79.79,0,0,1-.42.1.76.76,0,0,1-.41-.1l-.63-.36a.32.32,0,0,1-.17-.24c0-.1.06-.17.17-.24L118,99.79l2.49-5.69a.34.34,0,0,1,.13-.17.68.68,0,0,1,.34-.08.67.67,0,0,1,.33.08l.66.38c.21.12.31.23.31.32a.53.53,0,0,1,0,.28l-2,4.44,7.68-1.18a3.48,3.48,0,0,1,.47,0,1.25,1.25,0,0,1,.56.18Z"/><path class="cls-20" d="M115.85,90.62a4.92,4.92,0,0,1,1.53,1.24,2.7,2.7,0,0,1,.56,1.2,1.51,1.51,0,0,1-.16,1,1.79,1.79,0,0,1-.63.7.59.59,0,0,1-.34.09.71.71,0,0,1-.34-.09l-.62-.36c-.25-.14-.35-.26-.29-.35a2.25,2.25,0,0,0,.27-.65,1.26,1.26,0,0,0,0-.64,1.73,1.73,0,0,0-.41-.66,3.73,3.73,0,0,0-.93-.69,5.69,5.69,0,0,0-1.34-.57,5.39,5.39,0,0,0-1.43-.22,5.54,5.54,0,0,0-1.5.15,6.2,6.2,0,0,0-1.47.57l-1.3.72c-.38.22-.79.48-1.23.75a3.62,3.62,0,0,0-1,.89,1.29,1.29,0,0,0,.08,1.72,3.74,3.74,0,0,0,1,.77,6.35,6.35,0,0,0,1.3.58A6.2,6.2,0,0,0,109,97a5.18,5.18,0,0,0,1.5-.16,6,6,0,0,0,1.57-.65l.43-.25-2.21-1.28a.26.26,0,0,1-.17-.24c0-.09,0-.17.17-.24l.54-.31a.78.78,0,0,1,.41-.1.79.79,0,0,1,.42.1l3.25,1.87a.3.3,0,0,1,.17.24.28.28,0,0,1-.17.24l-1.45.84a7.23,7.23,0,0,1-2,.81,8.23,8.23,0,0,1-2.17.28A8.86,8.86,0,0,1,104.88,97a5,5,0,0,1-1.59-1.3,2.06,2.06,0,0,1-.47-1.3,2.24,2.24,0,0,1,.52-1.24A5.32,5.32,0,0,1,104.68,92c.86-.54,1.76-1.06,2.69-1.56a8.78,8.78,0,0,1,1.88-.75,8.61,8.61,0,0,1,2.12-.29,8.76,8.76,0,0,1,2.25.27A9.16,9.16,0,0,1,115.85,90.62Z"/><path class="cls-20" d="M109.22,87c.11.06.18.14.17.24a.29.29,0,0,1-.16.24l-.55.32a.87.87,0,0,1-.42.09.75.75,0,0,1-.41-.09l-5-2.91-3.21,1.87,4.69,2.71c.11.07.17.14.17.24s0,.17-.17.24l-.54.32a.9.9,0,0,1-.42.1.86.86,0,0,1-.41-.1l-4.69-2.71-3.35,1.94,5.16,3a.3.3,0,0,1,.17.24.28.28,0,0,1-.17.24l-.55.32a.89.89,0,0,1-.82,0l-6.2-3.58a.26.26,0,0,1,0-.48l9.85-5.72a.87.87,0,0,1,.42-.09.7.7,0,0,1,.4.09Z"/><path class="cls-20" d="M51.48,74.82a.31.31,0,0,1,.17.23.28.28,0,0,1-.17.25l-.55.32a.86.86,0,0,1-.41.09.9.9,0,0,1-.42-.09l-5-2.91-3.21,1.87,4.69,2.71a.28.28,0,0,1,.17.24.34.34,0,0,1-.16.24l-.56.32a.89.89,0,0,1-.82,0l-4.7-2.71-3.33,1.94,5.15,3a.25.25,0,0,1,0,.48l-.54.32a1.08,1.08,0,0,1-.42.1.89.89,0,0,1-.41-.1l-6.2-3.58a.29.29,0,0,1-.17-.24.28.28,0,0,1,.17-.24l9.84-5.72a.82.82,0,0,1,.42-.1.86.86,0,0,1,.41.1Z"/><path class="cls-20" d="M39,67.41a4.41,4.41,0,0,1,1.35,1.12,2.59,2.59,0,0,1,.51,1.12,1.51,1.51,0,0,1-.14.95,1.59,1.59,0,0,1-.59.66.47.47,0,0,1-.32.09.63.63,0,0,1-.35-.09l-.63-.36a.41.41,0,0,1-.2-.19c0-.06,0-.15.06-.28a2.08,2.08,0,0,0,.14-.37,1.25,1.25,0,0,0,0-.54,2,2,0,0,0-.35-.64,3,3,0,0,0-.83-.67,5.61,5.61,0,0,0-.93-.42,4.75,4.75,0,0,0-1-.23,3.64,3.64,0,0,0-1,0,2.34,2.34,0,0,0-.88.29,1.1,1.1,0,0,0-.49.5.76.76,0,0,0,.07.61,3.54,3.54,0,0,0,.59.81c.27.3.62.66,1,1.08A7,7,0,0,1,36,72a2.12,2.12,0,0,1,.38.92,1.2,1.2,0,0,1-.23.79,3,3,0,0,1-.85.69,4.92,4.92,0,0,1-1.55.56,7.29,7.29,0,0,1-1.82.09A9.11,9.11,0,0,1,30,74.68a9.87,9.87,0,0,1-1.92-.85,5,5,0,0,1-1.38-1.09,2.75,2.75,0,0,1-.62-1.14,1.59,1.59,0,0,1,.72-1.79.71.71,0,0,1,.34-.08.74.74,0,0,1,.34.08l.62.36a.57.57,0,0,1,.21.19c0,.08,0,.17-.06.28a1.18,1.18,0,0,0-.19.44,1,1,0,0,0,.05.57,1.94,1.94,0,0,0,.4.67,4.15,4.15,0,0,0,.94.72,7,7,0,0,0,1.14.52,6.7,6.7,0,0,0,1.2.28,4.32,4.32,0,0,0,1.13,0,2.42,2.42,0,0,0,.94-.29.78.78,0,0,0,.43-.54,1.14,1.14,0,0,0-.2-.7,4.79,4.79,0,0,0-.7-.89c-.32-.33-.69-.71-1.11-1.11a4.53,4.53,0,0,1-.82-1,1.56,1.56,0,0,1-.23-.89,1.2,1.2,0,0,1,.32-.74,3.13,3.13,0,0,1,.82-.65,4.44,4.44,0,0,1,1.33-.5,6.5,6.5,0,0,1,1.62-.16,8.35,8.35,0,0,1,1.8.27A8,8,0,0,1,39,67.41Z"/><path class="cls-20" d="M75.81,88.69A4.78,4.78,0,0,1,77.41,90a2.14,2.14,0,0,1,.44,1.27,2,2,0,0,1-.35,1.09,2.86,2.86,0,0,1-.84.79.74.74,0,0,1-.34.08.67.67,0,0,1-.33-.08l-.71-.41a.33.33,0,0,1-.16-.19c0-.08,0-.15.1-.23a3.48,3.48,0,0,0,.49-.6,1,1,0,0,0,.14-.67,1.42,1.42,0,0,0-.36-.76,3.9,3.9,0,0,0-1-.83,5.52,5.52,0,0,0-2.88-.75,6.31,6.31,0,0,0-2.83.74c-.48.26-.92.5-1.31.73s-.81.49-1.25.76c-.81.51-1.24,1.06-1.27,1.64s.39,1.14,1.31,1.67a6.14,6.14,0,0,0,1.42.61,6.49,6.49,0,0,0,1.3.21A5.6,5.6,0,0,0,70.11,95a8.81,8.81,0,0,0,1-.29.79.79,0,0,1,.4,0,.81.81,0,0,1,.34.09l.7.4a.27.27,0,0,1,.14.2.23.23,0,0,1-.14.19,5.35,5.35,0,0,1-1.35.49,8.43,8.43,0,0,1-1.88.22,10.21,10.21,0,0,1-2.2-.26,8.08,8.08,0,0,1-2.3-.92,4.79,4.79,0,0,1-1.47-1.21,2.13,2.13,0,0,1-.48-1.28,2,2,0,0,1,.43-1.26,4.64,4.64,0,0,1,1.32-1.15c.87-.54,1.77-1.07,2.71-1.58a8.56,8.56,0,0,1,2-.76,8.39,8.39,0,0,1,2.18-.26,9.28,9.28,0,0,1,2.21.27A8.35,8.35,0,0,1,75.81,88.69Z"/><path class="cls-20" d="M69.24,85.07a.28.28,0,0,1,.17.24.26.26,0,0,1-.17.24l-.55.32a.73.73,0,0,1-.41.1.82.82,0,0,1-.42-.1l-5-2.9-3.21,1.86,4.7,2.71a.29.29,0,0,1,.16.25.26.26,0,0,1-.16.23l-.55.32a.79.79,0,0,1-.42.1.76.76,0,0,1-.41-.1l-4.69-2.71-3.34,1.94,5.15,3a.27.27,0,0,1,.18.24.3.3,0,0,1-.17.24l-.55.31a.76.76,0,0,1-.41.1.79.79,0,0,1-.42-.1L52.5,87.77a.28.28,0,0,1-.17-.24.26.26,0,0,1,.17-.24l9.84-5.72a.78.78,0,0,1,.41-.1.82.82,0,0,1,.42.1Z"/><path class="cls-20" d="M55.11,76.92a.25.25,0,0,1,0,.47l-8.88,5.17,5.2,3a.3.3,0,0,1,.17.24.27.27,0,0,1-.17.24l-.54.32a.82.82,0,0,1-.42.1.86.86,0,0,1-.41-.1l-6.24-3.61a.27.27,0,0,1-.18-.24.3.3,0,0,1,.17-.24l9.85-5.72a.86.86,0,0,1,.41-.1,1.08,1.08,0,0,1,.42.1Z"/><g class="cls-2"><path class="cls-20" d="M88.61,96.25a.31.31,0,0,1,.16.24.27.27,0,0,1-.16.24l-.55.32a.77.77,0,0,1-.42.09.75.75,0,0,1-.41-.09l-2.87-1.66-8.88,5.16a.79.79,0,0,1-.42.1.76.76,0,0,1-.41-.1l-.63-.36a.28.28,0,0,1-.17-.24.3.3,0,0,1,.17-.24l8.88-5.16L80,92.9a.29.29,0,0,1-.16-.24.26.26,0,0,1,.16-.24l.55-.32A.79.79,0,0,1,81,92a.8.8,0,0,1,.41.1Z"/><path class="cls-20" d="M91.73,98.06a.26.26,0,0,1,0,.48l-9.85,5.72a.77.77,0,0,1-.42.1.86.86,0,0,1-.41-.1l-.63-.37c-.11-.06-.17-.14-.16-.23a.26.26,0,0,1,.16-.24l9.84-5.73a.93.93,0,0,1,.42-.09.86.86,0,0,1,.41.09Z"/><path class="cls-20" d="M98.88,106.79c-.88.55-1.78,1.07-2.72,1.58a8.9,8.9,0,0,1-4.06,1,8.13,8.13,0,0,1-2.19-.24,8,8,0,0,1-2.11-.84,4.83,4.83,0,0,1-1.47-1.22,2.05,2.05,0,0,1-.43-1.28,2.11,2.11,0,0,1,.5-1.23,5,5,0,0,1,1.29-1.12c.88-.54,1.78-1.07,2.72-1.58a8,8,0,0,1,1.9-.76,9,9,0,0,1,2.14-.29,9.84,9.84,0,0,1,2.2.25,7.78,7.78,0,0,1,2.13.85,4.29,4.29,0,0,1,1.46,1.23,2.09,2.09,0,0,1,.43,1.27,2.14,2.14,0,0,1-.49,1.24A4.66,4.66,0,0,1,98.88,106.79Zm-4.1.69c.48-.25.91-.49,1.31-.73s.82-.48,1.26-.75a3.89,3.89,0,0,0,1-.87,1.22,1.22,0,0,0,.31-.84,1.36,1.36,0,0,0-.33-.81,3.65,3.65,0,0,0-.93-.74,5.68,5.68,0,0,0-1.27-.53,5.84,5.84,0,0,0-1.4-.19,5.75,5.75,0,0,0-1.46.17,6.22,6.22,0,0,0-1.48.6c-.48.25-.92.5-1.31.72s-.82.49-1.25.77a3.38,3.38,0,0,0-1,.86,1.3,1.3,0,0,0-.31.85,1.39,1.39,0,0,0,.35.8,3.27,3.27,0,0,0,.92.74,5.57,5.57,0,0,0,1.28.53,5.75,5.75,0,0,0,1.38.2,5.68,5.68,0,0,0,1.46-.19,6.16,6.16,0,0,0,1.49-.59"/></g><path class="cls-20" d="M112.69,110.16a.29.29,0,0,1,.17.24.3.3,0,0,1-.17.24l-9.84,5.72a.9.9,0,0,1-.42.1.86.86,0,0,1-.41-.1l-.54-.31a.35.35,0,0,1-.21-.29.63.63,0,0,1,.06-.33l2.46-7.21-7.49,4.36a.9.9,0,0,1-.42.09.86.86,0,0,1-.41-.09l-.63-.37a.28.28,0,0,1-.17-.24.3.3,0,0,1,.17-.24l9.84-5.72a.9.9,0,0,1,.42-.1,1,1,0,0,1,.41.1l.54.31a.35.35,0,0,1,.21.29.88.88,0,0,1-.06.33l-2.46,7.21,7.5-4.35a.73.73,0,0,1,.41-.1.76.76,0,0,1,.41.1Z"/><g class="cls-2"><g class="cls-2"><g class="cls-21"><g class="cls-2"><path class="cls-22" d="M184.25,50.69v0"/><path class="cls-23" d="M184.25,50.82v4.07a4.59,4.59,0,0,1-.1.82l0-4.08a5.58,5.58,0,0,0,.09-.81"/><path class="cls-24" d="M184.16,51.63l0,4.08a4.55,4.55,0,0,1-.23.8V52.44a6.21,6.21,0,0,0,.24-.81"/><path class="cls-25" d="M183.92,52.44v4.07a5,5,0,0,1-.38.81V53.25a4.92,4.92,0,0,0,.38-.81"/><path class="cls-26" d="M183.54,53.25v4.07a6.4,6.4,0,0,1-.57.86V54.1a6.31,6.31,0,0,0,.57-.85"/><path class="cls-27" d="M183,54.1v4.08a8.67,8.67,0,0,1-.89,1l0-4.08a7.8,7.8,0,0,0,.88-.95"/><path class="cls-28" d="M182.09,55.05l0,4.08a11.38,11.38,0,0,1-1.8,1.34V56.39a10.76,10.76,0,0,0,1.81-1.34"/><path class="cls-29" d="M180.28,56.39v4.08l-.18.1V56.5l.18-.11"/></g></g></g><g class="cls-2"><g class="cls-30"><g class="cls-2"><path class="cls-31" d="M82.55,56.5v4.08c-2.82-1.63-4.22-3.76-4.22-5.89l0-4.08c0,2.13,1.4,4.26,4.21,5.89"/></g></g></g><polygon class="cls-32" points="180.1 56.5 180.09 60.57 141.53 82.98 141.54 78.9 180.1 56.5"/><polygon class="cls-33" points="121.36 78.9 121.34 82.98 82.54 60.58 82.55 56.5 121.36 78.9"/><g class="cls-2"><g class="cls-34"><g class="cls-2"><path class="cls-29" d="M141.54,78.9V83a16.76,16.76,0,0,1-3.13,1.38V80.28a15.3,15.3,0,0,0,3.13-1.38"/><path class="cls-28" d="M138.41,80.28v4.08a20.89,20.89,0,0,1-2.7.67V81a20.89,20.89,0,0,0,2.7-.67"/><path class="cls-27" d="M135.71,81V85c-.6.11-1.21.19-1.82.25V81.21c.62-.06,1.22-.15,1.82-.26"/><path class="cls-26" d="M133.89,81.21v4.07c-.52,0-1,.09-1.58.11V81.31c.53,0,1.06,0,1.58-.1"/><path class="cls-25" d="M132.31,81.31v4.08c-.49,0-1,0-1.46,0V81.32c.48,0,1,0,1.46,0"/><path class="cls-24" d="M130.85,81.32v4.07c-.47,0-.94,0-1.41-.07V81.24c.47,0,.94.07,1.41.08"/><path class="cls-23" d="M129.44,81.24v4.08c-.47,0-.93-.09-1.39-.16V81.09c.46.06.93.11,1.39.15"/><path class="cls-22" d="M128.05,81.09v4.07c-.48-.06-.95-.15-1.41-.24V80.84c.46.1.94.18,1.41.25"/><path class="cls-35" d="M126.64,80.84v4.08c-.51-.11-1-.23-1.49-.37V80.48c.49.14,1,.26,1.49.36"/><path class="cls-36" d="M125.15,80.48v4.07c-.6-.17-1.18-.36-1.74-.58l0-4.08a17.56,17.56,0,0,0,1.73.59"/><path class="cls-31" d="M123.42,79.89l0,4.08a17,17,0,0,1-2.06-1l0-4.08a13.51,13.51,0,0,0,2.06,1"/></g></g></g><path class="cls-20" d="M180,44.8c5.59,3.23,5.62,8.47.06,11.7L141.54,78.9c-5.55,3.23-14.59,3.23-20.18,0L82.55,56.5C77,53.27,76.93,48,82.48,44.81L121,22.4c5.56-3.23,14.6-3.23,20.19,0Z"/></g><path class="cls-37" d="M171.05,48.31V46.65h-1.52l-.05.29L136.81,28.08a.82.82,0,0,0-.83,0l-8.77,5.06-4.13,2.39-7,4.06L111.92,42l-7,4.06-4.13,2.38-6.1,3.53-.11-.33-1.56,0v1.7a.82.82,0,0,0,.42.75l33.82,19.53a.84.84,0,0,0,.84,0l8.18-4.72,4.14-2.39,7-4.06,4.13-2.38,7-4.06,4.14-2.38,7.93-4.58A.82.82,0,0,0,171.05,48.31Z"/><path class="cls-38" d="M170.64,45.89a.83.83,0,0,1,0,1.44l-7.93,4.58-4.14,2.39-7,4.06-4.13,2.38-7,4.06-4.14,2.38-8.18,4.73a.84.84,0,0,1-.84,0L93.41,52.38a.84.84,0,0,1,0-1.45l7.35-4.24,4.13-2.38,7-4.06,4.13-2.39,7-4.06,4.13-2.38L136,26.36a.82.82,0,0,1,.83,0Z"/><polygon class="cls-39" points="139.38 50.71 139.38 50.7 139.38 50.71 139.38 50.71"/><g class="cls-2"><path class="cls-40" d="M141.72,47.55l0,3.5a2.47,2.47,0,0,1-1.93-.51l-.15-.08c1.11-1.27.68-2.77-1-3.76a8.83,8.83,0,0,0-6.51-.58l-2-1.16c-.61-.36-1.22-.7-1.82-1.06a1.26,1.26,0,0,0-.65-.18,1.17,1.17,0,0,0-.63.18l-.66.38c-.38.22-.77.44-1.12.68a1.23,1.23,0,0,1-.69.21L124.43,41l6.2,0-.06-.47a.86.86,0,0,1,0-.28c.05-.87,1.14-1.49,2.6-1.48a3.7,3.7,0,0,1,1.72.42,1.36,1.36,0,0,1,.78,1.12c0,.09,0,.18,0,.29l0,.48,6.1,0,0,3.46.94,0c.29,0,.58,0,.86,0A3.39,3.39,0,0,1,145,45a1.75,1.75,0,0,1,.54.45,1,1,0,0,1-.21,1.43,3.19,3.19,0,0,1-2,.65h-1.54Z"/><path class="cls-40" d="M142.72,48.12l0,3.45-.45,0c-1.79.12-2,.09-3.17-.62l.25-.26-.34.21-.14-.07a.39.39,0,0,1-.11-.68c.89-1,.54-2.25-.86-3.06a7.14,7.14,0,0,0-5.31-.48,1.46,1.46,0,0,1-1.2-.1l-2-1.16-1.75-1-.62.35c-.37.21-.73.41-1,.63a3,3,0,0,1-2,.4l-.41,0-.17-5.23,6.14,0V40.3c.06-1.19,1.61-2.06,3.62-2a5,5,0,0,1,2.41.59,1.84,1.84,0,0,1,1.07,1.53v.18l6.13,0,0,3.48a9.12,9.12,0,0,1,.92,0,4.8,4.8,0,0,1,2,.57,2.42,2.42,0,0,1,.74.62,1.35,1.35,0,0,1-.29,2,4.45,4.45,0,0,1-2.81.89Zm-2.91,2.42a2.47,2.47,0,0,0,1.93.51l0-3.5h1.54a3.19,3.19,0,0,0,2-.65,1,1,0,0,0,.21-1.43A1.75,1.75,0,0,0,145,45a3.39,3.39,0,0,0-1.43-.41c-.28,0-.57,0-.86,0l-.94,0,0-3.46-6.1,0,0-.48c0-.11,0-.2,0-.29a1.36,1.36,0,0,0-.78-1.12,3.7,3.7,0,0,0-1.72-.42c-1.46,0-2.55.61-2.6,1.48a.86.86,0,0,0,0,.28l.06.47-6.2,0,.13,4.13a1.23,1.23,0,0,0,.69-.21c.35-.24.74-.46,1.12-.68l.66-.38a1.17,1.17,0,0,1,.63-.18,1.26,1.26,0,0,1,.65.18c.6.36,1.21.7,1.82,1.06l2,1.15a8.88,8.88,0,0,1,6.51.59c1.7,1,2.13,2.49,1,3.73l.13.11"/><path class="cls-40" d="M136.52,47.93c1,.58,1,1.5,0,2.09l-.94.55,4.3,2.49-4.24,2.46.59.35.24.13.23.14c1,.62,1,1.5-.06,2.08a3.9,3.9,0,0,1-3.58,0l-.44-.25L132,57.6l-4.25,2.47L124.2,58a2.28,2.28,0,0,0,1.23-1.32,1.7,1.7,0,0,0-.94-1.76l-.08,0a5.87,5.87,0,0,0-5.25.2L115.61,53,119.16,51l.21.13.23.13a5.62,5.62,0,0,0,4.34.18A2.25,2.25,0,0,0,125.5,50a1.65,1.65,0,0,0-1-1.64l-.38-.23L127.71,46,132,48.47l.56-.33.39-.22A4,4,0,0,1,136.52,47.93Z"/><path class="cls-40" d="M137.42,55.75c1.36.85,1.32,2.09-.1,2.89a5.51,5.51,0,0,1-5,0l-.32-.19-4.25,2.47-5-2.9.39-.2c.71-.37,1.2-.71,1.29-1.17a1.22,1.22,0,0,0-.68-1.29,3.7,3.7,0,0,0-1.62-.38,3.86,3.86,0,0,0-2.57.75l-.36.23-5-2.89,5-2.88.62.36.33.2.17.09a4.1,4.1,0,0,0,3.1.14c.65-.26,1-.64,1.13-1.07a1.19,1.19,0,0,0-.71-1.18l-.23-.15-.24-.13-.58-.34,5-2.88L132,47.65l.27-.15a5.58,5.58,0,0,1,5,0c1.39.82,1.39,2.09,0,2.92l-.25.14,4.3,2.49-4.23,2.46Zm-4.37,2.44a3.9,3.9,0,0,0,3.58,0c1-.58,1.05-1.46.06-2.08l-.23-.14-.24-.13-.59-.35,4.24-2.46-4.3-2.49.94-.55c1-.59,1-1.51,0-2.09a4,4,0,0,0-3.61,0l-.39.22-.56.33L127.71,46l-3.56,2.07.38.23a1.65,1.65,0,0,1,1,1.64,2.25,2.25,0,0,1-1.56,1.47,5.62,5.62,0,0,1-4.34-.18l-.23-.13-.21-.13L115.61,53l3.55,2.05a5.87,5.87,0,0,1,5.25-.2l.08,0a1.7,1.7,0,0,1,.94,1.76A2.28,2.28,0,0,1,124.2,58l3.57,2.06L132,57.6l.59.34.44.25"/></g><path class="cls-41" d="M128,70.3a1,1,0,0,1-.51-.14L96.61,52.32a1,1,0,0,1,0-1.76l38.9-22.45a1,1,0,0,1,1,0L167.43,46a1,1,0,0,1,.51.88,1,1,0,0,1-.51.88l-38.9,22.45A1,1,0,0,1,128,70.3Zm8-41.83a.48.48,0,0,0-.26.07L96.86,51a.51.51,0,0,0,0,.88l30.91,17.85a.52.52,0,0,0,.51,0l38.9-22.46a.51.51,0,0,0,.26-.44.5.5,0,0,0-.26-.44L136.27,28.54A.47.47,0,0,0,136,28.47Z"/><path class="cls-41" d="M128.33,68.7a.88.88,0,0,1-.47-.13L99.31,52.09a.95.95,0,0,1,0-1.65L135.23,29.7a1,1,0,0,1,1,0l28.55,16.48a.94.94,0,0,1,.48.83,1,1,0,0,1-.48.82L128.81,68.57A.91.91,0,0,1,128.33,68.7Zm7.38-38.63a.46.46,0,0,0-.23.06L99.56,50.87a.43.43,0,0,0-.23.39.45.45,0,0,0,.23.4l28.55,16.48a.45.45,0,0,0,.45,0L164.49,47.4a.45.45,0,0,0,0-.79L135.94,30.13A.46.46,0,0,0,135.71,30.07Z"/><path class="cls-37" d="M171.05,45.89V44.23h-1.52l-.05.29L136.81,25.67a.82.82,0,0,0-.83,0l-8.77,5.06-4.13,2.38-7,4.06-4.13,2.38-7,4.06L100.76,46l-6.1,3.52-.11-.33-1.56,0v1.7a.84.84,0,0,0,.42.76l33.82,19.53a.84.84,0,0,0,.84,0l8.18-4.73,4.14-2.38,7-4.06,4.13-2.39,7-4.06,4.14-2.38,7.93-4.58A.82.82,0,0,0,171.05,45.89Z"/><path class="cls-38" d="M170.64,43.47a.84.84,0,0,1,0,1.45l-7.93,4.58-4.14,2.38-7,4.06-4.13,2.38-7,4.06-4.14,2.39-8.18,4.72a.84.84,0,0,1-.84,0L93.41,50a.83.83,0,0,1,0-1.44l7.35-4.25,4.13-2.38,7-4.06,4.13-2.38,7-4.06L127.21,29,136,23.94a.82.82,0,0,1,.83,0Z"/><g class="cls-2"><path class="cls-40" d="M142.72,45.7l0,3.45-.45,0c-1.8.11-1.94.08-3.16-.63l.24-.26-.33.21-.16-.08c-.3-.17-.34-.4-.1-.67.89-1,.55-2.25-.86-3.06a7.21,7.21,0,0,0-5.32-.48,1.39,1.39,0,0,1-1.12-.06l-.07,0-2-1.15-1.76-1-.62.35a10,10,0,0,0-1,.62,3,3,0,0,1-2,.4l-.41,0L123.42,38l6.12,0v-.18c.06-1.18,1.61-2.06,3.62-2a5,5,0,0,1,2.4.58A1.86,1.86,0,0,1,136.64,38v.18l6.13,0,0,3.48c.31,0,.62,0,.91,0a4.85,4.85,0,0,1,2,.57,2.71,2.71,0,0,1,.74.63,1.34,1.34,0,0,1-.3,2,4.53,4.53,0,0,1-2.81.9ZM140,48.25a2.28,2.28,0,0,0,1.72.38l0-3.49h1.55a3.13,3.13,0,0,0,2-.65A1,1,0,0,0,145.5,43a1.83,1.83,0,0,0-.53-.45,3.58,3.58,0,0,0-1.44-.41l-.86,0-.93,0,0-3.45-6.09,0,0-.45c0-.12,0-.22,0-.32a1.36,1.36,0,0,0-.79-1.12,3.63,3.63,0,0,0-1.71-.42c-1.46,0-2.55.62-2.6,1.49a1.41,1.41,0,0,0,0,.28l.06.46h-6.19l.12,4.12a1.29,1.29,0,0,0,.7-.21c.34-.24.73-.46,1.1-.67l.68-.39a1.23,1.23,0,0,1,.63-.18,1.35,1.35,0,0,1,.63.18l1.84,1.06,2,1.16a8.84,8.84,0,0,1,6.51.58c1.71,1,2.13,2.49,1,3.74l.14.11.21.12"/><path class="cls-40" d="M141.77,38.69l0,3.45.93,0,.86,0a3.58,3.58,0,0,1,1.44.41,1.83,1.83,0,0,1,.53.45,1,1,0,0,1-.21,1.43,3.13,3.13,0,0,1-2,.65h-1.55l0,3.49a2.28,2.28,0,0,1-1.72-.38l-.21-.12-.16-.09c1.11-1.27.69-2.77-1-3.76a8.84,8.84,0,0,0-6.51-.58l-2-1.16-1.84-1.06a1.35,1.35,0,0,0-.63-.18,1.23,1.23,0,0,0-.63.18l-.67.39a12.1,12.1,0,0,0-1.11.67,1.29,1.29,0,0,1-.7.21l-.12-4.12h6.19l-.06-.46a1.41,1.41,0,0,1,0-.28c.05-.87,1.14-1.5,2.6-1.49a3.63,3.63,0,0,1,1.71.42,1.36,1.36,0,0,1,.79,1.12c0,.1,0,.2,0,.32l0,.45Z"/><path class="cls-40" d="M136.52,45.51c1,.58,1,1.5,0,2.1l-.94.55,4.3,2.48-4.25,2.47.6.34.46.27c1,.63,1,1.51-.05,2.08a3.91,3.91,0,0,1-3.57,0l-1-.6-4.25,2.47-3.57-2.06a2.28,2.28,0,0,0,1.23-1.32,1.68,1.68,0,0,0-1-1.75l-.07-.05a6,6,0,0,0-5.25.2l-3.55-2,3.54-2.06.45.25a5.62,5.62,0,0,0,4.34.18c.89-.35,1.44-.87,1.55-1.47a1.65,1.65,0,0,0-1-1.64l-.38-.23,3.56-2.06L132,46.05l.56-.32.39-.23A4,4,0,0,1,136.52,45.51Z"/><path class="cls-40" d="M137.42,53.33c1.36.85,1.32,2.09-.1,2.89a5.43,5.43,0,0,1-5,0L132,56l-4.25,2.48-5-2.9.39-.21c.71-.37,1.2-.71,1.3-1.17a1.23,1.23,0,0,0-.69-1.29,3.81,3.81,0,0,0-1.61-.38,3.93,3.93,0,0,0-2.58.75l-.35.23-5-2.89,5-2.87.6.35.51.29a4.06,4.06,0,0,0,3.1.14c.65-.26,1.06-.64,1.13-1.06s-.17-.85-.71-1.19l-.23-.14-.24-.13-.59-.34,5-2.89L132,45.24l.26-.16a5.58,5.58,0,0,1,5,0c1.39.81,1.39,2.09,0,2.91l-.25.15,4.31,2.48L137,53.11C137.17,53.18,137.3,53.25,137.42,53.33Zm-4.36,2.45a3.91,3.91,0,0,0,3.57,0c1-.57,1.05-1.45.05-2.08l-.46-.27-.6-.34,4.25-2.47-4.3-2.48.94-.55c1-.6,1-1.52,0-2.09a4,4,0,0,0-3.61,0l-.39.23-.56.32-4.26-2.45-3.56,2.06.38.23a1.65,1.65,0,0,1,1,1.64c-.11.6-.66,1.12-1.55,1.47a5.62,5.62,0,0,1-4.34-.18l-.45-.25-3.54,2,3.55,2.05a6,6,0,0,1,5.25-.2l.07.05a1.68,1.68,0,0,1,1,1.75,2.28,2.28,0,0,1-1.23,1.32l3.57,2.06L132,55.18l1,.6"/></g><path class="cls-41" d="M128,67.88a1,1,0,0,1-.51-.13L96.61,49.9a1,1,0,0,1,0-1.75l38.9-22.46a1,1,0,0,1,1,0l30.91,17.84a1,1,0,0,1,.51.88,1,1,0,0,1-.51.88l-38.9,22.46A1,1,0,0,1,128,67.88Zm8-41.82a.58.58,0,0,0-.26.06L96.86,48.58a.5.5,0,0,0-.25.44.52.52,0,0,0,.25.45l30.91,17.84a.52.52,0,0,0,.51,0l38.9-22.45a.52.52,0,0,0,.26-.45.51.51,0,0,0-.26-.44L136.27,26.12A.54.54,0,0,0,136,26.06Z"/><path class="cls-41" d="M128.33,66.28a1,1,0,0,1-.47-.12L99.31,49.67a.95.95,0,0,1,0-1.65l35.92-20.74a1,1,0,0,1,1,0l28.55,16.48a.94.94,0,0,1,.48.83,1,1,0,0,1-.48.83L128.81,66.16A1,1,0,0,1,128.33,66.28Zm7.38-38.63a.46.46,0,0,0-.23.06L99.56,48.45a.45.45,0,0,0-.23.4.43.43,0,0,0,.23.39l28.55,16.48a.41.41,0,0,0,.45,0L164.49,45a.45.45,0,0,0,.23-.39.44.44,0,0,0-.23-.39L135.94,27.71A.46.46,0,0,0,135.71,27.65Z"/><path class="cls-37" d="M171.05,43.32V41.66h-1.52l-.05.3L136.81,23.1a.82.82,0,0,0-.83,0l-8.77,5.06-4.13,2.38-7,4.06L111.92,37l-7,4.06-4.13,2.39L94.66,47l-.11-.33-1.56,0v1.7a.84.84,0,0,0,.42.76l33.82,19.53a.84.84,0,0,0,.84,0l8.18-4.73,4.14-2.38,7-4.06,4.13-2.39,7-4.06,4.14-2.38,7.93-4.58A.81.81,0,0,0,171.05,43.32Z"/><path class="cls-38" d="M170.64,40.9a.84.84,0,0,1,0,1.45l-7.93,4.58-4.14,2.38-7,4.06-4.13,2.38-7,4.06-4.14,2.39-8.18,4.72a.84.84,0,0,1-.84,0L93.41,47.39a.83.83,0,0,1,0-1.44l7.35-4.25,4.13-2.38,7-4.06,4.13-2.38,7-4.06,4.13-2.39L136,21.37a.82.82,0,0,1,.83,0Z"/><path class="cls-40" d="M136.52,42.94c1,.58,1,1.5,0,2.1l-.95.54,4.31,2.49-4.25,2.47.6.34.24.13.22.14c1,.62,1,1.5-.05,2.08a3.93,3.93,0,0,1-3.58,0l-1-.6-4.25,2.47L124.2,53a2.23,2.23,0,0,0,1.22-1.32,1.66,1.66,0,0,0-.94-1.75l-.06,0a5.39,5.39,0,0,0-2.2-.53,5.2,5.2,0,0,0-3.07.72l-3.54-2.05L119.15,46l.22.13.22.13a5.65,5.65,0,0,0,4.35.18A2.24,2.24,0,0,0,125.49,45a1.64,1.64,0,0,0-1-1.64l-.37-.23L127.7,41,132,43.48l.57-.32.38-.23A4,4,0,0,1,136.52,42.94Z"/><path class="cls-40" d="M141.77,36.11l0,3.46h.93c.3,0,.58,0,.86,0A3.48,3.48,0,0,1,145,40a1.83,1.83,0,0,1,.53.45,1,1,0,0,1-.21,1.43,3.22,3.22,0,0,1-2,.65h-.7l-.85,0,0,3.49a2.3,2.3,0,0,1-1.72-.38l-.21-.12-.15-.09c1.1-1.27.68-2.77-1-3.76a8.84,8.84,0,0,0-6.51-.58L130.21,40l-1.91-1.11a1.21,1.21,0,0,0-1.27,0l-.67.39c-.37.21-.76.43-1.11.67a1.28,1.28,0,0,1-.69.21l-.13-4.12h6.2l-.07-.46a1.37,1.37,0,0,1,0-.28c0-.87,1.13-1.5,2.6-1.49a3.63,3.63,0,0,1,1.71.42,1.32,1.32,0,0,1,.78,1.12,2.66,2.66,0,0,1,0,.3l0,.47Z"/><path class="cls-40" d="M142.72,43.13l0,3.45-.45,0c-1.8.11-2,.08-3.17-.63l.25-.26-.33.21-.15-.08a.38.38,0,0,1-.12-.67c.89-1,.55-2.25-.85-3.06a7.21,7.21,0,0,0-5.32-.48,1.44,1.44,0,0,1-1.19-.1L130,40.71l-.58-.33c-.59-.34-1.17-.67-1.75-1l-.62.35c-.37.21-.72.41-1,.63a3,3,0,0,1-2,.4l-.42,0-.15-5.23,6.12,0v-.18c.06-1.19,1.61-2.06,3.61-2a4.85,4.85,0,0,1,2.41.58,1.86,1.86,0,0,1,1.08,1.53v.19l6.14,0L142.73,39c.31,0,.63,0,.92,0a4.7,4.7,0,0,1,2,.57,2.42,2.42,0,0,1,.74.63,1.35,1.35,0,0,1-.29,2,4.53,4.53,0,0,1-2.81.9ZM140,45.68a2.3,2.3,0,0,0,1.72.38l0-3.49.85,0h.7a3.22,3.22,0,0,0,2-.65,1,1,0,0,0,.21-1.43A1.83,1.83,0,0,0,145,40a3.48,3.48,0,0,0-1.45-.41c-.28,0-.56,0-.86,0h-.93l0-3.46-6.1,0,0-.47a2.66,2.66,0,0,0,0-.3,1.32,1.32,0,0,0-.78-1.12,3.63,3.63,0,0,0-1.71-.42c-1.47,0-2.56.62-2.6,1.49a1.37,1.37,0,0,0,0,.28l.07.46h-6.2l.13,4.12a1.28,1.28,0,0,0,.69-.21c.35-.24.74-.46,1.11-.67l.67-.39a1.21,1.21,0,0,1,1.27,0L130.21,40l1.91,1.11a8.86,8.86,0,0,1,6.52.58c1.7,1,2.12,2.49,1,3.73l.13.12.21.12"/><path class="cls-40" d="M137.42,50.76c1.35.85,1.32,2.09-.1,2.89a5.48,5.48,0,0,1-5,0l-.32-.19-4.25,2.47-5-2.9.39-.2c.71-.37,1.2-.71,1.29-1.17a1.22,1.22,0,0,0-.68-1.29,3.67,3.67,0,0,0-1.62-.38,3.92,3.92,0,0,0-2.57.75l-.36.23-5-2.89,5-2.87.61.35.34.2.17.09a4.1,4.1,0,0,0,3.1.14,1.66,1.66,0,0,0,1.13-1.07,1.19,1.19,0,0,0-.71-1.18l-.23-.14-.24-.14-.59-.34,5-2.88L132,42.67l.27-.16a5.58,5.58,0,0,1,5,0c1.39.81,1.39,2.09,0,2.91l-.24.14,4.3,2.49L137,50.54l.26.14Zm-4.37,2.45a3.93,3.93,0,0,0,3.58,0c1-.58,1.05-1.46.05-2.08l-.22-.14-.24-.13-.6-.34,4.25-2.47-4.31-2.49.95-.54c1-.6,1-1.52,0-2.09a4,4,0,0,0-3.62,0l-.38.23-.57.32L127.7,41l-3.55,2.07.37.23a1.64,1.64,0,0,1,1,1.64,2.24,2.24,0,0,1-1.55,1.47,5.65,5.65,0,0,1-4.35-.18l-.22-.13-.22-.13-3.54,2.06,3.54,2.05a5.2,5.2,0,0,1,3.07-.72,5.39,5.39,0,0,1,2.2.53l.06,0a1.66,1.66,0,0,1,.94,1.75A2.23,2.23,0,0,1,124.2,53l3.56,2.06L132,52.61l1,.6"/><path class="cls-41" d="M128,65.31a1,1,0,0,1-.51-.13L96.61,47.33a1,1,0,0,1,0-1.75l38.9-22.46a1,1,0,0,1,1,0L167.43,41a1,1,0,0,1,0,1.75l-38.9,22.46A1,1,0,0,1,128,65.31Zm8-41.82a.58.58,0,0,0-.26.06L96.86,46a.52.52,0,0,0,0,.89l30.91,17.84a.52.52,0,0,0,.51,0l38.9-22.45a.51.51,0,0,0,0-.89L136.27,23.55A.57.57,0,0,0,136,23.49Z"/><path class="cls-41" d="M128.33,63.72a1,1,0,0,1-.47-.13L99.31,47.11a1,1,0,0,1-.48-.83.94.94,0,0,1,.48-.83l35.92-20.74a1,1,0,0,1,1,0l28.55,16.48a1,1,0,0,1,.48.83,1,1,0,0,1-.48.83L128.81,63.59A1,1,0,0,1,128.33,63.72Zm7.38-38.64a.46.46,0,0,0-.23.06L99.56,45.88a.45.45,0,0,0-.23.4.43.43,0,0,0,.23.39l28.55,16.48a.41.41,0,0,0,.45,0l35.93-20.74a.45.45,0,0,0,0-.78L135.94,25.14A.46.46,0,0,0,135.71,25.08Z"/><path class="cls-37" d="M171.05,40.75V39.09h-1.52l-.05.3L136.81,20.53a.82.82,0,0,0-.83,0l-8.77,5.06L123.08,28l-7,4.06-4.13,2.38-7,4.06-4.13,2.39-6.1,3.52-.11-.33-1.56,0v1.7a.84.84,0,0,0,.42.76l33.82,19.53a.84.84,0,0,0,.84,0l8.18-4.73L140.39,59l7-4.06,4.13-2.39,7-4.05,4.14-2.39,7.93-4.58A.81.81,0,0,0,171.05,40.75Z"/><path class="cls-38" d="M170.64,38.33a.84.84,0,0,1,0,1.45l-7.93,4.58-4.14,2.38-7,4.06-4.13,2.39-7,4.05-4.14,2.39-8.18,4.72a.84.84,0,0,1-.84,0L93.41,44.83a.84.84,0,0,1,0-1.45l7.35-4.24,4.13-2.39,7-4.06,4.13-2.38,7-4.06,4.13-2.39L136,18.8a.82.82,0,0,1,.83,0Z"/><g class="cls-2"><path class="cls-40" d="M141.77,33.55l0,3.45h.93l.86,0a3.48,3.48,0,0,1,1.44.42,1.66,1.66,0,0,1,.53.44,1,1,0,0,1-.21,1.43,3.13,3.13,0,0,1-2,.65h-1.55l0,3.49a2.46,2.46,0,0,1-1.93-.5l-.16-.08c1.11-1.28.69-2.78-1-3.77a8.84,8.84,0,0,0-6.51-.58l-2-1.15-.61-.36-1.23-.71a1.27,1.27,0,0,0-.63-.18,1.23,1.23,0,0,0-.63.18l-.67.39a12.1,12.1,0,0,0-1.11.67,1.38,1.38,0,0,1-.7.22l-.12-4.13,6.19,0-.06-.47a1.33,1.33,0,0,1,0-.28c.05-.87,1.13-1.5,2.6-1.48a3.4,3.4,0,0,1,1.71.42,1.33,1.33,0,0,1,.79,1.11c0,.1,0,.19,0,.3l0,.47Z"/><path class="cls-40" d="M142.72,40.56l0,3.45-.45,0c-1.8.11-1.94.08-3.16-.63l.24-.26-.33.21a.69.69,0,0,1-.15-.07c-.24-.14-.39-.35-.11-.68.89-1,.55-2.25-.86-3.06a7.16,7.16,0,0,0-5.32-.47,1.44,1.44,0,0,1-1.19-.11l-2-1.16-1.76-1-.62.35c-.37.21-.72.4-1,.62a3,3,0,0,1-2,.4l-.41,0-.16-5.24,6.12,0v-.18c.06-1.18,1.61-2.06,3.62-2a5,5,0,0,1,2.4.59,1.84,1.84,0,0,1,1.08,1.53V33l6.13,0,0,3.48c.31,0,.62,0,.91,0a4.7,4.7,0,0,1,2,.58,2.44,2.44,0,0,1,.75.62,1.35,1.35,0,0,1-.3,2,4.53,4.53,0,0,1-2.81.89ZM139.82,43a2.46,2.46,0,0,0,1.93.5l0-3.49h1.55a3.13,3.13,0,0,0,2-.65,1,1,0,0,0,.21-1.43,1.66,1.66,0,0,0-.53-.44,3.48,3.48,0,0,0-1.44-.42l-.86,0h-.93l0-3.45-6.09,0,0-.47c0-.11,0-.2,0-.3a1.33,1.33,0,0,0-.79-1.11,3.4,3.4,0,0,0-1.71-.42c-1.47,0-2.55.61-2.6,1.48a1.33,1.33,0,0,0,0,.28l.06.47-6.19,0,.12,4.13a1.38,1.38,0,0,0,.7-.22c.34-.24.73-.46,1.1-.67l.68-.39a1.23,1.23,0,0,1,.63-.18,1.27,1.27,0,0,1,.63.18l1.23.71.61.36,2,1.15a8.84,8.84,0,0,1,6.51.58c1.71,1,2.13,2.49,1,3.74l.14.11"/><path class="cls-40" d="M136.52,40.37c1,.59,1,1.5,0,2.1l-.94.55,4.3,2.48L135.62,48l.6.34.46.27c1,.63,1,1.51-.05,2.09a3.94,3.94,0,0,1-3.57,0l-1-.6-4.25,2.47-3.57-2.06a2.25,2.25,0,0,0,1.23-1.32,1.68,1.68,0,0,0-1-1.75l-.07-.05a5.31,5.31,0,0,0-2.19-.51,5.25,5.25,0,0,0-3.06.71l-3.55-2,3.54-2.06.45.25a5.62,5.62,0,0,0,4.34.18c.89-.35,1.44-.87,1.55-1.47a1.65,1.65,0,0,0-1-1.64l-.38-.23,3.55-2.06L132,40.92l.57-.33.39-.23A4,4,0,0,1,136.52,40.37Z"/></g><path class="cls-40" d="M137.42,48.19c1.36.85,1.32,2.1-.1,2.89a5.43,5.43,0,0,1-5,0l-.33-.19-4.25,2.48-5-2.9.39-.21c.71-.36,1.2-.71,1.3-1.17a1.23,1.23,0,0,0-.69-1.29,3.74,3.74,0,0,0-1.61-.38,3.93,3.93,0,0,0-2.58.75l-.35.24-5-2.89,5-2.88.6.35.51.29a4.06,4.06,0,0,0,3.1.14c.65-.26,1.06-.64,1.13-1.06s-.17-.85-.71-1.19l-.23-.14-.24-.13-.59-.34,5-2.89L132,40.1l.26-.16a5.58,5.58,0,0,1,5,0c1.39.81,1.39,2.09,0,2.91L137,43l4.31,2.48L137,48C137.17,48,137.3,48.11,137.42,48.19Zm-4.36,2.45a3.91,3.91,0,0,0,3.57,0c1-.57,1.05-1.45.05-2.08l-.46-.27-.6-.34,4.25-2.47L135.57,43l.94-.55c1-.6,1-1.51,0-2.09a4,4,0,0,0-3.61,0l-.39.23-.57.33-4.26-2.46-3.55,2.06.38.23a1.65,1.65,0,0,1,1,1.64c-.11.6-.66,1.12-1.55,1.47a5.62,5.62,0,0,1-4.34-.18l-.45-.25-3.54,2.06,3.55,2a5.25,5.25,0,0,1,3.06-.71,5.31,5.31,0,0,1,2.19.51l.07.05a1.68,1.68,0,0,1,1,1.75,2.25,2.25,0,0,1-1.23,1.32l3.57,2.06L132,50l1,.6"/><path class="cls-41" d="M128,62.74a1,1,0,0,1-.51-.13L96.61,44.76a1,1,0,0,1,0-1.75l38.9-22.46a1,1,0,0,1,1,0L167.43,38.4a1,1,0,0,1,0,1.75l-38.9,22.46A1,1,0,0,1,128,62.74Zm8-41.82a.48.48,0,0,0-.26.07L96.86,43.44a.52.52,0,0,0,0,.89l30.91,17.84a.47.47,0,0,0,.51,0l38.9-22.45a.51.51,0,0,0,0-.89L136.27,21A.47.47,0,0,0,136,20.92Z"/><path class="cls-41" d="M128.33,61.15a1,1,0,0,1-.47-.13L99.31,44.54a1,1,0,0,1-.48-.83.94.94,0,0,1,.48-.83l35.92-20.74a1,1,0,0,1,1,0l28.55,16.48a1,1,0,0,1,0,1.66L128.81,61A1,1,0,0,1,128.33,61.15Zm7.38-38.64a.46.46,0,0,0-.23.06L99.56,43.32a.42.42,0,0,0-.23.39.43.43,0,0,0,.23.39l28.55,16.48a.41.41,0,0,0,.45,0l35.93-20.74a.45.45,0,0,0,0-.78L135.94,22.57A.46.46,0,0,0,135.71,22.51Z"/><path class="cls-37" d="M171.05,38.18V36.52h-1.52l-.05.3L136.81,18a.82.82,0,0,0-.83,0L127.21,23l-4.13,2.38-7,4.06-4.13,2.39-7,4-4.13,2.39-6.1,3.52-.11-.33L93,41.53v1.69a.84.84,0,0,0,.42.76l33.82,19.53a.84.84,0,0,0,.84,0l8.18-4.73,4.14-2.38,7-4.06L151.55,50l7-4.05,4.14-2.39,7.93-4.58A.81.81,0,0,0,171.05,38.18Z"/><path class="cls-38" d="M170.64,35.76a.84.84,0,0,1,0,1.45l-7.93,4.58-4.14,2.38-7,4.06-4.13,2.39-7,4.05-4.14,2.39-8.18,4.73a.89.89,0,0,1-.84,0L93.41,42.26a.84.84,0,0,1,0-1.45l7.35-4.24,4.13-2.39,7-4.06,4.13-2.38,7-4.06,4.13-2.39L136,16.23a.85.85,0,0,1,.83,0Z"/><path class="cls-40" d="M142.72,38l0,3.45-.45,0c-1.79.11-2,.08-3.17-.62l.25-.27-.34.21-.13-.06c-.24-.14-.41-.36-.12-.69.89-1,.54-2.25-.86-3.06a7.19,7.19,0,0,0-5.31-.48,1.43,1.43,0,0,1-1.16-.07l-2-1.16-1.79-1-.62.35c-.37.21-.73.41-1,.62a2.94,2.94,0,0,1-2,.4l-.41,0-.17-5.23h6.14v-.18c.06-1.18,1.61-2.06,3.62-2a5,5,0,0,1,2.4.59,1.84,1.84,0,0,1,1.08,1.53v.18l6.13,0,0,3.47c.32,0,.63,0,.92,0a4.84,4.84,0,0,1,2,.57,2.44,2.44,0,0,1,.74.63,1.35,1.35,0,0,1-.29,2,4.57,4.57,0,0,1-2.81.89Zm-2.91,2.43a2.46,2.46,0,0,0,1.93.5l0-3.49h1.54a3.14,3.14,0,0,0,2-.64,1,1,0,0,0,.21-1.43,1.65,1.65,0,0,0-.54-.46,3.38,3.38,0,0,0-1.43-.4,8,8,0,0,0-.86,0h-.94l0-3.45-6.1,0,0-.48c0-.11,0-.2,0-.29a1.36,1.36,0,0,0-.79-1.12,3.4,3.4,0,0,0-1.71-.42c-1.46,0-2.55.61-2.6,1.48a.92.92,0,0,0,0,.28l.06.46h-6.2l.13,4.13a1.16,1.16,0,0,0,.69-.22c.35-.24.74-.46,1.12-.67.22-.13.45-.25.66-.39a1.27,1.27,0,0,1,.63-.18,1.36,1.36,0,0,1,.65.18l1.87,1.09L132.13,36a8.85,8.85,0,0,1,6.5.58c1.71,1,2.14,2.49,1.05,3.73l.13.12"/><polygon class="cls-39" points="139.38 40.58 139.39 40.58 139.38 40.59 139.38 40.58"/><path class="cls-40" d="M141.72,37.43l0,3.49a2.46,2.46,0,0,1-1.93-.5l-.15-.09c1.11-1.27.68-2.77-1-3.76a8.81,8.81,0,0,0-6.5-.57l-1.95-1.14-1.87-1.09a1.36,1.36,0,0,0-.65-.18,1.27,1.27,0,0,0-.63.18c-.21.14-.44.26-.66.39-.38.21-.77.43-1.12.67a1.16,1.16,0,0,1-.69.22l-.13-4.13h6.2l-.06-.46a.92.92,0,0,1,0-.28c.05-.87,1.14-1.5,2.6-1.48a3.4,3.4,0,0,1,1.71.42,1.36,1.36,0,0,1,.79,1.12c0,.09,0,.18,0,.29l0,.48,6.1,0,0,3.45h.94a8,8,0,0,1,.86,0,3.38,3.38,0,0,1,1.43.4,1.65,1.65,0,0,1,.54.46,1,1,0,0,1-.21,1.43,3.14,3.14,0,0,1-2,.64h-1.54Z"/><path class="cls-40" d="M136.52,37.8c1,.58,1,1.51,0,2.1l-.94.55,4.3,2.48-4.24,2.47.59.34.24.14.23.13c1,.63,1,1.51-.06,2.08a3.93,3.93,0,0,1-3.58,0l-.43-.25-.6-.35-4.25,2.47-3.57-2.06a2.28,2.28,0,0,0,1.23-1.32,1.69,1.69,0,0,0-.94-1.75l-.08-.05a5.16,5.16,0,0,0-2.19-.51,5.27,5.27,0,0,0-3.06.71l-3.55-2,3.55-2.06.22.13.22.12a5.62,5.62,0,0,0,4.34.19c.89-.36,1.45-.88,1.56-1.48a1.65,1.65,0,0,0-1-1.64l-.38-.22,3.56-2.07L132,38.35l.56-.33.39-.23A4,4,0,0,1,136.52,37.8Z"/><path class="cls-40" d="M137.42,45.62c1.36.86,1.32,2.1-.1,2.89a5.45,5.45,0,0,1-5,0L132,48.3l-4.25,2.47-5-2.9.39-.21c.71-.37,1.2-.71,1.29-1.17a1.23,1.23,0,0,0-.68-1.29,3.82,3.82,0,0,0-1.62-.38,3.92,3.92,0,0,0-2.57.75l-.36.24-5-2.89,5-2.88.62.35.25.15a2,2,0,0,0,.25.14,4.06,4.06,0,0,0,3.1.14c.65-.26,1-.63,1.13-1.06s-.17-.85-.71-1.19l-.23-.14-.24-.13-.58-.34,5-2.89L132,37.53l.27-.16a5.62,5.62,0,0,1,5,0c1.4.83,1.4,2.1,0,2.92l-.25.15,4.3,2.48L137,45.4l.26.14Zm-4.37,2.45a3.93,3.93,0,0,0,3.58,0c1-.58,1.05-1.45.06-2.08l-.23-.13-.24-.14-.59-.34,4.24-2.47-4.3-2.48.94-.55c1-.59,1-1.52,0-2.09a4,4,0,0,0-3.61,0l-.39.23-.56.33-4.26-2.46L124.15,38l.38.22a1.65,1.65,0,0,1,1,1.64c-.11.6-.67,1.12-1.56,1.48a5.62,5.62,0,0,1-4.34-.19l-.22-.12-.22-.13-3.55,2.06,3.55,2a5.27,5.27,0,0,1,3.06-.71,5.16,5.16,0,0,1,2.19.51l.08.05a1.69,1.69,0,0,1,.94,1.75,2.28,2.28,0,0,1-1.23,1.32l3.57,2.06L132,47.47l.6.35.43.25"/><path class="cls-41" d="M128,60.17a1,1,0,0,1-.51-.13L96.61,42.19a1,1,0,0,1,0-1.75L135.51,18a1,1,0,0,1,1,0l30.91,17.85a1,1,0,0,1,0,1.75L128.53,60A1,1,0,0,1,128,60.17Zm8-41.82a.48.48,0,0,0-.26.07L96.86,40.87a.52.52,0,0,0,0,.89L127.77,59.6a.47.47,0,0,0,.51,0l38.9-22.45a.51.51,0,0,0,0-.89L136.27,18.42A.47.47,0,0,0,136,18.35Z"/><path class="cls-41" d="M128.33,58.58a1,1,0,0,1-.47-.13L99.31,42a1,1,0,0,1-.48-.83,1,1,0,0,1,.48-.83l35.92-20.74a1,1,0,0,1,1,0l28.55,16.48a1,1,0,0,1,.48.83,1,1,0,0,1-.48.83L128.81,58.45A1,1,0,0,1,128.33,58.58Zm7.38-38.64a.46.46,0,0,0-.23.06L99.56,40.75a.45.45,0,0,0,0,.78L128.11,58a.45.45,0,0,0,.45,0l35.93-20.75a.45.45,0,0,0,0-.78L135.94,20A.46.46,0,0,0,135.71,19.94Z"/><path class="cls-37" d="M171.05,35.61V34h-1.52l-.05.3L136.81,15.39a.82.82,0,0,0-.83,0l-8.77,5.06-4.13,2.38-7,4.06-4.13,2.39-7,4.06-4.13,2.38-6.1,3.52-.11-.33L93,39v1.69a.84.84,0,0,0,.42.76l33.82,19.53a.84.84,0,0,0,.84,0l8.18-4.73,4.14-2.38,7-4.06,4.13-2.38,7-4.06,4.14-2.39,7.93-4.58A.81.81,0,0,0,171.05,35.61Z"/><path class="cls-38" d="M170.64,33.19a.84.84,0,0,1,0,1.45l-7.93,4.58-4.14,2.38-7,4.06-4.13,2.39-7,4.06-4.14,2.38-8.18,4.73a.84.84,0,0,1-.84,0L93.41,39.69a.84.84,0,0,1,0-1.45L100.76,34l4.13-2.39,7-4.06,4.13-2.38,7-4.06,4.13-2.38L136,13.66a.87.87,0,0,1,.83,0Z"/><path class="cls-40" d="M141.26,29c0,1,0,2.06,0,3.09.42,0,.82,0,1.22,0a3.54,3.54,0,0,1,1.54.43c.88.51,1.13,1.36.35,2a3.41,3.41,0,0,1-2.17.68h-.95c0,1.05,0,2.07,0,3.1-1.47.09-1.48.09-2.47-.48l-.12-.07-.09,0c-.14-.08-.13-.18,0-.31.88-1,.53-2.23-.85-3a7.07,7.07,0,0,0-5.27-.47.58.58,0,0,1-.55-.06l-3.41-2a.41.41,0,0,0-.49,0c-.52.32-1.1.61-1.57.93a2,2,0,0,1-1.42.28c0-1.39-.08-2.77-.12-4.19h5.51c0-.14,0-.28,0-.41,0-.92,1.23-1.59,2.78-1.57a3.79,3.79,0,0,1,1.84.44,1.45,1.45,0,0,1,.83,1.19c0,.12,0,.24,0,.42Z"/><path class="cls-40" d="M136.44,35.16c1.07.63,1.06,1.6,0,2.24l-.52.31,3.84,2.21L136,42.13l.44.25.21.12c1.05.66,1,1.61-.07,2.22a4.19,4.19,0,0,1-3.82,0l-.19-.11-.41-.24-3.8,2.2-3.83-2.21c.64-.33,1.18-.69,1.29-1.21a1.3,1.3,0,0,0-.72-1.35l0,0a4,4,0,0,0-1.68-.39,4.1,4.1,0,0,0-2.69.75l-3.81-2.2,3.79-2.2.36.21.34.19a4.33,4.33,0,0,0,3.32.14c1.43-.56,1.63-1.65.45-2.39l-.31-.19-.32-.18,3.8-2.22,3.8,2.2.55-.32A4.26,4.26,0,0,1,136.44,35.16Z"/><path class="cls-41" d="M128,57.6a1,1,0,0,1-.51-.13L96.61,39.62a1,1,0,0,1,0-1.75l38.9-22.46a1,1,0,0,1,1,0l30.91,17.85a1,1,0,0,1,0,1.75l-38.9,22.46A1,1,0,0,1,128,57.6Zm8-41.82a.48.48,0,0,0-.26.07L96.86,38.3a.52.52,0,0,0,0,.89L127.77,57a.47.47,0,0,0,.51,0l38.9-22.45a.51.51,0,0,0,0-.89L136.27,15.85A.47.47,0,0,0,136,15.78Z"/><path class="cls-41" d="M128.33,56a1,1,0,0,1-.47-.13L99.31,39.4a1,1,0,0,1,0-1.66L135.23,17a1,1,0,0,1,1,0l28.55,16.48a1,1,0,0,1,.48.83.94.94,0,0,1-.48.83L128.81,55.88A1,1,0,0,1,128.33,56Zm7.38-38.64a.39.39,0,0,0-.23.07L99.56,38.18a.45.45,0,0,0,0,.78l28.55,16.49a.45.45,0,0,0,.45,0L164.49,34.7a.44.44,0,0,0,.23-.39.45.45,0,0,0-.23-.39L135.94,17.44A.39.39,0,0,0,135.71,17.37Z"/></g></g></svg>