<svg width="192" height="66" viewBox="0 0 192 66" fill="none" xmlns="http://www.w3.org/2000/svg">
<path fill-rule="evenodd" clip-rule="evenodd" d="M38.3315 0H153.668C158.702 -1.82648e-07 163.687 0.853563 168.337 2.51197C172.988 4.17037 177.214 6.60114 180.773 9.66548C184.332 12.7298 187.156 16.3677 189.082 20.3714C191.008 24.3752 192 28.6664 192 33C192 37.3336 191.008 41.6248 189.082 45.6286C187.156 49.6323 184.332 53.2702 180.773 56.3345C177.214 59.3989 172.988 61.8297 168.337 63.4881C163.687 65.1465 158.702 66 153.668 66H38.3315C28.1654 66 18.4156 62.5232 11.2271 56.3345C4.03851 50.1458 0 41.7521 0 33C0 24.2479 4.03851 15.8542 11.2271 9.66548C18.4156 3.47677 28.1654 0 38.3315 0Z" fill="url(#paint0_linear_25_429)"/>
<path fill-rule="evenodd" clip-rule="evenodd" d="M186.947 35.2923C186.913 42.3679 183.076 49.1465 176.274 54.1497C169.471 59.153 160.254 61.9749 150.633 62H41.3668C31.7462 61.9749 22.5295 59.153 15.7267 54.1497C8.92384 49.1465 5.08691 42.3679 5.05273 35.2923V31H186.947V35.2923Z" fill="#999999"/>
<path fill-rule="evenodd" clip-rule="evenodd" d="M41.3668 4H150.633C155.402 4 160.124 4.69837 164.53 6.05525C168.936 7.41212 172.939 9.40093 176.311 11.9081C179.683 14.4153 182.358 17.3917 184.183 20.6675C186.008 23.9433 186.947 27.4543 186.947 31C186.947 34.5457 186.008 38.0567 184.183 41.3325C182.358 44.6083 179.683 47.5847 176.311 50.0919C172.939 52.5991 168.936 54.5879 164.53 55.9448C160.124 57.3017 155.402 58 150.633 58H41.3668C31.7357 58 22.4991 55.1554 15.6889 50.0919C8.87869 45.0284 5.05273 38.1608 5.05273 31C5.05273 23.8392 8.87869 16.9716 15.6889 11.9081C22.4991 6.84463 31.7357 4 41.3668 4Z" fill="white"/>
<path d="M54.1086 40C53.9766 40 53.8593 39.956 53.7566 39.868C53.6686 39.7653 53.6246 39.648 53.6246 39.516C53.6246 39.4573 53.6393 39.406 53.6686 39.362L58.6846 25.282C58.7286 25.1207 58.824 24.9667 58.9706 24.82C59.132 24.6733 59.3446 24.6 59.6086 24.6H63.6346C63.9133 24.6 64.126 24.6733 64.2726 24.82C64.4193 24.9667 64.5146 25.1207 64.5586 25.282L69.5966 39.362C69.6113 39.406 69.6186 39.4573 69.6186 39.516C69.6186 39.648 69.5673 39.7653 69.4646 39.868C69.3766 39.956 69.2666 40 69.1346 40H65.7466C65.4973 40 65.314 39.9413 65.1966 39.824C65.0793 39.7067 64.9986 39.5967 64.9546 39.494L64.2726 37.646H58.9706L58.2886 39.494C58.2446 39.5967 58.164 39.7067 58.0466 39.824C57.944 39.9413 57.7606 40 57.4966 40H54.1086ZM59.9826 33.928H63.2606L61.6106 28.978L59.9826 33.928ZM72.6404 40C72.4937 40 72.3617 39.9487 72.2444 39.846C72.127 39.7287 72.0684 39.5893 72.0684 39.428V25.172C72.0684 25.0107 72.127 24.8787 72.2444 24.776C72.3617 24.6587 72.4937 24.6 72.6404 24.6H78.6684C80.091 24.6 81.323 24.8347 82.3644 25.304C83.4057 25.7587 84.227 26.4333 84.8284 27.328C85.4297 28.2227 85.7524 29.3227 85.7964 30.628C85.8257 31.2587 85.8404 31.816 85.8404 32.3C85.8404 32.784 85.8257 33.334 85.7964 33.95C85.7377 35.3287 85.4224 36.4653 84.8504 37.36C84.293 38.2547 83.501 38.922 82.4744 39.362C81.4477 39.7873 80.2157 40 78.7784 40H72.6404ZM76.7984 36.26H78.6684C79.1524 36.26 79.563 36.1793 79.9004 36.018C80.2377 35.8567 80.5017 35.6073 80.6924 35.27C80.883 34.918 80.9857 34.4707 81.0004 33.928C81.015 33.5027 81.0224 33.1213 81.0224 32.784C81.037 32.4467 81.037 32.1093 81.0224 31.772C81.0224 31.4347 81.015 31.0607 81.0004 30.65C80.971 29.8433 80.7364 29.2567 80.2964 28.89C79.871 28.5233 79.2917 28.34 78.5584 28.34H76.7984V36.26ZM89.6362 40C89.4895 40 89.3575 39.9487 89.2402 39.846C89.1229 39.7287 89.0642 39.5893 89.0642 39.428V25.172C89.0642 25.0107 89.1229 24.8787 89.2402 24.776C89.3575 24.6587 89.4895 24.6 89.6362 24.6H95.6642C97.0869 24.6 98.3189 24.8347 99.3602 25.304C100.402 25.7587 101.223 26.4333 101.824 27.328C102.426 28.2227 102.748 29.3227 102.792 30.628C102.822 31.2587 102.836 31.816 102.836 32.3C102.836 32.784 102.822 33.334 102.792 33.95C102.734 35.3287 102.418 36.4653 101.846 37.36C101.289 38.2547 100.497 38.922 99.4702 39.362C98.4435 39.7873 97.2115 40 95.7742 40H89.6362ZM93.7942 36.26H95.6642C96.1482 36.26 96.5589 36.1793 96.8962 36.018C97.2335 35.8567 97.4975 35.6073 97.6882 35.27C97.8789 34.918 97.9815 34.4707 97.9962 33.928C98.0109 33.5027 98.0182 33.1213 98.0182 32.784C98.0329 32.4467 98.0329 32.1093 98.0182 31.772C98.0182 31.4347 98.0109 31.0607 97.9962 30.65C97.9669 29.8433 97.7322 29.2567 97.2922 28.89C96.8669 28.5233 96.2875 28.34 95.5542 28.34H93.7942V36.26ZM118.187 40.22C116.823 40.22 115.62 40.0073 114.579 39.582C113.552 39.1567 112.746 38.4967 112.159 37.602C111.587 36.6927 111.301 35.5487 111.301 34.17V25.172C111.301 25.0107 111.36 24.8787 111.477 24.776C111.594 24.6587 111.726 24.6 111.873 24.6H115.459C115.62 24.6 115.752 24.6587 115.855 24.776C115.972 24.8787 116.031 25.0107 116.031 25.172V34.104C116.031 34.852 116.214 35.4167 116.581 35.798C116.948 36.1793 117.476 36.37 118.165 36.37C118.854 36.37 119.375 36.1793 119.727 35.798C120.094 35.4167 120.277 34.852 120.277 34.104V25.172C120.277 25.0107 120.336 24.8787 120.453 24.776C120.57 24.6587 120.71 24.6 120.871 24.6H124.435C124.596 24.6 124.728 24.6587 124.831 24.776C124.948 24.8787 125.007 25.0107 125.007 25.172V34.17C125.007 35.5487 124.721 36.6927 124.149 37.602C123.577 38.4967 122.778 39.1567 121.751 39.582C120.724 40.0073 119.536 40.22 118.187 40.22ZM134.716 40.22C133.176 40.22 131.893 40.0073 130.866 39.582C129.854 39.142 129.091 38.5773 128.578 37.888C128.079 37.184 127.815 36.4433 127.786 35.666C127.786 35.534 127.83 35.424 127.918 35.336C128.006 35.248 128.116 35.204 128.248 35.204H131.746C131.951 35.204 132.113 35.2407 132.23 35.314C132.347 35.3727 132.472 35.4607 132.604 35.578C132.736 35.7393 132.89 35.8933 133.066 36.04C133.242 36.172 133.469 36.282 133.748 36.37C134.027 36.4433 134.349 36.48 134.716 36.48C135.391 36.48 135.911 36.392 136.278 36.216C136.645 36.0253 136.828 35.7687 136.828 35.446C136.828 35.1967 136.725 34.9913 136.52 34.83C136.329 34.6687 135.999 34.522 135.53 34.39C135.061 34.258 134.423 34.1187 133.616 33.972C132.487 33.7813 131.511 33.5027 130.69 33.136C129.869 32.7547 129.238 32.2487 128.798 31.618C128.373 30.9727 128.16 30.1807 128.16 29.242C128.16 28.2887 128.424 27.4453 128.952 26.712C129.495 25.9787 130.243 25.4067 131.196 24.996C132.164 24.5853 133.286 24.38 134.562 24.38C135.618 24.38 136.549 24.5193 137.356 24.798C138.177 25.0767 138.867 25.4433 139.424 25.898C139.981 26.338 140.407 26.8147 140.7 27.328C140.993 27.8413 141.147 28.3327 141.162 28.802C141.162 28.934 141.111 29.0513 141.008 29.154C140.92 29.242 140.817 29.286 140.7 29.286H137.026C136.85 29.286 136.696 29.2567 136.564 29.198C136.447 29.1393 136.337 29.044 136.234 28.912C136.161 28.7067 135.977 28.5233 135.684 28.362C135.391 28.2007 135.017 28.12 134.562 28.12C134.063 28.12 133.682 28.208 133.418 28.384C133.154 28.5453 133.022 28.7873 133.022 29.11C133.022 29.33 133.103 29.5207 133.264 29.682C133.425 29.8433 133.711 29.99 134.122 30.122C134.533 30.2393 135.105 30.3713 135.838 30.518C137.231 30.7233 138.353 31.0167 139.204 31.398C140.069 31.7793 140.7 32.278 141.096 32.894C141.492 33.51 141.69 34.28 141.69 35.204C141.69 36.2453 141.389 37.14 140.788 37.888C140.187 38.636 139.358 39.2153 138.302 39.626C137.261 40.022 136.065 40.22 134.716 40.22ZM145.137 40C144.991 40 144.859 39.9487 144.741 39.846C144.624 39.7287 144.565 39.5893 144.565 39.428V25.172C144.565 25.0107 144.624 24.8787 144.741 24.776C144.859 24.6587 144.991 24.6 145.137 24.6H155.917C156.079 24.6 156.218 24.6587 156.335 24.776C156.453 24.8787 156.511 25.0107 156.511 25.172V27.768C156.511 27.9147 156.453 28.0467 156.335 28.164C156.218 28.2813 156.079 28.34 155.917 28.34H149.119V30.518H155.433C155.595 30.518 155.734 30.5767 155.851 30.694C155.969 30.7967 156.027 30.9287 156.027 31.09V33.466C156.027 33.6273 155.969 33.7667 155.851 33.884C155.734 33.9867 155.595 34.038 155.433 34.038H149.119V36.26H156.093C156.255 36.26 156.394 36.3187 156.511 36.436C156.629 36.5533 156.687 36.6927 156.687 36.854V39.428C156.687 39.5893 156.629 39.7287 156.511 39.846C156.394 39.9487 156.255 40 156.093 40H145.137ZM160.5 40C160.354 40 160.222 39.9487 160.104 39.846C159.987 39.7287 159.928 39.5893 159.928 39.428V25.172C159.928 25.0107 159.987 24.8787 160.104 24.776C160.222 24.6587 160.354 24.6 160.5 24.6H166.77C168.765 24.6 170.327 25.0547 171.456 25.964C172.6 26.8733 173.172 28.142 173.172 29.77C173.172 30.7967 172.938 31.6693 172.468 32.388C171.999 33.1067 171.383 33.6713 170.62 34.082L173.48 39.274C173.524 39.362 173.546 39.4427 173.546 39.516C173.546 39.648 173.502 39.7653 173.414 39.868C173.326 39.956 173.216 40 173.084 40H169.366C169.088 40 168.875 39.934 168.728 39.802C168.582 39.6553 168.486 39.5233 168.442 39.406L166.242 34.874H164.658V39.428C164.658 39.5893 164.6 39.7287 164.482 39.846C164.38 39.9487 164.248 40 164.086 40H160.5ZM164.658 31.244H166.748C167.262 31.244 167.643 31.1047 167.892 30.826C168.142 30.5327 168.266 30.1733 168.266 29.748C168.266 29.308 168.142 28.934 167.892 28.626C167.658 28.318 167.276 28.164 166.748 28.164H164.658V31.244Z" fill="#032064"/>
<mask id="path-5-outside-1_25_429" maskUnits="userSpaceOnUse" x="23.4043" y="21.4512" width="16" height="18" fill="black">
<rect fill="white" x="23.4043" y="21.4512" width="16" height="18"/>
<path d="M36.9705 35.8831L36.7657 35.8048C36.7657 35.8048 33.3229 34.1188 35.0453 32.4308C35.7417 31.7483 36.1472 30.5119 36.395 29.1731C36.8046 29.1631 37.3289 28.3141 37.6238 27.166C37.931 25.9617 37.8491 24.9019 37.4395 24.8015H37.3166C37.1118 26.8227 36.3991 29.0627 36.3213 27.3005C36.2045 24.6911 35.2051 22.7582 34.3981 22.5033C33.5912 22.2484 32.9133 23.0453 31.6988 23.0453C30.4843 23.0453 29.8105 22.2424 29.0015 22.5033C28.1925 22.7643 27.1951 24.6891 27.0825 27.3005C27.0005 29.0627 26.1813 26.8248 25.9253 24.8035H25.7758C25.3662 24.9039 25.2822 25.9617 25.5894 27.168C25.8802 28.306 26.4086 29.1551 26.8183 29.1751C27.0661 30.5139 27.4736 31.7503 28.17 32.4328C29.8924 34.1208 26.4476 35.8068 26.4476 35.8068L26.2428 35.8851C27.751 37.1071 29.6467 37.7756 31.6036 37.7756C33.5604 37.7756 35.4561 37.1071 36.9644 35.8851"/>
</mask>
<path d="M36.9705 35.8831L36.7657 35.8048C36.7657 35.8048 33.3229 34.1188 35.0453 32.4308C35.7417 31.7483 36.1472 30.5119 36.395 29.1731C36.8046 29.1631 37.3289 28.3141 37.6238 27.166C37.931 25.9617 37.8491 24.9019 37.4395 24.8015H37.3166C37.1118 26.8227 36.3991 29.0627 36.3213 27.3005C36.2045 24.6911 35.2051 22.7582 34.3981 22.5033C33.5912 22.2484 32.9133 23.0453 31.6988 23.0453C30.4843 23.0453 29.8105 22.2424 29.0015 22.5033C28.1925 22.7643 27.1951 24.6891 27.0825 27.3005C27.0005 29.0627 26.1813 26.8248 25.9253 24.8035H25.7758C25.3662 24.9039 25.2822 25.9617 25.5894 27.168C25.8802 28.306 26.4086 29.1551 26.8183 29.1751C27.0661 30.5139 27.4736 31.7503 28.17 32.4328C29.8924 34.1208 26.4476 35.8068 26.4476 35.8068L26.2428 35.8851C27.751 37.1071 29.6467 37.7756 31.6036 37.7756C33.5604 37.7756 35.4561 37.1071 36.9644 35.8851" fill="#032063"/>
<path d="M36.7657 35.8048L36.3259 36.7029L36.3665 36.7228L36.4087 36.7389L36.7657 35.8048ZM36.395 29.1731L36.3705 28.1734L35.5594 28.1933L35.4117 28.9911L36.395 29.1731ZM37.6238 27.166L38.5924 27.4148L38.5928 27.4131L37.6238 27.166ZM37.4395 24.8015L37.6775 23.8303L37.5602 23.8015H37.4395V24.8015ZM37.3166 24.8015V23.8015H36.4128L36.3217 24.7007L37.3166 24.8015ZM36.3213 27.3005L37.3203 27.2563L37.3203 27.2558L36.3213 27.3005ZM27.0825 27.3005L28.0814 27.3469L28.0815 27.3436L27.0825 27.3005ZM25.9253 24.8035L26.9174 24.6779L26.8066 23.8035H25.9253V24.8035ZM25.7758 24.8035V23.8035H25.6551L25.5378 23.8323L25.7758 24.8035ZM25.5894 27.168L24.6204 27.4148L24.6206 27.4156L25.5894 27.168ZM26.8183 29.1751L27.8016 28.9931L27.6575 28.2151L26.8672 28.1763L26.8183 29.1751ZM26.4476 35.8068L26.8046 36.7409L26.8467 36.7248L26.8872 36.705L26.4476 35.8068ZM26.2428 35.8851L25.8857 34.951L24.2656 35.5702L25.6132 36.6621L26.2428 35.8851ZM37.3275 34.949L37.1227 34.8707L36.4087 36.7389L36.6135 36.8172L37.3275 34.949ZM36.7657 35.8048C37.2055 34.9067 37.2058 34.9068 37.206 34.907C37.2061 34.907 37.2063 34.9071 37.2064 34.9072C37.2066 34.9073 37.2068 34.9074 37.207 34.9074C37.2073 34.9076 37.2074 34.9076 37.2073 34.9076C37.207 34.9075 37.206 34.907 37.2043 34.9061C37.2008 34.9043 37.1943 34.9011 37.1851 34.8963C37.1666 34.8868 37.1373 34.8714 37.0991 34.8507C37.0226 34.809 36.9122 34.7465 36.7837 34.6664C36.5201 34.5021 36.2103 34.2824 35.9595 34.0366C35.6925 33.7749 35.5892 33.5779 35.5674 33.4705C35.5636 33.4521 35.5225 33.3633 35.7453 33.145L34.3454 31.7166C33.707 32.3422 33.4503 33.0972 33.6076 33.8697C33.7468 34.5532 34.1813 35.0942 34.5597 35.465C34.9543 35.8517 35.3975 36.159 35.7256 36.3636C35.893 36.4679 36.0381 36.5503 36.1431 36.6074C36.1958 36.6361 36.2387 36.6586 36.2698 36.6746C36.2854 36.6826 36.298 36.689 36.3075 36.6937C36.3122 36.6961 36.3161 36.6981 36.3192 36.6996C36.3207 36.7003 36.322 36.701 36.3232 36.7016C36.3237 36.7018 36.3242 36.7021 36.3247 36.7023C36.3249 36.7024 36.3252 36.7026 36.3253 36.7026C36.3256 36.7028 36.3259 36.7029 36.7657 35.8048ZM35.7453 33.145C36.6835 32.2255 37.1282 30.7062 37.3783 29.3551L35.4117 28.9911C35.1661 30.3177 34.7998 31.2712 34.3454 31.7166L35.7453 33.145ZM36.4195 30.1728C36.8578 30.1621 37.1869 29.9381 37.3825 29.7643C37.5915 29.5786 37.7641 29.3485 37.9047 29.1194C38.1883 28.6573 38.4267 28.0599 38.5924 27.4148L36.6553 26.9172C36.5261 27.4202 36.3548 27.8213 36.2002 28.0732C36.1216 28.2011 36.0679 28.257 36.0541 28.2692C36.0271 28.2932 36.137 28.1792 36.3705 28.1734L36.4195 30.1728ZM38.5928 27.4131C38.7659 26.7346 38.8413 26.0561 38.7975 25.4923C38.776 25.2157 38.7215 24.9076 38.5938 24.6282C38.4706 24.3588 38.2004 23.9584 37.6775 23.8303L37.2015 25.7728C36.8834 25.6949 36.777 25.4645 36.7749 25.4598C36.768 25.4449 36.7917 25.4958 36.8035 25.6473C36.8262 25.9395 36.789 26.393 36.6549 26.9188L38.5928 27.4131ZM37.4395 23.8015H37.3166V25.8015H37.4395V23.8015ZM36.3217 24.7007C36.2248 25.6572 36.0084 26.6373 35.8306 27.1307C35.7856 27.2556 35.7599 27.301 35.7623 27.297C35.7649 27.2928 35.7736 27.2788 35.7891 27.2588C35.8038 27.2398 35.8323 27.2053 35.8762 27.1658C35.9435 27.1052 36.1831 26.9118 36.5577 26.9407C36.9613 26.9718 37.1808 27.2302 37.2542 27.3392C37.2941 27.3986 37.3163 27.4482 37.3271 27.4749C37.3384 27.503 37.3435 27.5217 37.3448 27.5265C37.3451 27.5277 37.3291 27.4551 37.3203 27.2563L35.3222 27.3446C35.3329 27.5864 35.3562 27.8292 35.4112 28.0374C35.4373 28.1364 35.4879 28.2969 35.5948 28.4557C35.7026 28.6159 35.9599 28.9005 36.404 28.9347C36.819 28.9667 37.1019 28.7534 37.2145 28.652C37.3395 28.5394 37.4221 28.4167 37.4705 28.3373C37.5712 28.1718 37.6503 27.9802 37.7121 27.8089C37.9613 27.1176 38.2036 25.9671 38.3115 24.9023L36.3217 24.7007ZM37.3203 27.2558C37.257 25.841 36.9542 24.5841 36.5358 23.6207C36.3271 23.1401 36.0795 22.7093 35.7995 22.3638C35.5337 22.0359 35.1682 21.6979 34.6994 21.5498L34.0969 23.4569C34.0316 23.4362 34.0936 23.4354 34.2458 23.6232C34.3837 23.7934 34.5446 24.0566 34.7013 24.4173C35.0135 25.1364 35.2688 26.1506 35.3223 27.3452L37.3203 27.2558ZM34.6994 21.5498C33.91 21.3004 33.212 21.5988 32.8328 21.7491C32.3874 21.9257 32.0865 22.0453 31.6988 22.0453V24.0453C32.5256 24.0453 33.1709 23.7665 33.5698 23.6083C34.0349 23.4239 34.0793 23.4513 34.0969 23.4569L34.6994 21.5498ZM31.6988 22.0453C31.3128 22.0453 31.0144 21.9255 30.5686 21.7476C30.1885 21.596 29.4882 21.2956 28.6945 21.5516L29.3085 23.4551C29.3238 23.4501 29.3649 23.4207 29.8275 23.6053C30.2246 23.7637 30.8703 24.0453 31.6988 24.0453V22.0453ZM28.6945 21.5516C28.2294 21.7016 27.8655 22.0376 27.5993 22.3662C27.3193 22.7117 27.0719 23.1421 26.8635 23.6225C26.4456 24.5855 26.1445 25.8414 26.0834 27.2574L28.0815 27.3436C28.1331 26.1482 28.387 25.136 28.6982 24.4185C28.8543 24.0587 29.015 23.7957 29.1531 23.6253C29.305 23.438 29.3691 23.4355 29.3085 23.4551L28.6945 21.5516ZM26.0835 27.254C26.0745 27.4493 26.0571 27.511 26.0611 27.4974C26.0622 27.4937 26.0874 27.4023 26.1717 27.2916C26.2658 27.1682 26.4828 26.9649 26.8336 26.9404C27.1547 26.9181 27.3709 27.0632 27.4465 27.1225C27.5281 27.1865 27.5659 27.2427 27.5667 27.2438C27.5708 27.2497 27.5429 27.2075 27.492 27.0856C27.2896 26.6007 27.0379 25.6293 26.9174 24.6779L24.9332 24.9292C25.0687 25.999 25.3547 27.1572 25.6463 27.856C25.719 28.03 25.8119 28.2247 25.9289 28.3918C25.9863 28.4735 26.0787 28.5915 26.2122 28.6962C26.3398 28.7962 26.6053 28.9612 26.9726 28.9356C27.3696 28.908 27.6295 28.6784 27.7626 28.5036C27.8861 28.3416 27.9465 28.1739 27.9783 28.0667C28.0439 27.8461 28.07 27.5922 28.0814 27.3469L26.0835 27.254ZM25.9253 23.8035H25.7758V25.8035H25.9253V23.8035ZM25.5378 23.8323C25.0161 23.9601 24.7456 24.359 24.6219 24.6284C24.4937 24.9077 24.4388 25.2157 24.4169 25.4923C24.3724 26.0562 24.4473 26.7351 24.6204 27.4148L26.5585 26.9212C26.4244 26.3946 26.3877 25.9414 26.4107 25.6498C26.4226 25.4986 26.4463 25.448 26.4394 25.463C26.4371 25.4681 26.3307 25.6972 26.0138 25.7748L25.5378 23.8323ZM24.6206 27.4156C24.7848 28.0582 25.0237 28.6533 25.3076 29.1148C25.4484 29.3438 25.6202 29.5723 25.8265 29.7574C26.0191 29.9302 26.3404 30.1529 26.7693 30.1739L26.8672 28.1763C27.0914 28.1873 27.193 28.2964 27.1622 28.2688C27.1451 28.2535 27.0898 28.1949 27.011 28.0668C26.8556 27.8142 26.6849 27.4158 26.5583 26.9204L24.6206 27.4156ZM25.835 29.3572C26.0853 30.7096 26.5323 32.228 27.47 33.147L28.8699 31.7186C28.415 31.2727 28.0468 30.3182 27.8016 28.9931L25.835 29.3572ZM27.47 33.147C27.6927 33.3652 27.6515 33.4537 27.6477 33.472C27.6258 33.5794 27.5223 33.7766 27.255 34.0383C27.004 34.2842 26.6939 34.5039 26.4301 34.6682C26.3015 34.7483 26.191 34.8109 26.1144 34.8526C26.0763 34.8733 26.0469 34.8887 26.0284 34.8982C26.0192 34.9029 26.0127 34.9062 26.0092 34.908C26.0074 34.9089 26.0064 34.9094 26.0062 34.9095C26.0061 34.9095 26.0062 34.9095 26.0065 34.9093C26.0066 34.9093 26.0068 34.9092 26.0071 34.909C26.0072 34.909 26.0074 34.9089 26.0075 34.9088C26.0077 34.9087 26.008 34.9086 26.4476 35.8068C26.8872 36.705 26.8874 36.7049 26.8877 36.7047C26.8878 36.7047 26.8881 36.7045 26.8884 36.7044C26.8888 36.7042 26.8893 36.7039 26.8899 36.7037C26.891 36.7031 26.8923 36.7024 26.8939 36.7017C26.897 36.7002 26.9009 36.6982 26.9056 36.6958C26.915 36.6911 26.9276 36.6847 26.9432 36.6767C26.9743 36.6607 27.0173 36.6382 27.07 36.6095C27.175 36.5524 27.3202 36.4701 27.4877 36.3657C27.816 36.1612 28.2595 35.8539 28.6543 35.4673C29.0329 35.0965 29.4677 34.5556 29.6073 33.8721C29.765 33.0996 29.5085 32.3443 28.8699 31.7186L27.47 33.147ZM26.0905 34.8727L25.8857 34.951L26.5998 36.8192L26.8046 36.7409L26.0905 34.8727ZM25.6132 36.6621C27.3011 38.0296 29.4195 38.7756 31.6036 38.7756V36.7756C29.8738 36.7756 28.2008 36.1845 26.8723 35.1081L25.6132 36.6621ZM31.6036 38.7756C33.7876 38.7756 35.906 38.0296 37.5939 36.6621L36.3348 35.1081C35.0063 36.1845 33.3333 36.7756 31.6036 36.7756V38.7756Z" fill="#6890FF" mask="url(#path-5-outside-1_25_429)"/>
<path d="M25.867 27.6341L25.8618 27.6261L25.8573 27.6193L25.8531 27.6123C25.6781 27.3246 25.5078 26.8781 25.3627 26.3923C25.2143 25.8954 25.0808 25.3186 24.9908 24.7477L24.9847 24.709V24.6699V24.6541V24.6086V24.5948V24.5481C24.9842 24.5383 24.9839 24.5285 24.9838 24.5187C24.9196 24.0336 24.8873 23.5457 24.9133 23.116C24.9388 22.6969 25.0239 22.2391 25.2775 21.9159L25.2791 21.9139L25.2791 21.9139C25.5679 21.5496 25.8022 21.2622 26.0084 21.0092C26.5031 20.4022 26.8367 19.9929 27.3772 19.1929C27.799 18.567 28.5607 18.1412 29.3582 17.8394C30.1737 17.5308 31.1144 17.3197 31.9934 17.1744C32.8756 17.0285 33.7128 16.9461 34.3282 16.9001C34.6363 16.877 34.89 16.863 35.0672 16.8548C35.1559 16.8506 35.2255 16.8479 35.2734 16.8463L35.3285 16.8445L35.3431 16.8441L35.3472 16.8439L35.3483 16.8439L35.3487 16.8439C35.3488 16.8439 35.3489 16.8439 35.3613 17.3438L35.3737 17.8436L35.3736 17.8436L35.3731 17.8436L35.3703 17.8437L35.3582 17.844L35.3083 17.8457C35.2641 17.8472 35.1984 17.8497 35.1138 17.8537C35.0497 17.8567 34.9748 17.8605 34.8903 17.8652L25.867 27.6341ZM25.867 27.6341C25.9498 27.78 26.0699 27.8977 26.2095 27.9804L26.3273 28.0501H26.4642H26.5019C26.6985 28.0501 26.8495 27.9545 26.9443 27.8491C27.0293 27.7546 27.076 27.6472 27.1039 27.5653C27.16 27.3997 27.1866 27.1916 27.1984 26.9631L27.1985 26.961C27.2565 25.7373 27.5434 24.6847 27.9077 23.9206C28.09 23.5382 28.2867 23.2387 28.4743 23.0278C28.6596 22.8196 28.8095 22.7273 28.9021 22.6968M25.867 27.6341L28.9021 22.6968M37.5196 22.2305C37.8276 22.6258 37.8586 23.5352 37.7589 24.494V24.5157V24.5374V24.577V24.5888V24.5987V24.6165C37.6534 25.5173 37.4385 26.4424 37.2283 27.0127C37.2399 27.1616 37.2558 27.2396 37.2655 27.2705C37.2658 27.2713 37.266 27.2721 37.2662 27.2727M37.5196 22.2305L26.2958 27.3762C26.333 27.4468 26.3913 27.507 26.4642 27.5501H26.5019C26.5807 27.5501 26.6423 27.4401 26.6765 27.1916L26.6904 27.168L26.7189 27.1199C26.7204 27.1208 26.7295 27.1268 26.738 27.1429L26.7271 27.1222L26.7142 27.1025L26.7036 27.0863C26.6993 27.0791 26.6949 27.0716 26.6905 27.0638C26.6939 27.0243 26.6968 26.9821 26.6991 26.9373C26.8209 24.3674 27.9046 22.4637 28.7754 22.2127M37.5196 22.2305L37.914 21.9232L37.9114 21.9198L37.5196 22.2305ZM37.2662 27.2727C37.2626 27.2639 37.2507 27.2388 37.2253 27.208C37.2129 27.193 37.1955 27.1745 37.1726 27.1557C37.1149 27.2952 37.0584 27.4049 37.0055 27.477M37.2662 27.2727C37.267 27.2751 37.2675 27.2762 37.2675 27.2761C37.2675 27.2761 37.2671 27.2749 37.2662 27.2727ZM37.0055 27.477V27.4889C36.9845 27.5214 36.9517 27.5465 36.9124 27.56H36.9013C36.8694 27.56 36.8406 27.5374 36.8157 27.4889H36.5055V27.477V27.313L36.6026 27.1809C36.6219 27.1546 36.6595 27.0875 36.7092 26.9678C36.7093 26.9676 36.7094 26.9673 36.7095 26.967C36.7127 26.9594 36.7159 26.9515 36.7192 26.9435L36.2411 26.967L36.2247 26.9678C36.2247 26.9675 36.2246 26.9672 36.2246 26.967C36.2244 26.9632 36.2243 26.9594 36.2241 26.9557M37.0055 27.477L37.0216 27.4889L37.1382 27.5745L37.4084 27.7731C37.4124 27.7677 37.4164 27.7622 37.4203 27.7566C37.45 27.7146 37.4784 27.6685 37.5055 27.6196M37.0055 27.477H37.5055V27.4889V27.6196M36.2241 26.9557V26.9433H36.7193C36.7207 26.9397 36.7221 26.9362 36.7235 26.9326C36.5948 24.3662 35.5152 22.4693 34.6433 22.2186C34.5281 22.1852 34.4076 22.1685 34.2865 22.1692C33.9634 22.1886 33.6475 22.2631 33.3558 22.3886C32.846 22.6086 32.2908 22.7324 31.7249 22.7524C31.1535 22.731 30.5931 22.6052 30.0784 22.3827C29.7883 22.2644 29.4753 22.1973 29.1566 22.185C29.0287 22.1748 28.8998 22.1842 28.7754 22.2127M36.2241 26.9557C36.1626 25.7358 35.8758 24.6873 35.5125 23.926C35.33 23.5436 35.1334 23.2444 34.9457 23.0337C34.7523 22.8167 34.5972 22.7256 34.5051 22.6991L34.5038 22.6988C34.4393 22.68 34.3711 22.6699 34.302 22.6692C34.0408 22.6865 33.7869 22.7475 33.5539 22.8477C32.9858 23.0928 32.3693 23.23 31.7425 23.2521L31.7243 23.2527L31.7062 23.252C31.076 23.2284 30.4564 23.09 29.8852 22.8439C29.6512 22.7491 29.3972 22.6947 29.1373 22.6846L29.1271 22.6842L29.1168 22.6834C29.0446 22.6777 28.972 22.6823 28.9021 22.6968M36.2241 26.9557V26.967V26.9815L36.2249 26.996C36.2378 27.2168 36.2626 27.4148 36.3117 27.5708C36.3357 27.647 36.3768 27.751 36.4541 27.8446C36.54 27.9486 36.691 28.06 36.9013 28.06H36.9124H36.9962L37.0754 28.0327C37.2123 27.9855 37.3393 27.8936 37.4256 27.76L37.5055 27.6362V27.6196M28.7754 22.2127L28.8872 22.7C28.8921 22.6989 28.8971 22.6978 28.9021 22.6968M28.7754 22.2127L28.9139 22.6931C28.9101 22.6942 28.9062 22.6954 28.9021 22.6968M28.9021 22.6968L38.2589 24.5196M37.5055 27.6196C37.5711 27.5011 37.6293 27.3658 37.6808 27.2302C37.7601 27.0212 37.8375 26.773 37.9094 26.5031C38.0532 25.9633 38.1807 25.3135 38.2555 24.6747L38.2589 24.6457V24.6165V24.6165V24.6165V24.6165V24.6165V24.6165V24.6165V24.6165V24.6164V24.6164V24.6164V24.6164V24.6164V24.6164V24.6164V24.6164V24.6164V24.6164V24.6163V24.6163V24.6163V24.6163V24.6163V24.6163V24.6163V24.6163V24.6163V24.6163V24.6162V24.6162V24.6162V24.6162V24.6162V24.6162V24.6162V24.6162V24.6161V24.6161V24.6161V24.6161V24.6161V24.6161V24.6161V24.616V24.616V24.616V24.616V24.616V24.616V24.6159V24.6159V24.6159V24.6159V24.6159V24.6159V24.6158V24.6158V24.6158V24.6158V24.6158V24.6158V24.6157V24.6157V24.6157V24.6157V24.6157V24.6156V24.6156V24.6156V24.6156V24.6156V24.6155V24.6155V24.6155V24.6155V24.6154V24.6154V24.6154V24.6154V24.6154V24.6153V24.6153V24.6153V24.6153V24.6152V24.6152V24.6152V24.6152V24.6151V24.6151V24.6151V24.6151V24.6151V24.615V24.615V24.615V24.6149V24.6149V24.6149V24.6149V24.6148V24.6148V24.6148V24.6148V24.6147V24.6147V24.6147V24.6147V24.6146V24.6146V24.6146V24.6145V24.6145V24.6145V24.6145V24.6144V24.6144V24.6144V24.6143V24.6143V24.6143V24.6143V24.6142V24.6142V24.6142V24.6141V24.6141V24.6141V24.614V24.614V24.614V24.6139V24.6139V24.6139V24.6138V24.6138V24.6138V24.6137V24.6137V24.6137V24.6137V24.6136V24.6136V24.6136V24.6135V24.6135V24.6135V24.6134V24.6134V24.6133V24.6133V24.6133V24.6132V24.6132V24.6132V24.6131V24.6131V24.6131V24.613V24.613V24.613V24.6129V24.6129V24.6129V24.6128V24.6128V24.6127V24.6127V24.6127V24.6126V24.6126V24.6126V24.6125V24.6125V24.6125V24.6124V24.6124V24.6123V24.6123V24.6123V24.6122V24.6122V24.6121V24.6121V24.6121V24.612V24.612V24.612V24.6119V24.6119V24.6118V24.6118V24.6118V24.6117V24.6117V24.6116V24.6116V24.6116V24.6115V24.6115V24.6114V24.6114V24.6114V24.6113V24.6113V24.6112V24.6112V24.6112V24.6111V24.6111V24.611V24.611V24.611V24.6109V24.6109V24.6108V24.6108V24.6107V24.6107V24.6107V24.6106V24.6106V24.6105V24.6105V24.6104V24.6104V24.6104V24.6103V24.6103V24.6102V24.6102V24.6101V24.6101V24.6101V24.61V24.61V24.6099V24.6099V24.6098V24.6098V24.6098V24.6097V24.6097V24.6096V24.6096V24.6095V24.6095V24.6095V24.6094V24.6094V24.6093V24.6093V24.6092V24.6092V24.6091V24.6091V24.6091V24.609V24.609V24.6089V24.6089V24.6088V24.6088V24.6087V24.6087V24.6087V24.6086V24.6086V24.6085V24.6085V24.6084V24.6084V24.6083V24.6083V24.6082V24.6082V24.6082V24.6081V24.6081V24.608V24.608V24.6079V24.6079V24.6078V24.6078V24.6077V24.6077V24.6077V24.6076V24.6076V24.6075V24.6075V24.6074V24.6074V24.6073V24.6073V24.6072V24.6072V24.6071V24.6071V24.6071V24.607V24.607V24.6069V24.6069V24.6068V24.6068V24.6067V24.6067V24.6066V24.6066V24.6065V24.6065V24.6065V24.6064V24.6064V24.6063V24.6063V24.6062V24.6062V24.6061V24.6061V24.606V24.606V24.6059V24.6059V24.6059V24.6058V24.6058V24.6057V24.6057V24.6056V24.6056V24.6055V24.6055V24.6054V24.6054V24.6053V24.6053V24.6053V24.6052V24.6052V24.6051V24.6051V24.605V24.605V24.6049V24.6049V24.6048V24.6048V24.6047V24.6047V24.6047V24.6046V24.6046V24.6045V24.6045V24.6044V24.6044V24.6043V24.6043V24.6042V24.6042V24.6041V24.6041V24.6041V24.604V24.604V24.6039V24.6039V24.6038V24.6038V24.6037V24.6037V24.6036V24.6036V24.6036V24.6035V24.6035V24.6034V24.6034V24.6033V24.6033V24.6032V24.6032V24.6032V24.6031V24.6031V24.603V24.603V24.6029V24.6029V24.6028V24.6028V24.6028V24.6027V24.6027V24.6026V24.6026V24.6025V24.6025V24.6024V24.6024V24.6024V24.6023V24.6023V24.6022V24.6022V24.6021V24.6021V24.602V24.602V24.602V24.6019V24.6019V24.6018V24.6018V24.6017V24.6017V24.6017V24.6016V24.6016V24.6015V24.6015V24.6014V24.6014V24.6014V24.6013V24.6013V24.6012V24.6012V24.6012V24.6011V24.6011V24.601V24.601V24.6009V24.6009V24.6009V24.6008V24.6008V24.6007V24.6007V24.6007V24.6006V24.6006V24.6005V24.6005V24.6005V24.6004V24.6004V24.6003V24.6003V24.6003V24.6002V24.6002V24.6001V24.6001V24.6001V24.6V24.6V24.5999V24.5999V24.5999V24.5998V24.5998V24.5998V24.5997V24.5997V24.5996V24.5996V24.5996V24.5995V24.5995V24.5995V24.5994V24.5994V24.5993V24.5993V24.5993V24.5992V24.5992V24.5992V24.5991V24.5991V24.599V24.599V24.599V24.5989V24.5989V24.5989V24.5988V24.5988V24.5988V24.5987V24.5888V24.5888V24.5888V24.5888V24.5888V24.5888V24.5888V24.5888V24.5888V24.5888V24.5888V24.5888V24.5887V24.5887V24.5887V24.5887V24.5887V24.5887V24.5887V24.5887V24.5887V24.5887V24.5887V24.5887V24.5886V24.5886V24.5886V24.5886V24.5886V24.5886V24.5886V24.5886V24.5886V24.5886V24.5885V24.5885V24.5885V24.5885V24.5885V24.5885V24.5885V24.5885V24.5884V24.5884V24.5884V24.5884V24.5884V24.5884V24.5884V24.5884V24.5884V24.5884V24.5884V24.5884V24.5884V24.5883V24.5883V24.5883V24.5883V24.5883V24.5883V24.5883V24.5883V24.5883V24.5883V24.5883V24.5882V24.5882V24.5882V24.5882V24.5882V24.5882V24.5882V24.5882V24.5882V24.5882V24.5882V24.5881V24.5881V24.5881V24.5881V24.5881V24.5881V24.5881V24.5881V24.5881V24.588V24.588V24.588V24.588V24.588V24.588V24.588V24.588V24.5879V24.5879V24.5879V24.5879V24.5879V24.5879V24.5879V24.5879V24.5878V24.5878V24.5878V24.5878V24.5878V24.5878V24.5878V24.5877V24.5877V24.5877V24.5877V24.5877V24.5877V24.5877V24.5876V24.5876V24.5876V24.5876V24.5876V24.5876V24.5876V24.5875V24.5875V24.5875V24.5875V24.5875V24.5875V24.5874V24.5874V24.5874V24.5874V24.5874V24.5874V24.5873V24.5873V24.5873V24.5873V24.5873V24.5872V24.5872V24.5872V24.5872V24.5872V24.5872V24.5871V24.5871V24.5871V24.5871V24.5871V24.587V24.587V24.587V24.587V24.587V24.5869V24.5869V24.5869V24.5869V24.5869V24.5868V24.5868V24.5868V24.5868V24.5867V24.5867V24.5867V24.5867V24.5867V24.5866V24.5866V24.5866V24.5866V24.5865V24.5865V24.5865V24.5865V24.5865V24.5864V24.5864V24.5864V24.5864V24.5863V24.5863V24.5863V24.5863V24.5862V24.5862V24.5862V24.5862V24.5861V24.5861V24.5861V24.586V24.586V24.586V24.586V24.5859V24.5859V24.5859V24.5859V24.5858V24.5858V24.5858V24.5857V24.5857V24.5857V24.5857V24.5856V24.5856V24.5856V24.5855V24.5855V24.5855V24.5855V24.5854V24.5854V24.5854V24.5853V24.5853V24.5853V24.5852V24.5852V24.5852V24.5851V24.5851V24.5851V24.585V24.585V24.585V24.5849V24.5849V24.5849V24.5849V24.5848V24.5848V24.5847V24.5847V24.5847V24.5846V24.5846V24.5846V24.5845V24.5845V24.5845V24.5844V24.5844V24.5844V24.5843V24.5843V24.5843V24.5842V24.5842V24.5841V24.5841V24.5841V24.584V24.584V24.584V24.5839V24.5839V24.5838V24.5838V24.5838V24.5837V24.5837V24.5836V24.5836V24.5836V24.5835V24.5835V24.5834V24.5834V24.5833V24.5833V24.5833V24.5832V24.5832V24.5831V24.5831V24.5831V24.583V24.583V24.5829V24.5829V24.5828V24.5828V24.5827V24.5827V24.5827V24.5826V24.5826V24.5825V24.5825V24.5824V24.5824V24.5823V24.5823V24.5822V24.5822V24.5821V24.5821V24.5821V24.582V24.582V24.5819V24.5819V24.5818V24.5818V24.5817V24.5817V24.5816V24.5816V24.5815V24.5815V24.5814V24.5814V24.5813V24.5813V24.5812V24.5812V24.5811V24.581V24.581V24.5809V24.5809V24.5808V24.5808V24.5807V24.5807V24.5806V24.5806V24.5805V24.5805V24.5804V24.5803V24.5803V24.5802V24.5802V24.5801V24.5801V24.58V24.58V24.5799V24.5798V24.5798V24.5797V24.5797V24.5796V24.5795V24.5795V24.5794V24.5794V24.5793V24.5792V24.5792V24.5791V24.5791V24.579V24.5789V24.5789V24.5788V24.5788V24.5787V24.5786V24.5786V24.5785V24.5784V24.5784V24.5783V24.5782V24.5782V24.5781V24.5781V24.578V24.5779V24.5779V24.5778V24.5777V24.5777V24.5776V24.5775V24.5775V24.5774V24.5773V24.5773V24.5772V24.5771V24.577V24.577V24.5374V24.5374V24.5374V24.5374V24.5374V24.5374V24.5374V24.5374V24.5374V24.5374V24.5374V24.5373V24.5373V24.5373V24.5373V24.5373V24.5373V24.5373V24.5373V24.5373V24.5373V24.5373V24.5372V24.5372V24.5372V24.5372V24.5372V24.5372V24.5372V24.5372V24.5371V24.5371V24.5371V24.5371V24.5371V24.5371V24.5371V24.537V24.537V24.537V24.537V24.537V24.537V24.5369V24.5369V24.5369V24.5369V24.5369V24.5369V24.5368V24.5368V24.5368V24.5368V24.5368V24.5367V24.5367V24.5367V24.5367V24.5367V24.5366V24.5366V24.5366V24.5366V24.5366V24.5365V24.5365V24.5365V24.5365V24.5364V24.5364V24.5364V24.5364V24.5363V24.5363V24.5363V24.5363V24.5362V24.5362V24.5362V24.5362V24.5361V24.5361V24.5361V24.5361V24.536V24.536V24.536V24.536V24.5359V24.5359V24.5359V24.5358V24.5358V24.5358V24.5358V24.5357V24.5357V24.5357V24.5356V24.5356V24.5356V24.5355V24.5355V24.5355V24.5355V24.5354V24.5354V24.5354V24.5353V24.5353V24.5353V24.5352V24.5352V24.5352V24.5351V24.5351V24.5351V24.535V24.535V24.535V24.5349V24.5349V24.5349V24.5348V24.5348V24.5347V24.5347V24.5347V24.5346V24.5346V24.5346V24.5345V24.5345V24.5345V24.5344V24.5344V24.5343V24.5343V24.5343V24.5342V24.5342V24.5342V24.5341V24.5341V24.534V24.534V24.534V24.5339V24.5339V24.5338V24.5338V24.5338V24.5337V24.5337V24.5336V24.5336V24.5336V24.5335V24.5335V24.5334V24.5334V24.5333V24.5333V24.5333V24.5332V24.5332V24.5331V24.5331V24.533V24.533V24.533V24.5329V24.5329V24.5328V24.5328V24.5327V24.5327V24.5327V24.5326V24.5326V24.5325V24.5325V24.5324V24.5324V24.5323V24.5323V24.5322V24.5322V24.5322V24.5321V24.5321V24.532V24.532V24.5319V24.5319V24.5318V24.5318V24.5317V24.5317V24.5316V24.5316V24.5315V24.5315V24.5314V24.5314V24.5313V24.5313V24.5313V24.5312V24.5312V24.5311V24.5311V24.531V24.531V24.5309V24.5309V24.5308V24.5308V24.5307V24.5307V24.5306V24.5306V24.5305V24.5305V24.5304V24.5304V24.5303V24.5303V24.5302V24.5302V24.5301V24.5301V24.53V24.53V24.5299V24.5298V24.5298V24.5297V24.5297V24.5296V24.5296V24.5295V24.5295V24.5294V24.5294V24.5293V24.5293V24.5292V24.5292V24.5291V24.5291V24.529V24.529V24.5289V24.5289V24.5288V24.5287V24.5287V24.5286V24.5286V24.5285V24.5285V24.5284V24.5284V24.5283V24.5283V24.5282V24.5282V24.5281V24.528V24.528V24.5279V24.5279V24.5278V24.5278V24.5277V24.5277V24.5276V24.5276V24.5275V24.5274V24.5274V24.5273V24.5273V24.5272V24.5272V24.5271V24.5271V24.527V24.5269V24.5269V24.5268V24.5268V24.5267V24.5267V24.5266V24.5266V24.5265V24.5264V24.5264V24.5263V24.5263V24.5262V24.5262V24.5261V24.5261V24.526V24.5259V24.5259V24.5258V24.5258V24.5257V24.5257V24.5256V24.5255V24.5255V24.5254V24.5254V24.5253V24.5253V24.5252V24.5252V24.5251V24.525V24.525V24.5249V24.5249V24.5248V24.5248V24.5247V24.5246V24.5246V24.5245V24.5245V24.5244V24.5244V24.5243V24.5242V24.5242V24.5241V24.5241V24.524V24.524V24.5239V24.5238V24.5238V24.5237V24.5237V24.5236V24.5236V24.5235V24.5234V24.5234V24.5233V24.5233V24.5232V24.5232V24.5231V24.5231V24.523V24.5229V24.5229V24.5228V24.5228V24.5227V24.5227V24.5226V24.5225V24.5225V24.5224V24.5224V24.5223V24.5223V24.5222V24.5221V24.5221V24.522V24.522V24.5219V24.5219V24.5218V24.5218V24.5217V24.5216V24.5216V24.5215V24.5215V24.5214V24.5214V24.5213V24.5213V24.5212V24.5211V24.5211V24.521V24.521V24.5209V24.5209V24.5208V24.5207V24.5207V24.5206V24.5206V24.5205V24.5205V24.5204V24.5204V24.5203V24.5203V24.5202V24.5201V24.5201V24.52V24.52V24.5199V24.5199V24.5198V24.5198V24.5197V24.5197V24.5196M38.2589 24.5196C38.2583 24.5255 38.2577 24.5315 38.2571 24.5374L38.2589 24.5196ZM38.2589 24.5196V24.5195M38.2589 24.5196V24.5195M38.2589 24.5195V24.5195M38.2589 24.5195V24.5195M38.2589 24.5195V24.5194M38.2589 24.5195V24.5194M38.2589 24.5194V24.5194M38.2589 24.5194V24.5194M38.2589 24.5194V24.5193M38.2589 24.5194V24.5193M38.2589 24.5193V24.5193M38.2589 24.5193V24.5193M38.2589 24.5193V24.5192M38.2589 24.5193V24.5192M38.2589 24.5192V24.5192M38.2589 24.5192V24.5192M38.2589 24.5192V24.5191M38.2589 24.5192V24.5191M38.2589 24.5191V24.5191M38.2589 24.5191V24.5191M38.2589 24.5191V24.519M38.2589 24.5191V24.519M38.2589 24.519V24.519M38.2589 24.519V24.519M38.2589 24.519V24.5189M38.2589 24.519V24.5189M38.2589 24.5189V24.5188M38.2589 24.5189V24.5188M38.2589 24.5188V24.5188M38.2589 24.5188V24.5188M38.2589 24.5188V24.5187M38.2589 24.5188V24.5187M38.2589 24.5187V24.5187M38.2589 24.5187V24.5187M38.2589 24.5187V24.5186M38.2589 24.5187V24.5186M38.2589 24.5186V24.5186M38.2589 24.5186V24.5186M38.2589 24.5186V24.5185M38.2589 24.5186V24.5185M38.2589 24.5185V24.5185M38.2589 24.5185V24.5185M38.2589 24.5185V24.5184M38.2589 24.5185V24.5184M38.2589 24.5184V24.5184M38.2589 24.5184V24.5184M38.2589 24.5184V24.5183M38.2589 24.5184V24.5183M38.2589 24.5183V24.5183M38.2589 24.5183V24.5183M38.2589 24.5183V24.5182M38.2589 24.5183V24.5182M38.2589 24.5182V24.5182M38.2589 24.5182V24.5182M38.2589 24.5182V24.5181M38.2589 24.5182V24.5181M38.2589 24.5181V24.5181M38.2589 24.5181V24.5181M38.2589 24.5181V24.518M38.2589 24.5181V24.518M38.2589 24.518V24.518M38.2589 24.518V24.518M38.2589 24.518V24.5179M38.2589 24.518V24.5179M38.2589 24.5179V24.5179M38.2589 24.5179V24.5179M38.2589 24.5179V24.5178M38.2589 24.5179V24.5178M38.2589 24.5178V24.5178M38.2589 24.5178V24.5178M38.2589 24.5178V24.5177M38.2589 24.5178V24.5177M38.2589 24.5177V24.5176M38.2589 24.5177V24.5176M38.2589 24.5176V24.5176M38.2589 24.5176V24.5176M38.2589 24.5176V24.5175M38.2589 24.5176V24.5175M38.2589 24.5175V24.5175M38.2589 24.5175V24.5175M38.2589 24.5175V24.5174M38.2589 24.5175V24.5174M38.2589 24.5174V24.5174M38.2589 24.5174V24.5174M38.2589 24.5174V24.5173M38.2589 24.5174V24.5173M38.2589 24.5173V24.5173M38.2589 24.5173V24.5173M38.2589 24.5173V24.5172M38.2589 24.5173V24.5172M38.2589 24.5172V24.5172M38.2589 24.5172V24.5172M38.2589 24.5172V24.5171M38.2589 24.5172V24.5171M38.2589 24.5171V24.5171M38.2589 24.5171V24.5171M38.2589 24.5171V24.517M38.2589 24.5171V24.517M38.2589 24.517V24.517M38.2589 24.517V24.517M38.2589 24.517V24.5169M38.2589 24.517V24.5169M38.2589 24.5169V24.5169M38.2589 24.5169V24.5169M38.2589 24.5169V24.5168M38.2589 24.5169V24.5168M38.2589 24.5168V24.5168M38.2589 24.5168V24.5168M38.2589 24.5168V24.5167M38.2589 24.5168V24.5167M38.2589 24.5167V24.5167M38.2589 24.5167V24.5167M38.2589 24.5167V24.5166M38.2589 24.5167V24.5166M38.2589 24.5166V24.5166M38.2589 24.5166V24.5166M38.2589 24.5166V24.5166M38.2589 24.5166V24.5166M38.2589 24.5166V24.5165M38.2589 24.5166V24.5165M38.2589 24.5165V24.5165M38.2589 24.5165V24.5165M38.2589 24.5165V24.5164M38.2589 24.5165V24.5164M38.2589 24.5164V24.5164M38.2589 24.5164V24.5164M38.2589 24.5164V24.5163M38.2589 24.5164V24.5163M38.2589 24.5163V24.5163M38.2589 24.5163V24.5163M38.2589 24.5163V24.5162M38.2589 24.5163V24.5162M38.2589 24.5162V24.5162M38.2589 24.5162V24.5162M38.2589 24.5162V24.5161M38.2589 24.5162V24.5161M38.2589 24.5161V24.5161M38.2589 24.5161V24.5161M38.2589 24.5161V24.516M38.2589 24.5161V24.516M38.2589 24.516V24.516M38.2589 24.516V24.516M38.2589 24.516V24.5159M38.2589 24.516V24.5159M38.2589 24.5159V24.5159M38.2589 24.5159V24.5159M38.2589 24.5159V24.5158M38.2589 24.5159V24.5158M38.2589 24.5158V24.5158M38.2589 24.5158V24.5158M38.2589 24.5158V24.5157M38.2589 24.5158V24.5157M38.2589 24.5157V24.5157M38.2589 24.5157V24.5157M38.2589 24.5157V24.5156M38.2589 24.5157V24.5156M38.2589 24.5156V24.5156M38.2589 24.5156V24.5156M38.2589 24.5156V24.5156M38.2589 24.5156V24.5156M38.2589 24.5156V24.5155M38.2589 24.5156V24.5155M38.2589 24.5155V24.5155M38.2589 24.5155V24.5155M38.2589 24.5155V24.5154M38.2589 24.5155V24.5154M38.2589 24.5154V24.5154M38.2589 24.5154V24.5154M38.2589 24.5154V24.5153M38.2589 24.5154V24.5153M38.2589 24.5153V24.5153M38.2589 24.5153V24.5153M38.2589 24.5153V24.5152M38.2589 24.5153V24.5152M38.2589 24.5152V24.5152M38.2589 24.5152V24.5152M38.2589 24.5152V24.5151M38.2589 24.5152V24.5151M38.2589 24.5151V24.5151M38.2589 24.5151V24.5151M38.2589 24.5151V24.515M38.2589 24.5151V24.515M38.2589 24.515V24.515M38.2589 24.515V24.515M38.2589 24.515V24.515M38.2589 24.515V24.515M38.2589 24.515V24.5149M38.2589 24.515V24.5149M38.2589 24.5149V24.5149M38.2589 24.5149V24.5149M38.2589 24.5149V24.5148M38.2589 24.5149V24.5148M38.2589 24.5148V24.5148M38.2589 24.5148V24.5148M38.2589 24.5148V24.5147M38.2589 24.5148V24.5147M38.2589 24.5147V24.5147M38.2589 24.5147V24.5147M38.2589 24.5147V24.5146M38.2589 24.5147V24.5146M38.2589 24.5146V24.5146M38.2589 24.5146V24.5146M38.2589 24.5146V24.5145M38.2589 24.5146V24.5145M38.2589 24.5145V24.5145M38.2589 24.5145V24.5145M38.2589 24.5145V24.5144M38.2589 24.5145V24.5144M38.2589 24.5144V24.5144M38.2589 24.5144V24.5144M38.2589 24.5144V24.5144M38.2589 24.5144V24.5144M38.2589 24.5144V24.5143M38.2589 24.5144V24.5143M38.2589 24.5143V24.5143M38.2589 24.5143V24.5143M38.2589 24.5143V24.5142M38.2589 24.5143V24.5142M38.2589 24.5142V24.5142M38.2589 24.5142V24.5142M38.2589 24.5142V24.5141M38.2589 24.5142V24.5141M38.2589 24.5141V24.5141M38.2589 24.5141V24.5141M38.2589 24.5141V24.514M38.2589 24.5141V24.514M38.2589 24.514V24.514M38.2589 24.514V24.514M38.2589 24.514V24.5139M38.2589 24.514V24.5139M38.2589 24.5139V24.5139M38.2589 24.5139V24.5139M38.2589 24.5139V24.5138M38.2589 24.5139V24.5138M38.2589 24.5138V24.5138M38.2589 24.5138V24.5138M38.2589 24.5138V24.5138M38.2589 24.5138V24.5138M38.2589 24.5138V24.5137M38.2589 24.5138V24.5137M38.2589 24.5137V24.5137M38.2589 24.5137V24.5137M38.2589 24.5137V24.5136M38.2589 24.5137V24.5136M38.2589 24.5136V24.5136M38.2589 24.5136V24.5136M38.2589 24.5136V24.5135M38.2589 24.5136V24.5135M38.2589 24.5135V24.5135M38.2589 24.5135V24.5135M38.2589 24.5135V24.5134M38.2589 24.5135V24.5134M38.2589 24.5134V24.5134M38.2589 24.5134V24.5134M38.2589 24.5134V24.5133M38.2589 24.5134V24.5133M38.2589 24.5133V24.5133M38.2589 24.5133V24.5133M38.2589 24.5133V24.5132M38.2589 24.5133V24.5132M38.2589 24.5132V24.5132M38.2589 24.5132V24.5132M38.2589 24.5132V24.5131M38.2589 24.5132V24.5131M38.2589 24.5131V24.5131V24.5131ZM26.1551 27.2486C26.1551 27.2486 26.1555 27.2475 26.1563 27.2456C26.1556 27.2477 26.1552 27.2486 26.1551 27.2486ZM36.7333 27.0934C36.7402 27.1714 36.7489 27.2387 36.7592 27.296C36.7616 27.3094 36.7641 27.3223 36.7666 27.3347L36.5854 27.2177C36.5928 27.2063 36.6007 27.1956 36.6089 27.1856C36.6455 27.1413 36.6897 27.1113 36.7333 27.0934Z" fill="#032063" stroke="#6890FF"/>
<mask id="path-8-outside-2_25_429" maskUnits="userSpaceOnUse" x="16.1064" y="34.3167" width="31" height="12" fill="black">
<rect fill="white" x="16.1064" y="34.3167" width="31" height="12"/>
<path d="M37.8435 36.3167L37.4421 36.6389C35.799 38.0054 33.7363 38.7527 31.6075 38.7527C29.4786 38.7527 27.4159 38.0054 25.7728 36.6389L25.3714 36.3167C23.7353 37.0199 20.8325 38.3432 19.7947 39.2328C18.3172 40.5095 18.1064 44.3437 18.1064 44.3437H45.1064C45.1064 44.3437 44.9057 40.5095 43.4202 39.2328C42.3803 38.333 39.4796 37.0199 37.8415 36.3167"/>
</mask>
<path d="M37.8435 36.3167L37.4421 36.6389C35.799 38.0054 33.7363 38.7527 31.6075 38.7527C29.4786 38.7527 27.4159 38.0054 25.7728 36.6389L25.3714 36.3167C23.7353 37.0199 20.8325 38.3432 19.7947 39.2328C18.3172 40.5095 18.1064 44.3437 18.1064 44.3437H45.1064C45.1064 44.3437 44.9057 40.5095 43.4202 39.2328C42.3803 38.333 39.4796 37.0199 37.8415 36.3167" fill="#032063"/>
<path d="M37.4421 36.6389L36.8162 35.859L36.8093 35.8644L36.8026 35.87L37.4421 36.6389ZM25.7728 36.6389L26.4123 35.87L26.4056 35.8644L26.3987 35.859L25.7728 36.6389ZM25.3714 36.3167L25.9973 35.5368L25.5286 35.1606L24.9765 35.3979L25.3714 36.3167ZM19.7947 39.2328L19.1439 38.4736L19.1409 38.4762L19.7947 39.2328ZM18.1064 44.3437L17.108 44.2888L17.05 45.3437H18.1064V44.3437ZM45.1064 44.3437V45.3437H46.1602L46.1051 44.2914L45.1064 44.3437ZM43.4202 39.2328L42.7659 39.989L42.7684 39.9912L43.4202 39.2328ZM37.2176 35.5368L36.8162 35.859L38.068 37.4188L38.4694 37.0966L37.2176 35.5368ZM36.8026 35.87C35.3384 37.0878 33.5017 37.7527 31.6075 37.7527V39.7527C33.9709 39.7527 36.2596 38.923 38.0815 37.4077L36.8026 35.87ZM31.6075 37.7527C29.7132 37.7527 27.8765 37.0878 26.4123 35.87L25.1334 37.4077C26.9553 38.923 29.244 39.7527 31.6075 39.7527V37.7527ZM26.3987 35.859L25.9973 35.5368L24.7454 37.0966L25.1469 37.4188L26.3987 35.859ZM24.9765 35.3979C24.1492 35.7535 22.9953 36.2685 21.9115 36.8104C20.8606 37.3358 19.7689 37.9378 19.1439 38.4736L20.4455 39.992C20.8584 39.6382 21.7369 39.1337 22.8059 38.5993C23.842 38.0812 24.9574 37.583 25.7662 37.2354L24.9765 35.3979ZM19.1409 38.4762C18.6061 38.9383 18.2417 39.5761 17.9863 40.1811C17.7256 40.7987 17.5447 41.464 17.4183 42.0594C17.2911 42.6584 17.2141 43.2109 17.1688 43.6125C17.146 43.814 17.131 43.9795 17.1216 44.0962C17.1169 44.1545 17.1136 44.2008 17.1114 44.2334C17.1103 44.2497 17.1095 44.2626 17.1089 44.2719C17.1087 44.2766 17.1084 44.2803 17.1083 44.2832C17.1082 44.2846 17.1081 44.2858 17.1081 44.2867C17.108 44.2872 17.108 44.2876 17.108 44.2879C17.108 44.2881 17.108 44.2883 17.108 44.2884C17.108 44.2886 17.108 44.2888 18.1064 44.3437C19.1049 44.3986 19.1049 44.3988 19.1049 44.3989C19.1049 44.399 19.1049 44.3991 19.1049 44.3992C19.1049 44.3993 19.1049 44.3993 19.1049 44.3994C19.1049 44.3994 19.1049 44.3992 19.1049 44.3987C19.105 44.3979 19.1051 44.3961 19.1052 44.3934C19.1056 44.3881 19.1061 44.3794 19.1069 44.3673C19.1086 44.3431 19.1112 44.3058 19.1152 44.2568C19.1231 44.1588 19.1361 44.0147 19.1561 43.8369C19.1965 43.4796 19.2645 42.9938 19.3747 42.4747C19.4857 41.9519 19.6345 41.4193 19.8289 40.9589C20.0285 40.4859 20.2446 40.1657 20.4485 39.9895L19.1409 38.4762ZM18.1064 45.3437H45.1064V43.3437H18.1064V45.3437ZM45.1064 44.3437C46.1051 44.2914 46.1051 44.2912 46.1051 44.291C46.1051 44.2909 46.105 44.2907 46.105 44.2905C46.105 44.2902 46.105 44.2898 46.105 44.2893C46.1049 44.2883 46.1048 44.2872 46.1048 44.2857C46.1046 44.2829 46.1044 44.2791 46.1041 44.2745C46.1036 44.2652 46.1028 44.2523 46.1018 44.2359C46.0996 44.2033 46.0964 44.157 46.0919 44.0985C46.0828 43.9818 46.0681 43.8162 46.0458 43.6146C46.0013 43.2128 45.9253 42.66 45.7989 42.0606C45.6732 41.465 45.4927 40.799 45.2315 40.1808C44.9756 39.575 44.6098 38.9366 44.072 38.4744L42.7684 39.9912C42.9734 40.1674 43.1897 40.487 43.3892 40.9592C43.5835 41.419 43.7317 41.951 43.8419 42.4734C43.9513 42.9922 44.0184 43.4777 44.0579 43.8348C44.0776 44.0125 44.0903 44.1565 44.098 44.2544C44.1018 44.3033 44.1043 44.3406 44.1059 44.3648C44.1067 44.3768 44.1072 44.3856 44.1075 44.3909C44.1077 44.3935 44.1078 44.3953 44.1078 44.3961C44.1078 44.3966 44.1079 44.3968 44.1079 44.3968C44.1079 44.3967 44.1078 44.3967 44.1078 44.3966C44.1078 44.3965 44.1078 44.3964 44.1078 44.3963C44.1078 44.3962 44.1078 44.396 45.1064 44.3437ZM44.0745 38.4766C43.4466 37.9332 42.3524 37.3303 41.3015 36.8062C40.2173 36.2654 39.0631 35.7528 38.236 35.3977L37.4471 37.2356C38.258 37.5837 39.3732 38.0793 40.4089 38.5959C41.4779 39.1291 42.354 39.6326 42.7659 39.989L44.0745 38.4766Z" fill="#6890FF" mask="url(#path-8-outside-2_25_429)"/>
<defs>
<linearGradient id="paint0_linear_25_429" x1="96.0342" y1="66" x2="96.0342" y2="0" gradientUnits="userSpaceOnUse">
<stop stop-color="#6890FF"/>
<stop offset="1" stop-color="#6890FF"/>
</linearGradient>
</defs>
</svg>
