<svg width="237" height="66" viewBox="0 0 237 66" fill="none" xmlns="http://www.w3.org/2000/svg">
<path fill-rule="evenodd" clip-rule="evenodd" d="M28.5419 0H208.458C216.028 0 223.288 3.47678 228.64 9.66548C233.993 15.8542 237 24.2479 237 33C237 41.7521 233.993 50.1458 228.64 56.3345C223.288 62.5232 216.028 66 208.458 66H28.5419C20.9721 66 13.7124 62.5232 8.35974 56.3345C3.00709 50.1458 0 41.7521 0 33C0 24.2479 3.00709 15.8542 8.35974 9.66548C13.7124 3.47678 20.9721 1.30417e-07 28.5419 0Z" fill="#6890FF"/>
<path fill-rule="evenodd" clip-rule="evenodd" d="M232.316 35.2923C232.29 42.3679 229.392 49.1465 224.255 54.1497C219.117 59.153 212.156 61.9749 204.89 62H32.1092C24.8434 61.9749 17.8826 59.153 12.7449 54.1497C7.60716 49.1465 4.7094 42.3679 4.68359 35.2923V31H232.316V35.2923Z" fill="#999999"/>
<path fill-rule="evenodd" clip-rule="evenodd" d="M32.0974 5H204.902C212.173 5 219.146 7.79196 224.287 12.7617C229.428 17.7314 232.316 24.4718 232.316 31.5C232.316 38.5282 229.428 45.2686 224.287 50.2383C219.146 55.208 212.173 58 204.902 58H32.0974C24.8268 58 17.854 55.208 12.7129 50.2383C7.57182 45.2686 4.68359 38.5282 4.68359 31.5C4.68359 24.4718 7.57182 17.7314 12.7129 12.7617C17.854 7.79196 24.8268 5 32.0974 5Z" fill="white"/>
<g style="mix-blend-mode:screen">
<path d="M45.9732 62.2362C46.0577 62.2362 46.1261 62.1874 46.1261 62.1272C46.1261 62.0669 46.0577 62.0181 45.9732 62.0181C45.8888 62.0181 45.8203 62.0669 45.8203 62.1272C45.8203 62.1874 45.8888 62.2362 45.9732 62.2362Z" fill="#8AB4FF"/>
</g>
<path d="M55.936 39C55.7893 39 55.6573 38.9487 55.54 38.846C55.4227 38.7287 55.364 38.5893 55.364 38.428V24.172C55.364 24.0107 55.4227 23.8787 55.54 23.776C55.6573 23.6587 55.7893 23.6 55.936 23.6H59.676C59.8373 23.6 59.9693 23.6587 60.072 23.776C60.1893 23.8787 60.248 24.0107 60.248 24.172V38.428C60.248 38.5893 60.1893 38.7287 60.072 38.846C59.9693 38.9487 59.8373 39 59.676 39H55.936ZM64.5535 39C64.3921 39 64.2528 38.9487 64.1355 38.846C64.0181 38.7287 63.9595 38.5893 63.9595 38.428V24.172C63.9595 24.0107 64.0181 23.8787 64.1355 23.776C64.2528 23.6587 64.3921 23.6 64.5535 23.6H67.4795C67.7435 23.6 67.9415 23.6733 68.0735 23.82C68.2055 23.9667 68.2935 24.0693 68.3375 24.128L71.8575 30.244L75.3775 24.128C75.4215 24.0693 75.5095 23.9667 75.6415 23.82C75.7735 23.6733 75.9715 23.6 76.2355 23.6H79.1615C79.3228 23.6 79.4548 23.6587 79.5575 23.776C79.6748 23.8787 79.7335 24.0107 79.7335 24.172V38.428C79.7335 38.5893 79.6748 38.7287 79.5575 38.846C79.4548 38.9487 79.3228 39 79.1615 39H75.8615C75.7001 39 75.5608 38.9487 75.4435 38.846C75.3408 38.7287 75.2895 38.5893 75.2895 38.428V31.3L73.3095 34.776C73.2361 34.8933 73.1408 35.0107 73.0235 35.128C72.9061 35.2453 72.7375 35.304 72.5175 35.304H71.1755C70.9701 35.304 70.8088 35.2453 70.6915 35.128C70.5741 35.0107 70.4788 34.8933 70.4055 34.776L68.4255 31.3V38.428C68.4255 38.5893 68.3668 38.7287 68.2495 38.846C68.1468 38.9487 68.0148 39 67.8535 39H64.5535ZM84.041 39C83.8943 39 83.7623 38.9487 83.645 38.846C83.5277 38.7287 83.469 38.5893 83.469 38.428V24.172C83.469 24.0107 83.5277 23.8787 83.645 23.776C83.7623 23.6587 83.8943 23.6 84.041 23.6H90.465C91.741 23.6 92.8483 23.7907 93.787 24.172C94.7403 24.5533 95.481 25.1327 96.009 25.91C96.537 26.6873 96.801 27.6627 96.801 28.836C96.801 30.0093 96.537 30.9773 96.009 31.74C95.481 32.488 94.7403 33.038 93.787 33.39C92.8483 33.742 91.741 33.918 90.465 33.918H88.375V38.428C88.375 38.5893 88.3163 38.7287 88.199 38.846C88.0963 38.9487 87.9643 39 87.803 39H84.041ZM88.287 30.376H90.355C90.7803 30.376 91.1397 30.2513 91.433 30.002C91.741 29.738 91.895 29.3347 91.895 28.792C91.895 28.3813 91.7777 28.0073 91.543 27.67C91.3083 27.3327 90.9123 27.164 90.355 27.164H88.287V30.376ZM106.314 39.22C104.906 39.22 103.681 39 102.64 38.56C101.613 38.12 100.799 37.46 100.198 36.58C99.6113 35.6853 99.2959 34.578 99.2519 33.258C99.2373 32.642 99.2299 32.0113 99.2299 31.366C99.2299 30.706 99.2373 30.0533 99.2519 29.408C99.2959 28.1027 99.6113 27.0027 100.198 26.108C100.799 25.2133 101.621 24.5387 102.662 24.084C103.703 23.6147 104.921 23.38 106.314 23.38C107.693 23.38 108.903 23.6147 109.944 24.084C110.985 24.5387 111.807 25.2133 112.408 26.108C113.009 27.0027 113.325 28.1027 113.354 29.408C113.383 30.0533 113.398 30.706 113.398 31.366C113.398 32.0113 113.383 32.642 113.354 33.258C113.31 34.578 112.987 35.6853 112.386 36.58C111.799 37.46 110.985 38.12 109.944 38.56C108.917 39 107.707 39.22 106.314 39.22ZM106.314 35.48C106.93 35.48 107.436 35.2967 107.832 34.93C108.228 34.5487 108.433 33.9473 108.448 33.126C108.477 32.4953 108.492 31.8867 108.492 31.3C108.492 30.6987 108.477 30.09 108.448 29.474C108.433 28.9313 108.331 28.484 108.14 28.132C107.964 27.78 107.715 27.5233 107.392 27.362C107.084 27.2007 106.725 27.12 106.314 27.12C105.903 27.12 105.537 27.2007 105.214 27.362C104.891 27.5233 104.635 27.78 104.444 28.132C104.268 28.484 104.173 28.9313 104.158 29.474C104.143 30.09 104.136 30.6987 104.136 31.3C104.136 31.8867 104.143 32.4953 104.158 33.126C104.187 33.9473 104.393 34.5487 104.774 34.93C105.17 35.2967 105.683 35.48 106.314 35.48ZM117.216 39C117.07 39 116.938 38.9487 116.82 38.846C116.703 38.7287 116.644 38.5893 116.644 38.428V24.172C116.644 24.0107 116.703 23.8787 116.82 23.776C116.938 23.6587 117.07 23.6 117.216 23.6H123.486C125.481 23.6 127.043 24.0547 128.172 24.964C129.316 25.8733 129.888 27.142 129.888 28.77C129.888 29.7967 129.654 30.6693 129.184 31.388C128.715 32.1067 128.099 32.6713 127.336 33.082L130.196 38.274C130.24 38.362 130.262 38.4427 130.262 38.516C130.262 38.648 130.218 38.7653 130.13 38.868C130.042 38.956 129.932 39 129.8 39H126.082C125.804 39 125.591 38.934 125.444 38.802C125.298 38.6553 125.202 38.5233 125.158 38.406L122.958 33.874H121.374V38.428C121.374 38.5893 121.316 38.7287 121.198 38.846C121.096 38.9487 120.964 39 120.802 39H117.216ZM121.374 30.244H123.464C123.978 30.244 124.359 30.1047 124.608 29.826C124.858 29.5327 124.982 29.1733 124.982 28.748C124.982 28.308 124.858 27.934 124.608 27.626C124.374 27.318 123.992 27.164 123.464 27.164H121.374V30.244ZM137.021 39C136.859 39 136.72 38.9487 136.603 38.846C136.5 38.7287 136.449 38.5893 136.449 38.428V27.692H132.665C132.503 27.692 132.364 27.6407 132.247 27.538C132.144 27.4207 132.093 27.2813 132.093 27.12V24.172C132.093 24.0107 132.144 23.8787 132.247 23.776C132.364 23.6587 132.503 23.6 132.665 23.6H145.029C145.19 23.6 145.322 23.6587 145.425 23.776C145.542 23.8787 145.601 24.0107 145.601 24.172V27.12C145.601 27.2813 145.542 27.4207 145.425 27.538C145.322 27.6407 145.19 27.692 145.029 27.692H141.245V38.428C141.245 38.5893 141.186 38.7287 141.069 38.846C140.966 38.9487 140.834 39 140.673 39H137.021ZM160.013 39.22C158.649 39.22 157.446 39.0073 156.405 38.582C155.378 38.1567 154.572 37.4967 153.985 36.602C153.413 35.6927 153.127 34.5487 153.127 33.17V24.172C153.127 24.0107 153.186 23.8787 153.303 23.776C153.42 23.6587 153.552 23.6 153.699 23.6H157.285C157.446 23.6 157.578 23.6587 157.681 23.776C157.798 23.8787 157.857 24.0107 157.857 24.172V33.104C157.857 33.852 158.04 34.4167 158.407 34.798C158.774 35.1793 159.302 35.37 159.991 35.37C160.68 35.37 161.201 35.1793 161.553 34.798C161.92 34.4167 162.103 33.852 162.103 33.104V24.172C162.103 24.0107 162.162 23.8787 162.279 23.776C162.396 23.6587 162.536 23.6 162.697 23.6H166.261C166.422 23.6 166.554 23.6587 166.657 23.776C166.774 23.8787 166.833 24.0107 166.833 24.172V33.17C166.833 34.5487 166.547 35.6927 165.975 36.602C165.403 37.4967 164.604 38.1567 163.577 38.582C162.55 39.0073 161.362 39.22 160.013 39.22ZM176.542 39.22C175.002 39.22 173.719 39.0073 172.692 38.582C171.68 38.142 170.917 37.5773 170.404 36.888C169.905 36.184 169.641 35.4433 169.612 34.666C169.612 34.534 169.656 34.424 169.744 34.336C169.832 34.248 169.942 34.204 170.074 34.204H173.572C173.777 34.204 173.939 34.2407 174.056 34.314C174.173 34.3727 174.298 34.4607 174.43 34.578C174.562 34.7393 174.716 34.8933 174.892 35.04C175.068 35.172 175.295 35.282 175.574 35.37C175.853 35.4433 176.175 35.48 176.542 35.48C177.217 35.48 177.737 35.392 178.104 35.216C178.471 35.0253 178.654 34.7687 178.654 34.446C178.654 34.1967 178.551 33.9913 178.346 33.83C178.155 33.6687 177.825 33.522 177.356 33.39C176.887 33.258 176.249 33.1187 175.442 32.972C174.313 32.7813 173.337 32.5027 172.516 32.136C171.695 31.7547 171.064 31.2487 170.624 30.618C170.199 29.9727 169.986 29.1807 169.986 28.242C169.986 27.2887 170.25 26.4453 170.778 25.712C171.321 24.9787 172.069 24.4067 173.022 23.996C173.99 23.5853 175.112 23.38 176.388 23.38C177.444 23.38 178.375 23.5193 179.182 23.798C180.003 24.0767 180.693 24.4433 181.25 24.898C181.807 25.338 182.233 25.8147 182.526 26.328C182.819 26.8413 182.973 27.3327 182.988 27.802C182.988 27.934 182.937 28.0513 182.834 28.154C182.746 28.242 182.643 28.286 182.526 28.286H178.852C178.676 28.286 178.522 28.2567 178.39 28.198C178.273 28.1393 178.163 28.044 178.06 27.912C177.987 27.7067 177.803 27.5233 177.51 27.362C177.217 27.2007 176.843 27.12 176.388 27.12C175.889 27.12 175.508 27.208 175.244 27.384C174.98 27.5453 174.848 27.7873 174.848 28.11C174.848 28.33 174.929 28.5207 175.09 28.682C175.251 28.8433 175.537 28.99 175.948 29.122C176.359 29.2393 176.931 29.3713 177.664 29.518C179.057 29.7233 180.179 30.0167 181.03 30.398C181.895 30.7793 182.526 31.278 182.922 31.894C183.318 32.51 183.516 33.28 183.516 34.204C183.516 35.2453 183.215 36.14 182.614 36.888C182.013 37.636 181.184 38.2153 180.128 38.626C179.087 39.022 177.891 39.22 176.542 39.22ZM186.963 39C186.817 39 186.685 38.9487 186.567 38.846C186.45 38.7287 186.391 38.5893 186.391 38.428V24.172C186.391 24.0107 186.45 23.8787 186.567 23.776C186.685 23.6587 186.817 23.6 186.963 23.6H197.743C197.905 23.6 198.044 23.6587 198.161 23.776C198.279 23.8787 198.337 24.0107 198.337 24.172V26.768C198.337 26.9147 198.279 27.0467 198.161 27.164C198.044 27.2813 197.905 27.34 197.743 27.34H190.945V29.518H197.259C197.421 29.518 197.56 29.5767 197.677 29.694C197.795 29.7967 197.853 29.9287 197.853 30.09V32.466C197.853 32.6273 197.795 32.7667 197.677 32.884C197.56 32.9867 197.421 33.038 197.259 33.038H190.945V35.26H197.919C198.081 35.26 198.22 35.3187 198.337 35.436C198.455 35.5533 198.513 35.6927 198.513 35.854V38.428C198.513 38.5893 198.455 38.7287 198.337 38.846C198.22 38.9487 198.081 39 197.919 39H186.963ZM202.326 39C202.18 39 202.048 38.9487 201.93 38.846C201.813 38.7287 201.754 38.5893 201.754 38.428V24.172C201.754 24.0107 201.813 23.8787 201.93 23.776C202.048 23.6587 202.18 23.6 202.326 23.6H208.596C210.591 23.6 212.153 24.0547 213.282 24.964C214.426 25.8733 214.998 27.142 214.998 28.77C214.998 29.7967 214.764 30.6693 214.294 31.388C213.825 32.1067 213.209 32.6713 212.446 33.082L215.306 38.274C215.35 38.362 215.372 38.4427 215.372 38.516C215.372 38.648 215.328 38.7653 215.24 38.868C215.152 38.956 215.042 39 214.91 39H211.192C210.914 39 210.701 38.934 210.554 38.802C210.408 38.6553 210.312 38.5233 210.268 38.406L208.068 33.874H206.484V38.428C206.484 38.5893 206.426 38.7287 206.308 38.846C206.206 38.9487 206.074 39 205.912 39H202.326ZM206.484 30.244H208.574C209.088 30.244 209.469 30.1047 209.718 29.826C209.968 29.5327 210.092 29.1733 210.092 28.748C210.092 28.308 209.968 27.934 209.718 27.626C209.484 27.318 209.102 27.164 208.574 27.164H206.484V30.244Z" fill="#032064"/>
<path d="M40.6371 34.2156L41.495 33.3613H40.2843H35.9845C35.9386 33.3613 35.9085 33.3449 35.895 33.3332C35.8938 33.3321 35.8927 33.3311 35.8919 33.3302V18.531C35.8927 18.5301 35.8937 18.5292 35.895 18.5281C35.9083 18.5164 35.9385 18.5 35.9845 18.5H45.6429C45.6899 18.5 45.7197 18.5166 45.7324 18.5277C45.7336 18.5287 45.7345 18.5296 45.7353 18.5304V43.4694C45.7345 43.4702 45.7335 43.4711 45.7323 43.4721C45.7195 43.4835 45.6896 43.5 45.6427 43.5H21.5146L21.5144 18.5196C21.5144 18.5196 21.5144 18.5196 21.5144 18.5196C21.5144 18.5131 21.5143 18.5065 21.5143 18.5H30.9007C30.9468 18.5 30.9769 18.5164 30.9902 18.5281C30.9915 18.5292 30.9925 18.5301 30.9933 18.531V33.3302C30.9925 33.3311 30.9915 33.3321 30.9902 33.3332C30.9767 33.3449 30.9466 33.3613 30.9007 33.3613H26.3343H25.0435L25.9974 34.2308L33.2809 40.8695L33.633 41.1904L33.9705 40.8543L40.6371 34.2156ZM21.2285 43.4994C21.2286 43.4994 21.2302 43.4994 21.2333 43.4998C21.23 43.4997 21.2284 43.4995 21.2285 43.4994ZM21.2323 18.5004C21.2322 18.5003 21.2335 18.5002 21.2363 18.5001L21.2323 18.5004Z" fill="#032063" stroke="#6890FF"/>
</svg>
