<svg width="253" height="66" viewBox="0 0 253 66" fill="none" xmlns="http://www.w3.org/2000/svg">
<path fill-rule="evenodd" clip-rule="evenodd" d="M30.4688 0H222.531C230.612 0 238.362 3.47678 244.076 9.66548C249.79 15.8542 253 24.2479 253 33C253 41.7521 249.79 50.1458 244.076 56.3345C238.362 62.5232 230.612 66 222.531 66H30.4688C22.388 66 14.6381 62.5232 8.92411 56.3345C3.2101 50.1458 0 41.7521 0 33C0 24.2479 3.2101 15.8542 8.92411 9.66548C14.6381 3.47678 22.388 1.30417e-07 30.4688 0Z" fill="#6890FF"/>
<path fill-rule="evenodd" clip-rule="evenodd" d="M248 35.2923C247.972 42.3679 244.879 49.1465 239.394 54.1497C233.91 59.153 226.479 61.9749 218.723 62H34.2771C26.5208 61.9749 19.0901 59.153 13.6055 54.1497C8.12094 49.1465 5.02755 42.3679 5 35.2923V31H248V35.2923Z" fill="#999999"/>
<path fill-rule="evenodd" clip-rule="evenodd" d="M34.2645 5H218.735C226.497 5 233.94 7.79196 239.429 12.7617C244.917 17.7314 248 24.4718 248 31.5C248 38.5282 244.917 45.2686 239.429 50.2383C233.94 55.208 226.497 58 218.735 58H34.2645C26.5031 58 19.0595 55.208 13.5714 50.2383C8.08321 45.2686 5 38.5282 5 31.5C5 24.4718 8.08321 17.7314 13.5714 12.7617C19.0595 7.79196 26.5031 5 34.2645 5Z" fill="white"/>
<g style="mix-blend-mode:screen">
<path d="M49.0768 62.2362C49.167 62.2362 49.24 62.1874 49.24 62.1272C49.24 62.0669 49.167 62.0181 49.0768 62.0181C48.9867 62.0181 48.9136 62.0669 48.9136 62.1272C48.9136 62.1874 48.9867 62.2362 49.0768 62.2362Z" fill="#8AB4FF"/>
</g>
<path d="M56.9673 40.3569C56.8206 40.3569 56.6886 40.3056 56.5713 40.2029C56.4539 40.0856 56.3953 39.9463 56.3953 39.7849V25.5289C56.3953 25.3676 56.4539 25.2356 56.5713 25.1329C56.6886 25.0156 56.8206 24.9569 56.9673 24.9569H60.6193C60.7806 24.9569 60.9199 25.0156 61.0373 25.1329C61.1546 25.2356 61.2133 25.3676 61.2133 25.5289V36.4409H67.5713C67.7326 36.4409 67.8719 36.4996 67.9893 36.6169C68.1066 36.7196 68.1653 36.8516 68.1653 37.0129V39.7849C68.1653 39.9463 68.1066 40.0856 67.9893 40.2029C67.8719 40.3056 67.7326 40.3569 67.5713 40.3569H56.9673ZM71.4065 40.3569C71.2598 40.3569 71.1278 40.3056 71.0105 40.2029C70.8931 40.0856 70.8345 39.9463 70.8345 39.7849V25.5289C70.8345 25.3676 70.8931 25.2356 71.0105 25.1329C71.1278 25.0156 71.2598 24.9569 71.4065 24.9569H82.1865C82.3478 24.9569 82.4871 25.0156 82.6045 25.1329C82.7218 25.2356 82.7805 25.3676 82.7805 25.5289V28.1249C82.7805 28.2716 82.7218 28.4036 82.6045 28.5209C82.4871 28.6383 82.3478 28.6969 82.1865 28.6969H75.3885V30.8749H81.7025C81.8638 30.8749 82.0031 30.9336 82.1205 31.0509C82.2378 31.1536 82.2965 31.2856 82.2965 31.4469V33.8229C82.2965 33.9843 82.2378 34.1236 82.1205 34.2409C82.0031 34.3436 81.8638 34.3949 81.7025 34.3949H75.3885V36.6169H82.3625C82.5238 36.6169 82.6631 36.6756 82.7805 36.7929C82.8978 36.9103 82.9565 37.0496 82.9565 37.2109V39.7849C82.9565 39.9463 82.8978 40.0856 82.7805 40.2029C82.6631 40.3056 82.5238 40.3569 82.3625 40.3569H71.4065ZM85.4055 40.3569C85.2735 40.3569 85.1562 40.3129 85.0535 40.2249C84.9655 40.1223 84.9215 40.0049 84.9215 39.8729C84.9215 39.8143 84.9362 39.7629 84.9655 39.7189L89.9815 25.6389C90.0255 25.4776 90.1208 25.3236 90.2675 25.1769C90.4288 25.0303 90.6415 24.9569 90.9055 24.9569H94.9315C95.2102 24.9569 95.4228 25.0303 95.5695 25.1769C95.7162 25.3236 95.8115 25.4776 95.8555 25.6389L100.894 39.7189C100.908 39.7629 100.916 39.8143 100.916 39.8729C100.916 40.0049 100.864 40.1223 100.762 40.2249C100.674 40.3129 100.564 40.3569 100.432 40.3569H97.0435C96.7942 40.3569 96.6108 40.2983 96.4935 40.1809C96.3762 40.0636 96.2955 39.9536 96.2515 39.8509L95.5695 38.0029H90.2675L89.5855 39.8509C89.5415 39.9536 89.4608 40.0636 89.3435 40.1809C89.2408 40.2983 89.0575 40.3569 88.7935 40.3569H85.4055ZM91.2795 34.2849H94.5575L92.9075 29.3349L91.2795 34.2849ZM103.937 40.3569C103.791 40.3569 103.659 40.3056 103.541 40.2029C103.424 40.0856 103.365 39.9463 103.365 39.7849V25.5289C103.365 25.3676 103.424 25.2356 103.541 25.1329C103.659 25.0156 103.791 24.9569 103.937 24.9569H109.965C111.388 24.9569 112.62 25.1916 113.661 25.6609C114.703 26.1156 115.524 26.7903 116.125 27.6849C116.727 28.5796 117.049 29.6796 117.093 30.9849C117.123 31.6156 117.137 32.1729 117.137 32.6569C117.137 33.1409 117.123 33.6909 117.093 34.3069C117.035 35.6856 116.719 36.8223 116.147 37.7169C115.59 38.6116 114.798 39.2789 113.771 39.7189C112.745 40.1443 111.513 40.3569 110.075 40.3569H103.937ZM108.095 36.6169H109.965C110.449 36.6169 110.86 36.5363 111.197 36.3749C111.535 36.2136 111.799 35.9643 111.989 35.6269C112.18 35.2749 112.283 34.8276 112.297 34.2849C112.312 33.8596 112.319 33.4783 112.319 33.1409C112.334 32.8036 112.334 32.4663 112.319 32.1289C112.319 31.7916 112.312 31.4176 112.297 31.0069C112.268 30.2003 112.033 29.6136 111.593 29.2469C111.168 28.8803 110.589 28.6969 109.855 28.6969H108.095V36.6169ZM120.933 40.3569C120.786 40.3569 120.654 40.3056 120.537 40.2029C120.42 40.0856 120.361 39.9463 120.361 39.7849V25.5289C120.361 25.3676 120.42 25.2356 120.537 25.1329C120.654 25.0156 120.786 24.9569 120.933 24.9569H131.713C131.874 24.9569 132.014 25.0156 132.131 25.1329C132.248 25.2356 132.307 25.3676 132.307 25.5289V28.1249C132.307 28.2716 132.248 28.4036 132.131 28.5209C132.014 28.6383 131.874 28.6969 131.713 28.6969H124.915V30.8749H131.229C131.39 30.8749 131.53 30.9336 131.647 31.0509C131.764 31.1536 131.823 31.2856 131.823 31.4469V33.8229C131.823 33.9843 131.764 34.1236 131.647 34.2409C131.53 34.3436 131.39 34.3949 131.229 34.3949H124.915V36.6169H131.889C132.05 36.6169 132.19 36.6756 132.307 36.7929C132.424 36.9103 132.483 37.0496 132.483 37.2109V39.7849C132.483 39.9463 132.424 40.0856 132.307 40.2029C132.19 40.3056 132.05 40.3569 131.889 40.3569H120.933ZM136.296 40.3569C136.149 40.3569 136.017 40.3056 135.9 40.2029C135.783 40.0856 135.724 39.9463 135.724 39.7849V25.5289C135.724 25.3676 135.783 25.2356 135.9 25.1329C136.017 25.0156 136.149 24.9569 136.296 24.9569H142.566C144.561 24.9569 146.123 25.4116 147.252 26.3209C148.396 27.2303 148.968 28.4989 148.968 30.1269C148.968 31.1536 148.733 32.0263 148.264 32.7449C147.795 33.4636 147.179 34.0283 146.416 34.4389L149.276 39.6309C149.32 39.7189 149.342 39.7996 149.342 39.8729C149.342 40.0049 149.298 40.1223 149.21 40.2249C149.122 40.3129 149.012 40.3569 148.88 40.3569H145.162C144.883 40.3569 144.671 40.2909 144.524 40.1589C144.377 40.0123 144.282 39.8803 144.238 39.7629L142.038 35.2309H140.454V39.7849C140.454 39.9463 140.395 40.0856 140.278 40.2029C140.175 40.3056 140.043 40.3569 139.882 40.3569H136.296ZM140.454 31.6009H142.544C143.057 31.6009 143.439 31.4616 143.688 31.1829C143.937 30.8896 144.062 30.5303 144.062 30.1049C144.062 29.6649 143.937 29.2909 143.688 28.9829C143.453 28.6749 143.072 28.5209 142.544 28.5209H140.454V31.6009ZM152.841 40.3569C152.694 40.3569 152.562 40.3056 152.445 40.2029C152.328 40.0856 152.269 39.9463 152.269 39.7849V25.5289C152.269 25.3676 152.328 25.2356 152.445 25.1329C152.562 25.0156 152.694 24.9569 152.841 24.9569H159.859C161.194 24.9569 162.286 25.1329 163.137 25.4849C163.988 25.8369 164.618 26.3429 165.029 27.0029C165.44 27.6629 165.645 28.4769 165.645 29.4449C165.645 29.9436 165.542 30.3909 165.337 30.7869C165.146 31.1683 164.912 31.4909 164.633 31.7549C164.354 32.0043 164.09 32.1876 163.841 32.3049C164.413 32.5543 164.912 32.9796 165.337 33.5809C165.762 34.1676 165.975 34.8423 165.975 35.6049C165.975 36.6316 165.74 37.4969 165.271 38.2009C164.816 38.9049 164.149 39.4403 163.269 39.8069C162.404 40.1736 161.34 40.3569 160.079 40.3569H152.841ZM156.999 37.0349H159.573C160.072 37.0349 160.438 36.8883 160.673 36.5949C160.908 36.2869 161.025 35.9496 161.025 35.5829C161.025 35.2016 160.9 34.8716 160.651 34.5929C160.402 34.2996 160.042 34.1529 159.573 34.1529H156.999V37.0349ZM156.999 30.9189H159.353C159.822 30.9189 160.167 30.7869 160.387 30.5229C160.607 30.2589 160.717 29.9509 160.717 29.5989C160.717 29.2469 160.607 28.9389 160.387 28.6749C160.167 28.4109 159.822 28.2789 159.353 28.2789H156.999V30.9189ZM175.715 40.5769C174.307 40.5769 173.083 40.3569 172.041 39.9169C171.015 39.4769 170.201 38.8169 169.599 37.9369C169.013 37.0423 168.697 35.9349 168.653 34.6149C168.639 33.9989 168.631 33.3683 168.631 32.7229C168.631 32.0629 168.639 31.4103 168.653 30.7649C168.697 29.4596 169.013 28.3596 169.599 27.4649C170.201 26.5703 171.022 25.8956 172.063 25.4409C173.105 24.9716 174.322 24.7369 175.715 24.7369C177.094 24.7369 178.304 24.9716 179.345 25.4409C180.387 25.8956 181.208 26.5703 181.809 27.4649C182.411 28.3596 182.726 29.4596 182.755 30.7649C182.785 31.4103 182.799 32.0629 182.799 32.7229C182.799 33.3683 182.785 33.9989 182.755 34.6149C182.711 35.9349 182.389 37.0423 181.787 37.9369C181.201 38.8169 180.387 39.4769 179.345 39.9169C178.319 40.3569 177.109 40.5769 175.715 40.5769ZM175.715 36.8369C176.331 36.8369 176.837 36.6536 177.233 36.2869C177.629 35.9056 177.835 35.3043 177.849 34.4829C177.879 33.8523 177.893 33.2436 177.893 32.6569C177.893 32.0556 177.879 31.4469 177.849 30.8309C177.835 30.2883 177.732 29.8409 177.541 29.4889C177.365 29.1369 177.116 28.8803 176.793 28.7189C176.485 28.5576 176.126 28.4769 175.715 28.4769C175.305 28.4769 174.938 28.5576 174.615 28.7189C174.293 28.8803 174.036 29.1369 173.845 29.4889C173.669 29.8409 173.574 30.2883 173.559 30.8309C173.545 31.4469 173.537 32.0556 173.537 32.6569C173.537 33.2436 173.545 33.8523 173.559 34.4829C173.589 35.3043 173.794 35.9056 174.175 36.2869C174.571 36.6536 175.085 36.8369 175.715 36.8369ZM184.91 40.3569C184.778 40.3569 184.661 40.3129 184.558 40.2249C184.47 40.1223 184.426 40.0049 184.426 39.8729C184.426 39.8143 184.441 39.7629 184.47 39.7189L189.486 25.6389C189.53 25.4776 189.625 25.3236 189.772 25.1769C189.933 25.0303 190.146 24.9569 190.41 24.9569H194.436C194.715 24.9569 194.927 25.0303 195.074 25.1769C195.221 25.3236 195.316 25.4776 195.36 25.6389L200.398 39.7189C200.413 39.7629 200.42 39.8143 200.42 39.8729C200.42 40.0049 200.369 40.1223 200.266 40.2249C200.178 40.3129 200.068 40.3569 199.936 40.3569H196.548C196.299 40.3569 196.115 40.2983 195.998 40.1809C195.881 40.0636 195.8 39.9536 195.756 39.8509L195.074 38.0029H189.772L189.09 39.8509C189.046 39.9536 188.965 40.0636 188.848 40.1809C188.745 40.2983 188.562 40.3569 188.298 40.3569H184.91ZM190.784 34.2849H194.062L192.412 29.3349L190.784 34.2849ZM203.442 40.3569C203.295 40.3569 203.163 40.3056 203.046 40.2029C202.928 40.0856 202.87 39.9463 202.87 39.7849V25.5289C202.87 25.3676 202.928 25.2356 203.046 25.1329C203.163 25.0156 203.295 24.9569 203.442 24.9569H209.712C211.706 24.9569 213.268 25.4116 214.398 26.3209C215.542 27.2303 216.114 28.4989 216.114 30.1269C216.114 31.1536 215.879 32.0263 215.41 32.7449C214.94 33.4636 214.324 34.0283 213.562 34.4389L216.422 39.6309C216.466 39.7189 216.488 39.7996 216.488 39.8729C216.488 40.0049 216.444 40.1223 216.356 40.2249C216.268 40.3129 216.158 40.3569 216.026 40.3569H212.308C212.029 40.3569 211.816 40.2909 211.67 40.1589C211.523 40.0123 211.428 39.8803 211.384 39.7629L209.184 35.2309H207.6V39.7849C207.6 39.9463 207.541 40.0856 207.424 40.2029C207.321 40.3056 207.189 40.3569 207.028 40.3569H203.442ZM207.6 31.6009H209.69C210.203 31.6009 210.584 31.4616 210.834 31.1829C211.083 30.8896 211.208 30.5303 211.208 30.1049C211.208 29.6649 211.083 29.2909 210.834 28.9829C210.599 28.6749 210.218 28.5209 209.69 28.5209H207.6V31.6009ZM219.986 40.3569C219.84 40.3569 219.708 40.3056 219.59 40.2029C219.473 40.0856 219.414 39.9463 219.414 39.7849V25.5289C219.414 25.3676 219.473 25.2356 219.59 25.1329C219.708 25.0156 219.84 24.9569 219.986 24.9569H226.014C227.437 24.9569 228.669 25.1916 229.71 25.6609C230.752 26.1156 231.573 26.7903 232.174 27.6849C232.776 28.5796 233.098 29.6796 233.142 30.9849C233.172 31.6156 233.186 32.1729 233.186 32.6569C233.186 33.1409 233.172 33.6909 233.142 34.3069C233.084 35.6856 232.768 36.8223 232.196 37.7169C231.639 38.6116 230.847 39.2789 229.82 39.7189C228.794 40.1443 227.562 40.3569 226.124 40.3569H219.986ZM224.144 36.6169H226.014C226.498 36.6169 226.909 36.5363 227.246 36.3749C227.584 36.2136 227.848 35.9643 228.038 35.6269C228.229 35.2749 228.332 34.8276 228.346 34.2849C228.361 33.8596 228.368 33.4783 228.368 33.1409C228.383 32.8036 228.383 32.4663 228.368 32.1289C228.368 31.7916 228.361 31.4176 228.346 31.0069C228.317 30.2003 228.082 29.6136 227.642 29.2469C227.217 28.8803 226.638 28.6969 225.904 28.6969H224.144V36.6169Z" fill="#032064"/>
<rect x="19.5" y="31.4092" width="8" height="12.0909" fill="#032064" stroke="#6890FF"/>
<rect x="28.5" y="17.5" width="8" height="26" fill="#032064" stroke="#6890FF"/>
<rect x="37.5" y="25.6816" width="8" height="17.8182" fill="#032064" stroke="#6890FF"/>
</svg>
