<svg width="176" height="66" viewBox="0 0 176 66" fill="none" xmlns="http://www.w3.org/2000/svg">
<path fill-rule="evenodd" clip-rule="evenodd" d="M35.1372 0H140.863C145.477 -1.82648e-07 150.046 0.853563 154.309 2.51197C158.572 4.17037 162.446 6.60114 165.709 9.66548C168.971 12.7298 171.559 16.3677 173.325 20.3714C175.091 24.3752 176 28.6664 176 33C176 37.3336 175.091 41.6248 173.325 45.6286C171.559 49.6323 168.971 53.2702 165.709 56.3345C162.446 59.3989 158.572 61.8297 154.309 63.4881C150.046 65.1465 145.477 66 140.863 66H35.1372C25.8183 66 16.881 62.5232 10.2915 56.3345C3.70197 50.1458 0 41.7521 0 33C0 24.2479 3.70197 15.8542 10.2915 9.66548C16.881 3.47677 25.8183 0 35.1372 0Z" fill="url(#paint0_linear_25_537)"/>
<path fill-rule="evenodd" clip-rule="evenodd" d="M171 35.2923C170.969 42.3679 167.488 49.1465 161.317 54.1497C155.147 59.153 146.786 61.9749 138.059 62H38.9412C30.2142 61.9749 21.8535 59.153 15.6825 54.1497C9.51155 49.1465 6.031 42.3679 6 35.2923V31H171V35.2923Z" fill="#999999"/>
<path fill-rule="evenodd" clip-rule="evenodd" d="M38.5725 4H137.69C142.016 4 146.3 4.69837 150.296 6.05525C154.293 7.41212 157.924 9.40093 160.983 11.9081C164.042 14.4153 166.468 17.3917 168.124 20.6675C169.779 23.9433 170.631 27.4543 170.631 31C170.631 34.5457 169.779 38.0567 168.124 41.3325C166.468 44.6083 164.042 47.5847 160.983 50.0919C157.924 52.5991 154.293 54.5879 150.296 55.9448C146.3 57.3017 142.016 58 137.69 58H38.5725C29.836 58 21.4573 55.1554 15.2796 50.0919C9.10195 45.0284 5.63135 38.1608 5.63135 31C5.63135 23.8392 9.10195 16.9716 15.2796 11.9081C21.4573 6.84463 29.836 4 38.5725 4Z" fill="white"/>
<path d="M58.936 39C58.7893 39 58.6573 38.9487 58.54 38.846C58.4227 38.7287 58.364 38.5893 58.364 38.428V24.172C58.364 24.0107 58.4227 23.8787 58.54 23.776C58.6573 23.6587 58.7893 23.6 58.936 23.6H62.588C62.7493 23.6 62.8887 23.6587 63.006 23.776C63.1233 23.8787 63.182 24.0107 63.182 24.172V35.084H69.54C69.7013 35.084 69.8407 35.1427 69.958 35.26C70.0753 35.3627 70.134 35.4947 70.134 35.656V38.428C70.134 38.5893 70.0753 38.7287 69.958 38.846C69.8407 38.9487 69.7013 39 69.54 39H58.936ZM79.2753 39.22C77.8673 39.22 76.6427 39 75.6013 38.56C74.5747 38.12 73.7607 37.46 73.1593 36.58C72.5727 35.6853 72.2573 34.578 72.2133 33.258C72.1987 32.642 72.1913 32.0113 72.1913 31.366C72.1913 30.706 72.1987 30.0533 72.2133 29.408C72.2573 28.1027 72.5727 27.0027 73.1593 26.108C73.7607 25.2133 74.582 24.5387 75.6233 24.084C76.6647 23.6147 77.882 23.38 79.2753 23.38C80.654 23.38 81.864 23.6147 82.9053 24.084C83.9467 24.5387 84.768 25.2133 85.3693 26.108C85.9707 27.0027 86.286 28.1027 86.3153 29.408C86.3447 30.0533 86.3593 30.706 86.3593 31.366C86.3593 32.0113 86.3447 32.642 86.3153 33.258C86.2713 34.578 85.9487 35.6853 85.3473 36.58C84.7607 37.46 83.9467 38.12 82.9053 38.56C81.8787 39 80.6687 39.22 79.2753 39.22ZM79.2753 35.48C79.8913 35.48 80.3973 35.2967 80.7933 34.93C81.1893 34.5487 81.3947 33.9473 81.4093 33.126C81.4387 32.4953 81.4533 31.8867 81.4533 31.3C81.4533 30.6987 81.4387 30.09 81.4093 29.474C81.3947 28.9313 81.292 28.484 81.1013 28.132C80.9253 27.78 80.676 27.5233 80.3533 27.362C80.0453 27.2007 79.686 27.12 79.2753 27.12C78.8647 27.12 78.498 27.2007 78.1753 27.362C77.8527 27.5233 77.596 27.78 77.4053 28.132C77.2293 28.484 77.134 28.9313 77.1193 29.474C77.1047 30.09 77.0973 30.6987 77.0973 31.3C77.0973 31.8867 77.1047 32.4953 77.1193 33.126C77.1487 33.9473 77.354 34.5487 77.7353 34.93C78.1313 35.2967 78.6447 35.48 79.2753 35.48ZM96.3157 39.22C94.8637 39.22 93.6171 39 92.5757 38.56C91.5344 38.1053 90.7204 37.4307 90.1337 36.536C89.5471 35.6413 89.2317 34.534 89.1877 33.214C89.1731 32.598 89.1657 31.938 89.1657 31.234C89.1657 30.5153 89.1731 29.8407 89.1877 29.21C89.2317 27.934 89.5471 26.8633 90.1337 25.998C90.7351 25.1327 91.5637 24.48 92.6197 24.04C93.6757 23.6 94.9077 23.38 96.3157 23.38C97.4451 23.38 98.4497 23.512 99.3297 23.776C100.21 24.04 100.958 24.3993 101.574 24.854C102.204 25.3087 102.681 25.822 103.004 26.394C103.341 26.9513 103.517 27.5307 103.532 28.132C103.532 28.264 103.48 28.3813 103.378 28.484C103.29 28.572 103.18 28.616 103.048 28.616H98.9997C98.8531 28.616 98.7357 28.594 98.6477 28.55C98.5597 28.4913 98.4791 28.418 98.4057 28.33C98.3324 28.1833 98.2151 28.0147 98.0537 27.824C97.9071 27.6333 97.6944 27.472 97.4157 27.34C97.1371 27.1933 96.7704 27.12 96.3157 27.12C95.6264 27.12 95.0911 27.296 94.7097 27.648C94.3284 28 94.1231 28.5573 94.0937 29.32C94.0497 30.552 94.0497 31.8133 94.0937 33.104C94.1231 33.94 94.3357 34.5487 94.7317 34.93C95.1424 35.2967 95.6924 35.48 96.3817 35.48C96.8364 35.48 97.2397 35.4067 97.5917 35.26C97.9584 35.1133 98.2444 34.886 98.4497 34.578C98.6551 34.2553 98.7577 33.8447 98.7577 33.346V33.126H97.1957C97.0344 33.126 96.8951 33.0673 96.7777 32.95C96.6751 32.8327 96.6237 32.7007 96.6237 32.554V30.508C96.6237 30.3467 96.6751 30.2147 96.7777 30.112C96.8951 29.9947 97.0344 29.936 97.1957 29.936H102.982C103.143 29.936 103.282 29.9947 103.4 30.112C103.517 30.2147 103.576 30.3467 103.576 30.508V33.192C103.576 34.4827 103.268 35.5753 102.652 36.47C102.036 37.3647 101.185 38.0467 100.1 38.516C99.0144 38.9853 97.7531 39.22 96.3157 39.22ZM113.439 39.22C112.031 39.22 110.806 39 109.765 38.56C108.738 38.12 107.924 37.46 107.323 36.58C106.736 35.6853 106.421 34.578 106.377 33.258C106.362 32.642 106.355 32.0113 106.355 31.366C106.355 30.706 106.362 30.0533 106.377 29.408C106.421 28.1027 106.736 27.0027 107.323 26.108C107.924 25.2133 108.746 24.5387 109.787 24.084C110.828 23.6147 112.046 23.38 113.439 23.38C114.818 23.38 116.028 23.6147 117.069 24.084C118.11 24.5387 118.932 25.2133 119.533 26.108C120.134 27.0027 120.45 28.1027 120.479 29.408C120.508 30.0533 120.523 30.706 120.523 31.366C120.523 32.0113 120.508 32.642 120.479 33.258C120.435 34.578 120.112 35.6853 119.511 36.58C118.924 37.46 118.11 38.12 117.069 38.56C116.042 39 114.832 39.22 113.439 39.22ZM113.439 35.48C114.055 35.48 114.561 35.2967 114.957 34.93C115.353 34.5487 115.558 33.9473 115.573 33.126C115.602 32.4953 115.617 31.8867 115.617 31.3C115.617 30.6987 115.602 30.09 115.573 29.474C115.558 28.9313 115.456 28.484 115.265 28.132C115.089 27.78 114.84 27.5233 114.517 27.362C114.209 27.2007 113.85 27.12 113.439 27.12C113.028 27.12 112.662 27.2007 112.339 27.362C112.016 27.5233 111.76 27.78 111.569 28.132C111.393 28.484 111.298 28.9313 111.283 29.474C111.268 30.09 111.261 30.6987 111.261 31.3C111.261 31.8867 111.268 32.4953 111.283 33.126C111.312 33.9473 111.518 34.5487 111.899 34.93C112.295 35.2967 112.808 35.48 113.439 35.48ZM130.523 39.22C129.159 39.22 127.957 39.0073 126.915 38.582C125.889 38.1567 125.082 37.4967 124.495 36.602C123.923 35.6927 123.637 34.5487 123.637 33.17V24.172C123.637 24.0107 123.696 23.8787 123.813 23.776C123.931 23.6587 124.063 23.6 124.209 23.6H127.795C127.957 23.6 128.089 23.6587 128.191 23.776C128.309 23.8787 128.367 24.0107 128.367 24.172V33.104C128.367 33.852 128.551 34.4167 128.917 34.798C129.284 35.1793 129.812 35.37 130.501 35.37C131.191 35.37 131.711 35.1793 132.063 34.798C132.43 34.4167 132.613 33.852 132.613 33.104V24.172C132.613 24.0107 132.672 23.8787 132.789 23.776C132.907 23.6587 133.046 23.6 133.207 23.6H136.771C136.933 23.6 137.065 23.6587 137.167 23.776C137.285 23.8787 137.343 24.0107 137.343 24.172V33.17C137.343 34.5487 137.057 35.6927 136.485 36.602C135.913 37.4967 135.114 38.1567 134.087 38.582C133.061 39.0073 131.873 39.22 130.523 39.22ZM144.941 39C144.779 39 144.64 38.9487 144.523 38.846C144.42 38.7287 144.369 38.5893 144.369 38.428V27.692H140.585C140.423 27.692 140.284 27.6407 140.167 27.538C140.064 27.4207 140.013 27.2813 140.013 27.12V24.172C140.013 24.0107 140.064 23.8787 140.167 23.776C140.284 23.6587 140.423 23.6 140.585 23.6H152.949C153.11 23.6 153.242 23.6587 153.345 23.776C153.462 23.8787 153.521 24.0107 153.521 24.172V27.12C153.521 27.2813 153.462 27.4207 153.345 27.538C153.242 27.6407 153.11 27.692 152.949 27.692H149.165V38.428C149.165 38.5893 149.106 38.7287 148.989 38.846C148.886 38.9487 148.754 39 148.593 39H144.941Z" fill="#032064"/>
<path d="M35.5 44C28.044 44 22 37.956 22 30.5C22 23.044 28.044 17 35.5 17C42.956 17 49 23.044 49 30.5C49 37.956 42.956 44 35.5 44ZM31 28.5V23L22 30.5L31 38V32.5H43V28.5H31Z" fill="#032064"/>
<path d="M22 30.5C22 37.956 28.044 44 35.5 44C42.956 44 49 37.956 49 30.5C49 23.044 42.956 17 35.5 17C28.044 17 22 23.044 22 30.5ZM22 30.5L31 23V28.5H43V32.5H31V38L22 30.5Z" stroke="#6890FF" stroke-width="1.2"/>
<defs>
<linearGradient id="paint0_linear_25_537" x1="88.0314" y1="66" x2="88.0314" y2="0" gradientUnits="userSpaceOnUse">
<stop stop-color="#6890FF"/>
<stop offset="1" stop-color="#6890FF"/>
</linearGradient>
</defs>
</svg>
