<svg width="253" height="66" viewBox="0 0 253 66" fill="none" xmlns="http://www.w3.org/2000/svg">
<path fill-rule="evenodd" clip-rule="evenodd" d="M30.4688 0H222.531C230.612 0 238.362 3.47678 244.076 9.66548C249.79 15.8542 253 24.2479 253 33C253 41.7521 249.79 50.1458 244.076 56.3345C238.362 62.5232 230.612 66 222.531 66H30.4688C22.388 66 14.6381 62.5232 8.92411 56.3345C3.2101 50.1458 0 41.7521 0 33C0 24.2479 3.2101 15.8542 8.92411 9.66548C14.6381 3.47678 22.388 1.30417e-07 30.4688 0Z" fill="#6890FF"/>
<path fill-rule="evenodd" clip-rule="evenodd" d="M248 35.2923C247.972 42.3679 244.879 49.1465 239.395 54.1497C233.91 59.153 226.479 61.9749 218.723 62H34.2771C26.5208 61.9749 19.0901 59.153 13.6055 54.1497C8.12094 49.1465 5.02755 42.3679 5 35.2923V31H248V35.2923Z" fill="#999999"/>
<path fill-rule="evenodd" clip-rule="evenodd" d="M34.2645 5H218.735C226.497 5 233.94 7.79196 239.429 12.7617C244.917 17.7314 248 24.4718 248 31.5C248 38.5282 244.917 45.2686 239.429 50.2383C233.94 55.208 226.497 58 218.735 58H34.2645C26.5031 58 19.0595 55.208 13.5714 50.2383C8.08321 45.2686 5 38.5282 5 31.5C5 24.4718 8.08321 17.7314 13.5714 12.7617C19.0595 7.79196 26.5031 5 34.2645 5Z" fill="white"/>
<g style="mix-blend-mode:screen">
<path d="M49.0768 62.2362C49.167 62.2362 49.24 62.1874 49.24 62.1272C49.24 62.0669 49.167 62.0181 49.0768 62.0181C48.9867 62.0181 48.9136 62.0669 48.9136 62.1272C48.9136 62.1874 48.9867 62.2362 49.0768 62.2362Z" fill="#8AB4FF"/>
</g>
<path d="M60.936 40C60.7893 40 60.6573 39.9487 60.54 39.846C60.4227 39.7287 60.364 39.5893 60.364 39.428V25.172C60.364 25.0107 60.4227 24.8787 60.54 24.776C60.6573 24.6587 60.7893 24.6 60.936 24.6H63.862C64.126 24.6 64.3167 24.666 64.434 24.798C64.5513 24.9153 64.632 25.0033 64.676 25.062L69.208 32.344V25.172C69.208 25.0107 69.2667 24.8787 69.384 24.776C69.5013 24.6587 69.6333 24.6 69.78 24.6H73.102C73.2633 24.6 73.3953 24.6587 73.498 24.776C73.6153 24.8787 73.674 25.0107 73.674 25.172V39.428C73.674 39.5893 73.6153 39.7287 73.498 39.846C73.3953 39.9487 73.2633 40 73.102 40H70.198C69.9193 40 69.7213 39.9413 69.604 39.824C69.4867 39.692 69.406 39.5967 69.362 39.538L64.83 32.674V39.428C64.83 39.5893 64.7713 39.7287 64.654 39.846C64.5513 39.9487 64.4193 40 64.258 40H60.936ZM84.0683 40.22C82.6603 40.22 81.4356 40 80.3943 39.56C79.3676 39.12 78.5536 38.46 77.9523 37.58C77.3656 36.6853 77.0503 35.578 77.0063 34.258C76.9916 33.642 76.9843 33.0113 76.9843 32.366C76.9843 31.706 76.9916 31.0533 77.0063 30.408C77.0503 29.1027 77.3656 28.0027 77.9523 27.108C78.5536 26.2133 79.375 25.5387 80.4163 25.084C81.4576 24.6147 82.675 24.38 84.0683 24.38C85.447 24.38 86.657 24.6147 87.6983 25.084C88.7396 25.5387 89.561 26.2133 90.1623 27.108C90.7636 28.0027 91.079 29.1027 91.1083 30.408C91.1376 31.0533 91.1523 31.706 91.1523 32.366C91.1523 33.0113 91.1376 33.642 91.1083 34.258C91.0643 35.578 90.7416 36.6853 90.1403 37.58C89.5536 38.46 88.7396 39.12 87.6983 39.56C86.6716 40 85.4616 40.22 84.0683 40.22ZM84.0683 36.48C84.6843 36.48 85.1903 36.2967 85.5863 35.93C85.9823 35.5487 86.1876 34.9473 86.2023 34.126C86.2316 33.4953 86.2463 32.8867 86.2463 32.3C86.2463 31.6987 86.2316 31.09 86.2023 30.474C86.1876 29.9313 86.085 29.484 85.8943 29.132C85.7183 28.78 85.469 28.5233 85.1463 28.362C84.8383 28.2007 84.479 28.12 84.0683 28.12C83.6576 28.12 83.291 28.2007 82.9683 28.362C82.6456 28.5233 82.389 28.78 82.1983 29.132C82.0223 29.484 81.927 29.9313 81.9123 30.474C81.8976 31.09 81.8903 31.6987 81.8903 32.3C81.8903 32.8867 81.8976 33.4953 81.9123 34.126C81.9416 34.9473 82.147 35.5487 82.5283 35.93C82.9243 36.2967 83.4376 36.48 84.0683 36.48ZM98.1873 40C98.026 40 97.8867 39.9487 97.7693 39.846C97.6667 39.7287 97.6153 39.5893 97.6153 39.428V28.692H93.8313C93.67 28.692 93.5307 28.6407 93.4133 28.538C93.3107 28.4207 93.2593 28.2813 93.2593 28.12V25.172C93.2593 25.0107 93.3107 24.8787 93.4133 24.776C93.5307 24.6587 93.67 24.6 93.8313 24.6H106.195C106.357 24.6 106.489 24.6587 106.591 24.776C106.709 24.8787 106.767 25.0107 106.767 25.172V28.12C106.767 28.2813 106.709 28.4207 106.591 28.538C106.489 28.6407 106.357 28.692 106.195 28.692H102.411V39.428C102.411 39.5893 102.353 39.7287 102.235 39.846C102.133 39.9487 102.001 40 101.839 40H98.1873ZM110.119 40C109.972 40 109.84 39.9487 109.723 39.846C109.606 39.7287 109.547 39.5893 109.547 39.428V25.172C109.547 25.0107 109.606 24.8787 109.723 24.776C109.84 24.6587 109.972 24.6 110.119 24.6H113.859C114.02 24.6 114.152 24.6587 114.255 24.776C114.372 24.8787 114.431 25.0107 114.431 25.172V39.428C114.431 39.5893 114.372 39.7287 114.255 39.846C114.152 39.9487 114.02 40 113.859 40H110.119ZM118.714 40C118.568 40 118.436 39.9487 118.318 39.846C118.201 39.7287 118.142 39.5893 118.142 39.428V25.172C118.142 25.0107 118.201 24.8787 118.318 24.776C118.436 24.6587 118.568 24.6 118.714 24.6H129.318C129.48 24.6 129.619 24.6587 129.736 24.776C129.854 24.8787 129.912 25.0107 129.912 25.172V27.966C129.912 28.1127 129.854 28.2447 129.736 28.362C129.619 28.4793 129.48 28.538 129.318 28.538H122.784V30.958H128.878C129.04 30.958 129.179 31.0167 129.296 31.134C129.414 31.2367 129.472 31.3687 129.472 31.53V34.302C129.472 34.4633 129.414 34.6027 129.296 34.72C129.179 34.8227 129.04 34.874 128.878 34.874H122.784V39.428C122.784 39.5893 122.726 39.7287 122.608 39.846C122.506 39.9487 122.374 40 122.212 40H118.714ZM133.605 40C133.458 40 133.326 39.9487 133.209 39.846C133.091 39.7287 133.033 39.5893 133.033 39.428V25.172C133.033 25.0107 133.091 24.8787 133.209 24.776C133.326 24.6587 133.458 24.6 133.605 24.6H137.345C137.506 24.6 137.638 24.6587 137.741 24.776C137.858 24.8787 137.917 25.0107 137.917 25.172V39.428C137.917 39.5893 137.858 39.7287 137.741 39.846C137.638 39.9487 137.506 40 137.345 40H133.605ZM148.272 40.22C146.879 40.22 145.662 40.0073 144.62 39.582C143.579 39.142 142.758 38.482 142.156 37.602C141.57 36.722 141.247 35.6073 141.188 34.258C141.174 33.6567 141.166 33.0113 141.166 32.322C141.166 31.6327 141.174 30.9727 141.188 30.342C141.247 29.022 141.577 27.922 142.178 27.042C142.794 26.1473 143.623 25.48 144.664 25.04C145.72 24.6 146.923 24.38 148.272 24.38C149.24 24.38 150.142 24.4973 150.978 24.732C151.829 24.952 152.584 25.2967 153.244 25.766C153.904 26.2207 154.425 26.7927 154.806 27.482C155.188 28.1567 155.386 28.9487 155.4 29.858C155.4 29.99 155.349 30.1 155.246 30.188C155.158 30.276 155.048 30.32 154.916 30.32H151.198C150.978 30.32 150.817 30.276 150.714 30.188C150.612 30.1 150.524 29.946 150.45 29.726C150.26 29.0953 149.981 28.67 149.614 28.45C149.248 28.23 148.8 28.12 148.272 28.12C147.627 28.12 147.114 28.296 146.732 28.648C146.351 28.9853 146.146 29.5867 146.116 30.452C146.072 31.6547 146.072 32.8867 146.116 34.148C146.146 35.0133 146.351 35.622 146.732 35.974C147.114 36.3113 147.627 36.48 148.272 36.48C148.8 36.48 149.248 36.3627 149.614 36.128C149.996 35.8933 150.274 35.4753 150.45 34.874C150.509 34.6393 150.59 34.4853 150.692 34.412C150.81 34.324 150.978 34.28 151.198 34.28H154.916C155.048 34.28 155.158 34.324 155.246 34.412C155.349 34.5 155.4 34.61 155.4 34.742C155.386 35.6513 155.188 36.4507 154.806 37.14C154.425 37.8147 153.904 38.3867 153.244 38.856C152.584 39.3107 151.829 39.6553 150.978 39.89C150.142 40.11 149.24 40.22 148.272 40.22ZM157.402 40C157.27 40 157.153 39.956 157.05 39.868C156.962 39.7653 156.918 39.648 156.918 39.516C156.918 39.4573 156.933 39.406 156.962 39.362L161.978 25.282C162.022 25.1207 162.118 24.9667 162.264 24.82C162.426 24.6733 162.638 24.6 162.902 24.6H166.928C167.207 24.6 167.42 24.6733 167.566 24.82C167.713 24.9667 167.808 25.1207 167.852 25.282L172.89 39.362C172.905 39.406 172.912 39.4573 172.912 39.516C172.912 39.648 172.861 39.7653 172.758 39.868C172.67 39.956 172.56 40 172.428 40H169.04C168.791 40 168.608 39.9413 168.49 39.824C168.373 39.7067 168.292 39.5967 168.248 39.494L167.566 37.646H162.264L161.582 39.494C161.538 39.5967 161.458 39.7067 161.34 39.824C161.238 39.9413 161.054 40 160.79 40H157.402ZM163.276 33.928H166.554L164.904 28.978L163.276 33.928ZM177.797 40C177.636 40 177.497 39.9487 177.379 39.846C177.277 39.7287 177.225 39.5893 177.225 39.428V28.692H173.441C173.28 28.692 173.141 28.6407 173.023 28.538C172.921 28.4207 172.869 28.2813 172.869 28.12V25.172C172.869 25.0107 172.921 24.8787 173.023 24.776C173.141 24.6587 173.28 24.6 173.441 24.6H185.805C185.967 24.6 186.099 24.6587 186.201 24.776C186.319 24.8787 186.377 25.0107 186.377 25.172V28.12C186.377 28.2813 186.319 28.4207 186.201 28.538C186.099 28.6407 185.967 28.692 185.805 28.692H182.021V39.428C182.021 39.5893 181.963 39.7287 181.845 39.846C181.743 39.9487 181.611 40 181.449 40H177.797ZM189.729 40C189.582 40 189.45 39.9487 189.333 39.846C189.215 39.7287 189.157 39.5893 189.157 39.428V25.172C189.157 25.0107 189.215 24.8787 189.333 24.776C189.45 24.6587 189.582 24.6 189.729 24.6H193.469C193.63 24.6 193.762 24.6587 193.865 24.776C193.982 24.8787 194.041 25.0107 194.041 25.172V39.428C194.041 39.5893 193.982 39.7287 193.865 39.846C193.762 39.9487 193.63 40 193.469 40H189.729ZM204.396 40.22C202.988 40.22 201.764 40 200.722 39.56C199.696 39.12 198.882 38.46 198.28 37.58C197.694 36.6853 197.378 35.578 197.334 34.258C197.32 33.642 197.312 33.0113 197.312 32.366C197.312 31.706 197.32 31.0533 197.334 30.408C197.378 29.1027 197.694 28.0027 198.28 27.108C198.882 26.2133 199.703 25.5387 200.744 25.084C201.786 24.6147 203.003 24.38 204.396 24.38C205.775 24.38 206.985 24.6147 208.026 25.084C209.068 25.5387 209.889 26.2133 210.49 27.108C211.092 28.0027 211.407 29.1027 211.436 30.408C211.466 31.0533 211.48 31.706 211.48 32.366C211.48 33.0113 211.466 33.642 211.436 34.258C211.392 35.578 211.07 36.6853 210.468 37.58C209.882 38.46 209.068 39.12 208.026 39.56C207 40 205.79 40.22 204.396 40.22ZM204.396 36.48C205.012 36.48 205.518 36.2967 205.914 35.93C206.31 35.5487 206.516 34.9473 206.53 34.126C206.56 33.4953 206.574 32.8867 206.574 32.3C206.574 31.6987 206.56 31.09 206.53 30.474C206.516 29.9313 206.413 29.484 206.222 29.132C206.046 28.78 205.797 28.5233 205.474 28.362C205.166 28.2007 204.807 28.12 204.396 28.12C203.986 28.12 203.619 28.2007 203.296 28.362C202.974 28.5233 202.717 28.78 202.526 29.132C202.35 29.484 202.255 29.9313 202.24 30.474C202.226 31.09 202.218 31.6987 202.218 32.3C202.218 32.8867 202.226 33.4953 202.24 34.126C202.27 34.9473 202.475 35.5487 202.856 35.93C203.252 36.2967 203.766 36.48 204.396 36.48ZM215.299 40C215.152 40 215.02 39.9487 214.903 39.846C214.785 39.7287 214.727 39.5893 214.727 39.428V25.172C214.727 25.0107 214.785 24.8787 214.903 24.776C215.02 24.6587 215.152 24.6 215.299 24.6H218.225C218.489 24.6 218.679 24.666 218.797 24.798C218.914 24.9153 218.995 25.0033 219.039 25.062L223.571 32.344V25.172C223.571 25.0107 223.629 24.8787 223.747 24.776C223.864 24.6587 223.996 24.6 224.143 24.6H227.465C227.626 24.6 227.758 24.6587 227.861 24.776C227.978 24.8787 228.037 25.0107 228.037 25.172V39.428C228.037 39.5893 227.978 39.7287 227.861 39.846C227.758 39.9487 227.626 40 227.465 40H224.561C224.282 40 224.084 39.9413 223.967 39.824C223.849 39.692 223.769 39.5967 223.725 39.538L219.193 32.674V39.428C219.193 39.5893 219.134 39.7287 219.017 39.846C218.914 39.9487 218.782 40 218.621 40H215.299Z" fill="#032064"/>
<mask id="path-6-outside-1_25_487" maskUnits="userSpaceOnUse" x="22" y="16" width="31" height="31" fill="black">
<rect fill="white" x="22" y="16" width="31" height="31"/>
<path d="M51 39.8571V41.1429H24V39.8571L27 37.2857V29.5714C27 25.5857 30.045 22.0757 34.5 20.9443V20.5714C34.5 19.8894 34.8161 19.2354 35.3787 18.7532C35.9413 18.2709 36.7044 18 37.5 18C38.2956 18 39.0587 18.2709 39.6213 18.7532C40.1839 19.2354 40.5 19.8894 40.5 20.5714V20.9443C44.955 22.0757 48 25.5857 48 29.5714V37.2857L51 39.8571ZM40.5 42.4286C40.5 43.1106 40.1839 43.7646 39.6213 44.2468C39.0587 44.7291 38.2956 45 37.5 45C36.7044 45 35.9413 44.7291 35.3787 44.2468C34.8161 43.7646 34.5 43.1106 34.5 42.4286"/>
</mask>
<path d="M51 39.8571V41.1429H24V39.8571L27 37.2857V29.5714C27 25.5857 30.045 22.0757 34.5 20.9443V20.5714C34.5 19.8894 34.8161 19.2354 35.3787 18.7532C35.9413 18.2709 36.7044 18 37.5 18C38.2956 18 39.0587 18.2709 39.6213 18.7532C40.1839 19.2354 40.5 19.8894 40.5 20.5714V20.9443C44.955 22.0757 48 25.5857 48 29.5714V37.2857L51 39.8571ZM40.5 42.4286C40.5 43.1106 40.1839 43.7646 39.6213 44.2468C39.0587 44.7291 38.2956 45 37.5 45C36.7044 45 35.9413 44.7291 35.3787 44.2468C34.8161 43.7646 34.5 43.1106 34.5 42.4286" fill="#032064"/>
<path d="M51 39.8571H52.2V39.3052L51.7809 38.946L51 39.8571ZM51 41.1429V42.3429H52.2V41.1429H51ZM24 41.1429H22.8V42.3429H24V41.1429ZM24 39.8571L23.2191 38.946L22.8 39.3052V39.8571H24ZM27 37.2857L27.7809 38.1968L28.2 37.8376V37.2857H27ZM34.5 20.9443L34.7954 22.1074L35.7 21.8776V20.9443H34.5ZM37.5 18V16.8V18ZM40.5 20.9443H39.3V21.8776L40.2046 22.1074L40.5 20.9443ZM48 37.2857H46.8V37.8376L47.2191 38.1968L48 37.2857ZM49.8 39.8571V41.1429H52.2V39.8571H49.8ZM51 39.9429H24V42.3429H51V39.9429ZM25.2 41.1429V39.8571H22.8V41.1429H25.2ZM24.7809 40.7683L27.7809 38.1968L26.2191 36.3746L23.2191 38.946L24.7809 40.7683ZM28.2 37.2857V29.5714H25.8V37.2857H28.2ZM28.2 29.5714C28.2 26.2408 30.7622 23.1317 34.7954 22.1074L34.2046 19.7812C29.3278 21.0198 25.8 24.9306 25.8 29.5714H28.2ZM35.7 20.9443V20.5714H33.3V20.9443H35.7ZM35.7 20.5714C35.7 20.2726 35.837 19.9408 36.1596 19.6643L34.5977 17.842C33.7952 18.5299 33.3 19.5062 33.3 20.5714H35.7ZM36.1596 19.6643C36.488 19.3828 36.968 19.2 37.5 19.2V16.8C36.4407 16.8 35.3946 17.159 34.5977 17.842L36.1596 19.6643ZM37.5 19.2C38.032 19.2 38.512 19.3828 38.8404 19.6643L40.4023 17.842C39.6054 17.159 38.5593 16.8 37.5 16.8V19.2ZM38.8404 19.6643C39.163 19.9408 39.3 20.2726 39.3 20.5714H41.7C41.7 19.5062 41.2048 18.5299 40.4023 17.842L38.8404 19.6643ZM39.3 20.5714V20.9443H41.7V20.5714H39.3ZM40.2046 22.1074C44.2378 23.1317 46.8 26.2408 46.8 29.5714H49.2C49.2 24.9306 45.6722 21.0198 40.7954 19.7812L40.2046 22.1074ZM46.8 29.5714V37.2857H49.2V29.5714H46.8ZM47.2191 38.1968L50.2191 40.7683L51.7809 38.946L48.7809 36.3746L47.2191 38.1968ZM39.3 42.4286C39.3 42.7274 39.163 43.0592 38.8404 43.3357L40.4023 45.158C41.2048 44.47 41.7 43.4938 41.7 42.4286H39.3ZM38.8404 43.3357C38.512 43.6172 38.032 43.8 37.5 43.8V46.2C38.5593 46.2 39.6054 45.841 40.4023 45.158L38.8404 43.3357ZM37.5 43.8C36.968 43.8 36.488 43.6172 36.1596 43.3357L34.5977 45.158C35.3946 45.841 36.4407 46.2 37.5 46.2V43.8ZM36.1596 43.3357C35.837 43.0592 35.7 42.7274 35.7 42.4286H33.3C33.3 43.4938 33.7952 44.47 34.5977 45.158L36.1596 43.3357Z" fill="#6890FF" mask="url(#path-6-outside-1_25_487)"/>
</svg>
