<svg width="190" height="66" viewBox="0 0 190 66" fill="none" xmlns="http://www.w3.org/2000/svg">
<path fill-rule="evenodd" clip-rule="evenodd" d="M37.9322 0H152.068C157.049 -1.82648e-07 161.982 0.853563 166.584 2.51197C171.186 4.17037 175.368 6.60114 178.89 9.66548C182.412 12.7298 185.206 16.3677 187.113 20.3714C189.019 24.3752 190 28.6664 190 33C190 37.3336 189.019 41.6248 187.113 45.6286C185.206 49.6323 182.412 53.2702 178.89 56.3345C175.368 59.3989 171.186 61.8297 166.584 63.4881C161.982 65.1465 157.049 66 152.068 66H37.9322C27.872 66 18.2238 62.5232 11.1101 56.3345C3.99645 50.1458 0 41.7521 0 33C0 24.2479 3.99645 15.8542 11.1101 9.66548C18.2238 3.47677 27.872 0 37.9322 0Z" fill="url(#paint0_linear_25_440)"/>
<path fill-rule="evenodd" clip-rule="evenodd" d="M185 35.2923C184.966 42.3679 181.169 49.1465 174.437 54.1497C167.705 59.153 158.585 61.9749 149.064 62H40.9358C31.4154 61.9749 22.2947 59.153 15.5627 54.1497C8.83078 49.1465 5.03382 42.3679 5 35.2923V31H185V35.2923Z" fill="#999999"/>
<path fill-rule="evenodd" clip-rule="evenodd" d="M40.9358 4H149.064C153.783 4 158.456 4.69837 162.816 6.05525C167.176 7.41212 171.138 9.40093 174.475 11.9081C177.812 14.4153 180.459 17.3917 182.264 20.6675C184.07 23.9433 185 27.4543 185 31C185 34.5457 184.07 38.0567 182.264 41.3325C180.459 44.6083 177.812 47.5847 174.475 50.0919C171.138 52.5991 167.176 54.5879 162.816 55.9448C158.456 57.3017 153.783 58 149.064 58H40.9358C31.405 58 22.2647 55.1554 15.5254 50.0919C8.78611 45.0284 5 38.1608 5 31C5 23.8392 8.78611 16.9716 15.5254 11.9081C22.2647 6.84463 31.405 4 40.9358 4Z" fill="white"/>
<path d="M61.346 39C61.1847 39 61.0453 38.9487 60.928 38.846C60.8253 38.7287 60.774 38.5893 60.774 38.428V27.692H56.99C56.8287 27.692 56.6893 27.6407 56.572 27.538C56.4693 27.4207 56.418 27.2813 56.418 27.12V24.172C56.418 24.0107 56.4693 23.8787 56.572 23.776C56.6893 23.6587 56.8287 23.6 56.99 23.6H69.354C69.5153 23.6 69.6473 23.6587 69.75 23.776C69.8673 23.8787 69.926 24.0107 69.926 24.172V27.12C69.926 27.2813 69.8673 27.4207 69.75 27.538C69.6473 27.6407 69.5153 27.692 69.354 27.692H65.57V38.428C65.57 38.5893 65.5113 38.7287 65.394 38.846C65.2913 38.9487 65.1593 39 64.998 39H61.346ZM73.2776 39C73.1309 39 72.9989 38.9487 72.8816 38.846C72.7642 38.7287 72.7056 38.5893 72.7056 38.428V24.172C72.7056 24.0107 72.7642 23.8787 72.8816 23.776C72.9989 23.6587 73.1309 23.6 73.2776 23.6H79.5476C81.5422 23.6 83.1042 24.0547 84.2336 24.964C85.3776 25.8733 85.9496 27.142 85.9496 28.77C85.9496 29.7967 85.7149 30.6693 85.2456 31.388C84.7762 32.1067 84.1602 32.6713 83.3976 33.082L86.2576 38.274C86.3016 38.362 86.3236 38.4427 86.3236 38.516C86.3236 38.648 86.2796 38.7653 86.1916 38.868C86.1036 38.956 85.9936 39 85.8616 39H82.1436C81.8649 39 81.6522 38.934 81.5056 38.802C81.3589 38.6553 81.2636 38.5233 81.2196 38.406L79.0196 33.874H77.4356V38.428C77.4356 38.5893 77.3769 38.7287 77.2596 38.846C77.1569 38.9487 77.0249 39 76.8636 39H73.2776ZM77.4356 30.244H79.5256C80.0389 30.244 80.4202 30.1047 80.6696 29.826C80.9189 29.5327 81.0436 29.1733 81.0436 28.748C81.0436 28.308 80.9189 27.934 80.6696 27.626C80.4349 27.318 80.0536 27.164 79.5256 27.164H77.4356V30.244ZM88.4582 39C88.3262 39 88.2089 38.956 88.1062 38.868C88.0182 38.7653 87.9742 38.648 87.9742 38.516C87.9742 38.4573 87.9889 38.406 88.0182 38.362L93.0342 24.282C93.0782 24.1207 93.1736 23.9667 93.3202 23.82C93.4816 23.6733 93.6942 23.6 93.9583 23.6H97.9843C98.2629 23.6 98.4756 23.6733 98.6223 23.82C98.7689 23.9667 98.8643 24.1207 98.9083 24.282L103.946 38.362C103.961 38.406 103.968 38.4573 103.968 38.516C103.968 38.648 103.917 38.7653 103.814 38.868C103.726 38.956 103.616 39 103.484 39H100.096C99.8469 39 99.6636 38.9413 99.5463 38.824C99.4289 38.7067 99.3483 38.5967 99.3043 38.494L98.6223 36.646H93.3202L92.6382 38.494C92.5942 38.5967 92.5136 38.7067 92.3962 38.824C92.2936 38.9413 92.1102 39 91.8462 39H88.4582ZM94.3322 32.928H97.6103L95.9602 27.978L94.3322 32.928ZM112.718 39.22C111.325 39.22 110.108 39.0073 109.066 38.582C108.025 38.142 107.204 37.482 106.602 36.602C106.016 35.722 105.693 34.6073 105.634 33.258C105.62 32.6567 105.612 32.0113 105.612 31.322C105.612 30.6327 105.62 29.9727 105.634 29.342C105.693 28.022 106.023 26.922 106.624 26.042C107.24 25.1473 108.069 24.48 109.11 24.04C110.166 23.6 111.369 23.38 112.718 23.38C113.686 23.38 114.588 23.4973 115.424 23.732C116.275 23.952 117.03 24.2967 117.69 24.766C118.35 25.2207 118.871 25.7927 119.252 26.482C119.634 27.1567 119.832 27.9487 119.846 28.858C119.846 28.99 119.795 29.1 119.692 29.188C119.604 29.276 119.494 29.32 119.362 29.32H115.644C115.424 29.32 115.263 29.276 115.16 29.188C115.058 29.1 114.97 28.946 114.896 28.726C114.706 28.0953 114.427 27.67 114.06 27.45C113.694 27.23 113.246 27.12 112.718 27.12C112.073 27.12 111.56 27.296 111.178 27.648C110.797 27.9853 110.592 28.5867 110.562 29.452C110.518 30.6547 110.518 31.8867 110.562 33.148C110.592 34.0133 110.797 34.622 111.178 34.974C111.56 35.3113 112.073 35.48 112.718 35.48C113.246 35.48 113.694 35.3627 114.06 35.128C114.442 34.8933 114.72 34.4753 114.896 33.874C114.955 33.6393 115.036 33.4853 115.138 33.412C115.256 33.324 115.424 33.28 115.644 33.28H119.362C119.494 33.28 119.604 33.324 119.692 33.412C119.795 33.5 119.846 33.61 119.846 33.742C119.832 34.6513 119.634 35.4507 119.252 36.14C118.871 36.8147 118.35 37.3867 117.69 37.856C117.03 38.3107 116.275 38.6553 115.424 38.89C114.588 39.11 113.686 39.22 112.718 39.22ZM123.427 39C123.281 39 123.149 38.9487 123.031 38.846C122.914 38.7287 122.855 38.5893 122.855 38.428V24.172C122.855 24.0107 122.914 23.8787 123.031 23.776C123.149 23.6587 123.281 23.6 123.427 23.6H126.925C127.087 23.6 127.219 23.6587 127.321 23.776C127.439 23.8787 127.497 24.0107 127.497 24.172V28.792L130.775 24.062C130.849 23.9593 130.951 23.8567 131.083 23.754C131.215 23.6513 131.399 23.6 131.633 23.6H135.659C135.791 23.6 135.901 23.6513 135.989 23.754C136.092 23.842 136.143 23.952 136.143 24.084C136.143 24.172 136.114 24.2527 136.055 24.326L131.435 30.97L136.451 38.274C136.51 38.3327 136.539 38.4133 136.539 38.516C136.539 38.648 136.488 38.7653 136.385 38.868C136.297 38.956 136.187 39 136.055 39H131.897C131.619 39 131.406 38.934 131.259 38.802C131.127 38.67 131.047 38.5747 131.017 38.516L127.497 33.412V38.428C127.497 38.5893 127.439 38.7287 127.321 38.846C127.219 38.9487 127.087 39 126.925 39H123.427ZM139.585 39C139.439 39 139.307 38.9487 139.189 38.846C139.072 38.7287 139.013 38.5893 139.013 38.428V24.172C139.013 24.0107 139.072 23.8787 139.189 23.776C139.307 23.6587 139.439 23.6 139.585 23.6H150.365C150.527 23.6 150.666 23.6587 150.783 23.776C150.901 23.8787 150.959 24.0107 150.959 24.172V26.768C150.959 26.9147 150.901 27.0467 150.783 27.164C150.666 27.2813 150.527 27.34 150.365 27.34H143.567V29.518H149.881C150.043 29.518 150.182 29.5767 150.299 29.694C150.417 29.7967 150.475 29.9287 150.475 30.09V32.466C150.475 32.6273 150.417 32.7667 150.299 32.884C150.182 32.9867 150.043 33.038 149.881 33.038H143.567V35.26H150.541C150.703 35.26 150.842 35.3187 150.959 35.436C151.077 35.5533 151.135 35.6927 151.135 35.854V38.428C151.135 38.5893 151.077 38.7287 150.959 38.846C150.842 38.9487 150.703 39 150.541 39H139.585ZM154.948 39C154.802 39 154.67 38.9487 154.552 38.846C154.435 38.7287 154.376 38.5893 154.376 38.428V24.172C154.376 24.0107 154.435 23.8787 154.552 23.776C154.67 23.6587 154.802 23.6 154.948 23.6H161.218C163.213 23.6 164.775 24.0547 165.904 24.964C167.048 25.8733 167.62 27.142 167.62 28.77C167.62 29.7967 167.386 30.6693 166.916 31.388C166.447 32.1067 165.831 32.6713 165.068 33.082L167.928 38.274C167.972 38.362 167.994 38.4427 167.994 38.516C167.994 38.648 167.95 38.7653 167.862 38.868C167.774 38.956 167.664 39 167.532 39H163.814C163.536 39 163.323 38.934 163.176 38.802C163.03 38.6553 162.934 38.5233 162.89 38.406L160.69 33.874H159.106V38.428C159.106 38.5893 159.048 38.7287 158.93 38.846C158.828 38.9487 158.696 39 158.534 39H154.948ZM159.106 30.244H161.196C161.71 30.244 162.091 30.1047 162.34 29.826C162.59 29.5327 162.714 29.1733 162.714 28.748C162.714 28.308 162.59 27.934 162.34 27.626C162.106 27.318 161.724 27.164 161.196 27.164H159.106V30.244Z" fill="#032064"/>
<g clip-path="url(#clip0_25_440)">
<path d="M28.6285 43.1125L28.1717 42.858C26.1485 41.731 24.4632 40.0838 23.2902 38.0868C22.1172 36.0899 21.4992 33.8159 21.5 31.5L28.6285 43.1125ZM28.6285 43.1125L28.8623 42.6447M28.6285 43.1125L28.8623 42.6447M28.8623 42.6447L30.541 39.2847L30.7506 38.8653L30.3455 38.6293C28.779 37.7162 27.5569 36.3125 26.8683 34.6352C26.1796 32.9579 26.0626 31.1004 26.5355 29.35C27.0084 27.5995 28.0448 26.0536 29.4845 24.9513C30.9241 23.849 32.6868 23.2517 34.5 23.2517C36.3132 23.2517 38.0759 23.849 39.5155 24.9513C40.9552 26.0536 41.9916 27.5995 42.4645 29.35C42.9374 31.1004 42.8204 32.9579 42.1317 34.6352C41.4431 36.3125 40.221 37.7162 38.6545 38.6293L38.2494 38.8653L38.459 39.2847L40.1377 42.6447L40.3715 43.1125M28.8623 42.6447L40.3715 43.1125M40.3715 43.1125L40.8283 42.858M40.3715 43.1125L40.8283 42.858M40.8283 42.858C42.8515 41.731 44.5368 40.0838 45.7098 38.0868C46.8828 36.0899 47.5008 33.8159 47.5 31.5L40.8283 42.858ZM34.9472 36.2764L34.5 35.382L34.0528 36.2764L30.3028 43.7764L29.941 44.5H30.75H38.25H39.059L38.6972 43.7764L34.9472 36.2764ZM30.9535 37.2441L31.4189 37.5316L31.6635 37.0423L33.3572 33.6535L33.5353 33.2974L33.228 33.0442C32.9101 32.7822 32.6809 32.4284 32.5716 32.0312C32.4624 31.634 32.4784 31.2128 32.6176 30.825C32.7568 30.4373 33.0123 30.102 33.3492 29.865C33.6862 29.628 34.0881 29.5008 34.5 29.5008C34.9119 29.5008 35.3138 29.628 35.6508 29.865C35.9877 30.102 36.2432 30.4373 36.3824 30.825C36.5216 31.2128 36.5376 31.634 36.4284 32.0312C36.3191 32.4284 36.0899 32.7822 35.772 33.0442L35.4646 33.2975L35.6428 33.6537L37.3378 37.0424L37.5825 37.5315L38.0477 37.2441C39.2973 36.4723 40.2611 35.314 40.7928 33.9448C41.3245 32.5757 41.3951 31.0705 40.994 29.6576C40.5928 28.2447 39.7417 27.0012 38.5699 26.1158C37.398 25.2303 35.9694 24.7513 34.5006 24.7513C33.0319 24.7513 31.6032 25.2303 30.4314 26.1158C29.2595 27.0012 28.4085 28.2447 28.0073 29.6576C27.6061 31.0705 27.6767 32.5757 28.2084 33.9448C28.7401 35.314 29.7039 36.4723 30.9535 37.2441ZM34.5 18.5C27.3202 18.5 21.5001 24.32 21.5 31.4998H47.5C47.4999 24.32 41.6798 18.5 34.5 18.5Z" fill="#032064" stroke="#6890FF"/>
</g>
<defs>
<linearGradient id="paint0_linear_25_440" x1="95.0339" y1="66" x2="95.0339" y2="0" gradientUnits="userSpaceOnUse">
<stop stop-color="#6890FF"/>
<stop offset="1" stop-color="#6890FF"/>
</linearGradient>
<clipPath id="clip0_25_440">
<rect width="27" height="27" fill="white" transform="translate(21 18)"/>
</clipPath>
</defs>
</svg>
