<svg width="123" height="134" viewBox="0 0 123 134" fill="none" xmlns="http://www.w3.org/2000/svg">
<g filter="url(#filter0_d_8_324137)">
<path d="M57.5344 95.4886C83.6714 95.4886 104.86 74.3004 104.86 48.1635C104.86 22.0266 83.6714 0.838379 57.5344 0.838379C31.3975 0.838379 10.2093 22.0266 10.2093 48.1635C10.2093 74.3004 31.3975 95.4886 57.5344 95.4886Z" fill="white"/>
<path d="M57.5344 96.3267C48.0086 96.3267 38.6968 93.502 30.7763 88.2097C22.8559 82.9175 16.6827 75.3954 13.0373 66.5947C9.39194 57.794 8.43817 48.1099 10.2966 38.7672C12.155 29.4244 16.7421 20.8425 23.4779 14.1068C30.2136 7.37099 38.7955 2.78386 48.1383 0.925466C57.481 -0.932927 67.1651 0.0208693 75.9658 3.66624C84.7665 7.31161 92.2885 13.4848 97.5808 21.4052C102.873 29.3257 105.698 38.6376 105.698 48.1634C105.684 60.933 100.606 73.1758 91.5764 82.2053C82.5469 91.2348 70.3041 96.3134 57.5344 96.3267ZM57.5344 1.67644C48.3402 1.67644 39.3524 4.40284 31.7077 9.51089C24.063 14.6189 18.1046 21.8792 14.5861 30.3736C11.0676 38.868 10.147 48.2149 11.9407 57.2325C13.7345 66.2501 18.1619 74.5333 24.6632 81.0346C31.1645 87.5359 39.4477 91.9634 48.4653 93.7571C57.4829 95.5508 66.8298 94.6302 75.3242 91.1117C83.8186 87.5932 91.0789 81.6348 96.1869 73.9901C101.295 66.3454 104.021 57.3576 104.021 48.1634C104.008 35.8383 99.1061 24.0219 90.391 15.3068C81.6758 6.59173 69.8594 1.68976 57.5344 1.67644Z" fill="#4AA54C"/>
<path d="M107.726 79.0093H6.60507C2.95719 79.0093 0 81.9665 0 85.6143V119.285C0 122.933 2.95719 125.89 6.60507 125.89H107.726C111.374 125.89 114.331 122.933 114.331 119.285V85.6143C114.331 81.9665 111.374 79.0093 107.726 79.0093Z" fill="#4AA54C"/>
<path fill-rule="evenodd" clip-rule="evenodd" d="M49.077 71.088C50.5607 71.088 51.776 70.8366 51.776 70.5264C51.776 70.2163 50.5607 69.9648 49.077 69.9648C47.5934 69.9648 46.378 70.2163 46.378 70.5264C46.378 70.8366 47.5934 71.088 49.077 71.088Z" fill="#888888"/>
<path fill-rule="evenodd" clip-rule="evenodd" d="M46.0845 73.2842C49.5798 73.2842 52.4297 71.943 52.4297 70.2918C52.4297 68.6405 49.5798 67.291 46.0845 67.291C42.5892 67.291 39.7477 68.6405 39.7477 70.2918C39.7477 71.943 42.5724 73.2842 46.0845 73.2842Z" fill="#3E3639"/>
<path fill-rule="evenodd" clip-rule="evenodd" d="M44.5004 18.0464H49.3872V70.6438V71.4317L49.3704 71.4485H49.362L49.3369 71.4736L49.3285 71.482L49.3117 71.4988L49.2866 71.5156L49.2531 71.5407L49.1944 71.5826L49.1692 71.5994L49.1357 71.6245L49.1189 71.6329L49.1022 71.6413L49.077 71.6581L49.0687 71.6664L49.0351 71.6832L49.0267 71.6916L49.0016 71.7L48.9764 71.7167H48.9681L48.9345 71.7419H48.9262L48.901 71.7586L48.8759 71.767L48.8591 71.7754L48.8256 71.7922H48.8172L48.7837 71.8089L48.7669 71.8173L48.7501 71.8257L48.7082 71.8425L48.6663 71.8676H48.6495L48.6244 71.876L48.5909 71.8927H48.5825L48.5406 71.9095L48.5322 71.9179L48.5071 71.9263L48.4735 71.9347L48.4568 71.943L48.4148 71.9598L48.3729 71.9682L48.3478 71.9766L48.331 71.985L48.2807 72.0017L48.2388 72.0101L48.2221 72.0185L48.1969 72.0269L48.155 72.0352H48.1466L48.0963 72.052H48.0879L48.0544 72.0604L48.0209 72.0688L48.0041 72.0772L47.9538 72.0855H47.9455L47.9119 72.0939L47.8784 72.1023L47.8616 72.1107L47.8113 72.1191L47.761 72.1274L47.7359 72.1358H47.7108L47.6605 72.1442L47.6102 72.1526L47.5934 72.161H47.5599L47.518 72.1694H47.5012L47.4509 72.1777H47.4425L47.4006 72.1861H47.3671L47.3419 72.1945H47.2917L47.2414 72.2029H47.2078L47.1827 72.2113H47.1324L47.0737 72.2196H47.057H47.0234H46.9731L46.9648 72.228H46.9061H46.8977H46.8139L46.7971 72.2364H46.7384H46.7301H46.6881H46.6546H46.6295H46.5708H46.5289H46.4954H46.487H46.4618H46.4199H46.4032H46.3864H46.3529L46.3277 72.228H46.311H46.2774H46.2439H46.202H46.1685L46.1601 72.2196H46.1349H46.093H46.0846H46.0595L46.026 72.2113H46.0092H45.9924H45.9589L45.9254 72.2029H45.917H45.8835L45.8499 72.1945H45.8164L45.7829 72.1861H45.7494L45.7158 72.1777H45.6991H45.6823L45.6488 72.1694H45.6236H45.6152L45.5817 72.161H45.5482L45.5147 72.1526L45.4811 72.1442H45.4727L45.4476 72.1358H45.4141H45.4057L45.3805 72.1274L45.347 72.1191H45.3303H45.3219L45.2883 72.1107L45.2548 72.1023L45.2213 72.0939L45.1878 72.0855L45.1626 72.0772H45.1291L45.1207 72.0688H45.0956L45.0704 72.0604L45.0536 72.052H45.0369L45.0117 72.0436L44.9782 72.0352L44.9447 72.0269L44.9195 72.0185L44.886 72.0101L44.8609 72.0017L44.8273 71.9933L44.8022 71.985L44.6848 71.943L44.6681 71.9347H44.6597L44.6345 71.9263L44.6094 71.9179L44.5842 71.9095L44.5507 71.8927L44.5256 71.8844L44.5004 71.876V70.6103V18.0464Z" fill="#A37D73"/>
<path fill-rule="evenodd" clip-rule="evenodd" d="M44.5004 18.0464H49.3872V18.4822C48.6861 19.0199 47.8273 19.3113 46.9438 19.3113C46.0603 19.3113 45.2015 19.0199 44.5004 18.4822V18.0464Z" fill="#170603"/>
<path fill-rule="evenodd" clip-rule="evenodd" d="M46.948 18.0464H44.5004V70.6438V71.4317L44.5256 71.4485L44.5507 71.4736L44.5591 71.482L44.5675 71.4904L44.5926 71.5072L44.601 71.5156L44.6178 71.5323L44.6429 71.5491L44.6764 71.5658L44.7016 71.5826L44.7267 71.5994L44.7519 71.6245L44.7687 71.6329L44.7854 71.6413L44.8106 71.6581H44.8189L44.8441 71.6748L44.8609 71.6916H44.8692L44.9028 71.7083L44.9111 71.7167L44.9363 71.7251L44.9698 71.7419L45.0033 71.7586L45.0201 71.767L45.0285 71.7754L45.062 71.7922H45.0704L45.0956 71.8089L45.1291 71.8173V71.8257L45.171 71.8425H45.1794L45.2045 71.8508L45.238 71.8676L45.28 71.8844L45.2967 71.8927L45.3135 71.9011L45.347 71.9095L45.3554 71.9179L45.3889 71.9263L45.4141 71.9347L45.4225 71.943L45.4644 71.9514L45.4811 71.9598L45.5063 71.9682L45.5398 71.9766L45.5817 71.9933L45.6069 72.0017H45.6236L45.6655 72.0185H45.6739L45.7074 72.0269L45.7326 72.0352H45.7494L45.7913 72.052H45.808L45.8332 72.0604L45.8751 72.0688L45.917 72.0855H45.9421L45.9589 72.0939L46.0008 72.1023H46.0092L46.0511 72.1107L46.0846 72.1191H46.093L46.1349 72.1274L46.1517 72.1358H46.1852L46.2271 72.1442L46.269 72.1526L46.3026 72.161H46.3193L46.3612 72.1694H46.378L46.4115 72.1777H46.4534H46.4618L46.5037 72.1861L46.554 72.1945H46.6043L46.6546 72.2029L46.6965 72.2113H46.7468H46.7552H46.7971L46.839 72.2196H46.8474H46.8977H46.9145L46.948 72.228V70.6271V18.0464Z" fill="#BD9585"/>
<path fill-rule="evenodd" clip-rule="evenodd" d="M46.9228 18.0464H44.4753V18.4822C45.176 19.0246 46.0367 19.3194 46.9228 19.3205V18.0464Z" fill="#53362B"/>
<path fill-rule="evenodd" clip-rule="evenodd" d="M46.9228 10.9385C47.7132 10.9401 48.4854 11.176 49.1418 11.6164C49.7982 12.0567 50.3094 12.6818 50.6107 13.4125C50.912 14.1432 50.99 14.9468 50.8348 15.7219C50.6796 16.4969 50.2981 17.2085 49.7386 17.7669C49.1791 18.3252 48.4667 18.7052 47.6914 18.8588C46.916 19.0123 46.1125 18.9327 45.3824 18.6298C44.6523 18.3269 44.0284 17.8145 43.5894 17.1572C43.1504 16.4998 42.9161 15.7272 42.9161 14.9367C42.9161 14.411 43.0199 13.8904 43.2213 13.4047C43.4228 12.9191 43.718 12.478 44.0902 12.1066C44.4623 11.7352 44.9041 11.4409 45.3901 11.2404C45.8762 11.04 46.397 10.9374 46.9228 10.9385Z" fill="#A37D73"/>
<path fill-rule="evenodd" clip-rule="evenodd" d="M44.9362 18.3981C44.018 17.8657 43.349 16.9904 43.0763 15.9647C42.8036 14.939 42.9495 13.847 43.4819 12.9288C44.0143 12.0107 44.8896 11.3417 45.9153 11.069C46.941 10.7962 48.033 10.9421 48.9511 11.4746L44.9362 18.3981Z" fill="#BD9585"/>
<path fill-rule="evenodd" clip-rule="evenodd" d="M50.9461 14.9365C50.899 15.9663 50.4567 16.9384 49.7113 17.6505C48.9659 18.3626 47.9746 18.7599 46.9437 18.7599C45.9128 18.7599 44.9216 18.3626 44.1761 17.6505C43.4307 16.9384 42.9884 15.9663 42.9413 14.9365C42.9413 17.7864 46.5875 18.0463 46.9312 18.0463C48.2639 18.0463 50.9461 17.5266 50.9461 14.9365Z" fill="#53362B"/>
<path fill-rule="evenodd" clip-rule="evenodd" d="M42.9413 14.9365C42.9413 15.4623 43.045 15.9829 43.2465 16.4685C43.4479 16.9541 43.7431 17.3953 44.1153 17.7667C44.4875 18.1381 44.9292 18.4324 45.4153 18.6328C45.9013 18.8332 46.4222 18.9359 46.9479 18.9348V18.0463C45.5984 18.0463 42.9413 17.2332 42.9413 14.9365Z" fill="#6F3E31"/>
<path fill-rule="evenodd" clip-rule="evenodd" d="M44.5004 18.9351C45.2606 19.3196 46.0964 19.5313 46.948 19.5553C47.8036 19.5856 48.65 19.3704 49.3872 18.9351H77.2072L73.5275 30.6029L77.2072 42.2707H49.3872C48.6229 42.6616 47.7809 42.8764 46.9228 42.8994C46.0742 42.8553 45.2425 42.6446 44.4753 42.2791L44.5004 18.9351Z" fill="#009844"/>
<path fill-rule="evenodd" clip-rule="evenodd" d="M46.9228 19.5553C47.7784 19.5856 48.6248 19.3704 49.3619 18.9351V42.2707C48.6053 42.658 47.7723 42.8727 46.9228 42.8994V19.5553Z" fill="#007A3C"/>
<path fill-rule="evenodd" clip-rule="evenodd" d="M68.6743 18.9351H77.2073L73.5276 30.6029L77.2073 42.2707H57.719L68.6743 18.9351Z" fill="#007A3C"/>
<path d="M20.2136 100.622C20.2023 100.769 20.191 100.973 20.1796 101.234C20.1796 101.495 20.1796 101.767 20.1796 102.05C20.1796 102.322 20.1796 102.594 20.1796 102.866C20.191 103.127 20.2023 103.331 20.2136 103.478C20.2363 103.739 20.2873 103.988 20.3666 104.226C20.446 104.464 20.5706 104.674 20.7406 104.855C20.9106 105.036 21.126 105.184 21.3866 105.297C21.6473 105.399 21.9703 105.45 22.3556 105.45C22.741 105.45 23.0583 105.405 23.3076 105.314C23.557 105.223 23.761 105.116 23.9196 104.991C24.0783 104.855 24.1973 104.708 24.2766 104.549C24.3673 104.39 24.4353 104.243 24.4806 104.107C24.5373 103.926 24.5996 103.801 24.6676 103.733C24.7356 103.654 24.866 103.614 25.0586 103.614H27.2856C27.3876 103.614 27.4726 103.654 27.5406 103.733C27.62 103.801 27.6596 103.886 27.6596 103.988C27.6483 104.566 27.5066 105.11 27.2346 105.62C26.9626 106.13 26.5886 106.572 26.1126 106.946C25.6366 107.32 25.0756 107.62 24.4296 107.847C23.795 108.062 23.1036 108.17 22.3556 108.17C21.5396 108.17 20.8086 108.051 20.1626 107.813C19.528 107.564 18.984 107.229 18.5306 106.81C18.0773 106.391 17.726 105.903 17.4766 105.348C17.2386 104.781 17.1026 104.186 17.0686 103.563C17.046 103.098 17.0346 102.6 17.0346 102.067C17.0346 101.534 17.046 101.024 17.0686 100.537C17.0913 99.9137 17.2273 99.3243 17.4766 98.769C17.726 98.2023 18.0716 97.7093 18.5136 97.29C18.967 96.8707 19.5166 96.542 20.1626 96.304C20.8086 96.0547 21.5396 95.93 22.3556 95.93C23.1036 95.93 23.795 96.0433 24.4296 96.27C25.0756 96.4853 25.6366 96.78 26.1126 97.154C26.5886 97.528 26.9626 97.97 27.2346 98.48C27.5066 98.99 27.6483 99.534 27.6596 100.112C27.6596 100.214 27.62 100.305 27.5406 100.384C27.4726 100.452 27.3876 100.486 27.2856 100.486H25.0586C24.866 100.486 24.7356 100.452 24.6676 100.384C24.5996 100.305 24.5373 100.174 24.4806 99.993C24.4353 99.857 24.3673 99.7097 24.2766 99.551C24.1973 99.3923 24.0783 99.2507 23.9196 99.126C23.761 98.99 23.557 98.8767 23.3076 98.786C23.0583 98.6953 22.741 98.65 22.3556 98.65C21.9703 98.65 21.6473 98.7067 21.3866 98.82C21.126 98.922 20.9106 99.0637 20.7406 99.245C20.5706 99.4263 20.446 99.636 20.3666 99.874C20.2873 100.112 20.2363 100.361 20.2136 100.622ZM39.0181 96.1C39.1428 96.1 39.2505 96.1453 39.3411 96.236C39.4318 96.3267 39.4771 96.4343 39.4771 96.559V107.541C39.4771 107.666 39.4318 107.773 39.3411 107.864C39.2505 107.955 39.1428 108 39.0181 108H36.7911C36.6665 108 36.5588 107.955 36.4681 107.864C36.3775 107.773 36.3321 107.666 36.3321 107.541V103.376H32.5581V107.541C32.5581 107.666 32.5128 107.773 32.4221 107.864C32.3315 107.955 32.2238 108 32.0991 108H29.8721C29.7475 108 29.6398 107.96 29.5491 107.881C29.4585 107.79 29.4131 107.677 29.4131 107.541V96.559C29.4131 96.4343 29.4585 96.3267 29.5491 96.236C29.6398 96.1453 29.7475 96.1 29.8721 96.1H32.0991C32.2238 96.1 32.3315 96.1453 32.4221 96.236C32.5128 96.3267 32.5581 96.4343 32.5581 96.559V100.656H36.3321V96.559C36.3321 96.4343 36.3775 96.3267 36.4681 96.236C36.5588 96.1453 36.6665 96.1 36.7911 96.1H39.0181ZM48.1543 96.1C48.381 96.1 48.551 96.1623 48.6643 96.287C48.789 96.4117 48.874 96.5363 48.9193 96.661L52.6253 107.371C52.6706 107.484 52.6933 107.569 52.6933 107.626C52.6933 107.728 52.6537 107.819 52.5743 107.898C52.5063 107.966 52.4213 108 52.3193 108H50.1773C49.9507 108 49.7863 107.955 49.6843 107.864C49.5937 107.762 49.537 107.666 49.5143 107.575L49.0383 106.164H44.5163L44.0403 107.575C44.0176 107.666 43.9553 107.762 43.8533 107.864C43.7626 107.955 43.604 108 43.3773 108H41.2353C41.1333 108 41.0426 107.966 40.9633 107.898C40.8953 107.819 40.8613 107.728 40.8613 107.626C40.8613 107.569 40.884 107.484 40.9293 107.371L44.6353 96.661C44.6807 96.5363 44.76 96.4117 44.8733 96.287C44.998 96.1623 45.1737 96.1 45.4003 96.1H48.1543ZM45.4003 103.529H48.1543L46.7773 99.449L45.4003 103.529ZM61.8015 108C61.6088 108 61.4501 107.949 61.3255 107.847C61.2121 107.745 61.1385 107.666 61.1045 107.609L57.2115 101.795V107.541C57.2115 107.666 57.1661 107.773 57.0755 107.864C56.9848 107.955 56.8771 108 56.7525 108H54.5255C54.4008 108 54.2931 107.955 54.2025 107.864C54.1118 107.773 54.0665 107.666 54.0665 107.541V96.559C54.0665 96.4343 54.1118 96.3267 54.2025 96.236C54.2931 96.1453 54.4008 96.1 54.5255 96.1H56.2935C56.4861 96.1 56.6391 96.151 56.7525 96.253C56.8771 96.355 56.9565 96.4343 56.9905 96.491L60.8835 102.305V96.559C60.8835 96.4343 60.9288 96.3267 61.0195 96.236C61.1101 96.1453 61.2178 96.1 61.3425 96.1H63.5695C63.6941 96.1 63.8018 96.1453 63.8925 96.236C63.9831 96.3267 64.0285 96.4343 64.0285 96.559V107.541C64.0285 107.666 63.9831 107.773 63.8925 107.864C63.8018 107.955 63.6941 108 63.5695 108H61.8015ZM74.1364 108C73.9438 108 73.7851 107.949 73.6604 107.847C73.5471 107.745 73.4734 107.666 73.4394 107.609L69.5464 101.795V107.541C69.5464 107.666 69.5011 107.773 69.4104 107.864C69.3198 107.955 69.2121 108 69.0874 108H66.8604C66.7358 108 66.6281 107.955 66.5374 107.864C66.4468 107.773 66.4014 107.666 66.4014 107.541V96.559C66.4014 96.4343 66.4468 96.3267 66.5374 96.236C66.6281 96.1453 66.7358 96.1 66.8604 96.1H68.6284C68.8211 96.1 68.9741 96.151 69.0874 96.253C69.2121 96.355 69.2914 96.4343 69.3254 96.491L73.2184 102.305V96.559C73.2184 96.4343 73.2638 96.3267 73.3544 96.236C73.4451 96.1453 73.5528 96.1 73.6774 96.1H75.9044C76.0291 96.1 76.1368 96.1453 76.2274 96.236C76.3181 96.3267 76.3634 96.4343 76.3634 96.559V107.541C76.3634 107.666 76.3181 107.773 76.2274 107.864C76.1368 107.955 76.0291 108 75.9044 108H74.1364ZM87.2534 105.28C87.3781 105.28 87.4857 105.325 87.5764 105.416C87.6671 105.507 87.7124 105.614 87.7124 105.739V107.541C87.7124 107.666 87.6671 107.773 87.5764 107.864C87.4857 107.955 87.3781 108 87.2534 108H79.1954C79.0707 108 78.9631 107.955 78.8724 107.864C78.7817 107.773 78.7364 107.666 78.7364 107.541V96.559C78.7364 96.4343 78.7817 96.3267 78.8724 96.236C78.9631 96.1453 79.0707 96.1 79.1954 96.1H87.1174C87.2421 96.1 87.3497 96.1453 87.4404 96.236C87.5311 96.3267 87.5764 96.4343 87.5764 96.559V98.361C87.5764 98.4857 87.5311 98.5933 87.4404 98.684C87.3497 98.7747 87.2421 98.82 87.1174 98.82H81.8814V100.656H86.7434C86.8681 100.656 86.9757 100.701 87.0664 100.792C87.1571 100.883 87.2024 100.99 87.2024 101.115V102.917C87.2024 103.042 87.1571 103.149 87.0664 103.24C86.9757 103.331 86.8681 103.376 86.7434 103.376H81.8814V105.28H87.2534ZM97.9902 105.28C98.1149 105.28 98.2225 105.325 98.3132 105.416C98.4039 105.507 98.4492 105.614 98.4492 105.739V107.541C98.4492 107.666 98.4039 107.773 98.3132 107.864C98.2225 107.955 98.1149 108 97.9902 108H90.1192C89.9945 108 89.8869 107.955 89.7962 107.864C89.7055 107.773 89.6602 107.666 89.6602 107.541V96.559C89.6602 96.4343 89.7055 96.3267 89.7962 96.236C89.8869 96.1453 89.9945 96.1 90.1192 96.1H92.3462C92.4709 96.1 92.5785 96.1453 92.6692 96.236C92.7599 96.3267 92.8052 96.4343 92.8052 96.559V105.28H97.9902Z" fill="white"/>
</g>
<defs>
<filter id="filter0_d_8_324137" x="0" y="0" width="122.331" height="133.89" filterUnits="userSpaceOnUse" color-interpolation-filters="sRGB">
<feFlood flood-opacity="0" result="BackgroundImageFix"/>
<feColorMatrix in="SourceAlpha" type="matrix" values="0 0 0 0 0 0 0 0 0 0 0 0 0 0 0 0 0 0 127 0" result="hardAlpha"/>
<feOffset dx="4" dy="4"/>
<feGaussianBlur stdDeviation="2"/>
<feComposite in2="hardAlpha" operator="out"/>
<feColorMatrix type="matrix" values="0 0 0 0 0 0 0 0 0 0 0 0 0 0 0 0 0 0 0.8 0"/>
<feBlend mode="normal" in2="BackgroundImageFix" result="effect1_dropShadow_8_324137"/>
<feBlend mode="normal" in="SourceGraphic" in2="effect1_dropShadow_8_324137" result="shape"/>
</filter>
</defs>
</svg>
