<svg width="103" height="99" viewBox="0 0 103 99" fill="none" xmlns="http://www.w3.org/2000/svg">
<g filter="url(#filter0_ii_49_3684)">
<g filter="url(#filter1_i_49_3684)">
<ellipse cx="51.5" cy="49.5" rx="51.5" ry="49.5" fill="white"/>
</g>
<path d="M102.5 49.5C102.5 76.5435 79.6854 98.5 51.5 98.5C23.3146 98.5 0.5 76.5435 0.5 49.5C0.5 22.4565 23.3146 0.5 51.5 0.5C79.6854 0.5 102.5 22.4565 102.5 49.5Z" stroke="#C2A2C2"/>
<path d="M102.5 49.5C102.5 76.5435 79.6854 98.5 51.5 98.5C23.3146 98.5 0.5 76.5435 0.5 49.5C0.5 22.4565 23.3146 0.5 51.5 0.5C79.6854 0.5 102.5 22.4565 102.5 49.5Z" stroke="white" stroke-opacity="0.2"/>
<path d="M35.6777 53.3223H38.3633C38.2917 54.2728 38.028 55.1159 37.5723 55.8516C37.1165 56.5807 36.4818 57.1536 35.668 57.5703C34.8542 57.987 33.8678 58.1953 32.709 58.1953C31.8171 58.1953 31.013 58.0391 30.2969 57.7266C29.5872 57.4076 28.9785 56.9551 28.4707 56.3691C27.9694 55.7767 27.5853 55.0671 27.3184 54.2402C27.0514 53.4069 26.918 52.4727 26.918 51.4375V50.3535C26.918 49.3184 27.0547 48.3841 27.3281 47.5508C27.6016 46.7174 27.9922 46.0078 28.5 45.4219C29.0143 44.8294 29.6296 44.3737 30.3457 44.0547C31.0684 43.7357 31.8757 43.5762 32.7676 43.5762C33.9264 43.5762 34.9062 43.791 35.707 44.2207C36.5078 44.6439 37.1296 45.2266 37.5723 45.9688C38.015 46.7109 38.2819 47.5638 38.373 48.5273H35.6875C35.6354 47.9284 35.5052 47.4206 35.2969 47.0039C35.0951 46.5872 34.7891 46.2715 34.3789 46.0566C33.9753 45.8353 33.4382 45.7246 32.7676 45.7246C32.2467 45.7246 31.7878 45.8223 31.3906 46.0176C31 46.2129 30.6745 46.5059 30.4141 46.8965C30.1536 47.2806 29.9583 47.7624 29.8281 48.3418C29.6979 48.9147 29.6328 49.5788 29.6328 50.334V51.4375C29.6328 52.1602 29.6914 52.8079 29.8086 53.3809C29.9258 53.9538 30.1081 54.4388 30.3555 54.8359C30.6029 55.2331 30.9219 55.5358 31.3125 55.7441C31.7031 55.9525 32.1686 56.0566 32.709 56.0566C33.3665 56.0566 33.9004 55.9525 34.3105 55.7441C34.7272 55.5358 35.043 55.2298 35.2578 54.8262C35.4792 54.4225 35.6191 53.9212 35.6777 53.3223ZM50.477 49.6504V51.7598H42.9965V49.6504H50.477ZM43.7289 43.7812V58H41.0434V43.7812H43.7289ZM52.4691 43.7812V58H49.7836V43.7812H52.4691ZM61.6336 45.9395L57.5809 58H54.7391L60.0516 43.7812H61.868L61.6336 45.9395ZM65.0223 58L60.95 45.9395L60.7059 43.7812H62.532L67.8738 58H65.0223ZM64.8367 52.7168V54.8359H57.2098V52.7168H64.8367ZM74.8117 43.7812V58H72.1359V43.7812H74.8117ZM79.2258 43.7812V45.9004H67.7707V43.7812H79.2258Z" fill="#0C0000"/>
</g>
<defs>
<filter id="filter0_ii_49_3684" x="0" y="0" width="107" height="103" filterUnits="userSpaceOnUse" color-interpolation-filters="sRGB">
<feFlood flood-opacity="0" result="BackgroundImageFix"/>
<feBlend mode="normal" in="SourceGraphic" in2="BackgroundImageFix" result="shape"/>
<feColorMatrix in="SourceAlpha" type="matrix" values="0 0 0 0 0 0 0 0 0 0 0 0 0 0 0 0 0 0 127 0" result="hardAlpha"/>
<feOffset dx="4" dy="4"/>
<feGaussianBlur stdDeviation="6"/>
<feComposite in2="hardAlpha" operator="arithmetic" k2="-1" k3="1"/>
<feColorMatrix type="matrix" values="0 0 0 0 0.65098 0 0 0 0 0.168627 0 0 0 0 0.631373 0 0 0 1 0"/>
<feBlend mode="normal" in2="shape" result="effect1_innerShadow_49_3684"/>
<feColorMatrix in="SourceAlpha" type="matrix" values="0 0 0 0 0 0 0 0 0 0 0 0 0 0 0 0 0 0 127 0" result="hardAlpha"/>
<feOffset dx="2" dy="2"/>
<feGaussianBlur stdDeviation="2"/>
<feComposite in2="hardAlpha" operator="arithmetic" k2="-1" k3="1"/>
<feColorMatrix type="matrix" values="0 0 0 0 0.2 0 0 0 0 0.784314 0 0 0 0 1 0 0 0 1 0"/>
<feBlend mode="normal" in2="effect1_innerShadow_49_3684" result="effect2_innerShadow_49_3684"/>
</filter>
<filter id="filter1_i_49_3684" x="-12" y="-12" width="115" height="111" filterUnits="userSpaceOnUse" color-interpolation-filters="sRGB">
<feFlood flood-opacity="0" result="BackgroundImageFix"/>
<feBlend mode="normal" in="SourceGraphic" in2="BackgroundImageFix" result="shape"/>
<feColorMatrix in="SourceAlpha" type="matrix" values="0 0 0 0 0 0 0 0 0 0 0 0 0 0 0 0 0 0 127 0" result="hardAlpha"/>
<feOffset dx="-12" dy="-12"/>
<feGaussianBlur stdDeviation="24"/>
<feComposite in2="hardAlpha" operator="arithmetic" k2="-1" k3="1"/>
<feColorMatrix type="matrix" values="0 0 0 0 0.321569 0 0 0 0 0.705882 0 0 0 0 1 0 0 0 1 0"/>
<feBlend mode="normal" in2="shape" result="effect1_innerShadow_49_3684"/>
</filter>
</defs>
</svg>
