<svg width="289" height="107" viewBox="0 0 289 107" fill="none" xmlns="http://www.w3.org/2000/svg">
<g filter="url(#filter0_d_49_3705)">
<rect x="6" y="6" width="265" height="83" rx="12" fill="white"/>
<path d="M57.079 48.7637V58.7305C56.704 59.2109 56.1122 59.7324 55.3036 60.2949C54.5067 60.8574 53.4638 61.3438 52.1747 61.7539C50.8856 62.1523 49.3036 62.3516 47.4286 62.3516C45.7997 62.3516 44.3114 62.082 42.9638 61.543C41.6161 60.9922 40.4559 60.1895 39.4833 59.1348C38.5106 58.0801 37.7606 56.791 37.2333 55.2676C36.7059 53.7441 36.4423 52.0039 36.4423 50.0469V48.3594C36.4423 46.4023 36.6884 44.6621 37.1805 43.1387C37.6845 41.6152 38.3993 40.3262 39.3251 39.2715C40.2626 38.2168 41.3817 37.4141 42.6825 36.8633C43.995 36.3125 45.4598 36.0371 47.077 36.0371C49.245 36.0371 51.0263 36.3945 52.4208 37.1094C53.827 37.8242 54.9052 38.8086 55.6552 40.0625C56.4052 41.3047 56.8739 42.7344 57.0614 44.3516H52.3505C52.2216 43.4609 51.9638 42.6816 51.577 42.0137C51.1903 41.334 50.6395 40.8066 49.9247 40.4316C49.2216 40.0449 48.3075 39.8516 47.1825 39.8516C46.2333 39.8516 45.3954 40.0391 44.6688 40.4141C43.9423 40.7891 43.3329 41.334 42.8407 42.0488C42.3485 42.7637 41.9735 43.6484 41.7157 44.7031C41.4696 45.7578 41.3466 46.9648 41.3466 48.3242V50.0469C41.3466 51.418 41.4872 52.6367 41.7684 53.7031C42.0497 54.7578 42.454 55.6484 42.9813 56.375C43.5204 57.0898 44.1825 57.6348 44.9677 58.0098C45.7645 58.373 46.6669 58.5547 47.6747 58.5547C48.5888 58.5547 49.3446 58.4785 49.9423 58.3262C50.5516 58.1621 51.038 57.9688 51.4013 57.7461C51.7645 57.5234 52.0458 57.3066 52.245 57.0957V52.2969H47.1649V48.7637H57.079ZM72.547 40.291L65.2521 62H60.1369L69.6994 36.4062H72.9689L72.547 40.291ZM78.6466 62L71.3166 40.291L70.8771 36.4062H74.1642L83.7795 62H78.6466ZM78.3127 52.4902V56.3047H64.5841V52.4902H78.3127ZM89.2455 36.4062H93.4291L100.425 55.6719L107.404 36.4062H111.605L102.095 62H98.7377L89.2455 36.4062ZM87.1362 36.4062H91.2319L91.9702 54.1074V62H87.1362V36.4062ZM109.601 36.4062H113.714V62H108.88V54.1074L109.601 36.4062ZM136.319 58.2031V62H122.714V58.2031H136.319ZM124.19 36.4062V62H119.356V36.4062H124.19ZM134.544 46.9707V50.6797H122.714V46.9707H134.544ZM136.266 36.4062V40.2207H122.714V36.4062H136.266ZM154.915 36.4062V62H150.081V36.4062H154.915ZM165.234 47.4629V51.2773H153.65V47.4629H165.234ZM166.587 36.4062V40.2207H153.65V36.4062H166.587ZM186.836 58.2031V62H173.969V58.2031H186.836ZM175.428 36.4062V62H170.594V36.4062H175.428ZM210.355 48.5527V49.8711C210.355 51.8047 210.098 53.5449 209.582 55.0918C209.066 56.627 208.334 57.9336 207.385 59.0117C206.435 60.0898 205.305 60.916 203.992 61.4902C202.68 62.0645 201.221 62.3516 199.615 62.3516C198.033 62.3516 196.58 62.0645 195.256 61.4902C193.943 60.916 192.806 60.0898 191.846 59.0117C190.885 57.9336 190.14 56.627 189.613 55.0918C189.086 53.5449 188.822 51.8047 188.822 49.8711V48.5527C188.822 46.6074 189.086 44.8672 189.613 43.332C190.14 41.7969 190.879 40.4902 191.828 39.4121C192.777 38.3223 193.908 37.4902 195.221 36.916C196.545 36.3418 197.998 36.0547 199.58 36.0547C201.185 36.0547 202.644 36.3418 203.957 36.916C205.269 37.4902 206.4 38.3223 207.349 39.4121C208.31 40.4902 209.049 41.7969 209.564 43.332C210.092 44.8672 210.355 46.6074 210.355 48.5527ZM205.469 49.8711V48.5176C205.469 47.123 205.34 45.8984 205.082 44.8438C204.824 43.7773 204.443 42.8809 203.939 42.1543C203.435 41.4277 202.814 40.8828 202.076 40.5195C201.338 40.1445 200.506 39.957 199.58 39.957C198.642 39.957 197.81 40.1445 197.084 40.5195C196.369 40.8828 195.76 41.4277 195.256 42.1543C194.752 42.8809 194.365 43.7773 194.096 44.8438C193.838 45.8984 193.709 47.123 193.709 48.5176V49.8711C193.709 51.2539 193.838 52.4785 194.096 53.5449C194.365 54.6113 194.752 55.5137 195.256 56.252C195.771 56.9785 196.392 57.5293 197.119 57.9043C197.846 58.2793 198.678 58.4668 199.615 58.4668C200.553 58.4668 201.385 58.2793 202.111 57.9043C202.838 57.5293 203.447 56.9785 203.939 56.252C204.443 55.5137 204.824 54.6113 205.082 53.5449C205.34 52.4785 205.469 51.2539 205.469 49.8711ZM221.464 57.0957L226.562 36.4062H229.321L229.497 40.7656L224.048 62H221.13L221.464 57.0957ZM218.247 36.4062L222.431 57.0254V62H219.249L213.448 36.4062H218.247ZM234.788 56.9375L238.901 36.4062H243.718L237.917 62H234.735L234.788 56.9375ZM230.64 36.4062L235.737 57.166L236.036 62H233.118L227.687 40.748L227.898 36.4062H230.64Z" fill="black"/>
<rect x="6.75" y="6.75" width="263.5" height="81.5" rx="11.25" stroke="white" stroke-width="1.5"/>
</g>
<defs>
<filter id="filter0_d_49_3705" x="0" y="0" width="289" height="107" filterUnits="userSpaceOnUse" color-interpolation-filters="sRGB">
<feFlood flood-opacity="0" result="BackgroundImageFix"/>
<feColorMatrix in="SourceAlpha" type="matrix" values="0 0 0 0 0 0 0 0 0 0 0 0 0 0 0 0 0 0 127 0" result="hardAlpha"/>
<feOffset dx="6" dy="6"/>
<feGaussianBlur stdDeviation="6"/>
<feComposite in2="hardAlpha" operator="out"/>
<feColorMatrix type="matrix" values="0 0 0 0 0 0 0 0 0 0 0 0 0 0 0 0 0 0 0.5 0"/>
<feBlend mode="normal" in2="BackgroundImageFix" result="effect1_dropShadow_49_3705"/>
<feBlend mode="normal" in="SourceGraphic" in2="effect1_dropShadow_49_3705" result="shape"/>
</filter>
</defs>
</svg>
