<svg width="589" height="414" viewBox="0 0 589 414" fill="none" xmlns="http://www.w3.org/2000/svg">
<path d="M545.943 30.8101H26.057C13.323 30.8101 3 41.3554 3 54.3638V387.256C3 400.265 13.323 410.81 26.057 410.81H545.943C558.677 410.81 569 400.265 569 387.256V54.3638C569 41.3554 558.677 30.8101 545.943 30.8101Z" fill="white" stroke="#22A6B3" stroke-width="5" stroke-miterlimit="10"/>
<path opacity="0.15" d="M507.362 94.9763H56.638C51.8673 94.9763 48 99.4302 48 104.924V116.803C48 122.297 51.8673 126.751 56.638 126.751H507.362C512.133 126.751 516 122.297 516 116.803V104.924C516 99.4302 512.133 94.9763 507.362 94.9763Z" fill="black"/>
<path d="M235.111 94.9761H188.335V126.751H235.111V94.9761Z" fill="#8EB42B"/>
<path d="M188.335 94.9761H141.56V126.751H188.335V94.9761Z" fill="#9DC92B"/>
<path d="M328.905 94.9761H282.129V126.751H328.905V94.9761Z" fill="#8EB42B"/>
<path d="M282.129 94.9761H235.353V126.751H282.129V94.9761Z" fill="#9DC92B"/>
<path d="M422.698 94.9761H375.922V126.751H422.698V94.9761Z" fill="#8EB42B"/>
<path d="M375.922 94.9761H329.146V126.751H375.922V94.9761Z" fill="#9DC92B"/>
<path d="M141.552 94.9761H94.7756V126.751H141.552V94.9761Z" fill="#8EB42B"/>
<path d="M94.7758 94.9763H48V126.751H94.7758V94.9763Z" fill="#9DC92B"/>
<path d="M411.441 139.251C424.974 139.251 435.945 126.616 435.945 111.03C435.945 95.4448 424.974 82.8101 411.441 82.8101C397.908 82.8101 386.937 95.4448 386.937 111.03C386.937 126.616 397.908 139.251 411.441 139.251Z" fill="#22A6B3"/>
<path d="M412.175 92.619L416.3 102.252C416.358 102.391 416.445 102.511 416.553 102.602C416.662 102.693 416.788 102.751 416.921 102.771L426.155 104.312C426.309 104.328 426.456 104.395 426.578 104.504C426.7 104.614 426.793 104.762 426.844 104.93C426.895 105.099 426.902 105.281 426.866 105.454C426.83 105.627 426.751 105.785 426.639 105.908L419.95 113.406C419.858 113.515 419.789 113.647 419.748 113.792C419.708 113.937 419.697 114.091 419.717 114.241L421.328 124.83C421.359 125.004 421.346 125.185 421.29 125.35C421.234 125.516 421.138 125.659 421.013 125.764C420.888 125.869 420.74 125.93 420.586 125.94C420.432 125.951 420.278 125.91 420.144 125.823L411.885 120.821C411.768 120.749 411.638 120.712 411.506 120.712C411.374 120.712 411.244 120.749 411.127 120.821L402.868 125.823C402.733 125.91 402.58 125.951 402.426 125.94C402.272 125.93 402.124 125.869 401.999 125.764C401.874 125.659 401.778 125.516 401.722 125.35C401.666 125.185 401.653 125.004 401.683 124.83L403.295 114.241C403.319 114.091 403.31 113.936 403.269 113.79C403.228 113.644 403.157 113.512 403.061 113.406L396.381 105.908C396.268 105.788 396.186 105.632 396.147 105.461C396.108 105.289 396.112 105.107 396.16 104.938C396.207 104.769 396.296 104.619 396.415 104.507C396.534 104.394 396.679 104.323 396.833 104.302L406.067 102.762C406.198 102.74 406.323 102.681 406.43 102.591C406.536 102.5 406.622 102.38 406.679 102.242L410.813 92.6097C410.886 92.4779 410.987 92.3697 411.107 92.295C411.226 92.2203 411.36 92.1817 411.496 92.1826C411.632 92.1836 411.765 92.224 411.884 92.3003C412.003 92.3766 412.103 92.4862 412.175 92.619Z" fill="white"/>
<path opacity="0.15" d="M507.362 215.616H56.638C51.8673 215.616 48 220.07 48 225.564V237.442C48 242.936 51.8673 247.39 56.638 247.39H507.362C512.133 247.39 516 242.936 516 237.442V225.564C516 220.07 512.133 215.616 507.362 215.616Z" fill="black"/>
<path d="M235.111 215.616H188.335V247.39H235.111V215.616Z" fill="#8EB42B"/>
<path d="M188.335 215.616H141.56V247.39H188.335V215.616Z" fill="#9DC92B"/>
<path d="M141.552 215.616H94.7756V247.39H141.552V215.616Z" fill="#8EB42B"/>
<path d="M94.7758 215.616H48V247.39H94.7758V215.616Z" fill="#9DC92B"/>
<path d="M234.169 259.89C247.702 259.89 258.673 247.256 258.673 231.67C258.673 216.084 247.702 203.45 234.169 203.45C220.635 203.45 209.665 216.084 209.665 231.67C209.665 247.256 220.635 259.89 234.169 259.89Z" fill="#22A6B3"/>
<path d="M234.902 213.259L239.028 222.891C239.085 223.03 239.172 223.151 239.281 223.242C239.389 223.332 239.515 223.391 239.648 223.411L248.882 224.951C249.036 224.967 249.183 225.034 249.305 225.144C249.428 225.254 249.52 225.402 249.571 225.57C249.622 225.738 249.629 225.92 249.593 226.094C249.557 226.267 249.478 226.425 249.366 226.548L242.678 234.046C242.585 234.155 242.516 234.287 242.476 234.432C242.435 234.577 242.424 234.73 242.444 234.881L244.056 245.469C244.086 245.644 244.073 245.824 244.017 245.99C243.961 246.155 243.865 246.299 243.74 246.404C243.615 246.508 243.467 246.569 243.313 246.58C243.159 246.59 243.006 246.549 242.871 246.462L234.612 241.46C234.495 241.389 234.365 241.352 234.233 241.352C234.101 241.352 233.971 241.389 233.854 241.46L225.595 246.462C225.461 246.549 225.307 246.59 225.153 246.58C224.999 246.569 224.851 246.508 224.726 246.404C224.601 246.299 224.505 246.155 224.449 245.99C224.393 245.824 224.38 245.644 224.411 245.469L226.022 234.881C226.046 234.73 226.037 234.575 225.996 234.43C225.956 234.284 225.884 234.152 225.788 234.046L219.108 226.548C218.995 226.427 218.913 226.272 218.874 226.1C218.835 225.928 218.839 225.747 218.887 225.578C218.934 225.409 219.023 225.259 219.142 225.146C219.261 225.034 219.406 224.963 219.56 224.942L228.794 223.402C228.925 223.38 229.05 223.321 229.157 223.23C229.264 223.14 229.349 223.02 229.406 222.882L233.54 213.249C233.613 213.118 233.715 213.009 233.834 212.935C233.953 212.86 234.087 212.821 234.223 212.822C234.359 212.823 234.493 212.864 234.611 212.94C234.73 213.016 234.83 213.126 234.902 213.259Z" fill="white"/>
<path opacity="0.15" d="M507.362 345.535H56.638C51.8673 345.535 48 349.989 48 355.483V367.362C48 372.856 51.8673 377.31 56.638 377.31H507.362C512.133 377.31 516 372.856 516 367.362V355.483C516 349.989 512.133 345.535 507.362 345.535Z" fill="black"/>
<path d="M235.111 345.535H188.335V377.31H235.111V345.535Z" fill="#8EB42B"/>
<path d="M188.335 345.535H141.56V377.31H188.335V345.535Z" fill="#9DC92B"/>
<path d="M328.905 345.535H282.129V377.31H328.905V345.535Z" fill="#8EB42B"/>
<path d="M282.129 345.535H235.353V377.31H282.129V345.535Z" fill="#9DC92B"/>
<path d="M141.552 345.535H94.7756V377.31H141.552V345.535Z" fill="#8EB42B"/>
<path d="M94.7758 345.535H48V377.31H94.7758V345.535Z" fill="#9DC92B"/>
<path d="M330.863 389.81C344.396 389.81 355.367 377.175 355.367 361.59C355.367 346.004 344.396 333.369 330.863 333.369C317.33 333.369 306.359 346.004 306.359 361.59C306.359 377.175 317.33 389.81 330.863 389.81Z" fill="#22A6B3"/>
<path d="M331.596 343.178L335.722 352.811C335.779 352.95 335.866 353.07 335.975 353.161C336.083 353.252 336.209 353.31 336.342 353.33L345.576 354.871C345.731 354.887 345.878 354.954 346 355.063C346.122 355.173 346.214 355.321 346.265 355.489C346.316 355.658 346.324 355.84 346.287 356.013C346.251 356.186 346.172 356.344 346.06 356.467L339.372 363.965C339.279 364.074 339.21 364.206 339.17 364.351C339.129 364.496 339.118 364.65 339.138 364.8L340.75 375.389C340.78 375.563 340.767 375.744 340.711 375.909C340.655 376.075 340.559 376.218 340.434 376.323C340.309 376.428 340.161 376.489 340.007 376.499C339.853 376.51 339.7 376.469 339.565 376.382L331.306 371.38C331.189 371.308 331.059 371.271 330.927 371.271C330.795 371.271 330.665 371.308 330.549 371.38L322.289 376.382C322.155 376.469 322.001 376.51 321.847 376.499C321.693 376.489 321.545 376.428 321.42 376.323C321.296 376.218 321.2 376.075 321.144 375.909C321.088 375.744 321.074 375.563 321.105 375.389L322.716 364.8C322.74 364.65 322.731 364.495 322.691 364.349C322.65 364.203 322.578 364.071 322.483 363.965L315.803 356.467C315.689 356.347 315.608 356.192 315.568 356.02C315.529 355.848 315.533 355.667 315.581 355.497C315.628 355.328 315.717 355.179 315.836 355.066C315.956 354.953 316.101 354.882 316.254 354.862L325.488 353.321C325.62 353.299 325.744 353.24 325.851 353.15C325.958 353.059 326.044 352.939 326.101 352.801L330.234 343.169C330.308 343.037 330.409 342.929 330.528 342.854C330.648 342.779 330.782 342.741 330.917 342.742C331.053 342.743 331.187 342.783 331.305 342.859C331.424 342.936 331.524 343.045 331.596 343.178Z" fill="white"/>
<path d="M44.97 197.81C44.75 197.81 44.57 197.74 44.43 197.6C44.29 197.46 44.22 197.28 44.22 197.06V177.56C44.22 177.34 44.29 177.16 44.43 177.02C44.57 176.88 44.75 176.81 44.97 176.81H53.88C55.54 176.81 56.9 177.05 57.96 177.53C59.02 178.01 59.8 178.69 60.3 179.57C60.82 180.45 61.08 181.48 61.08 182.66C61.08 183.4 60.94 184.05 60.66 184.61C60.4 185.17 60.07 185.63 59.67 185.99C59.29 186.35 58.92 186.62 58.56 186.8C59.34 187.16 60.02 187.76 60.6 188.6C61.2 189.42 61.5 190.4 61.5 191.54C61.5 192.8 61.22 193.9 60.66 194.84C60.1 195.78 59.27 196.51 58.17 197.03C57.07 197.55 55.73 197.81 54.15 197.81H44.97ZM48.99 194.3H53.58C54.56 194.3 55.3 194.03 55.8 193.49C56.3 192.93 56.55 192.27 56.55 191.51C56.55 190.73 56.29 190.08 55.77 189.56C55.27 189.02 54.54 188.75 53.58 188.75H48.99V194.3ZM48.99 185.3H53.31C54.25 185.3 54.95 185.07 55.41 184.61C55.89 184.13 56.13 183.52 56.13 182.78C56.13 182.04 55.89 181.45 55.41 181.01C54.95 180.55 54.25 180.32 53.31 180.32H48.99V185.3ZM65.8294 197.81C65.6094 197.81 65.4294 197.74 65.2894 197.6C65.1494 197.46 65.0794 197.28 65.0794 197.06V177.56C65.0794 177.34 65.1494 177.16 65.2894 177.02C65.4294 176.88 65.6094 176.81 65.8294 176.81H73.7794C76.2794 176.81 78.2494 177.39 79.6894 178.55C81.1294 179.69 81.8494 181.34 81.8494 183.5C81.8494 184.96 81.4994 186.18 80.7994 187.16C80.0994 188.14 79.1594 188.87 77.9794 189.35L82.2094 196.85C82.2694 196.97 82.2994 197.08 82.2994 197.18C82.2994 197.34 82.2394 197.49 82.1194 197.63C81.9994 197.75 81.8494 197.81 81.6694 197.81H78.3394C77.9794 197.81 77.7094 197.72 77.5294 197.54C77.3494 197.34 77.2194 197.16 77.1394 197L73.4794 190.13H69.8494V197.06C69.8494 197.28 69.7794 197.46 69.6394 197.6C69.4994 197.74 69.3194 197.81 69.0994 197.81H65.8294ZM69.8494 186.32H73.6894C74.7894 186.32 75.5994 186.07 76.1194 185.57C76.6594 185.07 76.9294 184.37 76.9294 183.47C76.9294 182.57 76.6694 181.86 76.1494 181.34C75.6294 180.82 74.8094 180.56 73.6894 180.56H69.8494V186.32ZM84.2986 197.81C84.1186 197.81 83.9686 197.75 83.8486 197.63C83.7286 197.49 83.6686 197.34 83.6686 197.18C83.6686 197.08 83.6786 196.99 83.6986 196.91L90.8386 177.62C90.8986 177.4 91.0186 177.21 91.1986 177.05C91.3786 176.89 91.6286 176.81 91.9486 176.81H95.7886C96.1086 176.81 96.3586 176.89 96.5386 177.05C96.7186 177.21 96.8386 177.4 96.8986 177.62L104.039 196.91C104.059 196.99 104.069 197.08 104.069 197.18C104.069 197.34 104.009 197.49 103.889 197.63C103.769 197.75 103.619 197.81 103.439 197.81H100.319C100.019 197.81 99.7986 197.74 99.6586 197.6C99.5186 197.46 99.4286 197.33 99.3886 197.21L98.0986 193.85H89.6386L88.3486 197.21C88.3086 197.33 88.2186 197.46 88.0786 197.6C87.9386 197.74 87.7186 197.81 87.4186 197.81H84.2986ZM90.7486 189.98H96.9586L93.8686 181.34L90.7486 189.98ZM107.402 197.81C107.182 197.81 107.002 197.74 106.862 197.6C106.722 197.46 106.652 197.28 106.652 197.06V177.56C106.652 177.34 106.722 177.16 106.862 177.02C107.002 176.88 107.182 176.81 107.402 176.81H110.132C110.432 176.81 110.652 176.88 110.792 177.02C110.932 177.16 111.022 177.27 111.062 177.35L119.072 189.86V177.56C119.072 177.34 119.142 177.16 119.282 177.02C119.422 176.88 119.592 176.81 119.792 176.81H122.852C123.072 176.81 123.252 176.88 123.392 177.02C123.532 177.16 123.602 177.34 123.602 177.56V197.06C123.602 197.26 123.532 197.44 123.392 197.6C123.252 197.74 123.072 197.81 122.852 197.81H120.092C119.792 197.81 119.572 197.74 119.432 197.6C119.312 197.44 119.222 197.33 119.162 197.27L111.182 185.15V197.06C111.182 197.28 111.112 197.46 110.972 197.6C110.832 197.74 110.652 197.81 110.432 197.81H107.402ZM128.788 197.81C128.568 197.81 128.388 197.74 128.248 197.6C128.108 197.46 128.038 197.28 128.038 197.06V177.56C128.038 177.34 128.108 177.16 128.248 177.02C128.388 176.88 128.568 176.81 128.788 176.81H136.318C138.318 176.81 139.988 177.13 141.328 177.77C142.668 178.39 143.688 179.31 144.388 180.53C145.108 181.73 145.488 183.22 145.528 185C145.548 185.88 145.558 186.65 145.558 187.31C145.558 187.97 145.548 188.73 145.528 189.59C145.468 191.45 145.098 192.99 144.418 194.21C143.738 195.43 142.738 196.34 141.418 196.94C140.098 197.52 138.448 197.81 136.468 197.81H128.788ZM132.808 193.94H136.318C137.318 193.94 138.138 193.79 138.778 193.49C139.418 193.19 139.888 192.72 140.188 192.08C140.508 191.42 140.678 190.57 140.698 189.53C140.718 188.95 140.728 188.43 140.728 187.97C140.748 187.51 140.748 187.05 140.728 186.59C140.728 186.13 140.718 185.62 140.698 185.06C140.658 183.56 140.268 182.46 139.528 181.76C138.808 181.04 137.688 180.68 136.168 180.68H132.808V193.94ZM156.868 198.11C154.948 198.11 153.338 197.83 152.038 197.27C150.758 196.71 149.788 195.98 149.128 195.08C148.468 194.18 148.118 193.22 148.078 192.2C148.078 192.04 148.138 191.9 148.258 191.78C148.378 191.64 148.528 191.57 148.708 191.57H151.918C152.178 191.57 152.378 191.63 152.518 191.75C152.658 191.85 152.788 191.98 152.908 192.14C153.048 192.48 153.268 192.81 153.568 193.13C153.888 193.45 154.318 193.72 154.858 193.94C155.398 194.14 156.068 194.24 156.868 194.24C158.168 194.24 159.138 194.03 159.778 193.61C160.438 193.19 160.768 192.62 160.768 191.9C160.768 191.38 160.588 190.96 160.228 190.64C159.888 190.32 159.338 190.03 158.578 189.77C157.838 189.51 156.848 189.23 155.608 188.93C154.108 188.61 152.828 188.2 151.768 187.7C150.728 187.18 149.938 186.52 149.398 185.72C148.878 184.9 148.618 183.89 148.618 182.69C148.618 181.49 148.948 180.43 149.608 179.51C150.268 178.57 151.198 177.84 152.398 177.32C153.598 176.78 155.028 176.51 156.688 176.51C158.028 176.51 159.208 176.69 160.228 177.05C161.268 177.41 162.128 177.88 162.808 178.46C163.508 179.04 164.038 179.66 164.398 180.32C164.758 180.98 164.948 181.62 164.968 182.24C164.968 182.4 164.908 182.55 164.788 182.69C164.668 182.81 164.518 182.87 164.338 182.87H160.978C160.778 182.87 160.598 182.83 160.438 182.75C160.278 182.67 160.148 182.53 160.048 182.33C159.928 181.81 159.568 181.36 158.968 180.98C158.388 180.58 157.628 180.38 156.688 180.38C155.708 180.38 154.928 180.56 154.348 180.92C153.788 181.28 153.508 181.83 153.508 182.57C153.508 183.05 153.648 183.46 153.928 183.8C154.228 184.12 154.718 184.41 155.398 184.67C156.098 184.91 157.018 185.18 158.158 185.48C159.918 185.84 161.348 186.27 162.448 186.77C163.548 187.27 164.358 187.92 164.878 188.72C165.398 189.5 165.658 190.49 165.658 191.69C165.658 193.03 165.278 194.18 164.518 195.14C163.778 196.1 162.748 196.84 161.428 197.36C160.128 197.86 158.608 198.11 156.868 198.11Z" fill="black"/>
<path d="M44.97 317.81C44.75 317.81 44.57 317.74 44.43 317.6C44.29 317.46 44.22 317.28 44.22 317.06V297.56C44.22 297.34 44.29 297.16 44.43 297.02C44.57 296.88 44.75 296.81 44.97 296.81H58.56C58.78 296.81 58.96 296.88 59.1 297.02C59.24 297.16 59.31 297.34 59.31 297.56V299.96C59.31 300.16 59.24 300.33 59.1 300.47C58.96 300.61 58.78 300.68 58.56 300.68H48.84V305.39H57.9C58.12 305.39 58.3 305.46 58.44 305.6C58.58 305.74 58.65 305.92 58.65 306.14V308.36C58.65 308.56 58.58 308.73 58.44 308.87C58.3 309.01 58.12 309.08 57.9 309.08H48.84V313.94H58.8C59.02 313.94 59.2 314.01 59.34 314.15C59.48 314.29 59.55 314.47 59.55 314.69V317.06C59.55 317.28 59.48 317.46 59.34 317.6C59.2 317.74 59.02 317.81 58.8 317.81H44.97ZM63.8665 317.81C63.6665 317.81 63.4865 317.74 63.3265 317.6C63.1865 317.46 63.1165 317.28 63.1165 317.06V297.56C63.1165 297.34 63.1865 297.16 63.3265 297.02C63.4865 296.88 63.6665 296.81 63.8665 296.81H66.6565C66.9565 296.81 67.1765 296.89 67.3165 297.05C67.4765 297.21 67.5865 297.33 67.6465 297.41L73.1665 307.58L78.7465 297.41C78.7865 297.33 78.8765 297.21 79.0165 297.05C79.1765 296.89 79.4065 296.81 79.7065 296.81H82.4965C82.7165 296.81 82.8965 296.88 83.0365 297.02C83.1765 297.16 83.2465 297.34 83.2465 297.56V317.06C83.2465 317.28 83.1765 317.46 83.0365 317.6C82.8965 317.74 82.7165 317.81 82.4965 317.81H79.4365C79.2365 317.81 79.0665 317.74 78.9265 317.6C78.7865 317.46 78.7165 317.28 78.7165 317.06V304.94L74.9065 312.08C74.8065 312.26 74.6765 312.42 74.5165 312.56C74.3565 312.7 74.1465 312.77 73.8865 312.77H72.4765C72.2165 312.77 72.0065 312.7 71.8465 312.56C71.6865 312.42 71.5565 312.26 71.4565 312.08L67.6465 304.94V317.06C67.6465 317.28 67.5765 317.46 67.4365 317.6C67.2965 317.74 67.1265 317.81 66.9265 317.81H63.8665ZM88.4466 317.81C88.2266 317.81 88.0466 317.74 87.9066 317.6C87.7666 317.46 87.6966 317.28 87.6966 317.06V297.56C87.6966 297.34 87.7666 297.16 87.9066 297.02C88.0466 296.88 88.2266 296.81 88.4466 296.81H96.6366C98.2566 296.81 99.6566 297.06 100.837 297.56C102.037 298.06 102.967 298.82 103.627 299.84C104.307 300.84 104.647 302.09 104.647 303.59C104.647 305.11 104.307 306.37 103.627 307.37C102.967 308.35 102.037 309.08 100.837 309.56C99.6566 310.04 98.2566 310.28 96.6366 310.28H92.6166V317.06C92.6166 317.28 92.5466 317.46 92.4066 317.6C92.2666 317.74 92.0866 317.81 91.8666 317.81H88.4466ZM92.5266 306.56H96.4866C97.5066 306.56 98.2966 306.31 98.8566 305.81C99.4366 305.31 99.7266 304.56 99.7266 303.56C99.7266 302.68 99.4666 301.96 98.9466 301.4C98.4466 300.84 97.6266 300.56 96.4866 300.56H92.5266V306.56ZM108.456 317.81C108.236 317.81 108.056 317.74 107.916 317.6C107.776 317.46 107.706 317.28 107.706 317.06V297.56C107.706 297.34 107.776 297.16 107.916 297.02C108.056 296.88 108.236 296.81 108.456 296.81H111.786C112.006 296.81 112.186 296.88 112.326 297.02C112.466 297.16 112.536 297.34 112.536 297.56V313.79H121.836C122.056 313.79 122.236 313.86 122.376 314C122.516 314.14 122.586 314.32 122.586 314.54V317.06C122.586 317.28 122.516 317.46 122.376 317.6C122.236 317.74 122.056 317.81 121.836 317.81H108.456ZM133.419 318.11C131.599 318.11 130.029 317.81 128.709 317.21C127.389 316.61 126.359 315.71 125.619 314.51C124.879 313.29 124.479 311.76 124.419 309.92C124.399 309.06 124.389 308.21 124.389 307.37C124.389 306.51 124.399 305.64 124.419 304.76C124.479 302.96 124.879 301.45 125.619 300.23C126.379 298.99 127.419 298.06 128.739 297.44C130.079 296.82 131.639 296.51 133.419 296.51C135.179 296.51 136.719 296.82 138.039 297.44C139.379 298.06 140.429 298.99 141.189 300.23C141.949 301.45 142.349 302.96 142.389 304.76C142.429 305.64 142.449 306.51 142.449 307.37C142.449 308.21 142.429 309.06 142.389 309.92C142.329 311.76 141.929 313.29 141.189 314.51C140.449 315.71 139.419 316.61 138.099 317.21C136.779 317.81 135.219 318.11 133.419 318.11ZM133.419 314.24C134.579 314.24 135.529 313.89 136.269 313.19C137.029 312.47 137.429 311.33 137.469 309.77C137.509 308.89 137.529 308.07 137.529 307.31C137.529 306.53 137.509 305.71 137.469 304.85C137.449 303.81 137.259 302.96 136.899 302.3C136.539 301.64 136.059 301.16 135.459 300.86C134.879 300.54 134.199 300.38 133.419 300.38C132.639 300.38 131.949 300.54 131.349 300.86C130.749 301.16 130.269 301.64 129.909 302.3C129.569 302.96 129.379 303.81 129.339 304.85C129.319 305.71 129.309 306.53 129.309 307.31C129.309 308.07 129.319 308.89 129.339 309.77C129.399 311.33 129.799 312.47 130.539 313.19C131.279 313.89 132.239 314.24 133.419 314.24ZM151.416 317.81C151.196 317.81 151.016 317.74 150.876 317.6C150.736 317.46 150.666 317.28 150.666 317.06V310.46L143.646 297.77C143.626 297.71 143.606 297.66 143.586 297.62C143.566 297.56 143.556 297.5 143.556 297.44C143.556 297.28 143.616 297.14 143.736 297.02C143.876 296.88 144.026 296.81 144.186 296.81H147.366C147.646 296.81 147.866 296.88 148.026 297.02C148.186 297.16 148.296 297.29 148.356 297.41L153.066 305.66L157.776 297.41C157.836 297.29 157.946 297.16 158.106 297.02C158.266 296.88 158.486 296.81 158.766 296.81H161.946C162.106 296.81 162.246 296.88 162.366 297.02C162.506 297.14 162.576 297.28 162.576 297.44C162.576 297.5 162.566 297.56 162.546 297.62C162.526 297.66 162.506 297.71 162.486 297.77L155.466 310.46V317.06C155.466 317.28 155.396 317.46 155.256 317.6C155.116 317.74 154.936 317.81 154.716 317.81H151.416ZM166.113 317.81C165.893 317.81 165.713 317.74 165.573 317.6C165.433 317.46 165.363 317.28 165.363 317.06V297.56C165.363 297.34 165.433 297.16 165.573 297.02C165.713 296.88 165.893 296.81 166.113 296.81H179.703C179.923 296.81 180.103 296.88 180.243 297.02C180.383 297.16 180.453 297.34 180.453 297.56V299.96C180.453 300.16 180.383 300.33 180.243 300.47C180.103 300.61 179.923 300.68 179.703 300.68H169.983V305.39H179.043C179.263 305.39 179.443 305.46 179.583 305.6C179.723 305.74 179.793 305.92 179.793 306.14V308.36C179.793 308.56 179.723 308.73 179.583 308.87C179.443 309.01 179.263 309.08 179.043 309.08H169.983V313.94H179.943C180.163 313.94 180.343 314.01 180.483 314.15C180.623 314.29 180.693 314.47 180.693 314.69V317.06C180.693 317.28 180.623 317.46 180.483 317.6C180.343 317.74 180.163 317.81 179.943 317.81H166.113ZM185.009 317.81C184.789 317.81 184.609 317.74 184.469 317.6C184.329 317.46 184.259 317.28 184.259 317.06V297.56C184.259 297.34 184.329 297.16 184.469 297.02C184.609 296.88 184.789 296.81 185.009 296.81H198.599C198.819 296.81 198.999 296.88 199.139 297.02C199.279 297.16 199.349 297.34 199.349 297.56V299.96C199.349 300.16 199.279 300.33 199.139 300.47C198.999 300.61 198.819 300.68 198.599 300.68H188.879V305.39H197.939C198.159 305.39 198.339 305.46 198.479 305.6C198.619 305.74 198.689 305.92 198.689 306.14V308.36C198.689 308.56 198.619 308.73 198.479 308.87C198.339 309.01 198.159 309.08 197.939 309.08H188.879V313.94H198.839C199.059 313.94 199.239 314.01 199.379 314.15C199.519 314.29 199.589 314.47 199.589 314.69V317.06C199.589 317.28 199.519 317.46 199.379 317.6C199.239 317.74 199.059 317.81 198.839 317.81H185.009ZM210.527 317.81C210.307 317.81 210.127 317.74 209.987 317.6C209.847 317.46 209.777 317.28 209.777 317.06V297.56C209.777 297.34 209.847 297.16 209.987 297.02C210.127 296.88 210.307 296.81 210.527 296.81H224.117C224.337 296.81 224.517 296.88 224.657 297.02C224.797 297.16 224.867 297.34 224.867 297.56V299.96C224.867 300.16 224.797 300.33 224.657 300.47C224.517 300.61 224.337 300.68 224.117 300.68H214.397V305.39H223.457C223.677 305.39 223.857 305.46 223.997 305.6C224.137 305.74 224.207 305.92 224.207 306.14V308.36C224.207 308.56 224.137 308.73 223.997 308.87C223.857 309.01 223.677 309.08 223.457 309.08H214.397V313.94H224.357C224.577 313.94 224.757 314.01 224.897 314.15C225.037 314.29 225.107 314.47 225.107 314.69V317.06C225.107 317.28 225.037 317.46 224.897 317.6C224.757 317.74 224.577 317.81 224.357 317.81H210.527ZM229.423 317.81C229.203 317.81 229.023 317.74 228.883 317.6C228.743 317.46 228.673 317.28 228.673 317.06V297.56C228.673 297.34 228.743 297.16 228.883 297.02C229.023 296.88 229.203 296.81 229.423 296.81H232.153C232.453 296.81 232.673 296.88 232.813 297.02C232.953 297.16 233.043 297.27 233.083 297.35L241.093 309.86V297.56C241.093 297.34 241.163 297.16 241.303 297.02C241.443 296.88 241.613 296.81 241.813 296.81H244.873C245.093 296.81 245.273 296.88 245.413 297.02C245.553 297.16 245.623 297.34 245.623 297.56V317.06C245.623 317.26 245.553 317.44 245.413 317.6C245.273 317.74 245.093 317.81 244.873 317.81H242.113C241.813 317.81 241.593 317.74 241.453 317.6C241.333 317.44 241.243 317.33 241.183 317.27L233.203 305.15V317.06C233.203 317.28 233.133 317.46 232.993 317.6C232.853 317.74 232.673 317.81 232.453 317.81H229.423ZM258.49 318.11C256.61 318.11 255 317.8 253.66 317.18C252.34 316.54 251.31 315.62 250.57 314.42C249.85 313.2 249.46 311.73 249.4 310.01C249.38 309.15 249.37 308.23 249.37 307.25C249.37 306.27 249.38 305.34 249.4 304.46C249.46 302.78 249.85 301.35 250.57 300.17C251.31 298.99 252.35 298.09 253.69 297.47C255.05 296.83 256.65 296.51 258.49 296.51C259.97 296.51 261.27 296.7 262.39 297.08C263.51 297.46 264.45 297.96 265.21 298.58C265.97 299.18 266.55 299.84 266.95 300.56C267.35 301.28 267.56 301.97 267.58 302.63C267.58 302.81 267.52 302.97 267.4 303.11C267.28 303.23 267.12 303.29 266.92 303.29H263.2C263 303.29 262.84 303.25 262.72 303.17C262.62 303.09 262.53 302.97 262.45 302.81C262.31 302.45 262.08 302.09 261.76 301.73C261.46 301.35 261.05 301.03 260.53 300.77C260.01 300.51 259.33 300.38 258.49 300.38C257.23 300.38 256.23 300.71 255.49 301.37C254.77 302.03 254.38 303.11 254.32 304.61C254.26 306.33 254.26 308.08 254.32 309.86C254.38 311.42 254.78 312.54 255.52 313.22C256.28 313.9 257.29 314.24 258.55 314.24C259.37 314.24 260.1 314.1 260.74 313.82C261.4 313.52 261.92 313.06 262.3 312.44C262.68 311.82 262.87 311.03 262.87 310.07V309.32H259.6C259.4 309.32 259.23 309.25 259.09 309.11C258.95 308.95 258.88 308.77 258.88 308.57V306.65C258.88 306.43 258.95 306.25 259.09 306.11C259.23 305.97 259.4 305.9 259.6 305.9H266.95C267.17 305.9 267.35 305.97 267.49 306.11C267.63 306.25 267.7 306.43 267.7 306.65V309.92C267.7 311.64 267.32 313.11 266.56 314.33C265.82 315.55 264.75 316.49 263.35 317.15C261.97 317.79 260.35 318.11 258.49 318.11ZM269.689 317.81C269.509 317.81 269.359 317.75 269.239 317.63C269.119 317.49 269.059 317.34 269.059 317.18C269.059 317.08 269.069 316.99 269.089 316.91L276.229 297.62C276.289 297.4 276.409 297.21 276.589 297.05C276.769 296.89 277.019 296.81 277.339 296.81H281.179C281.499 296.81 281.749 296.89 281.929 297.05C282.109 297.21 282.229 297.4 282.289 297.62L289.429 316.91C289.449 316.99 289.459 317.08 289.459 317.18C289.459 317.34 289.399 317.49 289.279 317.63C289.159 317.75 289.009 317.81 288.829 317.81H285.709C285.409 317.81 285.189 317.74 285.049 317.6C284.909 317.46 284.819 317.33 284.779 317.21L283.489 313.85H275.029L273.739 317.21C273.699 317.33 273.609 317.46 273.469 317.6C273.329 317.74 273.109 317.81 272.809 317.81H269.689ZM276.139 309.98H282.349L279.259 301.34L276.139 309.98ZM300.033 318.11C298.153 318.11 296.543 317.8 295.203 317.18C293.883 316.54 292.853 315.62 292.113 314.42C291.393 313.2 291.003 311.73 290.943 310.01C290.923 309.15 290.913 308.23 290.913 307.25C290.913 306.27 290.923 305.34 290.943 304.46C291.003 302.78 291.393 301.35 292.113 300.17C292.853 298.99 293.893 298.09 295.233 297.47C296.593 296.83 298.193 296.51 300.033 296.51C301.513 296.51 302.813 296.7 303.933 297.08C305.053 297.46 305.993 297.96 306.753 298.58C307.513 299.18 308.093 299.84 308.493 300.56C308.893 301.28 309.103 301.97 309.123 302.63C309.123 302.81 309.063 302.97 308.943 303.11C308.823 303.23 308.663 303.29 308.463 303.29H304.743C304.543 303.29 304.383 303.25 304.263 303.17C304.163 303.09 304.073 302.97 303.993 302.81C303.853 302.45 303.623 302.09 303.303 301.73C303.003 301.35 302.593 301.03 302.073 300.77C301.553 300.51 300.873 300.38 300.033 300.38C298.773 300.38 297.773 300.71 297.033 301.37C296.313 302.03 295.923 303.11 295.863 304.61C295.803 306.33 295.803 308.08 295.863 309.86C295.923 311.42 296.323 312.54 297.063 313.22C297.823 313.9 298.833 314.24 300.093 314.24C300.913 314.24 301.643 314.1 302.283 313.82C302.943 313.52 303.463 313.06 303.843 312.44C304.223 311.82 304.413 311.03 304.413 310.07V309.32H301.143C300.943 309.32 300.773 309.25 300.633 309.11C300.493 308.95 300.423 308.77 300.423 308.57V306.65C300.423 306.43 300.493 306.25 300.633 306.11C300.773 305.97 300.943 305.9 301.143 305.9H308.493C308.713 305.9 308.893 305.97 309.033 306.11C309.173 306.25 309.243 306.43 309.243 306.65V309.92C309.243 311.64 308.863 313.11 308.103 314.33C307.363 315.55 306.293 316.49 304.893 317.15C303.513 317.79 301.893 318.11 300.033 318.11ZM313.652 317.81C313.432 317.81 313.252 317.74 313.112 317.6C312.972 317.46 312.902 317.28 312.902 317.06V297.56C312.902 297.34 312.972 297.16 313.112 297.02C313.252 296.88 313.432 296.81 313.652 296.81H327.242C327.462 296.81 327.642 296.88 327.782 297.02C327.922 297.16 327.992 297.34 327.992 297.56V299.96C327.992 300.16 327.922 300.33 327.782 300.47C327.642 300.61 327.462 300.68 327.242 300.68H317.522V305.39H326.582C326.802 305.39 326.982 305.46 327.122 305.6C327.262 305.74 327.332 305.92 327.332 306.14V308.36C327.332 308.56 327.262 308.73 327.122 308.87C326.982 309.01 326.802 309.08 326.582 309.08H317.522V313.94H327.482C327.702 313.94 327.882 314.01 328.022 314.15C328.162 314.29 328.232 314.47 328.232 314.69V317.06C328.232 317.28 328.162 317.46 328.022 317.6C327.882 317.74 327.702 317.81 327.482 317.81H313.652ZM332.548 317.81C332.348 317.81 332.168 317.74 332.008 317.6C331.868 317.46 331.798 317.28 331.798 317.06V297.56C331.798 297.34 331.868 297.16 332.008 297.02C332.168 296.88 332.348 296.81 332.548 296.81H335.338C335.638 296.81 335.858 296.89 335.998 297.05C336.158 297.21 336.268 297.33 336.328 297.41L341.848 307.58L347.428 297.41C347.468 297.33 347.558 297.21 347.698 297.05C347.858 296.89 348.088 296.81 348.388 296.81H351.178C351.398 296.81 351.578 296.88 351.718 297.02C351.858 297.16 351.928 297.34 351.928 297.56V317.06C351.928 317.28 351.858 317.46 351.718 317.6C351.578 317.74 351.398 317.81 351.178 317.81H348.118C347.918 317.81 347.748 317.74 347.608 317.6C347.468 317.46 347.398 317.28 347.398 317.06V304.94L343.588 312.08C343.488 312.26 343.358 312.42 343.198 312.56C343.038 312.7 342.828 312.77 342.568 312.77H341.158C340.898 312.77 340.688 312.7 340.528 312.56C340.368 312.42 340.238 312.26 340.138 312.08L336.328 304.94V317.06C336.328 317.28 336.258 317.46 336.118 317.6C335.978 317.74 335.808 317.81 335.608 317.81H332.548ZM357.128 317.81C356.908 317.81 356.728 317.74 356.588 317.6C356.448 317.46 356.378 317.28 356.378 317.06V297.56C356.378 297.34 356.448 297.16 356.588 297.02C356.728 296.88 356.908 296.81 357.128 296.81H370.718C370.938 296.81 371.118 296.88 371.258 297.02C371.398 297.16 371.468 297.34 371.468 297.56V299.96C371.468 300.16 371.398 300.33 371.258 300.47C371.118 300.61 370.938 300.68 370.718 300.68H360.998V305.39H370.058C370.278 305.39 370.458 305.46 370.598 305.6C370.738 305.74 370.808 305.92 370.808 306.14V308.36C370.808 308.56 370.738 308.73 370.598 308.87C370.458 309.01 370.278 309.08 370.058 309.08H360.998V313.94H370.958C371.178 313.94 371.358 314.01 371.498 314.15C371.638 314.29 371.708 314.47 371.708 314.69V317.06C371.708 317.28 371.638 317.46 371.498 317.6C371.358 317.74 371.178 317.81 370.958 317.81H357.128ZM376.025 317.81C375.805 317.81 375.625 317.74 375.485 317.6C375.345 317.46 375.275 317.28 375.275 317.06V297.56C375.275 297.34 375.345 297.16 375.485 297.02C375.625 296.88 375.805 296.81 376.025 296.81H378.755C379.055 296.81 379.275 296.88 379.415 297.02C379.555 297.16 379.645 297.27 379.685 297.35L387.695 309.86V297.56C387.695 297.34 387.765 297.16 387.905 297.02C388.045 296.88 388.215 296.81 388.415 296.81H391.475C391.695 296.81 391.875 296.88 392.015 297.02C392.155 297.16 392.225 297.34 392.225 297.56V317.06C392.225 317.26 392.155 317.44 392.015 317.6C391.875 317.74 391.695 317.81 391.475 317.81H388.715C388.415 317.81 388.195 317.74 388.055 317.6C387.935 317.44 387.845 317.33 387.785 317.27L379.805 305.15V317.06C379.805 317.28 379.735 317.46 379.595 317.6C379.455 317.74 379.275 317.81 379.055 317.81H376.025ZM402.031 317.81C401.811 317.81 401.631 317.74 401.491 317.6C401.351 317.46 401.281 317.28 401.281 317.06V300.98H395.821C395.621 300.98 395.451 300.91 395.311 300.77C395.171 300.63 395.101 300.46 395.101 300.26V297.56C395.101 297.34 395.171 297.16 395.311 297.02C395.451 296.88 395.621 296.81 395.821 296.81H411.541C411.761 296.81 411.941 296.88 412.081 297.02C412.221 297.16 412.291 297.34 412.291 297.56V300.26C412.291 300.46 412.221 300.63 412.081 300.77C411.941 300.91 411.761 300.98 411.541 300.98H406.111V317.06C406.111 317.28 406.041 317.46 405.901 317.6C405.761 317.74 405.581 317.81 405.361 317.81H402.031Z" fill="black"/>
<path d="M52.56 77.1101C50.68 77.1101 49.08 76.8001 47.76 76.1801C46.46 75.5401 45.45 74.6201 44.73 73.4201C44.01 72.2001 43.61 70.7201 43.53 68.9801C43.51 68.1601 43.5 67.2801 43.5 66.3401C43.5 65.4001 43.51 64.5001 43.53 63.6401C43.61 61.9201 44.01 60.4601 44.73 59.2601C45.47 58.0401 46.5 57.1101 47.82 56.4701C49.14 55.8301 50.72 55.5101 52.56 55.5101C53.9 55.5101 55.12 55.6801 56.22 56.0201C57.32 56.3601 58.27 56.8501 59.07 57.4901C59.87 58.1301 60.49 58.8801 60.93 59.7401C61.37 60.6001 61.61 61.5601 61.65 62.6201C61.65 62.8001 61.58 62.9501 61.44 63.0701C61.32 63.1901 61.17 63.2501 60.99 63.2501H57.57C57.33 63.2501 57.14 63.1901 57 63.0701C56.86 62.9501 56.75 62.7501 56.67 62.4701C56.37 61.2901 55.87 60.4801 55.17 60.0401C54.47 59.6001 53.6 59.3801 52.56 59.3801C51.32 59.3801 50.34 59.7201 49.62 60.4001C48.9 61.0801 48.51 62.2101 48.45 63.7901C48.39 65.4301 48.39 67.1101 48.45 68.8301C48.51 70.4101 48.9 71.5401 49.62 72.2201C50.34 72.9001 51.32 73.2401 52.56 73.2401C53.6 73.2401 54.47 73.0201 55.17 72.5801C55.89 72.1201 56.39 71.3101 56.67 70.1501C56.75 69.8501 56.86 69.6501 57 69.5501C57.14 69.4301 57.33 69.3701 57.57 69.3701H60.99C61.17 69.3701 61.32 69.4301 61.44 69.5501C61.58 69.6701 61.65 69.8201 61.65 70.0001C61.61 71.0601 61.37 72.0201 60.93 72.8801C60.49 73.7401 59.87 74.4901 59.07 75.1301C58.27 75.7701 57.32 76.2601 56.22 76.6001C55.12 76.9401 53.9 77.1101 52.56 77.1101ZM73.6008 77.1101C71.8408 77.1101 70.3008 76.8201 68.9808 76.2401C67.6608 75.6401 66.6408 74.7301 65.9208 73.5101C65.2008 72.2701 64.8408 70.7001 64.8408 68.8001V56.5601C64.8408 56.3401 64.9108 56.1601 65.0508 56.0201C65.1908 55.8801 65.3708 55.8101 65.5908 55.8101H68.8608C69.0808 55.8101 69.2608 55.8801 69.4008 56.0201C69.5408 56.1601 69.6108 56.3401 69.6108 56.5601V68.7701C69.6108 70.2501 69.9608 71.3501 70.6608 72.0701C71.3608 72.7901 72.3408 73.1501 73.6008 73.1501C74.8408 73.1501 75.8108 72.7901 76.5108 72.0701C77.2108 71.3501 77.5608 70.2501 77.5608 68.7701V56.5601C77.5608 56.3401 77.6308 56.1601 77.7708 56.0201C77.9308 55.8801 78.1108 55.8101 78.3108 55.8101H81.6108C81.8108 55.8101 81.9808 55.8801 82.1208 56.0201C82.2608 56.1601 82.3308 56.3401 82.3308 56.5601V68.8001C82.3308 70.7001 81.9708 72.2701 81.2508 73.5101C80.5308 74.7301 79.5208 75.6401 78.2208 76.2401C76.9208 76.8201 75.3808 77.1101 73.6008 77.1101ZM94.1433 77.1101C92.2233 77.1101 90.6133 76.8301 89.3133 76.2701C88.0333 75.7101 87.0633 74.9801 86.4033 74.0801C85.7433 73.1801 85.3933 72.2201 85.3533 71.2001C85.3533 71.0401 85.4133 70.9001 85.5333 70.7801C85.6533 70.6401 85.8033 70.5701 85.9833 70.5701H89.1933C89.4533 70.5701 89.6533 70.6301 89.7933 70.7501C89.9333 70.8501 90.0633 70.9801 90.1833 71.1401C90.3233 71.4801 90.5433 71.8101 90.8433 72.1301C91.1633 72.4501 91.5933 72.7201 92.1333 72.9401C92.6733 73.1401 93.3433 73.2401 94.1433 73.2401C95.4433 73.2401 96.4133 73.0301 97.0533 72.6101C97.7133 72.1901 98.0433 71.6201 98.0433 70.9001C98.0433 70.3801 97.8633 69.9601 97.5033 69.6401C97.1633 69.3201 96.6133 69.0301 95.8533 68.7701C95.1133 68.5101 94.1233 68.2301 92.8833 67.9301C91.3833 67.6101 90.1033 67.2001 89.0433 66.7001C88.0033 66.1801 87.2133 65.5201 86.6733 64.7201C86.1533 63.9001 85.8933 62.8901 85.8933 61.6901C85.8933 60.4901 86.2233 59.4301 86.8833 58.5101C87.5433 57.5701 88.4733 56.8401 89.6733 56.3201C90.8733 55.7801 92.3033 55.5101 93.9633 55.5101C95.3033 55.5101 96.4833 55.6901 97.5033 56.0501C98.5433 56.4101 99.4033 56.8801 100.083 57.4601C100.783 58.0401 101.313 58.6601 101.673 59.3201C102.033 59.9801 102.223 60.6201 102.243 61.2401C102.243 61.4001 102.183 61.5501 102.063 61.6901C101.943 61.8101 101.793 61.8701 101.613 61.8701H98.2533C98.0533 61.8701 97.8733 61.8301 97.7133 61.7501C97.5533 61.6701 97.4233 61.5301 97.3233 61.3301C97.2033 60.8101 96.8433 60.3601 96.2433 59.9801C95.6633 59.5801 94.9033 59.3801 93.9633 59.3801C92.9833 59.3801 92.2033 59.5601 91.6233 59.9201C91.0633 60.2801 90.7833 60.8301 90.7833 61.5701C90.7833 62.0501 90.9233 62.4601 91.2033 62.8001C91.5033 63.1201 91.9933 63.4101 92.6733 63.6701C93.3733 63.9101 94.2933 64.1801 95.4333 64.4801C97.1933 64.8401 98.6233 65.2701 99.7233 65.7701C100.823 66.2701 101.633 66.9201 102.153 67.7201C102.673 68.5001 102.933 69.4901 102.933 70.6901C102.933 72.0301 102.553 73.1801 101.793 74.1401C101.053 75.1001 100.023 75.8401 98.7033 76.3601C97.4033 76.8601 95.8833 77.1101 94.1433 77.1101ZM111.319 76.8101C111.099 76.8101 110.919 76.7401 110.779 76.6001C110.639 76.4601 110.569 76.2801 110.569 76.0601V59.9801H105.109C104.909 59.9801 104.739 59.9101 104.599 59.7701C104.459 59.6301 104.389 59.4601 104.389 59.2601V56.5601C104.389 56.3401 104.459 56.1601 104.599 56.0201C104.739 55.8801 104.909 55.8101 105.109 55.8101H120.829C121.049 55.8101 121.229 55.8801 121.369 56.0201C121.509 56.1601 121.579 56.3401 121.579 56.5601V59.2601C121.579 59.4601 121.509 59.6301 121.369 59.7701C121.229 59.9101 121.049 59.9801 120.829 59.9801H115.399V76.0601C115.399 76.2801 115.329 76.4601 115.189 76.6001C115.049 76.7401 114.869 76.8101 114.649 76.8101H111.319ZM132.453 77.1101C130.633 77.1101 129.063 76.8101 127.743 76.2101C126.423 75.6101 125.393 74.7101 124.653 73.5101C123.913 72.2901 123.513 70.7601 123.453 68.9201C123.433 68.0601 123.423 67.2101 123.423 66.3701C123.423 65.5101 123.433 64.6401 123.453 63.7601C123.513 61.9601 123.913 60.4501 124.653 59.2301C125.413 57.9901 126.453 57.0601 127.773 56.4401C129.113 55.8201 130.673 55.5101 132.453 55.5101C134.213 55.5101 135.753 55.8201 137.073 56.4401C138.413 57.0601 139.463 57.9901 140.223 59.2301C140.983 60.4501 141.383 61.9601 141.423 63.7601C141.463 64.6401 141.483 65.5101 141.483 66.3701C141.483 67.2101 141.463 68.0601 141.423 68.9201C141.363 70.7601 140.963 72.2901 140.223 73.5101C139.483 74.7101 138.453 75.6101 137.133 76.2101C135.813 76.8101 134.253 77.1101 132.453 77.1101ZM132.453 73.2401C133.613 73.2401 134.563 72.8901 135.303 72.1901C136.063 71.4701 136.463 70.3301 136.503 68.7701C136.543 67.8901 136.563 67.0701 136.563 66.3101C136.563 65.5301 136.543 64.7101 136.503 63.8501C136.483 62.8101 136.293 61.9601 135.933 61.3001C135.573 60.6401 135.093 60.1601 134.493 59.8601C133.913 59.5401 133.233 59.3801 132.453 59.3801C131.673 59.3801 130.983 59.5401 130.383 59.8601C129.783 60.1601 129.303 60.6401 128.943 61.3001C128.603 61.9601 128.413 62.8101 128.373 63.8501C128.353 64.7101 128.343 65.5301 128.343 66.3101C128.343 67.0701 128.353 67.8901 128.373 68.7701C128.433 70.3301 128.833 71.4701 129.573 72.1901C130.313 72.8901 131.273 73.2401 132.453 73.2401ZM145.956 76.8101C145.756 76.8101 145.576 76.7401 145.416 76.6001C145.276 76.4601 145.206 76.2801 145.206 76.0601V56.5601C145.206 56.3401 145.276 56.1601 145.416 56.0201C145.576 55.8801 145.756 55.8101 145.956 55.8101H148.746C149.046 55.8101 149.266 55.8901 149.406 56.0501C149.566 56.2101 149.676 56.3301 149.736 56.4101L155.256 66.5801L160.836 56.4101C160.876 56.3301 160.966 56.2101 161.106 56.0501C161.266 55.8901 161.496 55.8101 161.796 55.8101H164.586C164.806 55.8101 164.986 55.8801 165.126 56.0201C165.266 56.1601 165.336 56.3401 165.336 56.5601V76.0601C165.336 76.2801 165.266 76.4601 165.126 76.6001C164.986 76.7401 164.806 76.8101 164.586 76.8101H161.526C161.326 76.8101 161.156 76.7401 161.016 76.6001C160.876 76.4601 160.806 76.2801 160.806 76.0601V63.9401L156.996 71.0801C156.896 71.2601 156.766 71.4201 156.606 71.5601C156.446 71.7001 156.236 71.7701 155.976 71.7701H154.566C154.306 71.7701 154.096 71.7001 153.936 71.5601C153.776 71.4201 153.646 71.2601 153.546 71.0801L149.736 63.9401V76.0601C149.736 76.2801 149.666 76.4601 149.526 76.6001C149.386 76.7401 149.216 76.8101 149.016 76.8101H145.956ZM170.536 76.8101C170.316 76.8101 170.136 76.7401 169.996 76.6001C169.856 76.4601 169.786 76.2801 169.786 76.0601V56.5601C169.786 56.3401 169.856 56.1601 169.996 56.0201C170.136 55.8801 170.316 55.8101 170.536 55.8101H184.126C184.346 55.8101 184.526 55.8801 184.666 56.0201C184.806 56.1601 184.876 56.3401 184.876 56.5601V58.9601C184.876 59.1601 184.806 59.3301 184.666 59.4701C184.526 59.6101 184.346 59.6801 184.126 59.6801H174.406V64.3901H183.466C183.686 64.3901 183.866 64.4601 184.006 64.6001C184.146 64.7401 184.216 64.9201 184.216 65.1401V67.3601C184.216 67.5601 184.146 67.7301 184.006 67.8701C183.866 68.0101 183.686 68.0801 183.466 68.0801H174.406V72.9401H184.366C184.586 72.9401 184.766 73.0101 184.906 73.1501C185.046 73.2901 185.116 73.4701 185.116 73.6901V76.0601C185.116 76.2801 185.046 76.4601 184.906 76.6001C184.766 76.7401 184.586 76.8101 184.366 76.8101H170.536ZM189.433 76.8101C189.213 76.8101 189.033 76.7401 188.893 76.6001C188.753 76.4601 188.683 76.2801 188.683 76.0601V56.5601C188.683 56.3401 188.753 56.1601 188.893 56.0201C189.033 55.8801 189.213 55.8101 189.433 55.8101H197.383C199.883 55.8101 201.853 56.3901 203.293 57.5501C204.733 58.6901 205.453 60.3401 205.453 62.5001C205.453 63.9601 205.103 65.1801 204.403 66.1601C203.703 67.1401 202.763 67.8701 201.583 68.3501L205.813 75.8501C205.873 75.9701 205.903 76.0801 205.903 76.1801C205.903 76.3401 205.843 76.4901 205.723 76.6301C205.603 76.7501 205.453 76.8101 205.273 76.8101H201.943C201.583 76.8101 201.313 76.7201 201.133 76.5401C200.953 76.3401 200.823 76.1601 200.743 76.0001L197.083 69.1301H193.453V76.0601C193.453 76.2801 193.383 76.4601 193.243 76.6001C193.103 76.7401 192.923 76.8101 192.703 76.8101H189.433ZM193.453 65.3201H197.293C198.393 65.3201 199.203 65.0701 199.723 64.5701C200.263 64.0701 200.533 63.3701 200.533 62.4701C200.533 61.5701 200.273 60.8601 199.753 60.3401C199.233 59.8201 198.413 59.5601 197.293 59.5601H193.453V65.3201ZM223.313 77.1101C221.393 77.1101 219.783 76.8301 218.483 76.2701C217.203 75.7101 216.233 74.9801 215.573 74.0801C214.913 73.1801 214.563 72.2201 214.523 71.2001C214.523 71.0401 214.583 70.9001 214.703 70.7801C214.823 70.6401 214.973 70.5701 215.153 70.5701H218.363C218.623 70.5701 218.823 70.6301 218.963 70.7501C219.103 70.8501 219.233 70.9801 219.353 71.1401C219.493 71.4801 219.713 71.8101 220.013 72.1301C220.333 72.4501 220.763 72.7201 221.303 72.9401C221.843 73.1401 222.513 73.2401 223.313 73.2401C224.613 73.2401 225.583 73.0301 226.223 72.6101C226.883 72.1901 227.213 71.6201 227.213 70.9001C227.213 70.3801 227.033 69.9601 226.673 69.6401C226.333 69.3201 225.783 69.0301 225.023 68.7701C224.283 68.5101 223.293 68.2301 222.053 67.9301C220.553 67.6101 219.273 67.2001 218.213 66.7001C217.173 66.1801 216.383 65.5201 215.843 64.7201C215.323 63.9001 215.063 62.8901 215.063 61.6901C215.063 60.4901 215.393 59.4301 216.053 58.5101C216.713 57.5701 217.643 56.8401 218.843 56.3201C220.043 55.7801 221.473 55.5101 223.133 55.5101C224.473 55.5101 225.653 55.6901 226.673 56.0501C227.713 56.4101 228.573 56.8801 229.253 57.4601C229.953 58.0401 230.483 58.6601 230.843 59.3201C231.203 59.9801 231.393 60.6201 231.413 61.2401C231.413 61.4001 231.353 61.5501 231.233 61.6901C231.113 61.8101 230.963 61.8701 230.783 61.8701H227.423C227.223 61.8701 227.043 61.8301 226.883 61.7501C226.723 61.6701 226.593 61.5301 226.493 61.3301C226.373 60.8101 226.013 60.3601 225.413 59.9801C224.833 59.5801 224.073 59.3801 223.133 59.3801C222.153 59.3801 221.373 59.5601 220.793 59.9201C220.233 60.2801 219.953 60.8301 219.953 61.5701C219.953 62.0501 220.093 62.4601 220.373 62.8001C220.673 63.1201 221.163 63.4101 221.843 63.6701C222.543 63.9101 223.463 64.1801 224.603 64.4801C226.363 64.8401 227.793 65.2701 228.893 65.7701C229.993 66.2701 230.803 66.9201 231.323 67.7201C231.843 68.5001 232.103 69.4901 232.103 70.6901C232.103 72.0301 231.723 73.1801 230.963 74.1401C230.223 75.1001 229.193 75.8401 227.873 76.3601C226.573 76.8601 225.053 77.1101 223.313 77.1101ZM236.074 76.8101C235.854 76.8101 235.674 76.7401 235.534 76.6001C235.394 76.4601 235.324 76.2801 235.324 76.0601V56.5601C235.324 56.3401 235.394 56.1601 235.534 56.0201C235.674 55.8801 235.854 55.8101 236.074 55.8101H249.664C249.884 55.8101 250.064 55.8801 250.204 56.0201C250.344 56.1601 250.414 56.3401 250.414 56.5601V58.9601C250.414 59.1601 250.344 59.3301 250.204 59.4701C250.064 59.6101 249.884 59.6801 249.664 59.6801H239.944V64.3901H249.004C249.224 64.3901 249.404 64.4601 249.544 64.6001C249.684 64.7401 249.754 64.9201 249.754 65.1401V67.3601C249.754 67.5601 249.684 67.7301 249.544 67.8701C249.404 68.0101 249.224 68.0801 249.004 68.0801H239.944V72.9401H249.904C250.124 72.9401 250.304 73.0101 250.444 73.1501C250.584 73.2901 250.654 73.4701 250.654 73.6901V76.0601C250.654 76.2801 250.584 76.4601 250.444 76.6001C250.304 76.7401 250.124 76.8101 249.904 76.8101H236.074ZM254.97 76.8101C254.75 76.8101 254.57 76.7401 254.43 76.6001C254.29 76.4601 254.22 76.2801 254.22 76.0601V56.5601C254.22 56.3401 254.29 56.1601 254.43 56.0201C254.57 55.8801 254.75 55.8101 254.97 55.8101H262.92C265.42 55.8101 267.39 56.3901 268.83 57.5501C270.27 58.6901 270.99 60.3401 270.99 62.5001C270.99 63.9601 270.64 65.1801 269.94 66.1601C269.24 67.1401 268.3 67.8701 267.12 68.3501L271.35 75.8501C271.41 75.9701 271.44 76.0801 271.44 76.1801C271.44 76.3401 271.38 76.4901 271.26 76.6301C271.14 76.7501 270.99 76.8101 270.81 76.8101H267.48C267.12 76.8101 266.85 76.7201 266.67 76.5401C266.49 76.3401 266.36 76.1601 266.28 76.0001L262.62 69.1301H258.99V76.0601C258.99 76.2801 258.92 76.4601 258.78 76.6001C258.64 76.7401 258.46 76.8101 258.24 76.8101H254.97ZM258.99 65.3201H262.83C263.93 65.3201 264.74 65.0701 265.26 64.5701C265.8 64.0701 266.07 63.3701 266.07 62.4701C266.07 61.5701 265.81 60.8601 265.29 60.3401C264.77 59.8201 263.95 59.5601 262.83 59.5601H258.99V65.3201ZM280.055 76.8101C279.735 76.8101 279.475 76.7301 279.275 76.5701C279.095 76.3901 278.965 76.1801 278.885 75.9401L272.585 56.7101C272.565 56.6101 272.555 56.5201 272.555 56.4401C272.555 56.2801 272.615 56.1401 272.735 56.0201C272.855 55.8801 273.005 55.8101 273.185 55.8101H276.335C276.635 55.8101 276.865 55.9001 277.025 56.0801C277.205 56.2401 277.315 56.3901 277.355 56.5301L282.035 71.2001L286.685 56.5301C286.745 56.3901 286.855 56.2401 287.015 56.0801C287.175 55.9001 287.405 55.8101 287.705 55.8101H290.855C291.035 55.8101 291.185 55.8801 291.305 56.0201C291.425 56.1401 291.485 56.2801 291.485 56.4401C291.485 56.5201 291.475 56.6101 291.455 56.7101L285.155 75.9401C285.095 76.1801 284.965 76.3901 284.765 76.5701C284.585 76.7301 284.325 76.8101 283.985 76.8101H280.055ZM295.224 76.8101C295.004 76.8101 294.824 76.7401 294.684 76.6001C294.544 76.4601 294.474 76.2801 294.474 76.0601V56.5601C294.474 56.3401 294.544 56.1601 294.684 56.0201C294.824 55.8801 295.004 55.8101 295.224 55.8101H298.614C298.834 55.8101 299.014 55.8801 299.154 56.0201C299.294 56.1601 299.364 56.3401 299.364 56.5601V76.0601C299.364 76.2801 299.294 76.4601 299.154 76.6001C299.014 76.7401 298.834 76.8101 298.614 76.8101H295.224ZM312.13 77.1101C310.25 77.1101 308.65 76.8001 307.33 76.1801C306.03 75.5401 305.02 74.6201 304.3 73.4201C303.58 72.2001 303.18 70.7201 303.1 68.9801C303.08 68.1601 303.07 67.2801 303.07 66.3401C303.07 65.4001 303.08 64.5001 303.1 63.6401C303.18 61.9201 303.58 60.4601 304.3 59.2601C305.04 58.0401 306.07 57.1101 307.39 56.4701C308.71 55.8301 310.29 55.5101 312.13 55.5101C313.47 55.5101 314.69 55.6801 315.79 56.0201C316.89 56.3601 317.84 56.8501 318.64 57.4901C319.44 58.1301 320.06 58.8801 320.5 59.7401C320.94 60.6001 321.18 61.5601 321.22 62.6201C321.22 62.8001 321.15 62.9501 321.01 63.0701C320.89 63.1901 320.74 63.2501 320.56 63.2501H317.14C316.9 63.2501 316.71 63.1901 316.57 63.0701C316.43 62.9501 316.32 62.7501 316.24 62.4701C315.94 61.2901 315.44 60.4801 314.74 60.0401C314.04 59.6001 313.17 59.3801 312.13 59.3801C310.89 59.3801 309.91 59.7201 309.19 60.4001C308.47 61.0801 308.08 62.2101 308.02 63.7901C307.96 65.4301 307.96 67.1101 308.02 68.8301C308.08 70.4101 308.47 71.5401 309.19 72.2201C309.91 72.9001 310.89 73.2401 312.13 73.2401C313.17 73.2401 314.04 73.0201 314.74 72.5801C315.46 72.1201 315.96 71.3101 316.24 70.1501C316.32 69.8501 316.43 69.6501 316.57 69.5501C316.71 69.4301 316.9 69.3701 317.14 69.3701H320.56C320.74 69.3701 320.89 69.4301 321.01 69.5501C321.15 69.6701 321.22 69.8201 321.22 70.0001C321.18 71.0601 320.94 72.0201 320.5 72.8801C320.06 73.7401 319.44 74.4901 318.64 75.1301C317.84 75.7701 316.89 76.2601 315.79 76.6001C314.69 76.9401 313.47 77.1101 312.13 77.1101ZM325.341 76.8101C325.121 76.8101 324.941 76.7401 324.801 76.6001C324.661 76.4601 324.591 76.2801 324.591 76.0601V56.5601C324.591 56.3401 324.661 56.1601 324.801 56.0201C324.941 55.8801 325.121 55.8101 325.341 55.8101H338.931C339.151 55.8101 339.331 55.8801 339.471 56.0201C339.611 56.1601 339.681 56.3401 339.681 56.5601V58.9601C339.681 59.1601 339.611 59.3301 339.471 59.4701C339.331 59.6101 339.151 59.6801 338.931 59.6801H329.211V64.3901H338.271C338.491 64.3901 338.671 64.4601 338.811 64.6001C338.951 64.7401 339.021 64.9201 339.021 65.1401V67.3601C339.021 67.5601 338.951 67.7301 338.811 67.8701C338.671 68.0101 338.491 68.0801 338.271 68.0801H329.211V72.9401H339.171C339.391 72.9401 339.571 73.0101 339.711 73.1501C339.851 73.2901 339.921 73.4701 339.921 73.6901V76.0601C339.921 76.2801 339.851 76.4601 339.711 76.6001C339.571 76.7401 339.391 76.8101 339.171 76.8101H325.341ZM351.048 77.1101C349.128 77.1101 347.518 76.8301 346.218 76.2701C344.938 75.7101 343.968 74.9801 343.308 74.0801C342.648 73.1801 342.298 72.2201 342.258 71.2001C342.258 71.0401 342.318 70.9001 342.438 70.7801C342.558 70.6401 342.708 70.5701 342.888 70.5701H346.098C346.358 70.5701 346.558 70.6301 346.698 70.7501C346.838 70.8501 346.968 70.9801 347.088 71.1401C347.228 71.4801 347.448 71.8101 347.748 72.1301C348.068 72.4501 348.498 72.7201 349.038 72.9401C349.578 73.1401 350.248 73.2401 351.048 73.2401C352.348 73.2401 353.318 73.0301 353.958 72.6101C354.618 72.1901 354.948 71.6201 354.948 70.9001C354.948 70.3801 354.768 69.9601 354.408 69.6401C354.068 69.3201 353.518 69.0301 352.758 68.7701C352.018 68.5101 351.028 68.2301 349.788 67.9301C348.288 67.6101 347.008 67.2001 345.948 66.7001C344.908 66.1801 344.118 65.5201 343.578 64.7201C343.058 63.9001 342.798 62.8901 342.798 61.6901C342.798 60.4901 343.128 59.4301 343.788 58.5101C344.448 57.5701 345.378 56.8401 346.578 56.3201C347.778 55.7801 349.208 55.5101 350.868 55.5101C352.208 55.5101 353.388 55.6901 354.408 56.0501C355.448 56.4101 356.308 56.8801 356.988 57.4601C357.688 58.0401 358.218 58.6601 358.578 59.3201C358.938 59.9801 359.128 60.6201 359.148 61.2401C359.148 61.4001 359.088 61.5501 358.968 61.6901C358.848 61.8101 358.698 61.8701 358.518 61.8701H355.158C354.958 61.8701 354.778 61.8301 354.618 61.7501C354.458 61.6701 354.328 61.5301 354.228 61.3301C354.108 60.8101 353.748 60.3601 353.148 59.9801C352.568 59.5801 351.808 59.3801 350.868 59.3801C349.888 59.3801 349.108 59.5601 348.528 59.9201C347.968 60.2801 347.688 60.8301 347.688 61.5701C347.688 62.0501 347.828 62.4601 348.108 62.8001C348.408 63.1201 348.898 63.4101 349.578 63.6701C350.278 63.9101 351.198 64.1801 352.338 64.4801C354.098 64.8401 355.528 65.2701 356.628 65.7701C357.728 66.2701 358.538 66.9201 359.058 67.7201C359.578 68.5001 359.838 69.4901 359.838 70.6901C359.838 72.0301 359.458 73.1801 358.698 74.1401C357.958 75.1001 356.928 75.8401 355.608 76.3601C354.308 76.8601 352.788 77.1101 351.048 77.1101Z" fill="black"/>
<path d="M589 35.8101C589 16.4801 573.33 0.810059 554 0.810059C534.67 0.810059 519 16.4801 519 35.8101C519 55.14 534.67 70.8101 554 70.8101C573.33 70.8101 589 55.14 589 35.8101Z" fill="#22A6B3"/>
<path d="M568.085 53.81C567.685 53.8123 567.288 53.7346 566.918 53.5815C566.548 53.4285 566.212 53.2031 565.93 52.9186L536.892 23.8866C536.321 23.3137 536 22.5378 536 21.729C536 20.9202 536.321 20.1444 536.892 19.5714L537.767 18.701C538.34 18.1305 539.115 17.8101 539.923 17.8101C540.731 17.8101 541.506 18.1305 542.078 18.701L571.106 47.7331C571.679 48.3053 572 49.0814 572 49.8907C572 50.6999 571.679 51.476 571.106 52.0483L570.236 52.9186C569.954 53.2018 569.619 53.4263 569.25 53.5793C568.881 53.7323 568.485 53.8107 568.085 53.81Z" fill="white"/>
<path d="M540.149 19.4038C540.375 19.4051 540.597 19.4513 540.805 19.5399C541.012 19.6284 541.2 19.7575 541.356 19.9195L569.921 48.4715C570.08 48.6301 570.206 48.8186 570.293 49.0261C570.379 49.2336 570.423 49.4561 570.423 49.6808C570.423 49.9055 570.379 50.128 570.293 50.3355C570.206 50.543 570.08 50.7314 569.921 50.89L569.064 51.746C568.743 52.0662 568.308 52.2461 567.855 52.2461C567.401 52.2461 566.966 52.0662 566.645 51.746L538.08 23.1939C537.761 22.8723 537.582 22.4377 537.582 21.9847C537.582 21.5317 537.761 21.0971 538.08 20.7755L538.937 19.9195C539.095 19.7576 539.283 19.6286 539.491 19.5401C539.699 19.4516 539.923 19.4052 540.149 19.4038M540.149 16.8255C539.585 16.8245 539.027 16.9352 538.506 17.1512C537.986 17.3672 537.513 17.6841 537.116 18.0837L536.259 18.9397C535.86 19.3369 535.543 19.809 535.327 20.3289C535.111 20.8488 535 21.4063 535 21.9692C535 22.5322 535.111 23.0897 535.327 23.6096C535.543 24.1294 535.86 24.6015 536.259 24.9987L564.824 53.5508C565.222 53.9499 565.694 54.2666 566.215 54.4827C566.736 54.6988 567.294 54.8101 567.857 54.8101C568.421 54.8101 568.979 54.6988 569.5 54.4827C570.02 54.2666 570.493 53.9499 570.891 53.5508L571.747 52.6948C572.549 51.8906 573 50.8011 573 49.6653C573 48.5295 572.549 47.44 571.747 46.6358L543.183 18.0683C542.785 17.6686 542.312 17.3517 541.792 17.1357C541.271 16.9198 540.713 16.8091 540.149 16.8101V16.8255Z" fill="white"/>
<path d="M539.917 53.81C539.516 53.8111 539.12 53.7329 538.75 53.58C538.38 53.427 538.044 53.2022 537.762 52.9187L536.891 52.0483C536.321 51.4754 536 50.6995 536 49.8907C536 49.0819 536.321 48.306 536.891 47.7331L565.927 18.701C566.499 18.1305 567.273 17.8101 568.081 17.8101C568.889 17.8101 569.664 18.1305 570.236 18.701L571.106 19.5714C571.679 20.1437 572 20.9198 572 21.729C572 22.5383 571.679 23.3144 571.106 23.8866L542.077 52.9187C541.793 53.2021 541.456 53.4268 541.085 53.5797C540.715 53.7327 540.318 53.811 539.917 53.81V53.81Z" fill="white"/>
<path d="M567.852 19.3894C568.078 19.3906 568.301 19.4369 568.508 19.5255C568.715 19.6141 568.903 19.7432 569.059 19.9053L569.916 20.7616C570.075 20.9203 570.201 21.1088 570.288 21.3164C570.374 21.524 570.418 21.7466 570.418 21.9713C570.418 22.1961 570.374 22.4187 570.288 22.6263C570.201 22.8339 570.075 23.0224 569.916 23.1811L541.352 51.7447C541.03 52.0651 540.595 52.245 540.142 52.245C539.688 52.245 539.253 52.0651 538.932 51.7447L538.076 50.8884C537.757 50.5666 537.578 50.1318 537.578 49.6787C537.578 49.2255 537.757 48.7907 538.076 48.469L566.64 19.9053C566.798 19.7433 566.986 19.6143 567.194 19.5257C567.402 19.4372 567.626 19.3908 567.852 19.3894M567.852 16.8101C567.288 16.8091 566.73 16.9198 566.21 17.1359C565.689 17.3519 565.216 17.669 564.819 18.0688L536.26 46.6325C535.86 47.0303 535.544 47.503 535.327 48.0235C535.111 48.5441 535 49.1021 535 49.6658C535 50.2294 535.111 50.7875 535.327 51.308C535.544 51.8286 535.86 52.3013 536.26 52.6991L537.116 53.5503C537.514 53.9496 537.987 54.2664 538.507 54.4826C539.028 54.6988 539.586 54.8101 540.15 54.8101C540.713 54.8101 541.271 54.6988 541.792 54.4826C542.312 54.2664 542.785 53.9496 543.183 53.5503L571.747 24.9866C572.549 24.182 573 23.0921 573 21.9559C573 20.8196 572.549 19.7297 571.747 18.9251L570.891 18.0688C570.493 17.669 570.021 17.3519 569.5 17.1359C568.979 16.9198 568.421 16.8091 567.857 16.8101H567.852Z" fill="white"/>
</svg>
