<svg width="137" height="152" viewBox="0 0 137 152" fill="none" xmlns="http://www.w3.org/2000/svg">
<path d="M68.6399 114.77C99.8219 114.77 125.1 89.4921 125.1 58.3101C125.1 27.1281 99.8219 1.8501 68.6399 1.8501C37.4579 1.8501 12.1799 27.1281 12.1799 58.3101C12.1799 89.4921 37.4579 114.77 68.6399 114.77Z" fill="white"/>
<path d="M68.6399 115.77C57.2754 115.77 46.1662 112.4 36.7169 106.086C27.2677 99.7726 19.9028 90.7986 15.5538 80.2991C11.2048 69.7997 10.0669 58.2464 12.284 47.1002C14.5011 35.9541 19.9737 25.7157 28.0096 17.6798C36.0456 9.64386 46.284 4.17131 57.4301 1.9542C68.5762 -0.262906 80.1295 0.874995 90.629 5.22401C101.128 9.57302 110.102 16.9378 116.416 26.3871C122.73 35.8363 126.1 46.9456 126.1 58.3101C126.084 73.5446 120.025 88.1506 109.253 98.923C98.4804 109.695 83.8744 115.754 68.6399 115.77ZM68.6399 2.85014C57.671 2.85014 46.9484 6.10279 37.828 12.1968C28.7077 18.2908 21.5992 26.9525 17.4016 37.0865C13.204 47.2205 12.1057 58.3716 14.2456 69.1298C16.3855 79.888 21.6676 89.7701 29.4238 97.5263C37.18 105.283 47.062 110.565 57.8202 112.705C68.5784 114.844 79.7296 113.746 89.8636 109.549C99.9976 105.351 108.659 98.2424 114.753 89.122C120.847 80.0017 124.1 69.2791 124.1 58.3101C124.084 43.6061 118.236 29.5088 107.839 19.1115C97.4412 8.71419 83.344 2.86602 68.6399 2.85014Z" fill="#EB4D4B"/>
<path d="M128.52 95.1101H7.88C3.528 95.1101 0 98.6381 0 102.99V143.16C0 147.512 3.528 151.04 7.88 151.04H128.52C132.872 151.04 136.4 147.512 136.4 143.16V102.99C136.4 98.6381 132.872 95.1101 128.52 95.1101Z" fill="#EB4D4B"/>
<path d="M17.8401 122.55C17.8401 122.723 17.8401 122.963 17.8401 123.27C17.8401 123.58 17.8401 123.89 17.8401 124.27C17.8401 124.65 17.8401 124.92 17.8401 125.27C17.8401 125.62 17.8401 125.83 17.8401 126C17.8682 126.299 17.9285 126.594 18.0201 126.88C18.1127 127.155 18.2627 127.407 18.4601 127.62C18.6769 127.839 18.9353 128.012 19.2201 128.13C19.5842 128.267 19.9714 128.331 20.3601 128.32C20.74 128.334 21.1192 128.279 21.4801 128.16C21.7405 128.072 21.984 127.94 22.2001 127.77C22.3781 127.632 22.5247 127.459 22.6301 127.26C22.7221 127.094 22.799 126.92 22.8601 126.74C22.9045 126.577 22.9791 126.425 23.0801 126.29C23.1443 126.239 23.2181 126.201 23.2971 126.179C23.376 126.156 23.4586 126.15 23.5401 126.16H26.1601C26.2181 126.158 26.2759 126.168 26.3294 126.191C26.3829 126.213 26.4309 126.247 26.4701 126.29C26.5119 126.33 26.5451 126.378 26.5674 126.431C26.5898 126.485 26.6009 126.542 26.6001 126.6C26.5907 127.271 26.4192 127.93 26.1001 128.52C25.7687 129.109 25.3193 129.623 24.7801 130.03C24.1751 130.474 23.4987 130.813 22.7801 131.03C21.991 131.296 21.1628 131.428 20.3301 131.42C19.4543 131.435 18.5832 131.29 17.7601 130.99C17.0498 130.723 16.3953 130.326 15.8301 129.82C15.3046 129.335 14.8858 128.746 14.6001 128.09C14.3165 127.427 14.1507 126.72 14.1101 126C14.1101 125.45 14.1101 124.87 14.1101 124.24C14.1101 123.61 14.1101 123.01 14.1101 122.44C14.1376 121.719 14.3004 121.01 14.5901 120.35C14.883 119.698 15.3009 119.111 15.8201 118.62C16.3822 118.109 17.0375 117.712 17.7501 117.45C18.5767 117.15 19.451 117.005 20.3301 117.02C21.1628 117.012 21.991 117.144 22.7801 117.41C23.5021 117.643 24.1786 117.998 24.7801 118.46C25.3246 118.882 25.7744 119.413 26.1001 120.02C26.4192 120.61 26.5907 121.269 26.6001 121.94C26.6009 121.998 26.5898 122.055 26.5674 122.108C26.5451 122.162 26.5119 122.21 26.4701 122.25C26.4309 122.293 26.3829 122.327 26.3294 122.349C26.2759 122.372 26.2181 122.382 26.1601 122.38H23.5401C23.4586 122.39 23.376 122.383 23.2971 122.361C23.2181 122.339 23.1443 122.301 23.0801 122.25C22.9791 122.115 22.9045 121.962 22.8601 121.8C22.799 121.62 22.7221 121.446 22.6301 121.28C22.5247 121.081 22.3781 120.907 22.2001 120.77C21.984 120.6 21.7405 120.468 21.4801 120.38C21.1192 120.26 20.74 120.206 20.3601 120.22C19.9714 120.209 19.5842 120.273 19.2201 120.41C18.9353 120.528 18.6769 120.701 18.4601 120.92C18.2627 121.133 18.1127 121.385 18.0201 121.66C17.9278 121.949 17.8674 122.248 17.8401 122.55Z" fill="white"/>
<path d="M39.98 117.23C40.0512 117.228 40.122 117.241 40.1877 117.268C40.2533 117.296 40.3121 117.337 40.36 117.39C40.4117 117.439 40.4526 117.498 40.4801 117.563C40.5077 117.629 40.5213 117.699 40.52 117.77V130.69C40.5213 130.761 40.5077 130.831 40.4801 130.897C40.4526 130.962 40.4117 131.021 40.36 131.07C40.3121 131.123 40.2533 131.164 40.1877 131.192C40.122 131.22 40.0512 131.233 39.98 131.23H37.36C37.2861 131.226 37.214 131.206 37.1484 131.171C37.0829 131.137 37.0255 131.089 36.98 131.03C36.8794 130.929 36.8221 130.793 36.82 130.65V125.75H32.38V130.65C32.3813 130.721 32.3677 130.792 32.3401 130.857C32.3126 130.922 32.2717 130.981 32.22 131.03C32.1721 131.083 32.1133 131.124 32.0476 131.152C31.982 131.18 31.9112 131.193 31.84 131.19H29.22C29.0788 131.191 28.9427 131.137 28.84 131.04C28.7881 130.989 28.7471 130.929 28.7196 130.862C28.6921 130.795 28.6786 130.723 28.68 130.65V117.77C28.6821 117.627 28.7394 117.491 28.84 117.39C28.8891 117.339 28.9481 117.298 29.0135 117.271C29.0788 117.243 29.1491 117.229 29.22 117.23H31.84C31.9112 117.228 31.982 117.241 32.0476 117.268C32.1133 117.296 32.1721 117.337 32.22 117.39C32.2717 117.439 32.3126 117.498 32.3401 117.563C32.3677 117.629 32.3813 117.699 32.38 117.77V122.59H36.82V117.77C36.8221 117.627 36.8794 117.491 36.98 117.39C37.0291 117.339 37.0881 117.298 37.1535 117.271C37.2188 117.243 37.2891 117.229 37.36 117.23H39.98Z" fill="white"/>
<path d="M50.7001 117.23C50.8115 117.222 50.9235 117.237 51.0287 117.275C51.1338 117.313 51.2298 117.372 51.3101 117.45C51.4372 117.574 51.5361 117.724 51.6001 117.89L55.9601 130.49C56.0077 130.583 56.0349 130.686 56.0401 130.79C56.0409 130.848 56.0298 130.905 56.0074 130.959C55.9851 131.012 55.9519 131.06 55.9101 131.1C55.871 131.143 55.8229 131.177 55.7694 131.199C55.7159 131.222 55.6581 131.232 55.6001 131.23H53.0801C52.8756 131.246 52.6726 131.185 52.5101 131.06C52.4125 130.97 52.3401 130.857 52.3001 130.73L51.7401 129.07H46.4201L45.8601 130.73C45.8282 130.86 45.7544 130.976 45.6501 131.06C45.4895 131.189 45.285 131.25 45.0801 131.23H42.5601C42.5023 131.231 42.4449 131.22 42.3915 131.197C42.3382 131.175 42.2901 131.142 42.2501 131.1C42.1692 131.017 42.1228 130.906 42.1201 130.79C42.131 130.687 42.158 130.585 42.2001 130.49L46.5601 117.89C46.6278 117.726 46.7263 117.577 46.8501 117.45C46.9308 117.373 47.0268 117.313 47.1318 117.276C47.2369 117.238 47.3487 117.222 47.4601 117.23H50.7001ZM47.4601 125.97H50.7001L49.0801 121.17L47.4601 125.97Z" fill="white"/>
<path d="M66.7599 131.23C66.561 131.238 66.3657 131.174 66.2099 131.05C66.1064 130.971 66.0154 130.876 65.9399 130.77L61.3599 123.93V130.69C61.3612 130.761 61.3476 130.831 61.32 130.897C61.2925 130.962 61.2515 131.021 61.1999 131.07C61.152 131.123 61.0932 131.164 61.0276 131.192C60.962 131.22 60.8911 131.233 60.8199 131.23H58.1999C58.129 131.231 58.0588 131.217 57.9934 131.189C57.9281 131.162 57.869 131.121 57.8199 131.07C57.7194 130.969 57.662 130.833 57.6599 130.69V117.77C57.662 117.627 57.7194 117.491 57.8199 117.39C57.869 117.339 57.9281 117.298 57.9934 117.271C58.0588 117.243 58.129 117.229 58.1999 117.23H60.2799C60.4792 117.22 60.675 117.284 60.8299 117.41C60.9334 117.489 61.0245 117.584 61.0999 117.69L65.6799 124.53V117.77C65.682 117.627 65.7393 117.491 65.8399 117.39C65.889 117.339 65.948 117.298 66.0134 117.271C66.0787 117.243 66.149 117.229 66.2199 117.23H68.8399C68.9111 117.227 68.9819 117.24 69.0475 117.268C69.1132 117.296 69.172 117.337 69.2199 117.39C69.2716 117.439 69.3125 117.498 69.34 117.563C69.3676 117.628 69.3812 117.699 69.3799 117.77V130.69C69.3812 130.761 69.3676 130.831 69.34 130.897C69.3125 130.962 69.2716 131.021 69.2199 131.07C69.172 131.123 69.1132 131.164 69.0475 131.192C68.9819 131.22 68.9111 131.233 68.8399 131.23H66.7599Z" fill="white"/>
<path d="M81.2799 131.23C81.0809 131.238 80.8857 131.174 80.7299 131.05C80.6264 130.971 80.5353 130.876 80.4599 130.77L75.8799 123.93V130.69C75.8812 130.761 75.8676 130.831 75.84 130.897C75.8125 130.962 75.7716 131.021 75.7199 131.07C75.672 131.123 75.6132 131.164 75.5475 131.192C75.4819 131.22 75.4111 131.233 75.3399 131.23H72.7199C72.649 131.231 72.5787 131.217 72.5134 131.189C72.448 131.162 72.389 131.121 72.3399 131.07C72.2393 130.969 72.182 130.833 72.1799 130.69V117.77C72.182 117.627 72.2393 117.491 72.3399 117.39C72.389 117.339 72.448 117.298 72.5134 117.271C72.5787 117.243 72.649 117.229 72.7199 117.23H74.7999C74.9992 117.22 75.195 117.284 75.3499 117.41C75.4534 117.489 75.5445 117.584 75.6199 117.69L80.1999 124.53V117.77C80.2019 117.627 80.2593 117.491 80.3599 117.39C80.409 117.339 80.468 117.298 80.5334 117.271C80.5987 117.243 80.669 117.229 80.7399 117.23H83.3599C83.4311 117.227 83.5019 117.24 83.5676 117.268C83.6332 117.296 83.692 117.337 83.7399 117.39C83.7916 117.439 83.8325 117.498 83.86 117.563C83.8876 117.628 83.9012 117.699 83.8999 117.77V130.69C83.9012 130.761 83.8876 130.831 83.86 130.897C83.8325 130.962 83.7916 131.021 83.7399 131.07C83.692 131.123 83.6332 131.164 83.5676 131.192C83.5019 131.22 83.4311 131.233 83.3599 131.23H81.2799Z" fill="white"/>
<path d="M96.72 128.03C96.7911 128.027 96.862 128.04 96.9276 128.068C96.9932 128.096 97.0521 128.137 97.1 128.19C97.1516 128.239 97.1925 128.298 97.2201 128.363C97.2476 128.429 97.2613 128.499 97.26 128.57V130.69C97.2613 130.761 97.2476 130.831 97.2201 130.897C97.1925 130.962 97.1516 131.021 97.1 131.07C97.0521 131.123 96.9932 131.164 96.9276 131.192C96.862 131.22 96.7911 131.233 96.72 131.23H87.24C87.1691 131.231 87.0988 131.217 87.0334 131.189C86.9681 131.162 86.9091 131.121 86.86 131.07C86.7594 130.969 86.702 130.833 86.7 130.69V117.77C86.702 117.627 86.7594 117.491 86.86 117.39C86.9091 117.339 86.9681 117.298 87.0334 117.271C87.0988 117.243 87.1691 117.229 87.24 117.23H96.56C96.6312 117.228 96.702 117.241 96.7676 117.268C96.8333 117.296 96.8921 117.337 96.94 117.39C96.9917 117.439 97.0326 117.498 97.0601 117.563C97.0877 117.629 97.1012 117.699 97.1 117.77V119.89C97.1012 119.961 97.0877 120.031 97.0601 120.097C97.0326 120.162 96.9917 120.221 96.94 120.27C96.8921 120.323 96.8333 120.364 96.7676 120.392C96.702 120.42 96.6312 120.433 96.56 120.43H90.4V122.59H96.12C96.1912 122.587 96.262 122.6 96.3276 122.628C96.3933 122.656 96.4521 122.697 96.5 122.75C96.5517 122.799 96.5926 122.858 96.6201 122.923C96.6477 122.989 96.6612 123.059 96.66 123.13V125.25C96.6612 125.321 96.6477 125.391 96.6201 125.457C96.5926 125.522 96.5517 125.581 96.5 125.63C96.4521 125.683 96.3933 125.724 96.3276 125.752C96.262 125.78 96.1912 125.793 96.12 125.79H90.4V128.03H96.72Z" fill="white"/>
<path d="M109.36 128.03C109.431 128.027 109.502 128.04 109.568 128.068C109.633 128.096 109.692 128.137 109.74 128.19C109.792 128.239 109.833 128.298 109.86 128.363C109.888 128.429 109.901 128.499 109.9 128.57V130.69C109.901 130.761 109.888 130.831 109.86 130.897C109.833 130.962 109.792 131.021 109.74 131.07C109.692 131.123 109.633 131.164 109.568 131.192C109.502 131.22 109.431 131.233 109.36 131.23H100.1C100.029 131.231 99.9588 131.217 99.8935 131.189C99.8281 131.162 99.7691 131.121 99.72 131.07C99.6194 130.969 99.5621 130.833 99.5601 130.69V117.77C99.5621 117.627 99.6194 117.491 99.72 117.39C99.7691 117.339 99.8281 117.298 99.8935 117.271C99.9588 117.243 100.029 117.229 100.1 117.23H102.72C102.791 117.228 102.862 117.241 102.928 117.268C102.993 117.296 103.052 117.337 103.1 117.39C103.152 117.439 103.193 117.498 103.22 117.563C103.248 117.629 103.261 117.699 103.26 117.77V128.03H109.36Z" fill="white"/>
<path d="M116.82 117.03C117.619 117.018 118.413 117.143 119.17 117.4C119.835 117.634 120.46 117.971 121.02 118.4C121.503 118.746 121.917 119.18 122.24 119.68C122.514 120.075 122.674 120.539 122.7 121.02C122.701 121.078 122.69 121.135 122.667 121.188C122.645 121.242 122.612 121.29 122.57 121.33C122.534 121.372 122.49 121.405 122.44 121.428C122.389 121.45 122.335 121.461 122.28 121.46H119.66C119.506 121.463 119.353 121.436 119.21 121.38C119.082 121.319 118.963 121.238 118.86 121.14L118.67 120.94C118.56 120.827 118.436 120.73 118.3 120.65C118.113 120.536 117.911 120.449 117.7 120.39C117.413 120.312 117.117 120.275 116.82 120.28C116.577 120.265 116.333 120.265 116.09 120.28C115.878 120.308 115.669 120.362 115.47 120.44C115.301 120.508 115.151 120.614 115.03 120.75C114.915 120.891 114.855 121.068 114.86 121.25C114.857 121.435 114.925 121.614 115.05 121.75C115.235 121.917 115.453 122.043 115.69 122.12C116.079 122.255 116.477 122.365 116.88 122.45L118.72 122.83C119.377 122.952 120.02 123.14 120.64 123.39C121.144 123.588 121.608 123.876 122.01 124.24C122.372 124.571 122.653 124.982 122.83 125.44C123.021 125.962 123.113 126.514 123.1 127.07C123.113 127.707 122.954 128.336 122.64 128.89C122.322 129.441 121.881 129.91 121.35 130.26C120.74 130.666 120.063 130.961 119.35 131.13C118.543 131.337 117.713 131.438 116.88 131.43C116.04 131.439 115.203 131.317 114.4 131.07C113.712 130.855 113.061 130.534 112.47 130.12C111.965 129.762 111.534 129.31 111.2 128.79C110.913 128.34 110.747 127.823 110.72 127.29C110.723 127.174 110.769 127.063 110.85 126.98C110.887 126.94 110.932 126.908 110.982 126.886C111.032 126.863 111.085 126.851 111.14 126.85H113.76C113.91 126.84 114.06 126.864 114.2 126.92C114.317 126.973 114.425 127.044 114.52 127.13C114.607 127.21 114.687 127.297 114.76 127.39C114.89 127.527 115.035 127.651 115.19 127.76C115.399 127.903 115.628 128.015 115.87 128.09C116.194 128.188 116.531 128.235 116.87 128.23C117.468 128.244 118.065 128.166 118.64 128C118.837 127.967 119.016 127.866 119.146 127.714C119.276 127.562 119.348 127.37 119.35 127.17C119.352 127.071 119.329 126.974 119.284 126.887C119.238 126.799 119.172 126.725 119.09 126.67C118.853 126.504 118.589 126.379 118.31 126.3C117.873 126.166 117.429 126.056 116.98 125.97L115.07 125.57C113.943 125.398 112.896 124.885 112.07 124.1C111.393 123.347 111.035 122.361 111.07 121.35C111.07 120.78 111.203 120.218 111.46 119.71C111.734 119.175 112.119 118.704 112.59 118.33C113.125 117.908 113.731 117.586 114.38 117.38C115.169 117.13 115.993 117.012 116.82 117.03Z" fill="white"/>
<path fill-rule="evenodd" clip-rule="evenodd" d="M58.5501 85.6601C60.3201 85.6601 61.7701 85.3601 61.7701 84.9901C61.7701 84.6201 60.3201 84.3201 58.5501 84.3201C56.7801 84.3201 55.3301 84.6201 55.3301 84.9901C55.3301 85.3601 56.7801 85.6601 58.5501 85.6601Z" fill="#888888"/>
<path fill-rule="evenodd" clip-rule="evenodd" d="M54.9799 88.2799C59.1499 88.2799 62.5499 86.6799 62.5499 84.7099C62.5499 82.7399 59.1499 81.1299 54.9799 81.1299C50.8099 81.1299 47.4199 82.7399 47.4199 84.7099C47.4199 86.6799 50.7899 88.2799 54.9799 88.2799Z" fill="#3E3639"/>
<path fill-rule="evenodd" clip-rule="evenodd" d="M53.0901 22.3799H58.9201V85.1299V86.0699L58.9001 86.0899H58.8901L58.8601 86.1199L58.8501 86.1299L58.8301 86.1499L58.8001 86.1699L58.7601 86.1999L58.6901 86.2499L58.6601 86.2699L58.6201 86.2999L58.6001 86.3099L58.5801 86.3199L58.5501 86.3399L58.5401 86.3499L58.5001 86.3699L58.4901 86.3799L58.4601 86.3899L58.4301 86.4099H58.4201L58.3801 86.4399H58.3701L58.3401 86.4599L58.3101 86.4699L58.2901 86.4799L58.2501 86.4999H58.2401L58.2001 86.5199L58.1801 86.5299L58.1601 86.5399L58.1101 86.5599L58.0601 86.5899H58.0401L58.0101 86.5999L57.9701 86.6199H57.9601L57.9101 86.6399L57.9001 86.6499L57.8701 86.6599L57.8301 86.6699L57.8101 86.6799L57.7601 86.6999L57.7101 86.7099L57.6801 86.7199L57.6601 86.7299L57.6001 86.7499L57.5501 86.7599L57.5301 86.7699L57.5001 86.7799L57.4501 86.7899H57.4401L57.3801 86.8099H57.3701L57.3301 86.8199L57.2901 86.8299L57.2701 86.8399L57.2101 86.8499H57.2001L57.1601 86.8599L57.1201 86.8699L57.1001 86.8799L57.0401 86.8899L56.9801 86.8999L56.9501 86.9099H56.9201L56.8601 86.9199L56.8001 86.9299L56.7801 86.9399H56.7401L56.6901 86.9499H56.6701L56.6101 86.9599H56.6001L56.5501 86.9699H56.5101L56.4801 86.9799H56.4201L56.3601 86.9899H56.3201L56.2901 86.9999H56.2301L56.1601 87.0099H56.1401H56.1001H56.0401L56.0301 87.0199H55.9601H55.9501H55.8501L55.8301 87.0299H55.7601H55.7501H55.7001H55.6601H55.6301H55.5601H55.5101H55.4701H55.4601H55.4301H55.3801H55.3601H55.3401H55.3001L55.2701 87.0199H55.2501H55.2101H55.1701H55.1201H55.0801L55.0701 87.0099H55.0401H54.9901H54.9801H54.9501L54.9101 86.9999H54.8901H54.8701H54.8301L54.7901 86.9899H54.7801H54.7401L54.7001 86.9799H54.6601L54.6201 86.9699H54.5801L54.5401 86.9599H54.5201H54.5001L54.4601 86.9499H54.4301H54.4201L54.3801 86.9399H54.3401L54.3001 86.9299L54.2601 86.9199H54.2501L54.2201 86.9099H54.1801H54.1701L54.1401 86.8999L54.1001 86.8899H54.0801H54.0701L54.0301 86.8799L53.9901 86.8699L53.9501 86.8599L53.9101 86.8499L53.8801 86.8399H53.8401L53.8301 86.8299H53.8001L53.7701 86.8199L53.7501 86.8099H53.7301L53.7001 86.7999L53.6601 86.7899L53.6201 86.7799L53.5901 86.7699L53.5501 86.7599L53.5201 86.7499L53.4801 86.7399L53.4501 86.7299L53.3101 86.6799L53.2901 86.6699H53.2801L53.2501 86.6599L53.2201 86.6499L53.1901 86.6399L53.1501 86.6199L53.1201 86.6099L53.0901 86.5999V85.0899V22.3799Z" fill="#A37D73"/>
<path fill-rule="evenodd" clip-rule="evenodd" d="M53.0901 22.3799H58.9201V22.8999C58.0837 23.5413 57.0592 23.889 56.0051 23.889C54.9511 23.889 53.9265 23.5413 53.0901 22.8999V22.3799Z" fill="#170603"/>
<path fill-rule="evenodd" clip-rule="evenodd" d="M56.0101 22.3799H53.0901V85.1299V86.0699L53.1201 86.0899L53.1501 86.1199L53.1601 86.1299L53.1701 86.1399L53.2001 86.1599L53.2101 86.1699L53.2301 86.1899L53.2601 86.2099L53.3001 86.2299L53.3301 86.2499L53.3601 86.2699L53.3901 86.2999L53.4101 86.3099L53.4301 86.3199L53.4601 86.3399H53.4701L53.5001 86.3599L53.5201 86.3799H53.5301L53.5701 86.3999L53.5801 86.4099L53.6101 86.4199L53.6501 86.4399L53.6901 86.4599L53.7101 86.4699L53.7201 86.4799L53.7601 86.4999H53.7701L53.8001 86.5199L53.8401 86.5299V86.5399L53.8901 86.5599H53.9001L53.9301 86.5699L53.9701 86.5899L54.0201 86.6099L54.0401 86.6199L54.0601 86.6299L54.1001 86.6399L54.1101 86.6499L54.1501 86.6599L54.1801 86.6699L54.1901 86.6799L54.2401 86.6899L54.2601 86.6999L54.2901 86.7099L54.3301 86.7199L54.3801 86.7399L54.4101 86.7499H54.4301L54.4801 86.7699H54.4901L54.5301 86.7799L54.5601 86.7899H54.5801L54.6301 86.8099H54.6501L54.6801 86.8199L54.7301 86.8299L54.7801 86.8499H54.8101L54.8301 86.8599L54.8801 86.8699H54.8901L54.9401 86.8799L54.9801 86.8899H54.9901L55.0401 86.8999L55.0601 86.9099H55.1001L55.1501 86.9199L55.2001 86.9299L55.2401 86.9399H55.2601L55.3101 86.9499H55.3301L55.3701 86.9599H55.4201H55.4301L55.4801 86.9699L55.5401 86.9799H55.6001L55.6601 86.9899L55.7101 86.9999H55.7701H55.7801H55.8301L55.8801 87.0099H55.8901H55.9501H55.9701L56.0101 87.0199V85.1099V22.3799Z" fill="#BD9585"/>
<path fill-rule="evenodd" clip-rule="evenodd" d="M55.98 22.3799H53.0601V22.8999C53.896 23.5469 54.9229 23.8986 55.98 23.8999V22.3799Z" fill="#53362B"/>
<path fill-rule="evenodd" clip-rule="evenodd" d="M55.98 13.8999C56.923 13.9019 57.8442 14.1833 58.6273 14.7087C59.4104 15.234 60.0203 15.9797 60.3798 16.8515C60.7393 17.7232 60.8323 18.682 60.6471 19.6066C60.4619 20.5312 60.0068 21.3802 59.3394 22.0463C58.6719 22.7124 57.8219 23.1657 56.8969 23.349C55.9719 23.5322 55.0133 23.4372 54.1423 23.0758C53.2713 22.7145 52.5269 22.1032 52.0032 21.3189C51.4795 20.5347 51.2 19.6129 51.2 18.6699C51.1999 18.0427 51.3237 17.4216 51.564 16.8422C51.8044 16.2628 52.1566 15.7365 52.6006 15.2935C53.0446 14.8504 53.5716 14.4993 54.1515 14.2601C54.7314 14.021 55.3527 13.8986 55.98 13.8999Z" fill="#A37D73"/>
<path fill-rule="evenodd" clip-rule="evenodd" d="M53.6099 22.7997C52.5146 22.1645 51.7164 21.1202 51.391 19.8965C51.0657 18.6729 51.2397 17.3701 51.8749 16.2747C52.5101 15.1794 53.5544 14.3812 54.7781 14.0558C56.0017 13.7305 57.3045 13.9045 58.3999 14.5397L53.6099 22.7997Z" fill="#BD9585"/>
<path fill-rule="evenodd" clip-rule="evenodd" d="M60.78 18.6699C60.7237 19.8985 60.1961 21.0582 59.3068 21.9077C58.4174 22.7573 57.2349 23.2313 56.005 23.2313C54.7751 23.2313 53.5925 22.7573 52.7032 21.9077C51.8139 21.0582 51.2862 19.8985 51.23 18.6699C51.23 22.0699 55.58 22.3799 55.99 22.3799C57.58 22.3799 60.78 21.7599 60.78 18.6699Z" fill="#53362B"/>
<path fill-rule="evenodd" clip-rule="evenodd" d="M51.23 18.6699C51.23 19.2972 51.3537 19.9182 51.5941 20.4976C51.8344 21.077 52.1866 21.6033 52.6306 22.0464C53.0746 22.4894 53.6016 22.8406 54.1815 23.0797C54.7614 23.3188 55.3828 23.4412 56.01 23.4399V22.3799C54.4 22.3799 51.23 21.4099 51.23 18.6699Z" fill="#6F3E31"/>
<path fill-rule="evenodd" clip-rule="evenodd" d="M53.09 23.4399C53.997 23.8987 54.9941 24.1513 56.0101 24.1799C57.0308 24.2161 58.0406 23.9593 58.92 23.4399H92.11L87.72 37.3599L92.11 51.2799H58.92C58.0083 51.7462 57.0037 52.0025 55.98 52.0299C54.9676 51.9774 53.9754 51.726 53.0601 51.2899L53.09 23.4399Z" fill="#009844"/>
<path fill-rule="evenodd" clip-rule="evenodd" d="M55.98 24.1799C57.0007 24.2161 58.0105 23.9593 58.89 23.4399V51.2799C57.9873 51.7419 56.9935 51.9981 55.98 52.0299V24.1799Z" fill="#007A3C"/>
<path fill-rule="evenodd" clip-rule="evenodd" d="M81.9301 23.4399H92.1101L87.7201 37.3599L92.1101 51.2799H68.8601L81.9301 23.4399Z" fill="#007A3C"/>
</svg>
