<svg width="137" height="151" viewBox="0 0 137 151" fill="none" xmlns="http://www.w3.org/2000/svg">
<path d="M68.6399 113.92C99.8219 113.92 125.1 88.642 125.1 57.46C125.1 26.278 99.8219 1 68.6399 1C37.4579 1 12.1799 26.278 12.1799 57.46C12.1799 88.642 37.4579 113.92 68.6399 113.92Z" fill="white"/>
<path d="M68.6399 114.92C57.2754 114.92 46.1662 111.55 36.7169 105.236C27.2677 98.9225 19.9028 89.9485 15.5538 79.449C11.2048 68.9496 10.0669 57.3963 12.284 46.2501C14.5011 35.104 19.9737 24.8656 28.0096 16.8296C36.0456 8.79371 46.284 3.32122 57.4301 1.10411C68.5762 -1.113 80.1295 0.0248752 90.629 4.37389C101.128 8.7229 110.102 16.0877 116.416 25.537C122.73 34.9862 126.1 46.0955 126.1 57.46C126.084 72.6945 120.025 87.3004 109.253 98.0728C98.4804 108.845 83.8744 114.904 68.6399 114.92V114.92ZM68.6399 2.00005C57.671 2.00005 46.9484 5.2527 37.828 11.3467C28.7077 17.4407 21.5992 26.1024 17.4016 36.2364C13.204 46.3704 12.1057 57.5215 14.2456 68.2797C16.3855 79.0379 21.6676 88.9199 29.4238 96.6761C37.18 104.432 47.062 109.714 57.8202 111.854C68.5784 113.994 79.7296 112.896 89.8636 108.698C99.9976 104.501 108.659 97.3923 114.753 88.272C120.847 79.1516 124.1 68.429 124.1 57.46C124.084 42.756 118.236 28.6587 107.839 18.2614C97.4412 7.86407 83.344 2.01593 68.6399 2.00005V2.00005Z" fill="#22A6B3"/>
<path d="M128.52 94.26H7.88C3.528 94.26 0 97.788 0 102.14V142.31C0 146.662 3.528 150.19 7.88 150.19H128.52C132.872 150.19 136.4 146.662 136.4 142.31V102.14C136.4 97.788 132.872 94.26 128.52 94.26Z" fill="#22A6B3"/>
<path d="M30.65 124.89C30.5506 124.788 30.4603 124.678 30.3801 124.56L28.5001 121.26V127.88C28.5007 127.951 28.4868 128.021 28.4593 128.086C28.4318 128.152 28.3912 128.211 28.34 128.26C28.2921 128.313 28.2333 128.354 28.1677 128.382C28.102 128.409 28.0312 128.422 27.96 128.42H25.34C25.2691 128.421 25.1988 128.407 25.1335 128.379C25.0681 128.352 25.0091 128.311 24.96 128.26C24.8611 128.158 24.8041 128.022 24.8 127.88V114.96C24.8 114.889 24.8141 114.819 24.8416 114.754C24.869 114.688 24.9093 114.629 24.96 114.58C25.0091 114.529 25.0681 114.488 25.1335 114.461C25.1988 114.433 25.2691 114.419 25.34 114.42H27.66C27.7701 114.41 27.8809 114.425 27.9846 114.463C28.0883 114.501 28.1824 114.561 28.2601 114.64C28.3575 114.737 28.4446 114.845 28.52 114.96L31.7601 120.5L35.0001 114.96C35.0787 114.847 35.1656 114.74 35.2601 114.64C35.3389 114.563 35.4331 114.504 35.5365 114.466C35.6399 114.428 35.7502 114.412 35.86 114.42H38.1801C38.3225 114.423 38.4583 114.48 38.559 114.581C38.6597 114.682 38.7175 114.818 38.72 114.96V127.88C38.7207 127.951 38.7068 128.021 38.6793 128.086C38.6518 128.152 38.6112 128.211 38.5601 128.26C38.5121 128.313 38.4533 128.354 38.3877 128.382C38.3221 128.409 38.2512 128.422 38.1801 128.42H35.5601C35.4892 128.421 35.4189 128.407 35.3535 128.379C35.2882 128.352 35.2291 128.311 35.1801 128.26C35.0812 128.158 35.0241 128.022 35.02 127.88V121.26L33.14 124.56C33.0661 124.682 32.9752 124.793 32.8701 124.89C32.8071 124.948 32.7331 124.994 32.6523 125.023C32.5716 125.052 32.4858 125.065 32.4 125.06H31.1201C30.9472 125.067 30.7783 125.006 30.65 124.89V124.89Z" fill="white"/>
<path d="M51.54 125.22C51.6825 125.222 51.8183 125.28 51.9191 125.381C52.0198 125.482 52.0775 125.617 52.08 125.76V127.88C52.0807 127.951 52.0668 128.021 52.0393 128.086C52.0118 128.152 51.9712 128.211 51.92 128.26C51.8721 128.313 51.8133 128.354 51.7477 128.382C51.6821 128.409 51.6112 128.422 51.54 128.42H42.0601C41.9892 128.421 41.9189 128.407 41.8535 128.379C41.7882 128.352 41.7291 128.311 41.6801 128.26C41.5812 128.158 41.5241 128.022 41.52 127.88V114.96C41.5199 114.889 41.5341 114.819 41.5616 114.754C41.5891 114.688 41.6294 114.629 41.6801 114.58C41.7291 114.529 41.7882 114.488 41.8535 114.461C41.9189 114.433 41.9892 114.419 42.0601 114.42H51.3801C51.5225 114.423 51.6583 114.48 51.759 114.581C51.8598 114.682 51.9175 114.818 51.92 114.96V117.08C51.9207 117.151 51.9068 117.221 51.8793 117.286C51.8518 117.352 51.8112 117.411 51.7601 117.46C51.7106 117.511 51.6515 117.551 51.5862 117.578C51.521 117.606 51.4509 117.62 51.3801 117.62H45.22V119.78H50.98C51.1225 119.782 51.2584 119.84 51.3591 119.941C51.4598 120.042 51.5175 120.177 51.52 120.32V122.44C51.5207 122.511 51.5068 122.581 51.4793 122.646C51.4518 122.712 51.4112 122.771 51.36 122.82C51.3106 122.871 51.2515 122.911 51.1862 122.938C51.121 122.966 51.0509 122.98 50.98 122.98H45.2601V125.22H51.54Z" fill="white"/>
<path d="M64.6601 114.42C64.8025 114.423 64.9384 114.48 65.0391 114.581C65.1398 114.682 65.1975 114.818 65.2001 114.96V117.08C65.2007 117.151 65.1869 117.221 65.1594 117.286C65.1318 117.352 65.0913 117.411 65.0401 117.46C64.9907 117.511 64.9315 117.551 64.8663 117.578C64.801 117.606 64.7309 117.62 64.6601 117.62H61.1401V127.88C61.1407 127.951 61.1269 128.021 61.0994 128.086C61.0719 128.152 61.0313 128.211 60.9801 128.26C60.9322 128.313 60.8734 128.354 60.8077 128.382C60.7421 128.409 60.6713 128.422 60.6001 128.42H57.9801C57.9092 128.421 57.8389 128.407 57.7736 128.379C57.7082 128.352 57.6492 128.311 57.6001 128.26C57.5012 128.158 57.4442 128.022 57.4401 127.88V117.62H53.9201C53.7777 117.617 53.6418 117.56 53.5411 117.459C53.4404 117.358 53.3827 117.222 53.3801 117.08V114.96C53.3801 114.889 53.3942 114.819 53.4216 114.754C53.4491 114.688 53.4894 114.629 53.5401 114.58C53.5892 114.529 53.6482 114.488 53.7136 114.461C53.7789 114.433 53.8492 114.419 53.9201 114.42H64.6601Z" fill="white"/>
<path d="M72.98 114.42C73.7757 114.408 74.5693 114.502 75.34 114.7C75.981 114.857 76.5833 115.142 77.11 115.54C77.5995 115.913 77.9851 116.405 78.23 116.97C78.4988 117.602 78.6316 118.283 78.6201 118.97C78.6566 119.842 78.4413 120.707 78.0001 121.46C77.5754 122.126 76.963 122.651 76.2401 122.97L78.72 127.73C78.7571 127.798 78.7776 127.873 78.78 127.95C78.7809 128.008 78.7698 128.065 78.7474 128.119C78.7251 128.172 78.6919 128.22 78.65 128.26C78.6109 128.303 78.5629 128.337 78.5093 128.359C78.4558 128.382 78.398 128.392 78.34 128.39H75.6201C75.5179 128.399 75.4149 128.388 75.3171 128.357C75.2193 128.326 75.1286 128.276 75.05 128.21C74.9475 128.1 74.8569 127.979 74.78 127.85L72.5601 123.57H70.72V127.85C70.7207 127.921 70.7068 127.991 70.6793 128.057C70.6518 128.122 70.6112 128.181 70.5601 128.23C70.5121 128.283 70.4533 128.324 70.3877 128.352C70.3221 128.379 70.2512 128.392 70.1801 128.39H67.5601C67.4892 128.391 67.4189 128.377 67.3535 128.349C67.2882 128.322 67.2291 128.281 67.1801 128.23C67.0812 128.128 67.0241 127.992 67.02 127.85V114.96C67.0199 114.889 67.0341 114.819 67.0616 114.754C67.0891 114.689 67.1294 114.629 67.1801 114.58C67.2291 114.529 67.2882 114.488 67.3535 114.461C67.4189 114.433 67.4892 114.419 67.5601 114.42H72.98ZM70.72 120.48H72.98C73.4635 120.497 73.9429 120.387 74.3701 120.16C74.5417 120.019 74.6799 119.842 74.7748 119.642C74.8698 119.441 74.9191 119.222 74.9191 119C74.9191 118.778 74.8698 118.559 74.7748 118.358C74.6799 118.158 74.5417 117.981 74.3701 117.84C73.9429 117.613 73.4635 117.503 72.98 117.52H70.72V120.48Z" fill="white"/>
<path d="M81.4399 128.42C81.369 128.421 81.2987 128.407 81.2334 128.379C81.1681 128.352 81.109 128.311 81.0599 128.26C80.9611 128.158 80.904 128.022 80.8999 127.88V114.96C80.8998 114.889 80.914 114.819 80.9415 114.754C80.9689 114.688 81.0092 114.629 81.0599 114.58C81.109 114.529 81.1681 114.488 81.2334 114.461C81.2987 114.433 81.369 114.419 81.4399 114.42H84.0599C84.2024 114.423 84.3382 114.48 84.4389 114.581C84.5396 114.682 84.5973 114.818 84.5999 114.96V127.88C84.6006 127.951 84.5867 128.021 84.5592 128.086C84.5317 128.152 84.4911 128.211 84.4399 128.26C84.392 128.313 84.3332 128.354 84.2676 128.382C84.202 128.409 84.1311 128.422 84.0599 128.42H81.4399Z" fill="white"/>
<path d="M90.6199 119.72C90.6199 119.893 90.6199 120.133 90.6199 120.44C90.6199 120.74 90.6199 121.06 90.6199 121.44C90.6199 121.82 90.6199 122.08 90.6199 122.44C90.6199 122.8 90.6199 122.99 90.6199 123.17C90.648 123.469 90.7083 123.764 90.7999 124.05C90.8949 124.324 91.0446 124.576 91.2399 124.79C91.4567 125.009 91.7151 125.182 91.9999 125.3C92.365 125.433 92.7514 125.497 93.1399 125.49C93.5198 125.503 93.8991 125.449 94.2599 125.33C94.5204 125.242 94.7638 125.11 94.9799 124.94C95.1533 124.798 95.299 124.625 95.4099 124.43C95.5019 124.264 95.5788 124.09 95.6399 123.91C95.6819 123.746 95.7567 123.593 95.8599 123.46C95.9242 123.409 95.9979 123.371 96.0769 123.349C96.1559 123.326 96.2385 123.32 96.3199 123.33H98.9799C99.0966 123.33 99.2086 123.376 99.2911 123.459C99.3736 123.541 99.4199 123.653 99.4199 123.77C99.4105 124.441 99.239 125.1 98.9199 125.69C98.5942 126.297 98.1445 126.828 97.5999 127.25C96.9949 127.694 96.3185 128.033 95.5999 128.25C94.8108 128.516 93.9826 128.648 93.1499 128.64C92.2745 128.65 91.4042 128.505 90.5799 128.21C89.8696 127.943 89.2151 127.546 88.6499 127.04C88.1266 126.553 87.7081 125.964 87.4199 125.31C87.1363 124.647 86.9705 123.94 86.9299 123.22C86.9299 122.67 86.9299 122.08 86.9299 121.46C86.9299 120.84 86.9299 120.23 86.9299 119.66C86.9575 118.939 87.1203 118.23 87.4099 117.57C87.7028 116.918 88.1207 116.33 88.6399 115.84C89.1993 115.326 89.8554 114.928 90.5699 114.67C91.3965 114.37 92.2709 114.224 93.1499 114.24C93.9826 114.232 94.8108 114.364 95.5999 114.63C96.3219 114.862 96.9984 115.218 97.5999 115.68C98.1445 116.102 98.5942 116.633 98.9199 117.24C99.239 117.83 99.4105 118.489 99.4199 119.16C99.4208 119.218 99.4096 119.275 99.3873 119.328C99.3649 119.382 99.3318 119.43 99.2899 119.47C99.2508 119.513 99.2028 119.547 99.1492 119.569C99.0957 119.591 99.0379 119.602 98.9799 119.6H96.3599C96.2785 119.61 96.1958 119.603 96.1169 119.581C96.0379 119.559 95.9642 119.521 95.8999 119.47C95.7989 119.335 95.7243 119.182 95.6799 119.02C95.6188 118.84 95.5418 118.666 95.4499 118.5C95.3445 118.301 95.1979 118.127 95.0199 117.99C94.8094 117.812 94.5643 117.679 94.2999 117.6C93.9391 117.48 93.5598 117.426 93.1799 117.44C92.7912 117.429 92.404 117.493 92.0399 117.63C91.7531 117.744 91.4939 117.917 91.2799 118.14C91.0825 118.353 90.9325 118.605 90.8399 118.88C90.7375 119.151 90.6638 119.433 90.6199 119.72V119.72Z" fill="white"/>
<path d="M106.64 114.22C107.439 114.208 108.234 114.334 108.99 114.59C109.657 114.82 110.282 115.158 110.84 115.59C111.326 115.934 111.74 116.368 112.06 116.87C112.334 117.266 112.494 117.729 112.52 118.21C112.521 118.268 112.51 118.325 112.487 118.379C112.465 118.432 112.432 118.48 112.39 118.52C112.353 118.56 112.308 118.592 112.258 118.614C112.208 118.637 112.155 118.649 112.1 118.65H109.48C109.326 118.653 109.173 118.626 109.03 118.57C108.906 118.502 108.789 118.421 108.68 118.33L108.49 118.13C108.383 118.014 108.258 117.916 108.12 117.84C107.933 117.726 107.731 117.639 107.52 117.58C107.233 117.502 106.937 117.465 106.64 117.47C106.397 117.45 106.153 117.45 105.91 117.47C105.697 117.494 105.488 117.547 105.29 117.63C105.119 117.694 104.968 117.801 104.85 117.94C104.735 118.081 104.675 118.258 104.68 118.44C104.679 118.625 104.747 118.803 104.87 118.94C105.055 119.107 105.273 119.233 105.51 119.31C105.899 119.445 106.297 119.555 106.7 119.64L108.54 120.02C109.197 120.142 109.84 120.33 110.46 120.58C110.966 120.775 111.431 121.063 111.83 121.43C112.192 121.761 112.473 122.172 112.65 122.63C112.841 123.152 112.933 123.705 112.92 124.26C112.932 124.897 112.773 125.525 112.46 126.08C112.142 126.631 111.701 127.1 111.17 127.45C110.56 127.856 109.883 128.151 109.17 128.32C108.363 128.527 107.533 128.628 106.7 128.62C105.86 128.629 105.023 128.508 104.22 128.26C103.532 128.045 102.881 127.724 102.29 127.31C101.785 126.952 101.354 126.501 101.02 125.98C100.736 125.529 100.57 125.013 100.54 124.48C100.541 124.364 100.587 124.252 100.67 124.17C100.707 124.13 100.752 124.098 100.802 124.076C100.852 124.053 100.905 124.041 100.96 124.04H103.58C103.719 124.031 103.859 124.051 103.99 124.1C104.121 124.148 104.24 124.223 104.34 124.32C104.427 124.4 104.507 124.487 104.58 124.58C104.711 124.718 104.855 124.841 105.01 124.95C105.221 125.09 105.45 125.2 105.69 125.28C106.014 125.378 106.352 125.425 106.69 125.42C107.288 125.434 107.885 125.356 108.46 125.19C108.657 125.157 108.836 125.056 108.966 124.904C109.096 124.752 109.168 124.56 109.17 124.36C109.172 124.262 109.149 124.164 109.104 124.077C109.058 123.99 108.992 123.915 108.91 123.86C108.675 123.69 108.411 123.564 108.13 123.49C107.694 123.352 107.25 123.242 106.8 123.16L104.98 122.72C103.856 122.54 102.811 122.028 101.98 121.25C101.305 120.496 100.947 119.511 100.98 118.5C100.978 117.93 101.112 117.368 101.37 116.86C101.644 116.325 102.029 115.854 102.5 115.48C103.035 115.058 103.641 114.736 104.29 114.53C105.051 114.298 105.845 114.194 106.64 114.22V114.22Z" fill="white"/>
<path d="M102.49 38.78H80.6999C79.2537 37.8244 78.0625 36.5303 77.2299 35.01L70.5599 21.49C69.2599 18.85 67.1299 18.85 65.8299 21.49L59.1599 35.01C58.3273 36.5303 57.1362 37.8244 55.6899 38.78H33.9099V44.78C33.9219 45.257 34.0372 45.7257 34.2478 46.1539C34.4584 46.582 34.7594 46.9594 35.1299 47.26L45.9799 57.72C47.0821 58.924 47.9131 60.3504 48.4168 61.903C48.9205 63.4556 49.0853 65.0983 48.8999 66.72L46.2699 76.43V82.43C46.2699 84.43 47.4199 85.36 49.2699 84.79C49.5873 84.687 49.8952 84.5565 50.1899 84.4L63.5299 77.4C65.0143 76.7275 66.6253 76.3796 68.2549 76.3796C69.8846 76.3796 71.4955 76.7275 72.9799 77.4L86.3299 84.4C86.6229 84.56 86.9312 84.6907 87.2499 84.79C89.0899 85.36 90.2499 84.41 90.2499 82.42V76.47L87.5399 66.72C87.3572 65.0984 87.5232 63.4565 88.0268 61.9043C88.5304 60.352 89.36 58.9254 90.4599 57.72L101.26 47.2C101.944 46.6277 102.384 45.8158 102.49 44.93V44.93V38.78Z" fill="#D27E18"/>
<path d="M70.56 16.19C69.26 13.56 67.13 13.56 65.83 16.19L59.16 29.7201C58.3544 31.1382 57.2552 32.3679 55.9359 33.3267C54.6166 34.2856 53.1076 34.9516 51.51 35.2801L36.59 37.44C33.69 37.87 33.03 39.89 35.13 41.94L45.98 52.45C47.0822 53.654 47.9132 55.0805 48.4169 56.6331C48.9206 58.1858 49.0854 59.8283 48.9 61.45L46.35 76.3101C45.85 79.2101 47.58 80.4601 50.18 79.0901L63.52 72.0901C65.0032 71.4131 66.6146 71.0628 68.245 71.0628C69.8754 71.0628 71.4868 71.4131 72.97 72.0901L86.32 79.0901C88.92 80.4601 90.64 79.2101 90.14 76.3101L87.59 61.45C87.4073 59.8284 87.5733 58.1865 88.0769 56.6343C88.5805 55.0821 89.4101 53.6555 90.51 52.45L101.31 41.9301C103.41 39.8801 102.76 37.8601 99.85 37.4301L84.93 35.27C83.3325 34.9416 81.8235 34.2756 80.5042 33.3167C79.1849 32.3579 78.0856 31.1282 77.28 29.71L70.56 16.19Z" fill="#FBD28A"/>
<path d="M88.19 78.2999C87.6233 78.2677 87.0719 78.1032 86.58 77.8199L73.23 70.8199C71.6505 70.0949 69.933 69.7196 68.195 69.7196C66.4571 69.7196 64.7395 70.0949 63.16 70.8199L49.81 77.8199C49.3211 78.1018 48.7733 78.2661 48.21 78.2999C48.0243 78.3186 47.837 78.293 47.6631 78.2252C47.4893 78.1574 47.334 78.0494 47.21 77.9099C47.0199 77.5815 46.9012 77.2168 46.8616 76.8394C46.822 76.4621 46.8623 76.0806 46.98 75.7199L49.53 60.8599C49.7268 59.1328 49.55 57.3835 49.0117 55.7307C48.4734 54.0778 47.5861 52.5599 46.41 51.2799L35.62 40.7499C34.8 39.9599 34.45 39.1699 34.62 38.5799C34.79 37.9899 35.56 37.5799 36.69 37.3999L51.61 35.2299C53.3128 34.8834 54.9215 34.1755 56.3274 33.1543C57.7334 32.133 58.9039 30.8221 59.76 29.3099L66.43 15.7899C66.93 14.7899 67.58 14.1799 68.2 14.1799C68.82 14.1799 69.46 14.7699 69.96 15.7899L76.63 29.3099C77.4862 30.8221 78.6566 32.133 80.0626 33.1543C81.4685 34.1755 83.0772 34.8834 84.78 35.2299L99.7 37.3999C100.83 37.5599 101.58 37.9899 101.77 38.5799C101.96 39.1699 101.61 39.9599 100.77 40.7499L89.98 51.3099C88.8039 52.59 87.9166 54.1078 87.3783 55.7607C86.84 57.4135 86.6633 59.1628 86.86 60.8899L89.43 75.7199C89.533 76.081 89.5594 76.4596 89.5078 76.8315C89.4561 77.2035 89.3275 77.5605 89.13 77.8799C89.0133 78.0121 88.8679 78.1159 88.7051 78.1835C88.5422 78.2511 88.3661 78.2806 88.19 78.2699V78.2999Z" fill="#FCB71E"/>
<path d="M75.1001 67.26C72.9431 66.2328 70.5842 65.6998 68.1951 65.6998C65.8061 65.6998 63.4471 66.2328 61.2901 67.26L51.6001 72.36L53.4601 61.57C53.7631 59.2019 53.5373 56.7961 52.799 54.5257C52.0606 52.2553 50.8281 50.1769 49.1901 48.44L41.3501 40.8L52.1801 39.22C54.5263 38.7796 56.7454 37.8237 58.6771 36.4211C60.6088 35.0186 62.2049 33.2046 63.3501 31.11L68.2001 21.29L73.0401 31.11C74.1853 33.2046 75.7814 35.0186 77.7131 36.4211C79.6448 37.8237 81.8639 38.7796 84.2101 39.22L95.0401 40.8L87.2001 48.44C85.5704 50.1809 84.3467 52.2613 83.6171 54.5316C82.8874 56.8019 82.6699 59.2056 82.9801 61.57L84.8301 72.36L75.1001 67.26Z" fill="#F6C157"/>
<path d="M94.9801 40.8599C91.1401 42.2099 84.8601 44.7098 82.7501 47.3198C79.6401 51.1898 79.6401 61.5399 79.5201 63.5399C79.4001 65.5399 73.5201 60.7599 64.3901 63.5399C55.2601 66.3199 51.8401 71.0298 51.8401 71.0298L51.6101 72.3599L61.3001 67.2598C63.4571 66.2326 65.816 65.6996 68.2051 65.6996C70.5941 65.6996 72.9531 66.2326 75.1101 67.2598L84.8001 72.3599L82.9801 61.5698C82.6751 59.2024 82.899 56.7969 83.6356 54.5264C84.3723 52.256 85.6033 50.1772 87.2401 48.4398L94.9801 40.8599Z" fill="#F3961E"/>
<path d="M57.8201 41.16C67.5201 39.03 69.0901 29.84 68.5301 21.97L68.2001 21.29L63.3501 31.11C62.2049 33.2046 60.6088 35.0186 58.6771 36.4211C56.7454 37.8237 54.5263 38.7796 52.1801 39.22L41.3501 40.8L41.4501 40.89C45.0401 42.2 50.3001 42.82 57.8201 41.16Z" fill="#FBD28A"/>
<path d="M50.0601 49.3999C51.4058 51.1014 52.3995 53.0538 52.9832 55.1432C53.5669 57.2326 53.729 59.4172 53.46 61.5699L51.83 71.0299C51.83 71.0299 59.9801 56.5199 50.0601 49.3999Z" fill="#FED001"/>
<path d="M82.3 53.5799C80.85 59.8099 82.3 68.3199 82.3 68.3199C82.3 68.3199 72.67 62.7099 65.44 64.8799C60.5247 66.4035 55.953 68.8694 51.98 72.1399L61.25 67.2599C63.407 66.2327 65.7659 65.6997 68.155 65.6997C70.544 65.6997 72.903 66.2327 75.06 67.2599L84.75 72.3599L82.98 61.5699C82.675 59.2025 82.8989 56.7969 83.6355 54.5265C84.3721 52.256 85.6032 50.1773 87.24 48.4399L91.87 43.9299C89.36 45.1899 83.43 48.7199 82.3 53.5799Z" fill="#F3961E"/>
<path d="M59.27 38.5098C64.74 35.8098 67.71 26.3798 68.27 21.3298L63.42 31.1498C62.2748 33.2444 60.6787 35.0584 58.747 36.4609C56.8153 37.8635 54.5963 38.8194 52.2501 39.2598L44.8 40.3499C48.87 40.4599 55.48 40.3698 59.27 38.5098Z" fill="#FBD28A"/>
</svg>
