<svg width="150" height="137" viewBox="0 0 150 137" fill="none" xmlns="http://www.w3.org/2000/svg">
<g filter="url(#filter0_d_682_14105)">
<path d="M71.3677 98.7034C97.4289 98.7034 118.556 77.665 118.556 51.7129C118.556 25.7608 97.4289 4.72241 71.3677 4.72241C45.3065 4.72241 24.1797 25.7608 24.1797 51.7129C24.1797 77.665 45.3065 98.7034 71.3677 98.7034Z" fill="white"/>
<path d="M71.3677 99.5357C61.8695 99.5357 52.5846 96.7309 44.6871 91.4761C36.7897 86.2212 30.6343 78.7524 26.9995 70.0139C23.3647 61.2754 22.4137 51.6598 24.2667 42.3831C26.1197 33.1064 30.6936 24.5852 37.4098 17.8971C44.1261 11.209 52.6831 6.65432 61.9988 4.80907C71.3145 2.96381 80.9704 3.91084 89.7456 7.53043C98.5208 11.15 106.021 17.2796 111.298 25.144C116.575 33.0084 119.391 42.2545 119.391 51.7129C119.378 64.3922 114.314 76.5484 105.311 85.5141C96.3077 94.4797 84.1003 99.5225 71.3677 99.5357ZM71.3677 5.55473C62.2001 5.55473 53.2384 8.26185 45.6158 13.3338C37.9932 18.4057 32.0521 25.6146 28.5439 34.0489C25.0356 42.4832 24.1176 51.7641 25.9061 60.7179C27.6947 69.6717 32.1093 77.8963 38.5918 84.3517C45.0742 90.807 53.3334 95.2032 62.3248 96.9842C71.3163 98.7652 80.6362 97.8511 89.1059 94.3575C97.5757 90.8639 104.815 84.9477 109.908 77.357C115.001 69.7664 117.72 60.8421 117.72 51.7129C117.707 39.475 112.819 27.7422 104.129 19.0887C95.4391 10.4352 83.657 5.56795 71.3677 5.55473Z" fill="#7E5BF1"/>
<path d="M133.796 81.8901H8.20352C3.67284 81.8901 0 84.8548 0 88.512V122.268C0 125.925 3.67284 128.89 8.20352 128.89H133.796C138.327 128.89 142 125.925 142 122.268V88.512C142 84.8548 138.327 81.8901 133.796 81.8901Z" fill="#7E5BF1"/>
<path d="M55.4672 66.0628C55.4672 66.025 55.4932 65.9818 55.5088 65.9386L56.5017 62.7691C56.5102 62.7444 56.5248 62.7225 56.5439 62.7055C56.563 62.6885 56.5861 62.6769 56.6108 62.6719L60.5358 62.1049C60.5528 62.1097 60.5707 62.1097 60.5877 62.1049L71.0733 55.8684C72.9707 54.7291 76.2718 54.8695 78.476 56.187L87.1836 61.3706C87.214 61.3813 87.2469 61.3813 87.2772 61.3706L89.4086 61.0628C89.4408 61.0574 89.4738 61.0643 89.5015 61.0821C89.5292 61.1 89.5498 61.1276 89.5594 61.16L90.4951 64.1136C90.6548 64.3774 90.7577 64.6739 90.7966 64.9829C90.8902 65.782 90.4743 66.5596 89.5282 67.1427L75.1074 75.728C73.2099 76.8673 69.9088 76.727 67.7046 75.4095L57.1827 69.1352C55.7219 68.2604 55.1345 67.0887 55.4672 66.0628Z" fill="#59242F"/>
<path d="M72.3313 62.051L71.0733 55.8631C72.9707 54.7238 76.2718 54.8641 78.476 56.1816L87.1836 61.3652C87.214 61.3759 87.2469 61.3759 87.2772 61.3652L89.4086 61.0574C89.4408 61.052 89.4738 61.0589 89.5015 61.0768C89.5292 61.0946 89.5498 61.1223 89.5594 61.1546L90.3756 63.6546C90.5769 64.0721 90.7187 64.5177 90.7966 64.9775C90.8902 65.7767 90.4743 66.5542 89.5282 67.1374L75.1074 75.7281C74.3059 76.1772 73.4177 76.4337 72.5081 76.4786L72.3313 62.051Z" fill="#702D45"/>
<path d="M75.2217 71.5164L88.4469 63.6331C90.2664 62.5532 90.0376 60.6471 87.927 59.389L78.0237 53.4873C75.9443 52.2292 72.7576 52.0942 70.9433 53.1795L57.7181 61.0629C55.9038 62.1428 56.1586 64.0488 58.238 65.3069L68.1153 71.2087C70.2363 72.4884 73.4074 72.6018 75.2217 71.5164Z" fill="#B74679"/>
<mask id="mask0_682_14105" style="mask-type:luminance" maskUnits="userSpaceOnUse" x="56" y="52" width="34" height="21">
<path d="M78.0445 53.4873C75.9651 52.2292 72.7784 52.0942 70.9641 53.1795L57.7337 61.0629C55.9194 62.1428 56.1742 64.0488 58.2536 65.3069L68.1309 71.2087C70.2103 72.4668 73.397 72.6018 75.2165 71.5164L88.4417 63.6331C90.256 62.5532 90.0273 60.6471 87.9218 59.389L78.0445 53.4873Z" fill="white"/>
</mask>
<g mask="url(#mask0_682_14105)">
<path d="M55.306 62.256L66.327 65.134C66.6272 65.2305 66.9466 65.2435 67.2532 65.1714C67.5597 65.0994 67.8427 64.945 68.0737 64.7236C68.3648 64.324 68.0737 63.8543 67.3875 63.6761L56.3665 60.7981C56.0671 60.702 55.7486 60.6893 55.4429 60.7614C55.1373 60.8334 54.8552 60.9876 54.625 61.2085C54.3287 61.608 54.6354 62.0778 55.306 62.256Z" fill="#D36E9C"/>
<path d="M47.1911 62.7691L58.212 65.6471C58.5123 65.7436 58.8317 65.7565 59.1382 65.6845C59.4448 65.6125 59.7278 65.4581 59.9588 65.2367C60.2499 64.8371 59.9588 64.3674 59.2725 64.1946L48.2516 61.3112C47.9513 61.2152 47.632 61.2026 47.3255 61.2746C47.0191 61.3465 46.7361 61.5007 46.5049 61.7216C46.2137 62.1049 46.5205 62.5693 47.1911 62.7691Z" fill="#D36E9C"/>
<path d="M61.6587 66.727L72.6796 69.6104C72.9805 69.704 73.2997 69.715 73.6059 69.6421C73.912 69.5692 74.1948 69.415 74.4263 69.1946C74.7175 68.795 74.4263 68.3253 73.7401 68.1525L62.7192 65.2691C62.4188 65.1742 62.0997 65.1621 61.7935 65.234C61.4872 65.306 61.2043 65.4595 60.9725 65.6795C60.6813 66.0844 60.9672 66.5488 61.6587 66.727Z" fill="#D36E9C"/>
<path d="M76.2771 70.5822L87.298 73.4656C87.5984 73.561 87.9175 73.5734 88.2239 73.5014C88.5302 73.4294 88.8132 73.2756 89.0448 73.0552C89.3359 72.6502 89.0448 72.1858 88.3585 72.0077L77.3376 69.1243C77.0376 69.03 76.7191 69.0187 76.4136 69.0917C76.1081 69.1646 75.8263 69.3192 75.5961 69.5401C75.2997 69.9396 75.6065 70.4094 76.2771 70.5822Z" fill="#D36E9C"/>
<path d="M80.1552 62.5746L91.1762 65.4688C91.4756 65.5649 91.7941 65.5776 92.0998 65.5055C92.4054 65.4335 92.6875 65.2793 92.9177 65.0584C93.214 64.6588 92.9177 64.1891 92.2367 64.0109L81.2157 61.1329C80.9155 61.0364 80.5961 61.0234 80.2895 61.0955C79.983 61.1675 79.7 61.3219 79.469 61.5433C79.1623 61.9321 79.4846 62.4018 80.1552 62.5746Z" fill="#D36E9C"/>
<path d="M67.6266 62.5531L78.6424 65.4365C78.9429 65.5304 79.2617 65.5419 79.5677 65.47C79.8738 65.3981 80.1567 65.2452 80.3891 65.0261C80.6802 64.6212 80.3891 64.1568 79.7029 63.9786L68.6819 61.0953C68.3823 61.0013 68.0643 60.9898 67.759 61.0617C67.4538 61.1336 67.1717 61.2866 66.9404 61.5056C66.6493 61.9106 66.956 62.3804 67.6266 62.5531Z" fill="#D36E9C"/>
<path d="M53.4917 58.7787L64.5127 61.6891C64.8124 61.783 65.1304 61.7946 65.4356 61.7227C65.7409 61.6508 66.0229 61.4978 66.2542 61.2787C66.5506 60.8738 66.2542 60.4094 65.5732 60.2312L54.5523 57.3479C54.2517 57.254 53.933 57.2425 53.6269 57.3144C53.3209 57.3863 53.0379 57.5392 52.8055 57.7582C52.5144 58.1362 52.8211 58.606 53.4917 58.7787Z" fill="#D36E9C"/>
<path d="M82.2814 66.1115L93.3024 68.9949C93.6029 69.0887 93.9216 69.1003 94.2277 69.0284C94.5338 68.9564 94.8167 68.8035 95.0491 68.5845C95.3402 68.1795 95.0491 67.7098 94.3629 67.537L83.3419 64.6536C83.0414 64.5603 82.7227 64.549 82.4168 64.6209C82.1108 64.6928 81.8278 64.8454 81.5952 65.064C81.2989 65.469 81.6056 65.9387 82.2814 66.1115Z" fill="#D36E9C"/>
<path d="M69.7632 66.1114L80.7842 68.9948C81.0847 69.0881 81.4034 69.0994 81.7093 69.0275C82.0153 68.9556 82.2983 68.803 82.5309 68.5844C82.822 68.1794 82.5309 67.7097 81.8447 67.5369L70.8237 64.6535C70.5232 64.5597 70.2045 64.5482 69.8984 64.6201C69.5923 64.692 69.3094 64.8449 69.077 65.0639C68.7651 65.4689 69.0926 65.9386 69.7632 66.1114Z" fill="#D36E9C"/>
<path d="M65.2613 58.8652L76.2822 61.7486C76.5825 61.8452 76.9019 61.8581 77.2084 61.7861C77.515 61.7141 77.7979 61.5596 78.0289 61.3383C78.3201 60.9387 78.0289 60.4689 77.3427 60.2907L66.3218 57.4128C66.0215 57.3167 65.7022 57.3041 65.3958 57.3761C65.0893 57.4481 64.8063 57.6022 64.5751 57.8231C64.2839 58.2227 64.6062 58.6925 65.2613 58.8652Z" fill="#D36E9C"/>
<path d="M71.5672 57.6611L82.5881 60.5445C82.889 60.6387 83.2083 60.6499 83.5145 60.577C83.8208 60.5041 84.1035 60.3496 84.3349 60.1287C84.626 59.7292 84.3349 59.2594 83.6486 59.0866L72.6277 56.2033C72.3272 56.1089 72.0083 56.0971 71.7022 56.169C71.396 56.2409 71.1131 56.3941 70.881 56.6136C70.5898 57.0186 70.8966 57.483 71.5672 57.6611Z" fill="#D36E9C"/>
<path d="M56.8084 53.7951L67.8294 56.6785C68.1294 56.7728 68.4479 56.784 68.7534 56.7111C69.0588 56.6382 69.3406 56.4836 69.5709 56.2627C69.8672 55.8631 69.5709 55.3934 68.8899 55.2206L57.8481 52.3372C57.5485 52.2433 57.2305 52.2317 56.9252 52.3036C56.62 52.3756 56.3379 52.5285 56.1066 52.7476C55.8415 53.1525 56.1482 53.6169 56.8084 53.7951Z" fill="#D36E9C"/>
<path d="M86.1231 61.2842L97.1441 64.1676C97.4443 64.2641 97.7637 64.2771 98.0703 64.205C98.3769 64.133 98.6598 63.9786 98.8908 63.7572C99.1819 63.3522 98.8908 62.8879 98.2046 62.7097L87.1836 59.8317C86.8833 59.7357 86.5641 59.7231 86.2576 59.7951C85.9512 59.8671 85.6682 60.0212 85.4369 60.2421C85.1458 60.6416 85.4525 61.1114 86.1231 61.2842Z" fill="#D36E9C"/>
<path d="M76.7969 56.0304L87.8179 58.9137C88.1184 59.007 88.4371 59.0183 88.743 58.9464C89.049 58.8745 89.332 58.7219 89.5646 58.5034C89.8557 58.0984 89.5646 57.6286 88.8784 57.4558L77.8574 54.5725C77.5569 54.4786 77.2381 54.4671 76.9321 54.539C76.626 54.6109 76.3431 54.7638 76.1107 54.9828C75.8196 55.3878 76.1263 55.8522 76.7969 56.0304Z" fill="#D36E9C"/>
<path d="M62.2929 52.5855L73.3139 55.4688C73.6141 55.5654 73.9335 55.5783 74.2401 55.5063C74.5466 55.4343 74.8296 55.2798 75.0606 55.0585C75.3517 54.6535 75.0606 54.1891 74.3744 54.0109L63.3534 51.133C63.0531 51.037 62.7338 51.0243 62.4274 51.0963C62.1209 51.1683 61.838 51.3224 61.6067 51.5433C61.3156 51.9699 61.6223 52.4127 62.2929 52.5855Z" fill="#D36E9C"/>
<path d="M69.129 51.7324L80.15 54.6157C80.4505 54.7096 80.7692 54.7211 81.0753 54.6492C81.3814 54.5773 81.6643 54.4244 81.8967 54.2054C82.1878 53.8004 81.8967 53.336 81.2105 53.1578L70.1895 50.2745C69.8889 50.1811 69.5703 50.1699 69.2643 50.2418C68.9584 50.3137 68.6754 50.4663 68.4428 50.6848C68.1517 51.0898 68.4584 51.5596 69.129 51.7324Z" fill="#D36E9C"/>
<path d="M62.8439 72.6773L73.8649 75.5607C74.1645 75.6546 74.4825 75.6662 74.7878 75.5943C75.093 75.5223 75.3751 75.3694 75.6064 75.1503C75.9027 74.7454 75.6064 74.2756 74.9254 74.1028L63.9044 71.2194C63.6039 71.1256 63.2852 71.1141 62.9791 71.186C62.673 71.2579 62.3901 71.4108 62.1577 71.6298C61.8666 72.0348 62.1733 72.4883 62.8439 72.6773Z" fill="#D36E9C"/>
<path d="M47.8305 68.6276L58.8514 71.511C59.1519 71.6048 59.4707 71.6164 59.7768 71.5445C60.0828 71.4726 60.3658 71.3196 60.5982 71.1006C60.8893 70.6956 60.5982 70.2259 59.9119 70.0531L48.891 67.1697C48.5904 67.0764 48.2718 67.0651 47.9658 67.137C47.6599 67.2089 47.3769 67.3615 47.1443 67.5801C46.8531 67.9851 47.1599 68.4494 47.8305 68.6276Z" fill="#D36E9C"/>
<path d="M53.2266 73.0283L64.2476 75.9116C64.547 76.0077 64.8655 76.0204 65.1712 75.9484C65.4768 75.8764 65.7589 75.7222 65.9891 75.5013C66.2854 75.1017 65.9891 74.632 65.3081 74.4538L54.2871 71.5758C53.9869 71.4792 53.6675 71.4663 53.3609 71.5383C53.0543 71.6104 52.7714 71.7648 52.5404 71.9862C52.2493 72.3695 52.556 72.8393 53.2266 73.0283Z" fill="#D36E9C"/>
<path d="M54.729 67.6718L65.75 70.5552C66.0505 70.6485 66.3691 70.6597 66.6751 70.5879C66.9811 70.516 67.264 70.3634 67.4967 70.1448C67.7878 69.7398 67.4967 69.2701 66.8104 69.0973L55.7895 66.2139C55.4889 66.1206 55.1703 66.1093 54.8643 66.1812C54.5584 66.2531 54.2754 66.4057 54.0428 66.6243C53.7724 67.0293 54.0792 67.4936 54.729 67.6718Z" fill="#D36E9C"/>
<path d="M69.6333 71.6515L80.6542 74.5349C80.9537 74.631 81.2722 74.6436 81.5778 74.5716C81.8835 74.4996 82.1655 74.3454 82.3957 74.1245C82.6921 73.7195 82.3957 73.2552 81.7095 73.077L70.6886 70.199C70.3891 70.1029 70.0706 70.0902 69.765 70.1622C69.4593 70.2343 69.1773 70.3884 68.9471 70.6094C68.6507 71.0089 68.9575 71.4787 69.6333 71.6515Z" fill="#D36E9C"/>
</g>
<path d="M64.2372 61.5703C64.235 61.5506 64.235 61.5307 64.2372 61.511L64.6635 59.065C64.6667 59.053 64.6735 59.0424 64.6828 59.0347C64.6921 59.0269 64.7035 59.0224 64.7154 59.0217L66.4206 58.7734L70.8913 56.0736C71.4007 55.8332 71.9574 55.7206 72.5164 55.745C73.0754 55.7694 73.6211 55.93 74.1093 56.214L77.9406 58.4494C77.954 58.4548 77.9688 58.4548 77.9822 58.4494L78.9075 58.3144C78.9216 58.314 78.9355 58.3179 78.9475 58.3256C78.9595 58.3333 78.9691 58.3444 78.9751 58.3576L79.3806 60.7172C79.451 60.8313 79.4955 60.9606 79.5106 61.0952C79.522 61.2908 79.4753 61.4853 79.3767 61.6524C79.2781 61.8195 79.1325 61.9511 78.9595 62.0293L72.7836 65.7604C72.2734 66.0009 71.7158 66.1135 71.156 66.0891C70.5961 66.0647 70.0496 65.904 69.5605 65.62L64.9858 62.8932C64.3464 62.5261 64.0864 62.0131 64.2372 61.5703Z" fill="#BC0900"/>
<path d="M71.6295 60.3825L70.9329 56.0628C71.4423 55.8224 71.999 55.7098 72.558 55.7342C73.117 55.7586 73.6627 55.9193 74.1508 56.2032L77.9406 58.4494H77.9822L78.9075 58.3145C78.9218 58.3133 78.9359 58.3169 78.9481 58.3247C78.9602 58.3324 78.9697 58.344 78.9751 58.3576L79.3858 60.3123C79.4551 60.5677 79.497 60.8303 79.5106 61.0952C79.522 61.2908 79.4753 61.4854 79.3767 61.6524C79.2781 61.8195 79.1325 61.9511 78.9595 62.0294L72.7836 65.7605C72.4312 65.9528 72.0427 66.0633 71.6451 66.0844L71.6295 60.3825Z" fill="#FF8B00"/>
<path d="M72.8304 62.8663L78.4916 59.4484C79.2818 58.9733 79.183 58.1471 78.2681 57.6018L73.9637 55.037C73.4962 54.7644 72.9734 54.6101 72.4378 54.5866C71.9022 54.5632 71.3688 54.6712 70.8809 54.902L65.2249 58.3199C64.4347 58.7951 64.5334 59.6212 65.4432 60.1666L69.7528 62.7368C70.2202 63.0072 70.7422 63.1598 71.2767 63.1823C71.8113 63.2049 72.3435 63.0966 72.8304 62.8663Z" fill="#FFD72E"/>
<path d="M67.7254 57.9419V57.9149L67.7618 57.7961C69.1229 53.3242 69.7983 48.6577 69.7632 43.9678L71.6763 44.1946L73.5946 43.9678C73.5579 48.6574 74.2316 53.3238 75.5908 57.7961C75.5908 57.8339 75.5908 57.8771 75.6324 57.9149V57.9419C75.8299 58.6762 75.4608 59.4591 74.5095 60.0315C73.6299 60.4949 72.6574 60.7364 71.6711 60.7364C70.6848 60.7364 69.7123 60.4949 68.8327 60.0315C67.8761 59.4591 67.5018 58.6762 67.7254 57.9419Z" fill="#FF8B00"/>
<path d="M71.12 46.4571C71.12 46.4571 71.7491 54.1731 70.9901 60.6957C70.2312 60.6317 69.4932 60.4056 68.8223 60.0316C67.8761 59.4592 67.5018 58.6763 67.7046 57.9419V57.915L67.741 57.7962C69.0013 53.6597 69.6704 49.3536 69.7268 45.0154L71.12 46.4571Z" fill="#BC0900"/>
<path d="M56.2521 25.145H87.0693C87.0693 25.145 87.4695 35.9441 76.0951 45.0748C75.8509 45.3263 75.5766 45.544 75.2789 45.7228C74.1586 46.3137 72.9198 46.6217 71.6633 46.6217C70.4068 46.6217 69.168 46.3137 68.0477 45.7228C67.7491 45.5454 67.4746 45.3275 67.2315 45.0748C55.8518 35.9226 56.2521 25.145 56.2521 25.145Z" fill="#FF8B00"/>
<mask id="mask1_682_14105" style="mask-type:luminance" maskUnits="userSpaceOnUse" x="56" y="25" width="32" height="22">
<path d="M56.1898 25.145H87.0069C87.0069 25.145 87.4072 35.9441 76.0275 45.0748C75.7844 45.3275 75.5099 45.5454 75.2113 45.7228C74.0919 46.3137 72.854 46.6216 71.5983 46.6216C70.3427 46.6216 69.1047 46.3137 67.9853 45.7228C67.6852 45.5454 67.409 45.3275 67.164 45.0748C55.7687 35.9225 56.1898 25.145 56.1898 25.145Z" fill="white"/>
</mask>
<g mask="url(#mask1_682_14105)">
<path d="M78.2993 29.2325L80.987 27.0727C81.1379 26.9519 81.2368 26.774 81.2621 26.5778C81.2875 26.3816 81.2371 26.183 81.1221 26.0252C81.0058 25.8683 80.8346 25.7656 80.6457 25.7393C80.4568 25.713 80.2655 25.7653 80.1136 25.8848L77.4207 28.0446C77.346 28.1039 77.2833 28.178 77.2362 28.2626C77.1892 28.3472 77.1587 28.4406 77.1466 28.5375C77.1346 28.6344 77.1411 28.7328 77.1658 28.8271C77.1906 28.9213 77.233 29.0096 77.2908 29.0867C77.3476 29.1654 77.4188 29.2316 77.5003 29.2815C77.5818 29.3314 77.6721 29.3641 77.7658 29.3777C77.8596 29.3912 77.955 29.3854 78.0465 29.3604C78.1381 29.3355 78.224 29.292 78.2993 29.2325Z" fill="#FFD72E"/>
<path d="M73.5634 29.524L76.2563 27.3641C76.4065 27.2425 76.5043 27.0643 76.5287 26.8681C76.553 26.672 76.5018 26.4738 76.3862 26.3166C76.3291 26.2384 76.2576 26.1727 76.1759 26.1232C76.0941 26.0738 76.0038 26.0416 75.9101 26.0286C75.8164 26.0155 75.7211 26.0219 75.6297 26.0472C75.5384 26.0725 75.4527 26.1164 75.3777 26.1762L72.6901 28.3361C72.6147 28.3954 72.5515 28.4697 72.5039 28.5546C72.4563 28.6395 72.4253 28.7333 72.4127 28.8306C72.4002 28.928 72.4063 29.0269 72.4307 29.1218C72.4551 29.2167 72.4973 29.3057 72.5549 29.3836C72.6712 29.5404 72.8424 29.6431 73.0313 29.6694C73.2202 29.6957 73.4115 29.6434 73.5634 29.524Z" fill="#FFD72E"/>
<path d="M77.9562 25.2259L80.6438 23.0661C80.7188 23.0063 80.7816 22.9318 80.8287 22.8467C80.8758 22.7616 80.9063 22.6677 80.9184 22.5704C80.9304 22.4731 80.9239 22.3742 80.8991 22.2795C80.8743 22.1848 80.8317 22.0961 80.7738 22.0186C80.7171 21.9405 80.6461 21.8749 80.5648 21.8255C80.4835 21.7762 80.3936 21.744 80.3003 21.731C80.207 21.7179 80.1122 21.7242 80.0212 21.7495C79.9303 21.7748 79.8451 21.8185 79.7705 21.8782L77.0776 24.038C77.0027 24.0978 76.9399 24.1724 76.8928 24.2574C76.8456 24.3425 76.8152 24.4364 76.8031 24.5337C76.791 24.6311 76.7976 24.7299 76.8224 24.8246C76.8472 24.9193 76.8898 25.008 76.9477 25.0855C77.064 25.2424 77.2352 25.3451 77.4241 25.3714C77.613 25.3977 77.8042 25.3454 77.9562 25.2259Z" fill="#FFD72E"/>
<path d="M72.5029 43.6385L74.6915 41.8944C74.753 41.8461 74.8047 41.7857 74.8435 41.7165C74.8823 41.6474 74.9076 41.5709 74.9177 41.4915C74.9279 41.4122 74.9228 41.3315 74.9027 41.2542C74.8826 41.1769 74.8479 41.1045 74.8007 41.0413C74.706 40.9135 74.5664 40.8298 74.4125 40.8085C74.2586 40.7873 74.1028 40.8302 73.9793 40.9279L71.7907 42.6719C71.6684 42.7711 71.5889 42.9164 71.5694 43.0763C71.5499 43.2361 71.5921 43.3974 71.6867 43.5251C71.7331 43.5882 71.7911 43.6412 71.8572 43.681C71.9234 43.7209 71.9964 43.7468 72.0722 43.7574C72.148 43.7679 72.225 43.7628 72.2989 43.7424C72.3728 43.722 72.4421 43.6867 72.5029 43.6385Z" fill="#FFD72E"/>
<path d="M75.3621 39.8157L77.5507 38.0717C77.6738 37.9733 77.7543 37.8284 77.7748 37.6685C77.7952 37.5086 77.7539 37.3468 77.6599 37.2185C77.5652 37.0907 77.4256 37.007 77.2717 36.9858C77.1178 36.9645 76.9621 37.0074 76.8385 37.1051L74.6499 38.8546C74.528 38.9528 74.4486 39.0972 74.4291 39.2561C74.4096 39.4151 74.4516 39.5755 74.5459 39.7023C74.5919 39.766 74.6497 39.8196 74.7158 39.8599C74.7819 39.9001 74.8552 39.9263 74.9311 39.9368C75.0071 39.9474 75.0844 39.9421 75.1584 39.9213C75.2324 39.9005 75.3016 39.8646 75.3621 39.8157Z" fill="#FFD72E"/>
<path d="M69.181 46.8028L71.3644 45.0587C71.4863 44.9595 71.566 44.8147 71.5864 44.6553C71.6068 44.4958 71.5663 44.3344 71.4736 44.2056C71.3789 44.0778 71.2393 43.9941 71.0854 43.9729C70.9315 43.9516 70.7757 43.9945 70.6522 44.0922L68.4636 45.8416C68.3421 45.9399 68.2625 46.0838 68.2421 46.2423C68.2217 46.4009 68.262 46.5614 68.3544 46.6894C68.4009 46.754 68.4594 46.8084 68.5264 46.8492C68.5935 46.89 68.6677 46.9165 68.7447 46.9271C68.8217 46.9376 68.9 46.9321 68.9749 46.9107C69.0499 46.8894 69.1199 46.8527 69.181 46.8028Z" fill="#FFD72E"/>
<path d="M72.0922 39.8643L74.2808 38.1148C74.4023 38.0166 74.4819 37.8727 74.5023 37.7142C74.5227 37.5556 74.4824 37.3951 74.39 37.2671C74.3435 37.2032 74.2853 37.1495 74.2187 37.1092C74.1521 37.0689 74.0785 37.0427 74.0021 37.0321C73.9257 37.0216 73.848 37.0269 73.7736 37.0478C73.6992 37.0686 73.6295 37.1046 73.5686 37.1537L71.38 38.8978C71.2581 38.997 71.1784 39.1418 71.158 39.3012C71.1376 39.4607 71.1781 39.6221 71.2708 39.7509C71.3663 39.8775 71.5057 39.9603 71.6593 39.9815C71.8128 40.0027 71.9682 39.9606 72.0922 39.8643Z" fill="#FFD72E"/>
<path d="M75.0034 47.8123L77.6911 45.6525C77.7664 45.5937 77.8297 45.5198 77.8771 45.4352C77.9246 45.3506 77.9552 45.257 77.9673 45.1599C77.9795 45.0628 77.9727 44.9641 77.9476 44.8698C77.9225 44.7754 77.8795 44.6872 77.821 44.6104C77.7643 44.5323 77.6933 44.4667 77.612 44.4173C77.5307 44.368 77.4409 44.3358 77.3476 44.3228C77.2543 44.3097 77.1594 44.316 77.0684 44.3413C76.9775 44.3666 76.8923 44.4103 76.8177 44.47L74.1248 46.6298C73.9747 46.7514 73.8768 46.9297 73.8524 47.1258C73.8281 47.322 73.8793 47.5202 73.9949 47.6773C74.0524 47.7552 74.1242 47.8204 74.2061 47.8694C74.288 47.9183 74.3784 47.9499 74.4721 47.9625C74.5658 47.975 74.661 47.9682 74.7522 47.9424C74.8433 47.9167 74.9287 47.8725 75.0034 47.8123Z" fill="#FFD72E"/>
<path d="M69.6281 43.6602L71.8167 41.9107C71.8775 41.8625 71.9285 41.8023 71.9669 41.7336C72.0052 41.6649 72.0302 41.5891 72.0403 41.5103C72.0505 41.4316 72.0456 41.3516 72.0259 41.2748C72.0063 41.1981 71.9723 41.1261 71.9259 41.063C71.8794 40.9991 71.8212 40.9454 71.7546 40.9051C71.688 40.8648 71.6144 40.8386 71.538 40.828C71.4616 40.8175 71.3839 40.8228 71.3095 40.8437C71.2351 40.8645 71.1654 40.9005 71.1045 40.9496L68.9159 42.6937C68.7937 42.7928 68.7141 42.9381 68.6946 43.098C68.6751 43.2578 68.7173 43.4191 68.8119 43.5468C68.9065 43.673 69.045 43.7557 69.1977 43.7769C69.3503 43.7981 69.5049 43.7562 69.6281 43.6602Z" fill="#FFD72E"/>
<path d="M76.2407 36.5489L78.4293 34.8048C78.5523 34.7065 78.6329 34.5615 78.6533 34.4017C78.6738 34.2418 78.6325 34.08 78.5384 33.9517C78.443 33.8247 78.303 33.7421 78.1492 33.7219C77.9953 33.7016 77.84 33.7454 77.717 33.8437L75.5285 35.5878C75.4066 35.687 75.3269 35.8318 75.3065 35.9912C75.2861 36.1507 75.3265 36.3121 75.4193 36.4409C75.5147 36.5679 75.6547 36.6505 75.8085 36.6707C75.9624 36.691 76.1178 36.6472 76.2407 36.5489Z" fill="#FFD72E"/>
<path d="M79.0999 32.7261L81.2885 30.982C81.41 30.8838 81.4896 30.7399 81.51 30.5813C81.5304 30.4228 81.4901 30.2622 81.3976 30.1343C81.3512 30.0704 81.293 30.0167 81.2264 29.9764C81.1598 29.9361 81.0862 29.9099 81.0098 29.8993C80.9334 29.8888 80.8557 29.8941 80.7813 29.915C80.7069 29.9358 80.6372 29.9718 80.5763 30.0209L78.3877 31.7649C78.2658 31.8641 78.1861 32.009 78.1657 32.1684C78.1453 32.3278 78.1858 32.4893 78.2785 32.6181C78.374 32.7451 78.5139 32.8277 78.6678 32.8479C78.8216 32.8681 78.977 32.8243 79.0999 32.7261Z" fill="#FFD72E"/>
<path d="M75.83 32.7746L78.0186 31.0305C78.1408 30.9314 78.2204 30.786 78.2399 30.6262C78.2593 30.4664 78.2172 30.305 78.1225 30.1774C78.028 30.0511 77.8895 29.9685 77.7368 29.9473C77.5841 29.9261 77.4296 29.968 77.3064 30.064L75.1178 31.8134C75.057 31.8617 75.006 31.9218 74.9676 31.9905C74.9292 32.0592 74.9043 32.1351 74.8941 32.2138C74.884 32.2925 74.8889 32.3726 74.9085 32.4493C74.9282 32.5261 74.9622 32.5981 75.0086 32.6612C75.0551 32.7251 75.1133 32.7787 75.1799 32.8191C75.2464 32.8594 75.3201 32.8856 75.3965 32.8961C75.4729 32.9067 75.5506 32.9014 75.625 32.8805C75.6994 32.8596 75.7691 32.8236 75.83 32.7746Z" fill="#FFD72E"/>
<path d="M73.3659 36.5704L75.5545 34.8264C75.6764 34.7272 75.756 34.5824 75.7764 34.4229C75.7969 34.2635 75.7563 34.1021 75.6636 33.9732C75.5681 33.8466 75.4287 33.7639 75.2752 33.7427C75.1217 33.7215 74.9663 33.7635 74.8423 33.8599L72.6537 35.6093C72.5321 35.7075 72.4525 35.8514 72.4321 36.01C72.4117 36.1685 72.4521 36.3291 72.5445 36.457C72.5909 36.5209 72.6492 36.5746 72.7157 36.6149C72.7823 36.6553 72.8559 36.6815 72.9324 36.692C73.0088 36.7026 73.0864 36.6972 73.1608 36.6764C73.2353 36.6555 73.3049 36.6195 73.3659 36.5704Z" fill="#FFD72E"/>
</g>
<path d="M83.789 26.8891H56.3613C56.2856 26.3111 56.2491 25.7283 56.2521 25.145H87.0693C87.0693 25.145 87.4695 35.9441 76.0951 45.0748C75.8509 45.3263 75.5766 45.544 75.2789 45.7228C74.6466 46.0818 73.9616 46.3299 73.2515 46.4571C84.1737 37.3912 83.789 26.8891 83.789 26.8891Z" fill="#FFD72E"/>
<path d="M56.2522 25.1504H65.8227C65.672 29.9398 66.1814 39.6266 71.8583 46.6191C70.527 46.7903 69.1799 46.4753 68.0477 45.7281C67.7491 45.5508 67.4746 45.3329 67.2315 45.0802C55.8519 35.9279 56.2522 25.1504 56.2522 25.1504Z" fill="#BC0900"/>
<path d="M71.6607 34.3836C63.1508 34.3836 56.2522 30.2473 56.2522 25.1449C56.2522 20.0425 63.1508 15.9062 71.6607 15.9062C80.1706 15.9062 87.0693 20.0425 87.0693 25.1449C87.0693 30.2473 80.1706 34.3836 71.6607 34.3836Z" fill="#FFE36E"/>
<path d="M71.6607 32.418C64.9624 32.418 59.5324 29.1617 59.5324 25.1448C59.5324 21.1279 64.9624 17.8716 71.6607 17.8716C78.3589 17.8716 83.7889 21.1279 83.7889 25.1448C83.7889 29.1617 78.3589 32.418 71.6607 32.418Z" fill="#FF8B00"/>
<mask id="mask2_682_14105" style="mask-type:luminance" maskUnits="userSpaceOnUse" x="59" y="17" width="25" height="16">
<path d="M71.6607 32.4183C64.9624 32.4183 59.5324 29.1619 59.5324 25.145C59.5324 21.1282 64.9624 17.8718 71.6607 17.8718C78.3589 17.8718 83.7889 21.1282 83.7889 25.145C83.7889 29.1619 78.3589 32.4183 71.6607 32.4183Z" fill="white"/>
</mask>
<g mask="url(#mask2_682_14105)">
<path d="M67.008 24.3352L68.9419 23.1041C69.0493 23.0339 69.1259 22.9227 69.1551 22.7944C69.1843 22.6661 69.1637 22.531 69.0978 22.4183C69.0653 22.3621 69.0223 22.3131 68.9714 22.2742C68.9205 22.2353 68.8627 22.2072 68.8013 22.1917C68.7399 22.1761 68.6762 22.1733 68.6137 22.1835C68.5513 22.1937 68.4914 22.2166 68.4376 22.251L66.5037 23.4821C66.3963 23.5522 66.3197 23.6634 66.2905 23.7917C66.2613 23.92 66.2819 24.0551 66.3478 24.1678C66.3803 24.224 66.4233 24.273 66.4742 24.312C66.5251 24.3509 66.5829 24.3789 66.6443 24.3945C66.7057 24.41 66.7694 24.4128 66.8318 24.4026C66.8943 24.3925 66.9541 24.3695 67.008 24.3352Z" fill="#FFD72E"/>
<path d="M70.5482 18.6117L73.4438 16.7705C73.5245 16.7195 73.5947 16.6526 73.6504 16.5734C73.7061 16.4942 73.7462 16.4044 73.7684 16.3091C73.7907 16.2138 73.7945 16.1148 73.7799 16.018C73.7652 15.9211 73.7323 15.8282 73.6829 15.7446C73.6335 15.6612 73.5687 15.5888 73.4923 15.5315C73.4158 15.4741 73.3293 15.433 73.2376 15.4104C73.1458 15.3879 73.0507 15.3843 72.9577 15.3999C72.8646 15.4156 72.7754 15.4501 72.6952 15.5016L69.7996 17.3374C69.7194 17.3888 69.6496 17.4561 69.5944 17.5355C69.5393 17.6148 69.4997 17.7047 69.4779 17.8C69.4562 17.8953 69.4528 17.9941 69.4678 18.0908C69.4829 18.1874 69.5161 18.28 69.5657 18.3633C69.6142 18.4469 69.6782 18.5198 69.754 18.5776C69.8298 18.6353 69.9158 18.677 70.0071 18.7001C70.0985 18.7232 70.1933 18.7272 70.2862 18.7121C70.379 18.6969 70.4681 18.6628 70.5482 18.6117Z" fill="#FFD72E"/>
<path d="M65.8123 18.3849L68.7027 16.5491C68.866 16.4452 68.9829 16.2782 69.0278 16.0848C69.0726 15.8914 69.0417 15.6875 68.9419 15.5177C68.8924 15.4344 68.8276 15.362 68.7512 15.3046C68.6748 15.2473 68.5882 15.2062 68.4965 15.1836C68.4048 15.1611 68.3096 15.1575 68.2166 15.1731C68.1235 15.1888 68.0343 15.2233 67.9541 15.2748L65.0585 17.1106C64.8961 17.2154 64.7803 17.3828 64.7364 17.5761C64.6926 17.7694 64.7243 17.9729 64.8246 18.1419C64.8741 18.2253 64.9389 18.2977 65.0153 18.355C65.0917 18.4124 65.1782 18.4535 65.27 18.476C65.3617 18.4986 65.4568 18.5022 65.5499 18.4865C65.6429 18.4709 65.7321 18.4364 65.8123 18.3849Z" fill="#FFD72E"/>
<path d="M64.7206 29.778L66.6545 28.5469C66.7082 28.5126 66.7549 28.4677 66.7918 28.4146C66.8288 28.3616 66.8553 28.3014 66.8698 28.2377C66.8842 28.174 66.8865 28.1079 66.8763 28.0433C66.8661 27.9786 66.8437 27.9168 66.8104 27.8611C66.7473 27.7493 66.6449 27.6671 66.5247 27.6319C66.4046 27.5967 66.276 27.6111 66.1658 27.6722L64.2319 28.9033C64.1245 28.9734 64.0479 29.0847 64.0187 29.213C63.9896 29.3412 64.0101 29.4763 64.076 29.589C64.1382 29.7019 64.2406 29.7849 64.3611 29.8203C64.4817 29.8556 64.6107 29.8404 64.7206 29.778Z" fill="#FFD72E"/>
<path d="M66.6857 30.226L68.6195 29.0003C68.727 28.9302 68.8036 28.8189 68.8328 28.6906C68.8619 28.5623 68.8414 28.4273 68.7755 28.3146C68.7429 28.2583 68.7 28.2093 68.6491 28.1704C68.5982 28.1315 68.5404 28.1035 68.479 28.0879C68.4176 28.0723 68.3539 28.0696 68.2914 28.0797C68.229 28.0899 68.1691 28.1128 68.1153 28.1472L66.1814 29.3783C66.1277 29.4125 66.081 29.4575 66.044 29.5106C66.0071 29.5636 65.9806 29.6237 65.9661 29.6875C65.9516 29.7512 65.9494 29.8173 65.9596 29.8819C65.9698 29.9465 65.9922 30.0084 66.0255 30.064C66.0584 30.1198 66.1017 30.1683 66.1528 30.2067C66.2039 30.2451 66.2618 30.2726 66.3231 30.2876C66.3845 30.3027 66.4481 30.305 66.5103 30.2944C66.5725 30.2839 66.6321 30.2606 66.6857 30.226Z" fill="#FFD72E"/>
<path d="M66.9352 27.1322L68.8691 25.9011C68.9774 25.8319 69.055 25.721 69.0852 25.5926C69.1154 25.4643 69.0956 25.3287 69.0302 25.2154C68.9635 25.1029 68.8568 25.0222 68.7332 24.9909C68.6096 24.9596 68.4791 24.9801 68.37 25.048L66.4361 26.2791C66.3278 26.3484 66.2501 26.4592 66.22 26.5876C66.1898 26.716 66.2096 26.8515 66.275 26.9649C66.3417 27.0774 66.4484 27.158 66.572 27.1894C66.6956 27.2207 66.8261 27.2002 66.9352 27.1322Z" fill="#FFD72E"/>
<path d="M64.5647 26.9L66.4985 25.6689C66.6068 25.5996 66.6845 25.4887 66.7147 25.3604C66.7448 25.232 66.7251 25.0965 66.6597 24.9831C66.592 24.8702 66.4843 24.7895 66.3599 24.7582C66.2355 24.7269 66.1042 24.7475 65.9943 24.8157L64.0864 26.0522C63.9781 26.1215 63.9004 26.2324 63.8702 26.3607C63.8401 26.4891 63.8598 26.6247 63.9252 26.738C63.9924 26.8439 64.0957 26.9194 64.2143 26.9494C64.3329 26.9795 64.4581 26.9618 64.5647 26.9Z" fill="#FFD72E"/>
<path d="M71.4371 18.9841L73.371 17.753C73.4784 17.6829 73.555 17.5716 73.5842 17.4433C73.6134 17.315 73.5928 17.1799 73.527 17.0673C73.4944 17.011 73.4514 16.962 73.4006 16.9231C73.3497 16.8842 73.2918 16.8561 73.2304 16.8406C73.1691 16.825 73.1053 16.8222 73.0429 16.8324C72.9805 16.8426 72.9206 16.8655 72.8667 16.8999L70.9329 18.131C70.8254 18.2011 70.7488 18.3124 70.7197 18.4407C70.6905 18.569 70.711 18.704 70.7769 18.8167C70.8095 18.873 70.8524 18.922 70.9033 18.9609C70.9542 18.9998 71.012 19.0278 71.0734 19.0434C71.1348 19.059 71.1986 19.0617 71.261 19.0516C71.3234 19.0414 71.3833 19.0185 71.4371 18.9841Z" fill="#FFD72E"/>
<path d="M69.1498 24.4324L71.0836 23.2013C71.1911 23.1311 71.2677 23.0199 71.2969 22.8916C71.326 22.7633 71.3055 22.6282 71.2396 22.5155C71.2071 22.4592 71.1641 22.4103 71.1132 22.3713C71.0623 22.3324 71.0045 22.3044 70.9431 22.2888C70.8817 22.2733 70.818 22.2705 70.7555 22.2807C70.6931 22.2908 70.6332 22.3138 70.5794 22.3481L68.6455 23.5792C68.5381 23.6494 68.4615 23.7606 68.4323 23.8889C68.4031 24.0172 68.4237 24.1523 68.4896 24.265C68.5221 24.3212 68.5651 24.3702 68.616 24.4091C68.6669 24.448 68.7247 24.4761 68.7861 24.4916C68.8475 24.5072 68.9112 24.51 68.9736 24.4998C69.0361 24.4896 69.0959 24.4667 69.1498 24.4324Z" fill="#FFD72E"/>
<path d="M71.1304 24.8752L73.0643 23.6495C73.1732 23.5793 73.2508 23.4671 73.28 23.3375C73.3093 23.2079 73.2878 23.0715 73.2203 22.9584C73.1873 22.9025 73.144 22.8541 73.0929 22.8157C73.0418 22.7773 72.984 22.7498 72.9226 22.7347C72.8613 22.7197 72.7976 22.7174 72.7354 22.728C72.6732 22.7385 72.6136 22.7618 72.5601 22.7964L70.6262 24.0275C70.5724 24.0617 70.5258 24.1067 70.4888 24.1597C70.4519 24.2128 70.4254 24.2729 70.4109 24.3366C70.3964 24.4004 70.3942 24.4665 70.4044 24.5311C70.4145 24.5957 70.4369 24.6576 70.4702 24.7132C70.5032 24.769 70.5465 24.8175 70.5976 24.8559C70.6487 24.8943 70.7065 24.9218 70.7679 24.9368C70.8293 24.9519 70.8929 24.9542 70.9551 24.9436C71.0173 24.933 71.0769 24.9098 71.1304 24.8752Z" fill="#FFD72E"/>
<path d="M71.3644 21.7597L73.2983 20.5286C73.4066 20.4593 73.4842 20.3484 73.5144 20.2201C73.5446 20.0917 73.5248 19.9562 73.4594 19.8428C73.3927 19.7303 73.286 19.6497 73.1624 19.6183C73.0388 19.587 72.9083 19.6075 72.7992 19.6755L70.8653 20.9066C70.757 20.9758 70.6793 21.0867 70.6492 21.215C70.619 21.3434 70.6388 21.479 70.7042 21.5923C70.7709 21.7048 70.8776 21.7855 71.0012 21.8168C71.1248 21.8481 71.2553 21.8276 71.3644 21.7597Z" fill="#FFD72E"/>
<path d="M68.9938 21.5436L70.9277 20.318C71.036 20.2487 71.1137 20.1378 71.1439 20.0094C71.174 19.8811 71.1543 19.7455 71.0889 19.6322C71.0563 19.5759 71.0133 19.527 70.9625 19.488C70.9116 19.4491 70.8537 19.4211 70.7923 19.4055C70.731 19.39 70.6672 19.3872 70.6048 19.3974C70.5424 19.4075 70.4825 19.4305 70.4286 19.4648L68.4948 20.6959C68.4406 20.7297 68.3934 20.7744 68.356 20.8272C68.3185 20.8801 68.2915 20.9401 68.2765 21.0039C68.2615 21.0677 68.2589 21.1339 68.2687 21.1987C68.2785 21.2636 68.3006 21.3257 68.3336 21.3817C68.4012 21.4933 68.5083 21.5728 68.6318 21.6031C68.7553 21.6334 68.8853 21.6121 68.9938 21.5436Z" fill="#FFD72E"/>
<path d="M69.4357 30.4962L71.3644 29.2921C71.4181 29.2578 71.4648 29.2129 71.5017 29.1598C71.5387 29.1067 71.5652 29.0466 71.5797 28.9829C71.5941 28.9191 71.5964 28.8531 71.5862 28.7884C71.576 28.7238 71.5536 28.6619 71.5203 28.6063C71.4873 28.5505 71.4441 28.502 71.393 28.4636C71.3419 28.4253 71.284 28.3977 71.2226 28.3827C71.1613 28.3676 71.0977 28.3653 71.0355 28.3759C70.9732 28.3865 70.9136 28.4097 70.8601 28.4443L68.9262 29.67C68.8174 29.7402 68.7398 29.8525 68.7105 29.9821C68.6813 30.1117 68.7028 30.248 68.7703 30.3612C68.8053 30.4155 68.8504 30.4622 68.9029 30.4984C68.9553 30.5346 69.0142 30.5597 69.076 30.5723C69.1378 30.5848 69.2014 30.5846 69.2632 30.5715C69.3249 30.5584 69.3835 30.5328 69.4357 30.4962Z" fill="#FFD72E"/>
<path d="M69.3629 33.2714L71.2968 32.0403C71.351 32.0065 71.3981 31.9618 71.4356 31.909C71.4731 31.8561 71.5001 31.7961 71.515 31.7323C71.53 31.6685 71.5327 31.6023 71.5229 31.5375C71.5131 31.4726 71.491 31.4105 71.458 31.3545C71.3904 31.2429 71.2833 31.1634 71.1598 31.1331C71.0363 31.1028 70.9062 31.1241 70.7977 31.1926L68.8639 32.4182C68.7552 32.4886 68.6774 32.6004 68.6473 32.7296C68.6172 32.8589 68.6371 32.9952 68.7027 33.1094C68.7703 33.221 68.8774 33.3005 69.0009 33.3308C69.1244 33.3612 69.2544 33.3398 69.3629 33.2714Z" fill="#FFD72E"/>
<path d="M66.9924 33.0717L68.9263 31.8406C68.9804 31.8068 69.0276 31.7621 69.0651 31.7093C69.1025 31.6564 69.1295 31.5964 69.1445 31.5326C69.1595 31.4688 69.1622 31.4026 69.1524 31.3378C69.1426 31.2729 69.1205 31.2108 69.0874 31.1548C69.0199 31.0432 68.9128 30.9637 68.7892 30.9334C68.6657 30.9031 68.5357 30.9244 68.4272 30.9928L66.4933 32.2185C66.385 32.2878 66.3073 32.3987 66.2772 32.5271C66.247 32.6554 66.2668 32.791 66.3322 32.9043C66.3647 32.9606 66.4077 33.0095 66.4586 33.0485C66.5095 33.0874 66.5673 33.1154 66.6287 33.131C66.6901 33.1465 66.7538 33.1493 66.8162 33.1391C66.8787 33.129 66.9385 33.106 66.9924 33.0717Z" fill="#FFD72E"/>
</g>
<path d="M71.7751 21.781C69.401 20.4473 66.7753 19.6678 64.0812 19.497C68.8431 17.2021 75.8196 17.3803 80.2384 20.0369C84.9743 22.8771 84.9743 27.4829 80.2384 30.3231C77.9952 31.5802 75.5068 32.2928 72.9604 32.4073C76.9997 29.2324 76.6098 24.6805 71.7751 21.781Z" fill="#BC0900"/>
<path d="M78.4292 68.3144L81.9331 66.2086C82.3125 65.9818 82.3957 64.7453 81.9331 64.4807L81.1013 64.9019C80.8765 64.7712 80.6253 64.6972 80.3679 64.6859C80.1106 64.6747 79.8543 64.7265 79.6197 64.8371L75.9807 66.1006C75.6012 66.3274 75.7728 67.5639 76.2094 67.8284L76.9164 68.2496C77.1451 68.3856 77.4019 68.4625 77.6652 68.4738C77.9285 68.4851 78.1906 68.4304 78.4292 68.3144Z" fill="#4F232E"/>
<path d="M78.4292 67.3804L81.9331 65.28C82.3126 65.0478 82.2658 64.6537 81.8291 64.3891L81.1221 63.9679C80.8973 63.8372 80.6461 63.7633 80.3887 63.752C80.1314 63.7407 79.8751 63.7925 79.6405 63.9031L76.1367 66.0035C75.7572 66.2357 75.804 66.6299 76.2406 66.8945L76.9476 67.3157C77.1724 67.4464 77.4236 67.5203 77.681 67.5316C77.9384 67.5428 78.1947 67.4911 78.4292 67.3804Z" fill="#B6E7FF"/>
<path d="M74.8261 16.1941C74.7722 16.1715 74.72 16.1444 74.6702 16.1131C74.4908 15.9861 74.3526 15.8057 74.2738 15.5956C74.1949 15.3856 74.179 15.1556 74.2283 14.936C74.2873 14.6263 74.2732 14.3064 74.1872 14.0036C74.1012 13.7008 73.9458 13.4242 73.7344 13.1974C73.7305 12.9887 73.7848 12.7832 73.8909 12.606C73.997 12.4287 74.1503 12.2871 74.3323 12.1985C74.4817 12.1231 74.6463 12.0861 74.8123 12.0904C74.9783 12.0948 75.1409 12.1403 75.2865 12.2233C75.4321 12.3063 75.5564 12.4244 75.6491 12.5675C75.7417 12.7107 75.8 12.8748 75.8191 13.0462C75.9078 14.0556 75.6338 15.0635 75.0497 15.8756L74.8261 16.1941Z" fill="#FF8B00"/>
<path d="M75.1698 21.8891C75.0321 21.9795 74.8759 22.0351 74.7137 22.0513C74.5516 22.0675 74.3881 22.0439 74.2363 21.9824C74.0846 21.921 73.9488 21.8233 73.8401 21.6974C73.7313 21.5714 73.6526 21.4207 73.6102 21.2573C73.4646 20.6328 73.4646 19.9812 73.6102 19.3567C73.7558 19.1608 73.9618 19.0228 74.1936 18.9658C74.4255 18.9088 74.6691 18.9362 74.8838 19.0435C75.0767 19.139 75.2366 19.2939 75.3417 19.4871C75.4468 19.6804 75.4921 19.9025 75.4713 20.1234C75.4563 20.437 75.5134 20.7498 75.6376 21.036C75.6301 21.2064 75.5838 21.3726 75.5024 21.5209C75.4211 21.6692 75.3071 21.7954 75.1698 21.8891Z" fill="#FF8B00"/>
<path d="M61.4871 44.2108C61.4333 43.9317 61.4878 43.6418 61.6387 43.4042C61.7896 43.1665 62.0247 43.0004 62.2929 42.9419L63.0207 43.4819C63.1343 43.5633 63.2311 43.6674 63.3056 43.7882C63.38 43.9089 63.4306 44.0438 63.4543 44.185C63.478 44.3263 63.4744 44.471 63.4437 44.6108C63.413 44.7505 63.3558 44.8826 63.2754 44.9991C63.1257 45.2216 62.9008 45.3774 62.6456 45.4354C62.3903 45.4934 62.1233 45.4495 61.8978 45.3123C61.7127 44.9666 61.5744 44.5959 61.4871 44.2108Z" fill="#6EC8FF"/>
<path d="M64.6427 38.9246C64.7542 38.8403 64.8484 38.7337 64.9199 38.6112C64.9913 38.4886 65.0386 38.3525 65.0589 38.2108C65.0792 38.0691 65.0722 37.9246 65.0382 37.7857C65.0042 37.6469 64.944 37.5164 64.861 37.402L64.3411 36.6514C64.0736 36.2809 63.9427 35.8231 63.972 35.3609C63.988 35.1401 63.9401 34.9194 63.8345 34.727C63.7289 34.5346 63.5705 34.3793 63.3794 34.281C63.2304 34.2058 63.0662 34.1686 62.9005 34.1727C62.7348 34.1767 62.5725 34.2218 62.427 34.3042C62.2815 34.3866 62.1571 34.504 62.0642 34.6465C61.9712 34.789 61.9124 34.9525 61.8926 35.1234C61.8055 36.1343 62.0794 37.1433 62.662 37.9581L63.1819 38.7087C63.2638 38.8229 63.3667 38.9191 63.4847 38.9919C63.6026 39.0646 63.7332 39.1124 63.869 39.1325C64.0048 39.1525 64.143 39.1445 64.2758 39.1088C64.4086 39.0732 64.5333 39.0106 64.6427 38.9246Z" fill="#4591FF"/>
<path d="M63.1818 37.5963C63.2157 37.3141 63.3553 37.0572 63.5704 36.8813C63.7855 36.7054 64.0587 36.6247 64.3307 36.6568L64.8506 37.3965C64.9336 37.511 64.9938 37.6414 65.0278 37.7803C65.0618 37.9192 65.0688 38.0637 65.0485 38.2054C65.0281 38.3471 64.9809 38.4832 64.9094 38.6057C64.838 38.7283 64.7437 38.8348 64.6322 38.9192C64.4226 39.0798 64.1626 39.1528 63.9037 39.1238C63.6447 39.0948 63.4056 38.9659 63.2338 38.7626C63.162 38.3785 63.1445 37.9856 63.1818 37.5963Z" fill="#6EC8FF"/>
<path d="M69.4149 19.0327C69.5253 18.948 69.6184 18.8414 69.6889 18.7191C69.7595 18.5968 69.806 18.4612 69.8258 18.3202C69.8456 18.1791 69.8383 18.0354 69.8044 17.8973C69.7705 17.7592 69.7105 17.6294 69.6281 17.5154L69.1082 16.7649C68.8428 16.3933 68.7121 15.9363 68.7391 15.4744C68.7551 15.2536 68.7072 15.0328 68.6016 14.8404C68.496 14.6481 68.3376 14.4928 68.1465 14.3945C67.9971 14.3192 67.8325 14.2821 67.6665 14.2865C67.5004 14.2908 67.3378 14.3364 67.1922 14.4194C67.0467 14.5024 66.9223 14.6204 66.8297 14.7636C66.737 14.9067 66.6788 15.0709 66.6597 15.2422C66.5716 16.2533 66.8455 17.2626 67.4291 18.077L67.9489 18.8275C68.0317 18.9417 68.1355 19.0377 68.2542 19.1099C68.373 19.1821 68.5043 19.2291 68.6407 19.2482C68.777 19.2673 68.9157 19.2581 69.0486 19.2211C69.1815 19.1841 69.306 19.1201 69.4149 19.0327Z" fill="#4591FF"/>
<path d="M67.949 17.6827C67.984 17.4004 68.1249 17.144 68.341 16.9691C68.5571 16.7942 68.831 16.7149 69.103 16.7485L69.6229 17.4883C69.7054 17.6022 69.7653 17.732 69.7992 17.8701C69.8331 18.0083 69.8404 18.152 69.8206 18.293C69.8008 18.4341 69.7543 18.5697 69.6838 18.692C69.6132 18.8142 69.5201 18.9208 69.4098 19.0056C69.2004 19.1683 68.9396 19.2432 68.6795 19.2152C68.4193 19.1871 68.1789 19.0583 68.0062 18.8544C67.9352 18.4684 67.916 18.0741 67.949 17.6827Z" fill="#FF8B00"/>
<path d="M76.9243 46.4425C76.8132 46.3577 76.7194 46.2508 76.6485 46.1281C76.5775 46.0053 76.5307 45.8692 76.5109 45.7275C76.4911 45.5858 76.4986 45.4414 76.5329 45.3027C76.5673 45.1641 76.6279 45.0339 76.7112 44.9198L77.231 44.1692C77.4965 43.7976 77.6272 43.3406 77.6001 42.8787C77.5842 42.6579 77.6321 42.4372 77.7377 42.2448C77.8433 42.0524 78.0017 41.8971 78.1928 41.7988C78.3418 41.7236 78.506 41.6864 78.6717 41.6905C78.8374 41.6945 78.9997 41.7396 79.1452 41.822C79.2906 41.9045 79.415 42.0218 79.508 42.1643C79.601 42.3068 79.6598 42.4703 79.6796 42.6412C79.7692 43.6524 79.4951 44.6622 78.9102 45.4759L78.3903 46.2265C78.3083 46.3415 78.2052 46.4384 78.0868 46.5116C77.9684 46.5848 77.8372 46.6329 77.7008 46.653C77.5644 46.6731 77.4255 46.6648 77.2922 46.6287C77.1589 46.5925 77.0339 46.5292 76.9243 46.4425Z" fill="#4591FF"/>
<path d="M78.3903 45.1141C78.3564 44.832 78.2168 44.5751 78.0017 44.3992C77.7866 44.2233 77.5134 44.1426 77.2414 44.1746L76.7215 44.9144C76.6383 45.0285 76.5777 45.1586 76.5433 45.2973C76.5089 45.436 76.5014 45.5803 76.5213 45.722C76.5411 45.8637 76.5879 45.9999 76.6588 46.1227C76.7298 46.2454 76.8236 46.3523 76.9347 46.437C77.1447 46.5992 77.4058 46.6731 77.666 46.6441C77.9262 46.6151 78.1662 46.4852 78.3383 46.2804C78.4075 45.896 78.425 45.5035 78.3903 45.1141Z" fill="#6EC8FF"/>
<path fill-rule="evenodd" clip-rule="evenodd" d="M54.4934 31.0152C54.2865 31.0765 54.1116 31.2203 54.0072 31.4152C53.9027 31.61 53.8773 31.8399 53.9364 32.0542C53.9955 32.2685 54.1344 32.4497 54.3225 32.5579C54.5105 32.6661 54.7324 32.6925 54.9392 32.6312C55.5297 32.527 56.0752 32.2379 56.5024 31.8029C56.9295 31.3679 57.2179 30.8078 57.3286 30.1979C57.3935 29.7054 57.359 29.2043 57.2271 28.7264C57.0953 28.2485 56.869 27.8042 56.5626 27.4216C56.0962 26.8019 55.4657 26.3361 54.7482 26.081C54.0306 25.826 53.257 25.7927 52.5215 25.9852C51.6697 26.1302 50.8712 26.5098 50.2096 27.0843C49.548 27.6587 49.0477 28.4069 48.7609 29.2505C47.009 35.092 54.8458 39.1133 58.9156 40.8102C60.1241 41.2703 61.2197 41.7526 62.3211 42.334C63.4225 42.9155 63.4598 44.0698 62.08 44.0863C61.8751 44.1075 61.6855 44.2077 61.5485 44.3669C61.4116 44.5261 61.3373 44.7327 61.3403 44.946C61.3434 45.1592 61.4237 45.3635 61.5652 45.5184C61.7067 45.6732 61.8991 45.7674 62.1045 45.7823C62.8256 45.8049 63.527 45.5369 64.0613 45.0347C65.4038 43.707 64.6065 41.6012 63.088 40.8407C61.9409 40.2504 60.7538 39.7503 59.5596 39.2636C56.4826 37.9898 48.9873 34.3828 50.3608 29.7963C50.5696 29.24 50.9162 28.7506 51.3658 28.3774C51.8154 28.0042 52.3521 27.7605 52.9217 27.6708C53.3575 27.5547 53.8165 27.573 54.2424 27.7236C54.6682 27.8742 55.0423 28.1505 55.3186 28.5184C55.4762 28.7219 55.593 28.9559 55.6622 29.2067C55.7314 29.4575 55.7516 29.7201 55.7217 29.9791C55.6401 30.2591 55.4795 30.5074 55.2606 30.692C55.0417 30.8767 54.7745 30.9892 54.4934 31.0152Z" fill="#FFB800"/>
<path fill-rule="evenodd" clip-rule="evenodd" d="M89.2095 29.8775C89.393 29.9148 89.5545 30.0262 89.6588 30.187C89.763 30.3478 89.8012 30.5449 89.7652 30.735C89.7291 30.925 89.6216 31.0924 89.4664 31.2004C89.3112 31.3084 89.121 31.348 88.9375 31.3107C88.4189 31.2652 87.9261 31.0562 87.5254 30.7119C87.1248 30.3675 86.8356 29.9044 86.6966 29.3846C86.6056 28.9631 86.6002 28.5266 86.6806 28.1027C86.761 27.6789 86.9256 27.277 87.1639 26.9225C87.5241 26.3505 88.0371 25.8993 88.6404 25.6241C89.2438 25.3488 89.9114 25.2613 90.5618 25.3723C91.3097 25.4333 92.0279 25.7015 92.6414 26.1488C93.2549 26.5961 93.741 27.2061 94.0489 27.9148C95.9784 32.8404 89.4762 36.9167 86.0718 38.6946C85.0578 39.1846 84.1431 39.6853 83.2304 40.2723C82.3178 40.8593 82.367 41.8617 83.563 41.7714C83.7419 41.7743 83.9132 41.8466 84.043 41.9741C84.1729 42.1015 84.2518 42.2749 84.2642 42.4598C84.2766 42.6446 84.2215 42.8276 84.1099 42.9725C83.9983 43.1173 83.8383 43.2134 83.6616 43.2419C83.0387 43.3161 82.4124 43.1372 81.9143 42.7428C80.6579 41.6949 81.1997 39.8109 82.4609 39.0373C83.4125 38.4392 84.4052 37.9162 85.4049 37.4042C87.9794 36.0679 94.2153 32.3763 92.702 28.5087C92.4819 28.0428 92.1472 27.6453 91.7315 27.3562C91.3158 27.0671 90.8339 26.8968 90.3343 26.8623C89.9488 26.7948 89.5525 26.8455 89.1944 27.0082C88.8363 27.1708 88.5318 27.4384 88.3185 27.778C88.1965 27.9661 88.1118 28.1776 88.0696 28.4C88.0274 28.6224 88.0285 28.8514 88.0727 29.0734C88.1631 29.3096 88.3197 29.5125 88.5223 29.6558C88.7249 29.7991 88.9642 29.8763 89.2095 29.8775Z" fill="#FFB800"/>
<path d="M16.6557 109.17C16.7804 109.17 16.8881 109.215 16.9787 109.306C17.0694 109.397 17.1147 109.504 17.1147 109.629V111.431C17.1147 111.556 17.0694 111.663 16.9787 111.754C16.8881 111.845 16.7804 111.89 16.6557 111.89H8.78474C8.66008 111.89 8.55241 111.845 8.46174 111.754C8.37108 111.663 8.32574 111.556 8.32574 111.431V100.449C8.32574 100.324 8.37108 100.217 8.46174 100.126C8.55241 100.035 8.66008 99.9901 8.78474 99.9901H11.0117C11.1364 99.9901 11.2441 100.035 11.3347 100.126C11.4254 100.217 11.4707 100.324 11.4707 100.449V109.17H16.6557ZM27.0859 109.17C27.2106 109.17 27.3182 109.215 27.4089 109.306C27.4996 109.397 27.5449 109.504 27.5449 109.629V111.431C27.5449 111.556 27.4996 111.663 27.4089 111.754C27.3182 111.845 27.2106 111.89 27.0859 111.89H19.0279C18.9032 111.89 18.7956 111.845 18.7049 111.754C18.6142 111.663 18.5689 111.556 18.5689 111.431V100.449C18.5689 100.324 18.6142 100.217 18.7049 100.126C18.7956 100.035 18.9032 99.9901 19.0279 99.9901H26.9499C27.0746 99.9901 27.1822 100.035 27.2729 100.126C27.3636 100.217 27.4089 100.324 27.4089 100.449V102.251C27.4089 102.376 27.3636 102.483 27.2729 102.574C27.1822 102.665 27.0746 102.71 26.9499 102.71H21.7139V104.546H26.5759C26.7006 104.546 26.8082 104.591 26.8989 104.682C26.9896 104.773 27.0349 104.88 27.0349 105.005V106.807C27.0349 106.932 26.9896 107.039 26.8989 107.13C26.8082 107.221 26.7006 107.266 26.5759 107.266H21.7139V109.17H27.0859ZM35.7827 99.9901C36.0094 99.9901 36.1794 100.052 36.2927 100.177C36.4174 100.302 36.5024 100.426 36.5477 100.551L40.2537 111.261C40.2991 111.374 40.3217 111.459 40.3217 111.516C40.3217 111.618 40.2821 111.709 40.2027 111.788C40.1347 111.856 40.0497 111.89 39.9477 111.89H37.8057C37.5791 111.89 37.4147 111.845 37.3127 111.754C37.2221 111.652 37.1654 111.556 37.1427 111.465L36.6667 110.054H32.1447L31.6687 111.465C31.6461 111.556 31.5837 111.652 31.4817 111.754C31.3911 111.845 31.2324 111.89 31.0057 111.89H28.8637C28.7617 111.89 28.6711 111.856 28.5917 111.788C28.5237 111.709 28.4897 111.618 28.4897 111.516C28.4897 111.459 28.5124 111.374 28.5577 111.261L32.2637 100.551C32.3091 100.426 32.3884 100.302 32.5017 100.177C32.6264 100.052 32.8021 99.9901 33.0287 99.9901H35.7827ZM33.0287 107.419H35.7827L34.4057 103.339L33.0287 107.419ZM46.6589 99.9901C47.4409 99.9901 48.1549 100.109 48.8009 100.347C49.4469 100.574 50.0022 100.897 50.4669 101.316C50.9429 101.735 51.3112 102.24 51.5719 102.829C51.8439 103.407 51.9969 104.042 52.0309 104.733C52.0422 104.971 52.0479 105.192 52.0479 105.396C52.0479 105.589 52.0479 105.776 52.0479 105.957C52.0479 106.138 52.0479 106.325 52.0479 106.518C52.0479 106.711 52.0422 106.92 52.0309 107.147C51.9969 107.85 51.8495 108.49 51.5889 109.068C51.3282 109.646 50.9655 110.145 50.5009 110.564C50.0475 110.983 49.5035 111.312 48.8689 111.55C48.2342 111.777 47.5259 111.89 46.7439 111.89H42.1539C42.0292 111.89 41.9215 111.845 41.8309 111.754C41.7402 111.663 41.6949 111.556 41.6949 111.431V100.449C41.6949 100.324 41.7402 100.217 41.8309 100.126C41.9215 100.035 42.0292 99.9901 42.1539 99.9901H46.6589ZM48.8859 104.665C48.8179 103.362 48.0472 102.71 46.5739 102.71H44.8399V109.17H46.6589C48.0869 109.17 48.8292 108.518 48.8859 107.215C48.8972 106.977 48.9029 106.756 48.9029 106.552C48.9029 106.337 48.9029 106.133 48.9029 105.94C48.9029 105.736 48.9029 105.532 48.9029 105.328C48.9029 105.124 48.8972 104.903 48.8859 104.665ZM62.497 109.17C62.6217 109.17 62.7294 109.215 62.82 109.306C62.9107 109.397 62.956 109.504 62.956 109.629V111.431C62.956 111.556 62.9107 111.663 62.82 111.754C62.7294 111.845 62.6217 111.89 62.497 111.89H54.439C54.3144 111.89 54.2067 111.845 54.116 111.754C54.0254 111.663 53.98 111.556 53.98 111.431V100.449C53.98 100.324 54.0254 100.217 54.116 100.126C54.2067 100.035 54.3144 99.9901 54.439 99.9901H62.361C62.4857 99.9901 62.5934 100.035 62.684 100.126C62.7747 100.217 62.82 100.324 62.82 100.449V102.251C62.82 102.376 62.7747 102.483 62.684 102.574C62.5934 102.665 62.4857 102.71 62.361 102.71H57.125V104.546H61.987C62.1117 104.546 62.2194 104.591 62.31 104.682C62.4007 104.773 62.446 104.88 62.446 105.005V106.807C62.446 106.932 62.4007 107.039 62.31 107.13C62.2194 107.221 62.1117 107.266 61.987 107.266H57.125V109.17H62.497ZM69.9699 99.9901C70.7179 99.9901 71.3865 100.069 71.9759 100.228C72.5652 100.387 73.0639 100.625 73.4719 100.942C73.8912 101.259 74.2085 101.667 74.4239 102.166C74.6505 102.653 74.7639 103.226 74.7639 103.883C74.7639 104.733 74.5882 105.441 74.2369 106.008C73.8855 106.563 73.3869 106.988 72.7409 107.283L74.8489 111.329C74.8829 111.397 74.8999 111.459 74.8999 111.516C74.8999 111.618 74.8602 111.709 74.7809 111.788C74.7129 111.856 74.6279 111.89 74.5259 111.89H72.2139C71.9872 111.89 71.8229 111.839 71.7209 111.737C71.6302 111.635 71.5565 111.533 71.4999 111.431L69.6129 107.793H68.0489V111.431C68.0489 111.556 68.0035 111.663 67.9129 111.754C67.8222 111.845 67.7145 111.89 67.5899 111.89H65.3629C65.2382 111.89 65.1305 111.845 65.0399 111.754C64.9492 111.663 64.9039 111.556 64.9039 111.431V100.449C64.9039 100.324 64.9492 100.217 65.0399 100.126C65.1305 100.035 65.2382 99.9901 65.3629 99.9901H69.9699ZM68.0489 105.141H69.9699C70.4459 105.141 70.8369 105.05 71.1429 104.869C71.4602 104.688 71.6189 104.359 71.6189 103.883C71.6189 103.407 71.4602 103.078 71.1429 102.897C70.8369 102.716 70.4459 102.625 69.9699 102.625H68.0489V105.141ZM77.1832 111.89C77.0585 111.89 76.9508 111.845 76.8602 111.754C76.7695 111.663 76.7242 111.556 76.7242 111.431V100.449C76.7242 100.324 76.7695 100.217 76.8602 100.126C76.9508 100.035 77.0585 99.9901 77.1832 99.9901H82.6572C83.4165 99.9901 84.0568 100.098 84.5782 100.313C85.0995 100.517 85.5132 100.789 85.8192 101.129C86.1365 101.458 86.3632 101.837 86.4992 102.268C86.6352 102.687 86.7032 103.107 86.7032 103.526C86.7032 103.855 86.6635 104.144 86.5842 104.393C86.5162 104.631 86.4312 104.841 86.3292 105.022C86.2272 105.192 86.1195 105.334 86.0062 105.447C85.9042 105.549 85.8192 105.628 85.7512 105.685C86.1932 105.991 86.4992 106.348 86.6692 106.756C86.8505 107.153 86.9412 107.634 86.9412 108.201C86.9412 108.666 86.8732 109.119 86.7372 109.561C86.6012 110.003 86.3745 110.4 86.0572 110.751C85.7512 111.091 85.3488 111.369 84.8502 111.584C84.3515 111.788 83.7395 111.89 83.0142 111.89H77.1832ZM83.5412 103.594C83.5412 103.299 83.4505 103.067 83.2692 102.897C83.0992 102.716 82.8442 102.625 82.5042 102.625H79.8692V104.563H82.5042C82.8442 104.563 83.0992 104.478 83.2692 104.308C83.4505 104.127 83.5412 103.889 83.5412 103.594ZM79.8692 109.255H82.6742C83.0142 109.255 83.2862 109.159 83.4902 108.966C83.6942 108.762 83.7962 108.513 83.7962 108.218C83.7962 107.923 83.6942 107.68 83.4902 107.487C83.2862 107.283 83.0142 107.181 82.6742 107.181H79.8692V109.255ZM88.4357 104.427C88.4697 103.792 88.6057 103.197 88.8437 102.642C89.0931 102.075 89.4387 101.588 89.8807 101.18C90.3341 100.761 90.8781 100.432 91.5127 100.194C92.1587 99.9448 92.9011 99.8201 93.7397 99.8201C94.5671 99.8201 95.3037 99.9448 95.9497 100.194C96.5957 100.432 97.1397 100.761 97.5817 101.18C98.0351 101.588 98.3807 102.075 98.6187 102.642C98.8681 103.197 99.0097 103.792 99.0437 104.427C99.0664 104.914 99.0777 105.424 99.0777 105.957C99.0777 106.49 99.0664 106.988 99.0437 107.453C99.0097 108.088 98.8681 108.688 98.6187 109.255C98.3807 109.81 98.0351 110.298 97.5817 110.717C97.1397 111.136 96.5957 111.465 95.9497 111.703C95.3037 111.941 94.5671 112.06 93.7397 112.06C92.9011 112.06 92.1587 111.941 91.5127 111.703C90.8781 111.465 90.3341 111.136 89.8807 110.717C89.4387 110.298 89.0931 109.81 88.8437 109.255C88.6057 108.688 88.4697 108.088 88.4357 107.453C88.4131 106.988 88.4017 106.49 88.4017 105.957C88.4017 105.424 88.4131 104.914 88.4357 104.427ZM95.8987 107.368C95.9101 107.164 95.9214 106.937 95.9327 106.688C95.9441 106.439 95.9497 106.184 95.9497 105.923C95.9497 105.662 95.9441 105.413 95.9327 105.175C95.9214 104.926 95.9101 104.705 95.8987 104.512C95.8761 104.229 95.8137 103.968 95.7117 103.73C95.6211 103.492 95.4851 103.288 95.3037 103.118C95.1337 102.937 94.9184 102.795 94.6577 102.693C94.3971 102.591 94.0911 102.54 93.7397 102.54C93.3884 102.54 93.0824 102.591 92.8217 102.693C92.5611 102.795 92.3401 102.937 92.1587 103.118C91.9887 103.288 91.8527 103.492 91.7507 103.73C91.6601 103.968 91.6034 104.229 91.5807 104.512C91.5581 104.705 91.5411 104.926 91.5297 105.175C91.5297 105.413 91.5297 105.662 91.5297 105.923C91.5297 106.184 91.5297 106.439 91.5297 106.688C91.5411 106.937 91.5581 107.164 91.5807 107.368C91.6261 107.935 91.8187 108.405 92.1587 108.779C92.5101 109.153 93.0371 109.34 93.7397 109.34C94.4424 109.34 94.9637 109.153 95.3037 108.779C95.6437 108.405 95.8421 107.935 95.8987 107.368ZM107.037 99.9901C107.263 99.9901 107.433 100.052 107.547 100.177C107.671 100.302 107.756 100.426 107.802 100.551L111.508 111.261C111.553 111.374 111.576 111.459 111.576 111.516C111.576 111.618 111.536 111.709 111.457 111.788C111.389 111.856 111.304 111.89 111.202 111.89H109.06C108.833 111.89 108.669 111.845 108.567 111.754C108.476 111.652 108.419 111.556 108.397 111.465L107.921 110.054H103.399L102.923 111.465C102.9 111.556 102.838 111.652 102.736 111.754C102.645 111.845 102.486 111.89 102.26 111.89H100.118C100.016 111.89 99.925 111.856 99.8456 111.788C99.7776 111.709 99.7436 111.618 99.7436 111.516C99.7436 111.459 99.7663 111.374 99.8116 111.261L103.518 100.551C103.563 100.426 103.642 100.302 103.756 100.177C103.88 100.052 104.056 99.9901 104.283 99.9901H107.037ZM104.283 107.419H107.037L105.66 103.339L104.283 107.419ZM118.015 99.9901C118.763 99.9901 119.431 100.069 120.021 100.228C120.61 100.387 121.109 100.625 121.517 100.942C121.936 101.259 122.253 101.667 122.469 102.166C122.695 102.653 122.809 103.226 122.809 103.883C122.809 104.733 122.633 105.441 122.282 106.008C121.93 106.563 121.432 106.988 120.786 107.283L122.894 111.329C122.928 111.397 122.945 111.459 122.945 111.516C122.945 111.618 122.905 111.709 122.826 111.788C122.758 111.856 122.673 111.89 122.571 111.89H120.259C120.032 111.89 119.868 111.839 119.766 111.737C119.675 111.635 119.601 111.533 119.545 111.431L117.658 107.793H116.094V111.431C116.094 111.556 116.048 111.663 115.958 111.754C115.867 111.845 115.759 111.89 115.635 111.89H113.408C113.283 111.89 113.175 111.845 113.085 111.754C112.994 111.663 112.949 111.556 112.949 111.431V100.449C112.949 100.324 112.994 100.217 113.085 100.126C113.175 100.035 113.283 99.9901 113.408 99.9901H118.015ZM116.094 105.141H118.015C118.491 105.141 118.882 105.05 119.188 104.869C119.505 104.688 119.664 104.359 119.664 103.883C119.664 103.407 119.505 103.078 119.188 102.897C118.882 102.716 118.491 102.625 118.015 102.625H116.094V105.141ZM129.733 99.9901C130.515 99.9901 131.229 100.109 131.875 100.347C132.521 100.574 133.076 100.897 133.541 101.316C134.017 101.735 134.385 102.24 134.646 102.829C134.918 103.407 135.071 104.042 135.105 104.733C135.116 104.971 135.122 105.192 135.122 105.396C135.122 105.589 135.122 105.776 135.122 105.957C135.122 106.138 135.122 106.325 135.122 106.518C135.122 106.711 135.116 106.92 135.105 107.147C135.071 107.85 134.924 108.49 134.663 109.068C134.402 109.646 134.04 110.145 133.575 110.564C133.122 110.983 132.578 111.312 131.943 111.55C131.308 111.777 130.6 111.89 129.818 111.89H125.228C125.103 111.89 124.996 111.845 124.905 111.754C124.814 111.663 124.769 111.556 124.769 111.431V100.449C124.769 100.324 124.814 100.217 124.905 100.126C124.996 100.035 125.103 99.9901 125.228 99.9901H129.733ZM131.96 104.665C131.892 103.362 131.121 102.71 129.648 102.71H127.914V109.17H129.733C131.161 109.17 131.903 108.518 131.96 107.215C131.971 106.977 131.977 106.756 131.977 106.552C131.977 106.337 131.977 106.133 131.977 105.94C131.977 105.736 131.977 105.532 131.977 105.328C131.977 105.124 131.971 104.903 131.96 104.665Z" fill="white"/>
</g>
<defs>
<filter id="filter0_d_682_14105" x="0" y="0.890137" width="150" height="136" filterUnits="userSpaceOnUse" color-interpolation-filters="sRGB">
<feFlood flood-opacity="0" result="BackgroundImageFix"/>
<feColorMatrix in="SourceAlpha" type="matrix" values="0 0 0 0 0 0 0 0 0 0 0 0 0 0 0 0 0 0 127 0" result="hardAlpha"/>
<feOffset dx="4" dy="4"/>
<feGaussianBlur stdDeviation="2"/>
<feComposite in2="hardAlpha" operator="out"/>
<feColorMatrix type="matrix" values="0 0 0 0 0 0 0 0 0 0 0 0 0 0 0 0 0 0 0.8 0"/>
<feBlend mode="normal" in2="BackgroundImageFix" result="effect1_dropShadow_682_14105"/>
<feBlend mode="normal" in="SourceGraphic" in2="effect1_dropShadow_682_14105" result="shape"/>
</filter>
</defs>
</svg>
