<svg width="123" height="134" viewBox="0 0 123 134" fill="none" xmlns="http://www.w3.org/2000/svg">
<g filter="url(#filter0_d_682_14142)">
<path d="M57.5344 95.4884C83.6714 95.4884 104.86 74.3002 104.86 48.1633C104.86 22.0263 83.6714 0.838135 57.5344 0.838135C31.3975 0.838135 10.2093 22.0263 10.2093 48.1633C10.2093 74.3002 31.3975 95.4884 57.5344 95.4884Z" fill="white"/>
<path d="M57.5344 96.3267C48.0086 96.3267 38.6968 93.502 30.7763 88.2097C22.8559 82.9175 16.6827 75.3954 13.0373 66.5947C9.39194 57.794 8.43817 48.1099 10.2966 38.7672C12.155 29.4244 16.7421 20.8425 23.4779 14.1068C30.2136 7.37099 38.7955 2.78386 48.1383 0.925466C57.481 -0.932927 67.1651 0.0208693 75.9658 3.66624C84.7665 7.31161 92.2885 13.4848 97.5808 21.4052C102.873 29.3257 105.698 38.6376 105.698 48.1634C105.684 60.933 100.606 73.1758 91.5764 82.2053C82.5469 91.2348 70.3041 96.3134 57.5344 96.3267ZM57.5344 1.67644C48.3402 1.67644 39.3524 4.40284 31.7077 9.51089C24.063 14.6189 18.1046 21.8792 14.5861 30.3736C11.0676 38.868 10.147 48.2149 11.9407 57.2325C13.7345 66.2501 18.1619 74.5333 24.6632 81.0346C31.1645 87.5359 39.4477 91.9634 48.4653 93.7571C57.4829 95.5508 66.8298 94.6302 75.3242 91.1117C83.8186 87.5932 91.0789 81.6348 96.1869 73.9901C101.295 66.3454 104.021 57.3576 104.021 48.1634C104.008 35.8383 99.1061 24.0219 90.391 15.3068C81.6758 6.59173 69.8594 1.68976 57.5344 1.67644Z" fill="#E86E5E"/>
<path d="M107.726 79.0093H6.60507C2.95719 79.0093 0 81.9665 0 85.6143V119.285C0 122.933 2.95719 125.89 6.60507 125.89H107.726C111.374 125.89 114.331 122.933 114.331 119.285V85.6143C114.331 81.9665 111.374 79.0093 107.726 79.0093Z" fill="#E86E5E"/>
<path d="M22.6743 105.144C22.5043 105.144 22.3683 105.099 22.2663 105.008C22.1756 104.906 22.102 104.81 22.0453 104.719L20.4473 101.914V107.541C20.4473 107.666 20.402 107.773 20.3113 107.864C20.2206 107.955 20.113 108 19.9883 108H17.7613C17.6366 108 17.529 107.955 17.4383 107.864C17.3476 107.773 17.3023 107.666 17.3023 107.541V96.559C17.3023 96.4343 17.3476 96.3267 17.4383 96.236C17.529 96.1453 17.6366 96.1 17.7613 96.1H19.7333C19.96 96.1 20.13 96.1623 20.2433 96.287C20.3566 96.4117 20.4303 96.5023 20.4643 96.559L23.2183 101.268L25.9723 96.559C26.0063 96.5023 26.08 96.4117 26.1933 96.287C26.3066 96.1623 26.4766 96.1 26.7033 96.1H28.6753C28.8 96.1 28.9076 96.1453 28.9983 96.236C29.089 96.3267 29.1343 96.4343 29.1343 96.559V107.541C29.1343 107.666 29.089 107.773 28.9983 107.864C28.9076 107.955 28.8 108 28.6753 108H26.4483C26.3236 108 26.216 107.955 26.1253 107.864C26.0346 107.773 25.9893 107.666 25.9893 107.541V101.914L24.3913 104.719C24.3346 104.81 24.2553 104.906 24.1533 105.008C24.0626 105.099 23.9323 105.144 23.7623 105.144H22.6743ZM40.0302 105.28C40.1549 105.28 40.2626 105.325 40.3532 105.416C40.4439 105.507 40.4892 105.614 40.4892 105.739V107.541C40.4892 107.666 40.4439 107.773 40.3532 107.864C40.2626 107.955 40.1549 108 40.0302 108H31.9722C31.8476 108 31.7399 107.955 31.6492 107.864C31.5586 107.773 31.5132 107.666 31.5132 107.541V96.559C31.5132 96.4343 31.5586 96.3267 31.6492 96.236C31.7399 96.1453 31.8476 96.1 31.9722 96.1H39.8942C40.0189 96.1 40.1266 96.1453 40.2172 96.236C40.3079 96.3267 40.3532 96.4343 40.3532 96.559V98.361C40.3532 98.4857 40.3079 98.5933 40.2172 98.684C40.1266 98.7747 40.0189 98.82 39.8942 98.82H34.6582V100.656H39.5202C39.6449 100.656 39.7526 100.701 39.8432 100.792C39.9339 100.883 39.9792 100.99 39.9792 101.115V102.917C39.9792 103.042 39.9339 103.149 39.8432 103.24C39.7526 103.331 39.6449 103.376 39.5202 103.376H34.6582V105.28H40.0302ZM46.8571 95.93C47.5824 95.93 48.2454 96.0377 48.8461 96.253C49.4581 96.457 49.9851 96.7233 50.4271 97.052C50.8691 97.3807 51.2147 97.7433 51.4641 98.14C51.7134 98.5367 51.8437 98.9163 51.8551 99.279C51.8551 99.381 51.8154 99.4717 51.7361 99.551C51.6681 99.619 51.5887 99.653 51.4981 99.653H49.2711C49.1124 99.653 48.9821 99.6303 48.8801 99.585C48.7894 99.5397 48.6931 99.4717 48.5911 99.381C48.5571 99.347 48.5004 99.2903 48.4211 99.211C48.3531 99.1317 48.2511 99.0523 48.1151 98.973C47.9791 98.8823 47.8091 98.8087 47.6051 98.752C47.4011 98.684 47.1517 98.65 46.8571 98.65C46.6417 98.65 46.4321 98.667 46.2281 98.701C46.0354 98.7237 45.8597 98.769 45.7011 98.837C45.5537 98.8937 45.4291 98.9787 45.3271 99.092C45.2364 99.2053 45.1911 99.347 45.1911 99.517C45.1911 99.687 45.2421 99.8287 45.3441 99.942C45.4574 100.055 45.6387 100.163 45.8881 100.265C46.1487 100.356 46.4887 100.446 46.9081 100.537C47.3274 100.628 47.8487 100.735 48.4721 100.86C49.0954 100.985 49.6394 101.143 50.1041 101.336C50.5687 101.529 50.9541 101.772 51.2601 102.067C51.5774 102.35 51.8097 102.69 51.9571 103.087C52.1157 103.472 52.1951 103.931 52.1951 104.464C52.1951 105.042 52.0647 105.558 51.8041 106.011C51.5434 106.464 51.1751 106.855 50.6991 107.184C50.2344 107.501 49.6791 107.745 49.0331 107.915C48.3984 108.085 47.7014 108.17 46.9421 108.17C46.1714 108.17 45.4687 108.068 44.8341 107.864C44.1994 107.66 43.6497 107.394 43.1851 107.065C42.7317 106.725 42.3747 106.345 42.1141 105.926C41.8534 105.507 41.7174 105.082 41.7061 104.651C41.7061 104.549 41.7401 104.464 41.8081 104.396C41.8874 104.317 41.9724 104.277 42.0631 104.277H44.2901C44.4487 104.277 44.5734 104.3 44.6641 104.345C44.7547 104.379 44.8454 104.436 44.9361 104.515C44.9814 104.56 45.0494 104.634 45.1401 104.736C45.2307 104.838 45.3497 104.946 45.4971 105.059C45.6557 105.161 45.8484 105.252 46.0751 105.331C46.3131 105.41 46.6021 105.45 46.9421 105.45C47.5427 105.45 48.0414 105.388 48.4381 105.263C48.8461 105.127 49.0501 104.889 49.0501 104.549C49.0501 104.379 48.9764 104.237 48.8291 104.124C48.6817 104.011 48.4607 103.909 48.1661 103.818C47.8714 103.716 47.4917 103.62 47.0271 103.529C46.5737 103.438 46.0354 103.325 45.4121 103.189C44.2447 102.94 43.3891 102.526 42.8451 101.948C42.3124 101.359 42.0461 100.577 42.0461 99.602C42.0461 99.1147 42.1537 98.65 42.3691 98.208C42.5957 97.766 42.9187 97.375 43.3381 97.035C43.7574 96.695 44.2617 96.4287 44.8511 96.236C45.4517 96.032 46.1204 95.93 46.8571 95.93ZM58.3121 95.93C59.0375 95.93 59.7005 96.0377 60.3011 96.253C60.9131 96.457 61.4401 96.7233 61.8821 97.052C62.3241 97.3807 62.6698 97.7433 62.9191 98.14C63.1685 98.5367 63.2988 98.9163 63.3101 99.279C63.3101 99.381 63.2705 99.4717 63.1911 99.551C63.1231 99.619 63.0438 99.653 62.9531 99.653H60.7261C60.5675 99.653 60.4371 99.6303 60.3351 99.585C60.2445 99.5397 60.1481 99.4717 60.0461 99.381C60.0121 99.347 59.9555 99.2903 59.8761 99.211C59.8081 99.1317 59.7061 99.0523 59.5701 98.973C59.4341 98.8823 59.2641 98.8087 59.0601 98.752C58.8561 98.684 58.6068 98.65 58.3121 98.65C58.0968 98.65 57.8871 98.667 57.6831 98.701C57.4905 98.7237 57.3148 98.769 57.1561 98.837C57.0088 98.8937 56.8841 98.9787 56.7821 99.092C56.6915 99.2053 56.6461 99.347 56.6461 99.517C56.6461 99.687 56.6971 99.8287 56.7991 99.942C56.9125 100.055 57.0938 100.163 57.3431 100.265C57.6038 100.356 57.9438 100.446 58.3631 100.537C58.7825 100.628 59.3038 100.735 59.9271 100.86C60.5505 100.985 61.0945 101.143 61.5591 101.336C62.0238 101.529 62.4091 101.772 62.7151 102.067C63.0325 102.35 63.2648 102.69 63.4121 103.087C63.5708 103.472 63.6501 103.931 63.6501 104.464C63.6501 105.042 63.5198 105.558 63.2591 106.011C62.9985 106.464 62.6301 106.855 62.1541 107.184C61.6895 107.501 61.1341 107.745 60.4881 107.915C59.8535 108.085 59.1565 108.17 58.3971 108.17C57.6265 108.17 56.9238 108.068 56.2891 107.864C55.6545 107.66 55.1048 107.394 54.6401 107.065C54.1868 106.725 53.8298 106.345 53.5691 105.926C53.3085 105.507 53.1725 105.082 53.1611 104.651C53.1611 104.549 53.1951 104.464 53.2631 104.396C53.3425 104.317 53.4275 104.277 53.5181 104.277H55.7451C55.9038 104.277 56.0285 104.3 56.1191 104.345C56.2098 104.379 56.3005 104.436 56.3911 104.515C56.4365 104.56 56.5045 104.634 56.5951 104.736C56.6858 104.838 56.8048 104.946 56.9521 105.059C57.1108 105.161 57.3035 105.252 57.5301 105.331C57.7681 105.41 58.0571 105.45 58.3971 105.45C58.9978 105.45 59.4965 105.388 59.8931 105.263C60.3011 105.127 60.5051 104.889 60.5051 104.549C60.5051 104.379 60.4315 104.237 60.2841 104.124C60.1368 104.011 59.9158 103.909 59.6211 103.818C59.3265 103.716 58.9468 103.62 58.4821 103.529C58.0288 103.438 57.4905 103.325 56.8671 103.189C55.6998 102.94 54.8441 102.526 54.3001 101.948C53.7675 101.359 53.5011 100.577 53.5011 99.602C53.5011 99.1147 53.6088 98.65 53.8241 98.208C54.0508 97.766 54.3738 97.375 54.7931 97.035C55.2125 96.695 55.7168 96.4287 56.3061 96.236C56.9068 96.032 57.5755 95.93 58.3121 95.93ZM71.438 96.1C71.6647 96.1 71.8347 96.1623 71.948 96.287C72.0727 96.4117 72.1577 96.5363 72.203 96.661L75.909 107.371C75.9543 107.484 75.977 107.569 75.977 107.626C75.977 107.728 75.9373 107.819 75.858 107.898C75.79 107.966 75.705 108 75.603 108H73.461C73.2343 108 73.07 107.955 72.968 107.864C72.8773 107.762 72.8207 107.666 72.798 107.575L72.322 106.164H67.8L67.324 107.575C67.3013 107.666 67.239 107.762 67.137 107.864C67.0463 107.955 66.8877 108 66.661 108H64.519C64.417 108 64.3263 107.966 64.247 107.898C64.179 107.819 64.145 107.728 64.145 107.626C64.145 107.569 64.1677 107.484 64.213 107.371L67.919 96.661C67.9643 96.5363 68.0437 96.4117 68.157 96.287C68.2817 96.1623 68.4573 96.1 68.684 96.1H71.438ZM68.684 103.529H71.438L70.061 99.449L68.684 103.529ZM81.9469 98.65C81.5616 98.65 81.2386 98.7067 80.9779 98.82C80.7173 98.922 80.5019 99.0637 80.3319 99.245C80.1733 99.4263 80.0543 99.636 79.9749 99.874C79.8956 100.112 79.8389 100.361 79.8049 100.622C79.7823 100.769 79.7653 100.973 79.7539 101.234C79.7539 101.495 79.7539 101.767 79.7539 102.05C79.7539 102.322 79.7596 102.594 79.7709 102.866C79.7823 103.127 79.7936 103.331 79.8049 103.478C79.8276 103.739 79.8786 103.988 79.9579 104.226C80.0486 104.464 80.1733 104.674 80.3319 104.855C80.5019 105.036 80.7173 105.184 80.9779 105.297C81.2499 105.399 81.5729 105.45 81.9469 105.45C82.2416 105.45 82.5193 105.416 82.7799 105.348C83.0406 105.28 83.2673 105.172 83.4599 105.025C83.6526 104.878 83.8056 104.685 83.9189 104.447C84.0323 104.209 84.0889 103.92 84.0889 103.58H82.6609C82.5363 103.58 82.4286 103.535 82.3379 103.444C82.2473 103.353 82.2019 103.246 82.2019 103.121V101.319C82.2019 101.194 82.2473 101.087 82.3379 100.996C82.4286 100.905 82.5363 100.86 82.6609 100.86H86.7749C86.8996 100.86 87.0073 100.905 87.0979 100.996C87.1886 101.087 87.2339 101.194 87.2339 101.319V103.495C87.2339 104.22 87.0979 104.872 86.8259 105.45C86.5539 106.028 86.1799 106.521 85.7039 106.929C85.2279 107.326 84.6669 107.632 84.0209 107.847C83.3863 108.062 82.6949 108.17 81.9469 108.17C81.1309 108.17 80.3999 108.051 79.7539 107.813C79.1193 107.564 78.5753 107.229 78.1219 106.81C77.6686 106.391 77.3173 105.903 77.0679 105.348C76.8299 104.781 76.6939 104.186 76.6599 103.563C76.6373 103.098 76.6259 102.6 76.6259 102.067C76.6259 101.534 76.6373 101.024 76.6599 100.537C76.6826 99.9137 76.8186 99.3243 77.0679 98.769C77.3173 98.2023 77.6629 97.7093 78.1049 97.29C78.5583 96.8707 79.1079 96.542 79.7539 96.304C80.3999 96.0547 81.1309 95.93 81.9469 95.93C82.7403 95.93 83.4543 96.049 84.0889 96.287C84.7236 96.5137 85.2619 96.8083 85.7039 97.171C86.1459 97.5223 86.4916 97.9133 86.7409 98.344C86.9903 98.7633 87.1263 99.1657 87.1489 99.551C87.1603 99.653 87.1263 99.7437 87.0469 99.823C86.9676 99.891 86.8769 99.925 86.7749 99.925H84.5139C84.3439 99.925 84.2079 99.874 84.1059 99.772C84.0153 99.67 83.9246 99.568 83.8339 99.466C83.6753 99.262 83.4599 99.075 83.1879 98.905C82.9159 98.735 82.5023 98.65 81.9469 98.65ZM97.6709 105.28C97.7955 105.28 97.9032 105.325 97.9939 105.416C98.0845 105.507 98.1299 105.614 98.1299 105.739V107.541C98.1299 107.666 98.0845 107.773 97.9939 107.864C97.9032 107.955 97.7955 108 97.6709 108H89.6129C89.4882 108 89.3805 107.955 89.2899 107.864C89.1992 107.773 89.1539 107.666 89.1539 107.541V96.559C89.1539 96.4343 89.1992 96.3267 89.2899 96.236C89.3805 96.1453 89.4882 96.1 89.6129 96.1H97.5349C97.6595 96.1 97.7672 96.1453 97.8579 96.236C97.9485 96.3267 97.9939 96.4343 97.9939 96.559V98.361C97.9939 98.4857 97.9485 98.5933 97.8579 98.684C97.7672 98.7747 97.6595 98.82 97.5349 98.82H92.2989V100.656H97.1609C97.2855 100.656 97.3932 100.701 97.4839 100.792C97.5745 100.883 97.6199 100.99 97.6199 101.115V102.917C97.6199 103.042 97.5745 103.149 97.4839 103.24C97.3932 103.331 97.2855 103.376 97.1609 103.376H92.2989V105.28H97.6709Z" fill="white"/>
<g filter="url(#filter1_d_682_14142)">
<path d="M80.0801 61.9105C79.9517 62.8697 79.6461 63.7966 79.179 64.6441C77.7171 65.7555 36.8443 67.4377 34.331 63.5927C33.2705 62.3047 32.4375 60.8453 31.8678 59.2771C31.7777 58.9367 31.6876 58.6063 31.6075 58.2758C27.2018 40.4128 29.4346 27.1757 30.4159 26.7451C37.425 23.7412 82.7636 23.1905 84.3256 25.3933C85.5572 27.2257 82.0627 53.2794 80.0801 61.9105Z" fill="url(#paint0_linear_682_14142)"/>
<g style="mix-blend-mode:multiply" opacity="0.4">
<path d="M84.3156 25.3935C84.0352 22.5699 80.6508 35.6668 79.5895 45.87C78.8185 53.2496 78.6883 63.5729 78.9387 64.1236C79.189 64.6743 85.5472 37.4691 84.3156 25.3935Z" fill="#C60055"/>
</g>
<g style="mix-blend-mode:multiply" opacity="0.4">
<path d="M80.0802 61.9108C79.9517 62.87 79.6461 63.7969 79.179 64.6444C77.7171 65.7558 36.8443 67.438 34.331 63.593C33.9205 62.9722 32.008 60.1686 31.6175 58.2961C33.6802 62.792 41.0697 66.2164 58.4421 65.6056C75.8146 64.9948 78.7384 64.334 80.0802 61.9108Z" fill="#C60055"/>
</g>
<g style="mix-blend-mode:multiply" opacity="0.4">
<path d="M30.4059 26.695C30.1255 28.2871 42.5416 44.5881 50.8824 48.6734C59.2232 52.7587 79.5895 27.9666 84.3156 25.3533C84.3156 25.3533 84.4858 25.5135 84.4758 26.655C84.4658 27.7964 65.4513 41.9247 61.9968 45.8298C58.5423 49.7348 76.4054 63.803 79.179 64.6441C79.179 64.6441 78.5181 65.0446 78.1176 64.9144C77.7171 64.7842 63.6289 54.4108 59.9541 47.1915C59.9541 47.1915 56.0391 50.6159 53.7161 50.7361C51.3931 50.8562 48.8197 47.7322 48.249 47.4919C48.249 47.4919 36.9243 57.8753 35.6127 64.0834C35.6127 64.0834 35.6127 64.584 34.9618 63.5226C34.311 62.4612 47.3479 47.572 47.3479 47.3317C47.3479 47.0914 34.331 34.6653 30.4059 26.695Z" fill="#C60055"/>
</g>
<g style="mix-blend-mode:multiply" opacity="0.4">
<path d="M49.5406 47.9328C49.5406 47.9328 52.5445 52.0481 53.9764 52.0481C56.5998 52.0481 59.7238 51.3973 68.0946 43.9477C83.114 30.5904 83.6647 25.7742 83.6647 25.7742C83.6647 25.7742 78.6582 30.6705 70.6479 37.9799C62.6375 45.2894 56.4796 48.4134 54.7674 48.9942C53.0552 49.5749 49.5406 47.9328 49.5406 47.9328Z" fill="#C60055"/>
</g>
<g style="mix-blend-mode:multiply" opacity="0.3">
<path d="M84.3156 25.3935C84.0853 25.3134 78.3879 23.1606 64.2897 25.3935C49.8511 27.6764 33.1294 24.5223 31.1669 27.2959C29.2043 30.0695 29.9053 33.0934 29.675 39.4116C29.4447 45.4194 31.4272 57.1545 31.6075 58.2259C27.2018 40.3628 29.4346 27.1257 30.4159 26.6951C37.425 23.6512 82.7436 23.1406 84.3156 25.3935Z" fill="#C60055"/>
</g>
<g style="mix-blend-mode:screen" opacity="0.3">
<path d="M32.5286 27.3962C31.5273 27.9069 37.425 34.7257 42.832 41.1139C48.239 47.5022 57.6411 46.9114 63.759 42.8362C69.8769 38.7609 81.5821 27.0758 81.0113 25.8142C80.4406 24.5525 66.4525 25.9043 55.1379 26.505C43.8232 27.1058 34.1507 26.5451 32.5286 27.3962Z" fill="#FFB64A"/>
</g>
<g style="mix-blend-mode:multiply" opacity="0.2">
<path d="M35.6127 64.0836C35.0519 62.7218 42.3113 54.1207 55.0278 54.381C67.7442 54.6414 76.7358 64.9447 76.7358 64.9447C76.7358 64.9447 50.3016 67.4479 35.6127 64.0836Z" fill="#EB5694"/>
</g>
<g style="mix-blend-mode:multiply" opacity="0.4">
<path d="M69.6667 57.6951C71.2935 59.424 73.0365 61.0398 74.8835 62.5313C77.2365 64.3136 78.1176 64.9144 78.1176 64.9144C78.1176 64.9144 79.1189 65.3249 79.4794 64.0933C79.8398 62.8617 75.5643 62.9619 69.6667 57.6951Z" fill="#C60055"/>
</g>
<path d="M60.7752 48.6033C59.9641 48.1427 63.2283 54.2306 67.9845 58.0956C70.7172 60.3544 73.6459 62.3649 76.7358 64.1034C76.7358 64.1034 70.3776 57.6951 60.7752 48.6033Z" fill="#FFD8A7"/>
<path d="M35.9731 62.8919C35.9731 62.8919 43.4628 52.3182 48.249 47.4919C48.249 47.4919 38.8268 53.5998 35.9731 62.8919Z" fill="#FFD8A7"/>
<g style="mix-blend-mode:multiply" opacity="0.4">
<path d="M79.6796 44.9888C78.8886 55.5224 82.5033 45.4794 83.6147 39.4116C84.2519 34.888 84.2519 30.2975 83.6147 25.7739C83.6047 25.1231 80.3405 36.1173 79.6796 44.9888Z" fill="#C60055"/>
</g>
<g style="mix-blend-mode:multiply" opacity="0.2">
<path d="M36.8142 45.7298C36.8216 45.5213 36.894 45.3204 37.0212 45.155C37.1484 44.9896 37.3241 44.8681 37.5237 44.8074C37.7234 44.7468 37.937 44.75 38.1347 44.8166C38.3324 44.8833 38.5044 45.01 38.6265 45.1791C38.7063 45.5592 38.6496 45.9551 38.4665 46.2975C38.2834 46.6399 37.9856 46.9069 37.6252 47.0516C36.8342 47.2318 36.7942 46.3106 36.8142 45.7298Z" fill="#C60055"/>
</g>
<g style="mix-blend-mode:multiply" opacity="0.2">
<path d="M71.8495 29.2485C71.8549 29.0391 71.9258 28.8368 72.0523 28.6698C72.1788 28.5029 72.3544 28.3798 72.5545 28.3179C72.7545 28.256 72.969 28.2584 73.1676 28.3248C73.3663 28.3911 73.5391 28.5181 73.6618 28.6878C73.7457 29.068 73.6909 29.4657 73.5073 29.8091C73.3237 30.1524 73.0233 30.4188 72.6605 30.5602C71.8695 30.7504 71.8294 29.8292 71.8495 29.2485Z" fill="#C60055"/>
</g>
<g style="mix-blend-mode:multiply" opacity="0.2">
<path d="M36.2636 44.7685C37.1647 43.6871 36.0333 40.0824 33.52 40.2726C31.0068 40.4629 32.2584 44.0976 33.52 44.9587C33.7113 45.1292 33.9347 45.2596 34.1772 45.3425C34.4196 45.4253 34.6762 45.4588 34.9318 45.4411C35.1874 45.4234 35.4369 45.3548 35.6656 45.2393C35.8943 45.1237 36.0976 44.9637 36.2636 44.7685Z" fill="#C60055"/>
</g>
<path d="M53.7561 49.074C52.5345 48.9138 68.6954 39.7119 68.6954 39.7119C68.6954 39.7119 59.4134 48.0026 53.7561 49.074Z" fill="#FFC59F"/>
<g style="mix-blend-mode:multiply" opacity="0.4">
<path d="M30.4059 26.6951C30.4059 26.6951 31.6976 31.1608 36.3536 37.1486C41.0096 43.1363 49.5407 47.9325 49.5407 47.9325C49.5407 47.9325 35.6026 36.7981 30.4059 26.6951Z" fill="#C60055"/>
</g>
<path d="M50.0869 37.9088C46.0229 39.5409 44.4582 42.3971 43.8701 47.5725C43.282 52.748 54.4869 59.3837 59.622 54.917C64.7572 50.4502 64.5366 43.6319 63.0455 39.8846C61.5543 36.1372 52.2397 37.0391 50.0869 37.9088Z" fill="url(#paint1_linear_682_14142)"/>
<g style="mix-blend-mode:multiply" opacity="0.8">
<path d="M59.4835 45.7198C59.4835 46.9892 59.107 48.2301 58.4018 49.2856C57.6965 50.3411 56.6942 51.1638 55.5214 51.6495C54.3486 52.1353 53.0581 52.2624 51.8131 52.0148C50.5681 51.7671 49.4244 51.1558 48.5268 50.2582C47.6292 49.3606 47.0179 48.217 46.7702 46.972C46.5226 45.7269 46.6497 44.4364 47.1355 43.2636C47.6212 42.0908 48.4439 41.0884 49.4994 40.3832C50.5548 39.6779 51.7958 39.3015 53.0652 39.3015C54.7674 39.3015 56.4 39.9777 57.6036 41.1814C58.8073 42.385 59.4835 44.0175 59.4835 45.7198Z" fill="#D40055"/>
</g>
<path d="M53.8863 51.4372C56.9333 51.4372 59.4034 48.8775 59.4034 45.7198C59.4034 42.5622 56.9333 40.0024 53.8863 40.0024C50.8392 40.0024 48.3691 42.5622 48.3691 45.7198C48.3691 48.8775 50.8392 51.4372 53.8863 51.4372Z" fill="#F20041"/>
<g style="mix-blend-mode:multiply" opacity="0.8">
<path d="M43.9133 48.8939C46.2182 51.6636 49.4898 53.4533 53.0652 53.9004C59.0129 54.6013 61.416 50.0154 62.0768 46.2706C62.3809 43.6239 61.9946 40.9435 60.9554 38.4905C61.4936 38.8735 61.9302 39.3822 62.227 39.9724C62.4273 40.6533 62.968 48.3132 63.1582 50.4159C63.3485 52.5186 60.0643 55.6226 54.417 55.9831C48.7697 56.3436 45.0448 51.0968 43.9133 48.8939Z" fill="#C90055"/>
</g>
<g style="mix-blend-mode:multiply" opacity="0.5">
<path d="M46.697 44.9285C47.0074 48.2528 46.3065 47.0913 49.01 43.0361C51.7135 38.9808 58.312 42.4854 58.9028 43.0361C59.4936 43.5868 56.9002 38.4401 52.1941 39.3013C47.488 40.1624 46.697 44.9285 46.697 44.9285Z" fill="#A10055"/>
</g>
<g style="mix-blend-mode:screen" opacity="0.3">
<path d="M43.9134 48.1429C43.9976 48.4951 44.1512 48.827 44.3653 49.1192C44.5793 49.4114 44.8495 49.6579 45.16 49.8444C45.4704 50.0309 45.8151 50.1535 46.1735 50.2052C46.532 50.2569 46.8972 50.2366 47.2477 50.1455C47.7684 49.9552 45.5055 46.5608 46.9674 42.7058C48.4292 38.8509 51.9738 37.5592 56.2393 39.2614C60.5049 40.9636 60.5349 39.1813 60.1444 38.4804C59.7539 37.7795 51.9438 35.6567 47.8084 38.4804C43.6731 41.304 43.6931 46.9013 43.9134 48.1429Z" fill="#FFB64A"/>
</g>
<g style="mix-blend-mode:screen" opacity="0.3">
<path d="M55.248 53.9402C54.0765 52.9389 58.5923 50.3356 60.0943 47.2716C61.5962 44.2076 61.3459 48.0626 60.4648 50.6059C59.5836 53.1492 55.248 53.9402 55.248 53.9402Z" fill="#FFB64A"/>
</g>
<path d="M54.2267 37.4089C52.9851 37.6993 55.4483 39.4115 57.3307 39.1611C59.2131 38.9108 56.8701 36.7881 54.2267 37.4089Z" fill="white"/>
<path d="M55.3381 53.6399C54.7574 53.5098 56.5597 51.9878 57.0704 52.158C57.581 52.3283 56.7099 53.9603 55.3381 53.6399Z" fill="white"/>
<g style="mix-blend-mode:multiply" opacity="0.2">
<path d="M65.3511 50.4256C65.5614 52.5684 74.7432 61.9205 77.2565 62.5313C79.7697 63.1421 77.8372 45.8297 77.707 41.0836C77.5769 36.3374 65.1108 47.8923 65.3511 50.4256Z" fill="#EB5694"/>
</g>
<g style="mix-blend-mode:multiply" opacity="0.2">
<path d="M67.9845 58.0958C64.9807 56.6339 69.4464 61.4902 71.5291 63.3426C72.2427 63.9391 73.0804 64.369 73.9811 64.6011C74.8817 64.8332 75.8228 64.8616 76.7358 64.6843C77.1564 64.5642 71.2888 61.35 67.9845 58.0958Z" fill="#DC6A94"/>
</g>
<path d="M32.0681 28.307C34.1508 31.5412 39.2073 28.307 45.5655 27.2556C51.9237 26.2043 36.0132 25.5434 33.7402 26.2543C31.4673 26.9653 32.0681 28.307 32.0681 28.307Z" fill="#FFD8A7"/>
</g>
</g>
<defs>
<filter id="filter0_d_682_14142" x="0" y="0" width="122.331" height="133.89" filterUnits="userSpaceOnUse" color-interpolation-filters="sRGB">
<feFlood flood-opacity="0" result="BackgroundImageFix"/>
<feColorMatrix in="SourceAlpha" type="matrix" values="0 0 0 0 0 0 0 0 0 0 0 0 0 0 0 0 0 0 127 0" result="hardAlpha"/>
<feOffset dx="4" dy="4"/>
<feGaussianBlur stdDeviation="2"/>
<feComposite in2="hardAlpha" operator="out"/>
<feColorMatrix type="matrix" values="0 0 0 0 0 0 0 0 0 0 0 0 0 0 0 0 0 0 0.8 0"/>
<feBlend mode="normal" in2="BackgroundImageFix" result="effect1_dropShadow_682_14142"/>
<feBlend mode="normal" in="SourceGraphic" in2="effect1_dropShadow_682_14142" result="shape"/>
</filter>
<filter id="filter1_d_682_14142" x="27.9735" y="23" width="63.6088" height="49.9846" filterUnits="userSpaceOnUse" color-interpolation-filters="sRGB">
<feFlood flood-opacity="0" result="BackgroundImageFix"/>
<feColorMatrix in="SourceAlpha" type="matrix" values="0 0 0 0 0 0 0 0 0 0 0 0 0 0 0 0 0 0 127 0" result="hardAlpha"/>
<feOffset dx="3" dy="3"/>
<feGaussianBlur stdDeviation="2"/>
<feComposite in2="hardAlpha" operator="out"/>
<feColorMatrix type="matrix" values="0 0 0 0 0 0 0 0 0 0 0 0 0 0 0 0 0 0 0.8 0"/>
<feBlend mode="normal" in2="BackgroundImageFix" result="effect1_dropShadow_682_14142"/>
<feBlend mode="normal" in="SourceGraphic" in2="effect1_dropShadow_682_14142" result="shape"/>
</filter>
<linearGradient id="paint0_linear_682_14142" x1="56.77" y1="65.9858" x2="56.77" y2="23.9915" gradientUnits="userSpaceOnUse">
<stop stop-color="#FFA274"/>
<stop offset="1" stop-color="#FFC488"/>
</linearGradient>
<linearGradient id="paint1_linear_682_14142" x1="53.9198" y1="56.3558" x2="53.9198" y2="37.1572" gradientUnits="userSpaceOnUse">
<stop stop-color="#DE0086"/>
<stop offset="1" stop-color="#FF003B"/>
</linearGradient>
</defs>
</svg>
