<svg width="157" height="61" viewBox="0 0 157 61" fill="none" xmlns="http://www.w3.org/2000/svg">
<g filter="url(#filter0_d_293_3442)">
<rect x="6" y="2" width="145" height="49" rx="20" fill="white" shape-rendering="crispEdges"/>
<path d="M67.1955 17.5156V36H63.6916L55.8332 23.1777V36H52.342V17.5156H55.8332L63.717 30.3506V17.5156H67.1955ZM77.1862 36.2539C76.1452 36.2539 75.21 36.0846 74.3806 35.7461C73.5511 35.4076 72.8444 34.9378 72.2605 34.3369C71.6849 33.7275 71.2406 33.0208 70.9275 32.2168C70.6228 31.4043 70.4704 30.5326 70.4704 29.6016V29.0938C70.4704 28.0358 70.6228 27.0752 70.9275 26.2119C71.2321 25.3402 71.6638 24.5911 72.2224 23.9648C72.781 23.3385 73.4496 22.8561 74.2282 22.5176C75.0069 22.179 75.8659 22.0098 76.8054 22.0098C77.7787 22.0098 78.6377 22.1748 79.3825 22.5049C80.1273 22.8265 80.7494 23.2835 81.2487 23.876C81.7481 24.4684 82.1247 25.1794 82.3786 26.0088C82.6325 26.8298 82.7595 27.7396 82.7595 28.7383V30.1475H71.9939V27.8369H79.4587V27.583C79.4418 27.0498 79.3402 26.5632 79.154 26.123C78.9678 25.6745 78.6801 25.319 78.2907 25.0566C77.9014 24.7858 77.3978 24.6504 76.78 24.6504C76.2806 24.6504 75.8448 24.7604 75.4724 24.9805C75.1084 25.1921 74.8038 25.4967 74.5583 25.8945C74.3213 26.2839 74.1436 26.7493 74.0251 27.291C73.9066 27.8327 73.8474 28.4336 73.8474 29.0938V29.6016C73.8474 30.1771 73.9235 30.7103 74.0759 31.2012C74.2367 31.6921 74.4694 32.1195 74.7741 32.4834C75.0873 32.8389 75.4597 33.1182 75.8913 33.3213C76.3314 33.516 76.8308 33.6133 77.3894 33.6133C78.0918 33.6133 78.7266 33.4779 79.2937 33.207C79.8692 32.9277 80.3685 32.5173 80.7917 31.9756L82.4802 33.7275C82.1924 34.1507 81.8031 34.557 81.3122 34.9463C80.8298 35.3356 80.2458 35.653 79.5603 35.8984C78.8747 36.1354 78.0834 36.2539 77.1862 36.2539ZM88.1545 22.2637L90.6047 26.6309L93.093 22.2637H96.7365L92.6994 28.9922L96.9016 36H93.258L90.6301 31.417L87.9894 36H84.3459L88.5353 28.9922L84.5236 22.2637H88.1545ZM105.699 22.2637V24.6758H97.8278V22.2637H105.699ZM99.9352 18.8867H103.299V32.0391C103.299 32.4453 103.354 32.7585 103.465 32.9785C103.575 33.1986 103.74 33.3467 103.96 33.4229C104.18 33.499 104.442 33.5371 104.747 33.5371C104.967 33.5371 105.17 33.5244 105.356 33.499C105.542 33.4736 105.699 33.4482 105.826 33.4229L105.839 35.9365C105.559 36.0296 105.242 36.1058 104.886 36.165C104.539 36.2243 104.146 36.2539 103.706 36.2539C102.952 36.2539 102.292 36.127 101.725 35.873C101.158 35.6107 100.718 35.1917 100.405 34.6162C100.092 34.0322 99.9352 33.262 99.9352 32.3057V18.8867Z" fill="black"/>
<rect x="6.75" y="2.75" width="143.5" height="47.5" rx="19.25" stroke="white" stroke-width="1.5" shape-rendering="crispEdges"/>
</g>
<defs>
<filter id="filter0_d_293_3442" x="0" y="0" width="157" height="61" filterUnits="userSpaceOnUse" color-interpolation-filters="sRGB">
<feFlood flood-opacity="0" result="BackgroundImageFix"/>
<feColorMatrix in="SourceAlpha" type="matrix" values="0 0 0 0 0 0 0 0 0 0 0 0 0 0 0 0 0 0 127 0" result="hardAlpha"/>
<feOffset dy="4"/>
<feGaussianBlur stdDeviation="3"/>
<feComposite in2="hardAlpha" operator="out"/>
<feColorMatrix type="matrix" values="0 0 0 0 0 0 0 0 0 0 0 0 0 0 0 0 0 0 0.7 0"/>
<feBlend mode="normal" in2="BackgroundImageFix" result="effect1_dropShadow_293_3442"/>
<feBlend mode="normal" in="SourceGraphic" in2="effect1_dropShadow_293_3442" result="shape"/>
</filter>
</defs>
</svg>
