<svg width="243" height="75" viewBox="0 0 243 75" fill="none" xmlns="http://www.w3.org/2000/svg">
<path d="M16.5 19.5C18.6333 19.5 20.5833 19.8167 22.35 20.45C24.15 21.05 25.7 21.8333 27 22.8C28.3 23.7667 29.3167 24.8333 30.05 26C30.7833 27.1667 31.1667 28.2833 31.2 29.35C31.2 29.65 31.0833 29.9167 30.85 30.15C30.65 30.35 30.4167 30.45 30.15 30.45H23.6C23.1333 30.45 22.75 30.3833 22.45 30.25C22.1833 30.1167 21.9 29.9167 21.6 29.65C21.5 29.55 21.3333 29.3833 21.1 29.15C20.9 28.9167 20.6 28.6833 20.2 28.45C19.8 28.1833 19.3 27.9667 18.7 27.8C18.1 27.6 17.3667 27.5 16.5 27.5C15.8667 27.5 15.25 27.55 14.65 27.65C14.0833 27.7167 13.5667 27.85 13.1 28.05C12.6667 28.2167 12.3 28.4667 12 28.8C11.7333 29.1333 11.6 29.55 11.6 30.05C11.6 30.55 11.75 30.9667 12.05 31.3C12.3833 31.6333 12.9167 31.95 13.65 32.25C14.4167 32.5167 15.4167 32.7833 16.65 33.05C17.8833 33.3167 19.4167 33.6333 21.25 34C23.0833 34.3667 24.6833 34.8333 26.05 35.4C27.4167 35.9667 28.55 36.6833 29.45 37.55C30.3833 38.3833 31.0667 39.3833 31.5 40.55C31.9667 41.6833 32.2 43.0333 32.2 44.6C32.2 46.3 31.8167 47.8167 31.05 49.15C30.2833 50.4833 29.2 51.6333 27.8 52.6C26.4333 53.5333 24.8 54.25 22.9 54.75C21.0333 55.25 18.9833 55.5 16.75 55.5C14.4833 55.5 12.4167 55.2 10.55 54.6C8.68333 54 7.06667 53.2167 5.7 52.25C4.36667 51.25 3.31667 50.1333 2.55 48.9C1.78333 47.6667 1.38333 46.4167 1.35 45.15C1.35 44.85 1.45 44.6 1.65 44.4C1.88333 44.1667 2.13333 44.05 2.4 44.05H8.95C9.41667 44.05 9.78333 44.1167 10.05 44.25C10.3167 44.35 10.5833 44.5167 10.85 44.75C10.9833 44.8833 11.1833 45.1 11.45 45.4C11.7167 45.7 12.0667 46.0167 12.5 46.35C12.9667 46.65 13.5333 46.9167 14.2 47.15C14.9 47.3833 15.75 47.5 16.75 47.5C18.5167 47.5 19.9833 47.3167 21.15 46.95C22.35 46.55 22.95 45.85 22.95 44.85C22.95 44.35 22.7333 43.9333 22.3 43.6C21.8667 43.2667 21.2167 42.9667 20.35 42.7C19.4833 42.4 18.3667 42.1167 17 41.85C15.6667 41.5833 14.0833 41.25 12.25 40.85C8.81667 40.1167 6.3 38.9 4.7 37.2C3.13333 35.4667 2.35 33.1667 2.35 30.3C2.35 28.8667 2.66667 27.5 3.3 26.2C3.96667 24.9 4.91667 23.75 6.15 22.75C7.38333 21.75 8.86667 20.9667 10.6 20.4C12.3667 19.8 14.3333 19.5 16.5 19.5ZM66.2996 20C66.6663 20 66.9829 20.1333 67.2496 20.4C67.5163 20.6667 67.6496 20.9833 67.6496 21.35V26.65C67.6496 27.0167 67.5163 27.3333 67.2496 27.6C66.9829 27.8667 66.6663 28 66.2996 28H57.4996V53.65C57.4996 54.0167 57.3663 54.3333 57.0996 54.6C56.8329 54.8667 56.5163 55 56.1496 55H49.5996C49.2329 55 48.9163 54.8667 48.6496 54.6C48.3829 54.3333 48.2496 54.0167 48.2496 53.65V28H39.4496C39.0829 28 38.7663 27.8667 38.4996 27.6C38.2329 27.3333 38.0996 27.0167 38.0996 26.65V21.35C38.0996 20.9833 38.2329 20.6667 38.4996 20.4C38.7663 20.1333 39.0829 20 39.4496 20H66.2996ZM90.877 20C91.5436 20 92.0436 20.1833 92.377 20.55C92.7436 20.9167 92.9936 21.2833 93.127 21.65L104.027 53.15C104.16 53.4833 104.227 53.7333 104.227 53.9C104.227 54.2 104.11 54.4667 103.877 54.7C103.677 54.9 103.427 55 103.127 55H96.827C96.1603 55 95.677 54.8667 95.377 54.6C95.1103 54.3 94.9436 54.0167 94.877 53.75L93.477 49.6H80.177L78.777 53.75C78.7103 54.0167 78.527 54.3 78.227 54.6C77.9603 54.8667 77.4936 55 76.827 55H70.527C70.227 55 69.9603 54.9 69.727 54.7C69.527 54.4667 69.427 54.2 69.427 53.9C69.427 53.7333 69.4936 53.4833 69.627 53.15L80.527 21.65C80.6603 21.2833 80.8936 20.9167 81.227 20.55C81.5936 20.1833 82.1103 20 82.777 20H90.877ZM82.777 41.85H90.877L86.827 29.85L82.777 41.85ZM126.916 20C129.116 20 131.082 20.2333 132.816 20.7C134.549 21.1667 136.016 21.8667 137.216 22.8C138.449 23.7333 139.382 24.9333 140.016 26.4C140.682 27.8333 141.016 29.5167 141.016 31.45C141.016 33.95 140.499 36.0333 139.466 37.7C138.432 39.3333 136.966 40.5833 135.066 41.45L141.266 53.35C141.366 53.55 141.416 53.7333 141.416 53.9C141.416 54.2 141.299 54.4667 141.066 54.7C140.866 54.9 140.616 55 140.316 55H133.516C132.849 55 132.366 54.85 132.066 54.55C131.799 54.25 131.582 53.95 131.416 53.65L125.866 42.95H121.266V53.65C121.266 54.0167 121.132 54.3333 120.866 54.6C120.599 54.8667 120.282 55 119.916 55H113.366C112.999 55 112.682 54.8667 112.416 54.6C112.149 54.3333 112.016 54.0167 112.016 53.65V21.35C112.016 20.9833 112.149 20.6667 112.416 20.4C112.682 20.1333 112.999 20 113.366 20H126.916ZM121.266 35.15H126.916C128.316 35.15 129.466 34.8833 130.366 34.35C131.299 33.8167 131.766 32.85 131.766 31.45C131.766 30.05 131.299 29.0833 130.366 28.55C129.466 28.0167 128.316 27.75 126.916 27.75H121.266V35.15ZM175.938 20C176.305 20 176.622 20.1333 176.888 20.4C177.155 20.6667 177.288 20.9833 177.288 21.35V26.65C177.288 27.0167 177.155 27.3333 176.888 27.6C176.622 27.8667 176.305 28 175.938 28H167.138V53.65C167.138 54.0167 167.005 54.3333 166.738 54.6C166.472 54.8667 166.155 55 165.788 55H159.238C158.872 55 158.555 54.8667 158.288 54.6C158.022 54.3333 157.888 54.0167 157.888 53.65V28H149.088C148.722 28 148.405 27.8667 148.138 27.6C147.872 27.3333 147.738 27.0167 147.738 26.65V21.35C147.738 20.9833 147.872 20.6667 148.138 20.4C148.405 20.1333 148.722 20 149.088 20H175.938Z" fill="white"/>
<path d="M22.35 20.45L21.8438 21.862L21.8597 21.8677L21.8757 21.873L22.35 20.45ZM27 22.8L27.8951 21.5963L27 22.8ZM30.05 26L28.78 26.7983L28.78 26.7983L30.05 26ZM31.2 29.35H32.7V29.3266L32.6993 29.3031L31.2 29.35ZM30.85 30.15L31.9107 31.2107L31.9107 31.2107L30.85 30.15ZM22.45 30.25L21.7792 31.5916L21.8097 31.6069L21.8408 31.6207L22.45 30.25ZM21.6 29.65L20.5393 30.7107L20.5705 30.7418L20.6035 30.7711L21.6 29.65ZM21.1 29.15L19.9611 30.1262L19.9986 30.1699L20.0393 30.2107L21.1 29.15ZM20.2 28.45L19.3679 29.6981L19.4054 29.723L19.4442 29.7457L20.2 28.45ZM18.7 27.8L18.2257 29.223L18.2618 29.2351L18.2985 29.2453L18.7 27.8ZM14.65 27.65L14.8253 29.1397L14.8611 29.1355L14.8966 29.1296L14.65 27.65ZM13.1 28.05L13.6385 29.45L13.6649 29.4399L13.6909 29.4287L13.1 28.05ZM12 28.8L10.8851 27.7965L10.8559 27.8289L10.8287 27.863L12 28.8ZM12.05 31.3L10.9351 32.3034L10.9614 32.3328L10.9893 32.3607L12.05 31.3ZM13.65 32.25L13.0821 33.6383L13.1193 33.6535L13.1572 33.6667L13.65 32.25ZM16.65 33.05L16.333 34.5161H16.333L16.65 33.05ZM26.05 35.4L25.4755 36.7856L26.05 35.4ZM29.45 37.55L28.4095 38.6305L28.4299 38.6501L28.451 38.6689L29.45 37.55ZM31.5 40.55L30.0939 41.0723L30.103 41.0969L30.113 41.1211L31.5 40.55ZM31.05 49.15L29.7496 48.4023L31.05 49.15ZM27.8 52.6L28.646 53.8387L28.6523 53.8343L27.8 52.6ZM22.9 54.75L22.5183 53.2994L22.5119 53.3011L22.9 54.75ZM10.55 54.6L11.009 53.172L10.55 54.6ZM5.7 52.25L4.8 53.45L4.81673 53.4625L4.8338 53.4746L5.7 52.25ZM2.55 48.9L3.82393 48.1081L2.55 48.9ZM1.35 45.15H-0.15V45.1697L-0.149481 45.1895L1.35 45.15ZM1.65 44.4L0.58934 43.3393H0.58934L1.65 44.4ZM10.05 44.25L9.37918 45.5916L9.4496 45.6269L9.52332 45.6545L10.05 44.25ZM10.85 44.75L11.9107 43.6893L11.8753 43.654L11.8378 43.6211L10.85 44.75ZM11.45 45.4L10.3289 46.3965H10.3289L11.45 45.4ZM12.5 46.35L11.5854 47.5389L11.6356 47.5775L11.6889 47.6118L12.5 46.35ZM14.2 47.15L13.7045 48.5658L13.715 48.5695L13.7257 48.573L14.2 47.15ZM21.15 46.95L21.5997 48.381L21.6121 48.3771L21.6243 48.373L21.15 46.95ZM22.3 43.6L21.3854 44.7889H21.3854L22.3 43.6ZM20.35 42.7L19.8593 44.1175L19.884 44.126L19.9089 44.1337L20.35 42.7ZM17 41.85L16.7058 43.3209L16.7127 43.3222L17 41.85ZM12.25 40.85L12.5698 39.3845L12.5633 39.3831L12.25 40.85ZM4.7 37.2L3.58719 38.2058L3.59733 38.217L3.6077 38.228L4.7 37.2ZM3.3 26.2L1.96527 25.5155L1.95825 25.5292L1.95151 25.543L3.3 26.2ZM6.15 22.75L5.2053 21.5849L5.2053 21.5849L6.15 22.75ZM10.6 20.4L11.0661 21.8257L11.0743 21.8231L11.0824 21.8203L10.6 20.4ZM16.5 21C18.4841 21 20.2601 21.2943 21.8438 21.862L22.8562 19.038C20.9065 18.3391 18.7826 18 16.5 18V21ZM21.8757 21.873C23.5499 22.4311 24.9524 23.1467 26.1049 24.0037L27.8951 21.5963C26.4476 20.52 24.7501 19.6689 22.8243 19.027L21.8757 21.873ZM26.1049 24.0037C27.2816 24.8787 28.1612 25.8138 28.78 26.7983L31.32 25.2017C30.4721 23.8529 29.3184 22.6547 27.8951 21.5963L26.1049 24.0037ZM28.78 26.7983C29.412 27.8036 29.6778 28.6634 29.7007 29.3969L32.6993 29.3031C32.6555 27.9032 32.1547 26.5297 31.32 25.2017L28.78 26.7983ZM29.7 29.35C29.7 29.2996 29.7111 29.2359 29.7383 29.1738C29.7642 29.1144 29.7913 29.0874 29.7893 29.0893L31.9107 31.2107C32.3944 30.7269 32.7 30.0895 32.7 29.35H29.7ZM29.7893 29.0893C29.8089 29.0698 29.8564 29.0296 29.9341 28.9963C30.0135 28.9622 30.0906 28.95 30.15 28.95V31.95C30.8405 31.95 31.4483 31.673 31.9107 31.2107L29.7893 29.0893ZM30.15 28.95H23.6V31.95H30.15V28.95ZM23.6 28.95C23.2612 28.95 23.1045 28.8994 23.0592 28.8793L21.8408 31.6207C22.3955 31.8673 23.0055 31.95 23.6 31.95V28.95ZM23.1208 28.9084C23.0046 28.8502 22.8297 28.7362 22.5965 28.5289L20.6035 30.7711C20.9703 31.0972 21.3621 31.3831 21.7792 31.5916L23.1208 28.9084ZM22.6607 28.5893C22.5607 28.4893 22.394 28.3227 22.1607 28.0893L20.0393 30.2107C20.2727 30.444 20.4393 30.6107 20.5393 30.7107L22.6607 28.5893ZM22.2389 28.1738C21.8895 27.7662 21.4347 27.4337 20.9558 27.1543L19.4442 29.7457C19.7653 29.933 19.9105 30.0671 19.9611 30.1262L22.2389 28.1738ZM21.0321 27.2019C20.4674 26.8255 19.8118 26.552 19.1015 26.3547L18.2985 29.2453C18.7882 29.3813 19.1326 29.5411 19.3679 29.6981L21.0321 27.2019ZM19.1743 26.377C18.3765 26.111 17.4725 26 16.5 26V29C17.2608 29 17.8235 29.089 18.2257 29.223L19.1743 26.377ZM16.5 26C15.7874 26 15.0882 26.0563 14.4034 26.1704L14.8966 29.1296C15.4118 29.0437 15.9459 29 16.5 29V26ZM14.4747 26.1603C13.7824 26.2417 13.1235 26.408 12.5091 26.6713L13.6909 29.4287C14.0098 29.292 14.3843 29.1916 14.8253 29.1397L14.4747 26.1603ZM12.5615 26.65C11.9155 26.8984 11.3489 27.2811 10.8851 27.7965L13.1149 29.8034C13.2511 29.6522 13.4178 29.5349 13.6385 29.45L12.5615 26.65ZM10.8287 27.863C10.3141 28.5062 10.1 29.2703 10.1 30.05H13.1C13.1 29.8297 13.1526 29.7604 13.1713 29.737L10.8287 27.863ZM10.1 30.05C10.1 30.8747 10.3581 31.6624 10.9351 32.3034L13.1649 30.2966C13.1419 30.271 13.1 30.2253 13.1 30.05H10.1ZM10.9893 32.3607C11.5278 32.8991 12.2729 33.3073 13.0821 33.6383L14.2179 30.8617C13.5604 30.5927 13.2389 30.3676 13.1107 30.2393L10.9893 32.3607ZM13.1572 33.6667C14.0038 33.9612 15.0689 34.2428 16.333 34.5161L16.967 31.5839C15.7645 31.3239 14.8296 31.0721 14.1428 30.8333L13.1572 33.6667ZM16.333 34.5161C17.5766 34.785 19.1181 35.1033 20.9558 35.4709L21.5442 32.5291C19.7152 32.1633 18.1901 31.8483 16.967 31.5839L16.333 34.5161ZM20.9558 35.4709C22.717 35.8231 24.2192 36.2647 25.4755 36.7856L26.6245 34.0144C25.1474 33.4019 23.4497 32.9102 21.5442 32.5291L20.9558 35.4709ZM25.4755 36.7856C26.7003 37.2935 27.6668 37.9153 28.4095 38.6305L30.4905 36.4695C29.4332 35.4514 28.133 34.6398 26.6245 34.0144L25.4755 36.7856ZM28.451 38.6689C29.2031 39.3404 29.7461 40.136 30.0939 41.0723L32.9061 40.0277C32.3872 38.6307 31.5636 37.4263 30.449 36.4311L28.451 38.6689ZM30.113 41.1211C30.4874 42.0305 30.7 43.177 30.7 44.6H33.7C33.7 42.8897 33.4459 41.3361 32.887 39.9789L30.113 41.1211ZM30.7 44.6C30.7 46.0659 30.3721 47.3198 29.7496 48.4023L32.3504 49.8977C33.2613 48.3135 33.7 46.5341 33.7 44.6H30.7ZM29.7496 48.4023C29.1056 49.5224 28.1837 50.5122 26.9477 51.3657L28.6523 53.8343C30.2163 52.7544 31.4611 51.4443 32.3504 49.8977L29.7496 48.4023ZM26.9541 51.3613C25.7526 52.1818 24.2828 52.835 22.5183 53.2994L23.2817 56.2006C25.3172 55.665 27.1141 54.8848 28.6459 53.8387L26.9541 51.3613ZM22.5119 53.3011C20.7897 53.7624 18.8722 54 16.75 54V57C19.0945 57 21.277 56.7376 23.2881 56.1989L22.5119 53.3011ZM16.75 54C14.6154 54 12.7063 53.7175 11.009 53.172L10.091 56.028C12.1271 56.6825 14.3513 57 16.75 57V54ZM11.009 53.172C9.26339 52.6109 7.78906 51.8903 6.5662 51.0254L4.8338 53.4746C6.34427 54.543 8.10328 55.3891 10.091 56.028L11.009 53.172ZM6.6 51.05C5.39381 50.1454 4.47896 49.1618 3.82393 48.1081L1.27607 49.6919C2.15438 51.1048 3.33952 52.3546 4.8 53.45L6.6 51.05ZM3.82393 48.1081C3.17706 47.0675 2.87483 46.0739 2.84948 45.1105L-0.149481 45.1895C-0.108165 46.7595 0.389605 48.2658 1.27607 49.6919L3.82393 48.1081ZM2.85 45.15C2.85 45.1691 2.84624 45.2233 2.81772 45.2946C2.78849 45.3677 2.74692 45.4244 2.71066 45.4607L0.58934 43.3393C0.0896465 43.839 -0.15 44.479 -0.15 45.15H2.85ZM2.71066 45.4607C2.7273 45.444 2.70791 45.4683 2.64683 45.4968C2.58026 45.5278 2.49351 45.55 2.4 45.55V42.55C1.64549 42.55 1.03319 42.8955 0.58934 43.3393L2.71066 45.4607ZM2.4 45.55H8.95V42.55H2.4V45.55ZM8.95 45.55C9.11476 45.55 9.23071 45.562 9.30667 45.5758C9.38346 45.5898 9.40006 45.6021 9.37918 45.5916L10.7208 42.9084C10.1609 42.6284 9.53103 42.55 8.95 42.55V45.55ZM9.52332 45.6545C9.58533 45.6777 9.69949 45.7365 9.86224 45.8789L11.8378 43.6211C11.4672 43.2969 11.048 43.0223 10.5767 42.8455L9.52332 45.6545ZM9.78934 45.8107C9.88961 45.9109 10.0651 46.0998 10.3289 46.3965L12.5711 44.4035C12.3016 44.1002 12.0771 43.8557 11.9107 43.6893L9.78934 45.8107ZM10.3289 46.3965C10.6761 46.7871 11.1022 47.1672 11.5854 47.5389L13.4146 45.1611C13.0311 44.8661 12.7573 44.6129 12.5711 44.4035L10.3289 46.3965ZM11.6889 47.6118C12.2769 47.9898 12.9555 48.3036 13.7045 48.5658L14.6955 45.7342C14.1112 45.5297 13.6564 45.3102 13.3111 45.0882L11.6889 47.6118ZM13.7257 48.573C14.6221 48.8718 15.6421 49 16.75 49V46C15.8579 46 15.1779 45.8948 14.6743 45.727L13.7257 48.573ZM16.75 49C18.6076 49 20.2386 48.8088 21.5997 48.381L20.7003 45.519C19.7281 45.8246 18.4257 46 16.75 46V49ZM21.6243 48.373C22.3901 48.1178 23.1079 47.7206 23.6389 47.1012C24.1923 46.4555 24.45 45.6754 24.45 44.85H21.45C21.45 45.0246 21.4077 45.0945 21.3611 45.1488C21.2921 45.2294 21.1099 45.3822 20.6757 45.527L21.6243 48.373ZM24.45 44.85C24.45 43.8364 23.9773 42.9978 23.2146 42.4111L21.3854 44.7889C21.422 44.8171 21.4417 44.8375 21.4508 44.848C21.4595 44.858 21.4597 44.8603 21.4567 44.8545C21.4535 44.8485 21.4509 44.8413 21.4496 44.8357C21.4484 44.8304 21.45 44.8341 21.45 44.85H24.45ZM23.2146 42.4111C22.5762 41.92 21.7314 41.5557 20.7911 41.2663L19.9089 44.1337C20.7019 44.3777 21.1571 44.6133 21.3854 44.7889L23.2146 42.4111ZM20.8407 41.2825C19.8829 40.951 18.6915 40.6518 17.2873 40.3778L16.7127 43.3222C18.0418 43.5816 19.0837 43.849 19.8593 44.1175L20.8407 41.2825ZM17.2942 40.3791C15.9719 40.1147 14.3975 39.7833 12.5698 39.3845L11.9303 42.3155C13.7692 42.7167 15.3614 43.052 16.7058 43.3209L17.2942 40.3791ZM12.5633 39.3831C9.28683 38.6833 7.1023 37.5638 5.7923 36.172L3.6077 38.228C5.4977 40.2362 8.34651 41.5501 11.9367 42.3169L12.5633 39.3831ZM5.81281 36.1942C4.54882 34.7957 3.85 32.8833 3.85 30.3H0.85C0.85 33.45 1.71785 36.1376 3.58719 38.2058L5.81281 36.1942ZM3.85 30.3C3.85 29.0964 4.11393 27.9542 4.64849 26.857L1.95151 25.543C1.2194 27.0458 0.85 28.6369 0.85 30.3H3.85ZM4.63473 26.8845C5.19821 25.7857 6.00917 24.7953 7.0947 23.9151L5.2053 21.5849C3.82417 22.7047 2.73513 24.0143 1.96527 25.5155L4.63473 26.8845ZM7.0947 23.9151C8.16628 23.0463 9.48135 22.3438 11.0661 21.8257L10.1339 18.9743C8.25199 19.5895 6.60039 20.4537 5.2053 21.5849L7.0947 23.9151ZM11.0824 21.8203C12.6709 21.2808 14.4715 21 16.5 21V18C14.1952 18 12.0624 18.3192 10.1176 18.9797L11.0824 21.8203ZM67.2496 20.4L68.3103 19.3393V19.3393L67.2496 20.4ZM67.2496 27.6L68.3103 28.6607V28.6607L67.2496 27.6ZM57.4996 28V26.5H55.9996V28H57.4996ZM57.0996 54.6L56.039 53.5393L56.0389 53.5393L57.0996 54.6ZM48.2496 28H49.7496V26.5H48.2496V28ZM38.4996 27.6L37.4389 28.6607L38.4996 27.6ZM38.4996 20.4L37.4389 19.3393L38.4996 20.4ZM66.2996 21.5C66.3 21.5 66.2921 21.5 66.278 21.4972C66.2636 21.4944 66.247 21.4896 66.23 21.4825C66.1928 21.4668 66.1794 21.4511 66.1889 21.4607L68.3103 19.3393C67.7713 18.8003 67.0766 18.5 66.2996 18.5V21.5ZM66.1889 21.4607C66.1985 21.4702 66.1828 21.4568 66.1672 21.4196C66.16 21.4026 66.1552 21.386 66.1524 21.3716C66.1496 21.3575 66.1496 21.3496 66.1496 21.35H69.1496C69.1496 20.573 68.8493 19.8783 68.3103 19.3393L66.1889 21.4607ZM66.1496 21.35V26.65H69.1496V21.35H66.1496ZM66.1496 26.65C66.1496 26.6503 66.1496 26.6425 66.1524 26.6284C66.1552 26.614 66.16 26.5974 66.1672 26.5804C66.1828 26.5432 66.1985 26.5298 66.1889 26.5393L68.3103 28.6607C68.8493 28.1217 69.1496 27.427 69.1496 26.65H66.1496ZM66.1889 26.5393C66.1794 26.5489 66.1928 26.5332 66.23 26.5175C66.247 26.5104 66.2636 26.5056 66.278 26.5028C66.2921 26.5 66.3 26.5 66.2996 26.5V29.5C67.0766 29.5 67.7713 29.1997 68.3103 28.6607L66.1889 26.5393ZM66.2996 26.5H57.4996V29.5H66.2996V26.5ZM55.9996 28V53.65H58.9996V28H55.9996ZM55.9996 53.65C55.9996 53.6503 55.9996 53.6425 56.0024 53.6284C56.0052 53.614 56.01 53.5974 56.0172 53.5804C56.0328 53.5432 56.0485 53.5298 56.039 53.5393L58.1603 55.6607C58.6993 55.1217 58.9996 54.427 58.9996 53.65H55.9996ZM56.0389 53.5393C56.0294 53.5489 56.0428 53.5332 56.08 53.5175C56.097 53.5104 56.1136 53.5056 56.128 53.5028C56.1421 53.5 56.15 53.5 56.1496 53.5V56.5C56.9266 56.5 57.6213 56.1997 58.1603 55.6607L56.0389 53.5393ZM56.1496 53.5H49.5996V56.5H56.1496V53.5ZM49.5996 53.5C49.5993 53.5 49.6071 53.5 49.6213 53.5028C49.6356 53.5056 49.6522 53.5104 49.6692 53.5175C49.7064 53.5332 49.7198 53.5489 49.7103 53.5393L47.589 55.6607C48.1279 56.1997 48.8226 56.5 49.5996 56.5V53.5ZM49.7103 53.5393C49.7007 53.5298 49.7164 53.5432 49.7321 53.5804C49.7392 53.5974 49.744 53.614 49.7468 53.6284C49.7496 53.6425 49.7496 53.6503 49.7496 53.65H46.7496C46.7496 54.427 47.05 55.1217 47.589 55.6607L49.7103 53.5393ZM49.7496 53.65V28H46.7496V53.65H49.7496ZM48.2496 26.5H39.4496V29.5H48.2496V26.5ZM39.4496 26.5C39.4493 26.5 39.4571 26.5 39.4713 26.5028C39.4856 26.5056 39.5022 26.5104 39.5192 26.5175C39.5564 26.5332 39.5698 26.5489 39.5603 26.5393L37.4389 28.6607C37.9779 29.1997 38.6726 29.5 39.4496 29.5V26.5ZM39.5603 26.5393C39.5507 26.5298 39.5664 26.5432 39.5821 26.5804C39.5892 26.5974 39.594 26.614 39.5968 26.6284C39.5996 26.6425 39.5996 26.6503 39.5996 26.65H36.5996C36.5996 27.427 36.9 28.1217 37.4389 28.6607L39.5603 26.5393ZM39.5996 26.65V21.35H36.5996V26.65H39.5996ZM39.5996 21.35C39.5996 21.3496 39.5996 21.3575 39.5968 21.3716C39.594 21.386 39.5892 21.4026 39.5821 21.4196C39.5664 21.4568 39.5507 21.4702 39.5603 21.4607L37.4389 19.3393C36.9 19.8783 36.5996 20.573 36.5996 21.35H39.5996ZM39.5603 21.4607C39.5698 21.4511 39.5564 21.4668 39.5192 21.4825C39.5022 21.4896 39.4856 21.4944 39.4713 21.4972C39.4571 21.5 39.4493 21.5 39.4496 21.5V18.5C38.6726 18.5 37.9779 18.8003 37.4389 19.3393L39.5603 21.4607ZM39.4496 21.5H66.2996V18.5H39.4496V21.5ZM92.377 20.55L91.267 21.559L91.2911 21.5854L91.3163 21.6107L92.377 20.55ZM93.127 21.65L94.5445 21.1595L94.5406 21.1484L94.5366 21.1374L93.127 21.65ZM104.027 53.15L102.609 53.6405L102.621 53.6741L102.634 53.7071L104.027 53.15ZM103.877 54.7L104.938 55.7607V55.7607L103.877 54.7ZM95.377 54.6L94.2558 55.5965L94.3145 55.6625L94.3804 55.7211L95.377 54.6ZM94.877 53.75L96.3322 53.3862L96.3175 53.3277L96.2983 53.2705L94.877 53.75ZM93.477 49.6L94.8983 49.1205L94.554 48.1H93.477V49.6ZM80.177 49.6V48.1H79.0999L78.7557 49.1205L80.177 49.6ZM78.777 53.75L77.3557 53.2705L77.3364 53.3277L77.3217 53.3862L78.777 53.75ZM78.227 54.6L77.1663 53.5393L78.227 54.6ZM69.727 54.7L68.5881 55.6762L68.6632 55.7638L68.7508 55.8389L69.727 54.7ZM69.627 53.15L71.0197 53.7071L71.0329 53.6741L71.0445 53.6405L69.627 53.15ZM80.527 21.65L79.1173 21.1374L79.1133 21.1484L79.1094 21.1595L80.527 21.65ZM81.227 20.55L80.1663 19.4893L80.1411 19.5146L80.117 19.541L81.227 20.55ZM82.777 41.85L81.3557 41.3703L80.6876 43.35H82.777V41.85ZM90.877 41.85V43.35H92.9663L92.2982 41.3703L90.877 41.85ZM86.827 29.85L88.2482 29.3703L86.827 25.1593L85.4057 29.3703L86.827 29.85ZM90.877 21.5C91.0767 21.5 91.1867 21.5279 91.2356 21.5458C91.2758 21.5606 91.2751 21.5679 91.267 21.559L93.4869 19.541C92.7807 18.7642 91.8136 18.5 90.877 18.5V21.5ZM91.3163 21.6107C91.5766 21.8709 91.6792 22.058 91.7173 22.1626L94.5366 21.1374C94.308 20.5087 93.9107 19.9624 93.4376 19.4893L91.3163 21.6107ZM91.7094 22.1405L102.609 53.6405L105.444 52.6595L94.5445 21.1595L91.7094 22.1405ZM102.634 53.7071C102.686 53.8377 102.714 53.9243 102.728 53.974C102.734 53.9978 102.735 54.0044 102.733 53.9964C102.732 53.9896 102.727 53.9553 102.727 53.9H105.727C105.727 53.4255 105.561 52.9462 105.42 52.5929L102.634 53.7071ZM102.727 53.9C102.727 53.8496 102.738 53.7859 102.765 53.7238C102.791 53.6644 102.818 53.6374 102.816 53.6393L104.938 55.7607C105.421 55.2769 105.727 54.6395 105.727 53.9H102.727ZM102.816 53.6393C102.853 53.6031 102.909 53.5615 102.982 53.5323C103.054 53.5038 103.108 53.5 103.127 53.5V56.5C103.798 56.5 104.438 56.2604 104.938 55.7607L102.816 53.6393ZM103.127 53.5H96.827V56.5H103.127V53.5ZM96.827 53.5C96.587 53.5 96.4404 53.4753 96.3633 53.454C96.2893 53.4336 96.3144 53.4264 96.3735 53.4789L94.3804 55.7211C95.0867 56.3489 96.019 56.5 96.827 56.5V53.5ZM96.4981 53.6035C96.4159 53.511 96.3693 53.4436 96.3449 53.402C96.3206 53.3607 96.3246 53.3561 96.3322 53.3862L93.4217 54.1138C93.5679 54.6984 93.8971 55.1929 94.2558 55.5965L96.4981 53.6035ZM96.2983 53.2705L94.8983 49.1205L92.0556 50.0795L93.4557 54.2295L96.2983 53.2705ZM93.477 48.1H80.177V51.1H93.477V48.1ZM78.7557 49.1205L77.3557 53.2705L80.1983 54.2295L81.5983 50.0795L78.7557 49.1205ZM77.3217 53.3862C77.3364 53.3277 77.3518 53.3141 77.3301 53.3476C77.3083 53.3814 77.2597 53.4459 77.1663 53.5393L79.2876 55.6607C79.6839 55.2644 80.073 54.7505 80.2322 54.1138L77.3217 53.3862ZM77.1663 53.5393C77.2577 53.4479 77.3217 53.4415 77.2649 53.4577C77.205 53.4748 77.0689 53.5 76.827 53.5V56.5C77.6102 56.5 78.5891 56.3592 79.2876 55.6607L77.1663 53.5393ZM76.827 53.5H70.527V56.5H76.827V53.5ZM70.527 53.5C70.5471 53.5 70.5847 53.504 70.6286 53.5205C70.6721 53.5368 70.6972 53.556 70.7031 53.5611L68.7508 55.8389C69.2487 56.2657 69.8594 56.5 70.527 56.5V53.5ZM70.8658 53.7238C70.8709 53.7297 70.8902 53.7549 70.9064 53.7983C70.9229 53.8423 70.927 53.8798 70.927 53.9H67.927C67.927 54.5675 68.1613 55.1782 68.5881 55.6762L70.8658 53.7238ZM70.927 53.9C70.927 53.9553 70.9217 53.9896 70.9206 53.9964C70.9193 54.0044 70.92 53.9978 70.9263 53.974C70.9396 53.9243 70.9674 53.8377 71.0197 53.7071L68.2342 52.5929C68.0929 52.9462 67.927 53.4255 67.927 53.9H70.927ZM71.0445 53.6405L81.9445 22.1405L79.1094 21.1595L68.2094 52.6595L71.0445 53.6405ZM81.9366 22.1626C81.9879 22.0216 82.1007 21.8187 82.3369 21.559L80.117 19.541C79.6865 20.0146 79.3326 20.5451 79.1173 21.1374L81.9366 22.1626ZM82.2876 21.6107C82.2988 21.5995 82.3892 21.5 82.777 21.5V18.5C81.8314 18.5 80.8885 18.7672 80.1663 19.4893L82.2876 21.6107ZM82.777 21.5H90.877V18.5H82.777V21.5ZM82.777 43.35H90.877V40.35H82.777V43.35ZM92.2982 41.3703L88.2482 29.3703L85.4057 30.3297L89.4557 42.3297L92.2982 41.3703ZM85.4057 29.3703L81.3557 41.3703L84.1982 42.3297L88.2482 30.3297L85.4057 29.3703ZM132.816 20.7L132.426 22.1484L132.816 20.7ZM137.216 22.8L136.295 23.984L136.303 23.9901L136.31 23.9961L137.216 22.8ZM140.016 26.4L138.639 26.9947L138.647 27.0137L138.656 27.0326L140.016 26.4ZM139.466 37.7L140.733 38.502L140.74 38.4904L139.466 37.7ZM135.066 41.45L134.443 40.0853L133.005 40.7413L133.735 42.1431L135.066 41.45ZM141.266 53.35L142.607 52.6792L142.602 52.668L142.596 52.6569L141.266 53.35ZM141.066 54.7L140.005 53.6393L140.005 53.6393L141.066 54.7ZM132.066 54.55L130.945 55.5465L130.974 55.5795L131.005 55.6107L132.066 54.55ZM131.416 53.65L130.084 54.3407L130.094 54.3597L130.104 54.3785L131.416 53.65ZM125.866 42.95L127.197 42.2593L126.777 41.45H125.866V42.95ZM121.266 42.95V41.45H119.766V42.95H121.266ZM120.866 54.6L119.805 53.5393L119.805 53.5393L120.866 54.6ZM121.266 35.15H119.766V36.65H121.266V35.15ZM130.366 34.35L129.621 33.0476L129.611 33.0535L129.601 33.0596L130.366 34.35ZM130.366 28.55L129.601 29.8404L129.611 29.8465L129.621 29.8524L130.366 28.55ZM121.266 27.75V26.25H119.766V27.75H121.266ZM126.916 21.5C129.012 21.5 130.844 21.7227 132.426 22.1484L133.206 19.2516C131.32 18.744 129.219 18.5 126.916 18.5V21.5ZM132.426 22.1484C134 22.5724 135.278 23.1934 136.295 23.984L138.137 21.616C136.753 20.54 135.097 19.7609 133.206 19.2516L132.426 22.1484ZM136.31 23.9961C137.33 24.7678 138.104 25.7577 138.639 26.9947L141.393 25.8053C140.66 24.109 139.568 22.6989 138.121 21.6039L136.31 23.9961ZM138.656 27.0326C139.212 28.2286 139.516 29.6875 139.516 31.45H142.516C142.516 29.3458 142.153 27.438 141.376 25.7674L138.656 27.0326ZM139.516 31.45C139.516 33.7466 139.042 35.5374 138.191 36.9096L140.74 38.4904C141.956 36.5293 142.516 34.1534 142.516 31.45H139.516ZM138.198 36.898C137.333 38.2652 136.1 39.3294 134.443 40.0853L135.688 42.8147C137.831 41.8373 139.532 40.4015 140.733 38.502L138.198 36.898ZM133.735 42.1431L139.935 54.0431L142.596 52.6569L136.396 40.7569L133.735 42.1431ZM139.924 54.0208C139.937 54.0475 139.936 54.0508 139.931 54.0322C139.926 54.0129 139.916 53.9671 139.916 53.9H142.916C142.916 53.4349 142.777 53.0196 142.607 52.6792L139.924 54.0208ZM139.916 53.9C139.916 53.8496 139.927 53.7859 139.954 53.7238C139.98 53.6644 140.007 53.6374 140.005 53.6393L142.126 55.7607C142.61 55.2769 142.916 54.6395 142.916 53.9H139.916ZM140.005 53.6393C140.041 53.6031 140.098 53.5615 140.171 53.5323C140.242 53.5038 140.297 53.5 140.316 53.5V56.5C140.987 56.5 141.627 56.2604 142.126 55.7607L140.005 53.6393ZM140.316 53.5H133.516V56.5H140.316V53.5ZM133.516 53.5C133.288 53.5 133.158 53.4736 133.098 53.4549C133.044 53.4382 133.074 53.437 133.126 53.4893L131.005 55.6107C131.711 56.3167 132.672 56.5 133.516 56.5V53.5ZM133.187 53.5535C132.981 53.3221 132.832 53.1109 132.727 52.9215L130.104 54.3785C130.333 54.7891 130.617 55.1779 130.945 55.5465L133.187 53.5535ZM132.747 52.9593L127.197 42.2593L124.534 43.6407L130.084 54.3407L132.747 52.9593ZM125.866 41.45H121.266V44.45H125.866V41.45ZM119.766 42.95V53.65H122.766V42.95H119.766ZM119.766 53.65C119.766 53.6503 119.766 53.6425 119.768 53.6284C119.771 53.614 119.776 53.5974 119.783 53.5804C119.799 53.5432 119.815 53.5298 119.805 53.5393L121.926 55.6607C122.465 55.1217 122.766 54.427 122.766 53.65H119.766ZM119.805 53.5393C119.795 53.5489 119.809 53.5332 119.846 53.5175C119.863 53.5104 119.88 53.5056 119.894 53.5028C119.908 53.5 119.916 53.5 119.916 53.5V56.5C120.693 56.5 121.387 56.1997 121.926 55.6607L119.805 53.5393ZM119.916 53.5H113.366V56.5H119.916V53.5ZM113.366 53.5C113.365 53.5 113.373 53.5 113.387 53.5028C113.402 53.5056 113.418 53.5104 113.435 53.5175C113.472 53.5332 113.486 53.5489 113.476 53.5393L111.355 55.6607C111.894 56.1997 112.589 56.5 113.366 56.5V53.5ZM113.476 53.5393C113.467 53.5298 113.482 53.5432 113.498 53.5804C113.505 53.5974 113.51 53.614 113.513 53.6284C113.516 53.6425 113.516 53.6503 113.516 53.65H110.516C110.516 54.427 110.816 55.1217 111.355 55.6607L113.476 53.5393ZM113.516 53.65V21.35H110.516V53.65H113.516ZM113.516 21.35C113.516 21.3496 113.516 21.3575 113.513 21.3716C113.51 21.386 113.505 21.4026 113.498 21.4196C113.482 21.4568 113.467 21.4702 113.476 21.4607L111.355 19.3393C110.816 19.8783 110.516 20.573 110.516 21.35H113.516ZM113.476 21.4607C113.486 21.4511 113.472 21.4668 113.435 21.4825C113.418 21.4896 113.402 21.4944 113.387 21.4972C113.373 21.5 113.365 21.5 113.366 21.5V18.5C112.589 18.5 111.894 18.8003 111.355 19.3393L113.476 21.4607ZM113.366 21.5H126.916V18.5H113.366V21.5ZM121.266 36.65H126.916V33.65H121.266V36.65ZM126.916 36.65C128.497 36.65 129.933 36.3498 131.13 35.6404L129.601 33.0596C128.998 33.4169 128.135 33.65 126.916 33.65V36.65ZM131.11 35.6524C132.653 34.7705 133.266 33.201 133.266 31.45H130.266C130.266 32.499 129.945 32.8628 129.621 33.0476L131.11 35.6524ZM133.266 31.45C133.266 29.699 132.653 28.1295 131.11 27.2476L129.621 29.8524C129.945 30.0372 130.266 30.401 130.266 31.45H133.266ZM131.13 27.2596C129.933 26.5502 128.497 26.25 126.916 26.25V29.25C128.135 29.25 128.998 29.4831 129.601 29.8404L131.13 27.2596ZM126.916 26.25H121.266V29.25H126.916V26.25ZM119.766 27.75V35.15H122.766V27.75H119.766ZM176.888 20.4L177.949 19.3393V19.3393L176.888 20.4ZM176.888 27.6L177.949 28.6607V28.6607L176.888 27.6ZM167.138 28V26.5H165.638V28H167.138ZM166.738 54.6L165.678 53.5393V53.5393L166.738 54.6ZM157.888 28H159.388V26.5H157.888V28ZM148.138 27.6L147.078 28.6607L148.138 27.6ZM148.138 20.4L147.078 19.3393L148.138 20.4ZM175.938 21.5C175.939 21.5 175.931 21.5 175.917 21.4972C175.902 21.4944 175.886 21.4896 175.869 21.4825C175.831 21.4668 175.818 21.4511 175.828 21.4607L177.949 19.3393C177.41 18.8003 176.715 18.5 175.938 18.5V21.5ZM175.828 21.4607C175.837 21.4702 175.822 21.4568 175.806 21.4196C175.799 21.4026 175.794 21.386 175.791 21.3716C175.788 21.3575 175.788 21.3496 175.788 21.35H178.788C178.788 20.573 178.488 19.8783 177.949 19.3393L175.828 21.4607ZM175.788 21.35V26.65H178.788V21.35H175.788ZM175.788 26.65C175.788 26.6503 175.788 26.6425 175.791 26.6284C175.794 26.614 175.799 26.5974 175.806 26.5804C175.822 26.5432 175.837 26.5298 175.828 26.5393L177.949 28.6607C178.488 28.1217 178.788 27.427 178.788 26.65H175.788ZM175.828 26.5393C175.818 26.5489 175.831 26.5332 175.869 26.5175C175.886 26.5104 175.902 26.5056 175.917 26.5028C175.931 26.5 175.939 26.5 175.938 26.5V29.5C176.715 29.5 177.41 29.1997 177.949 28.6607L175.828 26.5393ZM175.938 26.5H167.138V29.5H175.938V26.5ZM165.638 28V53.65H168.638V28H165.638ZM165.638 53.65C165.638 53.6503 165.638 53.6425 165.641 53.6284C165.644 53.614 165.649 53.5974 165.656 53.5804C165.672 53.5432 165.687 53.5298 165.678 53.5393L167.799 55.6607C168.338 55.1217 168.638 54.427 168.638 53.65H165.638ZM165.678 53.5393C165.668 53.5489 165.681 53.5332 165.719 53.5175C165.736 53.5104 165.752 53.5056 165.767 53.5028C165.781 53.5 165.789 53.5 165.788 53.5V56.5C166.565 56.5 167.26 56.1997 167.799 55.6607L165.678 53.5393ZM165.788 53.5H159.238V56.5H165.788V53.5ZM159.238 53.5C159.238 53.5 159.246 53.5 159.26 53.5028C159.274 53.5056 159.291 53.5104 159.308 53.5175C159.345 53.5332 159.359 53.5489 159.349 53.5393L157.228 55.6607C157.767 56.1997 158.461 56.5 159.238 56.5V53.5ZM159.349 53.5393C159.339 53.5298 159.355 53.5432 159.371 53.5804C159.378 53.5974 159.383 53.614 159.386 53.6284C159.388 53.6425 159.388 53.6503 159.388 53.65H156.388C156.388 54.427 156.689 55.1217 157.228 55.6607L159.349 53.5393ZM159.388 53.65V28H156.388V53.65H159.388ZM157.888 26.5H149.088V29.5H157.888V26.5ZM149.088 26.5C149.088 26.5 149.096 26.5 149.11 26.5028C149.124 26.5056 149.141 26.5104 149.158 26.5175C149.195 26.5332 149.209 26.5489 149.199 26.5393L147.078 28.6607C147.617 29.1997 148.311 29.5 149.088 29.5V26.5ZM149.199 26.5393C149.189 26.5298 149.205 26.5432 149.221 26.5804C149.228 26.5974 149.233 26.614 149.236 26.6284C149.238 26.6425 149.238 26.6503 149.238 26.65H146.238C146.238 27.427 146.539 28.1217 147.078 28.6607L149.199 26.5393ZM149.238 26.65V21.35H146.238V26.65H149.238ZM149.238 21.35C149.238 21.3496 149.238 21.3575 149.236 21.3716C149.233 21.386 149.228 21.4026 149.221 21.4196C149.205 21.4568 149.189 21.4702 149.199 21.4607L147.078 19.3393C146.539 19.8783 146.238 20.573 146.238 21.35H149.238ZM149.199 21.4607C149.209 21.4511 149.195 21.4668 149.158 21.4825C149.141 21.4896 149.124 21.4944 149.11 21.4972C149.096 21.5 149.088 21.5 149.088 21.5V18.5C148.311 18.5 147.617 18.8003 147.078 19.3393L149.199 21.4607ZM149.088 21.5H175.938V18.5H149.088V21.5Z" fill="black"/>
<path d="M190.15 26.45H200.9L211.05 37.5L200.9 48.55H190.15L200.35 37.5L190.15 26.45Z" fill="white"/>
<path d="M190.15 26.45V24.95H186.724L189.048 27.4674L190.15 26.45ZM200.9 26.45L202.005 25.4353L201.559 24.95H200.9V26.45ZM211.05 37.5L212.155 38.5147L213.087 37.5L212.155 36.4853L211.05 37.5ZM200.9 48.55V50.05H201.559L202.005 49.5647L200.9 48.55ZM190.15 48.55L189.048 47.5326L186.724 50.05H190.15V48.55ZM200.35 37.5L201.452 38.5174L202.391 37.5L201.452 36.4826L200.35 37.5ZM190.15 27.95H200.9V24.95H190.15V27.95ZM199.795 27.4647L209.945 38.5147L212.155 36.4853L202.005 25.4353L199.795 27.4647ZM209.945 36.4853L199.795 47.5353L202.005 49.5647L212.155 38.5147L209.945 36.4853ZM200.9 47.05H190.15V50.05H200.9V47.05ZM191.252 49.5674L201.452 38.5174L199.248 36.4826L189.048 47.5326L191.252 49.5674ZM201.452 36.4826L191.252 25.4326L189.048 27.4674L199.248 38.5174L201.452 36.4826Z" fill="black"/>
<path d="M218.15 26.45H228.9L239.05 37.5L228.9 48.55H218.15L228.35 37.5L218.15 26.45Z" fill="white"/>
<path d="M218.15 26.45V24.95H214.724L217.048 27.4674L218.15 26.45ZM228.9 26.45L230.005 25.4353L229.559 24.95H228.9V26.45ZM239.05 37.5L240.155 38.5147L241.087 37.5L240.155 36.4853L239.05 37.5ZM228.9 48.55V50.05H229.559L230.005 49.5647L228.9 48.55ZM218.15 48.55L217.048 47.5326L214.724 50.05H218.15V48.55ZM228.35 37.5L229.452 38.5174L230.391 37.5L229.452 36.4826L228.35 37.5ZM218.15 27.95H228.9V24.95H218.15V27.95ZM227.795 27.4647L237.945 38.5147L240.155 36.4853L230.005 25.4353L227.795 27.4647ZM237.945 36.4853L227.795 47.5353L230.005 49.5647L240.155 38.5147L237.945 36.4853ZM228.9 47.05H218.15V50.05H228.9V47.05ZM219.252 49.5674L229.452 38.5174L227.248 36.4826L217.048 47.5326L219.252 49.5674ZM229.452 36.4826L219.252 25.4326L217.048 27.4674L227.248 38.5174L229.452 36.4826Z" fill="black"/>
</svg>
