<svg width="623" height="744" viewBox="0 0 623 744" fill="none" xmlns="http://www.w3.org/2000/svg">
<g filter="url(#filter0_d_1_135)">
<rect x="15.5" y="13.5" width="580" height="700.763" rx="8.5" fill="url(#paint0_linear_1_135)" stroke="#FF7326" stroke-width="3"/>
<path d="M62.3555 51.8H548.645C553.339 51.8 557.145 55.6056 557.145 60.3V667.463C557.145 672.157 553.339 675.963 548.645 675.963H310.632H62.3555C57.6611 675.963 53.8555 672.157 53.8555 667.463V60.3001C53.8555 55.6056 57.661 51.8 62.3555 51.8Z" fill="url(#paint1_linear_1_135)" stroke="#FF7326" stroke-width="3"/>
<mask id="mask0_1_135" style="mask-type:alpha" maskUnits="userSpaceOnUse" x="52" y="50" width="507" height="628">
<path d="M52 62C52 55.3726 57.3726 50 64 50H546.289C552.917 50 558.289 55.3726 558.289 62V665.163C558.289 671.79 552.917 677.163 546.289 677.163H310.276H64C57.3726 677.163 52 671.79 52 665.163V62Z" fill="#34BE9D"/>
</mask>
<g mask="url(#mask0_1_135)">
<mask id="mask1_1_135" style="mask-type:alpha" maskUnits="userSpaceOnUse" x="51" y="49" width="508" height="703">
<path d="M535.461 49.7H74.8284C62.0243 49.7 51.6445 58.0774 51.6445 68.4116V732.988C51.6445 743.322 62.0243 751.7 74.8284 751.7H535.461C548.265 751.7 558.645 743.322 558.645 732.988V68.4116C558.645 58.0774 548.265 49.7 535.461 49.7Z" fill="#F48244"/>
</mask>
<g mask="url(#mask1_1_135)">
<g opacity="0.25">
<path opacity="0.3" d="M735.002 550.36L305.173 370.092L735.002 588.545V550.36Z" fill="white"/>
<path opacity="0.3" d="M305.161 370.092L356.62 1055.37H415.9L305.161 370.092Z" fill="white"/>
<path opacity="0.3" d="M471.034 1055.37H522.694L305.173 370.103L471.034 1055.37Z" fill="white"/>
<path opacity="0.3" d="M305.161 370.092L259.85 1055.37H305.161V370.092Z" fill="white"/>
<path opacity="0.3" d="M144.684 1055.37H192.67L305.162 370.103L144.684 1055.37Z" fill="white"/>
<path opacity="0.3" d="M305.173 370.092L735.002 767.367V721.44L305.173 370.092Z" fill="white"/>
<path opacity="0.3" d="M586.369 1055.37H648.908L305.173 370.103L586.369 1055.37Z" fill="white"/>
<path opacity="0.3" d="M735.002 899.306V824.848L305.173 370.103L735.002 899.306Z" fill="white"/>
<path opacity="0.3" d="M305.173 370.092L729.518 1055.37H735.002V978.054L305.173 370.104V370.092Z" fill="white"/>
<path opacity="0.3" d="M305.173 370.092L735.002 673.099V632.653L305.173 370.092Z" fill="white"/>
<path opacity="0.3" d="M-124.668 550.605V600.554L305.15 370.092L-124.668 550.605Z" fill="white"/>
<path opacity="0.3" d="M26.0107 1055.37H80.5148L305.161 370.092L26.0107 1055.37Z" fill="white"/>
<path opacity="0.3" d="M305.161 370.092L-124.668 875.112V945.221L305.161 370.092Z" fill="white"/>
<path opacity="0.3" d="M305.172 370.092L-124.668 1055.37H-36.304L305.172 370.092Z" fill="white"/>
<path opacity="0.3" d="M305.161 370.092L-124.668 648.451V691.988L305.15 370.092H305.161Z" fill="white"/>
<path opacity="0.3" d="M-124.668 756.85V809.551L305.139 370.103L-124.668 756.85Z" fill="white"/>
<path opacity="0.3" d="M305.161 370.197L253.702 45.4558H194.422L305.161 370.197Z" fill="white"/>
<path opacity="0.3" d="M139.302 45.4558H87.6406L305.162 370.197L139.302 45.4558Z" fill="white"/>
<path opacity="0.3" d="M305.161 370.197L350.472 45.4558H305.161V370.197Z" fill="white"/>
<path opacity="0.3" d="M465.651 45.4558H417.653L305.173 370.185L465.651 45.4558Z" fill="white"/>
<path opacity="0.3" d="M305.161 370.197L-124.668 333.469V393.702L305.161 370.197Z" fill="white"/>
<path opacity="0.3" d="M23.9655 45.4558H-38.585L305.161 370.197L23.9655 45.4558Z" fill="white"/>
<path opacity="0.3" d="M-124.668 201.519V275.976L305.15 370.185L-124.668 201.519Z" fill="white"/>
<path opacity="0.3" d="M305.161 370.197L-119.184 45.4561H-124.668V122.782L305.15 370.197H305.161Z" fill="white"/>
<path opacity="0.3" d="M305.161 370.197L-124.668 454.682V506.601L305.161 370.197Z" fill="white"/>
<path opacity="0.3" d="M584.312 45.4558H529.808L305.173 370.197L584.312 45.4558Z" fill="white"/>
<path opacity="0.3" d="M305.173 370.197L735.002 225.712V155.615L305.173 370.197Z" fill="white"/>
<path opacity="0.3" d="M305.173 370.092L735.002 45.3511H646.638L305.173 370.092Z" fill="white"/>
<path opacity="0.3" d="M305.173 370.197L735.002 490.803V435.793L305.173 370.197Z" fill="white"/>
<path opacity="0.3" d="M735.002 358.281V291.273L305.185 370.185L735.002 358.281Z" fill="white"/>
</g>
</g>
</g>
<g filter="url(#filter1_f_1_135)">
<line x1="29" y1="26" x2="29" y2="701" stroke="white" stroke-width="2"/>
</g>
<g filter="url(#filter2_f_1_135)">
<path d="M583 26L583 701" stroke="white" stroke-width="2"/>
</g>
<g filter="url(#filter3_f_1_135)">
<line x1="28" y1="25" x2="584" y2="25" stroke="white" stroke-width="2"/>
</g>
<g filter="url(#filter4_f_1_135)">
<line x1="28" y1="700" x2="584" y2="700" stroke="white" stroke-width="2"/>
</g>
<path d="M123.257 114V81.572H151.549V90.24H135.797V94.288H149.701V101.284H135.797V105.332H151.549V114H123.257ZM168.502 114L160.714 92.176V81.572H172.858L175.762 105.816H177.61L180.558 81.572H192.658V92.176L184.914 114H168.502ZM202.018 114V81.572H230.31V90.24H214.558V94.288H228.462V101.284H214.558V105.332H230.31V114H202.018ZM239.96 114V81.572H251.312L258.396 97.412V81.572H269.66V114H258.396L251.268 97.456L251.224 114H239.96ZM286.705 114V90.24H278.125V81.572H307.825V90.24H299.245V114H286.705ZM337.516 114L332.632 109.82V85.752L337.516 81.572H358.9L363.784 85.752V95.168H350.936V88.304H345.172V107.268H351.024V100.272H363.916V109.82L359.032 114H337.516ZM371.619 114L378.791 81.572H400.483L407.611 114H394.499L393.751 109.204H385.479L384.731 114H371.619ZM386.755 101.24H392.475L390.539 89.008H388.691L386.755 101.24ZM415.788 114V81.572H441.836L446.72 85.752V99.832L443.904 102.208L448.172 114H435.852L432.552 103.968H428.328V114H415.788ZM428.328 97.236H434.664V88.304H428.328V97.236ZM456.35 114V81.572H480.902L488.206 88.216V107.4L480.902 114H456.35ZM468.89 107.268H475.666V88.304H468.89V107.268Z" fill="white"/>
<path d="M123.257 114H122.057V115.2H123.257V114ZM123.257 81.572V80.372H122.057V81.572H123.257ZM151.549 81.572H152.749V80.372H151.549V81.572ZM151.549 90.24V91.44H152.749V90.24H151.549ZM135.797 90.24V89.04H134.597V90.24H135.797ZM135.797 94.288H134.597V95.488H135.797V94.288ZM149.701 94.288H150.901V93.088H149.701V94.288ZM149.701 101.284V102.484H150.901V101.284H149.701ZM135.797 101.284V100.084H134.597V101.284H135.797ZM135.797 105.332H134.597V106.532H135.797V105.332ZM151.549 105.332H152.749V104.132H151.549V105.332ZM151.549 114V115.2H152.749V114H151.549ZM124.457 114V81.572H122.057V114H124.457ZM123.257 82.772H151.549V80.372H123.257V82.772ZM150.349 81.572V90.24H152.749V81.572H150.349ZM151.549 89.04H135.797V91.44H151.549V89.04ZM134.597 90.24V94.288H136.997V90.24H134.597ZM135.797 95.488H149.701V93.088H135.797V95.488ZM148.501 94.288V101.284H150.901V94.288H148.501ZM149.701 100.084H135.797V102.484H149.701V100.084ZM134.597 101.284V105.332H136.997V101.284H134.597ZM135.797 106.532H151.549V104.132H135.797V106.532ZM150.349 105.332V114H152.749V105.332H150.349ZM151.549 112.8H123.257V115.2H151.549V112.8ZM168.502 114L167.372 114.403L167.656 115.2H168.502V114ZM160.714 92.176H159.514V92.3837L159.584 92.5793L160.714 92.176ZM160.714 81.572V80.372H159.514V81.572H160.714ZM172.858 81.572L174.05 81.4293L173.923 80.372H172.858V81.572ZM175.762 105.816L174.571 105.959L174.697 107.016H175.762V105.816ZM177.61 105.816V107.016H178.673L178.801 105.961L177.61 105.816ZM180.558 81.572V80.372H179.495L179.367 81.4271L180.558 81.572ZM192.658 81.572H193.858V80.372H192.658V81.572ZM192.658 92.176L193.789 92.5773L193.858 92.3826V92.176H192.658ZM184.914 114V115.2H185.762L186.045 114.401L184.914 114ZM169.632 113.597L161.844 91.7727L159.584 92.5793L167.372 114.403L169.632 113.597ZM161.914 92.176V81.572H159.514V92.176H161.914ZM160.714 82.772H172.858V80.372H160.714V82.772ZM171.667 81.7147L174.571 105.959L176.954 105.673L174.05 81.4293L171.667 81.7147ZM175.762 107.016H177.61V104.616H175.762V107.016ZM178.801 105.961L181.749 81.7168L179.367 81.4271L176.419 105.671L178.801 105.961ZM180.558 82.772H192.658V80.372H180.558V82.772ZM191.458 81.572V92.176H193.858V81.572H191.458ZM191.527 91.7747L183.783 113.599L186.045 114.401L193.789 92.5773L191.527 91.7747ZM184.914 112.8H168.502V115.2H184.914V112.8ZM202.018 114H200.818V115.2H202.018V114ZM202.018 81.572V80.372H200.818V81.572H202.018ZM230.31 81.572H231.51V80.372H230.31V81.572ZM230.31 90.24V91.44H231.51V90.24H230.31ZM214.558 90.24V89.04H213.358V90.24H214.558ZM214.558 94.288H213.358V95.488H214.558V94.288ZM228.462 94.288H229.662V93.088H228.462V94.288ZM228.462 101.284V102.484H229.662V101.284H228.462ZM214.558 101.284V100.084H213.358V101.284H214.558ZM214.558 105.332H213.358V106.532H214.558V105.332ZM230.31 105.332H231.51V104.132H230.31V105.332ZM230.31 114V115.2H231.51V114H230.31ZM203.218 114V81.572H200.818V114H203.218ZM202.018 82.772H230.31V80.372H202.018V82.772ZM229.11 81.572V90.24H231.51V81.572H229.11ZM230.31 89.04H214.558V91.44H230.31V89.04ZM213.358 90.24V94.288H215.758V90.24H213.358ZM214.558 95.488H228.462V93.088H214.558V95.488ZM227.262 94.288V101.284H229.662V94.288H227.262ZM228.462 100.084H214.558V102.484H228.462V100.084ZM213.358 101.284V105.332H215.758V101.284H213.358ZM214.558 106.532H230.31V104.132H214.558V106.532ZM229.11 105.332V114H231.51V105.332H229.11ZM230.31 112.8H202.018V115.2H230.31V112.8ZM239.96 114H238.76V115.2H239.96V114ZM239.96 81.572V80.372H238.76V81.572H239.96ZM251.312 81.572L252.407 81.0821L252.09 80.372H251.312V81.572ZM258.396 97.412L257.3 97.9019L259.596 97.412H258.396ZM258.396 81.572V80.372H257.196V81.572H258.396ZM269.66 81.572H270.86V80.372H269.66V81.572ZM269.66 114V115.2H270.86V114H269.66ZM258.396 114L257.294 114.475L257.606 115.2H258.396V114ZM251.268 97.456L252.37 96.9812L250.068 97.4528L251.268 97.456ZM251.224 114V115.2H252.421L252.424 114.003L251.224 114ZM241.16 114V81.572H238.76V114H241.16ZM239.96 82.772H251.312V80.372H239.96V82.772ZM250.216 82.0619L257.3 97.9019L259.491 96.9221L252.407 81.0821L250.216 82.0619ZM259.596 97.412V81.572H257.196V97.412H259.596ZM258.396 82.772H269.66V80.372H258.396V82.772ZM268.46 81.572V114H270.86V81.572H268.46ZM269.66 112.8H258.396V115.2H269.66V112.8ZM259.498 113.525L252.37 96.9812L250.166 97.9308L257.294 114.475L259.498 113.525ZM250.068 97.4528L250.024 113.997L252.424 114.003L252.468 97.4592L250.068 97.4528ZM251.224 112.8H239.96V115.2H251.224V112.8ZM286.705 114H285.505V115.2H286.705V114ZM286.705 90.24H287.905V89.04H286.705V90.24ZM278.125 90.24H276.925V91.44H278.125V90.24ZM278.125 81.572V80.372H276.925V81.572H278.125ZM307.825 81.572H309.025V80.372H307.825V81.572ZM307.825 90.24V91.44H309.025V90.24H307.825ZM299.245 90.24V89.04H298.045V90.24H299.245ZM299.245 114V115.2H300.445V114H299.245ZM287.905 114V90.24H285.505V114H287.905ZM286.705 89.04H278.125V91.44H286.705V89.04ZM279.325 90.24V81.572H276.925V90.24H279.325ZM278.125 82.772H307.825V80.372H278.125V82.772ZM306.625 81.572V90.24H309.025V81.572H306.625ZM307.825 89.04H299.245V91.44H307.825V89.04ZM298.045 90.24V114H300.445V90.24H298.045ZM299.245 112.8H286.705V115.2H299.245V112.8ZM337.516 114L336.736 114.912L337.073 115.2H337.516V114ZM332.632 109.82H331.432V110.372L331.852 110.732L332.632 109.82ZM332.632 85.752L331.852 84.8403L331.432 85.1995V85.752H332.632ZM337.516 81.572V80.372H337.073L336.736 80.6603L337.516 81.572ZM358.9 81.572L359.68 80.6603L359.343 80.372H358.9V81.572ZM363.784 85.752H364.984V85.1995L364.564 84.8403L363.784 85.752ZM363.784 95.168V96.368H364.984V95.168H363.784ZM350.936 95.168H349.736V96.368H350.936V95.168ZM350.936 88.304H352.136V87.104H350.936V88.304ZM345.172 88.304V87.104H343.972V88.304H345.172ZM345.172 107.268H343.972V108.468H345.172V107.268ZM351.024 107.268V108.468H352.224V107.268H351.024ZM351.024 100.272V99.072H349.824V100.272H351.024ZM363.916 100.272H365.116V99.072H363.916V100.272ZM363.916 109.82L364.696 110.732L365.116 110.372V109.82H363.916ZM359.032 114V115.2H359.475L359.812 114.912L359.032 114ZM338.296 113.088L333.412 108.908L331.852 110.732L336.736 114.912L338.296 113.088ZM333.832 109.82V85.752H331.432V109.82H333.832ZM333.412 86.6637L338.296 82.4837L336.736 80.6603L331.852 84.8403L333.412 86.6637ZM337.516 82.772H358.9V80.372H337.516V82.772ZM358.12 82.4837L363.004 86.6637L364.564 84.8403L359.68 80.6603L358.12 82.4837ZM362.584 85.752V95.168H364.984V85.752H362.584ZM363.784 93.968H350.936V96.368H363.784V93.968ZM352.136 95.168V88.304H349.736V95.168H352.136ZM350.936 87.104H345.172V89.504H350.936V87.104ZM343.972 88.304V107.268H346.372V88.304H343.972ZM345.172 108.468H351.024V106.068H345.172V108.468ZM352.224 107.268V100.272H349.824V107.268H352.224ZM351.024 101.472H363.916V99.072H351.024V101.472ZM362.716 100.272V109.82H365.116V100.272H362.716ZM363.136 108.908L358.252 113.088L359.812 114.912L364.696 110.732L363.136 108.908ZM359.032 112.8H337.516V115.2H359.032V112.8ZM371.619 114L370.447 113.741L370.124 115.2H371.619V114ZM378.791 81.572V80.372H377.827L377.619 81.3129L378.791 81.572ZM400.483 81.572L401.655 81.3144L401.448 80.372H400.483V81.572ZM407.611 114V115.2H409.103L408.783 113.742L407.611 114ZM394.499 114L393.313 114.185L393.471 115.2H394.499V114ZM393.751 109.204L394.936 109.019L394.778 108.004H393.751V109.204ZM385.479 109.204V108.004H384.451L384.293 109.019L385.479 109.204ZM384.731 114V115.2H385.758L385.916 114.185L384.731 114ZM386.755 101.24L385.57 101.052L385.35 102.44H386.755V101.24ZM392.475 101.24V102.44H393.88L393.66 101.052L392.475 101.24ZM390.539 89.008L391.724 88.8204L391.564 87.808H390.539V89.008ZM388.691 89.008V87.808H387.666L387.506 88.8204L388.691 89.008ZM372.79 114.259L379.962 81.8311L377.619 81.3129L370.447 113.741L372.79 114.259ZM378.791 82.772H400.483V80.372H378.791V82.772ZM399.311 81.8296L406.439 114.258L408.783 113.742L401.655 81.3144L399.311 81.8296ZM407.611 112.8H394.499V115.2H407.611V112.8ZM395.684 113.815L394.936 109.019L392.565 109.389L393.313 114.185L395.684 113.815ZM393.751 108.004H385.479V110.404H393.751V108.004ZM384.293 109.019L383.545 113.815L385.916 114.185L386.664 109.389L384.293 109.019ZM384.731 112.8H371.619V115.2H384.731V112.8ZM386.755 102.44H392.475V100.04H386.755V102.44ZM393.66 101.052L391.724 88.8204L389.354 89.1956L391.29 101.428L393.66 101.052ZM390.539 87.808H388.691V90.208H390.539V87.808ZM387.506 88.8204L385.57 101.052L387.94 101.428L389.876 89.1956L387.506 88.8204ZM415.788 114H414.588V115.2H415.788V114ZM415.788 81.572V80.372H414.588V81.572H415.788ZM441.836 81.572L442.616 80.6603L442.279 80.372H441.836V81.572ZM446.72 85.752H447.92V85.1995L447.5 84.8403L446.72 85.752ZM446.72 99.832L447.494 100.749L447.92 100.39V99.832H446.72ZM443.904 102.208L443.13 101.291L442.491 101.83L442.776 102.616L443.904 102.208ZM448.172 114V115.2H449.882L449.3 113.592L448.172 114ZM435.852 114L434.712 114.375L434.983 115.2H435.852V114ZM432.552 103.968L433.692 103.593L433.42 102.768H432.552V103.968ZM428.328 103.968V102.768H427.128V103.968H428.328ZM428.328 114V115.2H429.528V114H428.328ZM428.328 97.236H427.128V98.436H428.328V97.236ZM434.664 97.236V98.436H435.864V97.236H434.664ZM434.664 88.304H435.864V87.104H434.664V88.304ZM428.328 88.304V87.104H427.128V88.304H428.328ZM416.988 114V81.572H414.588V114H416.988ZM415.788 82.772H441.836V80.372H415.788V82.772ZM441.056 82.4837L445.94 86.6637L447.5 84.8403L442.616 80.6603L441.056 82.4837ZM445.52 85.752V99.832H447.92V85.752H445.52ZM445.946 98.9148L443.13 101.291L444.678 103.125L447.494 100.749L445.946 98.9148ZM442.776 102.616L447.044 114.408L449.3 113.592L445.032 101.8L442.776 102.616ZM448.172 112.8H435.852V115.2H448.172V112.8ZM436.992 113.625L433.692 103.593L431.412 104.343L434.712 114.375L436.992 113.625ZM432.552 102.768H428.328V105.168H432.552V102.768ZM427.128 103.968V114H429.528V103.968H427.128ZM428.328 112.8H415.788V115.2H428.328V112.8ZM428.328 98.436H434.664V96.036H428.328V98.436ZM435.864 97.236V88.304H433.464V97.236H435.864ZM434.664 87.104H428.328V89.504H434.664V87.104ZM427.128 88.304V97.236H429.528V88.304H427.128ZM456.35 114H455.15V115.2H456.35V114ZM456.35 81.572V80.372H455.15V81.572H456.35ZM480.902 81.572L481.71 80.6843L481.367 80.372H480.902V81.572ZM488.206 88.216H489.406V87.6854L489.014 87.3283L488.206 88.216ZM488.206 107.4L489.011 108.29L489.406 107.933V107.4H488.206ZM480.902 114V115.2H481.364L481.707 114.89L480.902 114ZM468.89 107.268H467.69V108.468H468.89V107.268ZM475.666 107.268V108.468H476.866V107.268H475.666ZM475.666 88.304H476.866V87.104H475.666V88.304ZM468.89 88.304V87.104H467.69V88.304H468.89ZM457.55 114V81.572H455.15V114H457.55ZM456.35 82.772H480.902V80.372H456.35V82.772ZM480.095 82.4597L487.399 89.1037L489.014 87.3283L481.71 80.6843L480.095 82.4597ZM487.006 88.216V107.4H489.406V88.216H487.006ZM487.402 106.51L480.098 113.11L481.707 114.89L489.011 108.29L487.402 106.51ZM480.902 112.8H456.35V115.2H480.902V112.8ZM468.89 108.468H475.666V106.068H468.89V108.468ZM476.866 107.268V88.304H474.466V107.268H476.866ZM475.666 87.104H468.89V89.504H475.666V87.104ZM467.69 88.304V107.268H470.09V88.304H467.69Z" fill="black"/>
<path d="M93.5443 239V225.41H88.9318V222.417H101.689V225.41H97.0543V239H93.5443ZM106.852 239V236.03H115.289L116.167 235.13V232.812L115.289 231.912L108.742 231.935L106.244 229.415V224.915L108.742 222.417H118.754V225.387H110.609L109.732 226.288V228.11L110.609 229.01H117.157L119.654 231.507V236.502L117.157 239H106.852ZM134.719 239V236.12H136.474V225.297H134.719V222.417H141.649V225.297H139.894L139.849 236.12H141.649V239H134.719ZM148.224 239V236.03H156.661L157.539 235.13V232.812L156.661 231.912L150.114 231.935L147.616 229.415V224.915L150.114 222.417H160.126V225.387H151.981L151.104 226.288V228.11L151.981 229.01H158.529L161.026 231.507V236.502L158.529 239H148.224ZM178.701 239L176.204 236.502V224.915L178.701 222.417H186.869L189.276 224.802L187.049 226.94L185.316 225.252H180.614L179.714 226.13V235.265L180.614 236.165H185.496L187.206 234.477L189.434 236.615L187.049 239H178.701ZM197.553 239L195.055 236.502V224.915L197.553 222.417H206.463L208.983 224.915V236.502L206.463 239H197.553ZM199.465 236.165H204.573L205.473 235.265V226.13L204.55 225.252H199.465L198.565 226.13V235.265L199.465 236.165ZM215.587 239V222.417H219.704L225.779 233.15V222.417H229.177V239H225.667L219.659 228.357H218.984V239H215.587ZM238.288 239L235.791 236.502V224.915L238.288 222.417H246.456L248.863 224.802L246.636 226.94L244.903 225.252H240.201L239.301 226.13V235.265L240.201 236.165H245.083L246.793 234.477L249.021 236.615L246.636 239H238.288ZM255.093 239V222.417H267.063V225.41H258.603V228.965H266.275V231.845H258.603V236.007H267.063V239H255.093ZM273.593 239V222.417H284.078L286.575 224.915V230.63L284.483 232.7L287.16 239H283.448L281.063 233.127H277.103V239H273.593ZM277.103 230.292H282.233L283.133 229.415L283.11 226.13L282.233 225.252H277.103V230.292ZM293.433 239V222.417H297.55L303.625 233.15V222.417H307.023V239H303.513L297.505 228.357H296.83V239H293.433ZM314.086 239V222.417H326.056V225.41H317.596V228.965H325.269V231.845H317.596V236.007H326.056V239H314.086ZM332.587 239V222.417H342.779L346.244 225.882V235.535L342.779 239H332.587ZM336.097 236.165H341.204L342.802 234.567V226.827L341.204 225.252H336.097V236.165ZM360.299 239L365.429 222.417H370.942L376.072 239H372.359L371.324 235.332H365.047L364.034 239H360.299ZM365.857 232.475H370.514L368.534 225.342H367.859L365.857 232.475ZM381.583 239V222.417H391.888L394.385 224.915V228.852L393.283 230.022L395.083 231.755V236.502L392.585 239H381.583ZM385.093 228.965H390.065L390.965 228.02V226.13L390.065 225.252H385.093V228.965ZM385.093 236.165H390.673L391.573 235.265V232.542L390.673 231.665H385.093V236.165ZM403.449 239L400.951 236.502V224.915L403.449 222.417H412.359L414.879 224.915V236.502L412.359 239H403.449ZM405.361 236.165H410.469L411.369 235.265V226.13L410.446 225.252H405.361L404.461 226.13V235.265L405.361 236.165ZM423.756 239L421.281 236.502V222.417H424.791V235.265L425.691 236.165H430.708L431.608 235.287V222.417H435.118V236.502L432.621 239H423.756ZM445.133 239V225.41H440.521V222.417H453.278V225.41H448.643V239H445.133ZM471.147 239V225.41H466.535V222.417H479.292V225.41H474.657V239H471.147ZM484.915 239V222.417H488.425V228.83H494.883V222.417H498.393V239H494.883V231.71H488.425V239H484.915ZM505.481 239V222.417H517.451V225.41H508.991V228.965H516.663V231.845H508.991V236.007H517.451V239H505.481ZM115.826 268V251.417H119.336V265.007H127.144V268H115.826ZM134.88 268L132.382 265.502V253.915L134.88 251.417H143.79L146.31 253.915V265.502L143.79 268H134.88ZM136.792 265.165H141.9L142.8 264.265V255.13L141.877 254.252H136.792L135.892 255.13V264.265L136.792 265.165ZM154.787 268L151.12 251.417H155.035L157.24 265.075H157.915L160.142 251.417H163.562L165.79 265.075H166.442L168.67 251.417H172.585L168.917 268H163.45L161.852 258.932L160.255 268H154.787ZM187.19 268V251.417H197.405L199.902 253.915V260.035L197.405 262.532H190.7V268H187.19ZM190.7 259.697H195.56L196.46 258.82V255.13L195.56 254.252H190.7V259.697ZM205.69 268V251.417H216.175L218.673 253.915V259.63L216.58 261.7L219.258 268H215.545L213.16 262.127H209.2V268H205.69ZM209.2 259.292H214.33L215.23 258.415L215.208 255.13L214.33 254.252H209.2V259.292ZM227.6 268L225.102 265.502V253.915L227.6 251.417H236.51L239.03 253.915V265.502L236.51 268H227.6ZM229.512 265.165H234.62L235.52 264.265V255.13L234.597 254.252H229.512L228.612 255.13V264.265L229.512 265.165ZM245.657 268V251.417H255.849L259.314 254.882V264.535L255.849 268H245.657ZM249.167 265.165H254.274L255.872 263.567V255.827L254.274 254.252H249.167V265.165ZM268.099 268L265.624 265.502V251.417H269.134V264.265L270.034 265.165H275.051L275.951 264.287V251.417H279.461V265.502L276.964 268H268.099ZM288.374 268L285.876 265.502V253.915L288.374 251.417H296.541L298.949 253.802L296.721 255.94L294.989 254.252H290.286L289.386 255.13V264.265L290.286 265.165H295.169L296.879 263.477L299.106 265.615L296.721 268H288.374ZM308.328 268V254.41H303.715V251.417H316.473V254.41H311.838V268H308.328ZM321.533 268V265.12H323.288V254.297H321.533V251.417H328.463V254.297H326.708L326.663 265.12H328.463V268H321.533ZM338.233 268L333.418 251.417H337.333L340.821 265.075H341.496L344.983 251.417H348.876L344.061 268H338.233ZM353.831 268V265.12H355.586V254.297H353.831V251.417H360.761V254.297H359.006L358.961 265.12H360.761V268H353.831ZM370.441 268V254.41H365.829V251.417H378.586V254.41H373.951V268H370.441ZM388.546 268V262.06L387.713 261.34L382.876 251.417H386.903L389.963 258.865H390.638L393.676 251.417H397.703L392.866 261.34L392.033 262.06V268H388.546ZM412.31 268V251.417H424.078V254.41H415.82V258.325H423.065V261.205H415.82V268H412.31ZM431.825 268L429.328 265.502V253.915L431.825 251.417H440.735L443.255 253.915V265.502L440.735 268H431.825ZM433.738 265.165H438.845L439.745 264.265V255.13L438.823 254.252H433.738L432.838 255.13V264.265L433.738 265.165ZM449.882 268V251.417H460.367L462.864 253.915V259.63L460.772 261.7L463.449 268H459.737L457.352 262.127H453.392V268H449.882ZM453.392 259.292H458.522L459.422 258.415L459.399 255.13L458.522 254.252H453.392V259.292ZM477.265 268L482.395 251.417H487.908L493.038 268H489.325L488.29 264.332H482.013L481 268H477.265ZM482.823 261.475H487.48L485.5 254.342H484.825L482.823 261.475ZM100.809 297V280.417H112.576V283.41H104.319V287.325H111.564V290.205H104.319V297H100.809ZM118.276 297V280.417H130.246V283.41H121.786V286.965H129.459V289.845H121.786V294.007H130.246V297H118.276ZM138.869 297L135.201 280.417H139.116L141.321 294.075H141.996L144.224 280.417H147.644L149.871 294.075H150.524L152.751 280.417H156.666L152.999 297H147.531L145.934 287.932L144.336 297H138.869ZM169.697 297L174.827 280.417H180.339L185.469 297H181.757L180.722 293.332H174.444L173.432 297H169.697ZM175.254 290.475H179.912L177.932 283.342H177.257L175.254 290.475ZM192.786 297L190.289 294.502V282.915L192.786 280.417H200.954L203.361 282.802L201.134 284.94L199.401 283.252H194.699L193.799 284.13V293.265L194.699 294.165H199.581L201.291 292.477L203.519 294.615L201.134 297H192.786ZM212.74 297V283.41H208.128V280.417H220.885V283.41H216.25V297H212.74ZM225.946 297V294.12H227.701V283.297H225.946V280.417H232.876V283.297H231.121L231.076 294.12H232.876V297H225.946ZM242.645 297L237.83 280.417H241.745L245.233 294.075H245.908L249.395 280.417H253.288L248.473 297H242.645ZM258.244 297V294.12H259.999V283.297H258.244V280.417H265.174V283.297H263.419L263.374 294.12H265.174V297H258.244ZM274.853 297V283.41H270.241V280.417H282.998V283.41H278.363V297H274.853ZM288.059 297V294.12H289.814V283.297H288.059V280.417H294.989V283.297H293.234L293.189 294.12H294.989V297H288.059ZM301.519 297V280.417H313.489V283.41H305.029V286.965H312.701V289.845H305.029V294.007H313.489V297H301.519ZM319.69 297V294.03H328.128L329.005 293.13V290.812L328.128 289.912L321.58 289.935L319.083 287.415V282.915L321.58 280.417H331.593V283.387H323.448L322.57 284.288V286.11L323.448 287.01H329.995L332.493 289.507V294.502L329.995 297H319.69ZM350.212 297L346.545 280.417H350.46L352.665 294.075H353.34L355.567 280.417H358.987L361.215 294.075H361.867L364.095 280.417H368.01L364.342 297H358.875L357.277 287.932L355.68 297H350.212ZM373.519 297V280.417H377.029V286.83H383.487V280.417H386.997V297H383.487V289.71H377.029V297H373.519ZM393.522 297V294.12H395.277V283.297H393.522V280.417H400.452V283.297H398.697L398.652 294.12H400.452V297H393.522ZM409.03 297L406.532 294.502V282.915L409.03 280.417H417.197L419.605 282.802L417.377 284.94L415.645 283.252H410.942L410.042 284.13V293.265L410.942 294.165H415.825L417.535 292.477L419.762 294.615L417.377 297H409.03ZM425.834 297V280.417H429.344V286.83H435.801V280.417H439.311V297H435.801V289.71H429.344V297H425.834ZM453.92 297L459.05 280.417H464.562L469.692 297H465.98L464.945 293.332H458.667L457.655 297H453.92ZM459.477 290.475H464.135L462.155 283.342H461.48L459.477 290.475ZM475.204 297V280.417H485.689L488.186 282.915V288.63L486.094 290.7L488.771 297H485.059L482.674 291.127H478.714V297H475.204ZM478.714 288.292H483.844L484.744 287.415L484.721 284.13L483.844 283.252H478.714V288.292ZM495.066 297V280.417H507.036V283.41H498.576V286.965H506.249V289.845H498.576V294.007H507.036V297H495.066ZM94.228 326V309.417H98.3455L104.42 320.15V309.417H107.818V326H104.308L98.3005 315.357H97.6255V326H94.228ZM116.929 326L114.432 323.502V311.915L116.929 309.417H125.839L128.359 311.915V323.502L125.839 326H116.929ZM118.842 323.165H123.949L124.849 322.265V313.13L123.927 312.252H118.842L117.942 313.13V322.265L118.842 323.165ZM134.964 326V309.417H139.081L145.156 320.15V309.417H148.554V326H145.044L139.036 315.357H138.361V326H134.964ZM155.437 320.915V318.305H162.862V320.915H155.437ZM171.814 326L169.317 323.502V311.915L171.814 309.417H179.982L182.389 311.802L180.162 313.94L178.429 312.252H173.727L172.827 313.13V322.265L173.727 323.165H178.609L180.319 321.477L182.547 323.615L180.162 326H171.814ZM190.666 326L188.169 323.502V311.915L190.666 309.417H199.576L202.096 311.915V323.502L199.576 326H190.666ZM192.579 323.165H197.686L198.586 322.265V313.13L197.664 312.252H192.579L191.679 313.13V322.265L192.579 323.165ZM208.723 326V309.417H219.208L221.705 311.915V317.63L219.613 319.7L222.29 326H218.578L216.193 320.127H212.233V326H208.723ZM212.233 317.292H217.363L218.263 316.415L218.24 313.13L217.363 312.252H212.233V317.292ZM228.585 326V309.417H240.555V312.41H232.095V315.965H239.768V318.845H232.095V323.007H240.555V326H228.585ZM259.331 326V312.41H254.719V309.417H267.476V312.41H262.841V326H259.331ZM275.147 326L272.649 323.502V311.915L275.147 309.417H284.057L286.577 311.915V323.502L284.057 326H275.147ZM277.059 323.165H282.167L283.067 322.265V313.13L282.144 312.252H277.059L276.159 313.13V322.265L277.059 323.165ZM301.737 326V323.12H303.492V312.297H301.737V309.417H308.667V312.297H306.912L306.867 323.12H308.667V326H301.737ZM318.346 326V312.41H313.734V309.417H326.491V312.41H321.856V326H318.346ZM331.654 326V323.03H340.091L340.969 322.13V319.812L340.091 318.912L333.544 318.935L331.046 316.415V311.915L333.544 309.417H343.556V312.387H335.411L334.534 313.288V315.11L335.411 316.01H341.959L344.456 318.507V323.502L341.959 326H331.654ZM360.084 326V309.417H370.389L372.886 311.915V315.852L371.784 317.022L373.584 318.755V323.502L371.086 326H360.084ZM363.594 315.965H368.566L369.466 315.02V313.13L368.566 312.252H363.594V315.965ZM363.594 323.165H369.174L370.074 322.265V319.542L369.174 318.665H363.594V323.165ZM382.394 326L379.919 323.502V309.417H383.429V322.265L384.329 323.165H389.346L390.246 322.287V309.417H393.756V323.502L391.259 326H382.394ZM400.666 326V323.03H409.104L409.981 322.13V319.812L409.104 318.912L402.556 318.935L400.059 316.415V311.915L402.556 309.417H412.569V312.387H404.424L403.546 313.288V315.11L404.424 316.01H410.971L413.469 318.507V323.502L410.971 326H400.666ZM419.438 326V323.12H421.193V312.297H419.438V309.417H426.368V312.297H424.613L424.568 323.12H426.368V326H419.438ZM432.875 326V309.417H436.992L443.067 320.15V309.417H446.465V326H442.955L436.947 315.357H436.272V326H432.875ZM453.529 326V309.417H465.499V312.41H457.039V315.965H464.711V318.845H457.039V323.007H465.499V326H453.529ZM471.7 326V323.03H480.138L481.015 322.13V319.812L480.138 318.912L473.59 318.935L471.093 316.415V311.915L473.59 309.417H483.603V312.387H475.458L474.58 313.288V315.11L475.458 316.01H482.005L484.503 318.507V323.502L482.005 326H471.7ZM490.574 326V323.03H499.012L499.889 322.13V319.812L499.012 318.912L492.464 318.935L489.967 316.415V311.915L492.464 309.417H502.477V312.387H494.332L493.454 313.288V315.11L494.332 316.01H500.879L503.377 318.507V323.502L500.879 326H490.574ZM509.728 326V322.827H512.991V326H509.728ZM103.015 355V341.41H98.402V338.417H111.16V341.41H106.525V355H103.015ZM116.322 355V352.03H124.76L125.637 351.13V348.812L124.76 347.912L118.212 347.935L115.715 345.415V340.915L118.212 338.417H128.225V341.387H120.08L119.202 342.288V344.11L120.08 345.01H126.627L129.125 347.507V352.502L126.627 355H116.322ZM144.19 355V352.12H145.945V341.297H144.19V338.417H151.12V341.297H149.365L149.32 352.12H151.12V355H144.19ZM157.694 355V352.03H166.132L167.009 351.13V348.812L166.132 347.912L159.584 347.935L157.087 345.415V340.915L159.584 338.417H169.597V341.387H161.452L160.574 342.288V344.11L161.452 345.01H167.999L170.497 347.507V352.502L167.999 355H157.694ZM186.101 355V338.417H190.219L196.294 349.15V338.417H199.691V355H196.181L190.174 344.357H189.499V355H186.101ZM208.803 355L206.305 352.502V340.915L208.803 338.417H217.713L220.233 340.915V352.502L217.713 355H208.803ZM210.715 352.165H215.823L216.723 351.265V342.13L215.8 341.252H210.715L209.815 342.13V351.265L210.715 352.165ZM228.71 355L225.043 338.417H228.958L231.163 352.075H231.838L234.065 338.417H237.485L239.713 352.075H240.365L242.593 338.417H246.508L242.84 355H237.373L235.775 345.932L234.178 355H228.71ZM260.551 355V352.12H262.306V341.297H260.551V338.417H267.481V341.297H265.726L265.681 352.12H267.481V355H260.551ZM273.988 355V338.417H278.105L284.18 349.15V338.417H287.578V355H284.068L278.06 344.357H277.385V355H273.988ZM302.162 355L307.292 338.417H312.805L317.935 355H314.222L313.187 351.332H306.91L305.897 355H302.162ZM307.72 348.475H312.377L310.397 341.342H309.722L307.72 348.475ZM332.542 355V338.417H342.734L346.199 341.882V351.535L342.734 355H332.542ZM336.052 352.165H341.159L342.757 350.567V342.827L341.159 341.252H336.052V352.165ZM352.171 355V352.12H353.926V341.297H352.171V338.417H359.101V341.297H357.346L357.301 352.12H359.101V355H352.171ZM365.631 355V338.417H369.141V352.007H376.948V355H365.631ZM382.637 355V338.417H394.607V341.41H386.147V344.965H393.819V347.845H386.147V352.007H394.607V355H382.637ZM401.114 355V338.417H404.962L409.484 349.465L414.007 338.417H417.854V355H414.457V344.695L410.384 354.64H408.584L404.512 344.672V355H401.114ZM424.888 355V338.417H428.735L433.258 349.465L437.78 338.417H441.628V355H438.23V344.695L434.158 354.64H432.358L428.285 344.672V355H424.888ZM447.109 355L452.239 338.417H457.751L462.881 355H459.169L458.134 351.332H451.856L450.844 355H447.109ZM452.666 348.475H457.324L455.344 341.342H454.669L452.666 348.475ZM480.638 355V341.41H476.026V338.417H488.783V341.41H484.148V355H480.638ZM496.454 355L493.956 352.502V340.915L496.454 338.417H505.364L507.884 340.915V352.502L505.364 355H496.454ZM498.366 352.165H503.474L504.374 351.265V342.13L503.451 341.252H498.366L497.466 342.13V351.265L498.366 352.165ZM109.773 384V367.417H121.743V370.41H113.283V373.965H120.955V376.845H113.283V381.007H121.743V384H109.773ZM127.71 384V381.12H129.465V370.297H127.71V367.417H134.64V370.297H132.885L132.84 381.12H134.64V384H127.71ZM144.32 384V370.41H139.708V367.417H152.465V370.41H147.83V384H144.32ZM158.088 384V367.417H161.598V373.83H168.056V367.417H171.566V384H168.056V376.71H161.598V384H158.088ZM178.654 384V367.417H190.624V370.41H182.164V373.965H189.836V376.845H182.164V381.007H190.624V384H178.654ZM197.154 384V367.417H207.639L210.136 369.915V375.63L208.044 377.7L210.721 384H207.009L204.624 378.127H200.664V384H197.154ZM200.664 375.292H205.794L206.694 374.415L206.671 371.13L205.794 370.252H200.664V375.292ZM228.159 384L225.662 381.502V369.915L228.159 367.417H237.069L239.589 369.915V381.502L237.069 384H228.159ZM230.072 381.165H235.179L236.079 380.265V371.13L235.157 370.252H230.072L229.172 371.13V380.265L230.072 381.165ZM248.466 384L245.991 381.502V367.417H249.501V380.265L250.401 381.165H255.419L256.319 380.287V367.417H259.829V381.502L257.331 384H248.466ZM269.844 384V370.41H265.231V367.417H277.989V370.41H273.354V384H269.844ZM283.151 384V381.03H291.589L292.466 380.13V377.812L291.589 376.912L285.041 376.935L282.544 374.415V369.915L285.041 367.417H295.054V370.387H286.909L286.031 371.288V373.11L286.909 374.01H293.456L295.954 376.507V381.502L293.456 384H283.151ZM304.533 384L302.035 381.502V369.915L304.533 367.417H313.443L315.963 369.915V381.502L313.443 384H304.533ZM306.445 381.165H311.553L312.453 380.265V371.13L311.53 370.252H306.445L305.545 371.13V380.265L306.445 381.165ZM324.839 384L322.364 381.502V367.417H325.874V380.265L326.774 381.165H331.792L332.692 380.287V367.417H336.202V381.502L333.704 384H324.839ZM343.067 384V367.417H353.552L356.05 369.915V375.63L353.957 377.7L356.635 384H352.922L350.537 378.127H346.577V384H343.067ZM346.577 375.292H351.707L352.607 374.415L352.585 371.13L351.707 370.252H346.577V375.292ZM364.977 384L362.48 381.502V369.915L364.977 367.417H373.145L375.552 369.802L373.325 371.94L371.592 370.252H366.89L365.99 371.13V380.265L366.89 381.165H371.772L373.482 379.477L375.71 381.615L373.325 384H364.977ZM381.781 384V367.417H393.751V370.41H385.291V373.965H392.964V376.845H385.291V381.007H393.751V384H381.781ZM412.527 384V370.41H407.915V367.417H420.672V370.41H416.037V384H412.527ZM426.295 384V367.417H429.805V373.83H436.263V367.417H439.773V384H436.263V376.71H429.805V384H426.295ZM448.908 384L446.411 381.502V369.915L448.908 367.417H457.818L460.338 369.915V381.502L457.818 384H448.908ZM450.821 381.165H455.928L456.828 380.265V371.13L455.906 370.252H450.821L449.921 371.13V380.265L450.821 381.165ZM466.768 384V381.03H475.206L476.083 380.13V377.812L475.206 376.912L468.658 376.935L466.161 374.415V369.915L468.658 367.417H478.671V370.387H470.526L469.648 371.288V373.11L470.526 374.01H477.073L479.571 376.507V381.502L477.073 384H466.768ZM486.102 384V367.417H498.072V370.41H489.612V373.965H497.285V376.845H489.612V381.007H498.072V384H486.102ZM87.8529 413L92.9829 396.417H98.4954L103.625 413H99.9129L98.8779 409.332H92.6004L91.5879 413H87.8529ZM93.4104 406.475H98.0679L96.0879 399.342H95.4129L93.4104 406.475ZM110.942 413L108.445 410.502V398.915L110.942 396.417H119.11L121.517 398.802L119.29 400.94L117.557 399.252H112.855L111.955 400.13V409.265L112.855 410.165H117.737L119.447 408.477L121.675 410.615L119.29 413H110.942ZM130.896 413V399.41H126.284V396.417H139.041V399.41H134.406V413H130.896ZM144.102 413V410.12H145.857V399.297H144.102V396.417H151.032V399.297H149.277L149.232 410.12H151.032V413H144.102ZM160.802 413L155.987 396.417H159.902L163.389 410.075H164.064L167.552 396.417H171.444L166.629 413H160.802ZM176.4 413V410.12H178.155V399.297H176.4V396.417H183.33V399.297H181.575L181.53 410.12H183.33V413H176.4ZM193.01 413V399.41H188.397V396.417H201.155V399.41H196.52V413H193.01ZM206.215 413V410.12H207.97V399.297H206.215V396.417H213.145V399.297H211.39L211.345 410.12H213.145V413H206.215ZM219.675 413V396.417H231.645V399.41H223.185V402.965H230.857V405.845H223.185V410.007H231.645V413H219.675ZM237.846 413V410.03H246.284L247.161 409.13V406.812L246.284 405.912L239.736 405.935L237.239 403.415V398.915L239.736 396.417H249.749V399.387H241.604L240.726 400.288V402.11L241.604 403.01H248.151L250.649 405.507V410.502L248.151 413H237.846ZM268.324 413L265.826 410.502V398.915L268.324 396.417H277.234L279.754 398.915V410.502L277.234 413H268.324ZM270.236 410.165H275.344L276.244 409.265V400.13L275.321 399.252H270.236L269.336 400.13V409.265L270.236 410.165ZM286.38 413V396.417H296.865L299.363 398.915V404.63L297.27 406.7L299.948 413H296.235L293.85 407.127H289.89V413H286.38ZM289.89 404.292H295.02L295.92 403.415L295.898 400.13L295.02 399.252H289.89V404.292ZM318.488 413V399.41H313.876V396.417H326.633V399.41H321.998V413H318.488ZM334.304 413L331.807 410.502V398.915L334.304 396.417H343.214L345.734 398.915V410.502L343.214 413H334.304ZM336.217 410.165H341.324L342.224 409.265V400.13L341.302 399.252H336.217L335.317 400.13V409.265L336.217 410.165ZM361.456 413V396.417H364.966V403.865L371.154 396.417H375.136L369.151 403.572L375.136 413H371.199L366.991 406.16L364.966 408.59V413H361.456ZM380.594 413V396.417H392.564V399.41H384.104V402.965H391.776V405.845H384.104V410.007H392.564V413H380.594ZM399.094 413V396.417H411.064V399.41H402.604V402.965H410.276V405.845H402.604V410.007H411.064V413H399.094ZM417.594 413V396.417H427.809L430.306 398.915V405.035L427.809 407.532H421.104V413H417.594ZM421.104 404.697H425.964L426.864 403.82V400.13L425.964 399.252H421.104V404.697ZM448.34 413V399.41H443.727V396.417H456.485V399.41H451.85V413H448.34ZM462.108 413V396.417H465.618V402.83H472.075V396.417H475.585V413H472.075V405.71H465.618V413H462.108ZM482.673 413V396.417H494.643V399.41H486.183V402.965H493.856V405.845H486.183V410.007H494.643V413H482.673ZM501.151 413V396.417H504.999L509.521 407.465L514.044 396.417H517.891V413H514.494V402.695L510.421 412.64H508.621L504.549 402.672V413H501.151ZM91.8862 442V439.12H93.6412V428.297H91.8862V425.417H98.8162V428.297H97.0612L97.0162 439.12H98.8162V442H91.8862ZM105.323 442V425.417H109.441L115.516 436.15V425.417H118.913V442H115.403L109.396 431.357H108.721V442H105.323ZM129.127 442V428.41H124.515V425.417H137.272V428.41H132.637V442H129.127ZM142.895 442V425.417H154.865V428.41H146.405V431.965H154.078V434.845H146.405V439.007H154.865V442H142.895ZM161.395 442V425.417H171.88L174.378 427.915V433.63L172.285 435.7L174.963 442H171.25L168.865 436.127H164.905V442H161.395ZM164.905 433.292H170.035L170.935 432.415L170.913 429.13L170.035 428.252H164.905V433.292ZM181.235 442V425.417H185.353L191.428 436.15V425.417H194.825V442H191.315L185.308 431.357H184.633V442H181.235ZM200.314 442L205.444 425.417H210.957L216.087 442H212.374L211.339 438.332H205.062L204.049 442H200.314ZM205.872 435.475H210.529L208.549 428.342H207.874L205.872 435.475ZM221.598 442V425.417H225.108V439.007H232.915V442H221.598ZM238.604 442V425.417H242.114V439.007H249.921V442H238.604ZM256.738 442V436.06L255.906 435.34L251.068 425.417H255.096L258.156 432.865H258.831L261.868 425.417H265.896L261.058 435.34L260.226 436.06V442H256.738ZM271.227 442V438.827H274.49V442H271.227ZM293.869 442V428.41H289.257V425.417H302.014V428.41H297.379V442H293.869ZM307.177 442V439.03H315.615L316.492 438.13V435.812L315.615 434.912L309.067 434.935L306.57 432.415V427.915L309.067 425.417H319.08V428.387H310.935L310.057 429.288V431.11L310.935 432.01H317.482L319.98 434.507V439.502L317.482 442H307.177ZM334.032 442L339.162 425.417H344.674L349.804 442H346.092L345.057 438.332H338.779L337.767 442H334.032ZM339.589 435.475H344.247L342.267 428.342H341.592L339.589 435.475ZM355.316 442V425.417H358.826V439.007H366.633V442H355.316ZM372.366 442V439.03H380.804L381.681 438.13V435.812L380.804 434.912L374.256 434.935L371.759 432.415V427.915L374.256 425.417H384.269V428.387H376.124L375.246 429.288V431.11L376.124 432.01H382.671L385.169 434.507V439.502L382.671 442H372.366ZM393.748 442L391.251 439.502V427.915L393.748 425.417H402.658L405.178 427.915V439.502L402.658 442H393.748ZM395.661 439.165H400.768L401.668 438.265V429.13L400.746 428.252H395.661L394.761 429.13V438.265L395.661 439.165ZM422.993 442L419.325 425.417H423.24L425.445 439.075H426.12L428.348 425.417H431.768L433.995 439.075H434.648L436.875 425.417H440.79L437.123 442H431.655L430.058 432.932L428.46 442H422.993ZM444.22 442L449.35 425.417H454.862L459.992 442H456.28L455.245 438.332H448.967L447.955 442H444.22ZM449.777 435.475H454.435L452.455 428.342H451.78L449.777 435.475ZM465.481 442V425.417H469.598L475.673 436.15V425.417H479.071V442H475.561L469.553 431.357H468.878V442H465.481ZM489.285 442V428.41H484.672V425.417H497.43V428.41H492.795V442H489.285ZM502.592 442V439.03H511.03L511.907 438.13V435.812L511.03 434.912L504.482 434.935L501.985 432.415V427.915L504.482 425.417H514.495V428.387H506.35L505.472 429.288V431.11L506.35 432.01H512.897L515.395 434.507V439.502L512.897 442H502.592ZM111.089 471V457.41H106.477V454.417H119.234V457.41H114.599V471H111.089ZM126.905 471L124.407 468.502V456.915L126.905 454.417H135.815L138.335 456.915V468.502L135.815 471H126.905ZM128.817 468.165H133.925L134.825 467.265V458.13L133.902 457.252H128.817L127.917 458.13V467.265L128.817 468.165ZM154.057 471V454.417H166.027V457.41H157.567V460.965H165.239V463.845H157.567V468.007H166.027V471H154.057ZM172.535 471V454.417H176.652L182.727 465.15V454.417H186.125V471H182.615L176.607 460.357H175.932V471H172.535ZM193.234 471V468.03H201.671L202.549 467.13V464.812L201.671 463.912L195.124 463.935L192.626 461.415V456.915L195.124 454.417H205.136V457.387H196.991L196.114 458.288V460.11L196.991 461.01H203.539L206.036 463.507V468.502L203.539 471H193.234ZM214.818 471L212.343 468.502V454.417H215.853V467.265L216.753 468.165H221.77L222.67 467.287V454.417H226.18V468.502L223.683 471H214.818ZM233.045 471V454.417H243.53L246.028 456.915V462.63L243.935 464.7L246.613 471H242.9L240.515 465.127H236.555V471H233.045ZM236.555 462.292H241.685L242.585 461.415L242.563 458.13L241.685 457.252H236.555V462.292ZM252.908 471V454.417H264.878V457.41H256.418V460.965H264.09V463.845H256.418V468.007H264.878V471H252.908ZM283.653 471V457.41H279.041V454.417H291.798V457.41H287.163V471H283.653ZM297.422 471V454.417H300.932V460.83H307.389V454.417H310.899V471H307.389V463.71H300.932V471H297.422ZM316.412 471L321.542 454.417H327.055L332.185 471H328.472L327.437 467.332H321.16L320.147 471H316.412ZM321.97 464.475H326.627L324.647 457.342H323.972L321.97 464.475ZM339.11 471V457.41H334.497V454.417H347.255V457.41H342.62V471H339.11ZM361.411 471V468.12H363.166V457.297H361.411V454.417H368.341V457.297H366.586L366.541 468.12H368.341V471H361.411ZM378.021 471V457.41H373.408V454.417H386.166V457.41H381.531V471H378.021ZM400.93 471V468.03H409.367L410.245 467.13V464.812L409.367 463.912L402.82 463.935L400.322 461.415V456.915L402.82 454.417H412.832V457.387H404.687L403.81 458.288V460.11L404.687 461.01H411.235L413.732 463.507V468.502L411.235 471H400.93ZM422.908 471V457.41H418.296V454.417H431.053V457.41H426.418V471H422.908ZM436.114 471V468.12H437.869V457.297H436.114V454.417H443.044V457.297H441.289L441.244 468.12H443.044V471H436.114ZM451.621 471L449.123 468.502V456.915L451.621 454.417H459.788L462.196 456.802L459.968 458.94L458.236 457.252H453.533L452.633 458.13V467.265L453.533 468.165H458.416L460.126 466.477L462.353 468.615L459.968 471H451.621ZM468.425 471V454.417H471.935V461.865L478.123 454.417H482.105L476.12 461.572L482.105 471H478.168L473.96 464.16L471.935 466.59V471H468.425ZM487.102 471V468.03H495.54L496.417 467.13V464.812L495.54 463.912L488.992 463.935L486.495 461.415V456.915L488.992 454.417H499.005V457.387H490.86L489.982 458.288V460.11L490.86 461.01H497.407L499.905 463.507V468.502L497.407 471H487.102ZM190.67 500V486.41H186.057V483.417H198.815V486.41H194.18V500H190.67ZM206.485 500L203.988 497.502V485.915L206.485 483.417H215.395L217.915 485.915V497.502L215.395 500H206.485ZM208.398 497.165H213.505L214.405 496.265V487.13L213.483 486.252H208.398L207.498 487.13V496.265L208.398 497.165ZM236.788 500V486.41H232.175V483.417H244.933V486.41H240.298V500H236.788ZM250.556 500V483.417H254.066V489.83H260.523V483.417H264.033V500H260.523V492.71H254.066V500H250.556ZM271.121 500V483.417H283.091V486.41H274.631V489.965H282.304V492.845H274.631V497.007H283.091V500H271.121ZM297.142 500L302.272 483.417H307.785L312.915 500H309.202L308.167 496.332H301.89L300.877 500H297.142ZM302.7 493.475H307.357L305.377 486.342H304.702L302.7 493.475ZM318.403 500V483.417H322.521L328.596 494.15V483.417H331.993V500H328.483L322.476 489.357H321.801V500H318.403ZM337.482 500L342.612 483.417H348.125L353.255 500H349.542L348.507 496.332H342.23L341.217 500H337.482ZM343.04 493.475H347.697L345.717 486.342H345.042L343.04 493.475ZM358.766 500V483.417H362.276V497.007H370.083V500H358.766ZM376.9 500V494.06L376.068 493.34L371.23 483.417H375.258L378.318 490.865H378.993L382.03 483.417H386.058L381.22 493.34L380.388 494.06V500H376.9ZM391.109 500V497.03H399.546L400.424 496.13V493.812L399.546 492.912L392.999 492.935L390.501 490.415V485.915L392.999 483.417H403.011V486.387H394.866L393.989 487.288V489.11L394.866 490.01H401.414L403.911 492.507V497.502L401.414 500H391.109ZM413.087 500V486.41H408.475V483.417H421.232V486.41H416.597V500H413.087ZM136.776 529V512.417H148.746V515.41H140.286V518.965H147.959V521.845H140.286V526.007H148.746V529H136.776ZM153.701 529L158.111 520.36L153.746 512.417H157.774L160.946 518.74H161.621L164.794 512.417H168.821L164.456 520.36L168.844 529H164.794L161.621 522.25H160.946L157.751 529H153.701ZM174.348 529V512.417H184.563L187.06 514.915V521.035L184.563 523.532H177.858V529H174.348ZM177.858 520.697H182.718L183.618 519.82V516.13L182.718 515.252H177.858V520.697ZM192.848 529V512.417H204.818V515.41H196.358V518.965H204.03V521.845H196.358V526.007H204.818V529H192.848ZM213.396 529L210.898 526.502V514.915L213.396 512.417H221.563L223.971 514.802L221.743 516.94L220.011 515.252H215.308L214.408 516.13V525.265L215.308 526.165H220.191L221.901 524.477L224.128 526.615L221.743 529H213.396ZM233.35 529V515.41H228.737V512.417H241.495V515.41H236.86V529H233.35ZM243.807 529L248.937 512.417H254.449L259.579 529H255.867L254.832 525.332H248.554L247.542 529H243.807ZM249.364 522.475H254.022L252.042 515.342H251.367L249.364 522.475ZM266.505 529V515.41H261.892V512.417H274.65V515.41H270.015V529H266.505ZM279.71 529V526.12H281.465V515.297H279.71V512.417H286.64V515.297H284.885L284.84 526.12H286.64V529H279.71ZM295.217 529L292.72 526.502V514.915L295.217 512.417H304.127L306.647 514.915V526.502L304.127 529H295.217ZM297.13 526.165H302.237L303.137 525.265V516.13L302.215 515.252H297.13L296.23 516.13V525.265L297.13 526.165ZM313.251 529V512.417H317.369L323.444 523.15V512.417H326.841V529H323.331L317.324 518.357H316.649V529H313.251ZM333.95 529V526.03H342.388L343.265 525.13V522.812L342.388 521.912L335.84 521.935L333.343 519.415V514.915L335.84 512.417H345.853V515.387H337.708L336.83 516.288V518.11L337.708 519.01H344.255L346.753 521.507V526.502L344.255 529H333.95ZM362.38 529V512.417H374.148V515.41H365.89V519.325H373.135V522.205H365.89V529H362.38ZM381.895 529L379.398 526.502V514.915L381.895 512.417H390.805L393.325 514.915V526.502L390.805 529H381.895ZM383.808 526.165H388.915L389.815 525.265V516.13L388.893 515.252H383.808L382.908 516.13V525.265L383.808 526.165ZM399.952 529V512.417H410.437L412.934 514.915V520.63L410.842 522.7L413.519 529H409.807L407.422 523.127H403.462V529H399.952ZM403.462 520.292H408.592L409.492 519.415L409.469 516.13L408.592 515.252H403.462V520.292ZM428.347 529V526.12H430.102V515.297H428.347V512.417H435.277V515.297H433.522L433.477 526.12H435.277V529H428.347ZM444.957 529V515.41H440.344V512.417H453.102V515.41H448.467V529H444.957ZM458.265 529V526.03H466.702L467.58 525.13V522.812L466.702 521.912L460.155 521.935L457.657 519.415V514.915L460.155 512.417H470.167V515.387H462.022L461.145 516.288V518.11L462.022 519.01H468.57L471.067 521.507V526.502L468.57 529H458.265ZM169.767 558V541.417H179.982L182.479 543.915V550.035L179.982 552.532H173.277V558H169.767ZM173.277 549.697H178.137L179.037 548.82V545.13L178.137 544.252H173.277V549.697ZM188.267 558V541.417H198.752L201.249 543.915V549.63L199.157 551.7L201.834 558H198.122L195.737 552.127H191.777V558H188.267ZM191.777 549.292H196.907L197.807 548.415L197.784 545.13L196.907 544.252H191.777V549.292ZM210.177 558L207.679 555.502V543.915L210.177 541.417H219.087L221.607 543.915V555.502L219.087 558H210.177ZM212.089 555.165H217.197L218.097 554.265V545.13L217.174 544.252H212.089L211.189 545.13V554.265L212.089 555.165ZM228.233 558V541.417H240.001V544.41H231.743V548.325H238.988V551.205H231.743V558H228.233ZM245.138 558V555.12H246.893V544.297H245.138V541.417H252.068V544.297H250.313L250.268 555.12H252.068V558H245.138ZM261.748 558V544.41H257.135V541.417H269.893V544.41H265.258V558H261.748ZM284.611 558V541.417H296.379V544.41H288.121V548.325H295.366V551.205H288.121V558H284.611ZM304.126 558L301.629 555.502V543.915L304.126 541.417H313.036L315.556 543.915V555.502L313.036 558H304.126ZM306.039 555.165H311.146L312.046 554.265V545.13L311.124 544.252H306.039L305.139 545.13V554.265L306.039 555.165ZM322.183 558V541.417H332.668L335.165 543.915V549.63L333.073 551.7L335.75 558H332.038L329.653 552.127H325.693V558H322.183ZM325.693 549.292H330.823L331.723 548.415L331.7 545.13L330.823 544.252H325.693V549.292ZM342.045 558V541.417H354.015V544.41H345.555V547.965H353.228V550.845H345.555V555.007H354.015V558H342.045ZM362.593 558L360.095 555.502V543.915L362.593 541.417H370.76L373.168 543.802L370.94 545.94L369.208 544.252H364.505L363.605 545.13V554.265L364.505 555.165H369.388L371.098 553.477L373.325 555.615L370.94 558H362.593ZM377.822 558L382.952 541.417H388.465L393.595 558H389.882L388.847 554.332H382.57L381.557 558H377.822ZM383.38 551.475H388.037L386.057 544.342H385.382L383.38 551.475ZM398.645 558V555.03H407.083L407.96 554.13V551.812L407.083 550.912L400.535 550.935L398.038 548.415V543.915L400.535 541.417H410.548V544.387H402.403L401.525 545.288V547.11L402.403 548.01H408.95L411.448 550.507V555.502L408.95 558H398.645ZM420.624 558V544.41H416.011V541.417H428.769V544.41H424.134V558H420.624ZM434.212 558V554.827H437.475V558H434.212Z" fill="white"/>
<path d="M529.386 194H81.6142C74.6476 194 69 220.742 69 253.729V529.271C69 562.258 74.6476 589 81.6142 589H529.386C536.352 589 542 562.258 542 529.271V253.729C542 220.742 536.352 194 529.386 194Z" stroke="#FFAA5C" stroke-width="3" stroke-miterlimit="10"/>
<path d="M150.198 175V169.21H161.058V166.57L152.598 166.54L149.268 163.72V155.74L152.598 152.89H168.288V158.62H157.548V161.05L166.038 161.08L169.368 163.9V172.15L166.038 175H150.198ZM175.618 175V152.89H184.168V160.66H188.428V152.89H196.978V175H188.428V166.54H184.168V175H175.618ZM203.714 175V152.89H223.004V158.8H212.264V161.56H221.744V166.33H212.264V169.09H223.004V175H203.714ZM229.583 175V152.89H246.323L251.303 157.42V170.5L246.323 175H229.583ZM238.133 170.41H242.753V157.48H238.133V170.41ZM274.082 175V158.8H268.232V152.89H288.482V158.8H282.632V175H274.082ZM294.241 175V152.89H302.791V160.66H307.051V152.89H315.601V175H307.051V166.54H302.791V175H294.241ZM322.337 175V152.89H341.627V158.8H330.887V161.56H340.367V166.33H330.887V169.09H341.627V175H322.337ZM359.69 175V152.89H368.24V168.76H377.09V175H359.69ZM386.333 175L383.003 172.15V155.74L386.333 152.89H401.123L404.453 155.74V172.15L401.123 175H386.333ZM391.553 170.41H395.903V157.48H391.553V170.41ZM409.702 175L414.592 152.89H429.382L434.242 175H425.302L424.792 171.73H419.152L418.642 175H409.702ZM420.022 166.3H423.922L422.602 157.96H421.342L420.022 166.3ZM439.817 175V152.89H456.557L461.537 157.42V170.5L456.557 175H439.817ZM448.367 170.41H452.987V157.48H448.367V170.41Z" fill="white"/>
<path d="M150.198 175H149.498V175.7H150.198V175ZM150.198 169.21V168.51H149.498V169.21H150.198ZM161.058 169.21V169.91H161.758V169.21H161.058ZM161.058 166.57H161.758V165.872L161.061 165.87L161.058 166.57ZM152.598 166.54L152.146 167.074L152.341 167.239L152.596 167.24L152.598 166.54ZM149.268 163.72H148.568V164.044L148.816 164.254L149.268 163.72ZM149.268 155.74L148.813 155.208L148.568 155.418V155.74H149.268ZM152.598 152.89V152.19H152.34L152.143 152.358L152.598 152.89ZM168.288 152.89H168.988V152.19H168.288V152.89ZM168.288 158.62V159.32H168.988V158.62H168.288ZM157.548 158.62V157.92H156.848V158.62H157.548ZM157.548 161.05H156.848V161.748L157.546 161.75L157.548 161.05ZM166.038 161.08L166.491 160.546L166.296 160.381L166.041 160.38L166.038 161.08ZM169.368 163.9H170.068V163.576L169.821 163.366L169.368 163.9ZM169.368 172.15L169.823 172.682L170.068 172.472V172.15H169.368ZM166.038 175V175.7H166.297L166.493 175.532L166.038 175ZM150.898 175V169.21H149.498V175H150.898ZM150.198 169.91H161.058V168.51H150.198V169.91ZM161.758 169.21V166.57H160.358V169.21H161.758ZM161.061 165.87L152.601 165.84L152.596 167.24L161.056 167.27L161.061 165.87ZM153.051 166.006L149.721 163.186L148.816 164.254L152.146 167.074L153.051 166.006ZM149.968 163.72V155.74H148.568V163.72H149.968ZM149.723 156.272L153.053 153.422L152.143 152.358L148.813 155.208L149.723 156.272ZM152.598 153.59H168.288V152.19H152.598V153.59ZM167.588 152.89V158.62H168.988V152.89H167.588ZM168.288 157.92H157.548V159.32H168.288V157.92ZM156.848 158.62V161.05H158.248V158.62H156.848ZM157.546 161.75L166.036 161.78L166.041 160.38L157.551 160.35L157.546 161.75ZM165.586 161.614L168.916 164.434L169.821 163.366L166.491 160.546L165.586 161.614ZM168.668 163.9V172.15H170.068V163.9H168.668ZM168.913 171.618L165.583 174.468L166.493 175.532L169.823 172.682L168.913 171.618ZM166.038 174.3H150.198V175.7H166.038V174.3ZM175.618 175H174.918V175.7H175.618V175ZM175.618 152.89V152.19H174.918V152.89H175.618ZM184.168 152.89H184.868V152.19H184.168V152.89ZM184.168 160.66H183.468V161.36H184.168V160.66ZM188.428 160.66V161.36H189.128V160.66H188.428ZM188.428 152.89V152.19H187.728V152.89H188.428ZM196.978 152.89H197.678V152.19H196.978V152.89ZM196.978 175V175.7H197.678V175H196.978ZM188.428 175H187.728V175.7H188.428V175ZM188.428 166.54H189.128V165.84H188.428V166.54ZM184.168 166.54V165.84H183.468V166.54H184.168ZM184.168 175V175.7H184.868V175H184.168ZM176.318 175V152.89H174.918V175H176.318ZM175.618 153.59H184.168V152.19H175.618V153.59ZM183.468 152.89V160.66H184.868V152.89H183.468ZM184.168 161.36H188.428V159.96H184.168V161.36ZM189.128 160.66V152.89H187.728V160.66H189.128ZM188.428 153.59H196.978V152.19H188.428V153.59ZM196.278 152.89V175H197.678V152.89H196.278ZM196.978 174.3H188.428V175.7H196.978V174.3ZM189.128 175V166.54H187.728V175H189.128ZM188.428 165.84H184.168V167.24H188.428V165.84ZM183.468 166.54V175H184.868V166.54H183.468ZM184.168 174.3H175.618V175.7H184.168V174.3ZM203.714 175H203.014V175.7H203.714V175ZM203.714 152.89V152.19H203.014V152.89H203.714ZM223.004 152.89H223.704V152.19H223.004V152.89ZM223.004 158.8V159.5H223.704V158.8H223.004ZM212.264 158.8V158.1H211.564V158.8H212.264ZM212.264 161.56H211.564V162.26H212.264V161.56ZM221.744 161.56H222.444V160.86H221.744V161.56ZM221.744 166.33V167.03H222.444V166.33H221.744ZM212.264 166.33V165.63H211.564V166.33H212.264ZM212.264 169.09H211.564V169.79H212.264V169.09ZM223.004 169.09H223.704V168.39H223.004V169.09ZM223.004 175V175.7H223.704V175H223.004ZM204.414 175V152.89H203.014V175H204.414ZM203.714 153.59H223.004V152.19H203.714V153.59ZM222.304 152.89V158.8H223.704V152.89H222.304ZM223.004 158.1H212.264V159.5H223.004V158.1ZM211.564 158.8V161.56H212.964V158.8H211.564ZM212.264 162.26H221.744V160.86H212.264V162.26ZM221.044 161.56V166.33H222.444V161.56H221.044ZM221.744 165.63H212.264V167.03H221.744V165.63ZM211.564 166.33V169.09H212.964V166.33H211.564ZM212.264 169.79H223.004V168.39H212.264V169.79ZM222.304 169.09V175H223.704V169.09H222.304ZM223.004 174.3H203.714V175.7H223.004V174.3ZM229.583 175H228.883V175.7H229.583V175ZM229.583 152.89V152.19H228.883V152.89H229.583ZM246.323 152.89L246.794 152.372L246.594 152.19H246.323V152.89ZM251.303 157.42H252.003V157.11L251.774 156.902L251.303 157.42ZM251.303 170.5L251.772 171.019L252.003 170.811V170.5H251.303ZM246.323 175V175.7H246.592L246.792 175.519L246.323 175ZM238.133 170.41H237.433V171.11H238.133V170.41ZM242.753 170.41V171.11H243.453V170.41H242.753ZM242.753 157.48H243.453V156.78H242.753V157.48ZM238.133 157.48V156.78H237.433V157.48H238.133ZM230.283 175V152.89H228.883V175H230.283ZM229.583 153.59H246.323V152.19H229.583V153.59ZM245.852 153.408L250.832 157.938L251.774 156.902L246.794 152.372L245.852 153.408ZM250.603 157.42V170.5H252.003V157.42H250.603ZM250.834 169.981L245.854 174.481L246.792 175.519L251.772 171.019L250.834 169.981ZM246.323 174.3H229.583V175.7H246.323V174.3ZM238.133 171.11H242.753V169.71H238.133V171.11ZM243.453 170.41V157.48H242.053V170.41H243.453ZM242.753 156.78H238.133V158.18H242.753V156.78ZM237.433 157.48V170.41H238.833V157.48H237.433ZM274.082 175H273.382V175.7H274.082V175ZM274.082 158.8H274.782V158.1H274.082V158.8ZM268.232 158.8H267.532V159.5H268.232V158.8ZM268.232 152.89V152.19H267.532V152.89H268.232ZM288.482 152.89H289.182V152.19H288.482V152.89ZM288.482 158.8V159.5H289.182V158.8H288.482ZM282.632 158.8V158.1H281.932V158.8H282.632ZM282.632 175V175.7H283.332V175H282.632ZM274.782 175V158.8H273.382V175H274.782ZM274.082 158.1H268.232V159.5H274.082V158.1ZM268.932 158.8V152.89H267.532V158.8H268.932ZM268.232 153.59H288.482V152.19H268.232V153.59ZM287.782 152.89V158.8H289.182V152.89H287.782ZM288.482 158.1H282.632V159.5H288.482V158.1ZM281.932 158.8V175H283.332V158.8H281.932ZM282.632 174.3H274.082V175.7H282.632V174.3ZM294.241 175H293.541V175.7H294.241V175ZM294.241 152.89V152.19H293.541V152.89H294.241ZM302.791 152.89H303.491V152.19H302.791V152.89ZM302.791 160.66H302.091V161.36H302.791V160.66ZM307.051 160.66V161.36H307.751V160.66H307.051ZM307.051 152.89V152.19H306.351V152.89H307.051ZM315.601 152.89H316.301V152.19H315.601V152.89ZM315.601 175V175.7H316.301V175H315.601ZM307.051 175H306.351V175.7H307.051V175ZM307.051 166.54H307.751V165.84H307.051V166.54ZM302.791 166.54V165.84H302.091V166.54H302.791ZM302.791 175V175.7H303.491V175H302.791ZM294.941 175V152.89H293.541V175H294.941ZM294.241 153.59H302.791V152.19H294.241V153.59ZM302.091 152.89V160.66H303.491V152.89H302.091ZM302.791 161.36H307.051V159.96H302.791V161.36ZM307.751 160.66V152.89H306.351V160.66H307.751ZM307.051 153.59H315.601V152.19H307.051V153.59ZM314.901 152.89V175H316.301V152.89H314.901ZM315.601 174.3H307.051V175.7H315.601V174.3ZM307.751 175V166.54H306.351V175H307.751ZM307.051 165.84H302.791V167.24H307.051V165.84ZM302.091 166.54V175H303.491V166.54H302.091ZM302.791 174.3H294.241V175.7H302.791V174.3ZM322.337 175H321.637V175.7H322.337V175ZM322.337 152.89V152.19H321.637V152.89H322.337ZM341.627 152.89H342.327V152.19H341.627V152.89ZM341.627 158.8V159.5H342.327V158.8H341.627ZM330.887 158.8V158.1H330.187V158.8H330.887ZM330.887 161.56H330.187V162.26H330.887V161.56ZM340.367 161.56H341.067V160.86H340.367V161.56ZM340.367 166.33V167.03H341.067V166.33H340.367ZM330.887 166.33V165.63H330.187V166.33H330.887ZM330.887 169.09H330.187V169.79H330.887V169.09ZM341.627 169.09H342.327V168.39H341.627V169.09ZM341.627 175V175.7H342.327V175H341.627ZM323.037 175V152.89H321.637V175H323.037ZM322.337 153.59H341.627V152.19H322.337V153.59ZM340.927 152.89V158.8H342.327V152.89H340.927ZM341.627 158.1H330.887V159.5H341.627V158.1ZM330.187 158.8V161.56H331.587V158.8H330.187ZM330.887 162.26H340.367V160.86H330.887V162.26ZM339.667 161.56V166.33H341.067V161.56H339.667ZM340.367 165.63H330.887V167.03H340.367V165.63ZM330.187 166.33V169.09H331.587V166.33H330.187ZM330.887 169.79H341.627V168.39H330.887V169.79ZM340.927 169.09V175H342.327V169.09H340.927ZM341.627 174.3H322.337V175.7H341.627V174.3ZM359.69 175H358.99V175.7H359.69V175ZM359.69 152.89V152.19H358.99V152.89H359.69ZM368.24 152.89H368.94V152.19H368.24V152.89ZM368.24 168.76H367.54V169.46H368.24V168.76ZM377.09 168.76H377.79V168.06H377.09V168.76ZM377.09 175V175.7H377.79V175H377.09ZM360.39 175V152.89H358.99V175H360.39ZM359.69 153.59H368.24V152.19H359.69V153.59ZM367.54 152.89V168.76H368.94V152.89H367.54ZM368.24 169.46H377.09V168.06H368.24V169.46ZM376.39 168.76V175H377.79V168.76H376.39ZM377.09 174.3H359.69V175.7H377.09V174.3ZM386.333 175L385.878 175.532L386.074 175.7H386.333V175ZM383.003 172.15H382.303V172.472L382.548 172.682L383.003 172.15ZM383.003 155.74L382.548 155.208L382.303 155.418V155.74H383.003ZM386.333 152.89V152.19H386.074L385.878 152.358L386.333 152.89ZM401.123 152.89L401.578 152.358L401.382 152.19H401.123V152.89ZM404.453 155.74H405.153V155.418L404.908 155.208L404.453 155.74ZM404.453 172.15L404.908 172.682L405.153 172.472V172.15H404.453ZM401.123 175V175.7H401.382L401.578 175.532L401.123 175ZM391.553 170.41H390.853V171.11H391.553V170.41ZM395.903 170.41V171.11H396.603V170.41H395.903ZM395.903 157.48H396.603V156.78H395.903V157.48ZM391.553 157.48V156.78H390.853V157.48H391.553ZM386.788 174.468L383.458 171.618L382.548 172.682L385.878 175.532L386.788 174.468ZM383.703 172.15V155.74H382.303V172.15H383.703ZM383.458 156.272L386.788 153.422L385.878 152.358L382.548 155.208L383.458 156.272ZM386.333 153.59H401.123V152.19H386.333V153.59ZM400.668 153.422L403.998 156.272L404.908 155.208L401.578 152.358L400.668 153.422ZM403.753 155.74V172.15H405.153V155.74H403.753ZM403.998 171.618L400.668 174.468L401.578 175.532L404.908 172.682L403.998 171.618ZM401.123 174.3H386.333V175.7H401.123V174.3ZM391.553 171.11H395.903V169.71H391.553V171.11ZM396.603 170.41V157.48H395.203V170.41H396.603ZM395.903 156.78H391.553V158.18H395.903V156.78ZM390.853 157.48V170.41H392.253V157.48H390.853ZM409.702 175L409.019 174.849L408.83 175.7H409.702V175ZM414.592 152.89V152.19H414.03L413.909 152.739L414.592 152.89ZM429.382 152.89L430.066 152.74L429.945 152.19H429.382V152.89ZM434.242 175V175.7H435.113L434.926 174.85L434.242 175ZM425.302 175L424.61 175.108L424.703 175.7H425.302V175ZM424.792 171.73L425.484 171.622L425.391 171.03H424.792V171.73ZM419.152 171.73V171.03H418.553L418.46 171.622L419.152 171.73ZM418.642 175V175.7H419.241L419.334 175.108L418.642 175ZM420.022 166.3L419.331 166.191L419.203 167H420.022V166.3ZM423.922 166.3V167H424.742L424.613 166.191L423.922 166.3ZM422.602 157.96L423.293 157.851L423.2 157.26H422.602V157.96ZM421.342 157.96V157.26H420.744L420.651 157.851L421.342 157.96ZM410.386 175.151L415.276 153.041L413.909 152.739L409.019 174.849L410.386 175.151ZM414.592 153.59H429.382V152.19H414.592V153.59ZM428.698 153.04L433.558 175.15L434.926 174.85L430.066 152.74L428.698 153.04ZM434.242 174.3H425.302V175.7H434.242V174.3ZM425.994 174.892L425.484 171.622L424.1 171.838L424.61 175.108L425.994 174.892ZM424.792 171.03H419.152V172.43H424.792V171.03ZM418.46 171.622L417.95 174.892L419.334 175.108L419.844 171.838L418.46 171.622ZM418.642 174.3H409.702V175.7H418.642V174.3ZM420.022 167H423.922V165.6H420.022V167ZM424.613 166.191L423.293 157.851L421.911 158.069L423.231 166.409L424.613 166.191ZM422.602 157.26H421.342V158.66H422.602V157.26ZM420.651 157.851L419.331 166.191L420.713 166.409L422.033 158.069L420.651 157.851ZM439.817 175H439.117V175.7H439.817V175ZM439.817 152.89V152.19H439.117V152.89H439.817ZM456.557 152.89L457.028 152.372L456.828 152.19H456.557V152.89ZM461.537 157.42H462.237V157.11L462.008 156.902L461.537 157.42ZM461.537 170.5L462.007 171.019L462.237 170.811V170.5H461.537ZM456.557 175V175.7H456.827L457.027 175.519L456.557 175ZM448.367 170.41H447.667V171.11H448.367V170.41ZM452.987 170.41V171.11H453.687V170.41H452.987ZM452.987 157.48H453.687V156.78H452.987V157.48ZM448.367 157.48V156.78H447.667V157.48H448.367ZM440.517 175V152.89H439.117V175H440.517ZM439.817 153.59H456.557V152.19H439.817V153.59ZM456.086 153.408L461.066 157.938L462.008 156.902L457.028 152.372L456.086 153.408ZM460.837 157.42V170.5H462.237V157.42H460.837ZM461.068 169.981L456.088 174.481L457.027 175.519L462.007 171.019L461.068 169.981ZM456.557 174.3H439.817V175.7H456.557V174.3ZM448.367 171.11H452.987V169.71H448.367V171.11ZM453.687 170.41V157.48H452.287V170.41H453.687ZM452.987 156.78H448.367V158.18H452.987V156.78ZM447.667 157.48V170.41H449.067V157.48H447.667Z" fill="black"/>
</g>
<defs>
<filter id="filter0_d_1_135" x="0" y="0" width="623" height="743.763" filterUnits="userSpaceOnUse" color-interpolation-filters="sRGB">
<feFlood flood-opacity="0" result="BackgroundImageFix"/>
<feColorMatrix in="SourceAlpha" type="matrix" values="0 0 0 0 0 0 0 0 0 0 0 0 0 0 0 0 0 0 127 0" result="hardAlpha"/>
<feOffset dx="6" dy="8"/>
<feGaussianBlur stdDeviation="10"/>
<feComposite in2="hardAlpha" operator="out"/>
<feColorMatrix type="matrix" values="0 0 0 0 0 0 0 0 0 0 0 0 0 0 0 0 0 0 1 0"/>
<feBlend mode="normal" in2="BackgroundImageFix" result="effect1_dropShadow_1_135"/>
<feBlend mode="normal" in="SourceGraphic" in2="effect1_dropShadow_1_135" result="shape"/>
</filter>
<filter id="filter1_f_1_135" x="24" y="22" width="10" height="683" filterUnits="userSpaceOnUse" color-interpolation-filters="sRGB">
<feFlood flood-opacity="0" result="BackgroundImageFix"/>
<feBlend mode="normal" in="SourceGraphic" in2="BackgroundImageFix" result="shape"/>
<feGaussianBlur stdDeviation="2" result="effect1_foregroundBlur_1_135"/>
</filter>
<filter id="filter2_f_1_135" x="578" y="22" width="10" height="683" filterUnits="userSpaceOnUse" color-interpolation-filters="sRGB">
<feFlood flood-opacity="0" result="BackgroundImageFix"/>
<feBlend mode="normal" in="SourceGraphic" in2="BackgroundImageFix" result="shape"/>
<feGaussianBlur stdDeviation="2" result="effect1_foregroundBlur_1_135"/>
</filter>
<filter id="filter3_f_1_135" x="24" y="20" width="564" height="10" filterUnits="userSpaceOnUse" color-interpolation-filters="sRGB">
<feFlood flood-opacity="0" result="BackgroundImageFix"/>
<feBlend mode="normal" in="SourceGraphic" in2="BackgroundImageFix" result="shape"/>
<feGaussianBlur stdDeviation="2" result="effect1_foregroundBlur_1_135"/>
</filter>
<filter id="filter4_f_1_135" x="24" y="695" width="564" height="10.0001" filterUnits="userSpaceOnUse" color-interpolation-filters="sRGB">
<feFlood flood-opacity="0" result="BackgroundImageFix"/>
<feBlend mode="normal" in="SourceGraphic" in2="BackgroundImageFix" result="shape"/>
<feGaussianBlur stdDeviation="2" result="effect1_foregroundBlur_1_135"/>
</filter>
<linearGradient id="paint0_linear_1_135" x1="305.5" y1="12" x2="305.5" y2="715.763" gradientUnits="userSpaceOnUse">
<stop stop-color="#FFBE18"/>
<stop offset="1" stop-color="#FF0000" stop-opacity="0.6"/>
</linearGradient>
<linearGradient id="paint1_linear_1_135" x1="305.5" y1="50.3" x2="305.5" y2="677.463" gradientUnits="userSpaceOnUse">
<stop stop-color="#FF5E04"/>
<stop offset="1" stop-color="#FF0000" stop-opacity="0.3"/>
</linearGradient>
</defs>
</svg>
