<svg width="476" height="147" viewBox="0 0 476 147" fill="none" xmlns="http://www.w3.org/2000/svg">
<path d="M461.412 2H14.5876C7.63565 2 2 12.3436 2 25.1031V83.8969C2 96.6564 7.63565 107 14.5876 107H461.412C468.364 107 474 96.6564 474 83.8969V25.1031C474 12.3436 468.364 2 461.412 2Z" stroke="#BE2200" stroke-width="4" stroke-miterlimit="10"/>
<path d="M293.094 111H183.906C179.54 111 176 114.393 176 118.579V139.421C176 143.607 179.54 147 183.906 147H293.094C297.46 147 301 143.607 301 139.421V118.579C301 114.393 297.46 111 293.094 111Z" fill="#BE2200"/>
<path d="M198.12 136.2C196.893 136.2 195.827 136 194.92 135.6C194.013 135.2 193.307 134.6 192.8 133.8C192.293 132.987 192.013 131.973 191.96 130.76C191.947 130.187 191.94 129.613 191.94 129.04C191.94 128.467 191.947 127.887 191.96 127.3C192.013 126.1 192.293 125.093 192.8 124.28C193.32 123.453 194.033 122.833 194.94 122.42C195.847 122.007 196.907 121.8 198.12 121.8C199.32 121.8 200.373 122.007 201.28 122.42C202.2 122.833 202.92 123.453 203.44 124.28C203.96 125.093 204.24 126.1 204.28 127.3C204.307 127.887 204.32 128.467 204.32 129.04C204.32 129.613 204.307 130.187 204.28 130.76C204.227 131.973 203.947 132.987 203.44 133.8C202.933 134.6 202.227 135.2 201.32 135.6C200.413 136 199.347 136.2 198.12 136.2ZM198.12 133.32C198.827 133.32 199.4 133.107 199.84 132.68C200.293 132.253 200.533 131.573 200.56 130.64C200.587 130.053 200.6 129.5 200.6 128.98C200.6 128.46 200.587 127.92 200.56 127.36C200.533 126.733 200.413 126.227 200.2 125.84C200 125.44 199.72 125.147 199.36 124.96C199 124.773 198.587 124.68 198.12 124.68C197.667 124.68 197.26 124.773 196.9 124.96C196.54 125.147 196.253 125.44 196.04 125.84C195.827 126.227 195.707 126.733 195.68 127.36C195.667 127.92 195.66 128.46 195.66 128.98C195.66 129.5 195.667 130.053 195.68 130.64C195.72 131.573 195.96 132.253 196.4 132.68C196.84 133.107 197.413 133.32 198.12 133.32ZM207.138 136C206.992 136 206.872 135.953 206.778 135.86C206.685 135.767 206.638 135.647 206.638 135.5V122.5C206.638 122.353 206.685 122.233 206.778 122.14C206.872 122.047 206.992 122 207.138 122H212.738C213.845 122 214.805 122.173 215.618 122.52C216.445 122.853 217.085 123.36 217.538 124.04C218.005 124.72 218.238 125.58 218.238 126.62C218.238 127.647 218.005 128.493 217.538 129.16C217.085 129.827 216.445 130.32 215.618 130.64C214.805 130.96 213.845 131.12 212.738 131.12H210.358V135.5C210.358 135.647 210.305 135.767 210.198 135.86C210.105 135.953 209.985 136 209.838 136H207.138ZM210.298 128.36H212.638C213.212 128.36 213.665 128.213 213.998 127.92C214.345 127.627 214.518 127.18 214.518 126.58C214.518 126.073 214.372 125.647 214.078 125.3C213.785 124.953 213.305 124.78 212.638 124.78H210.298V128.36ZM223.734 136C223.587 136 223.467 135.953 223.374 135.86C223.281 135.767 223.234 135.647 223.234 135.5V125.14H219.674C219.527 125.14 219.407 125.093 219.314 125C219.221 124.893 219.174 124.773 219.174 124.64V122.5C219.174 122.353 219.221 122.233 219.314 122.14C219.407 122.047 219.527 122 219.674 122H230.434C230.581 122 230.701 122.047 230.794 122.14C230.887 122.233 230.934 122.353 230.934 122.5V124.64C230.934 124.773 230.887 124.893 230.794 125C230.701 125.093 230.581 125.14 230.434 125.14H226.874V135.5C226.874 135.647 226.827 135.767 226.734 135.86C226.641 135.953 226.521 136 226.374 136H223.734ZM233.252 136C233.105 136 232.985 135.953 232.892 135.86C232.798 135.767 232.752 135.647 232.752 135.5V122.5C232.752 122.353 232.798 122.233 232.892 122.14C232.985 122.047 233.105 122 233.252 122H235.932C236.078 122 236.198 122.047 236.292 122.14C236.385 122.233 236.432 122.353 236.432 122.5V135.5C236.432 135.647 236.385 135.767 236.292 135.86C236.198 135.953 236.078 136 235.932 136H233.252ZM244.956 136.2C243.729 136.2 242.663 136 241.756 135.6C240.849 135.2 240.143 134.6 239.636 133.8C239.129 132.987 238.849 131.973 238.796 130.76C238.783 130.187 238.776 129.613 238.776 129.04C238.776 128.467 238.783 127.887 238.796 127.3C238.849 126.1 239.129 125.093 239.636 124.28C240.156 123.453 240.869 122.833 241.776 122.42C242.683 122.007 243.743 121.8 244.956 121.8C246.156 121.8 247.209 122.007 248.116 122.42C249.036 122.833 249.756 123.453 250.276 124.28C250.796 125.093 251.076 126.1 251.116 127.3C251.143 127.887 251.156 128.467 251.156 129.04C251.156 129.613 251.143 130.187 251.116 130.76C251.063 131.973 250.783 132.987 250.276 133.8C249.769 134.6 249.063 135.2 248.156 135.6C247.249 136 246.183 136.2 244.956 136.2ZM244.956 133.32C245.663 133.32 246.236 133.107 246.676 132.68C247.129 132.253 247.369 131.573 247.396 130.64C247.423 130.053 247.436 129.5 247.436 128.98C247.436 128.46 247.423 127.92 247.396 127.36C247.369 126.733 247.249 126.227 247.036 125.84C246.836 125.44 246.556 125.147 246.196 124.96C245.836 124.773 245.423 124.68 244.956 124.68C244.503 124.68 244.096 124.773 243.736 124.96C243.376 125.147 243.089 125.44 242.876 125.84C242.663 126.227 242.543 126.733 242.516 127.36C242.503 127.92 242.496 128.46 242.496 128.98C242.496 129.5 242.503 130.053 242.516 130.64C242.556 131.573 242.796 132.253 243.236 132.68C243.676 133.107 244.249 133.32 244.956 133.32ZM253.974 136C253.828 136 253.708 135.953 253.614 135.86C253.521 135.767 253.474 135.647 253.474 135.5V122.5C253.474 122.353 253.521 122.233 253.614 122.14C253.708 122.047 253.828 122 253.974 122H256.094C256.321 122 256.481 122.053 256.574 122.16C256.681 122.253 256.748 122.327 256.774 122.38L261.654 130.08V122.5C261.654 122.353 261.701 122.233 261.794 122.14C261.888 122.047 262.008 122 262.154 122H264.554C264.701 122 264.821 122.047 264.914 122.14C265.008 122.233 265.054 122.353 265.054 122.5V135.5C265.054 135.633 265.008 135.753 264.914 135.86C264.821 135.953 264.701 136 264.554 136H262.414C262.201 136 262.041 135.947 261.934 135.84C261.841 135.733 261.781 135.66 261.754 135.62L256.874 128.22V135.5C256.874 135.647 256.828 135.767 256.734 135.86C256.641 135.953 256.521 136 256.374 136H253.974ZM272.607 136C272.46 136 272.34 135.953 272.247 135.86C272.154 135.767 272.107 135.647 272.107 135.5V122.5C272.107 122.353 272.154 122.233 272.247 122.14C272.34 122.047 272.46 122 272.607 122H278.707C279.854 122 280.794 122.16 281.527 122.48C282.26 122.8 282.8 123.26 283.147 123.86C283.507 124.447 283.687 125.147 283.687 125.96C283.687 126.44 283.594 126.867 283.407 127.24C283.234 127.6 283.014 127.9 282.747 128.14C282.494 128.38 282.254 128.553 282.027 128.66C282.534 128.9 282.98 129.293 283.367 129.84C283.767 130.387 283.967 131.027 283.967 131.76C283.967 132.64 283.767 133.4 283.367 134.04C282.98 134.667 282.407 135.153 281.647 135.5C280.9 135.833 279.98 136 278.887 136H272.607ZM275.687 133.4H278.487C279.06 133.4 279.494 133.233 279.787 132.9C280.08 132.567 280.227 132.187 280.227 131.76C280.227 131.293 280.074 130.9 279.767 130.58C279.474 130.26 279.047 130.1 278.487 130.1H275.687V133.4ZM275.687 127.56H278.307C278.854 127.56 279.26 127.42 279.527 127.14C279.807 126.86 279.947 126.5 279.947 126.06C279.947 125.633 279.807 125.287 279.527 125.02C279.26 124.74 278.854 124.6 278.307 124.6H275.687V127.56Z" fill="white"/>
<path d="M17.5018 35C17.3552 35 17.2305 34.956 17.1278 34.868C17.0398 34.7653 16.9958 34.6407 16.9958 34.494V21.558H12.7718C12.6252 21.558 12.5005 21.514 12.3978 21.426C12.3098 21.3233 12.2658 21.1987 12.2658 21.052V20.128C12.2658 19.9667 12.3098 19.842 12.3978 19.754C12.5005 19.6513 12.6252 19.6 12.7718 19.6H23.3758C23.5372 19.6 23.6618 19.6513 23.7498 19.754C23.8525 19.842 23.9038 19.9667 23.9038 20.128V21.052C23.9038 21.1987 23.8525 21.3233 23.7498 21.426C23.6618 21.514 23.5372 21.558 23.3758 21.558H19.1738V34.494C19.1738 34.6407 19.1225 34.7653 19.0198 34.868C18.9318 34.956 18.8072 35 18.6458 35H17.5018ZM31.2341 35.22C29.9581 35.22 28.8875 35.0293 28.0221 34.648C27.1568 34.252 26.4895 33.746 26.0201 33.13C25.5655 32.4993 25.3235 31.832 25.2941 31.128C25.2941 31.0107 25.3381 30.908 25.4261 30.82C25.5288 30.7173 25.6461 30.666 25.7781 30.666H26.9001C27.0761 30.666 27.2081 30.71 27.2961 30.798C27.3841 30.886 27.4428 30.9887 27.4721 31.106C27.5455 31.458 27.7215 31.81 28.0001 32.162C28.2935 32.4993 28.6968 32.7853 29.2101 33.02C29.7381 33.24 30.4128 33.35 31.2341 33.35C32.4955 33.35 33.4195 33.13 34.0061 32.69C34.6075 32.2353 34.9081 31.634 34.9081 30.886C34.9081 30.3727 34.7468 29.962 34.4241 29.654C34.1161 29.3313 33.6395 29.0453 32.9941 28.796C32.3488 28.5467 31.5128 28.2753 30.4861 27.982C29.4155 27.674 28.5281 27.3367 27.8241 26.97C27.1201 26.6033 26.5921 26.1487 26.2401 25.606C25.9028 25.0633 25.7341 24.374 25.7341 23.538C25.7341 22.746 25.9468 22.042 26.3721 21.426C26.7975 20.7953 27.4061 20.2967 28.1981 19.93C29.0048 19.5633 29.9801 19.38 31.1241 19.38C32.0335 19.38 32.8255 19.5047 33.5001 19.754C34.1895 19.9887 34.7615 20.3113 35.2161 20.722C35.6708 21.118 36.0155 21.5507 36.2501 22.02C36.4848 22.4747 36.6095 22.922 36.6241 23.362C36.6241 23.4647 36.5875 23.5673 36.5141 23.67C36.4408 23.758 36.3235 23.802 36.1621 23.802H34.9961C34.8935 23.802 34.7835 23.7727 34.6661 23.714C34.5635 23.6553 34.4828 23.5453 34.4241 23.384C34.3361 22.7827 33.9988 22.2767 33.4121 21.866C32.8255 21.4553 32.0628 21.25 31.1241 21.25C30.1708 21.25 29.3935 21.4333 28.7921 21.8C28.2055 22.1667 27.9121 22.7387 27.9121 23.516C27.9121 24.0147 28.0515 24.4327 28.3301 24.77C28.6088 25.0927 29.0488 25.3787 29.6501 25.628C30.2515 25.8773 31.0361 26.1413 32.0041 26.42C33.1775 26.7427 34.1381 27.0873 34.8861 27.454C35.6341 27.806 36.1841 28.2533 36.5361 28.796C36.9028 29.324 37.0861 30.006 37.0861 30.842C37.0861 31.766 36.8441 32.558 36.3601 33.218C35.8761 33.8633 35.1941 34.362 34.3141 34.714C33.4488 35.0513 32.4221 35.22 31.2341 35.22ZM45.8682 35C45.7069 35 45.5822 34.956 45.4942 34.868C45.4062 34.7653 45.3622 34.6407 45.3622 34.494V20.128C45.3622 19.9667 45.4062 19.842 45.4942 19.754C45.5822 19.6513 45.7069 19.6 45.8682 19.6H50.8622C52.3729 19.6 53.5902 19.8273 54.5142 20.282C55.4382 20.7367 56.1129 21.4113 56.5382 22.306C56.9636 23.186 57.1836 24.2713 57.1982 25.562C57.2129 26.222 57.2202 26.8013 57.2202 27.3C57.2202 27.7987 57.2129 28.3707 57.1982 29.016C57.1689 30.3653 56.9416 31.4873 56.5162 32.382C56.1056 33.262 55.4456 33.922 54.5362 34.362C53.6416 34.7873 52.4536 35 50.9722 35H45.8682ZM47.5182 33.13H50.8622C51.8742 33.13 52.6809 32.9907 53.2822 32.712C53.8836 32.4333 54.3162 31.986 54.5802 31.37C54.8589 30.754 55.0056 29.94 55.0202 28.928C55.0496 28.488 55.0642 28.1067 55.0642 27.784C55.0642 27.4467 55.0642 27.1167 55.0642 26.794C55.0642 26.4567 55.0496 26.0753 55.0202 25.65C54.9909 24.2273 54.6536 23.1787 54.0082 22.504C53.3629 21.8147 52.2776 21.47 50.7522 21.47H47.5182V33.13ZM61.0362 35C60.8749 35 60.7502 34.956 60.6622 34.868C60.5742 34.7653 60.5302 34.6407 60.5302 34.494V20.128C60.5302 19.9667 60.5742 19.842 60.6622 19.754C60.7502 19.6513 60.8749 19.6 61.0362 19.6H70.1222C70.2835 19.6 70.4082 19.6513 70.4962 19.754C70.5842 19.842 70.6282 19.9667 70.6282 20.128V20.964C70.6282 21.1253 70.5842 21.25 70.4962 21.338C70.4082 21.426 70.2835 21.47 70.1222 21.47H62.6422V26.288H69.6382C69.7995 26.288 69.9242 26.3393 70.0122 26.442C70.1002 26.53 70.1442 26.6547 70.1442 26.816V27.63C70.1442 27.7767 70.1002 27.9013 70.0122 28.004C69.9242 28.092 69.7995 28.136 69.6382 28.136H62.6422V33.13H70.2982C70.4595 33.13 70.5842 33.174 70.6722 33.262C70.7602 33.35 70.8042 33.4747 70.8042 33.636V34.494C70.8042 34.6407 70.7602 34.7653 70.6722 34.868C70.5842 34.956 70.4595 35 70.2982 35H61.0362ZM79.2656 35.22C77.9163 35.22 76.7943 34.9707 75.8996 34.472C75.0196 33.9733 74.3523 33.2767 73.8976 32.382C73.443 31.4873 73.1936 30.446 73.1496 29.258C73.135 28.6567 73.1276 28.0113 73.1276 27.322C73.1276 26.6327 73.135 25.9727 73.1496 25.342C73.1936 24.154 73.443 23.1127 73.8976 22.218C74.3523 21.3233 75.0196 20.6267 75.8996 20.128C76.7943 19.6293 77.9163 19.38 79.2656 19.38C80.2776 19.38 81.165 19.5193 81.9276 19.798C82.6903 20.0767 83.321 20.4507 83.8196 20.92C84.333 21.3893 84.7216 21.9173 84.9856 22.504C85.2496 23.076 85.3963 23.67 85.4256 24.286C85.4403 24.418 85.3963 24.528 85.2936 24.616C85.2056 24.704 85.0956 24.748 84.9636 24.748H83.7536C83.6216 24.748 83.5043 24.7113 83.4016 24.638C83.3136 24.5647 83.2476 24.4327 83.2036 24.242C82.9543 23.098 82.485 22.3133 81.7956 21.888C81.121 21.4627 80.2703 21.25 79.2436 21.25C78.0703 21.25 77.139 21.5873 76.4496 22.262C75.7603 22.922 75.3863 23.9853 75.3276 25.452C75.2836 26.6547 75.2836 27.8867 75.3276 29.148C75.3863 30.6147 75.7603 31.6853 76.4496 32.36C77.139 33.02 78.0703 33.35 79.2436 33.35C80.2703 33.35 81.121 33.1373 81.7956 32.712C82.485 32.2867 82.9543 31.502 83.2036 30.358C83.2476 30.1673 83.3136 30.0353 83.4016 29.962C83.5043 29.8887 83.6216 29.852 83.7536 29.852H84.9636C85.0956 29.852 85.2056 29.896 85.2936 29.984C85.3963 30.072 85.4403 30.182 85.4256 30.314C85.3963 30.93 85.2496 31.5313 84.9856 32.118C84.7216 32.69 84.333 33.2107 83.8196 33.68C83.321 34.1493 82.6903 34.5233 81.9276 34.802C81.165 35.0807 80.2776 35.22 79.2656 35.22ZM88.88 35C88.7186 35 88.594 34.956 88.506 34.868C88.418 34.7653 88.374 34.6407 88.374 34.494V20.106C88.374 19.9593 88.418 19.842 88.506 19.754C88.594 19.6513 88.7186 19.6 88.88 19.6H90.046C90.1926 19.6 90.31 19.6513 90.398 19.754C90.5006 19.842 90.552 19.9593 90.552 20.106V34.494C90.552 34.6407 90.5006 34.7653 90.398 34.868C90.31 34.956 90.1926 35 90.046 35H88.88ZM94.8956 35C94.7343 35 94.6096 34.956 94.5216 34.868C94.4336 34.7653 94.3896 34.6407 94.3896 34.494V20.128C94.3896 19.9667 94.4336 19.842 94.5216 19.754C94.6096 19.6513 94.7343 19.6 94.8956 19.6H99.8896C101.4 19.6 102.618 19.8273 103.542 20.282C104.466 20.7367 105.14 21.4113 105.566 22.306C105.991 23.186 106.211 24.2713 106.226 25.562C106.24 26.222 106.248 26.8013 106.248 27.3C106.248 27.7987 106.24 28.3707 106.226 29.016C106.196 30.3653 105.969 31.4873 105.544 32.382C105.133 33.262 104.473 33.922 103.564 34.362C102.669 34.7873 101.481 35 99.9996 35H94.8956ZM96.5456 33.13H99.8896C100.902 33.13 101.708 32.9907 102.31 32.712C102.911 32.4333 103.344 31.986 103.608 31.37C103.886 30.754 104.033 29.94 104.048 28.928C104.077 28.488 104.092 28.1067 104.092 27.784C104.092 27.4467 104.092 27.1167 104.092 26.794C104.092 26.4567 104.077 26.0753 104.048 25.65C104.018 24.2273 103.681 23.1787 103.036 22.504C102.39 21.8147 101.305 21.47 99.7796 21.47H96.5456V33.13ZM110.064 35C109.902 35 109.778 34.956 109.69 34.868C109.602 34.7653 109.558 34.6407 109.558 34.494V20.128C109.558 19.9667 109.602 19.842 109.69 19.754C109.778 19.6513 109.902 19.6 110.064 19.6H119.15C119.311 19.6 119.436 19.6513 119.524 19.754C119.612 19.842 119.656 19.9667 119.656 20.128V20.964C119.656 21.1253 119.612 21.25 119.524 21.338C119.436 21.426 119.311 21.47 119.15 21.47H111.67V26.288H118.666C118.827 26.288 118.952 26.3393 119.04 26.442C119.128 26.53 119.172 26.6547 119.172 26.816V27.63C119.172 27.7767 119.128 27.9013 119.04 28.004C118.952 28.092 118.827 28.136 118.666 28.136H111.67V33.13H119.326C119.487 33.13 119.612 33.174 119.7 33.262C119.788 33.35 119.832 33.4747 119.832 33.636V34.494C119.832 34.6407 119.788 34.7653 119.7 34.868C119.612 34.956 119.487 35 119.326 35H110.064ZM127.849 35.22C126.573 35.22 125.503 35.0293 124.637 34.648C123.772 34.252 123.105 33.746 122.635 33.13C122.181 32.4993 121.939 31.832 121.909 31.128C121.909 31.0107 121.953 30.908 122.041 30.82C122.144 30.7173 122.261 30.666 122.393 30.666H123.515C123.691 30.666 123.823 30.71 123.911 30.798C123.999 30.886 124.058 30.9887 124.087 31.106C124.161 31.458 124.337 31.81 124.615 32.162C124.909 32.4993 125.312 32.7853 125.825 33.02C126.353 33.24 127.028 33.35 127.849 33.35C129.111 33.35 130.035 33.13 130.621 32.69C131.223 32.2353 131.523 31.634 131.523 30.886C131.523 30.3727 131.362 29.962 131.039 29.654C130.731 29.3313 130.255 29.0453 129.609 28.796C128.964 28.5467 128.128 28.2753 127.101 27.982C126.031 27.674 125.143 27.3367 124.439 26.97C123.735 26.6033 123.207 26.1487 122.855 25.606C122.518 25.0633 122.349 24.374 122.349 23.538C122.349 22.746 122.562 22.042 122.987 21.426C123.413 20.7953 124.021 20.2967 124.813 19.93C125.62 19.5633 126.595 19.38 127.739 19.38C128.649 19.38 129.441 19.5047 130.115 19.754C130.805 19.9887 131.377 20.3113 131.831 20.722C132.286 21.118 132.631 21.5507 132.865 22.02C133.1 22.4747 133.225 22.922 133.239 23.362C133.239 23.4647 133.203 23.5673 133.129 23.67C133.056 23.758 132.939 23.802 132.777 23.802H131.611C131.509 23.802 131.399 23.7727 131.281 23.714C131.179 23.6553 131.098 23.5453 131.039 23.384C130.951 22.7827 130.614 22.2767 130.027 21.866C129.441 21.4553 128.678 21.25 127.739 21.25C126.786 21.25 126.009 21.4333 125.407 21.8C124.821 22.1667 124.527 22.7387 124.527 23.516C124.527 24.0147 124.667 24.4327 124.945 24.77C125.224 25.0927 125.664 25.3787 126.265 25.628C126.867 25.8773 127.651 26.1413 128.619 26.42C129.793 26.7427 130.753 27.0873 131.501 27.454C132.249 27.806 132.799 28.2533 133.151 28.796C133.518 29.324 133.701 30.006 133.701 30.842C133.701 31.766 133.459 32.558 132.975 33.218C132.491 33.8633 131.809 34.362 130.929 34.714C130.064 35.0513 129.037 35.22 127.849 35.22ZM145.291 35C145.144 35 145.02 34.956 144.917 34.868C144.829 34.7653 144.785 34.6407 144.785 34.494V21.558H140.561C140.414 21.558 140.29 21.514 140.187 21.426C140.099 21.3233 140.055 21.1987 140.055 21.052V20.128C140.055 19.9667 140.099 19.842 140.187 19.754C140.29 19.6513 140.414 19.6 140.561 19.6H151.165C151.326 19.6 151.451 19.6513 151.539 19.754C151.642 19.842 151.693 19.9667 151.693 20.128V21.052C151.693 21.1987 151.642 21.3233 151.539 21.426C151.451 21.514 151.326 21.558 151.165 21.558H146.963V34.494C146.963 34.6407 146.912 34.7653 146.809 34.868C146.721 34.956 146.596 35 146.435 35H145.291ZM159.359 35.22C158.112 35.22 157.042 35.0073 156.147 34.582C155.252 34.142 154.563 33.4747 154.079 32.58C153.595 31.6707 153.324 30.534 153.265 29.17C153.25 28.5247 153.243 27.9087 153.243 27.322C153.243 26.7207 153.25 26.0973 153.265 25.452C153.324 24.1027 153.602 22.9807 154.101 22.086C154.614 21.1767 155.318 20.502 156.213 20.062C157.122 19.6073 158.171 19.38 159.359 19.38C160.562 19.38 161.61 19.6073 162.505 20.062C163.414 20.502 164.126 21.1767 164.639 22.086C165.152 22.9807 165.431 24.1027 165.475 25.452C165.504 26.0973 165.519 26.7207 165.519 27.322C165.519 27.9087 165.504 28.5247 165.475 29.17C165.431 30.534 165.16 31.6707 164.661 32.58C164.177 33.4747 163.488 34.142 162.593 34.582C161.698 35.0073 160.62 35.22 159.359 35.22ZM159.359 33.35C160.488 33.35 161.405 33.0127 162.109 32.338C162.828 31.6633 163.216 30.5707 163.275 29.06C163.304 28.4 163.319 27.8133 163.319 27.3C163.319 26.772 163.304 26.1853 163.275 25.54C163.246 24.528 163.055 23.7067 162.703 23.076C162.366 22.4453 161.911 21.9833 161.339 21.69C160.767 21.3967 160.107 21.25 159.359 21.25C158.64 21.25 157.995 21.3967 157.423 21.69C156.851 21.9833 156.389 22.4453 156.037 23.076C155.7 23.7067 155.509 24.528 155.465 25.54C155.45 26.1853 155.443 26.772 155.443 27.3C155.443 27.8133 155.45 28.4 155.465 29.06C155.524 30.5707 155.912 31.6633 156.631 32.338C157.35 33.0127 158.259 33.35 159.359 33.35ZM179.662 35.22C178.313 35.22 177.191 34.9707 176.296 34.472C175.416 33.9733 174.749 33.2767 174.294 32.382C173.839 31.4873 173.59 30.446 173.546 29.258C173.531 28.6567 173.524 28.0113 173.524 27.322C173.524 26.6327 173.531 25.9727 173.546 25.342C173.59 24.154 173.839 23.1127 174.294 22.218C174.749 21.3233 175.416 20.6267 176.296 20.128C177.191 19.6293 178.313 19.38 179.662 19.38C180.674 19.38 181.561 19.5193 182.324 19.798C183.087 20.0767 183.717 20.4507 184.216 20.92C184.729 21.3893 185.118 21.9173 185.382 22.504C185.646 23.076 185.793 23.67 185.822 24.286C185.837 24.418 185.793 24.528 185.69 24.616C185.602 24.704 185.492 24.748 185.36 24.748H184.15C184.018 24.748 183.901 24.7113 183.798 24.638C183.71 24.5647 183.644 24.4327 183.6 24.242C183.351 23.098 182.881 22.3133 182.192 21.888C181.517 21.4627 180.667 21.25 179.64 21.25C178.467 21.25 177.535 21.5873 176.846 22.262C176.157 22.922 175.783 23.9853 175.724 25.452C175.68 26.6547 175.68 27.8867 175.724 29.148C175.783 30.6147 176.157 31.6853 176.846 32.36C177.535 33.02 178.467 33.35 179.64 33.35C180.667 33.35 181.517 33.1373 182.192 32.712C182.881 32.2867 183.351 31.502 183.6 30.358C183.644 30.1673 183.71 30.0353 183.798 29.962C183.901 29.8887 184.018 29.852 184.15 29.852H185.36C185.492 29.852 185.602 29.896 185.69 29.984C185.793 30.072 185.837 30.182 185.822 30.314C185.793 30.93 185.646 31.5313 185.382 32.118C185.118 32.69 184.729 33.2107 184.216 33.68C183.717 34.1493 183.087 34.5233 182.324 34.802C181.561 35.0807 180.674 35.22 179.662 35.22ZM194.292 35.22C193.046 35.22 191.975 35.0073 191.08 34.582C190.186 34.142 189.496 33.4747 189.012 32.58C188.528 31.6707 188.257 30.534 188.198 29.17C188.184 28.5247 188.176 27.9087 188.176 27.322C188.176 26.7207 188.184 26.0973 188.198 25.452C188.257 24.1027 188.536 22.9807 189.034 22.086C189.548 21.1767 190.252 20.502 191.146 20.062C192.056 19.6073 193.104 19.38 194.292 19.38C195.495 19.38 196.544 19.6073 197.438 20.062C198.348 20.502 199.059 21.1767 199.572 22.086C200.086 22.9807 200.364 24.1027 200.408 25.452C200.438 26.0973 200.452 26.7207 200.452 27.322C200.452 27.9087 200.438 28.5247 200.408 29.17C200.364 30.534 200.093 31.6707 199.594 32.58C199.11 33.4747 198.421 34.142 197.526 34.582C196.632 35.0073 195.554 35.22 194.292 35.22ZM194.292 33.35C195.422 33.35 196.338 33.0127 197.042 32.338C197.761 31.6633 198.15 30.5707 198.208 29.06C198.238 28.4 198.252 27.8133 198.252 27.3C198.252 26.772 198.238 26.1853 198.208 25.54C198.179 24.528 197.988 23.7067 197.636 23.076C197.299 22.4453 196.844 21.9833 196.272 21.69C195.7 21.3967 195.04 21.25 194.292 21.25C193.574 21.25 192.928 21.3967 192.356 21.69C191.784 21.9833 191.322 22.4453 190.97 23.076C190.633 23.7067 190.442 24.528 190.398 25.54C190.384 26.1853 190.376 26.772 190.376 27.3C190.376 27.8133 190.384 28.4 190.398 29.06C190.457 30.5707 190.846 31.6633 191.564 32.338C192.283 33.0127 193.192 33.35 194.292 33.35ZM204.165 35C204.004 35 203.879 34.956 203.791 34.868C203.703 34.7653 203.659 34.6407 203.659 34.494V20.128C203.659 19.9667 203.703 19.842 203.791 19.754C203.879 19.6513 204.004 19.6 204.165 19.6H205.177C205.353 19.6 205.485 19.644 205.573 19.732C205.661 19.8053 205.712 19.864 205.727 19.908L213.031 31.128V20.128C213.031 19.9667 213.075 19.842 213.163 19.754C213.251 19.6513 213.376 19.6 213.537 19.6H214.593C214.754 19.6 214.879 19.6513 214.967 19.754C215.07 19.842 215.121 19.9667 215.121 20.128V34.472C215.121 34.6187 215.07 34.7433 214.967 34.846C214.879 34.9487 214.762 35 214.615 35H213.559C213.398 35 213.273 34.956 213.185 34.868C213.112 34.78 213.06 34.7213 213.031 34.692L205.749 23.582V34.494C205.749 34.6407 205.698 34.7653 205.595 34.868C205.507 34.956 205.382 35 205.221 35H204.165ZM222.807 35C222.66 35 222.535 34.956 222.433 34.868C222.345 34.7653 222.301 34.6407 222.301 34.494V21.558H218.077C217.93 21.558 217.805 21.514 217.703 21.426C217.615 21.3233 217.571 21.1987 217.571 21.052V20.128C217.571 19.9667 217.615 19.842 217.703 19.754C217.805 19.6513 217.93 19.6 218.077 19.6H228.681C228.842 19.6 228.967 19.6513 229.055 19.754C229.157 19.842 229.209 19.9667 229.209 20.128V21.052C229.209 21.1987 229.157 21.3233 229.055 21.426C228.967 21.514 228.842 21.558 228.681 21.558H224.479V34.494C224.479 34.6407 224.427 34.7653 224.325 34.868C224.237 34.956 224.112 35 223.951 35H222.807ZM232.181 35C232.019 35 231.895 34.956 231.807 34.868C231.719 34.7653 231.675 34.6407 231.675 34.494V20.106C231.675 19.9593 231.719 19.842 231.807 19.754C231.895 19.6513 232.019 19.6 232.181 19.6H233.347C233.493 19.6 233.611 19.6513 233.699 19.754C233.801 19.842 233.853 19.9593 233.853 20.106V34.494C233.853 34.6407 233.801 34.7653 233.699 34.868C233.611 34.956 233.493 35 233.347 35H232.181ZM238.196 35C238.035 35 237.91 34.956 237.822 34.868C237.734 34.7653 237.69 34.6407 237.69 34.494V20.128C237.69 19.9667 237.734 19.842 237.822 19.754C237.91 19.6513 238.035 19.6 238.196 19.6H239.208C239.384 19.6 239.516 19.644 239.604 19.732C239.692 19.8053 239.744 19.864 239.758 19.908L247.062 31.128V20.128C247.062 19.9667 247.106 19.842 247.194 19.754C247.282 19.6513 247.407 19.6 247.568 19.6H248.624C248.786 19.6 248.91 19.6513 248.998 19.754C249.101 19.842 249.152 19.9667 249.152 20.128V34.472C249.152 34.6187 249.101 34.7433 248.998 34.846C248.91 34.9487 248.793 35 248.646 35H247.59C247.429 35 247.304 34.956 247.216 34.868C247.143 34.78 247.092 34.7213 247.062 34.692L239.78 23.582V34.494C239.78 34.6407 239.729 34.7653 239.626 34.868C239.538 34.956 239.414 35 239.252 35H238.196ZM258.774 35.22C257.542 35.22 256.478 35 255.584 34.56C254.704 34.12 254.022 33.4527 253.538 32.558C253.068 31.6487 252.834 30.4827 252.834 29.06V20.128C252.834 19.9667 252.878 19.842 252.966 19.754C253.054 19.6513 253.178 19.6 253.34 19.6H254.462C254.623 19.6 254.748 19.6513 254.836 19.754C254.938 19.842 254.99 19.9667 254.99 20.128V29.104C254.99 30.5413 255.327 31.6047 256.002 32.294C256.676 32.9833 257.6 33.328 258.774 33.328C259.932 33.328 260.849 32.9833 261.524 32.294C262.213 31.6047 262.558 30.5413 262.558 29.104V20.128C262.558 19.9667 262.602 19.842 262.69 19.754C262.792 19.6513 262.917 19.6 263.064 19.6H264.208C264.354 19.6 264.472 19.6513 264.56 19.754C264.662 19.842 264.714 19.9667 264.714 20.128V29.06C264.714 30.4827 264.472 31.6487 263.988 32.558C263.518 33.4527 262.844 34.12 261.964 34.56C261.084 35 260.02 35.22 258.774 35.22ZM268.898 35C268.736 35 268.612 34.956 268.524 34.868C268.436 34.7653 268.392 34.6407 268.392 34.494V20.128C268.392 19.9667 268.436 19.842 268.524 19.754C268.612 19.6513 268.736 19.6 268.898 19.6H277.984C278.145 19.6 278.27 19.6513 278.358 19.754C278.446 19.842 278.49 19.9667 278.49 20.128V20.964C278.49 21.1253 278.446 21.25 278.358 21.338C278.27 21.426 278.145 21.47 277.984 21.47H270.504V26.288H277.5C277.661 26.288 277.786 26.3393 277.874 26.442C277.962 26.53 278.006 26.6547 278.006 26.816V27.63C278.006 27.7767 277.962 27.9013 277.874 28.004C277.786 28.092 277.661 28.136 277.5 28.136H270.504V33.13H278.16C278.321 33.13 278.446 33.174 278.534 33.262C278.622 33.35 278.666 33.4747 278.666 33.636V34.494C278.666 34.6407 278.622 34.7653 278.534 34.868C278.446 34.956 278.321 35 278.16 35H268.898ZM290.439 35C290.293 35 290.168 34.956 290.065 34.868C289.977 34.7653 289.933 34.6407 289.933 34.494V21.558H285.709C285.563 21.558 285.438 21.514 285.335 21.426C285.247 21.3233 285.203 21.1987 285.203 21.052V20.128C285.203 19.9667 285.247 19.842 285.335 19.754C285.438 19.6513 285.563 19.6 285.709 19.6H296.313C296.475 19.6 296.599 19.6513 296.687 19.754C296.79 19.842 296.841 19.9667 296.841 20.128V21.052C296.841 21.1987 296.79 21.3233 296.687 21.426C296.599 21.514 296.475 21.558 296.313 21.558H292.111V34.494C292.111 34.6407 292.06 34.7653 291.957 34.868C291.869 34.956 291.745 35 291.583 35H290.439ZM299.814 35C299.652 35 299.528 34.956 299.44 34.868C299.352 34.7653 299.308 34.6407 299.308 34.494V20.128C299.308 19.9667 299.352 19.842 299.44 19.754C299.528 19.6513 299.652 19.6 299.814 19.6H300.936C301.097 19.6 301.222 19.6513 301.31 19.754C301.412 19.842 301.464 19.9667 301.464 20.128V26.2H309.032V20.128C309.032 19.9667 309.076 19.842 309.164 19.754C309.266 19.6513 309.391 19.6 309.538 19.6H310.66C310.821 19.6 310.946 19.6513 311.034 19.754C311.136 19.842 311.188 19.9667 311.188 20.128V34.494C311.188 34.6407 311.136 34.7653 311.034 34.868C310.946 34.956 310.821 35 310.66 35H309.538C309.391 35 309.266 34.956 309.164 34.868C309.076 34.7653 309.032 34.6407 309.032 34.494V28.18H301.464V34.494C301.464 34.6407 301.412 34.7653 301.31 34.868C301.222 34.956 301.097 35 300.936 35H299.814ZM315.497 35C315.336 35 315.211 34.956 315.123 34.868C315.035 34.7653 314.991 34.6407 314.991 34.494V20.128C314.991 19.9667 315.035 19.842 315.123 19.754C315.211 19.6513 315.336 19.6 315.497 19.6H324.583C324.744 19.6 324.869 19.6513 324.957 19.754C325.045 19.842 325.089 19.9667 325.089 20.128V20.964C325.089 21.1253 325.045 21.25 324.957 21.338C324.869 21.426 324.744 21.47 324.583 21.47H317.103V26.288H324.099C324.26 26.288 324.385 26.3393 324.473 26.442C324.561 26.53 324.605 26.6547 324.605 26.816V27.63C324.605 27.7767 324.561 27.9013 324.473 28.004C324.385 28.092 324.26 28.136 324.099 28.136H317.103V33.13H324.759C324.92 33.13 325.045 33.174 325.133 33.262C325.221 33.35 325.265 33.4747 325.265 33.636V34.494C325.265 34.6407 325.221 34.7653 325.133 34.868C325.045 34.956 324.92 35 324.759 35H315.497ZM339.248 35.22C338.001 35.22 336.93 35.0073 336.036 34.582C335.141 34.142 334.452 33.4747 333.968 32.58C333.484 31.6707 333.212 30.534 333.154 29.17C333.139 28.5247 333.132 27.9087 333.132 27.322C333.132 26.7207 333.139 26.0973 333.154 25.452C333.212 24.1027 333.491 22.9807 333.99 22.086C334.503 21.1767 335.207 20.502 336.102 20.062C337.011 19.6073 338.06 19.38 339.248 19.38C340.45 19.38 341.499 19.6073 342.394 20.062C343.303 20.502 344.014 21.1767 344.528 22.086C345.041 22.9807 345.32 24.1027 345.364 25.452C345.393 26.0973 345.408 26.7207 345.408 27.322C345.408 27.9087 345.393 28.5247 345.364 29.17C345.32 30.534 345.048 31.6707 344.55 32.58C344.066 33.4747 343.376 34.142 342.482 34.582C341.587 35.0073 340.509 35.22 339.248 35.22ZM339.248 33.35C340.377 33.35 341.294 33.0127 341.998 32.338C342.716 31.6633 343.105 30.5707 343.164 29.06C343.193 28.4 343.208 27.8133 343.208 27.3C343.208 26.772 343.193 26.1853 343.164 25.54C343.134 24.528 342.944 23.7067 342.592 23.076C342.254 22.4453 341.8 21.9833 341.228 21.69C340.656 21.3967 339.996 21.25 339.248 21.25C338.529 21.25 337.884 21.3967 337.312 21.69C336.74 21.9833 336.278 22.4453 335.926 23.076C335.588 23.7067 335.398 24.528 335.354 25.54C335.339 26.1853 335.332 26.772 335.332 27.3C335.332 27.8133 335.339 28.4 335.354 29.06C335.412 30.5707 335.801 31.6633 336.52 32.338C337.238 33.0127 338.148 33.35 339.248 33.35ZM349.12 35C348.959 35 348.834 34.956 348.746 34.868C348.658 34.7653 348.614 34.6407 348.614 34.494V20.128C348.614 19.9667 348.658 19.842 348.746 19.754C348.834 19.6513 348.959 19.6 349.12 19.6H354.708C355.794 19.6 356.732 19.776 357.524 20.128C358.331 20.48 358.954 21.008 359.394 21.712C359.834 22.4013 360.054 23.2667 360.054 24.308C360.054 25.3493 359.834 26.2147 359.394 26.904C358.954 27.5933 358.331 28.114 357.524 28.466C356.732 28.818 355.794 28.994 354.708 28.994H350.814V34.494C350.814 34.6407 350.763 34.7653 350.66 34.868C350.572 34.956 350.448 35 350.286 35H349.12ZM350.792 27.146H354.598C355.684 27.146 356.498 26.904 357.04 26.42C357.583 25.936 357.854 25.232 357.854 24.308C357.854 23.3987 357.59 22.6947 357.062 22.196C356.534 21.6973 355.713 21.448 354.598 21.448H350.792V27.146ZM363.235 35C363.074 35 362.949 34.956 362.861 34.868C362.773 34.7653 362.729 34.6407 362.729 34.494V20.128C362.729 19.9667 362.773 19.842 362.861 19.754C362.949 19.6513 363.074 19.6 363.235 19.6H372.321C372.483 19.6 372.607 19.6513 372.695 19.754C372.783 19.842 372.827 19.9667 372.827 20.128V20.964C372.827 21.1253 372.783 21.25 372.695 21.338C372.607 21.426 372.483 21.47 372.321 21.47H364.841V26.288H371.837C371.999 26.288 372.123 26.3393 372.211 26.442C372.299 26.53 372.343 26.6547 372.343 26.816V27.63C372.343 27.7767 372.299 27.9013 372.211 28.004C372.123 28.092 371.999 28.136 371.837 28.136H364.841V33.13H372.497C372.659 33.13 372.783 33.174 372.871 33.262C372.959 33.35 373.003 33.4747 373.003 33.636V34.494C373.003 34.6407 372.959 34.7653 372.871 34.868C372.783 34.956 372.659 35 372.497 35H363.235ZM376.577 35C376.416 35 376.291 34.956 376.203 34.868C376.115 34.7653 376.071 34.6407 376.071 34.494V20.128C376.071 19.9667 376.115 19.842 376.203 19.754C376.291 19.6513 376.416 19.6 376.577 19.6H381.945C383.603 19.6 384.915 19.9887 385.883 20.766C386.851 21.5433 387.335 22.6947 387.335 24.22C387.335 25.3493 387.049 26.2733 386.477 26.992C385.92 27.696 385.157 28.1873 384.189 28.466L387.577 34.318C387.621 34.406 387.643 34.4867 387.643 34.56C387.643 34.6773 387.592 34.78 387.489 34.868C387.401 34.956 387.299 35 387.181 35H386.125C385.876 35 385.693 34.934 385.575 34.802C385.458 34.67 385.355 34.538 385.267 34.406L382.077 28.818H378.227V34.494C378.227 34.6407 378.176 34.7653 378.073 34.868C377.985 34.956 377.861 35 377.699 35H376.577ZM378.227 26.948H381.857C382.957 26.948 383.779 26.7207 384.321 26.266C384.864 25.7967 385.135 25.1073 385.135 24.198C385.135 23.3033 384.864 22.6213 384.321 22.152C383.793 21.6827 382.972 21.448 381.857 21.448H378.227V26.948ZM389.453 35C389.336 35 389.233 34.956 389.145 34.868C389.057 34.78 389.013 34.6773 389.013 34.56C389.013 34.4867 389.021 34.406 389.035 34.318L394.491 20.084C394.55 19.9373 394.631 19.82 394.733 19.732C394.836 19.644 394.99 19.6 395.195 19.6H396.691C396.882 19.6 397.029 19.644 397.131 19.732C397.249 19.82 397.337 19.9373 397.395 20.084L402.829 34.318C402.859 34.406 402.873 34.4867 402.873 34.56C402.873 34.6773 402.829 34.78 402.741 34.868C402.653 34.956 402.551 35 402.433 35H401.311C401.135 35 401.003 34.956 400.915 34.868C400.842 34.78 400.791 34.6993 400.761 34.626L399.551 31.502H392.335L391.125 34.626C391.111 34.6993 391.059 34.78 390.971 34.868C390.883 34.956 390.751 35 390.575 35H389.453ZM392.973 29.61H398.913L395.943 21.8L392.973 29.61ZM407.465 35C407.318 35 407.193 34.956 407.091 34.868C407.003 34.7653 406.959 34.6407 406.959 34.494V21.558H402.735C402.588 21.558 402.463 21.514 402.361 21.426C402.273 21.3233 402.229 21.1987 402.229 21.052V20.128C402.229 19.9667 402.273 19.842 402.361 19.754C402.463 19.6513 402.588 19.6 402.735 19.6H413.339C413.5 19.6 413.625 19.6513 413.713 19.754C413.815 19.842 413.867 19.9667 413.867 20.128V21.052C413.867 21.1987 413.815 21.3233 413.713 21.426C413.625 21.514 413.5 21.558 413.339 21.558H409.137V34.494C409.137 34.6407 409.085 34.7653 408.983 34.868C408.895 34.956 408.77 35 408.609 35H407.465ZM416.839 35C416.678 35 416.553 34.956 416.465 34.868C416.377 34.7653 416.333 34.6407 416.333 34.494V20.106C416.333 19.9593 416.377 19.842 416.465 19.754C416.553 19.6513 416.678 19.6 416.839 19.6H418.005C418.152 19.6 418.269 19.6513 418.357 19.754C418.46 19.842 418.511 19.9593 418.511 20.106V34.494C418.511 34.6407 418.46 34.7653 418.357 34.868C418.269 34.956 418.152 35 418.005 35H416.839ZM427.871 35.22C426.624 35.22 425.553 35.0073 424.659 34.582C423.764 34.142 423.075 33.4747 422.591 32.58C422.107 31.6707 421.835 30.534 421.777 29.17C421.762 28.5247 421.755 27.9087 421.755 27.322C421.755 26.7207 421.762 26.0973 421.777 25.452C421.835 24.1027 422.114 22.9807 422.613 22.086C423.126 21.1767 423.83 20.502 424.725 20.062C425.634 19.6073 426.683 19.38 427.871 19.38C429.073 19.38 430.122 19.6073 431.017 20.062C431.926 20.502 432.637 21.1767 433.151 22.086C433.664 22.9807 433.943 24.1027 433.987 25.452C434.016 26.0973 434.031 26.7207 434.031 27.322C434.031 27.9087 434.016 28.5247 433.987 29.17C433.943 30.534 433.671 31.6707 433.173 32.58C432.689 33.4747 431.999 34.142 431.105 34.582C430.21 35.0073 429.132 35.22 427.871 35.22ZM427.871 33.35C429 33.35 429.917 33.0127 430.621 32.338C431.339 31.6633 431.728 30.5707 431.787 29.06C431.816 28.4 431.831 27.8133 431.831 27.3C431.831 26.772 431.816 26.1853 431.787 25.54C431.757 24.528 431.567 23.7067 431.215 23.076C430.877 22.4453 430.423 21.9833 429.851 21.69C429.279 21.3967 428.619 21.25 427.871 21.25C427.152 21.25 426.507 21.3967 425.935 21.69C425.363 21.9833 424.901 22.4453 424.549 23.076C424.211 23.7067 424.021 24.528 423.977 25.54C423.962 26.1853 423.955 26.772 423.955 27.3C423.955 27.8133 423.962 28.4 423.977 29.06C424.035 30.5707 424.424 31.6633 425.143 32.338C425.861 33.0127 426.771 33.35 427.871 33.35ZM437.743 35C437.582 35 437.457 34.956 437.369 34.868C437.281 34.7653 437.237 34.6407 437.237 34.494V20.128C437.237 19.9667 437.281 19.842 437.369 19.754C437.457 19.6513 437.582 19.6 437.743 19.6H438.755C438.931 19.6 439.063 19.644 439.151 19.732C439.239 19.8053 439.291 19.864 439.305 19.908L446.609 31.128V20.128C446.609 19.9667 446.653 19.842 446.741 19.754C446.829 19.6513 446.954 19.6 447.115 19.6H448.171C448.333 19.6 448.457 19.6513 448.545 19.754C448.648 19.842 448.699 19.9667 448.699 20.128V34.472C448.699 34.6187 448.648 34.7433 448.545 34.846C448.457 34.9487 448.34 35 448.193 35H447.137C446.976 35 446.851 34.956 446.763 34.868C446.69 34.78 446.639 34.7213 446.609 34.692L439.327 23.582V34.494C439.327 34.6407 439.276 34.7653 439.173 34.868C439.085 34.956 438.961 35 438.799 35H437.743ZM457.463 35.22C456.187 35.22 455.116 35.0293 454.251 34.648C453.385 34.252 452.718 33.746 452.249 33.13C451.794 32.4993 451.552 31.832 451.523 31.128C451.523 31.0107 451.567 30.908 451.655 30.82C451.757 30.7173 451.875 30.666 452.007 30.666H453.129C453.305 30.666 453.437 30.71 453.525 30.798C453.613 30.886 453.671 30.9887 453.701 31.106C453.774 31.458 453.95 31.81 454.229 32.162C454.522 32.4993 454.925 32.7853 455.439 33.02C455.967 33.24 456.641 33.35 457.463 33.35C458.724 33.35 459.648 33.13 460.235 32.69C460.836 32.2353 461.137 31.634 461.137 30.886C461.137 30.3727 460.975 29.962 460.653 29.654C460.345 29.3313 459.868 29.0453 459.223 28.796C458.577 28.5467 457.741 28.2753 456.715 27.982C455.644 27.674 454.757 27.3367 454.053 26.97C453.349 26.6033 452.821 26.1487 452.469 25.606C452.131 25.0633 451.963 24.374 451.963 23.538C451.963 22.746 452.175 22.042 452.601 21.426C453.026 20.7953 453.635 20.2967 454.427 19.93C455.233 19.5633 456.209 19.38 457.353 19.38C458.262 19.38 459.054 19.5047 459.729 19.754C460.418 19.9887 460.99 20.3113 461.445 20.722C461.899 21.118 462.244 21.5507 462.479 22.02C462.713 22.4747 462.838 22.922 462.853 23.362C462.853 23.4647 462.816 23.5673 462.743 23.67C462.669 23.758 462.552 23.802 462.391 23.802H461.225C461.122 23.802 461.012 23.7727 460.895 23.714C460.792 23.6553 460.711 23.5453 460.653 23.384C460.565 22.7827 460.227 22.2767 459.641 21.866C459.054 21.4553 458.291 21.25 457.353 21.25C456.399 21.25 455.622 21.4333 455.021 21.8C454.434 22.1667 454.141 22.7387 454.141 23.516C454.141 24.0147 454.28 24.4327 454.559 24.77C454.837 25.0927 455.277 25.3787 455.879 25.628C456.48 25.8773 457.265 26.1413 458.233 26.42C459.406 26.7427 460.367 27.0873 461.115 27.454C461.863 27.806 462.413 28.2533 462.765 28.796C463.131 29.324 463.315 30.006 463.315 30.842C463.315 31.766 463.073 32.558 462.589 33.218C462.105 33.8633 461.423 34.362 460.543 34.714C459.677 35.0513 458.651 35.22 457.463 35.22ZM13.4913 61C13.33 61 13.2053 60.956 13.1173 60.868C13.0293 60.7653 12.9853 60.6407 12.9853 60.494V46.128C12.9853 45.9667 13.0293 45.842 13.1173 45.754C13.2053 45.6513 13.33 45.6 13.4913 45.6H22.4673C22.6286 45.6 22.7533 45.6513 22.8413 45.754C22.9293 45.842 22.9733 45.9667 22.9733 46.128V47.008C22.9733 47.1693 22.9293 47.294 22.8413 47.382C22.7533 47.47 22.6286 47.514 22.4673 47.514H15.1193V52.64H22.0273C22.1886 52.64 22.3133 52.6913 22.4013 52.794C22.4893 52.882 22.5333 53.0067 22.5333 53.168V54.048C22.5333 54.1947 22.4893 54.3193 22.4013 54.422C22.3133 54.51 22.1886 54.554 22.0273 54.554H15.1193V60.494C15.1193 60.6407 15.068 60.7653 14.9653 60.868C14.8773 60.956 14.7526 61 14.5913 61H13.4913ZM31.2475 61.22C30.0009 61.22 28.9302 61.0073 28.0355 60.582C27.1409 60.142 26.4515 59.4747 25.9675 58.58C25.4835 57.6707 25.2122 56.534 25.1535 55.17C25.1389 54.5247 25.1315 53.9087 25.1315 53.322C25.1315 52.7207 25.1389 52.0973 25.1535 51.452C25.2122 50.1027 25.4909 48.9807 25.9895 48.086C26.5029 47.1767 27.2069 46.502 28.1015 46.062C29.0109 45.6073 30.0595 45.38 31.2475 45.38C32.4502 45.38 33.4989 45.6073 34.3935 46.062C35.3029 46.502 36.0142 47.1767 36.5275 48.086C37.0409 48.9807 37.3195 50.1027 37.3635 51.452C37.3929 52.0973 37.4075 52.7207 37.4075 53.322C37.4075 53.9087 37.3929 54.5247 37.3635 55.17C37.3195 56.534 37.0482 57.6707 36.5495 58.58C36.0655 59.4747 35.3762 60.142 34.4815 60.582C33.5869 61.0073 32.5089 61.22 31.2475 61.22ZM31.2475 59.35C32.3769 59.35 33.2935 59.0127 33.9975 58.338C34.7162 57.6633 35.1049 56.5707 35.1635 55.06C35.1929 54.4 35.2075 53.8133 35.2075 53.3C35.2075 52.772 35.1929 52.1853 35.1635 51.54C35.1342 50.528 34.9435 49.7067 34.5915 49.076C34.2542 48.4453 33.7995 47.9833 33.2275 47.69C32.6555 47.3967 31.9955 47.25 31.2475 47.25C30.5289 47.25 29.8835 47.3967 29.3115 47.69C28.7395 47.9833 28.2775 48.4453 27.9255 49.076C27.5882 49.7067 27.3975 50.528 27.3535 51.54C27.3389 52.1853 27.3315 52.772 27.3315 53.3C27.3315 53.8133 27.3389 54.4 27.3535 55.06C27.4122 56.5707 27.8009 57.6633 28.5195 58.338C29.2382 59.0127 30.1475 59.35 31.2475 59.35ZM41.1202 61C40.9589 61 40.8342 60.956 40.7462 60.868C40.6582 60.7653 40.6142 60.6407 40.6142 60.494V46.128C40.6142 45.9667 40.6582 45.842 40.7462 45.754C40.8342 45.6513 40.9589 45.6 41.1202 45.6H46.4882C48.1455 45.6 49.4582 45.9887 50.4262 46.766C51.3942 47.5433 51.8782 48.6947 51.8782 50.22C51.8782 51.3493 51.5922 52.2733 51.0202 52.992C50.4629 53.696 49.7002 54.1873 48.7322 54.466L52.1202 60.318C52.1642 60.406 52.1862 60.4867 52.1862 60.56C52.1862 60.6773 52.1349 60.78 52.0322 60.868C51.9442 60.956 51.8415 61 51.7242 61H50.6682C50.4189 61 50.2355 60.934 50.1182 60.802C50.0009 60.67 49.8982 60.538 49.8102 60.406L46.6202 54.818H42.7702V60.494C42.7702 60.6407 42.7189 60.7653 42.6162 60.868C42.5282 60.956 42.4035 61 42.2422 61H41.1202ZM42.7702 52.948H46.4002C47.5002 52.948 48.3215 52.7207 48.8642 52.266C49.4069 51.7967 49.6782 51.1073 49.6782 50.198C49.6782 49.3033 49.4069 48.6213 48.8642 48.152C48.3362 47.6827 47.5149 47.448 46.4002 47.448H42.7702V52.948ZM63.7362 61C63.5895 61 63.4649 60.956 63.3622 60.868C63.2742 60.7653 63.2302 60.6407 63.2302 60.494V47.558H59.0062C58.8595 47.558 58.7349 47.514 58.6322 47.426C58.5442 47.3233 58.5002 47.1987 58.5002 47.052V46.128C58.5002 45.9667 58.5442 45.842 58.6322 45.754C58.7349 45.6513 58.8595 45.6 59.0062 45.6H69.6102C69.7715 45.6 69.8962 45.6513 69.9842 45.754C70.0869 45.842 70.1382 45.9667 70.1382 46.128V47.052C70.1382 47.1987 70.0869 47.3233 69.9842 47.426C69.8962 47.514 69.7715 47.558 69.6102 47.558H65.4082V60.494C65.4082 60.6407 65.3569 60.7653 65.2542 60.868C65.1662 60.956 65.0415 61 64.8802 61H63.7362ZM73.1104 61C72.9491 61 72.8244 60.956 72.7364 60.868C72.6484 60.7653 72.6044 60.6407 72.6044 60.494V46.128C72.6044 45.9667 72.6484 45.842 72.7364 45.754C72.8244 45.6513 72.9491 45.6 73.1104 45.6H74.2324C74.3938 45.6 74.5184 45.6513 74.6064 45.754C74.7091 45.842 74.7604 45.9667 74.7604 46.128V52.2H82.3284V46.128C82.3284 45.9667 82.3724 45.842 82.4604 45.754C82.5631 45.6513 82.6878 45.6 82.8344 45.6H83.9564C84.1178 45.6 84.2424 45.6513 84.3304 45.754C84.4331 45.842 84.4844 45.9667 84.4844 46.128V60.494C84.4844 60.6407 84.4331 60.7653 84.3304 60.868C84.2424 60.956 84.1178 61 83.9564 61H82.8344C82.6878 61 82.5631 60.956 82.4604 60.868C82.3724 60.7653 82.3284 60.6407 82.3284 60.494V54.18H74.7604V60.494C74.7604 60.6407 74.7091 60.7653 74.6064 60.868C74.5184 60.956 74.3938 61 74.2324 61H73.1104ZM88.794 61C88.6327 61 88.508 60.956 88.42 60.868C88.332 60.7653 88.288 60.6407 88.288 60.494V46.128C88.288 45.9667 88.332 45.842 88.42 45.754C88.508 45.6513 88.6327 45.6 88.794 45.6H97.88C98.0414 45.6 98.166 45.6513 98.254 45.754C98.342 45.842 98.386 45.9667 98.386 46.128V46.964C98.386 47.1253 98.342 47.25 98.254 47.338C98.166 47.426 98.0414 47.47 97.88 47.47H90.4V52.288H97.396C97.5574 52.288 97.682 52.3393 97.77 52.442C97.858 52.53 97.902 52.6547 97.902 52.816V53.63C97.902 53.7767 97.858 53.9013 97.77 54.004C97.682 54.092 97.5574 54.136 97.396 54.136H90.4V59.13H98.056C98.2174 59.13 98.342 59.174 98.43 59.262C98.518 59.35 98.562 59.4747 98.562 59.636V60.494C98.562 60.6407 98.518 60.7653 98.43 60.868C98.342 60.956 98.2174 61 98.056 61H88.794ZM106.58 61.22C105.304 61.22 104.233 61.0293 103.368 60.648C102.502 60.252 101.835 59.746 101.366 59.13C100.911 58.4993 100.669 57.832 100.64 57.128C100.64 57.0107 100.684 56.908 100.772 56.82C100.874 56.7173 100.992 56.666 101.124 56.666H102.246C102.422 56.666 102.554 56.71 102.642 56.798C102.73 56.886 102.788 56.9887 102.818 57.106C102.891 57.458 103.067 57.81 103.346 58.162C103.639 58.4993 104.042 58.7853 104.556 59.02C105.084 59.24 105.758 59.35 106.58 59.35C107.841 59.35 108.765 59.13 109.352 58.69C109.953 58.2353 110.254 57.634 110.254 56.886C110.254 56.3727 110.092 55.962 109.77 55.654C109.462 55.3313 108.985 55.0453 108.34 54.796C107.694 54.5467 106.858 54.2753 105.832 53.982C104.761 53.674 103.874 53.3367 103.17 52.97C102.466 52.6033 101.938 52.1487 101.586 51.606C101.248 51.0633 101.08 50.374 101.08 49.538C101.08 48.746 101.292 48.042 101.718 47.426C102.143 46.7953 102.752 46.2967 103.544 45.93C104.35 45.5633 105.326 45.38 106.47 45.38C107.379 45.38 108.171 45.5047 108.846 45.754C109.535 45.9887 110.107 46.3113 110.562 46.722C111.016 47.118 111.361 47.5507 111.596 48.02C111.83 48.4747 111.955 48.922 111.97 49.362C111.97 49.4647 111.933 49.5673 111.86 49.67C111.786 49.758 111.669 49.802 111.508 49.802H110.342C110.239 49.802 110.129 49.7727 110.012 49.714C109.909 49.6553 109.828 49.5453 109.77 49.384C109.682 48.7827 109.344 48.2767 108.758 47.866C108.171 47.4553 107.408 47.25 106.47 47.25C105.516 47.25 104.739 47.4333 104.138 47.8C103.551 48.1667 103.258 48.7387 103.258 49.516C103.258 50.0147 103.397 50.4327 103.676 50.77C103.954 51.0927 104.394 51.3787 104.996 51.628C105.597 51.8773 106.382 52.1413 107.35 52.42C108.523 52.7427 109.484 53.0873 110.232 53.454C110.98 53.806 111.53 54.2533 111.882 54.796C112.248 55.324 112.432 56.006 112.432 56.842C112.432 57.766 112.19 58.558 111.706 59.218C111.222 59.8633 110.54 60.362 109.66 60.714C108.794 61.0513 107.768 61.22 106.58 61.22ZM115.821 61C115.66 61 115.535 60.956 115.447 60.868C115.359 60.7653 115.315 60.6407 115.315 60.494V46.128C115.315 45.9667 115.359 45.842 115.447 45.754C115.535 45.6513 115.66 45.6 115.821 45.6H124.907C125.069 45.6 125.193 45.6513 125.281 45.754C125.369 45.842 125.413 45.9667 125.413 46.128V46.964C125.413 47.1253 125.369 47.25 125.281 47.338C125.193 47.426 125.069 47.47 124.907 47.47H117.427V52.288H124.423C124.585 52.288 124.709 52.3393 124.797 52.442C124.885 52.53 124.929 52.6547 124.929 52.816V53.63C124.929 53.7767 124.885 53.9013 124.797 54.004C124.709 54.092 124.585 54.136 124.423 54.136H117.427V59.13H125.083C125.245 59.13 125.369 59.174 125.457 59.262C125.545 59.35 125.589 59.4747 125.589 59.636V60.494C125.589 60.6407 125.545 60.7653 125.457 60.868C125.369 60.956 125.245 61 125.083 61H115.821ZM134.556 61C134.394 61 134.27 60.956 134.182 60.868C134.094 60.7653 134.05 60.6407 134.05 60.494V46.128C134.05 45.9667 134.094 45.842 134.182 45.754C134.27 45.6513 134.394 45.6 134.556 45.6H135.568C135.744 45.6 135.876 45.644 135.964 45.732C136.052 45.8053 136.103 45.864 136.118 45.908L143.422 57.128V46.128C143.422 45.9667 143.466 45.842 143.554 45.754C143.642 45.6513 143.766 45.6 143.928 45.6H144.984C145.145 45.6 145.27 45.6513 145.358 45.754C145.46 45.842 145.512 45.9667 145.512 46.128V60.472C145.512 60.6187 145.46 60.7433 145.358 60.846C145.27 60.9487 145.152 61 145.006 61H143.95C143.788 61 143.664 60.956 143.576 60.868C143.502 60.78 143.451 60.7213 143.422 60.692L136.14 49.582V60.494C136.14 60.6407 136.088 60.7653 135.986 60.868C135.898 60.956 135.773 61 135.612 61H134.556ZM154.847 61.22C153.6 61.22 152.53 61.0073 151.635 60.582C150.74 60.142 150.051 59.4747 149.567 58.58C149.083 57.6707 148.812 56.534 148.753 55.17C148.738 54.5247 148.731 53.9087 148.731 53.322C148.731 52.7207 148.738 52.0973 148.753 51.452C148.812 50.1027 149.09 48.9807 149.589 48.086C150.102 47.1767 150.806 46.502 151.701 46.062C152.61 45.6073 153.659 45.38 154.847 45.38C156.05 45.38 157.098 45.6073 157.993 46.062C158.902 46.502 159.614 47.1767 160.127 48.086C160.64 48.9807 160.919 50.1027 160.963 51.452C160.992 52.0973 161.007 52.7207 161.007 53.322C161.007 53.9087 160.992 54.5247 160.963 55.17C160.919 56.534 160.648 57.6707 160.149 58.58C159.665 59.4747 158.976 60.142 158.081 60.582C157.186 61.0073 156.108 61.22 154.847 61.22ZM154.847 59.35C155.976 59.35 156.893 59.0127 157.597 58.338C158.316 57.6633 158.704 56.5707 158.763 55.06C158.792 54.4 158.807 53.8133 158.807 53.3C158.807 52.772 158.792 52.1853 158.763 51.54C158.734 50.528 158.543 49.7067 158.191 49.076C157.854 48.4453 157.399 47.9833 156.827 47.69C156.255 47.3967 155.595 47.25 154.847 47.25C154.128 47.25 153.483 47.3967 152.911 47.69C152.339 47.9833 151.877 48.4453 151.525 49.076C151.188 49.7067 150.997 50.528 150.953 51.54C150.938 52.1853 150.931 52.772 150.931 53.3C150.931 53.8133 150.938 54.4 150.953 55.06C151.012 56.5707 151.4 57.6633 152.119 58.338C152.838 59.0127 153.747 59.35 154.847 59.35ZM164.72 61C164.558 61 164.434 60.956 164.346 60.868C164.258 60.7653 164.214 60.6407 164.214 60.494V46.128C164.214 45.9667 164.258 45.842 164.346 45.754C164.434 45.6513 164.558 45.6 164.72 45.6H165.732C165.908 45.6 166.04 45.644 166.128 45.732C166.216 45.8053 166.267 45.864 166.282 45.908L173.586 57.128V46.128C173.586 45.9667 173.63 45.842 173.718 45.754C173.806 45.6513 173.93 45.6 174.092 45.6H175.148C175.309 45.6 175.434 45.6513 175.522 45.754C175.624 45.842 175.676 45.9667 175.676 46.128V60.472C175.676 60.6187 175.624 60.7433 175.522 60.846C175.434 60.9487 175.316 61 175.17 61H174.114C173.952 61 173.828 60.956 173.74 60.868C173.666 60.78 173.615 60.7213 173.586 60.692L166.304 49.582V60.494C166.304 60.6407 166.252 60.7653 166.15 60.868C166.062 60.956 165.937 61 165.776 61H164.72ZM179.449 55.324C179.302 55.324 179.177 55.28 179.075 55.192C178.987 55.0893 178.943 54.9647 178.943 54.818V53.982C178.943 53.8353 178.987 53.718 179.075 53.63C179.177 53.5273 179.302 53.476 179.449 53.476H186.049C186.195 53.476 186.313 53.5273 186.401 53.63C186.503 53.718 186.555 53.8353 186.555 53.982V54.818C186.555 54.9647 186.503 55.0893 186.401 55.192C186.313 55.28 186.195 55.324 186.049 55.324H179.449ZM195.539 61.22C194.19 61.22 193.068 60.9707 192.173 60.472C191.293 59.9733 190.626 59.2767 190.171 58.382C189.716 57.4873 189.467 56.446 189.423 55.258C189.408 54.6567 189.401 54.0113 189.401 53.322C189.401 52.6327 189.408 51.9727 189.423 51.342C189.467 50.154 189.716 49.1127 190.171 48.218C190.626 47.3233 191.293 46.6267 192.173 46.128C193.068 45.6293 194.19 45.38 195.539 45.38C196.551 45.38 197.438 45.5193 198.201 45.798C198.964 46.0767 199.594 46.4507 200.093 46.92C200.606 47.3893 200.995 47.9173 201.259 48.504C201.523 49.076 201.67 49.67 201.699 50.286C201.714 50.418 201.67 50.528 201.567 50.616C201.479 50.704 201.369 50.748 201.237 50.748H200.027C199.895 50.748 199.778 50.7113 199.675 50.638C199.587 50.5647 199.521 50.4327 199.477 50.242C199.228 49.098 198.758 48.3133 198.069 47.888C197.394 47.4627 196.544 47.25 195.517 47.25C194.344 47.25 193.412 47.5873 192.723 48.262C192.034 48.922 191.66 49.9853 191.601 51.452C191.557 52.6547 191.557 53.8867 191.601 55.148C191.66 56.6147 192.034 57.6853 192.723 58.36C193.412 59.02 194.344 59.35 195.517 59.35C196.544 59.35 197.394 59.1373 198.069 58.712C198.758 58.2867 199.228 57.502 199.477 56.358C199.521 56.1673 199.587 56.0353 199.675 55.962C199.778 55.8887 199.895 55.852 200.027 55.852H201.237C201.369 55.852 201.479 55.896 201.567 55.984C201.67 56.072 201.714 56.182 201.699 56.314C201.67 56.93 201.523 57.5313 201.259 58.118C200.995 58.69 200.606 59.2107 200.093 59.68C199.594 60.1493 198.964 60.5233 198.201 60.802C197.438 61.0807 196.551 61.22 195.539 61.22ZM210.169 61.22C208.923 61.22 207.852 61.0073 206.957 60.582C206.063 60.142 205.373 59.4747 204.889 58.58C204.405 57.6707 204.134 56.534 204.075 55.17C204.061 54.5247 204.053 53.9087 204.053 53.322C204.053 52.7207 204.061 52.0973 204.075 51.452C204.134 50.1027 204.413 48.9807 204.911 48.086C205.425 47.1767 206.129 46.502 207.023 46.062C207.933 45.6073 208.981 45.38 210.169 45.38C211.372 45.38 212.421 45.6073 213.315 46.062C214.225 46.502 214.936 47.1767 215.449 48.086C215.963 48.9807 216.241 50.1027 216.285 51.452C216.315 52.0973 216.329 52.7207 216.329 53.322C216.329 53.9087 216.315 54.5247 216.285 55.17C216.241 56.534 215.97 57.6707 215.471 58.58C214.987 59.4747 214.298 60.142 213.403 60.582C212.509 61.0073 211.431 61.22 210.169 61.22ZM210.169 59.35C211.299 59.35 212.215 59.0127 212.919 58.338C213.638 57.6633 214.027 56.5707 214.085 55.06C214.115 54.4 214.129 53.8133 214.129 53.3C214.129 52.772 214.115 52.1853 214.085 51.54C214.056 50.528 213.865 49.7067 213.513 49.076C213.176 48.4453 212.721 47.9833 212.149 47.69C211.577 47.3967 210.917 47.25 210.169 47.25C209.451 47.25 208.805 47.3967 208.233 47.69C207.661 47.9833 207.199 48.4453 206.847 49.076C206.51 49.7067 206.319 50.528 206.275 51.54C206.261 52.1853 206.253 52.772 206.253 53.3C206.253 53.8133 206.261 54.4 206.275 55.06C206.334 56.5707 206.723 57.6633 207.441 58.338C208.16 59.0127 209.069 59.35 210.169 59.35ZM220.042 61C219.881 61 219.756 60.956 219.668 60.868C219.58 60.7653 219.536 60.6407 219.536 60.494V46.128C219.536 45.9667 219.58 45.842 219.668 45.754C219.756 45.6513 219.881 45.6 220.042 45.6H225.41C227.067 45.6 228.38 45.9887 229.348 46.766C230.316 47.5433 230.8 48.6947 230.8 50.22C230.8 51.3493 230.514 52.2733 229.942 52.992C229.385 53.696 228.622 54.1873 227.654 54.466L231.042 60.318C231.086 60.406 231.108 60.4867 231.108 60.56C231.108 60.6773 231.057 60.78 230.954 60.868C230.866 60.956 230.763 61 230.646 61H229.59C229.341 61 229.157 60.934 229.04 60.802C228.923 60.67 228.82 60.538 228.732 60.406L225.542 54.818H221.692V60.494C221.692 60.6407 221.641 60.7653 221.538 60.868C221.45 60.956 221.325 61 221.164 61H220.042ZM221.692 52.948H225.322C226.422 52.948 227.243 52.7207 227.786 52.266C228.329 51.7967 228.6 51.1073 228.6 50.198C228.6 49.3033 228.329 48.6213 227.786 48.152C227.258 47.6827 226.437 47.448 225.322 47.448H221.692V52.948ZM234.458 61C234.297 61 234.172 60.956 234.084 60.868C233.996 60.7653 233.952 60.6407 233.952 60.494V46.128C233.952 45.9667 233.996 45.842 234.084 45.754C234.172 45.6513 234.297 45.6 234.458 45.6H243.544C243.705 45.6 243.83 45.6513 243.918 45.754C244.006 45.842 244.05 45.9667 244.05 46.128V46.964C244.05 47.1253 244.006 47.25 243.918 47.338C243.83 47.426 243.705 47.47 243.544 47.47H236.064V52.288H243.06C243.221 52.288 243.346 52.3393 243.434 52.442C243.522 52.53 243.566 52.6547 243.566 52.816V53.63C243.566 53.7767 243.522 53.9013 243.434 54.004C243.346 54.092 243.221 54.136 243.06 54.136H236.064V59.13H243.72C243.881 59.13 244.006 59.174 244.094 59.262C244.182 59.35 244.226 59.4747 244.226 59.636V60.494C244.226 60.6407 244.182 60.7653 244.094 60.868C244.006 60.956 243.881 61 243.72 61H234.458ZM251.072 61C250.955 61 250.852 60.956 250.764 60.868C250.676 60.78 250.632 60.6773 250.632 60.56C250.632 60.4867 250.64 60.406 250.654 60.318L256.11 46.084C256.169 45.9373 256.25 45.82 256.352 45.732C256.455 45.644 256.609 45.6 256.814 45.6H258.31C258.501 45.6 258.648 45.644 258.75 45.732C258.868 45.82 258.956 45.9373 259.014 46.084L264.448 60.318C264.478 60.406 264.492 60.4867 264.492 60.56C264.492 60.6773 264.448 60.78 264.36 60.868C264.272 60.956 264.17 61 264.052 61H262.93C262.754 61 262.622 60.956 262.534 60.868C262.461 60.78 262.41 60.6993 262.38 60.626L261.17 57.502H253.954L252.744 60.626C252.73 60.6993 252.678 60.78 252.59 60.868C252.502 60.956 252.37 61 252.194 61H251.072ZM254.592 55.61H260.532L257.562 47.8L254.592 55.61ZM272.109 61.22C270.76 61.22 269.638 60.9707 268.743 60.472C267.863 59.9733 267.196 59.2767 266.741 58.382C266.287 57.4873 266.037 56.446 265.993 55.258C265.979 54.6567 265.971 54.0113 265.971 53.322C265.971 52.6327 265.979 51.9727 265.993 51.342C266.037 50.154 266.287 49.1127 266.741 48.218C267.196 47.3233 267.863 46.6267 268.743 46.128C269.638 45.6293 270.76 45.38 272.109 45.38C273.121 45.38 274.009 45.5193 274.771 45.798C275.534 46.0767 276.165 46.4507 276.663 46.92C277.177 47.3893 277.565 47.9173 277.829 48.504C278.093 49.076 278.24 49.67 278.269 50.286C278.284 50.418 278.24 50.528 278.137 50.616C278.049 50.704 277.939 50.748 277.807 50.748H276.597C276.465 50.748 276.348 50.7113 276.245 50.638C276.157 50.5647 276.091 50.4327 276.047 50.242C275.798 49.098 275.329 48.3133 274.639 47.888C273.965 47.4627 273.114 47.25 272.087 47.25C270.914 47.25 269.983 47.5873 269.293 48.262C268.604 48.922 268.23 49.9853 268.171 51.452C268.127 52.6547 268.127 53.8867 268.171 55.148C268.23 56.6147 268.604 57.6853 269.293 58.36C269.983 59.02 270.914 59.35 272.087 59.35C273.114 59.35 273.965 59.1373 274.639 58.712C275.329 58.2867 275.798 57.502 276.047 56.358C276.091 56.1673 276.157 56.0353 276.245 55.962C276.348 55.8887 276.465 55.852 276.597 55.852H277.807C277.939 55.852 278.049 55.896 278.137 55.984C278.24 56.072 278.284 56.182 278.269 56.314C278.24 56.93 278.093 57.5313 277.829 58.118C277.565 58.69 277.177 59.2107 276.663 59.68C276.165 60.1493 275.534 60.5233 274.771 60.802C274.009 61.0807 273.121 61.22 272.109 61.22ZM285.09 61C284.943 61 284.818 60.956 284.716 60.868C284.628 60.7653 284.584 60.6407 284.584 60.494V47.558H280.36C280.213 47.558 280.088 47.514 279.986 47.426C279.898 47.3233 279.854 47.1987 279.854 47.052V46.128C279.854 45.9667 279.898 45.842 279.986 45.754C280.088 45.6513 280.213 45.6 280.36 45.6H290.964C291.125 45.6 291.25 45.6513 291.338 45.754C291.44 45.842 291.492 45.9667 291.492 46.128V47.052C291.492 47.1987 291.44 47.3233 291.338 47.426C291.25 47.514 291.125 47.558 290.964 47.558H286.762V60.494C286.762 60.6407 286.71 60.7653 286.608 60.868C286.52 60.956 286.395 61 286.234 61H285.09ZM294.464 61C294.303 61 294.178 60.956 294.09 60.868C294.002 60.7653 293.958 60.6407 293.958 60.494V46.106C293.958 45.9593 294.002 45.842 294.09 45.754C294.178 45.6513 294.303 45.6 294.464 45.6H295.63C295.777 45.6 295.894 45.6513 295.982 45.754C296.085 45.842 296.136 45.9593 296.136 46.106V60.494C296.136 60.6407 296.085 60.7653 295.982 60.868C295.894 60.956 295.777 61 295.63 61H294.464ZM304.55 61C304.33 61 304.154 60.9487 304.022 60.846C303.904 60.7433 303.809 60.604 303.736 60.428L298.83 46.282C298.8 46.194 298.786 46.1133 298.786 46.04C298.786 45.9227 298.83 45.82 298.918 45.732C299.006 45.644 299.108 45.6 299.226 45.6H300.37C300.546 45.6 300.678 45.6513 300.766 45.754C300.868 45.842 300.927 45.9227 300.942 45.996L305.254 58.47L309.566 45.996C309.595 45.9227 309.654 45.842 309.742 45.754C309.83 45.6513 309.962 45.6 310.138 45.6H311.282C311.399 45.6 311.502 45.644 311.59 45.732C311.692 45.82 311.744 45.9227 311.744 46.04C311.744 46.1133 311.729 46.194 311.7 46.282L306.772 60.428C306.713 60.604 306.618 60.7433 306.486 60.846C306.368 60.9487 306.2 61 305.98 61H304.55ZM314.874 61C314.713 61 314.588 60.956 314.5 60.868C314.412 60.7653 314.368 60.6407 314.368 60.494V46.106C314.368 45.9593 314.412 45.842 314.5 45.754C314.588 45.6513 314.713 45.6 314.874 45.6H316.04C316.187 45.6 316.304 45.6513 316.392 45.754C316.495 45.842 316.546 45.9593 316.546 46.106V60.494C316.546 60.6407 316.495 60.7653 316.392 60.868C316.304 60.956 316.187 61 316.04 61H314.874ZM324.256 61C324.109 61 323.984 60.956 323.882 60.868C323.794 60.7653 323.75 60.6407 323.75 60.494V47.558H319.526C319.379 47.558 319.254 47.514 319.152 47.426C319.064 47.3233 319.02 47.1987 319.02 47.052V46.128C319.02 45.9667 319.064 45.842 319.152 45.754C319.254 45.6513 319.379 45.6 319.526 45.6H330.13C330.291 45.6 330.416 45.6513 330.504 45.754C330.606 45.842 330.658 45.9667 330.658 46.128V47.052C330.658 47.1987 330.606 47.3233 330.504 47.426C330.416 47.514 330.291 47.558 330.13 47.558H325.928V60.494C325.928 60.6407 325.876 60.7653 325.774 60.868C325.686 60.956 325.561 61 325.4 61H324.256ZM333.63 61C333.469 61 333.344 60.956 333.256 60.868C333.168 60.7653 333.124 60.6407 333.124 60.494V46.106C333.124 45.9593 333.168 45.842 333.256 45.754C333.344 45.6513 333.469 45.6 333.63 45.6H334.796C334.943 45.6 335.06 45.6513 335.148 45.754C335.251 45.842 335.302 45.9593 335.302 46.106V60.494C335.302 60.6407 335.251 60.7653 335.148 60.868C335.06 60.956 334.943 61 334.796 61H333.63ZM339.646 61C339.484 61 339.36 60.956 339.272 60.868C339.184 60.7653 339.14 60.6407 339.14 60.494V46.128C339.14 45.9667 339.184 45.842 339.272 45.754C339.36 45.6513 339.484 45.6 339.646 45.6H348.732C348.893 45.6 349.018 45.6513 349.106 45.754C349.194 45.842 349.238 45.9667 349.238 46.128V46.964C349.238 47.1253 349.194 47.25 349.106 47.338C349.018 47.426 348.893 47.47 348.732 47.47H341.252V52.288H348.248C348.409 52.288 348.534 52.3393 348.622 52.442C348.71 52.53 348.754 52.6547 348.754 52.816V53.63C348.754 53.7767 348.71 53.9013 348.622 54.004C348.534 54.092 348.409 54.136 348.248 54.136H341.252V59.13H348.908C349.069 59.13 349.194 59.174 349.282 59.262C349.37 59.35 349.414 59.4747 349.414 59.636V60.494C349.414 60.6407 349.37 60.7653 349.282 60.868C349.194 60.956 349.069 61 348.908 61H339.646ZM357.431 61.22C356.155 61.22 355.085 61.0293 354.219 60.648C353.354 60.252 352.687 59.746 352.217 59.13C351.763 58.4993 351.521 57.832 351.491 57.128C351.491 57.0107 351.535 56.908 351.623 56.82C351.726 56.7173 351.843 56.666 351.975 56.666H353.097C353.273 56.666 353.405 56.71 353.493 56.798C353.581 56.886 353.64 56.9887 353.669 57.106C353.743 57.458 353.919 57.81 354.197 58.162C354.491 58.4993 354.894 58.7853 355.407 59.02C355.935 59.24 356.61 59.35 357.431 59.35C358.693 59.35 359.617 59.13 360.203 58.69C360.805 58.2353 361.105 57.634 361.105 56.886C361.105 56.3727 360.944 55.962 360.621 55.654C360.313 55.3313 359.837 55.0453 359.191 54.796C358.546 54.5467 357.71 54.2753 356.683 53.982C355.613 53.674 354.725 53.3367 354.021 52.97C353.317 52.6033 352.789 52.1487 352.437 51.606C352.1 51.0633 351.931 50.374 351.931 49.538C351.931 48.746 352.144 48.042 352.569 47.426C352.995 46.7953 353.603 46.2967 354.395 45.93C355.202 45.5633 356.177 45.38 357.321 45.38C358.231 45.38 359.023 45.5047 359.697 45.754C360.387 45.9887 360.959 46.3113 361.413 46.722C361.868 47.118 362.213 47.5507 362.447 48.02C362.682 48.4747 362.807 48.922 362.821 49.362C362.821 49.4647 362.785 49.5673 362.711 49.67C362.638 49.758 362.521 49.802 362.359 49.802H361.193C361.091 49.802 360.981 49.7727 360.863 49.714C360.761 49.6553 360.68 49.5453 360.621 49.384C360.533 48.7827 360.196 48.2767 359.609 47.866C359.023 47.4553 358.26 47.25 357.321 47.25C356.368 47.25 355.591 47.4333 354.989 47.8C354.403 48.1667 354.109 48.7387 354.109 49.516C354.109 50.0147 354.249 50.4327 354.527 50.77C354.806 51.0927 355.246 51.3787 355.847 51.628C356.449 51.8773 357.233 52.1413 358.201 52.42C359.375 52.7427 360.335 53.0873 361.083 53.454C361.831 53.806 362.381 54.2533 362.733 54.796C363.1 55.324 363.283 56.006 363.283 56.842C363.283 57.766 363.041 58.558 362.557 59.218C362.073 59.8633 361.391 60.362 360.511 60.714C359.646 61.0513 358.619 61.22 357.431 61.22ZM369.945 61C369.828 61 369.725 60.956 369.637 60.868C369.549 60.78 369.505 60.6773 369.505 60.56C369.505 60.4867 369.513 60.406 369.527 60.318L374.983 46.084C375.042 45.9373 375.123 45.82 375.225 45.732C375.328 45.644 375.482 45.6 375.687 45.6H377.183C377.374 45.6 377.521 45.644 377.623 45.732C377.741 45.82 377.829 45.9373 377.887 46.084L383.321 60.318C383.351 60.406 383.365 60.4867 383.365 60.56C383.365 60.6773 383.321 60.78 383.233 60.868C383.145 60.956 383.043 61 382.925 61H381.803C381.627 61 381.495 60.956 381.407 60.868C381.334 60.78 381.283 60.6993 381.253 60.626L380.043 57.502H372.827L371.617 60.626C371.603 60.6993 371.551 60.78 371.463 60.868C371.375 60.956 371.243 61 371.067 61H369.945ZM373.465 55.61H379.405L376.435 47.8L373.465 55.61ZM390.453 61.22C389.177 61.22 388.106 61.0293 387.241 60.648C386.376 60.252 385.708 59.746 385.239 59.13C384.784 58.4993 384.542 57.832 384.513 57.128C384.513 57.0107 384.557 56.908 384.645 56.82C384.748 56.7173 384.865 56.666 384.997 56.666H386.119C386.295 56.666 386.427 56.71 386.515 56.798C386.603 56.886 386.662 56.9887 386.691 57.106C386.764 57.458 386.94 57.81 387.219 58.162C387.512 58.4993 387.916 58.7853 388.429 59.02C388.957 59.24 389.632 59.35 390.453 59.35C391.714 59.35 392.638 59.13 393.225 58.69C393.826 58.2353 394.127 57.634 394.127 56.886C394.127 56.3727 393.966 55.962 393.643 55.654C393.335 55.3313 392.858 55.0453 392.213 54.796C391.568 54.5467 390.732 54.2753 389.705 53.982C388.634 53.674 387.747 53.3367 387.043 52.97C386.339 52.6033 385.811 52.1487 385.459 51.606C385.122 51.0633 384.953 50.374 384.953 49.538C384.953 48.746 385.166 48.042 385.591 47.426C386.016 46.7953 386.625 46.2967 387.417 45.93C388.224 45.5633 389.199 45.38 390.343 45.38C391.252 45.38 392.044 45.5047 392.719 45.754C393.408 45.9887 393.98 46.3113 394.435 46.722C394.89 47.118 395.234 47.5507 395.469 48.02C395.704 48.4747 395.828 48.922 395.843 49.362C395.843 49.4647 395.806 49.5673 395.733 49.67C395.66 49.758 395.542 49.802 395.381 49.802H394.215C394.112 49.802 394.002 49.7727 393.885 49.714C393.782 49.6553 393.702 49.5453 393.643 49.384C393.555 48.7827 393.218 48.2767 392.631 47.866C392.044 47.4553 391.282 47.25 390.343 47.25C389.39 47.25 388.612 47.4333 388.011 47.8C387.424 48.1667 387.131 48.7387 387.131 49.516C387.131 50.0147 387.27 50.4327 387.549 50.77C387.828 51.0927 388.268 51.3787 388.869 51.628C389.47 51.8773 390.255 52.1413 391.223 52.42C392.396 52.7427 393.357 53.0873 394.105 53.454C394.853 53.806 395.403 54.2533 395.755 54.796C396.122 55.324 396.305 56.006 396.305 56.842C396.305 57.766 396.063 58.558 395.579 59.218C395.095 59.8633 394.413 60.362 393.533 60.714C392.668 61.0513 391.641 61.22 390.453 61.22ZM405.087 61C404.926 61 404.801 60.956 404.713 60.868C404.625 60.7653 404.581 60.6407 404.581 60.494V46.106C404.581 45.9593 404.625 45.842 404.713 45.754C404.801 45.6513 404.926 45.6 405.087 45.6H406.253C406.4 45.6 406.517 45.6513 406.605 45.754C406.708 45.842 406.759 45.9593 406.759 46.106V60.494C406.759 60.6407 406.708 60.7653 406.605 60.868C406.517 60.956 406.4 61 406.253 61H405.087ZM414.469 61C414.322 61 414.197 60.956 414.095 60.868C414.007 60.7653 413.963 60.6407 413.963 60.494V47.558H409.739C409.592 47.558 409.467 47.514 409.365 47.426C409.277 47.3233 409.233 47.1987 409.233 47.052V46.128C409.233 45.9667 409.277 45.842 409.365 45.754C409.467 45.6513 409.592 45.6 409.739 45.6H420.343C420.504 45.6 420.629 45.6513 420.717 45.754C420.819 45.842 420.871 45.9667 420.871 46.128V47.052C420.871 47.1987 420.819 47.3233 420.717 47.426C420.629 47.514 420.504 47.558 420.343 47.558H416.141V60.494C416.141 60.6407 416.089 60.7653 415.987 60.868C415.899 60.956 415.774 61 415.613 61H414.469ZM428.677 61C428.516 61 428.391 60.956 428.303 60.868C428.215 60.7653 428.171 60.6407 428.171 60.494V46.106C428.171 45.9593 428.215 45.842 428.303 45.754C428.391 45.6513 428.516 45.6 428.677 45.6H429.843C429.99 45.6 430.107 45.6513 430.195 45.754C430.298 45.842 430.349 45.9593 430.349 46.106V60.494C430.349 60.6407 430.298 60.7653 430.195 60.868C430.107 60.956 429.99 61 429.843 61H428.677ZM439.136 61.22C437.86 61.22 436.79 61.0293 435.924 60.648C435.059 60.252 434.392 59.746 433.922 59.13C433.468 58.4993 433.226 57.832 433.196 57.128C433.196 57.0107 433.24 56.908 433.328 56.82C433.431 56.7173 433.548 56.666 433.68 56.666H434.802C434.978 56.666 435.11 56.71 435.198 56.798C435.286 56.886 435.345 56.9887 435.374 57.106C435.448 57.458 435.624 57.81 435.902 58.162C436.196 58.4993 436.599 58.7853 437.112 59.02C437.64 59.24 438.315 59.35 439.136 59.35C440.398 59.35 441.322 59.13 441.908 58.69C442.51 58.2353 442.81 57.634 442.81 56.886C442.81 56.3727 442.649 55.962 442.326 55.654C442.018 55.3313 441.542 55.0453 440.896 54.796C440.251 54.5467 439.415 54.2753 438.388 53.982C437.318 53.674 436.43 53.3367 435.726 52.97C435.022 52.6033 434.494 52.1487 434.142 51.606C433.805 51.0633 433.636 50.374 433.636 49.538C433.636 48.746 433.849 48.042 434.274 47.426C434.7 46.7953 435.308 46.2967 436.1 45.93C436.907 45.5633 437.882 45.38 439.026 45.38C439.936 45.38 440.728 45.5047 441.402 45.754C442.092 45.9887 442.664 46.3113 443.118 46.722C443.573 47.118 443.918 47.5507 444.152 48.02C444.387 48.4747 444.512 48.922 444.526 49.362C444.526 49.4647 444.49 49.5673 444.416 49.67C444.343 49.758 444.226 49.802 444.064 49.802H442.898C442.796 49.802 442.686 49.7727 442.568 49.714C442.466 49.6553 442.385 49.5453 442.326 49.384C442.238 48.7827 441.901 48.2767 441.314 47.866C440.728 47.4553 439.965 47.25 439.026 47.25C438.073 47.25 437.296 47.4333 436.694 47.8C436.108 48.1667 435.814 48.7387 435.814 49.516C435.814 50.0147 435.954 50.4327 436.232 50.77C436.511 51.0927 436.951 51.3787 437.552 51.628C438.154 51.8773 438.938 52.1413 439.906 52.42C441.08 52.7427 442.04 53.0873 442.788 53.454C443.536 53.806 444.086 54.2533 444.438 54.796C444.805 55.324 444.988 56.006 444.988 56.842C444.988 57.766 444.746 58.558 444.262 59.218C443.778 59.8633 443.096 60.362 442.216 60.714C441.351 61.0513 440.324 61.22 439.136 61.22ZM451.651 61C451.533 61 451.431 60.956 451.343 60.868C451.255 60.78 451.211 60.6773 451.211 60.56C451.211 60.4867 451.218 60.406 451.233 60.318L456.689 46.084C456.747 45.9373 456.828 45.82 456.931 45.732C457.033 45.644 457.187 45.6 457.393 45.6H458.889C459.079 45.6 459.226 45.644 459.329 45.732C459.446 45.82 459.534 45.9373 459.593 46.084L465.027 60.318C465.056 60.406 465.071 60.4867 465.071 60.56C465.071 60.6773 465.027 60.78 464.939 60.868C464.851 60.956 464.748 61 464.631 61H463.509C463.333 61 463.201 60.956 463.113 60.868C463.039 60.78 462.988 60.6993 462.959 60.626L461.749 57.502H454.533L453.323 60.626C453.308 60.6993 453.257 60.78 453.169 60.868C453.081 60.956 452.949 61 452.773 61H451.651ZM455.171 55.61H461.111L458.141 47.8L455.171 55.61ZM60.8288 87.22C59.5528 87.22 58.4822 87.0293 57.6168 86.648C56.7515 86.252 56.0842 85.746 55.6148 85.13C55.1602 84.4993 54.9182 83.832 54.8888 83.128C54.8888 83.0107 54.9328 82.908 55.0208 82.82C55.1235 82.7173 55.2408 82.666 55.3728 82.666H56.4948C56.6708 82.666 56.8028 82.71 56.8908 82.798C56.9788 82.886 57.0375 82.9887 57.0668 83.106C57.1402 83.458 57.3162 83.81 57.5948 84.162C57.8882 84.4993 58.2915 84.7853 58.8048 85.02C59.3328 85.24 60.0075 85.35 60.8288 85.35C62.0902 85.35 63.0142 85.13 63.6008 84.69C64.2022 84.2353 64.5028 83.634 64.5028 82.886C64.5028 82.3727 64.3415 81.962 64.0188 81.654C63.7108 81.3313 63.2342 81.0453 62.5888 80.796C61.9435 80.5467 61.1075 80.2753 60.0808 79.982C59.0102 79.674 58.1228 79.3367 57.4188 78.97C56.7148 78.6033 56.1868 78.1487 55.8348 77.606C55.4975 77.0633 55.3288 76.374 55.3288 75.538C55.3288 74.746 55.5415 74.042 55.9668 73.426C56.3922 72.7953 57.0008 72.2967 57.7928 71.93C58.5995 71.5633 59.5748 71.38 60.7188 71.38C61.6282 71.38 62.4202 71.5047 63.0948 71.754C63.7842 71.9887 64.3562 72.3113 64.8108 72.722C65.2655 73.118 65.6102 73.5507 65.8448 74.02C66.0795 74.4747 66.2042 74.922 66.2188 75.362C66.2188 75.4647 66.1822 75.5673 66.1088 75.67C66.0355 75.758 65.9182 75.802 65.7568 75.802H64.5908C64.4882 75.802 64.3782 75.7727 64.2608 75.714C64.1582 75.6553 64.0775 75.5453 64.0188 75.384C63.9308 74.7827 63.5935 74.2767 63.0068 73.866C62.4202 73.4553 61.6575 73.25 60.7188 73.25C59.7655 73.25 58.9882 73.4333 58.3868 73.8C57.8002 74.1667 57.5068 74.7387 57.5068 75.516C57.5068 76.0147 57.6462 76.4327 57.9248 76.77C58.2035 77.0927 58.6435 77.3787 59.2448 77.628C59.8462 77.8773 60.6308 78.1413 61.5988 78.42C62.7722 78.7427 63.7328 79.0873 64.4808 79.454C65.2288 79.806 65.7788 80.2533 66.1308 80.796C66.4975 81.324 66.6808 82.006 66.6808 82.842C66.6808 83.766 66.4388 84.558 65.9548 85.218C65.4708 85.8633 64.7888 86.362 63.9088 86.714C63.0435 87.0513 62.0168 87.22 60.8288 87.22ZM75.0864 87.22C73.8397 87.22 72.7691 87.0073 71.8744 86.582C70.9797 86.142 70.2904 85.4747 69.8064 84.58C69.3224 83.6707 69.0511 82.534 68.9924 81.17C68.9777 80.5247 68.9704 79.9087 68.9704 79.322C68.9704 78.7207 68.9777 78.0973 68.9924 77.452C69.0511 76.1027 69.3297 74.9807 69.8284 74.086C70.3417 73.1767 71.0457 72.502 71.9404 72.062C72.8497 71.6073 73.8984 71.38 75.0864 71.38C76.2891 71.38 77.3377 71.6073 78.2324 72.062C79.1417 72.502 79.8531 73.1767 80.3664 74.086C80.8797 74.9807 81.1584 76.1027 81.2024 77.452C81.2317 78.0973 81.2464 78.7207 81.2464 79.322C81.2464 79.9087 81.2317 80.5247 81.2024 81.17C81.1584 82.534 80.8871 83.6707 80.3884 84.58C79.9044 85.4747 79.2151 86.142 78.3204 86.582C77.4257 87.0073 76.3477 87.22 75.0864 87.22ZM75.0864 85.35C76.2157 85.35 77.1324 85.0127 77.8364 84.338C78.5551 83.6633 78.9437 82.5707 79.0024 81.06C79.0317 80.4 79.0464 79.8133 79.0464 79.3C79.0464 78.772 79.0317 78.1853 79.0024 77.54C78.9731 76.528 78.7824 75.7067 78.4304 75.076C78.0931 74.4453 77.6384 73.9833 77.0664 73.69C76.4944 73.3967 75.8344 73.25 75.0864 73.25C74.3677 73.25 73.7224 73.3967 73.1504 73.69C72.5784 73.9833 72.1164 74.4453 71.7644 75.076C71.4271 75.7067 71.2364 76.528 71.1924 77.54C71.1777 78.1853 71.1704 78.772 71.1704 79.3C71.1704 79.8133 71.1777 80.4 71.1924 81.06C71.2511 82.5707 71.6397 83.6633 72.3584 84.338C73.0771 85.0127 73.9864 85.35 75.0864 85.35ZM90.2611 87.22C89.0291 87.22 87.9657 87 87.0711 86.56C86.1911 86.12 85.5091 85.4527 85.0251 84.558C84.5557 83.6487 84.3211 82.4827 84.3211 81.06V72.128C84.3211 71.9667 84.3651 71.842 84.4531 71.754C84.5411 71.6513 84.6657 71.6 84.8271 71.6H85.9491C86.1104 71.6 86.2351 71.6513 86.3231 71.754C86.4257 71.842 86.4771 71.9667 86.4771 72.128V81.104C86.4771 82.5413 86.8144 83.6047 87.4891 84.294C88.1637 84.9833 89.0877 85.328 90.2611 85.328C91.4197 85.328 92.3364 84.9833 93.0111 84.294C93.7004 83.6047 94.0451 82.5413 94.0451 81.104V72.128C94.0451 71.9667 94.0891 71.842 94.1771 71.754C94.2797 71.6513 94.4044 71.6 94.5511 71.6H95.6951C95.8417 71.6 95.9591 71.6513 96.0471 71.754C96.1497 71.842 96.2011 71.9667 96.2011 72.128V81.06C96.2011 82.4827 95.9591 83.6487 95.4751 84.558C95.0057 85.4527 94.3311 86.12 93.4511 86.56C92.5711 87 91.5077 87.22 90.2611 87.22ZM100.385 87C100.224 87 100.099 86.956 100.011 86.868C99.9228 86.7653 99.8788 86.6407 99.8788 86.494V72.128C99.8788 71.9667 99.9228 71.842 100.011 71.754C100.099 71.6513 100.224 71.6 100.385 71.6H105.753C107.41 71.6 108.723 71.9887 109.691 72.766C110.659 73.5433 111.143 74.6947 111.143 76.22C111.143 77.3493 110.857 78.2733 110.285 78.992C109.728 79.696 108.965 80.1873 107.997 80.466L111.385 86.318C111.429 86.406 111.451 86.4867 111.451 86.56C111.451 86.6773 111.4 86.78 111.297 86.868C111.209 86.956 111.106 87 110.989 87H109.933C109.684 87 109.5 86.934 109.383 86.802C109.266 86.67 109.163 86.538 109.075 86.406L105.885 80.818H102.035V86.494C102.035 86.6407 101.984 86.7653 101.881 86.868C101.793 86.956 101.668 87 101.507 87H100.385ZM102.035 78.948H105.665C106.765 78.948 107.586 78.7207 108.129 78.266C108.672 77.7967 108.943 77.1073 108.943 76.198C108.943 75.3033 108.672 74.6213 108.129 74.152C107.601 73.6827 106.78 73.448 105.665 73.448H102.035V78.948ZM119.817 87.22C118.468 87.22 117.346 86.9707 116.451 86.472C115.571 85.9733 114.904 85.2767 114.449 84.382C113.995 83.4873 113.745 82.446 113.701 81.258C113.687 80.6567 113.679 80.0113 113.679 79.322C113.679 78.6327 113.687 77.9727 113.701 77.342C113.745 76.154 113.995 75.1127 114.449 74.218C114.904 73.3233 115.571 72.6267 116.451 72.128C117.346 71.6293 118.468 71.38 119.817 71.38C120.829 71.38 121.717 71.5193 122.479 71.798C123.242 72.0767 123.873 72.4507 124.371 72.92C124.885 73.3893 125.273 73.9173 125.537 74.504C125.801 75.076 125.948 75.67 125.977 76.286C125.992 76.418 125.948 76.528 125.845 76.616C125.757 76.704 125.647 76.748 125.515 76.748H124.305C124.173 76.748 124.056 76.7113 123.953 76.638C123.865 76.5647 123.799 76.4327 123.755 76.242C123.506 75.098 123.037 74.3133 122.347 73.888C121.673 73.4627 120.822 73.25 119.795 73.25C118.622 73.25 117.691 73.5873 117.001 74.262C116.312 74.922 115.938 75.9853 115.879 77.452C115.835 78.6547 115.835 79.8867 115.879 81.148C115.938 82.6147 116.312 83.6853 117.001 84.36C117.691 85.02 118.622 85.35 119.795 85.35C120.822 85.35 121.673 85.1373 122.347 84.712C123.037 84.2867 123.506 83.502 123.755 82.358C123.799 82.1673 123.865 82.0353 123.953 81.962C124.056 81.8887 124.173 81.852 124.305 81.852H125.515C125.647 81.852 125.757 81.896 125.845 81.984C125.948 82.072 125.992 82.182 125.977 82.314C125.948 82.93 125.801 83.5313 125.537 84.118C125.273 84.69 124.885 85.2107 124.371 85.68C123.873 86.1493 123.242 86.5233 122.479 86.802C121.717 87.0807 120.829 87.22 119.817 87.22ZM129.432 87C129.27 87 129.146 86.956 129.058 86.868C128.97 86.7653 128.926 86.6407 128.926 86.494V72.128C128.926 71.9667 128.97 71.842 129.058 71.754C129.146 71.6513 129.27 71.6 129.432 71.6H138.518C138.679 71.6 138.804 71.6513 138.892 71.754C138.98 71.842 139.024 71.9667 139.024 72.128V72.964C139.024 73.1253 138.98 73.25 138.892 73.338C138.804 73.426 138.679 73.47 138.518 73.47H131.038V78.288H138.034C138.195 78.288 138.32 78.3393 138.408 78.442C138.496 78.53 138.54 78.6547 138.54 78.816V79.63C138.54 79.7767 138.496 79.9013 138.408 80.004C138.32 80.092 138.195 80.136 138.034 80.136H131.038V85.13H138.694C138.855 85.13 138.98 85.174 139.068 85.262C139.156 85.35 139.2 85.4747 139.2 85.636V86.494C139.2 86.6407 139.156 86.7653 139.068 86.868C138.98 86.956 138.855 87 138.694 87H129.432ZM153.182 87.22C151.935 87.22 150.865 87.0073 149.97 86.582C149.075 86.142 148.386 85.4747 147.902 84.58C147.418 83.6707 147.147 82.534 147.088 81.17C147.073 80.5247 147.066 79.9087 147.066 79.322C147.066 78.7207 147.073 78.0973 147.088 77.452C147.147 76.1027 147.425 74.9807 147.924 74.086C148.437 73.1767 149.141 72.502 150.036 72.062C150.945 71.6073 151.994 71.38 153.182 71.38C154.385 71.38 155.433 71.6073 156.328 72.062C157.237 72.502 157.949 73.1767 158.462 74.086C158.975 74.9807 159.254 76.1027 159.298 77.452C159.327 78.0973 159.342 78.7207 159.342 79.322C159.342 79.9087 159.327 80.5247 159.298 81.17C159.254 82.534 158.983 83.6707 158.484 84.58C158 85.4747 157.311 86.142 156.416 86.582C155.521 87.0073 154.443 87.22 153.182 87.22ZM153.182 85.35C154.311 85.35 155.228 85.0127 155.932 84.338C156.651 83.6633 157.039 82.5707 157.098 81.06C157.127 80.4 157.142 79.8133 157.142 79.3C157.142 78.772 157.127 78.1853 157.098 77.54C157.069 76.528 156.878 75.7067 156.526 75.076C156.189 74.4453 155.734 73.9833 155.162 73.69C154.59 73.3967 153.93 73.25 153.182 73.25C152.463 73.25 151.818 73.3967 151.246 73.69C150.674 73.9833 150.212 74.4453 149.86 75.076C149.523 75.7067 149.332 76.528 149.288 77.54C149.273 78.1853 149.266 78.772 149.266 79.3C149.266 79.8133 149.273 80.4 149.288 81.06C149.347 82.5707 149.735 83.6633 150.454 84.338C151.173 85.0127 152.082 85.35 153.182 85.35ZM163.055 87C162.893 87 162.769 86.956 162.681 86.868C162.593 86.7653 162.549 86.6407 162.549 86.494V72.128C162.549 71.9667 162.593 71.842 162.681 71.754C162.769 71.6513 162.893 71.6 163.055 71.6H172.031C172.192 71.6 172.317 71.6513 172.405 71.754C172.493 71.842 172.537 71.9667 172.537 72.128V73.008C172.537 73.1693 172.493 73.294 172.405 73.382C172.317 73.47 172.192 73.514 172.031 73.514H164.683V78.64H171.591C171.752 78.64 171.877 78.6913 171.965 78.794C172.053 78.882 172.097 79.0067 172.097 79.168V80.048C172.097 80.1947 172.053 80.3193 171.965 80.422C171.877 80.51 171.752 80.554 171.591 80.554H164.683V86.494C164.683 86.6407 164.631 86.7653 164.529 86.868C164.441 86.956 164.316 87 164.155 87H163.055ZM180.951 87C180.79 87 180.665 86.956 180.577 86.868C180.489 86.7653 180.445 86.6407 180.445 86.494V72.106C180.445 71.9593 180.489 71.842 180.577 71.754C180.665 71.6513 180.79 71.6 180.951 71.6H182.117C182.264 71.6 182.381 71.6513 182.469 71.754C182.557 71.842 182.601 71.9593 182.601 72.106V85.086H189.927C190.089 85.086 190.213 85.1373 190.301 85.24C190.389 85.328 190.433 85.4527 190.433 85.614V86.494C190.433 86.6407 190.389 86.7653 190.301 86.868C190.213 86.956 190.089 87 189.927 87H180.951ZM193.348 87C193.186 87 193.062 86.956 192.974 86.868C192.886 86.7653 192.842 86.6407 192.842 86.494V72.106C192.842 71.9593 192.886 71.842 192.974 71.754C193.062 71.6513 193.186 71.6 193.348 71.6H194.514C194.66 71.6 194.778 71.6513 194.866 71.754C194.968 71.842 195.02 71.9593 195.02 72.106V86.494C195.02 86.6407 194.968 86.7653 194.866 86.868C194.778 86.956 194.66 87 194.514 87H193.348ZM203.433 87C203.213 87 203.037 86.9487 202.905 86.846C202.788 86.7433 202.693 86.604 202.619 86.428L197.713 72.282C197.684 72.194 197.669 72.1133 197.669 72.04C197.669 71.9227 197.713 71.82 197.801 71.732C197.889 71.644 197.992 71.6 198.109 71.6H199.253C199.429 71.6 199.561 71.6513 199.649 71.754C199.752 71.842 199.811 71.9227 199.825 71.996L204.137 84.47L208.449 71.996C208.479 71.9227 208.537 71.842 208.625 71.754C208.713 71.6513 208.845 71.6 209.021 71.6H210.165C210.283 71.6 210.385 71.644 210.473 71.732C210.576 71.82 210.627 71.9227 210.627 72.04C210.627 72.1133 210.613 72.194 210.583 72.282L205.655 86.428C205.597 86.604 205.501 86.7433 205.369 86.846C205.252 86.9487 205.083 87 204.863 87H203.433ZM213.758 87C213.597 87 213.472 86.956 213.384 86.868C213.296 86.7653 213.252 86.6407 213.252 86.494V72.128C213.252 71.9667 213.296 71.842 213.384 71.754C213.472 71.6513 213.597 71.6 213.758 71.6H222.844C223.005 71.6 223.13 71.6513 223.218 71.754C223.306 71.842 223.35 71.9667 223.35 72.128V72.964C223.35 73.1253 223.306 73.25 223.218 73.338C223.13 73.426 223.005 73.47 222.844 73.47H215.364V78.288H222.36C222.521 78.288 222.646 78.3393 222.734 78.442C222.822 78.53 222.866 78.6547 222.866 78.816V79.63C222.866 79.7767 222.822 79.9013 222.734 80.004C222.646 80.092 222.521 80.136 222.36 80.136H215.364V85.13H223.02C223.181 85.13 223.306 85.174 223.394 85.262C223.482 85.35 223.526 85.4747 223.526 85.636V86.494C223.526 86.6407 223.482 86.7653 223.394 86.868C223.306 86.956 223.181 87 223.02 87H213.758ZM227.1 87C226.938 87 226.814 86.956 226.726 86.868C226.638 86.7653 226.594 86.6407 226.594 86.494V72.106C226.594 71.9593 226.638 71.842 226.726 71.754C226.814 71.6513 226.938 71.6 227.1 71.6H228.266C228.412 71.6 228.53 71.6513 228.618 71.754C228.706 71.842 228.75 71.9593 228.75 72.106V85.086H236.076C236.237 85.086 236.362 85.1373 236.45 85.24C236.538 85.328 236.582 85.4527 236.582 85.614V86.494C236.582 86.6407 236.538 86.7653 236.45 86.868C236.362 86.956 236.237 87 236.076 87H227.1ZM239.496 87C239.335 87 239.21 86.956 239.122 86.868C239.034 86.7653 238.99 86.6407 238.99 86.494V72.106C238.99 71.9593 239.034 71.842 239.122 71.754C239.21 71.6513 239.335 71.6 239.496 71.6H240.662C240.809 71.6 240.926 71.6513 241.014 71.754C241.117 71.842 241.168 71.9593 241.168 72.106V86.494C241.168 86.6407 241.117 86.7653 241.014 86.868C240.926 86.956 240.809 87 240.662 87H239.496ZM245.512 87C245.35 87 245.226 86.956 245.138 86.868C245.05 86.7653 245.006 86.6407 245.006 86.494V72.128C245.006 71.9667 245.05 71.842 245.138 71.754C245.226 71.6513 245.35 71.6 245.512 71.6H246.634C246.795 71.6 246.92 71.6513 247.008 71.754C247.11 71.842 247.162 71.9667 247.162 72.128V78.2H254.73V72.128C254.73 71.9667 254.774 71.842 254.862 71.754C254.964 71.6513 255.089 71.6 255.236 71.6H256.358C256.519 71.6 256.644 71.6513 256.732 71.754C256.834 71.842 256.886 71.9667 256.886 72.128V86.494C256.886 86.6407 256.834 86.7653 256.732 86.868C256.644 86.956 256.519 87 256.358 87H255.236C255.089 87 254.964 86.956 254.862 86.868C254.774 86.7653 254.73 86.6407 254.73 86.494V80.18H247.162V86.494C247.162 86.6407 247.11 86.7653 247.008 86.868C246.92 86.956 246.795 87 246.634 87H245.512ZM266.211 87.22C264.965 87.22 263.894 87.0073 262.999 86.582C262.105 86.142 261.415 85.4747 260.931 84.58C260.447 83.6707 260.176 82.534 260.117 81.17C260.103 80.5247 260.095 79.9087 260.095 79.322C260.095 78.7207 260.103 78.0973 260.117 77.452C260.176 76.1027 260.455 74.9807 260.953 74.086C261.467 73.1767 262.171 72.502 263.065 72.062C263.975 71.6073 265.023 71.38 266.211 71.38C267.414 71.38 268.463 71.6073 269.357 72.062C270.267 72.502 270.978 73.1767 271.491 74.086C272.005 74.9807 272.283 76.1027 272.327 77.452C272.357 78.0973 272.371 78.7207 272.371 79.322C272.371 79.9087 272.357 80.5247 272.327 81.17C272.283 82.534 272.012 83.6707 271.513 84.58C271.029 85.4747 270.34 86.142 269.445 86.582C268.551 87.0073 267.473 87.22 266.211 87.22ZM266.211 85.35C267.341 85.35 268.257 85.0127 268.961 84.338C269.68 83.6633 270.069 82.5707 270.127 81.06C270.157 80.4 270.171 79.8133 270.171 79.3C270.171 78.772 270.157 78.1853 270.127 77.54C270.098 76.528 269.907 75.7067 269.555 75.076C269.218 74.4453 268.763 73.9833 268.191 73.69C267.619 73.3967 266.959 73.25 266.211 73.25C265.493 73.25 264.847 73.3967 264.275 73.69C263.703 73.9833 263.241 74.4453 262.889 75.076C262.552 75.7067 262.361 76.528 262.317 77.54C262.303 78.1853 262.295 78.772 262.295 79.3C262.295 79.8133 262.303 80.4 262.317 81.06C262.376 82.5707 262.765 83.6633 263.483 84.338C264.202 85.0127 265.111 85.35 266.211 85.35ZM281.1 87.22C279.853 87.22 278.783 87.0073 277.888 86.582C276.993 86.142 276.304 85.4747 275.82 84.58C275.336 83.6707 275.065 82.534 275.006 81.17C274.991 80.5247 274.984 79.9087 274.984 79.322C274.984 78.7207 274.991 78.0973 275.006 77.452C275.065 76.1027 275.343 74.9807 275.842 74.086C276.355 73.1767 277.059 72.502 277.954 72.062C278.863 71.6073 279.912 71.38 281.1 71.38C282.303 71.38 283.351 71.6073 284.246 72.062C285.155 72.502 285.867 73.1767 286.38 74.086C286.893 74.9807 287.172 76.1027 287.216 77.452C287.245 78.0973 287.26 78.7207 287.26 79.322C287.26 79.9087 287.245 80.5247 287.216 81.17C287.172 82.534 286.901 83.6707 286.402 84.58C285.918 85.4747 285.229 86.142 284.334 86.582C283.439 87.0073 282.361 87.22 281.1 87.22ZM281.1 85.35C282.229 85.35 283.146 85.0127 283.85 84.338C284.569 83.6633 284.957 82.5707 285.016 81.06C285.045 80.4 285.06 79.8133 285.06 79.3C285.06 78.772 285.045 78.1853 285.016 77.54C284.987 76.528 284.796 75.7067 284.444 75.076C284.107 74.4453 283.652 73.9833 283.08 73.69C282.508 73.3967 281.848 73.25 281.1 73.25C280.381 73.25 279.736 73.3967 279.164 73.69C278.592 73.9833 278.13 74.4453 277.778 75.076C277.441 75.7067 277.25 76.528 277.206 77.54C277.191 78.1853 277.184 78.772 277.184 79.3C277.184 79.8133 277.191 80.4 277.206 81.06C277.265 82.5707 277.653 83.6633 278.372 84.338C279.091 85.0127 280 85.35 281.1 85.35ZM290.973 87C290.811 87 290.687 86.956 290.599 86.868C290.511 86.7653 290.467 86.6407 290.467 86.494V72.128C290.467 71.9667 290.511 71.842 290.599 71.754C290.687 71.6513 290.811 71.6 290.973 71.6H295.967C297.477 71.6 298.695 71.8273 299.619 72.282C300.543 72.7367 301.217 73.4113 301.643 74.306C302.068 75.186 302.288 76.2713 302.303 77.562C302.317 78.222 302.325 78.8013 302.325 79.3C302.325 79.7987 302.317 80.3707 302.303 81.016C302.273 82.3653 302.046 83.4873 301.621 84.382C301.21 85.262 300.55 85.922 299.641 86.362C298.746 86.7873 297.558 87 296.077 87H290.973ZM292.623 85.13H295.967C296.979 85.13 297.785 84.9907 298.387 84.712C298.988 84.4333 299.421 83.986 299.685 83.37C299.963 82.754 300.11 81.94 300.125 80.928C300.154 80.488 300.169 80.1067 300.169 79.784C300.169 79.4467 300.169 79.1167 300.169 78.794C300.169 78.4567 300.154 78.0753 300.125 77.65C300.095 76.2273 299.758 75.1787 299.113 74.504C298.467 73.8147 297.382 73.47 295.857 73.47H292.623V85.13ZM311.533 87C311.372 87 311.247 86.956 311.159 86.868C311.071 86.7653 311.027 86.6407 311.027 86.494V72.128C311.027 71.9667 311.071 71.842 311.159 71.754C311.247 71.6513 311.372 71.6 311.533 71.6H320.509C320.671 71.6 320.795 71.6513 320.883 71.754C320.971 71.842 321.015 71.9667 321.015 72.128V73.008C321.015 73.1693 320.971 73.294 320.883 73.382C320.795 73.47 320.671 73.514 320.509 73.514H313.161V78.64H320.069C320.231 78.64 320.355 78.6913 320.443 78.794C320.531 78.882 320.575 79.0067 320.575 79.168V80.048C320.575 80.1947 320.531 80.3193 320.443 80.422C320.355 80.51 320.231 80.554 320.069 80.554H313.161V86.494C313.161 86.6407 313.11 86.7653 313.007 86.868C312.919 86.956 312.795 87 312.633 87H311.533ZM329.29 87.22C328.043 87.22 326.972 87.0073 326.078 86.582C325.183 86.142 324.494 85.4747 324.01 84.58C323.526 83.6707 323.254 82.534 323.196 81.17C323.181 80.5247 323.174 79.9087 323.174 79.322C323.174 78.7207 323.181 78.0973 323.196 77.452C323.254 76.1027 323.533 74.9807 324.032 74.086C324.545 73.1767 325.249 72.502 326.144 72.062C327.053 71.6073 328.102 71.38 329.29 71.38C330.492 71.38 331.541 71.6073 332.436 72.062C333.345 72.502 334.056 73.1767 334.57 74.086C335.083 74.9807 335.362 76.1027 335.406 77.452C335.435 78.0973 335.45 78.7207 335.45 79.322C335.45 79.9087 335.435 80.5247 335.406 81.17C335.362 82.534 335.09 83.6707 334.592 84.58C334.108 85.4747 333.418 86.142 332.524 86.582C331.629 87.0073 330.551 87.22 329.29 87.22ZM329.29 85.35C330.419 85.35 331.336 85.0127 332.04 84.338C332.758 83.6633 333.147 82.5707 333.206 81.06C333.235 80.4 333.25 79.8133 333.25 79.3C333.25 78.772 333.235 78.1853 333.206 77.54C333.176 76.528 332.986 75.7067 332.634 75.076C332.296 74.4453 331.842 73.9833 331.27 73.69C330.698 73.3967 330.038 73.25 329.29 73.25C328.571 73.25 327.926 73.3967 327.354 73.69C326.782 73.9833 326.32 74.4453 325.968 75.076C325.63 75.7067 325.44 76.528 325.396 77.54C325.381 78.1853 325.374 78.772 325.374 79.3C325.374 79.8133 325.381 80.4 325.396 81.06C325.454 82.5707 325.843 83.6633 326.562 84.338C327.28 85.0127 328.19 85.35 329.29 85.35ZM339.162 87C339.001 87 338.876 86.956 338.788 86.868C338.7 86.7653 338.656 86.6407 338.656 86.494V72.128C338.656 71.9667 338.7 71.842 338.788 71.754C338.876 71.6513 339.001 71.6 339.162 71.6H344.53C346.188 71.6 347.5 71.9887 348.468 72.766C349.436 73.5433 349.92 74.6947 349.92 76.22C349.92 77.3493 349.634 78.2733 349.062 78.992C348.505 79.696 347.742 80.1873 346.774 80.466L350.162 86.318C350.206 86.406 350.228 86.4867 350.228 86.56C350.228 86.6773 350.177 86.78 350.074 86.868C349.986 86.956 349.884 87 349.766 87H348.71C348.461 87 348.278 86.934 348.16 86.802C348.043 86.67 347.94 86.538 347.852 86.406L344.662 80.818H340.812V86.494C340.812 86.6407 340.761 86.7653 340.658 86.868C340.57 86.956 340.446 87 340.284 87H339.162ZM340.812 78.948H344.442C345.542 78.948 346.364 78.7207 346.906 78.266C347.449 77.7967 347.72 77.1073 347.72 76.198C347.72 75.3033 347.449 74.6213 346.906 74.152C346.378 73.6827 345.557 73.448 344.442 73.448H340.812V78.948ZM358.971 87C358.824 87 358.699 86.956 358.597 86.868C358.509 86.7653 358.465 86.6407 358.465 86.494V72.128C358.465 71.9667 358.509 71.842 358.597 71.754C358.699 71.6513 358.824 71.6 358.971 71.6H360.071C360.247 71.6 360.379 71.644 360.467 71.732C360.555 71.82 360.606 71.8933 360.621 71.952L365.285 80.84L369.971 71.952C370 71.8933 370.051 71.82 370.125 71.732C370.213 71.644 370.345 71.6 370.521 71.6H371.599C371.76 71.6 371.885 71.6513 371.973 71.754C372.075 71.842 372.127 71.9667 372.127 72.128V86.494C372.127 86.6407 372.075 86.7653 371.973 86.868C371.885 86.956 371.76 87 371.599 87H370.521C370.374 87 370.249 86.956 370.147 86.868C370.059 86.7653 370.015 86.6407 370.015 86.494V75.67L366.341 82.842C366.282 82.9887 366.194 83.106 366.077 83.194C365.959 83.2673 365.813 83.304 365.637 83.304H364.955C364.764 83.304 364.61 83.2673 364.493 83.194C364.39 83.106 364.302 82.9887 364.229 82.842L360.555 75.67V86.494C360.555 86.6407 360.503 86.7653 360.401 86.868C360.313 86.956 360.195 87 360.049 87H358.971ZM374.898 87C374.78 87 374.678 86.956 374.59 86.868C374.502 86.78 374.458 86.6773 374.458 86.56C374.458 86.4867 374.465 86.406 374.48 86.318L379.936 72.084C379.994 71.9373 380.075 71.82 380.178 71.732C380.28 71.644 380.434 71.6 380.64 71.6H382.136C382.326 71.6 382.473 71.644 382.576 71.732C382.693 71.82 382.781 71.9373 382.84 72.084L388.274 86.318C388.303 86.406 388.318 86.4867 388.318 86.56C388.318 86.6773 388.274 86.78 388.186 86.868C388.098 86.956 387.995 87 387.878 87H386.756C386.58 87 386.448 86.956 386.36 86.868C386.286 86.78 386.235 86.6993 386.206 86.626L384.996 83.502H377.78L376.57 86.626C376.555 86.6993 376.504 86.78 376.416 86.868C376.328 86.956 376.196 87 376.02 87H374.898ZM378.418 81.61H384.358L381.388 73.8L378.418 81.61ZM391.176 87C391.015 87 390.89 86.956 390.802 86.868C390.714 86.7653 390.67 86.6407 390.67 86.494V72.128C390.67 71.9667 390.714 71.842 390.802 71.754C390.89 71.6513 391.015 71.6 391.176 71.6H392.188C392.364 71.6 392.496 71.644 392.584 71.732C392.672 71.8053 392.723 71.864 392.738 71.908L400.042 83.128V72.128C400.042 71.9667 400.086 71.842 400.174 71.754C400.262 71.6513 400.387 71.6 400.548 71.6H401.604C401.765 71.6 401.89 71.6513 401.978 71.754C402.081 71.842 402.132 71.9667 402.132 72.128V86.472C402.132 86.6187 402.081 86.7433 401.978 86.846C401.89 86.9487 401.773 87 401.626 87H400.57C400.409 87 400.284 86.956 400.196 86.868C400.123 86.78 400.071 86.7213 400.042 86.692L392.76 75.582V86.494C392.76 86.6407 392.709 86.7653 392.606 86.868C392.518 86.956 392.393 87 392.232 87H391.176ZM410.565 87C410.419 87 410.294 86.956 410.191 86.868C410.103 86.7653 410.059 86.6407 410.059 86.494V81.302L404.757 72.326C404.743 72.282 404.728 72.238 404.713 72.194C404.699 72.15 404.691 72.0987 404.691 72.04C404.691 71.9227 404.735 71.82 404.823 71.732C404.911 71.644 405.014 71.6 405.131 71.6H406.275C406.407 71.6 406.525 71.6367 406.627 71.71C406.73 71.7687 406.803 71.8567 406.847 71.974L411.137 79.102L415.427 71.974C415.501 71.8567 415.581 71.7687 415.669 71.71C415.772 71.6367 415.889 71.6 416.021 71.6H417.143C417.275 71.6 417.385 71.644 417.473 71.732C417.561 71.82 417.605 71.9227 417.605 72.04C417.605 72.0987 417.598 72.15 417.583 72.194C417.569 72.238 417.547 72.282 417.517 72.326L412.237 81.302V86.494C412.237 86.6407 412.186 86.7653 412.083 86.868C411.995 86.956 411.871 87 411.709 87H410.565ZM418.472 87C418.326 87 418.201 86.956 418.098 86.868C418.01 86.7653 417.966 86.6407 417.966 86.494V84.91C417.966 84.7633 418.01 84.646 418.098 84.558C418.201 84.4553 418.326 84.404 418.472 84.404H420.056C420.203 84.404 420.32 84.4553 420.408 84.558C420.511 84.646 420.562 84.7633 420.562 84.91V86.494C420.562 86.6407 420.511 86.7653 420.408 86.868C420.32 86.956 420.203 87 420.056 87H418.472Z" fill="white"/>
</svg>
