<svg width="476" height="117" viewBox="0 0 476 117" fill="none" xmlns="http://www.w3.org/2000/svg">
<path d="M461.412 2H14.5876C7.63565 2 2 9.38831 2 18.5022V60.4978C2 69.6117 7.63565 77 14.5876 77H461.412C468.364 77 474 69.6117 474 60.4978V18.5022C474 9.38831 468.364 2 461.412 2Z" stroke="#BE2200" stroke-width="4" stroke-miterlimit="10"/>
<path d="M44.8944 34C44.7477 34 44.6231 33.956 44.5204 33.868C44.4324 33.7653 44.3884 33.6407 44.3884 33.494V20.558H40.1644C40.0177 20.558 39.8931 20.514 39.7904 20.426C39.7024 20.3233 39.6584 20.1987 39.6584 20.052V19.128C39.6584 18.9667 39.7024 18.842 39.7904 18.754C39.8931 18.6513 40.0177 18.6 40.1644 18.6H50.7684C50.9297 18.6 51.0544 18.6513 51.1424 18.754C51.2451 18.842 51.2964 18.9667 51.2964 19.128V20.052C51.2964 20.1987 51.2451 20.3233 51.1424 20.426C51.0544 20.514 50.9297 20.558 50.7684 20.558H46.5664V33.494C46.5664 33.6407 46.5151 33.7653 46.4124 33.868C46.3244 33.956 46.1997 34 46.0384 34H44.8944ZM58.6267 34.22C57.3507 34.22 56.28 34.0293 55.4147 33.648C54.5494 33.252 53.882 32.746 53.4127 32.13C52.958 31.4993 52.716 30.832 52.6867 30.128C52.6867 30.0107 52.7307 29.908 52.8187 29.82C52.9214 29.7173 53.0387 29.666 53.1707 29.666H54.2927C54.4687 29.666 54.6007 29.71 54.6887 29.798C54.7767 29.886 54.8354 29.9887 54.8647 30.106C54.938 30.458 55.114 30.81 55.3927 31.162C55.686 31.4993 56.0894 31.7853 56.6027 32.02C57.1307 32.24 57.8054 32.35 58.6267 32.35C59.888 32.35 60.812 32.13 61.3987 31.69C62 31.2353 62.3007 30.634 62.3007 29.886C62.3007 29.3727 62.1394 28.962 61.8167 28.654C61.5087 28.3313 61.032 28.0453 60.3867 27.796C59.7414 27.5467 58.9054 27.2753 57.8787 26.982C56.808 26.674 55.9207 26.3367 55.2167 25.97C54.5127 25.6033 53.9847 25.1487 53.6327 24.606C53.2954 24.0633 53.1267 23.374 53.1267 22.538C53.1267 21.746 53.3394 21.042 53.7647 20.426C54.19 19.7953 54.7987 19.2967 55.5907 18.93C56.3974 18.5633 57.3727 18.38 58.5167 18.38C59.426 18.38 60.218 18.5047 60.8927 18.754C61.582 18.9887 62.154 19.3113 62.6087 19.722C63.0634 20.118 63.408 20.5507 63.6427 21.02C63.8774 21.4747 64.002 21.922 64.0167 22.362C64.0167 22.4647 63.98 22.5673 63.9067 22.67C63.8334 22.758 63.716 22.802 63.5547 22.802H62.3887C62.286 22.802 62.176 22.7727 62.0587 22.714C61.956 22.6553 61.8754 22.5453 61.8167 22.384C61.7287 21.7827 61.3914 21.2767 60.8047 20.866C60.218 20.4553 59.4554 20.25 58.5167 20.25C57.5634 20.25 56.786 20.4333 56.1847 20.8C55.598 21.1667 55.3047 21.7387 55.3047 22.516C55.3047 23.0147 55.444 23.4327 55.7227 23.77C56.0014 24.0927 56.4414 24.3787 57.0427 24.628C57.644 24.8773 58.4287 25.1413 59.3967 25.42C60.57 25.7427 61.5307 26.0873 62.2787 26.454C63.0267 26.806 63.5767 27.2533 63.9287 27.796C64.2954 28.324 64.4787 29.006 64.4787 29.842C64.4787 30.766 64.2367 31.558 63.7527 32.218C63.2687 32.8633 62.5867 33.362 61.7067 33.714C60.8414 34.0513 59.8147 34.22 58.6267 34.22ZM73.2608 34C73.0995 34 72.9748 33.956 72.8868 33.868C72.7988 33.7653 72.7548 33.6407 72.7548 33.494V19.128C72.7548 18.9667 72.7988 18.842 72.8868 18.754C72.9748 18.6513 73.0995 18.6 73.2608 18.6H78.2548C79.7655 18.6 80.9828 18.8273 81.9068 19.282C82.8308 19.7367 83.5055 20.4113 83.9308 21.306C84.3562 22.186 84.5762 23.2713 84.5908 24.562C84.6055 25.222 84.6128 25.8013 84.6128 26.3C84.6128 26.7987 84.6055 27.3707 84.5908 28.016C84.5615 29.3653 84.3342 30.4873 83.9088 31.382C83.4982 32.262 82.8382 32.922 81.9288 33.362C81.0342 33.7873 79.8462 34 78.3648 34H73.2608ZM74.9108 32.13H78.2548C79.2668 32.13 80.0735 31.9907 80.6748 31.712C81.2762 31.4333 81.7088 30.986 81.9728 30.37C82.2515 29.754 82.3982 28.94 82.4128 27.928C82.4422 27.488 82.4568 27.1067 82.4568 26.784C82.4568 26.4467 82.4568 26.1167 82.4568 25.794C82.4568 25.4567 82.4422 25.0753 82.4128 24.65C82.3835 23.2273 82.0462 22.1787 81.4008 21.504C80.7555 20.8147 79.6702 20.47 78.1448 20.47H74.9108V32.13ZM88.4288 34C88.2675 34 88.1428 33.956 88.0548 33.868C87.9668 33.7653 87.9228 33.6407 87.9228 33.494V19.128C87.9228 18.9667 87.9668 18.842 88.0548 18.754C88.1428 18.6513 88.2675 18.6 88.4288 18.6H97.5148C97.6761 18.6 97.8008 18.6513 97.8888 18.754C97.9768 18.842 98.0208 18.9667 98.0208 19.128V19.964C98.0208 20.1253 97.9768 20.25 97.8888 20.338C97.8008 20.426 97.6761 20.47 97.5148 20.47H90.0348V25.288H97.0308C97.1921 25.288 97.3168 25.3393 97.4048 25.442C97.4928 25.53 97.5368 25.6547 97.5368 25.816V26.63C97.5368 26.7767 97.4928 26.9013 97.4048 27.004C97.3168 27.092 97.1921 27.136 97.0308 27.136H90.0348V32.13H97.6908C97.8521 32.13 97.9768 32.174 98.0648 32.262C98.1528 32.35 98.1968 32.4747 98.1968 32.636V33.494C98.1968 33.6407 98.1528 33.7653 98.0648 33.868C97.9768 33.956 97.8521 34 97.6908 34H88.4288ZM106.658 34.22C105.309 34.22 104.187 33.9707 103.292 33.472C102.412 32.9733 101.745 32.2767 101.29 31.382C100.836 30.4873 100.586 29.446 100.542 28.258C100.528 27.6567 100.52 27.0113 100.52 26.322C100.52 25.6327 100.528 24.9727 100.542 24.342C100.586 23.154 100.836 22.1127 101.29 21.218C101.745 20.3233 102.412 19.6267 103.292 19.128C104.187 18.6293 105.309 18.38 106.658 18.38C107.67 18.38 108.558 18.5193 109.32 18.798C110.083 19.0767 110.714 19.4507 111.212 19.92C111.726 20.3893 112.114 20.9173 112.378 21.504C112.642 22.076 112.789 22.67 112.818 23.286C112.833 23.418 112.789 23.528 112.686 23.616C112.598 23.704 112.488 23.748 112.356 23.748H111.146C111.014 23.748 110.897 23.7113 110.794 23.638C110.706 23.5647 110.64 23.4327 110.596 23.242C110.347 22.098 109.878 21.3133 109.188 20.888C108.514 20.4627 107.663 20.25 106.636 20.25C105.463 20.25 104.532 20.5873 103.842 21.262C103.153 21.922 102.779 22.9853 102.72 24.452C102.676 25.6547 102.676 26.8867 102.72 28.148C102.779 29.6147 103.153 30.6853 103.842 31.36C104.532 32.02 105.463 32.35 106.636 32.35C107.663 32.35 108.514 32.1373 109.188 31.712C109.878 31.2867 110.347 30.502 110.596 29.358C110.64 29.1673 110.706 29.0353 110.794 28.962C110.897 28.8887 111.014 28.852 111.146 28.852H112.356C112.488 28.852 112.598 28.896 112.686 28.984C112.789 29.072 112.833 29.182 112.818 29.314C112.789 29.93 112.642 30.5313 112.378 31.118C112.114 31.69 111.726 32.2107 111.212 32.68C110.714 33.1493 110.083 33.5233 109.32 33.802C108.558 34.0807 107.67 34.22 106.658 34.22ZM116.273 34C116.111 34 115.987 33.956 115.899 33.868C115.811 33.7653 115.767 33.6407 115.767 33.494V19.106C115.767 18.9593 115.811 18.842 115.899 18.754C115.987 18.6513 116.111 18.6 116.273 18.6H117.439C117.585 18.6 117.703 18.6513 117.791 18.754C117.893 18.842 117.945 18.9593 117.945 19.106V33.494C117.945 33.6407 117.893 33.7653 117.791 33.868C117.703 33.956 117.585 34 117.439 34H116.273ZM122.288 34C122.127 34 122.002 33.956 121.914 33.868C121.826 33.7653 121.782 33.6407 121.782 33.494V19.128C121.782 18.9667 121.826 18.842 121.914 18.754C122.002 18.6513 122.127 18.6 122.288 18.6H127.282C128.793 18.6 130.01 18.8273 130.934 19.282C131.858 19.7367 132.533 20.4113 132.958 21.306C133.383 22.186 133.603 23.2713 133.618 24.562C133.633 25.222 133.64 25.8013 133.64 26.3C133.64 26.7987 133.633 27.3707 133.618 28.016C133.589 29.3653 133.361 30.4873 132.936 31.382C132.525 32.262 131.865 32.922 130.956 33.362C130.061 33.7873 128.873 34 127.392 34H122.288ZM123.938 32.13H127.282C128.294 32.13 129.101 31.9907 129.702 31.712C130.303 31.4333 130.736 30.986 131 30.37C131.279 29.754 131.425 28.94 131.44 27.928C131.469 27.488 131.484 27.1067 131.484 26.784C131.484 26.4467 131.484 26.1167 131.484 25.794C131.484 25.4567 131.469 25.0753 131.44 24.65C131.411 23.2273 131.073 22.1787 130.428 21.504C129.783 20.8147 128.697 20.47 127.172 20.47H123.938V32.13ZM137.456 34C137.295 34 137.17 33.956 137.082 33.868C136.994 33.7653 136.95 33.6407 136.95 33.494V19.128C136.95 18.9667 136.994 18.842 137.082 18.754C137.17 18.6513 137.295 18.6 137.456 18.6H146.542C146.703 18.6 146.828 18.6513 146.916 18.754C147.004 18.842 147.048 18.9667 147.048 19.128V19.964C147.048 20.1253 147.004 20.25 146.916 20.338C146.828 20.426 146.703 20.47 146.542 20.47H139.062V25.288H146.058C146.219 25.288 146.344 25.3393 146.432 25.442C146.52 25.53 146.564 25.6547 146.564 25.816V26.63C146.564 26.7767 146.52 26.9013 146.432 27.004C146.344 27.092 146.219 27.136 146.058 27.136H139.062V32.13H146.718C146.879 32.13 147.004 32.174 147.092 32.262C147.18 32.35 147.224 32.4747 147.224 32.636V33.494C147.224 33.6407 147.18 33.7653 147.092 33.868C147.004 33.956 146.879 34 146.718 34H137.456ZM155.242 34.22C153.966 34.22 152.895 34.0293 152.03 33.648C151.165 33.252 150.497 32.746 150.028 32.13C149.573 31.4993 149.331 30.832 149.302 30.128C149.302 30.0107 149.346 29.908 149.434 29.82C149.537 29.7173 149.654 29.666 149.786 29.666H150.908C151.084 29.666 151.216 29.71 151.304 29.798C151.392 29.886 151.451 29.9887 151.48 30.106C151.553 30.458 151.729 30.81 152.008 31.162C152.301 31.4993 152.705 31.7853 153.218 32.02C153.746 32.24 154.421 32.35 155.242 32.35C156.503 32.35 157.427 32.13 158.014 31.69C158.615 31.2353 158.916 30.634 158.916 29.886C158.916 29.3727 158.755 28.962 158.432 28.654C158.124 28.3313 157.647 28.0453 157.002 27.796C156.357 27.5467 155.521 27.2753 154.494 26.982C153.423 26.674 152.536 26.3367 151.832 25.97C151.128 25.6033 150.6 25.1487 150.248 24.606C149.911 24.0633 149.742 23.374 149.742 22.538C149.742 21.746 149.955 21.042 150.38 20.426C150.805 19.7953 151.414 19.2967 152.206 18.93C153.013 18.5633 153.988 18.38 155.132 18.38C156.041 18.38 156.833 18.5047 157.508 18.754C158.197 18.9887 158.769 19.3113 159.224 19.722C159.679 20.118 160.023 20.5507 160.258 21.02C160.493 21.4747 160.617 21.922 160.632 22.362C160.632 22.4647 160.595 22.5673 160.522 22.67C160.449 22.758 160.331 22.802 160.17 22.802H159.004C158.901 22.802 158.791 22.7727 158.674 22.714C158.571 22.6553 158.491 22.5453 158.432 22.384C158.344 21.7827 158.007 21.2767 157.42 20.866C156.833 20.4553 156.071 20.25 155.132 20.25C154.179 20.25 153.401 20.4333 152.8 20.8C152.213 21.1667 151.92 21.7387 151.92 22.516C151.92 23.0147 152.059 23.4327 152.338 23.77C152.617 24.0927 153.057 24.3787 153.658 24.628C154.259 24.8773 155.044 25.1413 156.012 25.42C157.185 25.7427 158.146 26.0873 158.894 26.454C159.642 26.806 160.192 27.2533 160.544 27.796C160.911 28.324 161.094 29.006 161.094 29.842C161.094 30.766 160.852 31.558 160.368 32.218C159.884 32.8633 159.202 33.362 158.322 33.714C157.457 34.0513 156.43 34.22 155.242 34.22ZM172.683 34C172.537 34 172.412 33.956 172.309 33.868C172.221 33.7653 172.177 33.6407 172.177 33.494V20.558H167.953C167.807 20.558 167.682 20.514 167.579 20.426C167.491 20.3233 167.447 20.1987 167.447 20.052V19.128C167.447 18.9667 167.491 18.842 167.579 18.754C167.682 18.6513 167.807 18.6 167.953 18.6H178.557C178.719 18.6 178.843 18.6513 178.931 18.754C179.034 18.842 179.085 18.9667 179.085 19.128V20.052C179.085 20.1987 179.034 20.3233 178.931 20.426C178.843 20.514 178.719 20.558 178.557 20.558H174.355V33.494C174.355 33.6407 174.304 33.7653 174.201 33.868C174.113 33.956 173.989 34 173.827 34H172.683ZM186.751 34.22C185.505 34.22 184.434 34.0073 183.539 33.582C182.645 33.142 181.955 32.4747 181.471 31.58C180.987 30.6707 180.716 29.534 180.657 28.17C180.643 27.5247 180.635 26.9087 180.635 26.322C180.635 25.7207 180.643 25.0973 180.657 24.452C180.716 23.1027 180.995 21.9807 181.493 21.086C182.007 20.1767 182.711 19.502 183.605 19.062C184.515 18.6073 185.563 18.38 186.751 18.38C187.954 18.38 189.003 18.6073 189.897 19.062C190.807 19.502 191.518 20.1767 192.031 21.086C192.545 21.9807 192.823 23.1027 192.867 24.452C192.897 25.0973 192.911 25.7207 192.911 26.322C192.911 26.9087 192.897 27.5247 192.867 28.17C192.823 29.534 192.552 30.6707 192.053 31.58C191.569 32.4747 190.88 33.142 189.985 33.582C189.091 34.0073 188.013 34.22 186.751 34.22ZM186.751 32.35C187.881 32.35 188.797 32.0127 189.501 31.338C190.22 30.6633 190.609 29.5707 190.667 28.06C190.697 27.4 190.711 26.8133 190.711 26.3C190.711 25.772 190.697 25.1853 190.667 24.54C190.638 23.528 190.447 22.7067 190.095 22.076C189.758 21.4453 189.303 20.9833 188.731 20.69C188.159 20.3967 187.499 20.25 186.751 20.25C186.033 20.25 185.387 20.3967 184.815 20.69C184.243 20.9833 183.781 21.4453 183.429 22.076C183.092 22.7067 182.901 23.528 182.857 24.54C182.843 25.1853 182.835 25.772 182.835 26.3C182.835 26.8133 182.843 27.4 182.857 28.06C182.916 29.5707 183.305 30.6633 184.023 31.338C184.742 32.0127 185.651 32.35 186.751 32.35ZM207.033 34.22C205.786 34.22 204.715 34.0073 203.821 33.582C202.926 33.142 202.237 32.4747 201.753 31.58C201.269 30.6707 200.997 29.534 200.939 28.17C200.924 27.5247 200.917 26.9087 200.917 26.322C200.917 25.7207 200.924 25.0973 200.939 24.452C200.997 23.1027 201.276 21.9807 201.775 21.086C202.288 20.1767 202.992 19.502 203.887 19.062C204.796 18.6073 205.845 18.38 207.033 18.38C208.235 18.38 209.284 18.6073 210.179 19.062C211.088 19.502 211.799 20.1767 212.313 21.086C212.826 21.9807 213.105 23.1027 213.149 24.452C213.178 25.0973 213.193 25.7207 213.193 26.322C213.193 26.9087 213.178 27.5247 213.149 28.17C213.105 29.534 212.833 30.6707 212.335 31.58C211.851 32.4747 211.161 33.142 210.267 33.582C209.372 34.0073 208.294 34.22 207.033 34.22ZM207.033 32.35C208.162 32.35 209.079 32.0127 209.783 31.338C210.501 30.6633 210.89 29.5707 210.949 28.06C210.978 27.4 210.993 26.8133 210.993 26.3C210.993 25.772 210.978 25.1853 210.949 24.54C210.919 23.528 210.729 22.7067 210.377 22.076C210.039 21.4453 209.585 20.9833 209.013 20.69C208.441 20.3967 207.781 20.25 207.033 20.25C206.314 20.25 205.669 20.3967 205.097 20.69C204.525 20.9833 204.063 21.4453 203.711 22.076C203.373 22.7067 203.183 23.528 203.139 24.54C203.124 25.1853 203.117 25.772 203.117 26.3C203.117 26.8133 203.124 27.4 203.139 28.06C203.197 29.5707 203.586 30.6633 204.305 31.338C205.023 32.0127 205.933 32.35 207.033 32.35ZM222.207 34.22C220.975 34.22 219.912 34 219.017 33.56C218.137 33.12 217.455 32.4527 216.971 31.558C216.502 30.6487 216.267 29.4827 216.267 28.06V19.128C216.267 18.9667 216.311 18.842 216.399 18.754C216.487 18.6513 216.612 18.6 216.773 18.6H217.895C218.057 18.6 218.181 18.6513 218.269 18.754C218.372 18.842 218.423 18.9667 218.423 19.128V28.104C218.423 29.5413 218.761 30.6047 219.435 31.294C220.11 31.9833 221.034 32.328 222.207 32.328C223.366 32.328 224.283 31.9833 224.957 31.294C225.647 30.6047 225.991 29.5413 225.991 28.104V19.128C225.991 18.9667 226.035 18.842 226.123 18.754C226.226 18.6513 226.351 18.6 226.497 18.6H227.641C227.788 18.6 227.905 18.6513 227.993 18.754C228.096 18.842 228.147 18.9667 228.147 19.128V28.06C228.147 29.4827 227.905 30.6487 227.421 31.558C226.952 32.4527 226.277 33.12 225.397 33.56C224.517 34 223.454 34.22 222.207 34.22ZM235.697 34C235.55 34 235.426 33.956 235.323 33.868C235.235 33.7653 235.191 33.6407 235.191 33.494V20.558H230.967C230.82 20.558 230.696 20.514 230.593 20.426C230.505 20.3233 230.461 20.1987 230.461 20.052V19.128C230.461 18.9667 230.505 18.842 230.593 18.754C230.696 18.6513 230.82 18.6 230.967 18.6H241.571C241.732 18.6 241.857 18.6513 241.945 18.754C242.048 18.842 242.099 18.9667 242.099 19.128V20.052C242.099 20.1987 242.048 20.3233 241.945 20.426C241.857 20.514 241.732 20.558 241.571 20.558H237.369V33.494C237.369 33.6407 237.318 33.7653 237.215 33.868C237.127 33.956 237.002 34 236.841 34H235.697ZM249.429 34.22C248.153 34.22 247.083 34.0293 246.217 33.648C245.352 33.252 244.685 32.746 244.215 32.13C243.761 31.4993 243.519 30.832 243.489 30.128C243.489 30.0107 243.533 29.908 243.621 29.82C243.724 29.7173 243.841 29.666 243.973 29.666H245.095C245.271 29.666 245.403 29.71 245.491 29.798C245.579 29.886 245.638 29.9887 245.667 30.106C245.741 30.458 245.917 30.81 246.195 31.162C246.489 31.4993 246.892 31.7853 247.405 32.02C247.933 32.24 248.608 32.35 249.429 32.35C250.691 32.35 251.615 32.13 252.201 31.69C252.803 31.2353 253.103 30.634 253.103 29.886C253.103 29.3727 252.942 28.962 252.619 28.654C252.311 28.3313 251.835 28.0453 251.189 27.796C250.544 27.5467 249.708 27.2753 248.681 26.982C247.611 26.674 246.723 26.3367 246.019 25.97C245.315 25.6033 244.787 25.1487 244.435 24.606C244.098 24.0633 243.929 23.374 243.929 22.538C243.929 21.746 244.142 21.042 244.567 20.426C244.993 19.7953 245.601 19.2967 246.393 18.93C247.2 18.5633 248.175 18.38 249.319 18.38C250.229 18.38 251.021 18.5047 251.695 18.754C252.385 18.9887 252.957 19.3113 253.411 19.722C253.866 20.118 254.211 20.5507 254.445 21.02C254.68 21.4747 254.805 21.922 254.819 22.362C254.819 22.4647 254.783 22.5673 254.709 22.67C254.636 22.758 254.519 22.802 254.357 22.802H253.191C253.089 22.802 252.979 22.7727 252.861 22.714C252.759 22.6553 252.678 22.5453 252.619 22.384C252.531 21.7827 252.194 21.2767 251.607 20.866C251.021 20.4553 250.258 20.25 249.319 20.25C248.366 20.25 247.589 20.4333 246.987 20.8C246.401 21.1667 246.107 21.7387 246.107 22.516C246.107 23.0147 246.247 23.4327 246.525 23.77C246.804 24.0927 247.244 24.3787 247.845 24.628C248.447 24.8773 249.231 25.1413 250.199 25.42C251.373 25.7427 252.333 26.0873 253.081 26.454C253.829 26.806 254.379 27.2533 254.731 27.796C255.098 28.324 255.281 29.006 255.281 29.842C255.281 30.766 255.039 31.558 254.555 32.218C254.071 32.8633 253.389 33.362 252.509 33.714C251.644 34.0513 250.617 34.22 249.429 34.22ZM263.687 34.22C262.44 34.22 261.37 34.0073 260.475 33.582C259.58 33.142 258.891 32.4747 258.407 31.58C257.923 30.6707 257.652 29.534 257.593 28.17C257.578 27.5247 257.571 26.9087 257.571 26.322C257.571 25.7207 257.578 25.0973 257.593 24.452C257.652 23.1027 257.93 21.9807 258.429 21.086C258.942 20.1767 259.646 19.502 260.541 19.062C261.45 18.6073 262.499 18.38 263.687 18.38C264.89 18.38 265.938 18.6073 266.833 19.062C267.742 19.502 268.454 20.1767 268.967 21.086C269.48 21.9807 269.759 23.1027 269.803 24.452C269.832 25.0973 269.847 25.7207 269.847 26.322C269.847 26.9087 269.832 27.5247 269.803 28.17C269.759 29.534 269.488 30.6707 268.989 31.58C268.505 32.4747 267.816 33.142 266.921 33.582C266.026 34.0073 264.948 34.22 263.687 34.22ZM263.687 32.35C264.816 32.35 265.733 32.0127 266.437 31.338C267.156 30.6633 267.544 29.5707 267.603 28.06C267.632 27.4 267.647 26.8133 267.647 26.3C267.647 25.772 267.632 25.1853 267.603 24.54C267.574 23.528 267.383 22.7067 267.031 22.076C266.694 21.4453 266.239 20.9833 265.667 20.69C265.095 20.3967 264.435 20.25 263.687 20.25C262.968 20.25 262.323 20.3967 261.751 20.69C261.179 20.9833 260.717 21.4453 260.365 22.076C260.028 22.7067 259.837 23.528 259.793 24.54C259.778 25.1853 259.771 25.772 259.771 26.3C259.771 26.8133 259.778 27.4 259.793 28.06C259.852 29.5707 260.24 30.6633 260.959 31.338C261.678 32.0127 262.587 32.35 263.687 32.35ZM278.862 34.22C277.63 34.22 276.566 34 275.672 33.56C274.792 33.12 274.11 32.4527 273.626 31.558C273.156 30.6487 272.922 29.4827 272.922 28.06V19.128C272.922 18.9667 272.966 18.842 273.054 18.754C273.142 18.6513 273.266 18.6 273.428 18.6H274.55C274.711 18.6 274.836 18.6513 274.924 18.754C275.026 18.842 275.078 18.9667 275.078 19.128V28.104C275.078 29.5413 275.415 30.6047 276.09 31.294C276.764 31.9833 277.688 32.328 278.862 32.328C280.02 32.328 280.937 31.9833 281.612 31.294C282.301 30.6047 282.646 29.5413 282.646 28.104V19.128C282.646 18.9667 282.69 18.842 282.778 18.754C282.88 18.6513 283.005 18.6 283.152 18.6H284.296C284.442 18.6 284.56 18.6513 284.648 18.754C284.75 18.842 284.802 18.9667 284.802 19.128V28.06C284.802 29.4827 284.56 30.6487 284.076 31.558C283.606 32.4527 282.932 33.12 282.052 33.56C281.172 34 280.108 34.22 278.862 34.22ZM288.985 34C288.824 34 288.699 33.956 288.611 33.868C288.523 33.7653 288.479 33.6407 288.479 33.494V19.128C288.479 18.9667 288.523 18.842 288.611 18.754C288.699 18.6513 288.824 18.6 288.985 18.6H294.353C296.011 18.6 297.323 18.9887 298.291 19.766C299.259 20.5433 299.743 21.6947 299.743 23.22C299.743 24.3493 299.457 25.2733 298.885 25.992C298.328 26.696 297.565 27.1873 296.597 27.466L299.985 33.318C300.029 33.406 300.051 33.4867 300.051 33.56C300.051 33.6773 300 33.78 299.897 33.868C299.809 33.956 299.707 34 299.589 34H298.533C298.284 34 298.101 33.934 297.983 33.802C297.866 33.67 297.763 33.538 297.675 33.406L294.485 27.818H290.635V33.494C290.635 33.6407 290.584 33.7653 290.481 33.868C290.393 33.956 290.269 34 290.107 34H288.985ZM290.635 25.948H294.265C295.365 25.948 296.187 25.7207 296.729 25.266C297.272 24.7967 297.543 24.1073 297.543 23.198C297.543 22.3033 297.272 21.6213 296.729 21.152C296.201 20.6827 295.38 20.448 294.265 20.448H290.635V25.948ZM308.418 34.22C307.069 34.22 305.947 33.9707 305.052 33.472C304.172 32.9733 303.505 32.2767 303.05 31.382C302.595 30.4873 302.346 29.446 302.302 28.258C302.287 27.6567 302.28 27.0113 302.28 26.322C302.28 25.6327 302.287 24.9727 302.302 24.342C302.346 23.154 302.595 22.1127 303.05 21.218C303.505 20.3233 304.172 19.6267 305.052 19.128C305.947 18.6293 307.069 18.38 308.418 18.38C309.43 18.38 310.317 18.5193 311.08 18.798C311.843 19.0767 312.473 19.4507 312.972 19.92C313.485 20.3893 313.874 20.9173 314.138 21.504C314.402 22.076 314.549 22.67 314.578 23.286C314.593 23.418 314.549 23.528 314.446 23.616C314.358 23.704 314.248 23.748 314.116 23.748H312.906C312.774 23.748 312.657 23.7113 312.554 23.638C312.466 23.5647 312.4 23.4327 312.356 23.242C312.107 22.098 311.637 21.3133 310.948 20.888C310.273 20.4627 309.423 20.25 308.396 20.25C307.223 20.25 306.291 20.5873 305.602 21.262C304.913 21.922 304.539 22.9853 304.48 24.452C304.436 25.6547 304.436 26.8867 304.48 28.148C304.539 29.6147 304.913 30.6853 305.602 31.36C306.291 32.02 307.223 32.35 308.396 32.35C309.423 32.35 310.273 32.1373 310.948 31.712C311.637 31.2867 312.107 30.502 312.356 29.358C312.4 29.1673 312.466 29.0353 312.554 28.962C312.657 28.8887 312.774 28.852 312.906 28.852H314.116C314.248 28.852 314.358 28.896 314.446 28.984C314.549 29.072 314.593 29.182 314.578 29.314C314.549 29.93 314.402 30.5313 314.138 31.118C313.874 31.69 313.485 32.2107 312.972 32.68C312.473 33.1493 311.843 33.5233 311.08 33.802C310.317 34.0807 309.43 34.22 308.418 34.22ZM318.032 34C317.871 34 317.746 33.956 317.658 33.868C317.57 33.7653 317.526 33.6407 317.526 33.494V19.128C317.526 18.9667 317.57 18.842 317.658 18.754C317.746 18.6513 317.871 18.6 318.032 18.6H327.118C327.28 18.6 327.404 18.6513 327.492 18.754C327.58 18.842 327.624 18.9667 327.624 19.128V19.964C327.624 20.1253 327.58 20.25 327.492 20.338C327.404 20.426 327.28 20.47 327.118 20.47H319.638V25.288H326.634C326.796 25.288 326.92 25.3393 327.008 25.442C327.096 25.53 327.14 25.6547 327.14 25.816V26.63C327.14 26.7767 327.096 26.9013 327.008 27.004C326.92 27.092 326.796 27.136 326.634 27.136H319.638V32.13H327.294C327.456 32.13 327.58 32.174 327.668 32.262C327.756 32.35 327.8 32.4747 327.8 32.636V33.494C327.8 33.6407 327.756 33.7653 327.668 33.868C327.58 33.956 327.456 34 327.294 34H318.032ZM339.574 34C339.427 34 339.303 33.956 339.2 33.868C339.112 33.7653 339.068 33.6407 339.068 33.494V20.558H334.844C334.697 20.558 334.573 20.514 334.47 20.426C334.382 20.3233 334.338 20.1987 334.338 20.052V19.128C334.338 18.9667 334.382 18.842 334.47 18.754C334.573 18.6513 334.697 18.6 334.844 18.6H345.448C345.609 18.6 345.734 18.6513 345.822 18.754C345.925 18.842 345.976 18.9667 345.976 19.128V20.052C345.976 20.1987 345.925 20.3233 345.822 20.426C345.734 20.514 345.609 20.558 345.448 20.558H341.246V33.494C341.246 33.6407 341.195 33.7653 341.092 33.868C341.004 33.956 340.879 34 340.718 34H339.574ZM348.948 34C348.787 34 348.662 33.956 348.574 33.868C348.486 33.7653 348.442 33.6407 348.442 33.494V19.128C348.442 18.9667 348.486 18.842 348.574 18.754C348.662 18.6513 348.787 18.6 348.948 18.6H350.07C350.232 18.6 350.356 18.6513 350.444 18.754C350.547 18.842 350.598 18.9667 350.598 19.128V25.2H358.166V19.128C358.166 18.9667 358.21 18.842 358.298 18.754C358.401 18.6513 358.526 18.6 358.672 18.6H359.794C359.956 18.6 360.08 18.6513 360.168 18.754C360.271 18.842 360.322 18.9667 360.322 19.128V33.494C360.322 33.6407 360.271 33.7653 360.168 33.868C360.08 33.956 359.956 34 359.794 34H358.672C358.526 34 358.401 33.956 358.298 33.868C358.21 33.7653 358.166 33.6407 358.166 33.494V27.18H350.598V33.494C350.598 33.6407 350.547 33.7653 350.444 33.868C350.356 33.956 350.232 34 350.07 34H348.948ZM364.632 34C364.471 34 364.346 33.956 364.258 33.868C364.17 33.7653 364.126 33.6407 364.126 33.494V19.128C364.126 18.9667 364.17 18.842 364.258 18.754C364.346 18.6513 364.471 18.6 364.632 18.6H373.718C373.879 18.6 374.004 18.6513 374.092 18.754C374.18 18.842 374.224 18.9667 374.224 19.128V19.964C374.224 20.1253 374.18 20.25 374.092 20.338C374.004 20.426 373.879 20.47 373.718 20.47H366.238V25.288H373.234C373.395 25.288 373.52 25.3393 373.608 25.442C373.696 25.53 373.74 25.6547 373.74 25.816V26.63C373.74 26.7767 373.696 26.9013 373.608 27.004C373.52 27.092 373.395 27.136 373.234 27.136H366.238V32.13H373.894C374.055 32.13 374.18 32.174 374.268 32.262C374.356 32.35 374.4 32.4747 374.4 32.636V33.494C374.4 33.6407 374.356 33.7653 374.268 33.868C374.18 33.956 374.055 34 373.894 34H364.632ZM383.366 34C383.205 34 383.08 33.956 382.992 33.868C382.904 33.7653 382.86 33.6407 382.86 33.494V19.128C382.86 18.9667 382.904 18.842 382.992 18.754C383.08 18.6513 383.205 18.6 383.366 18.6H384.378C384.554 18.6 384.686 18.644 384.774 18.732C384.862 18.8053 384.914 18.864 384.928 18.908L392.232 30.128V19.128C392.232 18.9667 392.276 18.842 392.364 18.754C392.452 18.6513 392.577 18.6 392.738 18.6H393.794C393.956 18.6 394.08 18.6513 394.168 18.754C394.271 18.842 394.322 18.9667 394.322 19.128V33.472C394.322 33.6187 394.271 33.7433 394.168 33.846C394.08 33.9487 393.963 34 393.816 34H392.76C392.599 34 392.474 33.956 392.386 33.868C392.313 33.78 392.262 33.7213 392.232 33.692L384.95 22.582V33.494C384.95 33.6407 384.899 33.7653 384.796 33.868C384.708 33.956 384.584 34 384.422 34H383.366ZM403.658 34.22C402.411 34.22 401.34 34.0073 400.446 33.582C399.551 33.142 398.862 32.4747 398.378 31.58C397.894 30.6707 397.622 29.534 397.564 28.17C397.549 27.5247 397.542 26.9087 397.542 26.322C397.542 25.7207 397.549 25.0973 397.564 24.452C397.622 23.1027 397.901 21.9807 398.4 21.086C398.913 20.1767 399.617 19.502 400.512 19.062C401.421 18.6073 402.47 18.38 403.658 18.38C404.86 18.38 405.909 18.6073 406.804 19.062C407.713 19.502 408.424 20.1767 408.938 21.086C409.451 21.9807 409.73 23.1027 409.774 24.452C409.803 25.0973 409.818 25.7207 409.818 26.322C409.818 26.9087 409.803 27.5247 409.774 28.17C409.73 29.534 409.458 30.6707 408.96 31.58C408.476 32.4747 407.786 33.142 406.892 33.582C405.997 34.0073 404.919 34.22 403.658 34.22ZM403.658 32.35C404.787 32.35 405.704 32.0127 406.408 31.338C407.126 30.6633 407.515 29.5707 407.574 28.06C407.603 27.4 407.618 26.8133 407.618 26.3C407.618 25.772 407.603 25.1853 407.574 24.54C407.544 23.528 407.354 22.7067 407.002 22.076C406.664 21.4453 406.21 20.9833 405.638 20.69C405.066 20.3967 404.406 20.25 403.658 20.25C402.939 20.25 402.294 20.3967 401.722 20.69C401.15 20.9833 400.688 21.4453 400.336 22.076C399.998 22.7067 399.808 23.528 399.764 24.54C399.749 25.1853 399.742 25.772 399.742 26.3C399.742 26.8133 399.749 27.4 399.764 28.06C399.822 29.5707 400.211 30.6633 400.93 31.338C401.648 32.0127 402.558 32.35 403.658 32.35ZM413.53 34C413.369 34 413.244 33.956 413.156 33.868C413.068 33.7653 413.024 33.6407 413.024 33.494V19.128C413.024 18.9667 413.068 18.842 413.156 18.754C413.244 18.6513 413.369 18.6 413.53 18.6H414.542C414.718 18.6 414.85 18.644 414.938 18.732C415.026 18.8053 415.078 18.864 415.092 18.908L422.396 30.128V19.128C422.396 18.9667 422.44 18.842 422.528 18.754C422.616 18.6513 422.741 18.6 422.902 18.6H423.958C424.12 18.6 424.244 18.6513 424.332 18.754C424.435 18.842 424.486 18.9667 424.486 19.128V33.472C424.486 33.6187 424.435 33.7433 424.332 33.846C424.244 33.9487 424.127 34 423.98 34H422.924C422.763 34 422.638 33.956 422.55 33.868C422.477 33.78 422.426 33.7213 422.396 33.692L415.114 22.582V33.494C415.114 33.6407 415.063 33.7653 414.96 33.868C414.872 33.956 414.748 34 414.586 34H413.53ZM428.259 28.324C428.113 28.324 427.988 28.28 427.885 28.192C427.797 28.0893 427.753 27.9647 427.753 27.818V26.982C427.753 26.8353 427.797 26.718 427.885 26.63C427.988 26.5273 428.113 26.476 428.259 26.476H434.859C435.006 26.476 435.123 26.5273 435.211 26.63C435.314 26.718 435.365 26.8353 435.365 26.982V27.818C435.365 27.9647 435.314 28.0893 435.211 28.192C435.123 28.28 435.006 28.324 434.859 28.324H428.259ZM154.601 60.22C153.251 60.22 152.129 59.9707 151.235 59.472C150.355 58.9733 149.687 58.2767 149.233 57.382C148.778 56.4873 148.529 55.446 148.485 54.258C148.47 53.6567 148.463 53.0113 148.463 52.322C148.463 51.6327 148.47 50.9727 148.485 50.342C148.529 49.154 148.778 48.1127 149.233 47.218C149.687 46.3233 150.355 45.6267 151.235 45.128C152.129 44.6293 153.251 44.38 154.601 44.38C155.613 44.38 156.5 44.5193 157.263 44.798C158.025 45.0767 158.656 45.4507 159.155 45.92C159.668 46.3893 160.057 46.9173 160.321 47.504C160.585 48.076 160.731 48.67 160.761 49.286C160.775 49.418 160.731 49.528 160.629 49.616C160.541 49.704 160.431 49.748 160.299 49.748H159.089C158.957 49.748 158.839 49.7113 158.737 49.638C158.649 49.5647 158.583 49.4327 158.539 49.242C158.289 48.098 157.82 47.3133 157.131 46.888C156.456 46.4627 155.605 46.25 154.579 46.25C153.405 46.25 152.474 46.5873 151.785 47.262C151.095 47.922 150.721 48.9853 150.663 50.452C150.619 51.6547 150.619 52.8867 150.663 54.148C150.721 55.6147 151.095 56.6853 151.785 57.36C152.474 58.02 153.405 58.35 154.579 58.35C155.605 58.35 156.456 58.1373 157.131 57.712C157.82 57.2867 158.289 56.502 158.539 55.358C158.583 55.1673 158.649 55.0353 158.737 54.962C158.839 54.8887 158.957 54.852 159.089 54.852H160.299C160.431 54.852 160.541 54.896 160.629 54.984C160.731 55.072 160.775 55.182 160.761 55.314C160.731 55.93 160.585 56.5313 160.321 57.118C160.057 57.69 159.668 58.2107 159.155 58.68C158.656 59.1493 158.025 59.5233 157.263 59.802C156.5 60.0807 155.613 60.22 154.601 60.22ZM169.231 60.22C167.984 60.22 166.914 60.0073 166.019 59.582C165.124 59.142 164.435 58.4747 163.951 57.58C163.467 56.6707 163.196 55.534 163.137 54.17C163.122 53.5247 163.115 52.9087 163.115 52.322C163.115 51.7207 163.122 51.0973 163.137 50.452C163.196 49.1027 163.474 47.9807 163.973 47.086C164.486 46.1767 165.19 45.502 166.085 45.062C166.994 44.6073 168.043 44.38 169.231 44.38C170.434 44.38 171.482 44.6073 172.377 45.062C173.286 45.502 173.998 46.1767 174.511 47.086C175.024 47.9807 175.303 49.1027 175.347 50.452C175.376 51.0973 175.391 51.7207 175.391 52.322C175.391 52.9087 175.376 53.5247 175.347 54.17C175.303 55.534 175.032 56.6707 174.533 57.58C174.049 58.4747 173.36 59.142 172.465 59.582C171.57 60.0073 170.492 60.22 169.231 60.22ZM169.231 58.35C170.36 58.35 171.277 58.0127 171.981 57.338C172.7 56.6633 173.088 55.5707 173.147 54.06C173.176 53.4 173.191 52.8133 173.191 52.3C173.191 51.772 173.176 51.1853 173.147 50.54C173.118 49.528 172.927 48.7067 172.575 48.076C172.238 47.4453 171.783 46.9833 171.211 46.69C170.639 46.3967 169.979 46.25 169.231 46.25C168.512 46.25 167.867 46.3967 167.295 46.69C166.723 46.9833 166.261 47.4453 165.909 48.076C165.572 48.7067 165.381 49.528 165.337 50.54C165.322 51.1853 165.315 51.772 165.315 52.3C165.315 52.8133 165.322 53.4 165.337 54.06C165.396 55.5707 165.784 56.6633 166.503 57.338C167.222 58.0127 168.131 58.35 169.231 58.35ZM179.104 60C178.942 60 178.818 59.956 178.73 59.868C178.642 59.7653 178.598 59.6407 178.598 59.494V45.128C178.598 44.9667 178.642 44.842 178.73 44.754C178.818 44.6513 178.942 44.6 179.104 44.6H184.472C186.129 44.6 187.442 44.9887 188.41 45.766C189.378 46.5433 189.862 47.6947 189.862 49.22C189.862 50.3493 189.576 51.2733 189.004 51.992C188.446 52.696 187.684 53.1873 186.716 53.466L190.104 59.318C190.148 59.406 190.17 59.4867 190.17 59.56C190.17 59.6773 190.118 59.78 190.016 59.868C189.928 59.956 189.825 60 189.708 60H188.652C188.402 60 188.219 59.934 188.102 59.802C187.984 59.67 187.882 59.538 187.794 59.406L184.604 53.818H180.754V59.494C180.754 59.6407 180.702 59.7653 180.6 59.868C180.512 59.956 180.387 60 180.226 60H179.104ZM180.754 51.948H184.384C185.484 51.948 186.305 51.7207 186.848 51.266C187.39 50.7967 187.662 50.1073 187.662 49.198C187.662 48.3033 187.39 47.6213 186.848 47.152C186.32 46.6827 185.498 46.448 184.384 46.448H180.754V51.948ZM193.52 60C193.358 60 193.234 59.956 193.146 59.868C193.058 59.7653 193.014 59.6407 193.014 59.494V45.128C193.014 44.9667 193.058 44.842 193.146 44.754C193.234 44.6513 193.358 44.6 193.52 44.6H202.606C202.767 44.6 202.892 44.6513 202.98 44.754C203.068 44.842 203.112 44.9667 203.112 45.128V45.964C203.112 46.1253 203.068 46.25 202.98 46.338C202.892 46.426 202.767 46.47 202.606 46.47H195.126V51.288H202.122C202.283 51.288 202.408 51.3393 202.496 51.442C202.584 51.53 202.628 51.6547 202.628 51.816V52.63C202.628 52.7767 202.584 52.9013 202.496 53.004C202.408 53.092 202.283 53.136 202.122 53.136H195.126V58.13H202.782C202.943 58.13 203.068 58.174 203.156 58.262C203.244 58.35 203.288 58.4747 203.288 58.636V59.494C203.288 59.6407 203.244 59.7653 203.156 59.868C203.068 59.956 202.943 60 202.782 60H193.52ZM210.134 60C210.017 60 209.914 59.956 209.826 59.868C209.738 59.78 209.694 59.6773 209.694 59.56C209.694 59.4867 209.701 59.406 209.716 59.318L215.172 45.084C215.231 44.9373 215.311 44.82 215.414 44.732C215.517 44.644 215.671 44.6 215.876 44.6H217.372C217.563 44.6 217.709 44.644 217.812 44.732C217.929 44.82 218.017 44.9373 218.076 45.084L223.51 59.318C223.539 59.406 223.554 59.4867 223.554 59.56C223.554 59.6773 223.51 59.78 223.422 59.868C223.334 59.956 223.231 60 223.114 60H221.992C221.816 60 221.684 59.956 221.596 59.868C221.523 59.78 221.471 59.6993 221.442 59.626L220.232 56.502H213.016L211.806 59.626C211.791 59.6993 211.74 59.78 211.652 59.868C211.564 59.956 211.432 60 211.256 60H210.134ZM213.654 54.61H219.594L216.624 46.8L213.654 54.61ZM231.171 60.22C229.822 60.22 228.7 59.9707 227.805 59.472C226.925 58.9733 226.258 58.2767 225.803 57.382C225.348 56.4873 225.099 55.446 225.055 54.258C225.04 53.6567 225.033 53.0113 225.033 52.322C225.033 51.6327 225.04 50.9727 225.055 50.342C225.099 49.154 225.348 48.1127 225.803 47.218C226.258 46.3233 226.925 45.6267 227.805 45.128C228.7 44.6293 229.822 44.38 231.171 44.38C232.183 44.38 233.07 44.5193 233.833 44.798C234.596 45.0767 235.226 45.4507 235.725 45.92C236.238 46.3893 236.627 46.9173 236.891 47.504C237.155 48.076 237.302 48.67 237.331 49.286C237.346 49.418 237.302 49.528 237.199 49.616C237.111 49.704 237.001 49.748 236.869 49.748H235.659C235.527 49.748 235.41 49.7113 235.307 49.638C235.219 49.5647 235.153 49.4327 235.109 49.242C234.86 48.098 234.39 47.3133 233.701 46.888C233.026 46.4627 232.176 46.25 231.149 46.25C229.976 46.25 229.044 46.5873 228.355 47.262C227.666 47.922 227.292 48.9853 227.233 50.452C227.189 51.6547 227.189 52.8867 227.233 54.148C227.292 55.6147 227.666 56.6853 228.355 57.36C229.044 58.02 229.976 58.35 231.149 58.35C232.176 58.35 233.026 58.1373 233.701 57.712C234.39 57.2867 234.86 56.502 235.109 55.358C235.153 55.1673 235.219 55.0353 235.307 54.962C235.41 54.8887 235.527 54.852 235.659 54.852H236.869C237.001 54.852 237.111 54.896 237.199 54.984C237.302 55.072 237.346 55.182 237.331 55.314C237.302 55.93 237.155 56.5313 236.891 57.118C236.627 57.69 236.238 58.2107 235.725 58.68C235.226 59.1493 234.596 59.5233 233.833 59.802C233.07 60.0807 232.183 60.22 231.171 60.22ZM244.151 60C244.005 60 243.88 59.956 243.777 59.868C243.689 59.7653 243.645 59.6407 243.645 59.494V46.558H239.421C239.275 46.558 239.15 46.514 239.047 46.426C238.959 46.3233 238.915 46.1987 238.915 46.052V45.128C238.915 44.9667 238.959 44.842 239.047 44.754C239.15 44.6513 239.275 44.6 239.421 44.6H250.025C250.187 44.6 250.311 44.6513 250.399 44.754C250.502 44.842 250.553 44.9667 250.553 45.128V46.052C250.553 46.1987 250.502 46.3233 250.399 46.426C250.311 46.514 250.187 46.558 250.025 46.558H245.823V59.494C245.823 59.6407 245.772 59.7653 245.669 59.868C245.581 59.956 245.457 60 245.295 60H244.151ZM253.525 60C253.364 60 253.239 59.956 253.151 59.868C253.063 59.7653 253.019 59.6407 253.019 59.494V45.106C253.019 44.9593 253.063 44.842 253.151 44.754C253.239 44.6513 253.364 44.6 253.525 44.6H254.691C254.838 44.6 254.955 44.6513 255.043 44.754C255.146 44.842 255.197 44.9593 255.197 45.106V59.494C255.197 59.6407 255.146 59.7653 255.043 59.868C254.955 59.956 254.838 60 254.691 60H253.525ZM263.611 60C263.391 60 263.215 59.9487 263.083 59.846C262.966 59.7433 262.87 59.604 262.797 59.428L257.891 45.282C257.862 45.194 257.847 45.1133 257.847 45.04C257.847 44.9227 257.891 44.82 257.979 44.732C258.067 44.644 258.17 44.6 258.287 44.6H259.431C259.607 44.6 259.739 44.6513 259.827 44.754C259.93 44.842 259.988 44.9227 260.003 44.996L264.315 57.47L268.627 44.996C268.656 44.9227 268.715 44.842 268.803 44.754C268.891 44.6513 269.023 44.6 269.199 44.6H270.343C270.46 44.6 270.563 44.644 270.651 44.732C270.754 44.82 270.805 44.9227 270.805 45.04C270.805 45.1133 270.79 45.194 270.761 45.282L265.833 59.428C265.774 59.604 265.679 59.7433 265.547 59.846C265.43 59.9487 265.261 60 265.041 60H263.611ZM273.936 60C273.774 60 273.65 59.956 273.562 59.868C273.474 59.7653 273.43 59.6407 273.43 59.494V45.106C273.43 44.9593 273.474 44.842 273.562 44.754C273.65 44.6513 273.774 44.6 273.936 44.6H275.102C275.248 44.6 275.366 44.6513 275.454 44.754C275.556 44.842 275.608 44.9593 275.608 45.106V59.494C275.608 59.6407 275.556 59.7653 275.454 59.868C275.366 59.956 275.248 60 275.102 60H273.936ZM283.317 60C283.171 60 283.046 59.956 282.943 59.868C282.855 59.7653 282.811 59.6407 282.811 59.494V46.558H278.587C278.441 46.558 278.316 46.514 278.213 46.426C278.125 46.3233 278.081 46.1987 278.081 46.052V45.128C278.081 44.9667 278.125 44.842 278.213 44.754C278.316 44.6513 278.441 44.6 278.587 44.6H289.191C289.353 44.6 289.477 44.6513 289.565 44.754C289.668 44.842 289.719 44.9667 289.719 45.128V46.052C289.719 46.1987 289.668 46.3233 289.565 46.426C289.477 46.514 289.353 46.558 289.191 46.558H284.989V59.494C284.989 59.6407 284.938 59.7653 284.835 59.868C284.747 59.956 284.623 60 284.461 60H283.317ZM292.691 60C292.53 60 292.405 59.956 292.317 59.868C292.229 59.7653 292.185 59.6407 292.185 59.494V45.106C292.185 44.9593 292.229 44.842 292.317 44.754C292.405 44.6513 292.53 44.6 292.691 44.6H293.857C294.004 44.6 294.121 44.6513 294.209 44.754C294.312 44.842 294.363 44.9593 294.363 45.106V59.494C294.363 59.6407 294.312 59.7653 294.209 59.868C294.121 59.956 294.004 60 293.857 60H292.691ZM298.707 60C298.546 60 298.421 59.956 298.333 59.868C298.245 59.7653 298.201 59.6407 298.201 59.494V45.128C298.201 44.9667 298.245 44.842 298.333 44.754C298.421 44.6513 298.546 44.6 298.707 44.6H307.793C307.954 44.6 308.079 44.6513 308.167 44.754C308.255 44.842 308.299 44.9667 308.299 45.128V45.964C308.299 46.1253 308.255 46.25 308.167 46.338C308.079 46.426 307.954 46.47 307.793 46.47H300.313V51.288H307.309C307.47 51.288 307.595 51.3393 307.683 51.442C307.771 51.53 307.815 51.6547 307.815 51.816V52.63C307.815 52.7767 307.771 52.9013 307.683 53.004C307.595 53.092 307.47 53.136 307.309 53.136H300.313V58.13H307.969C308.13 58.13 308.255 58.174 308.343 58.262C308.431 58.35 308.475 58.4747 308.475 58.636V59.494C308.475 59.6407 308.431 59.7653 308.343 59.868C308.255 59.956 308.13 60 307.969 60H298.707ZM316.493 60.22C315.217 60.22 314.146 60.0293 313.281 59.648C312.416 59.252 311.748 58.746 311.279 58.13C310.824 57.4993 310.582 56.832 310.553 56.128C310.553 56.0107 310.597 55.908 310.685 55.82C310.788 55.7173 310.905 55.666 311.037 55.666H312.159C312.335 55.666 312.467 55.71 312.555 55.798C312.643 55.886 312.702 55.9887 312.731 56.106C312.804 56.458 312.98 56.81 313.259 57.162C313.552 57.4993 313.956 57.7853 314.469 58.02C314.997 58.24 315.672 58.35 316.493 58.35C317.754 58.35 318.678 58.13 319.265 57.69C319.866 57.2353 320.167 56.634 320.167 55.886C320.167 55.3727 320.006 54.962 319.683 54.654C319.375 54.3313 318.898 54.0453 318.253 53.796C317.608 53.5467 316.772 53.2753 315.745 52.982C314.674 52.674 313.787 52.3367 313.083 51.97C312.379 51.6033 311.851 51.1487 311.499 50.606C311.162 50.0633 310.993 49.374 310.993 48.538C310.993 47.746 311.206 47.042 311.631 46.426C312.056 45.7953 312.665 45.2967 313.457 44.93C314.264 44.5633 315.239 44.38 316.383 44.38C317.292 44.38 318.084 44.5047 318.759 44.754C319.448 44.9887 320.02 45.3113 320.475 45.722C320.93 46.118 321.274 46.5507 321.509 47.02C321.744 47.4747 321.868 47.922 321.883 48.362C321.883 48.4647 321.846 48.5673 321.773 48.67C321.7 48.758 321.582 48.802 321.421 48.802H320.255C320.152 48.802 320.042 48.7727 319.925 48.714C319.822 48.6553 319.742 48.5453 319.683 48.384C319.595 47.7827 319.258 47.2767 318.671 46.866C318.084 46.4553 317.322 46.25 316.383 46.25C315.43 46.25 314.652 46.4333 314.051 46.8C313.464 47.1667 313.171 47.7387 313.171 48.516C313.171 49.0147 313.31 49.4327 313.589 49.77C313.868 50.0927 314.308 50.3787 314.909 50.628C315.51 50.8773 316.295 51.1413 317.263 51.42C318.436 51.7427 319.397 52.0873 320.145 52.454C320.893 52.806 321.443 53.2533 321.795 53.796C322.162 54.324 322.345 55.006 322.345 55.842C322.345 56.766 322.103 57.558 321.619 58.218C321.135 58.8633 320.453 59.362 319.573 59.714C318.708 60.0513 317.681 60.22 316.493 60.22ZM325.294 60C325.148 60 325.023 59.956 324.92 59.868C324.832 59.7653 324.788 59.6407 324.788 59.494V57.91C324.788 57.7633 324.832 57.646 324.92 57.558C325.023 57.4553 325.148 57.404 325.294 57.404H326.878C327.025 57.404 327.142 57.4553 327.23 57.558C327.333 57.646 327.384 57.7633 327.384 57.91V59.494C327.384 59.6407 327.333 59.7653 327.23 59.868C327.142 59.956 327.025 60 326.878 60H325.294Z" fill="white"/>
<path d="M293.094 81H183.906C179.54 81 176 84.3935 176 88.5795V109.421C176 113.607 179.54 117 183.906 117H293.094C297.46 117 301 113.607 301 109.421V88.5795C301 84.3935 297.46 81 293.094 81Z" fill="#BE2200"/>
<path d="M198.12 106.2C196.893 106.2 195.827 106 194.92 105.6C194.013 105.2 193.307 104.6 192.8 103.8C192.293 102.987 192.013 101.973 191.96 100.76C191.947 100.187 191.94 99.6133 191.94 99.04C191.94 98.4667 191.947 97.8867 191.96 97.3C192.013 96.1 192.293 95.0933 192.8 94.28C193.32 93.4533 194.033 92.8333 194.94 92.42C195.847 92.0067 196.907 91.8 198.12 91.8C199.32 91.8 200.373 92.0067 201.28 92.42C202.2 92.8333 202.92 93.4533 203.44 94.28C203.96 95.0933 204.24 96.1 204.28 97.3C204.307 97.8867 204.32 98.4667 204.32 99.04C204.32 99.6133 204.307 100.187 204.28 100.76C204.227 101.973 203.947 102.987 203.44 103.8C202.933 104.6 202.227 105.2 201.32 105.6C200.413 106 199.347 106.2 198.12 106.2ZM198.12 103.32C198.827 103.32 199.4 103.107 199.84 102.68C200.293 102.253 200.533 101.573 200.56 100.64C200.587 100.053 200.6 99.5 200.6 98.98C200.6 98.46 200.587 97.92 200.56 97.36C200.533 96.7333 200.413 96.2267 200.2 95.84C200 95.44 199.72 95.1467 199.36 94.96C199 94.7733 198.587 94.68 198.12 94.68C197.667 94.68 197.26 94.7733 196.9 94.96C196.54 95.1467 196.253 95.44 196.04 95.84C195.827 96.2267 195.707 96.7333 195.68 97.36C195.667 97.92 195.66 98.46 195.66 98.98C195.66 99.5 195.667 100.053 195.68 100.64C195.72 101.573 195.96 102.253 196.4 102.68C196.84 103.107 197.413 103.32 198.12 103.32ZM207.138 106C206.992 106 206.872 105.953 206.778 105.86C206.685 105.767 206.638 105.647 206.638 105.5V92.5C206.638 92.3533 206.685 92.2333 206.778 92.14C206.872 92.0467 206.992 92 207.138 92H212.738C213.845 92 214.805 92.1733 215.618 92.52C216.445 92.8533 217.085 93.36 217.538 94.04C218.005 94.72 218.238 95.58 218.238 96.62C218.238 97.6467 218.005 98.4933 217.538 99.16C217.085 99.8267 216.445 100.32 215.618 100.64C214.805 100.96 213.845 101.12 212.738 101.12H210.358V105.5C210.358 105.647 210.305 105.767 210.198 105.86C210.105 105.953 209.985 106 209.838 106H207.138ZM210.298 98.36H212.638C213.212 98.36 213.665 98.2133 213.998 97.92C214.345 97.6267 214.518 97.18 214.518 96.58C214.518 96.0733 214.372 95.6467 214.078 95.3C213.785 94.9533 213.305 94.78 212.638 94.78H210.298V98.36ZM223.734 106C223.587 106 223.467 105.953 223.374 105.86C223.281 105.767 223.234 105.647 223.234 105.5V95.14H219.674C219.527 95.14 219.407 95.0933 219.314 95C219.221 94.8933 219.174 94.7733 219.174 94.64V92.5C219.174 92.3533 219.221 92.2333 219.314 92.14C219.407 92.0467 219.527 92 219.674 92H230.434C230.581 92 230.701 92.0467 230.794 92.14C230.887 92.2333 230.934 92.3533 230.934 92.5V94.64C230.934 94.7733 230.887 94.8933 230.794 95C230.701 95.0933 230.581 95.14 230.434 95.14H226.874V105.5C226.874 105.647 226.827 105.767 226.734 105.86C226.641 105.953 226.521 106 226.374 106H223.734ZM233.252 106C233.105 106 232.985 105.953 232.892 105.86C232.798 105.767 232.752 105.647 232.752 105.5V92.5C232.752 92.3533 232.798 92.2333 232.892 92.14C232.985 92.0467 233.105 92 233.252 92H235.932C236.078 92 236.198 92.0467 236.292 92.14C236.385 92.2333 236.432 92.3533 236.432 92.5V105.5C236.432 105.647 236.385 105.767 236.292 105.86C236.198 105.953 236.078 106 235.932 106H233.252ZM244.956 106.2C243.729 106.2 242.663 106 241.756 105.6C240.849 105.2 240.143 104.6 239.636 103.8C239.129 102.987 238.849 101.973 238.796 100.76C238.783 100.187 238.776 99.6133 238.776 99.04C238.776 98.4667 238.783 97.8867 238.796 97.3C238.849 96.1 239.129 95.0933 239.636 94.28C240.156 93.4533 240.869 92.8333 241.776 92.42C242.683 92.0067 243.743 91.8 244.956 91.8C246.156 91.8 247.209 92.0067 248.116 92.42C249.036 92.8333 249.756 93.4533 250.276 94.28C250.796 95.0933 251.076 96.1 251.116 97.3C251.143 97.8867 251.156 98.4667 251.156 99.04C251.156 99.6133 251.143 100.187 251.116 100.76C251.063 101.973 250.783 102.987 250.276 103.8C249.769 104.6 249.063 105.2 248.156 105.6C247.249 106 246.183 106.2 244.956 106.2ZM244.956 103.32C245.663 103.32 246.236 103.107 246.676 102.68C247.129 102.253 247.369 101.573 247.396 100.64C247.423 100.053 247.436 99.5 247.436 98.98C247.436 98.46 247.423 97.92 247.396 97.36C247.369 96.7333 247.249 96.2267 247.036 95.84C246.836 95.44 246.556 95.1467 246.196 94.96C245.836 94.7733 245.423 94.68 244.956 94.68C244.503 94.68 244.096 94.7733 243.736 94.96C243.376 95.1467 243.089 95.44 242.876 95.84C242.663 96.2267 242.543 96.7333 242.516 97.36C242.503 97.92 242.496 98.46 242.496 98.98C242.496 99.5 242.503 100.053 242.516 100.64C242.556 101.573 242.796 102.253 243.236 102.68C243.676 103.107 244.249 103.32 244.956 103.32ZM253.974 106C253.828 106 253.708 105.953 253.614 105.86C253.521 105.767 253.474 105.647 253.474 105.5V92.5C253.474 92.3533 253.521 92.2333 253.614 92.14C253.708 92.0467 253.828 92 253.974 92H256.094C256.321 92 256.481 92.0533 256.574 92.16C256.681 92.2533 256.748 92.3267 256.774 92.38L261.654 100.08V92.5C261.654 92.3533 261.701 92.2333 261.794 92.14C261.888 92.0467 262.008 92 262.154 92H264.554C264.701 92 264.821 92.0467 264.914 92.14C265.008 92.2333 265.054 92.3533 265.054 92.5V105.5C265.054 105.633 265.008 105.753 264.914 105.86C264.821 105.953 264.701 106 264.554 106H262.414C262.201 106 262.041 105.947 261.934 105.84C261.841 105.733 261.781 105.66 261.754 105.62L256.874 98.22V105.5C256.874 105.647 256.828 105.767 256.734 105.86C256.641 105.953 256.521 106 256.374 106H253.974ZM270.799 106C270.693 106 270.593 105.96 270.499 105.88C270.419 105.787 270.379 105.687 270.379 105.58C270.379 105.513 270.386 105.453 270.399 105.4L275.099 92.56C275.139 92.4133 275.219 92.2867 275.339 92.18C275.473 92.06 275.653 92 275.879 92H278.839C279.066 92 279.239 92.06 279.359 92.18C279.493 92.2867 279.579 92.4133 279.619 92.56L284.299 105.4C284.326 105.453 284.339 105.513 284.339 105.58C284.339 105.687 284.293 105.787 284.199 105.88C284.119 105.96 284.019 106 283.899 106H281.439C281.239 106 281.086 105.953 280.979 105.86C280.886 105.753 280.826 105.66 280.799 105.58L280.019 103.54H274.679L273.919 105.58C273.893 105.66 273.833 105.753 273.739 105.86C273.646 105.953 273.486 106 273.259 106H270.799ZM275.499 100.66H279.219L277.339 95.38L275.499 100.66Z" fill="white"/>
</svg>
