<svg id="Layer_1" data-name="Layer 1" xmlns="http://www.w3.org/2000/svg" viewBox="0 0 325.1 683.17"><defs><style>.cls-1{fill:#e4e4e4;}.cls-1,.cls-4{stroke:#1c5e8a;stroke-linecap:round;stroke-linejoin:round;stroke-width:2.5px;}.cls-2{fill:#1c5e8a;}.cls-3,.cls-4{fill:#fff;}.cls-4{stroke-dasharray:6 6;}.cls-5{fill:none;}</style></defs><title>AD SPENT &amp;amp; INCENTIVE</title><path class="cls-1" d="M324.6,660.08V24.59C324.6,12.12,313.75,2,300.37,2H26.23C12.85,2,2,12.12,2,24.59V660.08c0,12.47,10.85,22.59,24.23,22.59H300.37C313.75,682.67,324.6,672.55,324.6,660.08Z" transform="translate(-0.75 -0.75)"/><path class="cls-2" d="M243.4,24.56H86.46c-11.73,0-21.24,8.86-21.24,19.8s9.51,19.8,21.24,19.8H243.4c11.73,0,21.25-8.87,21.25-19.8S255.13,24.56,243.4,24.56Z" transform="translate(-0.75 -0.75)"/><path class="cls-3" d="M108.66,34.35a1,1,0,0,1,.78.29,1.62,1.62,0,0,1,.39.57l5.67,16.38a1.21,1.21,0,0,1,.1.39.58.58,0,0,1-.18.42.54.54,0,0,1-.39.15h-3.28a1.1,1.1,0,0,1-.75-.2,1.06,1.06,0,0,1-.26-.45L110,49.75H103.1l-.73,2.15a1.06,1.06,0,0,1-.29.45,1,1,0,0,1-.73.2H98.08a.64.64,0,0,1-.42-.15A.65.65,0,0,1,97.5,52a1.31,1.31,0,0,1,.11-.39l5.67-16.38a1.8,1.8,0,0,1,.36-.57,1.1,1.1,0,0,1,.81-.29Zm-4.21,11.37h4.21l-2.11-6.24Zm20.84-11.37a9.52,9.52,0,0,1,3.28.55,7.47,7.47,0,0,1,2.55,1.48,6.62,6.62,0,0,1,1.69,2.32,7.68,7.68,0,0,1,.7,2.91c0,.36,0,.7,0,1v1.72q0,.44,0,1a8,8,0,0,1-.68,2.94,6.88,6.88,0,0,1-1.66,2.29,7.44,7.44,0,0,1-2.5,1.5,9.51,9.51,0,0,1-3.25.52h-7a.66.66,0,0,1-.49-.2.69.69,0,0,1-.21-.5V35.06a.69.69,0,0,1,.21-.5.67.67,0,0,1,.49-.21Zm3.41,7.15q-.15-3-3.54-3h-2.65v9.88h2.78c2.19,0,3.32-1,3.41-3,0-.36,0-.7,0-1V42.52Q128.73,42.06,128.7,41.5Zm20.06-7.41a8.93,8.93,0,0,1,3,.5,8.58,8.58,0,0,1,2.42,1.22,6.36,6.36,0,0,1,1.59,1.66,3.45,3.45,0,0,1,.59,1.75.57.57,0,0,1-.18.41.46.46,0,0,1-.36.16h-3.41a1.5,1.5,0,0,1-.6-.11,1.79,1.79,0,0,1-.44-.31l-.26-.26a1.74,1.74,0,0,0-.47-.36,2.57,2.57,0,0,0-.78-.34,3.73,3.73,0,0,0-1.14-.16,6,6,0,0,0-1,.08,3.2,3.2,0,0,0-.81.21,1.61,1.61,0,0,0-.57.39,1,1,0,0,0-.21.65.92.92,0,0,0,.24.65,2.48,2.48,0,0,0,.83.49,13.79,13.79,0,0,0,1.56.42l2.39.49a15,15,0,0,1,2.5.73,5.6,5.6,0,0,1,1.76,1.12A3.83,3.83,0,0,1,156.56,45a5.58,5.58,0,0,1,.36,2.11,4.72,4.72,0,0,1-.59,2.36,5.66,5.66,0,0,1-1.69,1.8,8.27,8.27,0,0,1-2.55,1.11,12.36,12.36,0,0,1-3.2.39,10.53,10.53,0,0,1-3.22-.46,9.31,9.31,0,0,1-2.53-1.23,6.34,6.34,0,0,1-1.63-1.74,3.87,3.87,0,0,1-.63-2A.53.53,0,0,1,141,47a.54.54,0,0,1,.39-.18h3.4a1.48,1.48,0,0,1,.58.1,1.74,1.74,0,0,1,.41.26l.31.34a4,4,0,0,0,.55.5,4.52,4.52,0,0,0,.88.41,4.32,4.32,0,0,0,1.33.18,7.82,7.82,0,0,0,2.29-.28c.62-.21.93-.57.93-1.09a.79.79,0,0,0-.33-.65,3.25,3.25,0,0,0-1-.47,12.79,12.79,0,0,0-1.74-.44l-2.47-.52a7.43,7.43,0,0,1-3.93-1.9,5.17,5.17,0,0,1-1.22-3.59,4.79,4.79,0,0,1,.5-2.13,5.49,5.49,0,0,1,1.48-1.8,7.25,7.25,0,0,1,2.31-1.22A9.56,9.56,0,0,1,148.76,34.09Zm18.9.26a10.62,10.62,0,0,1,3,.39,6,6,0,0,1,2.26,1.15,4.86,4.86,0,0,1,1.43,1.9,6.27,6.27,0,0,1,.52,2.65,6.41,6.41,0,0,1-.52,2.68A4.9,4.9,0,0,1,172.91,45a6.35,6.35,0,0,1-2.26,1.15,10.62,10.62,0,0,1-3,.39h-3.33v5.3a.69.69,0,0,1-.21.5.66.66,0,0,1-.49.2h-3.41a.66.66,0,0,1-.49-.2.69.69,0,0,1-.21-.5V35.06a.69.69,0,0,1,.21-.5.67.67,0,0,1,.49-.21Zm-3.33,8.14h3.2a3.1,3.1,0,0,0,1.79-.47,1.75,1.75,0,0,0,.73-1.58,1.7,1.7,0,0,0-.73-1.56,3,3,0,0,0-1.79-.5h-3.2Zm26,5.9a.65.65,0,0,1,.49.21.69.69,0,0,1,.21.5v2.75a.69.69,0,0,1-.21.5.64.64,0,0,1-.49.2H178a.66.66,0,0,1-.49-.2.69.69,0,0,1-.21-.5V35.06a.69.69,0,0,1,.21-.5.67.67,0,0,1,.49-.21h12.12a.65.65,0,0,1,.49.21.69.69,0,0,1,.21.5v2.75a.69.69,0,0,1-.21.5.64.64,0,0,1-.49.2h-8v2.81h7.44a.65.65,0,0,1,.49.21.67.67,0,0,1,.21.49v2.76a.72.72,0,0,1-.7.7h-7.44v2.91Zm15.51,4.16a1.1,1.1,0,0,1-.73-.23,3.14,3.14,0,0,1-.34-.36l-5.95-8.9v8.79a.69.69,0,0,1-.21.5.66.66,0,0,1-.49.2h-3.41a.66.66,0,0,1-.49-.2.69.69,0,0,1-.21-.5V35.06a.69.69,0,0,1,.21-.5.67.67,0,0,1,.49-.21h2.71a1,1,0,0,1,.7.24,1.67,1.67,0,0,1,.36.36l6,8.89V35.06a.72.72,0,0,1,.2-.5.69.69,0,0,1,.5-.21h3.4a.72.72,0,0,1,.71.71V51.85a.69.69,0,0,1-.21.5.68.68,0,0,1-.5.2Zm20.4-18.2a.67.67,0,0,1,.49.21.69.69,0,0,1,.21.5v2.75a.69.69,0,0,1-.21.5.66.66,0,0,1-.49.2H221.7V51.85a.72.72,0,0,1-.2.5.68.68,0,0,1-.5.2h-3.4a.66.66,0,0,1-.5-.2.69.69,0,0,1-.21-.5V38.51h-4.57a.68.68,0,0,1-.7-.7V35.06a.68.68,0,0,1,.2-.5.69.69,0,0,1,.5-.21Z" transform="translate(-0.75 -0.75)"/><path class="cls-4" d="M142.17,76.57H35.56c-8.68,0-15.71,6.56-15.71,14.65v89.33c0,8.09,7,14.65,15.71,14.65H142.17c8.68,0,15.72-6.56,15.72-14.65V91.22C157.89,83.13,150.85,76.57,142.17,76.57Z" transform="translate(-0.75 -0.75)"/><path class="cls-4" d="M291,76.57H184.41c-8.68,0-15.72,6.56-15.72,14.65v89.33c0,8.09,7,14.65,15.72,14.65H291c8.68,0,15.71-6.56,15.71-14.65V91.22C306.73,83.13,299.7,76.57,291,76.57Z" transform="translate(-0.75 -0.75)"/><path class="cls-4" d="M216.6,205H110c-8.68,0-15.72,6.56-15.72,14.66V309c0,8.1,7,14.66,15.72,14.66H216.6c8.67,0,15.71-6.56,15.71-14.66V219.65C232.31,211.55,225.27,205,216.6,205Z" transform="translate(-0.75 -0.75)"/><rect class="cls-5" x="51.62" y="81.35" width="76.41" height="111.69"/><path class="cls-4" d="M142.42,410.67H35.81c-8.68,0-15.72,6.56-15.72,14.66v89.32c0,8.09,7,14.65,15.72,14.65H142.42c8.68,0,15.72-6.56,15.72-14.65V425.33C158.14,417.23,151.1,410.67,142.42,410.67Z" transform="translate(-0.75 -0.75)"/><path class="cls-4" d="M291.26,410.67H184.65c-8.68,0-15.71,6.56-15.71,14.66v89.32c0,8.09,7,14.65,15.71,14.65H291.26c8.68,0,15.72-6.56,15.72-14.65V425.33C307,417.23,299.94,410.67,291.26,410.67Z" transform="translate(-0.75 -0.75)"/><path class="cls-4" d="M216.6,539.28H110c-8.68,0-15.72,6.56-15.72,14.65v89.32c0,8.09,7,14.66,15.72,14.66H216.6c8.67,0,15.71-6.57,15.71-14.66V553.93C232.31,545.84,225.27,539.28,216.6,539.28Z" transform="translate(-0.75 -0.75)"/><rect class="cls-5" x="200.67" y="415.54" width="77.36" height="111.69"/><path class="cls-2" d="M244.9,358.32H81.36c-12.23,0-22.14,8.78-22.14,19.62s9.91,19.62,22.14,19.62H244.9c12.23,0,22.14-8.79,22.14-19.62S257.13,358.32,244.9,358.32Z" transform="translate(-0.75 -0.75)"/><path class="cls-3" d="M93.69,386.55a.64.64,0,0,1-.47-.18.63.63,0,0,1-.18-.47V369a.63.63,0,0,1,.18-.47.64.64,0,0,1,.47-.18h3.48a.64.64,0,0,1,.47.18.63.63,0,0,1,.18.47V385.9a.63.63,0,0,1-.18.47.64.64,0,0,1-.47.18Zm8.43,0a.64.64,0,0,1-.47-.18.63.63,0,0,1-.18-.47V369a.63.63,0,0,1,.18-.47.64.64,0,0,1,.47-.18h2.75a.8.8,0,0,1,.63.2,1.19,1.19,0,0,1,.26.29l6.34,10V369a.63.63,0,0,1,.18-.47.66.66,0,0,1,.47-.18h3.12a.64.64,0,0,1,.47.18.63.63,0,0,1,.18.47V385.9a.69.69,0,0,1-.18.47.64.64,0,0,1-.47.18h-2.78a.83.83,0,0,1-.62-.2l-.24-.29-6.34-9.62v9.46a.63.63,0,0,1-.18.47.66.66,0,0,1-.47.18Zm25.5.27a10.12,10.12,0,0,1-4.24-.81,6.31,6.31,0,0,1-2.73-2.37,8,8,0,0,1-1.07-3.87c0-.71,0-1.47,0-2.29s0-1.59,0-2.34a7.67,7.67,0,0,1,1.1-3.82,6.06,6.06,0,0,1,2.75-2.39,9.7,9.7,0,0,1,4.19-.83,10.7,10.7,0,0,1,3.17.44,7.41,7.41,0,0,1,2.55,1.25,5.51,5.51,0,0,1,1.69,2,5.65,5.65,0,0,1,.65,2.6.42.42,0,0,1-.16.39.5.5,0,0,1-.39.16h-3.51a1,1,0,0,1-.52-.13,1.33,1.33,0,0,1-.31-.55,2.88,2.88,0,0,0-1.2-1.87,3.56,3.56,0,0,0-2-.52,3.15,3.15,0,0,0-2.26.8,3.75,3.75,0,0,0-.91,2.63c0,1.42,0,2.88,0,4.37a3.82,3.82,0,0,0,.91,2.65,3.18,3.18,0,0,0,2.26.78,3.71,3.71,0,0,0,2-.52,2.88,2.88,0,0,0,1.17-1.87.94.94,0,0,1,.29-.52.83.83,0,0,1,.54-.16h3.51a.5.5,0,0,1,.39.16.42.42,0,0,1,.16.39,5.77,5.77,0,0,1-2.34,4.6,8.42,8.42,0,0,1-2.55,1.25A11.41,11.41,0,0,1,127.62,386.82Zm11.44-.27a.64.64,0,0,1-.47-.18.63.63,0,0,1-.18-.47V369a.63.63,0,0,1,.18-.47.64.64,0,0,1,.47-.18H151.2a.64.64,0,0,1,.47.18.63.63,0,0,1,.18.47v2.44a.62.62,0,0,1-.65.65h-8.29v3.51h7.72a.59.59,0,0,1,.47.21.63.63,0,0,1,.18.47v2.26a.71.71,0,0,1-.18.47.64.64,0,0,1-.47.18h-7.72v3.61h8.5a.62.62,0,0,1,.65.65v2.44a.63.63,0,0,1-.18.47.64.64,0,0,1-.47.18Zm16.61,0a.64.64,0,0,1-.47-.18.63.63,0,0,1-.18-.47V369a.63.63,0,0,1,.18-.47.64.64,0,0,1,.47-.18h2.75a.8.8,0,0,1,.63.2,1.19,1.19,0,0,1,.26.29l6.34,10V369a.63.63,0,0,1,.18-.47.66.66,0,0,1,.47-.18h3.12a.64.64,0,0,1,.47.18.63.63,0,0,1,.18.47V385.9a.69.69,0,0,1-.18.47.64.64,0,0,1-.47.18h-2.78a.85.85,0,0,1-.63-.2c-.12-.14-.19-.24-.23-.29l-6.34-9.62v9.46a.63.63,0,0,1-.18.47.66.66,0,0,1-.47.18Zm22.69,0a.64.64,0,0,1-.47-.18.63.63,0,0,1-.18-.47V372.44h-4.63a.64.64,0,0,1-.47-.18.71.71,0,0,1-.18-.47V369a.63.63,0,0,1,.18-.47.64.64,0,0,1,.47-.18h14a.66.66,0,0,1,.47.18.63.63,0,0,1,.18.47v2.78a.71.71,0,0,1-.18.47.66.66,0,0,1-.47.18h-4.63V385.9a.63.63,0,0,1-.18.47.64.64,0,0,1-.47.18Zm12.37,0a.64.64,0,0,1-.47-.18.63.63,0,0,1-.18-.47V369a.63.63,0,0,1,.18-.47.64.64,0,0,1,.47-.18h3.49a.62.62,0,0,1,.46.18.63.63,0,0,1,.19.47V385.9a.63.63,0,0,1-.19.47.62.62,0,0,1-.46.18Zm13,0a1,1,0,0,1-.7-.23,1.18,1.18,0,0,1-.36-.55l-5.31-16.63a.79.79,0,0,1-.05-.24.46.46,0,0,1,.16-.36.57.57,0,0,1,.41-.18h3.23a.88.88,0,0,1,.65.23,1,1,0,0,1,.28.44l3.67,12,3.69-12a1.46,1.46,0,0,1,.28-.44.89.89,0,0,1,.66-.23h3.22a.5.5,0,0,1,.39.18.45.45,0,0,1,.18.36.79.79,0,0,1-.05.24l-5.3,16.63a1.2,1.2,0,0,1-.37.55.93.93,0,0,1-.7.23Zm13.48,0a.64.64,0,0,1-.47-.18.63.63,0,0,1-.18-.47V369a.63.63,0,0,1,.18-.47.64.64,0,0,1,.47-.18h12.14a.64.64,0,0,1,.47.18.63.63,0,0,1,.18.47v2.44a.62.62,0,0,1-.65.65H221v3.51h7.72a.61.61,0,0,1,.47.21.63.63,0,0,1,.18.47v2.26a.71.71,0,0,1-.18.47.66.66,0,0,1-.47.18H221v3.61h8.5a.66.66,0,0,1,.47.18.64.64,0,0,1,.18.47v2.44a.63.63,0,0,1-.18.47.66.66,0,0,1-.47.18Z" transform="translate(-0.75 -0.75)"/></svg>