<svg width="1789" height="841" viewBox="0 0 1789 841" fill="none" xmlns="http://www.w3.org/2000/svg">
<path d="M1744.75 10.1636H44.2012C21.4464 10.1636 3 28.1107 3 50.2496V798.007C3 820.146 21.4464 838.093 44.2012 838.093H1744.75C1767.51 838.093 1785.95 820.146 1785.95 798.007V50.2496C1785.95 28.1107 1767.51 10.1636 1744.75 10.1636Z" fill="white" stroke="#1C5E8A" stroke-width="5" stroke-miterlimit="10"/>
<path d="M573.125 0H1305.78V47.5784C1305.78 51.9961 1303.71 56.2328 1300.02 59.3566C1296.34 62.4804 1291.34 64.2353 1286.13 64.2353H592.766C587.556 64.233 582.56 62.477 578.877 59.3535C575.194 56.23 573.125 51.9946 573.125 47.5784V0Z" fill="#1C5E8A"/>
<path d="M771.725 18.9995C772.258 18.9995 772.658 19.1462 772.925 19.4395C773.218 19.7328 773.418 20.0262 773.525 20.3195L782.245 45.5195C782.352 45.7862 782.405 45.9862 782.405 46.1195C782.405 46.3595 782.312 46.5728 782.125 46.7595C781.965 46.9195 781.765 46.9995 781.525 46.9995H776.485C775.952 46.9995 775.565 46.8928 775.325 46.6795C775.112 46.4395 774.978 46.2128 774.925 45.9995L773.805 42.6795H763.165L762.045 45.9995C761.992 46.2128 761.845 46.4395 761.605 46.6795C761.392 46.8928 761.018 46.9995 760.485 46.9995H755.445C755.205 46.9995 754.992 46.9195 754.805 46.7595C754.645 46.5728 754.565 46.3595 754.565 46.1195C754.565 45.9862 754.618 45.7862 754.725 45.5195L763.445 20.3195C763.552 20.0262 763.738 19.7328 764.005 19.4395C764.298 19.1462 764.712 18.9995 765.245 18.9995H771.725ZM765.245 36.4795H771.725L768.485 26.8795L765.245 36.4795ZM795.916 18.9995C797.756 18.9995 799.436 19.2795 800.956 19.8395C802.476 20.3728 803.783 21.1328 804.876 22.1195C805.996 23.1062 806.863 24.2928 807.476 25.6795C808.116 27.0395 808.476 28.5328 808.556 30.1595C808.583 30.7195 808.596 31.2395 808.596 31.7195C808.596 32.1728 808.596 32.6128 808.596 33.0395C808.596 33.4662 808.596 33.9062 808.596 34.3595C808.596 34.8128 808.583 35.3062 808.556 35.8395C808.476 37.4928 808.129 38.9995 807.516 40.3595C806.903 41.7195 806.049 42.8928 804.956 43.8795C803.889 44.8662 802.609 45.6395 801.116 46.1995C799.623 46.7328 797.956 46.9995 796.116 46.9995H785.316C785.023 46.9995 784.769 46.8928 784.556 46.6795C784.343 46.4662 784.236 46.2128 784.236 45.9195V20.0795C784.236 19.7862 784.343 19.5328 784.556 19.3195C784.769 19.1062 785.023 18.9995 785.316 18.9995H795.916ZM801.156 29.9995C800.996 26.9328 799.183 25.3995 795.716 25.3995H791.636V40.5995H795.916C799.276 40.5995 801.023 39.0662 801.156 35.9995C801.183 35.4395 801.196 34.9195 801.196 34.4395C801.196 33.9328 801.196 33.4528 801.196 32.9995C801.196 32.5195 801.196 32.0395 801.196 31.5595C801.196 31.0795 801.183 30.5595 801.156 29.9995ZM823.022 40.7595C823.022 40.4662 822.916 40.2395 822.702 40.0795C822.516 39.9195 822.182 39.7862 821.702 39.6795C821.222 39.5728 820.582 39.4662 819.782 39.3595C819.009 39.2528 818.036 39.0928 816.862 38.8795C814.836 38.5062 813.276 37.7595 812.182 36.6395C811.089 35.5195 810.542 34.0528 810.542 32.2395C810.542 31.3328 810.769 30.4928 811.222 29.7195C811.676 28.9462 812.302 28.2662 813.102 27.6795C813.929 27.0928 814.916 26.6395 816.062 26.3195C817.209 25.9728 818.489 25.7995 819.902 25.7995C821.289 25.7995 822.569 25.9728 823.742 26.3195C824.916 26.6395 825.929 27.0662 826.782 27.5995C827.636 28.1062 828.302 28.7062 828.782 29.3995C829.289 30.0662 829.569 30.7328 829.622 31.3995C829.649 31.6928 829.542 31.9462 829.302 32.1595C829.089 32.3728 828.836 32.4795 828.542 32.4795H823.782C823.489 32.4795 823.249 32.4128 823.062 32.2795C822.902 32.1462 822.702 31.9995 822.462 31.8395C822.222 31.6795 821.902 31.5328 821.502 31.3995C821.129 31.2662 820.596 31.1995 819.902 31.1995C819.289 31.1995 818.769 31.2928 818.342 31.4795C817.942 31.6395 817.742 31.9195 817.742 32.3195C817.742 32.6128 817.809 32.8395 817.942 32.9995C818.076 33.1595 818.342 33.2928 818.742 33.3995C819.142 33.4795 819.702 33.5728 820.422 33.6795C821.142 33.7862 822.089 33.9328 823.262 34.1195C825.689 34.5195 827.449 35.3462 828.542 36.5995C829.662 37.8262 830.222 39.2395 830.222 40.8395C830.222 41.7462 829.996 42.5995 829.542 43.3995C829.089 44.1728 828.422 44.8662 827.542 45.4795C826.662 46.0662 825.596 46.5328 824.342 46.8795C823.089 47.2262 821.662 47.3995 820.062 47.3995C818.462 47.3995 817.049 47.2262 815.822 46.8795C814.622 46.5062 813.609 46.0395 812.782 45.4795C811.956 44.9195 811.316 44.3062 810.862 43.6395C810.436 42.9728 810.196 42.3195 810.142 41.6795C810.116 41.3862 810.209 41.1328 810.422 40.9195C810.662 40.7062 810.929 40.5995 811.222 40.5995H816.182C816.476 40.5995 816.689 40.6795 816.822 40.8395C816.956 40.9728 817.129 41.1328 817.342 41.3195C817.556 41.4795 817.862 41.6395 818.262 41.7995C818.662 41.9328 819.262 41.9995 820.062 41.9995C820.862 41.9995 821.556 41.8928 822.142 41.6795C822.729 41.4662 823.022 41.1595 823.022 40.7595ZM865.596 33.5195C865.676 33.1195 865.863 32.8262 866.156 32.6395C866.45 32.4528 866.77 32.3595 867.116 32.3595H871.876C872.17 32.3595 872.423 32.4662 872.636 32.6795C872.85 32.8928 872.956 33.1328 872.956 33.3995C872.956 33.8795 872.89 34.4395 872.756 35.0795C872.65 35.6928 872.463 36.3595 872.196 37.0795C871.93 37.7728 871.583 38.4928 871.156 39.2395C870.73 39.9862 870.223 40.7195 869.636 41.4395L873.916 45.7595C874.076 45.9195 874.156 46.1062 874.156 46.3195C874.156 46.5062 874.09 46.6662 873.956 46.7995C873.823 46.9328 873.65 46.9995 873.436 46.9995H866.196C865.903 46.9995 865.69 46.9595 865.556 46.8795C865.423 46.7995 865.303 46.7062 865.196 46.5995L864.316 45.7195C863.223 46.2528 862.023 46.6662 860.716 46.9595C859.436 47.2528 858.023 47.3995 856.476 47.3995C855.276 47.3995 854.063 47.2662 852.836 46.9995C851.61 46.7595 850.49 46.3328 849.476 45.7195C848.49 45.0795 847.676 44.2528 847.036 43.2395C846.423 42.1995 846.116 40.9062 846.116 39.3595C846.116 37.7595 846.53 36.3862 847.356 35.2395C848.21 34.0928 849.383 33.0395 850.876 32.0795C850.396 31.5195 849.983 30.9862 849.636 30.4795C849.316 29.9728 849.05 29.4795 848.836 28.9995C848.623 28.5195 848.463 28.0262 848.356 27.5195C848.276 27.0128 848.236 26.4662 848.236 25.8795C848.236 24.8128 848.476 23.8395 848.956 22.9595C849.436 22.0528 850.09 21.2795 850.916 20.6395C851.743 19.9995 852.716 19.5062 853.836 19.1595C854.956 18.7862 856.143 18.5995 857.396 18.5995C858.65 18.5995 859.836 18.7862 860.956 19.1595C862.076 19.5328 863.05 20.0528 863.876 20.7195C864.73 21.3595 865.396 22.1328 865.876 23.0395C866.356 23.9195 866.596 24.8662 866.596 25.8795C866.596 26.4128 866.516 26.9862 866.356 27.5995C866.223 28.2128 865.97 28.8395 865.596 29.4795C865.25 30.1195 864.756 30.7862 864.116 31.4795C863.503 32.1462 862.716 32.8128 861.756 33.4795L864.556 36.3195C864.823 35.8128 865.036 35.3195 865.196 34.8395C865.383 34.3595 865.516 33.9195 865.596 33.5195ZM856.476 42.0395C857.09 42.0395 857.676 41.9728 858.236 41.8395C858.796 41.6795 859.343 41.4662 859.876 41.1995L855.596 36.8795C854.93 37.2528 854.37 37.6795 853.916 38.1595C853.49 38.6128 853.276 39.1062 853.276 39.6395C853.276 40.4128 853.543 41.0128 854.076 41.4395C854.636 41.8395 855.436 42.0395 856.476 42.0395ZM855.396 25.8795C855.396 26.3328 855.556 26.7995 855.876 27.2795C856.196 27.7595 856.57 28.2262 856.996 28.6795C858.596 27.7195 859.396 26.7862 859.396 25.8795C859.396 25.1862 859.183 24.6928 858.756 24.3995C858.33 24.1062 857.876 23.9595 857.396 23.9595C856.863 23.9595 856.396 24.1195 855.996 24.4395C855.596 24.7595 855.396 25.2395 855.396 25.8795ZM902.935 40.2795C902.535 40.2795 902.215 40.1728 901.975 39.9595C901.762 39.7195 901.589 39.4928 901.455 39.2795L897.695 32.6795V45.9195C897.695 46.2128 897.589 46.4662 897.375 46.6795C897.162 46.8928 896.909 46.9995 896.615 46.9995H891.375C891.082 46.9995 890.829 46.8928 890.615 46.6795C890.402 46.4662 890.295 46.2128 890.295 45.9195V20.0795C890.295 19.7862 890.402 19.5328 890.615 19.3195C890.829 19.1062 891.082 18.9995 891.375 18.9995H896.015C896.549 18.9995 896.949 19.1462 897.215 19.4395C897.482 19.7328 897.655 19.9462 897.735 20.0795L904.215 31.1595L910.695 20.0795C910.775 19.9462 910.949 19.7328 911.215 19.4395C911.482 19.1462 911.882 18.9995 912.415 18.9995H917.055C917.349 18.9995 917.602 19.1062 917.815 19.3195C918.029 19.5328 918.135 19.7862 918.135 20.0795V45.9195C918.135 46.2128 918.029 46.4662 917.815 46.6795C917.602 46.8928 917.349 46.9995 917.055 46.9995H911.815C911.522 46.9995 911.269 46.8928 911.055 46.6795C910.842 46.4662 910.735 46.2128 910.735 45.9195V32.6795L906.975 39.2795C906.842 39.4928 906.655 39.7195 906.415 39.9595C906.202 40.1728 905.895 40.2795 905.495 40.2795H902.935ZM937.133 18.9995C937.666 18.9995 938.066 19.1462 938.333 19.4395C938.626 19.7328 938.826 20.0262 938.933 20.3195L947.653 45.5195C947.759 45.7862 947.813 45.9862 947.813 46.1195C947.813 46.3595 947.719 46.5728 947.533 46.7595C947.373 46.9195 947.173 46.9995 946.933 46.9995H941.893C941.359 46.9995 940.973 46.8928 940.733 46.6795C940.519 46.4395 940.386 46.2128 940.333 45.9995L939.213 42.6795H928.573L927.453 45.9995C927.399 46.2128 927.253 46.4395 927.013 46.6795C926.799 46.8928 926.426 46.9995 925.893 46.9995H920.853C920.613 46.9995 920.399 46.9195 920.213 46.7595C920.053 46.5728 919.973 46.3595 919.973 46.1195C919.973 45.9862 920.026 45.7862 920.133 45.5195L928.853 20.3195C928.959 20.0262 929.146 19.7328 929.413 19.4395C929.706 19.1462 930.119 18.9995 930.653 18.9995H937.133ZM930.653 36.4795H937.133L933.893 26.8795L930.653 36.4795ZM961.564 18.9995C963.324 18.9995 964.897 19.1862 966.284 19.5595C967.67 19.9328 968.844 20.4928 969.804 21.2395C970.79 21.9862 971.537 22.9462 972.044 24.1195C972.577 25.2662 972.844 26.6128 972.844 28.1595C972.844 30.1595 972.43 31.8262 971.604 33.1595C970.777 34.4662 969.604 35.4662 968.084 36.1595L973.044 45.6795C973.124 45.8395 973.164 45.9862 973.164 46.1195C973.164 46.3595 973.07 46.5728 972.884 46.7595C972.724 46.9195 972.524 46.9995 972.284 46.9995H966.844C966.31 46.9995 965.924 46.8795 965.684 46.6395C965.47 46.3995 965.297 46.1595 965.164 45.9195L960.724 37.3595H957.044V45.9195C957.044 46.2128 956.937 46.4662 956.724 46.6795C956.51 46.8928 956.257 46.9995 955.964 46.9995H950.724C950.43 46.9995 950.177 46.8928 949.964 46.6795C949.75 46.4662 949.644 46.2128 949.644 45.9195V20.0795C949.644 19.7862 949.75 19.5328 949.964 19.3195C950.177 19.1062 950.43 18.9995 950.724 18.9995H961.564ZM957.044 31.1195H961.564C962.684 31.1195 963.604 30.9062 964.324 30.4795C965.07 30.0528 965.444 29.2795 965.444 28.1595C965.444 27.0395 965.07 26.2662 964.324 25.8395C963.604 25.4128 962.684 25.1995 961.564 25.1995H957.044V31.1195ZM999.776 45.6795C999.856 45.7862 999.896 45.9328 999.896 46.1195C999.896 46.3595 999.803 46.5728 999.616 46.7595C999.456 46.9195 999.256 46.9995 999.016 46.9995H992.656C992.283 46.9995 991.976 46.9195 991.736 46.7595C991.496 46.5995 991.256 46.3728 991.016 46.0795L983.456 36.5595V45.9195C983.456 46.2128 983.35 46.4662 983.136 46.6795C982.923 46.8928 982.67 46.9995 982.376 46.9995H977.136C976.843 46.9995 976.59 46.8928 976.376 46.6795C976.163 46.4662 976.056 46.2128 976.056 45.9195V20.0795C976.056 19.7862 976.163 19.5328 976.376 19.3195C976.59 19.1062 976.843 18.9995 977.136 18.9995H982.376C982.67 18.9995 982.923 19.1062 983.136 19.3195C983.35 19.5328 983.456 19.7862 983.456 20.0795V28.5195L990.496 19.8795C990.63 19.7195 990.803 19.5328 991.016 19.3195C991.23 19.1062 991.59 18.9995 992.096 18.9995H998.336C998.576 18.9995 998.776 19.0928 998.936 19.2795C999.123 19.4395 999.216 19.6395 999.216 19.8795C999.216 20.0662 999.176 20.2128 999.096 20.3195L989.216 32.3995L999.776 45.6795ZM1021.61 40.5995C1021.9 40.5995 1022.16 40.7062 1022.37 40.9195C1022.58 41.1328 1022.69 41.3862 1022.69 41.6795V45.9195C1022.69 46.2128 1022.58 46.4662 1022.37 46.6795C1022.16 46.8928 1021.9 46.9995 1021.61 46.9995H1002.65C1002.36 46.9995 1002.1 46.8928 1001.89 46.6795C1001.68 46.4662 1001.57 46.2128 1001.57 45.9195V20.0795C1001.57 19.7862 1001.68 19.5328 1001.89 19.3195C1002.1 19.1062 1002.36 18.9995 1002.65 18.9995H1021.29C1021.58 18.9995 1021.84 19.1062 1022.05 19.3195C1022.26 19.5328 1022.37 19.7862 1022.37 20.0795V24.3195C1022.37 24.6128 1022.26 24.8662 1022.05 25.0795C1021.84 25.2928 1021.58 25.3995 1021.29 25.3995H1008.97V29.7195H1020.41C1020.7 29.7195 1020.96 29.8262 1021.17 30.0395C1021.38 30.2528 1021.49 30.5062 1021.49 30.7995V35.0395C1021.49 35.3328 1021.38 35.5862 1021.17 35.7995C1020.96 36.0128 1020.7 36.1195 1020.41 36.1195H1008.97V40.5995H1021.61ZM1046.43 18.9995C1046.73 18.9995 1046.98 19.1062 1047.19 19.3195C1047.41 19.5328 1047.51 19.7862 1047.51 20.0795V24.3195C1047.51 24.6128 1047.41 24.8662 1047.19 25.0795C1046.98 25.2928 1046.73 25.3995 1046.43 25.3995H1039.39V45.9195C1039.39 46.2128 1039.29 46.4662 1039.07 46.6795C1038.86 46.8928 1038.61 46.9995 1038.31 46.9995H1033.07C1032.78 46.9995 1032.53 46.8928 1032.31 46.6795C1032.1 46.4662 1031.99 46.2128 1031.99 45.9195V25.3995H1024.95C1024.66 25.3995 1024.41 25.2928 1024.19 25.0795C1023.98 24.8662 1023.87 24.6128 1023.87 24.3195V20.0795C1023.87 19.7862 1023.98 19.5328 1024.19 19.3195C1024.41 19.1062 1024.66 18.9995 1024.95 18.9995H1046.43ZM1050.79 46.9995C1050.49 46.9995 1050.24 46.8928 1050.03 46.6795C1049.81 46.4662 1049.71 46.2128 1049.71 45.9195V20.0795C1049.71 19.7862 1049.81 19.5328 1050.03 19.3195C1050.24 19.1062 1050.49 18.9995 1050.79 18.9995H1056.03C1056.32 18.9995 1056.57 19.1062 1056.79 19.3195C1057 19.5328 1057.11 19.7862 1057.11 20.0795V45.9195C1057.11 46.2128 1057 46.4662 1056.79 46.6795C1056.57 46.8928 1056.32 46.9995 1056.03 46.9995H1050.79ZM1079.52 46.9995C1079.06 46.9995 1078.69 46.8795 1078.4 46.6395C1078.13 46.3995 1077.96 46.2128 1077.88 46.0795L1068.72 32.3995V45.9195C1068.72 46.2128 1068.61 46.4662 1068.4 46.6795C1068.18 46.8928 1067.93 46.9995 1067.64 46.9995H1062.4C1062.1 46.9995 1061.85 46.8928 1061.64 46.6795C1061.42 46.4662 1061.32 46.2128 1061.32 45.9195V20.0795C1061.32 19.7862 1061.42 19.5328 1061.64 19.3195C1061.85 19.1062 1062.1 18.9995 1062.4 18.9995H1066.56C1067.01 18.9995 1067.37 19.1195 1067.64 19.3595C1067.93 19.5995 1068.12 19.7862 1068.2 19.9195L1077.36 33.5995V20.0795C1077.36 19.7862 1077.46 19.5328 1077.68 19.3195C1077.89 19.1062 1078.14 18.9995 1078.44 18.9995H1083.68C1083.97 18.9995 1084.22 19.1062 1084.44 19.3195C1084.65 19.5328 1084.76 19.7862 1084.76 20.0795V45.9195C1084.76 46.2128 1084.65 46.4662 1084.44 46.6795C1084.22 46.8928 1083.97 46.9995 1083.68 46.9995H1079.52ZM1100.42 24.9995C1099.51 24.9995 1098.75 25.1328 1098.14 25.3995C1097.53 25.6395 1097.02 25.9728 1096.62 26.3995C1096.25 26.8262 1095.97 27.3195 1095.78 27.8795C1095.59 28.4395 1095.46 29.0262 1095.38 29.6395C1095.33 29.9862 1095.29 30.4662 1095.26 31.0795C1095.26 31.6928 1095.26 32.3328 1095.26 32.9995C1095.26 33.6395 1095.27 34.2795 1095.3 34.9195C1095.33 35.5328 1095.35 36.0128 1095.38 36.3595C1095.43 36.9728 1095.55 37.5595 1095.74 38.1195C1095.95 38.6795 1096.25 39.1728 1096.62 39.5995C1097.02 40.0262 1097.53 40.3728 1098.14 40.6395C1098.78 40.8795 1099.54 40.9995 1100.42 40.9995C1101.11 40.9995 1101.77 40.9195 1102.38 40.7595C1102.99 40.5995 1103.53 40.3462 1103.98 39.9995C1104.43 39.6528 1104.79 39.1995 1105.06 38.6395C1105.33 38.0795 1105.46 37.3995 1105.46 36.5995H1102.1C1101.81 36.5995 1101.55 36.4928 1101.34 36.2795C1101.13 36.0662 1101.02 35.8128 1101.02 35.5195V31.2795C1101.02 30.9862 1101.13 30.7328 1101.34 30.5195C1101.55 30.3062 1101.81 30.1995 1102.1 30.1995H1111.78C1112.07 30.1995 1112.33 30.3062 1112.54 30.5195C1112.75 30.7328 1112.86 30.9862 1112.86 31.2795V36.3995C1112.86 38.1062 1112.54 39.6395 1111.9 40.9995C1111.26 42.3595 1110.38 43.5195 1109.26 44.4795C1108.14 45.4128 1106.82 46.1328 1105.3 46.6395C1103.81 47.1462 1102.18 47.3995 1100.42 47.3995C1098.5 47.3995 1096.78 47.1195 1095.26 46.5595C1093.77 45.9728 1092.49 45.1862 1091.42 44.1995C1090.35 43.2128 1089.53 42.0662 1088.94 40.7595C1088.38 39.4262 1088.06 38.0262 1087.98 36.5595C1087.93 35.4662 1087.9 34.2928 1087.9 33.0395C1087.9 31.7862 1087.93 30.5862 1087.98 29.4395C1088.03 27.9728 1088.35 26.5862 1088.94 25.2795C1089.53 23.9462 1090.34 22.7862 1091.38 21.7995C1092.45 20.8128 1093.74 20.0395 1095.26 19.4795C1096.78 18.8928 1098.5 18.5995 1100.42 18.5995C1102.29 18.5995 1103.97 18.8795 1105.46 19.4395C1106.95 19.9728 1108.22 20.6662 1109.26 21.5195C1110.3 22.3462 1111.11 23.2662 1111.7 24.2795C1112.29 25.2662 1112.61 26.2128 1112.66 27.1195C1112.69 27.3595 1112.61 27.5728 1112.42 27.7595C1112.23 27.9195 1112.02 27.9995 1111.78 27.9995H1106.46C1106.06 27.9995 1105.74 27.8795 1105.5 27.6395C1105.29 27.3995 1105.07 27.1595 1104.86 26.9195C1104.49 26.4395 1103.98 25.9995 1103.34 25.5995C1102.7 25.1995 1101.73 24.9995 1100.42 24.9995Z" fill="white"/>
</svg>
