<svg width="167" height="169" viewBox="0 0 167 169" fill="none" xmlns="http://www.w3.org/2000/svg">
<g filter="url(#filter0_f_231_7081)">
<path d="M152.769 17.6254H142.763L146.179 13.5662C146.23 13.5118 146.265 13.4441 146.28 13.3707C146.295 13.2973 146.29 13.2211 146.265 13.1505C146.241 13.0799 146.197 13.0175 146.14 12.9705C146.082 12.9235 146.013 12.8937 145.94 12.8843H129.467V7.29891C129.468 7.12852 129.435 6.95969 129.372 6.80212C129.308 6.64455 129.215 6.50132 129.097 6.38065C128.979 6.25997 128.838 6.16423 128.684 6.0989C128.53 6.03358 128.364 6 128.197 6H38.787C38.6199 6 38.4544 6.03358 38.3 6.0989C38.1456 6.16423 38.0054 6.25997 37.8874 6.38065C37.7694 6.50132 37.6759 6.64455 37.6123 6.80212C37.5487 6.95969 37.5163 7.12852 37.5168 7.29891V12.8843H21.0436C20.9706 12.8937 20.9017 12.9235 20.8443 12.9705C20.787 13.0175 20.7435 13.0799 20.7187 13.1505C20.694 13.2211 20.6889 13.2973 20.7041 13.3707C20.7193 13.4441 20.754 13.5118 20.8046 13.5662L24.2212 17.6254H14.2146C12.036 17.6254 9.94662 18.5077 8.40607 20.0781C6.86551 21.6486 6 23.7784 6 25.9994V154.626C6 156.847 6.86551 158.977 8.40607 160.547C9.94662 162.118 12.036 163 14.2146 163H152.785C153.864 163 154.932 162.783 155.929 162.363C156.926 161.942 157.831 161.325 158.594 160.547C159.357 159.77 159.962 158.847 160.375 157.831C160.788 156.815 161 155.726 161 154.626V25.9994C161 24.8983 160.787 23.8081 160.373 22.7911C159.959 21.7741 159.353 20.8502 158.589 20.0724C157.824 19.2946 156.916 18.678 155.918 18.2581C154.92 17.8383 153.85 17.6232 152.769 17.6254Z" fill="#3C3C3C"/>
</g>
<path d="M22.4836 91C22.3769 91 22.2862 90.9627 22.2116 90.888C22.1369 90.8133 22.0996 90.7227 22.0996 90.616V80.2C22.0996 80.0827 22.1369 79.9867 22.2116 79.912C22.2862 79.8373 22.3769 79.8 22.4836 79.8H26.3876C27.4649 79.8 28.3502 79.9653 29.0436 80.296C29.7476 80.6267 30.2756 81.1173 30.6276 81.768C30.9902 82.4187 31.1769 83.2133 31.1876 84.152C31.2089 84.6213 31.2196 85.0373 31.2196 85.4C31.2196 85.7627 31.2089 86.1733 31.1876 86.632C31.1662 87.624 30.9849 88.4453 30.6436 89.096C30.3022 89.736 29.7849 90.216 29.0916 90.536C28.4089 90.8453 27.5342 91 26.4676 91H22.4836ZM24.3236 89.16H26.3876C26.9849 89.16 27.4702 89.0747 27.8436 88.904C28.2169 88.7333 28.4889 88.4613 28.6596 88.088C28.8409 87.704 28.9369 87.2027 28.9476 86.584C28.9582 86.264 28.9636 85.9867 28.9636 85.752C28.9742 85.5067 28.9742 85.2667 28.9636 85.032C28.9636 84.7867 28.9582 84.5093 28.9476 84.2C28.9262 83.3253 28.7076 82.68 28.2916 82.264C27.8756 81.848 27.2142 81.64 26.3076 81.64H24.3236V89.16ZM33.7336 91C33.6269 91 33.5362 90.9627 33.4616 90.888C33.3869 90.8133 33.3496 90.7227 33.3496 90.616V80.2C33.3496 80.0827 33.3869 79.9867 33.4616 79.912C33.5362 79.8373 33.6269 79.8 33.7336 79.8H37.8776C39.1682 79.8 40.1869 80.0987 40.9336 80.696C41.6802 81.2933 42.0536 82.1627 42.0536 83.304C42.0536 84.0933 41.8562 84.7493 41.4616 85.272C41.0776 85.7947 40.5602 86.1733 39.9096 86.408L42.2456 90.488C42.2776 90.552 42.2936 90.6107 42.2936 90.664C42.2936 90.76 42.2562 90.84 42.1816 90.904C42.1176 90.968 42.0429 91 41.9576 91H40.5016C40.3202 91 40.1816 90.952 40.0856 90.856C39.9896 90.76 39.9149 90.664 39.8616 90.568L37.7976 86.776H35.5736V90.616C35.5736 90.7227 35.5362 90.8133 35.4616 90.888C35.3976 90.9627 35.3069 91 35.1896 91H33.7336ZM35.5736 84.968H37.8296C38.4802 84.968 38.9656 84.824 39.2856 84.536C39.6056 84.2373 39.7656 83.8213 39.7656 83.288C39.7656 82.7547 39.6056 82.3387 39.2856 82.04C38.9762 81.7307 38.4909 81.576 37.8296 81.576H35.5736V84.968ZM43.4272 91C43.3419 91 43.2619 90.968 43.1872 90.904C43.1232 90.84 43.0912 90.76 43.0912 90.664C43.0912 90.6213 43.1019 90.5733 43.1232 90.52L46.9792 80.2C47.0112 80.0933 47.0699 80.0027 47.1552 79.928C47.2512 79.8427 47.3792 79.8 47.5392 79.8H49.2832C49.4432 79.8 49.5659 79.8427 49.6512 79.928C49.7365 80.0027 49.8005 80.0933 49.8432 80.2L53.6992 90.52C53.7099 90.5733 53.7152 90.6213 53.7152 90.664C53.7152 90.76 53.6832 90.84 53.6192 90.904C53.5552 90.968 53.4805 91 53.3952 91H52.0032C51.8539 91 51.7419 90.968 51.6672 90.904C51.6032 90.8293 51.5605 90.76 51.5392 90.696L50.7872 88.744H46.0352L45.2832 90.696C45.2619 90.76 45.2139 90.8293 45.1392 90.904C45.0752 90.968 44.9685 91 44.8192 91H43.4272ZM46.5952 86.904H50.2272L48.4032 81.96L46.5952 86.904ZM59.3422 91.16C58.3609 91.16 57.5235 90.9893 56.8302 90.648C56.1475 90.3067 55.6142 89.816 55.2302 89.176C54.8569 88.5253 54.6542 87.752 54.6222 86.856C54.6115 86.3973 54.6062 85.9067 54.6062 85.384C54.6062 84.8507 54.6115 84.3493 54.6222 83.88C54.6542 82.9947 54.8569 82.2373 55.2302 81.608C55.6142 80.9787 56.1529 80.4933 56.8462 80.152C57.5502 79.8107 58.3822 79.64 59.3422 79.64C60.1209 79.64 60.8035 79.7467 61.3902 79.96C61.9769 80.1627 62.4622 80.4293 62.8462 80.76C63.2409 81.08 63.5342 81.4267 63.7262 81.8C63.9289 82.1733 64.0355 82.52 64.0462 82.84C64.0569 82.936 64.0302 83.016 63.9662 83.08C63.9022 83.144 63.8169 83.176 63.7102 83.176H62.0622C61.9555 83.176 61.8755 83.1547 61.8222 83.112C61.7689 83.0693 61.7209 83.0053 61.6782 82.92C61.5929 82.696 61.4595 82.4773 61.2782 82.264C61.0969 82.04 60.8515 81.8533 60.5422 81.704C60.2329 81.5547 59.8329 81.48 59.3422 81.48C58.6169 81.48 58.0355 81.672 57.5982 82.056C57.1715 82.44 56.9422 83.0747 56.9102 83.96C56.8782 84.888 56.8782 85.8267 56.9102 86.776C56.9422 87.6827 57.1769 88.3333 57.6142 88.728C58.0622 89.1227 58.6489 89.32 59.3742 89.32C59.8542 89.32 60.2809 89.2347 60.6542 89.064C61.0382 88.8933 61.3369 88.6267 61.5502 88.264C61.7742 87.9013 61.8862 87.4373 61.8862 86.872V86.376H59.9342C59.8275 86.376 59.7369 86.3387 59.6622 86.264C59.5875 86.1893 59.5502 86.0933 59.5502 85.976V85.128C59.5502 85.0107 59.5875 84.9147 59.6622 84.84C59.7369 84.7653 59.8275 84.728 59.9342 84.728H63.7582C63.8755 84.728 63.9662 84.7653 64.0302 84.84C64.1049 84.9147 64.1422 85.0107 64.1422 85.128V86.808C64.1422 87.704 63.9449 88.4773 63.5502 89.128C63.1662 89.7787 62.6115 90.28 61.8862 90.632C61.1715 90.984 60.3235 91.16 59.3422 91.16ZM68.7397 91C68.6544 91 68.5744 90.968 68.4997 90.904C68.4357 90.84 68.4037 90.76 68.4037 90.664C68.4037 90.6213 68.4144 90.5733 68.4357 90.52L72.2917 80.2C72.3237 80.0933 72.3824 80.0027 72.4677 79.928C72.5637 79.8427 72.6917 79.8 72.8517 79.8H74.5957C74.7557 79.8 74.8784 79.8427 74.9637 79.928C75.049 80.0027 75.113 80.0933 75.1557 80.2L79.0117 90.52C79.0224 90.5733 79.0277 90.6213 79.0277 90.664C79.0277 90.76 78.9957 90.84 78.9317 90.904C78.8677 90.968 78.793 91 78.7077 91H77.3157C77.1664 91 77.0544 90.968 76.9797 90.904C76.9157 90.8293 76.873 90.76 76.8517 90.696L76.0997 88.744H71.3477L70.5957 90.696C70.5744 90.76 70.5264 90.8293 70.4517 90.904C70.3877 90.968 70.281 91 70.1317 91H68.7397ZM71.9077 86.904H75.5397L73.7157 81.96L71.9077 86.904ZM80.9054 91C80.7988 91 80.7081 90.9627 80.6334 90.888C80.5588 90.8133 80.5214 90.7227 80.5214 90.616V80.2C80.5214 80.0827 80.5588 79.9867 80.6334 79.912C80.7081 79.8373 80.7988 79.8 80.9054 79.8H82.1374C82.2868 79.8 82.3934 79.8373 82.4574 79.912C82.5321 79.976 82.5801 80.024 82.6014 80.056L87.2094 87.224V80.2C87.2094 80.0827 87.2414 79.9867 87.3054 79.912C87.3801 79.8373 87.4761 79.8 87.5934 79.8H88.9374C89.0548 79.8 89.1508 79.8373 89.2254 79.912C89.3001 79.9867 89.3374 80.0827 89.3374 80.2V90.6C89.3374 90.7173 89.3001 90.8133 89.2254 90.888C89.1508 90.9627 89.0601 91 88.9534 91H87.7054C87.5561 91 87.4494 90.9627 87.3854 90.888C87.3214 90.8133 87.2734 90.7653 87.2414 90.744L82.6494 83.736V90.616C82.6494 90.7227 82.6121 90.8133 82.5374 90.888C82.4628 90.9627 82.3668 91 82.2494 91H80.9054ZM92.2179 91C92.1113 91 92.0206 90.9627 91.9459 90.888C91.8713 90.8133 91.8339 90.7227 91.8339 90.616V80.2C91.8339 80.0827 91.8713 79.9867 91.9459 79.912C92.0206 79.8373 92.1113 79.8 92.2179 79.8H96.1219C97.1993 79.8 98.0846 79.9653 98.7779 80.296C99.4819 80.6267 100.01 81.1173 100.362 81.768C100.725 82.4187 100.911 83.2133 100.922 84.152C100.943 84.6213 100.954 85.0373 100.954 85.4C100.954 85.7627 100.943 86.1733 100.922 86.632C100.901 87.624 100.719 88.4453 100.378 89.096C100.037 89.736 99.5193 90.216 98.8259 90.536C98.1433 90.8453 97.2686 91 96.2019 91H92.2179ZM94.0579 89.16H96.1219C96.7193 89.16 97.2046 89.0747 97.5779 88.904C97.9513 88.7333 98.2233 88.4613 98.3939 88.088C98.5753 87.704 98.6713 87.2027 98.6819 86.584C98.6926 86.264 98.6979 85.9867 98.6979 85.752C98.7086 85.5067 98.7086 85.2667 98.6979 85.032C98.6979 84.7867 98.6926 84.5093 98.6819 84.2C98.6606 83.3253 98.4419 82.68 98.0259 82.264C97.6099 81.848 96.9486 81.64 96.0419 81.64H94.0579V89.16ZM107.124 91C107.018 91 106.927 90.9627 106.852 90.888C106.778 90.8133 106.74 90.7227 106.74 90.616V80.2C106.74 80.0827 106.778 79.9867 106.852 79.912C106.927 79.8373 107.018 79.8 107.124 79.8H111.028C112.106 79.8 112.991 79.9653 113.684 80.296C114.388 80.6267 114.916 81.1173 115.268 81.768C115.631 82.4187 115.818 83.2133 115.828 84.152C115.85 84.6213 115.86 85.0373 115.86 85.4C115.86 85.7627 115.85 86.1733 115.828 86.632C115.807 87.624 115.626 88.4453 115.284 89.096C114.943 89.736 114.426 90.216 113.732 90.536C113.05 90.8453 112.175 91 111.108 91H107.124ZM108.964 89.16H111.028C111.626 89.16 112.111 89.0747 112.484 88.904C112.858 88.7333 113.13 88.4613 113.3 88.088C113.482 87.704 113.578 87.2027 113.588 86.584C113.599 86.264 113.604 85.9867 113.604 85.752C113.615 85.5067 113.615 85.2667 113.604 85.032C113.604 84.7867 113.599 84.5093 113.588 84.2C113.567 83.3253 113.348 82.68 112.932 82.264C112.516 81.848 111.855 81.64 110.948 81.64H108.964V89.16ZM118.374 91C118.268 91 118.177 90.9627 118.102 90.888C118.028 90.8133 117.99 90.7227 117.99 90.616V80.2C117.99 80.0827 118.028 79.9867 118.102 79.912C118.177 79.8373 118.268 79.8 118.374 79.8H122.518C123.809 79.8 124.828 80.0987 125.574 80.696C126.321 81.2933 126.694 82.1627 126.694 83.304C126.694 84.0933 126.497 84.7493 126.102 85.272C125.718 85.7947 125.201 86.1733 124.55 86.408L126.886 90.488C126.918 90.552 126.934 90.6107 126.934 90.664C126.934 90.76 126.897 90.84 126.822 90.904C126.758 90.968 126.684 91 126.598 91H125.142C124.961 91 124.822 90.952 124.726 90.856C124.63 90.76 124.556 90.664 124.502 90.568L122.438 86.776H120.214V90.616C120.214 90.7227 120.177 90.8133 120.102 90.888C120.038 90.9627 119.948 91 119.83 91H118.374ZM120.214 84.968H122.47C123.121 84.968 123.606 84.824 123.926 84.536C124.246 84.2373 124.406 83.8213 124.406 83.288C124.406 82.7547 124.246 82.3387 123.926 82.04C123.617 81.7307 123.132 81.576 122.47 81.576H120.214V84.968ZM133.029 91.16C132.079 91.16 131.263 91.0053 130.581 90.696C129.898 90.376 129.365 89.8907 128.981 89.24C128.597 88.5787 128.389 87.7573 128.357 86.776C128.346 86.3173 128.341 85.864 128.341 85.416C128.341 84.968 128.346 84.5093 128.357 84.04C128.389 83.0693 128.602 82.2587 128.997 81.608C129.391 80.9573 129.93 80.4667 130.613 80.136C131.306 79.8053 132.111 79.64 133.029 79.64C133.946 79.64 134.751 79.8053 135.445 80.136C136.138 80.4667 136.682 80.9573 137.077 81.608C137.471 82.2587 137.685 83.0693 137.717 84.04C137.738 84.5093 137.749 84.968 137.749 85.416C137.749 85.864 137.738 86.3173 137.717 86.776C137.685 87.7573 137.477 88.5787 137.093 89.24C136.709 89.8907 136.17 90.376 135.477 90.696C134.794 91.0053 133.978 91.16 133.029 91.16ZM133.029 89.32C133.722 89.32 134.287 89.1173 134.725 88.712C135.162 88.296 135.397 87.624 135.429 86.696C135.45 86.2267 135.461 85.7947 135.461 85.4C135.461 84.9947 135.45 84.5627 135.429 84.104C135.407 83.4853 135.29 82.984 135.077 82.6C134.874 82.2053 134.597 81.9227 134.245 81.752C133.893 81.5707 133.487 81.48 133.029 81.48C132.581 81.48 132.181 81.5707 131.829 81.752C131.477 81.9227 131.194 82.2053 130.981 82.6C130.778 82.984 130.666 83.4853 130.645 84.104C130.634 84.5627 130.629 84.9947 130.629 85.4C130.629 85.7947 130.634 86.2267 130.645 86.696C130.677 87.624 130.911 88.296 131.349 88.712C131.786 89.1173 132.346 89.32 133.029 89.32ZM140.234 91C140.127 91 140.036 90.9627 139.962 90.888C139.887 90.8133 139.85 90.7227 139.85 90.616V80.2C139.85 80.0827 139.887 79.9867 139.962 79.912C140.036 79.8373 140.127 79.8 140.234 79.8H144.522C145.354 79.8 146.079 79.9333 146.698 80.2C147.316 80.456 147.796 80.8507 148.138 81.384C148.479 81.9067 148.65 82.5627 148.65 83.352C148.65 84.152 148.479 84.8133 148.138 85.336C147.796 85.848 147.316 86.232 146.698 86.488C146.079 86.744 145.354 86.872 144.522 86.872H142.138V90.616C142.138 90.7227 142.1 90.8133 142.026 90.888C141.962 90.9627 141.871 91 141.754 91H140.234ZM142.106 85.096H144.442C145.06 85.096 145.535 84.952 145.866 84.664C146.196 84.3653 146.362 83.928 146.362 83.352C146.362 82.8187 146.207 82.392 145.898 82.072C145.588 81.7413 145.103 81.576 144.442 81.576H142.106V85.096Z" fill="#1887D0"/>
<defs>
<filter id="filter0_f_231_7081" x="0" y="0" width="167" height="169" filterUnits="userSpaceOnUse" color-interpolation-filters="sRGB">
<feFlood flood-opacity="0" result="BackgroundImageFix"/>
<feBlend mode="normal" in="SourceGraphic" in2="BackgroundImageFix" result="shape"/>
<feGaussianBlur stdDeviation="3" result="effect1_foregroundBlur_231_7081"/>
</filter>
</defs>
</svg>
