<svg width="160" height="59" viewBox="0 0 160 59" fill="none" xmlns="http://www.w3.org/2000/svg">
<path fill-rule="evenodd" clip-rule="evenodd" d="M159.799 6.71049C159.897 7.99135 159.968 19.1816 159.994 25.5599C159.637 26.3734 159.285 27.3047 159.084 28.184C158.909 28.9542 159.075 29.7954 159.327 30.306C159.535 30.7301 159.773 31.1369 160 31.4882C159.981 37.2988 159.905 50.6579 159.799 52.0634C159.371 52.7903 158.478 54.0072 157.391 55.3175C156.305 56.6277 155.295 57.7043 154.692 58.2201C148.872 58.4123 38.3343 58.5525 30.3881 58.5958C30.4455 58.0921 30.5015 57.3287 30.4383 57.0605C30.3938 56.8683 29.8813 56.9912 29.6559 57.0899C28.6409 57.5295 27.7752 58.0748 26.9311 58.6079C26.1041 58.6096 25.2097 58.6096 24.2364 58.6096C9.44504 58.6096 12.3249 58.4538 5.31185 58.2219C4.70888 57.7061 3.69963 56.6295 2.61285 55.3192C1.52608 54.0089 0.633114 52.7921 0.205295 52.0651C0.16079 51.4853 0.122027 48.8716 0.0904435 45.5933C0.472322 45.1986 1.06093 44.3851 1.13128 44.1376C1.21742 43.833 1.11118 42.8308 0.944647 42.2682C0.719253 41.5049 0.374701 40.7191 0.0473762 40.1462C0.0172279 35.516 0 30.9603 0 29.3887C0 28.3657 0.00717729 26.0792 0.0215336 23.3305C0.305789 22.8961 0.538362 22.4426 0.727865 21.9441C0.792469 21.7745 0.638857 20.8138 0.679054 20.6875C1.06093 19.4931 1.61222 17.2949 1.42989 16.8882C1.0638 16.0729 0.562769 15.3598 0.0789603 14.6328C0.113416 10.6967 0.156484 7.37515 0.206732 6.71049C0.634551 5.98352 1.52751 4.76844 2.61429 3.45642C3.70106 2.14614 4.79358 1.03663 5.31328 0.553711C22.0341 6.7105 135.797 6.44394 154.692 0.553711C155.295 1.06952 156.305 2.14614 157.391 3.45642C158.478 4.76844 159.371 5.98525 159.799 6.71049Z" fill="#35424F"/>
<path fill-rule="evenodd" clip-rule="evenodd" d="M2.91864 29.3886C2.91864 27.1973 2.92152 10.2536 3.04642 8.03459L0.206732 6.71045C0.156484 7.37338 0.113416 10.6967 0.0789603 14.6328C0.562769 15.3597 1.0638 16.0729 1.42989 16.8881C1.61222 17.2949 1.06093 19.4931 0.679054 20.6874C0.638857 20.8138 0.791033 21.7744 0.727865 21.944C0.539797 22.4425 0.305789 22.8978 0.0215336 23.3305C0.00861293 26.0774 0 28.3639 0 29.3886C0 30.962 0.0172279 35.5177 0.0473762 40.1461C0.376136 40.7191 0.719253 41.5049 0.944647 42.2682C1.11118 42.8325 1.21742 43.8347 1.13128 44.1376C1.06093 44.3851 0.472322 45.2003 0.0904435 45.5932C0.122027 48.8716 0.16079 51.4852 0.205295 52.0651L3.04498 50.7409C2.92151 48.5236 2.91864 31.5799 2.91864 29.3886Z" fill="url(#paint0_linear_58_12375)"/>
<path fill-rule="evenodd" clip-rule="evenodd" d="M3.04672 8.03485C3.55493 7.30268 4.16507 6.56358 4.6776 5.94565C5.17289 5.34849 5.76293 4.64229 6.35011 4.04167L5.31358 0.555664C4.71061 1.07147 3.70136 2.14807 2.61459 3.45835C1.52781 4.76864 0.63485 5.98547 0.207031 6.71244L3.04672 8.03485Z" fill="url(#paint1_radial_58_12375)"/>
<path fill-rule="evenodd" clip-rule="evenodd" d="M153.656 4.04144C154.243 4.64207 154.832 5.34827 155.328 5.94543C155.841 6.56336 156.451 7.30419 156.959 8.03463L159.799 6.71049C159.371 5.98352 158.478 4.76844 157.391 3.45642C156.305 2.14614 155.295 1.06952 154.692 0.553711L153.656 4.04144Z" fill="url(#paint2_radial_58_12375)"/>
<path fill-rule="evenodd" clip-rule="evenodd" d="M156.959 8.03454C157.084 10.2535 157.087 27.1955 157.087 29.3886C157.087 31.5799 157.084 48.5236 156.959 50.7426L159.799 52.0667C159.905 50.6613 159.981 37.3022 160 31.4916C159.773 31.1385 159.535 30.7317 159.327 30.3094C159.076 29.7988 158.909 28.9576 159.084 28.1873C159.285 27.308 159.635 26.3768 159.994 25.5633C159.969 19.185 159.897 7.99473 159.799 6.71387L156.959 8.03454Z" fill="url(#paint3_linear_58_12375)"/>
<path fill-rule="evenodd" clip-rule="evenodd" d="M156.959 50.7412C156.451 51.4734 155.841 52.2125 155.328 52.8304C154.833 53.4276 154.243 54.1338 153.656 54.7344L154.692 58.2204C155.295 57.7046 156.305 56.628 157.391 55.3177C158.478 54.0074 159.371 52.7906 159.799 52.0636L156.959 50.7412Z" fill="url(#paint4_radial_58_12375)"/>
<path fill-rule="evenodd" clip-rule="evenodd" d="M153.656 54.7363H6.35L5.31348 58.2224C12.3265 58.4543 9.44667 58.6101 24.238 58.6101C25.2099 58.6101 26.1043 58.6101 26.9327 58.6083C27.7768 58.0752 28.6425 57.5317 29.6575 57.0904C29.8829 56.9917 30.3954 56.8688 30.4399 57.0609C30.5017 57.3292 30.4471 58.0925 30.3897 58.5962C38.3359 58.5547 148.874 58.4145 154.694 58.2206L153.656 54.7363Z" fill="url(#paint5_linear_58_12375)"/>
<path fill-rule="evenodd" clip-rule="evenodd" d="M6.35011 54.7363C5.76293 54.1357 5.17289 53.4295 4.6776 52.8323C4.16507 52.2144 3.55493 51.4736 3.04672 50.7432L0.207031 52.0673C0.63485 52.7943 1.52781 54.0111 2.61459 55.3214C3.70136 56.6317 4.71061 57.7083 5.31358 58.2241L6.35011 54.7363Z" fill="url(#paint6_radial_58_12375)"/>
<path opacity="0.2" fill-rule="evenodd" clip-rule="evenodd" d="M24.238 57.4175C5.62788 57.4175 6.35 56.2162 6.35 54.7363L5.31348 58.2224C12.3265 58.4543 9.44667 58.6101 24.238 58.6101C25.2099 58.6101 26.1043 58.6101 26.9327 58.6083C27.596 58.1895 28.2736 57.7619 29.0273 57.3863C27.5931 57.4071 26.0024 57.4175 24.238 57.4175ZM30.3883 58.598C38.3345 58.5564 148.873 58.4162 154.693 58.2224L153.656 54.7363C153.656 56.0276 42.673 57.1059 30.4658 57.3604C30.473 57.7117 30.4313 58.2241 30.3883 58.598Z" fill="#4D5E6E"/>
<path opacity="0.2" fill-rule="evenodd" clip-rule="evenodd" d="M5.31358 0.553711C6.22521 4.70093 2.67919 7.70056 0.207031 6.71049L3.04672 8.03463C3.55493 7.30246 4.16507 6.56336 4.6776 5.94543C5.17289 5.34827 5.76293 4.64207 6.35011 4.04144L5.31358 0.553711Z" fill="#A3C7E2"/>
<path opacity="0.2" fill-rule="evenodd" clip-rule="evenodd" d="M154.692 0.553711C153.781 4.70093 157.327 7.70056 159.799 6.71049L156.959 8.03463C156.451 7.30246 155.841 6.56336 155.328 5.94543C154.833 5.34827 154.243 4.64207 153.656 4.04144L154.692 0.553711Z" fill="#A3C7E2"/>
<path opacity="0.3" fill-rule="evenodd" clip-rule="evenodd" d="M154.692 58.2221C153.781 54.0749 157.327 51.0753 159.799 52.0653L156.959 50.7412C156.451 51.4734 155.841 52.2125 155.328 52.8304C154.833 53.4276 154.243 54.1338 153.656 54.7344L154.692 58.2221Z" fill="#4D5E6E"/>
<path fill-rule="evenodd" clip-rule="evenodd" d="M4.67711 52.8319C5.1724 53.4291 5.76245 54.1353 6.34962 54.7359H153.656C154.243 54.1353 154.832 53.4291 155.328 52.8319C155.841 52.214 156.451 51.4732 156.959 50.7428C157.084 48.5237 157.087 31.5818 157.087 29.3887C157.087 27.1974 157.084 10.2537 156.959 8.03469C156.451 7.30252 155.841 6.56342 155.328 5.94549C154.833 5.34833 154.243 4.64212 153.656 4.0415H6.34962C5.76245 4.64212 5.1724 5.34833 4.67711 5.94549C4.16459 6.56342 3.55444 7.30425 3.04623 8.03469C2.92133 10.2537 2.91846 27.1957 2.91846 29.3887C2.91846 31.58 2.92133 48.5237 3.04623 50.7428C3.55444 51.4732 4.16459 52.214 4.67711 52.8319Z" fill="url(#paint7_linear_58_12375)"/>
<path fill-rule="evenodd" clip-rule="evenodd" d="M156.959 50.7411C156.451 51.4733 155.841 52.2124 155.328 52.8303C154.833 53.4275 154.243 54.1337 153.656 54.7343H20.9058L153.416 55.0147L153.62 55.1757C153.953 56.1086 154.286 57.0398 154.618 57.9728C154.378 57.0156 154.138 56.0567 153.897 55.0995L153.953 54.8018C154.914 53.5452 155.9 52.3179 156.915 51.1254L157.159 51.0527C157.792 51.276 158.424 51.4975 159.057 51.7208C158.468 51.3919 157.88 51.063 157.29 50.7324L157.162 50.4832C157.282 46.1837 157.28 12.639 157.166 8.33768L157.292 8.08498C157.852 7.75438 158.414 7.42376 158.974 7.09316C158.358 7.32336 157.785 7.53627 157.175 7.76474L156.935 7.68859C156.082 6.60679 155.126 5.6046 154.187 4.61279C154.591 5.06109 154.98 5.52845 155.324 5.94386C155.837 6.56179 156.447 7.3026 156.955 8.03304C157.08 10.252 157.083 27.194 157.083 29.3871C157.087 31.5801 157.084 48.5238 156.959 50.7411Z" fill="#71CCCC"/>
<path fill-rule="evenodd" clip-rule="evenodd" d="M6.34967 4.04158H29.9501L6.60952 3.64176L6.40279 3.48424C6.05393 2.56687 5.74383 1.74989 5.39641 0.83252C5.60314 1.80701 5.7625 2.71747 5.96923 3.69196L5.91324 3.99831C5.15235 5.10435 4.06127 6.43715 3.03336 7.57781L2.78643 7.64531C2.01549 7.35972 1.29193 7.14161 0.520996 6.85602C1.24456 7.25758 1.92074 7.65917 2.6443 8.06073L2.77494 8.30997C2.72039 12.658 2.71465 46.1923 2.77781 50.3984L2.65148 50.658C2.20069 50.9505 1.79727 51.2413 1.34649 51.5338C1.84465 51.3815 2.31985 51.2604 2.81801 51.1063L3.06207 51.1877C4.0383 52.3647 5.09205 53.5988 6.04819 54.7758L6.11423 55.0718C6.0166 55.5409 5.95344 55.9182 5.85294 56.4028C6.03957 55.958 6.23769 55.5876 6.42432 55.1428L6.6368 54.9887L19.8145 54.7326H6.34967C5.7625 54.1319 5.17245 53.4257 4.67716 52.8286C4.16464 52.2106 3.55449 51.4698 3.04628 50.7394C2.92138 48.5204 2.91851 31.5784 2.91851 29.3853C2.91851 27.194 2.92138 10.2503 3.04628 8.0313C3.55449 7.29913 4.16464 6.56005 4.67716 5.94212C5.17245 5.34842 5.7625 4.64047 6.34967 4.04158Z" fill="#89EFF4"/>
<path fill-rule="evenodd" clip-rule="evenodd" d="M153.656 4.04158L154.693 0.555584L86.0018 0.159202C85.1261 0.159202 84.7299 -0.1264 84.4758 0.0674598C84.2374 0.249204 84.025 1.03677 83.521 1.2012C82.5362 1.52315 80.6512 0.443071 79.6592 0.160935C79.4611 0.103815 79.1653 0.160935 78.6313 0.160935C78.0168 0.160935 77.7455 0.0224634 77.6091 0.160935C77.4454 0.32537 77.2459 0.702705 77.0449 0.745978C76.5309 0.853293 76.1074 0.299406 75.7815 0.160935C75.6767 0.115932 75.3422 0.160935 75.3422 0.160935H33.5567C33.5567 0.160935 32.4153 -0.0173472 32.0665 0.160935C31.6272 0.385951 30.918 1.08351 30.45 1.14063C29.6905 1.23063 28.3654 0.335755 27.6131 0.160935C27.3346 0.0951609 26.4819 0.160935 26.4819 0.160935L5.31201 0.557316L6.34854 4.04332H153.949H153.656V4.04158Z" fill="url(#paint8_linear_58_12375)"/>
<path opacity="0.5" fill-rule="evenodd" clip-rule="evenodd" d="M7.43106 4.00154C8.02111 4.26117 6.80656 4.47062 80.0038 4.47062C153.201 4.47062 151.985 4.26117 152.577 4.00154L152.581 3.99807C125.686 3.76613 136.729 3.61035 80.0038 3.61035C23.279 3.61035 34.3219 3.76613 7.42676 3.99807L7.43106 4.00154Z" fill="#89EFF4"/>
<mask id="mask0_58_12375" style="mask-type:alpha" maskUnits="userSpaceOnUse" x="5" y="0" width="150" height="5">
<path d="M153.656 4.04158L154.693 0.555584L86.0018 0.159202C85.1261 0.159202 84.7299 -0.1264 84.4758 0.0674598C84.2374 0.249204 84.025 1.03677 83.521 1.2012C82.5362 1.52315 80.6512 0.443071 79.6592 0.160935C79.4611 0.103815 79.1653 0.160935 78.6313 0.160935C78.0168 0.160935 77.7455 0.0224634 77.6091 0.160935C77.4454 0.32537 77.2459 0.702705 77.0449 0.745978C76.5309 0.853293 76.1074 0.299406 75.7815 0.160935C75.6767 0.115932 75.3422 0.160935 75.3422 0.160935H33.5567C33.5567 0.160935 32.4153 -0.0173472 32.0665 0.160935C31.6272 0.385951 30.918 1.08351 30.45 1.14063C29.6905 1.23063 28.3654 0.335755 27.6131 0.160935C27.3346 0.0951609 26.4819 0.160935 26.4819 0.160935L5.31201 0.557316L6.34854 4.04332H153.949H153.656V4.04158Z" fill="white"/>
</mask>
<g mask="url(#mask0_58_12375)">
<path opacity="0.5" fill-rule="evenodd" clip-rule="evenodd" d="M74.5154 4.04139C72.2083 3.69348 69.6342 0.984644 71.3024 -0.078125C58.6128 -0.0642779 12.015 0.318256 5.31348 0.555388L6.35 4.04139H74.5154Z" fill="url(#paint9_radial_58_12375)"/>
</g>
<g opacity="0.65">
<path fill-rule="evenodd" clip-rule="evenodd" d="M137.638 12.6077C138.367 12.8051 140.182 12.7687 141.068 12.9452C143.705 13.4732 151.285 15.1712 157.142 16.3326C157.124 12.4191 157.094 8.91919 157.042 7.99316C156.534 7.26099 155.924 6.52191 155.411 5.90398C154.916 5.30682 154.326 4.59889 153.739 4H129.682C130.188 4.97276 130.697 5.94379 131.203 6.91655C133.281 9.09575 135.446 10.9115 137.638 12.6077Z" fill="url(#paint10_radial_58_12375)"/>
<path fill-rule="evenodd" clip-rule="evenodd" d="M60.0219 14.4217C60.8086 14.8873 60.7569 14.5394 60.7756 13.7155C60.8388 10.7955 60.8215 7.39082 60.6277 4H42.2588C44.4625 5.14758 47.4185 6.54093 50.2395 8.15586C54.6627 10.6899 58.6609 13.6324 60.0219 14.4217Z" fill="url(#paint11_radial_58_12375)"/>
<path fill-rule="evenodd" clip-rule="evenodd" d="M61.1631 14.0011C61.133 14.8838 60.9822 15.1746 62.1638 16.1266C69.1122 21.7278 75.0945 27.9815 79.6211 35.459C80.382 36.7139 80.4652 36.9718 81.2864 36.9077C98.0891 27.0434 116.046 19.5746 135.074 13.5874C136.116 13.2603 136.591 12.8985 136.596 12.7462C136.6 12.58 136.128 12.0123 135.296 11.2611C133.744 9.85734 132.17 8.50896 130.557 7.25233C130.214 6.31592 129.751 5.15797 129.222 4H60.7339C61.0382 6.33671 61.2722 10.7418 61.1631 14.0011Z" fill="url(#paint12_radial_58_12375)"/>
<path fill-rule="evenodd" clip-rule="evenodd" d="M15.1383 44.3108C12.2297 42.7668 9.25939 46.0676 6.46565 47.9993C7.89698 46.6215 9.20053 45.4774 10.6319 44.2831C12.2714 42.914 13.2275 42.8776 11.5162 41.0775C8.52148 37.9255 5.93303 35.3932 3.00146 32.7778C3.00721 38.469 3.03018 48.9859 3.1278 50.703C3.63602 51.4351 4.24616 52.1742 4.75868 52.7922C5.25398 53.3893 5.84402 54.0955 6.43119 54.6961H40.2892C34.8797 53.372 29.5966 51.8731 24.5719 50.0158C21.501 47.9803 18.3829 46.0313 15.1383 44.3108Z" fill="url(#paint13_radial_58_12375)"/>
<path fill-rule="evenodd" clip-rule="evenodd" d="M79.5265 38.7685C79.8739 37.3872 79.8825 37.0081 79.0039 35.5576C72.3569 24.5907 60.3895 14.2728 50.1089 8.42242C47.1328 6.72788 43.8969 5.26355 40.9194 4H6.43116C5.84399 4.60062 5.25395 5.30682 4.75865 5.90398C4.24613 6.52191 3.63599 7.26273 3.12777 7.99316C3.00287 10.2122 3 27.1542 3 29.3472C3 29.7626 3 30.7094 3.00143 31.9833C6.59626 35.5784 10.2916 39.0038 14.0601 42.3064C17.3793 45.0343 21.023 47.2169 24.915 48.979C30.244 51.3122 35.7899 53.1245 41.4362 54.6927H67.0752C67.6337 53.5728 68.1692 52.2192 68.5568 51.3486C72.8249 47.101 76.46 42.9088 79.5265 38.7685Z" fill="url(#paint14_radial_58_12375)"/>
<path fill-rule="evenodd" clip-rule="evenodd" d="M157.143 16.4885C157.143 16.5889 157.144 16.6875 157.144 16.7897C153.071 16.0558 148.097 15.1921 144.094 14.4703C139.68 13.6741 138.815 13.1236 134.368 14.3162C121.034 17.894 93.122 31.0436 82.6276 37.0221C80.7282 38.1039 80.5847 38.5591 79.1074 40.3229C75.8643 44.1966 72.604 47.8834 69.2417 51.5062C68.7407 52.6226 68.2468 53.7737 67.8979 54.6962H153.736C154.323 54.0956 154.913 53.3894 155.408 52.7922C155.439 52.7559 155.475 52.7109 155.506 52.6728C155.364 52.6745 155.22 52.6763 155.08 52.678C155.23 52.6676 155.375 52.6607 155.525 52.6503L155.523 52.652C156.011 52.0618 156.567 51.3833 157.041 50.7031C157.166 48.4841 157.169 31.5421 157.169 29.349C157.169 28.0837 157.167 21.9131 157.143 16.4885Z" fill="url(#paint15_radial_58_12375)"/>
</g>
<path opacity="0.25" fill-rule="evenodd" clip-rule="evenodd" d="M149.647 42.1629C148.012 42.542 146.274 45.8947 145.885 47.8679C145.48 49.9225 146.236 51.0234 147.05 50.6374C148.856 49.7806 153.951 47.2864 154.292 44.6485C154.464 43.307 153.908 42.1075 152.727 41.86C151.712 41.6471 150.658 41.9293 149.647 42.1629Z" fill="#BDC8C9"/>
<path fill-rule="evenodd" clip-rule="evenodd" d="M149.383 41.8045C147.748 42.1836 146.009 45.5363 145.62 47.5095C145.216 49.5641 145.972 50.665 146.786 50.279C148.592 49.4222 153.687 46.928 154.027 44.2901C154.2 42.9486 153.644 41.7491 152.463 41.5016C151.448 41.2887 150.395 41.5709 149.383 41.8045Z" fill="url(#paint16_radial_58_12375)"/>
<path opacity="0.35" fill-rule="evenodd" clip-rule="evenodd" d="M20.9862 20.2204C20.5584 20.1685 20.0517 20.371 19.7789 20.7726C19.2032 21.6207 18.7912 22.6662 18.5974 23.7358C18.3935 24.8592 19.9957 25.9324 20.7594 25.967C21.3724 25.9947 22.0931 25.7108 22.4578 25.1171C23.0421 24.1686 22.1893 20.3675 20.9862 20.2204Z" fill="#BDC8C9"/>
<path fill-rule="evenodd" clip-rule="evenodd" d="M20.7236 19.862C20.2957 19.8101 19.789 20.0126 19.5162 20.4142C18.9405 21.2623 18.5285 22.3078 18.3347 23.3775C18.1308 24.5008 19.733 25.574 20.4967 25.6086C21.1097 25.6363 21.8304 25.3524 22.1951 24.7587C22.7794 23.8102 21.9252 20.0091 20.7236 19.862Z" fill="url(#paint17_radial_58_12375)"/>
<path opacity="0.3" fill-rule="evenodd" clip-rule="evenodd" d="M12.2873 9.81935C11.0297 10.195 9.74053 10.8354 8.81598 11.9293C7.70911 13.2396 6.28927 17.3574 7.10614 19.161C7.56267 20.1684 8.51019 21.0425 9.46058 21.11C10.9192 21.2138 12.5041 20.6963 13.667 19.6301C14.7897 18.6019 15.3711 17.1168 16.2425 15.7788C16.8024 14.9186 17.4599 14.0652 17.9093 13.115C18.6759 11.4983 17.4255 9.82628 16.4593 9.62722C14.8643 9.30182 13.8608 9.34855 12.2873 9.81935Z" fill="#BDC8C9"/>
<path fill-rule="evenodd" clip-rule="evenodd" d="M12.0232 9.4609C10.7656 9.83651 9.47637 10.4769 8.55182 11.5709C7.44495 12.8811 6.02511 16.9989 6.84198 18.8025C7.29851 19.8099 8.24603 20.684 9.19642 20.7515C10.655 20.8554 12.24 20.3378 13.4028 19.2716C14.5255 18.2435 15.1069 16.7584 15.9784 15.4204C16.5383 14.5601 17.1958 13.7068 17.6451 12.7565C18.4118 11.1399 17.1613 9.46783 16.1951 9.26878C14.6001 8.94337 13.5966 8.99183 12.0232 9.4609Z" fill="url(#paint18_radial_58_12375)"/>
<g opacity="0.35">
<path fill-rule="evenodd" clip-rule="evenodd" d="M79.0277 40.3628C80.5036 38.5991 80.6486 38.1456 82.5479 37.062C93.041 31.0818 120.953 17.9339 134.288 14.3562C138.736 13.1636 139.6 13.7123 144.015 14.5102C148.017 15.232 152.992 16.0957 157.064 16.8296C157.064 16.6755 157.063 16.5267 157.062 16.3727C151.206 15.2112 143.624 13.5132 140.987 12.9853C140.101 12.807 138.286 12.8434 137.557 12.646C135.365 10.9498 133.2 9.13406 131.121 6.95659C130.614 5.98383 130.106 5.0128 129.599 4.04004H129.143C129.671 5.19801 130.135 6.35769 130.478 7.29237C132.09 8.549 133.667 9.89738 135.217 11.3011C136.048 12.0523 136.521 12.6201 136.516 12.7862C136.512 12.9385 136.037 13.3003 134.994 13.6274C115.967 19.6146 98.0097 27.0834 81.207 36.9478C80.3858 37.0118 80.3026 36.7539 79.5417 35.499C75.0137 28.0216 69.0329 21.7678 62.0844 16.1667C60.9029 15.2147 61.0536 14.9239 61.0837 14.0411C61.1929 10.7819 60.9588 6.37675 60.6545 4.04004H60.5497C60.7421 7.43086 60.7607 10.8355 60.6976 13.7555C60.6789 14.5795 60.7306 14.9274 59.9439 14.4617C58.5829 13.6725 54.5846 10.7282 50.1614 8.19763C47.339 6.5827 44.3845 5.1876 42.1808 4.04175H40.8413C43.8188 5.3053 47.0533 6.76965 50.0308 8.46419C60.3114 14.3146 72.2788 24.6325 78.9258 35.5994C79.8044 37.0499 79.7972 37.4307 79.4484 38.8102C76.3819 42.9488 72.7454 47.141 68.4787 51.3921C68.0911 52.2627 67.5556 53.6163 66.9971 54.7362H67.8212C68.17 53.8136 68.6639 52.6643 69.1649 51.5461C72.5243 47.9234 75.7846 44.2383 79.0277 40.3628Z" fill="url(#paint19_radial_58_12375)"/>
<path opacity="0.5" fill-rule="evenodd" clip-rule="evenodd" d="M24.8339 49.0225C20.9419 47.2605 17.2997 45.0778 13.9791 42.3499C10.2106 39.0474 6.51524 35.6219 2.92041 32.0269C2.92041 32.2726 2.92041 32.5496 2.92185 32.8179C5.85341 35.4332 8.44186 37.9638 11.4366 41.1175C13.1464 42.9194 12.1903 42.954 10.5522 44.3231C9.12091 45.5192 7.81736 46.6633 6.38603 48.0394C9.17977 46.1059 12.1487 42.8069 15.0587 44.3508C18.3032 46.073 21.4214 48.0221 24.4922 50.0576C29.5155 51.9131 34.8001 53.412 40.2096 54.7379H41.3566C35.7089 53.1663 30.1644 51.354 24.8339 49.0225Z" fill="url(#paint20_radial_58_12375)"/>
<path opacity="0.5" fill-rule="evenodd" clip-rule="evenodd" d="M154.999 52.7181C155.141 52.7164 155.283 52.7147 155.425 52.7129C155.431 52.706 155.438 52.6974 155.444 52.6904C155.294 52.6991 155.149 52.7077 154.999 52.7181Z" fill="url(#paint21_radial_58_12375)"/>
</g>
<path d="M56.8714 43L53.0974 39.77V21.172L56.8714 17.942H73.6334L77.4074 21.172V39.77L73.6334 43H56.8714ZM62.7874 37.798H67.7174V23.144H62.7874V37.798ZM80.7723 43V17.942H90.4623V26.816L96.2083 17.942H107.224L98.7243 29.502L106.986 43H96.1063L90.4623 32.29V43H80.7723Z" fill="white"/>
<path d="M56.8714 43L55.571 44.5195L56.1324 45H56.8714V43ZM53.0974 39.77H51.0974V40.6908L51.797 41.2895L53.0974 39.77ZM53.0974 21.172L51.797 19.6525L51.0974 20.2512V21.172H53.0974ZM56.8714 17.942V15.942H56.1324L55.571 16.4225L56.8714 17.942ZM73.6334 17.942L74.9339 16.4225L74.3724 15.942H73.6334V17.942ZM77.4074 21.172H79.4074V20.2512L78.7079 19.6525L77.4074 21.172ZM77.4074 39.77L78.7079 41.2895L79.4074 40.6908V39.77H77.4074ZM73.6334 43V45H74.3724L74.9339 44.5195L73.6334 43ZM62.7874 37.798H60.7874V39.798H62.7874V37.798ZM67.7174 37.798V39.798H69.7174V37.798H67.7174ZM67.7174 23.144H69.7174V21.144H67.7174V23.144ZM62.7874 23.144V21.144H60.7874V23.144H62.7874ZM58.1719 41.4805L54.3979 38.2505L51.797 41.2895L55.571 44.5195L58.1719 41.4805ZM55.0974 39.77V21.172H51.0974V39.77H55.0974ZM54.3979 22.6915L58.1719 19.4615L55.571 16.4225L51.797 19.6525L54.3979 22.6915ZM56.8714 19.942H73.6334V15.942H56.8714V19.942ZM72.333 19.4615L76.107 22.6915L78.7079 19.6525L74.9339 16.4225L72.333 19.4615ZM75.4074 21.172V39.77H79.4074V21.172H75.4074ZM76.107 38.2505L72.333 41.4805L74.9339 44.5195L78.7079 41.2895L76.107 38.2505ZM73.6334 41H56.8714V45H73.6334V41ZM62.7874 39.798H67.7174V35.798H62.7874V39.798ZM69.7174 37.798V23.144H65.7174V37.798H69.7174ZM67.7174 21.144H62.7874V25.144H67.7174V21.144ZM60.7874 23.144V37.798H64.7874V23.144H60.7874ZM80.7723 43H78.7723V45H80.7723V43ZM80.7723 17.942V15.942H78.7723V17.942H80.7723ZM90.4623 17.942H92.4623V15.942H90.4623V17.942ZM90.4623 26.816H88.4623V33.5845L92.1411 27.903L90.4623 26.816ZM96.2083 17.942V15.942H95.1207L94.5295 16.855L96.2083 17.942ZM107.224 17.942L108.836 19.1268L111.177 15.942H107.224V17.942ZM98.7243 29.502L97.113 28.3172L96.3169 29.3999L97.0185 30.5461L98.7243 29.502ZM106.986 43V45H110.555L108.692 41.9559L106.986 43ZM96.1063 43L94.337 43.9324L94.8996 45H96.1063V43ZM90.4623 32.29L92.2317 31.3576L88.4623 32.29H90.4623ZM90.4623 43V45H92.4623V43H90.4623ZM82.7723 43V17.942H78.7723V43H82.7723ZM80.7723 19.942H90.4623V15.942H80.7723V19.942ZM88.4623 17.942V26.816H92.4623V17.942H88.4623ZM92.1411 27.903L97.8871 19.029L94.5295 16.855L88.7835 25.729L92.1411 27.903ZM96.2083 19.942H107.224V15.942H96.2083V19.942ZM105.613 16.7572L97.113 28.3172L100.336 30.6868L108.836 19.1268L105.613 16.7572ZM97.0185 30.5461L105.281 44.0441L108.692 41.9559L100.43 28.4579L97.0185 30.5461ZM106.986 41H96.1063V45H106.986V41ZM97.8757 42.0676L92.2317 31.3576L88.693 33.2224L94.337 43.9324L97.8757 42.0676ZM88.4623 32.29V43H92.4623V32.29H88.4623ZM90.4623 41H80.7723V45H90.4623V41Z" fill="black"/>
<defs>
<linearGradient id="paint0_linear_58_12375" x1="0.000789599" y1="29.388" x2="3.04657" y2="29.388" gradientUnits="userSpaceOnUse">
<stop stop-color="#6B7A9E"/>
<stop offset="1" stop-color="#99AAC9"/>
</linearGradient>
<radialGradient id="paint1_radial_58_12375" cx="0" cy="0" r="1" gradientUnits="userSpaceOnUse" gradientTransform="translate(0.0700743 -5.32632) scale(23.8792 28.7903)">
<stop stop-color="#829BBA"/>
<stop offset="1" stop-color="#5B597D"/>
</radialGradient>
<radialGradient id="paint2_radial_58_12375" cx="0" cy="0" r="1" gradientUnits="userSpaceOnUse" gradientTransform="translate(146.691 13.4196) scale(17.6604 21.2925)">
<stop stop-color="#829BBA"/>
<stop offset="1" stop-color="#5B597D"/>
</radialGradient>
<linearGradient id="paint3_linear_58_12375" x1="156.96" y1="29.388" x2="160.001" y2="29.388" gradientUnits="userSpaceOnUse">
<stop stop-color="#4A4D61"/>
<stop offset="1" stop-color="#46435E"/>
</linearGradient>
<radialGradient id="paint4_radial_58_12375" cx="0" cy="0" r="1" gradientUnits="userSpaceOnUse" gradientTransform="translate(143.61 40.1159) scale(22.2737 26.8545)">
<stop stop-color="#6B6F8C"/>
<stop offset="1" stop-color="#46435E"/>
</radialGradient>
<linearGradient id="paint5_linear_58_12375" x1="80.0032" y1="58.6103" x2="80.0032" y2="54.736" gradientUnits="userSpaceOnUse">
<stop stop-color="#46435E"/>
<stop offset="1" stop-color="#4A4D61"/>
</linearGradient>
<radialGradient id="paint6_radial_58_12375" cx="0" cy="0" r="1" gradientUnits="userSpaceOnUse" gradientTransform="translate(2.95057 50.5282) scale(13.5321 16.3152)">
<stop stop-color="#6B6F8C"/>
<stop offset="1" stop-color="#46435E"/>
</radialGradient>
<linearGradient id="paint7_linear_58_12375" x1="127.388" y1="86.5182" x2="15.0971" y2="-6.61749" gradientUnits="userSpaceOnUse">
<stop stop-color="#545E7A"/>
<stop offset="1" stop-color="#8E9DBA"/>
</linearGradient>
<linearGradient id="paint8_linear_58_12375" x1="80.0031" y1="4.04077" x2="80.0031" y2="-0.000684608" gradientUnits="userSpaceOnUse">
<stop stop-color="#99AAC9"/>
<stop offset="1" stop-color="#515D7D"/>
</linearGradient>
<radialGradient id="paint9_radial_58_12375" cx="0" cy="0" r="1" gradientUnits="userSpaceOnUse" gradientTransform="translate(0.0360514 -4.34781) scale(112.349 144.054)">
<stop offset="7e-08" stop-color="#DBEAFF"/>
<stop offset="0.0575" stop-color="#CDDBEF"/>
<stop offset="0.5299" stop-color="#606770"/>
<stop offset="0.853" stop-color="#1B1D1F"/>
<stop offset="1"/>
</radialGradient>
<radialGradient id="paint10_radial_58_12375" cx="0" cy="0" r="1" gradientUnits="userSpaceOnUse" gradientTransform="translate(132.428 27.912) scale(60.5228 72.9702)">
<stop stop-color="#8E9DBA"/>
<stop offset="1" stop-color="#545E7A"/>
</radialGradient>
<radialGradient id="paint11_radial_58_12375" cx="0" cy="0" r="1" gradientUnits="userSpaceOnUse" gradientTransform="translate(49.9517 22.9865) scale(67.232 81.0592)">
<stop stop-color="#8E9DBA"/>
<stop offset="1" stop-color="#545E7A"/>
</radialGradient>
<radialGradient id="paint12_radial_58_12375" cx="0" cy="0" r="1" gradientUnits="userSpaceOnUse" gradientTransform="translate(87.0228 40.5879) scale(100.127 120.719)">
<stop stop-color="#8E9DBA"/>
<stop offset="1" stop-color="#545E7A"/>
</radialGradient>
<radialGradient id="paint13_radial_58_12375" cx="0" cy="0" r="1" gradientUnits="userSpaceOnUse" gradientTransform="translate(25.6009 43.1004) scale(77.6134 93.5757)">
<stop stop-color="#8E9DBA"/>
<stop offset="1" stop-color="#545E7A"/>
</radialGradient>
<radialGradient id="paint14_radial_58_12375" cx="0" cy="0" r="1" gradientUnits="userSpaceOnUse" gradientTransform="translate(34.2536 65.2732) scale(185.928 224.167)">
<stop stop-color="#8E9DBA"/>
<stop offset="1" stop-color="#545E7A"/>
</radialGradient>
<radialGradient id="paint15_radial_58_12375" cx="0" cy="0" r="1" gradientUnits="userSpaceOnUse" gradientTransform="translate(112.841 79.4933) scale(109.308 131.788)">
<stop stop-color="#8E9DBA"/>
<stop offset="1" stop-color="#545E7A"/>
</radialGradient>
<radialGradient id="paint16_radial_58_12375" cx="0" cy="0" r="1" gradientUnits="userSpaceOnUse" gradientTransform="translate(154.511 54.7349) scale(12.1122 14.6032)">
<stop stop-color="#8C9AB8"/>
<stop offset="1" stop-color="#586280"/>
</radialGradient>
<radialGradient id="paint17_radial_58_12375" cx="0" cy="0" r="1" gradientUnits="userSpaceOnUse" gradientTransform="translate(22.2491 27.8778) scale(8.61192 10.3831)">
<stop stop-color="#9EAECF"/>
<stop offset="1" stop-color="#647091"/>
</radialGradient>
<radialGradient id="paint18_radial_58_12375" cx="0" cy="0" r="1" gradientUnits="userSpaceOnUse" gradientTransform="translate(18.4564 24.544) scale(18.7725 22.6334)">
<stop stop-color="#9EAECF"/>
<stop offset="1" stop-color="#647091"/>
</radialGradient>
<radialGradient id="paint19_radial_58_12375" cx="0" cy="0" r="1" gradientUnits="userSpaceOnUse" gradientTransform="translate(57.9176 -28.3419) scale(136.947 165.112)">
<stop stop-color="#E2F1F7"/>
<stop offset="1" stop-color="#9A9DB5"/>
</radialGradient>
<radialGradient id="paint20_radial_58_12375" cx="0" cy="0" r="1" gradientUnits="userSpaceOnUse" gradientTransform="translate(8.56811 17.518) scale(51.0776 61.5825)">
<stop stop-color="#E2F1F7"/>
<stop offset="1" stop-color="#9A9DB5"/>
</radialGradient>
<radialGradient id="paint21_radial_58_12375" cx="0" cy="0" r="1" gradientUnits="userSpaceOnUse" gradientTransform="translate(155.065 52.672) scale(0.432801 0.521928)">
<stop stop-color="#E2F1F7"/>
<stop offset="1" stop-color="#9A9DB5"/>
</radialGradient>
</defs>
</svg>
