<?xml version="1.0" encoding="utf-8"?>
<!-- Generator: Adobe Illustrator 24.0.1, SVG Export Plug-In . SVG Version: 6.00 Build 0)  -->
<svg version="1.1" id="Layer_1" xmlns="http://www.w3.org/2000/svg" xmlns:xlink="http://www.w3.org/1999/xlink" x="0px" y="0px"
	 viewBox="0 0 455 724" style="enable-background:new 0 0 455 724;" xml:space="preserve">
<style type="text/css">
	.st0{fill:none;}
	.st1{fill:#368BCC;}
	.st2{fill:#368BCC;filter:url(#Adobe_OpacityMaskFilter);stroke:#000000;}
	.st3{mask:url(#mask0_152_9753_1_);}
	.st4{opacity:0.25;}
	.st5{opacity:0.3;fill:#FFFFFF;stroke:#000000;enable-background:new    ;}
	.st6{fill:none;stroke:#FFFFFF;stroke-width:3;stroke-linejoin:round;}
	.st7{fill:#1F6587;}
	.st8{fill:#247096;}
	.st9{fill:#FFFFFF;}
	.st10{fill:#11AACC;}
	.st11{fill:#0B738C;}
	.st12{fill:#0C7C96;}
	.st13{fill:#0E829E;}
	.st14{fill:#0F89A6;}
	.st15{fill:#0F91B0;}
	.st16{opacity:0.2;}
	.st17{fill:#A1B028;}
	.st18{fill:#A8A8A8;}
	.st19{fill:#969696;}
	.st20{fill:#757575;}
	.st21{fill:#363636;}
	.st22{fill:#5C5C5C;}
	.st23{fill:#383838;}
	.st24{fill:#CCCCCC;}
	.st25{fill:#808080;}
	.st26{fill:#999999;}
	.st27{fill:#2E2E2E;}
	.st28{fill:#696969;}
	.st29{fill:#424242;}
	.st30{fill:#C7C7C7;}
	.st31{fill:#C9C9C9;}
	.st32{fill:#0C778F;}
	.st33{opacity:0.2;fill:#FFFFFF;enable-background:new    ;}
	.st34{fill:#6E6E6E;}
	.st35{fill:#8A8A8A;}
	.st36{fill:#666666;}
	.st37{fill:#D6D6D6;}
	.st38{fill:#616161;}
	.st39{fill:#3B3B3B;}
	.st40{fill:#7A7A7A;}
	.st41{fill:#4A4A4A;}
	.st42{fill:#FF6666;}
	.st43{fill:#AD2626;}
	.st44{fill:#FF3838;}
	.st45{fill:#CFCFCF;}
	.st46{fill:#ABABAB;}
	.st47{fill:#919191;}
	.st48{fill:#B8B8B8;}
	.st49{fill:#636363;}
	.st50{fill:#FFFFFF;stroke:#1C5E8A;stroke-width:2.5;stroke-miterlimit:10;}
	.st51{fill:none;stroke:#1C5E8A;stroke-width:2.5;stroke-linecap:round;stroke-linejoin:round;stroke-dasharray:12,12;}
	.st52{display:none;fill-rule:evenodd;clip-rule:evenodd;fill:#888888;}
	.st53{display:none;fill-rule:evenodd;clip-rule:evenodd;fill:#3E3639;}
	.st54{display:none;fill-rule:evenodd;clip-rule:evenodd;fill:#A37D73;}
	.st55{display:none;fill-rule:evenodd;clip-rule:evenodd;fill:#170603;}
	.st56{display:none;fill-rule:evenodd;clip-rule:evenodd;fill:#BD9585;}
	.st57{display:none;fill-rule:evenodd;clip-rule:evenodd;fill:#53362B;}
	.st58{display:none;fill-rule:evenodd;clip-rule:evenodd;fill:#6F3E31;}
	.st59{display:none;fill-rule:evenodd;clip-rule:evenodd;fill:#75C15D;}
	.st60{display:none;opacity:0.2;fill-rule:evenodd;clip-rule:evenodd;enable-background:new    ;}
	.st61{display:none;fill:#FFFFFF;}
	.st62{display:none;}
	.st63{fill:#1C5E8A;}
	.st64{display:none;fill-rule:evenodd;clip-rule:evenodd;fill:#F1619B;}
	.st65{fill:#3C3C3C;}
	.st66{fill:#1272B1;}
	.st67{fill:#ACACAC;stroke:#3D3D3D;stroke-width:2.5;stroke-linecap:round;stroke-linejoin:round;stroke-dasharray:12,12;}
	.st68{fill:#3A3A3A;}
</style>
<rect class="st0" width="454.7" height="723.8"/>
<path class="st1" d="M413.7,23.7H27c-10.7,0-19.5,8.1-19.5,18.1v644.4c0,10,8.7,18.1,19.5,18.1h386.7c10.7,0,19.5-8.1,19.5-18.1
	V41.8C433.1,31.8,424.4,23.7,413.7,23.7z"/>
<defs>
	<filter id="Adobe_OpacityMaskFilter" filterUnits="userSpaceOnUse" x="-140.4" y="20.4" width="721.6" height="761.8">
		<feColorMatrix  type="matrix" values="1 0 0 0 0  0 1 0 0 0  0 0 1 0 0  0 0 0 1 0"/>
	</filter>
</defs>
<mask maskUnits="userSpaceOnUse" x="-140.4" y="20.4" width="721.6" height="761.8" id="mask0_152_9753_1_">
	<path class="st2" d="M27,24.2h386.7c10.5,0,19,7.9,19,17.6v644.4c0,9.7-8.5,17.6-19,17.6H27c-10.5,0-19-7.9-19-17.6V41.8
		C8,32.1,16.5,24.2,27,24.2z"/>
</mask>
<g class="st3">
	<g class="st4">
		<path class="st5" d="M580.8,429.3L234.1,271l346.7,130.7V429.3z"/>
		<path class="st5" d="M264.1,781.7l-42.3-506l91,506H264.1z"/>
		<path class="st5" d="M224.4,277.8l178,503.9h-42.3L224.4,277.8z"/>
		<path class="st5" d="M220,781.7h-37L220,279V781.7z"/>
		<path class="st5" d="M217.6,278.5l-91.9,503.2H86.4L217.6,278.5z"/>
		<path class="st5" d="M580.8,530.6v33.3L233.7,275.7L580.8,530.6z"/>
		<path class="st5" d="M226.1,276.4l282.1,505.3h-51.3L226.1,276.4z"/>
		<path class="st5" d="M229.7,274.8l351.1,333.8v54.6L229.7,274.8z"/>
		<path class="st5" d="M576.9,781.7l-347-503.6l350.9,445.9v57.6H576.9z"/>
		<path class="st5" d="M580.8,463.7V493L234.2,273.5L580.8,463.7z"/>
		<path class="st5" d="M210,269.8l-349.9,168.6v-36.5L210,269.8z"/>
		<path class="st5" d="M215.5,277.6L31.5,781.7h-44.6L215.5,277.6z"/>
		<path class="st5" d="M-139.9,697.8v-51.3l350-369.5L-139.9,697.8z"/>
		<path class="st5" d="M-66.5,781.7h-72.9l354.7-508.2L-66.5,781.7z"/>
		<path class="st5" d="M-139.9,507.2v-31.6l347.3-202.1L-139.9,507.2z"/>
		<path class="st5" d="M208.5,275.7l-348.3,320v-38.4L208.5,275.7z"/>
		<path class="st5" d="M128.2,21h48.6l42.2,239.4L128.2,21z"/>
		<path class="st5" d="M216,258.6L38.9,21h42.1L216,258.6z"/>
		<path class="st5" d="M221,21h37l-37,238V21z"/>
		<path class="st5" d="M223.6,258.7L315.2,21h39.1L223.6,258.7z"/>
		<path class="st5" d="M-139.9,282.6v-44.4l352.4,27.1L-139.9,282.6z"/>
		<path class="st5" d="M213.2,258.6L-66.7,21h50.9L213.2,258.6z"/>
		<path class="st5" d="M213.8,263.6l-353.6-69.6v-55L213.8,263.6z"/>
		<path class="st5" d="M-139.9,21h3.9l349.5,240.3L-139.9,78.5V21z"/>
		<path class="st5" d="M-139.9,367.6v-38.1l350.9-62L-139.9,367.6z"/>
		<path class="st5" d="M226.6,258.3L409.3,21h44.3L226.6,258.3z"/>
		<path class="st5" d="M580.8,156.1l-353,106.6l353-158.4V156.1z"/>
		<path class="st5" d="M507.3,20.9h72.4l-352,239L507.3,20.9z"/>
		<path class="st5" d="M580.8,315.3v40.4l-351.4-88.6L580.8,315.3z"/>
		<path class="st5" d="M227.7,264.7l353.1-58.3v49.5L227.7,264.7z"/>
	</g>
</g>
<path class="st6" d="M395.5,44.3H45.2c-10.7,0-19.5,8.1-19.5,18.1v603.2c0,10,8.7,18.1,19.5,18.1h350.4c10.7,0,19.5-8.1,19.5-18.1
	V62.4C415,52.4,406.3,44.3,395.5,44.3z"/>
<path class="st7" d="M361.5,45l21.9,23.7c0.1,0.1,0.2,0.3,0.3,0.5c0,0.2,0,0.4,0,0.5c-0.1,0.2-0.2,0.3-0.3,0.4
	c-0.1,0.1-0.3,0.2-0.5,0.2h-68.9c-0.2,0-0.5-0.1-0.6-0.3c-0.2-0.2-0.2-0.4-0.2-0.6V19.2c0-0.1,0-0.2,0-0.3c0-0.1,0.1-0.2,0.2-0.3
	c0.1-0.1,0.2-0.2,0.3-0.2c0.1-0.1,0.2-0.1,0.4-0.1h68.9c0.2,0,0.4,0.1,0.5,0.2c0.1,0.1,0.3,0.3,0.3,0.4c0.1,0.2,0.1,0.3,0,0.5
	c0,0.2-0.1,0.3-0.2,0.5l-21.9,23.7c-0.2,0.2-0.3,0.4-0.3,0.7C361.2,44.6,361.3,44.8,361.5,45z"/>
<path class="st7" d="M80.3,45L58.4,68.8c-0.1,0.1-0.2,0.3-0.3,0.5c0,0.2,0,0.4,0,0.5c0.1,0.2,0.2,0.3,0.3,0.4
	c0.1,0.1,0.3,0.2,0.5,0.2h68.9c0.2,0,0.5-0.1,0.6-0.3c0.2-0.2,0.2-0.4,0.2-0.6V19.2c0-0.1,0-0.2,0-0.3c0-0.1-0.1-0.2-0.2-0.3
	c-0.1-0.1-0.2-0.2-0.3-0.2c-0.1-0.1-0.2-0.1-0.4-0.1H59c-0.2,0-0.4,0.1-0.5,0.2c-0.1,0.1-0.3,0.3-0.3,0.4c-0.1,0.2-0.1,0.3,0,0.5
	c0,0.2,0.1,0.3,0.2,0.5l21.9,23.7c0.2,0.2,0.3,0.4,0.3,0.7C80.6,44.6,80.5,44.8,80.3,45z"/>
<path class="st8" d="M336.6,8.2H104.3c-1.7,0-3,1.3-3,2.8v52.7c0,1.5,1.3,2.8,3,2.8h232.3c1.7,0,3-1.3,3-2.8V11
	C339.7,9.5,338.3,8.2,336.6,8.2z"/>
<path class="st9" d="M155.9,35.3c0.1-1.3,0.3-2.5,0.8-3.6c0.5-1.1,1.2-2.1,2.1-2.9c0.9-0.8,2-1.5,3.3-2c1.3-0.5,2.8-0.7,4.5-0.7
	c1.7,0,3.1,0.2,4.4,0.7c1.3,0.5,2.4,1.1,3.3,2c0.9,0.8,1.6,1.8,2.1,2.9c0.5,1.1,0.8,2.3,0.8,3.6c0,1,0.1,2,0.1,3.1
	c0,1.1,0,2.1-0.1,3c-0.1,1.3-0.4,2.5-0.8,3.6c-0.5,1.1-1.2,2.1-2.1,2.9c-0.9,0.8-2,1.5-3.3,2c-1.3,0.5-2.8,0.7-4.4,0.7
	c-1.7,0-3.2-0.2-4.5-0.7c-1.3-0.5-2.4-1.1-3.3-2c-0.9-0.8-1.6-1.8-2.1-2.9c-0.5-1.1-0.7-2.3-0.8-3.6c0-0.9-0.1-1.9-0.1-3
	C155.8,37.3,155.8,36.3,155.9,35.3z M170.8,41.2c0-0.4,0-0.9,0.1-1.4c0-0.5,0-1,0-1.5c0-0.5,0-1,0-1.5c0-0.5,0-0.9-0.1-1.3
	c0-0.6-0.2-1.1-0.4-1.6c-0.2-0.5-0.5-0.9-0.8-1.2c-0.3-0.4-0.8-0.6-1.3-0.9c-0.5-0.2-1.1-0.3-1.8-0.3c-0.7,0-1.3,0.1-1.8,0.3
	c-0.5,0.2-1,0.5-1.3,0.9c-0.3,0.3-0.6,0.7-0.8,1.2c-0.2,0.5-0.3,1-0.3,1.6c0,0.4-0.1,0.8-0.1,1.3c0,0.5,0,1,0,1.5c0,0.5,0,1,0,1.5
	c0,0.5,0.1,1,0.1,1.4c0.1,1.1,0.5,2.1,1.2,2.8c0.7,0.7,1.8,1.1,3.2,1.1s2.4-0.4,3.1-1.1S170.7,42.3,170.8,41.2z M196.5,50.2
	c-0.4,0-0.7-0.1-1-0.3c-0.2-0.2-0.4-0.4-0.4-0.5l-7.8-11.6v11.5c0,0.2-0.1,0.5-0.3,0.6c-0.2,0.2-0.4,0.3-0.6,0.3H182
	c-0.2,0-0.5-0.1-0.6-0.3c-0.2-0.2-0.3-0.4-0.3-0.6v-22c0-0.2,0.1-0.5,0.3-0.6c0.2-0.2,0.4-0.3,0.6-0.3h3.5c0.4,0,0.7,0.1,0.9,0.3
	c0.3,0.2,0.4,0.4,0.5,0.5l7.8,11.6V27.3c0-0.2,0.1-0.5,0.3-0.6c0.2-0.2,0.4-0.3,0.6-0.3h4.5c0.3,0,0.5,0.1,0.6,0.3
	c0.2,0.2,0.3,0.4,0.3,0.6v22c0,0.2-0.1,0.5-0.3,0.6c-0.2,0.2-0.4,0.3-0.6,0.3H196.5z M222.4,44.8c0.3,0,0.5,0.1,0.6,0.3
	c0.2,0.2,0.3,0.4,0.3,0.6v3.6c0,0.2-0.1,0.5-0.3,0.6c-0.2,0.2-0.4,0.3-0.6,0.3h-15.7c-0.2,0-0.5-0.1-0.6-0.3
	c-0.2-0.2-0.3-0.4-0.3-0.6v-22c0-0.2,0.1-0.5,0.3-0.6c0.2-0.2,0.4-0.3,0.6-0.3h4.5c0.3,0,0.5,0.1,0.6,0.3c0.2,0.2,0.3,0.4,0.3,0.6
	v17.4H222.4z M227.1,50.2c-0.3,0-0.5-0.1-0.6-0.3c-0.2-0.2-0.3-0.4-0.3-0.6v-22c0-0.2,0.1-0.5,0.3-0.6c0.2-0.2,0.4-0.3,0.6-0.3h4.5
	c0.2,0,0.5,0.1,0.6,0.3c0.2,0.2,0.3,0.4,0.3,0.6v22c0,0.2-0.1,0.5-0.3,0.6c-0.2,0.2-0.4,0.3-0.6,0.3H227.1z M252.8,50.2
	c-0.4,0-0.7-0.1-1-0.3c-0.2-0.2-0.4-0.4-0.4-0.5l-7.8-11.6v11.5c0,0.2-0.1,0.5-0.3,0.6c-0.2,0.2-0.4,0.3-0.6,0.3h-4.5
	c-0.2,0-0.5-0.1-0.6-0.3c-0.2-0.2-0.3-0.4-0.3-0.6v-22c0-0.2,0.1-0.5,0.3-0.6c0.2-0.2,0.4-0.3,0.6-0.3h3.5c0.4,0,0.7,0.1,0.9,0.3
	c0.3,0.2,0.4,0.4,0.5,0.5l7.8,11.6V27.3c0-0.2,0.1-0.5,0.3-0.6c0.2-0.2,0.4-0.3,0.6-0.3h4.5c0.3,0,0.5,0.1,0.6,0.3
	c0.2,0.2,0.3,0.4,0.3,0.6v22c0,0.2-0.1,0.5-0.3,0.6c-0.2,0.2-0.4,0.3-0.6,0.3H252.8z M279,44.8c0.2,0,0.5,0.1,0.6,0.3
	c0.2,0.2,0.3,0.4,0.3,0.6v3.6c0,0.2-0.1,0.5-0.3,0.6c-0.2,0.2-0.4,0.3-0.6,0.3h-16.1c-0.2,0-0.5-0.1-0.6-0.3
	c-0.2-0.2-0.3-0.4-0.3-0.6v-22c0-0.2,0.1-0.5,0.3-0.6c0.2-0.2,0.4-0.3,0.6-0.3h15.8c0.2,0,0.5,0.1,0.6,0.3c0.2,0.2,0.3,0.4,0.3,0.6
	V31c0,0.2-0.1,0.5-0.3,0.6c-0.2,0.2-0.4,0.3-0.6,0.3h-10.5v3.7h9.7c0.2,0,0.5,0.1,0.6,0.3c0.2,0.2,0.3,0.4,0.3,0.6v3.6
	c0,0.2-0.1,0.5-0.3,0.6c-0.2,0.2-0.4,0.3-0.6,0.3h-9.7v3.8H279z"/>
<rect x="134.3" y="64.2" class="st0" width="191" height="208"/>
<path class="st10" d="M283.6,172.5c-16.8,9-58.1,1.5-92.2-16.8c-24.5-13.1-38.7-28.2-38.5-39v60.1c0.1,10.8,14.3,25.7,38.5,38.6
	c34.2,18.3,75.4,25.8,92.2,16.8l21.6-11.6v-59.7L283.6,172.5z"/>
<path class="st11" d="M181.5,154.5l-21.6,11.6c-16.8,9-2.7,31.1,31.4,49.3c34.1,18.3,75.4,25.8,92.2,16.8l21.6-11.6L181.5,154.5z"/>
<path class="st12" d="M181.5,142.9l-21.6,11.6c-16.8,9-2.7,31.1,31.4,49.3c34.1,18.3,75.4,25.8,92.2,16.8l21.6-11.6L181.5,142.9z"/>
<path class="st13" d="M181.5,131.3l-21.6,11.6c-16.8,9-2.7,31.1,31.4,49.3c34.1,18.3,75.4,25.8,92.2,16.8l21.6-11.6L181.5,131.3z"/>
<path class="st14" d="M181.5,119.8l-21.6,11.6c-16.8,9-2.7,31.1,31.4,49.4c34.1,18.3,75.4,25.8,92.2,16.8l21.6-11.6L181.5,119.8z"/>
<path class="st15" d="M181.5,108.1l-21.6,11.6c-16.8,9-2.7,31.1,31.4,49.4c34.1,18.3,75.4,25.8,92.2,16.8l21.6-11.6L181.5,108.1z"/>
<g class="st16">
	<path class="st9" d="M193.7,216.7c-10.6-25-17.9-51.1-22-77.7c0,0,19.1,14.7,29.5,18.5c5.8,25.2,14.8,49.6,26.8,72.9
		C228,230.3,209.3,225.1,193.7,216.7z"/>
</g>
<g class="st16">
	<path class="st9" d="M249.5,235c-10-21.6-17.7-44-22.9-67c0,0,7.6,2.2,11.1,2c6,22.8,14.7,45,25.9,66.1
		C263.7,236,259.1,236.2,249.5,235z"/>
</g>
<path class="st17" d="M286.4,236.4l-2.1,1v-67.7l2.1-1V236.4z"/>
<path class="st17" d="M305.2,228.6l-2.1,1V162l2.1-1V228.6z"/>
<path class="st17" d="M158.3,194.2l-2.1-0.4v-68.7l2.1,0.4V194.2z"/>
<path class="st17" d="M177.8,209.9l-2.1,1v-66.4l2.1-1V209.9z"/>
<path class="st17" d="M203.2,226l-2.1,1v-67.8l2.1-1V226z"/>
<path class="st17" d="M232.4,233.9l-2.1,0.9v-83.5h2.1V233.9z"/>
<path class="st17" d="M256.4,173.3l2.1-0.8v68.8l-2.1-0.1V173.3z"/>
<path class="st17" d="M283.6,232.2c-16.8,9-58.1,1.5-92.2-16.8c-24.5-13.1-38.7-28.2-38.5-39v18.9c0.1,10.8,14.3,25.7,38.5,38.6
	c34.2,18.3,75.4,25.8,92.2,16.8l21.6-11.6v-18.5L283.6,232.2z"/>
<path class="st17" d="M152.8,176.3v0.1C152.8,176.4,152.8,176.3,152.8,176.3z"/>
<path class="st18" d="M181.5,94.8l-21.6,11.6c-16.8,9-2.7,31.1,31.4,49.3c34.1,18.3,75.4,25.8,92.2,16.8l21.6-11.6L181.5,94.8z"/>
<path class="st17" d="M283.6,166.4c-16.8,9-58.1,1.5-92.2-16.8c-24.5-13.1-38.7-28.2-38.5-39v6.5c0.1,10.8,14.3,25.7,38.5,38.6
	c34.2,18.3,75.4,25.8,92.2,16.8l21.6-11.6v-6.1L283.6,166.4z"/>
<path class="st17" d="M152.8,110.5L152.8,110.5C152.8,110.5,152.8,110.5,152.8,110.5z"/>
<path class="st19" d="M181.5,88.7l-21.6,11.6c-16.8,9-2.7,31.1,31.4,49.4c34.1,18.3,75.4,25.8,92.2,16.8l21.6-11.6L181.5,88.7z"/>
<path class="st20" d="M182.4,94.8l-19.5,10.4c-3.5,1.9-5.4,4.5-5.8,7.5c-0.6-4.4,1.2-8,5.8-10.4l19.5-10.4L182.4,94.8z"/>
<path class="st21" d="M299.4,154.5l-2.7,1.4L182.4,94.8v-2.9L299.4,154.5z"/>
<path class="st22" d="M296.7,155.9l-16.8,9c-15.2,8.2-55.2-0.1-86-16.6c-21.6-11.6-35.5-25.4-36.8-35.5c0.4-3.1,2.3-5.6,5.8-7.5
	l19.5-10.4L296.7,155.9z"/>
<path class="st23" d="M259.1,148.9l8.4,4.5l7.6-4.1l-8.4-4.5L259.1,148.9z"/>
<path class="st24" d="M264.4,144.6l6.2,3.3l2.8-1.5l-6.2-3.3L264.4,144.6z"/>
<path class="st25" d="M264.4,147.5l6.2,3.3v-3l-6.2-3.3V147.5z"/>
<path class="st26" d="M270.6,150.9l2.8-1.5v-2.9l-2.8,1.5V150.9z"/>
<path class="st27" d="M268.3,144c-0.3-0.2-0.7-0.2-1.1-0.2c-0.4,0-0.8,0.1-1.1,0.2c-0.1,0-0.3,0.1-0.3,0.2c-0.1,0.1-0.1,0.2-0.1,0.4
	c0,0.1,0,0.3,0.1,0.4c0.1,0.1,0.2,0.2,0.3,0.2c0.3,0.2,0.7,0.2,1.1,0.2c0.4,0,0.8-0.1,1.1-0.2c0.1,0,0.2-0.1,0.3-0.2
	c0.1-0.1,0.1-0.2,0.1-0.4c0-0.1,0-0.3-0.1-0.4C268.6,144.1,268.5,144,268.3,144z"/>
<path class="st22" d="M266.1,144c-0.4,0.2,1,0.5,1,0.5S266.5,143.8,266.1,144z"/>
<path class="st22" d="M267.2,143.7c-0.5,0,0,0.8,0,0.8S267.8,143.7,267.2,143.7z"/>
<path class="st22" d="M268.3,144c-0.4-0.2-1,0.5-1,0.5S268.7,144.2,268.3,144z"/>
<path class="st22" d="M267.4,144.6c0,0,1.4,0.3,1.4,0C268.8,144.3,267.4,144.6,267.4,144.6z"/>
<path class="st22" d="M267.3,144.6c0,0,0.6,0.7,1,0.5C268.7,144.9,267.3,144.6,267.3,144.6z"/>
<path class="st22" d="M267.2,145.4c0.5,0,0-0.8,0-0.8S266.7,145.4,267.2,145.4z"/>
<path class="st22" d="M266.2,145.1c0.4,0.2,1-0.5,1-0.5S265.8,144.9,266.2,145.1z"/>
<path class="st22" d="M265.7,144.6c0,0.3,1.4,0,1.4,0S265.7,144.2,265.7,144.6z"/>
<path class="st28" d="M267.2,144.8c0.2,0,0.4-0.1,0.4-0.2c0-0.1-0.2-0.2-0.4-0.2s-0.4,0.1-0.4,0.2
	C266.8,144.7,267,144.8,267.2,144.8z"/>
<path class="st29" d="M267.4,144.5c-0.1,0-0.1,0-0.2,0s-0.1,0-0.2,0c0,0,0,0-0.1,0c0,0,0,0,0,0.1c0,0,0,0,0,0.1c0,0,0,0,0.1,0
	c0.1,0,0.1,0,0.2,0s0.1,0,0.2,0c0,0,0,0,0.1,0C267.5,144.6,267.5,144.6,267.4,144.5C267.5,144.5,267.5,144.5,267.4,144.5
	C267.5,144.5,267.4,144.5,267.4,144.5z"/>
<path class="st9" d="M267.2,144.5C267.2,144.5,267.2,144.5,267.2,144.5C267.2,144.5,267.2,144.5,267.2,144.5
	C267.2,144.5,267.2,144.5,267.2,144.5C267.2,144.5,267.2,144.5,267.2,144.5C267.2,144.4,267.2,144.4,267.2,144.5
	C267.2,144.4,267.2,144.4,267.2,144.5z"/>
<path class="st27" d="M271.6,145.6c-0.3-0.2-0.7-0.2-1.1-0.2c-0.4,0-0.8,0.1-1.1,0.2c-0.1,0-0.3,0.1-0.3,0.2
	c-0.1,0.1-0.1,0.2-0.1,0.4c0,0.1,0,0.3,0.1,0.4c0.1,0.1,0.2,0.2,0.3,0.2c0.3,0.2,0.7,0.2,1.1,0.2c0.4,0,0.8-0.1,1.1-0.2
	c0.1,0,0.3-0.1,0.3-0.2c0.1-0.1,0.1-0.2,0.1-0.4c0-0.1,0-0.3-0.1-0.4C271.8,145.8,271.7,145.7,271.6,145.6z"/>
<path class="st22" d="M269.4,145.6c-0.4,0.2,1,0.5,1,0.5S269.8,145.4,269.4,145.6z"/>
<path class="st22" d="M270.5,145.4c-0.5,0,0,0.8,0,0.8S271,145.4,270.5,145.4z"/>
<path class="st22" d="M271.6,145.6c-0.4-0.2-1,0.5-1,0.5S271.9,145.8,271.6,145.6z"/>
<path class="st22" d="M270.6,146.2c0,0,1.4,0.3,1.4,0C272,145.9,270.6,146.2,270.6,146.2z"/>
<path class="st22" d="M270.6,146.3c0,0,0.6,0.7,1,0.5C271.9,146.6,270.6,146.3,270.6,146.3z"/>
<path class="st22" d="M270.5,147c0.5,0,0-0.8,0-0.8S269.9,147,270.5,147z"/>
<path class="st22" d="M269.4,146.8c0.4,0.2,1-0.5,1-0.5S269,146.6,269.4,146.8z"/>
<path class="st22" d="M268.9,146.2c0,0.3,1.4,0,1.4,0S268.9,145.9,268.9,146.2z"/>
<path class="st28" d="M270.5,146.4c0.2,0,0.4-0.1,0.4-0.2c0-0.1-0.2-0.2-0.4-0.2s-0.4,0.1-0.4,0.2
	C270.1,146.3,270.3,146.4,270.5,146.4z"/>
<path class="st29" d="M270.7,146.1c-0.1,0-0.1,0-0.2,0s-0.1,0-0.2,0c0,0,0,0-0.1,0c0,0,0,0,0,0.1c0,0,0,0,0,0.1c0,0,0,0,0.1,0
	c0.1,0,0.1,0,0.2,0s0.1,0,0.2,0c0,0,0,0,0.1,0C270.7,146.3,270.8,146.3,270.7,146.1C270.8,146.2,270.7,146.2,270.7,146.1
	C270.7,146.1,270.7,146.1,270.7,146.1z"/>
<path class="st9" d="M270.4,146.1C270.4,146.1,270.4,146.1,270.4,146.1C270.4,146.2,270.4,146.2,270.4,146.1
	C270.5,146.2,270.5,146.2,270.4,146.1C270.5,146.1,270.5,146.2,270.4,146.1C270.5,146.1,270.5,146.1,270.4,146.1
	C270.4,146.1,270.4,146.1,270.4,146.1z"/>
<path class="st24" d="M261.3,146.2l6.2,3.3l2.8-1.5l-6.2-3.3L261.3,146.2z"/>
<path class="st25" d="M261.3,149.1l6.2,3.3v-3l-6.2-3.3V149.1z"/>
<path class="st26" d="M267.5,152.4l2.8-1.5V148l-2.8,1.5V152.4z"/>
<path class="st27" d="M264.1,147c0.9,0,1.6-0.4,1.6-0.8c0-0.5-0.7-0.8-1.6-0.8c-0.9,0-1.6,0.4-1.6,0.8
	C262.6,146.6,263.3,147,264.1,147z"/>
<path class="st22" d="M263,145.6c-0.4,0.2,1,0.5,1,0.5S263.4,145.4,263,145.6z"/>
<path class="st22" d="M264.2,145.3c-0.5,0,0,0.8,0,0.8S264.7,145.3,264.2,145.3z"/>
<path class="st22" d="M265.2,145.6c-0.4-0.2-1,0.5-1,0.5S265.6,145.8,265.2,145.6z"/>
<path class="st22" d="M264.2,146.1c0,0,1.5,0.3,1.5,0C265.7,145.9,264.2,146.1,264.2,146.1z"/>
<path class="st22" d="M264.2,146.2c0,0,0.6,0.7,1,0.5S264.2,146.2,264.2,146.2z"/>
<path class="st22" d="M264.2,147c0.5,0,0-0.8,0-0.8S263.6,147,264.2,147z"/>
<path class="st22" d="M263,146.7c0.4,0.2,1-0.5,1-0.5S262.7,146.5,263,146.7z"/>
<path class="st22" d="M262.6,146.2c0,0.3,1.4,0,1.4,0S262.6,145.9,262.6,146.2z"/>
<path class="st28" d="M264.1,146.4c0.2,0,0.4-0.1,0.4-0.2c0-0.1-0.2-0.2-0.4-0.2c-0.2,0-0.4,0.1-0.4,0.2
	C263.7,146.3,263.9,146.4,264.1,146.4z"/>
<path class="st29" d="M264.1,146.3c0.1,0,0.3-0.1,0.3-0.1s-0.1-0.1-0.3-0.1s-0.3,0.1-0.3,0.1S264,146.3,264.1,146.3z"/>
<path class="st9" d="M264.1,146C264.1,146,264.1,146,264.1,146C264.1,146.1,264.1,146.1,264.1,146
	C264.1,146.1,264.1,146.1,264.1,146C264.1,146.1,264.1,146.1,264.1,146C264.1,146,264.1,146,264.1,146
	C264.1,146,264.1,146,264.1,146z"/>
<path class="st27" d="M268.5,147.2c-0.3-0.2-0.7-0.2-1.1-0.2c-0.4,0-0.8,0.1-1.1,0.2c-0.1,0-0.2,0.1-0.3,0.2
	c-0.1,0.1-0.1,0.2-0.1,0.4c0,0.1,0,0.3,0.1,0.4c0.1,0.1,0.2,0.2,0.3,0.2c0.3,0.2,0.7,0.2,1.1,0.2c0.4,0,0.8-0.1,1.1-0.2
	c0.1,0,0.2-0.1,0.3-0.2c0.1-0.1,0.1-0.2,0.1-0.4c0-0.1,0-0.3-0.1-0.4C268.7,147.4,268.6,147.3,268.5,147.2z"/>
<path class="st22" d="M266.3,147.2c-0.4,0.2,1,0.5,1,0.5S266.7,147,266.3,147.2z"/>
<path class="st22" d="M267.4,147c-0.5,0,0,0.8,0,0.8S267.9,147,267.4,147z"/>
<path class="st22" d="M268.5,147.2c-0.4-0.2-1,0.5-1,0.5S268.8,147.4,268.5,147.2z"/>
<path class="st22" d="M267.5,147.8c0,0,1.4,0.3,1.4,0C268.9,147.5,267.5,147.8,267.5,147.8z"/>
<path class="st22" d="M267.5,147.9c0,0,0.6,0.7,1,0.5C268.8,148.2,267.5,147.9,267.5,147.9z"/>
<path class="st22" d="M267.4,148.6c0.5,0,0-0.8,0-0.8S266.8,148.6,267.4,148.6z"/>
<path class="st22" d="M266.3,148.4c0.4,0.2,1-0.5,1-0.5S265.9,148.2,266.3,148.4z"/>
<path class="st22" d="M265.8,147.8c0,0.3,1.4,0,1.4,0S265.8,147.5,265.8,147.8z"/>
<path class="st28" d="M267.4,148c0.2,0,0.4-0.1,0.4-0.2c0-0.1-0.2-0.2-0.4-0.2c-0.2,0-0.4,0.1-0.4,0.2
	C267,147.9,267.2,148,267.4,148z"/>
<path class="st29" d="M267.6,147.7c-0.1,0-0.1,0-0.2,0c-0.1,0-0.1,0-0.2,0c-0.1,0.1-0.1,0.1,0,0.2c0.1,0,0.1,0,0.2,0
	c0.1,0,0.1,0,0.2,0C267.7,147.9,267.7,147.8,267.6,147.7z"/>
<path class="st23" d="M252.2,158.8l8.4,4.5l7.6-4.1l-8.4-4.5L252.2,158.8z"/>
<path class="st24" d="M257.5,154.5l6.2,3.3l2.8-1.5l-6.2-3.3L257.5,154.5z"/>
<path class="st25" d="M257.5,157.5l6.2,3.3v-2.9l-6.2-3.3V157.5z"/>
<path class="st26" d="M263.7,160.8l2.8-1.5v-3l-2.8,1.5V160.8z"/>
<path class="st27" d="M260.3,155.4c0.9,0,1.6-0.4,1.6-0.8c0-0.5-0.7-0.8-1.6-0.8c-0.9,0-1.6,0.4-1.6,0.8
	C258.7,155,259.4,155.4,260.3,155.4z"/>
<path class="st22" d="M259.2,153.9c-0.4,0.2,1,0.5,1,0.5S259.6,153.8,259.2,153.9z"/>
<path class="st22" d="M260.3,153.7c-0.5,0,0,0.8,0,0.8S260.8,153.7,260.3,153.7z"/>
<path class="st22" d="M261.4,153.9c-0.4-0.2-1,0.5-1,0.5S261.7,154.1,261.4,153.9z"/>
<path class="st22" d="M260.4,154.5c0,0,1.4,0.3,1.4,0C261.8,154.2,260.4,154.5,260.4,154.5z"/>
<path class="st22" d="M260.4,154.6c0,0,0.6,0.7,1,0.5C261.8,154.9,260.4,154.6,260.4,154.6z"/>
<path class="st22" d="M260.3,155.3c0.5,0,0-0.8,0-0.8S259.8,155.3,260.3,155.3z"/>
<path class="st22" d="M259.2,155.1c0.4,0.2,1-0.5,1-0.5S258.8,154.9,259.2,155.1z"/>
<path class="st22" d="M258.7,154.5c0,0.3,1.4,0,1.4,0S258.7,154.2,258.7,154.5z"/>
<path class="st28" d="M260.6,154.4c-0.1,0-0.2-0.1-0.3-0.1c-0.1,0-0.2,0-0.3,0.1c0,0-0.1,0-0.1,0.1c0,0,0,0.1,0,0.1c0,0,0,0.1,0,0.1
	c0,0,0.1,0,0.1,0.1c0.1,0,0.2,0.1,0.3,0.1c0.1,0,0.2,0,0.3-0.1c0,0,0.1,0,0.1-0.1c0,0,0-0.1,0-0.1
	C260.7,154.5,260.7,154.5,260.6,154.4C260.6,154.4,260.6,154.4,260.6,154.4z"/>
<path class="st29" d="M260.3,154.7c0.1,0,0.3-0.1,0.3-0.1c0-0.1-0.1-0.1-0.3-0.1c-0.1,0-0.3,0.1-0.3,0.1
	C260,154.6,260.1,154.7,260.3,154.7z"/>
<path class="st9" d="M260.2,154.4C260.2,154.4,260.2,154.5,260.2,154.4C260.2,154.5,260.2,154.5,260.2,154.4
	C260.3,154.5,260.3,154.5,260.2,154.4C260.3,154.5,260.3,154.5,260.2,154.4C260.3,154.4,260.3,154.4,260.2,154.4
	C260.2,154.4,260.2,154.4,260.2,154.4z"/>
<path class="st27" d="M264.6,155.6c-0.3-0.2-0.7-0.2-1.1-0.2c-0.4,0-0.8,0.1-1.1,0.2c-0.1,0-0.3,0.1-0.3,0.2s-0.1,0.2-0.1,0.4
	c0,0.1,0,0.3,0.1,0.4c0.1,0.1,0.2,0.2,0.3,0.2c0.3,0.2,0.7,0.2,1.1,0.2c0.4,0,0.8-0.1,1.1-0.2c0.1,0,0.3-0.1,0.3-0.2
	c0.1-0.1,0.1-0.2,0.1-0.4c0-0.1,0-0.3-0.1-0.4C264.9,155.7,264.8,155.6,264.6,155.6z"/>
<path class="st22" d="M262.4,155.6c-0.4,0.2,1,0.5,1,0.5S262.8,155.4,262.4,155.6z"/>
<path class="st22" d="M263.5,155.4c-0.5,0,0,0.8,0,0.8S264.1,155.4,263.5,155.4z"/>
<path class="st22" d="M264.6,155.6c-0.4-0.2-1,0.5-1,0.5S265,155.8,264.6,155.6z"/>
<path class="st22" d="M263.6,156.2c0,0,1.4,0.3,1.4,0C265.1,155.9,263.6,156.2,263.6,156.2z"/>
<path class="st22" d="M263.6,156.2c0,0,0.6,0.7,1,0.5C265,156.6,263.6,156.2,263.6,156.2z"/>
<path class="st22" d="M263.5,157c0.5,0,0-0.8,0-0.8S263,157,263.5,157z"/>
<path class="st22" d="M262.4,156.8c0.4,0.2,1-0.5,1-0.5S262,156.6,262.4,156.8z"/>
<path class="st22" d="M262,156.2c0,0.3,1.4,0,1.4,0S262,155.9,262,156.2z"/>
<path class="st28" d="M263.8,156c-0.1,0-0.2-0.1-0.3-0.1c-0.1,0-0.2,0-0.3,0.1c0,0-0.1,0-0.1,0.1c0,0,0,0.1,0,0.1c0,0,0,0.1,0,0.1
	c0,0,0.1,0,0.1,0.1c0.1,0,0.2,0.1,0.3,0.1c0.1,0,0.2,0,0.3-0.1c0,0,0.1,0,0.1-0.1c0,0,0-0.1,0-0.1
	C263.9,156.2,263.9,156.1,263.8,156C263.9,156.1,263.8,156.1,263.8,156z"/>
<path class="st29" d="M263.7,156.1c-0.1,0-0.1,0-0.2,0s-0.1,0-0.2,0c0,0,0,0-0.1,0c0,0,0,0,0,0.1c0,0,0,0,0,0.1c0,0,0,0,0.1,0
	c0.1,0,0.1,0,0.2,0s0.1,0,0.2,0c0,0,0,0,0.1,0C263.8,156.2,263.8,156.2,263.7,156.1C263.8,156.2,263.8,156.1,263.7,156.1
	C263.8,156.1,263.7,156.1,263.7,156.1z"/>
<path class="st24" d="M254.4,156.1l6.2,3.3l2.8-1.5l-6.2-3.3L254.4,156.1z"/>
<path class="st25" d="M254.4,159.1l6.2,3.3v-3l-6.2-3.3V159.1z"/>
<path class="st26" d="M260.6,162.4l2.8-1.5V158l-2.8,1.5V162.4z"/>
<path class="st27" d="M257.2,157c0.9,0,1.6-0.4,1.6-0.8c0-0.5-0.7-0.8-1.6-0.8c-0.9,0-1.6,0.4-1.6,0.8
	C255.6,156.6,256.3,157,257.2,157z"/>
<path class="st22" d="M256.1,155.5c-0.4,0.2,1,0.5,1,0.5S256.5,155.3,256.1,155.5z"/>
<path class="st22" d="M257.2,155.3c-0.5,0,0,0.8,0,0.8S257.7,155.3,257.2,155.3z"/>
<path class="st22" d="M258.3,155.5c-0.4-0.2-1,0.5-1,0.5S258.6,155.7,258.3,155.5z"/>
<path class="st22" d="M257.3,156.1c0,0,1.4,0.3,1.4,0C258.7,155.8,257.3,156.1,257.3,156.1z"/>
<path class="st22" d="M257.3,156.2c0,0,0.6,0.7,1,0.5C258.7,156.5,257.3,156.2,257.3,156.2z"/>
<path class="st22" d="M257.2,156.9c0.5,0,0-0.8,0-0.8S256.6,156.9,257.2,156.9z"/>
<path class="st22" d="M256.1,156.7c0.4,0.2,1-0.5,1-0.5S255.7,156.5,256.1,156.7z"/>
<path class="st22" d="M255.6,156.1c0,0.3,1.4,0,1.4,0S255.6,155.8,255.6,156.1z"/>
<path class="st28" d="M257.5,156c-0.1,0-0.2-0.1-0.3-0.1c-0.1,0-0.2,0-0.3,0.1c0,0-0.1,0-0.1,0.1c0,0,0,0.1,0,0.1c0,0,0,0.1,0,0.1
	c0,0,0.1,0,0.1,0.1c0.1,0,0.2,0.1,0.3,0.1c0.1,0,0.2,0,0.3-0.1c0,0,0.1,0,0.1-0.1c0,0,0-0.1,0-0.1
	C257.6,156.1,257.6,156.1,257.5,156C257.5,156,257.5,156,257.5,156z"/>
<path class="st29" d="M257.4,156c-0.1,0-0.1,0-0.2,0s-0.1,0-0.2,0c0,0,0,0-0.1,0c0,0,0,0,0,0.1c0,0,0,0,0,0.1c0,0,0,0,0.1,0
	c0.1,0,0.1,0,0.2,0c0.1,0,0.1,0,0.2,0c0,0,0,0,0.1,0C257.4,156.2,257.4,156.1,257.4,156C257.4,156.1,257.4,156.1,257.4,156
	C257.4,156,257.4,156,257.4,156z"/>
<path class="st27" d="M261.5,157.2c-0.3-0.2-0.7-0.2-1.1-0.2c-0.4,0-0.8,0.1-1.1,0.2c-0.1,0-0.2,0.1-0.3,0.2
	c-0.1,0.1-0.1,0.2-0.1,0.4c0,0.1,0,0.3,0.1,0.4c0.1,0.1,0.2,0.2,0.3,0.2c0.3,0.2,0.7,0.2,1.1,0.2c0.4,0,0.8-0.1,1.1-0.2
	c0.1,0,0.2-0.1,0.3-0.2c0.1-0.1,0.1-0.2,0.1-0.4c0-0.1,0-0.3-0.1-0.4C261.8,157.3,261.6,157.2,261.5,157.2z"/>
<path class="st22" d="M259.3,157.2c-0.4,0.2,1,0.5,1,0.5S259.7,157,259.3,157.2z"/>
<path class="st22" d="M260.4,157c-0.5,0,0,0.8,0,0.8S260.9,157,260.4,157z"/>
<path class="st22" d="M261.5,157.2c-0.4-0.2-1,0.5-1,0.5S261.9,157.4,261.5,157.2z"/>
<path class="st22" d="M260.5,157.8c0,0,1.4,0.3,1.4,0C261.9,157.5,260.5,157.8,260.5,157.8z"/>
<path class="st22" d="M260.5,157.8c0,0,0.6,0.7,1,0.5C261.9,158.2,260.5,157.8,260.5,157.8z"/>
<path class="st22" d="M260.4,158.6c0.5,0,0-0.8,0-0.8S259.9,158.6,260.4,158.6z"/>
<path class="st22" d="M259.3,158.4c0.4,0.2,1-0.5,1-0.5S258.9,158.2,259.3,158.4z"/>
<path class="st22" d="M258.9,157.8c0,0.3,1.4,0,1.4,0S258.9,157.5,258.9,157.8z"/>
<path class="st28" d="M260.7,157.6c-0.1,0-0.2-0.1-0.3-0.1c-0.1,0-0.2,0-0.3,0.1c0,0-0.1,0-0.1,0.1c0,0,0,0.1,0,0.1c0,0,0,0.1,0,0.1
	c0,0,0.1,0,0.1,0.1c0.1,0,0.2,0.1,0.3,0.1c0.1,0,0.2,0,0.3-0.1c0,0,0.1,0,0.1-0.1c0,0,0-0.1,0-0.1
	C260.8,157.7,260.8,157.7,260.7,157.6C260.8,157.7,260.7,157.6,260.7,157.6z"/>
<path class="st29" d="M260.4,157.9c0.1,0,0.3-0.1,0.3-0.1c0-0.1-0.1-0.1-0.3-0.1c-0.1,0-0.3,0.1-0.3,0.1
	C260.1,157.9,260.3,157.9,260.4,157.9z"/>
<path class="st9" d="M260.3,157.7C260.3,157.7,260.3,157.7,260.3,157.7C260.4,157.7,260.4,157.7,260.3,157.7
	C260.4,157.7,260.4,157.7,260.3,157.7C260.4,157.7,260.4,157.7,260.3,157.7C260.4,157.7,260.4,157.7,260.3,157.7
	C260.4,157.7,260.4,157.7,260.3,157.7z"/>
<path class="st23" d="M186.1,113.4l8.4,4.5l7.6-4.1l-8.4-4.5L186.1,113.4z"/>
<path class="st24" d="M191.4,109.1l6.2,3.3l2.8-1.5l-6.2-3.3L191.4,109.1z"/>
<path class="st25" d="M191.4,112l6.2,3.3v-3l-6.2-3.3V112z"/>
<path class="st26" d="M197.6,115.4l2.8-1.5v-2.9l-2.8,1.5V115.4z"/>
<path class="st27" d="M195.3,108.5c-0.3-0.2-0.7-0.2-1.1-0.2c-0.4,0-0.8,0.1-1.1,0.2c-0.1,0-0.2,0.1-0.3,0.2
	c-0.1,0.1-0.1,0.2-0.1,0.4c0,0.1,0,0.3,0.1,0.4c0.1,0.1,0.2,0.2,0.3,0.2c0.3,0.2,0.7,0.2,1.1,0.2c0.4,0,0.8-0.1,1.1-0.2
	c0.1,0,0.2-0.1,0.3-0.2c0.1-0.1,0.1-0.2,0.1-0.4c0-0.1,0-0.3-0.1-0.4C195.6,108.6,195.4,108.5,195.3,108.5z"/>
<path class="st22" d="M193.1,108.5c-0.4,0.2,1,0.5,1,0.5S193.5,108.3,193.1,108.5z"/>
<path class="st22" d="M194.2,108.2c-0.5,0,0,0.8,0,0.8S194.7,108.2,194.2,108.2z"/>
<path class="st22" d="M195.3,108.5c-0.4-0.2-1,0.5-1,0.5S195.7,108.7,195.3,108.5z"/>
<path class="st22" d="M194.3,109.1c0,0,1.4,0.3,1.4,0C195.7,108.8,194.3,109.1,194.3,109.1z"/>
<path class="st22" d="M194.3,109.1c0,0,0.6,0.7,1,0.5C195.7,109.4,194.3,109.1,194.3,109.1z"/>
<path class="st22" d="M194.2,109.9c0.5,0,0-0.8,0-0.8S193.7,109.9,194.2,109.9z"/>
<path class="st22" d="M193.1,109.6c0.4,0.2,1-0.5,1-0.5S192.7,109.4,193.1,109.6z"/>
<path class="st22" d="M192.7,109.1c0,0.3,1.4,0,1.4,0S192.7,108.8,192.7,109.1z"/>
<path class="st28" d="M194.2,109.3c0.2,0,0.4-0.1,0.4-0.2c0-0.1-0.2-0.2-0.4-0.2c-0.2,0-0.4,0.1-0.4,0.2
	C193.8,109.2,194,109.3,194.2,109.3z"/>
<path class="st29" d="M194.4,109c-0.1,0-0.1,0-0.2,0c-0.1,0-0.1,0-0.2,0c0,0,0,0-0.1,0s0,0,0,0.1c0,0,0,0,0,0.1c0,0,0,0,0.1,0
	c0.1,0,0.1,0,0.2,0c0.1,0,0.1,0,0.2,0c0,0,0,0,0.1,0C194.5,109.1,194.5,109.1,194.4,109C194.5,109.1,194.5,109,194.4,109
	C194.4,109,194.4,109,194.4,109z"/>
<path class="st9" d="M194.1,109C194.1,109,194.1,109,194.1,109C194.2,109,194.2,109,194.1,109C194.2,109,194.2,109,194.1,109
	C194.2,109,194.2,109,194.1,109C194.2,108.9,194.2,108.9,194.1,109C194.2,108.9,194.2,108.9,194.1,109z"/>
<path class="st27" d="M198.5,110.1c-0.3-0.2-0.7-0.2-1.1-0.2c-0.4,0-0.8,0.1-1.1,0.2c-0.1,0-0.3,0.1-0.3,0.2
	c-0.1,0.1-0.1,0.2-0.1,0.4c0,0.1,0,0.3,0.1,0.4c0.1,0.1,0.2,0.2,0.3,0.2c0.3,0.2,0.7,0.2,1.1,0.2c0.4,0,0.8-0.1,1.1-0.2
	c0.1,0,0.3-0.1,0.3-0.2c0.1-0.1,0.1-0.2,0.1-0.4c0-0.1,0-0.3-0.1-0.4C198.8,110.3,198.7,110.2,198.5,110.1z"/>
<path class="st22" d="M196.4,110.1c-0.4,0.2,1,0.5,1,0.5S196.7,109.9,196.4,110.1z"/>
<path class="st22" d="M197.4,109.9c-0.5,0,0,0.8,0,0.8S198,109.9,197.4,109.9z"/>
<path class="st22" d="M198.5,110.1c-0.4-0.2-1,0.5-1,0.5S198.9,110.3,198.5,110.1z"/>
<path class="st22" d="M197.6,110.7c0,0,1.4,0.3,1.4,0C199,110.4,197.6,110.7,197.6,110.7z"/>
<path class="st22" d="M197.5,110.8c0,0,0.6,0.7,1,0.5C198.9,111.1,197.5,110.8,197.5,110.8z"/>
<path class="st22" d="M197.5,111.6c0.5,0,0-0.8,0-0.8S196.9,111.6,197.5,111.6z"/>
<path class="st22" d="M196.4,111.3c0.4,0.2,1-0.5,1-0.5S196,111.1,196.4,111.3z"/>
<path class="st22" d="M195.9,110.7c0,0.3,1.4,0,1.4,0S195.9,110.4,195.9,110.7z"/>
<path class="st28" d="M197.5,110.9c0.2,0,0.4-0.1,0.4-0.2s-0.2-0.2-0.4-0.2c-0.2,0-0.4,0.1-0.4,0.2S197.2,110.9,197.5,110.9z"/>
<path class="st29" d="M197.6,110.6c-0.1,0-0.1,0-0.2,0c-0.1,0-0.1,0-0.2,0c0,0,0,0-0.1,0c0,0,0,0,0,0.1c0,0,0,0,0,0.1c0,0,0,0,0.1,0
	c0.1,0,0.1,0,0.2,0c0.1,0,0.1,0,0.2,0c0,0,0,0,0.1,0C197.7,110.8,197.7,110.8,197.6,110.6C197.7,110.7,197.7,110.7,197.6,110.6
	C197.7,110.7,197.7,110.6,197.6,110.6z"/>
<path class="st9" d="M197.4,110.6C197.4,110.6,197.4,110.6,197.4,110.6C197.4,110.7,197.4,110.7,197.4,110.6
	C197.5,110.7,197.5,110.7,197.4,110.6C197.5,110.7,197.5,110.7,197.4,110.6C197.5,110.6,197.5,110.6,197.4,110.6
	C197.4,110.6,197.4,110.6,197.4,110.6z"/>
<path class="st24" d="M188.3,110.7l6.2,3.3l2.8-1.5l-6.2-3.3L188.3,110.7z"/>
<path class="st25" d="M188.3,113.6l6.2,3.3V114l-6.2-3.3V113.6z"/>
<path class="st26" d="M194.5,116.9l2.8-1.5v-3l-2.8,1.5V116.9z"/>
<path class="st27" d="M191.1,111.5c0.9,0,1.6-0.4,1.6-0.8s-0.7-0.8-1.6-0.8c-0.9,0-1.6,0.4-1.6,0.8S190.3,111.5,191.1,111.5z"/>
<path class="st22" d="M190,110.1c-0.4,0.2,1,0.5,1,0.5S190.4,109.9,190,110.1z"/>
<path class="st22" d="M191.1,109.8c-0.5,0,0,0.8,0,0.8S191.6,109.8,191.1,109.8z"/>
<path class="st22" d="M192.2,110.1c-0.4-0.2-1,0.5-1,0.5S192.6,110.3,192.2,110.1z"/>
<path class="st22" d="M191.2,110.7c0,0,1.4,0.3,1.4,0C192.6,110.4,191.2,110.7,191.2,110.7z"/>
<path class="st22" d="M191.2,110.7c0,0,0.6,0.7,1,0.5C192.6,111,191.2,110.7,191.2,110.7z"/>
<path class="st22" d="M191.1,111.5c0.5,0,0-0.8,0-0.8S190.6,111.5,191.1,111.5z"/>
<path class="st22" d="M190,111.2c0.4,0.2,1-0.5,1-0.5S189.6,111,190,111.2z"/>
<path class="st22" d="M189.6,110.7c0,0.3,1.4,0,1.4,0S189.6,110.4,189.6,110.7z"/>
<path class="st28" d="M191.1,110.9c0.2,0,0.4-0.1,0.4-0.2c0-0.1-0.2-0.2-0.4-0.2c-0.2,0-0.4,0.1-0.4,0.2
	C190.7,110.8,190.9,110.9,191.1,110.9z"/>
<path class="st29" d="M191.1,110.8c0.1,0,0.3-0.1,0.3-0.1s-0.1-0.1-0.3-0.1s-0.3,0.1-0.3,0.1S191,110.8,191.1,110.8z"/>
<path class="st9" d="M191,110.5C191,110.5,191,110.5,191,110.5C191,110.6,191.1,110.6,191,110.5C191.1,110.6,191.1,110.6,191,110.5
	C191.1,110.6,191.1,110.6,191,110.5C191.1,110.5,191.1,110.5,191,110.5C191.1,110.5,191,110.5,191,110.5z"/>
<path class="st27" d="M195.4,111.7c-0.3-0.2-0.7-0.2-1.1-0.2c-0.4,0-0.8,0.1-1.1,0.2c-0.1,0-0.2,0.1-0.3,0.2
	c-0.1,0.1-0.1,0.2-0.1,0.4c0,0.1,0,0.3,0.1,0.4c0.1,0.1,0.2,0.2,0.3,0.2c0.3,0.2,0.7,0.2,1.1,0.2c0.4,0,0.8-0.1,1.1-0.2
	c0.1,0,0.2-0.1,0.3-0.2c0.1-0.1,0.1-0.2,0.1-0.4c0-0.1,0-0.3-0.1-0.4C195.7,111.9,195.6,111.8,195.4,111.7z"/>
<path class="st22" d="M193.3,111.7c-0.4,0.2,1,0.5,1,0.5S193.6,111.5,193.3,111.7z"/>
<path class="st22" d="M194.3,111.5c-0.5,0,0,0.8,0,0.8S194.9,111.5,194.3,111.5z"/>
<path class="st22" d="M195.4,111.7c-0.4-0.2-1,0.5-1,0.5S195.8,111.9,195.4,111.7z"/>
<path class="st22" d="M194.5,112.3c0,0,1.4,0.3,1.4,0C195.9,112,194.5,112.3,194.5,112.3z"/>
<path class="st22" d="M194.4,112.4c0,0,0.6,0.7,1,0.5C195.8,112.7,194.4,112.4,194.4,112.4z"/>
<path class="st22" d="M194.3,113.1c0.5,0,0-0.8,0-0.8S193.8,113.1,194.3,113.1z"/>
<path class="st22" d="M193.3,112.9c0.4,0.2,1-0.5,1-0.5S192.9,112.7,193.3,112.9z"/>
<path class="st22" d="M192.8,112.3c0,0.3,1.5,0,1.5,0S192.8,112,192.8,112.3z"/>
<path class="st28" d="M194.3,112.5c0.2,0,0.4-0.1,0.4-0.2c0-0.1-0.2-0.2-0.4-0.2c-0.2,0-0.4,0.1-0.4,0.2
	C194,112.4,194.1,112.5,194.3,112.5z"/>
<path class="st29" d="M194.5,112.2c-0.1,0-0.1,0-0.2,0c-0.1,0-0.1,0-0.2,0c-0.1,0.1-0.1,0.1,0,0.2c0.1,0,0.1,0,0.2,0
	c0.1,0,0.1,0,0.2,0C194.6,112.4,194.6,112.3,194.5,112.2z"/>
<path class="st9" d="M194.3,112.2L194.3,112.2L194.3,112.2L194.3,112.2C194.3,112.2,194.3,112.2,194.3,112.2
	C194.3,112.2,194.3,112.2,194.3,112.2z"/>
<path class="st19" d="M191.3,239.7l-13.5-7.2l5.7-3.1l13.5,7.2L191.3,239.7z"/>
<path class="st20" d="M191.3,241.1l-13.5-7.2v-1.3l13.5,7.2V241.1z"/>
<path class="st30" d="M197,237.9l-5.7,3.1v-1.3l5.7-3.1V237.9z"/>
<path class="st31" d="M190.8,219.6v12.9l-5.8-3.1v-12.9L190.8,219.6z"/>
<path class="st25" d="M190.3,225.7v0.4l-4.9-2.6v-5.9l0.4,0.2v5.6L190.3,225.7z"/>
<path class="st32" d="M190.3,220.2v5.6l-4.5-2.4v-5.6L190.3,220.2z"/>
<path class="st33" d="M189.9,219.9l-1.3-0.7l-2.4,4.3l1.1,0.6L189.9,219.9z"/>
<path class="st33" d="M190.3,222.2V221l-2.1,3.6l0.5,0.3L190.3,222.2z"/>
<path class="st25" d="M190.3,231v0.4l-4.9-2.6v-4.6l0.4,0.2v4.3L190.3,231z"/>
<path class="st32" d="M190.3,226.7v4.3l-4.5-2.4v-4.3L190.3,226.7z"/>
<path class="st33" d="M189.2,226.1l-1.3-0.7l-1.8,3.3l1.1,0.6L189.2,226.1z"/>
<path class="st33" d="M190.3,227.4v-0.7l-0.2-0.1l-1.9,3.3l0.5,0.2L190.3,227.4z"/>
<path class="st34" d="M196.5,235.5v0.6l-12-6.4v-13.5l0.5,0.3v12.9L196.5,235.5z"/>
<path class="st31" d="M196.5,222.6v12.9l-5.7-3.1v-12.9L196.5,222.6z"/>
<path class="st35" d="M190.6,219.5v12.9l0.2,0.1v-12.9L190.6,219.5z"/>
<path class="st25" d="M196,228.8v0.4l-4.9-2.6v-5.9l0.4,0.2v5.6L196,228.8z"/>
<path class="st32" d="M196,223.2v5.6l-4.5-2.4v-5.6L196,223.2z"/>
<path class="st33" d="M195.6,223l-1.3-0.7l-2.4,4.3l1.1,0.6L195.6,223z"/>
<path class="st33" d="M196,225.3v-1.2l-2.1,3.6l0.5,0.3L196,225.3z"/>
<path class="st25" d="M196,234v0.4l-4.9-2.6v-4.6l0.4,0.2v4.3L196,234z"/>
<path class="st32" d="M196,229.8v4.3l-4.5-2.4v-4.3L196,229.8z"/>
<path class="st33" d="M195,229.2l-1.3-0.7l-1.8,3.3l1.1,0.6L195,229.2z"/>
<path class="st33" d="M196,230.5v-0.7l-0.2-0.1L194,233l0.5,0.2L196,230.5z"/>
<path class="st36" d="M191.3,227c0,0.1,0,0.2-0.1,0.2c-0.1,0.1-0.2,0.1-0.3,0.1c0,0-0.1,0-0.1,0c0,0-0.1,0-0.1-0.1s-0.1-0.1-0.1-0.1
	c0,0,0-0.1,0-0.1c0,0,0-0.1,0-0.1c0,0,0-0.1,0.1-0.1c0,0,0.1-0.1,0.1-0.1c0,0,0.1,0,0.1,0c0.1,0,0.2,0,0.3,0.1
	C191.3,226.8,191.3,226.9,191.3,227z"/>
<path class="st37" d="M191.2,226.7c0,0,0,0.1,0,0.1c0,0-0.1,0-0.1,0s0-0.1,0-0.1C191.1,226.7,191.2,226.7,191.2,226.7z"/>
<path class="st36" d="M190.5,226.6c0,0,0,0.1,0,0.1c0,0,0,0.1-0.1,0.1c0,0-0.1,0.1-0.1,0.1c0,0-0.1,0-0.1,0c-0.1,0-0.2,0-0.3-0.1
	c-0.1-0.1-0.1-0.2-0.1-0.2c0,0,0-0.1,0-0.1c0,0,0-0.1,0.1-0.1c0,0,0.1-0.1,0.1-0.1c0,0,0.1,0,0.1,0s0.1,0,0.1,0s0.1,0,0.1,0.1
	c0,0,0.1,0.1,0.1,0.1C190.5,226.5,190.5,226.5,190.5,226.6z"/>
<path class="st37" d="M190.4,226.4c0,0,0,0.1,0,0.1c0,0-0.1,0-0.1,0c0,0,0-0.1,0-0.1C190.3,226.3,190.3,226.3,190.4,226.4z"/>
<path class="st17" d="M263.9,190.2c-20.3,0-48.5-7.6-72.9-20.6c-23.9-12.8-38.8-27.9-38.8-39.3c0-1.3,0.2-2.6,0.6-3.8v3.8
	c0,10.9,15.6,25.9,38.8,38.3c33.9,18.1,75,25.7,91.6,16.8l21.6-11.6l0,1.4l-20.9,11.2C279,189,272.1,190.2,263.9,190.2z"/>
<path class="st17" d="M263.9,201.8c-20.3,0-48.5-7.6-72.9-20.6c-23.9-12.8-38.8-27.9-38.8-39.3c0-1.3,0.2-2.6,0.6-3.8v3.8
	c0,10.9,15.6,25.9,38.8,38.3c33.9,18.1,75,25.7,91.6,16.8l21.6-11.6l0,1.4l-20.9,11.2C279,200.6,272.1,201.8,263.9,201.8z"/>
<path class="st17" d="M263.9,213.4c-20.3,0-48.5-7.6-72.9-20.7c-23.9-12.8-38.8-27.9-38.8-39.3c0-1.3,0.2-2.6,0.6-3.8v3.8
	c0,10.9,15.6,25.9,38.8,38.3c33.9,18.1,75,25.7,91.6,16.8l21.6-11.6l0,1.4l-20.9,11.2C279,212.2,272.1,213.4,263.9,213.4z"/>
<path class="st17" d="M263.9,225c-20.3,0-48.5-7.6-72.9-20.7c-23.9-12.8-38.8-27.9-38.8-39.3c0-1.3,0.2-2.6,0.6-3.8v3.8
	c0,10.9,15.6,25.9,38.8,38.3c33.9,18.1,75,25.7,91.6,16.8l21.6-11.6l0,1.4l-20.9,11.2C279,223.8,272.1,225,263.9,225z"/>
<path class="st38" d="M235.4,132.7l-10.1-5.4l10.1-5.4l10.1,5.4L235.4,132.7z"/>
<path class="st39" d="M235.6,131l-7.4-4l7.4-4l7.4,4L235.6,131z"/>
<path class="st40" d="M245.5,141.2l-10.1,5.4v-13.9l10.1-5.4V141.2z"/>
<path class="st41" d="M225.4,141.2l10.1,5.4v-13.9l-10.1-5.4V141.2z"/>
<path class="st42" d="M235.6,102.4l-1.6-0.9l1.6-0.9l1.6,0.9L235.6,102.4z"/>
<path class="st43" d="M235.6,129.9l-5-2.7l3.4-25.7l1.6,0.9V129.9z"/>
<path class="st44" d="M240.6,127.2l-5,2.7v-27.5l1.6-0.9L240.6,127.2z"/>
<path class="st45" d="M236.2,105c-6.5,5.7-15.1,7.5-21.9,5.3c-2.3-0.7,21.7-34.2,24.7-31.6l0.5,0.5C246.2,85.9,244.8,97.5,236.2,105
	z"/>
<path class="st46" d="M222.6,109.8c-9,3.1-14.9-1.5-13.4-10.2c1.6-8.7,10.1-18.4,19.1-21.5c9-3.1,14.9,1.4,13.4,10.2
	C240.1,97.1,231.5,106.7,222.6,109.8z"/>
<path class="st47" d="M229.1,103.5c-3.4,1.2-5.7-0.6-5.1-3.9c0.4-1.8,1.3-3.5,2.6-4.9c1.3-1.4,2.9-2.6,4.7-3.3
	c3.4-1.2,5.7,0.6,5.1,3.9c-0.4,1.8-1.3,3.5-2.6,4.9C232.6,101.6,231,102.7,229.1,103.5z"/>
<path class="st30" d="M230,99c0.4-0.2,0.8-0.5,1.1-0.8c0.3-0.3,0.5-0.8,0.6-1.2c0.1-0.2,0.1-0.4,0-0.5c-0.1-0.2-0.2-0.3-0.4-0.4
	l-11.8-7.7l-1.1,1.4l10.4,9.1c0,0.1,0.1,0.1,0.2,0.1c0.1,0.1,0.3,0.1,0.5,0.1C229.6,99.1,229.8,99.1,230,99z"/>
<path class="st47" d="M218.9,89.8c-0.4,0.1-0.7-0.1-0.6-0.4c0.1-0.2,0.2-0.4,0.3-0.6c0.1-0.2,0.3-0.3,0.5-0.4
	c0.4-0.1,0.7,0.1,0.6,0.4c-0.1,0.2-0.2,0.4-0.3,0.6C219.3,89.6,219.1,89.7,218.9,89.8z"/>
<path class="st48" d="M237.2,118.4c2,5.3,6.6,9,11.4,9.6c1.6,0.2-1.5-27-4.2-26.3c-0.2,0-0.3,0.1-0.5,0.1
	C237.6,103.9,234.6,111.3,237.2,118.4z"/>
<path class="st26" d="M243.8,125.3c4.4,4.5,9.5,3.5,11.6-2.3c2-5.8,0.1-14.1-4.2-18.6c-4.4-4.5-9.5-3.5-11.6,2.3
	C237.5,112.5,239.4,120.8,243.8,125.3z"/>
<path class="st35" d="M242,119.5c1.7,1.7,3.7,1.4,4.4-0.9c0.4-1.2,0.4-2.5,0.1-3.7c-0.3-1.2-0.9-2.4-1.7-3.4
	c-1.7-1.7-3.7-1.4-4.4,0.9c-0.4,1.2-0.4,2.5-0.1,3.7C240.5,117.4,241.1,118.5,242,119.5z"/>
<path class="st30" d="M243,116.6c-0.2-0.2-0.3-0.5-0.4-0.8c-0.1-0.3-0.1-0.6,0-0.9c0-0.1,0.1-0.2,0.2-0.3c0.1-0.1,0.2-0.1,0.3-0.1
	l9.8-1.2l0.2,1.1l-9.4,2.5c0,0-0.1,0-0.2,0c-0.1,0-0.2,0-0.3-0.1C243.1,116.8,243.1,116.7,243,116.6z"/>
<path class="st49" d="M252.8,114.2c0.2,0.2,0.4,0.1,0.5-0.1c0-0.1,0-0.3,0-0.4c0-0.1-0.1-0.3-0.2-0.4c-0.2-0.2-0.4-0.2-0.5,0.1
	c0,0.1,0,0.3,0,0.4C252.7,114,252.7,114.1,252.8,114.2z"/>
<path class="st48" d="M234.8,120.7c-0.2,3.5-2.2,6.3-5,7.5c-0.9,0.4-4-16.2-2.3-16.2h0.3C231.9,112.2,235.1,116.1,234.8,120.7z"/>
<path class="st26" d="M232.2,125.8c-1.8,3.3-5,3.5-7.2,0.5c-2.2-3.1-2.6-8.3-0.9-11.6c1.8-3.3,5-3.5,7.2-0.5
	C233.5,117.2,233.9,122.4,232.2,125.8z"/>
<path class="st35" d="M232.2,122.1c-0.7,1.3-1.9,1.4-2.8,0.2c-0.4-0.7-0.7-1.4-0.7-2.2c-0.1-0.8,0.1-1.5,0.4-2.3
	c0.7-1.3,1.9-1.4,2.8-0.2c0.4,0.7,0.7,1.4,0.7,2.2C232.7,120.6,232.5,121.4,232.2,122.1z"/>
<path class="st30" d="M231.1,120.5c0.1-0.2,0.1-0.4,0.1-0.5c0-0.2-0.1-0.4-0.2-0.5c0-0.1-0.1-0.1-0.2-0.2c-0.1,0-0.2,0-0.2,0l-6,0.8
	l0.1,0.7h6c0,0,0.1,0,0.1,0c0.1,0,0.1,0,0.2-0.1C231,120.6,231,120.6,231.1,120.5z"/>
<path class="st49" d="M224.8,120.6c-0.1,0.2-0.2,0.2-0.3,0c-0.1-0.1-0.1-0.2-0.1-0.3c0-0.1,0-0.2,0-0.3c0,0,0-0.1,0.1-0.1
	s0.1,0,0.1,0c0,0,0.1,0,0.1,0s0.1,0,0.1,0.1c0.1,0.1,0.1,0.2,0.1,0.3C224.9,120.5,224.9,120.6,224.8,120.6z"/>
<path class="st50" d="M383.3,491.2h-324c-12.2,0-22,8.2-22,18.4v131.3c0,10.1,9.8,18.4,22,18.4h324c12.2,0,22-8.2,22-18.4V509.6
	C405.3,499.4,395.4,491.2,383.3,491.2z"/>
<path class="st51" d="M197.2,523.2H65c-8.7,0-15.7,5.9-15.7,13.1v99.5c0,7.2,7,13.1,15.7,13.1h132.2c8.7,0,15.7-5.9,15.7-13.1v-99.5
	C212.9,529.1,205.9,523.2,197.2,523.2z"/>
<rect x="101.3" y="534.2" class="st0" width="76.4" height="111.7"/>
<path class="st52" d="M121.6,634.6c2.6,0,4.7-0.4,4.7-0.9c0-0.5-2.1-0.9-4.7-0.9c-2.6,0-4.7,0.4-4.7,0.9
	C116.9,634.2,119,634.6,121.6,634.6z"/>
<path class="st53" d="M116.4,638.2c6,0,10.9-2.2,10.9-4.8s-4.9-4.8-10.9-4.8c-6,0-10.9,2.2-10.9,4.8S110.4,638.2,116.4,638.2z"/>
<path class="st54" d="M113.7,549.3h8.4v84.6v1.3l0,0l0,0l0,0l0,0l0,0l0,0l0,0l-0.1,0.1l0,0h0l0,0l0,0l0,0l0,0h0l-0.1,0l0,0l0,0l0,0
	h0l-0.1,0l0,0l-0.1,0l0,0l0,0l-0.1,0h0l-0.1,0l0,0l0,0l-0.1,0l-0.1,0l0,0l0,0l-0.1,0h0l-0.1,0l0,0l-0.1,0l0,0l0,0l-0.1,0l-0.1,0l0,0
	l0,0l-0.1,0l-0.1,0l0,0l0,0l-0.1,0l0,0l-0.1,0h0l-0.1,0l-0.1,0h0l-0.1,0h0l-0.1,0l0,0l0,0l-0.1,0l-0.1,0l0,0l0,0l-0.1,0h0l-0.1,0h0
	l-0.1,0l-0.1,0l0,0l-0.1,0h0l-0.1,0l-0.1,0h0l-0.1,0l0,0l-0.1,0h0l0,0h-0.1h0l-0.1,0l0,0H118H118h0l-0.1,0h0l-0.1,0h0h-0.1h0h-0.1
	l0,0h0h-0.1h-0.1h-0.1h0h0l-0.1,0h0h0h-0.1h0h0l-0.1,0h-0.1h0h-0.1l-0.1,0h0h0h-0.1h0l0,0h-0.1l0,0h0h-0.1l0,0h0l-0.1,0H116l-0.1,0
	l-0.1,0l-0.1,0h-0.1l0,0h0l-0.1,0l0,0h0l-0.1,0l-0.1,0h0l-0.1,0l-0.1,0h0l0,0l-0.1,0h0l0,0l0,0l0,0h0l-0.1,0l-0.1,0l-0.1,0l-0.1,0
	l0,0l-0.1,0h0l0,0l0,0l0,0h0l0,0l-0.1,0l0,0l-0.1,0l0,0l0,0l-0.1,0l0,0L114,636l0,0h0l0,0l0,0l0,0l0,0l0,0l0,0v-2V549.3z"/>
<path class="st55" d="M113.7,549.3h8.4v0.7c-1.2,0.9-2.7,1.3-4.2,1.3c-1.5,0-3-0.5-4.2-1.3V549.3z"/>
<path class="st56" d="M117.9,549.3h-4.2v84.6v1.3l0,0l0,0l0,0l0,0l0,0h0l0,0l0,0l0,0l0,0l0,0l0,0l0,0l0,0l0,0l0,0l0,0l0,0h0l0.1,0
	l0,0l0,0l0.1,0l0.1,0l0,0l0,0l0.1,0l0,0l0,0l0,0h0l0.1,0l0,0l0,0l0.1,0l0.1,0l0,0l0,0l0.1,0h0l0,0l0.1,0l0,0l0.1,0l0,0l0,0l0.1,0h0
	l0.1,0l0,0l0,0l0.1,0l0,0l0.1,0l0.1,0l0,0l0.1,0h0l0,0l0.1,0l0.1,0h0l0,0l0.1,0h0l0.1,0l0.1,0h0l0.1,0l0,0l0,0l0.1,0l0.1,0l0,0l0,0
	l0.1,0h0l0.1,0l0.1,0l0,0l0.1,0l0.1,0l0.1,0l0.1,0h0.1l0.1,0h0l0.1,0l0.1,0h0h0.1h0l0,0v-2.6V549.3z"/>
<path class="st57" d="M117.9,549.3h-4.2v0.7c1.2,0.9,2.7,1.3,4.2,1.3V549.3z"/>
<path class="st54" d="M117.9,537.9c1.4,0,2.7,0.4,3.8,1.1c1.1,0.7,2,1.7,2.5,2.9c0.5,1.2,0.7,2.5,0.4,3.7c-0.3,1.2-0.9,2.4-1.9,3.3
	c-1,0.9-2.2,1.5-3.5,1.8c-1.3,0.2-2.7,0.1-4-0.4c-1.3-0.5-2.3-1.3-3.1-2.4c-0.8-1.1-1.2-2.3-1.2-3.6c0-1.7,0.7-3.3,2-4.5
	C114.3,538.5,116.1,537.9,117.9,537.9z"/>
<path class="st56" d="M114.5,549.9c-0.8-0.4-1.5-1-2.1-1.6c-0.6-0.7-1-1.4-1.3-2.3c-0.3-0.8-0.3-1.7-0.2-2.5
	c0.1-0.9,0.4-1.7,0.9-2.4c0.5-0.7,1.1-1.4,1.8-1.9s1.6-0.9,2.5-1.1c0.9-0.2,1.8-0.2,2.7-0.1c0.9,0.1,1.8,0.4,2.6,0.9L114.5,549.9z"
	/>
<path class="st57" d="M124.8,544.3c-0.1,1.7-0.8,3.2-2.1,4.4c-1.3,1.2-3,1.8-4.8,1.8c-1.8,0-3.5-0.6-4.8-1.8c-1.3-1.2-2-2.7-2.1-4.4
	c0,4.6,6.3,5,6.9,5C120.2,549.3,124.8,548.5,124.8,544.3z"/>
<path class="st58" d="M111,544.3c0,1.7,0.7,3.3,2,4.5c1.3,1.2,3,1.9,4.9,1.9v-1.4C115.6,549.3,111,548,111,544.3z"/>
<path class="st59" d="M113.7,550.7c1.3,0.6,2.8,1,4.2,1c1.5,0,2.9-0.3,4.2-1h48l-6.3,18.8l6.3,18.8h-48c-1.3,0.6-2.8,1-4.2,1
	c-1.5-0.1-2.9-0.4-4.2-1L113.7,550.7z"/>
<path class="st60" d="M117.9,551.7c1.5,0,2.9-0.3,4.2-1v37.6c-1.3,0.6-2.8,1-4.2,1V551.7z"/>
<path class="st60" d="M155.4,550.7h14.7l-6.3,18.8l6.3,18.8h-33.6L155.4,550.7z"/>
<path class="st61" d="M125.5,579.7v-4.1h2.8v-12.3h-2.5V559h7.8v16.5h2.8v4.1H125.5z M139.5,579.7V559h5.1l5.3,12.5l5.3-12.5h5.1
	v20.6h-4.9v-11.3l-4.3,10.4h-2.5l-4.3-10.4v11.3H139.5z"/>
<path class="st62" d="M125.5,579.7L125.5,579.7L125.5,579.7L125.5,579.7L125.5,579.7z M125.5,575.5v-0.1h-0.1L125.5,575.5
	L125.5,575.5z M128.4,575.5L128.4,575.5l0.1,0.1v-0.1H128.4z M128.4,563.2h0.1v-0.1h-0.1V563.2z M125.8,563.2L125.8,563.2
	L125.8,563.2L125.8,563.2L125.8,563.2z M125.8,559v-0.1h-0.1L125.8,559L125.8,559z M133.6,559h0.1v-0.1h-0.1V559z M133.6,575.5
	L133.6,575.5L133.6,575.5L133.6,575.5L133.6,575.5z M136.4,575.5h0.1v-0.1h-0.1V575.5z M136.4,579.7L136.4,579.7l0.1,0.1v-0.1H136.4
	z M125.6,579.7v-4.1h-0.2v4.1H125.6z M125.5,575.6h2.8v-0.2h-2.8V575.6z M128.5,575.5v-12.3h-0.2v12.3H128.5z M128.4,563.1h-2.5v0.2
	h2.5V563.1z M125.9,563.2V559h-0.2v4.2H125.9z M125.8,559.1h7.8v-0.2h-7.8V559.1z M133.5,559v16.5h0.2V559H133.5z M133.6,575.6h2.8
	v-0.2h-2.8V575.6z M136.3,575.5v4.1h0.2v-4.1H136.3z M136.4,579.6h-10.9v0.2h10.9V579.6z M139.5,579.7L139.5,579.7L139.5,579.7
	L139.5,579.7L139.5,579.7z M139.5,559v-0.1h-0.1L139.5,559L139.5,559z M144.6,559L144.6,559l0.1-0.1h-0.1V559z M149.9,571.6
	L149.9,571.6v0.3V571.6L149.9,571.6z M155.2,559v-0.1h-0.1L155.2,559L155.2,559z M160.3,559h0.1v-0.1h-0.1V559z M160.3,579.7
	L160.3,579.7l0.1,0.1v-0.1H160.3z M155.5,579.7h-0.1v0.1L155.5,579.7L155.5,579.7z M155.5,568.3L155.5,568.3L155.5,568.3
	L155.5,568.3z M151.2,578.8L151.2,578.8L151.2,578.8L151.2,578.8L151.2,578.8z M148.7,578.8L148.7,578.8L148.7,578.8L148.7,578.8
	L148.7,578.8z M144.3,568.3L144.3,568.3h-0.1H144.3z M144.3,579.7L144.3,579.7L144.3,579.7L144.3,579.7L144.3,579.7z M139.6,579.7
	V559h-0.2v20.6H139.6z M139.5,559.1h5.1v-0.2h-5.1V559.1z M144.5,559.1l5.3,12.5l0.2-0.1l-5.3-12.5L144.5,559.1z M150,571.6
	l5.3-12.5l-0.2-0.1l-5.3,12.5L150,571.6z M155.2,559.1h5.1v-0.2h-5.1V559.1z M160.2,559v20.6h0.2V559H160.2z M160.3,579.6h-4.9v0.2
	h4.9V579.6z M155.6,579.7v-11.3h-0.2v11.3H155.6z M155.4,568.3l-4.3,10.4l0.2,0.1l4.3-10.4L155.4,568.3z M151.2,578.7h-2.5v0.2h2.5
	V578.7z M148.8,578.8l-4.3-10.4l-0.2,0.1l4.3,10.4L148.8,578.8z M144.2,568.3v11.3h0.2v-11.3H144.2z M144.3,579.6h-4.9v0.2h4.9
	V579.6z"/>
<path class="st63" d="M93,502.2c0.2,0,0.4,0.1,0.5,0.2c0.1,0.1,0.2,0.2,0.2,0.4l3.5,10.1c0,0.1,0.1,0.2,0.1,0.2c0,0.1,0,0.2-0.1,0.3
	c-0.1,0.1-0.1,0.1-0.2,0.1h-2c-0.2,0-0.4,0-0.5-0.1c-0.1-0.1-0.1-0.2-0.2-0.3l-0.4-1.3h-4.3l-0.4,1.3c0,0.1-0.1,0.2-0.2,0.3
	c-0.1,0.1-0.2,0.1-0.4,0.1h-2c-0.1,0-0.2,0-0.3-0.1c-0.1-0.1-0.1-0.2-0.1-0.3c0-0.1,0-0.1,0.1-0.2l3.5-10.1c0-0.1,0.1-0.2,0.2-0.4
	c0.1-0.1,0.3-0.2,0.5-0.2H93z M90.4,509.2H93l-1.3-3.8L90.4,509.2z M103.2,502.2c0.7,0,1.4,0.1,2,0.3c0.6,0.2,1.1,0.5,1.6,0.9
	c0.4,0.4,0.8,0.9,1,1.4c0.3,0.5,0.4,1.1,0.4,1.8c0,0.2,0,0.4,0,0.6c0,0.2,0,0.4,0,0.5c0,0.2,0,0.3,0,0.5c0,0.2,0,0.4,0,0.6
	c0,0.7-0.2,1.3-0.4,1.8c-0.2,0.5-0.6,1-1,1.4c-0.4,0.4-0.9,0.7-1.5,0.9c-0.6,0.2-1.3,0.3-2,0.3H99c-0.1,0-0.2,0-0.3-0.1
	c-0.1-0.1-0.1-0.2-0.1-0.3v-10.3c0-0.1,0-0.2,0.1-0.3c0.1-0.1,0.2-0.1,0.3-0.1H103.2z M105.3,506.6c-0.1-1.2-0.8-1.8-2.2-1.8h-1.6
	v6.1h1.7c1.3,0,2-0.6,2.1-1.8c0-0.2,0-0.4,0-0.6c0-0.2,0-0.4,0-0.6c0-0.2,0-0.4,0-0.6C105.3,507,105.3,506.8,105.3,506.6z
	 M117.6,502c0.7,0,1.3,0.1,1.9,0.3c0.6,0.2,1.1,0.4,1.5,0.8c0.4,0.3,0.7,0.7,1,1c0.2,0.4,0.4,0.7,0.4,1.1c0,0.1,0,0.2-0.1,0.3
	c-0.1,0.1-0.1,0.1-0.2,0.1h-2.1c-0.1,0-0.3,0-0.4-0.1c-0.1,0-0.2-0.1-0.3-0.2c0,0-0.1-0.1-0.2-0.2c-0.1-0.1-0.2-0.1-0.3-0.2
	c-0.1-0.1-0.3-0.2-0.5-0.2c-0.2-0.1-0.4-0.1-0.7-0.1c-0.2,0-0.4,0-0.6,0c-0.2,0-0.3,0.1-0.5,0.1c-0.1,0.1-0.3,0.1-0.4,0.2
	c-0.1,0.1-0.1,0.2-0.1,0.4c0,0.2,0,0.3,0.1,0.4c0.1,0.1,0.3,0.2,0.5,0.3c0.2,0.1,0.6,0.2,1,0.3c0.4,0.1,0.9,0.2,1.5,0.3
	c0.6,0.1,1.1,0.3,1.5,0.4c0.4,0.2,0.8,0.4,1.1,0.7c0.3,0.3,0.5,0.6,0.7,1c0.2,0.4,0.2,0.8,0.2,1.3c0,0.5-0.1,1-0.4,1.5
	c-0.2,0.4-0.6,0.8-1,1.1c-0.4,0.3-1,0.5-1.6,0.7c-0.6,0.2-1.3,0.2-2,0.2c-0.7,0-1.4-0.1-2-0.3c-0.6-0.2-1.1-0.4-1.6-0.8
	c-0.4-0.3-0.8-0.7-1-1.1c-0.2-0.4-0.4-0.8-0.4-1.2c0-0.1,0-0.2,0.1-0.2c0.1-0.1,0.2-0.1,0.2-0.1h2.1c0.2,0,0.3,0,0.4,0.1
	c0.1,0,0.2,0.1,0.3,0.2c0,0,0.1,0.1,0.2,0.2c0.1,0.1,0.2,0.2,0.3,0.3c0.1,0.1,0.3,0.2,0.5,0.3c0.2,0.1,0.5,0.1,0.8,0.1
	c0.6,0,1-0.1,1.4-0.2c0.4-0.1,0.6-0.4,0.6-0.7c0-0.2-0.1-0.3-0.2-0.4c-0.1-0.1-0.3-0.2-0.6-0.3c-0.3-0.1-0.6-0.2-1.1-0.3
	c-0.4-0.1-0.9-0.2-1.5-0.3c-1.1-0.2-1.9-0.6-2.4-1.2c-0.5-0.6-0.8-1.3-0.8-2.2c0-0.5,0.1-0.9,0.3-1.3c0.2-0.4,0.5-0.8,0.9-1.1
	c0.4-0.3,0.9-0.6,1.4-0.8C116.3,502.1,116.9,502,117.6,502z M129.3,502.2c0.7,0,1.3,0.1,1.8,0.2c0.5,0.1,1,0.4,1.4,0.7
	c0.4,0.3,0.7,0.7,0.9,1.2c0.2,0.5,0.3,1,0.3,1.6c0,0.6-0.1,1.2-0.3,1.6c-0.2,0.5-0.5,0.9-0.9,1.2c-0.4,0.3-0.8,0.5-1.4,0.7
	c-0.5,0.2-1.2,0.2-1.8,0.2h-2v3.3c0,0.1,0,0.2-0.1,0.3c-0.1,0.1-0.2,0.1-0.3,0.1h-2.1c-0.1,0-0.2,0-0.3-0.1
	c-0.1-0.1-0.1-0.2-0.1-0.3v-10.3c0-0.1,0-0.2,0.1-0.3c0.1-0.1,0.2-0.1,0.3-0.1H129.3z M127.2,507.2h2c0.4,0,0.8-0.1,1.1-0.3
	c0.3-0.2,0.4-0.5,0.4-1s-0.1-0.8-0.4-1c-0.3-0.2-0.7-0.3-1.1-0.3h-2V507.2z M143.2,510.8c0.1,0,0.2,0,0.3,0.1
	c0.1,0.1,0.1,0.2,0.1,0.3v1.7c0,0.1,0,0.2-0.1,0.3c-0.1,0.1-0.2,0.1-0.3,0.1h-7.6c-0.1,0-0.2,0-0.3-0.1c-0.1-0.1-0.1-0.2-0.1-0.3
	v-10.3c0-0.1,0-0.2,0.1-0.3c0.1-0.1,0.2-0.1,0.3-0.1h7.5c0.1,0,0.2,0,0.3,0.1c0.1,0.1,0.1,0.2,0.1,0.3v1.7c0,0.1,0,0.2-0.1,0.3
	c-0.1,0.1-0.2,0.1-0.3,0.1h-4.9v1.7h4.6c0.1,0,0.2,0,0.3,0.1c0.1,0.1,0.1,0.2,0.1,0.3v1.7c0,0.1,0,0.2-0.1,0.3
	c-0.1,0.1-0.2,0.1-0.3,0.1h-4.6v1.8H143.2z M152.8,513.4c-0.2,0-0.3,0-0.4-0.1c-0.1-0.1-0.2-0.2-0.2-0.2l-3.7-5.5v5.4
	c0,0.1,0,0.2-0.1,0.3c-0.1,0.1-0.2,0.1-0.3,0.1h-2.1c-0.1,0-0.2,0-0.3-0.1c-0.1-0.1-0.1-0.2-0.1-0.3v-10.3c0-0.1,0-0.2,0.1-0.3
	c0.1-0.1,0.2-0.1,0.3-0.1h1.7c0.2,0,0.3,0,0.4,0.1c0.1,0.1,0.2,0.2,0.2,0.2l3.7,5.5v-5.4c0-0.1,0-0.2,0.1-0.3
	c0.1-0.1,0.2-0.1,0.3-0.1h2.1c0.1,0,0.2,0,0.3,0.1c0.1,0.1,0.1,0.2,0.1,0.3v10.3c0,0.1,0,0.2-0.1,0.3c-0.1,0.1-0.2,0.1-0.3,0.1
	H152.8z M165.3,502.2c0.1,0,0.2,0,0.3,0.1c0.1,0.1,0.1,0.2,0.1,0.3v1.7c0,0.1,0,0.2-0.1,0.3c-0.1,0.1-0.2,0.1-0.3,0.1h-2.8v8.2
	c0,0.1,0,0.2-0.1,0.3c-0.1,0.1-0.2,0.1-0.3,0.1H160c-0.1,0-0.2,0-0.3-0.1c-0.1-0.1-0.1-0.2-0.1-0.3v-8.2h-2.8c-0.1,0-0.2,0-0.3-0.1
	c-0.1-0.1-0.1-0.2-0.1-0.3v-1.7c0-0.1,0-0.2,0.1-0.3c0.1-0.1,0.2-0.1,0.3-0.1H165.3z"/>
<path class="st51" d="M376.2,523.2H244c-8.7,0-15.7,5.9-15.7,13.1v99.5c0,7.2,7,13.1,15.7,13.1h132.2c8.7,0,15.7-5.9,15.7-13.1
	v-99.5C391.9,529.1,384.9,523.2,376.2,523.2z"/>
<rect x="272.3" y="530.2" class="st0" width="76.4" height="111.7"/>
<path class="st52" d="M292.5,630.8c2.6,0,4.7-0.4,4.7-0.9c0-0.5-2.1-0.9-4.7-0.9c-2.6,0-4.7,0.4-4.7,0.9S289.9,630.8,292.5,630.8z"
	/>
<path class="st53" d="M287.3,634.3c6,0,10.9-2.2,10.9-4.8s-4.9-4.8-10.9-4.8c-6,0-10.9,2.2-10.9,4.8S281.3,634.3,287.3,634.3z"/>
<path class="st54" d="M284.6,545.4h8.4V630v1.3l0,0v0l0,0l0,0l0,0l0,0l0,0l0,0l-0.1,0.1l0,0h0l0,0l0,0l0,0l0,0h0l-0.1,0l0,0l0,0l0,0
	l0,0l-0.1,0l0,0l-0.1,0l0,0l0,0l-0.1,0h0l-0.1,0l0,0l0,0l-0.1,0l-0.1,0l0,0l0,0l-0.1,0l0,0l-0.1,0h0l-0.1,0l0,0l0,0l-0.1,0h0l-0.1,0
	l0,0l0,0l-0.1,0l-0.1,0l0,0l0,0l-0.1,0h0l-0.1,0l0,0l-0.1,0l-0.1,0l0,0l-0.1,0h0l-0.1,0l-0.1,0h0l-0.1,0l-0.1,0l0,0l0,0l-0.1,0h0
	l-0.1,0h0l-0.1,0l-0.1,0h0l-0.1,0l0,0h-0.1l-0.1,0l0,0l-0.1,0h0l-0.1,0h0l0,0l-0.1,0h0l-0.1,0h0h-0.1l-0.1,0h0h-0.1l0,0h-0.1h0
	l-0.1,0h0h-0.1h0h0h-0.1h-0.1H288h0H288h-0.1h0l0,0h-0.1h0h0h-0.1h-0.1h0l-0.1,0h-0.1h0l0,0h-0.1h0h0l-0.1,0h0h0l-0.1,0l0,0h0H287
	l-0.1,0l-0.1,0h-0.1l-0.1,0l-0.1,0h0l0,0l-0.1,0h0l0,0l-0.1,0l0,0h-0.1l-0.1,0h0l0,0l-0.1,0h0l0,0l-0.1,0l0,0h0l-0.1,0l-0.1,0
	l-0.1,0l0,0l-0.1,0l-0.1,0h0l0,0l0,0l0,0l0,0l0,0l-0.1,0l0,0l0,0l-0.1,0l0,0l-0.1,0l0,0l-0.2-0.1l0,0l-0.1,0l0,0l0,0l0,0l0,0l0,0v-2
	V545.4z"/>
<path class="st55" d="M284.6,545.4h8.5v0.7c-1.2,0.9-2.7,1.3-4.2,1.3s-3-0.5-4.2-1.3L284.6,545.4z"/>
<path class="st56" d="M288.8,545.4h-4.2V630v1.3l0,0l0,0l0,0l0,0l0,0l0,0l0,0l0,0l0,0l0,0l0,0l0,0l0,0l0,0l0,0l0,0l0,0l0,0l0,0
	l0.1,0l0,0l0,0l0.1,0l0.1,0l0,0l0,0l0.1,0h0l0,0l0,0l0,0l0.1,0l0,0l0,0l0.1,0l0.1,0l0,0l0,0l0.1,0h0l0,0l0.1,0l0,0l0.1,0l0,0l0,0
	l0.1,0h0l0.1,0l0,0l0,0l0.1,0h0l0.1,0l0.1,0h0l0.1,0l0,0l0,0l0.1,0l0.1,0l0,0l0,0l0.1,0l0,0l0.1,0l0.1,0l0,0l0.1,0l0,0l0,0l0.1,0
	l0.1,0h0l0,0l0.1,0l0,0l0.1,0l0.1,0h0l0.1,0l0.1,0l0.1,0l0.1,0l0.1,0l0.1,0h0h0.1l0.1,0h0l0.1,0h0h0V630V545.4z"/>
<path class="st57" d="M288.8,545.4h-4.3v0.7c1.2,0.9,2.7,1.3,4.2,1.3L288.8,545.4z"/>
<path class="st54" d="M288.8,534c1.4,0,2.7,0.4,3.8,1.1c1.1,0.7,2,1.7,2.5,2.9c0.5,1.2,0.7,2.5,0.4,3.7c-0.3,1.2-0.9,2.4-1.9,3.3
	c-1,0.9-2.2,1.5-3.5,1.8c-1.3,0.2-2.7,0.1-4-0.4c-1.3-0.5-2.3-1.3-3.1-2.4c-0.8-1.1-1.2-2.3-1.2-3.6c0-1.7,0.7-3.3,2-4.5
	C285.2,534.6,287,534,288.8,534z"/>
<path class="st56" d="M285.4,546c-1.6-0.9-2.7-2.3-3.2-3.9c-0.5-1.6-0.2-3.4,0.7-4.9c0.9-1.5,2.4-2.6,4.2-3c1.8-0.4,3.7-0.2,5.2,0.6
	L285.4,546z"/>
<path class="st57" d="M295.7,540.4c0,0.9-0.1,1.7-0.5,2.5c-0.3,0.8-0.8,1.5-1.5,2.2c-0.6,0.6-1.4,1.1-2.3,1.5
	c-0.9,0.3-1.8,0.5-2.7,0.5c-0.9,0-1.8-0.2-2.7-0.5c-0.9-0.3-1.6-0.8-2.3-1.5c-0.6-0.6-1.1-1.4-1.5-2.2c-0.3-0.8-0.5-1.7-0.4-2.5
	c0,4.6,6.3,5,6.9,5C291.1,545.4,295.7,544.6,295.7,540.4z"/>
<path class="st58" d="M281.9,540.4c0,0.8,0.2,1.7,0.5,2.5s0.9,1.5,1.5,2.1c0.6,0.6,1.4,1.1,2.2,1.4c0.8,0.3,1.7,0.5,2.6,0.5v-1.4
	C286.5,545.4,281.9,544.1,281.9,540.4z"/>
<path class="st64" d="M284.6,547.1c1.4,0.6,2.9,0.9,4.4,1c1.5,0,3.1-0.3,4.4-1h50.2l-6.6,18.5l6.6,18.5h-50.1
	c-1.4,0.6-2.9,0.9-4.4,1c-1.5-0.1-3-0.4-4.4-1L284.6,547.1z"/>
<path class="st60" d="M288.8,547.8c1.5,0,2.9-0.3,4.2-1v37.5c-1.3,0.6-2.8,1-4.2,1V547.8z"/>
<path class="st60" d="M327.9,547.1h15.8l-6.8,18.5l6.8,18.5h-36L327.9,547.1z"/>
<path class="st61" d="M298.2,575.1l-2.9-2.6V569h5v1.5l0.8,0.8h3.9l0.8-0.8v-3l-0.8-0.8h-5.7v-3.8h5.7l0.8-0.8v-2.3l-0.8-0.8h-3.9
	l-0.8,0.8v1.5h-5v-3.5l2.8-2.6h9.8l3,3v4.6l-2,2l2,2v5.3l-3,3H298.2z M314.3,575.1v-19.9h4.9l5.1,12.1l5.1-12.1h4.9v19.9h-4.7v-10.9
	l-4.2,10.1h-2.4l-4.2-10.1v10.9H314.3z"/>
<path class="st62" d="M298.2,575.1L298.2,575.1l0,0.1h0V575.1z M295.4,572.4h-0.1v0L295.4,572.4L295.4,572.4z M295.4,569v-0.1h-0.1
	v0.1H295.4z M300.4,569h0.1v-0.1h-0.1V569z M300.4,570.4L300.4,570.4L300.4,570.4L300.4,570.4L300.4,570.4z M301.2,571.3
	L301.2,571.3L301.2,571.3L301.2,571.3L301.2,571.3z M305.2,571.3L305.2,571.3L305.2,571.3L305.2,571.3L305.2,571.3z M306,570.4
	L306,570.4l0.1,0v0H306z M306,567.5h0.1v0L306,567.5L306,567.5z M305.2,566.7L305.2,566.7l0-0.1h0V566.7z M299.5,566.7h-0.1v0.1
	L299.5,566.7L299.5,566.7z M299.5,562.9L299.5,562.9l-0.1-0.1v0.1H299.5z M305.2,562.9v0.1h0L305.2,562.9L305.2,562.9z M306,562.1
	L306,562.1l0.1,0v0H306z M306,559.8h0.1v0L306,559.8L306,559.8z M305.2,559L305.2,559L305.2,559L305.2,559L305.2,559z M301.2,559
	L301.2,559L301.2,559L301.2,559L301.2,559z M300.4,559.8L300.4,559.8L300.4,559.8L300.4,559.8L300.4,559.8z M300.4,561.3
	L300.4,561.3l0.1,0.1v-0.1H300.4z M295.4,561.3h-0.1v0.1L295.4,561.3L295.4,561.3z M295.4,557.8L295.4,557.8l-0.1,0v0H295.4z
	 M298.2,555.2L298.2,555.2L298.2,555.2L298.2,555.2L298.2,555.2z M308,555.2L308,555.2L308,555.2L308,555.2L308,555.2z M311,558.2
	L311,558.2L311,558.2L311,558.2L311,558.2z M311,562.8L311,562.8L311,562.8L311,562.8L311,562.8z M309,564.8L309,564.8h-0.1H309
	L309,564.8z M311,566.8L311,566.8L311,566.8L311,566.8L311,566.8z M311,572.1L311,572.1L311,572.1L311,572.1L311,572.1z M308,575.1
	v0.1h0L308,575.1L308,575.1z M298.3,575l-2.9-2.6l-0.1,0.1l2.9,2.6L298.3,575z M295.5,572.4V569h-0.2v3.5H295.5z M295.4,569.1h5
	v-0.2h-5V569.1z M300.3,569v1.5h0.2V569H300.3z M300.4,570.5l0.8,0.8l0.1-0.1l-0.8-0.8L300.4,570.5z M301.2,571.4h3.9v-0.2h-3.9
	V571.4z M305.2,571.3l0.8-0.8l-0.1-0.1l-0.8,0.8L305.2,571.3z M306.1,570.4v-3h-0.2v3H306.1z M306.1,567.4l-0.8-0.8l-0.1,0.1
	l0.8,0.8L306.1,567.4z M305.2,566.6h-5.7v0.2h5.7V566.6z M299.6,566.7v-3.8h-0.2v3.8H299.6z M299.5,563h5.7v-0.2h-5.7V563z
	 M305.2,563l0.8-0.8l-0.1-0.1l-0.8,0.8L305.2,563z M306.1,562.1v-2.3h-0.2v2.3H306.1z M306.1,559.8l-0.8-0.8l-0.1,0.1l0.8,0.8
	L306.1,559.8z M305.2,558.9h-3.9v0.2h3.9V558.9z M301.2,559l-0.8,0.8l0.1,0.1l0.8-0.8L301.2,559z M300.3,559.8v1.5h0.2v-1.5H300.3z
	 M300.4,561.2h-5v0.2h5V561.2z M295.5,561.3v-3.5h-0.2v3.5H295.5z M295.4,557.9l2.8-2.6l-0.1-0.1l-2.8,2.6L295.4,557.9z
	 M298.2,555.3h9.8v-0.2h-9.8V555.3z M308,555.3l3,3l0.1-0.1l-3-3L308,555.3z M310.9,558.2v4.6h0.2v-4.6H310.9z M311,562.8l-2,2
	l0.1,0.1l2-2L311,562.8z M309,564.9l2,2l0.1-0.1l-2-2L309,564.9z M310.9,566.8v5.3h0.2v-5.3H310.9z M311,572l-3,3l0.1,0.1l3-3
	L311,572z M308,575h-9.8v0.2h9.8V575z M314.3,575.1h-0.1v0.1h0.1V575.1z M314.3,555.2L314.3,555.2l-0.1-0.1v0.1H314.3z M319.2,555.2
	L319.2,555.2L319.2,555.2L319.2,555.2L319.2,555.2z M324.4,567.3L324.4,567.3v0.3V567.3L324.4,567.3z M329.5,555.2L329.5,555.2
	L329.5,555.2L329.5,555.2L329.5,555.2z M334.4,555.2h0.1v-0.1L334.4,555.2L334.4,555.2z M334.4,575.1v0.1h0.1v-0.1H334.4z
	 M329.7,575.1h-0.1v0.1h0.1V575.1z M329.7,564.2h0.1H329.7L329.7,564.2z M325.5,574.2L325.5,574.2L325.5,574.2L325.5,574.2
	L325.5,574.2z M323.2,574.2L323.2,574.2L323.2,574.2L323.2,574.2L323.2,574.2z M319,564.2L319,564.2h-0.1H319z M319,575.1v0.1h0.1
	v-0.1H319z M314.4,575.1v-19.9h-0.2v19.9H314.4z M314.3,555.3h4.9v-0.2h-4.9V555.3z M319.1,555.2l5.1,12.1l0.2-0.1l-5.1-12.1
	L319.1,555.2z M324.4,567.3l5.1-12.1l-0.2-0.1l-5.1,12.1L324.4,567.3z M329.5,555.3h4.9v-0.2h-4.9V555.3z M334.3,555.2v19.9h0.2
	v-19.9H334.3z M334.4,575h-4.7v0.2h4.7V575z M329.8,575.1v-10.9h-0.2v10.9H329.8z M329.6,564.1l-4.2,10.1l0.2,0.1l4.2-10.1
	L329.6,564.1z M325.5,574.1h-2.4v0.2h2.4V574.1z M323.3,574.2l-4.2-10.1l-0.2,0.1l4.2,10.1L323.3,574.2z M318.9,564.2v10.9h0.2
	v-10.9H318.9z M319,575h-4.7v0.2h4.7V575z"/>
<path class="st63" d="M265.8,513.1c-0.1,0-0.2,0-0.3-0.1c-0.1-0.1-0.1-0.2-0.1-0.3v-10.3c0-0.1,0-0.2,0.1-0.3
	c0.1-0.1,0.2-0.1,0.3-0.1h2.1c0.1,0,0.2,0,0.3,0.1c0.1,0.1,0.1,0.2,0.1,0.3v10.3c0,0.1,0,0.2-0.1,0.3c-0.1,0.1-0.2,0.1-0.3,0.1
	H265.8z M277.9,513.1c-0.2,0-0.3,0-0.4-0.1c-0.1-0.1-0.2-0.2-0.2-0.2l-3.7-5.5v5.4c0,0.1,0,0.2-0.1,0.3s-0.2,0.1-0.3,0.1h-2.1
	c-0.1,0-0.2,0-0.3-0.1c-0.1-0.1-0.1-0.2-0.1-0.3v-10.3c0-0.1,0-0.2,0.1-0.3c0.1-0.1,0.2-0.1,0.3-0.1h1.7c0.2,0,0.3,0,0.4,0.1
	c0.1,0.1,0.2,0.2,0.2,0.2l3.7,5.5v-5.4c0-0.1,0-0.2,0.1-0.3s0.2-0.1,0.3-0.1h2.1c0.1,0,0.2,0,0.3,0.1c0.1,0.1,0.1,0.2,0.1,0.3v10.3
	c0,0.1,0,0.2-0.1,0.3c-0.1,0.1-0.2,0.1-0.3,0.1H277.9z M284.8,506.2c0,0.1,0,0.3,0,0.6c0,0.2,0,0.5,0,0.8c0,0.3,0,0.5,0,0.8
	c0,0.2,0,0.4,0,0.6c0,0.2,0.1,0.5,0.1,0.7c0.1,0.2,0.2,0.4,0.4,0.6c0.2,0.2,0.4,0.3,0.6,0.4c0.2,0.1,0.6,0.1,0.9,0.1
	c0.4,0,0.7,0,0.9-0.1c0.2-0.1,0.4-0.2,0.6-0.3c0.1-0.1,0.3-0.3,0.3-0.4c0.1-0.1,0.1-0.3,0.2-0.4c0.1-0.2,0.1-0.3,0.2-0.4
	c0.1-0.1,0.2-0.1,0.4-0.1h2.1c0.1,0,0.2,0,0.2,0.1c0.1,0.1,0.1,0.1,0.1,0.2c0,0.5-0.1,1.1-0.4,1.5c-0.3,0.5-0.6,0.9-1.1,1.2
	s-1,0.6-1.6,0.8c-0.6,0.2-1.2,0.3-2,0.3c-0.8,0-1.5-0.1-2.1-0.3c-0.6-0.2-1.1-0.5-1.5-0.9c-0.4-0.4-0.8-0.9-1-1.4
	c-0.2-0.5-0.4-1.1-0.4-1.7c0-0.4,0-0.9,0-1.4s0-1,0-1.4c0-0.6,0.1-1.1,0.4-1.7c0.2-0.5,0.6-1,1-1.4c0.4-0.4,0.9-0.7,1.6-0.9
	c0.6-0.2,1.3-0.4,2.1-0.4c0.7,0,1.4,0.1,2,0.3c0.6,0.2,1.1,0.5,1.6,0.8c0.4,0.4,0.8,0.8,1.1,1.2c0.3,0.5,0.4,1,0.4,1.5
	c0,0.1,0,0.2-0.1,0.3c-0.1,0.1-0.1,0.1-0.2,0.1h-2.1c-0.2,0-0.3,0-0.4-0.1c-0.1-0.1-0.1-0.2-0.2-0.4c0-0.1-0.1-0.3-0.2-0.4
	c-0.1-0.1-0.2-0.3-0.3-0.4c-0.1-0.1-0.3-0.2-0.6-0.3c-0.2-0.1-0.5-0.1-0.9-0.1c-0.4,0-0.7,0.1-0.9,0.2c-0.2,0.1-0.4,0.2-0.6,0.4
	s-0.3,0.4-0.4,0.6C284.9,505.7,284.8,505.9,284.8,506.2z M301.5,510.5c0.1,0,0.2,0,0.3,0.1c0.1,0.1,0.1,0.2,0.1,0.3v1.7
	c0,0.1,0,0.2-0.1,0.3c-0.1,0.1-0.2,0.1-0.3,0.1h-7.6c-0.1,0-0.2,0-0.3-0.1c-0.1-0.1-0.1-0.2-0.1-0.3v-10.3c0-0.1,0-0.2,0.1-0.3
	c0.1-0.1,0.2-0.1,0.3-0.1h7.5c0.1,0,0.2,0,0.3,0.1c0.1,0.1,0.1,0.2,0.1,0.3v1.7c0,0.1,0,0.2-0.1,0.3c-0.1,0.1-0.2,0.1-0.3,0.1h-4.9
	v1.7h4.6c0.1,0,0.2,0,0.3,0.1c0.1,0.1,0.1,0.2,0.1,0.3v1.7c0,0.1,0,0.2-0.1,0.3c-0.1,0.1-0.2,0.1-0.3,0.1h-4.6v1.8H301.5z
	 M311,513.1c-0.2,0-0.3,0-0.4-0.1c-0.1-0.1-0.2-0.2-0.2-0.2l-3.7-5.5v5.4c0,0.1,0,0.2-0.1,0.3s-0.2,0.1-0.3,0.1h-2.1
	c-0.1,0-0.2,0-0.3-0.1c-0.1-0.1-0.1-0.2-0.1-0.3v-10.3c0-0.1,0-0.2,0.1-0.3c0.1-0.1,0.2-0.1,0.3-0.1h1.7c0.2,0,0.3,0,0.4,0.1
	c0.1,0.1,0.2,0.2,0.2,0.2l3.7,5.5v-5.4c0-0.1,0-0.2,0.1-0.3s0.2-0.1,0.3-0.1h2.1c0.1,0,0.2,0,0.3,0.1c0.1,0.1,0.1,0.2,0.1,0.3v10.3
	c0,0.1,0,0.2-0.1,0.3c-0.1,0.1-0.2,0.1-0.3,0.1H311z M323.6,501.9c0.1,0,0.2,0,0.3,0.1c0.1,0.1,0.1,0.2,0.1,0.3v1.7
	c0,0.1,0,0.2-0.1,0.3c-0.1,0.1-0.2,0.1-0.3,0.1h-2.8v8.2c0,0.1,0,0.2-0.1,0.3c-0.1,0.1-0.2,0.1-0.3,0.1h-2.1c-0.1,0-0.2,0-0.3-0.1
	c-0.1-0.1-0.1-0.2-0.1-0.3v-8.2H315c-0.1,0-0.2,0-0.3-0.1c-0.1-0.1-0.1-0.2-0.1-0.3v-1.7c0-0.1,0-0.2,0.1-0.3
	c0.1-0.1,0.2-0.1,0.3-0.1H323.6z M325.9,513.1c-0.1,0-0.2,0-0.3-0.1c-0.1-0.1-0.1-0.2-0.1-0.3v-10.3c0-0.1,0-0.2,0.1-0.3
	c0.1-0.1,0.2-0.1,0.3-0.1h2.1c0.1,0,0.2,0,0.3,0.1s0.1,0.2,0.1,0.3v10.3c0,0.1,0,0.2-0.1,0.3s-0.2,0.1-0.3,0.1H325.9z M334,513.1
	c-0.4,0-0.7-0.2-0.8-0.6l-3.3-10c0-0.1,0-0.1,0-0.1c0,0,0,0,0-0.1c0-0.1,0-0.2,0.1-0.2c0.1-0.1,0.2-0.1,0.3-0.1h2
	c0.2,0,0.4,0,0.4,0.1c0.1,0.1,0.2,0.2,0.2,0.3l2.2,7l2.2-7c0-0.1,0.1-0.2,0.2-0.3c0.1-0.1,0.3-0.1,0.5-0.1h2c0.1,0,0.2,0,0.2,0.1
	c0.1,0.1,0.1,0.1,0.1,0.2c0,0,0,0,0,0.1c0,0,0,0.1,0,0.1l-3.3,10c-0.1,0.4-0.4,0.6-0.8,0.6H334z M349.8,510.5c0.1,0,0.2,0,0.3,0.1
	c0.1,0.1,0.1,0.2,0.1,0.3v1.7c0,0.1,0,0.2-0.1,0.3s-0.2,0.1-0.3,0.1h-7.6c-0.1,0-0.2,0-0.3-0.1c-0.1-0.1-0.1-0.2-0.1-0.3v-10.3
	c0-0.1,0-0.2,0.1-0.3c0.1-0.1,0.2-0.1,0.3-0.1h7.5c0.1,0,0.2,0,0.3,0.1c0.1,0.1,0.1,0.2,0.1,0.3v1.7c0,0.1,0,0.2-0.1,0.3
	c-0.1,0.1-0.2,0.1-0.3,0.1h-4.9v1.7h4.6c0.1,0,0.2,0,0.3,0.1c0.1,0.1,0.1,0.2,0.1,0.3v1.7c0,0.1,0,0.2-0.1,0.3
	c-0.1,0.1-0.2,0.1-0.3,0.1h-4.6v1.8H349.8z"/>
<path class="st9" d="M110.3,482c18.2-0.7,36.4-1.1,54.7-1.4c9.1-0.2,18.2-0.2,27.4-0.3l27.4-0.1l27.4,0.1c9.1,0.1,18.2,0.1,27.4,0.3
	c18.2,0.3,36.4,0.6,54.7,1.4c-18.2,0.7-36.4,1.1-54.7,1.4c-9.1,0.2-18.2,0.2-27.4,0.3l-27.4,0.1l-27.4-0.1
	c-9.1-0.1-18.2-0.1-27.4-0.3C146.7,483.1,128.5,482.7,110.3,482z"/>
<path class="st9" d="M111.3,266.7c18.2-1,36.5-1.6,54.7-1.9c9.1-0.2,18.2-0.3,27.4-0.4l27.4-0.1l27.4,0.1c9.1,0.1,18.2,0.2,27.4,0.4
	c18.2,0.4,36.5,0.9,54.7,2c-18.2,1-36.5,1.6-54.7,1.9c-9.1,0.2-18.2,0.3-27.4,0.4l-27.4,0.1l-27.4-0.1c-9.1-0.1-18.2-0.2-27.4-0.4
	C147.8,268.3,129.5,267.7,111.3,266.7z"/>
<path class="st9" d="M110.3,671.2c18.2-1.2,36.5-1.9,54.7-2.3c9.1-0.3,18.2-0.3,27.4-0.5l27.4-0.2l27.4,0.2
	c9.1,0.2,18.2,0.2,27.4,0.5c18.2,0.4,36.5,1.1,54.7,2.3c-18.2,1.2-36.5,1.9-54.7,2.3c-9.1,0.3-18.2,0.3-27.4,0.5l-27.4,0.1
	l-27.4-0.2c-9.1-0.2-18.2-0.2-27.4-0.5C146.8,673.1,128.5,672.4,110.3,671.2z"/>
<path class="st50" d="M384,276H60c-12.2,0-22,9.2-22,20.7v147.7c0,11.4,9.8,20.7,22,20.7h324c12.1,0,22-9.2,22-20.7V296.7
	C406,285.2,396.1,276,384,276z"/>
<path class="st51" d="M196.9,287H64.7c-8.7,0-15.7,7.7-15.7,17.1v130.2c0,9.5,7,17.1,15.7,17.1h132.2c8.7,0,15.7-7.7,15.7-17.1
	V304.1C212.7,294.7,205.6,287,196.9,287z"/>
<g>
	<path class="st65" d="M199.8,302.6h-10l3.4-4.1c0.1-0.1,0.1-0.1,0.1-0.2c0-0.1,0-0.1,0-0.2c0-0.1-0.1-0.1-0.1-0.2
		c-0.1,0-0.1-0.1-0.2-0.1h-16.5v-5.6c0-0.2,0-0.3-0.1-0.5c-0.1-0.2-0.2-0.3-0.3-0.4c-0.1-0.1-0.3-0.2-0.4-0.3
		c-0.2-0.1-0.3-0.1-0.5-0.1H85.8c-0.2,0-0.3,0-0.5,0.1c-0.2,0.1-0.3,0.2-0.4,0.3c-0.1,0.1-0.2,0.3-0.3,0.4c-0.1,0.2-0.1,0.3-0.1,0.5
		v5.6H68c-0.1,0-0.1,0-0.2,0.1c-0.1,0-0.1,0.1-0.1,0.2c0,0.1,0,0.1,0,0.2c0,0.1,0,0.1,0.1,0.2l3.4,4.1h-10c-2.2,0-4.3,0.9-5.8,2.5
		c-1.5,1.6-2.4,3.7-2.4,5.9v128.6c0,2.2,0.9,4.4,2.4,5.9c1.5,1.6,3.6,2.5,5.8,2.5h138.6c1.1,0,2.1-0.2,3.1-0.6c1-0.4,1.9-1,2.7-1.8
		c0.8-0.8,1.4-1.7,1.8-2.7s0.6-2.1,0.6-3.2V311c0-1.1-0.2-2.2-0.6-3.2c-0.4-1-1-1.9-1.8-2.7c-0.8-0.8-1.7-1.4-2.7-1.8
		C201.9,302.8,200.9,302.6,199.8,302.6z"/>
</g>
<path class="st66" d="M69.5,376c-0.1,0-0.2,0-0.3-0.1c-0.1-0.1-0.1-0.2-0.1-0.3v-10.4c0-0.1,0-0.2,0.1-0.3c0.1-0.1,0.2-0.1,0.3-0.1
	h3.9c1.1,0,2,0.2,2.7,0.5c0.7,0.3,1.2,0.8,1.6,1.5c0.4,0.7,0.5,1.4,0.6,2.4c0,0.5,0,0.9,0,1.2s0,0.8,0,1.2c0,1-0.2,1.8-0.5,2.5
	c-0.3,0.6-0.9,1.1-1.6,1.4c-0.7,0.3-1.6,0.5-2.6,0.5H69.5z M71.3,374.2h2.1c0.6,0,1.1-0.1,1.5-0.3c0.4-0.2,0.6-0.4,0.8-0.8
	c0.2-0.4,0.3-0.9,0.3-1.5c0-0.3,0-0.6,0-0.8c0-0.2,0-0.5,0-0.7c0-0.2,0-0.5,0-0.8c0-0.9-0.2-1.5-0.7-1.9c-0.4-0.4-1.1-0.6-2-0.6h-2
	V374.2z M80.7,376c-0.1,0-0.2,0-0.3-0.1c-0.1-0.1-0.1-0.2-0.1-0.3v-10.4c0-0.1,0-0.2,0.1-0.3c0.1-0.1,0.2-0.1,0.3-0.1h4.1
	c1.3,0,2.3,0.3,3.1,0.9c0.7,0.6,1.1,1.5,1.1,2.6c0,0.8-0.2,1.4-0.6,2c-0.4,0.5-0.9,0.9-1.6,1.1l2.3,4.1c0,0.1,0,0.1,0,0.2
	c0,0.1,0,0.2-0.1,0.2C89.1,376,89,376,89,376h-1.5c-0.2,0-0.3,0-0.4-0.1c-0.1-0.1-0.2-0.2-0.2-0.3l-2.1-3.8h-2.2v3.8
	c0,0.1,0,0.2-0.1,0.3c-0.1,0.1-0.2,0.1-0.3,0.1H80.7z M82.6,370h2.3c0.7,0,1.1-0.1,1.5-0.4c0.3-0.3,0.5-0.7,0.5-1.2
	c0-0.5-0.2-0.9-0.5-1.2c-0.3-0.3-0.8-0.5-1.5-0.5h-2.3V370z M90.4,376c-0.1,0-0.2,0-0.2-0.1c-0.1-0.1-0.1-0.1-0.1-0.2
	c0,0,0-0.1,0-0.1l3.9-10.3c0-0.1,0.1-0.2,0.2-0.3c0.1-0.1,0.2-0.1,0.4-0.1h1.7c0.2,0,0.3,0,0.4,0.1c0.1,0.1,0.1,0.2,0.2,0.3
	l3.9,10.3c0,0.1,0,0.1,0,0.1c0,0.1,0,0.2-0.1,0.2c-0.1,0.1-0.1,0.1-0.2,0.1H99c-0.1,0-0.3,0-0.3-0.1c-0.1-0.1-0.1-0.1-0.1-0.2
	l-0.8-2H93l-0.8,2c0,0.1-0.1,0.1-0.1,0.2c-0.1,0.1-0.2,0.1-0.3,0.1H90.4z M93.6,371.9h3.6l-1.8-4.9L93.6,371.9z M106.3,376.2
	c-1,0-1.8-0.2-2.5-0.5c-0.7-0.3-1.2-0.8-1.6-1.5c-0.4-0.7-0.6-1.4-0.6-2.3c0-0.5,0-0.9,0-1.5c0-0.5,0-1,0-1.5c0-0.9,0.2-1.6,0.6-2.3
	c0.4-0.6,0.9-1.1,1.6-1.5c0.7-0.3,1.5-0.5,2.5-0.5c0.8,0,1.5,0.1,2,0.3c0.6,0.2,1.1,0.5,1.5,0.8c0.4,0.3,0.7,0.7,0.9,1
	c0.2,0.4,0.3,0.7,0.3,1c0,0.1,0,0.2-0.1,0.2c-0.1,0.1-0.1,0.1-0.3,0.1h-1.6c-0.1,0-0.2,0-0.2-0.1c-0.1,0-0.1-0.1-0.1-0.2
	c-0.1-0.2-0.2-0.4-0.4-0.7c-0.2-0.2-0.4-0.4-0.7-0.6c-0.3-0.1-0.7-0.2-1.2-0.2c-0.7,0-1.3,0.2-1.7,0.6c-0.4,0.4-0.7,1-0.7,1.9
	c0,0.9,0,1.9,0,2.8c0,0.9,0.3,1.6,0.7,2c0.4,0.4,1,0.6,1.8,0.6c0.5,0,0.9-0.1,1.3-0.3c0.4-0.2,0.7-0.4,0.9-0.8
	c0.2-0.4,0.3-0.8,0.3-1.4v-0.5h-2c-0.1,0-0.2,0-0.3-0.1c-0.1-0.1-0.1-0.2-0.1-0.3v-0.8c0-0.1,0-0.2,0.1-0.3c0.1-0.1,0.2-0.1,0.3-0.1
	h3.8c0.1,0,0.2,0,0.3,0.1c0.1,0.1,0.1,0.2,0.1,0.3v1.7c0,0.9-0.2,1.7-0.6,2.3c-0.4,0.7-0.9,1.2-1.7,1.5
	C108.2,376,107.3,376.2,106.3,376.2z M115.7,376c-0.1,0-0.2,0-0.2-0.1c-0.1-0.1-0.1-0.1-0.1-0.2c0,0,0-0.1,0-0.1l3.9-10.3
	c0-0.1,0.1-0.2,0.2-0.3c0.1-0.1,0.2-0.1,0.4-0.1h1.7c0.2,0,0.3,0,0.4,0.1c0.1,0.1,0.1,0.2,0.2,0.3l3.9,10.3c0,0.1,0,0.1,0,0.1
	c0,0.1,0,0.2-0.1,0.2s-0.1,0.1-0.2,0.1h-1.4c-0.2,0-0.3,0-0.3-0.1c-0.1-0.1-0.1-0.1-0.1-0.2l-0.8-2h-4.8l-0.8,2
	c0,0.1-0.1,0.1-0.1,0.2c-0.1,0.1-0.2,0.1-0.3,0.1H115.7z M118.9,371.9h3.6l-1.8-4.9L118.9,371.9z M127.9,376c-0.1,0-0.2,0-0.3-0.1
	c-0.1-0.1-0.1-0.2-0.1-0.3v-10.4c0-0.1,0-0.2,0.1-0.3c0.1-0.1,0.2-0.1,0.3-0.1h1.2c0.2,0,0.3,0,0.3,0.1c0.1,0.1,0.1,0.1,0.1,0.1
	l4.6,7.2v-7c0-0.1,0-0.2,0.1-0.3c0.1-0.1,0.2-0.1,0.3-0.1h1.3c0.1,0,0.2,0,0.3,0.1c0.1,0.1,0.1,0.2,0.1,0.3v10.4
	c0,0.1,0,0.2-0.1,0.3c-0.1,0.1-0.2,0.1-0.3,0.1h-1.2c-0.1,0-0.3,0-0.3-0.1c-0.1-0.1-0.1-0.1-0.1-0.1l-4.6-7v6.9c0,0.1,0,0.2-0.1,0.3
	c-0.1,0.1-0.2,0.1-0.3,0.1H127.9z M139.2,376c-0.1,0-0.2,0-0.3-0.1s-0.1-0.2-0.1-0.3v-10.4c0-0.1,0-0.2,0.1-0.3
	c0.1-0.1,0.2-0.1,0.3-0.1h3.9c1.1,0,2,0.2,2.7,0.5c0.7,0.3,1.2,0.8,1.6,1.5c0.4,0.7,0.5,1.4,0.6,2.4c0,0.5,0,0.9,0,1.2s0,0.8,0,1.2
	c0,1-0.2,1.8-0.5,2.5c-0.3,0.6-0.9,1.1-1.6,1.4c-0.7,0.3-1.6,0.5-2.6,0.5H139.2z M141.1,374.2h2.1c0.6,0,1.1-0.1,1.5-0.3
	c0.4-0.2,0.6-0.4,0.8-0.8c0.2-0.4,0.3-0.9,0.3-1.5c0-0.3,0-0.6,0-0.8c0-0.2,0-0.5,0-0.7c0-0.2,0-0.5,0-0.8c0-0.9-0.2-1.5-0.7-1.9
	c-0.4-0.4-1.1-0.6-2-0.6h-2V374.2z M154.1,376c-0.1,0-0.2,0-0.3-0.1c-0.1-0.1-0.1-0.2-0.1-0.3v-10.4c0-0.1,0-0.2,0.1-0.3
	c0.1-0.1,0.2-0.1,0.3-0.1h3.9c1.1,0,2,0.2,2.7,0.5c0.7,0.3,1.2,0.8,1.6,1.5c0.4,0.7,0.5,1.4,0.6,2.4c0,0.5,0,0.9,0,1.2s0,0.8,0,1.2
	c0,1-0.2,1.8-0.5,2.5c-0.3,0.6-0.9,1.1-1.6,1.4c-0.7,0.3-1.6,0.5-2.6,0.5H154.1z M156,374.2h2.1c0.6,0,1.1-0.1,1.5-0.3
	c0.4-0.2,0.6-0.4,0.8-0.8c0.2-0.4,0.3-0.9,0.3-1.5c0-0.3,0-0.6,0-0.8c0-0.2,0-0.5,0-0.7c0-0.2,0-0.5,0-0.8c0-0.9-0.2-1.5-0.7-1.9
	c-0.4-0.4-1.1-0.6-2-0.6h-2V374.2z M165.4,376c-0.1,0-0.2,0-0.3-0.1c-0.1-0.1-0.1-0.2-0.1-0.3v-10.4c0-0.1,0-0.2,0.1-0.3
	c0.1-0.1,0.2-0.1,0.3-0.1h4.1c1.3,0,2.3,0.3,3.1,0.9c0.7,0.6,1.1,1.5,1.1,2.6c0,0.8-0.2,1.4-0.6,2c-0.4,0.5-0.9,0.9-1.6,1.1l2.3,4.1
	c0,0.1,0,0.1,0,0.2c0,0.1,0,0.2-0.1,0.2c-0.1,0.1-0.1,0.1-0.2,0.1h-1.5c-0.2,0-0.3,0-0.4-0.1c-0.1-0.1-0.2-0.2-0.2-0.3l-2.1-3.8
	h-2.2v3.8c0,0.1,0,0.2-0.1,0.3c-0.1,0.1-0.2,0.1-0.3,0.1H165.4z M167.2,370h2.3c0.7,0,1.1-0.1,1.5-0.4c0.3-0.3,0.5-0.7,0.5-1.2
	c0-0.5-0.2-0.9-0.5-1.2c-0.3-0.3-0.8-0.5-1.5-0.5h-2.3V370z M180,376.2c-1,0-1.8-0.2-2.4-0.5c-0.7-0.3-1.2-0.8-1.6-1.5
	c-0.4-0.7-0.6-1.5-0.6-2.5c0-0.5,0-0.9,0-1.4c0-0.4,0-0.9,0-1.4c0-1,0.2-1.8,0.6-2.4c0.4-0.7,0.9-1.1,1.6-1.5
	c0.7-0.3,1.5-0.5,2.4-0.5c0.9,0,1.7,0.2,2.4,0.5c0.7,0.3,1.2,0.8,1.6,1.5c0.4,0.7,0.6,1.5,0.6,2.4c0,0.5,0,0.9,0,1.4
	c0,0.4,0,0.9,0,1.4c0,1-0.2,1.8-0.6,2.5c-0.4,0.7-0.9,1.1-1.6,1.5C181.8,376,181,376.2,180,376.2z M180,374.3c0.7,0,1.3-0.2,1.7-0.6
	c0.4-0.4,0.7-1.1,0.7-2c0-0.5,0-0.9,0-1.3c0-0.4,0-0.8,0-1.3c0-0.6-0.1-1.1-0.4-1.5c-0.2-0.4-0.5-0.7-0.8-0.8
	c-0.4-0.2-0.8-0.3-1.2-0.3c-0.4,0-0.8,0.1-1.2,0.3c-0.4,0.2-0.6,0.5-0.8,0.8c-0.2,0.4-0.3,0.9-0.3,1.5c0,0.5,0,0.9,0,1.3
	c0,0.4,0,0.8,0,1.3c0,0.9,0.3,1.6,0.7,2C178.8,374.1,179.3,374.3,180,374.3z M187.2,376c-0.1,0-0.2,0-0.3-0.1
	c-0.1-0.1-0.1-0.2-0.1-0.3v-10.4c0-0.1,0-0.2,0.1-0.3c0.1-0.1,0.2-0.1,0.3-0.1h4.3c0.8,0,1.6,0.1,2.2,0.4c0.6,0.3,1.1,0.7,1.4,1.2
	c0.3,0.5,0.5,1.2,0.5,2c0,0.8-0.2,1.5-0.5,2c-0.3,0.5-0.8,0.9-1.4,1.2c-0.6,0.3-1.3,0.4-2.2,0.4h-2.4v3.7c0,0.1,0,0.2-0.1,0.3
	c-0.1,0.1-0.2,0.1-0.3,0.1H187.2z M189.1,370.1h2.3c0.6,0,1.1-0.1,1.4-0.4c0.3-0.3,0.5-0.7,0.5-1.3c0-0.5-0.2-1-0.5-1.3
	c-0.3-0.3-0.8-0.5-1.5-0.5h-2.3V370.1z"/>
<path class="st67" d="M375.6,287.6H243.4c-8.7,0-15.7,7.7-15.7,17.1v130.2c0,9.5,7,17.1,15.7,17.1h132.2c8.7,0,15.7-7.7,15.7-17.1
	V304.7C391.3,295.3,384.2,287.6,375.6,287.6z"/>
<path class="st68" d="M300.6,363.9c-0.2,0-0.3-0.1-0.5-0.2c-0.1-0.1-0.2-0.3-0.3-0.4l-6.5-9.8v9.8c0,0.1-0.1,0.3-0.2,0.4
	c-0.1,0.1-0.2,0.2-0.4,0.2H292c-0.1,0-0.3-0.1-0.4-0.2c-0.1-0.1-0.2-0.2-0.2-0.4v-12.9c0-0.1,0.1-0.3,0.2-0.4
	c0.1-0.1,0.2-0.2,0.4-0.2h0.7c0.2,0,0.3,0.1,0.5,0.2c0.1,0.1,0.2,0.3,0.3,0.4l6.5,9.8v-9.8c0-0.1,0.1-0.3,0.2-0.4
	c0.1-0.1,0.2-0.2,0.4-0.2h0.8c0.1,0,0.3,0.1,0.4,0.2c0.1,0.1,0.2,0.2,0.2,0.4v12.9c0,0.1-0.1,0.3-0.2,0.4c-0.1,0.1-0.2,0.2-0.4,0.2
	H300.6z M304.8,355.1c0-0.7,0.1-1.4,0.4-2.1c0.3-0.7,0.6-1.2,1.1-1.7c0.5-0.5,1-0.9,1.7-1.2c0.7-0.3,1.5-0.4,2.3-0.4
	c0.9,0,1.7,0.1,2.3,0.4c0.7,0.3,1.3,0.7,1.7,1.2c0.5,0.5,0.8,1.1,1.1,1.7c0.3,0.7,0.4,1.4,0.4,2.1c0,1.2,0,2.4,0,3.6
	c0,0.7-0.2,1.5-0.4,2.1c-0.2,0.7-0.6,1.2-1.1,1.7c-0.5,0.5-1,0.9-1.7,1.2c-0.7,0.3-1.4,0.4-2.3,0.4c-0.9,0-1.7-0.1-2.3-0.4
	c-0.7-0.3-1.2-0.7-1.7-1.2c-0.5-0.5-0.8-1.1-1.1-1.7c-0.2-0.7-0.4-1.4-0.4-2.1C304.8,357.5,304.8,356.3,304.8,355.1z M313.9,355.2
	c0-0.6-0.1-1.2-0.3-1.6c-0.2-0.5-0.4-0.9-0.7-1.2c-0.3-0.3-0.7-0.5-1.1-0.7c-0.4-0.2-0.9-0.2-1.4-0.2c-0.5,0-1,0.1-1.4,0.2
	c-0.4,0.1-0.8,0.4-1.1,0.7c-0.3,0.3-0.6,0.7-0.8,1.2c-0.2,0.5-0.3,1-0.3,1.6c0,0.6,0,1.2,0,1.7s0,1.1,0,1.7c0,0.6,0.1,1.2,0.3,1.6
	c0.2,0.5,0.4,0.9,0.8,1.2c0.3,0.3,0.7,0.5,1.1,0.7c0.4,0.1,0.9,0.2,1.4,0.2c0.5,0,1-0.1,1.4-0.2c0.4-0.2,0.8-0.4,1.1-0.7
	c0.3-0.3,0.6-0.7,0.7-1.2c0.2-0.5,0.3-1,0.3-1.6c0-0.6,0-1.2,0-1.7S314,355.8,313.9,355.2z M327.1,349.9c0.1,0,0.3,0.1,0.4,0.2
	c0.1,0.1,0.2,0.2,0.2,0.4v0.7c0,0.1-0.1,0.3-0.2,0.4c-0.1,0.1-0.2,0.2-0.4,0.2h-3.7v11.7c0,0.1-0.1,0.3-0.2,0.4
	c-0.1,0.1-0.2,0.2-0.4,0.2H322c-0.1,0-0.3-0.1-0.4-0.2c-0.1-0.1-0.2-0.2-0.2-0.4v-11.7h-3.7c-0.1,0-0.3-0.1-0.4-0.2
	c-0.1-0.1-0.2-0.2-0.2-0.4v-0.7c0-0.1,0.1-0.3,0.2-0.4c0.1-0.1,0.2-0.2,0.4-0.2H327.1z M266.7,384.7h-6.9l-1,2.7
	c0,0.1-0.1,0.2-0.2,0.3c-0.1,0.1-0.3,0.2-0.6,0.2h-0.7c-0.1,0-0.2,0-0.3-0.1c-0.1-0.1-0.1-0.2-0.1-0.3c0-0.1,0-0.2,0.1-0.3l4.9-12.6
	c0.1-0.1,0.2-0.3,0.3-0.4c0.1-0.1,0.3-0.2,0.6-0.2h1.2c0.3,0,0.5,0.1,0.6,0.2c0.1,0.1,0.2,0.3,0.3,0.4l4.9,12.6
	c0.1,0.1,0.1,0.2,0.1,0.3c0,0.1,0,0.2-0.1,0.3c-0.1,0.1-0.2,0.1-0.3,0.1h-0.7c-0.3,0-0.5-0.1-0.6-0.2c-0.1-0.1-0.2-0.2-0.2-0.3
	L266.7,384.7z M260.4,382.9h5.5l-2.8-7.1L260.4,382.9z M279.4,374.4c0-0.1,0.1-0.2,0.2-0.3c0.1-0.1,0.3-0.2,0.6-0.2h0.7
	c0.1,0,0.2,0,0.3,0.1c0.1,0.1,0.1,0.2,0.1,0.3c0,0.1,0,0.1,0,0.2l-4.3,12.6c-0.1,0.2-0.2,0.4-0.4,0.6c-0.2,0.1-0.4,0.2-0.7,0.2h-0.8
	c-0.3,0-0.5-0.1-0.7-0.2c-0.2-0.1-0.3-0.3-0.4-0.6l-4.3-12.6c0-0.1,0-0.1,0-0.2c0-0.1,0-0.2,0.1-0.3c0.1-0.1,0.2-0.1,0.3-0.1h0.7
	c0.3,0,0.5,0.1,0.6,0.2c0.1,0.1,0.2,0.2,0.2,0.3l3.9,11.5L279.4,374.4z M291.3,384.7h-6.9l-1,2.7c0,0.1-0.1,0.2-0.2,0.3
	c-0.1,0.1-0.3,0.2-0.6,0.2h-0.7c-0.1,0-0.2,0-0.3-0.1c-0.1-0.1-0.1-0.2-0.1-0.3c0-0.1,0-0.2,0.1-0.3l4.9-12.6
	c0.1-0.1,0.2-0.3,0.3-0.4c0.1-0.1,0.3-0.2,0.6-0.2h1.2c0.3,0,0.5,0.1,0.6,0.2c0.1,0.1,0.2,0.3,0.3,0.4l4.9,12.6
	c0.1,0.1,0.1,0.2,0.1,0.3c0,0.1,0,0.2-0.1,0.3c-0.1,0.1-0.2,0.1-0.3,0.1h-0.7c-0.3,0-0.5-0.1-0.6-0.2c-0.1-0.1-0.2-0.2-0.2-0.3
	L291.3,384.7z M285.1,382.9h5.5l-2.8-7.1L285.1,382.9z M296.9,387.9c-0.1,0-0.3-0.1-0.4-0.2c-0.1-0.1-0.2-0.2-0.2-0.4v-12.9
	c0-0.1,0.1-0.3,0.2-0.4c0.1-0.1,0.2-0.2,0.4-0.2h0.8c0.1,0,0.3,0.1,0.4,0.2c0.1,0.1,0.2,0.2,0.2,0.4v12.9c0,0.1-0.1,0.3-0.2,0.4
	c-0.1,0.1-0.2,0.2-0.4,0.2H296.9z M310.4,386.1c0.1,0,0.3,0.1,0.4,0.2c0.1,0.1,0.2,0.2,0.2,0.4v0.7c0,0.1-0.1,0.3-0.2,0.4
	c-0.1,0.1-0.2,0.2-0.4,0.2h-8.1c-0.1,0-0.3-0.1-0.4-0.2c-0.1-0.1-0.2-0.2-0.2-0.4v-12.9c0-0.1,0.1-0.3,0.2-0.4
	c0.1-0.1,0.2-0.2,0.4-0.2h0.8c0.1,0,0.3,0.1,0.4,0.2c0.1,0.1,0.2,0.2,0.2,0.4v11.7H310.4z M321.6,384.7h-6.9l-1,2.7
	c0,0.1-0.1,0.2-0.2,0.3c-0.1,0.1-0.3,0.2-0.6,0.2h-0.7c-0.1,0-0.2,0-0.3-0.1c-0.1-0.1-0.1-0.2-0.1-0.3c0-0.1,0-0.2,0.1-0.3l4.9-12.6
	c0.1-0.1,0.2-0.3,0.3-0.4c0.1-0.1,0.3-0.2,0.6-0.2h1.2c0.3,0,0.5,0.1,0.6,0.2c0.1,0.1,0.2,0.3,0.3,0.4l4.9,12.6
	c0.1,0.1,0.1,0.2,0.1,0.3c0,0.1,0,0.2-0.1,0.3c-0.1,0.1-0.2,0.1-0.3,0.1h-0.7c-0.3,0-0.5-0.1-0.6-0.2c-0.1-0.1-0.2-0.2-0.2-0.3
	L321.6,384.7z M315.3,382.9h5.5l-2.8-7.1L315.3,382.9z M328.5,381.5v4.6h4.1c0.4,0,0.8-0.1,1.2-0.2c0.3-0.1,0.6-0.3,0.9-0.5
	c0.2-0.2,0.4-0.5,0.5-0.7c0.1-0.3,0.2-0.6,0.2-0.9c0-0.3-0.1-0.6-0.2-0.9c-0.1-0.3-0.3-0.5-0.5-0.7c-0.2-0.2-0.5-0.4-0.8-0.5
	c-0.3-0.1-0.7-0.2-1.2-0.2H328.5z M328.5,375.7v4h3.8c0.9,0,1.6-0.2,2-0.5c0.5-0.3,0.7-0.8,0.7-1.5c0-0.7-0.2-1.2-0.7-1.5
	c-0.4-0.3-1.1-0.5-2-0.5H328.5z M327.2,387.9c-0.1,0-0.3-0.1-0.4-0.2c-0.1-0.1-0.2-0.2-0.2-0.4v-12.9c0-0.1,0.1-0.3,0.2-0.4
	c0.1-0.1,0.2-0.2,0.4-0.2h5.4c0.9,0,1.6,0.1,2.1,0.4c0.6,0.3,1,0.6,1.3,1c0.3,0.4,0.6,0.8,0.7,1.2c0.1,0.4,0.2,0.8,0.2,1.2
	c0,0.4-0.1,0.8-0.2,1.2c-0.1,0.3-0.3,0.6-0.5,0.8c-0.2,0.2-0.4,0.4-0.5,0.5c-0.2,0.1-0.3,0.2-0.4,0.3c0.5,0.3,0.9,0.8,1.3,1.4
	c0.4,0.6,0.6,1.2,0.6,2c0,0.5-0.1,1-0.3,1.5c-0.2,0.5-0.5,0.9-0.8,1.3c-0.4,0.4-0.8,0.7-1.4,0.9c-0.5,0.2-1.2,0.3-1.9,0.3H327.2z
	 M348.7,386.1c0.1,0,0.3,0.1,0.4,0.2c0.1,0.1,0.2,0.2,0.2,0.4v0.7c0,0.1-0.1,0.3-0.2,0.4c-0.1,0.1-0.2,0.2-0.4,0.2h-8.1
	c-0.1,0-0.3-0.1-0.4-0.2c-0.1-0.1-0.2-0.2-0.2-0.4v-12.9c0-0.1,0.1-0.3,0.2-0.4c0.1-0.1,0.2-0.2,0.4-0.2h0.8c0.1,0,0.3,0.1,0.4,0.2
	c0.1,0.1,0.2,0.2,0.2,0.4v11.7H348.7z M359.9,386.1c0.1,0,0.3,0.1,0.4,0.2c0.1,0.1,0.2,0.2,0.2,0.4v0.7c0,0.1-0.1,0.3-0.2,0.4
	c-0.1,0.1-0.2,0.2-0.4,0.2h-8.1c-0.1,0-0.3-0.1-0.4-0.2c-0.1-0.1-0.2-0.2-0.2-0.4v-12.9c0-0.1,0.1-0.3,0.2-0.4
	c0.1-0.1,0.2-0.2,0.4-0.2h7.9c0.1,0,0.3,0.1,0.4,0.2c0.1,0.1,0.2,0.2,0.2,0.4v0.7c0,0.1-0.1,0.3-0.2,0.4c-0.1,0.1-0.2,0.2-0.4,0.2
	h-6.6v4.2h6.1c0.1,0,0.3,0.1,0.4,0.2c0.1,0.1,0.2,0.2,0.2,0.4v0.7c0,0.1-0.1,0.3-0.2,0.4c-0.1,0.1-0.2,0.2-0.4,0.2h-6.1v4.4H359.9z"
	/>
</svg>
