<svg width="160" height="59" viewBox="0 0 160 59" fill="none" xmlns="http://www.w3.org/2000/svg">
<path fill-rule="evenodd" clip-rule="evenodd" d="M159.799 6.71049C159.897 7.99135 159.968 19.1816 159.994 25.5599C159.637 26.3734 159.285 27.3047 159.084 28.184C158.909 28.9542 159.075 29.7954 159.327 30.306C159.535 30.7301 159.773 31.1369 160 31.4882C159.981 37.2988 159.905 50.6579 159.799 52.0634C159.371 52.7903 158.478 54.0072 157.391 55.3175C156.305 56.6277 155.295 57.7043 154.692 58.2201C148.872 58.4123 38.3343 58.5525 30.3881 58.5958C30.4455 58.0921 30.5015 57.3287 30.4383 57.0605C30.3938 56.8683 29.8813 56.9912 29.6559 57.0899C28.6409 57.5295 27.7752 58.0748 26.9311 58.6079C26.1041 58.6096 25.2097 58.6096 24.2364 58.6096C9.44504 58.6096 12.3249 58.4538 5.31185 58.2219C4.70888 57.7061 3.69963 56.6295 2.61285 55.3192C1.52608 54.0089 0.633114 52.7921 0.205295 52.0651C0.16079 51.4853 0.122027 48.8716 0.0904435 45.5933C0.472322 45.1986 1.06093 44.3851 1.13128 44.1376C1.21742 43.833 1.11118 42.8308 0.944647 42.2682C0.719253 41.5049 0.374701 40.7191 0.0473762 40.1462C0.0172279 35.516 0 30.9603 0 29.3887C0 28.3657 0.00717729 26.0792 0.0215336 23.3305C0.305789 22.8961 0.538362 22.4426 0.727865 21.9441C0.792469 21.7745 0.638857 20.8138 0.679054 20.6875C1.06093 19.4931 1.61222 17.2949 1.42989 16.8882C1.0638 16.0729 0.562769 15.3598 0.0789603 14.6328C0.113416 10.6967 0.156484 7.37515 0.206732 6.71049C0.634551 5.98352 1.52751 4.76844 2.61429 3.45642C3.70106 2.14614 4.79358 1.03663 5.31328 0.553711C22.0341 6.7105 135.797 6.44394 154.692 0.553711C155.295 1.06952 156.305 2.14614 157.391 3.45642C158.478 4.76844 159.371 5.98525 159.799 6.71049Z" fill="#35424F"/>
<path fill-rule="evenodd" clip-rule="evenodd" d="M2.91864 29.3889C2.91864 27.1976 2.92152 10.2538 3.04642 8.03483L0.206732 6.71069C0.156484 7.37363 0.113416 10.6969 0.0789603 14.633C0.562769 15.36 1.0638 16.0731 1.42989 16.8884C1.61222 17.2951 1.06093 19.4933 0.679054 20.6877C0.638857 20.814 0.791033 21.7747 0.727865 21.9443C0.539797 22.4428 0.305789 22.898 0.0215336 23.3307C0.00861293 26.0777 0 28.3642 0 29.3889C0 30.9622 0.0172279 35.518 0.0473762 40.1464C0.376136 40.7193 0.719253 41.5051 0.944647 42.2684C1.11118 42.8327 1.21742 43.8349 1.13128 44.1378C1.06093 44.3853 0.472322 45.2006 0.0904435 45.5935C0.122027 48.8718 0.16079 51.4855 0.205295 52.0653L3.04498 50.7412C2.92151 48.5239 2.91864 31.5802 2.91864 29.3889Z" fill="url(#paint0_linear_58_22981)"/>
<path fill-rule="evenodd" clip-rule="evenodd" d="M3.04672 8.03485C3.55493 7.30268 4.16507 6.56358 4.6776 5.94565C5.17289 5.34849 5.76293 4.64229 6.35011 4.04167L5.31358 0.555664C4.71061 1.07147 3.70136 2.14807 2.61459 3.45835C1.52781 4.76864 0.63485 5.98547 0.207031 6.71244L3.04672 8.03485Z" fill="url(#paint1_radial_58_22981)"/>
<path fill-rule="evenodd" clip-rule="evenodd" d="M153.656 4.04144C154.243 4.64207 154.832 5.34827 155.329 5.94543C155.841 6.56336 156.451 7.30419 156.96 8.03463L159.799 6.71049C159.372 5.98352 158.479 4.76844 157.392 3.45642C156.305 2.14614 155.296 1.06952 154.693 0.553711L153.656 4.04144Z" fill="url(#paint2_radial_58_22981)"/>
<path fill-rule="evenodd" clip-rule="evenodd" d="M156.959 8.03454C157.084 10.2535 157.087 27.1955 157.087 29.3886C157.087 31.5799 157.084 48.5236 156.959 50.7426L159.799 52.0667C159.905 50.6613 159.981 37.3022 160 31.4916C159.773 31.1385 159.535 30.7317 159.326 30.3094C159.075 29.7988 158.909 28.9576 159.084 28.1873C159.285 27.308 159.635 26.3768 159.994 25.5633C159.968 19.185 159.896 7.99473 159.799 6.71387L156.959 8.03454Z" fill="url(#paint3_linear_58_22981)"/>
<path fill-rule="evenodd" clip-rule="evenodd" d="M156.96 50.7412C156.451 51.4734 155.841 52.2125 155.329 52.8304C154.833 53.4276 154.243 54.1338 153.656 54.7344L154.693 58.2204C155.296 57.7046 156.305 56.628 157.392 55.3177C158.479 54.0074 159.372 52.7906 159.799 52.0636L156.96 50.7412Z" fill="url(#paint4_radial_58_22981)"/>
<path fill-rule="evenodd" clip-rule="evenodd" d="M153.655 54.7361H6.34903L5.3125 58.2221C12.3256 58.454 9.44569 58.6098 24.237 58.6098C25.209 58.6098 26.1034 58.6098 26.9317 58.6081C27.7759 58.075 28.6416 57.5315 29.6565 57.0901C29.8819 56.9915 30.3945 56.8686 30.439 57.0607C30.5007 57.329 30.4461 58.0923 30.3887 58.596C38.335 58.5544 148.873 58.4142 154.693 58.2204L153.655 54.7361Z" fill="url(#paint5_linear_58_22981)"/>
<path fill-rule="evenodd" clip-rule="evenodd" d="M6.35011 54.7361C5.76293 54.1355 5.17289 53.4293 4.6776 52.8321C4.16507 52.2142 3.55493 51.4734 3.04672 50.7429L0.207031 52.0671C0.63485 52.794 1.52781 54.0108 2.61459 55.3211C3.70136 56.6314 4.71061 57.708 5.31358 58.2238L6.35011 54.7361Z" fill="url(#paint6_radial_58_22981)"/>
<path opacity="0.2" fill-rule="evenodd" clip-rule="evenodd" d="M24.237 57.4173C5.6269 57.4173 6.34903 56.216 6.34903 54.7361L5.3125 58.2221C12.3256 58.454 9.44569 58.6098 24.237 58.6098C25.209 58.6098 26.1034 58.6098 26.9317 58.6081C27.595 58.1892 28.2726 57.7617 29.0263 57.3861C27.5921 57.4069 26.0014 57.4173 24.237 57.4173ZM30.3873 58.5977C38.3335 58.5562 148.872 58.416 154.692 58.2221L153.655 54.7361C153.655 56.0273 42.672 57.1057 30.4648 57.3601C30.472 57.7115 30.4304 58.2238 30.3873 58.5977Z" fill="#4D5E6E"/>
<path opacity="0.2" fill-rule="evenodd" clip-rule="evenodd" d="M5.31358 0.553711C6.22521 4.70093 2.67919 7.70056 0.207031 6.71049L3.04672 8.03463C3.55493 7.30246 4.16507 6.56336 4.6776 5.94543C5.17289 5.34827 5.76293 4.64207 6.35011 4.04144L5.31358 0.553711Z" fill="#A3C7E2"/>
<path opacity="0.2" fill-rule="evenodd" clip-rule="evenodd" d="M154.693 0.553711C153.781 4.70093 157.327 7.70056 159.799 6.71049L156.96 8.03463C156.451 7.30246 155.841 6.56336 155.329 5.94543C154.833 5.34827 154.243 4.64207 153.656 4.04144L154.693 0.553711Z" fill="#A3C7E2"/>
<path opacity="0.3" fill-rule="evenodd" clip-rule="evenodd" d="M154.693 58.2221C153.781 54.0749 157.327 51.0753 159.799 52.0653L156.96 50.7412C156.451 51.4734 155.841 52.2125 155.329 52.8304C154.833 53.4276 154.243 54.1338 153.656 54.7344L154.693 58.2221Z" fill="#4D5E6E"/>
<path fill-rule="evenodd" clip-rule="evenodd" d="M4.67662 52.8319C5.17191 53.4291 5.76196 54.1353 6.34913 54.7359H153.655C154.242 54.1353 154.831 53.4291 155.328 52.8319C155.84 52.214 156.45 51.4732 156.959 50.7428C157.084 48.5237 157.086 31.5818 157.086 29.3887C157.086 27.1974 157.084 10.2537 156.959 8.03469C156.45 7.30252 155.84 6.56342 155.328 5.94549C154.832 5.34833 154.242 4.64212 153.655 4.0415H6.34913C5.76196 4.64212 5.17191 5.34833 4.67662 5.94549C4.1641 6.56342 3.55395 7.30425 3.04574 8.03469C2.92084 10.2537 2.91797 27.1957 2.91797 29.3887C2.91797 31.58 2.92084 48.5237 3.04574 50.7428C3.55395 51.4732 4.1641 52.214 4.67662 52.8319Z" fill="url(#paint7_linear_58_22981)"/>
<path fill-rule="evenodd" clip-rule="evenodd" d="M156.96 50.7411C156.452 51.4733 155.842 52.2124 155.329 52.8303C154.834 53.4275 154.244 54.1337 153.656 54.7343H20.9062L153.417 55.0147L153.621 55.1757C153.954 56.1086 154.287 57.0398 154.618 57.9728C154.379 57.0156 154.139 56.0567 153.898 55.0995L153.954 54.8018C154.914 53.5452 155.9 52.3179 156.915 51.1254L157.159 51.0527C157.793 51.276 158.424 51.4975 159.057 51.7208C158.469 51.3919 157.88 51.063 157.29 50.7324L157.162 50.4832C157.283 46.1837 157.28 12.639 157.167 8.33768L157.293 8.08498C157.853 7.75438 158.414 7.42376 158.974 7.09316C158.358 7.32336 157.785 7.53627 157.175 7.76474L156.935 7.68859C156.083 6.60679 155.127 5.6046 154.188 4.61279C154.591 5.06109 154.98 5.52845 155.325 5.94386C155.837 6.56179 156.447 7.3026 156.956 8.03304C157.08 10.252 157.083 27.194 157.083 29.3871C157.088 31.5801 157.085 48.5238 156.96 50.7411Z" fill="#71CCCC"/>
<path fill-rule="evenodd" clip-rule="evenodd" d="M6.35016 4.04158H29.9505L6.61001 3.64176L6.40328 3.48424C6.05442 2.56687 5.74432 1.74989 5.3969 0.83252C5.60363 1.80701 5.76299 2.71747 5.96972 3.69196L5.91373 3.99831C5.15284 5.10435 4.06176 6.43715 3.03384 7.57781L2.78692 7.64531C2.01598 7.35972 1.29242 7.14161 0.521484 6.85602C1.24504 7.25758 1.92123 7.65917 2.64479 8.06073L2.77543 8.30997C2.72088 12.658 2.71513 46.1923 2.7783 50.3984L2.65197 50.658C2.20118 50.9505 1.79776 51.2413 1.34697 51.5338C1.84514 51.3815 2.32033 51.2604 2.8185 51.1063L3.06256 51.1877C4.03879 52.3647 5.09254 53.5988 6.04868 54.7758L6.11472 55.0718C6.01709 55.5409 5.95392 55.9182 5.85343 56.4028C6.04006 55.958 6.23818 55.5876 6.42481 55.1428L6.63729 54.9887L19.815 54.7326H6.35016C5.76299 54.1319 5.17294 53.4257 4.67765 52.8286C4.16513 52.2106 3.55498 51.4698 3.04677 50.7394C2.92187 48.5204 2.91899 31.5784 2.91899 29.3853C2.91899 27.194 2.92187 10.2503 3.04677 8.0313C3.55498 7.29913 4.16513 6.56005 4.67765 5.94212C5.17294 5.34842 5.76299 4.64047 6.35016 4.04158Z" fill="#89EFF4"/>
<path fill-rule="evenodd" clip-rule="evenodd" d="M153.657 4.04158L154.693 0.555584L86.0023 0.159202C85.1266 0.159202 84.7303 -0.1264 84.4762 0.0674598C84.2379 0.249204 84.0254 1.03677 83.5215 1.2012C82.5367 1.52315 80.6517 0.443071 79.6597 0.160935C79.4616 0.103815 79.1658 0.160935 78.6318 0.160935C78.0173 0.160935 77.746 0.0224634 77.6096 0.160935C77.4459 0.32537 77.2464 0.702705 77.0454 0.745978C76.5314 0.853293 76.1079 0.299406 75.782 0.160935C75.6772 0.115932 75.3427 0.160935 75.3427 0.160935H33.5572C33.5572 0.160935 32.4158 -0.0173472 32.067 0.160935C31.6277 0.385951 30.9185 1.08351 30.4505 1.14063C29.691 1.23063 28.3659 0.335755 27.6136 0.160935C27.3351 0.0951609 26.4824 0.160935 26.4824 0.160935L5.3125 0.557316L6.34903 4.04332H153.949H153.657V4.04158Z" fill="url(#paint8_linear_58_22981)"/>
<path opacity="0.5" fill-rule="evenodd" clip-rule="evenodd" d="M7.43009 4.00178C8.02013 4.26141 6.80559 4.47087 80.0028 4.47087C153.2 4.47087 151.984 4.26141 152.576 4.00178L152.58 3.99831C125.685 3.76637 136.728 3.6106 80.0028 3.6106C23.278 3.6106 34.3209 3.76637 7.42578 3.99831L7.43009 4.00178Z" fill="#89EFF4"/>
<mask id="mask0_58_22981" style="mask-type:alpha" maskUnits="userSpaceOnUse" x="5" y="0" width="150" height="5">
<path d="M153.657 4.04158L154.693 0.555584L86.0023 0.159202C85.1266 0.159202 84.7303 -0.1264 84.4762 0.0674598C84.2379 0.249204 84.0254 1.03677 83.5215 1.2012C82.5367 1.52315 80.6517 0.443071 79.6597 0.160935C79.4616 0.103815 79.1658 0.160935 78.6318 0.160935C78.0173 0.160935 77.746 0.0224634 77.6096 0.160935C77.4459 0.32537 77.2464 0.702705 77.0454 0.745978C76.5314 0.853293 76.1079 0.299406 75.782 0.160935C75.6772 0.115932 75.3427 0.160935 75.3427 0.160935H33.5572C33.5572 0.160935 32.4158 -0.0173472 32.067 0.160935C31.6277 0.385951 30.9185 1.08351 30.4505 1.14063C29.691 1.23063 28.3659 0.335755 27.6136 0.160935C27.3351 0.0951609 26.4824 0.160935 26.4824 0.160935L5.3125 0.557316L6.34903 4.04332H153.949H153.657V4.04158Z" fill="white"/>
</mask>
<g mask="url(#mask0_58_22981)">
<path opacity="0.5" fill-rule="evenodd" clip-rule="evenodd" d="M74.5163 4.04163C72.2093 3.69372 69.6352 0.984888 71.3034 -0.0778809C58.6138 -0.0640337 12.016 0.3185 5.31445 0.555632L6.35098 4.04163H74.5163Z" fill="url(#paint9_radial_58_22981)"/>
</g>
<g opacity="0.65">
<path fill-rule="evenodd" clip-rule="evenodd" d="M137.638 12.6077C138.367 12.8051 140.182 12.7687 141.068 12.9452C143.705 13.4732 151.285 15.1712 157.142 16.3326C157.124 12.4191 157.094 8.91919 157.042 7.99316C156.534 7.26099 155.924 6.52191 155.411 5.90398C154.916 5.30682 154.326 4.59889 153.739 4H129.682C130.188 4.97276 130.697 5.94379 131.203 6.91655C133.281 9.09575 135.446 10.9115 137.638 12.6077Z" fill="url(#paint10_radial_58_22981)"/>
<path fill-rule="evenodd" clip-rule="evenodd" d="M60.0229 14.4217C60.8096 14.8873 60.7579 14.5394 60.7766 13.7155C60.8397 10.7955 60.8225 7.39082 60.6287 4H42.2598C44.4635 5.14758 47.4194 6.54093 50.2405 8.15586C54.6636 10.6899 58.6619 13.6324 60.0229 14.4217Z" fill="url(#paint11_radial_58_22981)"/>
<path fill-rule="evenodd" clip-rule="evenodd" d="M61.1636 14.0011C61.1335 14.8838 60.9827 15.1746 62.1643 16.1266C69.1127 21.7278 75.095 27.9815 79.6216 35.459C80.3825 36.7139 80.4657 36.9718 81.2869 36.9077C98.0896 27.0434 116.046 19.5746 135.074 13.5874C136.117 13.2603 136.592 12.8985 136.596 12.7462C136.6 12.58 136.128 12.0123 135.297 11.2611C133.745 9.85734 132.17 8.50896 130.558 7.25233C130.215 6.31592 129.751 5.15797 129.223 4H60.7344C61.0387 6.33671 61.2727 10.7418 61.1636 14.0011Z" fill="url(#paint12_radial_58_22981)"/>
<path fill-rule="evenodd" clip-rule="evenodd" d="M15.1388 44.3108C12.2302 42.7668 9.25988 46.0676 6.46614 47.9993C7.89747 46.6215 9.20102 45.4774 10.6323 44.2831C12.2718 42.914 13.228 42.8776 11.5167 41.0775C8.52197 37.9255 5.93352 35.3932 3.00195 32.7778C3.0077 38.469 3.03067 48.9859 3.12829 50.703C3.6365 51.4351 4.24665 52.1742 4.75917 52.7922C5.25446 53.3893 5.84451 54.0955 6.43168 54.6961H40.2897C34.8802 53.372 29.5971 51.8731 24.5724 50.0158C21.5015 47.9803 18.3833 46.0313 15.1388 44.3108Z" fill="url(#paint13_radial_58_22981)"/>
<path fill-rule="evenodd" clip-rule="evenodd" d="M79.5265 38.7685C79.8739 37.3872 79.8825 37.0081 79.0039 35.5576C72.3569 24.5907 60.3895 14.2728 50.1089 8.42242C47.1328 6.72788 43.8969 5.26355 40.9194 4H6.43116C5.84399 4.60062 5.25395 5.30682 4.75865 5.90398C4.24613 6.52191 3.63599 7.26273 3.12777 7.99316C3.00287 10.2122 3 27.1542 3 29.3472C3 29.7626 3 30.7094 3.00143 31.9833C6.59626 35.5784 10.2916 39.0038 14.0601 42.3064C17.3793 45.0343 21.023 47.2169 24.915 48.979C30.244 51.3122 35.7899 53.1245 41.4362 54.6927H67.0752C67.6337 53.5728 68.1692 52.2192 68.5568 51.3486C72.8249 47.101 76.46 42.9088 79.5265 38.7685Z" fill="url(#paint14_radial_58_22981)"/>
<path fill-rule="evenodd" clip-rule="evenodd" d="M157.143 16.4885C157.143 16.5889 157.145 16.6875 157.145 16.7897C153.072 16.0558 148.097 15.1921 144.095 14.4703C139.68 13.6741 138.816 13.1236 134.368 14.3162C121.034 17.894 93.1225 31.0436 82.628 37.0221C80.7287 38.1039 80.5851 38.5591 79.1079 40.3229C75.8648 44.1966 72.6045 47.8834 69.2422 51.5062C68.7412 52.6226 68.2473 53.7737 67.8984 54.6962H153.736C154.324 54.0956 154.914 53.3894 155.409 52.7922C155.439 52.7559 155.475 52.7109 155.507 52.6728C155.364 52.6745 155.221 52.6763 155.08 52.678C155.231 52.6676 155.376 52.6607 155.525 52.6503L155.524 52.652C156.012 52.0618 156.568 51.3833 157.041 50.7031C157.166 48.4841 157.169 31.5421 157.169 29.349C157.169 28.0837 157.168 21.9131 157.143 16.4885Z" fill="url(#paint15_radial_58_22981)"/>
</g>
<path opacity="0.25" fill-rule="evenodd" clip-rule="evenodd" d="M149.647 42.1629C148.012 42.542 146.273 45.8947 145.884 47.8679C145.479 49.9225 146.236 51.0234 147.05 50.6374C148.856 49.7806 153.951 47.2864 154.291 44.6485C154.463 43.307 153.908 42.1075 152.726 41.86C151.711 41.6471 150.658 41.9293 149.647 42.1629Z" fill="#BDC8C9"/>
<path fill-rule="evenodd" clip-rule="evenodd" d="M149.383 41.8045C147.748 42.1836 146.009 45.5363 145.62 47.5095C145.216 49.5641 145.972 50.665 146.786 50.279C148.592 49.4222 153.687 46.928 154.027 44.2901C154.2 42.9486 153.644 41.7491 152.463 41.5016C151.448 41.2887 150.395 41.5709 149.383 41.8045Z" fill="url(#paint16_radial_58_22981)"/>
<path opacity="0.35" fill-rule="evenodd" clip-rule="evenodd" d="M20.9867 20.2204C20.5589 20.1685 20.0521 20.371 19.7794 20.7726C19.2037 21.6207 18.7917 22.6662 18.5978 23.7358C18.394 24.8592 19.9962 25.9324 20.7599 25.967C21.3729 25.9947 22.0936 25.7108 22.4583 25.1171C23.0426 24.1686 22.1898 20.3675 20.9867 20.2204Z" fill="#BDC8C9"/>
<path fill-rule="evenodd" clip-rule="evenodd" d="M20.7231 19.862C20.2953 19.8101 19.7885 20.0126 19.5157 20.4142C18.94 21.2623 18.528 22.3078 18.3342 23.3775C18.1303 24.5008 19.7325 25.574 20.4962 25.6086C21.1093 25.6363 21.8299 25.3524 22.1946 24.7587C22.7789 23.8102 21.9247 20.0091 20.7231 19.862Z" fill="url(#paint17_radial_58_22981)"/>
<path opacity="0.3" fill-rule="evenodd" clip-rule="evenodd" d="M12.2869 9.81935C11.0292 10.195 9.74004 10.8354 8.81549 11.9293C7.70862 13.2396 6.28878 17.3574 7.10565 19.161C7.56218 20.1684 8.5097 21.0425 9.46009 21.11C10.9187 21.2138 12.5036 20.6963 13.6665 19.6301C14.7892 18.6019 15.3706 17.1168 16.242 15.7788C16.8019 14.9186 17.4594 14.0652 17.9088 13.115C18.6754 11.4983 17.425 9.82628 16.4588 9.62722C14.8638 9.30182 13.8603 9.34855 12.2869 9.81935Z" fill="#BDC8C9"/>
<path fill-rule="evenodd" clip-rule="evenodd" d="M12.0232 9.4609C10.7656 9.83651 9.47637 10.4769 8.55182 11.5709C7.44495 12.8811 6.02511 16.9989 6.84198 18.8025C7.29851 19.8099 8.24603 20.684 9.19642 20.7515C10.655 20.8554 12.24 20.3378 13.4028 19.2716C14.5255 18.2435 15.1069 16.7584 15.9784 15.4204C16.5383 14.5601 17.1958 13.7068 17.6451 12.7565C18.4118 11.1399 17.1613 9.46783 16.1951 9.26878C14.6001 8.94337 13.5966 8.99183 12.0232 9.4609Z" fill="url(#paint18_radial_58_22981)"/>
<g opacity="0.35">
<path fill-rule="evenodd" clip-rule="evenodd" d="M79.0263 40.3628C80.5021 38.5991 80.6471 38.1456 82.5465 37.062C93.0395 31.0818 120.951 17.9339 134.287 14.3562C138.734 13.1636 139.599 13.7123 144.013 14.5102C148.016 15.232 152.99 16.0957 157.063 16.8296C157.063 16.6755 157.062 16.5267 157.06 16.3727C151.204 15.2112 143.623 13.5132 140.985 12.9853C140.1 12.807 138.285 12.8434 137.556 12.646C135.363 10.9498 133.198 9.13406 131.12 6.95659C130.613 5.98383 130.105 5.0128 129.598 4.04004H129.141C129.67 5.19801 130.133 6.35769 130.477 7.29237C132.089 8.549 133.665 9.89738 135.216 11.3011C136.047 12.0523 136.519 12.6201 136.515 12.7862C136.51 12.9385 136.035 13.3003 134.993 13.6274C115.965 19.6146 98.0082 27.0834 81.2056 36.9478C80.3844 37.0118 80.3011 36.7539 79.5402 35.499C75.0122 28.0216 69.0314 21.7678 62.0829 16.1667C60.9014 15.2147 61.0521 14.9239 61.0823 14.0411C61.1914 10.7819 60.9574 6.37675 60.653 4.04004H60.5482C60.7406 7.43086 60.7593 10.8355 60.6961 13.7555C60.6774 14.5795 60.7291 14.9274 59.9424 14.4617C58.5814 13.6725 54.5832 10.7282 50.16 8.19763C47.3375 6.5827 44.383 5.1876 42.1793 4.04175H40.8398C43.8173 5.3053 47.0518 6.76965 50.0293 8.46419C60.3099 14.3146 72.2774 24.6325 78.9243 35.5994C79.8029 37.0499 79.7958 37.4307 79.4469 38.8102C76.3804 42.9488 72.7439 47.141 68.4772 51.3921C68.0896 52.2627 67.5541 53.6163 66.9957 54.7362H67.8197C68.1686 53.8136 68.6624 52.6643 69.1635 51.5461C72.5228 47.9234 75.7832 44.2383 79.0263 40.3628Z" fill="url(#paint19_radial_58_22981)"/>
<path opacity="0.5" fill-rule="evenodd" clip-rule="evenodd" d="M24.8334 49.0225C20.9414 47.2605 17.2992 45.0778 13.9786 42.3499C10.2101 39.0474 6.51475 35.6219 2.91992 32.0269C2.91992 32.2726 2.91992 32.5496 2.92136 32.8179C5.85292 35.4332 8.44137 37.9638 11.4361 41.1175C13.1459 42.9194 12.1898 42.954 10.5518 44.3231C9.12043 45.5192 7.81687 46.6633 6.38554 48.0394C9.17929 46.1059 12.1482 42.8069 15.0582 44.3508C18.3027 46.073 21.4209 48.0221 24.4918 50.0576C29.515 51.9131 34.7996 53.412 40.2091 54.7379H41.3562C35.7084 53.1663 30.164 51.354 24.8334 49.0225Z" fill="url(#paint20_radial_58_22981)"/>
<path opacity="0.5" fill-rule="evenodd" clip-rule="evenodd" d="M154.998 52.7179C155.14 52.7162 155.282 52.7144 155.424 52.7127C155.43 52.7058 155.437 52.6971 155.443 52.6902C155.294 52.6988 155.149 52.7075 154.998 52.7179Z" fill="url(#paint21_radial_58_22981)"/>
</g>
<path d="M31.0201 43V17.942H51.0461L54.8201 21.172V32.834L51.0461 36.03H40.7101V43H31.0201ZM40.7101 30.862H45.5041V23.144H40.7101V30.862ZM57.4245 43V17.942H67.1145V35.928H77.1445V43H57.4245ZM79.1827 43L84.7247 17.942H101.487L106.995 43H96.8627L96.2847 39.294H89.8927L89.3147 43H79.1827ZM90.8787 33.14H95.2987L93.8027 23.688H92.3747L90.8787 33.14ZM113.138 43V35.52L107.732 30.794L105.658 17.942H115.484L117.184 30.522H118.612L120.278 17.942H130.104L128.064 30.794L122.624 35.52V43H113.138Z" fill="white"/>
<path d="M31.0201 43H29.0201V45H31.0201V43ZM31.0201 17.942V15.942H29.0201V17.942H31.0201ZM51.0461 17.942L52.3465 16.4225L51.7851 15.942H51.0461V17.942ZM54.8201 21.172H56.8201V20.2512L56.1205 19.6525L54.8201 21.172ZM54.8201 32.834L56.1126 34.3603L56.8201 33.7611V32.834H54.8201ZM51.0461 36.03V38.03H51.7792L52.3386 37.5562L51.0461 36.03ZM40.7101 36.03V34.03H38.7101V36.03H40.7101ZM40.7101 43V45H42.7101V43H40.7101ZM40.7101 30.862H38.7101V32.862H40.7101V30.862ZM45.5041 30.862V32.862H47.5041V30.862H45.5041ZM45.5041 23.144H47.5041V21.144H45.5041V23.144ZM40.7101 23.144V21.144H38.7101V23.144H40.7101ZM33.0201 43V17.942H29.0201V43H33.0201ZM31.0201 19.942H51.0461V15.942H31.0201V19.942ZM49.7456 19.4615L53.5196 22.6915L56.1205 19.6525L52.3465 16.4225L49.7456 19.4615ZM52.8201 21.172V32.834H56.8201V21.172H52.8201ZM53.5276 31.3077L49.7536 34.5037L52.3386 37.5562L56.1126 34.3603L53.5276 31.3077ZM51.0461 34.03H40.7101V38.03H51.0461V34.03ZM38.7101 36.03V43H42.7101V36.03H38.7101ZM40.7101 41H31.0201V45H40.7101V41ZM40.7101 32.862H45.5041V28.862H40.7101V32.862ZM47.5041 30.862V23.144H43.5041V30.862H47.5041ZM45.5041 21.144H40.7101V25.144H45.5041V21.144ZM38.7101 23.144V30.862H42.7101V23.144H38.7101ZM57.4245 43H55.4245V45H57.4245V43ZM57.4245 17.942V15.942H55.4245V17.942H57.4245ZM67.1145 17.942H69.1145V15.942H67.1145V17.942ZM67.1145 35.928H65.1145V37.928H67.1145V35.928ZM77.1445 35.928H79.1445V33.928H77.1445V35.928ZM77.1445 43V45H79.1445V43H77.1445ZM59.4245 43V17.942H55.4245V43H59.4245ZM57.4245 19.942H67.1145V15.942H57.4245V19.942ZM65.1145 17.942V35.928H69.1145V17.942H65.1145ZM67.1145 37.928H77.1445V33.928H67.1145V37.928ZM75.1445 35.928V43H79.1445V35.928H75.1445ZM77.1445 41H57.4245V45H77.1445V41ZM79.1827 43L77.2299 42.5681L76.692 45H79.1827V43ZM84.7247 17.942V15.942H83.1187L82.7719 17.5101L84.7247 17.942ZM101.487 17.942L103.44 17.5126L103.095 15.942H101.487V17.942ZM106.995 43V45H109.482L108.948 42.5706L106.995 43ZM96.8627 43L94.8866 43.3082L95.1504 45H96.8627V43ZM96.2847 39.294L98.2608 38.9858L97.9969 37.294H96.2847V39.294ZM89.8927 39.294V37.294H88.1804L87.9166 38.9858L89.8927 39.294ZM89.3147 43V45H91.0269L91.2908 43.3082L89.3147 43ZM90.8787 33.14L88.9033 32.8273L88.5372 35.14H90.8787V33.14ZM95.2987 33.14V35.14H97.6401L97.2741 32.8273L95.2987 33.14ZM93.8027 23.688L95.7781 23.3753L95.511 21.688H93.8027V23.688ZM92.3747 23.688V21.688H90.6663L90.3993 23.3753L92.3747 23.688ZM81.1355 43.4319L86.6775 18.3739L82.7719 17.5101L77.2299 42.5681L81.1355 43.4319ZM84.7247 19.942H101.487V15.942H84.7247V19.942ZM99.5333 18.3714L105.041 43.4294L108.948 42.5706L103.44 17.5126L99.5333 18.3714ZM106.995 41H96.8627V45H106.995V41ZM98.8388 42.6918L98.2608 38.9858L94.3086 39.6022L94.8866 43.3082L98.8388 42.6918ZM96.2847 37.294H89.8927V41.294H96.2847V37.294ZM87.9166 38.9858L87.3386 42.6918L91.2908 43.3082L91.8688 39.6022L87.9166 38.9858ZM89.3147 41H79.1827V45H89.3147V41ZM90.8787 35.14H95.2987V31.14H90.8787V35.14ZM97.2741 32.8273L95.7781 23.3753L91.8273 24.0007L93.3233 33.4527L97.2741 32.8273ZM93.8027 21.688H92.3747V25.688H93.8027V21.688ZM90.3993 23.3753L88.9033 32.8273L92.8541 33.4527L94.3501 24.0007L90.3993 23.3753ZM113.138 43H111.138V45H113.138V43ZM113.138 35.52H115.138V34.6119L114.455 34.0143L113.138 35.52ZM107.732 30.794L105.758 31.1126L105.873 31.8249L106.416 32.2997L107.732 30.794ZM105.658 17.942V15.942H103.31L103.684 18.2606L105.658 17.942ZM115.484 17.942L117.466 17.6742L117.232 15.942H115.484V17.942ZM117.184 30.522L115.202 30.7898L115.436 32.522H117.184V30.522ZM118.612 30.522V32.522H120.365L120.595 30.7846L118.612 30.522ZM120.278 17.942V15.942H118.526L118.296 17.6794L120.278 17.942ZM130.104 17.942L132.08 18.2555L132.447 15.942H130.104V17.942ZM128.064 30.794L129.376 32.3038L129.925 31.8264L130.04 31.1075L128.064 30.794ZM122.624 35.52L121.313 34.0102L120.624 34.6082V35.52H122.624ZM122.624 43V45H124.624V43H122.624ZM115.138 43V35.52H111.138V43H115.138ZM114.455 34.0143L109.049 29.2883L106.416 32.2997L111.822 37.0257L114.455 34.0143ZM109.707 30.4754L107.633 17.6234L103.684 18.2606L105.758 31.1126L109.707 30.4754ZM105.658 19.942H115.484V15.942H105.658V19.942ZM113.502 18.2098L115.202 30.7898L119.166 30.2542L117.466 17.6742L113.502 18.2098ZM117.184 32.522H118.612V28.522H117.184V32.522ZM120.595 30.7846L122.261 18.2046L118.296 17.6794L116.63 30.2594L120.595 30.7846ZM120.278 19.942H130.104V15.942H120.278V19.942ZM128.129 17.6285L126.089 30.4805L130.04 31.1075L132.08 18.2555L128.129 17.6285ZM126.753 29.2842L121.313 34.0102L123.936 37.0298L129.376 32.3038L126.753 29.2842ZM120.624 35.52V43H124.624V35.52H120.624ZM122.624 41H113.138V45H122.624V41Z" fill="black"/>
<defs>
<linearGradient id="paint0_linear_58_22981" x1="0.000789599" y1="29.3883" x2="3.04657" y2="29.3883" gradientUnits="userSpaceOnUse">
<stop stop-color="#6B7A9E"/>
<stop offset="1" stop-color="#99AAC9"/>
</linearGradient>
<radialGradient id="paint1_radial_58_22981" cx="0" cy="0" r="1" gradientUnits="userSpaceOnUse" gradientTransform="translate(0.0700743 -5.32632) scale(23.8792 28.7903)">
<stop stop-color="#829BBA"/>
<stop offset="1" stop-color="#5B597D"/>
</radialGradient>
<radialGradient id="paint2_radial_58_22981" cx="0" cy="0" r="1" gradientUnits="userSpaceOnUse" gradientTransform="translate(146.692 13.4196) scale(17.6604 21.2925)">
<stop stop-color="#829BBA"/>
<stop offset="1" stop-color="#5B597D"/>
</radialGradient>
<linearGradient id="paint3_linear_58_22981" x1="156.959" y1="29.388" x2="160" y2="29.388" gradientUnits="userSpaceOnUse">
<stop stop-color="#4A4D61"/>
<stop offset="1" stop-color="#46435E"/>
</linearGradient>
<radialGradient id="paint4_radial_58_22981" cx="0" cy="0" r="1" gradientUnits="userSpaceOnUse" gradientTransform="translate(143.61 40.1159) scale(22.2737 26.8545)">
<stop stop-color="#6B6F8C"/>
<stop offset="1" stop-color="#46435E"/>
</radialGradient>
<linearGradient id="paint5_linear_58_22981" x1="80.0022" y1="58.61" x2="80.0022" y2="54.7357" gradientUnits="userSpaceOnUse">
<stop stop-color="#46435E"/>
<stop offset="1" stop-color="#4A4D61"/>
</linearGradient>
<radialGradient id="paint6_radial_58_22981" cx="0" cy="0" r="1" gradientUnits="userSpaceOnUse" gradientTransform="translate(2.95057 50.528) scale(13.5321 16.3152)">
<stop stop-color="#6B6F8C"/>
<stop offset="1" stop-color="#46435E"/>
</radialGradient>
<linearGradient id="paint7_linear_58_22981" x1="127.387" y1="86.5182" x2="15.0966" y2="-6.61749" gradientUnits="userSpaceOnUse">
<stop stop-color="#545E7A"/>
<stop offset="1" stop-color="#8E9DBA"/>
</linearGradient>
<linearGradient id="paint8_linear_58_22981" x1="80.0036" y1="4.04077" x2="80.0036" y2="-0.000684608" gradientUnits="userSpaceOnUse">
<stop stop-color="#99AAC9"/>
<stop offset="1" stop-color="#515D7D"/>
</linearGradient>
<radialGradient id="paint9_radial_58_22981" cx="0" cy="0" r="1" gradientUnits="userSpaceOnUse" gradientTransform="translate(0.0370279 -4.34757) scale(112.349 144.054)">
<stop offset="7e-08" stop-color="#DBEAFF"/>
<stop offset="0.0575" stop-color="#CDDBEF"/>
<stop offset="0.5299" stop-color="#606770"/>
<stop offset="0.853" stop-color="#1B1D1F"/>
<stop offset="1"/>
</radialGradient>
<radialGradient id="paint10_radial_58_22981" cx="0" cy="0" r="1" gradientUnits="userSpaceOnUse" gradientTransform="translate(132.428 27.912) scale(60.5228 72.9702)">
<stop stop-color="#8E9DBA"/>
<stop offset="1" stop-color="#545E7A"/>
</radialGradient>
<radialGradient id="paint11_radial_58_22981" cx="0" cy="0" r="1" gradientUnits="userSpaceOnUse" gradientTransform="translate(49.9526 22.9865) scale(67.232 81.0592)">
<stop stop-color="#8E9DBA"/>
<stop offset="1" stop-color="#545E7A"/>
</radialGradient>
<radialGradient id="paint12_radial_58_22981" cx="0" cy="0" r="1" gradientUnits="userSpaceOnUse" gradientTransform="translate(87.0233 40.5879) scale(100.127 120.719)">
<stop stop-color="#8E9DBA"/>
<stop offset="1" stop-color="#545E7A"/>
</radialGradient>
<radialGradient id="paint13_radial_58_22981" cx="0" cy="0" r="1" gradientUnits="userSpaceOnUse" gradientTransform="translate(25.6014 43.1004) scale(77.6134 93.5757)">
<stop stop-color="#8E9DBA"/>
<stop offset="1" stop-color="#545E7A"/>
</radialGradient>
<radialGradient id="paint14_radial_58_22981" cx="0" cy="0" r="1" gradientUnits="userSpaceOnUse" gradientTransform="translate(34.2536 65.2732) scale(185.928 224.167)">
<stop stop-color="#8E9DBA"/>
<stop offset="1" stop-color="#545E7A"/>
</radialGradient>
<radialGradient id="paint15_radial_58_22981" cx="0" cy="0" r="1" gradientUnits="userSpaceOnUse" gradientTransform="translate(112.842 79.4933) scale(109.308 131.788)">
<stop stop-color="#8E9DBA"/>
<stop offset="1" stop-color="#545E7A"/>
</radialGradient>
<radialGradient id="paint16_radial_58_22981" cx="0" cy="0" r="1" gradientUnits="userSpaceOnUse" gradientTransform="translate(154.511 54.7349) scale(12.1122 14.6032)">
<stop stop-color="#8C9AB8"/>
<stop offset="1" stop-color="#586280"/>
</radialGradient>
<radialGradient id="paint17_radial_58_22981" cx="0" cy="0" r="1" gradientUnits="userSpaceOnUse" gradientTransform="translate(22.2487 27.8778) scale(8.61192 10.3831)">
<stop stop-color="#9EAECF"/>
<stop offset="1" stop-color="#647091"/>
</radialGradient>
<radialGradient id="paint18_radial_58_22981" cx="0" cy="0" r="1" gradientUnits="userSpaceOnUse" gradientTransform="translate(18.4564 24.544) scale(18.7725 22.6334)">
<stop stop-color="#9EAECF"/>
<stop offset="1" stop-color="#647091"/>
</radialGradient>
<radialGradient id="paint19_radial_58_22981" cx="0" cy="0" r="1" gradientUnits="userSpaceOnUse" gradientTransform="translate(57.9162 -28.3419) scale(136.947 165.112)">
<stop stop-color="#E2F1F7"/>
<stop offset="1" stop-color="#9A9DB5"/>
</radialGradient>
<radialGradient id="paint20_radial_58_22981" cx="0" cy="0" r="1" gradientUnits="userSpaceOnUse" gradientTransform="translate(8.56763 17.518) scale(51.0776 61.5825)">
<stop stop-color="#E2F1F7"/>
<stop offset="1" stop-color="#9A9DB5"/>
</radialGradient>
<radialGradient id="paint21_radial_58_22981" cx="0" cy="0" r="1" gradientUnits="userSpaceOnUse" gradientTransform="translate(155.064 52.6718) scale(0.432801 0.521928)">
<stop stop-color="#E2F1F7"/>
<stop offset="1" stop-color="#9A9DB5"/>
</radialGradient>
</defs>
</svg>
