<svg width="256" height="63" viewBox="0 0 256 63" fill="none" xmlns="http://www.w3.org/2000/svg">
<rect x="0.5" y="0.5" width="254.87" height="61.4903" rx="19.5" fill="#06A589" stroke="black"/>
<path d="M56.9976 39.3439C55.0736 39.3439 53.4876 39.0839 52.2396 38.5639C50.9916 38.0439 50.0556 37.3592 49.4316 36.5099C48.8076 35.6605 48.4783 34.7592 48.4436 33.8059C48.4436 33.6499 48.4956 33.5199 48.5996 33.4159C48.7209 33.2945 48.8596 33.2339 49.0156 33.2339H53.9556C54.2329 33.2339 54.4409 33.2772 54.5796 33.3639C54.7356 33.4332 54.9003 33.5372 55.0736 33.6759C55.2469 33.7972 55.4203 33.9099 55.5936 34.0139C55.7843 34.1005 55.9923 34.1699 56.2176 34.2219C56.4603 34.2565 56.7203 34.2739 56.9976 34.2739C57.5869 34.2739 58.0549 34.2132 58.4016 34.0919C58.7656 33.9532 58.9476 33.7712 58.9476 33.5459C58.9476 33.3379 58.8436 33.1645 58.6356 33.0259C58.4449 32.8872 58.1069 32.7659 57.6216 32.6619C57.1363 32.5405 56.4603 32.4279 55.5936 32.3239C54.2243 32.1332 53.0369 31.8125 52.0316 31.3619C51.0263 30.9112 50.2463 30.2959 49.6916 29.5159C49.1543 28.7185 48.8856 27.7479 48.8856 26.6039C48.8856 25.4252 49.2149 24.3852 49.8736 23.4839C50.5496 22.5825 51.4769 21.8805 52.6556 21.3779C53.8516 20.8752 55.2383 20.6239 56.8156 20.6239C58.1156 20.6239 59.2683 20.7972 60.2736 21.1439C61.2789 21.4732 62.1283 21.9152 62.8216 22.4699C63.5149 23.0072 64.0436 23.5879 64.4076 24.2119C64.7716 24.8359 64.9623 25.4339 64.9796 26.0059C64.9796 26.1619 64.9189 26.3005 64.7976 26.4219C64.6936 26.5259 64.5723 26.5779 64.4336 26.5779H59.2336C58.9909 26.5779 58.7916 26.5432 58.6356 26.4739C58.4969 26.4045 58.3496 26.3005 58.1936 26.1619C58.1069 26.0752 57.9423 25.9799 57.6996 25.8759C57.4743 25.7545 57.1796 25.6939 56.8156 25.6939C56.3823 25.6939 56.0616 25.7632 55.8536 25.9019C55.6629 26.0232 55.5676 26.1965 55.5676 26.4219C55.5676 26.5779 55.6456 26.7252 55.8016 26.8639C55.9576 27.0025 56.2436 27.1239 56.6596 27.2279C57.0756 27.3319 57.6736 27.4359 58.4536 27.5399C60.1869 27.7479 61.5736 28.0859 62.6136 28.5539C63.6709 29.0045 64.4336 29.6112 64.9016 30.3739C65.3869 31.1365 65.6296 32.0812 65.6296 33.2079C65.6296 34.4732 65.2483 35.5652 64.4856 36.4839C63.7403 37.4025 62.7176 38.1132 61.4176 38.6159C60.1176 39.1012 58.6443 39.3439 56.9976 39.3439ZM70.7065 39.0839C70.5158 39.0839 70.3512 39.0145 70.2125 38.8759C70.0738 38.7372 70.0045 38.5725 70.0045 38.3819V21.5859C70.0045 21.3952 70.0738 21.2305 70.2125 21.0919C70.3512 20.9532 70.5158 20.8839 70.7065 20.8839H84.0445C84.2352 20.8839 84.3998 20.9532 84.5385 21.0919C84.6772 21.2305 84.7465 21.3952 84.7465 21.5859V25.2519C84.7465 25.4425 84.6772 25.6072 84.5385 25.7459C84.3998 25.8845 84.2352 25.9539 84.0445 25.9539H76.2445V27.5919H83.4725C83.6632 27.5919 83.8278 27.6612 83.9665 27.7999C84.1052 27.9385 84.1745 28.1032 84.1745 28.2939V31.6739C84.1745 31.8645 84.1052 32.0292 83.9665 32.1679C83.8278 32.3065 83.6632 32.3759 83.4725 32.3759H76.2445V34.0139H84.2525C84.4432 34.0139 84.6078 34.0832 84.7465 34.2219C84.8852 34.3605 84.9545 34.5252 84.9545 34.7159V38.3819C84.9545 38.5725 84.8852 38.7372 84.7465 38.8759C84.6078 39.0145 84.4432 39.0839 84.2525 39.0839H70.7065ZM90.5183 39.0839C90.3276 39.0839 90.163 39.0145 90.0243 38.8759C89.8856 38.7372 89.8163 38.5725 89.8163 38.3819V21.5859C89.8163 21.3952 89.8856 21.2305 90.0243 21.0919C90.163 20.9532 90.3276 20.8839 90.5183 20.8839H95.7183C95.909 20.8839 96.0736 20.9532 96.2123 21.0919C96.351 21.2305 96.4203 21.3952 96.4203 21.5859V33.7539H103.622C103.813 33.7539 103.978 33.8232 104.116 33.9619C104.255 34.1005 104.324 34.2652 104.324 34.4559V38.3819C104.324 38.5725 104.255 38.7372 104.116 38.8759C103.978 39.0145 103.813 39.0839 103.622 39.0839H90.5183ZM109.264 39.0839C109.073 39.0839 108.908 39.0145 108.77 38.8759C108.631 38.7372 108.562 38.5725 108.562 38.3819V21.5859C108.562 21.3952 108.631 21.2305 108.77 21.0919C108.908 20.9532 109.073 20.8839 109.264 20.8839H122.602C122.792 20.8839 122.957 20.9532 123.096 21.0919C123.234 21.2305 123.304 21.3952 123.304 21.5859V25.2519C123.304 25.4425 123.234 25.6072 123.096 25.7459C122.957 25.8845 122.792 25.9539 122.602 25.9539H114.802V27.5919H122.03C122.22 27.5919 122.385 27.6612 122.524 27.7999C122.662 27.9385 122.732 28.1032 122.732 28.2939V31.6739C122.732 31.8645 122.662 32.0292 122.524 32.1679C122.385 32.3065 122.22 32.3759 122.03 32.3759H114.802V34.0139H122.81C123 34.0139 123.165 34.0832 123.304 34.2219C123.442 34.3605 123.512 34.5252 123.512 34.7159V38.3819C123.512 38.5725 123.442 38.7372 123.304 38.8759C123.165 39.0145 123 39.0839 122.81 39.0839H109.264ZM136.489 39.3439C134.825 39.3439 133.351 39.1012 132.069 38.6159C130.786 38.1305 129.763 37.3679 129.001 36.3279C128.255 35.2879 127.848 33.9445 127.779 32.2979C127.761 31.5872 127.753 30.8245 127.753 30.0099C127.753 29.1952 127.761 28.4152 127.779 27.6699C127.848 26.0579 128.264 24.7319 129.027 23.6919C129.807 22.6519 130.838 21.8805 132.121 21.3779C133.421 20.8752 134.877 20.6239 136.489 20.6239C137.598 20.6239 138.664 20.7539 139.687 21.0139C140.727 21.2565 141.663 21.6465 142.495 22.1839C143.327 22.7212 143.985 23.4145 144.471 24.2639C144.973 25.0959 145.233 26.1012 145.251 27.2799C145.251 27.4359 145.19 27.5745 145.069 27.6959C144.965 27.7999 144.835 27.8519 144.679 27.8519H139.375C139.097 27.8519 138.889 27.7999 138.751 27.6959C138.629 27.5745 138.517 27.3752 138.413 27.0979C138.222 26.5432 137.962 26.1705 137.633 25.9799C137.303 25.7892 136.913 25.6939 136.463 25.6939C135.891 25.6939 135.431 25.8499 135.085 26.1619C134.755 26.4565 134.573 27.0025 134.539 27.7999C134.487 29.2212 134.487 30.6772 134.539 32.1679C134.573 32.9652 134.755 33.5199 135.085 33.8319C135.431 34.1265 135.891 34.2739 136.463 34.2739C136.913 34.2739 137.303 34.1699 137.633 33.9619C137.979 33.7539 138.239 33.3899 138.413 32.8699C138.499 32.5752 138.612 32.3759 138.751 32.2719C138.889 32.1679 139.097 32.1159 139.375 32.1159H144.679C144.835 32.1159 144.965 32.1765 145.069 32.2979C145.19 32.4019 145.251 32.5319 145.251 32.6879C145.233 33.8665 144.973 34.8805 144.471 35.7299C143.985 36.5619 143.327 37.2465 142.495 37.7839C141.663 38.3212 140.727 38.7199 139.687 38.9799C138.664 39.2225 137.598 39.3439 136.489 39.3439ZM154.517 39.0839C154.326 39.0839 154.162 39.0145 154.023 38.8759C153.884 38.7372 153.815 38.5725 153.815 38.3819V26.4739H149.499C149.308 26.4739 149.144 26.4045 149.005 26.2659C148.866 26.1272 148.797 25.9625 148.797 25.7719V21.5859C148.797 21.3952 148.866 21.2305 149.005 21.0919C149.144 20.9532 149.308 20.8839 149.499 20.8839H164.735C164.926 20.8839 165.09 20.9532 165.229 21.0919C165.368 21.2305 165.437 21.3952 165.437 21.5859V25.7719C165.437 25.9625 165.368 26.1272 165.229 26.2659C165.09 26.4045 164.926 26.4739 164.735 26.4739H160.419V38.3819C160.419 38.5725 160.35 38.7372 160.211 38.8759C160.072 39.0145 159.908 39.0839 159.717 39.0839H154.517ZM170.476 39.0839C170.286 39.0839 170.121 39.0145 169.982 38.8759C169.844 38.7372 169.774 38.5725 169.774 38.3819V21.5859C169.774 21.3952 169.844 21.2305 169.982 21.0919C170.121 20.9532 170.286 20.8839 170.476 20.8839H183.814C184.005 20.8839 184.17 20.9532 184.308 21.0919C184.447 21.2305 184.516 21.3952 184.516 21.5859V25.2519C184.516 25.4425 184.447 25.6072 184.308 25.7459C184.17 25.8845 184.005 25.9539 183.814 25.9539H176.014V27.5919H183.242C183.433 27.5919 183.598 27.6612 183.736 27.7999C183.875 27.9385 183.944 28.1032 183.944 28.2939V31.6739C183.944 31.8645 183.875 32.0292 183.736 32.1679C183.598 32.3065 183.433 32.3759 183.242 32.3759H176.014V34.0139H184.022C184.213 34.0139 184.378 34.0832 184.516 34.2219C184.655 34.3605 184.724 34.5252 184.724 34.7159V38.3819C184.724 38.5725 184.655 38.7372 184.516 38.8759C184.378 39.0145 184.213 39.0839 184.022 39.0839H170.476ZM190.288 39.0839C190.098 39.0839 189.933 39.0145 189.794 38.8759C189.656 38.7372 189.586 38.5725 189.586 38.3819V21.5859C189.586 21.3952 189.656 21.2305 189.794 21.0919C189.933 20.9532 190.098 20.8839 190.288 20.8839H197.776C199.406 20.8839 200.862 21.1612 202.144 21.7159C203.427 22.2532 204.45 23.0505 205.212 24.1079C205.992 25.1652 206.408 26.4739 206.46 28.0339C206.495 28.7792 206.512 29.4379 206.512 30.0099C206.512 30.5645 206.495 31.1972 206.46 31.9079C206.391 33.5372 205.992 34.8892 205.264 35.9639C204.536 37.0212 203.54 37.8099 202.274 38.3299C201.026 38.8325 199.57 39.0839 197.906 39.0839H190.288ZM196.086 34.0139H197.776C198.158 34.0139 198.496 33.9445 198.79 33.8059C199.102 33.6499 199.354 33.4159 199.544 33.1039C199.735 32.7919 199.839 32.3932 199.856 31.9079C199.891 31.4052 199.908 30.9545 199.908 30.5559C199.926 30.1572 199.926 29.7585 199.908 29.3599C199.908 28.9439 199.891 28.5019 199.856 28.0339C199.822 27.3059 199.588 26.7772 199.154 26.4479C198.738 26.1185 198.236 25.9539 197.646 25.9539H196.086V34.0139Z" fill="black"/>
<path d="M52.2396 38.5639L51.778 39.6716L52.2396 38.5639ZM49.4316 36.5099L50.3986 35.7994L49.4316 36.5099ZM48.4436 33.8059H47.2436V33.8277L47.2444 33.8495L48.4436 33.8059ZM48.5996 33.4159L49.4481 34.2644L48.5996 33.4159ZM54.5796 33.3639L53.9436 34.3815L54.0151 34.4262L54.0922 34.4604L54.5796 33.3639ZM55.0736 33.6759L54.324 34.6129L54.354 34.6369L54.3854 34.6589L55.0736 33.6759ZM55.5936 34.0139L54.9762 35.0429L55.0348 35.078L55.097 35.1063L55.5936 34.0139ZM56.2176 34.2219L55.9478 35.3911L55.9974 35.4026L56.0479 35.4098L56.2176 34.2219ZM58.4016 34.0919L58.798 35.2245L58.8135 35.2191L58.8288 35.2132L58.4016 34.0919ZM58.6356 33.0259L57.9298 33.9963L57.9496 34.0107L57.9699 34.0243L58.6356 33.0259ZM57.6216 32.6619L57.3305 33.826L57.3503 33.831L57.3702 33.8352L57.6216 32.6619ZM55.5936 32.3239L55.4281 33.5124L55.4393 33.514L55.4506 33.5153L55.5936 32.3239ZM52.0316 31.3619L51.5407 32.4569L52.0316 31.3619ZM49.6916 29.5159L48.6965 30.1865L48.7049 30.199L48.7136 30.2113L49.6916 29.5159ZM49.8736 23.4839L48.9136 22.7639L48.9091 22.7698L48.9047 22.7758L49.8736 23.4839ZM52.6556 21.3779L52.1906 20.2716L52.1848 20.274L52.6556 21.3779ZM60.2736 21.1439L59.8824 22.2783L59.8912 22.2813L59.9 22.2842L60.2736 21.1439ZM62.8216 22.4699L62.072 23.4069L62.0792 23.4127L62.0865 23.4184L62.8216 22.4699ZM64.9796 26.0059H66.1796V25.9877L66.179 25.9695L64.9796 26.0059ZM64.7976 26.4219L63.9491 25.5733L63.9491 25.5733L64.7976 26.4219ZM58.6356 26.4739L58.0989 27.5472L58.1233 27.5594L58.1482 27.5704L58.6356 26.4739ZM58.1936 26.1619L57.3451 27.0104L57.37 27.0353L57.3964 27.0588L58.1936 26.1619ZM57.6996 25.8759L57.1307 26.9324L57.1777 26.9578L57.2269 26.9788L57.6996 25.8759ZM55.8536 25.9019L56.4978 26.9143L56.5086 26.9074L56.5192 26.9003L55.8536 25.9019ZM55.8016 26.8639L56.5988 25.967L56.5988 25.967L55.8016 26.8639ZM56.6596 27.2279L56.9506 26.0637H56.9506L56.6596 27.2279ZM58.4536 27.5399L58.295 28.7293L58.3028 28.7304L58.3106 28.7313L58.4536 27.5399ZM62.6136 28.5539L62.1211 29.6482L62.1321 29.6531L62.1431 29.6578L62.6136 28.5539ZM64.9016 30.3739L63.8788 31.0015L63.8839 31.0098L63.8892 31.0181L64.9016 30.3739ZM64.4856 36.4839L63.5622 35.7173L63.5537 35.7278L64.4856 36.4839ZM61.4176 38.6159L61.8373 39.7401L61.8504 39.7351L61.4176 38.6159ZM56.9976 38.1439C55.1701 38.1439 53.7549 37.8952 52.7011 37.4562L51.778 39.6716C53.2203 40.2725 54.9771 40.5439 56.9976 40.5439V38.1439ZM52.7011 37.4562C51.5986 36.9968 50.8616 36.4296 50.3986 35.7994L48.4645 37.2204C49.2495 38.2888 50.3846 39.0909 51.778 39.6716L52.7011 37.4562ZM50.3986 35.7994C49.9016 35.1228 49.6678 34.45 49.6428 33.7623L47.2444 33.8495C47.2887 35.0683 47.7136 36.1982 48.4645 37.2204L50.3986 35.7994ZM49.6436 33.8059C49.6436 33.8631 49.6336 33.945 49.5968 34.037C49.5594 34.1305 49.5051 34.2074 49.4481 34.2644L47.7511 32.5673C47.4073 32.9111 47.2436 33.353 47.2436 33.8059H49.6436ZM49.4481 34.2644C49.417 34.2955 49.3604 34.3416 49.2756 34.3788C49.1885 34.4168 49.0979 34.4339 49.0156 34.4339V32.0339C48.508 32.0339 48.0727 32.2457 47.7511 32.5673L49.4481 34.2644ZM49.0156 34.4339H53.9556V32.0339H49.0156V34.4339ZM53.9556 34.4339C53.9941 34.4339 54.0231 34.4354 54.0439 34.4372C54.0541 34.4381 54.0618 34.4391 54.067 34.4399C54.0696 34.4402 54.0716 34.4406 54.0729 34.4408C54.0742 34.441 54.0749 34.4411 54.0748 34.4411C54.0748 34.4411 54.0741 34.441 54.0727 34.4406C54.0713 34.4403 54.0692 34.4398 54.0664 34.439C54.0609 34.4374 54.0523 34.4347 54.0412 34.4306C54.0193 34.4224 53.985 34.4073 53.9436 34.3815L55.2156 32.3463C54.7954 32.0837 54.3191 32.0339 53.9556 32.0339V34.4339ZM54.0922 34.4604C54.1311 34.4777 54.2083 34.5204 54.324 34.6129L55.8232 32.7388C55.5922 32.554 55.34 32.3887 55.067 32.2673L54.0922 34.4604ZM54.3854 34.6589C54.5807 34.7957 54.7777 34.9237 54.9762 35.0429L56.211 32.9849C56.0629 32.896 55.9131 32.7987 55.7617 32.6928L54.3854 34.6589ZM55.097 35.1063C55.3676 35.2293 55.6524 35.323 55.9478 35.3911L56.4874 33.0526C56.3321 33.0167 56.2009 32.9718 56.0901 32.9214L55.097 35.1063ZM56.0479 35.4098C56.3535 35.4535 56.6707 35.4739 56.9976 35.4739V33.0739C56.7698 33.0739 56.567 33.0596 56.3873 33.0339L56.0479 35.4098ZM56.9976 35.4739C57.6505 35.4739 58.2706 35.4091 58.798 35.2245L58.0052 32.9592C57.8393 33.0173 57.5233 33.0739 56.9976 33.0739V35.4739ZM58.8288 35.2132C59.2859 35.0391 60.1476 34.5742 60.1476 33.5459H57.7476C57.7476 33.4353 57.7711 33.3219 57.8179 33.2172C57.8633 33.1155 57.9202 33.0452 57.9626 33.0028C58.0365 32.9289 58.0718 32.9334 57.9744 32.9705L58.8288 35.2132ZM60.1476 33.5459C60.1476 32.8518 59.7657 32.337 59.3012 32.0274L57.9699 34.0243C57.9603 34.0179 57.899 33.9746 57.8406 33.8773C57.7773 33.7718 57.7476 33.6527 57.7476 33.5459H60.1476ZM59.3414 32.0554C58.9333 31.7586 58.3806 31.5973 57.873 31.4885L57.3702 33.8352C57.5787 33.8799 57.7298 33.923 57.8336 33.9603C57.9453 34.0004 57.9613 34.0192 57.9298 33.9963L59.3414 32.0554ZM57.9126 31.4977C57.3556 31.3584 56.6223 31.2387 55.7366 31.1324L55.4506 33.5153C56.2982 33.617 56.9169 33.7226 57.3305 33.826L57.9126 31.4977ZM55.7591 31.1353C54.4748 30.9565 53.4019 30.6611 52.5225 30.2669L51.5407 32.4569C52.672 32.964 53.9737 33.3099 55.4281 33.5124L55.7591 31.1353ZM52.5225 30.2669C51.6822 29.8902 51.0826 29.4013 50.6695 28.8204L48.7136 30.2113C49.4099 31.1904 50.3703 31.9322 51.5407 32.4569L52.5225 30.2669ZM50.6867 28.8452C50.3066 28.2812 50.0856 27.5551 50.0856 26.6039H47.6856C47.6856 27.9406 48.0019 29.1559 48.6965 30.1865L50.6867 28.8452ZM50.0856 26.6039C50.0856 25.6646 50.3427 24.8758 50.8425 24.1919L48.9047 22.7758C48.0872 23.8946 47.6856 25.1858 47.6856 26.6039H50.0856ZM50.8336 24.2039C51.3665 23.4933 52.1145 22.9132 53.1263 22.4817L52.1848 20.274C50.8393 20.8479 49.7327 21.6717 48.9136 22.7639L50.8336 24.2039ZM53.1205 22.4841C54.1412 22.0551 55.3643 21.8239 56.8156 21.8239V19.4239C55.1122 19.4239 53.5619 19.6953 52.1906 20.2716L53.1205 22.4841ZM56.8156 21.8239C58.011 21.8239 59.0274 21.9835 59.8824 22.2783L60.6648 20.0094C59.5091 19.6109 58.2201 19.4239 56.8156 19.4239V21.8239ZM59.9 22.2842C60.7943 22.5772 61.51 22.9573 62.072 23.4069L63.5712 21.5328C62.7465 20.8731 61.7635 20.3692 60.6472 20.0035L59.9 22.2842ZM62.0865 23.4184C62.6836 23.8811 63.0992 24.3505 63.3711 24.8165L65.4441 23.6072C64.9879 22.8252 64.3462 22.1333 63.5567 21.5214L62.0865 23.4184ZM63.3711 24.8165C63.6601 25.3121 63.7703 25.7161 63.7801 26.0422L66.179 25.9695C66.1543 25.1517 65.883 24.3596 65.4441 23.6072L63.3711 24.8165ZM63.7796 26.0059C63.7796 25.9235 63.7966 25.8329 63.8347 25.7459C63.8718 25.661 63.918 25.6044 63.9491 25.5733L65.6461 27.2704C65.9678 26.9487 66.1796 26.5134 66.1796 26.0059H63.7796ZM63.9491 25.5733C63.9927 25.5297 64.0611 25.4765 64.1559 25.4359C64.2521 25.3947 64.3488 25.3779 64.4336 25.3779V27.7779C64.9113 27.7779 65.3322 27.5843 65.6461 27.2704L63.9491 25.5733ZM64.4336 25.3779H59.2336V27.7779H64.4336V25.3779ZM59.2336 25.3779C59.168 25.3779 59.1276 25.3731 59.1077 25.3696C59.0878 25.3661 59.0961 25.3654 59.123 25.3773L58.1482 27.5704C58.508 27.7303 58.8886 27.7779 59.2336 27.7779V25.3779ZM59.1722 25.4005C59.1539 25.3914 59.0934 25.3561 58.9908 25.265L57.3964 27.0588C57.6058 27.2449 57.8399 27.4177 58.0989 27.5472L59.1722 25.4005ZM59.0421 25.3133C58.7813 25.0525 58.4308 24.8837 58.1723 24.7729L57.2269 26.9788C57.3196 27.0186 57.3754 27.0474 57.4038 27.0639C57.4173 27.0716 57.4182 27.073 57.4101 27.0672C57.403 27.062 57.3783 27.0436 57.3451 27.0104L59.0421 25.3133ZM58.2685 24.8193C57.8101 24.5725 57.2994 24.4939 56.8156 24.4939V26.8939C57.0598 26.8939 57.1384 26.9366 57.1307 26.9324L58.2685 24.8193ZM56.8156 24.4939C56.2988 24.4939 55.6906 24.5683 55.1879 24.9034L56.5192 26.9003C56.4657 26.936 56.4469 26.931 56.5037 26.9188C56.5591 26.9068 56.6588 26.8939 56.8156 26.8939V24.4939ZM55.2093 24.8895C54.6738 25.2303 54.3676 25.7848 54.3676 26.4219H56.7676C56.7676 26.4829 56.7532 26.5873 56.6905 26.7012C56.628 26.8149 56.548 26.8823 56.4978 26.9143L55.2093 24.8895ZM54.3676 26.4219C54.3676 27.026 54.6832 27.4753 55.0044 27.7608L56.5988 25.967C56.602 25.9698 56.6441 26.0075 56.6866 26.0879C56.7327 26.175 56.7676 26.2908 56.7676 26.4219H54.3676ZM55.0043 27.7608C55.3912 28.1046 55.923 28.2807 56.3685 28.392L56.9506 26.0637C56.7823 26.0216 56.6702 25.9832 56.6017 25.9542C56.5261 25.9221 56.5441 25.9183 56.5988 25.967L55.0043 27.7608ZM56.3685 28.392C56.8502 28.5124 57.5006 28.6234 58.295 28.7293L58.6122 26.3504C57.8466 26.2483 57.301 26.1513 56.9506 26.0637L56.3685 28.392ZM58.3106 28.7313C59.9801 28.9317 61.2344 29.2491 62.1211 29.6482L63.106 27.4596C61.9128 26.9226 60.3937 26.5641 58.5966 26.3484L58.3106 28.7313ZM62.1431 29.6578C63.0365 30.0386 63.5737 30.5043 63.8788 31.0015L65.9244 29.7462C65.2935 28.7181 64.3054 27.9705 63.0841 27.45L62.1431 29.6578ZM63.8892 31.0181C64.225 31.5458 64.4296 32.2533 64.4296 33.2079H66.8296C66.8296 31.9091 66.5488 30.7272 65.914 29.7296L63.8892 31.0181ZM64.4296 33.2079C64.4296 34.2113 64.1349 35.0276 63.5623 35.7174L65.4089 37.2504C66.3616 36.1028 66.8296 34.7351 66.8296 33.2079H64.4296ZM63.5537 35.7278C62.962 36.4571 62.1246 37.0559 60.9848 37.4966L61.8504 39.7351C63.3106 39.1705 64.5185 38.3479 65.4175 37.2399L63.5537 35.7278ZM60.9979 37.4917C59.8546 37.9185 58.5271 38.1439 56.9976 38.1439V40.5439C58.7614 40.5439 60.3806 40.2839 61.8373 39.7401L60.9979 37.4917ZM70.2125 38.8759L69.364 39.7244L70.2125 38.8759ZM70.2125 21.0919L69.364 20.2433L70.2125 21.0919ZM76.2445 25.9539V24.7539H75.0445V25.9539H76.2445ZM76.2445 27.5919H75.0445V28.7919H76.2445V27.5919ZM83.9665 27.7999L83.118 28.6484L83.118 28.6484L83.9665 27.7999ZM83.9665 32.1679L83.118 31.3193V31.3193L83.9665 32.1679ZM76.2445 32.3759V31.1759H75.0445V32.3759H76.2445ZM76.2445 34.0139H75.0445V35.2139H76.2445V34.0139ZM70.7065 37.8839C70.7602 37.8839 70.8309 37.8944 70.9057 37.9259C70.9798 37.9571 71.0313 37.9977 71.061 38.0273L69.364 39.7244C69.7205 40.0809 70.1876 40.2839 70.7065 40.2839V37.8839ZM71.061 38.0273C71.0907 38.057 71.1312 38.1086 71.1625 38.1827C71.1939 38.2575 71.2045 38.3281 71.2045 38.3819H68.8045C68.8045 38.9008 69.0074 39.3679 69.364 39.7244L71.061 38.0273ZM71.2045 38.3819V21.5859H68.8045V38.3819H71.2045ZM71.2045 21.5859C71.2045 21.6396 71.1939 21.7102 71.1625 21.785C71.1312 21.8591 71.0907 21.9107 71.061 21.9404L69.364 20.2433C69.0074 20.5999 68.8045 21.0669 68.8045 21.5859H71.2045ZM71.061 21.9404C71.0313 21.9701 70.9798 22.0106 70.9057 22.0418C70.8309 22.0733 70.7602 22.0839 70.7065 22.0839V19.6839C70.1875 19.6839 69.7205 19.8868 69.364 20.2433L71.061 21.9404ZM70.7065 22.0839H84.0445V19.6839H70.7065V22.0839ZM84.0445 22.0839C83.9908 22.0839 83.9201 22.0733 83.8453 22.0418C83.7712 22.0106 83.7196 21.9701 83.69 21.9404L85.387 20.2433C85.0305 19.8868 84.5634 19.6839 84.0445 19.6839V22.0839ZM83.69 21.9404C83.6603 21.9107 83.6197 21.8591 83.5885 21.785C83.557 21.7103 83.5465 21.6396 83.5465 21.5859H85.9465C85.9465 21.0669 85.7435 20.5999 85.387 20.2433L83.69 21.9404ZM83.5465 21.5859V25.2519H85.9465V21.5859H83.5465ZM83.5465 25.2519C83.5465 25.1981 83.557 25.1275 83.5885 25.0527C83.6197 24.9786 83.6603 24.927 83.69 24.8973L85.387 26.5944C85.7435 26.2379 85.9465 25.7708 85.9465 25.2519H83.5465ZM83.69 24.8973C83.7196 24.8677 83.7712 24.8271 83.8453 24.7959C83.9201 24.7644 83.9908 24.7539 84.0445 24.7539V27.1539C84.5634 27.1539 85.0305 26.9509 85.387 26.5944L83.69 24.8973ZM84.0445 24.7539H76.2445V27.1539H84.0445V24.7539ZM75.0445 25.9539V27.5919H77.4445V25.9539H75.0445ZM76.2445 28.7919H83.4725V26.3919H76.2445V28.7919ZM83.4725 28.7919C83.4188 28.7919 83.3481 28.7813 83.2733 28.7498C83.1992 28.7186 83.1476 28.6781 83.118 28.6484L84.815 26.9513C84.4585 26.5948 83.9914 26.3919 83.4725 26.3919V28.7919ZM83.118 28.6484C83.0883 28.6187 83.0477 28.5671 83.0165 28.493C82.985 28.4183 82.9745 28.3476 82.9745 28.2939H85.3745C85.3745 27.7749 85.1715 27.3079 84.815 26.9513L83.118 28.6484ZM82.9745 28.2939V31.6739H85.3745V28.2939H82.9745ZM82.9745 31.6739C82.9745 31.6201 82.985 31.5495 83.0165 31.4747C83.0477 31.4006 83.0883 31.349 83.118 31.3193L84.815 33.0164C85.1715 32.6599 85.3745 32.1928 85.3745 31.6739H82.9745ZM83.118 31.3193C83.1476 31.2897 83.1992 31.2491 83.2733 31.2179C83.3481 31.1864 83.4188 31.1759 83.4725 31.1759V33.5759C83.9914 33.5759 84.4585 33.3729 84.815 33.0164L83.118 31.3193ZM83.4725 31.1759H76.2445V33.5759H83.4725V31.1759ZM75.0445 32.3759V34.0139H77.4445V32.3759H75.0445ZM76.2445 35.2139H84.2525V32.8139H76.2445V35.2139ZM84.2525 35.2139C84.1988 35.2139 84.1281 35.2033 84.0533 35.1718C83.9792 35.1406 83.9276 35.1001 83.898 35.0704L85.595 33.3733C85.2385 33.0168 84.7714 32.8139 84.2525 32.8139V35.2139ZM83.898 35.0704C83.8683 35.0407 83.8277 34.9891 83.7965 34.915C83.765 34.8403 83.7545 34.7696 83.7545 34.7159H86.1545C86.1545 34.1969 85.9515 33.7299 85.595 33.3733L83.898 35.0704ZM83.7545 34.7159V38.3819H86.1545V34.7159H83.7545ZM83.7545 38.3819C83.7545 38.3281 83.765 38.2575 83.7965 38.1827C83.8277 38.1086 83.8683 38.057 83.898 38.0273L85.595 39.7244C85.9515 39.3679 86.1545 38.9008 86.1545 38.3819H83.7545ZM83.898 38.0273C83.9276 37.9977 83.9792 37.9571 84.0533 37.9259C84.1281 37.8944 84.1988 37.8839 84.2525 37.8839V40.2839C84.7714 40.2839 85.2385 40.0809 85.595 39.7244L83.898 38.0273ZM84.2525 37.8839H70.7065V40.2839H84.2525V37.8839ZM90.0243 38.8759L89.1758 39.7244L90.0243 38.8759ZM90.0243 21.0919L89.1758 20.2433L90.0243 21.0919ZM96.2123 21.0919L97.0608 20.2433V20.2433L96.2123 21.0919ZM96.4203 33.7539H95.2203V34.9539H96.4203V33.7539ZM90.5183 37.8839C90.572 37.8839 90.6427 37.8944 90.7175 37.9259C90.7916 37.9571 90.8431 37.9977 90.8728 38.0273L89.1758 39.7244C89.5323 40.0809 89.9993 40.2839 90.5183 40.2839V37.8839ZM90.8728 38.0273C90.9025 38.057 90.943 38.1086 90.9743 38.1827C91.0057 38.2575 91.0163 38.3281 91.0163 38.3819H88.6163C88.6163 38.9008 88.8192 39.3679 89.1758 39.7244L90.8728 38.0273ZM91.0163 38.3819V21.5859H88.6163V38.3819H91.0163ZM91.0163 21.5859C91.0163 21.6396 91.0057 21.7102 90.9743 21.785C90.943 21.8591 90.9025 21.9107 90.8728 21.9404L89.1758 20.2433C88.8192 20.5999 88.6163 21.0669 88.6163 21.5859H91.0163ZM90.8728 21.9404C90.8431 21.9701 90.7916 22.0106 90.7175 22.0418C90.6427 22.0733 90.572 22.0839 90.5183 22.0839V19.6839C89.9993 19.6839 89.5323 19.8868 89.1758 20.2433L90.8728 21.9404ZM90.5183 22.0839H95.7183V19.6839H90.5183V22.0839ZM95.7183 22.0839C95.6646 22.0839 95.5939 22.0733 95.5191 22.0418C95.445 22.0106 95.3934 21.9701 95.3638 21.9404L97.0608 20.2433C96.7043 19.8868 96.2372 19.6839 95.7183 19.6839V22.0839ZM95.3638 21.9404C95.3341 21.9107 95.2935 21.8591 95.2623 21.785C95.2308 21.7102 95.2203 21.6396 95.2203 21.5859H97.6203C97.6203 21.0669 97.4173 20.5999 97.0608 20.2433L95.3638 21.9404ZM95.2203 21.5859V33.7539H97.6203V21.5859H95.2203ZM96.4203 34.9539H103.622V32.5539H96.4203V34.9539ZM103.622 34.9539C103.569 34.9539 103.498 34.9433 103.423 34.9118C103.349 34.8806 103.297 34.8401 103.268 34.8104L104.965 33.1133C104.608 32.7568 104.141 32.5539 103.622 32.5539V34.9539ZM103.268 34.8104C103.238 34.7807 103.198 34.7291 103.166 34.655C103.135 34.5802 103.124 34.5096 103.124 34.4559H105.524C105.524 33.9369 105.321 33.4699 104.965 33.1133L103.268 34.8104ZM103.124 34.4559V38.3819H105.524V34.4559H103.124ZM103.124 38.3819C103.124 38.3281 103.135 38.2575 103.166 38.1827C103.198 38.1086 103.238 38.057 103.268 38.0273L104.965 39.7244C105.321 39.3679 105.524 38.9008 105.524 38.3819H103.124ZM103.268 38.0273C103.297 37.9977 103.349 37.9571 103.423 37.9259C103.498 37.8944 103.569 37.8839 103.622 37.8839V40.2839C104.141 40.2839 104.608 40.0809 104.965 39.7244L103.268 38.0273ZM103.622 37.8839H90.5183V40.2839H103.622V37.8839ZM108.77 38.8759L107.921 39.7244L108.77 38.8759ZM108.77 21.0919L107.921 20.2433L108.77 21.0919ZM114.802 25.9539V24.7539H113.602V25.9539H114.802ZM114.802 27.5919H113.602V28.7919H114.802V27.5919ZM122.524 27.7999L121.675 28.6484L121.675 28.6484L122.524 27.7999ZM122.524 32.1679L121.675 31.3193V31.3193L122.524 32.1679ZM114.802 32.3759V31.1759H113.602V32.3759H114.802ZM114.802 34.0139H113.602V35.2139H114.802V34.0139ZM109.264 37.8839C109.317 37.8839 109.388 37.8944 109.463 37.9259C109.537 37.9571 109.589 37.9977 109.618 38.0273L107.921 39.7244C108.278 40.0809 108.745 40.2839 109.264 40.2839V37.8839ZM109.618 38.0273C109.648 38.057 109.688 38.1086 109.72 38.1827C109.751 38.2575 109.762 38.3281 109.762 38.3819H107.362C107.362 38.9008 107.565 39.3679 107.921 39.7244L109.618 38.0273ZM109.762 38.3819V21.5859H107.362V38.3819H109.762ZM109.762 21.5859C109.762 21.6396 109.751 21.7102 109.72 21.785C109.688 21.8591 109.648 21.9107 109.618 21.9404L107.921 20.2433C107.565 20.5999 107.362 21.0669 107.362 21.5859H109.762ZM109.618 21.9404C109.589 21.9701 109.537 22.0106 109.463 22.0418C109.388 22.0733 109.317 22.0839 109.264 22.0839V19.6839C108.745 19.6839 108.278 19.8868 107.921 20.2433L109.618 21.9404ZM109.264 22.0839H122.602V19.6839H109.264V22.0839ZM122.602 22.0839C122.548 22.0839 122.477 22.0733 122.403 22.0418C122.328 22.0106 122.277 21.9701 122.247 21.9404L123.944 20.2433C123.588 19.8868 123.121 19.6839 122.602 19.6839V22.0839ZM122.247 21.9404C122.217 21.9107 122.177 21.8591 122.146 21.785C122.114 21.7103 122.104 21.6396 122.104 21.5859H124.504C124.504 21.0669 124.301 20.5999 123.944 20.2433L122.247 21.9404ZM122.104 21.5859V25.2519H124.504V21.5859H122.104ZM122.104 25.2519C122.104 25.1981 122.114 25.1275 122.146 25.0527C122.177 24.9786 122.217 24.927 122.247 24.8973L123.944 26.5944C124.301 26.2379 124.504 25.7708 124.504 25.2519H122.104ZM122.247 24.8973C122.277 24.8677 122.328 24.8271 122.403 24.7959C122.477 24.7644 122.548 24.7539 122.602 24.7539V27.1539C123.121 27.1539 123.588 26.9509 123.944 26.5944L122.247 24.8973ZM122.602 24.7539H114.802V27.1539H122.602V24.7539ZM113.602 25.9539V27.5919H116.002V25.9539H113.602ZM114.802 28.7919H122.03V26.3919H114.802V28.7919ZM122.03 28.7919C121.976 28.7919 121.905 28.7813 121.831 28.7498C121.756 28.7186 121.705 28.6781 121.675 28.6484L123.372 26.9513C123.016 26.5948 122.549 26.3919 122.03 26.3919V28.7919ZM121.675 28.6484C121.645 28.6187 121.605 28.5671 121.574 28.493C121.542 28.4183 121.532 28.3476 121.532 28.2939H123.932C123.932 27.7749 123.729 27.3079 123.372 26.9513L121.675 28.6484ZM121.532 28.2939V31.6739H123.932V28.2939H121.532ZM121.532 31.6739C121.532 31.6201 121.542 31.5495 121.574 31.4747C121.605 31.4006 121.645 31.349 121.675 31.3193L123.372 33.0164C123.729 32.6599 123.932 32.1928 123.932 31.6739H121.532ZM121.675 31.3193C121.705 31.2897 121.756 31.2491 121.831 31.2179C121.905 31.1864 121.976 31.1759 122.03 31.1759V33.5759C122.549 33.5759 123.016 33.3729 123.372 33.0164L121.675 31.3193ZM122.03 31.1759H114.802V33.5759H122.03V31.1759ZM113.602 32.3759V34.0139H116.002V32.3759H113.602ZM114.802 35.2139H122.81V32.8139H114.802V35.2139ZM122.81 35.2139C122.756 35.2139 122.685 35.2033 122.611 35.1718C122.536 35.1406 122.485 35.1001 122.455 35.0704L124.152 33.3733C123.796 33.0168 123.329 32.8139 122.81 32.8139V35.2139ZM122.455 35.0704C122.425 35.0407 122.385 34.9891 122.354 34.915C122.322 34.8403 122.312 34.7696 122.312 34.7159H124.712C124.712 34.1969 124.509 33.7299 124.152 33.3733L122.455 35.0704ZM122.312 34.7159V38.3819H124.712V34.7159H122.312ZM122.312 38.3819C122.312 38.3281 122.322 38.2575 122.354 38.1827C122.385 38.1086 122.425 38.057 122.455 38.0273L124.152 39.7244C124.509 39.3679 124.712 38.9008 124.712 38.3819H122.312ZM122.455 38.0273C122.485 37.9977 122.536 37.9571 122.611 37.9259C122.685 37.8944 122.756 37.8839 122.81 37.8839V40.2839C123.329 40.2839 123.796 40.0809 124.152 39.7244L122.455 38.0273ZM122.81 37.8839H109.264V40.2839H122.81V37.8839ZM132.069 38.6159L131.644 39.7382L132.069 38.6159ZM129.001 36.3279L128.025 37.0269L128.033 37.0375L129.001 36.3279ZM127.779 32.2979L126.579 32.3271L126.579 32.3377L126.58 32.3483L127.779 32.2979ZM127.779 27.6699L126.58 27.6183L126.579 27.6301L126.579 27.642L127.779 27.6699ZM129.027 23.6919L128.066 22.9718L128.059 22.9822L129.027 23.6919ZM132.121 21.3779L131.688 20.2586L131.683 20.2606L132.121 21.3779ZM139.687 21.0139L139.391 22.1769L139.402 22.1798L139.414 22.1825L139.687 21.0139ZM142.495 22.1839L143.146 21.1758V21.1758L142.495 22.1839ZM144.471 24.2639L143.429 24.8592L143.436 24.8719L143.443 24.8844L144.471 24.2639ZM145.251 27.2799H146.451V27.271L146.45 27.2622L145.251 27.2799ZM145.069 27.6959L144.22 26.8473V26.8473L145.069 27.6959ZM138.751 27.6959L137.902 28.5444L137.962 28.6047L138.031 28.6559L138.751 27.6959ZM138.413 27.0979L137.278 27.488L137.283 27.5037L137.289 27.5192L138.413 27.0979ZM137.633 25.9799L137.031 27.0184L137.031 27.0184L137.633 25.9799ZM135.085 26.1619L135.885 27.0562L135.887 27.0538L135.085 26.1619ZM134.539 27.7999L133.34 27.7477L133.339 27.756L134.539 27.7999ZM134.539 32.1679L133.339 32.2097L133.34 32.22L134.539 32.1679ZM135.085 33.8319L134.259 34.703L134.283 34.7252L134.307 34.7462L135.085 33.8319ZM137.633 33.9619L137.015 32.9329L137.003 32.9399L136.992 32.9473L137.633 33.9619ZM138.413 32.8699L139.551 33.2493L139.558 33.229L139.564 33.2085L138.413 32.8699ZM138.751 32.2719L138.031 31.3119L138.031 31.3119L138.751 32.2719ZM145.069 32.2979L144.157 33.0788L144.217 33.1489L144.288 33.209L145.069 32.2979ZM145.251 32.6879L146.45 32.7055L146.451 32.6967V32.6879H145.251ZM144.471 35.7299L143.438 35.1187L143.434 35.1252L144.471 35.7299ZM142.495 37.7839L143.146 38.7919L142.495 37.7839ZM139.687 38.9799L139.964 40.1474L139.971 40.1458L139.978 40.144L139.687 38.9799ZM136.489 38.1439C134.94 38.1439 133.615 37.9179 132.493 37.4935L131.644 39.7382C133.088 40.2845 134.709 40.5439 136.489 40.5439V38.1439ZM132.493 37.4935C131.413 37.0849 130.585 36.459 129.968 35.6182L128.033 37.0375C128.942 38.2768 130.159 39.1762 131.644 39.7382L132.493 37.4935ZM129.976 35.6288C129.401 34.8264 129.04 33.7273 128.977 32.2474L126.58 32.3483C126.656 34.1618 127.11 35.7493 128.025 37.0269L129.976 35.6288ZM128.978 32.2686C128.961 31.569 128.953 30.8161 128.953 30.0099H126.553C126.553 30.8329 126.561 31.6054 126.579 32.3271L128.978 32.2686ZM128.953 30.0099C128.953 29.2037 128.961 28.433 128.978 27.6978L126.579 27.642C126.561 28.3974 126.553 29.1867 126.553 30.0099H128.953ZM128.977 27.7214C129.039 26.2871 129.404 25.2068 129.994 24.4015L128.059 22.9822C127.124 24.257 126.657 25.8286 126.58 27.6183L128.977 27.7214ZM129.987 24.4119C130.625 23.561 131.47 22.9215 132.558 22.4951L131.683 20.2606C130.205 20.8395 128.988 21.7427 128.067 22.9719L129.987 24.4119ZM132.553 22.4971C133.695 22.0555 135.002 21.8239 136.489 21.8239V19.4239C134.751 19.4239 133.146 19.6949 131.688 20.2586L132.553 22.4971ZM136.489 21.8239C137.503 21.8239 138.47 21.9427 139.391 22.1769L139.982 19.8509C138.858 19.5651 137.692 19.4239 136.489 19.4239V21.8239ZM139.414 22.1825C140.33 22.3962 141.136 22.7351 141.843 23.1919L143.146 21.1758C142.189 20.5579 141.123 20.1168 139.959 19.8453L139.414 22.1825ZM141.843 23.1919C142.516 23.6263 143.04 24.1789 143.429 24.8592L145.512 23.6685C144.93 22.6501 144.137 21.8161 143.146 21.1758L141.843 23.1919ZM143.443 24.8844C143.815 25.4992 144.036 26.2864 144.051 27.2975L146.45 27.2622C146.431 25.916 146.132 24.6926 145.498 23.6433L143.443 24.8844ZM144.051 27.2799C144.051 27.1975 144.068 27.1069 144.106 27.0199C144.143 26.935 144.189 26.8784 144.22 26.8473L145.917 28.5444C146.239 28.2227 146.451 27.7874 146.451 27.2799H144.051ZM144.22 26.8473C144.277 26.7903 144.354 26.7361 144.447 26.6987C144.539 26.6619 144.621 26.6519 144.679 26.6519V29.0519C145.131 29.0519 145.573 28.8881 145.917 28.5444L144.22 26.8473ZM144.679 26.6519H139.375V29.0519H144.679V26.6519ZM139.375 26.6519C139.307 26.6519 139.287 26.6451 139.302 26.6487C139.317 26.6526 139.385 26.6721 139.471 26.7359L138.031 28.6559C138.468 28.9843 138.982 29.0519 139.375 29.0519V26.6519ZM139.599 26.8473C139.636 26.8841 139.639 26.8995 139.62 26.8649C139.601 26.8325 139.572 26.7728 139.536 26.6765L137.289 27.5192C137.416 27.8569 137.602 28.2441 137.902 28.5444L139.599 26.8473ZM139.547 26.7078C139.311 26.0215 138.918 25.3375 138.234 24.9413L137.031 27.0184C137.006 27.0036 137.132 27.0649 137.278 27.488L139.547 26.7078ZM138.234 24.9414C137.691 24.6269 137.085 24.4939 136.463 24.4939V26.8939C136.741 26.8939 136.916 26.9515 137.031 27.0184L138.234 24.9414ZM136.463 24.4939C135.664 24.4939 134.896 24.7172 134.282 25.2699L135.887 27.0538C135.966 26.9826 136.117 26.8939 136.463 26.8939V24.4939ZM134.284 25.2676C133.581 25.897 133.378 26.8656 133.34 27.7477L135.737 27.852C135.752 27.5251 135.794 27.3071 135.839 27.1718C135.884 27.0386 135.916 27.0283 135.885 27.0562L134.284 25.2676ZM133.339 27.756C133.286 29.2072 133.286 30.6918 133.339 32.2097L135.738 32.126C135.687 30.6625 135.687 29.2352 135.738 27.8437L133.339 27.756ZM133.34 32.22C133.378 33.1115 133.584 34.0635 134.259 34.703L135.91 32.9607C135.925 32.9754 135.887 32.9487 135.841 32.8077C135.794 32.6648 135.752 32.442 135.737 32.1157L133.34 32.22ZM134.307 34.7462C134.922 35.2688 135.681 35.4739 136.463 35.4739V33.0739C136.1 33.0739 135.94 32.9842 135.862 32.9175L134.307 34.7462ZM136.463 35.4739C137.104 35.4739 137.724 35.3236 138.273 34.9764L136.992 32.9473C136.883 33.0161 136.723 33.0739 136.463 33.0739V35.4739ZM138.25 34.9909C138.918 34.5902 139.319 33.944 139.551 33.2493L137.274 32.4904C137.159 32.8357 137.041 32.9175 137.015 32.9329L138.25 34.9909ZM139.564 33.2085C139.576 33.1667 139.587 33.1364 139.595 33.1158C139.604 33.095 139.608 33.0874 139.607 33.0898C139.605 33.0921 139.596 33.1086 139.575 33.1334C139.555 33.1584 139.521 33.1942 139.471 33.2319L138.031 31.3119C137.578 31.6513 137.371 32.158 137.261 32.5313L139.564 33.2085ZM139.471 33.2319C139.385 33.2957 139.317 33.3152 139.302 33.319C139.287 33.3226 139.307 33.3159 139.375 33.3159V30.9159C138.982 30.9159 138.468 30.9834 138.031 31.3119L139.471 33.2319ZM139.375 33.3159H144.679V30.9159H139.375V33.3159ZM144.679 33.3159C144.597 33.3159 144.493 33.2989 144.386 33.2488C144.279 33.199 144.204 33.133 144.157 33.0788L145.98 31.5169C145.654 31.1371 145.195 30.9159 144.679 30.9159V33.3159ZM144.288 33.209C144.233 33.1625 144.167 33.0875 144.118 32.9808C144.067 32.8734 144.051 32.7697 144.051 32.6879H146.451C146.451 32.1719 146.229 31.7123 145.849 31.3868L144.288 33.209ZM144.051 32.6702C144.036 33.6806 143.815 34.4813 143.438 35.1187L145.503 36.341C146.131 35.2797 146.431 34.0525 146.45 32.7055L144.051 32.6702ZM143.434 35.1252C143.046 35.7896 142.522 36.3378 141.843 36.7758L143.146 38.7919C144.131 38.1553 144.924 37.3341 145.507 36.3345L143.434 35.1252ZM141.843 36.7758C141.131 37.2361 140.318 37.585 139.395 37.8157L139.978 40.144C141.135 39.8547 142.194 39.4063 143.146 38.7919L141.843 36.7758ZM139.409 37.8123C138.482 38.0323 137.51 38.1439 136.489 38.1439V40.5439C137.686 40.5439 138.845 40.4128 139.964 40.1474L139.409 37.8123ZM153.815 26.4739H155.015V25.2739H153.815V26.4739ZM165.229 21.0919L166.077 20.2433L166.077 20.2433L165.229 21.0919ZM165.229 26.2659L166.077 27.1144L166.077 27.1144L165.229 26.2659ZM160.419 26.4739V25.2739H159.219V26.4739H160.419ZM160.211 38.8759L161.059 39.7244V39.7244L160.211 38.8759ZM154.517 37.8839C154.571 37.8839 154.641 37.8944 154.716 37.9259C154.79 37.9571 154.842 37.9977 154.871 38.0273L153.174 39.7244C153.531 40.0809 153.998 40.2839 154.517 40.2839V37.8839ZM154.871 38.0273C154.901 38.057 154.942 38.1086 154.973 38.1827C155.004 38.2575 155.015 38.3281 155.015 38.3819H152.615C152.615 38.9008 152.818 39.3679 153.174 39.7244L154.871 38.0273ZM155.015 38.3819V26.4739H152.615V38.3819H155.015ZM153.815 25.2739H149.499V27.6739H153.815V25.2739ZM149.499 25.2739C149.553 25.2739 149.623 25.2844 149.698 25.3159C149.772 25.3471 149.824 25.3877 149.853 25.4173L148.156 27.1144C148.513 27.4709 148.98 27.6739 149.499 27.6739V25.2739ZM149.853 25.4173C149.883 25.447 149.924 25.4986 149.955 25.5727C149.986 25.6475 149.997 25.7181 149.997 25.7719H147.597C147.597 26.2908 147.8 26.7579 148.156 27.1144L149.853 25.4173ZM149.997 25.7719V21.5859H147.597V25.7719H149.997ZM149.997 21.5859C149.997 21.6396 149.986 21.7102 149.955 21.785C149.924 21.8591 149.883 21.9107 149.853 21.9404L148.156 20.2433C147.8 20.5999 147.597 21.0669 147.597 21.5859H149.997ZM149.853 21.9404C149.824 21.9701 149.772 22.0106 149.698 22.0418C149.623 22.0733 149.553 22.0839 149.499 22.0839V19.6839C148.98 19.6839 148.513 19.8868 148.156 20.2433L149.853 21.9404ZM149.499 22.0839H164.735V19.6839H149.499V22.0839ZM164.735 22.0839C164.681 22.0839 164.61 22.0733 164.536 22.0418C164.462 22.0106 164.41 21.9701 164.38 21.9404L166.077 20.2433C165.721 19.8868 165.254 19.6839 164.735 19.6839V22.0839ZM164.38 21.9404C164.351 21.9107 164.31 21.8591 164.279 21.785C164.247 21.7102 164.237 21.6396 164.237 21.5859H166.637C166.637 21.0669 166.434 20.5999 166.077 20.2433L164.38 21.9404ZM164.237 21.5859V25.7719H166.637V21.5859H164.237ZM164.237 25.7719C164.237 25.7181 164.247 25.6475 164.279 25.5727C164.31 25.4986 164.351 25.447 164.38 25.4173L166.077 27.1144C166.434 26.7579 166.637 26.2908 166.637 25.7719H164.237ZM164.38 25.4173C164.41 25.3877 164.462 25.3471 164.536 25.3159C164.61 25.2844 164.681 25.2739 164.735 25.2739V27.6739C165.254 27.6739 165.721 27.4709 166.077 27.1144L164.38 25.4173ZM164.735 25.2739H160.419V27.6739H164.735V25.2739ZM159.219 26.4739V38.3819H161.619V26.4739H159.219ZM159.219 38.3819C159.219 38.3281 159.229 38.2575 159.261 38.1827C159.292 38.1086 159.333 38.057 159.362 38.0273L161.059 39.7244C161.416 39.3679 161.619 38.9008 161.619 38.3819H159.219ZM159.362 38.0273C159.392 37.9977 159.444 37.9571 159.518 37.9259C159.592 37.8944 159.663 37.8839 159.717 37.8839V40.2839C160.236 40.2839 160.703 40.0809 161.059 39.7244L159.362 38.0273ZM159.717 37.8839H154.517V40.2839H159.717V37.8839ZM169.982 38.8759L169.134 39.7244L169.982 38.8759ZM169.982 21.0919L169.134 20.2433L169.982 21.0919ZM176.014 25.9539V24.7539H174.814V25.9539H176.014ZM176.014 27.5919H174.814V28.7919H176.014V27.5919ZM183.736 27.7999L182.888 28.6484L182.888 28.6484L183.736 27.7999ZM183.736 32.1679L182.888 31.3193V31.3193L183.736 32.1679ZM176.014 32.3759V31.1759H174.814V32.3759H176.014ZM176.014 34.0139H174.814V35.2139H176.014V34.0139ZM170.476 37.8839C170.53 37.8839 170.601 37.8944 170.676 37.9259C170.75 37.9571 170.801 37.9977 170.831 38.0273L169.134 39.7244C169.49 40.0809 169.957 40.2839 170.476 40.2839V37.8839ZM170.831 38.0273C170.861 38.057 170.901 38.1086 170.932 38.1827C170.964 38.2575 170.974 38.3281 170.974 38.3819H168.574C168.574 38.9008 168.777 39.3679 169.134 39.7244L170.831 38.0273ZM170.974 38.3819V21.5859H168.574V38.3819H170.974ZM170.974 21.5859C170.974 21.6396 170.964 21.7102 170.932 21.785C170.901 21.8591 170.861 21.9107 170.831 21.9404L169.134 20.2433C168.777 20.5999 168.574 21.0669 168.574 21.5859H170.974ZM170.831 21.9404C170.801 21.9701 170.75 22.0106 170.676 22.0418C170.601 22.0733 170.53 22.0839 170.476 22.0839V19.6839C169.957 19.6839 169.49 19.8868 169.134 20.2433L170.831 21.9404ZM170.476 22.0839H183.814V19.6839H170.476V22.0839ZM183.814 22.0839C183.761 22.0839 183.69 22.0733 183.615 22.0418C183.541 22.0106 183.49 21.9701 183.46 21.9404L185.157 20.2433C184.8 19.8868 184.333 19.6839 183.814 19.6839V22.0839ZM183.46 21.9404C183.43 21.9107 183.39 21.8591 183.358 21.785C183.327 21.7103 183.316 21.6396 183.316 21.5859H185.716C185.716 21.0669 185.513 20.5999 185.157 20.2433L183.46 21.9404ZM183.316 21.5859V25.2519H185.716V21.5859H183.316ZM183.316 25.2519C183.316 25.1981 183.327 25.1275 183.358 25.0527C183.39 24.9786 183.43 24.927 183.46 24.8973L185.157 26.5944C185.513 26.2379 185.716 25.7708 185.716 25.2519H183.316ZM183.46 24.8973C183.49 24.8677 183.541 24.8271 183.615 24.7959C183.69 24.7644 183.761 24.7539 183.814 24.7539V27.1539C184.333 27.1539 184.8 26.9509 185.157 26.5944L183.46 24.8973ZM183.814 24.7539H176.014V27.1539H183.814V24.7539ZM174.814 25.9539V27.5919H177.214V25.9539H174.814ZM176.014 28.7919H183.242V26.3919H176.014V28.7919ZM183.242 28.7919C183.189 28.7919 183.118 28.7813 183.043 28.7498C182.969 28.7186 182.918 28.6781 182.888 28.6484L184.585 26.9513C184.228 26.5948 183.761 26.3919 183.242 26.3919V28.7919ZM182.888 28.6484C182.858 28.6187 182.818 28.5671 182.786 28.493C182.755 28.4183 182.744 28.3476 182.744 28.2939H185.144C185.144 27.7749 184.941 27.3079 184.585 26.9513L182.888 28.6484ZM182.744 28.2939V31.6739H185.144V28.2939H182.744ZM182.744 31.6739C182.744 31.6201 182.755 31.5495 182.786 31.4747C182.818 31.4006 182.858 31.349 182.888 31.3193L184.585 33.0164C184.941 32.6599 185.144 32.1928 185.144 31.6739H182.744ZM182.888 31.3193C182.918 31.2897 182.969 31.2491 183.043 31.2179C183.118 31.1864 183.189 31.1759 183.242 31.1759V33.5759C183.761 33.5759 184.228 33.3729 184.585 33.0164L182.888 31.3193ZM183.242 31.1759H176.014V33.5759H183.242V31.1759ZM174.814 32.3759V34.0139H177.214V32.3759H174.814ZM176.014 35.2139H184.022V32.8139H176.014V35.2139ZM184.022 35.2139C183.969 35.2139 183.898 35.2033 183.823 35.1718C183.749 35.1406 183.698 35.1001 183.668 35.0704L185.365 33.3733C185.008 33.0168 184.541 32.8139 184.022 32.8139V35.2139ZM183.668 35.0704C183.638 35.0407 183.598 34.9891 183.566 34.915C183.535 34.8403 183.524 34.7696 183.524 34.7159H185.924C185.924 34.1969 185.721 33.7299 185.365 33.3733L183.668 35.0704ZM183.524 34.7159V38.3819H185.924V34.7159H183.524ZM183.524 38.3819C183.524 38.3281 183.535 38.2575 183.566 38.1827C183.598 38.1086 183.638 38.057 183.668 38.0273L185.365 39.7244C185.721 39.3679 185.924 38.9008 185.924 38.3819H183.524ZM183.668 38.0273C183.698 37.9977 183.749 37.9571 183.823 37.9259C183.898 37.8944 183.969 37.8839 184.022 37.8839V40.2839C184.541 40.2839 185.008 40.0809 185.365 39.7244L183.668 38.0273ZM184.022 37.8839H170.476V40.2839H184.022V37.8839ZM189.794 38.8759L188.946 39.7244L189.794 38.8759ZM189.794 21.0919L188.946 20.2433L189.794 21.0919ZM202.144 21.7159L201.668 22.8174L201.681 22.8227L202.144 21.7159ZM205.212 24.1079L204.239 24.8099L204.247 24.8202L205.212 24.1079ZM206.46 28.0339L205.261 28.0738L205.261 28.0817L205.262 28.0896L206.46 28.0339ZM206.46 31.9079L205.262 31.8494L205.261 31.8568L206.46 31.9079ZM205.264 35.9639L206.253 36.6444L206.258 36.6369L205.264 35.9639ZM202.274 38.3299L202.723 39.443L202.73 39.4398L202.274 38.3299ZM196.086 34.0139H194.886V35.2139H196.086V34.0139ZM198.79 33.8059L199.301 34.8916L199.314 34.8856L199.327 34.8792L198.79 33.8059ZM199.544 33.1039L200.568 33.7296L199.544 33.1039ZM199.856 31.9079L198.659 31.8253L198.658 31.8451L198.657 31.865L199.856 31.9079ZM199.908 30.5559L198.709 30.5037L198.708 30.5298V30.5559H199.908ZM199.908 29.3599H198.708V29.3859L198.709 29.412L199.908 29.3599ZM199.856 28.0339L198.658 28.0909L198.658 28.1067L198.659 28.1225L199.856 28.0339ZM199.154 26.4479L198.409 27.3887L198.419 27.3961L198.428 27.4033L199.154 26.4479ZM196.086 25.9539V24.7539H194.886V25.9539H196.086ZM190.288 37.8839C190.342 37.8839 190.413 37.8944 190.487 37.9259C190.561 37.9571 190.613 37.9977 190.643 38.0273L188.946 39.7244C189.302 40.0809 189.769 40.2839 190.288 40.2839V37.8839ZM190.643 38.0273C190.672 38.057 190.713 38.1086 190.744 38.1827C190.776 38.2575 190.786 38.3281 190.786 38.3819H188.386C188.386 38.9008 188.589 39.3679 188.946 39.7244L190.643 38.0273ZM190.786 38.3819V21.5859H188.386V38.3819H190.786ZM190.786 21.5859C190.786 21.6396 190.776 21.7102 190.744 21.785C190.713 21.8591 190.672 21.9107 190.643 21.9404L188.946 20.2433C188.589 20.5999 188.386 21.0669 188.386 21.5859H190.786ZM190.643 21.9404C190.613 21.9701 190.561 22.0106 190.487 22.0418C190.413 22.0733 190.342 22.0839 190.288 22.0839V19.6839C189.769 19.6839 189.302 19.8868 188.946 20.2433L190.643 21.9404ZM190.288 22.0839H197.776V19.6839H190.288V22.0839ZM197.776 22.0839C199.269 22.0839 200.558 22.3375 201.668 22.8173L202.62 20.6144C201.165 19.9849 199.542 19.6839 197.776 19.6839V22.0839ZM201.681 22.8227C202.773 23.2805 203.614 23.9439 204.239 24.8099L206.185 23.4059C205.285 22.1572 204.08 21.2259 202.608 20.6091L201.681 22.8227ZM204.247 24.8202C204.857 25.6478 205.215 26.7099 205.261 28.0738L207.66 27.9939C207.601 26.2379 207.127 24.6826 206.178 23.3955L204.247 24.8202ZM205.262 28.0896C205.296 28.8216 205.312 29.461 205.312 30.0099H207.712C207.712 29.4147 207.694 28.7368 207.659 27.9781L205.262 28.0896ZM205.312 30.0099C205.312 30.5405 205.296 31.1531 205.262 31.8494L207.659 31.9663C207.694 31.2413 207.712 30.5886 207.712 30.0099H205.312ZM205.261 31.8568C205.199 33.3204 204.846 34.4423 204.271 35.2908L206.258 36.6369C207.139 35.3361 207.583 33.754 207.659 31.9589L205.261 31.8568ZM204.276 35.2833C203.689 36.1362 202.883 36.7823 201.818 37.2199L202.73 39.4398C204.196 38.8374 205.384 37.9062 206.253 36.6444L204.276 35.2833ZM201.826 37.2168C200.75 37.6502 199.452 37.8839 197.906 37.8839V40.2839C199.689 40.2839 201.303 40.0149 202.723 39.443L201.826 37.2168ZM197.906 37.8839H190.288V40.2839H197.906V37.8839ZM196.086 35.2139H197.776V32.8139H196.086V35.2139ZM197.776 35.2139C198.304 35.2139 198.822 35.1173 199.301 34.8916L198.279 32.7201C198.169 32.7717 198.011 32.8139 197.776 32.8139V35.2139ZM199.327 34.8792C199.85 34.6176 200.266 34.2238 200.568 33.7296L198.52 32.4781C198.441 32.6079 198.354 32.6821 198.254 32.7325L199.327 34.8792ZM200.568 33.7296C200.896 33.1931 201.033 32.5768 201.055 31.9507L198.657 31.865C198.645 32.2096 198.574 32.3906 198.52 32.4781L200.568 33.7296ZM201.053 31.9904C201.089 31.4671 201.108 30.9881 201.108 30.5559H198.708C198.708 30.9209 198.692 31.3433 198.659 31.8253L201.053 31.9904ZM201.107 30.608C201.126 30.1746 201.126 29.7411 201.107 29.3077L198.709 29.412C198.725 29.7759 198.725 30.1398 198.709 30.5037L201.107 30.608ZM201.108 29.3599C201.108 28.9108 201.09 28.4391 201.053 27.9452L198.659 28.1225C198.692 28.5647 198.708 28.9769 198.708 29.3599H201.108ZM201.055 27.9768C201.009 27.0219 200.684 26.1035 199.88 25.4925L198.428 27.4033C198.491 27.4509 198.634 27.5899 198.658 28.0909L201.055 27.9768ZM199.899 25.507C199.247 24.9912 198.474 24.7539 197.646 24.7539V27.1539C197.997 27.1539 198.229 27.2459 198.409 27.3887L199.899 25.507ZM197.646 24.7539H196.086V27.1539H197.646V24.7539ZM194.886 25.9539V34.0139H197.286V25.9539H194.886Z" fill="white"/>
</svg>
