<?xml version="1.0" encoding="utf-8"?>
<!-- Generator: Adobe Illustrator 24.0.1, SVG Export Plug-In . SVG Version: 6.00 Build 0)  -->
<svg version="1.1" id="Layer_1" xmlns="http://www.w3.org/2000/svg" xmlns:xlink="http://www.w3.org/1999/xlink" x="0px" y="0px"
	 viewBox="0 0 456 724" style="enable-background:new 0 0 456 724;" xml:space="preserve">
<style type="text/css">
	.st0{fill:none;}
	.st1{fill:#06A589;}
	.st2{fill:#06A589;filter:url(#Adobe_OpacityMaskFilter);}
	.st3{mask:url(#mask0_185_8498_1_);}
	.st4{fill:#FFFFFF;stroke:#1C5E8A;stroke-width:2.5;stroke-miterlimit:10;}
	.st5{opacity:0.25;}
	.st6{opacity:0.3;fill:#FFFFFF;enable-background:new    ;}
	.st7{fill:none;stroke:#1C5E8A;stroke-width:2.5;stroke-linecap:round;stroke-linejoin:round;stroke-dasharray:12,12;}
	.st8{display:none;fill-rule:evenodd;clip-rule:evenodd;fill:#888888;}
	.st9{display:none;fill-rule:evenodd;clip-rule:evenodd;fill:#3E3639;}
	.st10{display:none;fill-rule:evenodd;clip-rule:evenodd;fill:#A37D73;}
	.st11{display:none;fill-rule:evenodd;clip-rule:evenodd;fill:#170603;}
	.st12{display:none;fill-rule:evenodd;clip-rule:evenodd;fill:#BD9585;}
	.st13{display:none;fill-rule:evenodd;clip-rule:evenodd;fill:#53362B;}
	.st14{display:none;fill-rule:evenodd;clip-rule:evenodd;fill:#6F3E31;}
	.st15{display:none;fill-rule:evenodd;clip-rule:evenodd;fill:#E65250;}
	.st16{display:none;opacity:0.2;fill-rule:evenodd;clip-rule:evenodd;enable-background:new    ;}
	.st17{display:none;fill:#FFFFFF;}
	.st18{display:none;}
	.st19{fill:#1C5E8A;}
	.st20{display:none;fill-rule:evenodd;clip-rule:evenodd;fill:#FCC433;}
	.st21{fill:none;stroke:#FFFFFF;stroke-width:3;stroke-linejoin:round;}
	.st22{fill:#086352;}
	.st23{fill:#07725D;}
	.st24{fill:#FFFFFF;}
	.st25{fill:#616161;}
	.st26{fill:#454545;}
	.st27{fill:#808080;}
	.st28{fill:#8F8F8F;}
	.st29{fill:#A8A8A8;}
	.st30{fill:#969696;}
	.st31{fill:#757575;}
	.st32{fill:#363636;}
	.st33{fill:#5C5C5C;}
	.st34{fill:#B52828;}
	.st35{fill:#FF3838;}
	.st36{fill:#992222;}
	.st37{fill:#541313;}
	.st38{fill:#0C778F;}
	.st39{opacity:0.2;fill:#FFFFFF;enable-background:new    ;}
	.st40{fill:#8A1E1E;}
	.st41{fill:#11AACC;}
	.st42{fill:#C7C7C7;}
	.st43{fill:#C9C9C9;}
	.st44{fill:#3B3B3B;}
	.st45{fill:#8A8A8A;}
	.st46{fill:#666666;}
	.st47{fill:#D6D6D6;}
	.st48{fill:#2E2E2E;}
	.st49{fill:#3D3D3D;}
	.st50{fill:#696969;}
	.st51{fill:#595959;}
	.st52{fill:#424242;}
	.st53{fill:#FFC830;}
	.st54{fill:#5CAEFF;}
	.st55{fill:#577BFF;}
	.st56{fill:#714DFF;}
	.st57{fill:#3D9EFF;}
	.st58{fill:#4FD0FF;}
	.st59{fill:#4F72FF;}
	.st60{fill:#FFC21C;}
	.st61{fill:#FF6A00;}
	.st62{fill:#FFC526;}
	.st63{fill:#733000;}
	.st64{fill:#E169FF;}
	.st65{fill:#E63ED5;}
	.st66{fill:#FF9D00;}
	.st67{fill:#00FFD9;}
	.st68{fill:#0080FF;}
	.st69{fill:#0022FF;}
	.st70{fill:#FF4400;}
	.st71{fill:#FF1C14;}
	.st72{fill:#C2C2C2;}
	.st73{fill:#DBDBDB;}
	.st74{fill:#FF2B2B;}
	.st75{fill:#575757;}
	.st76{fill:#3C3C3C;}
	.st77{fill:#1887D0;}
	.st78{fill:#ACACAC;stroke:#3D3D3D;stroke-width:2.5;stroke-linecap:round;stroke-linejoin:round;stroke-dasharray:12,12;}
	.st79{fill:#3A3A3A;}
</style>
<rect class="st0" width="455.6" height="723.8"/>
<path class="st1" d="M414.5,23.7H27.8c-10.7,0-19.5,8.1-19.5,18.1v644.4c0,10,8.7,18.1,19.5,18.1h386.7c10.7,0,19.5-8.1,19.5-18.1
	V41.8C434,31.8,425.3,23.7,414.5,23.7z"/>
<defs>
	<filter id="Adobe_OpacityMaskFilter" filterUnits="userSpaceOnUse" x="-139.6" y="20.4" width="721.6" height="761.8">
		<feColorMatrix  type="matrix" values="1 0 0 0 0  0 1 0 0 0  0 0 1 0 0  0 0 0 1 0"/>
	</filter>
</defs>
<mask maskUnits="userSpaceOnUse" x="-139.6" y="20.4" width="721.6" height="761.8" id="mask0_185_8498_1_">
	<path class="st2" d="M414.5,23.7H27.8c-10.7,0-19.5,8.1-19.5,18.1v644.4c0,10,8.7,18.1,19.5,18.1h386.7c10.7,0,19.5-8.1,19.5-18.1
		V41.8C434,31.8,425.3,23.7,414.5,23.7z"/>
</mask>
<g class="st3">
	<path class="st4" d="M383.6,485.2h-324c-12.2,0-22,8.2-22,18.4v131.3c0,10.1,9.8,18.4,22,18.4h324c12.1,0,22-8.2,22-18.4V503.6
		C405.6,493.4,395.8,485.2,383.6,485.2z"/>
	<g class="st5">
		<path class="st6" d="M582,401.3l-360.8-136L582,430.1V401.3z"/>
		<path class="st6" d="M221.2,265.3l43.2,516.9h49.8L221.2,265.3L221.2,265.3z"/>
		<path class="st6" d="M360.4,782.2h43.4L221.2,265.3L360.4,782.2z"/>
		<path class="st6" d="M221.2,265.3l-38,516.9h38V265.3z"/>
		<path class="st6" d="M86.5,782.2h40.3l94.4-516.9L86.5,782.2z"/>
		<path class="st6" d="M221.2,265.3L582,565v-34.6L221.2,265.3z"/>
		<path class="st6" d="M457.3,782.2h52.5L221.2,265.3L457.3,782.2z"/>
		<path class="st6" d="M582,664.5v-56.2l-360.8-343L582,664.5z"/>
		<path class="st6" d="M221.2,265.3l356.2,516.9h4.6v-58.3L221.2,265.3L221.2,265.3z"/>
		<path class="st6" d="M221.2,265.3L582,493.9v-30.5L221.2,265.3z"/>
		<path class="st6" d="M-139.6,401.5v37.7l360.8-173.8L-139.6,401.5z"/>
		<path class="st6" d="M-13.1,782.2h45.8l188.6-516.9L-13.1,782.2z"/>
		<path class="st6" d="M221.2,265.3l-360.8,380.9v52.9L221.2,265.3z"/>
		<path class="st6" d="M221.2,265.3l-360.8,516.9h74.2L221.2,265.3z"/>
		<path class="st6" d="M221.2,265.3l-360.8,210v32.8L221.2,265.3z"/>
		<path class="st6" d="M-139.6,557.1v39.8l360.8-331.5L-139.6,557.1z"/>
		<path class="st6" d="M221.2,265.4L178,20.5h-49.8L221.2,265.4L221.2,265.4z"/>
		<path class="st6" d="M82,20.5H38.6l182.6,244.9L82,20.5z"/>
		<path class="st6" d="M221.2,265.4l38-244.9h-38V265.4z"/>
		<path class="st6" d="M355.9,20.5h-40.3l-94.4,244.9L355.9,20.5z"/>
		<path class="st6" d="M221.2,265.4l-360.8-27.7v45.4L221.2,265.4z"/>
		<path class="st6" d="M-14.8,20.5h-52.5l288.6,244.9L-14.8,20.5z"/>
		<path class="st6" d="M-139.6,138.2v56.2l360.8,71.1L-139.6,138.2z"/>
		<path class="st6" d="M221.2,265.4L-135,20.5h-4.6v58.3L221.2,265.4z"/>
		<path class="st6" d="M221.2,265.4l-360.8,63.7v39.2L221.2,265.4z"/>
		<path class="st6" d="M455.5,20.5h-45.7L221.2,265.4L455.5,20.5z"/>
		<path class="st6" d="M221.2,265.4l360.8-109v-52.9L221.2,265.4z"/>
		<path class="st6" d="M221.2,265.3L582,20.4h-74.2L221.2,265.3z"/>
		<path class="st6" d="M221.2,265.4l360.8,91v-41.5L221.2,265.4z"/>
		<path class="st6" d="M582,256.4v-50.5l-360.8,59.5L582,256.4z"/>
	</g>
</g>
<rect x="113.6" y="67.2" class="st0" width="213" height="195"/>
<path class="st7" d="M197.6,517.2H65.4c-8.7,0-15.7,5.9-15.7,13.1v99.5c0,7.2,7,13.1,15.7,13.1h132.2c8.7,0,15.7-5.9,15.7-13.1
	v-99.5C213.3,523.1,206.2,517.2,197.6,517.2z"/>
<rect x="95.6" y="528.2" class="st0" width="76.4" height="111.7"/>
<path class="st8" d="M115.8,628.7c2.6,0,4.7-0.4,4.7-0.9s-2.1-0.9-4.7-0.9c-2.6,0-4.7,0.4-4.7,0.9S113.3,628.7,115.8,628.7z"/>
<path class="st9" d="M110.6,632.2c6,0,10.9-2.2,10.9-4.8c0-2.7-4.9-4.8-10.9-4.8s-10.9,2.2-10.9,4.8
	C99.7,630,104.6,632.2,110.6,632.2z"/>
<path class="st10" d="M107.9,543.3h8.4V628v1.3l0,0v0l0,0l0,0l0,0l0,0l0,0l0,0l-0.1,0.1l0,0h0l0,0l0,0l0,0l0,0h0l-0.1,0l0,0l0,0l0,0
	l0,0l-0.1,0l0,0l-0.1,0l0,0l0,0l-0.1,0l0,0l-0.1,0l0,0l0,0l-0.1,0l-0.1,0l0,0l0,0l-0.1,0l0,0l-0.1,0l0,0l-0.1,0l0,0l0,0l-0.1,0l0,0
	l-0.1,0l0,0l0,0l-0.1,0l-0.1,0l0,0l0,0l-0.1,0h0l-0.1,0l0,0l-0.1,0l-0.1,0l0,0l-0.1,0h0l-0.1,0l-0.1,0l0,0l-0.1,0l-0.1,0l0,0l0,0
	l-0.1,0h0l-0.1,0l0,0l-0.1,0l-0.1,0h0l-0.1,0h0l-0.1,0l-0.1,0h0l-0.1,0h0l-0.1,0l0,0h0l-0.1,0h0l-0.1,0h0l-0.1,0h-0.1h0l-0.1,0h0
	h-0.1l0,0h-0.1h0h-0.1h0h0h-0.1h-0.1h-0.1h0h-0.1h-0.1h0h0h-0.1l0,0h0H111h-0.1h0h-0.1l-0.1,0h0h0l-0.1,0h0h0l-0.1,0h0h0l-0.1,0h0h0
	l-0.1,0l-0.1,0h-0.1l-0.1,0l-0.1,0l-0.1,0h0h0l-0.1,0l0,0h0l-0.1,0l0,0l-0.1,0l-0.1,0h0l0,0l-0.1,0l0,0h0l-0.1,0h0l0,0l-0.1,0
	l-0.1,0l-0.1,0l0,0l-0.1,0l-0.1,0h0l0,0l0,0l0,0l0,0l0,0l-0.1,0l0,0l0,0l-0.1,0l0,0l-0.1,0l0,0l-0.2-0.1l0,0v0l-0.1,0l0,0l0,0l0,0
	l0,0l0,0v-2V543.3z"/>
<path class="st11" d="M107.9,543.3h8.5v0.7c-1.2,0.9-2.7,1.3-4.2,1.3c-1.5,0-3-0.5-4.2-1.3L107.9,543.3z"/>
<path class="st12" d="M112.2,543.3h-4.2V628v1.3l0,0l0,0l0,0l0,0l0,0l0,0l0,0l0,0l0,0l0,0l0,0l0,0l0,0l0,0l0,0l0,0l0,0l0,0l0,0
	l0.1,0l0,0l0,0l0.1,0l0.1,0l0,0l0,0l0.1,0l0,0l0,0l0,0l0,0l0.1,0l0,0l0,0l0.1,0l0.1,0l0,0l0,0l0.1,0l0,0l0,0l0.1,0h0l0.1,0l0,0l0,0
	l0.1,0h0l0.1,0l0,0l0,0l0.1,0h0l0.1,0l0.1,0h0l0.1,0l0,0l0,0l0.1,0l0.1,0l0,0l0,0l0.1,0h0l0.1,0l0.1,0h0l0.1,0h0l0,0l0.1,0l0.1,0
	l0,0h0l0.1,0h0l0.1,0l0.1,0h0l0.1,0l0.1,0l0.1,0l0.1,0l0.1,0l0.1,0h0l0.1,0h0.1h0l0.1,0h0h0v-2.6V543.3z"/>
<path class="st13" d="M112.2,543.3h-4.3v0.7c1.2,0.9,2.7,1.3,4.2,1.3L112.2,543.3z"/>
<path class="st10" d="M112.2,531.9c1.4,0,2.7,0.4,3.8,1.1c1.1,0.7,2,1.7,2.5,2.9s0.7,2.5,0.4,3.7c-0.3,1.3-0.9,2.4-1.9,3.3
	c-1,0.9-2.2,1.5-3.5,1.8c-1.3,0.2-2.7,0.1-4-0.4c-1.3-0.5-2.3-1.3-3.1-2.4c-0.8-1.1-1.2-2.3-1.2-3.6c0-0.8,0.2-1.7,0.5-2.5
	c0.3-0.8,0.9-1.5,1.5-2.1c0.6-0.6,1.4-1.1,2.2-1.4C110.4,532,111.3,531.9,112.2,531.9z"/>
<path class="st12" d="M108.7,543.9c-0.8-0.4-1.5-1-2-1.7c-0.6-0.7-1-1.4-1.2-2.3c-0.2-0.8-0.3-1.7-0.2-2.5c0.1-0.8,0.4-1.6,0.9-2.4
	c0.5-0.7,1.1-1.4,1.8-1.9c0.7-0.5,1.5-0.9,2.4-1.1c0.9-0.2,1.8-0.3,2.7-0.2s1.8,0.4,2.5,0.8L108.7,543.9z"/>
<path class="st13" d="M119.1,538.3c0,0.9-0.1,1.7-0.4,2.5c-0.3,0.8-0.8,1.5-1.5,2.2c-0.6,0.6-1.4,1.1-2.3,1.5
	c-0.9,0.3-1.8,0.5-2.7,0.5c-0.9,0-1.8-0.2-2.7-0.5c-0.9-0.3-1.6-0.8-2.3-1.5c-0.6-0.6-1.1-1.4-1.5-2.2c-0.3-0.8-0.5-1.7-0.4-2.5
	c0,4.6,6.3,5,6.9,5C114.4,543.3,119.1,542.5,119.1,538.3z"/>
<path class="st14" d="M105.3,538.3c0,0.8,0.2,1.7,0.5,2.5c0.3,0.8,0.9,1.5,1.5,2.1c0.6,0.6,1.4,1.1,2.2,1.4c0.8,0.3,1.7,0.5,2.6,0.5
	v-1.4C109.8,543.3,105.3,542,105.3,538.3z"/>
<path class="st15" d="M108,544.3c1.4,0.6,2.9,1,4.5,1c1.6,0.1,3.1-0.3,4.5-1h51l-6.7,19l6.7,19h-51c-1.4,0.6-2.9,1-4.5,1
	c-1.6-0.1-3.1-0.4-4.5-1L108,544.3z"/>
<path class="st16" d="M112.2,545.7c1.5,0.1,2.9-0.3,4.2-1v37.5c-1.3,0.6-2.7,1-4.2,1V545.7z"/>
<path class="st16" d="M151.8,544.3H168l-7,19l7,19h-37L151.8,544.3z"/>
<path class="st17" d="M121.6,573.3l-2.9-2.6v-3.5h5v1.5l0.8,0.8h3.9l0.8-0.8v-3l-0.8-0.8h-5.7v-3.8h5.7l0.8-0.8V558l-0.8-0.8h-3.9
	l-0.8,0.8v1.5h-5V556l2.8-2.6h9.8l3,3v4.6l-2,2l2,2v5.3l-3,3H121.6z M137.6,573.3v-19.9h4.9l5.1,12.1l5.1-12.1h4.9v19.9H153v-10.9
	l-4.2,10.1h-2.4l-4.2-10.1v10.9H137.6z"/>
<path class="st18" d="M121.6,573.3L121.6,573.3L121.6,573.3L121.6,573.3L121.6,573.3z M118.7,570.6L118.7,570.6L118.7,570.6
	L118.7,570.6L118.7,570.6z M118.7,567.2v-0.1h-0.1L118.7,567.2L118.7,567.2z M123.8,567.2h0.1v-0.1h-0.1V567.2z M123.8,568.6
	L123.8,568.6L123.8,568.6L123.8,568.6L123.8,568.6z M124.6,569.5L124.6,569.5L124.6,569.5L124.6,569.5L124.6,569.5z M128.5,569.5
	L128.5,569.5L128.5,569.5L128.5,569.5L128.5,569.5z M129.3,568.6L129.3,568.6l0.1,0v0H129.3z M129.3,565.7h0.1v0L129.3,565.7
	L129.3,565.7z M128.5,564.9L128.5,564.9l0-0.1h0V564.9z M122.8,564.9L122.8,564.9L122.8,564.9L122.8,564.9L122.8,564.9z
	 M122.8,561.1L122.8,561.1L122.8,561.1L122.8,561.1L122.8,561.1z M128.5,561.1L128.5,561.1L128.5,561.1L128.5,561.1L128.5,561.1z
	 M129.3,560.3L129.3,560.3l0.1,0v0H129.3z M129.3,558h0.1v0L129.3,558L129.3,558z M128.5,557.2L128.5,557.2L128.5,557.2L128.5,557.2
	L128.5,557.2z M124.6,557.2L124.6,557.2L124.6,557.2L124.6,557.2L124.6,557.2z M123.8,558L123.8,558L123.8,558L123.8,558L123.8,558z
	 M123.8,559.5v0.1h0.1v-0.1H123.8z M118.7,559.5L118.7,559.5l-0.1,0.1h0.1V559.5z M118.7,556L118.7,556L118.7,556L118.7,556
	L118.7,556z M121.6,553.4v-0.1h0L121.6,553.4L121.6,553.4z M131.4,553.4L131.4,553.4l0-0.1h0V553.4z M134.4,556.4L134.4,556.4
	L134.4,556.4L134.4,556.4L134.4,556.4z M134.4,561L134.4,561L134.4,561L134.4,561L134.4,561z M132.4,563L132.4,563h-0.1H132.4
	L132.4,563z M134.4,565L134.4,565L134.4,565L134.4,565L134.4,565z M134.4,570.3L134.4,570.3L134.4,570.3L134.4,570.3L134.4,570.3z
	 M131.4,573.3L131.4,573.3L131.4,573.3L131.4,573.3L131.4,573.3z M121.7,573.2l-2.9-2.6l-0.1,0.1l2.9,2.6L121.7,573.2z M118.8,570.6
	v-3.5h-0.2v3.5H118.8z M118.7,567.3h5v-0.2h-5V567.3z M123.7,567.2v1.5h0.2v-1.5H123.7z M123.7,568.7l0.8,0.8l0.1-0.1l-0.8-0.8
	L123.7,568.7z M124.6,569.5h3.9v-0.2h-3.9V569.5z M128.6,569.5l0.8-0.8l-0.1-0.1l-0.8,0.8L128.6,569.5z M129.4,568.6v-3h-0.2v3
	H129.4z M129.4,565.6l-0.8-0.8l-0.1,0.1l0.8,0.8L129.4,565.6z M128.5,564.8h-5.7v0.2h5.7V564.8z M122.9,564.9v-3.8h-0.2v3.8H122.9z
	 M122.8,561.2h5.7V561h-5.7V561.2z M128.6,561.2l0.8-0.8l-0.1-0.1l-0.8,0.8L128.6,561.2z M129.4,560.3V558h-0.2v2.3H129.4z
	 M129.4,558l-0.8-0.8l-0.1,0.1l0.8,0.8L129.4,558z M128.5,557.1h-3.9v0.2h3.9V557.1z M124.5,557.1l-0.8,0.8l0.1,0.1l0.8-0.8
	L124.5,557.1z M123.7,558v1.5h0.2V558H123.7z M123.8,559.4h-5v0.2h5V559.4z M118.8,559.5V556h-0.2v3.5H118.8z M118.8,556.1l2.8-2.6
	l-0.1-0.1l-2.8,2.6L118.8,556.1z M121.6,553.5h9.8v-0.2h-9.8V553.5z M131.3,553.5l3,3l0.1-0.1l-3-3L131.3,553.5z M134.3,556.4v4.6
	h0.2v-4.6H134.3z M134.3,561l-2,2l0.1,0.1l2-2L134.3,561z M132.3,563.1l2,2l0.1-0.1l-2-2L132.3,563.1z M134.3,565v5.3h0.2V565H134.3
	z M134.3,570.2l-3,3l0.1,0.1l3-3L134.3,570.2z M131.4,573.2h-9.8v0.2h9.8V573.2z M137.6,573.3h-0.1v0.1L137.6,573.3L137.6,573.3z
	 M137.6,553.4v-0.1h-0.1v0.1H137.6z M142.6,553.4L142.6,553.4l0.1-0.1h-0.1V553.4z M147.7,565.5L147.7,565.5v0.3V565.5L147.7,565.5z
	 M152.8,553.4v-0.1h-0.1L152.8,553.4L152.8,553.4z M157.7,553.4h0.1v-0.1h-0.1V553.4z M157.7,573.3L157.7,573.3l0.1,0.1v-0.1H157.7z
	 M153,573.3L153,573.3L153,573.3L153,573.3L153,573.3z M153,562.3h0.1H153L153,562.3z M148.9,572.4v0.1h0.1L148.9,572.4L148.9,572.4
	z M146.5,572.4L146.5,572.4l-0.1,0.1h0.1V572.4z M142.3,562.3L142.3,562.3h-0.1H142.3z M142.3,573.3L142.3,573.3L142.3,573.3
	L142.3,573.3L142.3,573.3z M137.7,573.3v-19.9h-0.2v19.9H137.7z M137.6,553.5h4.9v-0.2h-4.9V553.5z M142.5,553.4l5.1,12.1l0.2-0.1
	l-5.1-12.1L142.5,553.4z M147.8,565.5l5.1-12.1l-0.2-0.1l-5.1,12.1L147.8,565.5z M152.8,553.5h4.9v-0.2h-4.9V553.5z M157.6,553.4
	v19.9h0.2v-19.9H157.6z M157.7,573.2H153v0.2h4.7V573.2z M153.1,573.3v-10.9h-0.2v10.9H153.1z M153,562.3l-4.2,10.1l0.2,0.1
	l4.2-10.1L153,562.3z M148.9,572.3h-2.4v0.2h2.4V572.3z M146.6,572.4l-4.2-10.1l-0.2,0.1l4.2,10.1L146.6,572.4z M142.2,562.3v10.9
	h0.2v-10.9H142.2z M142.3,573.2h-4.7v0.2h4.7V573.2z"/>
<path class="st19" d="M93.3,496.2c0.2,0,0.4,0.1,0.5,0.2c0.1,0.1,0.2,0.2,0.2,0.4l3.5,10.1c0,0.1,0.1,0.2,0.1,0.2
	c0,0.1,0,0.2-0.1,0.3c-0.1,0.1-0.1,0.1-0.2,0.1h-2c-0.2,0-0.4,0-0.5-0.1c-0.1-0.1-0.1-0.2-0.2-0.3l-0.4-1.3h-4.3l-0.4,1.3
	c0,0.1-0.1,0.2-0.2,0.3c-0.1,0.1-0.2,0.1-0.4,0.1h-2c-0.1,0-0.2,0-0.3-0.1c-0.1-0.1-0.1-0.2-0.1-0.3c0-0.1,0-0.1,0.1-0.2l3.5-10.1
	c0-0.1,0.1-0.2,0.2-0.4c0.1-0.1,0.3-0.2,0.5-0.2H93.3z M90.7,503.2h2.6l-1.3-3.8L90.7,503.2z M103.5,496.2c0.7,0,1.4,0.1,2,0.3
	c0.6,0.2,1.1,0.5,1.6,0.9c0.4,0.4,0.8,0.9,1,1.4c0.3,0.5,0.4,1.1,0.4,1.8c0,0.2,0,0.4,0,0.6c0,0.2,0,0.4,0,0.5c0,0.2,0,0.3,0,0.5
	c0,0.2,0,0.4,0,0.6c0,0.7-0.2,1.3-0.4,1.8c-0.2,0.5-0.6,1-1,1.4c-0.4,0.4-0.9,0.7-1.5,0.9c-0.6,0.2-1.3,0.3-2,0.3h-4.3
	c-0.1,0-0.2,0-0.3-0.1c-0.1-0.1-0.1-0.2-0.1-0.3v-10.3c0-0.1,0-0.2,0.1-0.3c0.1-0.1,0.2-0.1,0.3-0.1H103.5z M105.6,500.6
	c-0.1-1.2-0.8-1.8-2.2-1.8h-1.6v6.1h1.7c1.3,0,2-0.6,2.1-1.8c0-0.2,0-0.4,0-0.6c0-0.2,0-0.4,0-0.6c0-0.2,0-0.4,0-0.6
	C105.7,501,105.6,500.8,105.6,500.6z M118,496c0.7,0,1.3,0.1,1.9,0.3c0.6,0.2,1.1,0.4,1.5,0.8c0.4,0.3,0.7,0.7,1,1
	c0.2,0.4,0.4,0.7,0.4,1.1c0,0.1,0,0.2-0.1,0.3c-0.1,0.1-0.1,0.1-0.2,0.1h-2.1c-0.1,0-0.3,0-0.4-0.1c-0.1,0-0.2-0.1-0.3-0.2
	c0,0-0.1-0.1-0.2-0.2c-0.1-0.1-0.2-0.1-0.3-0.2c-0.1-0.1-0.3-0.2-0.5-0.2c-0.2-0.1-0.4-0.1-0.7-0.1c-0.2,0-0.4,0-0.6,0
	c-0.2,0-0.3,0.1-0.5,0.1c-0.1,0.1-0.3,0.1-0.4,0.2c-0.1,0.1-0.1,0.2-0.1,0.4c0,0.2,0,0.3,0.1,0.4c0.1,0.1,0.3,0.2,0.5,0.3
	c0.2,0.1,0.6,0.2,1,0.3c0.4,0.1,0.9,0.2,1.5,0.3c0.6,0.1,1.1,0.3,1.5,0.4c0.4,0.2,0.8,0.4,1.1,0.7c0.3,0.3,0.5,0.6,0.7,1
	c0.2,0.4,0.2,0.8,0.2,1.3c0,0.5-0.1,1-0.4,1.5c-0.2,0.4-0.6,0.8-1,1.1c-0.4,0.3-1,0.5-1.6,0.7c-0.6,0.2-1.3,0.2-2,0.2
	c-0.7,0-1.4-0.1-2-0.3c-0.6-0.2-1.1-0.4-1.6-0.8c-0.4-0.3-0.8-0.7-1-1.1c-0.2-0.4-0.4-0.8-0.4-1.2c0-0.1,0-0.2,0.1-0.2
	c0.1-0.1,0.2-0.1,0.2-0.1h2.1c0.1,0,0.3,0,0.4,0.1c0.1,0,0.2,0.1,0.3,0.2c0,0,0.1,0.1,0.2,0.2c0.1,0.1,0.2,0.2,0.3,0.3
	c0.2,0.1,0.3,0.2,0.5,0.3c0.2,0.1,0.5,0.1,0.8,0.1c0.6,0,1-0.1,1.4-0.2c0.4-0.1,0.6-0.4,0.6-0.7c0-0.2-0.1-0.3-0.2-0.4
	c-0.1-0.1-0.3-0.2-0.6-0.3c-0.3-0.1-0.6-0.2-1.1-0.3c-0.4-0.1-0.9-0.2-1.5-0.3c-1.1-0.2-1.9-0.6-2.4-1.2c-0.5-0.6-0.8-1.3-0.8-2.2
	c0-0.5,0.1-0.9,0.3-1.3c0.2-0.4,0.5-0.8,0.9-1.1c0.4-0.3,0.9-0.6,1.4-0.8C116.7,496.1,117.3,496,118,496z M129.6,496.2
	c0.7,0,1.3,0.1,1.8,0.2c0.5,0.1,1,0.4,1.4,0.7c0.4,0.3,0.7,0.7,0.9,1.2c0.2,0.5,0.3,1,0.3,1.6c0,0.6-0.1,1.2-0.3,1.6
	c-0.2,0.5-0.5,0.9-0.9,1.2c-0.4,0.3-0.8,0.5-1.4,0.7c-0.5,0.2-1.2,0.2-1.8,0.2h-2v3.3c0,0.1,0,0.2-0.1,0.3c-0.1,0.1-0.2,0.1-0.3,0.1
	H125c-0.1,0-0.2,0-0.3-0.1c-0.1-0.1-0.1-0.2-0.1-0.3v-10.3c0-0.1,0-0.2,0.1-0.3c0.1-0.1,0.2-0.1,0.3-0.1H129.6z M127.6,501.2h2
	c0.4,0,0.8-0.1,1.1-0.3c0.3-0.2,0.4-0.5,0.4-1s-0.1-0.8-0.4-1c-0.3-0.2-0.7-0.3-1.1-0.3h-2V501.2z M143.6,504.8c0.1,0,0.2,0,0.3,0.1
	c0.1,0.1,0.1,0.2,0.1,0.3v1.7c0,0.1,0,0.2-0.1,0.3c-0.1,0.1-0.2,0.1-0.3,0.1H136c-0.1,0-0.2,0-0.3-0.1c-0.1-0.1-0.1-0.2-0.1-0.3
	v-10.3c0-0.1,0-0.2,0.1-0.3c0.1-0.1,0.2-0.1,0.3-0.1h7.5c0.1,0,0.2,0,0.3,0.1c0.1,0.1,0.1,0.2,0.1,0.3v1.7c0,0.1,0,0.2-0.1,0.3
	c-0.1,0.1-0.2,0.1-0.3,0.1h-4.9v1.7h4.6c0.1,0,0.2,0,0.3,0.1c0.1,0.1,0.1,0.2,0.1,0.3v1.7c0,0.1,0,0.2-0.1,0.3
	c-0.1,0.1-0.2,0.1-0.3,0.1h-4.6v1.8H143.6z M153.1,507.4c-0.2,0-0.3,0-0.4-0.1c-0.1-0.1-0.2-0.2-0.2-0.2l-3.7-5.5v5.4
	c0,0.1,0,0.2-0.1,0.3c-0.1,0.1-0.2,0.1-0.3,0.1h-2.1c-0.1,0-0.2,0-0.3-0.1c-0.1-0.1-0.1-0.2-0.1-0.3v-10.3c0-0.1,0-0.2,0.1-0.3
	c0.1-0.1,0.2-0.1,0.3-0.1h1.7c0.2,0,0.3,0,0.4,0.1c0.1,0.1,0.2,0.2,0.2,0.2l3.7,5.5v-5.4c0-0.1,0-0.2,0.1-0.3
	c0.1-0.1,0.2-0.1,0.3-0.1h2.1c0.1,0,0.2,0,0.3,0.1c0.1,0.1,0.1,0.2,0.1,0.3v10.3c0,0.1,0,0.2-0.1,0.3c-0.1,0.1-0.2,0.1-0.3,0.1
	H153.1z M165.7,496.2c0.1,0,0.2,0,0.3,0.1c0.1,0.1,0.1,0.2,0.1,0.3v1.7c0,0.1,0,0.2-0.1,0.3c-0.1,0.1-0.2,0.1-0.3,0.1h-2.8v8.2
	c0,0.1,0,0.2-0.1,0.3c-0.1,0.1-0.2,0.1-0.3,0.1h-2.1c-0.1,0-0.2,0-0.3-0.1c-0.1-0.1-0.1-0.2-0.1-0.3v-8.2h-2.8c-0.1,0-0.2,0-0.3-0.1
	c-0.1-0.1-0.1-0.2-0.1-0.3v-1.7c0-0.1,0-0.2,0.1-0.3c0.1-0.1,0.2-0.1,0.3-0.1H165.7z"/>
<path class="st7" d="M376.6,517.2H244.4c-8.7,0-15.7,5.9-15.7,13.1v99.5c0,7.2,7,13.1,15.7,13.1h132.2c8.7,0,15.7-5.9,15.7-13.1
	v-99.5C392.3,523.1,385.2,517.2,376.6,517.2z"/>
<rect x="275.6" y="529.2" class="st0" width="77.4" height="111.7"/>
<path class="st8" d="M296,629.5c2.6,0,4.7-0.4,4.7-0.9c0-0.5-2.1-0.9-4.7-0.9c-2.6,0-4.7,0.4-4.7,0.9
	C291.3,629.1,293.4,629.5,296,629.5z"/>
<path class="st9" d="M290.8,633.1c6,0,10.9-2.2,10.9-4.8s-4.9-4.8-10.9-4.8c-6,0-10.9,2.2-10.9,4.8S284.7,633.1,290.8,633.1z"/>
<path class="st10" d="M288.1,544.2h8.4v84.6v1.3l0,0l0,0l0,0l0,0l0,0l0,0l0,0l0,0l-0.1,0.1l0,0l-0.1,0l0,0l0,0l0,0h0l-0.1,0l0,0l0,0
	l0,0l0,0l-0.1,0l0,0l-0.1,0l0,0l0,0l-0.1,0l0,0l-0.1,0l0,0l0,0l-0.1,0l-0.1,0l0,0l0,0l-0.1,0l0,0l-0.1,0l0,0l-0.1,0l0,0h0l-0.1,0h0
	l-0.1,0l0,0l0,0l-0.1,0l-0.1,0l0,0l0,0l-0.1,0h0l-0.1,0l0,0l-0.1,0l-0.1,0l0,0l-0.1,0h0l-0.1,0l-0.1,0l0,0l-0.1,0h0l-0.1,0l0,0l0,0
	l-0.1,0l0,0l-0.1,0l0,0l-0.1,0l-0.1,0h0l-0.1,0h0l-0.1,0l-0.1,0h0l-0.1,0h0l-0.1,0l0,0h0l-0.1,0h0l-0.1,0h0h-0.1l-0.1,0h0l-0.1,0h0
	h-0.1l0,0h-0.1h0h-0.1h-0.1h0h-0.1h-0.1h-0.1h0h-0.1h-0.1h0h0h-0.1l0,0h0h-0.1h-0.1h0l-0.1,0H291h0h0l-0.1,0h0h0l-0.1,0h0h0l-0.1,0
	h0h0l-0.1,0l-0.1,0h-0.1l-0.1,0l-0.1,0l-0.1,0h0l0,0l-0.1,0h0h0l-0.1,0l-0.1,0l-0.1,0l-0.1,0l0,0h0l-0.1,0l0,0l0,0l0,0h0l0,0l-0.1,0
	l-0.1,0l-0.1,0l-0.1,0l0,0l-0.1,0h0l0,0l-0.1,0l0,0l0,0l0,0l-0.1,0l0,0l0,0h0l0,0l0,0l-0.1,0l0,0l-0.2-0.1l0,0v0l0,0l0,0l0,0l0,0
	l0,0l0,0v-2V544.2z"/>
<path class="st11" d="M288.1,544.2h8.4v0.7c-1.2,0.9-2.7,1.3-4.2,1.3c-1.5,0-3-0.5-4.2-1.3V544.2z"/>
<path class="st12" d="M292.3,544.2h-4.2v84.6v1.3l0,0l0,0l0,0l0,0l0,0l0,0l0,0l0,0l0,0l0,0l0,0h0l0,0l0,0l0,0l0,0l0,0l0,0l0,0l0,0
	l0.1,0l0,0l0,0l0,0l0.1,0l0,0l0,0l0.1,0l0,0l0.1,0l0,0l0,0l0.1,0l0,0l0,0l0.1,0l0.1,0l0,0l0,0l0.1,0l0,0l0,0l0.1,0h0l0.1,0l0,0l0,0
	l0.1,0l0.1,0l0,0l0,0l0.1,0h0l0.1,0l0.1,0h0l0.1,0l0,0l0,0l0.1,0l0.1,0l0,0l0,0l0.1,0h0l0.1,0l0.1,0h0l0.1,0h0l0,0l0.1,0l0.1,0l0,0
	h0l0.1,0h0l0.1,0l0.1,0h0l0.1,0l0.1,0l0.1,0l0.1,0l0.1,0l0.1,0h0h0.1l0.1,0h0l0.1,0h0h0v-2.6V544.2z"/>
<path class="st13" d="M292.3,544.2h-4.2v0.7c1.2,0.9,2.7,1.3,4.2,1.3V544.2z"/>
<path class="st10" d="M292.3,532.7c1.4,0,2.7,0.4,3.8,1.1c1.1,0.7,2,1.7,2.5,2.9c0.5,1.2,0.7,2.5,0.4,3.7c-0.3,1.3-0.9,2.4-1.9,3.3
	c-1,0.9-2.2,1.5-3.5,1.8c-1.3,0.2-2.7,0.1-4-0.4c-1.3-0.5-2.3-1.3-3.1-2.4s-1.2-2.3-1.2-3.6c0-1.7,0.7-3.3,2-4.5
	S290.5,532.7,292.3,532.7z"/>
<path class="st12" d="M288.8,544.8c-1.6-0.9-2.7-2.3-3.2-3.9c-0.2-0.8-0.3-1.7-0.2-2.5c0.1-0.8,0.4-1.6,0.9-2.4
	c0.5-0.7,1.1-1.4,1.8-1.9c0.7-0.5,1.5-0.9,2.4-1.1c1.8-0.4,3.7-0.2,5.2,0.6L288.8,544.8z"/>
<path class="st13" d="M299.2,539.2c0,0.9-0.1,1.7-0.5,2.5c-0.3,0.8-0.8,1.5-1.5,2.2c-0.6,0.6-1.4,1.1-2.3,1.5
	c-0.9,0.3-1.8,0.5-2.7,0.5c-0.9,0-1.8-0.2-2.7-0.5c-0.9-0.3-1.6-0.8-2.3-1.5c-0.6-0.6-1.1-1.4-1.5-2.2c-0.3-0.8-0.5-1.7-0.4-2.5
	c0,4.6,6.3,5,6.9,5C294.6,544.2,299.2,543.4,299.2,539.2z"/>
<path class="st14" d="M285.4,539.2c0,0.8,0.2,1.7,0.5,2.5s0.9,1.5,1.5,2.1c0.6,0.6,1.4,1.1,2.2,1.4c0.8,0.3,1.7,0.5,2.6,0.5v-1.5
	C290,544.2,285.4,542.9,285.4,539.2z"/>
<path class="st20" d="M288.5,545.5c1.3,0.6,2.8,1,4.3,1c1.5,0,3-0.3,4.3-1h49.3l-6.5,19l6.5,19h-49.3c-1.3,0.6-2.8,1-4.3,1
	c-1.5-0.1-3-0.4-4.3-1L288.5,545.5z"/>
<path class="st16" d="M292.3,546.6c1.5,0,2.9-0.3,4.2-1v37.5c-1.3,0.6-2.8,1-4.2,1V546.6z"/>
<path class="st16" d="M330.7,545.5h15.8l-6.8,19l6.8,19h-36L330.7,545.5z"/>
<path class="st17" d="M298.8,574.5v-4.6l10.6-8.9v-1.7l-0.8-0.8H305l-0.8,0.8v2.1h-5v-4.1l2.8-2.6h9.6l2.9,2.6v5.3l-9.5,7.9h9.6v4
	H298.8z M317.8,574.5v-19.9h4.9l5.1,12.1l5.1-12.1h4.9v19.9h-4.7v-10.9l-4.2,10.1h-2.4l-4.2-10.1v10.9H317.8z"/>
<path class="st18" d="M298.8,574.5h-0.1v0.1L298.8,574.5L298.8,574.5z M298.8,569.8L298.8,569.8l-0.1,0v0H298.8z M309.3,560.9
	L309.3,560.9L309.3,560.9L309.3,560.9L309.3,560.9z M309.3,559.2L309.3,559.2L309.3,559.2L309.3,559.2L309.3,559.2z M308.5,558.4
	L308.5,558.4L308.5,558.4L308.5,558.4L308.5,558.4z M305,558.4L305,558.4L305,558.4L305,558.4L305,558.4z M304.2,559.2L304.2,559.2
	l-0.1,0v0H304.2z M304.2,561.3v0.1h0.1L304.2,561.3L304.2,561.3z M299.1,561.3H299v0.1h0.1V561.3z M299.1,557.2L299.1,557.2l-0.1,0
	v0H299.1z M301.9,554.6v-0.1h0L301.9,554.6L301.9,554.6z M311.5,554.6L311.5,554.6l0-0.1h0V554.6z M314.4,557.2L314.4,557.2
	L314.4,557.2L314.4,557.2L314.4,557.2z M314.4,562.6L314.4,562.6L314.4,562.6L314.4,562.6L314.4,562.6z M304.9,570.5L304.9,570.5
	l-0.3,0.1L304.9,570.5L304.9,570.5z M314.5,570.5L314.5,570.5L314.5,570.5L314.5,570.5L314.5,570.5z M314.5,574.5L314.5,574.5
	L314.5,574.5L314.5,574.5L314.5,574.5z M298.9,574.5v-4.6h-0.2v4.6H298.9z M298.9,569.9l10.6-8.9l-0.1-0.2l-10.6,8.9L298.9,569.9z
	 M309.4,560.9v-1.7h-0.2v1.7H309.4z M309.4,559.2l-0.8-0.8l-0.1,0.1l0.8,0.8L309.4,559.2z M308.5,558.3H305v0.2h3.6V558.3z
	 M304.9,558.4l-0.8,0.8l0.1,0.1l0.8-0.8L304.9,558.4z M304.1,559.2v2.1h0.2v-2.1H304.1z M304.2,561.2h-5v0.2h5V561.2z M299.2,561.3
	v-4.1H299v4.1H299.2z M299.2,557.3l2.8-2.6l-0.1-0.1l-2.8,2.6L299.2,557.3z M301.9,554.7h9.6v-0.2h-9.6V554.7z M311.5,554.7l2.9,2.6
	l0.1-0.1l-2.9-2.6L311.5,554.7z M314.3,557.2v5.3h0.2v-5.3H314.3z M314.3,562.5l-9.5,7.9l0.1,0.2l9.5-7.9L314.3,562.5z M304.9,570.6
	h9.6v-0.2h-9.6V570.6z M314.4,570.5v4h0.2v-4H314.4z M314.5,574.4h-15.7v0.2h15.7V574.4z M317.8,574.5h-0.1v0.1L317.8,574.5
	L317.8,574.5z M317.8,554.6v-0.1h-0.1v0.1H317.8z M322.7,554.6L322.7,554.6l0.1-0.1h-0.1V554.6z M327.8,566.7L327.8,566.7v0.3V566.7
	L327.8,566.7z M333,554.6v-0.1h-0.1L333,554.6L333,554.6z M337.9,554.6h0.1v-0.1h-0.1V554.6z M337.9,574.5L337.9,574.5l0.1,0.1v-0.1
	H337.9z M333.2,574.5L333.2,574.5L333.2,574.5L333.2,574.5L333.2,574.5z M333.2,563.6h0.1H333.2L333.2,563.6z M329,573.6v0.1h0.1
	L329,573.6L329,573.6z M326.6,573.6L326.6,573.6l-0.1,0.1h0.1V573.6z M322.5,563.6L322.5,563.6h-0.1H322.5z M322.5,574.5
	L322.5,574.5l0.1,0.1v-0.1H322.5z M317.9,574.5v-19.9h-0.2v19.9H317.9z M317.8,554.7h4.9v-0.2h-4.9V554.7z M322.6,554.6l5.1,12.1
	l0.2-0.1l-5.1-12.1L322.6,554.6z M327.9,566.7l5.1-12.1l-0.2-0.1l-5.1,12.1L327.9,566.7z M333,554.7h4.9v-0.2H333V554.7z
	 M337.8,554.6v19.9h0.2v-19.9H337.8z M337.9,574.4h-4.7v0.2h4.7V574.4z M333.3,574.5v-10.9h-0.2v10.9H333.3z M333.1,563.5l-4.2,10.1
	l0.2,0.1l4.2-10.1L333.1,563.5z M329,573.5h-2.4v0.2h2.4V573.5z M326.7,573.6l-4.2-10.1l-0.2,0.1l4.2,10.1L326.7,573.6z
	 M322.4,563.6v10.9h0.2v-10.9H322.4z M322.5,574.4h-4.7v0.2h4.7V574.4z"/>
<path class="st19" d="M266.2,507.1c-0.1,0-0.2,0-0.3-0.1c-0.1-0.1-0.1-0.2-0.1-0.3v-10.3c0-0.1,0-0.2,0.1-0.3
	c0.1-0.1,0.2-0.1,0.3-0.1h2.1c0.1,0,0.2,0,0.3,0.1c0.1,0.1,0.1,0.2,0.1,0.3v10.3c0,0.1,0,0.2-0.1,0.3c-0.1,0.1-0.2,0.1-0.3,0.1
	H266.2z M278.2,507.1c-0.2,0-0.3,0-0.4-0.1c-0.1-0.1-0.2-0.2-0.2-0.2l-3.7-5.5v5.4c0,0.1,0,0.2-0.1,0.3c-0.1,0.1-0.2,0.1-0.3,0.1
	h-2.1c-0.1,0-0.2,0-0.3-0.1c-0.1-0.1-0.1-0.2-0.1-0.3v-10.3c0-0.1,0-0.2,0.1-0.3c0.1-0.1,0.2-0.1,0.3-0.1h1.7c0.2,0,0.3,0,0.4,0.1
	c0.1,0.1,0.2,0.2,0.2,0.2l3.7,5.5v-5.4c0-0.1,0-0.2,0.1-0.3c0.1-0.1,0.2-0.1,0.3-0.1h2.1c0.1,0,0.2,0,0.3,0.1
	c0.1,0.1,0.1,0.2,0.1,0.3v10.3c0,0.1,0,0.2-0.1,0.3c-0.1,0.1-0.2,0.1-0.3,0.1H278.2z M285.2,500.2c0,0.1,0,0.3,0,0.6
	c0,0.2,0,0.5,0,0.8c0,0.3,0,0.5,0,0.8c0,0.2,0,0.4,0,0.6c0,0.2,0.1,0.5,0.1,0.7c0.1,0.2,0.2,0.4,0.4,0.6c0.2,0.2,0.4,0.3,0.6,0.4
	c0.2,0.1,0.5,0.1,0.9,0.1s0.7,0,0.9-0.1c0.2-0.1,0.4-0.2,0.6-0.3c0.1-0.1,0.3-0.3,0.3-0.4c0.1-0.1,0.1-0.3,0.2-0.4
	c0.1-0.2,0.1-0.3,0.2-0.4c0.1-0.1,0.2-0.1,0.4-0.1h2.1c0.1,0,0.2,0,0.2,0.1c0.1,0.1,0.1,0.1,0.1,0.2c0,0.5-0.1,1.1-0.4,1.5
	c-0.3,0.5-0.6,0.9-1.1,1.2c-0.4,0.4-1,0.6-1.6,0.8c-0.6,0.2-1.2,0.3-2,0.3c-0.8,0-1.5-0.1-2.1-0.3c-0.6-0.2-1.1-0.5-1.5-0.9
	c-0.4-0.4-0.8-0.9-1-1.4c-0.2-0.5-0.4-1.1-0.4-1.7c0-0.4,0-0.9,0-1.4s0-1,0-1.4c0-0.6,0.1-1.1,0.4-1.7c0.2-0.5,0.6-1,1-1.4
	c0.4-0.4,0.9-0.7,1.6-0.9c0.6-0.2,1.3-0.4,2.1-0.4c0.7,0,1.4,0.1,2,0.3c0.6,0.2,1.1,0.5,1.6,0.8c0.4,0.4,0.8,0.8,1.1,1.2
	c0.3,0.5,0.4,1,0.4,1.5c0,0.1,0,0.2-0.1,0.3c-0.1,0.1-0.1,0.1-0.2,0.1h-2.1c-0.2,0-0.3,0-0.4-0.1c-0.1-0.1-0.1-0.2-0.2-0.4
	c0-0.1-0.1-0.3-0.2-0.4c-0.1-0.1-0.2-0.3-0.3-0.4c-0.1-0.1-0.3-0.2-0.6-0.3c-0.2-0.1-0.5-0.1-0.9-0.1s-0.7,0.1-0.9,0.2
	c-0.2,0.1-0.4,0.2-0.6,0.4s-0.3,0.4-0.4,0.6C285.2,499.7,285.2,499.9,285.2,500.2z M301.8,504.5c0.1,0,0.2,0,0.3,0.1
	c0.1,0.1,0.1,0.2,0.1,0.3v1.7c0,0.1,0,0.2-0.1,0.3c-0.1,0.1-0.2,0.1-0.3,0.1h-7.6c-0.1,0-0.2,0-0.3-0.1c-0.1-0.1-0.1-0.2-0.1-0.3
	v-10.3c0-0.1,0-0.2,0.1-0.3c0.1-0.1,0.2-0.1,0.3-0.1h7.5c0.1,0,0.2,0,0.3,0.1c0.1,0.1,0.1,0.2,0.1,0.3v1.7c0,0.1,0,0.2-0.1,0.3
	c-0.1,0.1-0.2,0.1-0.3,0.1h-4.9v1.7h4.6c0.1,0,0.2,0,0.3,0.1c0.1,0.1,0.1,0.2,0.1,0.3v1.7c0,0.1,0,0.2-0.1,0.3
	c-0.1,0.1-0.2,0.1-0.3,0.1h-4.6v1.8H301.8z M311.4,507.1c-0.2,0-0.3,0-0.4-0.1c-0.1-0.1-0.2-0.2-0.2-0.2l-3.7-5.5v5.4
	c0,0.1,0,0.2-0.1,0.3c-0.1,0.1-0.2,0.1-0.3,0.1h-2.1c-0.1,0-0.2,0-0.3-0.1c-0.1-0.1-0.1-0.2-0.1-0.3v-10.3c0-0.1,0-0.2,0.1-0.3
	c0.1-0.1,0.2-0.1,0.3-0.1h1.7c0.2,0,0.3,0,0.4,0.1c0.1,0.1,0.2,0.2,0.2,0.2l3.7,5.5v-5.4c0-0.1,0-0.2,0.1-0.3
	c0.1-0.1,0.2-0.1,0.3-0.1h2.1c0.1,0,0.2,0,0.3,0.1c0.1,0.1,0.1,0.2,0.1,0.3v10.3c0,0.1,0,0.2-0.1,0.3c-0.1,0.1-0.2,0.1-0.3,0.1
	H311.4z M323.9,495.9c0.1,0,0.2,0,0.3,0.1s0.1,0.2,0.1,0.3v1.7c0,0.1,0,0.2-0.1,0.3c-0.1,0.1-0.2,0.1-0.3,0.1h-2.8v8.2
	c0,0.1,0,0.2-0.1,0.3c-0.1,0.1-0.2,0.1-0.3,0.1h-2.1c-0.1,0-0.2,0-0.3-0.1s-0.1-0.2-0.1-0.3v-8.2h-2.8c-0.1,0-0.2,0-0.3-0.1
	c-0.1-0.1-0.1-0.2-0.1-0.3v-1.7c0-0.1,0-0.2,0.1-0.3c0.1-0.1,0.2-0.1,0.3-0.1H323.9z M326.2,507.1c-0.1,0-0.2,0-0.3-0.1
	c-0.1-0.1-0.1-0.2-0.1-0.3v-10.3c0-0.1,0-0.2,0.1-0.3c0.1-0.1,0.2-0.1,0.3-0.1h2.1c0.1,0,0.2,0,0.3,0.1c0.1,0.1,0.1,0.2,0.1,0.3
	v10.3c0,0.1,0,0.2-0.1,0.3c-0.1,0.1-0.2,0.1-0.3,0.1H326.2z M334.4,507.1c-0.4,0-0.7-0.2-0.8-0.6l-3.3-10c0-0.1,0-0.1,0-0.1
	c0,0,0,0,0-0.1c0-0.1,0-0.2,0.1-0.2c0.1-0.1,0.2-0.1,0.3-0.1h2c0.2,0,0.4,0,0.4,0.1c0.1,0.1,0.2,0.2,0.2,0.3l2.2,7l2.2-7
	c0-0.1,0.1-0.2,0.2-0.3c0.1-0.1,0.3-0.1,0.5-0.1h2c0.1,0,0.2,0,0.2,0.1c0.1,0.1,0.1,0.1,0.1,0.2c0,0,0,0,0,0.1c0,0,0,0.1,0,0.1
	l-3.3,10c-0.1,0.4-0.4,0.6-0.8,0.6H334.4z M350.2,504.5c0.1,0,0.2,0,0.3,0.1c0.1,0.1,0.1,0.2,0.1,0.3v1.7c0,0.1,0,0.2-0.1,0.3
	c-0.1,0.1-0.2,0.1-0.3,0.1h-7.6c-0.1,0-0.2,0-0.3-0.1c-0.1-0.1-0.1-0.2-0.1-0.3v-10.3c0-0.1,0-0.2,0.1-0.3c0.1-0.1,0.2-0.1,0.3-0.1
	h7.5c0.1,0,0.2,0,0.3,0.1c0.1,0.1,0.1,0.2,0.1,0.3v1.7c0,0.1,0,0.2-0.1,0.3c-0.1,0.1-0.2,0.1-0.3,0.1h-4.9v1.7h4.6
	c0.1,0,0.2,0,0.3,0.1c0.1,0.1,0.1,0.2,0.1,0.3v1.7c0,0.1,0,0.2-0.1,0.3c-0.1,0.1-0.2,0.1-0.3,0.1h-4.6v1.8H350.2z"/>
<path class="st21" d="M396.4,44.3H46c-10.7,0-19.5,8.1-19.5,18.1v603.2c0,10,8.7,18.1,19.5,18.1h350.4c10.7,0,19.5-8.1,19.5-18.1
	V62.4C415.8,52.4,407.1,44.3,396.4,44.3z"/>
<path class="st22" d="M361.8,45l21.9,23.7c0.1,0.1,0.2,0.3,0.3,0.5c0,0.2,0,0.4,0,0.5c-0.1,0.2-0.2,0.3-0.3,0.4
	c-0.1,0.1-0.3,0.2-0.5,0.2h-68.9c-0.2,0-0.5-0.1-0.6-0.3c-0.2-0.2-0.2-0.4-0.2-0.6V19.2c0-0.1,0-0.2,0-0.3c0-0.1,0.1-0.2,0.2-0.3
	c0.1-0.1,0.2-0.2,0.3-0.2c0.1-0.1,0.2-0.1,0.4-0.1h68.9c0.2,0,0.4,0.1,0.5,0.2s0.3,0.3,0.3,0.4c0.1,0.2,0.1,0.3,0,0.5
	c0,0.2-0.1,0.3-0.2,0.5l-21.9,23.7c-0.2,0.2-0.3,0.4-0.3,0.7C361.5,44.6,361.6,44.8,361.8,45z"/>
<path class="st22" d="M80.6,45L58.7,68.8c-0.1,0.1-0.2,0.3-0.3,0.5c0,0.2,0,0.4,0,0.5c0.1,0.2,0.2,0.3,0.3,0.4
	c0.1,0.1,0.3,0.2,0.5,0.2h68.9c0.2,0,0.5-0.1,0.6-0.3c0.2-0.2,0.2-0.4,0.2-0.6V19.2c0-0.1,0-0.2,0-0.3c0-0.1-0.1-0.2-0.2-0.3
	c-0.1-0.1-0.2-0.2-0.3-0.2c-0.1-0.1-0.2-0.1-0.4-0.1H59.3c-0.2,0-0.4,0.1-0.5,0.2c-0.1,0.1-0.3,0.3-0.3,0.4c-0.1,0.2-0.1,0.3,0,0.5
	c0,0.2,0.1,0.3,0.2,0.5l21.9,23.7c0.2,0.2,0.3,0.4,0.3,0.7C80.9,44.6,80.8,44.8,80.6,45z"/>
<path class="st23" d="M338,8.2H105.6c-1.7,0-3,1.3-3,2.8v52.7c0,1.5,1.3,2.8,3,2.8H338c1.7,0,3-1.3,3-2.8V11
	C341,9.5,339.6,8.2,338,8.2z"/>
<path class="st24" d="M175.9,23.1c1.5,0,2.8,0.2,4,0.6c1.2,0.4,2.3,0.9,3.2,1.6c0.9,0.7,1.6,1.4,2.1,2.2c0.5,0.8,0.8,1.6,0.8,2.3
	c0,0.2-0.1,0.4-0.2,0.5c-0.1,0.1-0.3,0.2-0.5,0.2h-4.5c-0.3,0-0.6,0-0.8-0.1c-0.2-0.1-0.4-0.2-0.6-0.4c-0.1-0.1-0.2-0.2-0.3-0.3
	c-0.1-0.2-0.3-0.3-0.6-0.5c-0.3-0.2-0.6-0.3-1-0.4c-0.4-0.1-0.9-0.2-1.5-0.2c-0.4,0-0.8,0-1.3,0.1c-0.4,0-0.7,0.1-1.1,0.3
	c-0.3,0.1-0.5,0.3-0.7,0.5c-0.2,0.2-0.3,0.5-0.3,0.9s0.1,0.6,0.3,0.9c0.2,0.2,0.6,0.4,1.1,0.6c0.5,0.2,1.2,0.4,2,0.5
	c0.8,0.2,1.9,0.4,3.1,0.6c1.2,0.2,2.3,0.6,3.3,1c0.9,0.4,1.7,0.9,2.3,1.5c0.6,0.6,1.1,1.2,1.4,2c0.3,0.8,0.5,1.7,0.5,2.8
	c0,1.2-0.3,2.2-0.8,3.1c-0.5,0.9-1.3,1.7-2.2,2.3c-0.9,0.6-2,1.1-3.3,1.5c-1.3,0.3-2.7,0.5-4.2,0.5c-1.5,0-2.9-0.2-4.2-0.6
	c-1.3-0.4-2.4-0.9-3.3-1.6c-0.9-0.7-1.6-1.4-2.1-2.3c-0.5-0.8-0.8-1.7-0.8-2.5c0-0.2,0.1-0.4,0.2-0.5c0.2-0.2,0.3-0.2,0.5-0.2h4.5
	c0.3,0,0.6,0,0.7,0.1c0.2,0.1,0.4,0.2,0.5,0.3c0.1,0.1,0.2,0.2,0.4,0.4c0.2,0.2,0.4,0.4,0.7,0.6c0.3,0.2,0.7,0.4,1.2,0.5
	c0.5,0.2,1.1,0.2,1.7,0.2c1.2,0,2.2-0.1,3-0.4c0.8-0.3,1.2-0.7,1.2-1.4c0-0.3-0.1-0.6-0.4-0.8c-0.3-0.2-0.7-0.4-1.3-0.6
	c-0.6-0.2-1.3-0.4-2.3-0.6c-0.9-0.2-2-0.4-3.2-0.7c-2.3-0.5-4-1.3-5.1-2.5c-1.1-1.2-1.6-2.7-1.6-4.7c0-1,0.2-1.9,0.6-2.8
	c0.5-0.9,1.1-1.7,1.9-2.3c0.8-0.7,1.8-1.2,3-1.6C173,23.3,174.4,23.1,175.9,23.1z M207.2,23.4c0.3,0,0.5,0.1,0.6,0.3
	c0.2,0.2,0.3,0.4,0.3,0.6V28c0,0.2-0.1,0.5-0.3,0.6c-0.2,0.2-0.4,0.3-0.6,0.3h-6v17.4c0,0.2-0.1,0.5-0.3,0.6
	c-0.2,0.2-0.4,0.3-0.6,0.3h-4.5c-0.2,0-0.5-0.1-0.6-0.3c-0.2-0.2-0.3-0.4-0.3-0.6V28.9h-6c-0.2,0-0.5-0.1-0.6-0.3
	c-0.2-0.2-0.3-0.4-0.3-0.6v-3.6c0-0.2,0.1-0.5,0.3-0.6c0.2-0.2,0.4-0.3,0.6-0.3H207.2z M210,32.3c0.1-1.3,0.3-2.5,0.8-3.6
	c0.5-1.1,1.2-2.1,2.1-2.9c0.9-0.8,2-1.5,3.3-2c1.3-0.5,2.8-0.7,4.5-0.7c1.7,0,3.1,0.2,4.4,0.7c1.3,0.5,2.4,1.1,3.3,2
	c0.9,0.8,1.6,1.8,2.1,2.9c0.5,1.1,0.8,2.3,0.9,3.6c0,1,0.1,2,0.1,3.1c0,1.1,0,2.1-0.1,3c-0.1,1.3-0.4,2.5-0.9,3.6
	c-0.5,1.1-1.2,2.1-2.1,2.9c-0.9,0.8-2,1.5-3.3,2c-1.3,0.5-2.8,0.7-4.4,0.7c-1.7,0-3.2-0.2-4.5-0.7c-1.3-0.5-2.4-1.1-3.3-2
	c-0.9-0.8-1.6-1.8-2.1-2.9c-0.5-1.1-0.7-2.3-0.8-3.6c0-0.9-0.1-1.9-0.1-3C209.9,34.3,209.9,33.3,210,32.3z M224.9,38.2
	c0-0.4,0-0.9,0.1-1.4c0-0.5,0-1,0-1.5c0-0.5,0-1,0-1.5c0-0.5,0-0.9-0.1-1.3c0-0.6-0.2-1.1-0.4-1.6c-0.2-0.5-0.5-0.9-0.8-1.2
	c-0.3-0.4-0.8-0.6-1.3-0.9c-0.5-0.2-1.1-0.3-1.8-0.3c-0.7,0-1.3,0.1-1.8,0.3c-0.5,0.2-1,0.5-1.3,0.9c-0.3,0.3-0.6,0.7-0.8,1.2
	c-0.2,0.5-0.3,1-0.3,1.6c0,0.4-0.1,0.8-0.1,1.3c0,0.5,0,1,0,1.5c0,0.5,0,1,0,1.5c0,0.5,0.1,1,0.1,1.4c0.1,1.1,0.5,2.1,1.2,2.8
	c0.7,0.7,1.8,1.1,3.2,1.1c1.4,0,2.4-0.4,3.1-1.1C224.4,40.3,224.8,39.3,224.9,38.2z M245.3,23.4c1.5,0,2.8,0.2,4,0.5
	c1.2,0.3,2.2,0.8,3,1.4c0.8,0.6,1.5,1.5,1.9,2.4c0.5,1,0.7,2.1,0.7,3.4c0,1.7-0.4,3.1-1.1,4.3c-0.7,1.1-1.7,2-3,2.5l4.2,8.1
	c0.1,0.1,0.1,0.3,0.1,0.4c0,0.2-0.1,0.4-0.2,0.5c-0.1,0.1-0.3,0.2-0.5,0.2h-4.6c-0.5,0-0.8-0.1-1-0.3c-0.2-0.2-0.3-0.4-0.4-0.6
	l-3.8-7.3h-3.1v7.3c0,0.2-0.1,0.5-0.3,0.6c-0.2,0.2-0.4,0.3-0.6,0.3h-4.5c-0.3,0-0.5-0.1-0.6-0.3c-0.2-0.2-0.3-0.4-0.3-0.6v-22
	c0-0.2,0.1-0.5,0.3-0.6c0.2-0.2,0.4-0.3,0.6-0.3H245.3z M241.4,33.7h3.8c1,0,1.7-0.2,2.3-0.5c0.6-0.4,1-1,1-2s-0.3-1.6-1-2
	c-0.6-0.4-1.4-0.5-2.3-0.5h-3.8V33.7z M275.8,41.8c0.2,0,0.5,0.1,0.6,0.3c0.2,0.2,0.3,0.4,0.3,0.6v3.6c0,0.2-0.1,0.5-0.3,0.6
	c-0.2,0.2-0.4,0.3-0.6,0.3h-16.1c-0.2,0-0.5-0.1-0.6-0.3c-0.2-0.2-0.3-0.4-0.3-0.6v-22c0-0.2,0.1-0.5,0.3-0.6
	c0.2-0.2,0.4-0.3,0.6-0.3h15.8c0.2,0,0.5,0.1,0.6,0.3c0.2,0.2,0.3,0.4,0.3,0.6V28c0,0.2-0.1,0.5-0.3,0.6c-0.2,0.2-0.4,0.3-0.6,0.3
	h-10.5v3.7h9.7c0.2,0,0.5,0.1,0.6,0.3c0.2,0.2,0.3,0.4,0.3,0.6v3.6c0,0.2-0.1,0.5-0.3,0.6c-0.2,0.2-0.4,0.3-0.6,0.3h-9.7v3.8H275.8z
	"/>
<path class="st24" d="M113.6,262.7c18.2-1,36.5-1.6,54.7-1.9c9.1-0.2,18.2-0.3,27.4-0.4l27.4-0.1l27.4,0.1
	c9.1,0.1,18.2,0.2,27.4,0.4c18.2,0.4,36.5,0.9,54.7,2c-18.2,1-36.5,1.6-54.7,1.9c-9.1,0.2-18.2,0.3-27.4,0.4l-27.4,0.1l-27.4-0.1
	c-9.1-0.1-18.2-0.2-27.4-0.4C150.1,264.3,131.9,263.7,113.6,262.7z"/>
<path class="st24" d="M110.6,665.2c18.2-1.2,36.5-1.9,54.7-2.3c9.1-0.3,18.2-0.3,27.4-0.5l27.4-0.2l27.4,0.2
	c9.1,0.2,18.2,0.2,27.4,0.5c18.2,0.4,36.5,1.1,54.7,2.3c-18.2,1.2-36.5,1.9-54.7,2.3c-9.1,0.3-18.2,0.3-27.4,0.5l-27.4,0.1
	l-27.4-0.2c-9.1-0.2-18.2-0.2-27.4-0.5C147.1,667.1,128.9,666.4,110.6,665.2z"/>
<path class="st25" d="M194.9,246.1v-6.3h71v6.3H194.9z"/>
<path class="st26" d="M194.9,246.1l-67.2-38.8V201l67.2,38.8V246.1z"/>
<path class="st27" d="M265.9,239.8l47.4-27.4v6.3l-47.4,27.4V239.8z"/>
<path class="st28" d="M194.9,166.2v-6.3h71v6.3H194.9z"/>
<path class="st27" d="M194.9,166.2l-67.2-38.8V121l67.2,38.8V166.2z"/>
<path class="st29" d="M265.9,159.8l47.4-27.4v6.3l-47.4,27.4V159.8z"/>
<path class="st30" d="M194.9,159.8L127.7,121l82.9-47.9l102.7,59.3l-47.4,27.4H194.9z"/>
<path class="st31" d="M210.2,84L143,122.8l-5.6-3.2l72.8-42V84z"/>
<path class="st32" d="M303.6,131.4l-5.6,3.2L210.2,84v-6.5L303.6,131.4z"/>
<path class="st33" d="M298,134.7l-36,20.8h-62.3L143,122.8L210.2,84L298,134.7z"/>
<path class="st34" d="M265.9,166.2h-71v73.6h71V166.2z"/>
<path class="st35" d="M313.3,212.4l-47.4,27.4v-73.6l47.4-27.4V212.4z"/>
<path class="st36" d="M127.7,201l67.2,38.8v-73.6l-67.2-38.8V201z"/>
<path class="st37" d="M186.8,179.1v0.7l-52.4-30.2v-8.1l0.6,0.4v7.4L186.8,179.1z"/>
<path class="st38" d="M186.8,171.7v7.4L135,149.3v-7.4L186.8,171.7z"/>
<path class="st39" d="M149.9,157.9l3.1,1.8l-1.9-8.6l-3.2-1.8L149.9,157.9z"/>
<path class="st39" d="M161.7,164.6l10.7,6.2l-1.5-8.3l-10.7-6.1L161.7,164.6z"/>
<path class="st40" d="M271.8,179.1v0.7l37-21.3v-8.1l-0.6,0.4v7.4L271.8,179.1z"/>
<path class="st41" d="M271.8,171.7v7.4l36.4-20.9v-7.4L271.8,171.7z"/>
<path class="st39" d="M303.5,160.9l-3.1,1.8l1.9-8.5l3.1-1.8L303.5,160.9z"/>
<path class="st39" d="M288.5,169.4l-10.7,6.2l1.5-8.3l10.7-6.1L288.5,169.4z"/>
<path class="st40" d="M271.8,198v0.7l37-21.3v-8.1l-0.6,0.4v7.4L271.8,198z"/>
<path class="st41" d="M271.8,190.6v7.4l36.4-20.9v-7.4L271.8,190.6z"/>
<path class="st39" d="M303.5,179.9l-3.1,1.8l1.9-8.5l3.1-1.8L303.5,179.9z"/>
<path class="st39" d="M288.5,188.4l-10.7,6.2l1.5-8.3l10.7-6.1L288.5,188.4z"/>
<path class="st37" d="M186.8,198v0.7l-52.4-30.2v-8.1l0.6,0.4v7.4L186.8,198z"/>
<path class="st38" d="M186.8,190.6v7.4L135,168.2v-7.4L186.8,190.6z"/>
<path class="st39" d="M149.9,176.8l3.1,1.8l-1.9-8.5l-3.2-1.8L149.9,176.8z"/>
<path class="st39" d="M161.7,183.5l10.7,6.2l-1.5-8.3l-10.7-6.1L161.7,183.5z"/>
<path class="st30" d="M164.5,229.2l-28.2-16.3l5.5-3.2l28.2,16.3L164.5,229.2z"/>
<path class="st30" d="M161.7,232.2l-28.2-16.3l2.9-1.6l28.2,16.3L161.7,232.2z"/>
<path class="st30" d="M158.8,235.2l-28.2-16.3l2.9-1.6l28.2,16.3L158.8,235.2z"/>
<path class="st30" d="M155.9,238.2l-28.2-16.3l2.9-1.6l28.2,16.3L155.9,238.2z"/>
<path class="st31" d="M164.5,230.6l-28.2-16.3v-1.4l28.2,16.3V230.6z"/>
<path class="st31" d="M161.7,233.6l-28.2-16.3v-1.4l28.2,16.3V233.6z"/>
<path class="st31" d="M158.8,236.6l-28.2-16.3v-1.4l28.2,16.3V236.6z"/>
<path class="st31" d="M155.9,240.1l-28.2-16.3v-1.9l28.2,16.3V240.1z"/>
<path class="st42" d="M170.1,231.8l-14.2,8.3v-1.9l2.9-1.6v-1.4l2.9-1.6v-1.4l2.9-1.6v-1.4l5.5-3.2V231.8z"/>
<path class="st43" d="M148.8,199.5v13.4l-5.5-3.2v-13.4L148.8,199.5z"/>
<path class="st27" d="M148.4,205.9v0.4l-4.7-2.7v-6.2l0.3,0.2v5.8L148.4,205.9z"/>
<path class="st38" d="M148.4,200.1v5.8l-4.4-2.5v-5.8L148.4,200.1z"/>
<path class="st39" d="M148,199.8l-1.2-0.7l-2.4,4.5l1,0.6L148,199.8z"/>
<path class="st39" d="M148.4,202.2V201l-2,3.8l0.5,0.3L148.4,202.2z"/>
<path class="st27" d="M148.4,211.4v0.4l-4.7-2.7v-4.8l0.3,0.2v4.4L148.4,211.4z"/>
<path class="st38" d="M148.4,206.9v4.4l-4.4-2.5v-4.4L148.4,206.9z"/>
<path class="st39" d="M147.3,206.3l-1.2-0.7l-1.7,3.4l1,0.6L147.3,206.3z"/>
<path class="st39" d="M148.4,207.7v-0.7l-0.2-0.1l-1.8,3.4l0.5,0.3L148.4,207.7z"/>
<path class="st44" d="M154.4,216.1v0.6l-11.6-6.7v-14l0.5,0.3v13.4L154.4,216.1z"/>
<path class="st43" d="M154.4,202.7v13.4l-5.5-3.2v-13.4L154.4,202.7z"/>
<path class="st45" d="M148.7,199.4v13.4l0.2,0.1v-13.4L148.7,199.4z"/>
<path class="st27" d="M153.9,209.1v0.4l-4.7-2.7v-6.2l0.3,0.2v5.8L153.9,209.1z"/>
<path class="st38" d="M153.9,203.3v5.8l-4.4-2.5v-5.8L153.9,203.3z"/>
<path class="st39" d="M153.5,203l-1.2-0.7l-2.4,4.5l1,0.6L153.5,203z"/>
<path class="st39" d="M153.9,205.4v-1.2l-2,3.8l0.5,0.3L153.9,205.4z"/>
<path class="st27" d="M153.9,214.5v0.4l-4.7-2.7v-4.8l0.3,0.2v4.4L153.9,214.5z"/>
<path class="st38" d="M153.9,210.1v4.4l-4.4-2.5v-4.4L153.9,210.1z"/>
<path class="st39" d="M152.9,209.5l-1.2-0.7l-1.8,3.4l1,0.6L152.9,209.5z"/>
<path class="st39" d="M153.9,210.9v-0.7l-0.2-0.1l-1.8,3.4l0.5,0.3L153.9,210.9z"/>
<path class="st46" d="M149,207.5c0.2,0,0.4-0.2,0.4-0.4c0-0.2-0.2-0.4-0.4-0.4c-0.2,0-0.4,0.2-0.4,0.4
	C148.7,207.4,148.8,207.5,149,207.5z"/>
<path class="st47" d="M149.3,207c0,0,0,0.1,0,0.1c0,0,0,0-0.1,0c0,0,0,0-0.1,0c0,0,0-0.1,0-0.1C149.2,206.9,149.2,206.9,149.3,207z"
	/>
<path class="st46" d="M148.6,206.7c0,0.1,0,0.2-0.1,0.3c-0.1,0.1-0.2,0.1-0.3,0.1c-0.1,0-0.2,0-0.3-0.1c-0.1-0.1-0.1-0.2-0.1-0.3
	c0-0.1,0-0.2,0.1-0.3c0.1-0.1,0.2-0.1,0.3-0.1c0.1,0,0.2,0,0.3,0.1C148.5,206.6,148.6,206.7,148.6,206.7z"/>
<path class="st47" d="M148.5,206.5c0,0,0,0.1,0,0.1c0,0-0.1,0-0.1,0c0,0,0-0.1,0-0.1C148.4,206.5,148.4,206.5,148.5,206.5z"/>
<path class="st43" d="M163.8,208.1v13.4l-5.5-3.2v-13.4L163.8,208.1z"/>
<path class="st27" d="M163.3,214.5v0.4l-4.7-2.7V206l0.3,0.2v5.8L163.3,214.5z"/>
<path class="st38" d="M163.3,208.7v5.8L159,212v-5.8L163.3,208.7z"/>
<path class="st39" d="M162.9,208.5l-1.2-0.7l-2.4,4.5l1,0.6L162.9,208.5z"/>
<path class="st39" d="M163.3,210.8v-1.2l-2,3.8l0.5,0.3L163.3,210.8z"/>
<path class="st27" d="M163.3,220v0.4l-4.7-2.7v-4.8l0.3,0.2v4.4L163.3,220z"/>
<path class="st38" d="M163.3,215.5v4.4l-4.4-2.5V213L163.3,215.5z"/>
<path class="st39" d="M162.3,214.9l-1.2-0.7l-1.8,3.4l1,0.6L162.3,214.9z"/>
<path class="st39" d="M163.3,216.3v-0.7l-0.2-0.1l-1.8,3.4l0.5,0.3L163.3,216.3z"/>
<path class="st44" d="M169.3,224.7v0.6l-11.6-6.7v-14l0.5,0.3v13.4L169.3,224.7z"/>
<path class="st43" d="M169.3,211.3v13.4l-5.5-3.2v-13.4L169.3,211.3z"/>
<path class="st45" d="M163.6,208v13.4l0.2,0.1v-13.4L163.6,208z"/>
<path class="st27" d="M168.9,217.7v0.4l-4.7-2.7v-6.2l0.3,0.2v5.8L168.9,217.7z"/>
<path class="st38" d="M168.9,211.9v5.8l-4.4-2.5v-5.8L168.9,211.9z"/>
<path class="st39" d="M168.5,211.7l-1.2-0.7l-2.4,4.5l1,0.6L168.5,211.7z"/>
<path class="st39" d="M168.9,214v-1.2l-2,3.8l0.4,0.3L168.9,214z"/>
<path class="st27" d="M168.9,223.2v0.4l-4.7-2.7V216l0.3,0.2v4.4L168.9,223.2z"/>
<path class="st38" d="M168.9,218.7v4.4l-4.4-2.5v-4.4L168.9,218.7z"/>
<path class="st39" d="M167.9,218.1l-1.2-0.7l-1.8,3.4l1,0.6L167.9,218.1z"/>
<path class="st39" d="M168.9,219.5v-0.7l-0.2-0.1l-1.8,3.4l0.4,0.3L168.9,219.5z"/>
<path class="st46" d="M164.4,215.8c0,0,0,0.1,0,0.1c0,0,0,0.1-0.1,0.1c0,0-0.1,0.1-0.1,0.1c0,0-0.1,0-0.1,0c0,0-0.1,0-0.1,0
	c0,0-0.1,0-0.1-0.1c0,0-0.1-0.1-0.1-0.1c0,0,0-0.1,0-0.1c0,0,0-0.1,0-0.1c0,0,0-0.1,0.1-0.1c0,0,0.1-0.1,0.1-0.1c0,0,0.1,0,0.1,0
	c0,0,0.1,0,0.1,0c0,0,0.1,0,0.1,0.1s0.1,0.1,0.1,0.1C164.4,215.7,164.4,215.7,164.4,215.8z"/>
<path class="st47" d="M164.2,215.6C164.2,215.6,164.2,215.6,164.2,215.6C164.2,215.6,164.2,215.7,164.2,215.6
	C164.2,215.7,164.2,215.7,164.2,215.6C164.1,215.7,164.1,215.6,164.2,215.6C164.2,215.5,164.2,215.5,164.2,215.6z"/>
<path class="st46" d="M163.6,215.4c0,0.1,0,0.2-0.1,0.3c-0.1,0.1-0.2,0.1-0.3,0.1c-0.1,0-0.2,0-0.3-0.1c-0.1-0.1-0.1-0.2-0.1-0.3
	s0-0.2,0.1-0.3c0.1-0.1,0.2-0.1,0.3-0.1c0.1,0,0.2,0,0.3,0.1C163.5,215.2,163.6,215.3,163.6,215.4z"/>
<path class="st47" d="M163.4,215.2c0,0,0,0.1,0,0.1c0,0-0.1,0-0.1,0c0,0,0,0,0-0.1s0,0,0-0.1C163.3,215.2,163.4,215.2,163.4,215.2
	C163.4,215.2,163.4,215.2,163.4,215.2z"/>
<path class="st48" d="M164.1,228.2v-18h-0.5v18c0,0,0,0,0,0.1c0,0,0,0,0.1,0c0.1,0,0.1,0,0.2,0s0.1,0,0.2,0
	C164.1,228.3,164.1,228.3,164.1,228.2C164.1,228.2,164.1,228.2,164.1,228.2z"/>
<path class="st48" d="M138.1,212.8v-18h-0.5v18c0,0,0,0,0,0.1c0,0,0,0,0.1,0c0.1,0,0.1,0,0.2,0s0.1,0,0.2,0
	C138.1,212.9,138.1,212.9,138.1,212.8C138.1,212.8,138.1,212.8,138.1,212.8z"/>
<path class="st49" d="M165.6,214.9l-31.4-18.2v-1.4l31.4,18.2V214.9z"/>
<path class="st50" d="M165.6,214.9v-1.4l9.5-6.9v1.4L165.6,214.9z"/>
<path class="st51" d="M165.6,213.5l-31.4-18.2l9.5-6.9l31.4,18.2L165.6,213.5z"/>
<path class="st48" d="M275.5,151.5v-8.3h0.7v8.3c0,0,0,0.1,0,0.1s0,0-0.1,0.1c-0.1,0-0.2,0.1-0.2,0.1c-0.1,0-0.2,0-0.2-0.1
	C275.6,151.6,275.6,151.6,275.5,151.5C275.6,151.6,275.5,151.5,275.5,151.5z"/>
<path class="st48" d="M289.6,143.2v-8.3h0.7v8.3c0,0,0,0.1,0,0.1c0,0,0,0-0.1,0.1c-0.1,0-0.2,0.1-0.2,0.1s-0.2,0-0.2-0.1
	C289.7,143.4,289.7,143.3,289.6,143.2C289.7,143.3,289.6,143.3,289.6,143.2z"/>
<path class="st48" d="M301.5,136.5v-8.3h0.7v8.3c0,0,0,0.1,0,0.1s0,0-0.1,0.1c-0.1,0-0.2,0.1-0.2,0.1c-0.1,0-0.2,0-0.2-0.1
	C301.6,136.6,301.6,136.6,301.5,136.5C301.6,136.6,301.5,136.5,301.5,136.5z"/>
<path class="st52" d="M270.4,148.4l-1.3-0.6v-20.7l1.3,0.6V148.4z"/>
<path class="st27" d="M305.5,107.5l-35.1,20.3l-1.3-0.6l35.1-20.3L305.5,107.5z"/>
<path class="st53" d="M305.5,128.1l-35.1,20.3v-20.7l35.1-20.3V128.1z"/>
<path class="st35" d="M305.5,128.1l-35.1-0.4l35.1-20.3V128.1z"/>
<path class="st54" d="M298.6,130.4l-8.3,4.8v-14.7l8.3-4.8V130.4z"/>
<path class="st55" d="M285.6,124.2l-12.4,7.1v-2.2l12.4-7.2V124.2z"/>
<path class="st55" d="M285.6,128.5l-12.4,7.1v-2.3l12.4-7.1V128.5z"/>
<path class="st55" d="M285.6,132.8l-12.4,7.1v-2.3l12.4-7.1V132.8z"/>
<path class="st55" d="M285.6,137.2l-12.4,7.2v-2.2l12.4-7.1V137.2z"/>
<path class="st48" d="M161.9,136.6v-6.9h-0.6v6.9c0,0,0,0.1,0,0.1c0,0,0,0,0.1,0c0.1,0,0.1,0.1,0.2,0.1s0.1,0,0.2-0.1
	C161.9,136.7,161.9,136.7,161.9,136.6C161.9,136.6,161.9,136.6,161.9,136.6z"/>
<path class="st48" d="M150.1,129.6v-7h-0.6v7c0,0,0,0,0,0.1c0,0,0,0,0.1,0c0.1,0,0.1,0,0.2,0s0.1,0,0.2,0
	C150.1,129.7,150.1,129.7,150.1,129.6z"/>
<path class="st48" d="M140.1,124V117h-0.6v6.9c0,0,0,0.1,0,0.1c0,0,0,0,0.1,0.1c0.1,0,0.1,0,0.2,0c0.1,0,0.1,0,0.2,0
	C140.1,124.1,140.1,124.1,140.1,124C140.1,124,140.1,124,140.1,124z"/>
<path class="st52" d="M166.2,134l1.1-0.5v-17.3l-1.1,0.5V134z"/>
<path class="st27" d="M136.8,99.7l29.4,17l1.1-0.5l-29.4-17L136.8,99.7z"/>
<path class="st56" d="M136.8,117l29.4,17v-17.3l-29.4-17V117z"/>
<path class="st24" d="M142.7,114.7L142.7,114.7c-0.1-1.4-0.5-2.7-1.2-3.8c-0.7-1.2-1.6-2.1-2.7-2.9v-0.1c2.1,1.2,3.8,0.2,3.8-2.2
	l0.1,0c0.1,1.3,0.5,2.6,1.1,3.8c0.7,1.2,1.6,2.1,2.7,2.9v0.1C144.4,111.2,142.7,112.2,142.7,114.7z"/>
<path class="st24" d="M147.7,119.3L147.7,119.3c-0.1-0.8-0.3-1.6-0.7-2.4c-0.4-0.7-1-1.3-1.7-1.8v-0.1c1.3,0.8,2.4,0.1,2.4-1.4h0
	c0,0.8,0.3,1.6,0.7,2.4c0.4,0.7,1,1.3,1.7,1.8v0.1C148.8,117.2,147.7,117.8,147.7,119.3z"/>
<path class="st24" d="M154.3,121.8L154.3,121.8c-0.1-1.1-0.4-2.1-1-3.1c-0.5-0.9-1.3-1.7-2.2-2.3v-0.1c1.7,1,3.1,0.2,3.1-1.8l0.1,0
	c0.1,1.1,0.4,2.2,0.9,3.1c0.5,0.9,1.3,1.7,2.2,2.3v0.1C155.8,119,154.3,119.8,154.3,121.8z"/>
<path class="st24" d="M153.6,124.7l10.4,6v-1.9l-10.4-6V124.7z"/>
<path class="st48" d="M193.6,155.4v-7H193v7c0,0,0,0,0,0.1c0,0,0,0,0.1,0c0.1,0,0.1,0,0.2,0s0.1,0,0.2,0
	C193.5,155.5,193.6,155.5,193.6,155.4C193.6,155.5,193.6,155.4,193.6,155.4z"/>
<path class="st48" d="M181.8,148.5v-6.9h-0.6v6.9c0,0,0,0,0,0.1c0,0,0,0,0.1,0.1c0.1,0,0.1,0,0.2,0c0.1,0,0.1,0,0.2,0
	C181.8,148.6,181.8,148.6,181.8,148.5C181.8,148.5,181.8,148.5,181.8,148.5z"/>
<path class="st48" d="M171.8,142.8v-6.9h-0.6v6.9c0,0,0,0,0,0.1s0,0,0.1,0c0.1,0,0.1,0.1,0.2,0.1c0.1,0,0.1,0,0.2-0.1
	C171.8,142.9,171.8,142.9,171.8,142.8C171.8,142.9,171.8,142.9,171.8,142.8z"/>
<path class="st52" d="M197.9,152.8l1.1-0.5V135l-1.1,0.5V152.8z"/>
<path class="st27" d="M168.5,118.5l29.4,17l1.1-0.5l-29.4-17L168.5,118.5z"/>
<path class="st53" d="M168.5,135.8l29.4,17v-17.3l-29.4-17V135.8z"/>
<path class="st35" d="M180.5,138.3c2-1.2,2-5,0-8.5c-2-3.5-5.4-5.4-7.4-4.3c-2,1.2-2,5,0,8.5S178.5,139.5,180.5,138.3z"/>
<path class="st57" d="M187.8,141.1l5.2,3v-9.1l-5.2-3V141.1z"/>
<path class="st55" d="M185.2,143.4l10.4,6v-1.9l-10.4-6V143.4z"/>
<path class="st58" d="M259.9,172.2h-60.6v17.1h60.6V172.2z"/>
<path class="st59" d="M259.9,183.6h-60.6v5.7h60.6V183.6z"/>
<path class="st60" d="M244.1,182.5c2.5,0,4.6-2,4.6-4.6s-2-4.6-4.6-4.6s-4.6,2-4.6,4.6S241.6,182.5,244.1,182.5z"/>
<path class="st24" d="M226.5,176.2h-20.6v4h20.6V176.2z"/>
<path class="st61" d="M259.9,191.1h-60.6v17.1h60.6V191.1z"/>
<path class="st62" d="M232.8,200.4c0,1.7-0.7,3.3-1.8,4.4c-1.2,1.2-2.8,1.8-4.4,1.8c-0.8,0-1.6-0.2-2.4-0.5c-0.8-0.3-1.5-0.8-2-1.4
	c-0.6-0.6-1-1.3-1.4-2c-0.3-0.8-0.5-1.6-0.5-2.4c0-1.7,0.7-3.3,1.8-4.4c1.2-1.2,2.8-1.8,4.4-1.8c1.7,0,3.3,0.7,4.4,1.8
	C232.1,197.1,232.8,198.7,232.8,200.4z"/>
<path class="st63" d="M236.6,201l-10.2,4.6l-10.8-8.7l-16.2,11.4h50.5L236.6,201z"/>
<path class="st62" d="M256.3,195h-16v3.1h16V195z"/>
<path class="st62" d="M256.3,201h-16v3.1h16V201z"/>
<path class="st64" d="M259.9,210.1h-60.6v17.1h60.6V210.1z"/>
<path class="st65" d="M217.3,217.6c0,0.9-0.4,1.8-1,2.5s-1.6,1-2.5,1c-0.9,0-1.8-0.4-2.5-1c-0.7-0.7-1-1.6-1-2.5
	c0-0.5,0.1-0.9,0.3-1.4c0.2-0.4,0.4-0.8,0.8-1.2c0.3-0.3,0.7-0.6,1.2-0.8c0.4-0.2,0.9-0.3,1.4-0.3c0.5,0,0.9,0.1,1.4,0.3
	c0.4,0.2,0.8,0.4,1.2,0.8s0.6,0.7,0.8,1.2C217.2,216.7,217.3,217.2,217.3,217.6z"/>
<path class="st66" d="M218.3,222.6c1.1,0,2-0.9,2-2c0-1.1-0.9-2-2-2c-1.1,0-2,0.9-2,2C216.2,221.7,217.1,222.6,218.3,222.6z"/>
<path class="st67" d="M230.2,218.1c0,0.2,0,0.5-0.1,0.7c-0.1,0.2-0.2,0.4-0.4,0.6c-0.2,0.2-0.4,0.3-0.6,0.4s-0.5,0.1-0.7,0.1
	c-0.5,0-0.9-0.2-1.3-0.5c-0.3-0.3-0.5-0.8-0.5-1.3c0-0.2,0-0.5,0.1-0.7s0.2-0.4,0.4-0.6c0.2-0.2,0.4-0.3,0.6-0.4
	c0.2-0.1,0.5-0.1,0.7-0.1c0.5,0,1,0.2,1.3,0.5S230.2,217.6,230.2,218.1z"/>
<path class="st68" d="M242.8,222.1c0,0.5-0.1,0.9-0.3,1.3c-0.2,0.4-0.4,0.8-0.8,1.1c-0.3,0.3-0.7,0.6-1.1,0.8
	c-0.4,0.2-0.9,0.3-1.3,0.3c-0.5,0-0.9-0.1-1.3-0.3c-0.4-0.2-0.8-0.4-1.1-0.8c-0.3-0.3-0.6-0.7-0.8-1.1c-0.2-0.4-0.3-0.9-0.3-1.3
	c0-0.5,0.1-0.9,0.3-1.3c0.2-0.4,0.4-0.8,0.8-1.1c0.3-0.3,0.7-0.6,1.1-0.8c0.4-0.2,0.9-0.3,1.3-0.3c0.5,0,0.9,0.1,1.3,0.3
	c0.4,0.2,0.8,0.4,1.1,0.8c0.3,0.3,0.6,0.7,0.8,1.1S242.8,221.6,242.8,222.1z"/>
<path class="st69" d="M248.9,219.9c2.1,0,3.8-1.7,3.8-3.8c0-2.1-1.7-3.8-3.8-3.8s-3.8,1.7-3.8,3.8
	C245.2,218.3,246.8,219.9,248.9,219.9z"/>
<path class="st70" d="M207.6,226.3c2.5,0,4.6-2,4.6-4.6c0-2.5-2-4.6-4.6-4.6c-2.5,0-4.6,2-4.6,4.6
	C203,224.2,205.1,226.3,207.6,226.3z"/>
<path class="st71" d="M239.9,215.7c0,0.6-0.3,1.2-0.7,1.7c-0.4,0.4-1.1,0.7-1.7,0.7c-0.3,0-0.6-0.1-0.9-0.2
	c-0.3-0.1-0.6-0.3-0.8-0.5c-0.2-0.2-0.4-0.5-0.5-0.8s-0.2-0.6-0.2-0.9c0-0.3,0.1-0.6,0.2-0.9s0.3-0.6,0.5-0.8
	c0.2-0.2,0.5-0.4,0.8-0.5c0.3-0.1,0.6-0.2,0.9-0.2c0.6,0,1.2,0.3,1.7,0.7C239.6,214.5,239.9,215.1,239.9,215.7z"/>
<path class="st24" d="M230.2,212.4h-16.4v2.8h16.4V212.4z"/>
<path class="st24" d="M230.2,220.7h-16.4v2.8h16.4V220.7z"/>
<path class="st72" d="M175.9,204.3l-3.2-1.8c-0.1-0.1-0.2-0.1-0.3-0.1c-0.1-0.1-0.2-0.1-0.3-0.2l-2.6-1.5c-0.1-0.1-0.2-0.1-0.3-0.1
	c-0.1-0.1-0.2-0.2-0.3-0.2l-1.2-0.7c-0.2-0.1-0.3-0.2-0.5-0.2c-0.2-0.2-0.3-0.3-0.5-0.4l-1.1-0.6c-0.3-0.2-0.6-0.2-0.9-0.2
	c-0.4-0.5-1-0.9-1.5-1.2l-1.5-0.9c-0.2-0.2-0.5-0.2-0.8-0.2c-0.2-0.3-0.5-0.6-0.8-0.8l-1.3-0.8c-0.2-0.2-0.5-0.2-0.8-0.2
	c-0.2-0.3-0.5-0.6-0.8-0.8l-1.1-0.6c-0.3-0.2-0.6-0.2-0.9-0.2c-0.2-0.3-0.5-0.6-0.8-0.8l-1.1-0.6c-0.7-0.4-1.2-0.2-1.5,0.4
	c-0.2-0.8-0.7-1.6-1.5-2l-1.3-0.8c-0.2-0.1-0.3-0.2-0.5-0.2c-0.2,0-0.4,0-0.5,0.1c-0.5-0.6-1.1-1.2-1.7-1.6
	c-0.5-0.3-1.1-0.5-1.7-0.5c-0.2-0.4-0.6-0.7-1-1l-2.6-1.5c-0.1-0.1-0.3-0.1-0.4-0.2c-0.1-0.1-0.3-0.2-0.4-0.3l-1.1-0.6
	c-0.3-0.2-0.6-0.2-0.9-0.2c-0.2-0.3-0.5-0.6-0.8-0.8l-1.1-0.6c-0.2-0.1-0.3-0.2-0.5-0.2c-0.2,0-0.4,0-0.6,0.1l-2.8,1.6
	c0.2-0.1,0.3-0.1,0.5-0.1c0.2,0,0.3,0.1,0.5,0.2l1.1,0.6c0.3,0.2,0.6,0.5,0.9,0.8c0.3,0,0.6,0,0.9,0.2l1.1,0.6
	c0.2,0.1,0.3,0.2,0.4,0.3c0.2,0,0.3,0.1,0.4,0.2l2.6,1.5c0.4,0.2,0.7,0.6,1,1c0.6,0,1.2,0.2,1.7,0.5c0.7,0.4,1.3,0.9,1.7,1.6
	c0.2-0.1,0.4-0.1,0.5-0.1c0.2,0,0.4,0.1,0.5,0.2l1.3,0.8c0.7,0.5,1.2,1.2,1.5,2c0.2-0.6,0.8-0.8,1.5-0.4l1.1,0.6
	c0.3,0.2,0.6,0.4,0.9,0.8c0.3,0,0.6,0,0.9,0.2l1.1,0.6c0.3,0.2,0.6,0.5,0.8,0.8c0.3,0,0.6,0,0.8,0.2l1.3,0.8
	c0.3,0.2,0.6,0.5,0.8,0.8c0.3,0,0.6,0,0.8,0.2l1.5,0.9c0.6,0.3,1.1,0.7,1.5,1.2c0.3,0,0.6,0,0.9,0.2l1.1,0.6
	c0.2,0.1,0.4,0.2,0.5,0.4c0.2,0,0.4,0.1,0.5,0.2l1.2,0.7c0.1,0.1,0.2,0.1,0.3,0.2c0.1,0,0.2,0.1,0.3,0.1l2.6,1.5
	c0.1,0.1,0.2,0.1,0.3,0.2c0.1,0,0.2,0.1,0.3,0.1l3.2,1.8c0.4,0.3,0.8,0.7,1.1,1.2c0.3,0.5,0.4,1,0.4,1.5v1c0,0.8-0.4,1.2-1.1,1.1
	v1.9c0,0.2,0,0.4-0.1,0.5c-0.1,0.2-0.2,0.3-0.3,0.4l2.8-1.6c0.2-0.1,0.3-0.3,0.4-0.4c0.1-0.2,0.1-0.4,0.1-0.6V209
	c0.6,0.1,1.1-0.3,1.1-1.1v-1c0-0.5-0.2-1-0.4-1.5C176.7,204.9,176.3,204.6,175.9,204.3z"/>
<path class="st73" d="M173,205.9l-3.2-1.8c-0.1,0-0.2-0.1-0.3-0.1c-0.1-0.1-0.2-0.1-0.3-0.2l-2.6-1.5c-0.1-0.1-0.2-0.1-0.3-0.1
	c-0.1-0.1-0.2-0.1-0.3-0.2l-1.2-0.7c-0.2-0.1-0.3-0.2-0.5-0.2c-0.2-0.2-0.3-0.3-0.5-0.4l-1.1-0.6c-0.3-0.2-0.6-0.2-0.9-0.2
	c-0.4-0.5-1-0.9-1.5-1.2l-1.5-0.9c-0.2-0.2-0.5-0.2-0.8-0.2c-0.2-0.3-0.5-0.6-0.8-0.8l-1.3-0.8c-0.2-0.2-0.5-0.2-0.8-0.2
	c-0.2-0.3-0.5-0.6-0.8-0.8l-1.1-0.6c-0.3-0.2-0.6-0.2-0.9-0.2c-0.2-0.3-0.5-0.6-0.9-0.8l-1.1-0.6c-0.7-0.4-1.2-0.2-1.5,0.4
	c-0.2-0.8-0.7-1.6-1.5-2l-1.3-0.8c-0.2-0.1-0.3-0.2-0.5-0.2c-0.2,0-0.4,0-0.5,0.1c-0.5-0.6-1.1-1.2-1.7-1.6
	c-0.5-0.3-1.1-0.5-1.7-0.5c-0.2-0.4-0.6-0.7-1-1l-2.6-1.5c-0.1-0.1-0.3-0.1-0.4-0.2c-0.1-0.1-0.3-0.2-0.4-0.3l-1.1-0.6
	c-0.3-0.2-0.6-0.2-0.9-0.2c-0.2-0.3-0.5-0.6-0.9-0.8l-1.1-0.6c-0.8-0.5-1.5-0.1-1.5,0.9v4.6c0,0.5,0.2,1,0.4,1.5
	c0.3,0.5,0.6,0.9,1.1,1.2l1,0.6c0.1,0.1,0.3,0.2,0.5,0.2c0.2,0,0.3,0,0.5,0h0c0.2,0.4,0.6,0.7,1,0.9l1,0.6c0.1,0.1,0.3,0.1,0.4,0.2
	c0.1,0.1,0.3,0.2,0.4,0.3l2.7,1.5c0.1,0.1,0.3,0.1,0.4,0.2c0.2,0,0.3,0,0.5,0c0.5,0.6,1.1,1,1.7,1.4c0.3,0.2,0.7,0.4,1.1,0.4
	c0.2,0.1,0.3,0.3,0.5,0.4l1.1,0.6c0.2,0.1,0.5,0.2,0.8,0.2c0.2,0.3,0.5,0.5,0.8,0.7l1.1,0.6c0.2,0.2,0.5,0.2,0.8,0.2
	c0.2,0.3,0.5,0.6,0.8,0.8l1,0.6c0.1,0.1,0.3,0.2,0.5,0.2c0.2,0,0.3,0,0.5,0h0c0.2,0.4,0.6,0.7,1,0.9l1,0.6c0.1,0,0.1,0.1,0.2,0.1
	l0.2,0.1l1.1,0.6c0.2,0.1,0.5,0.2,0.8,0.2c0.2,0.3,0.5,0.5,0.8,0.7l1.1,0.7l0.2,0.1c0.1,0,0.1,0.1,0.2,0.1l1.1,0.6
	c0.2,0.1,0.4,0.2,0.6,0.2c0.2,0.2,0.3,0.3,0.6,0.4l1.2,0.7c0.1,0.1,0.2,0.1,0.3,0.1c0.1,0.1,0.2,0.1,0.3,0.2l1.1,0.6
	c0.2,0.1,0.4,0.2,0.6,0.2c0.2,0.2,0.4,0.4,0.6,0.5l1.2,0.7l0.2,0.1c0.1,0,0.1,0.1,0.2,0.1l2.7,1.5c0.2,0.1,0.5,0.2,0.8,0.2
	c0.2,0.3,0.5,0.5,0.8,0.7l1.1,0.6c0.8,0.5,1.5,0.1,1.5-0.9v-1.8c0.6,0.1,1.1-0.3,1.1-1.1v-1c0-0.5-0.2-1-0.4-1.5
	C173.8,206.6,173.5,206.2,173,205.9z"/>
<path class="st74" d="M133.5,184.8l1.1,0.6l0.6,2.3l0.2,0.9l0.2-0.6l0.6-1.6l1.1,0.6v4.6l-1-0.6v-1.4c0-0.5,0.1-1.1,0.1-1.6
	l-0.3,0.9l-0.6,1.2l-0.4-0.2l-0.6-1.9l-0.3-1.3c0.1,0.5,0.1,1.3,0.1,1.7v1.4l-1-0.5V184.8z"/>
<path class="st74" d="M138.3,187.6l2.6,1.5v1l-1.5-0.9v0.8l1.3,0.8v1l-1.3-0.8v0.8l1.6,0.9v1l-2.7-1.5L138.3,187.6z"/>
<path class="st74" d="M143.5,190.6c0.5,0.3,1,0.8,1.3,1.4l-0.6,0.4c-0.2-0.3-0.4-0.5-0.7-0.7c-0.5-0.3-1-0.1-1,0.8
	c0,0.4,0.1,0.8,0.2,1.1c0.2,0.3,0.5,0.6,0.8,0.8c0.1,0.1,0.2,0.1,0.3,0.1v-0.6l-0.6-0.3v-1l1.5,0.9v2.2c-0.2,0.1-0.5,0.1-0.7,0
	c-0.2,0-0.5-0.1-0.7-0.3c-0.6-0.4-1.1-0.9-1.5-1.5c-0.4-0.6-0.5-1.3-0.5-2C141.5,190.3,142.5,189.9,143.5,190.6z"/>
<path class="st74" d="M147.5,196.6l-1.1-0.6l-0.2,0.9l-1.1-0.6l1.2-3.9l1.3,0.8l1.2,5.3l-1.1-0.7L147.5,196.6z M147.3,195.5
	l-0.1-0.4c-0.1-0.5-0.2-1.1-0.3-1.6c-0.1,0.4-0.2,0.9-0.3,1.3l-0.1,0.3L147.3,195.5z"/>
<path class="st74" d="M150.5,194.7l1.1,0.6l0.6,2.3l0.2,0.9l0.2-0.6l0.6-1.6l1.1,0.6v4.6l-1-0.6v-1.4c0-0.5,0.1-1.1,0.1-1.6
	l-0.3,0.9l-0.6,1.2l-0.4-0.2l-0.6-1.9l-0.3-1.3c0.1,0.5,0.1,1.3,0.1,1.7v1.4l-1-0.6L150.5,194.7z"/>
<path class="st74" d="M157.2,202.2l-1.1-0.6l-0.2,0.9l-1.1-0.6l1.2-3.9l1.3,0.8l1.2,5.3l-1.1-0.6L157.2,202.2z M157,201.1l-0.1-0.4
	c-0.1-0.5-0.2-1.1-0.3-1.6c-0.1,0.4-0.2,0.9-0.3,1.3l-0.1,0.3L157,201.1z"/>
<path class="st74" d="M161.1,205.4l-0.7-1.9l-0.4-0.2v1.6l-1.1-0.6v-4.6l1.5,0.9c0.5,0.2,0.9,0.6,1.1,1c0.3,0.4,0.4,0.9,0.5,1.4
	c0,0.7-0.3,0.9-0.6,1l0.9,2.3L161.1,205.4z M160,202.3l0.4,0.2c0.4,0.2,0.6,0.2,0.6-0.2c0-0.2-0.1-0.4-0.2-0.5
	c-0.1-0.2-0.3-0.3-0.5-0.4l-0.4-0.2V202.3z"/>
<path class="st74" d="M162.8,201.8l1.1,0.6v1.7l1-1.1l1.2,0.7l-1.2,1.2l1.4,3.6l-1.2-0.7l-0.9-2.3l-0.4,0.4v1.2l-1.1-0.6
	L162.8,201.8z"/>
<path class="st74" d="M166.7,204l2.6,1.5v1l-1.5-0.9v0.8l1.3,0.8v1l-1.3-0.8v0.8l1.6,0.9v1l-2.7-1.5L166.7,204z"/>
<path class="st74" d="M170.9,207.5l-1.1-0.6v-1l3.2,1.8v1l-1.1-0.6v3.6l-1.1-0.6V207.5z"/>
<path class="st49" d="M269.1,215.8l18.5-10.7v18.8l-18.5,10.7V215.8z"/>
<path class="st25" d="M269.1,215.8l18.2-10.5v17.9l-18.2,10.5V215.8z"/>
<path class="st75" d="M269.1,216.8l18.2-10.5v-0.4l-18.2,10.5V216.8z"/>
<path class="st75" d="M269.1,219.3l18.2-10.5v-0.4l-18.2,10.5V219.3z"/>
<path class="st75" d="M269.1,221.8l18.2-10.5v-0.4l-18.2,10.5V221.8z"/>
<path class="st75" d="M269.1,224.2l18.2-10.5v-0.4l-18.2,10.5V224.2z"/>
<path class="st75" d="M269.1,226.7l18.2-10.5v-0.4l-18.2,10.5V226.7z"/>
<path class="st75" d="M269.1,229.2l18.2-10.5v-0.4l-18.2,10.5V229.2z"/>
<path class="st75" d="M269.1,231.7l18.2-10.5v-0.4l-18.2,10.5V231.7z"/>
<path class="st49" d="M292.3,202.3l18.5-10.7v18.8l-18.5,10.7V202.3z"/>
<path class="st25" d="M292.3,202.3l18.2-10.5v17.9l-18.2,10.5V202.3z"/>
<path class="st75" d="M292.3,203.4l18.2-10.5v-0.4L292.3,203V203.4z"/>
<path class="st75" d="M292.3,205.9l18.2-10.5V195l-18.2,10.5V205.9z"/>
<path class="st75" d="M292.3,208.3l18.2-10.5v-0.4l-18.2,10.5V208.3z"/>
<path class="st75" d="M292.3,210.8l18.2-10.5v-0.4l-18.2,10.5V210.8z"/>
<path class="st75" d="M292.3,213.3l18.2-10.5v-0.4l-18.2,10.5V213.3z"/>
<path class="st75" d="M292.3,215.8l18.2-10.5v-0.4l-18.2,10.5V215.8z"/>
<path class="st75" d="M292.3,218.2l18.2-10.5v-0.4l-18.2,10.5V218.2z"/>
<path class="st4" d="M384,276H60c-12.2,0-22,9.2-22,20.7v147.7c0,11.4,9.8,20.7,22,20.7h324c12.1,0,22-9.2,22-20.7V296.7
	C406,285.2,396.1,276,384,276z"/>
<path class="st7" d="M196.9,287H64.7c-8.7,0-15.7,7.7-15.7,17.1v130.2c0,9.5,7,17.1,15.7,17.1h132.2c8.7,0,15.7-7.7,15.7-17.1V304.1
	C212.7,294.7,205.6,287,196.9,287z"/>
<g>
	<path class="st76" d="M199.8,302.6h-10l3.4-4.1c0.1-0.1,0.1-0.1,0.1-0.2c0-0.1,0-0.1,0-0.2c0-0.1-0.1-0.1-0.1-0.2
		c-0.1,0-0.1-0.1-0.2-0.1h-16.5v-5.6c0-0.2,0-0.3-0.1-0.5c-0.1-0.2-0.2-0.3-0.3-0.4c-0.1-0.1-0.3-0.2-0.4-0.3
		c-0.2-0.1-0.3-0.1-0.5-0.1H85.8c-0.2,0-0.3,0-0.5,0.1c-0.2,0.1-0.3,0.2-0.4,0.3c-0.1,0.1-0.2,0.3-0.3,0.4c-0.1,0.2-0.1,0.3-0.1,0.5
		v5.6H68c-0.1,0-0.1,0-0.2,0.1c-0.1,0-0.1,0.1-0.1,0.2c0,0.1,0,0.1,0,0.2c0,0.1,0,0.1,0.1,0.2l3.4,4.1h-10c-2.2,0-4.3,0.9-5.8,2.5
		c-1.5,1.6-2.4,3.7-2.4,5.9v128.6c0,2.2,0.9,4.4,2.4,5.9c1.5,1.6,3.6,2.5,5.8,2.5h138.6c1.1,0,2.1-0.2,3.1-0.6c1-0.4,1.9-1,2.7-1.8
		c0.8-0.8,1.4-1.7,1.8-2.7s0.6-2.1,0.6-3.2V311c0-1.1-0.2-2.2-0.6-3.2c-0.4-1-1-1.9-1.8-2.7c-0.8-0.8-1.7-1.4-2.7-1.8
		C201.9,302.8,200.9,302.6,199.8,302.6z"/>
</g>
<path class="st77" d="M69.5,376c-0.1,0-0.2,0-0.3-0.1c-0.1-0.1-0.1-0.2-0.1-0.3v-10.4c0-0.1,0-0.2,0.1-0.3c0.1-0.1,0.2-0.1,0.3-0.1
	h3.9c1.1,0,2,0.2,2.7,0.5c0.7,0.3,1.2,0.8,1.6,1.5c0.4,0.7,0.5,1.4,0.6,2.4c0,0.5,0,0.9,0,1.2s0,0.8,0,1.2c0,1-0.2,1.8-0.5,2.5
	c-0.3,0.6-0.9,1.1-1.6,1.4c-0.7,0.3-1.6,0.5-2.6,0.5H69.5z M71.3,374.2h2.1c0.6,0,1.1-0.1,1.5-0.3c0.4-0.2,0.6-0.4,0.8-0.8
	c0.2-0.4,0.3-0.9,0.3-1.5c0-0.3,0-0.6,0-0.8c0-0.2,0-0.5,0-0.7c0-0.2,0-0.5,0-0.8c0-0.9-0.2-1.5-0.7-1.9c-0.4-0.4-1.1-0.6-2-0.6h-2
	V374.2z M80.7,376c-0.1,0-0.2,0-0.3-0.1c-0.1-0.1-0.1-0.2-0.1-0.3v-10.4c0-0.1,0-0.2,0.1-0.3c0.1-0.1,0.2-0.1,0.3-0.1h4.1
	c1.3,0,2.3,0.3,3.1,0.9c0.7,0.6,1.1,1.5,1.1,2.6c0,0.8-0.2,1.4-0.6,2c-0.4,0.5-0.9,0.9-1.6,1.1l2.3,4.1c0,0.1,0,0.1,0,0.2
	c0,0.1,0,0.2-0.1,0.2C89.1,376,89,376,89,376h-1.5c-0.2,0-0.3,0-0.4-0.1c-0.1-0.1-0.2-0.2-0.2-0.3l-2.1-3.8h-2.2v3.8
	c0,0.1,0,0.2-0.1,0.3c-0.1,0.1-0.2,0.1-0.3,0.1H80.7z M82.6,370h2.3c0.7,0,1.1-0.1,1.5-0.4c0.3-0.3,0.5-0.7,0.5-1.2
	c0-0.5-0.2-0.9-0.5-1.2c-0.3-0.3-0.8-0.5-1.5-0.5h-2.3V370z M90.4,376c-0.1,0-0.2,0-0.2-0.1c-0.1-0.1-0.1-0.1-0.1-0.2
	c0,0,0-0.1,0-0.1l3.9-10.3c0-0.1,0.1-0.2,0.2-0.3c0.1-0.1,0.2-0.1,0.4-0.1h1.7c0.2,0,0.3,0,0.4,0.1c0.1,0.1,0.1,0.2,0.2,0.3
	l3.9,10.3c0,0.1,0,0.1,0,0.1c0,0.1,0,0.2-0.1,0.2c-0.1,0.1-0.1,0.1-0.2,0.1H99c-0.1,0-0.3,0-0.3-0.1c-0.1-0.1-0.1-0.1-0.1-0.2
	l-0.8-2H93l-0.8,2c0,0.1-0.1,0.1-0.1,0.2c-0.1,0.1-0.2,0.1-0.3,0.1H90.4z M93.6,371.9h3.6l-1.8-4.9L93.6,371.9z M106.3,376.2
	c-1,0-1.8-0.2-2.5-0.5c-0.7-0.3-1.2-0.8-1.6-1.5c-0.4-0.7-0.6-1.4-0.6-2.3c0-0.5,0-0.9,0-1.5c0-0.5,0-1,0-1.5c0-0.9,0.2-1.6,0.6-2.3
	c0.4-0.6,0.9-1.1,1.6-1.5c0.7-0.3,1.5-0.5,2.5-0.5c0.8,0,1.5,0.1,2,0.3c0.6,0.2,1.1,0.5,1.5,0.8c0.4,0.3,0.7,0.7,0.9,1
	c0.2,0.4,0.3,0.7,0.3,1c0,0.1,0,0.2-0.1,0.2c-0.1,0.1-0.1,0.1-0.3,0.1h-1.6c-0.1,0-0.2,0-0.2-0.1c-0.1,0-0.1-0.1-0.1-0.2
	c-0.1-0.2-0.2-0.4-0.4-0.7c-0.2-0.2-0.4-0.4-0.7-0.6c-0.3-0.1-0.7-0.2-1.2-0.2c-0.7,0-1.3,0.2-1.7,0.6c-0.4,0.4-0.7,1-0.7,1.9
	c0,0.9,0,1.9,0,2.8c0,0.9,0.3,1.6,0.7,2c0.4,0.4,1,0.6,1.8,0.6c0.5,0,0.9-0.1,1.3-0.3c0.4-0.2,0.7-0.4,0.9-0.8
	c0.2-0.4,0.3-0.8,0.3-1.4v-0.5h-2c-0.1,0-0.2,0-0.3-0.1c-0.1-0.1-0.1-0.2-0.1-0.3v-0.8c0-0.1,0-0.2,0.1-0.3c0.1-0.1,0.2-0.1,0.3-0.1
	h3.8c0.1,0,0.2,0,0.3,0.1c0.1,0.1,0.1,0.2,0.1,0.3v1.7c0,0.9-0.2,1.7-0.6,2.3c-0.4,0.7-0.9,1.2-1.7,1.5
	C108.2,376,107.3,376.2,106.3,376.2z M115.7,376c-0.1,0-0.2,0-0.2-0.1c-0.1-0.1-0.1-0.1-0.1-0.2c0,0,0-0.1,0-0.1l3.9-10.3
	c0-0.1,0.1-0.2,0.2-0.3c0.1-0.1,0.2-0.1,0.4-0.1h1.7c0.2,0,0.3,0,0.4,0.1c0.1,0.1,0.1,0.2,0.2,0.3l3.9,10.3c0,0.1,0,0.1,0,0.1
	c0,0.1,0,0.2-0.1,0.2s-0.1,0.1-0.2,0.1h-1.4c-0.2,0-0.3,0-0.3-0.1c-0.1-0.1-0.1-0.1-0.1-0.2l-0.8-2h-4.8l-0.8,2
	c0,0.1-0.1,0.1-0.1,0.2c-0.1,0.1-0.2,0.1-0.3,0.1H115.7z M118.9,371.9h3.6l-1.8-4.9L118.9,371.9z M127.9,376c-0.1,0-0.2,0-0.3-0.1
	c-0.1-0.1-0.1-0.2-0.1-0.3v-10.4c0-0.1,0-0.2,0.1-0.3c0.1-0.1,0.2-0.1,0.3-0.1h1.2c0.2,0,0.3,0,0.3,0.1c0.1,0.1,0.1,0.1,0.1,0.1
	l4.6,7.2v-7c0-0.1,0-0.2,0.1-0.3c0.1-0.1,0.2-0.1,0.3-0.1h1.3c0.1,0,0.2,0,0.3,0.1c0.1,0.1,0.1,0.2,0.1,0.3v10.4
	c0,0.1,0,0.2-0.1,0.3c-0.1,0.1-0.2,0.1-0.3,0.1h-1.2c-0.1,0-0.3,0-0.3-0.1c-0.1-0.1-0.1-0.1-0.1-0.1l-4.6-7v6.9c0,0.1,0,0.2-0.1,0.3
	c-0.1,0.1-0.2,0.1-0.3,0.1H127.9z M139.2,376c-0.1,0-0.2,0-0.3-0.1s-0.1-0.2-0.1-0.3v-10.4c0-0.1,0-0.2,0.1-0.3
	c0.1-0.1,0.2-0.1,0.3-0.1h3.9c1.1,0,2,0.2,2.7,0.5c0.7,0.3,1.2,0.8,1.6,1.5c0.4,0.7,0.5,1.4,0.6,2.4c0,0.5,0,0.9,0,1.2s0,0.8,0,1.2
	c0,1-0.2,1.8-0.5,2.5c-0.3,0.6-0.9,1.1-1.6,1.4c-0.7,0.3-1.6,0.5-2.6,0.5H139.2z M141.1,374.2h2.1c0.6,0,1.1-0.1,1.5-0.3
	c0.4-0.2,0.6-0.4,0.8-0.8c0.2-0.4,0.3-0.9,0.3-1.5c0-0.3,0-0.6,0-0.8c0-0.2,0-0.5,0-0.7c0-0.2,0-0.5,0-0.8c0-0.9-0.2-1.5-0.7-1.9
	c-0.4-0.4-1.1-0.6-2-0.6h-2V374.2z M154.1,376c-0.1,0-0.2,0-0.3-0.1c-0.1-0.1-0.1-0.2-0.1-0.3v-10.4c0-0.1,0-0.2,0.1-0.3
	c0.1-0.1,0.2-0.1,0.3-0.1h3.9c1.1,0,2,0.2,2.7,0.5c0.7,0.3,1.2,0.8,1.6,1.5c0.4,0.7,0.5,1.4,0.6,2.4c0,0.5,0,0.9,0,1.2s0,0.8,0,1.2
	c0,1-0.2,1.8-0.5,2.5c-0.3,0.6-0.9,1.1-1.6,1.4c-0.7,0.3-1.6,0.5-2.6,0.5H154.1z M156,374.2h2.1c0.6,0,1.1-0.1,1.5-0.3
	c0.4-0.2,0.6-0.4,0.8-0.8c0.2-0.4,0.3-0.9,0.3-1.5c0-0.3,0-0.6,0-0.8c0-0.2,0-0.5,0-0.7c0-0.2,0-0.5,0-0.8c0-0.9-0.2-1.5-0.7-1.9
	c-0.4-0.4-1.1-0.6-2-0.6h-2V374.2z M165.4,376c-0.1,0-0.2,0-0.3-0.1c-0.1-0.1-0.1-0.2-0.1-0.3v-10.4c0-0.1,0-0.2,0.1-0.3
	c0.1-0.1,0.2-0.1,0.3-0.1h4.1c1.3,0,2.3,0.3,3.1,0.9c0.7,0.6,1.1,1.5,1.1,2.6c0,0.8-0.2,1.4-0.6,2c-0.4,0.5-0.9,0.9-1.6,1.1l2.3,4.1
	c0,0.1,0,0.1,0,0.2c0,0.1,0,0.2-0.1,0.2c-0.1,0.1-0.1,0.1-0.2,0.1h-1.5c-0.2,0-0.3,0-0.4-0.1c-0.1-0.1-0.2-0.2-0.2-0.3l-2.1-3.8
	h-2.2v3.8c0,0.1,0,0.2-0.1,0.3c-0.1,0.1-0.2,0.1-0.3,0.1H165.4z M167.2,370h2.3c0.7,0,1.1-0.1,1.5-0.4c0.3-0.3,0.5-0.7,0.5-1.2
	c0-0.5-0.2-0.9-0.5-1.2c-0.3-0.3-0.8-0.5-1.5-0.5h-2.3V370z M180,376.2c-1,0-1.8-0.2-2.4-0.5c-0.7-0.3-1.2-0.8-1.6-1.5
	c-0.4-0.7-0.6-1.5-0.6-2.5c0-0.5,0-0.9,0-1.4c0-0.4,0-0.9,0-1.4c0-1,0.2-1.8,0.6-2.4c0.4-0.7,0.9-1.1,1.6-1.5
	c0.7-0.3,1.5-0.5,2.4-0.5c0.9,0,1.7,0.2,2.4,0.5c0.7,0.3,1.2,0.8,1.6,1.5c0.4,0.7,0.6,1.5,0.6,2.4c0,0.5,0,0.9,0,1.4
	c0,0.4,0,0.9,0,1.4c0,1-0.2,1.8-0.6,2.5c-0.4,0.7-0.9,1.1-1.6,1.5C181.8,376,181,376.2,180,376.2z M180,374.3c0.7,0,1.3-0.2,1.7-0.6
	c0.4-0.4,0.7-1.1,0.7-2c0-0.5,0-0.9,0-1.3c0-0.4,0-0.8,0-1.3c0-0.6-0.1-1.1-0.4-1.5c-0.2-0.4-0.5-0.7-0.8-0.8
	c-0.4-0.2-0.8-0.3-1.2-0.3c-0.4,0-0.8,0.1-1.2,0.3c-0.4,0.2-0.6,0.5-0.8,0.8c-0.2,0.4-0.3,0.9-0.3,1.5c0,0.5,0,0.9,0,1.3
	c0,0.4,0,0.8,0,1.3c0,0.9,0.3,1.6,0.7,2C178.8,374.1,179.3,374.3,180,374.3z M187.2,376c-0.1,0-0.2,0-0.3-0.1
	c-0.1-0.1-0.1-0.2-0.1-0.3v-10.4c0-0.1,0-0.2,0.1-0.3c0.1-0.1,0.2-0.1,0.3-0.1h4.3c0.8,0,1.6,0.1,2.2,0.4c0.6,0.3,1.1,0.7,1.4,1.2
	c0.3,0.5,0.5,1.2,0.5,2c0,0.8-0.2,1.5-0.5,2c-0.3,0.5-0.8,0.9-1.4,1.2c-0.6,0.3-1.3,0.4-2.2,0.4h-2.4v3.7c0,0.1,0,0.2-0.1,0.3
	c-0.1,0.1-0.2,0.1-0.3,0.1H187.2z M189.1,370.1h2.3c0.6,0,1.1-0.1,1.4-0.4c0.3-0.3,0.5-0.7,0.5-1.3c0-0.5-0.2-1-0.5-1.3
	c-0.3-0.3-0.8-0.5-1.5-0.5h-2.3V370.1z"/>
<path class="st78" d="M375.6,287.6H243.4c-8.7,0-15.7,7.7-15.7,17.1v130.2c0,9.5,7,17.1,15.7,17.1h132.2c8.7,0,15.7-7.7,15.7-17.1
	V304.7C391.3,295.3,384.2,287.6,375.6,287.6z"/>
<path class="st79" d="M300.6,363.9c-0.2,0-0.3-0.1-0.5-0.2c-0.1-0.1-0.2-0.3-0.3-0.4l-6.5-9.8v9.8c0,0.1-0.1,0.3-0.2,0.4
	c-0.1,0.1-0.2,0.2-0.4,0.2H292c-0.1,0-0.3-0.1-0.4-0.2c-0.1-0.1-0.2-0.2-0.2-0.4v-12.9c0-0.1,0.1-0.3,0.2-0.4
	c0.1-0.1,0.2-0.2,0.4-0.2h0.7c0.2,0,0.3,0.1,0.5,0.2c0.1,0.1,0.2,0.3,0.3,0.4l6.5,9.8v-9.8c0-0.1,0.1-0.3,0.2-0.4
	c0.1-0.1,0.2-0.2,0.4-0.2h0.8c0.1,0,0.3,0.1,0.4,0.2c0.1,0.1,0.2,0.2,0.2,0.4v12.9c0,0.1-0.1,0.3-0.2,0.4c-0.1,0.1-0.2,0.2-0.4,0.2
	H300.6z M304.8,355.1c0-0.7,0.1-1.4,0.4-2.1c0.3-0.7,0.6-1.2,1.1-1.7c0.5-0.5,1-0.9,1.7-1.2c0.7-0.3,1.5-0.4,2.3-0.4
	c0.9,0,1.7,0.1,2.3,0.4c0.7,0.3,1.3,0.7,1.7,1.2c0.5,0.5,0.8,1.1,1.1,1.7c0.3,0.7,0.4,1.4,0.4,2.1c0,1.2,0,2.4,0,3.6
	c0,0.7-0.2,1.5-0.4,2.1c-0.2,0.7-0.6,1.2-1.1,1.7c-0.5,0.5-1,0.9-1.7,1.2c-0.7,0.3-1.4,0.4-2.3,0.4c-0.9,0-1.7-0.1-2.3-0.4
	c-0.7-0.3-1.2-0.7-1.7-1.2c-0.5-0.5-0.8-1.1-1.1-1.7c-0.2-0.7-0.4-1.4-0.4-2.1C304.8,357.5,304.8,356.3,304.8,355.1z M313.9,355.2
	c0-0.6-0.1-1.2-0.3-1.6c-0.2-0.5-0.4-0.9-0.7-1.2c-0.3-0.3-0.7-0.5-1.1-0.7c-0.4-0.2-0.9-0.2-1.4-0.2c-0.5,0-1,0.1-1.4,0.2
	c-0.4,0.1-0.8,0.4-1.1,0.7c-0.3,0.3-0.6,0.7-0.8,1.2c-0.2,0.5-0.3,1-0.3,1.6c0,0.6,0,1.2,0,1.7s0,1.1,0,1.7c0,0.6,0.1,1.2,0.3,1.6
	c0.2,0.5,0.4,0.9,0.8,1.2c0.3,0.3,0.7,0.5,1.1,0.7c0.4,0.1,0.9,0.2,1.4,0.2c0.5,0,1-0.1,1.4-0.2c0.4-0.2,0.8-0.4,1.1-0.7
	c0.3-0.3,0.6-0.7,0.7-1.2c0.2-0.5,0.3-1,0.3-1.6c0-0.6,0-1.2,0-1.7S314,355.8,313.9,355.2z M327.1,349.9c0.1,0,0.3,0.1,0.4,0.2
	c0.1,0.1,0.2,0.2,0.2,0.4v0.7c0,0.1-0.1,0.3-0.2,0.4c-0.1,0.1-0.2,0.2-0.4,0.2h-3.7v11.7c0,0.1-0.1,0.3-0.2,0.4
	c-0.1,0.1-0.2,0.2-0.4,0.2H322c-0.1,0-0.3-0.1-0.4-0.2c-0.1-0.1-0.2-0.2-0.2-0.4v-11.7h-3.7c-0.1,0-0.3-0.1-0.4-0.2
	c-0.1-0.1-0.2-0.2-0.2-0.4v-0.7c0-0.1,0.1-0.3,0.2-0.4c0.1-0.1,0.2-0.2,0.4-0.2H327.1z M266.7,384.7h-6.9l-1,2.7
	c0,0.1-0.1,0.2-0.2,0.3c-0.1,0.1-0.3,0.2-0.6,0.2h-0.7c-0.1,0-0.2,0-0.3-0.1c-0.1-0.1-0.1-0.2-0.1-0.3c0-0.1,0-0.2,0.1-0.3l4.9-12.6
	c0.1-0.1,0.2-0.3,0.3-0.4c0.1-0.1,0.3-0.2,0.6-0.2h1.2c0.3,0,0.5,0.1,0.6,0.2c0.1,0.1,0.2,0.3,0.3,0.4l4.9,12.6
	c0.1,0.1,0.1,0.2,0.1,0.3c0,0.1,0,0.2-0.1,0.3c-0.1,0.1-0.2,0.1-0.3,0.1h-0.7c-0.3,0-0.5-0.1-0.6-0.2c-0.1-0.1-0.2-0.2-0.2-0.3
	L266.7,384.7z M260.4,382.9h5.5l-2.8-7.1L260.4,382.9z M279.4,374.4c0-0.1,0.1-0.2,0.2-0.3c0.1-0.1,0.3-0.2,0.6-0.2h0.7
	c0.1,0,0.2,0,0.3,0.1c0.1,0.1,0.1,0.2,0.1,0.3c0,0.1,0,0.1,0,0.2l-4.3,12.6c-0.1,0.2-0.2,0.4-0.4,0.6c-0.2,0.1-0.4,0.2-0.7,0.2h-0.8
	c-0.3,0-0.5-0.1-0.7-0.2c-0.2-0.1-0.3-0.3-0.4-0.6l-4.3-12.6c0-0.1,0-0.1,0-0.2c0-0.1,0-0.2,0.1-0.3c0.1-0.1,0.2-0.1,0.3-0.1h0.7
	c0.3,0,0.5,0.1,0.6,0.2c0.1,0.1,0.2,0.2,0.2,0.3l3.9,11.5L279.4,374.4z M291.3,384.7h-6.9l-1,2.7c0,0.1-0.1,0.2-0.2,0.3
	c-0.1,0.1-0.3,0.2-0.6,0.2h-0.7c-0.1,0-0.2,0-0.3-0.1c-0.1-0.1-0.1-0.2-0.1-0.3c0-0.1,0-0.2,0.1-0.3l4.9-12.6
	c0.1-0.1,0.2-0.3,0.3-0.4c0.1-0.1,0.3-0.2,0.6-0.2h1.2c0.3,0,0.5,0.1,0.6,0.2c0.1,0.1,0.2,0.3,0.3,0.4l4.9,12.6
	c0.1,0.1,0.1,0.2,0.1,0.3c0,0.1,0,0.2-0.1,0.3c-0.1,0.1-0.2,0.1-0.3,0.1h-0.7c-0.3,0-0.5-0.1-0.6-0.2c-0.1-0.1-0.2-0.2-0.2-0.3
	L291.3,384.7z M285.1,382.9h5.5l-2.8-7.1L285.1,382.9z M296.9,387.9c-0.1,0-0.3-0.1-0.4-0.2c-0.1-0.1-0.2-0.2-0.2-0.4v-12.9
	c0-0.1,0.1-0.3,0.2-0.4c0.1-0.1,0.2-0.2,0.4-0.2h0.8c0.1,0,0.3,0.1,0.4,0.2c0.1,0.1,0.2,0.2,0.2,0.4v12.9c0,0.1-0.1,0.3-0.2,0.4
	c-0.1,0.1-0.2,0.2-0.4,0.2H296.9z M310.4,386.1c0.1,0,0.3,0.1,0.4,0.2c0.1,0.1,0.2,0.2,0.2,0.4v0.7c0,0.1-0.1,0.3-0.2,0.4
	c-0.1,0.1-0.2,0.2-0.4,0.2h-8.1c-0.1,0-0.3-0.1-0.4-0.2c-0.1-0.1-0.2-0.2-0.2-0.4v-12.9c0-0.1,0.1-0.3,0.2-0.4
	c0.1-0.1,0.2-0.2,0.4-0.2h0.8c0.1,0,0.3,0.1,0.4,0.2c0.1,0.1,0.2,0.2,0.2,0.4v11.7H310.4z M321.6,384.7h-6.9l-1,2.7
	c0,0.1-0.1,0.2-0.2,0.3c-0.1,0.1-0.3,0.2-0.6,0.2h-0.7c-0.1,0-0.2,0-0.3-0.1c-0.1-0.1-0.1-0.2-0.1-0.3c0-0.1,0-0.2,0.1-0.3l4.9-12.6
	c0.1-0.1,0.2-0.3,0.3-0.4c0.1-0.1,0.3-0.2,0.6-0.2h1.2c0.3,0,0.5,0.1,0.6,0.2c0.1,0.1,0.2,0.3,0.3,0.4l4.9,12.6
	c0.1,0.1,0.1,0.2,0.1,0.3c0,0.1,0,0.2-0.1,0.3c-0.1,0.1-0.2,0.1-0.3,0.1h-0.7c-0.3,0-0.5-0.1-0.6-0.2c-0.1-0.1-0.2-0.2-0.2-0.3
	L321.6,384.7z M315.3,382.9h5.5l-2.8-7.1L315.3,382.9z M328.5,381.5v4.6h4.1c0.4,0,0.8-0.1,1.2-0.2c0.3-0.1,0.6-0.3,0.9-0.5
	c0.2-0.2,0.4-0.5,0.5-0.7c0.1-0.3,0.2-0.6,0.2-0.9c0-0.3-0.1-0.6-0.2-0.9c-0.1-0.3-0.3-0.5-0.5-0.7c-0.2-0.2-0.5-0.4-0.8-0.5
	c-0.3-0.1-0.7-0.2-1.2-0.2H328.5z M328.5,375.7v4h3.8c0.9,0,1.6-0.2,2-0.5c0.5-0.3,0.7-0.8,0.7-1.5c0-0.7-0.2-1.2-0.7-1.5
	c-0.4-0.3-1.1-0.5-2-0.5H328.5z M327.2,387.9c-0.1,0-0.3-0.1-0.4-0.2c-0.1-0.1-0.2-0.2-0.2-0.4v-12.9c0-0.1,0.1-0.3,0.2-0.4
	c0.1-0.1,0.2-0.2,0.4-0.2h5.4c0.9,0,1.6,0.1,2.1,0.4c0.6,0.3,1,0.6,1.3,1c0.3,0.4,0.6,0.8,0.7,1.2c0.1,0.4,0.2,0.8,0.2,1.2
	c0,0.4-0.1,0.8-0.2,1.2c-0.1,0.3-0.3,0.6-0.5,0.8c-0.2,0.2-0.4,0.4-0.5,0.5c-0.2,0.1-0.3,0.2-0.4,0.3c0.5,0.3,0.9,0.8,1.3,1.4
	c0.4,0.6,0.6,1.2,0.6,2c0,0.5-0.1,1-0.3,1.5c-0.2,0.5-0.5,0.9-0.8,1.3c-0.4,0.4-0.8,0.7-1.4,0.9c-0.5,0.2-1.2,0.3-1.9,0.3H327.2z
	 M348.7,386.1c0.1,0,0.3,0.1,0.4,0.2c0.1,0.1,0.2,0.2,0.2,0.4v0.7c0,0.1-0.1,0.3-0.2,0.4c-0.1,0.1-0.2,0.2-0.4,0.2h-8.1
	c-0.1,0-0.3-0.1-0.4-0.2c-0.1-0.1-0.2-0.2-0.2-0.4v-12.9c0-0.1,0.1-0.3,0.2-0.4c0.1-0.1,0.2-0.2,0.4-0.2h0.8c0.1,0,0.3,0.1,0.4,0.2
	c0.1,0.1,0.2,0.2,0.2,0.4v11.7H348.7z M359.9,386.1c0.1,0,0.3,0.1,0.4,0.2c0.1,0.1,0.2,0.2,0.2,0.4v0.7c0,0.1-0.1,0.3-0.2,0.4
	c-0.1,0.1-0.2,0.2-0.4,0.2h-8.1c-0.1,0-0.3-0.1-0.4-0.2c-0.1-0.1-0.2-0.2-0.2-0.4v-12.9c0-0.1,0.1-0.3,0.2-0.4
	c0.1-0.1,0.2-0.2,0.4-0.2h7.9c0.1,0,0.3,0.1,0.4,0.2c0.1,0.1,0.2,0.2,0.2,0.4v0.7c0,0.1-0.1,0.3-0.2,0.4c-0.1,0.1-0.2,0.2-0.4,0.2
	h-6.6v4.2h6.1c0.1,0,0.3,0.1,0.4,0.2c0.1,0.1,0.2,0.2,0.2,0.4v0.7c0,0.1-0.1,0.3-0.2,0.4c-0.1,0.1-0.2,0.2-0.4,0.2h-6.1v4.4H359.9z"
	/>
<path class="st24" d="M118,474.8c18.2-0.7,36.4-1.1,54.7-1.4c9.1-0.2,18.2-0.2,27.4-0.3l27.4-0.1l27.4,0.1
	c9.1,0.1,18.2,0.1,27.4,0.3c18.2,0.3,36.4,0.6,54.7,1.4c-18.2,0.7-36.4,1.1-54.7,1.4c-9.1,0.2-18.2,0.2-27.4,0.3l-27.4,0.1
	l-27.4-0.1c-9.1-0.1-18.2-0.1-27.4-0.3C154.4,475.9,136.2,475.5,118,474.8z"/>
</svg>
