<svg width="155" height="157" viewBox="0 0 155 157" fill="none" xmlns="http://www.w3.org/2000/svg">
<path d="M146.769 11.6254H136.763L140.179 7.56623C140.23 7.51179 140.265 7.44409 140.28 7.3707C140.295 7.29731 140.29 7.22113 140.265 7.1505C140.241 7.07986 140.197 7.01752 140.14 6.97053C140.082 6.92355 140.013 6.89375 139.94 6.88431H123.467V1.29891C123.468 1.12852 123.435 0.959689 123.372 0.80212C123.308 0.64455 123.215 0.501315 123.097 0.380645C122.979 0.259975 122.838 0.164229 122.684 0.0989023C122.53 0.0335753 122.364 -8.37178e-07 122.197 0H32.787C32.6199 -8.37178e-07 32.4544 0.0335753 32.3 0.0989023C32.1456 0.164229 32.0054 0.259975 31.8874 0.380645C31.7694 0.501315 31.6759 0.64455 31.6123 0.80212C31.5487 0.959689 31.5163 1.12852 31.5168 1.29891V6.88431H15.0436C14.9706 6.89375 14.9017 6.92355 14.8443 6.97053C14.787 7.01752 14.7435 7.07986 14.7187 7.1505C14.694 7.22113 14.6889 7.29731 14.7041 7.3707C14.7193 7.44409 14.754 7.51179 14.8046 7.56623L18.2212 11.6254H8.21465C6.03598 11.6254 3.94662 12.5077 2.40607 14.0781C0.865512 15.6486 0 17.7784 0 19.9994V148.626C0 150.847 0.865512 152.977 2.40607 154.547C3.94662 156.118 6.03598 157 8.21465 157H146.785C147.864 157 148.932 156.783 149.929 156.363C150.926 155.942 151.831 155.325 152.594 154.547C153.357 153.77 153.962 152.847 154.375 151.831C154.788 150.815 155 149.726 155 148.626V19.9994C155 18.8983 154.787 17.8081 154.373 16.7911C153.959 15.7741 153.353 14.8502 152.589 14.0724C151.824 13.2946 150.916 12.678 149.918 12.2581C148.92 11.8383 147.85 11.6232 146.769 11.6254Z" fill="black" fill-opacity="0.2"/>
</svg>
