<svg width="213" height="79" viewBox="0 0 213 79" fill="none" xmlns="http://www.w3.org/2000/svg">
<path d="M59.3887 1H152.714C168.946 1 183.597 5.3246 194.159 12.2638C204.729 19.2085 211.102 28.6886 211.102 39.0177C211.102 49.3469 204.729 58.827 194.159 65.7717C183.597 72.7108 168.946 77.0354 152.714 77.0354H59.3887C43.1559 77.0354 28.5057 72.7108 17.9436 65.7717C7.37313 58.827 1 49.3469 1 39.0177C1 28.6886 7.37313 19.2085 17.9436 12.2638C28.5057 5.3246 43.1559 1 59.3887 1Z" fill="#1C5E8A" stroke="white" stroke-width="2"/>
<path d="M173 68.5001C237.8 44.9001 197 17 168.5 6.00004C143.112 2.82659 70.387 7.25867 36.3463 9.93328C-15.7767 32.6798 8.39753 55.7889 27 64.5001C57.8 75.3001 137.167 71.6667 173 68.5001Z" fill="#003B62"/>
<path d="M88.55 60.5C85.2833 60.5 82.4167 60 79.95 59C77.5167 58 75.5833 56.5 74.15 54.5C72.75 52.4667 71.9833 49.9667 71.85 47C71.8167 45.6333 71.8 44.1833 71.8 42.65C71.8 41.1167 71.8167 39.6333 71.85 38.2C71.9833 35.2667 72.75 32.7833 74.15 30.75C75.55 28.7167 77.4833 27.1667 79.95 26.1C82.4167 25.0333 85.2833 24.5 88.55 24.5C91.8167 24.5 94.6833 25.0333 97.15 26.1C99.6167 27.1667 101.55 28.7167 102.95 30.75C104.383 32.7833 105.15 35.2667 105.25 38.2C105.317 39.6333 105.35 41.1167 105.35 42.65C105.35 44.1833 105.317 45.6333 105.25 47C105.117 49.9667 104.333 52.4667 102.9 54.5C101.5 56.5 99.5667 58 97.1 59C94.6667 60 91.8167 60.5 88.55 60.5ZM88.55 50.75C89.65 50.75 90.5333 50.4333 91.2 49.8C91.8667 49.1333 92.2167 48.1 92.25 46.7C92.3167 45.2667 92.35 43.85 92.35 42.45C92.35 41.05 92.3167 39.6667 92.25 38.3C92.2167 37.3667 92.0333 36.6 91.7 36C91.4 35.4 90.9833 34.9667 90.45 34.7C89.9167 34.4 89.2833 34.25 88.55 34.25C87.85 34.25 87.2167 34.4 86.65 34.7C86.1167 34.9667 85.6833 35.4 85.35 36C85.05 36.6 84.8833 37.3667 84.85 38.3C84.8167 39.6667 84.8 41.05 84.8 42.45C84.8 43.85 84.8167 45.2667 84.85 46.7C84.9167 48.1 85.2667 49.1333 85.9 49.8C86.5667 50.4333 87.45 50.75 88.55 50.75ZM109.459 60C109.093 60 108.776 59.8667 108.509 59.6C108.243 59.3333 108.109 59.0167 108.109 58.65V26.35C108.109 25.9833 108.243 25.6667 108.509 25.4C108.776 25.1333 109.093 25 109.459 25H119.009C119.376 25 119.693 25.1333 119.959 25.4C120.226 25.6667 120.359 25.9833 120.359 26.35V36.25L126.009 26.1C126.176 25.8333 126.409 25.5833 126.709 25.35C127.043 25.1167 127.476 25 128.009 25H139.059C139.359 25 139.609 25.1167 139.809 25.35C140.043 25.55 140.159 25.8 140.159 26.1C140.159 26.3 140.109 26.4833 140.009 26.65L131.009 41.75L140.859 58.35C140.959 58.4833 141.009 58.6667 141.009 58.9C141.009 59.2 140.893 59.4667 140.659 59.7C140.459 59.9 140.209 60 139.909 60H128.509C127.843 60 127.343 59.85 127.009 59.55C126.709 59.2167 126.526 58.9833 126.459 58.85L120.359 47.95V58.65C120.359 59.0167 120.226 59.3333 119.959 59.6C119.693 59.8667 119.376 60 119.009 60H109.459Z" fill="white"/>
<path d="M79.95 59L79.5699 59.9249L79.5743 59.9267L79.95 59ZM74.15 54.5L73.3264 55.0671L73.3317 55.0749L73.3372 55.0825L74.15 54.5ZM71.85 47L70.8503 47.0244L70.8505 47.0346L70.851 47.0449L71.85 47ZM71.85 38.2L70.851 38.1546L70.8505 38.1657L70.8503 38.1768L71.85 38.2ZM74.15 30.75L74.9736 31.3171L74.15 30.75ZM79.95 26.1L80.3469 27.0179L79.95 26.1ZM97.15 26.1L97.5469 25.1821L97.15 26.1ZM102.95 30.75L102.126 31.3171L102.133 31.3262L102.95 30.75ZM105.25 38.2L104.251 38.2341L104.251 38.2465L105.25 38.2ZM105.25 47L104.251 46.9513L104.251 46.9551L105.25 47ZM102.9 54.5L102.083 53.9238L102.081 53.9265L102.9 54.5ZM97.1 59L96.7243 58.0732L96.7199 58.0751L97.1 59ZM91.2 49.8L91.8888 50.525L91.898 50.5162L91.9071 50.5071L91.2 49.8ZM92.25 46.7L91.2511 46.6535L91.2506 46.6649L91.2503 46.6762L92.25 46.7ZM92.25 38.3L91.2506 38.3357L91.2512 38.3487L92.25 38.3ZM91.7 36L90.8056 36.4472L90.8153 36.4666L90.8258 36.4856L91.7 36ZM90.45 34.7L89.9597 35.5716L89.981 35.5835L90.0028 35.5944L90.45 34.7ZM86.65 34.7L87.0972 35.5944L87.1076 35.5892L87.1179 35.5838L86.65 34.7ZM85.35 36L84.4758 35.5144L84.4653 35.5333L84.4556 35.5528L85.35 36ZM84.85 38.3L83.8506 38.2643L83.8503 38.2756L84.85 38.3ZM84.85 46.7L83.8503 46.7233L83.8506 46.7354L83.8511 46.7476L84.85 46.7ZM85.9 49.8L85.175 50.4888L85.1927 50.5073L85.2113 50.525L85.9 49.8ZM88.55 59.5C85.3837 59.5 82.6493 59.0152 80.3257 58.0733L79.5743 59.9267C82.1841 60.9848 85.183 61.5 88.55 61.5V59.5ZM80.3301 58.0751C78.0578 57.1412 76.2793 55.7544 74.9628 53.9175L73.3372 55.0825C74.8874 57.2456 76.9756 58.8588 79.5699 59.9249L80.3301 58.0751ZM74.9736 53.9329C73.6996 52.0825 72.9756 49.773 72.849 46.9551L70.851 47.0449C70.991 50.1604 71.8004 52.8508 73.3264 55.0671L74.9736 53.9329ZM72.8497 46.9756C72.8166 45.618 72.8 44.1762 72.8 42.65H70.8C70.8 44.1905 70.8167 45.6487 70.8503 47.0244L72.8497 46.9756ZM72.8 42.65C72.8 41.1239 72.8166 39.6483 72.8497 38.2232L70.8503 38.1768C70.8167 39.6183 70.8 41.1094 70.8 42.65H72.8ZM72.849 38.2454C72.9754 35.4632 73.6984 33.1693 74.9736 31.3171L73.3264 30.1829C71.8016 32.3974 70.9912 35.0702 70.851 38.1546L72.849 38.2454ZM74.9736 31.3171C76.2578 29.4521 78.0368 28.0168 80.3469 27.0179L79.5531 25.1821C76.9299 26.3165 74.8422 27.9813 73.3264 30.1829L74.9736 31.3171ZM80.3469 27.0179C82.6643 26.0157 85.3911 25.5 88.55 25.5V23.5C85.1756 23.5 82.169 24.0509 79.5531 25.1821L80.3469 27.0179ZM88.55 25.5C91.7089 25.5 94.4357 26.0157 96.7531 27.0179L97.5469 25.1821C94.931 24.0509 91.9244 23.5 88.55 23.5V25.5ZM96.7531 27.0179C99.0633 28.0168 100.842 29.4521 102.126 31.3171L103.774 30.1829C102.258 27.9813 100.17 26.3165 97.5469 25.1821L96.7531 27.0179ZM102.133 31.3262C103.435 33.1735 104.156 35.4597 104.251 38.2341L106.249 38.1659C106.144 35.0737 105.332 32.3931 103.767 30.1738L102.133 31.3262ZM104.251 38.2465C104.317 39.6633 104.35 41.1311 104.35 42.65H106.35C106.35 41.1022 106.316 39.6034 106.249 38.1535L104.251 38.2465ZM104.35 42.65C104.35 44.169 104.317 45.6026 104.251 46.9513L106.249 47.0487C106.316 45.664 106.35 44.1977 106.35 42.65H104.35ZM104.251 46.9551C104.125 49.7684 103.386 52.0746 102.083 53.9238L103.717 55.0762C105.28 52.8587 106.109 50.165 106.249 47.0449L104.251 46.9551ZM102.081 53.9265C100.801 55.7542 99.0289 57.1389 96.7243 58.0733L97.4757 59.9267C100.104 58.8611 102.199 57.2458 103.719 55.0735L102.081 53.9265ZM96.7199 58.0751C94.4325 59.0151 91.7168 59.5 88.55 59.5V61.5C91.9166 61.5 94.9009 60.9849 97.4801 59.9249L96.7199 58.0751ZM88.55 51.75C89.8529 51.75 91.0008 51.3686 91.8888 50.525L90.5113 49.075C90.0659 49.4981 89.4471 49.75 88.55 49.75V51.75ZM91.9071 50.5071C92.8269 49.5873 93.2132 48.2579 93.2497 46.7238L91.2503 46.6762C91.2201 47.9421 90.9064 48.6794 90.4929 49.0929L91.9071 50.5071ZM93.2489 46.7465C93.3163 45.298 93.35 43.8659 93.35 42.45H91.35C91.35 43.8341 91.317 45.2353 91.2511 46.6535L93.2489 46.7465ZM93.35 42.45C93.35 41.0341 93.3163 39.6345 93.2488 38.2513L91.2512 38.3487C91.317 39.6988 91.35 41.0659 91.35 42.45H93.35ZM93.2494 38.2643C93.2123 37.2273 93.0067 36.293 92.5742 35.5144L90.8258 36.4856C91.06 36.907 91.221 37.506 91.2506 38.3357L93.2494 38.2643ZM92.5944 35.5528C92.2103 34.7846 91.648 34.181 90.8972 33.8056L90.0028 35.5944C90.3187 35.7524 90.5897 36.0154 90.8056 36.4472L92.5944 35.5528ZM90.9403 33.8284C90.2301 33.429 89.421 33.25 88.55 33.25V35.25C89.1456 35.25 89.6032 35.371 89.9597 35.5716L90.9403 33.8284ZM88.55 33.25C87.7022 33.25 86.9059 33.433 86.1821 33.8162L87.1179 35.5838C87.5275 35.3669 87.9978 35.25 88.55 35.25V33.25ZM86.2028 33.8056C85.463 34.1754 84.8918 34.7656 84.4758 35.5144L86.2242 36.4856C86.4749 36.0344 86.7703 35.7579 87.0972 35.5944L86.2028 33.8056ZM84.4556 35.5528C84.0716 36.3208 83.8872 37.2404 83.8506 38.2643L85.8494 38.3357C85.8795 37.4929 86.0284 36.8792 86.2444 36.4472L84.4556 35.5528ZM83.8503 38.2756C83.8168 39.6506 83.8 41.0421 83.8 42.45H85.8C85.8 41.0579 85.8166 39.6827 85.8497 38.3244L83.8503 38.2756ZM83.8 42.45C83.8 43.8579 83.8168 45.2824 83.8503 46.7233L85.8497 46.6768C85.8166 45.251 85.8 43.8421 85.8 42.45H83.8ZM83.8511 46.7476C83.9235 48.2664 84.3088 49.5769 85.175 50.4888L86.625 49.1113C86.2246 48.6897 85.9099 47.9336 85.8489 46.6524L83.8511 46.7476ZM85.2113 50.525C86.0992 51.3686 87.2471 51.75 88.55 51.75V49.75C87.6529 49.75 87.0341 49.4981 86.5888 49.075L85.2113 50.525ZM108.509 59.6L107.802 60.3071L108.509 59.6ZM108.509 25.4L107.802 24.6929L108.509 25.4ZM119.959 25.4L120.666 24.6929V24.6929L119.959 25.4ZM120.359 36.25H119.359V40.1025L121.233 36.7364L120.359 36.25ZM126.009 26.1L125.161 25.57L125.148 25.5915L125.136 25.6136L126.009 26.1ZM126.709 25.35L126.136 24.5308L126.115 24.5452L126.095 24.5606L126.709 25.35ZM139.809 25.35L139.05 26.0008L139.1 26.0592L139.159 26.1093L139.809 25.35ZM140.009 26.65L139.152 26.1355L139.15 26.138L140.009 26.65ZM131.009 41.75L130.15 41.238L129.846 41.7489L130.149 42.2603L131.009 41.75ZM140.859 58.35L139.999 58.8603L140.027 58.9068L140.059 58.95L140.859 58.35ZM140.659 59.7L139.952 58.9929L140.659 59.7ZM127.009 59.55L126.266 60.219L126.301 60.2581L126.34 60.2933L127.009 59.55ZM126.459 58.85L127.354 58.4028L127.343 58.382L127.332 58.3616L126.459 58.85ZM120.359 47.95L121.232 47.4616L119.359 44.1154V47.95H120.359ZM119.959 59.6L120.666 60.3071H120.666L119.959 59.6ZM109.459 59C109.366 59 109.302 58.978 109.216 58.8929L107.802 60.3071C108.25 60.7553 108.819 61 109.459 61V59ZM109.216 58.8929C109.131 58.8078 109.109 58.7431 109.109 58.65H107.109C107.109 59.2902 107.354 59.8589 107.802 60.3071L109.216 58.8929ZM109.109 58.65V26.35H107.109V58.65H109.109ZM109.109 26.35C109.109 26.2569 109.131 26.1922 109.216 26.1071L107.802 24.6929C107.354 25.1411 107.109 25.7098 107.109 26.35H109.109ZM109.216 26.1071C109.302 26.022 109.366 26 109.459 26V24C108.819 24 108.25 24.2447 107.802 24.6929L109.216 26.1071ZM109.459 26H119.009V24H109.459V26ZM119.009 26C119.102 26 119.167 26.022 119.252 26.1071L120.666 24.6929C120.218 24.2447 119.65 24 119.009 24V26ZM119.252 26.1071C119.337 26.1922 119.359 26.2569 119.359 26.35H121.359C121.359 25.7098 121.115 25.1411 120.666 24.6929L119.252 26.1071ZM119.359 26.35V36.25H121.359V26.35H119.359ZM121.233 36.7364L126.883 26.5864L125.136 25.6136L119.486 35.7636L121.233 36.7364ZM126.857 26.63C126.95 26.4812 127.097 26.3152 127.323 26.1394L126.095 24.5606C125.722 24.8514 125.402 25.1855 125.161 25.57L126.857 26.63ZM127.283 26.1692C127.403 26.0852 127.618 26 128.009 26V24C127.334 24 126.683 24.1481 126.136 24.5308L127.283 26.1692ZM128.009 26H139.059V24H128.009V26ZM139.059 26C139.069 26 139.071 26.0009 139.067 26.0001C139.063 25.9992 139.057 25.9972 139.049 25.9937C139.041 25.9901 139.037 25.9869 139.036 25.9862C139.035 25.9857 139.04 25.9895 139.05 26.0008L140.569 24.6992C140.184 24.2504 139.659 24 139.059 24V26ZM139.159 26.1093C139.17 26.119 139.174 26.124 139.173 26.1233C139.172 26.1224 139.169 26.118 139.166 26.1104C139.162 26.1028 139.16 26.096 139.159 26.0919C139.158 26.088 139.159 26.0901 139.159 26.1H141.159C141.159 25.5 140.909 24.9754 140.46 24.5907L139.159 26.1093ZM139.159 26.1C139.159 26.1158 139.158 26.1228 139.157 26.1244C139.157 26.1257 139.156 26.1288 139.152 26.1355L140.867 27.1645C141.063 26.8378 141.159 26.4757 141.159 26.1H139.159ZM139.15 26.138L130.15 41.238L131.868 42.262L140.868 27.162L139.15 26.138ZM130.149 42.2603L139.999 58.8603L141.719 57.8397L131.869 41.2397L130.149 42.2603ZM140.059 58.95C140.024 58.9026 140.011 58.8637 140.007 58.8506C140.004 58.8397 140.009 58.8528 140.009 58.9H142.009C142.009 58.5347 141.932 58.1136 141.659 57.75L140.059 58.95ZM140.009 58.9C140.009 58.9098 140.008 58.915 140.008 58.9171C140.008 58.9191 140.007 58.9211 140.006 58.9242C140.004 58.929 139.992 58.9527 139.952 58.9929L141.366 60.4071C141.767 60.0068 142.009 59.493 142.009 58.9H140.009ZM139.952 58.9929C139.947 58.9985 139.944 58.9999 139.945 58.9992C139.946 58.9985 139.948 58.9973 139.95 58.9965C139.952 58.9957 139.952 58.9964 139.946 58.9974C139.941 58.9984 139.929 59 139.909 59V61C140.457 61 140.967 60.8069 141.366 60.4071L139.952 58.9929ZM139.909 59H128.509V61H139.909V59ZM128.509 59C127.972 59 127.756 58.8769 127.678 58.8067L126.34 60.2933C126.929 60.8231 127.713 61 128.509 61V59ZM127.753 58.881C127.611 58.7235 127.506 58.5999 127.433 58.5072C127.351 58.4023 127.34 58.3755 127.354 58.4028L125.565 59.2972C125.702 59.572 125.982 59.9035 126.266 60.219L127.753 58.881ZM127.332 58.3616L121.232 47.4616L119.487 48.4384L125.587 59.3384L127.332 58.3616ZM119.359 47.95V58.65H121.359V47.95H119.359ZM119.359 58.65C119.359 58.7431 119.337 58.8078 119.252 58.8929L120.666 60.3071C121.115 59.8589 121.359 59.2902 121.359 58.65H119.359ZM119.252 58.8929C119.167 58.978 119.102 59 119.009 59V61C119.65 61 120.218 60.7553 120.666 60.3071L119.252 58.8929ZM119.009 59H109.459V61H119.009V59Z" fill="black"/>
<path d="M16.4999 37.5C24.8332 27.1667 36.3001 6.10009 43.5001 14.5001C39.4999 8.00007 10.0999 9.10001 16.4999 37.5Z" fill="white"/>
<path d="M195 49.0001L178 61C188 61 189 59.5001 192 57.0001L195 49.0001Z" fill="white"/>
</svg>
