<svg width="491" height="63" viewBox="0 0 491 63" fill="none" xmlns="http://www.w3.org/2000/svg">
<path d="M0 0H491V46.6545C491 50.9896 489.267 55.1472 486.182 58.2125C483.097 61.2779 478.913 63 474.55 63H16.4494C12.0868 63 7.90281 61.2779 4.81793 58.2125C1.73306 55.1472 0 50.9896 0 46.6545V0Z" fill="#1C5E8A"/>
<path d="M56.8248 16.4097C58.3608 16.4097 59.7648 16.6377 61.0368 17.0937C62.3328 17.5257 63.4488 18.0897 64.3848 18.7857C65.3208 19.4817 66.0528 20.2497 66.5808 21.0897C67.1088 21.9297 67.3848 22.7337 67.4088 23.5017C67.4088 23.7177 67.3248 23.9097 67.1568 24.0777C67.0128 24.2217 66.8448 24.2937 66.6528 24.2937H61.9368C61.6008 24.2937 61.3248 24.2457 61.1088 24.1497C60.9168 24.0537 60.7128 23.9097 60.4968 23.7177C60.4248 23.6457 60.3048 23.5257 60.1368 23.3577C59.9928 23.1897 59.7768 23.0217 59.4888 22.8537C59.2008 22.6617 58.8408 22.5057 58.4088 22.3857C57.9768 22.2417 57.4488 22.1697 56.8248 22.1697C56.3688 22.1697 55.9248 22.2057 55.4928 22.2777C55.0848 22.3257 54.7128 22.4217 54.3768 22.5657C54.0648 22.6857 53.8008 22.8657 53.5848 23.1057C53.3928 23.3457 53.2968 23.6457 53.2968 24.0057C53.2968 24.3657 53.4048 24.6657 53.6208 24.9057C53.8608 25.1457 54.2448 25.3737 54.7728 25.5897C55.3248 25.7817 56.0448 25.9737 56.9328 26.1657C57.8208 26.3577 58.9248 26.5857 60.2448 26.8497C61.5648 27.1137 62.7168 27.4497 63.7008 27.8577C64.6848 28.2657 65.5008 28.7817 66.1488 29.4057C66.8208 30.0057 67.3128 30.7257 67.6248 31.5657C67.9608 32.3817 68.1288 33.3537 68.1288 34.4817C68.1288 35.7057 67.8528 36.7977 67.3008 37.7577C66.7488 38.7177 65.9688 39.5457 64.9608 40.2417C63.9768 40.9137 62.8008 41.4297 61.4328 41.7897C60.0888 42.1497 58.6128 42.3297 57.0048 42.3297C55.3728 42.3297 53.8848 42.1137 52.5408 41.6817C51.1968 41.2497 50.0328 40.6857 49.0488 39.9897C48.0888 39.2697 47.3328 38.4657 46.7808 37.5777C46.2288 36.6897 45.9408 35.7897 45.9168 34.8777C45.9168 34.6617 45.9888 34.4817 46.1328 34.3377C46.3008 34.1697 46.4808 34.0857 46.6728 34.0857H51.3888C51.7248 34.0857 51.9888 34.1337 52.1808 34.2297C52.3728 34.3017 52.5648 34.4217 52.7568 34.5897C52.8528 34.6857 52.9968 34.8417 53.1888 35.0577C53.3808 35.2737 53.6328 35.5017 53.9448 35.7417C54.2808 35.9577 54.6888 36.1497 55.1688 36.3177C55.6728 36.4857 56.2848 36.5697 57.0048 36.5697C58.2768 36.5697 59.3328 36.4377 60.1728 36.1737C61.0368 35.8857 61.4688 35.3817 61.4688 34.6617C61.4688 34.3017 61.3128 34.0017 61.0008 33.7617C60.6888 33.5217 60.2208 33.3057 59.5968 33.1137C58.9728 32.8977 58.1688 32.6937 57.1848 32.5017C56.2248 32.3097 55.0848 32.0697 53.7648 31.7817C51.2928 31.2537 49.4808 30.3777 48.3288 29.1537C47.2008 27.9057 46.6368 26.2497 46.6368 24.1857C46.6368 23.1537 46.8648 22.1697 47.3208 21.2337C47.8008 20.2977 48.4848 19.4697 49.3728 18.7497C50.2608 18.0297 51.3288 17.4657 52.5768 17.0577C53.8488 16.6257 55.2648 16.4097 56.8248 16.4097ZM89.9805 16.7697C90.2445 16.7697 90.4725 16.8657 90.6645 17.0577C90.8565 17.2497 90.9525 17.4777 90.9525 17.7417V21.5577C90.9525 21.8217 90.8565 22.0497 90.6645 22.2417C90.4725 22.4337 90.2445 22.5297 89.9805 22.5297H83.6445V40.9977C83.6445 41.2617 83.5485 41.4897 83.3565 41.6817C83.1645 41.8737 82.9365 41.9697 82.6725 41.9697H77.9565C77.6925 41.9697 77.4645 41.8737 77.2725 41.6817C77.0805 41.4897 76.9845 41.2617 76.9845 40.9977V22.5297H70.6485C70.3845 22.5297 70.1565 22.4337 69.9645 22.2417C69.7725 22.0497 69.6765 21.8217 69.6765 21.5577V17.7417C69.6765 17.4777 69.7725 17.2497 69.9645 17.0577C70.1565 16.8657 70.3845 16.7697 70.6485 16.7697H89.9805ZM104.915 16.7697C106.499 16.7697 107.915 16.9377 109.163 17.2737C110.411 17.6097 111.467 18.1137 112.331 18.7857C113.219 19.4577 113.891 20.3217 114.347 21.3777C114.827 22.4097 115.067 23.6217 115.067 25.0137C115.067 26.8137 114.695 28.3137 113.951 29.5137C113.207 30.6897 112.151 31.5897 110.783 32.2137L115.247 40.7817C115.319 40.9257 115.355 41.0577 115.355 41.1777C115.355 41.3937 115.271 41.5857 115.103 41.7537C114.959 41.8977 114.779 41.9697 114.563 41.9697H109.667C109.187 41.9697 108.839 41.8617 108.623 41.6457C108.431 41.4297 108.275 41.2137 108.155 40.9977L104.159 33.2937H100.847V40.9977C100.847 41.2617 100.751 41.4897 100.559 41.6817C100.367 41.8737 100.139 41.9697 99.8755 41.9697H95.1595C94.8955 41.9697 94.6675 41.8737 94.4755 41.6817C94.2835 41.4897 94.1875 41.2617 94.1875 40.9977V17.7417C94.1875 17.4777 94.2835 17.2497 94.4755 17.0577C94.6675 16.8657 94.8955 16.7697 95.1595 16.7697H104.915ZM100.847 27.6777H104.915C105.923 27.6777 106.751 27.4857 107.399 27.1017C108.071 26.7177 108.407 26.0217 108.407 25.0137C108.407 24.0057 108.071 23.3097 107.399 22.9257C106.751 22.5417 105.923 22.3497 104.915 22.3497H100.847V27.6777ZM132.363 16.7697C132.843 16.7697 133.203 16.9017 133.443 17.1657C133.707 17.4297 133.887 17.6937 133.983 17.9577L141.831 40.6377C141.927 40.8777 141.975 41.0577 141.975 41.1777C141.975 41.3937 141.891 41.5857 141.723 41.7537C141.579 41.8977 141.399 41.9697 141.183 41.9697H136.647C136.167 41.9697 135.819 41.8737 135.603 41.6817C135.411 41.4657 135.291 41.2617 135.243 41.0697L134.235 38.0817H124.659L123.651 41.0697C123.603 41.2617 123.471 41.4657 123.255 41.6817C123.063 41.8737 122.727 41.9697 122.247 41.9697H117.711C117.495 41.9697 117.303 41.8977 117.135 41.7537C116.991 41.5857 116.919 41.3937 116.919 41.1777C116.919 41.0577 116.967 40.8777 117.063 40.6377L124.911 17.9577C125.007 17.6937 125.175 17.4297 125.415 17.1657C125.679 16.9017 126.051 16.7697 126.531 16.7697H132.363ZM126.531 32.5017H132.363L129.447 23.8617L126.531 32.5017ZM160.856 16.7697C161.12 16.7697 161.348 16.8657 161.54 17.0577C161.732 17.2497 161.828 17.4777 161.828 17.7417V21.5577C161.828 21.8217 161.732 22.0497 161.54 22.2417C161.348 22.4337 161.12 22.5297 160.856 22.5297H154.52V40.9977C154.52 41.2617 154.424 41.4897 154.232 41.6817C154.04 41.8737 153.812 41.9697 153.548 41.9697H148.832C148.568 41.9697 148.34 41.8737 148.148 41.6817C147.956 41.4897 147.86 41.2617 147.86 40.9977V22.5297H141.524C141.26 22.5297 141.032 22.4337 140.84 22.2417C140.648 22.0497 140.552 21.8217 140.552 21.5577V17.7417C140.552 17.4777 140.648 17.2497 140.84 17.0577C141.032 16.8657 141.26 16.7697 141.524 16.7697H160.856ZM183.098 36.2097C183.362 36.2097 183.59 36.3057 183.782 36.4977C183.974 36.6897 184.07 36.9177 184.07 37.1817V40.9977C184.07 41.2617 183.974 41.4897 183.782 41.6817C183.59 41.8737 183.362 41.9697 183.098 41.9697H166.034C165.77 41.9697 165.542 41.8737 165.35 41.6817C165.158 41.4897 165.062 41.2617 165.062 40.9977V17.7417C165.062 17.4777 165.158 17.2497 165.35 17.0577C165.542 16.8657 165.77 16.7697 166.034 16.7697H182.81C183.074 16.7697 183.302 16.8657 183.494 17.0577C183.686 17.2497 183.782 17.4777 183.782 17.7417V21.5577C183.782 21.8217 183.686 22.0497 183.494 22.2417C183.302 22.4337 183.074 22.5297 182.81 22.5297H171.722V26.4177H182.018C182.282 26.4177 182.51 26.5137 182.702 26.7057C182.894 26.8977 182.99 27.1257 182.99 27.3897V31.2057C182.99 31.4697 182.894 31.6977 182.702 31.8897C182.51 32.0817 182.282 32.1777 182.018 32.1777H171.722V36.2097H183.098ZM198.281 22.1697C197.465 22.1697 196.781 22.2897 196.229 22.5297C195.677 22.7457 195.221 23.0457 194.861 23.4297C194.525 23.8137 194.273 24.2577 194.105 24.7617C193.937 25.2657 193.817 25.7937 193.745 26.3457C193.697 26.6577 193.661 27.0897 193.637 27.6417C193.637 28.1937 193.637 28.7697 193.637 29.3697C193.637 29.9457 193.649 30.5217 193.673 31.0977C193.697 31.6497 193.721 32.0817 193.745 32.3937C193.793 32.9457 193.901 33.4737 194.069 33.9777C194.261 34.4817 194.525 34.9257 194.861 35.3097C195.221 35.6937 195.677 36.0057 196.229 36.2457C196.805 36.4617 197.489 36.5697 198.281 36.5697C198.905 36.5697 199.493 36.4977 200.045 36.3537C200.597 36.2097 201.077 35.9817 201.485 35.6697C201.893 35.3577 202.217 34.9497 202.457 34.4457C202.697 33.9417 202.817 33.3297 202.817 32.6097H199.793C199.529 32.6097 199.301 32.5137 199.109 32.3217C198.917 32.1297 198.821 31.9017 198.821 31.6377V27.8217C198.821 27.5577 198.917 27.3297 199.109 27.1377C199.301 26.9457 199.529 26.8497 199.793 26.8497H208.505C208.769 26.8497 208.997 26.9457 209.189 27.1377C209.381 27.3297 209.477 27.5577 209.477 27.8217V32.4297C209.477 33.9657 209.189 35.3457 208.613 36.5697C208.037 37.7937 207.245 38.8377 206.237 39.7017C205.229 40.5417 204.041 41.1897 202.673 41.6457C201.329 42.1017 199.865 42.3297 198.281 42.3297C196.553 42.3297 195.005 42.0777 193.637 41.5737C192.293 41.0457 191.141 40.3377 190.181 39.4497C189.221 38.5617 188.477 37.5297 187.949 36.3537C187.445 35.1537 187.157 33.8937 187.085 32.5737C187.037 31.5897 187.013 30.5337 187.013 29.4057C187.013 28.2777 187.037 27.1977 187.085 26.1657C187.133 24.8457 187.421 23.5977 187.949 22.4217C188.477 21.2217 189.209 20.1777 190.145 19.2897C191.105 18.4017 192.269 17.7057 193.637 17.2017C195.005 16.6737 196.553 16.4097 198.281 16.4097C199.961 16.4097 201.473 16.6617 202.817 17.1657C204.161 17.6457 205.301 18.2697 206.237 19.0377C207.173 19.7817 207.905 20.6097 208.433 21.5217C208.961 22.4097 209.249 23.2617 209.297 24.0777C209.321 24.2937 209.249 24.4857 209.081 24.6537C208.913 24.7977 208.721 24.8697 208.505 24.8697H203.717C203.357 24.8697 203.069 24.7617 202.853 24.5457C202.661 24.3297 202.469 24.1137 202.277 23.8977C201.941 23.4657 201.485 23.0697 200.909 22.7097C200.333 22.3497 199.457 22.1697 198.281 22.1697ZM225.664 40.9977C225.664 41.2617 225.568 41.4897 225.376 41.6817C225.184 41.8737 224.956 41.9697 224.692 41.9697H219.976C219.712 41.9697 219.484 41.8737 219.292 41.6817C219.1 41.4897 219.004 41.2617 219.004 40.9977V33.3297L210.688 18.0297C210.592 17.8617 210.544 17.7057 210.544 17.5617C210.544 17.3457 210.616 17.1657 210.76 17.0217C210.928 16.8537 211.12 16.7697 211.336 16.7697H216.268C216.748 16.7697 217.108 16.8897 217.348 17.1297C217.588 17.3697 217.732 17.5497 217.78 17.6697L222.316 26.5257L226.888 17.6697C226.936 17.5497 227.08 17.3697 227.32 17.1297C227.56 16.8897 227.92 16.7697 228.4 16.7697H233.332C233.548 16.7697 233.728 16.8537 233.872 17.0217C234.04 17.1657 234.124 17.3457 234.124 17.5617C234.124 17.7057 234.076 17.8617 233.98 18.0297L225.664 33.3297V40.9977ZM253.172 16.4097C254.708 16.4097 256.112 16.6377 257.384 17.0937C258.68 17.5257 259.796 18.0897 260.732 18.7857C261.668 19.4817 262.4 20.2497 262.928 21.0897C263.456 21.9297 263.732 22.7337 263.756 23.5017C263.756 23.7177 263.672 23.9097 263.504 24.0777C263.36 24.2217 263.192 24.2937 263 24.2937H258.284C257.948 24.2937 257.672 24.2457 257.456 24.1497C257.264 24.0537 257.06 23.9097 256.844 23.7177C256.772 23.6457 256.652 23.5257 256.484 23.3577C256.34 23.1897 256.124 23.0217 255.836 22.8537C255.548 22.6617 255.188 22.5057 254.756 22.3857C254.324 22.2417 253.796 22.1697 253.172 22.1697C252.716 22.1697 252.272 22.2057 251.84 22.2777C251.432 22.3257 251.06 22.4217 250.724 22.5657C250.412 22.6857 250.148 22.8657 249.932 23.1057C249.74 23.3457 249.644 23.6457 249.644 24.0057C249.644 24.3657 249.752 24.6657 249.968 24.9057C250.208 25.1457 250.592 25.3737 251.12 25.5897C251.672 25.7817 252.392 25.9737 253.28 26.1657C254.168 26.3577 255.272 26.5857 256.592 26.8497C257.912 27.1137 259.064 27.4497 260.048 27.8577C261.032 28.2657 261.848 28.7817 262.496 29.4057C263.168 30.0057 263.66 30.7257 263.972 31.5657C264.308 32.3817 264.476 33.3537 264.476 34.4817C264.476 35.7057 264.2 36.7977 263.648 37.7577C263.096 38.7177 262.316 39.5457 261.308 40.2417C260.324 40.9137 259.148 41.4297 257.78 41.7897C256.436 42.1497 254.96 42.3297 253.352 42.3297C251.72 42.3297 250.232 42.1137 248.888 41.6817C247.544 41.2497 246.38 40.6857 245.396 39.9897C244.436 39.2697 243.68 38.4657 243.128 37.5777C242.576 36.6897 242.288 35.7897 242.264 34.8777C242.264 34.6617 242.336 34.4817 242.48 34.3377C242.648 34.1697 242.828 34.0857 243.02 34.0857H247.736C248.072 34.0857 248.336 34.1337 248.528 34.2297C248.72 34.3017 248.912 34.4217 249.104 34.5897C249.2 34.6857 249.344 34.8417 249.536 35.0577C249.728 35.2737 249.98 35.5017 250.292 35.7417C250.628 35.9577 251.036 36.1497 251.516 36.3177C252.02 36.4857 252.632 36.5697 253.352 36.5697C254.624 36.5697 255.68 36.4377 256.52 36.1737C257.384 35.8857 257.816 35.3817 257.816 34.6617C257.816 34.3017 257.66 34.0017 257.348 33.7617C257.036 33.5217 256.568 33.3057 255.944 33.1137C255.32 32.8977 254.516 32.6937 253.532 32.5017C252.572 32.3097 251.432 32.0697 250.112 31.7817C247.64 31.2537 245.828 30.3777 244.676 29.1537C243.548 27.9057 242.984 26.2497 242.984 24.1857C242.984 23.1537 243.212 22.1697 243.668 21.2337C244.148 20.2977 244.832 19.4697 245.72 18.7497C246.608 18.0297 247.676 17.4657 248.924 17.0577C250.196 16.6257 251.612 16.4097 253.172 16.4097ZM286.106 36.2097C286.37 36.2097 286.598 36.3057 286.79 36.4977C286.982 36.6897 287.078 36.9177 287.078 37.1817V40.9977C287.078 41.2617 286.982 41.4897 286.79 41.6817C286.598 41.8737 286.37 41.9697 286.106 41.9697H269.042C268.778 41.9697 268.55 41.8737 268.358 41.6817C268.166 41.4897 268.07 41.2617 268.07 40.9977V17.7417C268.07 17.4777 268.166 17.2497 268.358 17.0577C268.55 16.8657 268.778 16.7697 269.042 16.7697H285.818C286.082 16.7697 286.31 16.8657 286.502 17.0577C286.694 17.2497 286.79 17.4777 286.79 17.7417V21.5577C286.79 21.8217 286.694 22.0497 286.502 22.2417C286.31 22.4337 286.082 22.5297 285.818 22.5297H274.73V26.4177H285.026C285.29 26.4177 285.518 26.5137 285.71 26.7057C285.902 26.8977 285.998 27.1257 285.998 27.3897V31.2057C285.998 31.4697 285.902 31.6977 285.71 31.8897C285.518 32.0817 285.29 32.1777 285.026 32.1777H274.73V36.2097H286.106ZM308.843 36.2097C309.107 36.2097 309.335 36.3057 309.527 36.4977C309.719 36.6897 309.815 36.9177 309.815 37.1817V40.9977C309.815 41.2617 309.719 41.4897 309.527 41.6817C309.335 41.8737 309.107 41.9697 308.843 41.9697H292.175C291.911 41.9697 291.683 41.8737 291.491 41.6817C291.299 41.4897 291.203 41.2617 291.203 40.9977V17.7417C291.203 17.4777 291.299 17.2497 291.491 17.0577C291.683 16.8657 291.911 16.7697 292.175 16.7697H296.891C297.155 16.7697 297.383 16.8657 297.575 17.0577C297.767 17.2497 297.863 17.4777 297.863 17.7417V36.2097H308.843ZM330.931 36.2097C331.195 36.2097 331.423 36.3057 331.615 36.4977C331.807 36.6897 331.903 36.9177 331.903 37.1817V40.9977C331.903 41.2617 331.807 41.4897 331.615 41.6817C331.423 41.8737 331.195 41.9697 330.931 41.9697H313.867C313.603 41.9697 313.375 41.8737 313.183 41.6817C312.991 41.4897 312.895 41.2617 312.895 40.9977V17.7417C312.895 17.4777 312.991 17.2497 313.183 17.0577C313.375 16.8657 313.603 16.7697 313.867 16.7697H330.643C330.907 16.7697 331.135 16.8657 331.327 17.0577C331.519 17.2497 331.615 17.4777 331.615 17.7417V21.5577C331.615 21.8217 331.519 22.0497 331.327 22.2417C331.135 22.4337 330.907 22.5297 330.643 22.5297H319.555V26.4177H329.851C330.115 26.4177 330.343 26.5137 330.535 26.7057C330.727 26.8977 330.823 27.1257 330.823 27.3897V31.2057C330.823 31.4697 330.727 31.6977 330.535 31.8897C330.343 32.0817 330.115 32.1777 329.851 32.1777H319.555V36.2097H330.931ZM341.577 26.3457C341.553 26.6577 341.529 27.0897 341.505 27.6417C341.505 28.1937 341.505 28.7697 341.505 29.3697C341.505 29.9457 341.505 30.5217 341.505 31.0977C341.529 31.6497 341.553 32.0817 341.577 32.3937C341.625 32.9457 341.733 33.4737 341.901 33.9777C342.069 34.4817 342.333 34.9257 342.693 35.3097C343.053 35.6937 343.509 36.0057 344.061 36.2457C344.613 36.4617 345.297 36.5697 346.113 36.5697C346.929 36.5697 347.601 36.4737 348.129 36.2817C348.657 36.0897 349.089 35.8617 349.425 35.5977C349.761 35.3097 350.013 34.9977 350.181 34.6617C350.373 34.3257 350.517 34.0137 350.613 33.7257C350.733 33.3417 350.865 33.0777 351.009 32.9337C351.153 32.7657 351.429 32.6817 351.837 32.6817H356.553C356.769 32.6817 356.949 32.7657 357.093 32.9337C357.261 33.0777 357.345 33.2577 357.345 33.4737C357.321 34.6977 357.021 35.8497 356.445 36.9297C355.869 38.0097 355.077 38.9457 354.069 39.7377C353.061 40.5297 351.873 41.1657 350.505 41.6457C349.161 42.1017 347.697 42.3297 346.113 42.3297C344.385 42.3297 342.837 42.0777 341.469 41.5737C340.125 41.0457 338.973 40.3377 338.013 39.4497C337.053 38.5617 336.309 37.5297 335.781 36.3537C335.277 35.1537 334.989 33.8937 334.917 32.5737C334.869 31.5897 334.845 30.5337 334.845 29.4057C334.845 28.2777 334.869 27.1977 334.917 26.1657C334.965 24.8457 335.253 23.5977 335.781 22.4217C336.309 21.2217 337.041 20.1777 337.977 19.2897C338.937 18.4017 340.101 17.7057 341.469 17.2017C342.837 16.6737 344.385 16.4097 346.113 16.4097C347.697 16.4097 349.161 16.6497 350.505 17.1297C351.873 17.5857 353.061 18.2097 354.069 19.0017C355.077 19.7937 355.869 20.7297 356.445 21.8097C357.021 22.8897 357.321 24.0417 357.345 25.2657C357.345 25.4817 357.261 25.6737 357.093 25.8417C356.949 25.9857 356.769 26.0577 356.553 26.0577H351.837C351.429 26.0577 351.153 25.9857 351.009 25.8417C350.865 25.6737 350.733 25.3977 350.613 25.0137C350.517 24.7257 350.373 24.4137 350.181 24.0777C350.013 23.7417 349.761 23.4417 349.425 23.1777C349.089 22.8897 348.657 22.6497 348.129 22.4577C347.601 22.2657 346.929 22.1697 346.113 22.1697C345.297 22.1697 344.613 22.2897 344.061 22.5297C343.509 22.7457 343.053 23.0457 342.693 23.4297C342.333 23.8137 342.069 24.2577 341.901 24.7617C341.733 25.2657 341.625 25.7937 341.577 26.3457ZM379.563 16.7697C379.827 16.7697 380.055 16.8657 380.247 17.0577C380.439 17.2497 380.535 17.4777 380.535 17.7417V21.5577C380.535 21.8217 380.439 22.0497 380.247 22.2417C380.055 22.4337 379.827 22.5297 379.563 22.5297H373.227V40.9977C373.227 41.2617 373.131 41.4897 372.939 41.6817C372.747 41.8737 372.519 41.9697 372.255 41.9697H367.539C367.275 41.9697 367.047 41.8737 366.855 41.6817C366.663 41.4897 366.567 41.2617 366.567 40.9977V22.5297H360.231C359.967 22.5297 359.739 22.4337 359.547 22.2417C359.355 22.0497 359.259 21.8217 359.259 21.5577V17.7417C359.259 17.4777 359.355 17.2497 359.547 17.0577C359.739 16.8657 359.967 16.7697 360.231 16.7697H379.563ZM384.742 41.9697C384.478 41.9697 384.25 41.8737 384.058 41.6817C383.866 41.4897 383.77 41.2617 383.77 40.9977V17.7417C383.77 17.4777 383.866 17.2497 384.058 17.0577C384.25 16.8657 384.478 16.7697 384.742 16.7697H389.458C389.722 16.7697 389.95 16.8657 390.142 17.0577C390.334 17.2497 390.43 17.4777 390.43 17.7417V40.9977C390.43 41.2617 390.334 41.4897 390.142 41.6817C389.95 41.8737 389.722 41.9697 389.458 41.9697H384.742ZM394.649 26.1657C394.721 24.8217 395.009 23.5617 395.513 22.3857C396.041 21.1857 396.773 20.1537 397.709 19.2897C398.669 18.4017 399.821 17.7057 401.165 17.2017C402.533 16.6737 404.105 16.4097 405.881 16.4097C407.633 16.4097 409.193 16.6737 410.561 17.2017C411.929 17.7057 413.081 18.4017 414.017 19.2897C414.977 20.1537 415.709 21.1857 416.213 22.3857C416.741 23.5617 417.041 24.8217 417.113 26.1657C417.161 27.1977 417.185 28.2777 417.185 29.4057C417.185 30.5337 417.161 31.5897 417.113 32.5737C417.041 33.9177 416.741 35.1897 416.213 36.3897C415.709 37.5657 414.977 38.5977 414.017 39.4857C413.081 40.3737 411.929 41.0697 410.561 41.5737C409.193 42.0777 407.633 42.3297 405.881 42.3297C404.105 42.3297 402.533 42.0777 401.165 41.5737C399.821 41.0697 398.669 40.3737 397.709 39.4857C396.773 38.5977 396.041 37.5657 395.513 36.3897C395.009 35.1897 394.721 33.9177 394.649 32.5737C394.601 31.5897 394.577 30.5337 394.577 29.4057C394.577 28.2777 394.601 27.1977 394.649 26.1657ZM410.453 32.3937C410.477 31.9617 410.501 31.4817 410.525 30.9537C410.549 30.4257 410.561 29.8857 410.561 29.3337C410.561 28.7817 410.549 28.2537 410.525 27.7497C410.501 27.2217 410.477 26.7537 410.453 26.3457C410.405 25.7457 410.273 25.1937 410.057 24.6897C409.865 24.1857 409.577 23.7537 409.193 23.3937C408.833 23.0097 408.377 22.7097 407.825 22.4937C407.273 22.2777 406.625 22.1697 405.881 22.1697C405.137 22.1697 404.489 22.2777 403.937 22.4937C403.385 22.7097 402.917 23.0097 402.533 23.3937C402.173 23.7537 401.885 24.1857 401.669 24.6897C401.477 25.1937 401.357 25.7457 401.309 26.3457C401.261 26.7537 401.225 27.2217 401.201 27.7497C401.201 28.2537 401.201 28.7817 401.201 29.3337C401.201 29.8857 401.201 30.4257 401.201 30.9537C401.225 31.4817 401.261 31.9617 401.309 32.3937C401.405 33.5937 401.813 34.5897 402.533 35.3817C403.277 36.1737 404.393 36.5697 405.881 36.5697C407.369 36.5697 408.473 36.1737 409.193 35.3817C409.913 34.5897 410.333 33.5937 410.453 32.3937ZM437.696 41.9697C437.288 41.9697 436.952 41.8617 436.688 41.6457C436.448 41.4297 436.292 41.2617 436.22 41.1417L427.976 28.8297V40.9977C427.976 41.2617 427.88 41.4897 427.688 41.6817C427.496 41.8737 427.268 41.9697 427.004 41.9697H422.288C422.024 41.9697 421.796 41.8737 421.604 41.6817C421.412 41.4897 421.316 41.2617 421.316 40.9977V17.7417C421.316 17.4777 421.412 17.2497 421.604 17.0577C421.796 16.8657 422.024 16.7697 422.288 16.7697H426.032C426.44 16.7697 426.764 16.8777 427.004 17.0937C427.268 17.3097 427.436 17.4777 427.508 17.5977L435.752 29.9097V17.7417C435.752 17.4777 435.848 17.2497 436.04 17.0577C436.232 16.8657 436.46 16.7697 436.724 16.7697H441.44C441.704 16.7697 441.932 16.8657 442.124 17.0577C442.316 17.2497 442.412 17.4777 442.412 17.7417V40.9977C442.412 41.2617 442.316 41.4897 442.124 41.6817C441.932 41.8737 441.704 41.9697 441.44 41.9697H437.696Z" fill="white"/>
</svg>
